<svg version="1.2" xmlns="http://www.w3.org/2000/svg" viewBox="0 0 410 212" width="410" height="212">
	<title>02</title>
	<style>
		.s0 { fill: #847465 } 
		.s1 { fill: #008b98 } 
		.s2 { fill: #f0b200 } 
	</style>
	<path class="s0" d="m328.1 132.2v0.2c0.8 0 8-0.2 0-0.2z"/>
	<path class="s0" d="m328.1 132.4c0 0-0.1 0 0 0z"/>
	<g>
		<g>
			<path class="s0" d="m106.8 126.1c-19.6 0-35.8 17.3-35.8 37.9 0 20.6 16.1 37.3 35.8 37.3 19.7 0 35.9-16.7 35.9-37.3 0-20.9-16.3-37.9-35.9-37.9zm0 70.3c-16.8 0-30.6-14.2-30.6-32.4 0-18.2 13.6-33 30.6-33 17 0 30.6 14.8 30.6 33 0 18.2-13.8 32.4-30.6 32.4z"/>
			<path class="s0" d="m185.8 131.3c16.8 0 23 7.2 27.6 18.7h5.6c-4.9-14.5-17.3-23.9-33.1-23.9-15.8 0-35.8 17-35.8 37.9 0 20.9 15.9 37.3 35.7 37.3 19.8 0 28.4-9.5 33.1-24h-5.4c-4.3 11.6-14.5 18.8-27.7 18.8-13.2 0-30.6-14.5-30.6-32.2 0-17.7 13.8-32.6 30.6-32.6z"/>
			<path class="s0" d="m261.6 126.1c-19.8 0-35.8 17-35.8 37.9 0 20.9 19.8 37.3 36.6 37.3 16.8 0 28.4-8.5 33.4-24h-5.4c-3.5 9.5-10.6 18.8-28 18.8-17.4 0-31.5-13.8-31.5-32.4h66.5c0.3-18.1-16-37.6-35.8-37.6zm-0.1 5.3c15 0 27.7 11.6 30.2 27.1h-60.3c2.4-15.4 15.1-27.1 30.1-27.1z"/>
			<path class="s0" d="m371.2 126.1c-18.1 0-27 7.4-30.2 20.3h5.3c3.1-9.8 11.7-15.2 24.9-15.2 13.2 0 23.2 3.1 23.2 16.3 0 13.2-10.6 10.5-26.5 12-15.4 1.4-30.6 5.2-30.6 21.5 0 16.3 15.2 20.2 28.5 20.2 13.3 0 33.9-5.1 33.9-25.1 0-20 0-28.6 0-28.6 0-13.6-10.3-21.4-28.4-21.4zm23.3 48.1c0 17.8-12.7 21.8-28.7 21.8-16 0-22.9-3.2-22.9-15.1 0-11.9 7.1-14.8 25.6-16.6 9.9-0.8 20.4-1.8 26-7z"/>
			<path class="s0" d="m341.3 130.7v-4.4h-0.1c-1.2-0.2-2.6-0.2-3.9-0.2-16.8 0-30.4 11.2-30.4 30.1v43.3h5.2v-43.4c0-16.1 11.6-25.4 25.9-25.4 14.3 0 2.4 0 3.3 0z"/>
			<path class="s0" d="m68.1 127.9l-25.6 67.1c0 0.4-0.5 0.5-0.9 0.5-0.4 0-0.8-0.2-0.9-0.5l-25.6-67.1h-5.6l26.8 70c0.7 2.1 2.9 3.4 5.2 3.4 2.3 0 4.4-1.2 5.4-3.4l26.8-70z"/>
		</g>
		<g>
			<path class="s1" d="m202.1 90.3l2.4-5.5-25.4-58.5c-3.8-8.7-13.5-15.8-22.7-15.8h-55.5l0.4 2.8 2.6 0.2c9.3 0.5 17.6 6.1 21.4 15.3l27.1 62c3.7 8.5 13.7 15.3 23.9 15.3h3c8.7 0 18.3-5.5 22.8-15.8z"/>
			<path class="s0" d="m206.8 90.3l-2.4-5.5-2.4 5.5c-4.5 10.3-14.1 15.8-22.9 15.8h50.5c-8.6 0-18.2-5.5-22.8-15.8z"/>
			<path class="s2" d="m252.7 10.5c-9.2 0-18.9 7.1-22.7 15.8l-25.4 58.5 2.4 5.5c4.5 10.3 14.1 15.8 22.9 15.8h3c10.2 0 20.2-6.9 23.9-15.3l27.1-62c3.8-9.3 12.1-14.8 21.4-15.3l2.6-0.2 0.4-2.8z"/>
			<path class="s0" d="m265.5 94.3c-3.4 0-6.1 2.7-6.1 6 0 3.3 2.8 6.1 6.1 6.1 3.3 0 6.1-2.7 6.1-6.1 0-3.4-2.8-6-6.1-6zm0 11.3c-2.9 0-5-2.3-5-5.2 0-2.9 2.2-5.1 5-5.1 2.8 0 5 2.1 5 5.1 0 3-2.2 5.2-5 5.2z"/>
			<path class="s0" d="m268.3 98.9c0-1.3-0.8-2-2.5-2h-2.8v7h1.1v-3.1h1.2l1.9 3.1h1.2l-2-3.1c1.1-0.1 1.9-0.6 1.9-1.9zm-4.1 1.1v-2.3h1.5c0.8 0 1.6 0 1.6 1.1 0 1.1-0.9 1.2-1.9 1.2z"/>
		</g>
	</g>
</svg>