<svg version="1.2" xmlns="http://www.w3.org/2000/svg" viewBox="0 0 115 60" width="115" height="60">
	<title>Asset 322</title>
	<style>
		.s0 { fill: #21407b } 
		.s1 { fill: #23417c } 
	</style>
	<g id="Layer_1-2">
		<g>
			<path class="s0" d="m114.5 30.1c-0.8 0.2-1 0.9-1.5 1.4q-11.9 13.6-23.8 27.3c-0.4 0.5-0.9 0.7-1.7 0.7q-30.4 0-60.9 0c-0.7 0-1.2-0.2-1.7-0.8q-12.2-14-24.4-28c-0.7-0.8-0.7-1.2 0-1.9q12.1-13.9 24.1-27.7c0.3-0.3 0.8-0.5 0.7-1.1q31.7 0 63.3 0 7.7 8.8 15.3 17.6 5.3 6 10.5 11.9v0.6zm-57.4 26.3q14.5 0 29 0c0.6 0 1.1 0 1.7-0.6q11-12.7 22-25.3c0.6-0.6 0.5-1 0-1.6q-11-12.5-21.9-25.1c-0.5-0.5-1-0.8-1.7-0.8q-29 0-57.9 0c-0.8 0-1.3 0.2-1.8 0.8-7.1 8.2-14.2 16.4-21.5 24.6-0.9 1.1-0.9 1.6 0 2.7 7.2 8.1 14.3 16.2 21.3 24.4 0.6 0.6 1.1 0.9 2 0.9q14.4 0 28.8 0z"/>
			<path class="s0" d="m33.4 27.8c1.5 0.9 1.8 2.3 2 3.8q0.3 3.5 0.8 6.9c0.1 0.9-0.2 1.2-1.1 1.1-2 0-2.1 0.1-2.3-1.9q-0.4-3-0.7-5.9c-0.2-2-0.7-2.5-2.8-2.5q-2.1 0-2.1 2.2c0 2.3-0.1 4.7 0 7 0 0.9-0.3 1.2-1.2 1.1q-0.4 0-0.9 0c-1 0.2-1.2-0.2-1.2-1.2q0-10.5 0-21c0-0.8 0.2-1.2 1.1-1.1 2.2 0.1 4.4-0.2 6.6 0.2 2.6 0.4 4.2 2 4.6 4.6 0.4 2.8-0.1 5.2-2.8 6.7zm-4.2-8.3q-2 0-2 1.9 0 0.9 0 1.8 0 3 3 2.9c1.7 0 2.5-0.7 2.8-2.4 0.4-3.1-0.7-4.2-3.8-4.2z"/>
			<path class="s0" d="m70.7 24.4c0.9-0.8 1.8-1.3 2.8-1.5 2.8-0.5 5.3 1 5.6 3.9 0.5 4 0.1 8.1 0.2 12.2 0.1 0.5-0.2 0.6-0.7 0.6-2.5 0.2-2.5 0.3-2.5-2.3q0-4 0-8c0-1-0.2-2.1-1.1-2.8-0.8-0.7-1.8-0.8-2.8-0.3-1.1 0.5-1.5 1.5-1.5 2.6 0 3.1 0 6.2 0 9.3 0 0.5 0.3 1.3-0.3 1.4-0.9 0.2-1.9 0.1-2.8 0.1-0.3-0.1-0.2-0.5-0.2-0.8q0-10.8 0-21.7c0-0.6 0.2-0.8 0.9-0.8 2.4-0.1 2.4-0.1 2.4 2.3z"/>
			<path class="s1" d="m89.8 32c-1.2 0-2.4 0.1-3.6 0-0.9 0-1.1 0.3-1.1 1.1 0 2.4 1.1 3.8 2.9 3.9 1.2 0 2.1-0.4 2.5-1.6 0.3-0.9 0.7-1 1.6-0.8 2 0.6 2.1 0.7 1.1 2.5-1.8 3.5-7.3 4-9.8 0.9-0.6-0.9-1.1-1.8-1.3-2.8-0.4-2.5-0.4-5 0-7.4 0.6-3 2.9-4.9 5.9-5 3 0 5.4 1.9 6.1 4.8 0.2 1.2 0.2 2.5 0.2 3.7 0 0.6-0.2 0.7-0.8 0.7q-1.8 0-3.7 0zm1.2-2.7c-0.1-0.4-0.1-0.8-0.2-1-0.4-1.7-1.4-2.5-2.9-2.4-1.5 0.1-2.5 1.1-2.7 2.7 0 0.5 0 0.7 0.5 0.7q2.6 0 5.3 0z"/>
			<path class="s1" d="m38.1 31.4c0-1.3-0.1-2.6 0.2-3.8 0.8-3 3.1-4.9 6.1-4.8 2.9 0.1 5.3 2.1 5.8 5 0.4 2.5 0.5 4.9 0 7.3-0.5 3.1-3.2 5.1-6.2 5-3.3-0.2-5.6-2.5-5.9-5.9-0.1-0.9 0-1.9 0-2.8zm3.3 0q0 1.3 0 2.7c0 0.2 0.1 0.5 0.1 0.7 0.5 1.5 1.4 2.2 2.8 2.1 1.3 0 2.4-0.7 2.6-2.1 0.4-2.2 0.4-4.5 0-6.7-0.2-1.4-1.2-2.1-2.6-2.1-1.4-0.1-2.3 0.6-2.8 2-0.3 1.1-0.2 2.2-0.2 3.4z"/>
			<path class="s1" d="m52.8 31.5c0-1.6 0-3.2 0.5-4.6 0.9-2.7 3.3-4.2 6.1-4.1 2.9 0.1 4.7 1.7 5.4 4.4 0.3 0.8 0.2 1.2-0.7 1.3q-0.7 0-1.4 0.3c-0.5 0.2-0.7 0-0.9-0.5-0.8-2-1.6-2.5-3.2-2.3-1.4 0.2-2.2 1-2.4 2.9-0.3 1.9-0.3 3.8 0.1 5.7 0.3 1.4 1.1 2.2 2.4 2.3 1.5 0.1 2.4-0.4 3-1.9 0.1-0.3 0-1.1 0.6-1 0.9 0.1 1.8 0.2 2.6 0.7 0.2 0.2 0 0.6-0.1 0.9-0.7 2.9-2.8 4.5-5.8 4.5-3-0.1-5.4-2-6-4.9-0.2-1.3-0.3-2.5-0.2-3.7z"/>
		</g>
	</g>
</svg>