<svg version="1.2" xmlns="http://www.w3.org/2000/svg" viewBox="0 0 50 51" width="50" height="51">
	<title>03</title>
	<defs>
		<linearGradient id="g1" x2="1" gradientUnits="userSpaceOnUse" gradientTransform="matrix(50,-50,50,50,0,50.2)">
			<stop offset="0" stop-color="#00205b"/>
			<stop offset=".338" stop-color="#753bbd"/>
			<stop offset=".677" stop-color="#00a9ce"/>
			<stop offset="1" stop-color="#00a9ce"/>
		</linearGradient>
	</defs>
	<style>
		.s0 { fill: url(#g1) } 
	</style>
	<g id="du-logo-new">
		<g id="du-logo-squircle-window-copy">
			<path id="Combined-Shape" fill-rule="evenodd" class="s0" d="m44.7 0.2h0.2c2.8 0.1 5.1 2.4 5.1 5.3v39.4 0.2c-0.1 2.8-2.4 5.1-5.3 5.1h-39.4-0.2c-2.8-0.1-5.1-2.4-5.1-5.3v-39.4-0.2c0.1-2.8 2.4-5.1 5.3-5.1zm0 1.3h-39.5-0.2c-2 0.2-3.7 1.9-3.7 4v39.4c0 2.2 1.8 4 3.9 4h39.5 0.2c2.1-0.2 3.7-1.9 3.7-4v-39.4-0.2c-0.1-2.1-1.8-3.8-3.9-3.8zm-19.7 9.9h0.2c1.6 0.1 2.8 1.4 2.8 3v14.4 0.2c0.2 2.4 2.1 4.2 4.5 4.2h0.2c2.4-0.1 4.3-2 4.3-4.4v-3.8-0.2c0.1-1.6 1.4-2.8 3-2.8h0.2c1.5 0.1 2.8 1.4 2.8 3v3.8 0.3c-0.1 5.6-4.8 10.1-10.5 10.1h-0.3c-2.8-0.1-5.4-1.2-7.2-3.1l-0.2 0.2c-1.9 1.8-4.5 2.9-7.3 2.9h-0.3c-5.6-0.1-10.2-4.7-10.2-10.4v-0.3c0.2-5.6 4.8-10.1 10.5-10.1h0.4c1.5 0 2.8 0.4 4.1 1v-5c0-1.6 1.3-3 3-3zm16.6 24.9c0.8 0 1.4 0.7 1.4 1.5 0 0.8-0.6 1.4-1.4 1.4-0.8 0-1.5-0.6-1.5-1.4 0-0.8 0.7-1.5 1.5-1.5zm0 0.3c-0.7 0-1.2 0.5-1.2 1.2 0 0.6 0.5 1.1 1.2 1.1 0.6 0 1.1-0.5 1.1-1.1 0-0.7-0.5-1.2-1.1-1.2zm0 0.4c0.3 0 0.5 0.2 0.5 0.5 0 0.2-0.1 0.3-0.3 0.4l0.4 0.7h-0.3l-0.4-0.7h-0.2v0.7h-0.2v-1.6zm-0.1 0.2h-0.2v0.5h0.2c0.2 0 0.3-0.1 0.3-0.2 0-0.2-0.1-0.3-0.3-0.3zm-24.1-12.8h-0.2c-2.3 0.1-4.2 2-4.2 4.4 0 2.4 2 4.4 4.4 4.4h0.3c2.3-0.1 4.2-2 4.2-4.4v-0.2c-0.1-2.4-2.1-4.2-4.5-4.2z"/>
		</g>
	</g>
</svg>