<svg version="1.2" xmlns="http://www.w3.org/2000/svg" viewBox="0 0 1045 345" width="1045" height="345">
	<title>04</title>
	<style>
		.s0 { fill: #ea1f27 } 
	</style>
	<path class="s0" d="m707.3 173.2c0-1.6 0.8-2.4 2.2-2.4h0.6c1.6 0 2.2 0.8 2.2 2.4v17.9c0 1.4-0.6 2.2-2.2 2.2h-0.6c-1.4 0-2.2-0.8-2.2-2.2z"/>
	<path class="s0" d="m717 191.2v-17.7c0-1.6 0.8-2.6 2.2-2.6h0.6c1.4 0 1.8 0.4 2.6 1.4l9.7 13.3v-12.3c0-1.6 0.8-2.4 2.2-2.4h0.4c1.4 0 2.2 0.8 2.2 2.4v17.7c0 1.6-0.8 2.4-2.2 2.4h-0.4c-1.4 0-1.6-0.2-2.4-1.2l-10.1-13.7v12.7c0 1.4-0.8 2.2-2.2 2.2h-0.4c-1.4 0-2.2-0.8-2.2-2.2z"/>
	<path class="s0" d="m747.3 175.5h-5c-1.6 0-2.4-0.8-2.4-2.2v-0.2c0-1.4 0.8-2 2.4-2h15.1c1.6 0 2.2 0.6 2.2 2v0.2c0 1.4-0.6 2.2-2.2 2.2h-5v15.7c0 1.4-0.8 2.2-2.2 2.2h-0.8c-1.4 0-2-0.8-2-2.2v-15.7z"/>
	<path class="s0" d="m762.7 190.6v-16.7c0-1.8 1-2.8 2.6-2.8h12.5c1.6 0 2.4 0.6 2.4 2v0.2c0 1.4-0.8 2-2.4 2h-10.1v4.8h7.5c1.6 0 2.2 0.4 2.2 1.8 0 1.4-0.6 2-2.2 2h-7.5v5.2h10.3c1.6 0 2.2 0.6 2.2 1.8v0.2c0 1.4-0.6 2.2-2.2 2.2h-12.7c-1.6 0-2.6-1-2.6-2.8"/>
	<path class="s0" d="m783.7 190.6v-16.7c0-1.8 1-2.8 2.6-2.8h6.7c5.8 0 8.7 2.4 8.7 6.9 0 4.5-1.6 5.4-4.6 6.4-0.4 0-0.8 0.2-1.2 0.2l6.1 7.1c0.2 0.2-0.8 1.8-3 1.8-2.2 0-2.2-0.6-3.4-2l-4.9-6h-1.8v5.8c0 1.4-0.8 2.2-2.2 2.2h-0.6c-1.4 0-2.2-1-2.2-2.8m8.7-9c2.8 0 4-1.4 4-3.4 0-2-1.4-3.2-4-3.2h-3.9v6.7h3.9z"/>
	<path class="s0" d="m805.3 191.2v-17.7c0-1.6 0.8-2.6 2.2-2.6h0.6c1.4 0 1.8 0.4 2.6 1.4l9.7 13.3v-12.3c0-1.6 0.8-2.4 2.2-2.4h0.4c1.4 0 2.2 0.8 2.2 2.4v17.7c0 1.6-0.8 2.4-2.2 2.4h-0.4c-1.4 0-1.6-0.2-2.4-1.2l-10.1-13.7v12.7c0 1.4-0.8 2.2-2.2 2.2h-0.4c-1.4 0-2.2-0.8-2.2-2.2z"/>
	<path class="s0" d="m828 192l7.7-19.8c0.4-0.8 1-1.4 3.4-1.4 2.4 0 2.8 0.6 3.2 1.4l7.9 19.8c0 0.4-1.2 1.6-2.8 1.6-1.6 0-2.2-0.6-3-2.4l-1.2-3.4h-8.3l-1.4 3.4c-0.6 1.8-1.6 2.4-2.6 2.4-1.6 0-2.8-1.2-2.8-1.6m13.8-8.1l-3-8.3-3 8.3h6.1z"/>
	<path class="s0" d="m858.7 175.5h-5.1c-1.4 0-2.2-0.8-2.2-2.2v-0.2c0-1.4 0.8-2 2.2-2h15.2c1.6 0 2.4 0.6 2.4 2v0.2c0 1.4-0.8 2.2-2.4 2.2h-4.9v15.7c0 1.4-0.8 2.2-2.4 2.2h-0.6c-1.4 0-2.2-0.8-2.2-2.2z"/>
	<path class="s0" d="m874.5 173.2c0-1.6 0.6-2.4 2-2.4h0.8c1.4 0 2.2 0.8 2.2 2.4v17.9c0 1.4-0.8 2.2-2.2 2.2h-0.8c-1.4 0-2-0.8-2-2.2z"/>
	<path class="s0" d="m883.3 182.1c0-6.7 4.9-11.7 11.5-11.7 6.6 0 11.5 4.8 11.5 11.7 0 6.9-4.7 11.7-11.5 11.7-6.8 0-11.5-4.8-11.5-11.7zm18 0c0-4.2-2.6-7.1-6.5-7.1-3.9 0-6.5 2.8-6.5 7.1 0 4.3 2.6 7.3 6.5 7.3 3.9 0 6.5-3 6.5-7.3z"/>
	<path class="s0" d="m910 191.2v-17.7c0-1.6 0.8-2.6 2.2-2.6h0.6c1.4 0 1.8 0.4 2.6 1.4l9.7 13.3v-12.3c0-1.6 0.8-2.4 2.2-2.4h0.4c1.4 0 2.2 0.8 2.2 2.4v17.7c0 1.6-0.8 2.4-2.2 2.4h-0.4c-1.4 0-1.6-0.2-2.4-1.2l-10.1-13.7v12.7c0 1.4-0.8 2.2-2.2 2.2h-0.4c-1.4 0-2.2-0.8-2.2-2.2z"/>
	<path class="s0" d="m932.7 192l7.7-19.8c0.4-0.8 1-1.4 3.4-1.4 2.4 0 2.8 0.6 3.2 1.4l7.9 19.8c0 0.4-1.2 1.6-2.8 1.6-1.6 0-2.2-0.6-3-2.4l-1.2-3.4h-8.3l-1.4 3.4c-0.6 1.8-1.6 2.4-2.6 2.4-1.6 0-2.8-1.2-2.8-1.6m13.8-8.1l-3-8.3-3 8.3h6.1z"/>
	<path class="s0" d="m957.5 190.6v-17.3c0-1.6 0.8-2.4 2.2-2.4h0.6c1.6 0 2.2 0.8 2.2 2.4v15.5h8.5c1.4 0 2.5 0.8 2.5 2.2v0.2c0 1.4-1 2.2-2.5 2.2h-10.9c-1.6 0-2.6-1-2.6-2.8z"/>
	<path class="s0" d="m708.5 204.3c0-3.2 1.8-5 4.7-5h19.8c2.8 0 4 1.2 4 3.4v0.4c0 2.4-1.2 3.6-4 3.6h-15.8v9.7h11.3c2.8 0 4.2 1.2 4.2 3.2v0.2c0 2.4-1.4 3.4-4.2 3.4h-10.9v10.7c0 2.6-1.4 4-3.9 4h-1.4c-2.4 0-3.9-1.8-3.9-4.8v-28.8z"/>
	<path class="s0" d="m742.3 232.9v-28.6c0-3.2 1.8-5 4.6-5h21.4c2.8 0 4 1.2 4 3.6v0.2c0 2.4-1.2 3.4-4 3.4h-17.2v8.3h12.5c2.8 0 4 1 4 3.2v0.2c0 2.4-1.2 3.4-4 3.4h-12.5v8.9h17.6c2.6 0 4 1 4 3.4v0.2c0 2.4-1.4 3.6-4 3.6h-21.9c-2.8 0-4.6-1.8-4.6-4.8"/>
	<path class="s0" d="m776.6 230.9c0-2.6 3-4.6 3.2-4.4 2.4 2.8 6.9 5.2 11.5 5.2 4.6 0 7.1-1.6 7.1-4.6 0-3-3.8-4.2-8.5-5.2-6.1-1.4-12.3-3.6-12.3-11.5 0-7.9 5.7-11.9 15-11.9 9.3 0 8.9 1.2 11.1 2.8 1.8 1.4 2.6 2.8 2.6 4.2 0 2.8-3.2 4.8-3.4 4.6-2.2-2.6-6.1-4.8-10.3-4.8-4.2 0-6.7 1.8-6.7 4.6 0 2.8 3.4 3.8 8.3 4.8 6.9 1.6 13.1 4.4 13.1 11.7 0 7.3-5.7 12.1-15.9 12.1-10.2 0-10.1-1.6-12.3-3.4-1.8-1.4-2.4-2.8-2.4-4.2"/>
	<path class="s0" d="m823.3 206.9h-8.7c-2.6 0-4.2-1.2-4.2-3.6v-0.4c0-2.2 1.6-3.6 4.2-3.6h26.1c2.6 0 4 1.4 4 3.6v0.4c0 2.4-1.4 3.6-4 3.6h-8.7v27c0 2.6-1.4 4-3.8 4h-1.2c-2.4 0-3.6-1.4-3.6-4v-27z"/>
	<path class="s0" d="m850.2 203.1c0-2.6 1.2-4 3.6-4h1.2c2.6 0 3.8 1.4 3.8 4v30.8c0 2.6-1.2 4-3.8 4h-1.2c-2.4 0-3.6-1.4-3.6-4z"/>
	<path class="s0" d="m877.7 234.7l-13.6-32.7c-0.4-0.8 2.4-3 5.3-3 2.9 0 4 1.4 5.1 4l8.3 24.4 8.5-24.4c1-2.8 2.8-4 4.8-4 2 0 5.5 2.2 5.1 3l-13.3 32.7c-0.8 2.4-2.2 3.4-5.1 3.4-2.9 0-4-1-5-3.4"/>
	<path class="s0" d="m903.2 235.5l13.1-33.9c0.4-1.6 1.8-2.6 5.7-2.6 3.9 0 5.3 1 5.7 2.6l13.5 33.9c0.2 0.6-2.2 2.6-4.9 2.6-2.7 0-3.8-1-5-4.2l-2.4-5.8h-14l-2.4 6c-1 3-2.8 4-4.6 4-2.6 0-5.1-1.8-4.7-2.6zm24-14.1l-5.5-13.9-5 13.9z"/>
	<path class="s0" d="m945.8 232.9v-29.8c0-2.6 1.2-4 3.6-4h1.2c2.6 0 3.8 1.4 3.8 4v27h14.4c2.8 0 4.3 1.2 4.3 3.6v0.2c0 2.4-1.4 3.8-4.3 3.8h-18.6c-2.8 0-4.4-1.8-4.4-4.8z"/>
	<path class="s0" d="m708.9 153.9v-3.6c0-14.7 12.7-21.8 23.7-27.2 9.5-4.4 17.6-7.5 17.6-14.1 0-6.6-4.6-10.3-12.9-10.3-8.3 0-15 6.5-16.8 13.5 0 0.2-11.3 0.6-11.3-8.1 0-8.7 2.6-9.7 7.5-13.3 4.9-3.6 12.1-6.2 21.6-6.2 18.4 0 28.9 8.9 28.9 23.8 0 14.9-10.7 19.1-21.8 23.8-9.1 3.8-16.8 7.3-19.6 13.5-0.4 1-0.8 1.8-1 2.8h35.2c5.9 0 8.3 2.4 8.3 6.7v0.6c0 4.6-2.4 7.1-8.3 7.1h-40.4c-7.9 0-10.5-1.8-10.5-8.9"/>
	<path class="s0" d="m775.2 128.3v-7.7c0-22 12.7-36.1 33.5-36.1 20.8 0 33.8 13.9 33.8 36.1v7.5c0 22.2-12.7 36.3-33.8 36.3-21.1 0-33.5-13.9-33.5-36.1zm49.7 1v-9.7c0-13.5-5.9-21-16.2-21-10.3 0-16 7.1-16 20.6v10.1c0 13.5 5.7 20.8 16 20.8 10.3 0 16.2-7.3 16.2-20.8z"/>
	<path class="s0" d="m851 153.9v-3.6c0-14.7 12.7-21.8 23.6-27.2 9.7-4.4 17.6-7.5 17.6-14.1 0-6.6-4.7-10.3-12.9-10.3-9.9 0-15 6.5-16.6 13.5 0 0.2-11.5 0.6-11.5-8.1 0-8.7 2.6-9.7 7.5-13.3 4.9-3.6 12.3-6.2 21.6-6.2 18.4 0 28.9 8.9 28.9 23.8 0 14.9-10.5 19.1-21.8 23.8-8.9 3.8-16.6 7.3-19.6 13.5-0.4 1-0.8 1.8-1 2.8h35.2c5.9 0 8.3 2.4 8.3 6.7v0.6c0 4.6-2.4 7.1-8.3 7.1h-40.4c-7.9 0-10.5-1.8-10.5-8.9"/>
	<path class="s0" d="m923 159.5c-5-3-7.9-6.7-7.9-10.1 0-5.2 6.7-8.9 7.3-8.3 4.9 6.4 12.3 10.3 21.2 10.3 8.9 0 16-4.8 16-12.5 0-7.7-5.3-12.3-15.4-12.3-10.1 0-12.3 2-15.8 4.6-6.9-0.2-10.5-3.2-10.5-10.1v-25.4c0-6 2.8-9.7 8.5-9.7h37.4c5.5 0 8.1 2.2 8.1 6.9v0.6c0 4.6-2.6 6.7-8.1 6.7h-31.1v17.3c4-1.8 8.7-2.8 14.1-2.8 17 0 28.3 9.1 28.3 24.2 0 15.1-11.9 25.4-31.1 25.4-19.2 0-16.2-2-21-4.8z"/>
	<path class="s0" d="m1009.5 40.4c-1.8-0.2-149.4-6.3-320.2-13.5-266.2-11.3-597.4-25.2-611.6-25.6h-2c-23.4-1.6-38.4 1.4-51.1 10.3-13.4 9.5-21.9 25.8-21.9 42.5 0 16.7 1.4 226.7 1.4 229.2 0 11.3 0.4 36.3 23.8 50.6 7.7 4.6 18.2 8.5 31.3 9.5 5.7 0.2 11.5 0.2 17.6-0.2 23.2-1.4 531.3-36.1 577.4-39.3l2.4 7.7 0.4 1c1.4 4.2 2.2 6.5 2.2 6.5 3 8.1 10.7 11.9 16.8 12.3 5.3 0.2 10.9-1.6 13.9-4.2 5.3-4.8 7.1-12.5 6.3-18.1l-2.4-7.7c33.5-2.2 303.2-20.2 309.8-20.4 12.3-0.6 36.2-2.8 37-36.1 0-3.2 0.6-161.2 0.6-162.8 0.4-28.4-6.5-40.1-31.9-41.5m9.9 200.6c0 5-2 8.1-11.1 8.7-5 0.6-300.9 16.1-324 17.1h-0.2c-10.5-34.3-48.3-157.8-49.5-161.6-2.6-8.7-7.1-17.1-12.1-22.6-5.5-5.8-12.9-9.3-21.2-9.9-5.7-0.4-11.3 0.8-16 3.2-11.7 6.7-16.8 21.6-19.8 30.8-4.9 16.7-9.9 33.5-15 50.2-6.5 21.6-16 55-22 76.8-2 7.1-2.8 21 11.3 25.6 9.9 3.2 22.4-1.6 26.7-14.9 2-6.4 9.1-33.1 9.1-33.1l51.1-0.4 17.2 58.6 10.3 32.4-23.7-31.8c0 0-526.1 30.6-566.7 30.2-10.1-0.6-15-4.8-15-12.9-0.4-13.7-1.8-224.1-1.2-233.4 0.2-3.2 1.4-6 3.6-7.9 2.2-2 4.2-2.4 8.3-2.6 0 0 950.3 28 951.7 28.2 6.3 0.4 8.1 4.6 8.1 7.9 0 3.3 0.2 158.2 0 161.2m-505.4-168.5c-20.4-3.2-23.8 15.3-24.5 21-3 28-10.7 84.6-14.6 109.6-1-5-19-100.8-19-101.6-1.2-6.2-7.9-29.2-31.9-30.2-7.9-0.4-26.9 1.8-32.8 33.5-1.8 10.7-13.7 83-17 100.6-0.8-5.8-16.8-105.6-18.6-117.5 0 0-3-22.8-27.9-17.7-21.6 4.6-17.8 26.4-17.8 26.4 0 0 24 123.9 28.7 144.5 4 18.1 16.4 28.6 30.5 29.6 17.8 1 34.8-11.1 38.6-37.1 0 0 16.8-94.5 17-95.7 0.4 2 12.9 65.3 18 92.9 3.6 18.7 15 32.8 29.9 33.7 13.3 1 30.9-10.1 36-43.5 4.4-29.2 21.2-122.3 21.2-122.3 0.6-3.4 3.6-23.2-16-26m-309.4 149.9c-5.9-0.4-70.1 1.4-70.1 1.4l-1-133c0 0 0-26.8-26.9-26.8-26.9 0-26.7 26.6-26.7 26.8 0 0.6 0.8 144.7 1.2 161.4 0.6 22 20.8 25.6 29.3 26 2.4 0.2 87.5-3 91.1-3.4 6.1-0.6 16.8-3.2 24.3-15.9 4.2-7.1 3-18.1-1.8-25.2-4.6-6.9-11.1-10.9-19.4-11.3zm62.6-155.2c-24.9-0.6-24.7 23.4-24.7 23.4-0.2 0-0.6 150.2-0.6 151.2 0 4.4 0 29.6 22.4 30.4 24.5 1 26.9-19.8 26.9-31 0.4-10.9-0.8-147.5-0.8-147.5 0 0 1.6-25.6-23.3-26.4m347.7 103.9l-28.3-0.2 14.5-47.4 13.7 47.6z"/>
</svg>