<svg version="1.2" xmlns="http://www.w3.org/2000/svg" viewBox="0 0 635 706" width="635" height="706">
	<title>05</title>
	<style>
		.s0 { fill: #ec9406 } 
		.s1 { fill: #3c3c3b } 
		.s2 { fill: #197773 } 
		.s3 { fill: #be582c } 
	</style>
	<g>
		<path class="s0" d="m294.4 359.5c8.4-1.2 32.5 17.3 38.2 25.3-4 9.2-16.5 28.5-25.3 36.5 10 5.6 21.7 15.7 25.3 20.9-4.4 9.6-18.5 30.9-26.9 38.2-8.8-2.4-34.9-17.7-36.6-27.3-1.2-7.6 15.7-32.1 24.1-35.8-10.8-6-22.9-14.9-24.1-21.7-1.2-8 17.7-34.5 25.3-36.1z"/>
		<path class="s1" d="m121.6 197.2c7 1.2 16 13.5 22.1 24.6 3.7-8.6 28.6-25.8 36.4-24.6 9.8 1.6 25.4 28.2 27.8 37.2-7.4 8.6-29 22.9-38.9 27.4-5.3-3.7-15.6-15.6-21.3-25.8-8.2 9-27.8 21.7-37.2 25.8-8.2-5.7-27-30.3-25.8-38.9 1.6-7.8 28.6-27 36.8-25.8h0.1z"/>
		<g>
			<path class="s2" d="m342.8 12.5c7.6 4.2 16 34.1 15.6 44.2-9 5.1-31 13.2-43.2 14.3 4.8 10.8 8.1 26.2 7.9 32.6-9.5 5.2-34.1 13.9-45.5 14.7-5.7-7.4-17.7-35.9-13.1-44.8 3.7-7 32.6-16.6 41.7-14.4-5.2-11.6-9.6-26.2-6.4-32.6 3.9-7.3 35.7-17.4 42.9-14z"/>
			<path class="s2" d="m525.8 111.3c0-0.6-0.1-1.3-0.2-1.9-0.6-4.9-1.4-9.9-4-14-3.5-5.5-9.7-8.7-16-10.3-6.3-1.6-12.9-1.9-19.3-3-25.2-4.4-46.6-18.5-72.8-18.9-23.8-0.3-48 7.2-66 23-20.4 17.9-31.4 44-40.6 69.5-8.4 23.1-15.8 49-6.5 71.8 6.9 17 22.4 29.4 39.5 36.1 17.1 6.6 35.8 8 54.1 7.8 9.6-0.1 19.3-0.6 28.8-2.5 17.8-3.5 34.2-11.7 50.4-19.8 14.5-7.2 29.4-14.9 39.7-27.4 9.3-11.3 12.6-24.7 13.6-39 1.7-23.5 2.1-47.8-0.6-71.2v-0.2zm-103.8 123.9c-6.1 1.1-12.3 1.6-18.3 1.6-8.5-0.1-17.2-1.2-25.1-4.6-19-8.3-22.6-29.2-29-46.7-2.1-5.9-4.7-11.9-4.9-18.1-0.3-8.9 4.5-17.4 11.2-23.4 15.7-13.9 37.2-14.5 56.9-11.8 9.4 1.3 19.2 2.4 27.6 7.1 9.4 5.2 16.8 13.3 24 21.2 7.9 8.7 11.9 16.1 9.8 28-1.9 10.9-7.6 21-15.5 28.7-9.9 9.6-23 15.5-36.7 18.1zm38-84.7c0.1 0.1 0.2 0.2 0.3 0.4-0.2-0.2-0.5-0.4-0.7-0.7 0.1 0 0.3 0.2 0.4 0.3z"/>
		</g>
		<path class="s1" d="m204.8 306c12.1-4 24.8-6.6 36.2-12.6 8.8-4.6 17.1-10.9 22.8-19.1 12.5-18 19.3-39.5 20.6-61.3 1.2-20.5-1.4-45.3-13.2-62.8-0.8-1.2-1.6-2.3-2.5-3.4-5.8-7-13.3-12.4-21.4-16.5-23.9-12-51-14.6-77.3-13.9-10 0.3-29.6-0.2-33.3 11.7-4.2 13.4-3.2 27.1-3.7 40.8-0.3 10 5.8 16.2 15.3 17.9 18.2 3.3 36.8-1.2 55.2-3 3.7-0.3 7.4-0.6 11.1-0.3 3.1 0.2 6.2 0.8 9.2 1.4 2.6 0.5 5.3 1 7.8 1.9 16.2 6 29.2 30.2 21.6 46.3-3.4 7.3-9.5 13-16 17.8-12.9 9.5-28.1 16-43.8 19-16.7 3.1-34.3 1.8-51.2 1.2-3.8-0.1-8-0.2-11.3 2.2-3 2.2-4.1 5.7-4.5 9.2-0.4 3.5-0.2 7.2 0.2 10.7 0.4 3.4 1.1 6.8 2.7 9.9 1.7 3.4 4.6 5.8 8.1 7.2 3.8 1.5 8 1.6 12 1.8 9.4 0.4 18.8-0.5 28.1-1.8 9.2-1.3 18.3-2.6 27.4-4.5"/>
		<path class="s0" d="m395.2 342.7q-0.8-0.9-1.5-1.8c-17.1-19.2-37.6-36.8-61.7-46.4-23.6-9.4-55.2-11.4-76.4 4.8-7.2 5.5-13 12.7-19.9 18.5-10 8.4-22.4 13.9-35.4 15.6-4.1 0.5-8.3 0.7-12.3-0.3-4.5-1.1-8.8-3.8-13.5-3.8-4.7 0-11.1 5.7-10.9 11.3 0.4 11 2.6 21.8 4.7 32.5 0.9 4.7 1.9 9.3 2.8 14 1.8 8.9 15.2 4 21.4 5.2 5.8 1.1 10.4 5.7 16.2 6.8 6.5 1.2 12.9-2.2 18.7-5.5 14.2-8.1 29-16.8 37.4-30.8 8.3-13.8 13.3-22.3 31.3-18.4 17.2 3.8 33.3 12.5 45.9 24.8 4.4 4.3 8.6 9.2 14.2 11.8 7.6 3.4 13.9-2 20.5-4.8 8.4-3.5 13.2-9.7 17.7-17.5 2.1-3.5 4.2-7.5 3.2-11.5-0.4-1.7-1.4-3.2-2.5-4.5z"/>
		<path class="s3" d="m475.9 374.2c-0.2-5.8-1.1-11.7-3.3-17.1-2.3-5.5-7.2-12.4-3.6-18.4 1.2-1.9 3.1-3.3 5-4.5 20.7-12.8 47.2-14.3 66.9-28.6 3.4-2.5 6.7-5.5 8.3-9.5 3.1-7.8-1.1-16.4-5.2-23.7-6-10.8-13.5-22.7-25.6-25.3-6-1.3-12.1 0-18 1.6-8.8 2.3-17.7 5.6-24 12.2-6.1 6.4-9.1 15.4-15.4 21.6-8.7 8.5-21.9 10.2-33.7 13.2-11.8 3-24.8 9.6-27.1 21.6-1.8 9.4 3.6 18.4 7.3 27.3 4.7 11.2 6.7 24.6 0.9 35.2-7.5 13.8-25 18.3-40.5 20.3-6.6 0.9-14.3 2.1-17.6 7.9-2.8 4.8-1.4 11 1.5 15.7 4.6 7.6 12.7 12.8 21.3 15.1 8.6 2.3 17.8 2.1 26.5 0.6 14.4-2.4 28.2-8.1 40.2-16.4 12.1-8.3 22.4-19.1 29.9-31.8 3-5.1 5.9-11.2 6.2-17.2"/>
	</g>
	<g>
		<g>
			<path class="s1" d="m22.4 504.1c0.7 13.7 1.2 27.8 1.2 40 0 12.2-0.2 12.1-0.5 17.1l0.6 0.5c5.7-0.1 13.2-1.1 16.3-2.9 0.3-5.2 0.4-11.4 0.4-18.2 0-11-0.4-23.8-1.3-37.5l-16.7 0.9z"/>
			<path class="s1" d="m241.5 568.7c-1.7 0.3-4 3.4-5.6 6.2-0.9-2.2-7.2-6.5-9.2-6.2-2.5 0.4-6.4 7.1-7 9.4 1.9 2.2 7.3 5.8 9.8 6.9 1.3-0.9 3.9-3.9 5.4-6.5 2.1 2.3 7 5.5 9.4 6.5 2.1-1.4 6.8-7.6 6.5-9.8-0.4-2-7.2-6.8-9.3-6.5z"/>
			<path class="s1" d="m268.3 504.1c1.3 13.6 2.8 26.8 3.2 37.8-3.5 0.3-7.3 0.4-11.4 0.4-4.1 0 0 0 0 0-8.2 0-10.9-1.6-10.2-9.6l-8.6-1.3c-4.1 10-11.8 10.9-21.4 10.9-9.6 0 0 0 0 0h-134.4c-1.4 0-3.2-0.1-4.8-0.2-0.6-9.5-5.6-19.9-15-19.9-9.4 0-18.3 12.2-18.3 22.5 0 10.3 7 12.9 14.3 14.5-4.7 7.2-11.6 14-14.6 17.2 3.5 3.9 11.4 9 15.5 10.5 4.5-5.5 11.1-15.1 14.9-26.1 4.2 0.6 6.7 0.6 8 0.6 1.3 0 0 0 0 0h134.4c7.6 0 12-0.4 17.3-2.6 2.4-0.9 4.6-2.6 6.1-4.6h0.9c3.5 4.6 8.5 7.2 16 7.2 7.5 0 0 0 0 0 9.7-0.2 17.5-1.1 22-2.6 3.4-6.1 4.2-13.1 4.2-20.4 0-7.3-0.6-21.5-1.4-35.3l-16.6 0.9h-0.1zm-205.5 38.5c-3.2-0.4-4.8-1-5.2-1.7 0-2.2 2.4-3.3 5-3 3.1 0.4 6.6 2.3 8.6 4.9-2.5 0.2-5.6 0.2-8.4-0.2z"/>
			<path class="s1" d="m329.7 510.2c1.3-0.9 3.9-3.9 5.4-6.5 2.1 2.3 7 5.5 9.4 6.5 2.1-1.4 6.8-7.6 6.5-9.8-0.4-2-7.2-6.8-9.3-6.5-1.8 0.3-4 3.4-5.6 6.2-0.9-2.2-7.2-6.5-9.2-6.2-2.5 0.4-6.4 7.1-7 9.4 1.9 2.2 7.3 5.8 9.8 6.9z"/>
			<path class="s1" d="m525.8 568.7c-1.7 0.3-4 3.4-5.6 6.2-0.9-2.2-7.2-6.5-9.2-6.2-2.5 0.4-6.4 7.1-7 9.4 1.9 2.2 7.3 5.8 9.8 6.9 1.3-0.9 3.9-3.9 5.4-6.5 2.1 2.3 7 5.5 9.4 6.5 2.1-1.4 6.8-7.6 6.5-9.8-0.4-2-7.2-6.8-9.3-6.5z"/>
			<path class="s1" d="m518.9 530.1c0.9 2.8 2.4 6.8 3.4 11-3.5 0.8-9.6 1.2-16.3 1.2-6.7 0 0 0 0 0h-153.6c-3.7 0-5.6-1.5-6-6.2-0.3-3.9-0.8-10.4-1-21.8l-0.8-0.7c-3.9 0-11.6 1.6-14.5 2.6-0.8 0.9-1.3 2.2-2.2 3.4-5.1 2.9-18.6 9.2-18.6 20.8 0 11.6 7 14.1 12.1 15.7 4.3 0 9.1-1.4 13.2-3.7 3.6 7.2 11.5 9.1 17.8 9.1 6.3 0 0 0 0 0h153.6c11.9 0 21.7-1.4 27-3 2.9-4.5 4.3-11.7 4.3-18.8 0-7.1-0.7-9.5-2-13.4l-16.5 3.8zm-198 7c2.3-2.7 5.5-4.2 8.5-5.6 0 2.1 0.3 4.1 0.6 6.1-3.7 0.6-6.7 0.5-9.2-0.5z"/>
			<path class="s1" d="m584.3 515.5c1.3-0.9 3.9-3.9 5.4-6.5 2.1 2.3 7 5.5 9.4 6.5 2.1-1.4 6.8-7.6 6.5-9.8-0.4-2-7.2-6.8-9.3-6.5-1.8 0.3-4 3.4-5.6 6.2-0.9-2.2-7.2-6.5-9.2-6.2-2.5 0.4-6.4 7.1-7 9.4 1.9 2.2 7.3 5.8 9.8 6.9z"/>
			<path class="s1" d="m593.2 521.6c-10.2 0-16.9 11.5-17.3 20.7h-2.1c-0.3 0-9 0-15.8-1.5l-0.9 0.6c-2.4 7.3-5.1 13.5-8.4 19.3-3.2 5.6-6.7 10.9-10.8 16.6 1.4 1.6 3.8 3.6 6.5 5.5 3.1 2.2 6.5 4.1 9.1 5 0.6-0.7 3.8-6.4 7.3-13.9 1.9-4 3.9-8.6 5.6-13.3 3.6 0.6 6.8 0.8 7.6 0.8 0.8 0 0 0 0 0 13.7 0 23.1-0.8 28.8-3 3.4-5.4 4.9-11.6 4.9-17.4 0-10.4-5.2-19.4-14.4-19.4zm-2 20.5c-3.2-0.1-4.9-0.5-5.5-1.2-0.2-2.1 2.1-3.5 4.7-3.5 3.1 0.1 6.8 1.6 9.2 4-2.5 0.5-5.6 0.8-8.4 0.7z"/>
		</g>
		<g>
			<path class="s1" d="m80.2 606.8c1-1.7 2-3.2 3-4.4 1-1.2 2-1.8 2.8-1.8 0.8 0 2.9 0.9 5.3 2.6 2.4 1.7 3.7 3 3.9 4 0 1-0.6 2.7-2.3 5.1-1.7 2.4-3.1 4-4.3 4.8-1.3-0.6-3-1.5-5-2.9-2-1.4-3.5-2.6-4.5-3.7"/>
			<path class="s1" d="m346.3 606.8c1-1.7 2-3.2 3-4.4 1-1.2 2-1.8 2.8-1.8 0.8 0 2.9 0.9 5.3 2.6 2.4 1.7 3.7 3 3.9 4 0 1-0.6 2.7-2.3 5.1-1.7 2.4-3.1 4-4.3 4.8-1.3-0.6-3-1.5-5-2.9-2-1.4-3.5-2.6-4.5-3.7"/>
			<g>
				<path class="s1" d="m20.7 609.4h19.6v47.7h25.4v14.4h-45z"/>
				<path class="s1" d="m77.6 621.3h18.6v50.1h-18.6z"/>
				<path class="s1" d="m141.7 671.5h-23.5l-11.1-50.1h19.1l4.9 37.3h0.3l5.6-37.3h20.2l5.9 37.1h0.4l4.6-37.1h19.2l-11.1 50.1h-23.6l-5.2-30.3h-0.3l-5.1 30.3z"/>
				<path class="s1" d="m224.7 671.5l-1.7-6.9c-3.3 5.5-8 8.2-14 8.2-6 0-8.8-1.4-11.9-4.1-3.1-2.7-4.6-6.5-4.6-11.5 0-5 0.9-5.7 2.7-8 1.8-2.3 4.2-3.9 7.3-4.9 4.1-1.2 10.3-1.8 18.8-2 0-4.8-0.2-7.3-0.7-7.6-0.4-0.3-1.5-0.4-3.5-0.4-2 0-2.9 0-5.1 0.2-3.5 0.1-8.2 0.5-14.2 1.2-0.6-3.9-1-8.1-1.3-12.6 3.8-0.8 7.9-1.5 12.1-2 4.2-0.5 8-0.8 11.3-0.8 5.8 0 10.2 1 13.1 2.9 2.9 1.9 4.8 4.5 5.7 7.6 0.9 3.1 1.3 7.1 1.2 11.9v16l0.2 12.9h-15.5 0.1zm-3.4-12v-8.1h-0.9c-5.4 0-8.3 0.3-8.9 0.9-0.4 0.4-0.6 0.9-0.8 1.6q-0.3 1.1-0.3 2.1 0 2.6 1.2 3.6c0.8 0.6 2 1 3.7 1 1.7 0 3.9-0.4 6-1.1z"/>
				<path class="s1" d="m312.5 609.4h20.7l-16.8 62.1h-28.4l-16.9-62.1h20.8l10 48.6h0.5l10-48.6z"/>
				<path class="s1" d="m343.4 621.3h18.6v50.1h-18.6z"/>
				<path class="s1" d="m377.1 606.1l18.6-0.8v66.1h-18.6v-65.4z"/>
				<path class="s1" d="m410.7 606.1l18.6-0.8v66.1h-18.6v-65.4z"/>
				<path class="s1" d="m473.9 671.5l-1.7-6.9c-3.3 5.5-8 8.2-14 8.2-6 0-8.8-1.4-11.9-4.1-3.1-2.7-4.6-6.5-4.6-11.5 0-5 0.9-5.7 2.7-8 1.8-2.3 4.2-3.9 7.3-4.9 4.1-1.2 10.3-1.8 18.8-2 0-4.8-0.2-7.3-0.7-7.6-0.4-0.3-1.5-0.4-3.5-0.4-2 0-2.9 0-5.1 0.2-3.5 0.1-8.2 0.5-14.2 1.2-0.6-3.9-1-8.1-1.3-12.6 3.8-0.8 7.9-1.5 12.1-2 4.2-0.5 8-0.8 11.3-0.8 5.8 0 10.2 1 13.1 2.9 2.9 1.9 4.8 4.5 5.7 7.6 0.9 3.1 1.3 7.1 1.2 11.9v16l0.2 12.9h-15.5 0.1zm-3.3-12v-8.1h-0.9c-5.4 0-8.3 0.3-8.9 0.9-0.4 0.4-0.6 0.9-0.8 1.6q-0.3 1.1-0.3 2.1 0 2.6 1.2 3.6c0.8 0.6 2 1 3.7 1 1.7 0 3.9-0.4 6-1.1z"/>
				<path class="s1" d="m539.9 621.2c3.7 0.5 8 1.1 13 1.9v43.4c0 10.4-3.4 18.5-10.3 24.2-0.9 0.7-2.8 1.3-5.9 1.9-3.1 0.6-6.5 0.8-10.3 0.8-8.3 0-15-1.1-19.8-3.3 0-1.6 0-3.7 0.4-6.3 0.4-2.6 0.7-4.7 1-6.2 5.2 0.8 10.3 1.2 15.4 1.2 5.1 0 4.7-0.1 6.5-0.4 1.8-0.3 2.9-0.6 3.3-1.1 0.6-0.6 1-2.8 1.3-6.5q0-1.5 0-4.5v-2.7c-1.8 2.7-4.1 4.6-7 5.8-2.8 1.2-5.4 1.7-7.6 1.7q-9.1 0-13.8-6c-3.1-4-4.7-9.8-4.7-17.5 0-7.7 0.7-9.9 2.1-14.3 1.4-4.4 3.4-7.6 5.8-9.3 1.6-1.1 4.2-1.9 7.8-2.5 3.6-0.5 7.6-0.8 12.2-0.8 4.6 0 7 0.2 10.7 0.7l-0.2-0.2zm-5.7 34.8v-22.8c-0.8-0.1-2-0.3-3.6-0.4-0.7 0-1.8-0.1-3.3-0.1-2.2 0-3.7 0.2-4.2 0.6-0.8 0.6-1.4 2.2-1.9 4.9-0.5 2.7-0.7 5.4-0.7 8.3 0 2.9 0.5 6.8 1.4 8.4q1.4 2.4 5.1 2.4c2.5 0 5.1-0.4 7.3-1.3z"/>
				<path class="s1" d="m607.6 657.8c0.7 0 1.8 0 3.6-0.2l1.6 11.2c-5.6 2.6-12.9 3.9-21.8 3.9-8.9 0-14.8-2.1-19.2-6.3-4.5-4.2-6.7-10.6-6.7-19.1 0-8.5 0.6-8.6 1.7-12.6 1.1-4.1 2.4-6.9 3.9-8.5 1.5-1.6 4.4-3 8.5-4.1 4.1-1.1 8.2-1.7 12.3-1.7 6.5 0 11.4 1.2 14.7 3.5 3.3 2.3 5.4 5.5 6.4 9.6q1.5 6.1 1.5 16.5c-4.9 0.3-9.8 0.4-14.5 0.4h-15.5c0 2.3 0.5 4.1 1.5 5.2 1 1.1 2.4 1.9 4.2 2.2 1.8 0.3 4.4 0.5 7.6 0.5 3.2 0 5.2-0.2 10.1-0.5zm-23.3-21.6c-0.2 1.7-0.4 3.6-0.4 5.7h5.7c3.4 0 5.9 0 7.4-0.1 0-3.5-0.5-6-1.5-7.4-1-1.4-2.7-2.2-5.1-2.2-2.4 0-3.7 0.4-5.1 1.2-0.4 0.2-0.8 1.2-1 2.8z"/>
			</g>
		</g>
	</g>
</svg>