<svg version="1.2" xmlns="http://www.w3.org/2000/svg" viewBox="0 0 967 377" width="967" height="377">
	<title>06</title>
	<style>
		.s0 { fill: #132e9e } 
	</style>
	<g id="Layer_1-2">
		<g>
			<path class="s0" d="m342.5 300.8c-13.8-2.3-22.8-16.9-21.7-30.4l-134.2-0.3-77.2-95.9c-0.2-1.6 0.4-0.9 1.1-1.2 25.1-11.2 43.5-26.9 51.2-54.5 18-64.2-42.1-121.9-105.6-101.1-66.3 21.8-75.5 113-16.4 148.7v39.1c-12.3 1.7-17.1 16.7-11.4 26.8l24.9 38.4-22.5 0.1c2.3 18.2-12.4 32.9-30.7 30.7v74.9h352.3v-73.8c-2.5-2-6.4-0.9-9.8-1.5zm-137.2 6l2.3 4.1h-12.3l-30.9-38.3c-2.6 0.1-4.3 2.2-5.9 3.9l-0.1 1.5 26 32.9h-11.3l-61.8-77.2c-1.9-1.8-8.4 2.3-6.7 4.5l58 71.6c0.4 1.7-0.7 1-1.8 1.1-8.3 0.7-16.9-3-22.9-8.6l-56.9-72c-4.3-11.1 0.4-18.9 12.3-19.8 11.1-0.9 23.7 0.4 34.9 0.4zm138.6 61h-209.8c1.3-12.8-1.9-15-14.3-14.6l18.5-25c13.7 10.9 22.3 32.1 41.8 33.7 16.4 1.3 34.9-0.8 51.5-0.4 0.9-2.4 3.1-5.2 1.5-7.6l-30.4-33.3-1.2-2.2h15.8l1.7-7.3-23.8-29.5-1.2-2.9h119.2c1.6 16.4 14.6 28.5 30.8 30.7zm-159-14.2c-5.9 0.5-10.9-0.5-15.7-4.1l-26.2-29.2c2.4-5.5 7.7-3 12-0.9l24.3 26.7zm-148.3-199.7c-29.9-19.9-35.6-66.1-18.2-96 39.2-67.2 144-34.6 138.1 43.6-2.3 29.6-24.7 58.2-53.9 64.7-3.9-6.4-5.4-18.4 4.2-20 5.6-0.9 8.2 0.8 10.4 5.9l7.7-3.5c1.1-11.7 0.1-25-13.2-28.6-4.5-1.1-10.8-2.3-15.5-3.3-28.7-6-50.4 9-55.9 37.2-0.5 2.3-2.4 0.9-3.7 0zm-3.1 68.9c-0.1-3.5 2.4-8.6 6-9.3-0.3 7.5 0.4 15 1.5 22.4-2.6-3.1-7.4-9-7.5-13.1zm42.8 145.8c-2-0.4-7.7 0.7-8.7-0.8l-0.3-6h9zm0.7-15h-13.1c-0.3 0-3.8 3.6-4 4.3-0.8 2.7 0.3 7-0.1 9.9h-51.7v-58.4c16.7-2.2 28.1-14.5 31.2-30.7l19.7 0.4c5.5 6.6 11.2 12.8 18 18zm15.8 14.9h-9v-6.7h9zm19.4-51.3c-0.6-3-1-5-3.3-7.1-8.7-8.1-22.1-15.1-31.5-23.3-39.5-34.6-28-83.9-29.6-130.7 2.8-20.9 20.4-34.7 41.6-32.6 4.3 0.5 7.9 2.9 11.4 3.6 2.2 0.4 4.4-0.1 6.5 0.2 5.8 0.9 10.2 6 9.4 11.9-7.9-3.6-20.3-0.3-23.6 8.3-7.3 19.3 14.8 36.8 25.4 51 1 1.3 2.6 2.8 2.7 4.4-10.5 1.1-23.9-1.4-34.1 0-6.8 1-12.9 7.2-14.8 13.6-3.4 11.6 1 17.4 7.4 26 10.2 13.7 21.8 27.6 32.6 40.9 8.1 10.1 15.7 20.8 25.4 29.4l-23.2 33.2zm-7.8 10l2.6 26.3h-18.7zm5.6 41.2h-9v-6.8h9zm-25.5-25.4v-39.7c1.3-0.3 1.8 0.2 2.7 0.7 4.7 2.5 9.7 8.4 14.6 11zm42 25.5h-9v-6.8h9zm40.1-47.9l-1.1-2.3h24.4l25.5 27.7 5.6 7.5h-24.4z"/>
			<path class="s0" d="m730.8 76.4h167.1v-10.8c0-14.1 15.2-28.3 28.9-29.6 59.3-6 47.7 91.3-8.8 69.5-6.8-2.7-9.4-7.2-15.1-10.4l-274 0.1c0.8 21.8-17 29.4-36.1 24.2l-2.2-16h14.7c1.4 0 5.6-6.8 5.6-8.6v-67.1h18.7v48.7h22.5c-5.6-22.7 13.4-41.4 36-33.3 6.1 2.2 15.7 11.2 15.7 18v15.3h8.3c5.1-29.1-10.1-46.8-39.9-43.2-6.9 0.8-12.8 4.6-19.3 5.7l-6-16.4c20.6-8.8 45.7-13.2 65.4 0.1 18 12.2 21.5 33.5 18.5 53.8zm199.2-22.3c-16.5 1.8-18.5 29.4-3.4 34.5 25.8 8.8 28.7-37.2 3.4-34.5zm-244.1 22.3c0.5-6.2-0.2-16.9-8.6-16.5-8 0.3-7.6 10.9-7.2 16.5z"/>
			<path class="s0" d="m924.9 140.1v94l-1.1 1.1h-37.5c-2.7 0-10.5-3.2-13-4.9-1.2-0.8-3.6-4.2-4.9-4-11.6 13.4-39.9 14.3-49.5-1.6-1.6 0-4.8 4.5-6.5 5.6-4.3 3.1-10.1 4.1-15.3 4.9l-140.8 0.1c-11 1.6-11.8 19.4-17.4 26.9l-16-6c3.9-10.8 8.6-29.7 18.9-36.1 1.9-1.1 8.8-3.6 10.7-3.6h19.8c5.1-17.4 1.3-36.2-21-32.6-5 0.8-8.7 3.8-13.4 4.9 0.3-3.6-6.8-14.6-5.2-17.1 13.7-6.9 30.2-10.1 44.1-2 15.8 9.1 16.2 30.7 14.3 46.8h26.9v-48.7h18.8v48.7h30.7v-40.4h18.8v40.4h10.8c0.8 0 6.1-2 7.1-2.6 5.4-3.5 6.4-9 6.8-15 0.5-7.2 0.1-15.7-0.8-22.8h18.8v29.6c0 0.2 1.1 4 1.3 4.6 4.9 11.5 24.2 9.7 25.7-3.9 0.9-9.2 0.2-17.2-0.1-26.2-0.1-3.9-0.7-9.9 1.2-13.1h17.6v34.1c0 2.3 2.2 8.4 3.8 10.5 1.5 2 6.3 4.8 8.6 4.8h19.1v-76.4z"/>
			<path class="s0" d="m187.4 248.7v-148c3.6-41.2 30.6-77.8 69.5-92.3 2.6-0.9 10.3-3.7 12.5-3.8 2.4 0 9.9 2.8 12.6 3.8 42.9 15.9 68.2 54.7 70.3 99.8 2.2 45.4-1.7 92.4 0 138l-1.1 2.5c0 0-163.8 0-163.8 0zm156.6-104.8c-0.4-15.3 2.4-31.8 0.8-46.9-3-27.9-19.5-53.5-42.5-69.1-7.3-5-27-15.6-35.5-14.1-22.8 4.3-48.9 28.4-59.6 48.4-13.1 24.6-12.2 48.4-11.6 75.7 25.3-4.4 37.7-32.6 64.9-30 3 0.2 6.8 2.4 8.9 2.2 1.4-0.1 5.6-2.8 7.7-3.5 15.4-5.3 27.5-0.2 37.7 11.4 8.3 9.5 14.5 26.1 29.2 25.8zm-56.9-34.4l-7.5 1.8c-4.2 3.6 4.4 12.5 7.5 14.7zm10.5 1.5l-8.3-0.8v18.4c2.9 1.8 5.1 5.3 8.3 6.3zm10.5 6.8c-3.2-0.8-5-5-8.3-5.3v25.5l8.3 3.8v-24zm-55.5-4.5v12c4.6-3 8.8-5.8 7.5-12zm-3 0.7l-7.5 2.3v17.2l7.5-5.6zm27 28.5v-20.6c0-0.5-6.1-5.1-7.1-4.9-0.3 0.4-1.2 0.9-1.2 1.1v23.6c0 0 8.3 0.8 8.3 0.8zm-37.5-6.8v-17.2l-7.5 5.6v14.6zm27 6v-21.7c-6.1 6.4-10.3 11.5-7.9 21l7.9 0.7zm44.2-20.2v21.7h8.3c1.1-8.6-1.5-16.2-8.3-21.7zm-31.5 4.5v16.4h8.3c0-2.5 0.3-4.8-0.6-7.2-0.3-0.9-6.5-10.6-7.7-9.2zm-50.2 14.2v-12.7c-3.8 3.2-8.6 7.3-7.5 12.7zm27 1.5l-0.4-8.2c-1 1.1-6.8 7-5.6 8.2h6zm68.2 2.2c0.6-0.5-1.5-5.7-3-6v6c0 0 3 0 3 0zm-127 9h147.2v-3.7c-18.3-0.9-36.7-0.9-55.1-1.5-25.1-0.8-50.5-2.4-75.6-3-5.9-0.2-11.8 0.1-17.7 0 0.3 1.8-0.7 7.6 1.2 8.2zm31.1 9c0-1.7-2.6-4.2-4.2-4.5-2.8-0.5-13.3-0.3-16.5 0-2.7 0.2-5 1.5-5.6 4.5h26.3zm72.5-3.5c-0.6-0.4-5.1-0.9-6.2-1-16.8-1.1-34.8 0.9-51.8 0-2.6 0-3.8 2.5-4.8 4.5l6.4 0.7 0.3 10.6 52.5-1.5v-9.8h5.3c0.4-0.3-1.4-3.4-1.7-3.5zm31.7 3.5c0.1-1.2-0.9-3.2-2-3.6-1.5-0.5-14.2-0.4-16.5-0.2-2.4 0.3-4.5 1-4.8 3.8 0 0 23.3 0 23.3 0zm11.9-3.7l-4.4 2.2c-0.8 1.9 1.3 1.3 1.5 2 0.5 2.1-1.6 11.1 2.9 7.4zm-104.9 9l-43.5-0.8v8.3l43.5-0.8zm96.3-0.7h-34.1v5.2c11.8 0.5 23.5-1.2 35.3-0.7 0 0-1.2-4.5-1.2-4.5zm8.6 74.2v-64.1l-148.4 3.4v60.7z"/>
			<path fill-rule="evenodd" class="s0" d="m960.9 297.4v12.8h-557.3l-1.1-1.2v-11.6h558.4z"/>
			<path class="s0" d="m505.9 0v76.4h61.9c10.1-25.8-8.9-42.1-33-27.7l-6.4-16.8c20-11.4 49.3-11 57.3 14.6 4.6 14.6 1.4 34.6-3.7 48.6h-93.7l-1.1-1.1v-94h18.8z"/>
			<path class="s0" d="m461 216.5h33v-46.8c0-0.3 0.9-1.1 0.7-1.9h18v67.5l-109.1-0.1-1.1-1.1v-17.6h40.5v-20.6c0-0.3-1.5-3.5-1.9-4.1-4-6-11.2-5.4-17.6-5.3v-18.7c17.8-1 32.7 5.3 36.4 23.9 0.2 1.2 1.1 5.7 1.1 6.5 0 0 0 18.3 0 18.3z"/>
			<path class="s0" d="m422.7 36v39.3c0 2.8 3.5 8.9 5.7 10.8 1.6 1.5 7.8 4.5 9.7 4.5h14.6v-54.6h18.8v73.4h-38.6c-12.9 0-28.9-15.9-28.9-28.9v-44.5c0 0 18.8 0 18.7 0z"/>
			<path class="s0" d="m592.9 167.8v68.6c0 2.4-2.3 10.6-3.4 13.1-5.6 12.1-22 13.1-33.4 9.9l-1.4-15.9c0.6-0.6 12.8 3.4 17.1-2.7 0.4-0.6 2.3-4.9 2.3-5.2v-67.8h18.8z"/>
			<path fill-rule="evenodd" class="s0" d="m529.2 140.1h18.7v95.2h-18.7z"/>
			<path fill-rule="evenodd" class="s0" d="m942.9 140.1h18v95.2h-18z"/>
			<path class="s0" d="m704.6 376.1v-33h10.8c1 0 5.9 0.8 7.2 1.1 13.6 2.8 17 21.7 6.2 28.8-1.2 0.7-6.3 3.1-7.4 3.1zm9.8-8.3c8.1 1.8 14-5.3 10-12.6-1.5-2.8-9.9-5.5-10.7-2.6l0.7 15.3z"/>
			<path class="s0" d="m441.5 343.9v11.2h11.2v-11.2h9.8v32.2c-3.1-0.5-7.4 1.1-9.8-1.1v-11.7c-3.5 0.5-8.4-1.2-11.2 1.2v11.6h-9v-32.2z"/>
			<path class="s0" d="m549.4 343.9v11.2h11.3l-0.1-11.2h9v32.2h-9v-12.8h-11.2v11.7c-2.4 2.2-6.6 0.6-9.7 1.1v-32.2c0 0 9.7 0 9.7 0z"/>
			<path class="s0" d="m517.2 356.6l9-13.1 10.5-0.4c1.4 1.4-8.9 13.2-9.7 15.5-0.1 2.3 10.6 13.8 10.4 17.5h-10.9l-9.3-14.2v14.2h-9.8v-33c3.1 0.5 7.4-1.1 9.8 1.2z"/>
			<path class="s0" d="m648.4 376.1h-10.5c-1-6.6-2.9-7.3-9.4-6.8-4.8 0.4-3.9 3.1-5.7 6.7l-9.7 0.1 13.5-32.6c2.9-0.4 7.5-1.4 9.4 1.2 0 0 12.4 31.4 12.4 31.4zm-15-13.5l-2.7-8.2-3.3 8.2z"/>
			<path class="s0" d="m934.7 376.1h-10.5c-1.1-7-3.1-7.8-10.1-6.7-5 0.8-3.1 5.8-5.4 6.6l-9.2 0.1 12.4-31.4c1-2.2 7.6-2.1 9.3-1.2 2.1 1 11.8 28.3 13.5 32.6zm-15-13.5l-2.6-8.2-3.4 8.2z"/>
			<path class="s0" d="m488.7 343.1v9h-10.9c-0.8 0-1.4 2.1-1.1 3h10.5v8.3l-10.5-0.1v4.5h12.8l-0.1 8.3h-22.4v-31.8l1.1-1.2h20.6z"/>
			<path fill-rule="evenodd" class="s0" d="m700.1 343.1l-0.8 8.7-11.2 0.3v3l10.1 0.7 0.4 7.6h-10.5v4.5h12.7v8.2h-22.5v-31.9l1.2-1.1h20.6z"/>
			<path class="s0" d="m611.6 343.1c1.2 1.2-11.4 21.7-12.7 24.7h12.7v8.3h-27.7l12.7-24.7h-12c0.4-2.7-1-6.3 1.2-8.3z"/>
			<path class="s0" d="m823 353.6c-1.1 1.1-11.2-5-13.5-1.1-0.5 2.3 11.4 4.3 13.8 8.7 7.5 13.2-13.2 19.8-22.7 13.3l-0.1-8.9c0.6-0.6 15.9 7.8 13-0.8-8.5-2.3-16.1-4.3-13.6-15.1 1.5-6.4 10.7-7.1 15.9-6.5 8.1 0.9 7.6 2.8 7.2 10.4z"/>
			<path class="s0" d="m795.6 343.1c2 0.6 0.9 6.4 1.2 8.3-2 0.1-11.6-0.8-12.1 1.2l0.1 2.5h9.7v8.3l-9.7-0.1v4.5h12v8.3h-21.8v-33c0 0 20.6 0 20.6 0z"/>
			<path class="s0" d="m427.2 344.7v8.9c-4.4-0.6-8-3.1-12.7-2.2l0.1 2.9c8.2 1.5 17.6 5.8 13.7 15.8-2.4 6.2-8.9 7.2-14.8 6.7-9.1-0.8-8.4-2.7-8-11.2 0.5-0.5 12.6 6.4 13.5 1.1 0-2.4-7.9-3.9-10.3-5.4-8.5-5.3-4.5-16.8 4.7-18.1 4.8-0.6 9.2 0.4 13.8 1.5z"/>
			<path class="s0" d="m886 362.6c3.8-3 5.2-16.1 7.8-18.8 1.6-1.5 7-0.3 9.4-0.7l-11.3 32.9-9.4 0.1-13-33c2.4 0.4 8.5-0.9 10.1 0.8 1.9 1.9 5 15.3 6.4 18.7z"/>
			<path class="s0" d="m758.5 352.1v3.8h10.5v7.5c-0.7 0.7-9.1-1.3-10.5 1.1v11.6h-9.7v-31.8l1.1-1.2h20.3c1.8 1.9 1.8 7.2 0 9h-11.7z"/>
			<path class="s0" d="m655.1 361.5c-0.6-2.2-9.5-12-11.3-15.7-0.4-0.9-1-1.5-0.7-2.7 2.6 0.5 8.5-0.8 10.5 0.4 1.5 0.9 5.2 9.4 6.4 9.4 2.2-1.5 4.8-8.5 6.4-9.4 1.9-1.2 7.9 0.1 10.4-0.4 0.3 1.2-0.2 1.8-0.7 2.7-1.4 2.5-11.3 14-11.3 14.9l0.1 15.4h-9.8c-0.7-3.9 1-11.3 0-14.6z"/>
			<path class="s0" d="m855.2 343.9v7.5l-9.2-0.1c-0.5 0.2-1.3 1.7-1.3 1.9v22.9h-9v-23.6c-1.3-2.4-9.7-0.4-10.5-1.1v-7.5c0 0 30 0 30 0z"/>
			<path class="s0" d="m946.7 343.1v24.7h13.5v8.3h-23.3v-31.9c2.4-2.2 6.7-0.6 9.8-1.1z"/>
			<path class="s0" d="m580.7 138c18.3-3.1 18.6 21.7 0.8 19.1-11.8-1.7-11.5-17.2-0.8-19.1z"/>
			<path class="s0" d="m657.1 135c16.6-2.6 18.5 18.5 3.6 19.3-14.9 0.9-15.4-17.4-3.6-19.3z"/>
			<path class="s0" d="m563.4 108.1c0.7 0.7 2 4 2.2 5 3.1 15.6-25.8 16.1-21.1-1.5 1.9-7 14.9-7.9 18.9-3.5z"/>
			<path class="s0" d="m446.5 22.2c-4.2 4.4-15.7 3.8-18.3-2.6-3.9-9.6 3.7-14.9 12.8-13.5 7.5 1 10.6 10.7 5.5 16.1z"/>
			<path class="s0" d="m477.3 245.9c6.9-1.3 14.9 1.4 14.3 9.7-0.7 8.3-8.1 10.1-15.1 8.7-8.7-1.8-8.8-16.6 0.8-18.4z"/>
			<path class="s0" d="m732.6 248.2c4.6-4.6 17.2-3.3 18.4 3.9 1.6 10-4.5 13.8-13.8 12.3-7.4-1.2-9.6-11.2-4.6-16.2z"/>
			<path class="s0" d="m723.8 262c-7.5 7.8-25.3-1-17.3-12.5 7.6-10.9 27.8 1.5 17.3 12.5z"/>
			<path class="s0" d="m502.8 245.9c18.4-3.1 18.9 21.5-0.2 18.5-9.8-1.5-10.1-16.8 0.1-18.5z"/>
			<path class="s0" d="m502.9 376.1h-9.7v-33c3.1 0.5 7.4-1.1 9.7 1.1z"/>
			<path class="s0" d="m830.3 147c14-1.5 15.2 16.3 4.9 18.4-16.6 3.4-18.5-16.9-4.9-18.4z"/>
			<path class="s0" d="m805.6 147c16.7-2.4 16.5 23.1-2.1 18.2-8.7-2.2-8.9-16.6 2.1-18.2z"/>
			<path fill-rule="evenodd" class="s0" d="m858.2 343.9h9v32.2h-9z"/>
			<path class="s0" d="m827.3 134.3c0.8 1.1 1.6 4.6 1.5 6-0.7 9.9-18.6 9.6-18.3-1.2 0.2-8.4 12.7-10.2 16.8-4.8z"/>
			<path class="s0" d="m78 136.3c-2.5-2.1 16.5-11.3 13.3-0.5-1.5 4.9-9.9-0.6-13.3 0.5z"/>
			<path class="s0" d="m303.6 185l-0.1 3.8-68.1 2.2v-3.7c8-1.5 16.2-0.5 24.3-0.7 1.8-0.1 3.5-0.8 5.2-0.8 12.9-0.5 25.8-0.3 38.7-0.8z"/>
			<path class="s0" d="m289.3 211.3v4.5l-30.7 0.7c0-1.4-0.5-3.8 1.2-4.4 0 0 29.5-0.8 29.5-0.8z"/>
			<path class="s0" d="m302.8 198.5c0 2.1 0.6 4.1-1.9 4.5-2.5 0.5-17.7 0.5-20.2 0-2.5-0.4-2.3-3.6-1.5-3.7z"/>
			<path class="s0" d="m264.6 200v3.8l-23.3 0.7c-0.3-2.3-0.1-4.5 2.7-4.5z"/>
			<path fill-rule="evenodd" class="s0" d="m254.1 212.8v3.7l-9.7 0.8-0.1-4.5h9.8z"/>
			<path class="s0" d="m275.1 199.3v4.5l-5.1-0.1c-2.5-4.9 1.1-4.6 5.1-4.4z"/>
			<path fill-rule="evenodd" class="s0" d="m224.9 187.3h5.2v4.5h-5.2z"/>
			<path class="s0" d="m315.6 185.1c0.6 4.6-1.2 4.8-5.3 4.5v-4.5z"/>
			<path fill-rule="evenodd" class="s0" d="m299.1 211.3v3.7l-5.3 0.8v-4.5h5.3z"/>
			<path fill-rule="evenodd" class="s0" d="m231.6 200.8h5.3v3.7h-5.3z"/>
			<path fill-rule="evenodd" class="s0" d="m307.3 198.5h5.3v3.8h-5.3z"/>
		</g>
	</g>
</svg>