<svg version="1.2" xmlns="http://www.w3.org/2000/svg" viewBox="0 0 591 415" width="591" height="415">
	<title>07</title>
	<style>
		.s0 { fill: #c8122e } 
	</style>
	<g>
		<path class="s0" d="m295.4 13.6c-68.5 0-124.2 55.7-124.2 124.2 0 68.5 55.7 124.2 124.2 124.2 68.5 0 124.2-55.7 124.2-124.2 0-68.5-55.7-124.2-124.2-124.2zm72.4 178.3c-2.9 18.2-6.6 26-12.3 26-5.3 0-11.6-5.9-21.9-47.9-4.6-18.7-9.6-43.5-14.6-72.1-3.9 4.9-8 10.6-12 16.9-2.9 4.6-5.7 9.4-8.2 14.2 10.7 20.9 22 51.1 22 85.5v3h-50.8v-3c0-34.4 11.3-64.6 22-85.5-2.6-4.8-5.3-9.6-8.2-14.2-4-6.3-8-11.9-11.9-16.8-3.7 21.2-9 49-14.6 72.1-10.3 42-16.6 47.9-21.9 47.9-5.7 0-9.4-7.8-12.3-26-3.8-24.1-5.4-49-4.3-70.1 0.8-16.4 3.6-38.2 12.4-48.5 3.4-4 7.5-6 12-6 4.5 0 15.5 6.8 25.5 17.6 2.9-6.4 8.3-8.8 12.5-10.7 1.9-0.8 4.7-1.8 6-3.9 0.7-1 0.6-2.5 0.2-3.5-1.2-3.1-7.8-4.8-17.8-2.2-1-18.5 14.8-25.6 23.6-25.7 14.2-0.2 23.6 9.2 26.4 26.6l3.3 18.9c9.8-10.5 19-17 25-17 6 0 8.6 2 12 6 8.8 10.3 11.6 32 12.4 48.5 1 21.1-0.5 46-4.3 70.1z"/>
		<path class="s0" d="m347.8 73.3c-3.9 0-13 6.4-23.6 18.5 5.1 29.9 10.3 55.9 15 75.4 8.3 34.4 13.6 42.3 15.6 44.1 0.4 0.3 1 0.3 1.3 0 1.1-1.5 3.5-6 5.7-20.3 8.1-50.9 5.2-99.8-6.6-113.7-2.2-2.6-4.7-3.9-7.4-3.9z"/>
		<path class="s0" d="m292.4 44.8c-8.7 0.6-14.5 6.4-16.3 12.6 4-0.2 10.1 0 13.9 3.1 2.4 2 3.8 5 3.6 8.1-0.8 13.1-17.9 8.5-20.4 21.4 5.3 6.3 10.7 13.6 15.7 21.4 2.3 3.6 4.5 7.3 6.5 11 2.1-3.7 4.2-7.4 6.5-11 5-7.9 10.4-15.2 15.7-21.5l-4.3-24.1c-1.7-10.7-8.3-21.8-21-21z"/>
		<path class="s0" d="m243 73.3c-2.7 0-5.2 1.3-7.4 3.9-11.9 13.9-14.7 62.8-6.7 113.7 2.3 14.3 4.6 18.8 5.7 20.3 0.3 0.4 1 0.5 1.3 0.1 2-1.8 7.3-9.6 15.6-44.1 5.9-24.5 11.4-54.2 15-75.3-10.7-12.1-19.8-18.6-23.7-18.6z"/>
		<path class="s0" d="m276.1 211.4h38.6c-0.6-29.9-9.9-56.4-19.3-75.7-9.4 19.3-18.7 45.8-19.3 75.7z"/>
	</g>
	<g>
		<path class="s0" d="m583.4 382.5c0-0.7-0.2-1.3-0.3-1.8-0.1-0.5-0.3-1-0.4-1.5-0.8-2.4-2.2-4.4-4.2-5.8q-3-2.1-7.5-2.1c-2.8 0-5.3 0.7-7.3 2.1-2.1 1.4-3.5 3.3-4.3 5.8-0.3 0.9-0.5 1.9-0.7 3.1-0.2 1.1-0.2 2.5-0.2 4 0 1.5 0 2.8 0.3 3.9 0.2 1 0.4 2.1 0.7 3 0.8 2.5 2.2 4.4 4.2 5.8 2 1.4 4.6 2.1 7.6 2.1 2.6 0 5-0.5 6.9-1.4 2-0.9 3.6-2.1 4.8-3.5 0.2-0.3 0.2-0.6 0-0.8l-3.5-3.1c-0.3-0.2-0.6-0.2-0.9 0.1-0.7 0.8-1.6 1.4-2.7 2-1.1 0.5-2.4 0.8-4 0.8-3.3 0-5.4-1.4-6.4-4.3-0.1-0.3-0.2-0.7-0.3-1 0-0.4-0.1-0.8-0.1-1.2 0-0.4 0.1-0.4 0.4-0.4h17.6c0.4 0 0.7-0.2 0.7-0.6q0-1.6 0-3c0-0.8 0-1.6-0.2-2.3zm-6.8 1h-11.2c-0.2 0-0.4-0.1-0.4-0.4 0-0.9 0.1-1.7 0.4-2.4q0.6-1.8 2.1-2.7c1-0.7 2.2-1 3.5-1 1.3 0 2.5 0.3 3.5 1q1.5 1.1 2.1 2.7c0.2 0.7 0.4 1.5 0.4 2.5 0 1-0.1 0.4-0.4 0.4z"/>
		<path class="s0" d="m539.2 381c0.4-1.3 1.1-2.2 2-2.8q1.4-0.9 3.3-0.9c1.3 0 2.2 0.2 3 0.6 0.8 0.4 1.6 1 2.3 1.8 0.2 0.3 0.5 0.4 0.8 0.1l3.7-3.3c0.3-0.2 0.3-0.5 0-0.8-1.1-1.4-2.6-2.5-4.2-3.3q-2.6-1.2-5.7-1.2c-2.1 0-5.4 0.7-7.4 2-2.1 1.3-3.5 3.3-4.3 5.9-0.6 1.8-0.9 4.1-0.9 7 0 2.9 0.3 5.3 0.9 7 0.8 2.6 2.3 4.5 4.3 5.9 2.1 1.3 4.5 2 7.4 2q3.1 0 5.7-1.2c1.7-0.8 3.1-1.9 4.2-3.2 0.2-0.4 0.2-0.6 0-0.8l-3.7-3.3c-0.3-0.2-0.6-0.2-0.8 0-0.7 0.8-1.5 1.4-2.3 1.8-0.8 0.4-1.8 0.7-3 0.7q-1.9 0-3.3-0.9c-0.9-0.6-1.6-1.5-2-2.8-0.2-0.7-0.4-1.5-0.5-2.4 0-0.9-0.1-1.9-0.1-3 0-1 0-2 0.1-2.9 0-0.8 0.2-1.6 0.5-2.3z"/>
		<path class="s0" d="m525.3 372h-5.4q-0.6 0-0.6 0.6v27.3q0 0.6 0.6 0.6h5.4q0.6 0 0.6-0.6v-27.3q0-0.6-0.6-0.6z"/>
		<path class="s0" d="m519.8 360.3h5.4c0.3 0 0.6 0.3 0.6 0.6v5.1c0 0.3-0.3 0.6-0.6 0.6h-5.4c-0.3 0-0.6-0.3-0.6-0.6v-5.1c0-0.3 0.3-0.6 0.6-0.6z"/>
		<path class="s0" d="m513.7 360.3h-2.6c-3.1 0-5.5 0.7-7.1 2.2-1.6 1.5-2.4 3.9-2.4 7.3v1.8c0 0.2-0.1 0.4-0.4 0.4h-1.9q-0.6 0-0.6 0.6v4q0 0.6 0.6 0.6h1.9c0.2 0 0.4 0.1 0.4 0.4v22.4q0 0.6 0.6 0.6h5.4q0.6 0 0.6-0.6v-22.4c0-0.2 0.1-0.4 0.4-0.4h5.1q0.6 0 0.6-0.6v-4q0-0.6-0.6-0.6h-5.1c-0.2 0-0.4-0.1-0.4-0.4v-2c0-0.7 0-1.3 0.1-1.7 0-0.4 0.3-0.8 0.5-1.1 0.3-0.3 0.6-0.5 1.1-0.6 0.5 0 1.1-0.1 1.8-0.1h1.8q0.6 0 0.6-0.6v-4.7q0-0.6-0.6-0.6z"/>
		<path class="s0" d="m494.2 360.3h-2.6c-3.1 0-5.5 0.7-7.1 2.2-1.6 1.5-2.4 3.9-2.4 7.3v1.8c0 0.2-0.1 0.4-0.4 0.4h-1.9q-0.6 0-0.6 0.6v4q0 0.6 0.6 0.6h1.9c0.2 0 0.4 0.1 0.4 0.4v22.4q0 0.6 0.6 0.6h5.4q0.6 0 0.6-0.6v-22.4c0-0.2 0.1-0.4 0.4-0.4h5.1q0.6 0 0.6-0.6v-4q0-0.6-0.6-0.6h-5.1c-0.2 0-0.4-0.1-0.4-0.4v-2c0-0.7 0-1.3 0.1-1.7 0-0.4 0.3-0.8 0.5-1.1 0.3-0.3 0.6-0.5 1.1-0.6 0.5 0 1.1-0.1 1.8-0.1h1.8q0.6 0 0.6-0.6v-4.7q0-0.6-0.6-0.6z"/>
		<path class="s0" d="m474 373.4c0-0.8-0.2-1.6-0.3-2.2-0.1-0.6-0.3-1.3-0.5-1.9-1-3.2-2.8-5.6-5.3-7.3-2.5-1.6-5.5-2.5-9-2.5-3.5 0-6.5 0.8-8.9 2.5-2.5 1.6-4.2 4.1-5.3 7.3-0.2 0.6-0.4 1.3-0.5 1.9-0.1 0.6-0.2 1.4-0.3 2.2 0 0.8-0.1 1.8-0.2 2.9 0 1.1 0 2.5 0 4.1 0 1.6 0 2.9 0 4.1 0 1 0 2 0.2 2.9 0 0.7 0.2 1.5 0.3 2.2 0.1 0.6 0.3 1.3 0.5 1.9 1 3.2 2.8 5.6 5.3 7.3 2.5 1.6 5.5 2.5 8.9 2.5 3.5 0 6.5-0.8 9-2.5 2.5-1.6 4.2-4.1 5.3-7.3 0.2-0.6 0.4-1.3 0.5-1.9 0.1-0.6 0.2-1.4 0.3-2.2 0-1 0.1-2 0.2-2.9 0-1.1 0-2.5 0-4.1 0-1.4 0-2.7 0-4.1 0-1.1 0-2.1-0.2-2.9zm-6.9 10.6c0 1 0 1.9-0.1 2.6 0 0.7-0.1 1.3-0.2 1.8 0 0.5-0.2 0.9-0.3 1.2-0.6 1.7-1.4 2.9-2.7 3.9-1.2 0.9-2.8 1.4-4.9 1.4-2 0-3.6-0.5-4.8-1.4-1.2-0.9-2.1-2.2-2.6-3.9q-0.2-0.6-0.3-1.2c0-0.5-0.2-1.1-0.2-1.8 0-0.7 0-1.6-0.1-2.6q0-1.5 0-3.6 0-2.1 0-3.6c0-0.9 0-1.7 0.1-2.6 0-0.6 0.1-1.2 0.2-1.8 0-0.5 0.2-0.9 0.3-1.2 0.6-1.7 1.4-2.9 2.6-3.9 1.2-0.9 2.8-1.4 4.8-1.4 2 0 3.6 0.5 4.9 1.4q1.8 1.4 2.7 3.9 0.2 0.6 0.3 1.2c0 0.6 0.2 1.2 0.2 1.8 0 0.9 0.1 1.7 0.1 2.6q0 1.5 0 3.6 0 2.1 0 3.6z"/>
		<path class="s0" d="m410.4 371.3c-2.4 0-4.4 0.3-6 0.8-1.6 0.5-3 1.2-4.1 2-0.3 0.2-0.3 0.5-0.1 0.8l2.2 3.9c0.2 0.4 0.5 0.4 0.8 0.1 0.7-0.6 1.5-1 2.5-1.4 1-0.4 2.3-0.6 4-0.6 2.4 0 4.1 0.4 5 1.1 0.9 0.8 1.4 2 1.4 3.6v1.4c0 0.2-0.1 0.4-0.4 0.4h-5.8c-3.6 0-6.3 0.7-8.4 2.2-2 1.5-3 3.7-3 6.8 0 3.1 0.3 2.8 0.8 3.9q0.7 1.7 2.1 2.7c0.9 0.7 1.9 1.2 3 1.6 1.2 0.4 2.4 0.5 3.7 0.5 2 0 3.7-0.3 5-0.9q1.9-0.9 3-2.4v2.1q0 0.6 0.6 0.6h5q0.6 0 0.6-0.6v-18.6c0-3.5-0.9-6-2.7-7.6-1.8-1.6-4.9-2.4-9.2-2.4zm5.6 19.6c0 1.7-0.5 2.9-1.6 3.7-1.1 0.8-2.7 1.2-4.7 1.2-3.3 0-4.9-1.2-4.9-3.6 0-2.4 0.5-2.3 1.5-2.9 1-0.6 2.5-0.9 4.7-0.9h4.7c0.2 0 0.4 0.1 0.4 0.4v2.2z"/>
		<path class="s0" d="m392 372h-5.4q-0.6 0-0.6 0.6v27.3q0 0.6 0.6 0.6h5.4q0.6 0 0.6-0.6v-27.3q0-0.6-0.6-0.6z"/>
		<path class="s0" d="m386.6 360.3h5.4c0.3 0 0.6 0.3 0.6 0.6v5.1c0 0.3-0.3 0.6-0.6 0.6h-5.4c-0.3 0-0.6-0.3-0.6-0.6v-5.1c0-0.3 0.3-0.6 0.6-0.6z"/>
		<path class="s0" d="m378.1 360.3h-5.4q-0.6 0-0.6 0.6v13.8c-0.7-1-1.6-1.8-2.8-2.4-1.2-0.6-2.8-0.9-4.7-0.9-2.4 0-4.5 0.6-6.2 1.7-1.7 1.1-2.9 2.9-3.7 5.1-0.4 1.1-0.6 2.2-0.8 3.4-0.2 1.2-0.2 2.7-0.2 4.6 0 1.9 0 3.5 0.2 4.6 0.2 1.2 0.4 2.3 0.8 3.4 0.7 2.3 2 4 3.7 5.2 1.7 1.1 3.8 1.7 6.2 1.7 1.9 0 3.5-0.3 4.7-0.9 1.2-0.6 2.2-1.4 2.8-2.4v2.1q0 0.6 0.6 0.6h5.4q0.6 0 0.6-0.6v-39.1q0-0.6-0.6-0.6zm-6.1 29.1c0 0.8-0.2 1.5-0.4 2.2-0.8 2.4-2.6 3.7-5.3 3.7-2.7 0-4.5-1.2-5.3-3.7-0.2-0.7-0.3-1.4-0.4-2.2 0-0.8-0.1-1.8-0.1-3.1 0-1.3 0-2.3 0.1-3.1 0-0.7 0.2-1.5 0.4-2.2 0.8-2.4 2.5-3.7 5.3-3.7 2.8 0 4.5 1.2 5.3 3.7 0.2 0.7 0.4 1.4 0.4 2.2 0 0.8 0.1 1.8 0.1 3.1 0 1.3 0 2.3-0.1 3.1z"/>
		<path class="s0" d="m348.5 382.5c0-0.7-0.2-1.3-0.3-1.8-0.1-0.5-0.3-1-0.4-1.5-0.8-2.4-2.2-4.4-4.2-5.8q-3-2.1-7.5-2.1c-2.8 0-5.3 0.7-7.3 2.1-2 1.4-3.5 3.3-4.3 5.8-0.3 0.9-0.5 1.9-0.7 3.1-0.2 1.1-0.2 2.5-0.2 4 0 1.5 0 2.8 0.3 3.9 0.2 1 0.4 2.1 0.7 3 0.8 2.5 2.2 4.4 4.2 5.8 2 1.4 4.6 2.1 7.6 2.1 2.6 0 5-0.5 6.9-1.4 2-0.9 3.6-2.1 4.8-3.5 0.2-0.3 0.2-0.6 0-0.8l-3.5-3.1c-0.3-0.2-0.6-0.2-0.9 0.1-0.7 0.8-1.6 1.4-2.7 2-1.1 0.5-2.4 0.8-4 0.8-3.3 0-5.4-1.4-6.4-4.3-0.1-0.3-0.2-0.6-0.3-1 0-0.4-0.1-0.8-0.1-1.2 0-0.4 0.1-0.4 0.4-0.4h17.6c0.4 0 0.7-0.2 0.7-0.6q0-1.6 0-3c0-0.8 0-1.6-0.2-2.3zm-6.8 1h-11.2c-0.2 0-0.4-0.1-0.4-0.4 0-0.9 0.1-1.7 0.4-2.4q0.6-1.8 2.1-2.7c1-0.7 2.2-1 3.6-1 1.3 0 2.5 0.3 3.5 1q1.5 1.1 2.1 2.7c0.2 0.7 0.4 1.5 0.4 2.5 0 1-0.1 0.4-0.4 0.4z"/>
		<path class="s0" d="m316.6 360.3h-5.2c-0.5 0-0.8 0.2-1 0.6l-10.9 24.8h-0.2l-11.1-24.8c-0.2-0.4-0.5-0.6-1-0.6h-5.3q-0.6 0-0.6 0.6v39.1q0 0.6 0.6 0.6h5.1q0.6 0 0.6-0.6v-24.6h0.2l8.5 18.9c0.2 0.5 0.6 0.8 1.1 0.8h3.4c0.5 0 0.9-0.3 1.1-0.8l8.5-18.9h0.2v24.6q0 0.6 0.6 0.6h5.1q0.6 0 0.6-0.6v-39.1q0-0.6-0.6-0.6z"/>
		<path class="s0" d="m258.1 372h-5.4q-0.6 0-0.6 0.6v27.3q0 0.6 0.6 0.6h5.4q0.6 0 0.6-0.6v-27.3q0-0.6-0.6-0.6z"/>
		<path class="s0" d="m252.6 360.3h5.4c0.3 0 0.6 0.3 0.6 0.6v5.1c0 0.3-0.3 0.6-0.6 0.6h-5.4c-0.3 0-0.6-0.3-0.6-0.6v-5.1c0-0.3 0.3-0.6 0.6-0.6z"/>
		<path class="s0" d="m244.9 378.2c-0.7-2.3-2-4-3.7-5.1-1.7-1.1-3.8-1.7-6.2-1.7-1.9 0-3.5 0.3-4.7 0.9-1.2 0.6-2.2 1.4-2.8 2.4v-13.8q0-0.6-0.6-0.6h-5.4q-0.6 0-0.6 0.6v39.1q0 0.6 0.6 0.6h5.4q0.6 0 0.6-0.6v-2.1c0.7 1 1.6 1.8 2.8 2.4 1.2 0.6 2.8 0.9 4.7 0.9 2.4 0 4.5-0.6 6.2-1.7 1.7-1.1 2.9-2.9 3.7-5.1 0.4-1.1 0.6-2.2 0.8-3.4 0.2-1.2 0.2-2.7 0.2-4.6 0-1.9 0-3.5-0.2-4.6-0.2-1.2-0.4-2.3-0.8-3.4zm-5.9 11.2c0 0.8-0.2 1.5-0.4 2.2-0.8 2.4-2.5 3.7-5.3 3.7-2.8 0-4.5-1.2-5.3-3.7-0.2-0.7-0.3-1.4-0.4-2.2 0-0.8-0.1-1.8-0.1-3.1 0-1.3 0-2.3 0.1-3.1 0-0.7 0.2-1.5 0.4-2.2 0.8-2.4 2.6-3.7 5.3-3.7 2.7 0 4.5 1.2 5.3 3.7 0.2 0.7 0.4 1.4 0.4 2.2 0 0.8 0.1 1.8 0.1 3.1 0 1.3 0 2.3-0.1 3.1z"/>
		<path class="s0" d="m201.7 371.3c-2.4 0-4.4 0.3-6 0.8-1.6 0.5-3 1.2-4.1 2-0.3 0.2-0.3 0.5-0.1 0.8l2.2 3.9c0.2 0.4 0.5 0.4 0.8 0.1 0.7-0.6 1.5-1 2.5-1.4 1-0.4 2.3-0.6 4-0.6 2.4 0 4.1 0.4 5 1.1 0.9 0.8 1.4 2 1.4 3.6v1.4c0 0.2-0.1 0.4-0.4 0.4h-5.8c-3.6 0-6.3 0.7-8.4 2.2-2 1.5-3 3.7-3 6.8 0 1.5 0.3 2.8 0.8 3.9q0.7 1.7 2.1 2.7c0.9 0.7 1.9 1.2 3 1.6 1.2 0.4 2.4 0.5 3.7 0.5 2 0 3.7-0.3 5-0.9q1.9-0.9 3-2.4v2.1q0 0.6 0.6 0.6h5q0.6 0 0.6-0.6v-18.6c0-3.5-0.9-6-2.7-7.6-1.8-1.6-4.9-2.4-9.2-2.4zm5.7 19.6c0 1.7-0.5 2.9-1.6 3.7-1.1 0.8-2.7 1.2-4.7 1.2-3.3 0-4.9-1.2-4.9-3.6 0-1.3 0.5-2.3 1.5-2.9 1-0.6 2.5-0.9 4.7-0.9h4.7c0.2 0 0.4 0.1 0.4 0.4v2.2z"/>
		<path class="s0" d="m181.6 374.4c-0.9-0.9-1.9-1.7-3.1-2.2-1.2-0.5-2.6-0.8-4.1-0.8-1.5 0-3.5 0.3-4.7 1-1.2 0.7-2.2 1.4-2.8 2.3v-13.8q0-0.6-0.6-0.6h-5.4q-0.6 0-0.6 0.6v39.1q0 0.6 0.6 0.6h5.4q0.6 0 0.6-0.6v-16.5c0-1.9 0.5-3.4 1.4-4.5 0.9-1.1 2.3-1.7 4-1.7 1.7 0 3.1 0.6 4 1.7 0.9 1.1 1.4 2.6 1.4 4.5v16.5q0 0.6 0.6 0.6h5.4q0.6 0 0.6-0.6v-18c0-1.5-0.2-2.9-0.7-4.2-0.5-1.3-1.1-2.4-2-3.3z"/>
		<path class="s0" d="m153.3 372.9c0-0.7-0.2-1.4-0.3-2.1-0.1-0.6-0.3-1.1-0.4-1.6-1.9-6-6.4-8.9-13.5-8.9h-14.4q-0.6 0-0.6 0.6v39.1q0 0.6 0.6 0.6h14.4c7 0 11.5-3 13.5-8.9 0.2-0.5 0.3-1.1 0.4-1.6q0.1-0.9 0.3-2.1c0.1-1 0.2-2 0.2-3.1 0-1.2 0-2.7 0-4.4 0-1.7 0-3.2 0-4.4 0-1.2-0.1-2.2-0.2-3.1zm-6.9 11.1c0 1 0 1.8-0.1 2.5 0 0.7-0.1 1.2-0.2 1.6 0 0.4-0.2 0.7-0.3 1-0.6 1.8-1.6 3.1-2.9 3.9-1.3 0.8-3.2 1.2-5.4 1.2h-6c-0.2 0-0.4-0.1-0.4-0.4v-26.9c0-0.2 0.1-0.4 0.4-0.4h6c2.2 0 4.1 0.4 5.4 1.2 1.4 0.8 2.3 2.1 2.9 3.9 0.1 0.3 0.2 0.7 0.3 1 0 0.5 0.2 1.1 0.2 1.6 0 0.8 0.1 1.7 0.1 2.5 0 1 0 2.2 0 3.7 0 1.2 0 2.4 0 3.7z"/>
		<path class="s0" d="m100.8 372h-5.4q-0.6 0-0.6 0.6v16.5c0 1.8-0.5 3.3-1.4 4.4-0.9 1.1-2.2 1.7-3.9 1.7-1.7 0-3.2-0.6-4-1.7-0.9-1.1-1.3-2.6-1.3-4.5v-16.5q0-0.6-0.6-0.6h-5.4q-0.6 0-0.6 0.6v18c0 1.5 0.2 2.9 0.7 4.2 0.5 1.3 1.1 2.4 2 3.3 0.9 1 1.9 1.7 3.1 2.2 1.2 0.5 2.6 0.8 4.1 0.8q2.7 0 4.5-0.9c1.1-0.6 2.1-1.4 2.9-2.4v2.1q0 0.6 0.6 0.6h5.4q0.6 0 0.6-0.6v-27.3q0-0.6-0.6-0.6z"/>
		<path fill-rule="evenodd" class="s0" d="m60.8 401.2z"/>
		<path class="s0" d="m70.7 378.2c-0.8-2.3-2-4-3.7-5.2-1.7-1.1-3.8-1.7-6.2-1.7-1.9 0-3.5 0.3-4.7 0.9-1.2 0.6-2.2 1.4-2.8 2.4v-13.8q0-0.6-0.6-0.6h-5.4q-0.6 0-0.6 0.6v39.1q0 0.6 0.6 0.6h5.4q0.6 0 0.6-0.6v-2.1c0.7 1 1.6 1.8 2.8 2.4 1.2 0.6 2.8 0.9 4.7 0.9 2.4 0 4.5-0.6 6.2-1.7 1.7-1.1 2.9-2.9 3.7-5.1 0.4-1.1 0.6-2.2 0.8-3.4 0.2-1.2 0.2-2.7 0.2-4.6 0-1.9 0-3.5-0.2-4.6-0.2-1.2-0.4-2.3-0.8-3.4zm-5.9 11.2c0 0.8-0.2 1.5-0.4 2.2-0.8 2.4-2.5 3.7-5.3 3.7-2.8 0-4.5-1.2-5.3-3.7-0.2-0.7-0.3-1.4-0.4-2.2 0-0.8-0.1-1.8-0.1-3.1 0-1.3 0-2.3 0.1-3.1 0-0.7 0.2-1.5 0.4-2.2 0.8-2.4 2.6-3.7 5.3-3.7 2.7 0 4.5 1.2 5.3 3.7 0.2 0.7 0.4 1.4 0.4 2.2 0 0.8 0.1 1.8 0.1 3.1 0 1.3 0 2.3-0.1 3.1z"/>
		<path class="s0" d="m28 360.9c-0.1-0.4-0.4-0.6-0.8-0.6h-5.4c-0.4 0-0.7 0.2-0.8 0.6l-13.8 39.1c-0.1 0.4 0 0.6 0.4 0.6h5.7c0.4 0 0.7-0.2 0.8-0.6l2.7-7.8h15.1l2.7 7.8c0.1 0.4 0.4 0.6 0.8 0.6h5.8c0.4 0 0.5-0.2 0.4-0.6zm-9.1 25l5.4-15.6h0.2l5.3 15.6z"/>
		<path class="s0" d="m80.1 321.8c0.6-1.6 0.9-3.6 0.9-5.9 0-2.3-0.3-4.5-0.9-6.2-0.6-1.7-1.5-3.1-2.6-4.1-1.1-1-2.4-1.8-3.9-2.3-1.5-0.5-3.1-0.7-4.9-0.7-1.8 0-3.3 0.2-4.8 0.7-1.4 0.4-2.7 1.2-3.8 2.2-1.1 1-1.9 2.3-2.6 3.9-0.7 1.6-0.9 3.5-1 5.8v0.9q0 0.4 0 0.9c0 1-0.1 1.9-0.4 2.6-0.2 0.7-0.5 1.2-0.9 1.7-0.4 0.4-0.7 0.7-1.2 0.9-0.4 0.2-0.9 0.3-1.3 0.3h-8.3c-1.1 0-2.2-0.1-3.3-0.4-1.1-0.3-2.2-0.6-3.2-0.9-1.1-0.4-2.3-0.8-3.4-1.3q-1.8-0.8-3.6-1.5c-0.4-0.1-0.6 0-0.7 0.4l-1.6 4.7c-0.1 0.4 0 0.6 0.4 0.7 1.7 0.7 3.5 1.3 5.2 1.9 1.5 0.5 2.7 1.1 3.7 1.5q1.5 0.7 2.1 1.5c0.5 0.5 0.7 1.2 0.7 1.9 0 0.9-0.4 1.7-1.3 2.3-0.9 0.6-2.5 0.9-4.9 0.9h-11.5c-1.1 0-2.3-0.1-3.4-0.4-1.1-0.3-2.1-0.7-3-1.3q-1.3-0.9-2.1-2.4c-0.5-1-0.8-2.2-0.8-3.7q0-2.3 0.9-4.5c0.6-1.5 1.2-2.7 1.9-3.8 0.2-0.3 0.1-0.6-0.2-0.8l-4.7-2.4c-0.4-0.2-0.6-0.2-0.8 0.1-0.6 0.8-1 1.6-1.4 2.5-1 2-1.7 4.1-2.1 6.2q-0.3 1.6-0.3 3.3c0 4.1 1.3 7.3 3.8 9.6q3.8 3.6 11.4 3.6h13.5c2.1 0 3.9-0.2 5.4-0.7q2.3-0.8 3.6-1.8c0.9-0.7 1.6-1.6 2-2.6 0.4-1 0.6-2 0.6-3.1 0-0.8-0.1-1.5-0.4-2.2-0.3-0.7-0.5-1.2-0.7-1.5h6.2c0.6 0 1.1 0 1.8-0.1 0.6 0 1.2-0.2 1.8-0.5 0.6-0.2 1.2-0.5 1.7-0.9 0.6-0.4 1.1-0.9 1.4-1.6 1.1 1.2 2.4 2.1 4 2.7 1.6 0.5 3.4 0.8 5.3 0.8 1.9 0 3.5-0.2 5-0.7 1.5-0.5 2.8-1.2 3.9-2.2 1.1-1 1.9-2.3 2.5-4zm-7.1-0.7c-0.9 1.1-2.3 1.7-4.2 1.7-1.9 0-3.3-0.5-4.2-1.7-0.9-1.1-1.4-2.9-1.4-5.4 0-2.3 0.5-4.1 1.4-5.3q1.4-1.8 4.2-1.8c3.7 0 5.6 2.4 5.6 7.1 0 4.7-0.5 4.3-1.4 5.4z"/>
		<path class="s0" d="m172.7 328.3h26c2.5 0 4.2-0.6 5.3-1.8 1.1-1.2 1.6-3.1 1.6-5.7v-32.2q0-0.6-0.6-0.6h-5.5q-0.6 0-0.6 0.6v30.6c0 1.2-0.2 2-0.7 2.5-0.5 0.5-1.2 0.7-2.2 0.7h-6.2v-25.4q0-0.6-0.6-0.6h-5.5q-0.6 0-0.6 0.6v25.4h-10.5q-0.6 0-0.6 0.6v4.7q0 0.6 0.6 0.6z"/>
		<path class="s0" d="m166.9 328.3q0.6 0 0.6-0.6v-4.7q0-0.6-0.6-0.6h-12.8c-0.3-0.1-0.7-0.3-1.3-0.7-0.5-0.3-1-0.8-1.5-1.4-0.5-0.6-0.9-1.3-1.3-2.2-0.4-0.8-0.6-1.9-0.6-3 0-2 0.5-3.6 1.6-4.8 1.1-1.2 2.6-1.8 4.6-1.8 2.4 0 4.5 0.9 6.3 2.8 0.3 0.3 0.6 0.3 0.8 0l3.2-3.3c0.3-0.2 0.4-0.5 0.2-0.8-1-1.3-2.4-2.5-4.3-3.3-1.8-0.9-4-1.3-6.6-1.3-2.4 0-4.4 0.4-6.1 1.1-1.6 0.7-3 1.7-4 2.9-1 1.1-1.7 2.5-2.2 3.9-0.4 1.4-0.7 2.8-0.7 4.2 0 1.7 0.3 3.2 0.8 4.4 0.5 1.2 1.2 2.3 2 3.2h-20.8c-2.9 0-4.5-1-4.9-3.1v-30.7q0-0.6-0.6-0.6h-5.5q-0.6 0-0.6 0.6v28.4c0 1 0 1.8 0 2.5 0 0.7-0.2 1.2-0.4 1.7q-0.3 0.6-0.9 0.9c-0.4 0.2-0.9 0.3-1.6 0.3h-6.2v-25.4q0-0.6-0.6-0.6h-5.5q-0.6 0-0.6 0.6v25.4h-10.5q-0.6 0-0.6 0.6v4.7q0 0.6 0.6 0.6h25.2c1.8 0 3.3-0.2 4.3-0.7 1.1-0.4 1.9-1.2 2.4-2.3q1 1.9 2.7 2.4c1.1 0.4 2.4 0.5 3.9 0.5h41.5z"/>
		<path class="s0" d="m325 297.8h5.7q0.6 0 0.6-0.6v-5.1q0-0.6-0.6-0.6h-5.7q-0.6 0-0.6 0.6v5.1q0 0.6 0.6 0.6z"/>
		<path class="s0" d="m504.2 297.8q0.6 0 0.6-0.6v-5.1q0-0.6-0.6-0.6h-5q-0.6 0-0.6 0.6v5.1q0 0.6 0.6 0.6z"/>
		<path class="s0" d="m34.1 350.6q0.6 0 0.6-0.6v-5.1q0-0.6-0.6-0.6h-5q-0.6 0-0.6 0.6v5.1q0 0.6 0.6 0.6z"/>
		<path class="s0" d="m496.5 291.5h-5q-0.6 0-0.6 0.6v5.1q0 0.6 0.6 0.6h5q0.6 0 0.6-0.6v-5.1q0-0.6-0.6-0.6z"/>
		<path class="s0" d="m219.3 288h-5.5q-0.6 0-0.6 0.6v39.1q0 0.6 0.6 0.6h5.5q0.6 0 0.6-0.6v-39.1q0-0.6-0.6-0.6z"/>
		<path class="s0" d="m21.5 350.6h5q0.6 0 0.6-0.6v-5.1q0-0.6-0.6-0.6h-5q-0.6 0-0.6 0.6v5.1q0 0.6 0.6 0.6z"/>
		<path fill-rule="evenodd" class="s0" d="m192.7 341.7z"/>
		<path class="s0" d="m179.8 342.1v2.1c0 0.3 0.1 0.4 0.4 0.4h12.5c0.2 0 0.4-0.1 0.4-0.4v-2.1c0-0.3-0.1-0.4-0.4-0.4h-6c-0.4-0.3-0.9-0.8-1.3-1.3-0.4-0.6-0.6-1.3-0.6-2 0-0.7 0.3-1.5 0.8-2.1q0.8-0.9 2.1-0.9c1.1 0 2 0.5 2.8 1.4l0.2 0.1c0 0 0.2 0 0.4-0.2l1.5-1.4q0.3-0.3 0-0.6c-0.5-0.7-1.2-1.2-2.1-1.6q-1.3-0.6-3-0.6c-1.1 0-2.1 0.2-2.9 0.5-0.8 0.4-1.4 0.8-2 1.4-0.5 0.5-0.9 1.2-1.1 1.9-0.2 0.7-0.3 1.3-0.3 2 0 0.7 0 1.3 0.3 1.9 0.2 0.6 0.4 1.1 0.7 1.5h-2.2c-0.2 0-0.4 0.1-0.4 0.4z"/>
		<path class="s0" d="m411.3 328.3h5.5q0.6 0 0.6-0.6v-39.1q0-0.6-0.6-0.6h-5.5q-0.6 0-0.6 0.6v39.1q0 0.6 0.6 0.6z"/>
		<path class="s0" d="m259.4 344.3h-5q-0.6 0-0.6 0.6v5.1q0 0.6 0.6 0.6h5q0.6 0 0.6-0.6v-5.1q0-0.6-0.6-0.6z"/>
		<path class="s0" d="m403 320.8v-16.5q0-0.6-0.6-0.6h-5.5q-0.6 0-0.6 0.6v14.9c0 1.2-0.2 2-0.7 2.4-0.5 0.5-1.2 0.7-2.2 0.7h-21.1v-6.7c0-2.4-0.3-4.4-0.9-6.1-0.6-1.7-1.4-3-2.5-4-1.1-1-2.3-1.8-3.8-2.2-1.5-0.5-3.1-0.7-4.9-0.7-1.6 0-3.2 0.2-4.6 0.7-1.4 0.5-2.8 1.3-3.9 2.4q-1.7 1.6-2.7 4.2c-0.7 1.7-1 3.8-1 6.2 0 2.2 0.3 4.1 0.8 5.7 0.5 1.5 1.3 2.8 2.3 3.8q1.5 1.5 3.6 2.1c1.4 0.4 3.1 0.6 4.9 0.6h6c0 1.2-0.1 2.2-0.4 3-0.2 0.8-0.6 1.4-1 1.8-0.4 0.4-1 0.7-1.7 0.9q-1 0.3-2.4 0.3h-6.9q-0.6 0-0.6 0.6v4.7q0 0.6 0.6 0.6h8c3.6 0 6.3-0.8 8.1-2.5 1.9-1.7 2.8-4.4 2.8-8.1v-1.3h23.7c2.5 0 4.2-0.6 5.3-1.8 1.1-1.2 1.6-3.1 1.6-5.7zm-37.2 1.6h-5.3c-1.9 0-3.3-0.5-4.3-1.4q-1.5-1.4-1.5-5.1 0-3.3 1.5-5.4c1-1.3 2.4-2 4.2-2 1.9 0 3.3 0.6 4.1 1.8 0.9 1.2 1.3 3 1.3 5.3v6.7z"/>
		<path class="s0" d="m582.7 309.7c-0.6-1.7-1.5-3.1-2.5-4.1-1.1-1-2.4-1.8-3.9-2.2-1.5-0.5-3.1-0.7-4.9-0.7-1.8 0-3.3 0.2-4.8 0.7-1.4 0.4-2.7 1.2-3.8 2.2-1.1 1-1.9 2.3-2.6 3.9-0.6 1.6-0.9 3.5-1 5.8v0.9q0 0.4 0 0.9c0 1-0.1 1.9-0.4 2.6-0.2 0.7-0.5 1.2-0.9 1.7-0.4 0.4-0.7 0.7-1.2 0.9-0.4 0.2-0.9 0.3-1.3 0.3h-17.6c-1.5 0-2.6-0.3-3.5-0.9-0.9-0.6-1.3-1.4-1.3-2.5v-4.9c0-2.4-0.4-4.3-1.1-5.7-0.7-1.4-1.7-2.5-2.9-3.2-1.2-0.7-2.7-1.2-4.4-1.4-1.9-0.2-3.7-0.4-5.6-0.4l9.7-11.4c0.2-0.3 0-0.6-0.2-0.8l-3.8-3.2c-0.3-0.2-0.5 0-0.8 0.2l-12.8 15c-0.2 0.2-0.4 0.4-0.6 0.7-0.2 0.2-0.4 0.5-0.4 0.8v4.1q0 0.6 0.6 0.6h9.5c4 0 6 1.7 6 5.2v3.2c0 0.9 0 1.7-0.1 2.2-0.1 0.6-0.3 1.1-0.7 1.4-0.3 0.4-0.8 0.6-1.5 0.8-0.6 0.2-1.5 0.2-2.5 0.2h-14.7-1q-2.2 0-3.6-0.9c-0.9-0.6-1.3-1.5-1.3-2.7v-14.4q0-0.6-0.6-0.6h-5c-0.2 0-0.5 0-0.7 0.1-0.2 0-0.3 0.2-0.3 0.5v12.3q0 1.7 0 2.7 0 1.1-0.3 1.8c-0.2 0.5-0.5 0.8-0.8 1-0.4 0.2-0.9 0.3-1.6 0.3h-4.9c-1.5 0-2.6-0.3-3.5-0.9-0.9-0.6-1.3-1.5-1.4-2.6v-14.6q0-0.6-0.6-0.6h-5.4q-0.6 0-0.6 0.6v12.9c0 0.9 0 1.8 0 2.4 0 0.7-0.2 1.2-0.4 1.6q-0.3 0.6-0.9 0.9c-0.4 0.2-0.9 0.3-1.6 0.3h-24.5c-1 0-1.7-0.2-2.2-0.7-0.5-0.5-0.7-1.3-0.7-2.5v-11.2q0-0.6-0.6-0.6h-5.4q-0.6 0-0.6 0.6v12.7c0 2.6 0.5 4.5 1.6 5.7 1.1 1.2 2.8 1.8 5.3 1.8h28.9c1.9 0 3.3-0.2 4.4-0.7 1.1-0.5 1.9-1.2 2.5-2.4 0.7 1.3 1.6 2.1 2.7 2.5 1.1 0.4 2.5 0.6 4 0.6h5.5c1.9 0 3.4-0.2 4.5-0.7 1.1-0.4 1.9-1.2 2.5-2.4 0.7 1.3 1.6 2.1 2.7 2.5 1.1 0.4 2.5 0.6 4 0.6h17.4c1.8 0 3.4-0.2 4.6-0.7 1.2-0.5 2.2-1.4 2.8-2.7 0.7 1.4 1.6 2.3 2.8 2.8 1.2 0.4 2.7 0.7 4.3 0.7h16.3c0.6 0 1.1 0 1.8-0.1 0.6 0 1.2-0.2 1.8-0.4 0.6-0.2 1.2-0.5 1.7-0.9 0.6-0.4 1.1-0.9 1.4-1.6 1.1 1.2 2.4 2.1 4 2.7 1.6 0.6 3.4 0.8 5.3 0.8 1.9 0 3.5-0.2 5-0.7 1.5-0.5 2.8-1.2 3.9-2.2 1.1-1 1.9-2.3 2.5-4 0.6-1.6 0.9-3.6 0.9-5.9 0-2.3-0.3-4.5-0.9-6.2m-6.7 11c-0.9 1.1-2.3 1.7-4.2 1.7-1.9 0-3.3-0.5-4.2-1.7-0.9-1.1-1.4-2.9-1.4-5.4 0-2.3 0.5-4.1 1.4-5.3q1.3-1.8 4.2-1.8c3.7 0 5.6 2.4 5.6 7.1 0 2.5-0.5 4.3-1.4 5.4zm-112.8 12.2h-5.7q-0.6 0-0.6 0.6v5.1q0 0.6 0.6 0.6h5.7q0.6 0 0.6-0.6v-5.1q0-0.6-0.6-0.6zm-42.7-51.3h-6c-0.4-0.3-0.9-0.7-1.3-1.3-0.4-0.6-0.6-1.3-0.6-2 0-0.7 0.3-1.6 0.8-2.2q0.7-0.9 2.1-0.9c0.5 0 1.1 0.1 1.5 0.4 0.5 0.3 0.9 0.6 1.3 1 0.2 0.2 0.4 0.1 0.6 0l1.5-1.5c0.1-0.1 0.1-0.3 0-0.5-0.5-0.7-1.2-1.2-2.1-1.6q-1.3-0.6-3-0.6c-1.1 0-2.1 0.2-2.9 0.6-0.8 0.4-1.4 0.8-2 1.4-0.5 0.5-0.9 1.2-1.1 1.9-0.2 0.7-0.3 1.3-0.3 2 0 0.7 0 1.3 0.3 1.9 0.2 0.6 0.4 1.1 0.7 1.5h-2.2c-0.2 0-0.4 0.1-0.4 0.4v2.2c0 0.3 0.1 0.4 0.4 0.4h12.5c0.2 0 0.4-0.1 0.4-0.4v-2.2c0-0.3-0.1-0.4-0.4-0.4m-152.9 62.2h-5q-0.6 0-0.6 0.6v5.1q0 0.6 0.6 0.6h5q0.6 0 0.6-0.6v-5.1q0-0.6-0.6-0.6zm28.7-11.1h-5.7q-0.6 0-0.6 0.6v5.1q0 0.6 0.6 0.6h5.7q0.6 0 0.6-0.6v-5.1q0-0.6-0.6-0.6z"/>
		<path class="s0" d="m338.8 306.5c-1.2-1.2-2.7-2.2-4.5-2.8-1.8-0.7-4-1-6.6-1-2.4 0-4.7 0.3-7 1-2.2 0.7-4.3 1.4-6.2 2.3v-17.3q0-0.6-0.6-0.6h-5.5q-0.6 0-0.6 0.6v26.2c0 1.5 0 2.8 0 3.8 0 1-0.2 1.7-0.4 2.3q-0.3 0.9-0.9 1.2c-0.4 0.2-0.9 0.3-1.6 0.3h-3.8q-2.2 0-3.6-0.9c-0.9-0.6-1.3-1.5-1.3-2.7v-14.4q0-0.6-0.6-0.6h-5.5q-0.6 0-0.6 0.6v12.5c0 1 0 1.9 0 2.6 0 0.7-0.1 1.3-0.3 1.7q-0.3 0.6-0.9 0.9c-0.4 0.2-0.9 0.3-1.6 0.3h-9.1c-1.1 0-2.2-0.1-3.3-0.4-1.1-0.3-2.2-0.6-3.2-0.9-1.1-0.4-2.3-0.8-3.4-1.3-1.2-0.5-2.4-1-3.6-1.4-0.4-0.1-0.6 0-0.7 0.4l-1.6 4.7c-0.1 0.4 0 0.6 0.4 0.7 1.7 0.7 3.5 1.3 5.2 1.9 1.5 0.5 2.7 1.1 3.7 1.5q1.5 0.8 2.1 1.5c0.5 0.5 0.7 1.2 0.7 1.9 0 0.9-0.4 1.7-1.3 2.3-0.9 0.6-2.5 0.9-4.9 0.9h-11.5c-1.1 0-2.3-0.1-3.4-0.4-1.1-0.3-2.1-0.7-3-1.3q-1.4-0.9-2.1-2.4c-0.5-1-0.8-2.2-0.8-3.7q0-2.2 0.9-4.5c0.6-1.5 1.2-2.7 1.9-3.8 0.2-0.3 0.1-0.6-0.2-0.8l-4.7-2.4c-0.4-0.2-0.6-0.2-0.8 0.1-0.6 0.8-1 1.6-1.4 2.5-0.5 1-0.9 1.9-1.2 3-0.4 1.1-0.6 2.2-0.9 3.3q-0.3 1.7-0.3 3.3c0 4.1 1.3 7.3 3.8 9.6q3.7 3.6 11.4 3.6h13.5c2.1 0 3.9-0.2 5.4-0.7q2.2-0.7 3.6-1.8c0.9-0.8 1.6-1.6 2-2.6 0.4-1 0.7-2.1 0.6-3.1 0-0.8-0.1-1.5-0.4-2.2-0.3-0.7-0.5-1.2-0.7-1.5h9.1c1.9 0 3.4-0.2 4.4-0.7q1.6-0.6 2.4-2.4c0.7 1.3 1.6 2.1 2.7 2.5 1 0.3 2.2 0.5 3.5 0.6h5.3c1.1 0 2.1 0 2.9-0.2 0.8-0.1 1.5-0.4 2.1-0.8 0.5 0.7 1.4 1 2.6 1h15.6c2.2 0 4-0.1 5.5-0.4 1.5-0.3 2.8-0.8 3.7-1.7 0.9-0.9 1.7-2 2.1-3.5 0.4-1.5 0.7-3.5 0.7-5.9 0-2.4-0.3-4.1-0.8-5.8-0.5-1.8-1.4-3.2-2.5-4.5m-3.8 13.1q-0.3 1.2-1.2 1.8c-0.6 0.4-1.4 0.6-2.4 0.7-1 0-2.4 0-4.1 0h-12.9c0-0.4 0.1-0.8 0.2-1.2 0-0.4 0-0.9 0-1.4v-8c1.7-0.8 3.6-1.5 5.7-2.2 2.1-0.7 4.3-1 6.5-1 1.7 0 3 0.2 4.1 0.5 1.1 0.4 1.9 0.9 2.6 1.5 0.7 0.7 1.1 1.5 1.4 2.5 0.3 1 0.4 2.1 0.4 3.4 0 1.5 0 2.6-0.3 3.4zm66.6 13.4h-5.7q-0.6 0-0.6 0.6v5.1q0 0.6 0.6 0.6h5.7q0.6 0 0.6-0.6v-5.1q0-0.6-0.6-0.6z"/>
	</g>
</svg>