<svg version="1.2" xmlns="http://www.w3.org/2000/svg" viewBox="0 0 1617 321" width="1617" height="321">
	<title>08</title>
	<style>
		.s0 { fill: #3c3d3f } 
	</style>
	<g id="Page-1">
		<path id="Shape" class="s0" d="m234.9 288.4l-4.8 31.8h-229.6c9.5-22 8.9-34.4 8.9-50.3v-218.6c0-15.4 0.6-28.9-8.9-50.3h68.8 155.2l0.4 32.4c-4.2-1.7-7.6-3.2-10.7-4.6-8.3-3.1-18.8-6-29.7-5.9-17.4 0-90.4 0-122.8 0v125h144.1l-7.1 24.6h-137v125.1c26.5 0 111.2 0 129.9 0 21.9 0.4 43.7-12 43.7-12l-0.6 2.7c0 0.1 0.1 0.1 0.2 0.1zm345.6 31.8c3.1-15.7 3.1-37.9 0.6-56l-20.4-150.4-111.4 206.3h-21.2l-113.2-215.6-22 163c-2.4 18.8-3.1 42.6-1.1 52.7h-39.8c7.7-16.3 9.6-23.4 13.2-50.2l36-269h18.3l132.1 251 132-251h13.8l37.2 268.4c3.7 26.7 6.5 34.4 13.9 50.8zm335.3 0l-53-116.9h-106.6l-52.3 116.9h-4.5-36.9-0.2c13.2-16.4 17.7-24 27-44.4l123.6-274.8h13.9l121.6 267.1c13 26.1 19.1 34.2 37.7 52.1zm333.5 0l-53-116.9h-106.6l-52.3 116.9h-4.4-37-0.2c13.2-16.4 17.7-24 27-44.4l123.6-274.8h13.9l121.7 267.1c13 26.1 19.1 34.2 37.7 52.1zm302.2 0.2c-31.9-29.1-73.2-67.7-124.9-128.9-14.8-17.3-25.2-19.5-31.9-19.9v98.3c0 15.8 0 28.3 9 50.3h-70.2c9.5-22 8.9-34.4 8.9-50.3v-218.8c0-15.4 0.6-28.9-8.9-50.3h68.8c47 0 158.1-4.2 158.1 87.6 0 48.5-38.5 74.6-83.7 81.2l-13.4 1.3c0 0 146.6 143.3 152.9 149.5zm-83.1-169.1l-0.1 0.1c29.6-11.2 39.6-39.3 38.6-63.1-1.1-22.9-11.4-72.7-112.1-68.7v136.1c0 0 56.4 3.1 72.2-3.8 0.9-0.4 1.4-0.6 1.4-0.6zm-368.5 29.7h86.1l-43.4-95.3zm-333.4 0h86.1l-43.4-95.3z"/>
	</g>
</svg>