<svg version="1.2" xmlns="http://www.w3.org/2000/svg" viewBox="0 0 140 50" width="140" height="50">
	<title>09</title>
	<defs>
		<clipPath clipPathUnits="userSpaceOnUse" id="cp1">
			<path d="m0 1.69h140v46.66l-140 0.01z"/>
		</clipPath>
		<clipPath clipPathUnits="userSpaceOnUse" id="cp2">
			<path d="m0 1.69h140v46.66l-140 0.01z"/>
		</clipPath>
		<clipPath clipPathUnits="userSpaceOnUse" id="cp3">
			<path d="m0 1.69h140v46.66l-140 0.01z"/>
		</clipPath>
		<clipPath clipPathUnits="userSpaceOnUse" id="cp4">
			<path d="m0 1.69h140v46.66l-140 0.01z"/>
		</clipPath>
		<clipPath clipPathUnits="userSpaceOnUse" id="cp5">
			<path d="m0 1.69h140v46.66l-140 0.01z"/>
		</clipPath>
		<clipPath clipPathUnits="userSpaceOnUse" id="cp6">
			<path d="m0 1.69h140v46.66l-140 0.01z"/>
		</clipPath>
		<clipPath clipPathUnits="userSpaceOnUse" id="cp7">
			<path d="m0 1.69h140v46.66l-140 0.01z"/>
		</clipPath>
		<clipPath clipPathUnits="userSpaceOnUse" id="cp8">
			<path d="m0 1.69h140v46.66l-140 0.01z"/>
		</clipPath>
		<clipPath clipPathUnits="userSpaceOnUse" id="cp9">
			<path d="m0 1.69h140v46.66l-140 0.01z"/>
		</clipPath>
		<clipPath clipPathUnits="userSpaceOnUse" id="cp10">
			<path d="m0 1.69h140v46.66l-140 0.01z"/>
		</clipPath>
		<clipPath clipPathUnits="userSpaceOnUse" id="cp11">
			<path d="m0 1.69h140v46.66l-140 0.01z"/>
		</clipPath>
	</defs>
	<style>
		.s0 { fill: #407663 } 
	</style>
	<g>
		<g id="Clip-Path" clip-path="url(#cp1)">
			<path class="s0" d="m65.7 24.3c0 2.9-2.4 5.3-5.3 5.3h-7.1c-2.9 0-5.3-2.4-5.3-5.3v-16.9h-3.4v16.9c0 4.9 3.9 8.8 8.7 8.8h7.1c4.8 0 8.7-3.9 8.7-8.8v-16.9h-3.4z"/>
		</g>
		<g id="Clip-Path" clip-path="url(#cp2)">
			<path class="s0" d="m90.8 7.4h-18.6l2.5 3.4h16.1c1.4 0 2.6 1.2 2.6 2.6v3.1c0 1.4-1.2 2.5-2.6 2.5h-10.3l10.7 14.1h4.2l-8-10.6h3.4c3.3 0 6-2.8 6-6.1v-3c0-3.3-2.7-6-6-6z"/>
		</g>
		<g id="Clip-Path" clip-path="url(#cp3)">
			<path class="s0" d="m24 7.4c-1.4 0-2.6 0.7-3.3 1.9l-14.3 23.8h4l5.5-9.2h8.5 0.6 2.2l-2.1-3.4h-0.1-7l5.7-9.5q0 0 0 0 0.1-0.1 0.3-0.1 0.2 0 0.3 0.1l13.1 22.1h4.1l-14.3-23.8c-0.7-1.2-1.9-1.9-3.2-1.9z"/>
		</g>
		<g id="Clip-Path" clip-path="url(#cp4)">
			<path class="s0" d="m119.4 9.3c-0.7-1.2-1.9-1.9-3.3-1.9-1.3 0-2.6 0.7-3.3 1.9l-14.3 23.8h4.1l5.5-9.2h8.5 0.6 2.1l-2.1-3.4h-7l5.6-9.5q0 0 0 0 0.1-0.1 0.3-0.1 0.2 0 0.3 0.1l13.2 22.1h4z"/>
		</g>
		<g id="Clip-Path" clip-path="url(#cp5)">
			<path class="s0" d="m42.7 41.5v-0.2q0-0.1 0.1-0.1h0.3q0.2 0 0.2 0.1v0.2q0 0.7 0.7 0.7h0.7q0.8 0 0.8-0.7v-0.3q0-0.6-1-0.7-0.4-0.1-0.8-0.2-0.5-0.1-0.8-0.4-0.2-0.2-0.2-0.7v-0.4q0-0.5 0.3-0.9 0.3-0.3 0.9-0.3h0.9q0.6 0 0.9 0.3 0.3 0.4 0.3 0.9v0.2q0 0.1-0.1 0.1h-0.3q-0.2 0-0.2-0.1v-0.1q0-0.8-0.7-0.8h-0.7q-0.7 0-0.7 0.8v0.3q0 0.4 0.5 0.5 0.3 0.1 0.6 0.2 0.3 0 0.6 0.1 0.3 0.1 0.5 0.2 0.3 0.1 0.4 0.4 0.2 0.2 0.2 0.6v0.3q0 0.6-0.4 0.9-0.3 0.3-0.9 0.3h-0.9q-0.6 0-0.9-0.3-0.3-0.3-0.3-0.9z"/>
		</g>
		<g id="Clip-Path" clip-path="url(#cp6)">
			<path class="s0" d="m52 42.7h-0.4q-0.1 0-0.1-0.1v-4.9q0-0.1 0.1-0.1h0.4q0.1 0 0.1 0.1v2.8q0.1-0.2 0.2-0.4l1.9-2.4q0-0.1 0.2-0.1h0.4q0.2 0 0.1 0.2l-1.7 2.1 1.9 2.7q0.1 0.1-0.1 0.1h-0.3q-0.2 0-0.3-0.1l-1.6-2.3-0.7 0.8v1.5q0 0.1-0.1 0.1z"/>
		</g>
		<g id="Clip-Path" clip-path="url(#cp7)">
			<path class="s0" d="m61.7 42.7h-0.4q-0.1 0-0.1-0.1v-1.8l-1.6-3q0-0.1 0-0.1 0.1-0.1 0.1-0.1h0.5q0.1 0 0.1 0.1l1.2 2.4h0.1l1.1-2.4q0.1-0.1 0.2-0.1h0.4q0.2 0 0.1 0.2l-1.6 3v1.8q0 0.1-0.1 0.1z"/>
		</g>
		<g id="Clip-Path" clip-path="url(#cp8)">
			<path class="s0" d="m68.9 42.7h-0.4q-0.1 0-0.1-0.1v-4.9q0-0.1 0.1-0.1h2q0.6 0 0.9 0.3 0.3 0.4 0.3 0.9v0.9q0 0.5-0.3 0.8-0.3 0.3-0.9 0.3h-1.4q-0.1 0-0.1 0.1v1.7q0 0.1-0.1 0.1zm0.2-2.4h1.3q0.7 0 0.7-0.7v-0.8q0-0.7-0.7-0.7h-1.3q-0.1 0-0.1 0.1v2.1q0 0 0.1 0z"/>
		</g>
		<g id="Clip-Path" clip-path="url(#cp9)">
			<path class="s0" d="m79.1 42.7h-1q-0.6 0-0.9-0.3-0.3-0.3-0.3-0.9v-2.7q0-0.6 0.3-0.9 0.3-0.3 0.9-0.3h1q0.6 0 0.9 0.3 0.3 0.4 0.3 0.9v2.7q0 0.6-0.3 0.9-0.3 0.3-0.9 0.3zm-0.9-0.5h0.8q0.7 0 0.7-0.7v-2.7q0-0.7-0.7-0.7h-0.8q-0.7 0-0.7 0.7v2.7q0 0.7 0.7 0.7z"/>
		</g>
		<g id="Clip-Path" clip-path="url(#cp10)">
			<path class="s0" d="m87.8 42.7h-1q-0.5 0-0.9-0.3-0.3-0.3-0.3-0.9v-2.7q0-0.6 0.3-0.9 0.4-0.3 0.9-0.3h1q0.6 0 0.9 0.3 0.4 0.4 0.4 0.9v2.7q0 0.6-0.4 0.9-0.3 0.3-0.9 0.3zm-0.9-0.5h0.9q0.7 0 0.7-0.7v-2.7q0-0.7-0.7-0.7h-0.9q-0.7 0-0.7 0.7v2.7q0 0.7 0.7 0.7z"/>
		</g>
		<g id="Clip-Path" clip-path="url(#cp11)">
			<path class="s0" d="m97.2 42.7h-2.6q-0.2 0-0.2-0.1v-4.9q0-0.1 0.2-0.1h0.3q0.1 0 0.1 0.1v4.4q0 0.1 0.1 0.1h2.1q0.1 0 0.1 0.1v0.3q0 0.1-0.1 0.1z"/>
		</g>
	</g>
</svg>