<svg version="1.2" xmlns="http://www.w3.org/2000/svg" viewBox="0 0 1080 880" width="1080" height="880">
	<title>10</title>
	<style>
		.s0 { fill: #602650 } 
		.s1 { fill: #25c7bc } 
	</style>
	<g>
		<g>
			<path class="s0" d="m425.2 297.7h36.8c3.1 0 5.6 2.5 5.6 5.5v36.8c0 3.1-2.5 5.5-5.6 5.5h-36.8c-3.1 0-5.6-2.5-5.6-5.5v-36.8c0.1-3 2.6-5.5 5.6-5.5z"/>
			<path class="s0" d="m478.4 248.9h33.3c2.7 0 4.8 2.2 4.8 4.8v33.3c0 2.7-2.2 4.8-4.8 4.8h-33.3c-2.7 0-4.8-2.2-4.8-4.8v-33.3c-0.1-2.6 2.1-4.8 4.8-4.8z"/>
			<path class="s0" d="m531.4 200h29.8c2.3 0 4.1 1.9 4.1 4.1v29.8c0 2.3-1.9 4.1-4.1 4.1h-29.8c-2.3 0-4.1-1.9-4.1-4.1v-29.8c0-2.2 1.8-4.1 4.1-4.1z"/>
			<path class="s0" d="m583.8 254.4h26.3c1.9 0 3.4 1.5 3.4 3.4v26.3c0 1.9-1.5 3.4-3.4 3.4h-26.3c-1.9 0-3.4-1.5-3.4-3.4v-26.3c0-1.8 1.5-3.4 3.4-3.4z"/>
			<path class="s0" d="m636.5 308.1h22.9c1.5 0 2.7 1.2 2.7 2.7v22.9c0 1.5-1.2 2.7-2.7 2.7h-22.9c-1.5 0-2.7-1.2-2.7-2.7v-22.9c0-1.5 1.2-2.7 2.7-2.7z"/>
			<path class="s0" d="m689.8 361.8h19.6c1.1 0 2.1 0.9 2.1 2.1v19.6c0 1.1-0.9 2.1-2.1 2.1h-19.6c-1.1 0-2.1-0.9-2.1-2.1v-19.6c0-1.2 1-2.1 2.1-2.1z"/>
			<path class="s0" d="m640.1 415.4h16.3c0.8 0 1.4 0.6 1.4 1.4v16.3c0 0.8-0.6 1.4-1.4 1.4h-16.3c-0.8 0-1.4-0.6-1.4-1.4v-16.3c0-0.8 0.7-1.4 1.4-1.4z"/>
			<path class="s0" d="m590.4 469h13.1c0.4 0 0.7 0.3 0.7 0.7v13.1c0 0.4-0.3 0.7-0.7 0.7h-13.1c-0.4 0-0.7-0.3-0.7-0.7v-13.1c0-0.3 0.3-0.7 0.7-0.7z"/>
			<path class="s0" d="m540.7 522.6h9.8c0.1 0 0.1 0 0.1 0.1v9.8c0 0.1 0 0.1-0.1 0.1h-9.8c-0.1 0-0.1 0-0.1-0.1v-9.8c0-0.1 0.1-0.1 0.1-0.1z"/>
			<path class="s1" d="m596.9 344.5c-3.1 0-6.1 0.5-8.9 1.4-8.6 1.5-16.8-7.2-14.4-15.7 0.7-2.5 1.1-5.1 1.1-7.8 0-16-13.1-29.1-29.1-29.1-16 0-29.1 13.1-29.1 29.1 0 7.7 4.4 13.1-2.4 19.9-6.8 6.8-12.2 2.4-19.9 2.4-16 0-29.1 13.1-29.1 29.1 0 7.6 4.4 13.1-2.5 20-6.9 6.9-12.4 2.5-20 2.5-2.7 0-5.3 0.4-7.8 1.1-10.5 1.7-14.3-3.4-15.7-10.2v-34.6c0-3.5-2.8-6.3-6.3-6.3h-40.4c-3.5 0-6.3 2.8-6.3 6.3v40.4c0 3.5 2.8 6.3 6.3 6.3h27.2c9.3 0.8 18.5 4.3 15.1 18.2-0.7 2.6-1.1 5.2-1.1 7.9 0 12.5 8 23.2 19.1 27.3 3.1 1.1 6.4 1.8 9.9 1.8 16 0 29.1-13.1 29.1-29.1 0-7.6-4.7-13.7 2-20.5 6.7-6.7 12.9-2 20.5-2 16 0 29.1-13.1 29.1-29.1 0-7.9-4.9-13.6 1.9-20.4 6.8-6.8 12.6-1.9 20.4-1.9 2.7 0 5.3-0.4 7.9-1.1 8.6-3 17.7 4.8 16 13.7-1.1 3-1.6 6.2-1.6 9.6 0 7.7 4.4 13.1-2.4 19.9-6.8 6.8-12.2 2.4-19.9 2.4-16 0-29.1 13.1-29.1 29.1 0 7.6 4.4 13.1-2.4 20-6.8 6.8-12.1 2.3-19.8 2.3-8 0-15.2 3.2-20.5 8.5-5.3 5.3-8.6 12.6-8.6 20.6 0 16 13.1 29.1 29.1 29.1 16 0 29.1-13.1 29.1-29.1 0-7.9-5-13.5 1.8-20.3 6.7-6.7 12.9-2 20.5-2 16 0 29.1-13.1 29.1-29.1 0-7.9-4.9-13.6 1.9-20.4 6.8-6.8 12.6-1.9 20.4-1.9 16 0 29.1-13.1 29.1-29.1-0.2-16.1-13.3-29.2-29.3-29.2z"/>
		</g>
		<g>
			<path class="s0" d="m855.2 735.9c-4.4 22.5-19.3 33.7-44.4 33.7h-32.4-177.1-180c-22.8 0-35.4-10.1-44.2-24.4-1.8 2.5-3.9 4.9-6.1 7.1-10.8 10.8-25.6 17.5-42 17.5-16.4 0-31.2-6.7-42-17.5-10.8-10.8-17.5-25.6-17.5-42v-35.9h-7.1c-20.6 0-33.7 18.1-33.7 48v39.6 4.3c0 1.8-1.5 3.3-3.3 3.3h-24.2c-1.8 0-3.3-1.5-3.3-3.3v-4.3-46.1c0-44.2 23.6-73 64.5-73 20.2 0 40.5 0 60.7 0 45.7 0.4 58 31.7 69.6 61.4 6.8 17.4 13.3 34 28.5 34q66 0 132 0c-3.6-7-6.6-14.8-9.7-22.6-7.9-20.1-16.2-41.3-40.6-41.4q-45.2 0-90.3 0c-5.3 0-7.9-6.4-4.2-10.1l76.4-76.4c0.3-0.3 0.7-0.4 1.1-0.4h40.1c1.4 0 2 1.6 1.1 2.6l-52.9 53h28.9c45.7 0.3 58 31.6 69.7 61.3 6.8 17.4 13.3 34 28.5 34h131.8c-3.6-7-6.6-14.8-9.7-22.6-7.9-20.1-16.2-41.3-40.6-41.4q-37.5 0-75 0c-1.8 0-3.3-1.5-3.3-3.3v-24.8c0-1.8 1.5-3.3 3.3-3.3 25 0 50.1 0.1 75.1 0.1 45.7 0.3 58 31.6 69.7 61.3 7 17.9 13.7 34.9 29.8 34 6.9-0.1 13.8-0.1 20.7-0.2 10.9 1.2 17.4-2.5 20.4-8.8 3.8-8 2.2-79.2 2.2-83.1 0-1.8 1.5-3.3 3.3-3.3h24.4c1.8 0 3.3 1.5 3.3 3.3v63.5c-0.1 8.8 0.3 17.4-1.5 26.2zm-18.2-135.1c2.9 12.7-8.3 23.9-21 21-6.4-1.4-11.6-6.6-13-13-2.9-12.7 8.3-23.9 21-21 6.4 1.4 11.5 6.6 13 13zm42.4 0c2.9 12.7-8.3 23.9-21 21-6.4-1.4-11.6-6.6-13-13-2.9-12.7 8.3-23.9 21-21 6.4 1.4 11.5 6.6 13 13zm-556.5 73.5h-22v35.9c0 7.7 3.2 14.7 8.2 19.8 5.1 5.1 12.1 8.2 19.8 8.2 7.7 0 14.7-3.2 19.8-8.2 5.1-5.1 8.2-12.1 8.2-19.8 0-19.5-13.6-35.7-34-35.9z"/>
			<path class="s1" d="m803.1 825.3c0-0.5 0.3-0.8 0.9-0.8h5.9c0.7 0 1.2 0.3 1.5 0.8l18.5 37.4h0.3l18.1-37.4c0.2-0.5 0.7-0.8 1.5-0.8h5.9c0.6 0 0.9 0.3 0.9 0.8v53.9c0 0.5-0.3 0.8-0.9 0.8h-5.8c-0.6 0-0.9-0.3-0.9-0.8v-38.6h-0.3l-15.3 30.5c-0.3 0.7-0.8 1-1.6 1h-3.8c-0.8 0-1.4-0.3-1.7-1l-15.3-30.5h-0.3v38.6c0 0.5-0.3 0.8-0.9 0.8h-5.8c-0.6 0-0.9-0.3-0.9-0.8z"/>
			<path class="s1" d="m748.6 846.4q-0.2-2.4-0.3-4.2c-0.1-1.2-0.3-2.2-0.5-3.1-0.2-0.9-0.5-1.7-0.8-2.5-1.6-4.3-4.2-7.5-7.8-9.7-3.6-2.2-8-3.3-13.3-3.3q-7.8 0-13.2 3.3c-3.6 2.2-6.2 5.4-7.8 9.7-0.3 0.8-0.6 1.7-0.8 2.5-0.2 0.9-0.4 1.9-0.5 3.1q-0.1 1.8-0.3 4.2c-0.1 1.6-0.1 3.6-0.1 5.9 0 2.3 0 4.2 0.1 5.9q0.2 2.4 0.3 4.2c0.1 1.2 0.3 2.2 0.5 3.1 0.2 0.9 0.5 1.7 0.8 2.5 1.6 4.3 4.2 7.5 7.8 9.7q5.4 3.3 13.2 3.3c5.3 0 9.7-1.1 13.3-3.3 3.6-2.2 6.2-5.4 7.8-9.7 0.3-0.8 0.6-1.7 0.8-2.5 0.2-0.9 0.4-1.9 0.5-3.1q0.2-1.8 0.3-4.2c0.1-1.6 0.1-3.6 0.1-5.9 0-2.3 0-4.3-0.1-5.9zm-8.1 11.1c-0.1 1.5-0.2 2.7-0.3 3.8-0.2 1.1-0.3 2-0.5 2.7-0.2 0.7-0.3 1.3-0.5 1.8-1 2.7-2.5 4.7-4.7 6.1q-3.3 2.1-8.4 2.1c-3.5 0-6.2-0.7-8.4-2.1-2.2-1.4-3.7-3.5-4.7-6.1-0.2-0.5-0.3-1.1-0.5-1.8-0.2-0.7-0.3-1.6-0.5-2.7-0.2-1.1-0.3-2.4-0.3-3.8-0.1-1.5-0.1-3.2-0.1-5.2 0-2 0-3.8 0.1-5.2 0.1-1.5 0.2-2.7 0.3-3.8 0.2-1.1 0.3-2 0.5-2.7 0.2-0.7 0.3-1.3 0.5-1.8 1-2.7 2.5-4.7 4.7-6.1 2.2-1.4 4.9-2.1 8.4-2.1 3.4 0 6.3 0.7 8.4 2.1 2.2 1.4 3.8 3.5 4.7 6.1 0.2 0.5 0.3 1.1 0.5 1.8 0.2 0.7 0.3 1.6 0.5 2.7 0.2 1.1 0.3 2.4 0.3 3.8 0.1 1.5 0.1 3.2 0.1 5.2 0 2-0.1 3.7-0.1 5.2z"/>
			<path class="s1" d="m603.3 825.3c0-0.5 0.3-0.8 0.9-0.8h6.3c0.6 0 0.9 0.3 0.9 0.8v28.9l26.2-29c0.4-0.5 0.8-0.7 1.5-0.7h7.4q0.4 0 0.6 0.3c0.1 0.2 0 0.4-0.2 0.7l-19.2 20.8 21.1 32.8c0.4 0.6 0.2 0.9-0.5 0.9h-7.3c-0.5 0-1-0.2-1.3-0.7l-17.3-27.3-11 11.9v15.3c0 0.5-0.3 0.8-0.9 0.8h-6.3c-0.6 0-0.9-0.3-0.9-0.8z"/>
			<path class="s1" d="m550.1 879.2l-21.1-53.9c-0.2-0.5-0.6-0.8-1.2-0.8h-5.9c-0.5 0-0.9 0.3-1.1 0.8l-21.4 53.9c-0.2 0.5 0 0.8 0.6 0.8h6.4c0.5 0 0.9-0.3 1.2-0.8l4.7-12.1h25l4.7 12.1c0.2 0.5 0.6 0.8 1.2 0.8h6.4c0.5 0 0.7-0.3 0.5-0.8zm-35.2-18.9l9.8-25.1h0.2l9.7 25.1z"/>
			<path class="s1" d="m401.2 825.3c0-0.5 0.3-0.8 0.9-0.8h6.3c0.6 0 0.9 0.3 0.9 0.8v22.8c0 0.3 0.2 0.5 0.5 0.5h26.7c0.4 0 0.5-0.2 0.5-0.5v-22.8c0-0.5 0.3-0.8 0.9-0.8h6.3c0.6 0 0.9 0.3 0.9 0.8v53.9c0 0.5-0.3 0.8-0.9 0.8h-6.3c-0.6 0-0.9-0.3-0.9-0.8v-23.3c0-0.3-0.2-0.5-0.5-0.5h-26.7c-0.4 0-0.5 0.2-0.5 0.5v23.3c0 0.5-0.3 0.8-0.9 0.8h-6.3c-0.6 0-0.9-0.3-0.9-0.8z"/>
			<path class="s1" d="m347.2 879.2l-21.2-53.9c-0.2-0.5-0.6-0.8-1.2-0.8h-5.9c-0.5 0-0.9 0.3-1.1 0.8l-21.4 53.9c-0.2 0.5 0 0.8 0.6 0.8h6.4c0.5 0 0.9-0.3 1.2-0.8l4.7-12.1h25l4.7 12.1c0.2 0.5 0.6 0.8 1.2 0.8h6.4c0.5 0 0.7-0.3 0.6-0.8zm-35.3-18.9l9.8-25.1h0.2l9.7 25.1z"/>
			<path class="s1" d="m217.2 880c-0.6 0-0.9-0.3-0.9-0.8v-47.4c0-0.3-0.2-0.5-0.5-0.5h-16.9c-0.6 0-0.9-0.3-0.9-0.8v-5.1c0-0.5 0.3-0.8 0.9-0.8h43c0.6 0 0.9 0.3 0.9 0.8v5.1c0 0.5-0.3 0.8-0.9 0.8h-16.9c-0.4 0-0.5 0.2-0.5 0.5v47.4c0 0.5-0.3 0.8-0.9 0.8z"/>
		</g>
	</g>
</svg>