<svg version="1.2" xmlns="http://www.w3.org/2000/svg" viewBox="0 0 183 228" width="183" height="228">
	<title>12</title>
	<style>
		.s0 { fill: #70777c } 
		.s1 { fill: #ff6600 } 
		.s2 { fill: #66ccff } 
	</style>
	<g id="Layer_2-2">
		<g>
			<g>
				<path class="s0" d="m10.3 210.7l-4 10.8-4.3-10.8c-0.4-1-2-1-2 0.1v12.2c0 0.8 1.2 0.8 1.2 0v-10.7l4.3 10.9c0.2 0.5 1.1 0.5 1.3 0l4.2-10.9v10.7c0 0.8 1.3 0.8 1.3 0v-12.2c0-1.1-1.6-1.1-2-0.1z"/>
				<path class="s0" d="m21.3 214.3v6.2c-0.9 1.1-1.8 2-3.4 2-1.3 0-2.6-1-2.6-4.1v-4.1c0-0.7-1.2-0.7-1.2 0v4.1c0 3.8 1.7 5.2 3.8 5.2 1.6 0 2.8-0.8 3.5-1.7l-0.1 0.8c0 0.6 0.2 0.9 0.7 0.9 0.3 0 0.6-0.3 0.6-0.9v-8.4c0-0.7-1.3-0.7-1.3 0z"/>
				<path class="s0" d="m25.2 210c-0.3 0-0.6 0.2-0.6 0.8v12.2c0 0.3 0.2 0.6 0.5 0.6h0.2c0.3 0 0.5-0.3 0.5-0.6v-12.3c0-0.5-0.2-0.7-0.6-0.7z"/>
				<path class="s0" d="m29.8 212.1v-0.6c0-0.8-1.1-0.8-1.1 0v0.6c0 0.8 1.1 0.8 1.1 0z"/>
				<path class="s0" d="m29.3 213.8c-0.4 0-0.6 0.2-0.6 0.7v8.5c0 0.4 0.2 0.6 0.5 0.6h0.1c0.3 0 0.5-0.2 0.5-0.6v-8.5q0-0.7-0.6-0.7z"/>
				<path class="s0" d="m41.6 213.8c-3.4 0-4.2 0.5-4.2 2.7v9.7c0 0.6 0.2 0.9 0.6 0.9 0.4 0 0.6-0.3 0.6-0.9v-3.5c0.8 0.8 1.6 0.9 3 0.9 2.4 0 4.2-1.3 4.2-5.1 0-3.7-2.1-4.7-4.2-4.7zm0 8.7c-1.4 0-2.2-0.3-3-1.2v-4.8c0-1.5 0.2-1.7 3-1.7 1.4 0 2.9 0.6 2.9 3.7 0 3.1-1.4 4-2.9 4z"/>
				<path class="s0" d="m35.8 222.5h-0.6c-1.2 0-1.8-0.9-1.8-2.1v-6h2.2c0.7 0 0.7-1.2 0-1.2h-2.2v-1.1c0-0.7-1.3-0.7-1.3 0v1.1h-1.2c-0.8 0-0.8 1.2 0 1.2h1.2v5.9c0 2.1 1.2 3.3 3 3.3l0.6-0.1c0.7 0 0.8-1 0.1-1q0 0 0 0z"/>
				<path class="s0" d="m47.6 210c-0.3 0-0.6 0.2-0.6 0.8v12.2c0 0.3 0.3 0.6 0.6 0.6h0.1c0.4 0 0.5-0.3 0.5-0.6v-12.3c0-0.5-0.2-0.7-0.6-0.7z"/>
				<path class="s0" d="m57.1 216.9c0-1.9-1.1-3-3-3-1.9 0-4.1-0.1-4.1 2.6v4.3c0 2.6 2.5 3 5.7 2.7 0.8-0.1 0.8-1.2-0.1-1.1-2.8 0.4-4.4 0-4.4-1.6v-1.2c2.8 0.8 5.9 0.2 5.9-2.7zm-5.8-0.8c0-1 1.1-1.2 2.6-1.2 1.2 0 2.1 0.6 2.1 2 0 1.9-2.2 2.3-4.7 1.7z"/>
				<path class="s0" d="m63.2 222.6q-0.5-0.3-0.5-0.8v-0.1c0-0.3 0.2-0.6 0.5-0.6 0.7 0 0.9 1.4 3.6 1.4 2 0 3.3-0.9 3.3-2.7 0-1.8-1.7-2.2-3.5-2.7-2.4-0.7-3.7-1.6-3.7-3.6 0-2.1 1.6-3.6 4.2-3.6 1.5 0 2.4 0.3 3.1 0.7 0.4 0.3 0.6 0.5 0.6 0.9 0 0.4-0.2 0.6-0.5 0.6-0.7 0-0.9-1.1-3.2-1.1-1.9 0-2.8 1-2.8 2.4 0 1.7 1.2 2.1 2.9 2.5 2.8 0.8 4.1 1.6 4.1 3.8 0 2.6-1.7 3.8-4.5 3.8-1.6 0-2.9-0.3-3.6-0.9z"/>
				<path class="s0" d="m79.3 214.9c0.1 0 0.2 0.2 0.2 0.3v0.4c0 0.2-0.2 0.3-0.5 0.2-0.9-0.6-1.8-1-2.7-1-3.7-0.1-3.8 7.7 0 7.7q1.4 0 2.7-1.1c0.3-0.2 0.5-0.1 0.5 0.2v0.4c0 0.1-0.1 0.3-0.2 0.3-1 0.9-1.9 1.3-3 1.3-5.4 0-5.4-9.8 0-9.8 1.1 0 2 0.3 3 1.1z"/>
				<path class="s0" d="m80.9 210.8c0-0.6 0.3-0.8 0.6-0.8 0.4 0 0.6 0.2 0.6 0.7v12.3c0 0.3-0.2 0.6-0.5 0.6h-0.2c-0.3 0-0.5-0.3-0.5-0.6z"/>
				<path class="s0" d="m91 216.9c0 2.9-3.1 3.5-5.9 2.7v1.2c0 1.6 1.5 2 4.4 1.6 0.8-0.1 0.9 1 0.1 1.1-3.3 0.3-5.7-0.1-5.7-2.7v-4.3c0-2.7 2.2-2.6 4-2.6 1.9 0 3.1 1.1 3.1 3zm-5.8-0.8v2.5c2.5 0.6 4.7 0.2 4.7-1.7 0-1.4-0.9-2-2.1-2-1.6 0-2.6 0.2-2.6 1.2z"/>
				<path class="s0" d="m92.1 223v-8.7c0-0.8 1.2-0.8 1.2 0v1.3c0.8-0.8 2.1-1.7 3.7-1.7 0.6 0 0.6 1-0.2 1-1.4 0-2.6 0.9-3.5 1.9v6.2c0 0.3-0.2 0.5-0.5 0.5h-0.2c-0.3 0-0.5-0.2-0.5-0.5z"/>
				<path class="s0" d="m101.4 223.6c-2.8 0-4.7-2-4.7-5 0-3 1.9-4.8 4.7-4.8 2.8 0 4.7 1.9 4.7 4.8 0 3-1.9 5-4.7 5zm0-1.1c2.2 0 3.5-1.4 3.5-3.9 0-2.4-1.3-3.8-3.5-3.8-2.2 0-3.5 1.4-3.5 3.8 0 2.4 1.4 3.9 3.5 3.9z"/>
				<path class="s0" d="m107.7 222.8c-0.2-0.2-0.4-0.3-0.4-0.5v-0.1c0-0.3 0.3-0.5 0.7-0.4 0.5 0.2 0.7 0.7 2.7 0.7 1.5 0 2.6-0.4 2.6-1.7 0-1.3-1-1.5-2.6-1.8-2-0.5-3.1-1.1-3.1-2.6 0-1.6 1.2-2.6 3.3-2.6 1.2 0 2.1 0.3 2.6 0.6 0.7 0.5 0.3 1.2-0.2 1-0.4-0.1-0.7-0.5-2.3-0.5-1.7 0-2.3 0.5-2.3 1.5 0 1.1 0.8 1.2 2.3 1.6 2.2 0.5 3.4 1.1 3.4 2.8 0 1.8-1.5 2.8-3.7 2.8-1.3 0-2.5-0.3-3.1-0.8z"/>
				<path class="s0" d="m115.3 211.5c0-0.8 1.1-0.8 1.1 0v0.6c0 0.8-1.1 0.8-1.1 0zm0 11.5v-8.4c0-0.6 0.2-0.8 0.6-0.8q0.6 0 0.6 0.8v8.4c0 0.4-0.3 0.6-0.6 0.6-0.3 0-0.6-0.2-0.6-0.6z"/>
				<path class="s0" d="m118.2 222.8c-0.2-0.2-0.4-0.3-0.4-0.5v-0.1c0-0.3 0.3-0.5 0.7-0.4 0.5 0.2 0.7 0.7 2.7 0.7 1.5 0 2.6-0.4 2.6-1.7 0-1.3-1-1.5-2.6-1.8-2-0.5-3.1-1.1-3.1-2.6 0-1.6 1.2-2.6 3.3-2.6 1.2 0 2.1 0.3 2.6 0.6 0.7 0.5 0.3 1.2-0.2 1-0.4-0.1-0.7-0.5-2.3-0.5-1.7 0-2.3 0.5-2.3 1.5 0 1.1 0.8 1.2 2.3 1.6 2.2 0.5 3.4 1.1 3.4 2.8 0 1.8-1.5 2.8-3.7 2.8-1.3 0-2.5-0.3-3.1-0.8z"/>
				<g>
					<path class="s0" d="m133.9 217.9c-1.5-0.3-2.3-0.4-2.3-1.6 0-0.9 0.7-1.5 2.3-1.5 1.6 0 1.9 0.5 2.3 0.6 0.5 0.2 1-0.6 0.3-1-0.6-0.3-1.4-0.6-2.6-0.6-2.2 0-3.3 1.1-3.3 2.5 0 1.6 1 2.2 3 2.6 1.6 0.4 2.6 0.6 2.6 1.9 0 1.2-1 1.7-2.6 1.7-2 0-2.2-0.6-2.7-0.7-0.3-0.1-0.6 0.1-0.6 0.4 0 0.2 0.1 0.4 0.3 0.6 0.6 0.4 1.8 0.7 3.1 0.7 2.2 0 3.7-0.9 3.7-2.8 0-1.6-1.2-2.2-3.5-2.8z"/>
					<path class="s0" d="m142.4 213.8c-2.7 0-4.7 1.9-4.7 4.8 0 3 2 5 4.7 5 2.8 0 4.7-2 4.7-5 0-3-1.8-4.8-4.7-4.8zm0 8.7c-2.1 0-3.5-1.4-3.5-3.9 0-2.4 1.4-3.8 3.5-3.8 2.1 0 3.5 1.4 3.5 3.8 0 2.4-1.3 3.9-3.5 3.9z"/>
					<path class="s0" d="m152.2 213.8c-5.4 0-5.4 9.8 0 9.8 1.2 0 2.1-0.4 3.1-1.3 0 0 0.1-0.2 0.1-0.3v-0.5c0-0.2-0.1-0.3-0.4-0.1q-1.4 1.1-2.8 1.1c-3.7 0-3.7-7.8 0-7.7 1 0 1.9 0.4 2.8 1 0.3 0.2 0.4 0 0.4-0.2v-0.4c0-0.1-0.1-0.3-0.1-0.3-1-0.8-1.9-1.1-3.1-1.1z"/>
					<path class="s0" d="m157.7 213.8c-0.4 0-0.6 0.2-0.6 0.7v8.5c0 0.4 0.2 0.6 0.6 0.6 0.3 0 0.5-0.2 0.5-0.6v-8.5q0-0.7-0.5-0.7z"/>
					<path class="s0" d="m158.2 212.1v-0.6c0-0.8-1.1-0.8-1.1 0v0.6c0 0.8 1.1 0.8 1.1 0z"/>
					<path class="s0" d="m163.8 213.9c-1.8 0-4.1-0.1-4.1 2.6v4.3c0 2.6 2.5 3 5.7 2.7 0.8-0.1 0.8-1.2-0.1-1.1-2.8 0.4-4.3 0-4.3-1.6v-1.2c2.8 0.8 5.8 0.2 5.8-2.7 0-1.9-1.1-3-3-3zm-2.8 4.7v-2.5c0-1 1.1-1.2 2.6-1.2 1.3 0 2.1 0.6 2.1 2 0 1.9-2.2 2.3-4.7 1.7z"/>
					<path class="s0" d="m172.4 222.5h-0.6c-1.2 0-1.8-0.9-1.8-2.1v-6h2.2c0.7 0 0.7-1.2 0-1.2h-2.2v-1.1c0-0.8-1.3-0.8-1.3 0v1.1h-1.2c-0.8 0-0.8 1.2 0 1.2h1.2v5.9c0 2.1 1.2 3.3 3 3.3l0.6-0.1c0.7 0 0.8-1 0.1-1q0 0 0 0z"/>
					<path class="s0" d="m181.3 214.2l-3.1 7.5-2.6-7.3c-0.4-0.8-1.5-0.5-1.1 0.5l3.1 8.4-1.2 2.6c-0.2 0.7 0.8 1.3 1.3 0.3l4.6-11.3c0.5-1.1-0.6-1.4-1-0.7z"/>
				</g>
			</g>
			<g id="logoMark">
				<path id="logoMark_CompoundPathItem_" class="s1" d="m65.4 66.3v22.7h76.2v-43.7q-8.3-5.6-18.3-5.6-8.3 0-14.9 5-9.4 7.5-9.4 20.1 0.1 7.5 4 13.4h-25.9v-12.3q0-21.3-19.4-21.6-9.8 0-17.6 2.2v50.4h-12.1q-15.6-0.1-15.6-14.9 0-9.6 6.9-17.5l-9.1-6.5q-9.4 9-9.6 24.4 0.1 11.6 8.8 19.4 6.8 6.1 18.5 6.1h21.4q2.5 0 2.5-2.8l0.2-50q2.2-1.1 5.6-1.1 7.8 0 7.8 12.3zm50-13.6q3-3.1 7.5-3.1 3.7 0 6.9 2.2v26.4h-2.9q-15.9-0.1-15.9-14 0-6.7 4.4-11.5z"/>
			</g>
			<g>
				<path class="s0" d="m7.4 197.1v3.9h-6.8c-0.8 0-0.8-1.1 0-1.1h5.6v-2.8c0-2.8-1.4-4.8-4.1-5.1-0.4 0-0.6-0.2-0.6-0.6 0-0.3 0.3-0.5 0.7-0.5 3.4 0.2 5.2 2.9 5.2 6.2z"/>
				<path class="s0" d="m19.4 199.9v1.1h-9.8c-0.7 0-0.7-1.1 0-1.1h5.7v-2.8c0-2.8-1.4-4.8-4.1-5.1-0.4 0-0.6-0.3-0.6-0.6 0-0.3 0.3-0.5 0.7-0.5 3.3 0.2 5.2 2.9 5.2 6.2v2.8z"/>
				<path class="s0" d="m32.7 200.4l-0.4 0.6h-0.8c-2.1 0-3.9-0.7-5.5-1.7-2.5 1.6-4.9 1.7-5.8 1.7h-1.4l-0.3-0.6 0.3-0.5h1.4c0.8 0 2.6 0 4.9-1.3-2.8-2.2-4.6-5.3-5.4-6.7q-0.2-0.3 0-0.6c0.1-0.2 0.3-0.4 0.5-0.4h7.4c2.7 0 4 2.2 2.6 4.3-1 1.4-2 2.5-3 3.3 1.3 0.9 2.8 1.4 4.3 1.4h0.8c0 0 0.4 0.6 0.4 0.5zm-6.5-2.6c1-0.7 2-1.8 2.9-3.2 0.9-1.3 0.2-2.6-1.5-2.6h-6.5c0.9 1.3 2.7 4 5.1 5.8z"/>
				<path class="s0" d="m40.5 200.4l-0.2 0.6h-1.1c-1.1 0-1.7-0.3-2-0.9-0.6 0.6-1.4 0.9-2.4 0.9h-3.1v-1.1h3.1c1.1 0 1.8-0.8 1.9-2v-5.7c0-0.7 1.1-0.7 1.1 0v5.6c0 1.5 0.3 2.1 1.4 2.1h1.1zm-4.9-11v-0.6c0-0.7 1.2-0.8 1.2 0v0.6c0 0.9-1.2 0.9-1.2 0zm1.8 0v-0.6c0-0.7 1.2-0.8 1.2 0v0.6c0 0.9-1.2 0.9-1.2 0z"/>
				<path class="s0" d="m54 200.4l-0.2 0.6h-1.1c-1.3 0-2-0.5-2.3-1.6-1.9 2.1-5.5 2.2-7.5 0.1-0.2 1-0.9 1.5-2.2 1.5h-1.1l-0.2-0.6 0.2-0.5h1.1c1 0 1.3-0.5 1.3-1.8-0.2-0.6-0.4-1.4-0.4-2.2 0-6.7 10-6.7 10 0 0 0.7-0.1 1.3-0.2 1.9 0 1.5 0.2 2.1 1.3 2.1h1.1c0 0 0.2 0.5 0.2 0.5zm-3.5-4.5c0-2.1-1.7-3.9-3.8-3.9-2.4 0-3.9 1.9-3.9 3.9 0 2.2 1.6 4 3.9 4 2.2 0 3.8-1.8 3.8-4z"/>
				<path class="s0" d="m57 187.4v10.4c0 2-1.2 3.2-3 3.2h-0.6v-1.1h0.6c1.3 0 1.9-0.8 1.9-2.1v-10.4c0-0.3 0.2-0.5 0.6-0.5 0.3 0 0.5 0.2 0.5 0.5z"/>
				<path class="s0" d="m59.5 187.4c0-0.7 1.2-0.7 1.2 0v13c0 0.8-1.2 0.8-1.2 0z"/>
				<path class="s0" d="m82.4 200.5l-0.2 0.5h-0.9c-1 0-1.6-0.3-1.9-0.9-0.5 0.6-1.3 0.9-2.3 0.9h-6.7c-1.9 0-2.9-1.2-3-3.1v-4.5c0-0.7 1.1-0.7 1.1 0v4.5c0.1 1.2 0.8 2 1.9 2h6.7c1 0 1.7-0.8 1.8-2v-5.7c0-0.7 1.1-0.7 1.1 0.1v5.5c0 2.1 0.4 2.1 2.2 2.1l0.2 0.6zm-7.8 2.5v0.6c0 0.8-1.1 0.8-1.1 0v-0.6c0-0.8 1.1-0.8 1.1 0z"/>
				<path class="s0" d="m87.4 200.4l-0.2 0.6h-0.9c-0.9 0-1.5-0.3-1.9-0.8-0.4 0.5-0.9 0.8-1.9 0.8h-0.9l-0.2-0.6 0.2-0.5h0.9c0.9 0 1.3-0.5 1.3-1.6v-10.8c0-0.4 0.3-0.6 0.7-0.6 0.3 0 0.5 0.3 0.5 0.6v10.8c0.1 1.1 0.4 1.6 1.3 1.6h0.9c0 0 0.2 0.5 0.2 0.5z"/>
				<path class="s0" d="m103.4 200.4l-0.2 0.6h-1.1c-1 0-1.6-0.3-2-1q-0.8 1-2.3 1h-11.5l-0.3-0.5 0.3-0.6h2.3v-7.7c0-0.7 1.1-0.7 1.1 0v1.1c1.2-1.6 3.2-2.4 5.2-2.4 3.8 0 5.9 2.7 5.9 6.3v0.6c0 1.5 0.3 2.1 1.3 2.1h1.1l0.2 0.5zm-3.8-3.2c0-5.9-7.3-6.9-9.9-2.2v4.9h8c1.3 0 1.9-0.9 1.9-2v-0.7z"/>
				<path class="s0" d="m111.4 200.4l-0.2 0.6h-1.1c-1.1 0-1.7-0.3-2-0.9-0.6 0.6-1.4 0.9-2.4 0.9h-3.1v-1.1h3.1c1.1 0 1.8-0.8 1.9-2v-5.7c0-0.7 1.1-0.7 1.1 0v5.6c0 1.5 0.3 2.1 1.4 2.1h1.1zm-4.9-11v-0.6c0-0.7 1.2-0.8 1.2 0v0.6c0 0.9-1.2 0.9-1.2 0zm1.8 0v-0.6c0-0.7 1.2-0.8 1.2 0v0.6c0 0.9-1.2 0.9-1.2 0z"/>
				<path class="s0" d="m114.4 187.4v10.4c-0.1 2-1.2 3.2-3 3.2h-0.7v-1.1h0.7c1.3 0 1.8-0.8 1.8-2.1v-10.4c0-0.3 0.2-0.5 0.6-0.5 0.3 0 0.6 0.2 0.6 0.5z"/>
				<path class="s0" d="m116.9 187.4c0-0.7 1.2-0.7 1.2 0v13c0 0.8-1.2 0.8-1.2 0z"/>
				<path class="s0" d="m124.8 196c0-2.7 2.1-5.1 5.1-5.1 2.8 0 5 2.2 5 5.1v3.9h1.4l0.3 0.6-0.3 0.5h-7.2c-2.4 0-4.4-2.4-4.4-4.9zm4.1 3.9h5v-4c0-2.2-1.7-4-4-4-2.3 0-3.9 2-3.9 4v0.1c0 2.1 1.6 3.9 2.9 3.9zm-0.6-11.8c0-0.7 1.2-0.7 1.2 0v0.7c0 0.8-1.2 0.8-1.2 0zm1.9 0c0-0.7 1.1-0.8 1.1 0v0.6c0 0.9-1.1 0.9-1.1 0z"/>
				<path class="s0" d="m144.6 200.4l-0.2 0.6h-1.1c-1 0-1.7-0.3-2-0.9-0.5 0.6-1.3 0.9-2.3 0.9h-3.1v-1.1h3.1c1.1 0 1.7-0.8 1.8-2v-5.7c0-0.7 1.1-0.7 1.1 0v5.6c0 1.5 0.3 2.1 1.4 2.1h1.1zm-5.7 2.5v0.7c0 0.8-1.2 0.8-1.2 0v-0.7c0-0.7 1.2-0.8 1.2 0zm1.8 0v0.7c0 0.8-1.2 0.8-1.2 0v-0.7c0-0.7 1.2-0.8 1.2 0z"/>
				<path class="s0" d="m157.8 200.4l-0.3 0.6h-0.8c-2.1 0-3.9-0.7-5.5-1.7-2.5 1.6-4.9 1.7-5.8 1.7h-1.4l-0.3-0.6 0.3-0.5h1.3c0.9 0 2.7 0 4.9-1.3-2.7-2.2-4.5-5.3-5.3-6.7q-0.2-0.3 0-0.6c0.1-0.2 0.3-0.4 0.5-0.4h7.4c2.7 0 4 2.2 2.5 4.3-0.9 1.4-1.9 2.5-2.9 3.3 1.3 0.9 2.7 1.4 4.3 1.4h0.8c0 0 0.4 0.6 0.3 0.5zm-6.4-2.6c1-0.7 2-1.8 2.9-3.2 0.9-1.3 0.2-2.6-1.5-2.6h-6.5c0.9 1.3 2.7 4 5.1 5.8z"/>
				<path class="s0" d="m171.3 200.4l-0.2 0.6h-1.1c-1.4 0-2-0.5-2.3-1.6-1.9 2.1-5.5 2.2-7.5 0.1-0.3 1-0.9 1.5-2.3 1.5h-1l-0.2-0.6 0.2-0.5h1c1.1 0 1.4-0.5 1.4-1.8-0.2-0.6-0.4-1.4-0.4-2.2 0-6.7 10-6.7 10 0 0 0.7-0.1 1.3-0.3 1.9 0 1.5 0.3 2.1 1.4 2.1h1.1c0 0 0.2 0.5 0.2 0.5zm-3.5-4.5c0-2.1-1.7-3.9-3.9-3.9-2.3 0-3.9 1.9-3.9 3.9 0 2.2 1.7 4 3.9 4 2.2 0 3.9-1.8 3.9-4z"/>
				<path class="s0" d="m182.5 197.1v3.9h-11.7l-0.1-0.6 0.1-0.5h10.5v-2.6c0-3.2-1.6-5.3-4.8-5.3-1.4 0-2.7 0.6-3.6 1.6-0.4 0.3-0.9 0.2-0.9-0.3 0-0.1 0.1-0.3 0.1-0.4 1.1-1.2 2.5-2 4.5-2 3.7 0 5.9 2.6 5.9 6.2zm-4.7 5.8v0.7c0 0.8-1.1 0.8-1.1 0v-0.7c0-0.7 1.1-0.7 1.1 0z"/>
			</g>
			<g>
				<path id="logoMark_PathItem_" class="s2" d="m82.2 8.3c-6.5 5.1-8.6 14.8-5.1 21.6 2.8 5.5 8.5 7.2 9.2 7.4 3.7 1.1 6.8 0.3 8.8-0.2 2.6-0.7 9-2.4 11.8-8.3 3.1-6.2 1.1-15.2-4.7-20.2-5.9-5-14.5-4.7-20-0.3z"/>
			</g>
			<path id="logoMark_CompoundPathItem_-2" class="s1" d="m148.7 124.9q-9.6 8.4-9.6 22.7 0.1 13.9 10.6 22.2 5.7 4.8 19 4.9h13.7v-49c-5.7-4.3-11.8-5.8-18.5-5.8-5.7 0-10.8 1.3-15.2 5zm21.7 37.7h-2.9q-16.2-0.1-16.2-15.8 0-7.4 4.5-12.8 3-3.5 7.6-3.5 3.8 0 7 1.7z"/>
			<g>
				<path id="logoMark_PathItem_-2" class="s1" d="m85.8 132q-7.4 0.1-10.6 3.9-3.3 3.7-3.3 12.1v26.7h-11.9v-54.8h10.5v7q4.4-6.6 15.3-7v12.1z"/>
			</g>
			<path id="logoMark_CompoundPathItem_-3" class="s1" d="m10.2 124.9q-9.6 8.4-9.6 22.7 0.1 13.9 10.6 22.2 5.7 4.8 19 4.9h13.7v-49c-5.7-4.3-11.9-5.8-18.6-5.8-5.7 0-10.7 1.3-15.1 5zm21.7 37.7h-2.9q-16.2-0.1-16.2-15.8 0-7.4 4.4-12.8 3.1-3.5 7.6-3.5 3.9 0 7.1 1.7z"/>
			<g>
				<path id="logoMark_PathItem_-3" class="s1" d="m162.1 90.1v-45h-11.8v43.8q0 10.4-11 10.4h-2.6q-1.2 0-2.5-0.2l-1.4-0.2q-0.9-0.1-1.7-0.3-1.1-0.2-2.4-0.4c-2.3-0.3-4.1-0.2-4.8-0.2q-2 0-4.9 0.6-2.9 0.7-5.7 2.6-2.8 2-4.7 5.7-1.9 3.7-1.9 9.8v3.2h-10.5v12.1h10.5v42.7h12v-42.7h13.1v-12.1h-13.2v-3.4q0-3.8 1.4-5.4 0.9-1.2 2.1-1.7c0.5-0.2 0.8-0.3 1.3-0.4 1.6-0.5 3-0.5 3.3-0.5 1.1 0 2 0.2 3.9 0.6q0.9 0.2 1.7 0.4 1 0.3 2 0.4l1.1 0.1q0.5 0.1 1.1 0.1h3.9q21.7 0 21.7-20z"/>
			</g>
			<g>
				<path id="logoMark_PathItem_-4" fill-rule="evenodd" class="s1" d="m170.6 21.6h11.8v67.4h-11.8z"/>
			</g>
			<g>
				<path id="logoMark_PathItem_-5" class="s1" d="m179.4 11.3q-4.9-0.3-5-3.3 0-3.1 3.3-3.1 1 0 2.4 0.5l0.9-4.3q-2.2-1.1-4.7-1.1-2.3 0-3.6 0.7-4 2.2-4 6.7 0 3.3 3.1 5.6l-2.7 1.2 0.8 4.6q5.2-2.1 12.3-3.2l0.2-4.5q-1.6 0.2-3 0.2z"/>
			</g>
		</g>
	</g>
</svg>