<svg version="1.2" xmlns="http://www.w3.org/2000/svg" viewBox="0 0 710 607" width="710" height="607">
	<title>13</title>
	<style>
		.s0 { fill: #a98f55 } 
		.s1 { fill: #006c77 } 
	</style>
	<g id="Layer_1-2">
		<g>
			<path class="s0" d="m341.9 130c-0.3-0.1-0.7-0.3-1.1-0.4-2.6-0.9-5.2-1.9-7.7-2.8-2.5-0.9-4.9-1.8-7.3-2.7-2.3-0.8-4.6-1.7-6.8-2.5-2.1-0.8-4.1-1.5-6.2-2.3-0.8-0.3-1.5-0.5-2.3-0.9-1.8-0.9-2.6-2.5-2.5-4.5 0.1-2.1 1.6-3.8 3.6-4.2 1.1-0.3 2.2 0 3.2 0.3 2.3 0.9 4.5 1.7 6.8 2.5 1.7 0.6 3.4 1.3 5.1 1.9 1.7 0.6 3.4 1.3 5.2 1.9 1.7 0.6 3.4 1.3 5.1 1.9 1.5 0.5 3 1.1 4.4 1.6q2.4 0.9 4.8 1.8c1.5 0.6 3 1.1 4.4 1.6 1.5 0.6 3.1 1.1 4.6 1.7h0.4c2.5-0.9 4.9-1.8 7.3-2.7 3.3-1.2 6.7-2.5 10-3.7 1.7-0.6 3.4-1.2 5.1-1.9 1.5-0.6 3-1.1 4.5-1.7 1.7-0.6 3.4-1.3 5.1-1.9 1.5-0.6 3.1-1.1 4.6-1.7 1.4-0.5 2.9-1.1 4.3-1.6 2.5-0.9 5.2 0.4 6 2.9 0.8 2.3-0.4 4.9-2.8 5.8-2 0.8-4 1.5-6 2.2-1.7 0.6-3.3 1.2-5 1.9-1.8 0.6-3.5 1.3-5.3 2-1.5 0.6-3 1.1-4.6 1.7-2.1 0.8-4.2 1.5-6.3 2.3-1.2 0.4-2.4 0.9-3.6 1.3 0 0-0.1 0-0.1 0.1 0.1 0 0.2 0.1 0.2 0.1 1.7 0.6 3.5 1.3 5.2 1.9 1.9 0.7 3.9 1.4 5.8 2.2 1.5 0.5 2.9 1.1 4.4 1.6 2 0.7 3.3 2.7 3.1 4.8-0.1 2.1-1.7 3.8-3.7 4.2-1.1 0.2-2.1 0-3.1-0.4q-2.4-0.9-4.8-1.8c-1.5-0.5-3-1.1-4.4-1.6-1.6-0.6-3.1-1.2-4.7-1.7-1.5-0.6-3.1-1.1-4.6-1.7-1.5-0.6-3.1-1.1-4.6-1.7q-1.2-0.4-2.4-0.9h-0.3c-1.8 0.7-3.6 1.3-5.4 2-1.5 0.6-3.1 1.1-4.6 1.7-1.5 0.5-2.9 1.1-4.4 1.6-1.7 0.6-3.5 1.3-5.2 1.9-2.1 0.8-4.2 1.5-6.3 2.3-2.8 1-5.8-0.7-6.3-3.6-0.4-2.2 0.9-4.4 3-5.2 2.7-1 5.3-2 7.9-2.9 2.5-0.9 5.1-1.9 7.6-2.8 0.6 0.2 0.7 0.2 0.7 0.1z"/>
			<g>
				<path class="s1" d="m294.4 369.7c3.6 0 6.5-3 6.5-6.5v-133.6c0-3.6-2.9-6.5-6.5-6.5-3.6 0-6.5 2.9-6.5 6.5v133.6c0 3.6 2.9 6.5 6.5 6.5z"/>
				<path class="s1" d="m325 382.4c3.6 0 6.5-2.9 6.5-6.5v-197.8c0-3.6-2.9-6.5-6.5-6.5-3.6 0-6.5 2.9-6.5 6.5v197.8c0 3.6 2.9 6.5 6.5 6.5z"/>
				<path class="s1" d="m219.3 351.9c2.7 6.4 6.3 12.3 10.5 17.8 4.7 6.2 10.2 11.9 16.1 17 7.4 6.4 15.5 12 24 16.8 13.4 7.6 27.7 13.3 42.7 17.2 4.8 1.2 9.5 2.3 14.3 3.1 3 0.5 6 1 9 1.3q3.1 0.3 6.3 0.6c5 0.4 9.9 0.5 14.8 0.5 1.2-0.1 2.4-0.1 3.6-0.1 2.6-0.1 5.2-0.2 7.8-0.4 1.5-0.1 3.1-0.2 4.6-0.4 1.5-0.2 3.1-0.4 4.6-0.6 2.1-0.3 4.1-0.7 6.2-1 3.9-0.7 7.7-1.5 11.5-2.4q17.7-4.2 34.2-12c11.3-5.3 21.9-11.8 31.6-19.6 6.3-5.1 12.2-10.8 17.4-17.1 5-6.1 9.3-12.7 12.5-19.9 2.2-5.1 3.9-10.4 4.9-15.9 0.5-2.5 0.8-5.1 0.8-7.7v-137.8q0-1.2 0-2.4c0-1.1-0.1-2.3-0.1-3.4 0-0.3 0-0.6-0.1-0.9-1.2-5.1-6.2-8.1-11-7.2-0.2 0-0.4 0.1-0.6 0.1h-0.2c-0.5 0.1-0.9 0.2-1.3 0.4q-0.1 0.1-0.2 0.1-2.1 0.9-3.6 2.7c-0.8 1-1.5 2.2-1.9 3.6-0.3 1-0.4 1.9-0.4 2.9v139.1c0 3.4-0.5 6.8-1.4 10.2-1.2 4.8-3.2 9.3-5.7 13.6-2.9 5.1-6.5 9.7-10.5 14-5.1 5.5-10.7 10.3-16.8 14.6-7.4 5.3-15.3 9.7-23.5 13.5-14.5 6.7-29.7 11-45.5 13.1q-4.3 0.6-8.7 0.9c-2.8 0.1-5.5 0.3-8.3 0.3-4.8 0.1-9.7-0.2-14.5-0.6-2.5-0.2-5.1-0.5-7.6-0.9-3.8-0.5-7.6-1.2-11.3-2-7.8-1.7-15.3-4-22.7-6.8-10.7-4-20.9-9.2-30.4-15.6-6.3-4.3-12.2-9-17.6-14.5-4.2-4.2-8-8.8-11.2-13.9-2.8-4.5-5.1-9.4-6.6-14.6-0.8-2.8-1.3-5.7-1.5-8.6-0.1-1.6-0.1-3.1-0.1-4.7v-137.3c-0.1-0.7-0.2-1.4-0.3-2-1.3-5.3-6.5-8.2-11.2-7.3-3.8 0.7-6.3 3-7.5 6.7-0.5 1.3-0.6 2.8-0.6 4.2v26.5c0 0.1 0.1 0.3 0 0.4v109.6c0 3 0.2 6.1 0.6 9.1 0.8 6.1 2.5 12 4.9 17.7z"/>
				<path class="s1" d="m263.8 343c3.6 0 6.5-3 6.5-6.6v-329.8c0-3.6-2.9-6.5-6.5-6.5-3.6 0-6.5 2.9-6.5 6.5v329.8c0 3.7 2.9 6.6 6.5 6.6z"/>
				<path class="s1" d="m447.3 343c3.6 0 6.5-2.9 6.5-6.5v-329.9c0-3.7-2.9-6.6-6.5-6.6-3.6 0-6.5 3-6.5 6.6v329.8c0 3.7 2.9 6.6 6.5 6.6z"/>
				<path class="s1" d="m416.8 369.7c3.6 0 6.5-3 6.5-6.5v-133.6c0-3.6-2.9-6.5-6.5-6.5-3.6 0-6.5 2.9-6.5 6.5v133.6c0 3.6 2.9 6.5 6.5 6.5z"/>
				<path class="s1" d="m386.2 171.6c-3.6 0-6.5 2.9-6.5 6.5v197.8c0 3.6 2.9 6.5 6.5 6.5 3.6 0 6.5-2.9 6.5-6.5v-197.8c0-3.6-2.9-6.5-6.5-6.5z"/>
				<path class="s1" d="m355.6 159.8c-3.6 0-6.5 2.9-6.5 6.5v213.4c0 3.6 2.9 6.5 6.5 6.5 3.6 0 6.5-2.9 6.5-6.5v-213.4c0-3.6-2.9-6.5-6.5-6.5z"/>
				<path class="s1" d="m326 83.4c1.9-0.5 3.8-1.1 5.7-1.6 2.2-0.5 4.5-1 6.7-1.5 1.3-0.3 2.6-0.5 3.9-0.7 0.5-0.1 1-0.1 1.5-0.2 0 0.1 0 0.2 0 0.2-0.6 0.7-1.1 1.4-1.7 2.1-2.6 3.3-5.1 6.7-7.5 10.1-1.1 1.6-2.2 3.2-3.3 4.9-0.8 1.2-1 2.5-0.7 3.9 0.6 2.5 3.2 4.1 5.7 3.5 1.4-0.3 2.3-1.2 3.1-2.3 1.4-2 2.7-4 4.1-6 2.1-3 4.4-5.9 6.7-8.8 0.2-0.4 0.5-0.7 0.8-1v25.9c0 0.8 0 1.5 0.3 2.3 0.8 2.1 3 3.5 5.3 3 1.8-0.3 3-1.4 3.6-3.1 0.3-0.7 0.3-1.5 0.3-2.2v-26l0.1 0.1c0.9 1.1 1.9 2.2 2.8 3.4 2.3 2.9 4.4 5.8 6.4 8.7 0.9 1.3 1.7 2.6 2.6 3.9 1.2 1.7 2.8 2.4 4.9 2 2.9-0.6 4.5-3.6 3.5-6.3-0.3-0.8-0.7-1.4-1.2-2.1-3.8-5.5-7.7-10.9-12-16.1q-0.1-0.1-0.1-0.2c0.8 0.1 1.5 0.2 2.2 0.3 1.9 0.4 3.7 0.7 5.6 1.1 3.3 0.7 6.5 1.5 9.7 2.5 1.4 0.4 2.7 0.4 3.9-0.3 1.7-1 2.7-3 2.4-4.9-0.4-1.8-1.4-3.1-3.1-3.7-1.2-0.4-2.5-0.8-3.7-1.1-2.7-0.8-5.4-1.4-8.1-2-1.5-0.3-3-0.5-4.5-0.8-1.3-0.2-2.5-0.4-3.7-0.6-0.1 0-0.1-0.1-0.2-0.1 0.8-0.5 1.5-1 2.3-1.5 1.8-1.1 3.6-2.2 5.5-3.2 1.8-1 2.7-2.6 2.6-4.7-0.1-1-0.4-1.8-1-2.5-0.8-1.1-2-1.7-3.3-1.8-1-0.1-2 0.1-2.9 0.6-3.6 1.9-7.1 4.1-10.4 6.5-0.1 0.1-0.3 0.2-0.4 0.3v-7.3c0-0.4 0-0.9-0.1-1.3-0.4-2.5-2.8-4.3-5.4-3.9-1.7 0.3-2.9 1.3-3.6 2.8-0.3 0.8-0.4 1.6-0.4 2.4v7.3c-0.1 0-0.1-0.1-0.2-0.1-1.1-0.7-2.1-1.4-3.1-2.1q-3.6-2.4-7.5-4.5c-1.1-0.6-2.2-0.8-3.4-0.6-2.7 0.5-4.4 3.2-3.7 5.8 0.3 1.4 1.2 2.4 2.5 3.1 2.5 1.3 4.9 2.8 7.3 4.4 0.1 0.1 0.3 0.2 0.4 0.3 0 0.1-0.1 0.1-0.1 0.1q-1 0.2-2.1 0.3c-1.5 0.3-3 0.5-4.4 0.8-2.2 0.5-4.4 0.9-6.6 1.5-2.2 0.6-4.5 1.2-6.7 1.9-2.5 0.7-3.8 3.1-3.3 5.5 0.6 2.7 3.3 4.4 6 3.6z"/>
				<path class="s1" d="m17.9 548.6h22.6c9.5 0 17.7-7.3 17.6-16 0.1-7.8-6.4-13.7-15.5-13.7h-14c0.5-9 5.1-11 9.5-11h13.5v-8.7h-14.2c-11.8 0-18.8 7.9-18.3 28.4h23.4c4.8 0 6.8 2.4 6.9 5.7-0.4 5.2-4.8 7-9.5 7h-21.5c-5.5 0-9.8-4.4-9.8-10.6v-7.2h-8.6v7.2c0 11.1 7.8 18.9 17.9 18.9z"/>
				<path class="s1" d="m147.7 534.3h115.8v-56h-8.5v47.8h-6.1-4.9v-9.4c-0.2-11.3-9.5-18.7-19.2-18.7-16.5 0-22.9 17.6-15.7 28.1h-116.1-4.6v-26.9h-8.6v30.4c0 6.2-4.4 10.6-9.8 10.6h-9.4v8.4h9.4c8.9 0 16-5.7 17.9-14.2h6.3v-0.1zm77.2-28.6c5.4 0 9.9 4 10.6 9.2v11.3h-16.2c-3.2-1.8-5.5-5.3-5.5-9.4 0-6.1 5-11.1 11.1-11.1z"/>
				<path class="s1" d="m217.6 492.8c2.7 0 4.8-2 4.8-4.5 0-2.5-2.1-4.5-4.8-4.5-2.7 0-4.8 2-4.8 4.5 0 2.5 2.1 4.4 4.8 4.5z"/>
				<path class="s1" d="m227.4 488.3c0 2.4 2 4.4 4.8 4.5 2.7 0 4.8-2 4.8-4.5 0-2.5-2.1-4.5-4.8-4.5-2.7 0-4.8 2-4.8 4.5z"/>
				<path fill-rule="evenodd" class="s1" d="m269.4 478.3h8.6v56.1h-8.6z"/>
				<path class="s1" d="m344.3 521.1c0-10.4-8.5-18.7-19.1-18.7-16.5 0-21.2 15.9-17.8 24.3-9 1.9-14.2 9.4-14.2 22h8.3c0-8.5 3.6-14.2 10.2-14.3 3.4 3.3 8.2 5.4 13.5 5.4 10.6 0 19.1-8.3 19.1-18.7zm-30.2-0.1c0-6.1 4.9-11.1 11-11.1 6.1 0 11 4.9 11 11.1 0 6.2-4.8 11.1-11 11.1-6.2 0-11-5-11-11.1z"/>
				<path class="s1" d="m361.8 472.2h-6.3c-0.3-0.3-0.4-0.7-0.4-1.1 0-0.9 0.6-1.7 1.6-1.7 0.8 0 1.5 0.5 1.6 1.4l3.6-1.5c-0.7-2.1-2.8-3.6-5.2-3.6-3.7 0-6.2 3.2-5.5 6.5h-1.7v3.9h12.3z"/>
				<path fill-rule="evenodd" class="s1" d="m351.4 478.3h8.6v56.1h-8.6z"/>
				<path class="s1" d="m399.2 489.4c0 2.4 2 4.4 4.8 4.5 2.7 0 4.8-2 4.8-4.5 0-2.5-2.1-4.5-4.8-4.5-2.7 0-4.8 2-4.8 4.5z"/>
				<path class="s1" d="m384.6 489.4c0 2.4 2.1 4.4 4.8 4.5 2.7 0 4.8-2 4.8-4.5 0-2.5-2.1-4.5-4.8-4.5-2.7 0-4.8 2-4.8 4.5z"/>
				<path class="s1" d="m594.3 539.7c10.7 0 19.1-8.3 19.1-18.7 0-10.4-8.5-18.7-19.1-18.7-10.6 0-19.2 8.3-19.2 18.7 0 1.8 0.5 3.6 1.3 5.1h-7.4v0.1h-28c-3.3-1.8-5.5-5.3-5.5-9.4 0-6.1 4.9-11.1 11-11.1 5.1 0 8.8 2.4 9.9 7.2l7.7-3.1c-2.8-7.6-9.7-11.7-17.5-11.7-16.5 0-22.9 17.6-15.7 28.1h-7.8v-0.1h-106.9v-28.9h-8.6v1.9h-9.7c-10.9 0-18.7 8.1-18.7 18.6v16.6h44.3 11.7 83.8v0.1h51.4v-0.1h10.4c3.4 3.3 8.2 5.4 13.5 5.4zm0-29.8c6.1 0 10.9 4.9 10.9 11.1 0 6.2-4.8 11.1-10.9 11.1-6.1 0-11.1-4.9-11-11.1 0-6.1 4.9-11.1 11-11.1zm-186.7 16.2h-20.2v-8.4c0-5.5 4.4-9.9 10.5-9.9h9.7z"/>
				<path class="s1" d="m657 534.3h52.7v-16.6c0-10.5-7.8-18.6-18.7-18.6h-28.6v8.7h28.6c6.1 0 10.5 4.4 10.5 9.9v8.4h-73.7v-47.8h-8.6v56.1h14.6v-0.1z"/>
				<path class="s1" d="m683.3 542c0-2.5-2.1-4.5-4.8-4.5-2.7 0-4.8 2-4.8 4.5 0 2.5 2.1 4.4 4.8 4.5 2.7 0 4.8-2 4.8-4.5z"/>
				<path class="s1" d="m20.9 589.3c0 4.5-3.2 7.7-7.2 7.7-4 0-7.2-3.2-7.2-7.7v-21.4h-6.4v21.4c0 8 5.9 13.8 13.6 13.8 7.7 0 13.6-5.8 13.6-13.8v-21.4h-6.4z"/>
				<path fill-rule="evenodd" class="s1" d="m55 591.8l-15.5-24.3h-2.3v34.8h6.3v-19.6l11.5 19 11.5-19v19.6h6.3v-34.8h-2.4l-15.4 24.3z"/>
				<path fill-rule="evenodd" class="s1" d="m100.9 591.8l-15.4-24.3h-2.4v34.8h6.3v-19.6l11.5 19h0.1l11.4-19v19.6h6.4v-34.8h-2.4l-15.5 24.3z"/>
				<path class="s1" d="m158.9 567.5l-15.8 34.8h6.9l2.1-4.9h16.5l2.1 4.9h6.9l-15.9-34.8zm-4.8 25.2l6.2-14 6.1 14z"/>
				<path fill-rule="evenodd" class="s1" d="m191.3 567.9h-6.3v34.4h21.7v-6h-15.4v-28.4z"/>
				<path fill-rule="evenodd" class="s1" d="m212.4 582.8h17.7v5.3h-17.7z"/>
				<path class="s1" d="m273.7 585.2c0-10.1-8.1-18-18.4-18-10.3 0-18.4 7.9-18.3 18 0 10 8 17.8 18.3 17.8q2.6 0 4.8-0.9c2.7 2.5 6.2 4.6 11.5 4.9l2.1-5.7c-2.9 0-5.5-0.6-7.7-1.5 4.7-3.2 7.7-8.5 7.7-14.6zm-18.4 11.7c-6.7 0-12-5.2-12-11.8 0-6.6 5.3-11.9 12-11.9 6.7 0 12 5.3 12 11.9 0 6.6-5.7 11.8-12 11.8z"/>
				<path class="s1" d="m302.8 589.3c0 4.5-3.2 7.7-7.2 7.7-4 0-7.2-3.2-7.2-7.7v-21.4h-6.4v21.4c0 8 5.9 13.8 13.6 13.8 7.7 0 13.6-5.8 13.6-13.8v-21.4h-6.4z"/>
				<path class="s1" d="m343.1 579c0-6.1-5.3-11.1-12.3-11.1h-11.7l0.1 34.5h6.3v-13.7h5.6l7.6 13.7h7.2l-9.4-14c3.9-1.5 6.6-5 6.6-9.4zm-12.4 5.6h-5.3v-11h5.3c3.1 0 5.9 2.4 5.9 5.6 0 3.2-2.7 5.4-5.9 5.4z"/>
				<path class="s1" d="m366.3 567.5l-15.8 34.8h6.9l2.1-4.9h16.5l2.1 4.9h6.9l-15.9-34.8zm-4.8 25.2l6.2-14 6.2 14z"/>
				<path class="s1" d="m429.7 589.3c0 4.5-3.2 7.7-7.2 7.7-4 0-7.2-3.2-7.2-7.7v-21.4h-6.4v21.4c0 8 5.9 13.8 13.6 13.8 7.7 0 13.6-5.8 13.6-13.8v-21.4h-6.4z"/>
				<path fill-rule="evenodd" class="s1" d="m468.6 589.8l-20.8-22.3h-1.8v34.8h6.3v-21.9l20.8 22.3h1.8v-34.9h-6.3v22z"/>
				<path fill-rule="evenodd" class="s1" d="m485.2 567.9h6.3v34.4h-6.3z"/>
				<path fill-rule="evenodd" class="s1" d="m515.9 591.3l-10.1-23.4h-6.9l15.7 34.8h2.7l15.7-34.8h-6.9l-10.2 23.4z"/>
				<path fill-rule="evenodd" class="s1" d="m540.4 602.3h21.4v-5.9h-15.1v-9h12.7v-5.4h-12.7v-8.2h15.1v-5.9h-21.4v34.4z"/>
				<path class="s1" d="m595.1 579c0-6.1-5.3-11.1-12.3-11.1h-11.7l0.1 34.5h6.3v-13.7h5.6l7.6 13.7h7.2l-9.4-14c3.9-1.5 6.6-5 6.6-9.4zm-12.4 5.6h-5.3v-11h5.3c3.1 0 5.9 2.4 5.9 5.6 0 3.2-2.7 5.4-5.9 5.4z"/>
				<path class="s1" d="m618.3 582.4c-4.1-1.6-7.4-2.5-7.4-5.1 0-2.2 2.3-4 5.2-4 2.5 0 5.4 1.4 6.5 3.7l3.8-3.5c-1.2-3.2-5-6-10.3-6-6.3 0-11.5 4.1-11.5 9.7 0 5.1 4.2 7.7 8.6 9.4 4 1.5 8.3 3.1 8.3 6.1 0 2.5-2.9 4.2-6.2 4.2-3.3 0-6.7-1.7-8.2-4.3l-3.9 3.7c1.6 3.6 6.5 6.4 12.2 6.5 6.6 0 12.5-4 12.5-10.2 0-5.3-4.4-8.1-9.6-10.2z"/>
				<path fill-rule="evenodd" class="s1" d="m636.2 567.9h6.3v34.4h-6.3z"/>
				<path fill-rule="evenodd" class="s1" d="m650.4 573.8h9.3v28.5h6.4v-28.5h9.3v-5.9h-25v5.9z"/>
				<path fill-rule="evenodd" class="s1" d="m702.7 567.9l-7.6 13-7.6-13h-7.1l11.6 19.7v14.7h6.3v-14.7l11.6-19.7h-7.2z"/>
			</g>
		</g>
	</g>
</svg>