<svg version="1.2" xmlns="http://www.w3.org/2000/svg" viewBox="0 0 242 244" width="242" height="244">
	<title>14</title>
	<style>
		.s0 { fill: #015c50 } 
		.s1 { fill: #026455 } 
		.s2 { fill: #006c5b } 
		.s3 { fill: #04745f } 
		.s4 { fill: #087d65 } 
		.s5 { fill: #098769 } 
		.s6 { fill: #088f6f } 
		.s7 { fill: #1e9873 } 
		.s8 { fill: #2da279 } 
		.s9 { fill: #39ad7d } 
		.s10 { fill: #43ba83 } 
	</style>
	<g id="Layer_1-2">
		<g>
			<path fill-rule="evenodd" class="s0" d="m0 217.9h4.8l6.8 10.3 0.1 0.5 0.2-0.6 6.8-10.2h2.6v19.5h-2.8v-15.3l-0.2 0.7-5.8 8.4h-1.6l-5.7-8.4-0.2-0.6v15.2h-2.8v-17.5l-2.2-0.6v-1.4"/>
			<path class="s0" d="m28.9 223.8v13.6h-2.6v-11.9l-1.7-0.5v-1.2zm0.4-4.2l-2.2 1.3-1.4-2.3 2.3-1.3 1.3 2.3z"/>
			<path class="s0" d="m46 228.2v9.3l-2.6-0.1v-8.5q0-3-2.6-3.1-2-0.1-4.7 2.3v9.3h-2.6v-11.9l-1.7-0.5v-1.1h4l0.2 2.3q2.9-2.7 5.7-2.7c2.6 0 4.3 1.7 4.3 4.7z"/>
			<path class="s0" d="m53.1 223.8v13.6h-2.6v-11.9l-1.6-0.5v-1.2zm0.4-4.2l-2.3 1.3-1.3-2.3 2.3-1.3c0 0 1.3 2.3 1.3 2.3z"/>
			<path class="s0" d="m62.6 237.7c-2.1 0.3-4.5-0.1-6.5-0.9l0.5-2c3.2 1.2 7.2 1.6 7.3-1 0-0.5-0.3-1-1-1.4-0.5-0.2-0.8-0.4-1.1-0.5q-0.4-0.2-1.4-0.6c-2.8-1-4.2-2-4.1-4.1 0-4.2 6-4.4 9.5-2.8l-0.5 1.9c-2.7-1.1-6.6-1.1-6.5 0.9 0 0.7 0.4 1.1 1.1 1.5 0.5 0.3 0.8 0.3 1.5 0.6q0.6 0.2 0.9 0.3c2.7 1 4.1 2.1 4.1 4.2-0.1 2.2-1.7 3.6-3.8 3.9"/>
			<path class="s0" d="m76.6 237.3q-3.3 1.1-5-0.1-1.7-1.2-1.7-3.6v-7.7h-2.3v-1.3l2.3-0.9v-3.1h2.6v3.3h2.9v2h-2.9v7.3c0 2.1 0.9 3 3.6 2.1l0.5 2"/>
			<path class="s0" d="m82 226.1c2-2 3.3-3 5.4-2.5l-0.2 2.3c-1.9-0.4-3.2 0.6-5.1 2.6v8.9h-2.6v-11.9l-1.7-0.4v-1.2h4z"/>
			<path fill-rule="evenodd" class="s0" d="m99.8 223.8h2.7l-7.7 19.6h-2.7l2.9-7h-1.1l-5.3-12.6h2.7l4.4 10.6 4.1-10.6"/>
			<path class="s0" d="m117.7 237.8c-2.1 0-3.7-0.7-5-2q-1.9-2-1.9-5.2 0-3.1 1.9-5.1c1.3-1.4 2.9-2 5-2q3 0 4.9 2 2 2 2 5.1 0 3.1-2 5.2-1.9 2-4.9 2zm0-2.2q1.8 0 3-1.3 1.2-1.4 1.2-3.7 0-2.3-1.2-3.7-1.1-1.3-3-1.3-1.9 0-3.1 1.3-1.2 1.4-1.1 3.7-0.1 2.3 1.1 3.7 1.2 1.3 3.1 1.3z"/>
			<path class="s0" d="m135.3 218.3c-3.3-0.8-4.4 0.1-4.4 2.2v3.4h3.4v2h-3.4v11.5h-2.6v-11.5h-2.1v-2h2.1v-3.4q0-2.6 1.7-4 1.8-1.2 5.8-0.2z"/>
			<path fill-rule="evenodd" class="s0" d="m157.7 220.1h-9.1v7.2h7.4v2.3h-7.4v7.8h-2.7v-17.5l-2.3-0.6v-1.4h14.1v2.2"/>
			<path class="s0" d="m164.1 223.8v13.6h-2.7v-11.9l-1.6-0.5v-1.2zm0.4-4.2l-2.2 1.3-1.4-2.3 2.3-1.3c0 0 1.3 2.3 1.3 2.3z"/>
			<path class="s0" d="m181.2 228.2v9.3l-2.6-0.1v-8.5q0-3-2.6-3.1-2-0.1-4.7 2.3v9.3h-2.6v-11.9l-1.7-0.5v-1.1h4l0.2 2.3q2.9-2.7 5.7-2.7c2.5 0 4.3 1.7 4.3 4.7z"/>
			<path class="s0" d="m184.9 236.3q-1-1.4-0.9-3 0.1-1.5 0.9-2.5 1.1-1.2 2.8-1.5 1.8-0.2 5.3-0.1v-1.5q0-3.3-6.7-1.4l-0.5-1.9q3.3-1.1 6.4-0.8c2 0.2 3.3 1.5 3.3 3.7v8.5l1.7 0.4v1.2h-4l-0.2-2c-1.8 1.6-3.1 2.5-5.1 2.4q-2-0.1-3-1.5m8-2.5v-2.8c-3.5-0.2-5.1-0.1-5.8 1-0.9 1-0.7 3.5 1.5 3.8q1.8 0.2 4.3-2z"/>
			<path class="s0" d="m213 228.2v9.3l-2.6-0.1v-8.5q0-3-2.7-3.1-1.9-0.1-4.7 2.3v9.3h-2.6v-11.9l-1.6-0.5v-1.1h4l0.2 2.3q2.9-2.7 5.7-2.7c2.5 0 4.3 1.7 4.3 4.7z"/>
			<path class="s0" d="m217.8 235.9q-1.8-2-1.8-5.3c0-2.2 0.6-3.8 1.8-5.2q1.8-1.9 4.7-1.9 2.4 0 4.6 1.4l-0.4 1.8q-2.3-1.2-3.9-1.1c-2.5 0-4.1 2-4.1 5 0 3.1 1.6 5 4.2 5.1q1.9 0.1 4.1-1.1l0.5 1.9q-2.3 1.3-4.9 1.3-3 0.1-4.8-1.9z"/>
			<path class="s0" d="m231.3 235.8q-1.8-2-1.8-5.2c0-2.1 0.6-3.8 1.8-5.2q1.9-2 4.8-1.9c5 0 6.1 4 5.4 7.6h-9.4c0.1 2.9 1.7 4.5 4.6 4.5q2.1 0 4.2-1.1l0.4 1.8q-2 1.5-5 1.5-3.3 0-5-2.1m7.9-6.4c0.2-2.1-0.6-3.7-3.1-3.7-2.2 0-3.6 1.5-3.9 3.7z"/>
			<path fill-rule="evenodd" class="s0" d="m206 165.1v1.8l-2.4 0.7v28.3h-3.8v-30.8h6.2"/>
			<path fill-rule="evenodd" class="s0" d="m217.9 169.8l-3.5 2.1-2-3.5 3.5-2.1 2 3.5"/>
			<path class="s0" d="m212.8 176.2v21.9c0 2.6-0.1 4.5-4.2 3.7l-0.8 2.9c7.6 1.7 8.8-2.5 8.9-6.7v-19.4l2.3-0.7v-1.7z"/>
			<path class="s0" d="m187.4 176.2v21.9c0 2.6-0.2 4.5-4.3 3.7l-0.7 2.9c7.6 1.7 8.8-2.5 8.8-6.7v-19.4l2.4-0.7v-1.7z"/>
			<path fill-rule="evenodd" class="s0" d="m177.7 169.8l-3.5 2.1-2.1-3.5 3.6-2.1 2 3.5"/>
			<path fill-rule="evenodd" class="s0" d="m171.4 169.8l-3.5 2.1-2.1-3.5 3.6-2.1 2 3.5"/>
			<path class="s0" d="m172.7 176.2c-3.6 0-12.3 0.6-12.3 10.2 0 8.7 6.6 9.5 8.9 9.5h9.3v-17.3l2.4-0.7v-1.7zm-3.4 16.5c-2 0-5-1.1-5-6.3 0-6.9 6.1-7.2 8.4-7.2h2.1v13.5z"/>
			<path class="s0" d="m241.7 176.2h-8.1c-3 0-5.4 0.9-7.2 2.8q-2.8 2.9-2.8 7.5c0 6.9 6.1 9.4 9.9 9.4h4.5c0 6.5-4.3 7-11.3 5l-0.7 2.9q7.4 2.3 11.6 0c2.7-1.5 4.1-3.9 4.1-7.9v-19.7m-3.8 16.5h-4.4c-3.5 0-6-2.9-6-6.2q-0.1-3.4 1.6-5.3 1.7-2 4.4-2h4.4z"/>
			<path fill-rule="evenodd" class="s0" d="m57.6 201.7l2 3.5 3.5-2.1-2-3.5-3.5 2.1"/>
			<path fill-rule="evenodd" class="s0" d="m51.3 201.7l2 3.5 3.5-2.1-2-3.5-3.5 2.1"/>
			<path fill-rule="evenodd" class="s0" d="m19.9 169.2l-2-3.5-3.5 2.1 2 3.5 3.5-2.1"/>
			<path fill-rule="evenodd" class="s0" d="m13.6 169.2l-2-3.5-3.5 2.1 2 3.5 3.5-2.1"/>
			<path fill-rule="evenodd" class="s0" d="m144.3 165.1l-0.1 30.8h3.8v-28.3l2.4-0.7v-1.8h-6.2"/>
			<path class="s0" d="m133.5 165.1v27.6h-9.3v-6.4c0-9.5-5.6-10.1-9.1-10.1-3.6 0-9.1 0.6-9.1 10.1v1.2c0 5.2-3 5.2-5 5.2h-14.8v-27.6h-3.8v30.8l18.6-0.1c1.6 0 5.2 0.3 7.3-2.5 2.1 2.3 5.1 2.5 6.6 2.5h22.4v-28.3l2.4-0.6v-1.8h-6.2m-13.2 27.6h-5.4c-2.1 0-5-1.1-5-6.3 0-6.9 2.9-7.2 5.2-7.2 2.3 0 5.2 0.2 5.2 7.2z"/>
			<path class="s0" d="m71.6 165.1v27.6h-6.9c-1.9 0-4.8 0-5-4.6v-11.9h-3.8v11.3c0 5.2-3.1 5.2-5.1 5.2h-30.9c-0.2 0-0.4-0.2-0.4-0.4v-15.3l2.5-0.7v-1.7h-8.4c-3.5 0-11.4 0.6-11.4 10.2 0 8.8 8.7 9 11.1 9h2.4v0.5c0 0.9 0.7 1.5 1.6 1.5h33.5c1.5 0 4.8 0.2 7-2.1 2.1 2.3 5.4 2.1 6.9 2.1h10.7v-28.3l2.4-0.6v-1.8zm-55.9 25.5h-2.5c-2 0-7.2-0.3-7.2-5.8 0-6.9 5.3-7.1 7.6-7.1h2.1c0 0 0 12.9 0 12.9z"/>
			<path class="s0" d="m120.8 144.4c-2 0-3.9-0.8-5.3-2.2l-8.3-8.3c-2.7-2.6-7.9-4.3-11.6-3.7l-11.5 1.8c-4.2 0.7-8.1-2.2-8.8-6.3l-1.8-11.6c-0.6-3.7-3.8-8.1-7.1-9.8l-10.5-5.3c-1.8-1-3.1-2.5-3.7-4.5-0.7-1.9-0.5-4 0.4-5.8l5.3-10.4c1.7-3.4 1.7-8.8 0-12.2l-5.3-10.4c-0.9-1.8-1.1-3.9-0.4-5.8 0.6-1.9 1.9-3.5 3.7-4.4l10.5-5.3c3.3-1.8 6.5-6.2 7.1-9.9l1.8-11.5c0.7-4.2 4.6-7 8.8-6.4l11.5 1.9c3.7 0.5 8.9-1.1 11.6-3.8l8.3-8.3c1.4-1.4 3.3-2.2 5.3-2.2 2.1 0 4 0.8 5.4 2.2l8.3 8.3c2.7 2.7 7.9 4.3 11.6 3.8l11.5-1.9c2-0.3 4.1 0.2 5.7 1.4 1.6 1.2 2.7 3 3 5l1.9 11.5c0.6 3.7 3.8 8.1 7.1 9.9l10.5 5.3c1.8 0.9 3.1 2.5 3.7 4.4 0.7 1.9 0.5 4-0.4 5.8l-5.3 10.4c-1.7 3.4-1.7 8.8 0 12.2l5.3 10.4c1.9 3.7 0.4 8.4-3.3 10.3l-10.5 5.3c-3.3 1.7-6.5 6.1-7.1 9.8l-1.9 11.6c-0.6 4.1-4.5 7-8.7 6.3l-11.5-1.8c-3.7-0.6-8.9 1.1-11.6 3.7l-8.3 8.3c-1.4 1.4-3.3 2.2-5.4 2.2m-23.6-15.4c3.7 0 8.3 1.7 10.7 4.2l8.3 8.3c1.2 1.2 2.9 1.9 4.7 1.9 1.7 0 3.4-0.7 4.6-1.9l8.3-8.3c2.9-2.9 8.5-4.7 12.5-4.1l11.5 1.9c3.6 0.5 7-1.9 7.5-5.5l1.9-11.5c0.6-4.1 4.1-8.8 7.7-10.7l10.4-5.3c3.2-1.6 4.5-5.6 2.9-8.8l-5.4-10.4c-1.8-3.7-1.8-9.6 0-13.2l5.4-10.4c0.7-1.5 0.9-3.3 0.3-5-0.5-1.7-1.7-3-3.2-3.8l-10.4-5.3c-3.7-1.9-7.1-6.6-7.7-10.7l-1.9-11.5c-0.3-1.7-1.2-3.2-2.6-4.3-1.4-1-3.2-1.4-4.9-1.2l-11.5 1.9c-4.1 0.6-9.7-1.2-12.5-4.1l-8.3-8.2c-1.2-1.3-2.9-2-4.6-2-1.8 0-3.5 0.7-4.7 2l-8.3 8.2c-2.8 2.9-8.4 4.7-12.4 4.1l-11.6-1.9c-3.6-0.5-6.9 1.9-7.5 5.5l-1.8 11.6c-0.7 4-4.1 8.7-7.8 10.6l-10.4 5.3c-1.5 0.8-2.7 2.1-3.2 3.8-0.6 1.7-0.4 3.5 0.4 5l5.3 10.4c1.8 3.7 1.8 9.6 0 13.2l-5.3 10.4c-0.8 1.5-1 3.3-0.4 5 0.5 1.7 1.7 3 3.2 3.8l10.4 5.3c3.7 1.9 7.1 6.6 7.8 10.7l1.8 11.5c0.6 3.6 3.9 6 7.5 5.5l11.6-1.9q0.8-0.1 1.7-0.1z"/>
			<path class="s1" d="m123.4 138.6c-2.2 0-4.4-0.8-6.1-2.3l-5.2-4.8c-3.4-3.1-9.7-4.8-14.2-3.9l-6.9 1.4c-2.4 0.5-4.8 0-6.8-1.3-2-1.4-3.4-3.4-3.9-5.8l-1.4-6.9c-0.9-4.4-5-9.6-9.1-11.5l-6.5-2.9c-2.2-1-3.8-2.8-4.7-5.1-0.8-2.2-0.8-4.7 0.2-6.9l3-6.4c1.8-4.1 1.6-10.7-0.7-14.7l-3.5-6.1c-1.2-2.1-1.5-4.6-0.8-6.9 0.6-2.3 2.1-4.3 4.2-5.5l6.2-3.4c3.9-2.3 7.6-7.8 8.1-12.3l0.8-7c0.3-2.4 1.4-4.6 3.3-6.1 1.9-1.5 4.3-2.2 6.7-1.9l7 0.8c4.5 0.5 10.7-1.8 13.8-5.2l4.7-5.2c3.4-3.7 9.1-3.9 12.8-0.6l5.2 4.8c3.4 3.1 9.7 4.8 14.2 3.9l6.9-1.4c4.9-1 9.7 2.2 10.7 7.1l1.4 6.9c0.9 4.5 5 9.6 9.2 11.5l6.4 2.9c4.5 2.1 6.5 7.5 4.5 12l-2.9 6.4c-1.9 4.2-1.6 10.8 0.6 14.7l3.5 6.2c1.2 2 1.5 4.5 0.8 6.8-0.6 2.4-2.1 4.3-4.2 5.5l-6.2 3.5c-3.9 2.2-7.6 7.7-8.1 12.2l-0.8 7c-0.2 2.4-1.4 4.6-3.3 6.1-1.9 1.5-4.3 2.2-6.7 1.9l-7-0.8c-4.5-0.5-10.7 1.8-13.8 5.2l-4.7 5.2c-1.8 1.9-4.3 2.9-6.7 2.9m-23-12.3c4.4 0 9.5 1.7 12.4 4.4l5.2 4.8c3.3 3 8.3 2.8 11.3-0.5l4.8-5.2c3.3-3.6 9.8-6.1 14.6-5.5l7.1 0.8c2.1 0.2 4.2-0.4 5.8-1.7 1.7-1.3 2.8-3.2 3-5.4l0.8-7c0.5-4.8 4.4-10.6 8.6-13l6.2-3.5c1.8-1.1 3.1-2.8 3.7-4.8 0.6-2.1 0.3-4.3-0.7-6.1l-3.5-6.2c-2.4-4.2-2.7-11.2-0.7-15.6l2.9-6.4c1.8-4 0-8.8-4-10.6l-6.4-2.9c-4.4-2-8.8-7.5-9.8-12.3l-1.4-6.9c-0.8-4.3-5.1-7.1-9.4-6.2l-6.9 1.4c-4.8 1-11.5-0.9-15.1-4.2l-5.2-4.8c-3.3-2.9-8.3-2.7-11.3 0.5l-4.8 5.3c-3.2 3.5-9.8 6-14.6 5.4l-7.1-0.7c-2.1-0.3-4.2 0.3-5.8 1.7-1.7 1.3-2.8 3.2-3 5.3l-0.8 7c-0.5 4.8-4.4 10.7-8.6 13.1l-6.2 3.5c-1.8 1-3.1 2.7-3.7 4.8-0.6 2.1-0.3 4.2 0.7 6.1l3.5 6.1c2.4 4.2 2.7 11.2 0.7 15.6l-2.9 6.5c-1.8 4-0.1 8.7 4 10.6l6.4 2.9c4.4 2 8.8 7.5 9.7 12.2l1.5 6.9c0.4 2.1 1.6 3.9 3.4 5.1 1.8 1.2 3.9 1.6 6 1.2l6.9-1.4q1.3-0.3 2.7-0.3z"/>
			<path class="s2" d="m125.7 132.9c-2.4 0-4.7-0.8-6.7-2.4l-1.9-1.6c-4.1-3.4-11.7-5.1-16.8-3.7l-2.4 0.6c-5.6 1.4-11.3-1.9-12.8-7.5l-0.6-2.4c-1.4-5.2-6.5-11-11.4-12.9l-2.4-0.9c-2.5-1.1-4.6-3-5.7-5.6-1.1-2.6-1.2-5.4-0.2-8l1-2.3c1.9-5 1.2-12.7-1.7-17.2l-1.3-2.1c-1.5-2.3-2-5.1-1.4-7.9 0.6-2.7 2.2-5 4.6-6.5l2.1-1.4c4.5-2.8 8.4-9.5 8.7-14.8l0.2-2.5c0.1-2.8 1.4-5.3 3.5-7.2 2.1-1.9 4.8-2.8 7.5-2.6l2.5 0.1c5.4 0.4 12.4-2.7 15.8-6.8l1.6-2c1.8-2.1 4.3-3.4 7.1-3.7 2.8-0.3 5.5 0.6 7.7 2.3l1.9 1.6c4.1 3.4 11.6 5.1 16.8 3.7l2.4-0.6c5.6-1.4 11.3 2 12.8 7.5l0.6 2.4c1.3 5.2 6.4 11 11.4 13l2.3 0.9c5.4 2.1 8 8.2 5.9 13.5l-0.9 2.4c-1.9 4.9-1.2 12.6 1.7 17.1l1.3 2.1c3.1 4.9 1.7 11.3-3.2 14.4l-2.1 1.4c-4.5 2.8-8.4 9.5-8.7 14.8l-0.2 2.5c-0.2 2.8-1.4 5.3-3.5 7.2-2.1 1.9-4.8 2.8-7.6 2.6l-2.5-0.1c-5.3-0.4-12.4 2.7-15.8 6.8l-1.6 2c-2 2.5-5 3.8-8 3.8m-21.5-9.2c4.8 0 10.2 1.7 13.6 4.4l1.9 1.6c4 3.3 9.9 2.7 13.2-1.3l1.6-1.9c3.6-4.4 11.1-7.6 16.7-7.3l2.5 0.2c2.5 0.1 4.9-0.7 6.8-2.4 1.9-1.6 3-3.9 3.2-6.4l0.1-2.5c0.3-5.6 4.5-12.7 9.2-15.7l2.1-1.3c4.4-2.8 5.7-8.7 2.9-13l-1.3-2.1c-3-4.8-3.8-12.9-1.8-18.1l0.9-2.3c1.9-4.9-0.4-10.4-5.3-12.3l-2.3-0.9c-5.2-2-10.6-8.1-12-13.6l-0.7-2.4c-1.3-5-6.4-8.1-11.4-6.8l-2.4 0.7c-5.5 1.4-13.4-0.4-17.8-4l-1.9-1.6c-1.9-1.5-4.4-2.3-6.9-2.1-2.5 0.3-4.8 1.5-6.4 3.4l-1.6 1.9c-3.5 4.4-11 7.6-16.6 7.3l-2.5-0.2c-2.5-0.1-4.9 0.7-6.8 2.4-1.9 1.7-3 4-3.2 6.5l-0.1 2.4c-0.4 5.7-4.5 12.7-9.3 15.7l-2.1 1.4c-2.1 1.3-3.5 3.4-4.1 5.9-0.5 2.4-0.1 4.9 1.3 7l1.3 2.1c3 4.8 3.8 12.9 1.7 18.1l-0.9 2.4c-0.9 2.3-0.8 4.9 0.2 7.2 1 2.3 2.8 4.1 5.1 5l2.4 0.9c5.2 2 10.6 8.2 12 13.6l0.6 2.4c1.3 5 6.5 8.1 11.5 6.8l2.4-0.6c1.3-0.4 2.7-0.5 4.2-0.5z"/>
			<path class="s3" d="m127.8 127.6c-2.3 0-4.5-0.7-6.4-2.1-4.5-3.3-12.4-4.5-17.7-2.8-5.7 1.8-11.9-1.3-13.7-7-1.7-5.3-7.4-11-12.7-12.8-2.8-0.9-5-2.8-6.3-5.4-1.3-2.6-1.6-5.5-0.7-8.3 1.8-5.3 0.5-13.2-2.8-17.7-1.7-2.4-2.3-5.2-1.9-8.1 0.5-2.9 2-5.4 4.4-7.1 4.5-3.3 8.1-10.4 8.1-16 0-6 4.9-10.9 10.9-10.9h0.1c5.5 0 12.7-3.6 16-8.1 1.7-2.4 4.2-3.9 7.1-4.3 2.9-0.5 5.7 0.2 8.1 1.9 4.5 3.3 12.4 4.6 17.7 2.8 5.7-1.8 11.9 1.3 13.7 7 1.7 5.3 7.4 11 12.7 12.8 5.7 1.8 8.8 8 7 13.7-1.8 5.3-0.5 13.2 2.8 17.7 3.5 4.9 2.4 11.7-2.5 15.2-4.5 3.3-8.1 10.4-8.2 16 0 6-4.8 10.9-10.8 10.9h-0.1c-5.5 0-12.7 3.6-16 8.1-1.7 2.3-4.2 3.9-7.1 4.3q-0.8 0.2-1.7 0.2m-18.8-6.7c4.7 0 9.8 1.4 13.1 3.8 2.1 1.5 4.7 2.1 7.3 1.7 2.6-0.4 4.8-1.8 6.4-3.9 3.4-4.7 11-8.6 16.8-8.6q0 0 0.1 0c5.4 0 9.8-4.4 9.8-9.8 0-5.8 3.9-13.4 8.6-16.8 4.4-3.2 5.4-9.4 2.2-13.7-3.4-4.8-4.7-13.2-2.9-18.7 1.6-5.2-1.2-10.7-6.3-12.4-5.6-1.8-11.6-7.9-13.4-13.4-1.7-5.2-7.2-8-12.4-6.4-5.5 1.8-13.9 0.5-18.7-2.9-2.1-1.6-4.7-2.2-7.3-1.8-2.6 0.4-4.8 1.8-6.4 3.9-3.4 4.7-11 8.6-16.8 8.6h-0.1c-5.4 0-9.8 4.4-9.8 9.8 0 5.9-3.9 13.4-8.6 16.9-2.1 1.5-3.5 3.8-3.9 6.4-0.5 2.6 0.2 5.2 1.7 7.3 3.4 4.7 4.7 13.1 2.9 18.7-0.8 2.5-0.6 5.1 0.6 7.5 1.2 2.3 3.2 4.1 5.7 4.9 5.6 1.8 11.6 7.8 13.4 13.4 1.7 5.1 7.2 8 12.4 6.3 1.6-0.5 3.6-0.8 5.6-0.8z"/>
			<path class="s4" d="m130.1 122.9c-1.8 0-3.7-0.5-5.3-1.6-4.3-2.7-11.7-3.3-16.5-1.4-2.5 1-5.2 1-7.7-0.1-2.5-1.1-4.4-3-5.4-5.5-1.9-4.8-7.5-9.7-12.5-10.9-2.6-0.6-4.8-2.3-6.2-4.6-1.4-2.3-1.8-5-1.1-7.6 1.2-5-0.5-12.2-3.7-16.2-3.6-4.2-3.1-10.6 1.2-14.2 3.9-3.3 6.9-10.1 6.5-15.2-0.4-5.6 3.8-10.4 9.4-10.8 5.1-0.3 11.5-4.2 14.2-8.5 2.9-4.7 9.2-6.2 13.9-3.2 4.3 2.7 11.7 3.4 16.5 1.5 2.5-1 5.2-1 7.7 0.1 2.5 1 4.4 3 5.4 5.5 1.9 4.7 7.5 9.6 12.5 10.8 5.4 1.4 8.7 6.9 7.3 12.3-1.2 4.9 0.5 12.2 3.7 16.1 3.6 4.3 3.1 10.7-1.2 14.2-3.9 3.3-6.9 10.2-6.5 15.3 0.2 2.7-0.7 5.2-2.5 7.3-1.7 2-4.2 3.2-6.9 3.4-5.1 0.4-11.5 4.2-14.2 8.6-1.4 2.2-3.6 3.8-6.3 4.4q-1.1 0.3-2.3 0.3m-15.4-5.2c3.8 0 7.9 1 10.7 2.7 2 1.3 4.4 1.7 6.8 1.2 2.4-0.6 4.4-2 5.6-4 2.9-4.6 9.6-8.6 15.1-9 2.4-0.2 4.6-1.3 6.1-3.1 1.6-1.8 2.4-4.2 2.3-6.6-0.4-5.4 2.7-12.6 6.8-16.1 3.8-3.2 4.4-8.9 1.2-12.7-3.5-4.2-5.3-11.8-4-17.1 1.2-4.8-1.7-9.7-6.5-11-5.3-1.3-11.2-6.4-13.2-11.5-0.9-2.2-2.7-3.9-4.9-4.9-2.2-0.9-4.7-1-6.9-0.1-5 2-12.9 1.4-17.5-1.5-4.2-2.7-9.8-1.4-12.4 2.8-2.9 4.6-9.6 8.7-15 9-5 0.4-8.8 4.7-8.4 9.7 0.3 5.4-2.8 12.6-6.9 16.1-3.8 3.2-4.3 8.9-1.1 12.7 3.4 4.2 5.2 11.9 3.9 17.1-0.6 2.3-0.2 4.8 1 6.9 1.3 2 3.2 3.5 5.6 4.1 5.2 1.3 11.1 6.5 13.2 11.5 0.9 2.2 2.6 4 4.8 4.9 2.2 1 4.7 1 6.9 0.1 2-0.8 4.3-1.2 6.8-1.2z"/>
			<path class="s5" d="m132.5 118.2c-1.5 0-2.9-0.3-4.3-1-4.2-2.2-11-2.3-15.2-0.1-2.3 1.1-4.8 1.3-7.2 0.5-2.4-0.8-4.3-2.5-5.4-4.7-2.1-4.2-7.6-8.3-12.3-9.1-2.5-0.4-4.6-1.7-6.1-3.7-1.4-2.1-2-4.6-1.6-7 0.8-4.7-1.3-11.2-4.6-14.6-3.7-3.6-3.6-9.6 0-13.2 3.4-3.3 5.6-9.8 4.9-14.5-0.8-5.1 2.7-9.9 7.8-10.6 4.7-0.7 10.2-4.7 12.4-8.9 1.1-2.2 3.1-3.9 5.5-4.6 2.4-0.8 4.9-0.6 7.1 0.6 4.2 2.1 11.1 2.2 15.3 0.1 2.2-1.1 4.7-1.3 7.1-0.5 2.4 0.8 4.3 2.4 5.4 4.6 2.1 4.3 7.7 8.3 12.3 9.1 2.5 0.4 4.6 1.7 6.1 3.8 1.4 2 2 4.5 1.6 6.9-0.7 4.7 1.3 11.2 4.7 14.6 3.6 3.7 3.5 9.6-0.1 13.2-3.4 3.3-5.5 9.8-4.8 14.5 0.7 5.1-2.8 9.9-7.9 10.7-4.6 0.7-10.2 4.7-12.4 8.8-1.6 3.3-4.9 5.1-8.3 5.1m-12.1-3.7c3 0 6 0.5 8.3 1.7 4 2.1 9.1 0.5 11.2-3.5 2.3-4.5 8.2-8.7 13.2-9.5 4.5-0.7 7.6-4.9 6.9-9.5-0.7-4.9 1.6-11.8 5.1-15.3 3.3-3.3 3.3-8.5 0.1-11.8-3.5-3.6-5.7-10.5-4.9-15.4 0.4-2.2-0.2-4.4-1.5-6.2-1.3-1.8-3.2-3-5.3-3.4-5-0.8-10.9-5.1-13.1-9.6-1-2-2.7-3.4-4.8-4.1-2.1-0.7-4.4-0.6-6.4 0.4-4.4 2.3-11.7 2.2-16.2-0.1-1.9-1-4.2-1.2-6.3-0.5-2.1 0.6-3.8 2.1-4.9 4.1-2.3 4.4-8.2 8.7-13.1 9.4-4.6 0.7-7.7 4.9-7 9.5 0.8 4.9-1.5 11.8-5.1 15.4-3.3 3.2-3.3 8.5-0.1 11.7 3.5 3.6 5.8 10.5 4.9 15.5-0.3 2.2 0.2 4.3 1.5 6.1 1.3 1.9 3.2 3 5.4 3.4 4.9 0.8 10.8 5.1 13 9.6 1 2 2.7 3.5 4.8 4.2 2.2 0.7 4.4 0.5 6.4-0.5 2.2-1.1 5.1-1.6 8-1.6z"/>
			<path class="s6" d="m113 115.6q-1 0-2-0.3c-2.2-0.5-4.2-1.8-5.4-3.8-2.3-3.7-7.7-6.9-12.1-7.2-4.8-0.3-8.4-4.5-8.1-9.3 0.3-4.3-2.2-10.1-5.5-12.9-1.8-1.5-2.9-3.6-3.1-5.9-0.2-2.3 0.5-4.6 2-6.4 2.7-3.3 4.2-9.5 3.1-13.7-1.2-4.6 1.6-9.4 6.3-10.5 4.2-1.1 9-5.3 10.6-9.3 1.8-4.5 6.8-6.6 11.3-4.8 4 1.6 10.3 1 14-1.3 2-1.2 4.3-1.6 6.6-1.1 2.2 0.5 4.2 1.9 5.4 3.8 2.3 3.7 7.7 7 12.1 7.2 4.8 0.4 8.4 4.5 8.1 9.3-0.3 4.4 2.2 10.2 5.5 13 1.8 1.4 2.9 3.5 3.1 5.8 0.2 2.4-0.5 4.6-2 6.4-2.8 3.3-4.2 9.5-3.1 13.7 1.2 4.7-1.7 9.4-6.3 10.6-4.2 1-9 5.2-10.6 9.2-0.9 2.2-2.5 3.9-4.7 4.8-2.1 0.9-4.5 0.9-6.6 0.1-4-1.7-10.3-1.1-14 1.2-1.4 0.9-3 1.4-4.6 1.4zm-6.1-83.7c-3.1 0-5.9 1.8-7.1 4.8-1.8 4.3-6.8 8.7-11.4 9.9-4 1-6.5 5.2-5.5 9.3 1.1 4.5-0.4 11-3.3 14.6-1.3 1.6-2 3.5-1.8 5.6 0.2 2 1.2 3.9 2.7 5.2 3.6 2.9 6.3 9.1 5.9 13.8-0.2 4.2 3 7.8 7.2 8.1 4.6 0.3 10.4 3.8 12.9 7.7 1 1.7 2.7 2.9 4.7 3.4 2 0.5 4.1 0.1 5.8-1 3.9-2.4 10.7-3 15-1.3 1.9 0.7 3.9 0.7 5.8-0.1 1.9-0.8 3.4-2.3 4.1-4.2 1.7-4.3 6.8-8.7 11.3-9.9 4.1-1 6.6-5.1 5.6-9.2-1.2-4.5 0.3-11.1 3.3-14.7 1.3-1.6 1.9-3.5 1.8-5.6-0.2-2-1.2-3.9-2.8-5.2-3.5-2.9-6.2-9.1-5.9-13.8 0.3-4.2-2.9-7.8-7.1-8.1-4.6-0.3-10.4-3.8-12.9-7.7-2.2-3.6-7-4.7-10.5-2.4-4 2.5-10.7 3.1-15 1.3q-1.4-0.5-2.8-0.5z"/>
			<path class="s7" d="m117.2 113.2q-0.5 0-1-0.1c-2.1-0.2-4.1-1.3-5.4-3-2.5-3.1-7.9-5.6-11.9-5.4-4.5 0.2-8.3-3.3-8.5-7.7-0.1-4.1-3-9.2-6.4-11.4-1.8-1.2-3-3-3.5-5.1-0.4-2.2 0-4.3 1.2-6.1 2.2-3.4 2.9-9.2 1.5-13-0.8-2-0.7-4.3 0.2-6.2 0.9-2 2.5-3.5 4.5-4.3 3.8-1.4 7.7-5.7 8.8-9.6 0.6-2.1 2-3.8 3.8-4.9 1.9-1.1 4.1-1.4 6.2-0.8 3.9 1.1 9.6-0.1 12.8-2.6 1.7-1.4 3.8-2 6-1.7 2.1 0.2 4 1.3 5.4 3 2.5 3.1 7.9 5.6 11.9 5.4 4.5-0.2 8.3 3.3 8.5 7.7 0.1 4.1 3 9.2 6.4 11.4 3.7 2.5 4.8 7.5 2.3 11.2-2.2 3.4-2.9 9.2-1.5 13 1.6 4.2-0.5 8.9-4.7 10.5-3.8 1.4-7.7 5.7-8.8 9.6-0.6 2.1-2 3.8-3.8 4.9-1.9 1.1-4.1 1.3-6.2 0.8-3.9-1.1-9.6 0.1-12.8 2.6-1.4 1.1-3.2 1.7-5 1.7m-17.9-9.4c4.3 0 9.7 2.5 12.3 5.8 1.2 1.4 2.9 2.4 4.8 2.6 1.8 0.2 3.7-0.3 5.2-1.5 3.3-2.7 9.5-4 13.7-2.8 1.8 0.5 3.7 0.2 5.3-0.7 1.7-0.9 2.9-2.4 3.4-4.3 1.1-4.1 5.4-8.8 9.4-10.3 3.7-1.4 5.5-5.4 4.2-9.1-1.6-4.1-0.9-10.3 1.5-13.9 2.2-3.3 1.3-7.7-2-9.8-3.6-2.4-6.7-7.9-6.9-12.2-0.2-3.9-3.5-6.9-7.4-6.7-4.3 0.1-10-2.5-12.7-5.8-1.2-1.5-2.9-2.4-4.8-2.6-1.8-0.3-3.7 0.3-5.2 1.4-3.3 2.8-9.5 4-13.7 2.9-1.8-0.5-3.7-0.3-5.3 0.6-1.7 1-2.9 2.5-3.4 4.3-1.1 4.2-5.4 8.8-9.4 10.3-1.8 0.7-3.2 2-4 3.7-0.8 1.8-0.8 3.7-0.2 5.4 1.6 4.1 0.8 10.3-1.5 13.9-1.1 1.6-1.4 3.5-1.1 5.4 0.4 1.8 1.5 3.4 3.1 4.4 3.6 2.4 6.7 7.9 6.9 12.2 0.1 3.9 3.5 6.9 7.4 6.8q0.2 0 0.4 0z"/>
			<path class="s8" d="m121.3 110.7c-1.9 0-3.8-0.7-5.3-2.1-2.7-2.7-7.9-4.3-11.6-3.6-2 0.3-4-0.1-5.7-1.3-1.6-1.2-2.7-2.9-3.1-4.9-0.6-3.7-3.9-8.1-7.3-9.7-3.8-1.9-5.3-6.4-3.5-10.2 1.7-3.4 1.6-8.9-0.2-12.2-0.9-1.8-1.1-3.8-0.5-5.8 0.6-1.9 1.9-3.5 3.7-4.5 3.3-1.7 6.4-6.2 7-9.9 0.3-2 1.3-3.8 2.9-5 1.7-1.3 3.7-1.8 5.7-1.5 3.7 0.5 8.9-1.2 11.5-3.9 2.9-3.1 7.8-3.1 10.8-0.2 2.7 2.6 7.9 4.2 11.6 3.6 2-0.4 4 0.1 5.7 1.2 1.6 1.2 2.8 3 3.1 5 0.7 3.7 3.9 8 7.3 9.7 3.8 1.8 5.4 6.4 3.5 10.2-1.6 3.4-1.6 8.8 0.2 12.1 0.9 1.8 1.1 3.9 0.5 5.8-0.6 2-1.9 3.6-3.7 4.5-3.3 1.8-6.4 6.3-7 10-0.3 2-1.3 3.8-2.9 5-1.7 1.2-3.7 1.7-5.7 1.5-3.7-0.6-8.9 1.2-11.5 3.9-1.5 1.5-3.5 2.3-5.5 2.3m-15.2-6.9c3.8 0 8.2 1.6 10.7 4 2.6 2.5 6.7 2.5 9.3-0.1 2.8-3 8.3-4.9 12.4-4.3 1.7 0.2 3.4-0.2 4.8-1.3 1.4-1 2.4-2.5 2.6-4.3 0.6-4 3.9-8.8 7.5-10.7 1.6-0.8 2.7-2.2 3.2-3.9 0.6-1.7 0.4-3.4-0.4-5-1.9-3.6-2-9.5-0.3-13.1 1.6-3.2 0.3-7.2-3-8.8-3.6-1.8-7.1-6.5-7.8-10.5-0.3-1.7-1.3-3.2-2.7-4.2-1.5-1-3.2-1.4-4.9-1.1-4 0.7-9.7-1-12.6-3.9-2.6-2.5-6.7-2.4-9.3 0.2-2.8 2.9-8.4 4.8-12.4 4.2-1.7-0.2-3.4 0.2-4.8 1.3-1.4 1.1-2.4 2.6-2.6 4.3-0.6 4-3.9 8.8-7.5 10.7-1.6 0.9-2.7 2.2-3.2 3.9-0.6 1.7-0.4 3.5 0.4 5 1.9 3.6 2 9.5 0.2 13.1-1.5 3.3-0.2 7.2 3.1 8.8 3.6 1.8 7.1 6.5 7.8 10.5 0.3 1.7 1.3 3.2 2.7 4.3 1.5 1 3.2 1.4 4.9 1.1q0.9-0.2 1.9-0.2z"/>
			<path class="s9" d="m125.4 107.7c-1.4 0-2.9-0.5-4.2-1.4-2.7-2-7.8-2.8-11.1-1.7-3.7 1.2-7.8-0.9-9-4.6-1-3.2-4.7-6.9-8-7.9-1.8-0.6-3.2-1.9-4.1-3.6-0.9-1.7-1-3.6-0.5-5.4 1.1-3.2 0.3-8.3-1.8-11.1-1.1-1.5-1.5-3.4-1.2-5.3 0.3-1.9 1.3-3.5 2.8-4.7 2.8-2 5.1-6.6 5.1-10 0-3.9 3.2-7.1 7.1-7.1 3.4 0 8-2.4 10-5.2 1.1-1.5 2.8-2.5 4.7-2.8 1.8-0.3 3.7 0.1 5.3 1.2 2.7 2 7.8 2.8 11.1 1.8 1.8-0.6 3.7-0.5 5.4 0.4 1.7 0.8 3 2.3 3.6 4.1 1.1 3.3 4.7 6.9 8 8 1.8 0.5 3.2 1.8 4.1 3.5 0.9 1.7 1 3.6 0.5 5.4-1.1 3.3-0.3 8.4 1.7 11.1 1.2 1.6 1.6 3.4 1.3 5.3-0.3 1.9-1.3 3.6-2.8 4.7-2.8 2-5.1 6.6-5.1 10 0 1.9-0.7 3.7-2.1 5.1-1.3 1.3-3.1 2.1-5 2.1-3.4 0-8 2.3-10 5.1-1.4 1.9-3.6 2.9-5.8 2.9m-11.9-4.6c3 0 6.2 0.9 8.3 2.5 2.8 1.9 6.6 1.3 8.5-1.4 2.2-3.1 7.1-5.6 10.9-5.6 1.6 0 3.1-0.6 4.3-1.8 1.1-1.1 1.8-2.6 1.7-4.3 0-3.7 2.5-8.6 5.6-10.9 2.7-1.9 3.3-5.7 1.3-8.4-2.2-3.1-3.1-8.5-2-12.1 0.5-1.5 0.4-3.2-0.3-4.6-0.8-1.5-2-2.6-3.6-3-3.6-1.2-7.4-5.1-8.6-8.7-0.5-1.5-1.6-2.7-3-3.5-1.5-0.7-3.1-0.8-4.7-0.3-3.6 1.1-9 0.3-12.1-1.9-1.3-1-2.9-1.4-4.5-1.1-1.6 0.3-3 1.1-3.9 2.4-2.2 3.1-7.1 5.6-10.9 5.6-3.4 0-6.1 2.8-6.1 6.1 0 3.8-2.4 8.7-5.5 10.9-1.3 0.9-2.1 2.4-2.4 4-0.2 1.6 0.1 3.2 1.1 4.5 2.2 3 3.1 8.4 1.9 12-0.5 1.6-0.3 3.2 0.4 4.7 0.8 1.4 2 2.5 3.5 3 3.6 1.1 7.5 5 8.7 8.6 1 3.2 4.5 4.9 7.7 3.9 1.1-0.4 2.3-0.6 3.7-0.6z"/>
			<path class="s10" d="m129 104.1c-1 0-2-0.2-3-0.7-2.8-1.4-7.5-1.4-10.4 0-1.5 0.8-3.3 0.9-5 0.4-1.7-0.6-3.1-1.7-3.9-3.3-1.4-2.8-5.3-5.6-8.4-6.1-1.7-0.3-3.3-1.2-4.3-2.7-1-1.4-1.5-3.2-1.2-4.9 0.5-3.1-1-7.7-3.2-9.9-1.2-1.2-1.9-2.9-1.9-4.7 0-1.8 0.7-3.4 1.9-4.7 2.2-2.2 3.7-6.7 3.2-9.9-0.3-1.7 0.2-3.5 1.2-4.9 1-1.4 2.6-2.4 4.3-2.7 3.1-0.4 7-3.2 8.4-6.1 0.8-1.5 2.2-2.7 3.9-3.3 1.7-0.5 3.5-0.4 5 0.4 2.9 1.5 7.6 1.5 10.4 0 1.6-0.8 3.4-0.9 5.1-0.4 1.7 0.6 3.1 1.8 3.9 3.3 1.4 2.9 5.3 5.7 8.4 6.1 3.6 0.6 6.1 4 5.5 7.6-0.5 3.1 1 7.7 3.2 9.9 1.3 1.3 1.9 2.9 1.9 4.7 0 1.8-0.7 3.4-1.9 4.7-2.2 2.2-3.7 6.8-3.2 9.9 0.6 3.6-1.9 7-5.5 7.6-3.1 0.5-7 3.3-8.4 6.1-0.8 1.5-2.2 2.7-3.9 3.3q-1 0.3-2.1 0.3m-8.2-2.8c2.1 0 4.2 0.4 5.7 1.2 1.3 0.6 2.9 0.8 4.3 0.3 1.4-0.5 2.6-1.5 3.2-2.8 1.6-3.1 5.8-6.1 9.2-6.6 3.1-0.5 5.1-3.4 4.7-6.4-0.6-3.5 1-8.3 3.5-10.8 1-1.1 1.6-2.5 1.6-4 0-1.5-0.6-2.9-1.6-3.9-2.5-2.5-4.1-7.3-3.5-10.8 0.4-3.1-1.6-5.9-4.7-6.4-3.4-0.5-7.6-3.5-9.2-6.7-0.6-1.3-1.8-2.3-3.2-2.7-1.4-0.5-2.9-0.4-4.3 0.3-3.1 1.6-8.2 1.6-11.3 0-1.3-0.7-2.9-0.8-4.3-0.3-1.4 0.4-2.6 1.4-3.2 2.7-1.6 3.2-5.7 6.2-9.2 6.7-1.5 0.2-2.8 1-3.6 2.2-0.9 1.2-1.3 2.7-1 4.2 0.5 3.5-1.1 8.3-3.6 10.8-1 1-1.6 2.4-1.6 3.9 0 1.5 0.6 2.9 1.6 4 2.5 2.5 4.1 7.3 3.6 10.8-0.3 1.4 0.1 2.9 1 4.1 0.8 1.2 2.1 2 3.6 2.3 3.5 0.5 7.6 3.5 9.2 6.6 0.7 1.4 1.8 2.3 3.2 2.8 1.5 0.5 3 0.4 4.3-0.3 1.6-0.8 3.6-1.2 5.7-1.2z"/>
			<path class="s0" d="m141.9 78.2l-0.9-0.3c-1.4-0.5-3-0.7-4.8-0.7-4.5 0.1-9.6 1.5-13.8 3.9-1.2-7.1-0.6-15.3-0.4-17.4 1.7 1 3.8 2.8 5.1 7.8l0.2 0.6 0.1-0.6c1-5.6-2.8-9.2-2.9-9.4 0.1 0 1.1 0.1 2.6 0.7 1.3 0.6 3.3 2 5.3 4.9l0.4 0.6-0.1-0.8c-1.5-7.1-7.4-8.6-7.7-8.7 0.1 0 2-1.4 7.5 0.5l0.5 0.1-0.3-0.4c-3.4-4-8.6-2.9-9.1-2.8 0.2-0.5 1-1.6 2.7-2.7l0.5-0.4-0.6 0.1c-2.8 0.4-4.3 1.7-4.7 2.2 0-0.6-0.1-1.8-0.5-2.6l-0.2-0.3-0.1 0.3c-0.4 0.8-0.5 2-0.5 2.6-0.4-0.5-1.9-1.8-4.7-2.2l-0.6-0.1 0.5 0.4c1.7 1.1 2.5 2.2 2.7 2.7-0.5-0.1-5.7-1.2-9.1 2.8l-0.3 0.4 0.5-0.1c5.5-1.9 7.4-0.5 7.5-0.5-0.4 0.1-6.2 1.6-7.7 8.7l-0.1 0.8 0.4-0.6c2-2.9 4-4.3 5.3-4.9 1.4-0.6 2.4-0.7 2.6-0.7-0.1 0.2-3.9 3.8-2.9 9.4l0.1 0.6 0.2-0.6c1.3-5 3.4-6.8 5.1-7.8 0.2 2.1 0.8 10.3-0.4 17.4-4.2-2.4-9.3-3.8-13.8-3.8q-0.1 0-0.2 0-2.6 0-4.6 0.6l-0.9 0.3h0.9c7.9 0 12.6 1.9 18.1 5.3q-0.2 0.1-0.4 0.3c-2.3 1.6-7.5 5.4-10.1 5.4q-0.7 0-1.3-0.2l-0.5-0.1 0.4 0.4c0.3 0.4 1.1 1.2 2.4 1.2 3.2 0 7.6-3 10.3-4.9q0.7-0.5 1.2-0.8 0.6 0.3 1.3 0.8c2.6 1.9 7.1 4.9 10.3 4.9 1.3 0 2-0.8 2.4-1.2l0.3-0.4-0.5 0.1q-0.5 0.2-1.2 0.2c-2.6 0-7.8-3.8-10.1-5.4q-0.2-0.2-0.4-0.3c5.5-3.4 10.2-5.3 18.1-5.3h0.9"/>
		</g>
	</g>
</svg>