<svg version="1.2" xmlns="http://www.w3.org/2000/svg" viewBox="0 0 400 280" width="400" height="280">
	<title>15</title>
	<style>
		.s0 { fill: #e4222b } 
		.s1 { fill: #000000 } 
	</style>
	<g id="svg833">
		<g id="g841">
			<g id="g873">
				<path id="path875" class="s0" d="m400 175.7v-110.9c0-35.2-28.5-63.7-63.7-63.7-35.2 0-63.7 28.5-63.7 63.7v78.9c0 10.3-8.4 18.6-18.7 18.7-10.3 0-18.6-8.4-18.7-18.7v-131.4h-45v34.5c-18.4-28.2-50.3-46.8-86.5-46.8-57.3 0-103.7 46.4-103.7 103.7 0 57.3 46.4 103.7 103.7 103.7 37.3 0 70-19.7 88.3-49.3 6.5 28.2 31.8 49.2 62 49.2 35.2 0 63.7-28.5 63.7-63.7v-78.9c0-10.3 8.4-18.6 18.7-18.7 10.3 0 18.6 8.4 18.7 18.7v110.9m-251.4-13.2c-32.4 0-58.7-26.3-58.7-58.7 0-32.4 26.3-58.7 58.7-58.7 32.4 0 58.7 26.3 58.7 58.7 0 32.4-26.3 58.7-58.7 58.7z"/>
			</g>
			<g id="g939">
				<g id="g877">
					<path id="path879" class="s1" d="m65.7 269.8h20.7c2.9 0 5.3-2.4 5.3-5.3 0-2.9-2.4-5.3-5.3-5.3h-9.5c-8 0-14.4-6.5-14.4-14.4 0-7.9 6.5-14.4 14.4-14.4h18.3v9.1h-18.3c-2.9 0-5.3 2.4-5.3 5.3 0 2.9 2.4 5.3 5.3 5.3h9.5c8 0 14.4 6.5 14.4 14.4 0 7.9-6.5 14.4-14.4 14.4h-20.7"/>
				</g>
				<g id="g881">
					<path id="path883" class="s1" d="m112.5 269.8h20.7c2.9 0 5.3-2.4 5.3-5.3 0-2.9-2.4-5.3-5.3-5.3h-9.5c-8 0-14.4-6.5-14.4-14.4 0-7.9 6.5-14.4 14.4-14.4h18.3v9.1h-18.3c-2.9 0-5.3 2.4-5.3 5.3 0 2.9 2.4 5.3 5.3 5.3h9.5c8 0 14.4 6.5 14.4 14.4 0 7.9-6.5 14.4-14.4 14.4h-20.7"/>
				</g>
				<g id="g885">
					<path id="path887" class="s1" d="m269.2 278.9h-7.8c-8 0-14.5-6.5-14.5-14.5v-43h9.1v9h8.7v9.1h-8.7v25c0 3 2.4 5.3 5.4 5.3h7.8"/>
				</g>
				<g id="g889">
					<path id="path891" class="s1" d="m50 264.9c0 2.5 2 4.6 4.4 4.9v9.1c-4.8-0.2-8.8-2.6-11.3-6.1l-0.4-0.5-0.5 0.4c-4.5 4.3-10.6 6.9-17.2 6.9-13.8 0-25-11.2-25-25 0-13.8 11.2-25 25-25 13.8 0 25 11.2 25 25zm-40.4-10.3c0 8.5 6.9 15.4 15.4 15.4 8.5 0 15.4-6.9 15.4-15.4 0-8.5-6.9-15.4-15.4-15.4-8.5 0-15.4 6.9-15.4 15.4z"/>
				</g>
				<g id="g893">
					<path id="path895" class="s1" d="m166.7 278.9v-14.1l-17.1-34.4h10.4l11.5 24 11.5-24h10.4l-17.1 34.4v14.1"/>
				</g>
				<g id="g897">
					<path id="path899" class="s1" d="m199.8 269.8h21.7c2.9 0 5.3-2.4 5.3-5.3 0-2.9-2.4-5.3-5.3-5.3h-9.5c-8 0-14.4-6.5-14.4-14.4 0-7.9 6.5-14.4 14.4-14.4h18.3v9.1h-18.3c-2.9 0-5.3 2.4-5.3 5.3 0 2.9 2.4 5.3 5.3 5.3h9.5c8 0 14.4 6.5 14.4 14.4 0 7.9-6.4 14.4-14.4 14.4h-21.7"/>
				</g>
				<g id="g901">
					<path id="path903" class="s1" d="m298.8 229.6c-13.3 0-23.7 11.2-23.8 24.7 0 13.5 10.5 24.6 23.8 24.7h15.6v-9.1h-15.6c-6.5 0-11.9-4.5-13.7-10.9h37c0.3-1.5 0.4-3 0.4-4.6 0-13.5-10.5-24.6-23.8-24.7m-13.6 21.2c1-7.2 6.8-12.2 13.7-12.2 6.9 0 12.8 5 13.9 12.2z"/>
				</g>
				<g id="g905">
					<path id="path907" class="s1" d="m394.2 234.3c-3.5-3-8.1-4.7-13.1-4.7-5 0-9.6 1.7-13.1 4.7-0.4 0.3-0.8 0.7-1.2 1.1-0.4-0.4-0.8-0.8-1.2-1.1-3.5-3-8.1-4.7-13.1-4.7-5 0-9.6 1.7-13.1 4.7-3.5 2.9-5.8 7.2-5.8 12.1v32.5h9.2v-32.5c0-4.2 4.3-7.7 9.7-7.7 5.4 0 9.7 3.4 9.7 7.7v32.5h9.2v-32.5c0-4.2 4.3-7.7 9.7-7.7 5.4 0 9.7 3.4 9.7 7.7v32.5h9.2v-32.5c0-4.8-2.3-9.2-5.8-12.1z"/>
				</g>
			</g>
		</g>
	</g>
</svg>