<svg version="1.2" xmlns="http://www.w3.org/2000/svg" viewBox="0 0 367 196" width="367" height="196">
	<title>16</title>
	<style>
		.s0 { fill: #353f67 } 
		.s1 { fill: #00888f } 
		.s2 { fill: #4dacb5 } 
	</style>
	<g id="Layer_1-2">
		<g>
			<path class="s0" d="m10.2 126.5h5.6l9.7 27.3h-5.1l-1.5-4.2h-11.8l-1.5 4.2h-5c0 0 9.6-27.3 9.6-27.3zm7.1 18.6l-3.7-10.9c-0.3-0.6-0.4-1.2-0.6-1.9h-0.1q-0.2 1-0.6 1.9l-3.7 10.9h8.7z"/>
			<path fill-rule="evenodd" class="s0" d="m28.1 126.6h4.8v27.2h-4.8z"/>
			<path fill-rule="evenodd" class="s0" d="m39.2 137.1h-3.3v-4.5h3.3v-6h4.8v6h3.3v4.5h-3.3v12.2h3.2v4.5h-8v-16.7z"/>
			<path class="s0" d="m49.6 143.2c0-6.3 4.4-11.2 10.4-11.2 3.8 0 6.7 2 8 4.8h0.2v-4.2h4.7v21.2h-4.7v-4.2h-0.2c-1.8 3.4-4.6 4.7-8 4.7-6 0-10.4-4.9-10.4-11.1zm17.9 0c0-3.9-2.6-6.7-6.5-6.7-3.8 0-6.4 2.8-6.4 6.7 0 3.8 2.6 6.6 6.4 6.6 3.8 0 6.5-2.9 6.5-6.6z"/>
			<path class="s0" d="m111.4 140.4v13.4h-4.8v-12.1c0-3.3-1.5-5.3-4.4-5.3-3.4 0-5.2 2.7-5.2 5.7v11.7h-4.7v-12.2c0-2.9-1.3-5.2-4.4-5.2-3.4 0-5.1 2.7-5.1 5.6v11.8h-4.8v-21.3h4.6v3.7h0.2c1.1-2.4 3.3-4.2 6.6-4.2 3.6 0 5.9 1.7 6.9 4.4h0.4c1.3-2.4 3.4-4.5 7.2-4.5 5 0 7.5 3.9 7.5 8.5z"/>
			<path class="s0" d="m114.7 143.2c0-6.3 4.4-11.2 10.4-11.2 3.8 0 6.7 2 8 4.8h0.2v-4.2h4.7v21.2h-4.7v-4.2h-0.2c-1.8 3.4-4.6 4.7-8 4.7-6 0-10.4-4.9-10.4-11.1zm17.9 0c0-3.9-2.6-6.7-6.5-6.7-3.8 0-6.4 2.8-6.4 6.7 0 3.8 2.6 6.6 6.4 6.6 3.8 0 6.5-2.9 6.5-6.6z"/>
			<path fill-rule="evenodd" class="s0" d="m148.7 150.6l-8.4-18h5.2l5.9 12.5 5.2-12.5h5.2l-12.3 27.2h-5.2l4.4-9.2z"/>
			<path fill-rule="evenodd" class="s0" d="m169.7 150.6l-8.4-18h5.2l5.8 12.5 5.3-12.5h5.2l-12.3 27.2h-5.3l4.5-9.2z"/>
			<path class="s0" d="m184.6 145.5v-12.9h4.7v13.2c0 2.6 1.8 4.1 4.4 4.1 2.5 0 4.2-1.6 4.2-4.1v-13.2h4.8v12.9c0 5.2-3.8 8.8-9 8.8-5.3 0-9.1-3.6-9.1-8.8z"/>
			<path fill-rule="evenodd" class="s0" d="m205.8 149.8l10.3-12.8h-9.9v-4.4h15.9v4.3l-10 12.5h10.3v4.4h-16.6v-4z"/>
			<path fill-rule="evenodd" class="s0" d="m217.6 82.8h4.8v27.1h-4.8z"/>
			<path fill-rule="evenodd" class="s0" d="m211.8 110h-15.8v-4.5h11v-22.7h4.8v27.2z"/>
			<path fill-rule="evenodd" class="s0" d="m101.2 93.3h4.8v27.3l-12.1-0.1v-4.2h7.3v-23z"/>
			<path fill-rule="evenodd" class="s0" d="m101.3 93.4h4.7v12.1h33.9v-16.8h4.7v16.8h46.6v-16.8h4.8v21.2h-94.8v-16.5z"/>
			<path class="s0" d="m168.6 109.9c-6.2 0-11.3-5.1-11.3-11.2 0-6 5.1-11.1 11.3-11.1 6.2 0 11.3 4.9 11.3 11.1v11.2zm6.5-11.2c0-4.1-2.9-6.6-6.6-6.6-3.6 0-6.4 2.5-6.4 6.6 0 4.1 2.9 6.7 6.4 6.7h6.6z"/>
			<path fill-rule="evenodd" class="s0" d="m143.8 116h4.8v4.8h-4.8z"/>
			<path fill-rule="evenodd" class="s0" d="m135.9 116h4.8v4.8h-4.8z"/>
			<path fill-rule="evenodd" class="s0" d="m195.4 79.2h4.8v4.8h-4.8z"/>
			<path fill-rule="evenodd" class="s0" d="m187.5 79.2h4.8v4.8h-4.8z"/>
			<path fill-rule="evenodd" class="s0" d="m101.3 82.8h4.7v4.8h-4.7z"/>
			<path fill-rule="evenodd" class="s0" d="m248.2 176.6h55.5l62.6-98.8h-55.4l-62.7 98.8z"/>
			<path fill-rule="evenodd" class="s1" d="m264.4 31.3h46.5v46.5h-46.5z"/>
			<path fill-rule="evenodd" class="s2" d="m233.1 0h31.3v31.3h-31.3z"/>
			<path fill-rule="evenodd" class="s0" d="m17.9 173.1h1.3v2.8h2.7v-3.5h1.4v3.5h2.7v-4.6h1.3v5.9h-9.4v-4.1z"/>
			<path class="s0" d="m75.5 175h1.3v2c0 1.1 0.8 1.9 1.8 1.9 1 0 1.8-0.8 1.8-1.9v-2h1.3v2c0 1.7-1.4 3.1-3.1 3.1-1.7 0-3.2-1.4-3.2-3.1z"/>
			<path fill-rule="evenodd" class="s0" d="m202.3 177.2h-5.3v-2.6h1.3v1.3h2.7v-4.6h1.3v5.9z"/>
			<path fill-rule="evenodd" class="s0" d="m163.8 169.6h1.3v7.6h-1.3z"/>
			<path fill-rule="evenodd" class="s0" d="m220.7 169.6h1.4v7.6h-1.4z"/>
			<path fill-rule="evenodd" class="s0" d="m210.9 169.6h1.3v7.6h-1.3z"/>
			<path fill-rule="evenodd" class="s0" d="m162.2 177.2h-4.5v-1.3h3.1v-6.3h1.4v7.6z"/>
			<path fill-rule="evenodd" class="s0" d="m124.4 172.5h1.3v7.6h-3.3v-1.1h2v-6.5z"/>
			<path fill-rule="evenodd" class="s0" d="m71.3 175.9h1.3v4.2h-3.3v-1.1h2v-3.1z"/>
			<path fill-rule="evenodd" class="s0" d="m124.4 172.6h1.3v3.3h16.4v-4.6h1.3v4.6h13v-4.6h1.3v5.9h-33.3v-4.6z"/>
			<path fill-rule="evenodd" class="s0" d="m8.5 172.6h1.3v3.3h2.6v-4.6h1.4v4.6h4.1v-3.5h1.3v4.8h-10.7v-4.6z"/>
			<path class="s0" d="m150.1 177.2c-1.8 0-3.2-1.4-3.2-3.2 0-1.7 1.4-3.1 3.2-3.1 1.7 0 3.1 1.4 3.1 3.1v3.2zm1.9-3.1c0-1.2-0.9-1.9-1.9-1.9-1 0-1.8 0.7-1.8 1.9 0 1.1 0.8 1.8 1.8 1.8h1.9z"/>
			<path class="s0" d="m195.2 177.2c-1.8 0-3.2-1.4-3.2-3.2 0-1.7 1.4-3.1 3.2-3.1 1.7 0 3.1 1.4 3.1 3.1v3.2zm1.8-3.1c0-1.2-0.8-1.9-1.8-1.9-1 0-1.8 0.7-1.8 1.9 0 1.1 0.8 1.8 1.8 1.8h1.8z"/>
			<path fill-rule="evenodd" class="s0" d="m117 177.2h-5.3v-2.6h1.3v1.3h2.7v-6.3h1.3v7.6z"/>
			<path fill-rule="evenodd" class="s0" d="m101.2 177.2h-17.3l0.1-2.6h1.3v1.3h14.5v-6.3h1.4v7.6z"/>
			<path fill-rule="evenodd" class="s0" d="m102.7 169.6h1.3v6.3h2.7 5.5v1.3h-9.5v-7.6z"/>
			<path fill-rule="evenodd" class="s0" d="m119.1 169.6h1.3v7.6h-1.3z"/>
			<path class="s0" d="m109.9 177.2c-1.8 0-3.2-1.4-3.2-3.2 0-1.7 1.4-3.1 3.2-3.1 1.7 0 3.1 1.4 3.1 3.1v3.2zm1.8-3.1c0-1.2-0.8-1.9-1.8-1.9-1 0-1.8 0.7-1.8 1.9 0 1.1 0.8 1.8 1.8 1.8h1.8z"/>
			<path fill-rule="evenodd" class="s0" d="m61 177.2h-5.4v-2.6h1.3v1.3h2.7v-6.3h1.4v7.6z"/>
			<path fill-rule="evenodd" class="s0" d="m29.1 169.6h1.3v6.3h20.2 5.5v1.3h-27v-7.6z"/>
			<path fill-rule="evenodd" class="s0" d="m63 169.6h1.3v7.6h-1.3z"/>
			<path class="s0" d="m53.8 177.2c-1.8 0-3.2-1.4-3.2-3.2 0-1.7 1.4-3.1 3.2-3.1 1.7 0 3.1 1.4 3.1 3.1v3.2zm1.8-3.1c0-1.2-0.8-1.9-1.8-1.9-1 0-1.8 0.7-1.8 1.9 0 1.1 0.8 1.8 1.8 1.8h1.8z"/>
			<path class="s0" d="m69.5 177.2c-1.8 0-3.2-1.4-3.2-3.2 0-1.7 1.4-3.1 3.2-3.1 1.7 0 3.1 1.4 3.1 3.1v3.2zm1.8-3.1c0-1.2-0.8-1.9-1.8-1.9-1 0-1.8 0.7-1.8 1.9 0 1.1 0.8 1.8 1.8 1.8h1.8z"/>
			<path fill-rule="evenodd" class="s0" d="m211.5 177.2v-1.3h6.8v-1.9h-3.7v-1.2h5v4.4h-8.1z"/>
			<path fill-rule="evenodd" class="s0" d="m204.1 177.2v-1.3h3.7v-3.4h-3.6v-1.2h5v5.9h-5.1z"/>
			<path fill-rule="evenodd" class="s0" d="m42.2 177.2v-1.3h3.8v-3.4h-3.7v-1.2h5v5.9h-5.1z"/>
			<path fill-rule="evenodd" class="s0" d="m167.8 177.2v-5.9h4.9v1.2h-3.5v3.4h3.7v1.3h-5.1z"/>
			<path fill-rule="evenodd" class="s0" d="m80.4 175v-3.7h3.5v1.2h-2.2v2.5h-1.3z"/>
			<path fill-rule="evenodd" class="s0" d="m83.9 177.2v-1.3-3.4h-2.1v-1.2h3.5v5.9h-1.4z"/>
			<path class="s0" d="m0 175h1.4v2c0 1.1 0.8 1.9 1.8 1.9 1 0 1.8-0.8 1.8-1.9v-2h1.3v2c0 1.7-1.4 3.1-3.1 3.1-1.8 0-3.2-1.4-3.2-3.1z"/>
			<path fill-rule="evenodd" class="s0" d="m5 175v-3.7h3.4v1.2h-2.1v2.5h-1.3z"/>
			<path fill-rule="evenodd" class="s0" d="m8.5 177.2v-1.3-3.4h-2.2v-1.2h3.5v5.9h-1.3z"/>
			<path fill-rule="evenodd" class="s0" d="m171.3 171.3h1.4v4.6h14.6v-4.6h1.3v4.6h8.4v-1.3h1.3v2.6h-27v-5.9z"/>
			<path fill-rule="evenodd" class="s0" d="m214.6 172.8l1.9-3.2h1.5l-2.3 3.8"/>
			<path fill-rule="evenodd" class="s0" d="m220.9 168.9v-1.5h1.3v0.3h-1v0.9h1v0.3h-1.3z"/>
			<path fill-rule="evenodd" class="s0" d="m221.5 168.9h-0.9v-0.3h1.3"/>
			<path fill-rule="evenodd" class="s0" d="m201 178.9h1.3v1.3h-1.3z"/>
			<path fill-rule="evenodd" class="s0" d="m198.8 178.9h1.3v1.3h-1.3z"/>
			<path fill-rule="evenodd" class="s0" d="m188.3 178.9h1.4v1.3h-1.4z"/>
			<path fill-rule="evenodd" class="s0" d="m186.2 178.9h1.3v1.3h-1.3z"/>
			<path fill-rule="evenodd" class="s0" d="m143.2 178.9h1.3v1.3h-1.3z"/>
			<path fill-rule="evenodd" class="s0" d="m141 178.9h1.3v1.3h-1.3z"/>
			<path fill-rule="evenodd" class="s0" d="m79.2 181.3h1.3v1.4h-1.3z"/>
			<path fill-rule="evenodd" class="s0" d="m77 181.3h1.3v1.4h-1.3z"/>
			<path fill-rule="evenodd" class="s0" d="m3.6 181.3h1.3v1.4h-1.3z"/>
			<path fill-rule="evenodd" class="s0" d="m1.4 181.3h1.3v1.4h-1.3z"/>
			<path fill-rule="evenodd" class="s0" d="m170.8 168.2h1.3v1.4h-1.3z"/>
			<path fill-rule="evenodd" class="s0" d="m168.6 168.2h1.3v1.4h-1.3z"/>
			<path fill-rule="evenodd" class="s0" d="m157.5 168.2h1.3v1.4h-1.3z"/>
			<path fill-rule="evenodd" class="s0" d="m155.3 168.2h1.3v1.4h-1.3z"/>
			<path fill-rule="evenodd" class="s0" d="m124.3 169.6h1.3v1.3h-1.3z"/>
			<path fill-rule="evenodd" class="s0" d="m12.3 178.9h1.3v1.3h-1.3z"/>
			<path fill-rule="evenodd" class="s0" d="m0 186.5h4.8v1.2h-3.5v1.9h2.9v1.3h-2.9v3.1h-1.3v-7.5z"/>
			<path class="s0" d="m5.6 186.4c0-0.4 0.3-0.7 0.8-0.7 0.4 0 0.7 0.3 0.7 0.7 0 0.5-0.3 0.8-0.7 0.8-0.5 0-0.8-0.3-0.8-0.8zm0.1 1.8h1.3v5.8h-1.3z"/>
			<path class="s0" d="m8.4 188.2h1.3v1h0.1c0.3-0.7 0.9-1.2 1.8-1.2 1.4 0 2.1 1 2.1 2.3v3.7h-1.3v-3.4c0-0.8-0.4-1.4-1.2-1.4-1 0-1.4 0.8-1.4 1.6v3.2h-1.4z"/>
			<path class="s0" d="m14.6 191.1c0-1.7 1.2-3.1 2.8-3.1 1.1 0 1.9 0.5 2.2 1.3h0.1v-1.1h1.3v5.8h-1.3v-1.1h-0.1c-0.5 0.9-1.2 1.3-2.2 1.3-1.6 0-2.8-1.4-2.8-3.1zm4.9 0c0-1.1-0.7-1.9-1.8-1.9-1 0-1.7 0.8-1.7 1.9 0 1 0.7 1.8 1.7 1.8 1.1 0 1.8-0.8 1.8-1.8z"/>
			<path class="s0" d="m22.4 188.2h1.3v1c0.3-0.7 0.9-1.2 1.8-1.2 1.5 0 2.1 1 2.1 2.3v3.7h-1.3v-3.4c0-0.8-0.3-1.4-1.2-1.4-0.9 0-1.4 0.8-1.4 1.6v3.2h-1.3z"/>
			<path class="s0" d="m28.5 191.1c0-1.8 1.4-3.1 3.1-3.1 0.9 0 1.7 0.3 2.3 0.9l-0.9 0.9c-0.3-0.4-0.8-0.6-1.4-0.6-0.9 0-1.7 0.8-1.7 1.9 0 1 0.7 1.8 1.7 1.8 0.6 0 1-0.2 1.4-0.5l0.8 0.9c-0.5 0.5-1.3 0.9-2.2 0.9-1.7 0-3.1-1.4-3.1-3.1"/>
			<path class="s0" d="m34.1 191.1c0-1.8 1.4-3.1 3.1-3.1 1.8 0 3.2 1.3 3.2 3.1 0 0.1 0 0.3 0 0.4h-4.9c0.1 0.8 0.9 1.4 1.8 1.4 0.7 0 1.2-0.3 1.5-0.9h1.5c-0.4 1.3-1.6 2.1-3.1 2.1-1.7 0-3.1-1.3-3.1-3zm4.8-0.6c-0.1-0.7-0.8-1.3-1.7-1.3-0.9 0-1.6 0.6-1.7 1.3z"/>
			<path class="s0" d="m43.3 191.4c0-0.9 0.6-1.8 1.4-2.1-0.3-0.3-0.5-0.7-0.5-1.1 0-1 0.9-1.9 1.9-1.9 1 0 1.9 0.9 1.9 1.9h-1.3c0-0.4-0.2-0.6-0.6-0.6-0.3 0-0.6 0.3-0.6 0.6 0 0.3 0.2 0.6 0.6 0.6h0.1v1.3h-0.2c-0.7 0-1.4 0.5-1.4 1.4 0 0.8 0.6 1.4 1.4 1.4 0.8 0 1.4-0.6 1.4-1.5h-0.7v-1.1h2.7v1.1h-0.7c0 1.6-1.2 2.7-2.7 2.7-1.5 0-2.7-1.2-2.7-2.7z"/>
			<path class="s0" d="m54.2 186.5h1.6l2.6 7.5h-1.4l-0.4-1.1h-3.2l-0.4 1.1h-1.4l2.6-7.5zm2 5.1l-1-3q-0.1-0.3-0.2-0.5-0.1 0.3-0.2 0.5l-1 3z"/>
			<path class="s0" d="m58.6 191.1c0-1.8 1.4-3.1 3.2-3.1 0.8 0 1.7 0.3 2.2 0.9l-0.8 0.9c-0.4-0.4-0.9-0.6-1.4-0.6-1 0-1.8 0.8-1.8 1.9 0 1 0.8 1.8 1.8 1.8 0.5 0 1-0.2 1.3-0.5l0.8 0.9c-0.5 0.5-1.3 0.9-2.1 0.9-1.8 0-3.2-1.4-3.2-3.1"/>
			<path class="s0" d="m64.2 191.1c0-1.8 1.4-3.1 3.1-3.1 0.9 0 1.7 0.3 2.3 0.9l-0.9 0.9c-0.3-0.4-0.8-0.6-1.4-0.6-1 0-1.8 0.8-1.8 1.9 0 1 0.8 1.8 1.8 1.8 0.6 0 1-0.2 1.3-0.5l0.9 0.9c-0.6 0.5-1.4 0.9-2.2 0.9-1.7 0-3.1-1.4-3.1-3.1"/>
			<path class="s0" d="m69.7 191.1c0-1.7 1.4-3.1 3.1-3.1 1.7 0 3.1 1.4 3.1 3.1 0 1.7-1.4 3.1-3.1 3.1-1.7 0-3.1-1.4-3.1-3.1zm4.9 0c0-1.1-0.8-1.8-1.8-1.8-1 0-1.7 0.6-1.7 1.8 0 1.1 0.8 1.8 1.7 1.8 1 0 1.8-0.7 1.8-1.8z"/>
			<path class="s0" d="m76.8 191.7v-3.5h1.3v3.6c0 0.7 0.5 1.1 1.2 1.1 0.7 0 1.1-0.4 1.1-1.1v-3.6h1.4v3.5c0 1.5-1.1 2.5-2.5 2.5-1.5 0-2.5-1-2.5-2.5z"/>
			<path class="s0" d="m83 188.2h1.3v1c0.3-0.7 0.9-1.2 1.8-1.2 1.5 0 2.1 1 2.1 2.3v3.7h-1.3v-3.4c0-0.8-0.3-1.4-1.2-1.4-0.9 0-1.4 0.8-1.4 1.6v3.2h-1.3z"/>
			<path fill-rule="evenodd" class="s0" d="m89.9 189.4h-0.9v-1.2h0.9v-1.7h1.3v1.7h0.9v1.2h-0.9v3.4h0.9v1.2h-2.2v-4.6z"/>
			<path class="s0" d="m93.1 186.4c0-0.4 0.3-0.7 0.7-0.7 0.5 0 0.8 0.3 0.8 0.7 0 0.5-0.3 0.8-0.8 0.8-0.4 0-0.7-0.3-0.7-0.8zm0.1 1.8h1.3v5.8h-1.3z"/>
			<path class="s0" d="m95.9 188.2h1.3v1c0.3-0.7 0.9-1.2 1.8-1.2 1.5 0 2.1 1 2.1 2.3v3.7h-1.3v-3.4c0-0.8-0.3-1.4-1.2-1.4-0.9 0-1.4 0.8-1.4 1.6v3.2h-1.3z"/>
			<path class="s0" d="m108.2 188.2v7.4h-5.2v-1.2h3.9v-2c-0.5 0.8-1.3 1.2-2.2 1.2-1.6 0-2.7-1.2-2.7-2.8 0-1.6 1.2-2.8 2.7-2.8 1 0 1.8 0.5 2.2 1.3v-1.1h1.3zm-1.5 2.6c0-0.9-0.7-1.6-1.7-1.6-0.9 0-1.6 0.8-1.6 1.6 0 0.9 0.7 1.6 1.6 1.6 1 0 1.7-0.7 1.7-1.6z"/>
			<path fill-rule="evenodd" class="s0" d="m112 186.5h4.8v1.2h-3.5v1.9h2.9v1.3h-2.9v1.9h3.5v1.2h-4.8v-7.5z"/>
			<path fill-rule="evenodd" class="s0" d="m119.5 191l-2-2.8h1.6l1.1 1.7 1.1-1.7h1.5l-1.9 2.8 2.1 3h-1.6l-1.2-1.9-1.2 1.9h-1.5l2-3z"/>
			<path class="s0" d="m123.1 191.1c0-1.8 1.4-3.1 3.1-3.1 0.9 0 1.7 0.3 2.3 0.9l-0.9 0.9c-0.3-0.4-0.8-0.6-1.4-0.6-1 0-1.7 0.8-1.7 1.9 0 1 0.7 1.8 1.7 1.8 0.6 0 1-0.2 1.4-0.5l0.8 0.9c-0.5 0.5-1.3 0.9-2.2 0.9-1.7 0-3.1-1.4-3.1-3.1"/>
			<path class="s0" d="m128.9 191.1c0-1.8 1.4-3.1 3.2-3.1 1.7 0 3.1 1.3 3.1 3.1 0 0.1 0 0.3 0 0.4h-4.9c0.2 0.8 0.9 1.4 1.8 1.4 0.7 0 1.3-0.3 1.5-0.9h1.5c-0.4 1.3-1.6 2.1-3 2.1-1.8 0-3.2-1.3-3.2-3.1m4.9-0.5c-0.2-0.7-0.8-1.3-1.8-1.3-0.9 0-1.6 0.6-1.7 1.3z"/>
			<path fill-rule="evenodd" class="s0" d="m136.4 186.5h1.3v7.5h-1.3z"/>
			<path fill-rule="evenodd" class="s0" d="m139.3 186.5h1.3v7.5h-1.3z"/>
			<path class="s0" d="m141.8 191.1c0-1.8 1.4-3.1 3.2-3.1 1.8 0 3.2 1.3 3.2 3.1 0 0.1 0 0.3-0.1 0.4h-4.8c0.1 0.8 0.9 1.4 1.7 1.4 0.7 0 1.3-0.3 1.6-0.9h1.4c-0.4 1.3-1.5 2.1-3 2.1-1.8 0-3.2-1.3-3.2-3zm4.9-0.6c-0.1-0.7-0.8-1.3-1.7-1.3-0.9 0-1.6 0.6-1.7 1.3z"/>
			<path class="s0" d="m149.3 188.2h1.3v1h0.1c0.3-0.7 0.9-1.2 1.8-1.2 1.4 0 2.1 1 2.1 2.3v3.7h-1.3v-3.4c0-0.8-0.4-1.4-1.2-1.4-1 0-1.4 0.8-1.4 1.6v3.2h-1.3z"/>
			<path class="s0" d="m155.7 191.1c0-1.8 1.4-3.1 3.1-3.1 0.9 0 1.7 0.3 2.2 0.9l-0.8 0.9c-0.4-0.4-0.8-0.6-1.4-0.6-1 0-1.8 0.8-1.8 1.9 0 1 0.8 1.8 1.8 1.8 0.5 0 1-0.2 1.3-0.5l0.9 0.9c-0.6 0.5-1.4 0.9-2.2 0.9-1.7 0-3.1-1.4-3.1-3.1"/>
			<path class="s0" d="m161.4 191.1c0-1.8 1.4-3.1 3.2-3.1 1.8 0 3.2 1.3 3.2 3.1 0 0.1 0 0.3-0.1 0.4h-4.8c0.1 0.8 0.9 1.4 1.7 1.4 0.7 0 1.3-0.3 1.6-0.9h1.4c-0.4 1.3-1.5 2.1-3 2.1-1.8 0-3.2-1.3-3.2-3.1m4.9-0.5c-0.1-0.7-0.8-1.3-1.7-1.3-0.9 0-1.6 0.6-1.7 1.3z"/>
			<path class="s0" d="m173.3 186.5h1.6l2.6 7.5h-1.4l-0.4-1.1h-3.2l-0.4 1.1h-1.4l2.7-7.5zm1.9 5.1l-1-3q-0.1-0.3-0.2-0.5 0 0.3-0.2 0.5l-1 3z"/>
			<path class="s0" d="m178 191.1c0-1.8 1.4-3.1 3.1-3.1 0.9 0 1.7 0.3 2.2 0.9l-0.8 0.9c-0.3-0.4-0.8-0.6-1.4-0.6-1 0-1.8 0.8-1.8 1.9 0 1 0.8 1.8 1.8 1.8 0.6 0 1-0.2 1.3-0.5l0.9 0.9c-0.6 0.5-1.4 0.9-2.2 0.9-1.7 0-3.1-1.4-3.1-3.1"/>
			<path class="s0" d="m183.7 191.1c0-1.7 1.2-3.1 2.9-3.1 1 0 1.8 0.5 2.2 1.3v-1.1h1.3v5.8h-1.3v-1.1c-0.5 0.9-1.3 1.3-2.2 1.3-1.7 0-2.9-1.4-2.9-3.1zm5 0c0-1.1-0.8-1.9-1.8-1.9-1.1 0-1.8 0.8-1.8 1.9 0 1 0.7 1.8 1.8 1.8 1 0 1.8-0.8 1.8-1.8z"/>
			<path class="s0" d="m191.3 191.1c0-1.7 1.2-3.1 2.8-3.1 1.1 0 1.9 0.5 2.3 1.3v-2.8h1.3v7.5h-1.2v-1.1h-0.1c-0.5 0.9-1.3 1.3-2.3 1.3-1.6 0-2.8-1.4-2.8-3.1zm4.9 0c0-1.1-0.7-1.9-1.7-1.9-1.1 0-1.8 0.8-1.8 1.9 0 1 0.7 1.8 1.8 1.8 1 0 1.7-0.8 1.7-1.8z"/>
			<path class="s0" d="m198.9 191.1c0-1.8 1.4-3.1 3.2-3.1 1.8 0 3.2 1.3 3.2 3.1 0 0.1 0 0.3-0.1 0.4h-4.9c0.2 0.8 0.9 1.4 1.8 1.4 0.7 0 1.3-0.3 1.6-0.9h1.4c-0.4 1.3-1.5 2.1-3 2.1-1.8 0-3.2-1.3-3.2-3.1m4.9-0.5c-0.1-0.7-0.8-1.3-1.7-1.3-1 0-1.7 0.6-1.8 1.3z"/>
			<path class="s0" d="m215.6 190.3v3.7h-1.3v-3.3c0-1-0.4-1.5-1.2-1.5-1 0-1.4 0.8-1.4 1.6v3.2h-1.3v-3.4c0-0.8-0.4-1.4-1.3-1.4-0.9 0-1.4 0.8-1.4 1.6v3.2h-1.3v-5.8h1.3v1h0.1c0.3-0.7 0.9-1.2 1.7-1.2 1 0 1.7 0.5 2 1.2h0.1c0.3-0.7 0.9-1.2 1.9-1.2 1.4 0 2.1 1.1 2.1 2.3"/>
			<path fill-rule="evenodd" class="s0" d="m218.6 193.1l-2.3-4.9h1.4l1.6 3.4 1.5-3.4h1.4l-3.4 7.5h-1.4l1.2-2.6z"/>
		</g>
	</g>
</svg>