<svg version="1.2" xmlns="http://www.w3.org/2000/svg" viewBox="0 0 86 56" width="86" height="56">
	<title>17</title>
	<style>
		.s0 { fill: #ffb300 } 
		.s1 { fill: #0067b2 } 
		.s2 { fill: #059e82 } 
		.s3 { fill: #39445d } 
	</style>
	<path class="s0" d="m41.9 23.6c-0.3-4.6-3.1-8.2-8.9-8.4 0 0-0.1 0-0.2 0 0 0-0.1 0-0.2 0-8.3 0-17.6 9.2-17.6 9.2 0 0 9.3 9.2 17.6 9.2 0 0 0.1 0 0.2 0 0.1 0 0.1 0 0.2 0 5.8-0.2 8.6-3.8 8.9-8.4 0-0.5 0-1.2 0-1.7z"/>
	<path class="s1" d="m53.9 15.3c0 0 0 0.1 0 0.2 0 0.2 0 0.2 0 0.3 0 2.8-1.1 5.2-2.8 6.9-1.6 1.5-3.8 2.4-6.3 2.6-0.3 0-0.6 0-0.8 0 0 0 0 0 0 0.1 0.3 4.6 3.1 8.2 8.9 8.4 0 0 0.1 0 0.2 0 0 0 0.1 0 0.2 0 8.3 0 17.6-9.2 17.6-9.2 0 0-8.9-8.8-17-9.2z"/>
	<path class="s2" d="m52 15.2c0-7.2-8.2-15.2-8.2-15.2 0 0-7.1 7-8.1 13.7 2.1 0.5 3.8 1.4 5.1 2.8 1.7 1.7 2.7 4.1 2.9 6.9 0.3 0 0.6 0 0.8 0 4.1-0.3 7.3-2.7 7.4-7.7 0 0 0-0.1 0-0.2 0-0.1 0-0.1 0-0.2z"/>
	<g>
		<path class="s3" d="m14.4 56l6.8-14.6h3l6.8 14.6h-3.8l-0.6-1.3c-0.4-1-1.4-1.6-2.4-1.6h-4.8l-1.3 3h-3.8zm8.3-10.6l-1.9 4.6h3.9l-1.9-4.6z"/>
		<path class="s3" d="m33.8 56l-5.8-14.6h3.9l3.6 9.1 3.3-9.1h2.7l3.1 9.3 3.8-9.3h3.7l-5.9 14.6h-3l-3.1-8.8-3.2 8.8h-3z"/>
		<path class="s3" d="m49 56l6.8-14.6h3l6.8 14.6h-3.8l-0.6-1.3c-0.4-1-1.4-1.6-2.4-1.6h-4.8l-1.3 3h-3.8zm8.3-10.6l-1.9 4.6h3.9l-1.9-4.6z"/>
		<path class="s3" d="m67.2 41.4h7c1.6 0 2.8 0.3 3.6 1 0.9 0.7 1.3 1.6 1.3 2.7 0 1.1-0.2 1.4-0.6 2-0.4 0.6-0.9 1-1.6 1.3 0.8 0.2 1.4 0.7 1.9 1.2 0.4 0.6 0.7 1.3 0.7 2.2 0 1.3-0.5 2.3-1.4 3-0.9 0.7-2.2 1.1-3.7 1.1h-7.2v-14.6zm3.6 5.8h2.7c0.7 0 1.2-0.1 1.5-0.4 0.3-0.2 0.5-0.6 0.5-1.1 0-0.5-0.2-0.9-0.5-1.1-0.3-0.2-0.8-0.4-1.5-0.4h-2.7zm0 6h3.1c0.7 0 1.2-0.1 1.5-0.4 0.3-0.3 0.5-0.7 0.5-1.2 0-0.5-0.2-0.9-0.5-1.2-0.3-0.3-0.8-0.4-1.5-0.4h-3.1z"/>
		<path class="s3" d="m82 56v-12.1c0-1.4 1.1-2.5 2.5-2.5h1.3v14.6z"/>
		<path class="s3" d="m0 56v-14.6h7.6c1.7 0 2.9 0.4 3.8 1.2 0.9 0.8 1.4 1.9 1.4 3.4 0 1.5-0.3 2-0.8 2.7-0.5 0.7-1.3 1.3-2.4 1.5 0.8 0.2 1.4 0.7 1.9 1.6l2.3 4.1h-4.2l-2.5-4.6q-0.3-0.4-0.6-0.6c-0.3-0.1-0.5-0.2-0.9-0.2h-1.7v5.4h-3.9zm3.8-8.1h3.1c1.5 0 2.3-0.6 2.3-1.8 0-1.2-0.8-1.8-2.3-1.8h-3.1v3.5z"/>
	</g>
</svg>