<svg version="1.2" xmlns="http://www.w3.org/2000/svg" viewBox="0 0 600 191" width="600" height="191">
	<title>18</title>
	<style>
		.s0 { fill: #888888 } 
		.s1 { fill: #9c5789 } 
	</style>
	<path class="s0" d="m527.5 46.1c-40 0-72.4 32.4-72.4 72.4 0 40 32.4 72.4 72.4 72.4 40 0 72.4-32.4 72.4-72.4 0-40-32.4-72.4-72.4-72.4zm0 115.1c-23.6 0-42.7-19.1-42.7-42.7 0-23.6 19.1-42.7 42.7-42.7 23.6 0 42.7 19.1 42.7 42.7 0 23.6-19.1 42.7-42.7 42.7z"/>
	<path class="s0" d="m374 46.1c-40 0-72.4 32.4-72.4 72.4 0 40 32.4 72.4 72.4 72.4 40 0 72.4-32.4 72.4-72.4 0-40-32.4-72.4-72.4-72.4zm0 115.1c-23.6 0-42.7-19.1-42.7-42.7 0-23.6 19.1-42.7 42.7-42.7 23.6 0 42.7 19.1 42.7 42.7 0 23.6-19.1 42.7-42.7 42.7z"/>
	<path class="s0" d="m280.6 0.1h-0.1c-7.9 0-14.3 6.5-14.3 14.4v46.2c-12.2-9.1-27.3-14.6-43.7-14.6-40 0-72.4 32.4-72.4 72.4 0 40 32.4 72.4 72.4 72.4 40 0 72.4-32.4 72.4-72.4v-0.6c0-0.2 0-0.5 0-0.7v-102.7c0-7.9-6.5-14.4-14.4-14.4zm-58.1 161.1c-23.6 0-42.7-19.1-42.7-42.7 0-23.6 19.1-42.7 42.7-42.7 23.6 0 42.7 19.1 42.7 42.7 0 23.6-19.1 42.7-42.7 42.7z"/>
	<path class="s1" d="m72.5 45.9c-40 0-72.5 32.4-72.5 72.4 0 40 32.4 72.4 72.4 72.4 40 0 72.4-32.4 72.4-72.4 0-40-32.4-72.4-72.3-72.4zm-0.7 115.4c-23.6 0-42.7-19.1-42.7-42.7 0-23.6 19.1-42.7 42.7-42.7 23.6 0 42.7 19.1 42.7 42.7 0 23.6-19.1 42.7-42.7 42.7z"/>
</svg>