<svg version="1.2" xmlns="http://www.w3.org/2000/svg" viewBox="0 0 140 59" width="140" height="59">
	<title>19</title>
	<style>
		.s0 { fill: #675c58 } 
		.s1 { fill: #66b360 } 
		.s2 { fill: #c1cd23 } 
		.s3 { fill: #387c2b } 
	</style>
	<g id="Layer_1-2">
		<g>
			<g>
				<path fill-rule="evenodd" class="s0" d="m38.1 28.7h101.1v0.5h-101.1z"/>
				<path class="s0" d="m50.4 14v5.6c0 0 0.3 0.2 0.4 0.2h1.7l0.1-0.1v-3.3h1.1v1.5c1-1.4 3.3-2.2 4.8-1 0.3 0.2 0.8 0.9 0.8 1.3v1.6l4.4-0.1v-1.5c0-0.1-0.4-0.6-0.5-0.7-0.8-0.5-1.6-0.2-2.4-0.1v-0.9c1.2-0.2 2.7-0.5 3.5 0.6 0.2 0.2 0.5 0.7 0.5 0.9v1.7c0.5 0.3 1.4 0.1 2 0v-5.7h1.1v6c0 0-0.2 0.4-0.3 0.5-0.3 0.3-2 0.3-2.4 0.2-0.3 0-0.5-0.4-0.5-0.4-0.1 0-0.5 0.4-0.8 0.4-0.5 0.1-4.3 0.1-4.5 0-0.1-0.1-0.2-0.4-0.2-0.4-0.2 0-0.3 0.2-0.5 0.3-0.4 0.2-7.3 0.2-8.2 0.1-0.5 0-1.2-0.4-1.2-0.9v-5.8c0 0 1.1 0 1.1 0zm3.3 5.8h4.3c0.3 0 0.5-1.9-0.5-2.4-1.6-0.7-3.4 0.9-3.8 2.4z"/>
				<path class="s0" d="m111.7 19.7c0.1 0.2 1.8 0.2 2.1 0v-3.3h1.1v3.3c0 0.3 0.6 0 0.7 0 0.5 0 0.9 0 1.4 0-0.6-1.8 0.3-3.7 2.4-3.4 0.7 0.1 1.5 0.8 1.5 1.6v1.8c0.6 0.2 1.3 0.2 1.9 0v-3.3h1.1v3.6c0 0-0.3 0.4-0.3 0.5-0.4 0.3-2.2 0.3-2.8 0.2-0.2 0-0.7-0.3-0.8-0.2 0 0-0.3 0.2-0.4 0.3-0.4 0.2-0.9 0.2-1.3 0.1-0.3 0-0.8-0.5-1-0.5-0.1 0.1-0.1 0.3-0.2 0.3-0.1 0.1-1.7 0.1-1.9 0-0.2 0-0.4-0.3-0.5-0.3 0 0-0.3 0.2-0.4 0.3-0.4 0.1-2.3 0.1-2.7 0-0.3 0-0.6-0.3-0.8-0.3-0.2 0-0.7 0.4-1.1 0.4-2.6 0.2-2.6-4-0.5-4.4 0.5-0.2 1.1 0.1 1.5 0 0.1 0 1-0.5 1-0.1v3.4zm-1.1-2.3c-2.4-0.9-2.4 3.3 0 2.4zm8.9 0.1c-0.2-0.3-0.6-0.3-0.9-0.2-1.2 0.2-1 3.2 0.7 2.7 0.1-0.1 0.4-0.3 0.4-0.4 0.1-0.4 0.1-1.8-0.2-2.1z"/>
				<path class="s0" d="m79.6 14v5.7c0 0.3 1.8-0.2 2 0.1l0.2-0.1v-3.3h1v1.5l0.9-0.8c1.6-1.3 4.6-1.1 4.8 1.4 0.1 0.9 0.1 2.1-1 2.2h-7.9c0 1.3-1 2.1-2.2 2.2-1.8 0.2-3.8 0-4-2.1-0.1-1-0.3-2.6 1.1-2.5v2.5c0 0 0.2 0.5 0.2 0.6 0.5 0.8 2.9 0.8 3.5 0.2 0-0.1 0.3-0.6 0.3-0.6v-7h1.1zm3.3 5.7h4.3c0.4-0.7 0.2-1.8-0.6-2.3-1.5-0.8-3.3 0.9-3.7 2.3z"/>
				<path class="s0" d="m69.5 44.7l3.9-11 1.8-0.1 3.9 11.1h-1.5l-1.1-3.2-4.4-0.1-1.1 3.3h-1.5zm6.5-4.5l-1.7-5.1-1.8 5.1z"/>
				<path class="s0" d="m113.8 36.7h1.1v1.1c1.2-1.4 3.5-1.9 4.6-0.1 0.9-1 2.1-1.4 3.4-1 0.5 0.1 1.4 0.8 1.4 1.3v6.7h-1.2v-5.9c0-0.1-0.3-0.8-0.5-0.9-0.8-0.6-2.2-0.2-2.7 0.7 0 0.1-0.2 0.6-0.2 0.7v5.4h-1.2v-5.4c0 0-0.1-0.7-0.2-0.8-0.3-1-1.6-1.1-2.4-0.6-0.3 0.3-0.9 1.1-0.9 1.5v5.3h-1.2v-8z"/>
				<path class="s0" d="m54.3 36.9h-1.5c-0.2-1.9-2.2-2.6-3.9-2.1-3.7 0.9-3.4 8.4 0.4 8.8 2.3 0.3 3.4-0.7 3.8-2.9l1.4-0.1c-0.3 3.3-2.8 4.9-6 4.1-5.2-1.2-4.7-10.7 0.7-11.3 2.6-0.2 4.6 0.8 5.1 3.5z"/>
				<path class="s0" d="m65.3 36.9h-1.4c-0.2-2-2.4-2.6-4.1-2.1-3.4 1.1-3.2 8.5 0.7 8.8 2.3 0.3 3.3-0.7 3.7-2.9l1.4-0.1c-0.3 3.3-2.8 4.9-5.9 4.2-5.3-1.3-4.8-10.8 0.6-11.3 2.5-0.3 4.7 0.7 5 3.4z"/>
				<path class="s0" d="m103.2 33.6v11.1h-1.2l-0.1-1-0.7 0.8c-3.9 1.7-5.9-2-4.9-5.4 0.7-2.7 3.9-3.4 5.7-1.4v-4.1h1.2zm-3.9 4.1c-2.8 0.5-2.8 6.5 0.8 6 2.7-0.4 2.5-6.5-0.8-6z"/>
				<path class="s0" d="m102.3 14v6c0 0.3-0.7 0.7-1 0.7-0.3 0.1-2 0.1-2.2-0.1-0.1 0-0.1-0.3-0.1-0.3-0.9 0.7-2 0.3-3 0.4 0 1.5-1.6 2.5-2.9 2.2-0.3 0-0.7-0.6-0.6-1 1 0.3 2.2 0 2.4-1.1-1.8 0.1-3.2-0.8-2.9-2.8 0.3-1.5 2-2.1 3.3-1.4 1.1 0.7 0.5 2.1 0.8 3.2 0.1 0.1 1.7 0.2 1.9-0.2v-3.2h1.1v3.4h1.9c0 0 0.1-0.1 0.2-0.1v-5.7h1.1zm-7.4 5.7v-1.9c0-0.1-0.3-0.4-0.4-0.5-1.3-0.5-1.9 1.7-0.9 2.3 0.3 0.2 1.2 0.4 1.3 0.1z"/>
				<path class="s0" d="m93.8 37.3c0 0 0.2 0.3 0.3 0.4 0.7 1.4-0.2 4.4 0.3 6 0.3 0.3 0.8 0 0.9 0v1c-1.1 0.3-1.9 0.3-2.3-0.9-1.4 1.8-5.3 1.5-5.3-1.2 0-1.3 0.8-1.8 1.9-2.2 0.8-0.2 2.8-0.5 3.3-0.8 0.4-0.2 0.1-1.2-0.2-1.5-0.8-0.7-3.4-0.5-3.3 1h-1.3c0-0.9 0.4-1.8 1.3-2.2 1.1-0.5 3.4-0.5 4.4 0.4zm-0.7 3.3c-1.1 0.4-5.1 0.7-3.9 2.7 0.8 1.2 3.9 0.2 3.9-1.1z"/>
				<path class="s0" d="m112 41.1h-5.9c-0.4 2.3 2.8 3.6 4.1 1.8 0.1-0.2 0.2-0.5 0.3-0.6 0.3-0.2 0.9 0 1.3-0.1-0.3 2.2-2.7 3.1-4.7 2.5-3.8-1.2-3-9.2 2.2-8.1 2.2 0.5 2.7 2.5 2.7 4.5zm-1.4-1c0.2-2.5-3.3-3.4-4.3-1-0.1 0.1-0.4 1-0.1 1z"/>
				<path class="s0" d="m132.8 36.7l-3.7 10.1c-0.6 1.2-1.8 1.6-3.1 1l0.2-1.1c1.6 0.6 1.9-0.8 2.3-2l-2.7-8 1.3 0.1 2 6.1 2.3-6.2h1.4z"/>
				<path class="s0" d="m86.6 39.4h-1.2c-0.2-1.4-1.4-2-2.8-1.5-1.6 0.6-1.8 3.8-0.8 5 1 1.4 3.5 1 3.6-0.9h1.3c-0.1 2.3-2.1 3.3-4.2 2.8-2.7-0.7-3.2-4.3-2-6.5 1.4-2.7 6-2.2 6.1 1.1z"/>
				<path class="s0" d="m131.3 19.6c0 0 0.1 0.2 0.2 0.2 0.2 0.1 3.2 0.1 3.6 0 0.2 0 0.4 0 0.6-0.1 0-1.5-1.3-2.7-2.8-2.8v-1.1l3.2-1.9c0.1 0.3 0.1 0.8 0 1-0.1 0.3-1.5 0.9-1.8 1.1 0 0.1-0.1 0.2 0 0.2 0.8 0.2 1.8 1.1 2.1 1.8 0.5 0.9 0.8 2.6-0.6 2.7-0.9 0.2-3.6 0.1-4.6 0-0.3 0-1-0.4-1-0.7v-6h1.1v5.6z"/>
				<path class="s0" d="m39.2 20.6c0 0.2 0.2 0.7 0.4 0.9 0.5 0.8 3.5 0.8 3.6-0.3 0.2-1.3-2.1-0.9-2.6-2.2-0.8-2 1.1-3.1 2.9-2.6v0.9c-0.9-0.3-2.2-0.1-2 1.2 0.2 0.9 2.8 0.7 2.8 2.5 0 1.3-1.1 1.9-2.2 1.9-2 0.2-3.8 0-4-2.3-0.1-0.9 0.1-1.5 1.1-1.5 0.1 0.5 0 1 0 1.5z"/>
				<path class="s0" d="m125 20.7v-0.9h2.5c0 0 0.3-0.1 0.3-0.2 0.3-1.4-0.3-2.6-1.9-2.4v-0.9c2.3-0.3 3.4 1.2 3.1 3.4-0.1 0.4-0.5 1-0.9 1z"/>
				<path class="s0" d="m48 16.4v4.6c0 0.4-0.5 1.1-0.8 1.4-0.7 0.6-2.5 1.1-2.5-0.4 0.7 0.1 1.6 0.1 2-0.6 0-0.1 0.2-0.6 0.2-0.6v-4.4z"/>
				<path class="s0" d="m70.4 14v6.4c0 0.2-0.9 0.7-1.2 0.5v-6.9z"/>
				<path class="s0" d="m104.7 14v6.5c0 0.2-0.9 0.6-1.1 0.4v-6.9z"/>
				<path class="s0" d="m139.1 14v6.5c0 0.2-0.9 0.6-1.1 0.4v-6.9z"/>
				<path class="s0" d="m90.8 14v6.5c0 0.1-0.9 0.6-1.1 0.4v-6.9z"/>
				<path class="s0" d="m137.7 13.2v-0.3l0.3-0.1c-0.4-1 0.1-1.5 1.2-1.4v0.5c-1.3-0.1-0.9 1.2 0.3 0.9 0 0.1-0.1 0.4-0.2 0.4z"/>
				<path class="s0" d="m112.8 21.4c0.8-0.1 0.9 1.1 0.2 1.2-0.8 0.2-1-1-0.2-1.1z"/>
				<path class="s0" d="m40.3 23.6c0.8-0.3 1.1 0.9 0.4 1.1-0.8 0.3-1-1-0.4-1.2z"/>
				<path class="s0" d="m121.7 21.4c0.8-0.2 1.1 1 0.4 1.2-0.9 0.3-1.1-1-0.4-1.1z"/>
				<path class="s0" d="m123.2 21.4c1.1-0.2 0.8 1.7-0.2 1.1-0.5-0.2-0.4-0.9 0.2-1z"/>
				<path class="s0" d="m41.8 23.6c0.9-0.2 1 1.1 0.2 1.1-0.6 0.1-0.9-1-0.2-1.2z"/>
				<path class="s0" d="m109.6 14.3c0.7-0.1 1 1.1 0.1 1.2-0.8 0.1-0.8-1.1-0.1-1.2z"/>
				<path class="s0" d="m98.6 14.4c0.7-0.1 0.8 1 0.1 1.1-0.9 0.2-0.9-1.1-0.1-1.1z"/>
				<path class="s0" d="m97.1 14.3c0.7-0.1 1 1.1 0.1 1.2-0.8 0.1-0.8-1.1-0.1-1.2z"/>
				<path class="s0" d="m56.1 14.3c0.7-0.1 1 1.1 0.1 1.2-0.8 0.1-0.8-1.1-0.1-1.2z"/>
				<path class="s0" d="m111.1 14.4c1-0.2 0.7 1.7-0.3 1-0.5-0.3-0.2-1 0.3-1z"/>
				<path class="s0" d="m114.2 21.4c0.8-0.2 1 1.1 0.2 1.2-0.7 0.1-0.9-1-0.2-1.1z"/>
			</g>
			<g>
				<path class="s1" d="m2.8 24.6l18 13.1-17.5 13.6c-1.8 1.4-2.1 3.9-0.7 5.6 1.5 1.8 4 2.1 5.8 0.7l21.6-16.9q0.5-0.3 0.8-0.7c1.3-1.8 1-4.3-0.9-5.7l-22.2-16.1c-1.8-1.3-4.4-1-5.7 0.8-1.4 1.8-1 4.3 0.8 5.6z"/>
				<path class="s2" d="m1.7 7.3l17.9 13-17.5 13.6c-1.7 1.4-2 3.9-0.6 5.6 1.4 1.8 3.9 2.1 5.7 0.7l21.7-16.9q0.4-0.3 0.7-0.8c1.4-1.7 1-4.3-0.8-5.6l-22.3-16.1c-1.8-1.3-4.3-1-5.7 0.8-1.3 1.8-1 4.3 0.9 5.6z"/>
				<path fill-rule="evenodd" class="s3" d="m15.2 23.7l-6.6 5.1 6.8 5 6.7-5.2-6.9-4.9z"/>
			</g>
		</g>
	</g>
</svg>