<svg version="1.2" xmlns="http://www.w3.org/2000/svg" viewBox="0 0 314 179" width="314" height="179">
	<title>20</title>
	<style>
		.s0 { fill: #729a3d } 
	</style>
	<g id="Layer_1-2">
		<g>
			<path class="s0" d="m26.2 113.2c4.8 0 6.7 1.7 7.8 6.2 0.9 3.2 5.2 2.9 9.4 1.7 3.9-1.2 7.7-2.6 5.9-9.8-4.1-12.2-12.4-14.4-23.1-14.3-15.2 0.1-26.2 5-26.2 38.5 0 32.7 12.6 38 26.1 37.8 11-0.2 21-2.7 23.3-15.1 1.4-7.8-3-9.2-6.5-10-2.3-0.5-7.5-0.5-7.9 1.8-1 5.1-3.4 7-8.9 7.1-9.6 0.1-9.6-10.9-9.6-21.8 0-10.6 0-22 9.7-22.1z"/>
			<path class="s0" d="m94.1 142.1c8.9-3.6 12.3-9.8 12.4-20.1 0.1-25.5-18.1-24.9-44.5-24.7h-5.5c-1.7 0.2-2.8 1.4-2.8 3.1 0 13.3-0.2 26.6-0.3 38.7v0.5c0 10.6 0 20.4 0.1 28.6 0 1.7 1.3 3.1 3.1 3l9.8-0.1c1.7 0 3-1.2 3.1-2.9 0.2-5.2 0.3-13.4 0.4-22.3q4.6-0.2 8.6-0.6c4.5 8.1 6.4 13.5 11.8 23.7 0.5 1 1.4 1.8 2.6 1.7l9.9-0.1c2.8 0 4.6-2.5 3.4-4.9-4.8-10.4-8.2-16.3-12.1-23.7zm-24.2-9.7c0-7 0-13.8-0.1-19.3 12.4-0.4 20.7-0.7 20.6 9.1 0 9.6-9 10.2-20.5 10.2z"/>
			<path class="s0" d="m153.7 106.2l-5 24.5c-4 19.5-4.4 30.9-16 28.7-12.1-2.2-8-10.6-3.9-30.9l5.3-25.9c0.8-3.6-14.8-6.5-15.6-2.9l-5 24.4c-7.9 38.3-5.4 47.7 15.8 51.5 21.3 3.9 27.2-4.6 35-42l5.1-24.5c0.7-3.5-14.9-6.4-15.7-2.9z"/>
			<path class="s0" d="m273.1 111.3c-0.6-0.4-1.2-0.9-1.3-1.2-0.3-0.8-1.6-2.4-1.6-2.4l-6.7 0.3c0 0-0.2-0.4-0.4-1.8-0.2-1.4-3.5 0.4-3.8 0.5-0.1 0-0.8-2.1-1.3-3.9q-0.4 0.1-0.6 0.4c-0.5 0.5-0.8 1.2-0.7 2.4l2.5 24.1-18.6 2.2c-0.8-7.3-1.2-27-3.7-31.9-1.8-3.3-14.5-3.3-15.6 1.9-1.2 6 8.1 74.3 8.1 74.3 0.2 2.5 1.6 2.7 3.4 2.7 3.1-0.1 6.3-0.5 9.4-1.2 1.7-0.5 2.9-0.8 2.7-3.2-0.1-1.8-1.3-13.8-2.7-27.2l18.7-2.3 2.8 26.9c0.2 2.5 1.6 2.7 3.3 2.7 3.2-0.1 6.4-0.5 9.5-1.2 1.6-0.4 2.8-0.8 2.6-3.2-0.2-3.2-4.1-41.6-5.9-58.8z"/>
			<path fill-rule="evenodd" class="s0" d="m288.9 56.7l-13-2.1-6.8 38.1 4.7 0.9 15.1-36.9z"/>
			<path fill-rule="evenodd" class="s0" d="m278.1 101.5l34.7-12.1-6.1-14.3-30.6 22.1 2 4.3z"/>
			<path fill-rule="evenodd" class="s0" d="m281.1 104.3l-1.9 4.4 26.8 16.8 7.4-13.8-32.4-7.4z"/>
			<path class="s0" d="m263.5 103.8c0.3-0.2 1.1-1.6 0.4-1.7-0.6 0 0-0.6-0.9-0.2-1 0.4-1.1 0.5-1.1 0.9 0 0.4-0.1 0.7-0.1 0.7l0.9 1c0 0 0.4-0.5 0.8-0.7z"/>
			<path class="s0" d="m266.9 104.9c-0.1 0.4-0.4 0-0.3 0.6 0.2 0.5 0.4 0.2 0.6 0.2 0.3 0.1 0.3 0.5 0.3 0.5l0.6-0.4c0 0-0.1-0.5-0.2-0.7-0.1-0.2-0.9-0.5-1-0.2z"/>
			<path class="s0" d="m265.8 99.7c1.6-0.5 2.1-2.2 3.3-0.6 1.1 1.5 1.5 6.6 2.8 5.9 1.3-0.7 3.8 0.8 3.8 1.7 0 0.9 0.7 1.6 0.7 1.6 0 0 2.5-3.9 0-7.8-2.6-3.9-5.5-6-8.3-4.7-2.7 1.4-4.7 2.6-4.7 2.6 0 0 0.8 1.7 2.4 1.3z"/>
			<path fill-rule="evenodd" class="s0" d="m285.4 103.6l8.3 0.6v-3l-8.3 0.8v1.6z"/>
			<path fill-rule="evenodd" class="s0" d="m282.2 84.8l-5 6.7 1.2 1.1 6.1-5.9-2.3-1.9z"/>
			<path class="s0" d="m190 133.1c-7.9-1.3-7-9.9 0.1-11 4.5-0.8 12.4 0.2 20.3 3.1 6.2 2.2 11.1-10.1 6.2-12.9-7.4-4.2-18.2-5.3-25.9-4.7-9.2 0.7-22.2 8-21.7 21.2 1.1 21.8 21.9 19.1 30.4 21.4 7 1.8 7.1 12.1-1.4 12.9-12.1 1.2-16-4-20.7-7.1-4-2.6-10.4 8.4-6.8 11.9 4.5 4.1 13 10.1 27 9.4 16.8-1 22.6-14.2 22.9-21.1 0.9-19.3-14.5-20.6-30.4-23.1z"/>
			<path fill-rule="evenodd" class="s0" d="m64.5 40.6l-15.2 8.5 3.8 5.3 13.4-11-2-2.8z"/>
			<path fill-rule="evenodd" class="s0" d="m66.2 34.1l-15.8-7-2.1 6.3 16.9 4.1 1-3.4z"/>
			<path fill-rule="evenodd" class="s0" d="m69.3 29.8l-5-16.6-6.1 2.6 8 15.3 3.1-1.3z"/>
			<path class="s0" d="m77.1 36.3c0.4 0.2-0.2 0.5 0.6 0.4 0.8-0.1 0.8-0.2 0.9-0.4 0.1-0.3 0.2-0.5 0.2-0.5l-0.4-0.9c0 0-0.4 0.3-0.7 0.4-0.3 0-1.1 0.8-0.6 1z"/>
			<path class="s0" d="m75.4 38.6c0.2-0.3 0.3 0.1 0.3-0.4 0-0.4-0.2-0.2-0.4-0.3-0.1 0 0-0.4 0-0.4l-0.5 0.2c0 0-0.1 0.4-0.1 0.5 0.1 0.2 0.6 0.6 0.7 0.4z"/>
			<path class="s0" d="m70.5 31.4c0 0-3.2 0.8-3.9 4.2-0.6 3.3-0.2 5.9 2 6.6 2.1 0.7 3.7 1.1 3.7 1.1 0 0 0.5-1.3-0.6-1.9-1.1-0.6-2.2 0.1-2-1.4 0.2-1.4 2.6-4.3 1.6-4.6-1-0.2-1.6-2.3-1.2-2.8 0.5-0.5 0.5-1.2 0.5-1.2z"/>
			<path fill-rule="evenodd" class="s0" d="m63.5 29.3l-4-4.6-1.5 1.7 4.7 3.8 0.8-0.9z"/>
			<path fill-rule="evenodd" class="s0" d="m55.6 41l6.1-1.1-0.1-1.1-6.2-0.1 0.2 2.3z"/>
			<path class="s0" d="m183.5 69.8c-1.1 2.5-1.5 5.8-0.9 8.4 0.1 0.5 0.3 0.9 0.6 1 2.4 0.8 4.3 1.1 7.6 1.1 10.4-0.1 12.2-2.9 12.4-19.3q0-1.3 0-2.5c7 0 16 0 21.8 0 4.6-0.3 6.8-6.2 4.2-10-2.7-4.3-12.2-20.5-18.7-31.4 6.6-0.9 22.6-0.7 23.3-0.7 3.8 0 5.7-11.5-0.9-11.4 0 0-23.9 0.5-31.6 0.5-3.9-0.4-8.2 4.4-5.3 9.1 3 4.9 12.8 21.2 19.8 32.4-3.6 0.5-8.5-0.1-12.7-0.1-0.1-5.6-0.3-9.6-0.3-12.5 0-2.1-1.6-2.4-3.4-2.7-1-0.1-2.8-0.1-3.7 0-1.8 0.3-3.4 0.6-3.4 2.7-0.1 3.6-0.3 20.7-0.4 26.7 0 3.8 0.2 8-2 8-1.5 0-3.2 0.2-4.8-0.1-0.7-0.1-1.3 0.2-1.6 0.8z"/>
			<path class="s0" d="m163.5 72.6c0.1 0.5 0.4 0.8 0.7 1 2.4 0.7 4.2 1.1 7.6 1.1 10.4-0.1 12.3-2.9 12.4-19.3 0.1-13.6-0.4-21.7-0.4-26.7 0-2.1-1.6-2.4-3.4-2.7-1-0.1-2.8-0.1-3.8 0-1.7 0.3-3.4 0.6-3.4 2.7 0 3.6-0.3 20.8-0.3 26.8 0 3.8 0.2 8-2 8-1.5 0-3.3 0.1-4.9-0.1-0.6-0.1-1.3 0.2-1.5 0.8-1.2 2.4-1.6 5.8-1 8.4z"/>
			<path class="s0" d="m141.1 69.4c-1.4 2.3-2.1 5.7-1.8 8.3 0.1 0.5 0.3 0.9 0.7 1 2.3 1 4.1 1.6 7.4 1.8 10.5 0.9 12.5-1.7 14.1-18.1 1.3-13.6 1.5-21.7 2-26.7 0.2-2.1-1.4-2.5-3.1-3-1-0.2-2.8-0.4-3.8-0.3-1.8 0.1-3.4 0.3-3.6 2.4-0.4 3.6-2.2 20.7-2.7 26.6-0.4 3.9-0.6 8-2.7 7.8-1.5-0.1-3.3-0.1-4.9-0.5-0.6-0.1-1.3 0.1-1.6 0.7z"/>
			<path class="s0" d="m108 21.4c1.7 0.9 3.4 0.8 5-0.4 1.6-1.4 4.7-4.6 7.3-7.6 3.4 1.9 7.3 4 9.3 4.7 1.8 0.6 3.5 0.1 4.8-1.3 0.8-0.6 1.8-2.2 2.2-3.2 0.5-1.7 0.3-3.5-1.1-4.8-2.4-2.3-10.8-6.6-14.1-8.1-0.1-0.1-0.3-0.2-0.4-0.2-1.6-0.8-3.8-0.6-5.3 0.7-0.1 0-0.2 0.1-0.3 0.3-0.2 0.1-0.4 0.3-0.5 0.5-2.9 2.9-9.1 9.5-10.6 12.2-0.8 1.7-0.5 3.5 0.6 4.9 0.6 0.9 2.2 2 3.1 2.4z"/>
			<path class="s0" d="m75.5 55.7c4.7 27.6 8.8 33.2 23.9 30.5 11.3-2 15.2-6.5 14.6-19.5 2.3 0.4 5.4 0 7.6-1 1.4-0.4 2.4-1.3 2.7-2.8 0.3-2.6 0.7-6.3 1.2-10.5 1.9 3.8 3.7 7.1 5.1 9.4 1.2 2.2 6.7 2 10 0.5 1.2-0.4 2.3-1.2 2.6-2.7 1-7.1 3-23.3 4-30.7 0.2-2-1.4-3.3-3-3.9-0.9-0.4-2.8-0.6-3.8-0.5-1.9 0.2-3.7 1.1-4 3-0.5 3.9-1.3 10.2-2.2 16.4-2.9-5.8-5.9-11.5-7.6-14.6-1.5-2.7-6.9-2.4-9.2-0.1-0.5 0.5-0.8 1-1 1.8-0.3 3.5-0.9 9.1-1.5 14.8l-5.6-12.1-0.3-2.2c-0.5-2.5-11.7-0.5-11.3 2l3 17.7c2.4 14.1 5.1 21.8-3.2 23.3-8.7 1.6-8.1-5.1-10.7-19.7l-3.5-17.6c0 0-0.6 0.4-1.5 0.1-0.4-0.1-1.4 0.8-1.7 1.5-0.2 0.5-0.1 1-0.2 1.1-0.9 0.4-1.4 0.3-2.4 0.2-1 0-2.3-0.5-3 0.6-0.4 0.6 0.3 1.7 0.3 2-0.2 1-1.5 1.4-1.5 1.4l0.3 1.3c0 0 1.9 10.3 1.9 10.3z"/>
		</g>
	</g>
</svg>