<svg version="1.2" xmlns="http://www.w3.org/2000/svg" viewBox="0 0 88 45" width="88" height="45">
	<title>21</title>
	<defs>
		<linearGradient id="g1" x2="1" gradientUnits="userSpaceOnUse" gradientTransform="matrix(24.8,-8.27,4.544,13.626,40.71,40.56)">
			<stop offset="0" stop-color="#fbe902"/>
			<stop offset=".14" stop-color="#f4e802"/>
			<stop offset=".34" stop-color="#e3e802"/>
			<stop offset=".57" stop-color="#c6e802"/>
			<stop offset=".82" stop-color="#9fe802"/>
			<stop offset="1" stop-color="#7de803"/>
		</linearGradient>
		<linearGradient id="g2" x2="1" gradientUnits="userSpaceOnUse" gradientTransform="matrix(29.71,-14.6,12.956,26.365,7.488,23.239)">
			<stop offset="0" stop-color="#fbe902"/>
			<stop offset=".14" stop-color="#f4e802"/>
			<stop offset=".34" stop-color="#e3e802"/>
			<stop offset=".57" stop-color="#c6e802"/>
			<stop offset=".82" stop-color="#9fe802"/>
			<stop offset="1" stop-color="#7de803"/>
		</linearGradient>
		<linearGradient id="g3" x2="1" gradientUnits="userSpaceOnUse" gradientTransform="matrix(29.71,-14.6,10.529,21.426,12.29,33.01)">
			<stop offset="0" stop-color="#fbe902"/>
			<stop offset=".14" stop-color="#f4e802"/>
			<stop offset=".34" stop-color="#e3e802"/>
			<stop offset=".57" stop-color="#c6e802"/>
			<stop offset=".82" stop-color="#9fe802"/>
			<stop offset="1" stop-color="#7de803"/>
		</linearGradient>
		<linearGradient id="g4" x2="1" gradientUnits="userSpaceOnUse" gradientTransform="matrix(29.7,-14.6,13.831,28.136,5.68,19.55)">
			<stop offset="0" stop-color="#fbe902"/>
			<stop offset=".14" stop-color="#f4e802"/>
			<stop offset=".34" stop-color="#e3e802"/>
			<stop offset=".57" stop-color="#c6e802"/>
			<stop offset=".82" stop-color="#9fe802"/>
			<stop offset="1" stop-color="#7de803"/>
		</linearGradient>
		<linearGradient id="g5" x2="1" gradientUnits="userSpaceOnUse" gradientTransform="matrix(29.7,-14.6,8.844,17.991,15.72,39.98)">
			<stop offset="0" stop-color="#fbe902"/>
			<stop offset=".14" stop-color="#f4e802"/>
			<stop offset=".34" stop-color="#e3e802"/>
			<stop offset=".57" stop-color="#c6e802"/>
			<stop offset=".82" stop-color="#9fe802"/>
			<stop offset="1" stop-color="#7de803"/>
		</linearGradient>
		<linearGradient id="g6" x2="1" gradientUnits="userSpaceOnUse" gradientTransform="matrix(29.71,-14.61,5.445,11.072,16.5,41.58)">
			<stop offset="0" stop-color="#fbe902"/>
			<stop offset=".14" stop-color="#f4e802"/>
			<stop offset=".34" stop-color="#e3e802"/>
			<stop offset=".57" stop-color="#c6e802"/>
			<stop offset=".82" stop-color="#9fe802"/>
			<stop offset="1" stop-color="#7de803"/>
		</linearGradient>
		<linearGradient id="g7" x2="1" gradientUnits="userSpaceOnUse" gradientTransform="matrix(29.7,-14.6,8.563,17.419,19.17,47)">
			<stop offset="0" stop-color="#fbe902"/>
			<stop offset=".14" stop-color="#f4e802"/>
			<stop offset=".34" stop-color="#e3e802"/>
			<stop offset=".57" stop-color="#c6e802"/>
			<stop offset=".82" stop-color="#9fe802"/>
			<stop offset="1" stop-color="#7de803"/>
		</linearGradient>
		<linearGradient id="g8" x2="1" gradientUnits="userSpaceOnUse" gradientTransform="matrix(29.7,-14.6,13.173,26.797,10.21,28.77)">
			<stop offset="0" stop-color="#fbe902"/>
			<stop offset=".14" stop-color="#f4e802"/>
			<stop offset=".34" stop-color="#e3e802"/>
			<stop offset=".57" stop-color="#c6e802"/>
			<stop offset=".82" stop-color="#9fe802"/>
			<stop offset="1" stop-color="#7de803"/>
		</linearGradient>
		<linearGradient id="g9" x2="1" gradientUnits="userSpaceOnUse" gradientTransform="matrix(1.36,-1.2,1.25,1.416,84.6,18.77)">
			<stop offset="0" stop-color="#fbe902"/>
			<stop offset=".14" stop-color="#f4e802"/>
			<stop offset=".34" stop-color="#e3e802"/>
			<stop offset=".57" stop-color="#c6e802"/>
			<stop offset=".82" stop-color="#9fe802"/>
			<stop offset="1" stop-color="#7de803"/>
		</linearGradient>
		<linearGradient id="g10" x2="1" gradientUnits="userSpaceOnUse" gradientTransform="matrix(1.36,-1.2,1.198,1.357,85.14,19.38)">
			<stop offset="0" stop-color="#fbe902"/>
			<stop offset=".14" stop-color="#f4e802"/>
			<stop offset=".34" stop-color="#e3e802"/>
			<stop offset=".57" stop-color="#c6e802"/>
			<stop offset=".82" stop-color="#9fe802"/>
			<stop offset="1" stop-color="#7de803"/>
		</linearGradient>
	</defs>
	<style>
		.s0 { fill: url(#g1) } 
		.s1 { fill: url(#g2) } 
		.s2 { fill: url(#g3) } 
		.s3 { fill: url(#g4) } 
		.s4 { fill: url(#g5) } 
		.s5 { fill: url(#g6) } 
		.s6 { fill: url(#g7) } 
		.s7 { fill: url(#g8) } 
		.s8 { fill: url(#g9) } 
		.s9 { fill: url(#g10) } 
	</style>
	<g id="Layer_1-2">
		<g>
			<path class="s0" d="m71.9 29.1h-15.8c-1 0-1.9 0.6-2.3 1.5l-1.3 2.4c-0.9 1.7 0.4 3.9 2.4 3.9h15.7c1 0 2-0.6 2.4-1.5l1.2-2.4c0.9-1.8-0.4-3.9-2.3-3.9zm-7.4 6.1l-0.9-1.6h-0.5v1.6h-0.9v-4.2h1.5q0.4 0 0.7 0.1 0.3 0.1 0.5 0.3 0.2 0.2 0.2 0.4 0.1 0.3 0.1 0.5 0 0.2 0 0.4-0.1 0.2-0.2 0.3-0.1 0.2-0.2 0.3-0.1 0.1-0.3 0.2l1 1.7zm-0.3-3.2q-0.2-0.1-0.6-0.1h-0.4v0.9h0.4q0.2 0 0.3-0.1 0.2 0 0.3 0 0-0.1 0.1-0.2 0 0 0-0.2 0-0.2-0.1-0.3zm-3.5 3.2h-1.3l-1.1-2.8v2.8h-0.9v-4.2h1.2l1.1 2.8v-2.8h1zm3.5-3.1q-0.2-0.1-0.6-0.1h-0.4v0.8h0.4q0.2 0 0.3 0 0.2 0 0.3-0.1 0 0 0.1-0.1 0-0.1 0-0.2 0-0.2-0.1-0.3zm6 2.8q-0.2 0.1-0.4 0.2-0.2 0-0.4 0.1-0.2 0-0.4 0-0.2 0.1-0.4 0.1-0.5 0-0.9-0.2-0.3-0.1-0.6-0.4-0.3-0.3-0.4-0.7-0.2-0.4-0.2-0.9 0-0.4 0.2-0.8 0.1-0.4 0.4-0.7 0.3-0.3 0.6-0.4 0.4-0.2 0.9-0.2 0.4 0 0.8 0.1 0.4 0.1 0.7 0.3l-0.3 0.9-0.1-0.1q-0.2-0.1-0.5-0.2-0.3-0.1-0.6-0.1-0.2 0-0.4 0.1-0.2 0.1-0.4 0.2-0.1 0.2-0.2 0.4-0.1 0.2-0.1 0.5 0 0.4 0.1 0.6 0.1 0.2 0.2 0.4 0.2 0.1 0.4 0.2c0.2 0.1 0.5 0.1 0.8 0q0.2 0 0.3-0.1v-0.4h-0.9v-1h1.8zm-6.6-2.8h-0.4v0.8h0.4q0.2 0 0.4 0 0.1 0 0.2-0.1 0 0 0.1-0.1 0-0.1 0-0.2 0-0.2-0.1-0.3-0.2-0.1-0.6-0.1z"/>
			<g>
				<g>
					<path fill-rule="evenodd" class="s1" d="m31.9 13c-0.8 0.9-1.9 1-2.6 0.3-0.7-0.6-0.7-1.8 0.1-2.6 0.8-0.8 1.9-1 2.6-0.3 0.7 0.6 0.7 1.8-0.1 2.6z"/>
					<path class="s2" d="m45.4 14.5q-0.1 0-0.1 0-0.9-0.1-1.7-0.1-1.5 0-3 0c-1 0.1-2 0.1-3 0.4-2.1 0.8-3.7 3-4 5.2-0.2 1.8 0.3 3.6 1.7 4.7 2.2 1.7 5.4 0.9 7.3-1.6 1.1-1.5 1.5-3.3 1.2-4.9 0 0 0 0-0.1 0q0-0.1 0-0.2-0.2-0.7-0.5-1.2c0.7-0.1 1.4-0.1 1.8-0.1 0.3-0.1 0.4-0.1 0.5-0.1q0.3 0 0.6-0.2 0.2-0.2 0.2-0.7c-0.1-0.6-0.3-1.1-0.9-1.2zm-4.6 7.2c-1 1.3-2.8 1.7-3.9 0.8-1.1-0.8-1.3-2.7-0.3-4q0.2-0.3 0.4-0.5 0.2-0.2 0.5-0.4 0.3-0.2 0.7-0.3c0.7-0.3 1.5-0.2 2.1 0.2q0.1 0 0.2 0.1 0 0 0.1 0.1c1 0.8 1.2 2.6 0.2 4z"/>
					<path class="s3" d="m20.9 18.9q-0.1-1.1-0.6-2.1c-0.8-1.6-2.3-2.5-3.8-3.2-1.9-0.9-3.8-1.5-5.6-2.4-0.5-0.3-1-0.6-1.4-1-0.5-0.4-0.8-0.9-0.9-1.5-0.1-0.6 0.1-1.2 0.4-1.7 0.6-0.9 1.5-1.7 2.4-2.3 1-0.7 2.1-1.3 3.3-1.6 0.5-0.1 1-0.2 1.3 0.1 0.3 0.2 0.4 0.6 0.4 0.9 0 0.3-0.1 0.6-0.2 0.9-0.4 1.3-1.1 2.6-1.5 3.9-0.1 0.3-0.2 0.6-0.1 0.9 0.1 0.3 0.5 0.5 0.9 0.5 0.3 0 0.7-0.2 1-0.4 0.6-0.4 1.1-1.1 1.6-1.8 0.5-0.7 0.9-1.4 1.2-2.3 0.6-1.4 0.6-3.3-0.5-4.5-0.9-1-2.3-1.3-3.6-1.3-1.9 0.1-3.7 0.9-5.3 2-3.6 2.2-6.5 6.8-3.1 10.5 0.8 1 2 1.6 3.2 2.1 2.4 1 8.3 1.8 7.6 5.7-0.3 1.4-1.2 2.7-2 3.8-0.9 1.2-2 2.4-3.1 3.5-1.8 1.6-4 2.9-6.4 3.4-0.8 0.2-1.7 0.2-2.4-0.3-0.7-0.6-0.7-1.7-0.6-2.6 0.3-1.6 1.1-3 2.1-4.3 0.9-1.3 2.1-2.5 3.3-3.5 0.2-0.2 0.4-0.4 0.6-0.7 0.1-0.2 0.1-0.5-0.1-0.8-0.1-0.2-0.5-0.2-0.8-0.2-0.5 0-1 0.2-1.4 0.4-2.4 1.2-4.5 3.1-5.7 5.5-0.7 1.4-1.2 3-1.1 4.5 0.2 2.1 1.4 4.1 3.4 4.8 1.9 0.7 4 0.3 5.8-0.4 1.5-0.6 2.9-1.3 4.1-2.3 2-1.4 3.6-3.3 5-5.2 1.5-2 2.8-4.5 2.6-7z"/>
					<path class="s4" d="m68.3 18.3c-0.5-0.6-1 0.1-1.3 0.4 0 0-6.3 5.7-6.2 5.6 0.4-1.4 0.9-3.6-0.7-4.4-0.6-0.4-1.2-0.4-1.9-0.3-0.6 0.2-1.1 0.5-1.7 0.8 0.2-0.8 0.5-1.7 0.6-2.5 0.2-0.8 0.3-1.5 0.3-2-0.3-1.8-1.4-2.1-2.5-2-1 0.1-1.9 0.6-2.6 1.2-0.6 0.6-1.2 1.2-1.7 1.7q-0.4 0.5-0.9 1c0.2-0.7 0.8-1.3 0.9-2q0-0.3 0-0.5c-0.1-0.4-0.4-0.7-0.8-0.8-0.8-0.3-1.4 0.3-1.7 1q-0.3 0.5-0.5 0.9-1.2 2.4-2.3 4.7c-0.7 1.2-1.2 2.4-1.9 3.6-0.4 0.9-1.1 2.3-0.3 3.2 0.2 0.2 0.5 0.4 0.8 0.4 0.5 0 0.9-0.5 1.2-0.9 1.3-1.6 2.6-3.3 3.9-4.9q0.9-1.1 1.9-2.2c0.6-0.6 1.2-1.3 1.8-1.9q0.5-0.5 1.1-0.9c0.2-0.2 0.8-0.7 1.2-0.5 0.2 0.1 0.1 0.4 0 0.5-0.4 1.2-0.7 2.2-1.2 3.3-0.4 1.1-0.8 2.2-0.9 3.4 0 0.3 0.1 0.7 0.2 0.9 0.5 0.8 1.4 0.4 1.9 0 0.8-0.7 1.4-1.4 2.2-2.1 0.3-0.2 0.7-0.6 1.1-0.5 0.3 0 0.3 0.2 0.3 0.4q0 0.2 0 0.3 0 0.2-0.1 0.3c-0.3 1-0.6 2.1-0.5 3.1 0.1 0.3 0.2 0.7 0.5 0.9 0.2 0.2 0.6 0.1 0.9 0.1 0.8-0.3 1.6-0.8 2.3-1.3 0.7-0.6 1.4-1.2 2.1-1.9q1.9-1.8 3.7-3.8 0.5-0.6 1.1-1.2c0.2-0.3 0.2-0.7-0.3-1.1z"/>
					<path class="s5" d="m47.6 29.5q-5.9-0.4-10.5-0.3 1-1.4 1.9-2.8c-1 0.2-2 0.2-2.9-0.2-0.8 1.2-1.5 2.3-2.1 3.2-6.3 0.5-10.5 1.8-13.1 3.4-1.7 1.1-2.7 2.2-3.2 3.4-0.5 1.4-0.6 3 0 4.3 0.4 0.8 1 1.5 1.6 2.1 1 0.9 2.2 1.6 3.5 1.7 1.5 0.1 3.7-0.5 5.6-2.5 2.2-2.5 4.6-6.5 7.1-10.2 3.3-0.2 7.3-0.2 11.9 0.1 0.5 0 0.9-0.4 1-0.8v-0.5c0-0.5-0.3-0.9-0.8-0.9zm-17.5 5.5q-1 1.5-2.1 2.9 0 0 0 0-1 1.2-2.1 2.3c-0.4 0.4-0.8 0.8-1.3 1.1q-0.5 0.2-0.9 0.2c-1.9 0.2-3.8-1.9-3.5-3.8 0.4-2.1 2.8-3.2 4.6-3.9 2.3-0.9 4.7-1.4 7.1-1.8l0.4-0.1z"/>
					<path class="s6" d="m83.9 17.6c-0.2-0.2-0.5-0.3-0.8-0.2-0.2 0.1-0.5 0.4-0.7 0.6q-1.5 1.3-3 2.5c-0.9 0.8-1.9 1.6-2.9 2.2-0.3 0.3-0.7 0.5-1.1 0.7-0.3 0.1-0.7 0.2-0.7-0.3q-0.1-0.8-0.1-1.6c0.1-0.5 0.2-1 0.3-1.6 0-0.6-0.2-1.5-0.9-1.7-0.3-0.1-0.7 0-1 0.2-0.3 0.1-0.5 0.4-0.7 0.6-0.9 1-1.8 2-2.6 3-0.7 0.8-1.4 1.6-2.4 2-0.2 0.1-0.6 0.1-0.8-0.1 0-0.2-0.1-0.3 0-0.5 0-0.3 0.1-0.6 0.2-0.9 1.1-2.3 2.7-4.4 4.9-5.5 1.1-0.6 2.6-0.9 3.6 0.1 0.3 0.3 0.6 0.8 1.1 0.7 0.3-0.1 0.4-0.5 0.4-0.8-0.1-0.3-0.3-0.7-0.5-0.9-0.8-1.1-2.1-1.6-3.4-1.7q-0.7 0-1.3 0.1c-2.9 0.6-5 3-6.3 5.5-0.8 1.3-1.5 3-1.4 4.6 0.1 1.1 0.6 2.2 1.6 2.5 1.6 0.6 3.2-0.7 4.3-1.7q0.4-0.4 0.9-0.9 0.3-0.2 0.5-0.5c0.1-0.1 0.4-0.3 0.4-0.4 0.1 3 2.2 3.8 4.9 2.2 1.6-0.9 3.9-3.1 7.7-6.9 0.2-0.3 0.3-0.8-0.2-1.3z"/>
					<path class="s7" d="m32.5 20q0.1-0.3 0.1-0.6-0.8 0.9-1.7 1.7-1.1 1-2.2 2c-1.1 0.9-2.2 1.7-3.6 2.1-0.2 0.1-0.5 0.1-0.7 0-0.6-0.4-0.1-1.7 0.1-2.3q0.1-0.3 0.2-0.5c0.8-1.7 1.6-3.1 2.8-4.5q0.4-0.6 0.9-1.2c0.3-0.3 0.6-0.7 0.7-1.3 0.1-1.2-1.3-1.9-2.2-1.1q-0.2 0.1-0.3 0.2c-1.4 1.4-3.1 3.9-4.1 6.2-1.1 2.4-1.2 4.5-0.4 5.9 0.4 0.6 1 1.1 1.7 1.2q0.2 0 0.4 0c2.3-0.1 5.8-2.7 8.5-5.4q-0.3-1.2-0.2-2.4z"/>
				</g>
				<g>
					<path fill-rule="evenodd" class="s8" d="m85.6 17.4h0.3v0.8h0.2v-0.8h0.3v-0.2h-0.8v0.2z"/>
					<path fill-rule="evenodd" class="s9" d="m87.3 17.2l-0.2 0.8-0.3-0.8h-0.2v1h0.1v-0.9l0.3 0.9h0.2l0.2-0.9v0.9h0.2v-1h-0.3z"/>
				</g>
			</g>
		</g>
	</g>
</svg>