<svg version="1.2" xmlns="http://www.w3.org/2000/svg" viewBox="0 0 396 172" width="396" height="172">
	<title>53</title>
	<defs>
		<linearGradient id="g1" x2="1" gradientUnits="userSpaceOnUse" gradientTransform="matrix(88.85,157.28,-149.652,84.541,41.1,15.02)">
			<stop offset="0" stop-color="#21ff8e"/>
			<stop offset="1" stop-color="#0081ff"/>
		</linearGradient>
		<linearGradient id="g2" x2="1" gradientUnits="userSpaceOnUse" gradientTransform="matrix(88.85,157.28,-157.28,88.85,44.733,12.971)">
			<stop offset="0" stop-color="#21ff8e"/>
			<stop offset="1" stop-color="#0081ff"/>
		</linearGradient>
		<linearGradient id="g3" x2="1" gradientUnits="userSpaceOnUse" gradientTransform="matrix(60.74,107.52,-107.67,60.825,115.74,-60.05)">
			<stop offset="0" stop-color="#21ff8e"/>
			<stop offset="1" stop-color="#0081ff"/>
		</linearGradient>
		<linearGradient id="g4" x2="1" gradientUnits="userSpaceOnUse" gradientTransform="matrix(110.53,195.73,-170.316,96.178,139.45,-16.2)">
			<stop offset="0" stop-color="#21ff8e"/>
			<stop offset="1" stop-color="#0081ff"/>
		</linearGradient>
		<linearGradient id="g5" x2="1" gradientUnits="userSpaceOnUse" gradientTransform="matrix(110.53,195.72,-175.404,99.057,180.54,-39.4)">
			<stop offset="0" stop-color="#21ff8e"/>
			<stop offset="1" stop-color="#0081ff"/>
		</linearGradient>
		<linearGradient id="g6" x2="1" gradientUnits="userSpaceOnUse" gradientTransform="matrix(110.53,195.72,-130.358,73.618,211.67,-56.98)">
			<stop offset="0" stop-color="#21ff8e"/>
			<stop offset="1" stop-color="#0081ff"/>
		</linearGradient>
		<linearGradient id="g7" x2="1" gradientUnits="userSpaceOnUse" gradientTransform="matrix(110.52,195.73,-107.237,60.552,229.89,-67.27)">
			<stop offset="0" stop-color="#21ff8e"/>
			<stop offset="1" stop-color="#0081ff"/>
		</linearGradient>
		<linearGradient id="g8" x2="1" gradientUnits="userSpaceOnUse" gradientTransform="matrix(110.52,195.72,-107.235,60.554,264.98,-87.08)">
			<stop offset="0" stop-color="#21ff8e"/>
			<stop offset="1" stop-color="#0081ff"/>
		</linearGradient>
	</defs>
	<style>
		.s0 { fill: url(#g1) } 
		.s1 { fill: url(#g2) } 
		.s2 { fill: url(#g3) } 
		.s3 { fill: url(#g4) } 
		.s4 { fill: url(#g5) } 
		.s5 { fill: url(#g6) } 
		.s6 { fill: url(#g7) } 
		.s7 { fill: url(#g8) } 
	</style>
	<g id="Layer_1-2">
		<g>
			<g>
				<path class="s0" d="m85.9 171.8c-22.9 0-44.5-9-60.7-25.2-16.3-16.2-25.2-37.8-25.2-60.7 0-22.9 8.9-44.5 25.2-60.8 13.9-13.9 31.6-22.4 51.1-24.6 18.9-2.1 38.3 2.2 54.4 12.1 5.3 3.2 8.7 8.6 9.4 14.7 0.8 6.2-1.3 12.3-5.7 16.7-3.2 3.2-7.4 5.2-11.9 5.8-4.4 0.5-9-0.5-12.8-2.8-18.2-11.1-42-8-56.8 7.4-16.2 17.1-16.2 45.8 0 62.8l0.8 0.9c17.8 17.7 46.7 17.7 64.4 0l32.2-32.2-19.5-19.4c-1.8-1.8-1.8-4.7 0-6.6 1.9-1.8 4.8-1.8 6.6 0l22.7 22.7c0.9 0.9 1.4 2.1 1.4 3.3 0 1.3-0.5 2.4-1.4 3.3l-35.4 35.5c-21.4 21.3-56.2 21.3-77.5 0l-0.9-0.9c0 0-0.1-0.1-0.1-0.1-19.6-20.5-19.6-55.2 0-75.7 8.8-9.1 20.5-15 33-16.6 12.3-1.5 24.8 1.2 35.4 7.7 2 1.2 4.4 1.7 6.8 1.4 2.4-0.3 4.7-1.4 6.4-3.1 2.4-2.4 3.5-5.6 3.1-9-0.4-3.3-2.2-6.1-5-7.9-30.3-18.5-69-13.9-94.1 11.2-29.9 29.9-29.9 78.5 0 108.3 14.4 14.5 33.6 22.5 54.1 22.5 20.4 0 39.7-8 54.1-22.5 1.9-1.8 4.8-1.8 6.6 0 1.8 1.9 1.8 4.8 0 6.6-16.2 16.2-37.8 25.2-60.7 25.2z"/>
				<path fill-rule="evenodd" class="s1" d="m96.3 96.2c-5.7 5.7-15 5.7-20.7 0-5.8-5.7-5.8-15 0-20.7 5.7-5.7 15-5.7 20.7 0 5.7 5.7 5.7 15 0 20.7z"/>
			</g>
			<path class="s2" d="m170.2 20.9q0 2.4-1.2 4.4-1.1 2-3.1 3.2-2.1 1.1-4.4 1.1-2.3 0-4.3-1.1-2.1-1.2-3.2-3.2-1.2-2-1.2-4.4 0-2.3 1.2-4.3 1.1-2 3.2-3.1 2-1.2 4.3-1.2 2.3 0 4.4 1.2 2 1.1 3.1 3.1 1.2 2 1.2 4.3zm-1.8 0.1q0-2.9-2-4.9-2-2-4.9-2-1.9 0-3.5 0.9-1.6 0.9-2.5 2.5-0.9 1.6-0.9 3.4 0 1.9 0.9 3.4 0.9 1.6 2.5 2.5 1.6 1 3.5 1 1.8 0 3.4-1 1.7-0.9 2.6-2.4 0.9-1.6 0.9-3.4zm-4.4 1.5h2q-0.2 1.5-1.3 2.5-1.2 1-2.9 1-2.1 0-3.5-1.5-1.3-1.4-1.3-3.7c0-1.5 0.4-2.7 1.3-3.6q1.4-1.4 3.5-1.4 1.7 0 2.7 0.9 1.1 0.8 1.5 2.4h-2q-0.2-0.8-0.8-1.3-0.6-0.4-1.4-0.4-1.3 0-2.1 0.9-0.8 0.9-0.8 2.5c0 1 0.3 1.9 0.9 2.6q0.8 1 2 1 0.9 0 1.5-0.5 0.6-0.6 0.7-1.4z"/>
			<g>
				<path class="s3" d="m196.4 121.2q-5.9 0-11-2.2-5.1-2.1-8.1-7-2.9-4.8-2.9-12.8v-26.7q0-7.9 2.9-12.8 3-4.8 8.1-7 5.1-2.1 11.1-2.1 6.7 0 11.8 2.2 5.2 2.3 8.1 6.3 2.9 4 2.9 9.7 0 3.7-1.5 4.9-1.6 1.2-4.7 1.2-2.6 0-4.4-0.9-1.8-0.9-1.9-3 0.1-1.2-0.3-2.7-0.3-1.6-1.3-3.1-0.9-1.6-2.9-2.6-2-1.1-5.4-1.1-4.9 0-7.5 2.7-2.7 2.8-2.7 8.3v26.8q0 5.6 2.7 8.3 2.7 2.7 7.7 2.7 3.2 0 5.2-1.1 1.9-1 2.8-2.6 0.9-1.6 1.2-3.3 0.4-1.7 0.6-3.3 0.2-2.2 1.9-3 1.7-0.9 4.2-0.9 3.3 0 4.8 1.2 1.5 1.3 1.5 4.9 0 5.8-2.9 10.1-2.9 4.3-8.1 6.6-5.2 2.3-11.9 2.3z"/>
				<path class="s4" d="m234.1 120.6q-2.3 0-4.3-1-2-1-2-2.9v-62.3q0-2 2-2.9 2-0.9 4.3-0.9c1.5 0 3 0.3 4.3 0.9q1.9 0.9 1.9 2.9v25h21.6v-25q0-2 1.9-2.9 2-0.9 4.3-0.9c1.5 0 3 0.3 4.3 0.9q1.9 0.9 1.9 2.9v62.3q0 1.9-1.9 2.9-1.9 1-4.3 1c-1.6 0-3-0.3-4.3-1q-1.9-1-1.9-2.9v-27.5h-21.6v27.5q0 1.9-1.9 2.9-1.9 1-4.3 1z"/>
				<path class="s5" d="m292.1 120.6q-2.3 0-4.2-1-2-1-2-2.9v-62.3q0-2 2-2.9 1.9-0.9 4.2-0.9c1.6 0 3.1 0.3 4.3 0.9q2 0.9 2 2.9v62.3q0 1.9-2 2.9-1.9 1-4.3 1z"/>
				<path class="s6" d="m315.4 120.6q-2 0-3.7-1-1.7-1-1.7-2.9v-62.3q-0.1-2 1.9-2.9 2-0.9 4.3-0.9c1.5 0 3 0.3 4.3 0.9q1.9 0.9 1.9 2.9v55.3h23.5q1.8 0 2.7 1.7 0.9 1.7 0.9 3.8c0 1.4-0.3 2.5-0.9 3.7q-0.9 1.7-2.7 1.7z"/>
				<path class="s7" d="m361.7 120.6q-2 0-3.7-1-1.8-1-1.8-2.9v-62.3q0-2 2-2.9 2-0.9 4.3-0.9c1.5 0 3 0.3 4.3 0.9q1.9 0.9 1.9 2.9v55.3h23.5q1.8 0 2.7 1.7 0.9 1.7 0.9 3.8c0 1.4-0.3 2.5-0.9 3.7q-0.9 1.7-2.7 1.7z"/>
			</g>
		</g>
	</g>
</svg>