<svg version="1.2" xmlns="http://www.w3.org/2000/svg" viewBox="0 0 2606 1117" width="2606" height="1117">
	<title>67</title>
	<defs>
		<linearGradient id="g1" x2="1" gradientUnits="userSpaceOnUse" gradientTransform="matrix(-5.91,52.67,-162.247,-18.205,526.16,914.74)">
			<stop offset="0" stop-color="#4262ba"/>
			<stop offset=".72" stop-color="#2549ab"/>
			<stop offset="1" stop-color="#2a48b7"/>
		</linearGradient>
		<linearGradient id="g2" x2="1" gradientUnits="userSpaceOnUse" gradientTransform="matrix(-9.23,69.39,-60.717,-8.076,460.12,263.37)">
			<stop offset="0" stop-color="#82a5db"/>
			<stop offset=".23" stop-color="#9abaea"/>
			<stop offset=".87" stop-color="#769edb"/>
			<stop offset="1" stop-color="#7fa7de"/>
		</linearGradient>
	</defs>
	<style>
		.s0 { fill: #2f499b } 
		.s1 { fill: #a8abb9 } 
		.s2 { fill: #c5d3e6 } 
		.s3 { fill: #3f60ba } 
		.s4 { fill: #1573ca } 
		.s5 { fill: #080b0f } 
		.s6 { fill: #3172b2 } 
		.s7 { fill: url(#g1) } 
		.s8 { fill: #616565 } 
		.s9 { fill: #071a5e } 
		.s10 { fill: #91ace4 } 
		.s11 { fill: url(#g2) } 
		.s12 { fill: #f3b95b } 
		.s13 { fill: #fbd68e } 
		.s14 { fill: #fce3a8 } 
		.s15 { fill: #d99c3c } 
		.s16 { fill: #3e260f } 
		.s17 { fill: #cc8423 } 
		.s18 { fill: #9f650d } 
		.s19 { fill: #997477 } 
		.s20 { fill: #4a365c } 
		.s21 { fill: #311c2f } 
		.s22 { fill: #5d4158 } 
	</style>
	<g id="Layer_1-2">
		<g>
			<path class="s0" d="m202 0c2.7 0.9 5.4 2.1 8 3l-5 1c-7.8-1.5-17.8-0.6-25 3h-2v-2c2.1-1.2 4.3-2.1 6.5-3.1l7.5-1.9z"/>
			<path class="s0" d="m1001 583c-1.8 17.9-7.4 35.1-13 51-0.6 1.8-1.3 4.2-2 6-0.3 1-0.4 2.5-1 4l-1 1c-21.9 58.9-52.6 111.9-95 160-2.9-0.1-3.2 4.5-7 5 0.4-3.5-1.1-8.3 1-11 0 1.1-0.8 7 1.5 6 19.1-20.8 36.3-45.6 51.5-69.5 23.7-37.1 42.4-78 54.8-120.3 0.3-1.3 0-3.9 0.2-4.2 0.1-0.1 1.7 0.4 2-0.7 0.4-1.4-0.1-3.5 0.5-5.3 1.9-7 3.9-14 5.5-21 0.6-0.3 1.2-1 2-1z"/>
			<path class="s1" d="m163 23c-0.2 0.9-1 1.9-1.1 3-0.4-0.2-0.8-1-0.9-1 0.1-0.6-0.1-1.5 0-2z"/>
			<path class="s1" d="m178 5v2h2c-4.9 2.5-13.2 11.2-16 16h-1c0.2-0.6-0.1-1.4 0-2 3.9-6.7 8.1-12 15-16z"/>
			<path class="s1" d="m844 1111c-1.2 0.5-1.4 0.9-3.4 1.1-12.5 0.9-28.2 0-41.1-0.1-1.7 0-4.4 0.7-5.5-1 16.7-0.2 33.4 0.1 50 0z"/>
			<path class="s2" d="m160 32v-2l-2 1c0.5-1.5 1.5-5.7 3-6 0.1 0 0.5 0.8 0.9 1 0-1.1 0.9-2.1 1.1-3h1c-0.6 1.1-3.7 7.9-4 9z"/>
			<path class="s2" d="m163 23h-2c0.4-1.3 1.8-1.6 2-2-0.1 0.6 0.2 1.4 0 2z"/>
			<path class="s2" d="m1010 513c0.1-5.3 0.1-10.7 0-16 1.7 4.1 1.7 11.7 0 16z"/>
			<path class="s2" d="m986 640c0.7-1.8 1.4-4.2 2-6z"/>
			<path class="s2" d="m889 805c-2.2 2.5-4 5.3-7 7 0.1-0.6 0-1.4 0-2 3.8-0.5 4.1-5.1 7-5z"/>
			<path class="s2" d="m984 645l1-1c-0.1 0.4-0.9 0.8-1 1z"/>
			<path class="s2" d="m180 265l-1 3h2c-37.7 21.7-71.8 49.9-99 84l-0.6-0.9-2.4 0.9c16.8-21.5 37.6-42.6 59.1-59.4 9-7.1 19.8-12.5 27.9-20.6-0.1 1-0.3 2.7 1.5 2 2.4-0.9 9.2-7 12.5-9z"/>
			<path class="s1" d="m82 352c-36.3 45.6-61.6 99.8-73.5 157-3.6 17.2-5.7 34.6-8 52-2.6 0 5.3-45.4 6-49 11.4-57.9 36.4-113.6 72.5-160l2.4-0.9z"/>
			<path class="s0" d="m131 947c-2.1 22.1-3.6 34.5-11 56l-1-3c5-16.5 6.1-32.4 9-49 0.3-1.7 1.2-5 3-4z"/>
			<path class="s1" d="m120 1003c-5.3 15.6-10.7 32.5-22 45 3.6-7.5 7.9-14.7 11.2-22.3 3.5-8.1 7.3-17.3 9.8-25.7z"/>
			<path class="s2" d="m132 943c0.4-9-0.5-18.1 0-27 1.7 1 1 3.8 1.1 5.5 0 7.5-0.5 14.3-1.1 21.5z"/>
			<path class="s1" d="m570 1115c-6 0-13.3 0.8-19-1 6.1 0 13.4-0.8 19 1z"/>
			<path class="s2" d="m70 634c0-5.7-0.8-12.7 1-18-0.2 5.8 1 12.6-1 18z"/>
			<path class="s2" d="m157 53c-1.5-2.9-1.3-9-1-12.6 0.1-1.9 1-2.9 1-3.4 0.3 5.3-0.3 10.7 0 16z"/>
			<path class="s2" d="m71 664c-1.8-4.1-1-10.3-1-15h1c-0.1 5-0.1 10 0 15z"/>
			<path class="s2" d="m210 221c-3.2 3-5.8 7.3-10 9 2.9-2.9 6.2-7.4 10-9z"/>
			<path class="s3" d="m223 210c0.4-0.3 0.7-0.7 1-1z"/>
			<g>
				<path class="s4" d="m1315 503q2.5 0 5 0 1 0 2 0c30-0.1 60 0.1 90 0v-46h-219c0.1 68 0 136 0 204 0 29.3-0.2 58.7 0 88 0.1 7.6 0 15.4 0 23h55l1.1-132.9 138.9-0.1 1-47-139 1h-1l-1-89c22.3-1.6 44.7-0.9 67-1z"/>
				<path class="s4" d="m1928 457c0 0.7 0.1 1.3 0 2-2.9 60.2 0 125.3 0 186 0 11.8-0.1 23.7 0 35.5 0 1.7-0.6 4.5 1 5.5-3.9 2.9-4.3-2.9-5.6-4.9-7.5-12-16.6-27.8-25.4-38.1 0.9-3-1.6-3-3-5-0.1-0.3 0.2-0.7 0-1-9.3-17.7-23.8-37.9-35.2-55.3-24.2-37.4-49.4-74.4-73.8-111.7-1.4-3.3-3.6-8.5-6-11-0.4-0.5-0.3-1.5-1.6-1.8l-54.4-0.2c0 0.7 0.1 1.3 0 2-1.8 36.9 0 76.7 0 114-1.6 1-1 3.8-1 5.5-0.7 64.5 0.2 129.2 0.5 193.6 0.8 1.3 5.4 1.7 6.5-0.1 8.5 1.4 12 0 19.5 0 3.5-0.1 23.4 0.7 24.5 0 1.3-0.8 0.9-1.2 1.1-2.4q-0.1-66.8-0.1-133.6c0-18.3 0-36.7 0-55l1-36c6.5 5.6 21.1 34.6 25 36l22 33c0.7 1.3 1.3 2.7 2 4l66 100c0.1 0.3-0.1 0.7 0 1 2.3 8 20.7 29.8 26 38 1.7 2.7 5.2 13.7 8 15l56 1v-313.5c0-0.3-1-1.6-1.2-2.3l-51.8-0.2z"/>
				<path class="s4" d="m2603 769c-0.9-2-0.7-3.5-1-4.2-6.9-14-11.6-30.6-18-45.8 0.6-4.2-1.1-8.2-2.5-12-0.6-1.6 0.2-3.6-2.5-3-2.6-7.9-4-16.6-8-24 0.2-2 0-3.9-0.6-5.8-4.9-13.8-10.7-22.7-21.4-32.2-3.1-2.8-5.5-7.8-11-7-0.9-5.2-8.3-1.8-9-7 16.8-4.1 35.9-14.2 47-27.5 3.2-3.9 7.9-10.9 9.9-15.3 7.5-16.3 9.1-33.7 7.1-52.2-0.5-4.7-0.2-8.1-1.5-13-0.4-1.7 0.1-3.6-2.5-3-2.8-15-8-23.6-19-34-13.2-12.5-29.5-20.6-48-22-2.5-3.2-10.8-1.9-15-2-0.7-2.3-2.5-1.9-4.4-2.1-54.7-3.1-112.5 2.5-167.6 0.1l-2 0.6v312.9l1 2.1c12.7 0.6 25.7 0.6 38.6 0.4 1.6 0 4.4 0.7 5.4-1 3.1 0 6.1 0 9.1 0.6l1.9-7.1v-120.5c17.1-2.2 73.9-1.5 90.2 2.3 3.3 0.7 11.1 4.8 12.8 4.7 15.6 9.3 22.1 22.6 28 39 9.6 26.2 15.8 53.7 25 80l0.7 2h59.3v-2c-0.4-0.7-1.7-1.4-2-2zm-214-171.4c-2.3-30.4 1.8-63.5 0-94.2l2-3.4c11.8 0.2 23.6 0.1 35.3 0h47.7c29.7 0.9 59 3.9 64 39 6.5 45-22.6 60-62.5 62-28.1 1.3-57.2-1-85.5 0-0.5-1.3-0.9-1.4-1-3.4z"/>
				<path class="s4" d="m1660.4 684.7l-0.4-0.7c-0.1-0.3 0.1-0.7 0-1-2.6-6.6-4.4-15.3-7.7-21.7-0.6-1.3-2.9-2.4-3.3-4.3-4.2-18.3-14.2-35.8-20.9-52.8-12.8-32.7-25.9-66.3-38.4-98.4-4.8-12.2-8.8-25-15.7-36.8 0.3-3.5-0.7-6.8-2-10-0.2-0.5 0.6-1.9-0.6-2l-59.3 0.1c-0.4 0.6 0.1 1.5-0.1 1.9-0.5 1.3-0.6 2-1 3-0.9 2.7-2 5.3-3 8-3.3 9.3-6.6 18.7-10 28-14.8 41.5-35.6 89.1-47 131l-52 141-1 3c7-0.9 51.6 1.6 54-1 0.5-0.5 2.2-6.1 2.5-7.5 0.2-0.6-0.5-1.3-0.5-1.5 0.9-3.7 2.3-5.6 3.5-9 1.2-3.4 2.1-7.4 3.4-10.6 2.1-5.6 4.6-7 5.1-15.4 2.4 0.9 2.7-2.9 3-5 0.1-0.3 0-0.7 0-1 1.6-1.3 1.5-3.3 2-5 0.1-0.3 0-0.7 0-1l0.3-0.9c0.2-0.6 0.5-1.3 0.7-2.1 1.6-5.7 3.6-12.1 5.8-18.8 0.5-1.6 2.7-9 3.9-9.2l125.4 0.5 31.9 86.5h58c-10.9-28.5-24.6-58.3-36-86q-0.3-0.7-0.6-1.3zm-146.4-97.7l3.3-5.2c4.2-16.3 11.5-30.9 14.7-46.8 0.1-0.3 0-0.7 0-1 4.3 0.5-1.2-3.1 2.8-3.2-1.4-3.2 3.4-5.1 2.2-9.8 2.4-3.6 0.7-3.1 2.1-6.2 0.1-0.3 3.7-4 3.9-3.8l32.5 91c0.5 1.6 1.2 2.2 2.5 3-1.1 1.5-0.2 2.8 0.2 4.2 1.3 4.1 13.1 31.6 11.8 32.8-29.1-1.3-59.6 1.7-88.5 0.1-1.9-0.2-3.8 0.2-4.5-2.1 5.1-17.9 11.8-34 17-53z"/>
				<path class="s4" d="m2281 708c0.1-8.1-5.8-15.8-8.5-23-3.4-8.8-6.1-18.7-9.9-28.1-0.7-1.5 0.1-3.5-2.6-2.9 0-0.3 0.1-0.7 0-1-2-10.5-10.9-32.3-15.5-43-0.8-1.9-1.5-4.1-3.5-5-0.9-3.2 0.7-5-3-8-0.7-2.3-0.8-4.7-1.5-7-2-6.2-6.2-12.3-8.4-17.8-3.3-8.1-4.2-17.1-10.1-24.2-0.1-0.3 0.1-0.7 0-1-1.6-6.5-4.5-14.1-6.8-20.6-0.9-2.3-4.6-4.8-3.2-9.4-0.6-0.1-1.4 0.1-2 0-1.4-12.2-10.7-29.5-14.9-40.8-1.6-4.4-1.8-9.8-5.1-13.2-0.1-1.3 0.1-2.7 0-4 0-0.7 0.1-1.3 0-2-1.3 0-2.7-0.1-4 0-0.7 0-1.3-0.1-2 0l-48.4 0.9q-3.8 0-7.6 0.1l-18 51c-0.1 0.3 0.1 0.7 0 1l-81 216c-0.1 1.7-0.5 3.4-1 5-2 1-2.7 3.1-3.5 5-4.8 11.8-8.5 24.2-13.5 36l57 1q0-1.5 0-3 0-1.5 0-3c3.7-3.5 2.7-6.7 4.1-11.3 6-19.2 14.3-40.5 21.3-60.6 2.1-5.8-1.5-9.5 7.1-10.1 20.4-1.5 44.7-0.1 65.5 0l56 1 31 86 59 1c0.7-1.7-0.7-2.3-1-3-7-18.5-16.8-45.5-26-62zm-79-69c0.6 3-1.5 1.9-3.4 2-28 1.1-60 0.9-88.1 0-1.9-0.1-4 1-3.5-2 1.2-4.2 4.1-8.7 5.5-12.9 3.1-9 6.1-19.6 9.5-29.1 3.6-9.8 9.2-19.4 10-30 7.1-16.1 11-29.5 16.5-44 1.7-4.3 3.5-7.3 4.8-12 0.4-1.4-0.1-2.9 1.7-1 16.1 42.8 30.8 86.2 47 129z"/>
			</g>
			<g>
				<path class="s5" d="m1645 264.5l49-59.5h-20.5c-10.7 16.4-23.9 31-35.4 46.8-6.9 9.3-15.4 20.7-21.5 30.3-2 3.1-8.1 11.6-3.6 14.5 3 1.9 4.9-3.1 7-5.1 2.2-2.1 14.3-14.8 15.5-14.5 10.6 16.4 20.8 33.2 31.5 49.5 1.5 2.3 14.3 19.4 13 20.5-1.6 0.2-3.5-0.2-5 0h-77c-7.4-1.7-17.1-9.1-18.8-16.8-0.4-2.1-0.1-4.1-0.2-6.2v-41.3c0.3-10.3 0.4-20.6 0-30.7l-17-1v80.5c0 1.7-7.7 10.9-9.6 12.3-16 11.8-41.2 1.3-43.4-18.3-1.9-16.9 1.4-37.2 0-54.5 0.1-1-0.6-0.9-1.4-1-3.4-0.5-10.1-0.3-13.6 0-0.6 0.1-1.3-0.1-2 0-1.6 0.7-1.6 12.9 0 15 0 13.7 1.2 30.2 0.1 43.5-2.6 29.7-44.7 25.6-49.6-0.4-1.5-18.7 0.2-37.4 0.1-56.1 0-1.1-0.1-1.2-1.1-2h-16.5v59.5c0 6.1-5.3 13.5-10.8 16.2-14.5 7.4-41.3 5.7-54.9-3.4-3.7-2.4-13.3-13.7-13.3-17.8v-55.5h-17c-0.4 6.6-0.4 13.3-0.3 20l-0.7 54c-3 25.3-14.9 43.6-40.3 50.1-37.3 9.6-72-13.9-74.7-52.6-1.7-23.5 1.3-48.8 0-72.5l-17-1 0.7 48.9c-0.1 8.1-0.1 16.1 0.3 24.1 3.7 71.1 98.2 91.7 135 39.2 6.8-9.7 9-20.8 12-32.2 4.8 1.2 7.8 5.4 12.3 8.2 22.8 13.7 62.9 13 79.2-10.2 7.7 9.8 15.2 14.1 27.5 16 6.8 1 8.2 1.2 15 0 8.2-1.4 17.4-5.3 22.9-11.6 0.9-1.1 0.7-3.3 1.6-3.5 2.7-0.4 8.6 7.5 11.6 9.5 18.5 12.3 46.1 6.6 57.4-11.4 2.6 0.1 5.9 6.9 8 9 10.3 10 20.5 8.7 33.5 9 17.6 0.3 35.3 0.1 52.9 0h39.1l-60-97.5z"/>
				<path class="s5" d="m2541.7 244.1c-21.7 2.2-31 23.6-21.5 42.3 5.4 10.7 33.5 25.5 44.9 30.1 4.2 1.7 9.3 3.6 13.9 3.5 0 0.7 1.7 3.5 1 5-4.6 16.7-17.2 23.1-34 24-7.2 0.4-15.7 0.3-23 0-12.7-0.5-29.4-0.9-39-10.5-0.5-0.5-6-8.5-6-9v-70.5h-16l-0.2 74.3c-1.5 6.6-7.7 11-13.7 13.2-72.2 3.4-145.1 0.6-217.6 1.5-9.4 0.6-25.5-12.4-25.5-21.5v-67.5l-17-1c0 1 0.1 2 0 3-0.4 16.2-0.2 32.5 0 48.8v60.2c-0.2 6 0.5 11.9-1.8 17.7-1.6 4.2-10.4 11.3-14.7 11.3h-23.5c-0.8 6.4 0.7 9 6.8 10.7 11.3 3.3 28.3 0.4 37.7-6.7 9.4-7.1 10.3-16.2 11.5-27 0.8-6.9 1.1-12.4 1-19.5 0-1.7 0.7-4.5-1-5.5 0.1-0.9-0.5-2.8 0.5-3 9.1 7.2 13.3 13.3 25.5 14 1.1 1.7 3.8 1 5.5 1 7.5 0.1 15 0 22.5 0 16.8 0 33.7 0.2 50.5 0 1.7 0 4.5 0.7 5.5-1 43.2 0.1 86.4-0.1 129.5 0 12.7-1.7 21.9-8.9 31-17 14.7 18.7 47 19.4 69.1 18 28.1-1.7 49.7-13 54.3-42.6 5.8-37.5-12-80.8-56.3-76.3zm41.4 64.9c-1.3 0.5-0.9 1.9-1 3 0 0.3 0 0.7 0 1h-2c-3.2-7.3-36.9-19.8-45.5-31-9.3-12.1-0.5-26.4 14-27 27.8-1.3 35.3 32.2 34.5 54z"/>
				<path class="s5" d="m1923 248c-3.7-1.7-11.1-1.7-15 0-34.8 2.3-47.3 36.9-45 67.5 2.9 38.4 41.4 62.2 76.6 44.5 0.8-0.3 2.4 1.2 2.4 1.5v18c0 3.1-3 8.5-5 11-11.5 14.1-42 12.9-57 4.5 0.4 7.3-2.2 10.3 5 13.5 25.3 10.9 72.8 2.3 73.1-32l-0.3-116.9c-9.9-6.4-22.8-10.8-34.8-11.6zm19 32c0 0.3-0.9 1.6-1 3.4-0.9 15.5 0.1 31.6 0.3 47.5l-0.3 14.1c-23.6 19.9-59.2 1.5-61-28-0.4-6.5-0.5-15.6 0-22 2-26.6 30.7-45.1 54.3-30.8 7.7 4.6 8.5 7.6 7.7 15.8z"/>
				<path class="s5" d="m2101 295c0.1-8.3 0.1-16.5 0-24.8v-17.2l-16.5-1c-1.4 0.3 0.5 1 0.5 1q0 1 0 2c-1.6 1-1 3.8-1 5.5-0.1 7.9-0.7 16.9 1 24.5 0 12.1 0.9 25.7 0 37.5-1.6 22.1-16.3 29.6-37.5 27.5-13.2-1.3-29.7-13.3-32-26.9-2.6-15.2-0.9-46.2-0.5-62.7 0-1.7 0.3-2.9 1-4.4h-18c0 18.3 0.1 36.7 0 55 0 25.6 0.1 51.4 0 77-4 16.9-20 14.8-34 13l2.2 10.8c13.4 2.8 31.4 1.6 40.9-9.2 4.3-5 7.9-12.5 7.9-19.1v-34.5c4.8 0.9 8.7 5.7 13.4 8.2 16.3 8.7 37.2 9 53.6 0.2 23.9-12.8 18.8-38.9 19-62.4z"/>
				<path class="s5" d="m1780.8 272.9c-7.9-6.7-15.5-14-23.3-20.9-1.2 3.7-8.6 8.5-7 12 0.2 0.4 5 5.8 5.9 6.7 17.1 17.7 39.8 32.2 57.6 48.8 9.5 8.7 18.3 22.8 0 27.5h-20c-22 0-44 0-66 0l-1 15h82.5c2.4 0 13.6-3.6 16.1-4.9 13.6-7.7 16.1-26.7 8.2-39.4-6.8-11-40.7-34.4-53-44.8z"/>
				<path class="s5" d="m2543 223.5c4.2 2.3 16.6 2.3 19-1.5 1.6-2.3 1.7-16.2 0-17-6-0.8-14.5-1.9-20.5-1-1.6 0.2-1.5-0.6-1.5 1.5 0 2.6 1.8 16.9 3 18z"/>
				<path class="s5" d="m2477 235c1 0.1 1-0.7 1.1-1.4 0.7-5.4-0.6-12.1-0.1-17.6-0.1-1.4-1.4-0.9-2.4-1-5.7-0.7-12.7 0.6-18.6 0l1.1 21z"/>
				<path class="s5" d="m2058.3 397.3c2 9.2 15.6 7.4 20.4 1.4 1.8-2.2 1.5-5.2 0.9-7.8-2.7-11.4-25.6-12.4-21.4 6.4z"/>
				<path class="s5" d="m1501.6 223.9c-2.8-5.9-8.8-11-15.8-9.7-5.5 1.1-9.8 6.2-8.3 11.8 3.3 12.5 21.7 9.7 24.1-2.1z"/>
				<path class="s5" d="m1507.1 229.4c1.4 8.6 12.8 8.7 19 5.1 2.7-12.9 2.5-18.6-12.3-16.2-7.2 1.1-7.8 4-6.7 11.1z"/>
				<path class="s5" d="m1496 209.6c11.1 3.7 20.6-8.6 11.1-16.2-2.5-2-9.1-1.9-12.3-1.2-8.1 1.9-4.7 15.4 1.2 17.4z"/>
				<path class="s5" d="m1262.5 259c4.6 0.6 10.9-0.1 15.6-0.4 1.5-1.1 1.6-15.1-0.1-17.6 0-2 0.1-4 0-6h-18v23c0.1 1.4 1.5 0.9 2.5 1z"/>
			</g>
			<g>
				<path class="s5" d="m1540.7 828.4c-27.2-20.5-68.6-11.6-79.7 22.1-15.2 46 21.9 87.9 69.2 69.2 34.5-13.6 38.4-70.2 10.5-91.3zm-27.1 82.6c-21 2-34.4-11.2-37.6-31 0.3-6.3-0.3-12.7 0-19 2.2-35.9 51.9-41.9 63.3-7.8 7.3 22 2.1 55.3-25.7 57.8z"/>
				<path class="s5" d="m1650 820l-15-1 1 104h32.6c40.6-0.2 62.8-32.1 51.9-71-9.3-33.3-42.1-32.3-70.5-32zm54.9 61.4c-4.9 27.6-29.2 29.9-52.9 28.6v-77c7.3 0.4 14.8-0.5 22 0 26.7 1.7 35.1 24.5 30.9 48.4z"/>
				<path class="s5" d="m1394.7 917.8c-8.4-12.3-16.3-24.7-25.7-36.3-1.8-2.1-8-6-4.7-7.7 5.1-2.6 11.5-3.9 16.1-8 6.4-5.5 8.6-17.1 7.5-25.2-2.5-18.6-22.4-19.9-37.3-20.6-8.5-0.4-17.1 0.4-25.6 0v103h15c0.1-1 0.2-3.2 0.2-6.2l0.8-39.8c4.4-1.5 7.5 1.6 10 4.5 10.3 12 17.8 29.3 28.5 41.5h18.5c0.6-2.9-2.2-3.6-3.3-5.2zm-53.7-53.8v-32c10.8 0.6 28.8-2.5 30.1 12.4 1.7 19.5-15 20.4-30.1 19.6z"/>
				<path class="s5" d="m1227 821c-1.5-1.5-3.5-1-5.4-1-8.5-0.2-17.1-0.2-25.6 0-2.6 0.1-5.3 0-8 0v104l17-1c-0.6-1.4-0.9-2.4-1-4l1-37c19.2-1 44.8-2 49.5-25 4.1-20.1-7.6-34.5-27.5-36zm11.1 31.5c-1.5 17.4-21 16-34.1 16.5v-37c16.4 1.1 36.1-2.5 34.1 20.5z"/>
				<path class="s5" d="m1966.1 861.6c2.7-22.9 24.6-32.3 45.5-30.6 8.8 0.7 16.1 4.6 24.4 7l-0.2-14.8c-34.8-12.1-77.5-6-85.3 35.8-10.4 55.5 43.4 79.3 88.4 56.8l-1.9-12.8c-37 17.9-76.3 5.6-70.9-41.4z"/>
				<path class="s5" d="m2179 820h-85v13c0 1 0.7 0.9 1.5 1 7.6 1 18.4-0.1 26.5 0 3 0 6 0 9 0l1 89h15l1-90 30.4 0.9c2.7-0.9 2.1-13.4 0.6-13.9z"/>
				<path fill-rule="evenodd" class="s5" d="m2251 820v52 51h16v-103h-16z"/>
				<path class="s5" d="m2598 856c0-12 0.1-24 0-36h-15q0 11.7 0 23.4v33.6c0 6.6 0.1 13.3 0 20l-2-0.5c-10.2-21.9-23.5-42.2-36.1-62.8-1.9-3-6.2-13.7-9.4-13.7h-19.5v103h15q0.1-13.6 0-27.1v-38.9c0-5.3 0-10.7 0-16l1.5 1 46.5 80.5c0.7 0.4 1.3 0.4 2 0.5 5 0.8 11.8-0.6 17 0 0-22.3 0.1-44.7 0-67z"/>
				<path class="s5" d="m1876 820c-2.3-2.4-12.3-0.3-16-1v68c-0.7 8.1 0.8 12.1-5.5 18.9-7.8 8.5-27.8 8.4-35.5-0.4-1-1.2-6-9.9-6-11v-74.5h-16v75.5c0 1.4 4.1 10.9 5.2 12.8 13.9 23.6 61.3 22 71.3-4.3 2-5.3 2.2-8.5 2.5-14 0.7-13.2 0.3-26.7 0-40.1z"/>
				<path class="s5" d="m2440 862c-4.5-29.7-24.1-45.9-54.5-44-66.5 4.1-59.4 118.1 13.8 105.7 23.4-3.9 39.4-19.8 40.7-43.7 1.5-4 1.5-10.4 1.1-14.6-0.2-1.9-1-2.8-1.1-3.4zm-17.1 20.4c-2.2 21.6-22 34.3-42.7 27.9-32.5-10.1-31.3-74 3.6-79.1 32.4-4.7 41.9 24.3 39.1 51.2z"/>
			</g>
			<g>
				<path class="s6" d="m160 32c-4.3 15.6 1.7 36.5 11 49-0.8-0.9-5.4-1.7-5-6-2.5-0.6-2.2 2-4 4-0.2-9.4-4.4-16.4-5-26-0.3-5.3 0.3-10.7 0-16 0.4-2.4 0.2-3.4 1-6l2-1c0 0 0 2 0 2z"/>
				<path class="s0" d="m237 29c2.1 16.1-6.5 26.7-23 23l-2-2c2-0.2 4.1 0.2 6 0 9.2-1 13.5-3.7 16-13 0.9-3.1 1.5-5.4 1-9z"/>
				<path class="s3" d="m237 29l-2-1c0.5 3.6-0.1 5.9-1 9 2.1-17.2-13.3-30.1-29-33l5-1c11.3 4 25.4 12.8 27 26z"/>
				<path class="s1" d="m218 50c-1.9 0.2-4-0.2-6 0l2 2c-4.9-1.1-6.7-2.7-11-5 0.6-6 5.6-0.1 8.4 1.1 2.2 0.9 5 0.3 6.6 1.9z"/>
				<path class="s1" d="m798 1106c-8.2-0.3-17.2 1.1-25-1 8.1 0.6 17.2-1.3 25 1z"/>
				<path fill-rule="evenodd" class="s2" d="m566 96h21v1h-21z"/>
				<path class="s1" d="m322 129c-5.8-0.2-12.6 1-18-1 5.8 0.1 12.7-0.9 18 1z"/>
				<path class="s2" d="m257 122c-1.9-0.1-4.9 0.8-6-1 2.8 0.2 4 0.7 6 1z"/>
				<path class="s2" d="m190 102c-3.3-2.3-8-6.3-10.6-9.3-0.5-0.6-0.2-1.5-0.4-1.7 4.4 2.8 7.4 7.6 11 11z"/>
				<path class="s3" d="m259 1017c8.7 2.6 17.6 4.6 26.2 7.1 18.1 5.2 40.6 10.3 56.8 20.9-1.4 4.6 4 2.8 5.1 4.7 0.6 0.9-0.1 2.7 0.2 3.1 1.3 1.8 7.2 6.4 8.8 8.9 1 1.6 0.6 3.1 0 4.7l3.9 1.6c1.1 3.8 1.9 7.5 2 11.5 0 2.1-1.3 13.2-4.4 12.5-2.7-5-2.3-11.3-4.1-17-13.2-40.8-56.6-42.4-90.5-54 0.3-2.4-2.1-3-4-4z"/>
				<path class="s0" d="m259 1017c1.9 1 4.3 1.6 4 4-16-5.5-27.9-10.9-42-20 3.5 1.1 3.8-1.2 5-2-0.1 2.4 1.4 2.6 3 3.5 9.8 6 20.6 9.1 30 14.5z"/>
				<path class="s1" d="m193 237v2h2c-10.8 10.2-19 23-29 33 0.8-6.4 21.6-29.2 27-35z"/>
				<path class="s0" d="m342 1045c9.1 5.9 14.9 12.3 18 23l-3.9-1.6c0.6-1.6 1-3.1 0-4.7-1.6-2.5-7.5-7.1-8.8-8.9-0.3-0.4 0.4-2.2-0.2-3.2-1.1-1.8-6.5 0-5.1-4.6z"/>
				<path class="s2" d="m645 1027c-1 1.7-3.8 1-5.5 1-8.8 0.1-17.7 0-26.5 0 1.1-1.7 3.8-1 5.5-1 8.9-0.1 17.7 0.2 26.5 0z"/>
				<path class="s1" d="m578 1105c-1 1.7-3.8 1-5.5 1-7.5 0.1-15 0-22.5 0 1.1-1.7 3.8-1 5.5-1 7.5-0.1 15 0.1 22.5 0z"/>
				<path class="s2" d="m584 1028c-7.1 0-15.2 0.8-22-1 7.1 0 15.3-0.8 22 1z"/>
				<path class="s1" d="m478 1106c-4 0-8 0-12 0v4c-1.7-1-0.8-3.3-1-5 0 0 13 1 13 1z"/>
				<path class="s7" d="m612 917c5.6 9.2 7.6 20 11 30-22.6 7.9-46.2 12.3-70 15-2.1 0.1-12-1.8-13-2.4-1.6-1-0.3-4.6-1.5-4.6l-1.4 4.6-8.1 0.4 8 2c-24.6 1.7-49.7 1.2-74.5 1-2-0.1-3.9 0.9-5.8 0.9-5.4-0.1-12.1-1.8-17.6-1.9l4-3-11 1c-3.7-1.2-7.9-1.4-11-4 0.2-0.2 2.7-2.5 3.6-3.3 4.2-3.8 7.5-9.5 12.4-12.7-0.1 0.8 0.5 2.6-0.3 4.5-0.4 0.9-2.6-0.1-1.7 2.5h4l-1 3h5c0.9-4.3-3.5-6.2-4-10 8.9-1.7 18.4 0.4 27-2.5-1.5-1.8-4.7 0.5-5.5 0.5h-16c-0.9 0-3.7 1.9-5.5 1-0.1-0.6 1.3-2 1.5-2h18c0.2 0 1.8-1.7 1.5-2-6.5 1.3-14.8 2-21 0 1.4-1.3 2.5-1.7 4.4-2 8.4-1.4 19.3-1.6 27.6 0 14.8 3 21.5 1.8 36 0 0.9-0.1 2.2-0.8 4-1 3.6-0.3 7.5 0.9 10.3 0.6 30.1-2.4 56.4-8.1 85.7-14 1.6-0.4 3.2-0.4 3-2.6 0 0.1 1.8 0.8 2 1z"/>
				<path class="s3" d="m606 905c0.6 3.2-1.6 1.7-3.5 2-22.5 3.5-46.6 8.3-69.1 10.9-1.8 0.2-10 1.3-10.8 1.2-0.9-0.1 0-3.3-2.6-2.1v2.9c-7.1 1.9-9.9-2.6-8-8.9l-2.5 2c0.1-2.4-2.9-1.6-3.3-2.1-0.7-0.7 0.2-3.8-0.1-5.2-0.2-0.7-5.1-2.7-3.1-4.7 1.9-1.8 4 3.7 6 2 2.2-1.8-3.5-1.8-2-4h30.4c1.2-0.2 0.5-1.4 0.6-2 0.1-0.3 0.8-0.6 1-1 14.7-0.5 42.1-3.7 55.8-7.8 1.7-0.5 3.8 0.7 3.2-2.2 2.4 5.4 5.8 14.5 8 19z"/>
				<path class="s0" d="m497 896c3.6 2.9 7.8 1 11.5 1 9.8-0.1 19.7 0.1 29.5 0-0.1 0.6 0.6 1.8-0.6 2h-30.4c-1.5 2.3 4.2 2.2 2 4-2 1.7-4.1-3.8-6-2-2 2 2.9 4 3.1 4.7 0.3 1.5-0.6 4.5 0.1 5.2 0.4 0.5 3.4-0.3 3.3 2.1l2.5-2c-1.9 6.3 0.9 10.8 8 8.9v-2.9c2.6-1.2 1.7 2 2.6 2.1 0.8 0.1 9-1 10.8-1.2 22.5-2.5 46.6-7.4 69.1-10.9 1.9-0.3 4.1 1.2 3.5-2 0.1 0.1 1.5-0.3 2 0.8 1.6 3.5 3.5 7.3 4 11.2-0.1-0.2-1.9-0.9-2-1-1.1-1.9-0.1-6.6-4.4-6-8.2 2.5-16.6 3.5-25 5.1-5.2 1-11.1 2.8-16.3 3.6-15.7 2.6-31.6 3.8-47.3 6.3-0.1 0.7 0.1 1.4 0 2-9.7 0.3-19.2 1.8-29 2-4.9 0.1-10-0.1-15 0-1.9-0.3-3.4 0.2-5.7-0.8-3.3-1.4-20.5-20.2-18.3-22.2 2.4 0.2 5.1-0.4 7.3 0.2 4.3 1.3 15.8 10.6 21 13 9.7 4.3 22.5 3 32.7 1.8 0.4-3.5-1-5.8-3.5-8-2.5-2.2-22.8-13.6-26.2-14.8-10.7-3.9-8.1 1.2-15.1 4.5-1.7 0.8-2.8 1.9-4.2-0.2 6.1-9 11.3-9.9 21.5-8.4 5.4 0.7 8.1 1.7 14.5 1.9z"/>
				<path class="s0" d="m629 963c-13.9 4-27.5 9-41.8 11.7-11.4 2.2-21.6 2.9-33.2 3.3-8.5 0.3-17.4 0.2-26 0-5.1-0.1-10.3 0.1-15.5 0l-21.5-3c1.2-0.1 3.8-2 6-1 6.6 0.6 12.4 0.8 19 1 1.1 1.7 3.8 1 5.5 1 9 0.1 18.1 0.1 27 0 1.7 0 4.5 0.7 5.5-1 24.3-1 50.8-6.4 73-16 0.3 1 1.6 2.5 2 4z"/>
				<g>
					<path class="s5" d="m245 813c6.7-26.8 12.7-55.9 20.3-82.2 2.5-8.5 6.6-24 16.5-25.6 6.9-1 14.4 0.7 21.2 1.8v-15h-23.5c-0.3 0-3.5-3.4-3.9-4.1-3.4-6 0.3-27.5 1.7-35.1 4.8-26.1 16.9-61.3 44.9-70.1 5.3-1.6 16-1.7 19.4-3.6 6.1-3.4 10.6-22.2 13.1-23l104.9 48.9c2.8 0.8 0.4-7.6 2.9-9 10.3 14.5 21.7 23.9 37.9 31.2 9.9 4.4 24.3 10.2 35 8.7 5.5-0.8 23.2-11 28.5-14.5 2.2-1.5 17.1-12.4 17.7-13.4 0.6-1 0.5-1.9 0.4-3-13.9-4.9-34.7 19.9-46.7 17.4-5.4-1.2-11.7-7.8-15.2-11.9-6.6-7.8-14.5-24.1-21-30-3.3-3-9.5-1.3-11.9-5.2-3.7-6.2 5.9-22.4 3.9-30.6l-8.9-4.3c0.3-8.4-1.4-16.3-3.2-24.4-7-0.3-11.6 7.2-18.9 7l10-16c-6.9-0.7-15.2-0.2-19-7 6.7 0.7 14.8-0.6 19.4-6.1 0.4-0.5 6.2-11 6.4-11.6 0.6-2.4-0.4-7 0.3-8.2 0.4-0.5 2.7-0.4 3.6-1.3 0.9-0.9 2.9-8.1 2.3-8.8-1-0.3-6.4 4.1-5 0.5 0.5-1.3 10.4-13.2 12.1-14.9 5.7-5.8 11.9-7.1 16.8-11.1 2.3-1.8 3.5-5.2 5.4-7.1 8.2-8.3 22-9.6 32.4-13.1 18-6 29.6-13.7 49.3-8.8 6.3 1.5 25.2 9.2 29.5 13.5 2.6 2.7 3.1 7 6.7 9.2 3.9 2.5 12.9 3 17.8 3.8 1.6 4.2-7.6 5-7 8.4 14.5 9.9 21.8 34.2 20 51.1-0.8 7.2-11.2 33.5-15.2 39.9-3.4 5.4-13 3.1-7.7 14.5 1.8 1.2 9.6-1.9 12.4-1.9 4.9-0.1 22.5 10.5 28.8 13.2 11.1 4.8 22.9 8 34 13 28.1 12.5 59.9 35.6 82.7 56.3 5.5 5 44.8 44.4 46 47.5 0.3 0.9-0.3 2.9 0.5 5 0.8 2 12.1 14.1 14.2 16.3 1.7 1.9 0.1 5.5 4.3 2.7 9.6 14 13.1 22.1 20 37 7.7 16.9-1.4 37.2 3 55-1.1 2-0.9 2.9-1 5-2.1 2.7-0.7 7.5-1 11-0.1 0.7 0.1 1.4 0 2-2.3 14.8-9 32.3-11.8 47.8-2.9 16.6 0.5 24.9 7.6 39.9 10.2 21.7 27.1 35.5 44.9 50.8 0.1 1.6-5.3 6.7-6.7 8-3.7 3.3-13.9 9.2-16.1 12-0.9 1-1.2 1.1-0.5 2.5 1.1 2.1 12.8 9.6 15.6 11.4 18.4 11.9 45.1 28.4 66.6 31.5 11.8 1.7 33.7-2 40.4 9.6 1.8 3.1-3.5 12.1-5.6 15.4-6 9.5-15.7 17.3-21.4 27.1 1.6 0.3 2.9-0.4 4.3-1.1 5.2-2.8 13.8-9.4 19-13.1 3.3-2.3 13.4-11.5 15.7-12.3 2.8-1 5.8 0.4 5.5 3.5-18.1 18.1-40.8 30.1-61 46-5.2 4.1-8.7 9.2-14.7 12.4-17.3 9-39.6 7.6-58.4 11.6-2.3 0.1-2.4-3.3-4.1-3.9-2.1-0.7-5 1.5-7.3 0.9-0.5-2.9-1.6-5.2 1-7.5 13.5-5.5 28.9-8.1 42.2-13.7 1.7-0.7 4.9-1.9 6.1-2.9 6.1-4.8 13.1-35.2 13.6-43.4 0.5-7.3 0.9-10.2-5.2-14.7-9.2-6.8-45-19.9-57.2-23.9-8.1-2.5-32.8-9.7-40.1-9.8-4.8-0.2-21.6 7-28.2 8.6-24.4 5.8-50.3 7.7-75.2 8.3-4.5 0.1-23-0.9-25 1-1.4 1.3-1 1.3-0.6 3 2.8 14.3 15.9 40.5 25.2 51.9 9.1 11.4 23 18.1 19.4 36.1 0.9 0.2 2.2-0.2 3 0 7.8 2.1 16.7 0.7 25 1 16 0.5 31.9 1.8 48 3 0.5 3.1-0.8 1.5-2 2-16.7 0.1-33.4-0.2-50 0-10.7 0.1-23.7-2.5-32.3 4.2l-6.7 1.8h-4c-1.1-1.7-3.8-1-5.5-1-15.8-0.2-31.7 0-47.5 0-27.7 0-55.4 0.3-83 0-14.9-0.2-30-1-45-1-5.7-1.9-13-1-19-1-22.5 0-43.3-1.6-65.5-3-4.8-0.3-16.1 1-19.5-1v-4c3.9 0 8 0 12 0 23.9-0.3 48 0 72 0 7.5 0 15 0.1 22.5 0 1.7 0 4.4 0.6 5.5-1 10.8-0.2 21.5-0.7 32.3-1.2 10.1-12.3 29.9-10.1 44.9-13.1 13.6-2.8 24.6-9 36.8-15.2 2.4-1.3 5.8-4.4 7.9-5.1 6.6-2 14.5 1.7 15.1-9 0.4-7.4-9.5-14.5-14-20-5-5.9-11.6-12.8-16.1-18.4-1.3-1.8-3.6-5-5-7-1.6-2.4-2.8-7.2-5-9-2.1-1.9-18.2-1.4-22 0-3.1 0.1-10.8 2.3-12.5 0-3.7-14.7-7.1-29.6-11.5-44-0.4-1.6-1.6-3-2-4-1.2-4.1-2.6-8-4-12-3.4-10-5.4-20.9-11-30-0.5-3.9-2.4-7.7-4-11.3-0.5-1-1.9-0.6-2-0.7-2.2-4.5-5.6-13.6-8-19-13.8-32.2 6.6-48.5 29.6-67 15-12.1 31.2-22.9 46.9-34l1.5-2.4c-3.3-4.2-8.2-7.5-11.4-11.7-2.4-3.2-9.6-18.3-12-18.6-9.3 2-17.9 7.3-27.3 8.4-6.9 0.8-12.3-1.1-18.6-0.6-5.9 0.5-14.9 2.7-20.9 4.2-4.9 1.1-18 6.4-21.4 6.4-6.4 0-7.5-4.9-3.8-9.6 5.7-7.1 11.3-6.8 18.2-9.9 4.1-1.8-1.6-3.3-4.2-3.2-6.6 0.2-24 6.5-31.1 8.9-8.2 2.9-16 10.9-22.9 1.1-7-9.9 8.1-20.3 16.1-23.9 6.1-2.7 32-10.7 38-11.1 12.6-0.9 36.6 10.9 51.9 12 21.2 1.5 41-11.9 60.3-19.1 0.5-0.8 0.2-2.3-0.1-3.2-1.5-6-40.9-40-48.3-45.7-2.9-2.2-9.7-8.2-12.9-8-2.3 0.1-16.6 12.8-19.6 15.5-6.8 6-23.9 25.5-30.4 28.5-3 1.5-7.8 2.3-11.2 2.9-23.3 4-47.2 5.2-70.8 7.1-13.2 1.1-18.2 7.2-26.1-7-8.6-15.5-15.7-38.2-18.3-55.6-0.7-4.3 0.9-8.9-1.3-12.8-3.3-6.3-26.1-16.1-32.8-21.2-9.6-7.3-10-14-25.1-5.8 2.4 11.8 6.8 23.3 8.8 35.1 1.3 8.2 4.4 31.2 2.6 38.1-0.8 3-3 5.8-4.9 8.2h-23.5v9h23.5c2.2 0 5.5 4.7 6.1 6.9 9.3 35.8 12.8 73 18.6 109.5 4 25.7 9.4 51.4 12.7 77.2 1.7 13 1.7 28.6 4.1 40.4 0.5 2.2-0.9 3.7-1 5-4.8 3.2-8.1 8.9-12.3 12.7-0.9 0.7-3.4 3.1-3.7 3.3-2.6 1.9-6 2.6-9 5-0.7 0.6-1.2 2.3-2 3-0.3 0.3-0.7 0.8-1 1-0.2 0.1-0.7-0.2-1 0-0.2 0.1-1.2-0.3-1.8 0.2-0.3 0.3-2.9 6.7-3 7.5-0.3 3.3 3 5.7 2.9 7.8 0 0.6-2.7 0-2 2 0.3 0.7 1.7 1.1 1.9 1.5 1.4 1.9 4.5 8.5 5 9-10.9 1.9-21.9 2.6-33 3-33.3 1.1-69.5 0.8-103 0-3.7-0.1-7.5 0.3-11.3-0.2-1.5-0.5-2-2.5-2.7-3.8-1-2.2-2.4-5.8-1-8 1.1 0 3.1 2 5.1 0.6 2.2-1.6 0.9-6.6-1.7-7.5l-4.3 1.9c-3.1-9.7 0-5.8 4.1-8 1.1-0.6 1.2-1.8 2-2.4 0.8-0.6 2.2-0.4 2.9-1.3 1.8-2.1 2.3-8.5 1.5-11.3-0.2-0.6-3.5-7.5-3.8-7.8-0.9-0.9-3-0.6-4-1.3-9.2-6.1-31.2-25.4-34.9-35.2-0.9-2.3-1.8-5.3-1.9-7.7q0-1 0-2c0.2-3.7 1.5-9.9 2-14 0.3-2.3 0.7-12.4 1-13 2.4-4 2.6-4.5 4-10 0.5-1.8 0.5-4.2 1-6 4.2-15.4 8.2-30.5 12-46zm123-129c8.7-0.7 17.5 0.4 26 1 0.4-21.2-0.6-43.2-9.1-62.9-10.2-0.4-23.6 4.4-31.9-3.5-2-1.9-2.4-4.5-3.9-6.1-2.1-2.2-5.7-2.8-8.1-5-5.2-4.7-1.5-7.7-11.5-7.6-17.9 0.2-36.1 29-40.3 44.7-1.4 4.9-7.3 36.3-5.2 38.4l27.1-1c2-9-5.1-6.4-8.5-10-1.7-1.9-3.2-6.8-3.5-9.4 1.3-4 20.5-1.5 24.3-3.5 2.5-1.6 1.1-8.4 2.7-11.1h19l0.1 10.9 25.4 3c1 10.1 1.9 14.3-9.2 14.7-12.8 0.1-29.4-2.2-41.9-0.6-1.4 0.2-3.1 0.7-1.4 2l48.3 1.9c0.5 0.2 1.6 3.5 1.7 4.1-2.9 0.2-5.9 0-6 4l5.9 1c-0.1-1.6 0.2-3.4 0-5zm-24.9 30c2.6 0.1 6.3 2.7 6.9-1.5l-7-1.5zm35 11c-0.4 0.4-1.4 0.8-2 1l-5.4-5c-2.9 2.3 0.2 4.2 0.4 5 0.3 1.1-0.1 2.8 0 4l-5.9-1c-0.3-2 0.1-4-0.1-6-0.1-1.6 0.1-3.3 0-5h-13c-0.8 4.3 1.5 2.6 2 3 0.3 0.2 1 0.9 1 1 0.1 0.2 0.1 0.7 0 1-0.2 2.2-2.3 3.7-2 6-1.3 0-2.6 0.1-4 0 0.4-3.3 0.1-5.1-1-8-0.2-0.5 0.4-1.6-0.6-2.1-1.4-0.7-2.9-0.6-4.4-0.9-0.9-0.2-2.2-1.8-4-1-0.1 6.1 7.7 13.7-3.5 12.1-2.2-0.3-1.3-1.8-2.5-3.1q0-4 0-8h-9c0.9 4 5.5 4.9 4 10-5.8-0.5-15.1-0.4-21 0-1.7 0.1-3.3 0.5-5 1 0.1-1.6-1.9-2.2 0-6 0.3-0.5 3-1.3 2-4-7.2-0.5-21.5-4.3-25 3.5-3.6 7.7-7.9 33.6-9.7 43.3-0.9 4.5-0.6 9.6-2.3 14.2 6.9 2.6 14.9 4 21.7 6.8 17 7 32.6 27 40.3 43.2l2.7-11.7c0.3-0.9-0.7-1.9-0.7-2.3 2.8 1.8 1.7 0.9 2.2-1.3 3-14.3 7.2-29.2 12.8-42.7 6.2-14.9 19.7-35.2 37-37 1.4 1.5 1.5 5.2 2 7 0.4 1.7-0.7 2.2-2 3-0.9 0.6-2.6 1.2-4 2-2.7 1.7-3.5 2.5-7 4-3 1.4-2.8-0.5-5 4q-0.5 1-1 2c-0.9-0.5-1.9-0.8-3-1-0.1 0-0.2-0.7-0.5-0.7-4.2 0.4-15.6 29.1-17.5 34.2-2.7 7.2-7.4 18.9-7.9 26.2-0.2 2.1-0.7 4.4 1.9 5.3-0.6 1.1-3.8 10.5-3.9 11.6-0.4 3.3 0.5 3.5 0.9 5.4 1.5 6.7 4.5 10.4 7 16l3 12.5 3 2.5q0.5 1 1 2c-1.9 1-0.8 3.3-0.2 4.7 1.8 4.8 4.2 9.6 6.2 14.3 0.1 4.8 2.3 9.3 3.7 13.8 0.6 1.7-0.7 3.8 2.3 3.2 0.1 1.9-2.6 3.9 0.8 4.2 0.6 1.2-2.4 1.1 1.2 3.8-0.7 1.6-0.3 4.4 0 6l-2 2c-1-1.1-2.7-1.6-3.8-3.6-2.8-4.7-2.2-10.2-6.2-14.4-0.3-1.2-0.5-2.5-1-4-1.7-6-2.9-9.4-5-15-3.5-9.3-7.1-18.3-12-27-2.6-2.4-2.8 6.2-3 7-0.7 3-1.3 6-2 9-1.8 8-4.2 15.7-4 24-3.5 7.5-1 16.1-3 24 5.3 0.1 10.7 0 16 0 4.9 2.1 11.5 0.7 17 1 0.7 0.1 1.3 0 2 0 2.1 0.2 4 2 6 2 1 0 1.9-1 2-1 0.6 0.1 1.4-0.1 2 0 8.3 1.4 4.8 2.8 14 0 2.6-0.8 5.4-1.5 8-2l-6 11c-0.1 0-1.9 0.9-2 1-2.8 2.2-1.9 8.9-1 12h14c0.1 0-0.4-1.7 0.7-2 3.4-0.8 6.2-0.5 10.5-2.1 5.6-2.1 7.2-6.2 11.1-9.6 1.2-1 3.6 1.1 2.8-3.7-0.1-0.2-2.9-1.6-3.1-1.6 10.2-7.2 10.6-11.5 10-23.5-1-23.9-8.9-51.9-13-75.5 1.7-1.9 1.2-6 1-8.5-0.7-10.2-2.6-20.5-4-30.5-1.3-9-2.5-18.9-4.3-28.2-3-15.5-7.6-30.7-10.9-46.1-0.3-1.1-3.6-2.7-4.3-2.7h-17.5c-0.9 6.4 2.7 4 6 5.5 3.7 1.8 1.2 4.7-1 6.5zm-59.3-6.7c-4.5-3.7-12 3.6-10.7 8.7l3.6-3.9 9.4-0.1c0.6-0.5-1.7-4.2-2.3-4.7zm-71.7 142.7c-0.3 1.4-0.6 2.7-1 4-0.7 2.7-1.3 5.3-2 8-2.6 10.6-3.2 12.7-4.3 23.3-0.2 1.9-1.9 3.2-1.8 6.2 0.3 8.6 22.3 19.9 29 25.1 4.5 3.4 11.2 9.1 14.7 13.4 3.2 3.8 3.6 10.6 10.4 9 0.1-1.4 0-2.8-0.2-4.2-1-5.5-6.8-15.6-9.8-20.8h31c-0.4-4.1-2.5-6.7-3-11-0.1-0.6 0-1.3 0-2-0.1-4 0.5-6.3 1-10 0.7-5.3 3-12.2 3-17 3.5-13.3 9.4-26.5 12.5-40 0.7-3.2 2.5-9.1 1-12-0.7-1.4-3-1.8-3.9-3.1-4.6-6.1-7.6-12.8-13.6-18.9-4-4.1-2.1-2.2-4.9-6.5-2.7-4.1-12.5-10.7-17.1-12.5-4.6-1.8-12.3-2.8-17-5-0.1-0.1-1-1.4-2-2-0.9-0.6-1.8-1.2-2.5-2-0.9 0-4.7 14.5-5.2 16.8-4.8 20.5-8.9 40.7-14.3 61.2z"/>
					<path class="s1" d="m698 1116v1h-83v-1c27.7 0.3 55.4 0 83 0z"/>
					<path class="s8" d="m751 1117h-53v-1c15.9 0 31.7-0.2 47.5 0 1.7 0 4.5-0.7 5.5 1z"/>
					<path class="s9" d="m853 690c1.1 1.3 2.5 2.4 3 3 1.3 1.7 2.7 4.1 4 6 0.4 0.5 0.4 2 1 3-4.1 2.8-2.5-0.8-4.3-2.7-2-2.2-13.3-14.3-14.1-16.4-0.8-2-0.2-4-0.6-4.9l3-1c0.1 2 3.2 8 4.6 9.9 1.1 1.6 2.8 2.3 3.4 3.1z"/>
					<path class="s1" d="m751 1013c-7.8 2.3-16.9 0.4-25 1 2.1-1.9 20.5-0.9 25-1z"/>
					<path class="s1" d="m675 1007c-7.3 0.1-14.7-0.2-22 0 3.8-1.4 19.9-1.9 22 0z"/>
				</g>
				<path class="s1" d="m659 1018c-1 1.7-3.8 1-5.5 1-7.6 0.1-15.3 0.1-23 0-1.7 0-4.4 0.7-5.5-1 11.3 0.2 22.7 0.1 34 0z"/>
				<path class="s10" d="m587 1019l11 2c-4 0-8 0-12 0z"/>
				<path class="s3" d="m610 916c0.3 2.2-1.3 2.2-2.9 2.5-29.3 6-55.7 11.7-85.7 14.1-2.9 0.3-6.8-0.9-10.4-0.6l6-1c0.1-1.3 0-2.7 0-4 0.1-0.6-0.1-1.3 0-2 15.8-2.5 31.6-3.7 47.3-6.3 5.3-0.8 11.1-2.6 16.3-3.6 8.4-1.6 16.8-2.6 25-5.1 4.3-0.6 3.3 4.1 4.4 6z"/>
				<path class="s3" d="m507 933c-14.4 1.8-21.1 3-36 0z"/>
				<path class="s2" d="m539 896c-0.2 0.4-0.9 0.7-1 1-9.8 0.1-19.7-0.1-29.5 0-3.7 0-7.9 1.9-11.5-1 13.5 0.5 28.6 0.5 42 0z"/>
				<path class="s2" d="m488 929c-4.4 2.4-10.3 0.8-15 0 5-0.1 10 0.1 15 0z"/>
				<path class="s3" d="m553 962c-6.9 0.8-13.7 1.8-21 2-6.1 0.2-13.3-1-19 1q-7 0-14 0c-1-1.7-3.8-1-5.5-1-10.7-0.1-21 0.3-31.5 1-2.4 0.2-4.7 0.9-7 1-2.7-2.5-7-1.5-10-2-5.2-0.9-8.2-2.4-13-4l11-1-4 3c5.6 0.1 12.3 1.8 17.6 1.9 2 0 3.8-1 5.9-1 24.8 0.3 49.9 0.7 74.5-0.9l-8-2 8.1-0.4 1.4-4.6c1.1 0-0.2 3.5 1.4 4.6 1.1 0.6 11 2.5 13.1 2.4z"/>
				<path class="s2" d="m554 975c-1 1.7-3.8 1-5.5 1-9 0.1-18 0.1-27 0-1.7 0-4.4 0.7-5.5-1 12.2 0.3 25.8 0.5 38 0z"/>
				<path class="s2" d="m499 965c-12.3 0-24.7 0-37 0 10.5-0.7 20.8-1.1 31.5-1 1.7 0 4.5-0.7 5.5 1z"/>
				<path class="s2" d="m554 978c-6.1 1.8-13.9 1.1-20.5 1-1.7 0-4.4 0.7-5.5-1 8.6 0.2 17.5 0.3 26 0z"/>
				<path class="s2" d="m491 975c-5.3 0.5-10.1-1-15.3-1.1l-7.7-1.9c3.9 0.6 9.9-0.8 13.4 0 0.7 0.2 0.6 1.9 1.3 2 1.7 0.4 10-0.4 14.3 0-2.2-1-4.8 0.9-6 1z"/>
				<path class="s2" d="m532 964c-5.6 1.9-12.9 1-19 1 5.8-2 12.9-0.8 19-1z"/>
				<path class="s10" d="m455 966c-3.2 0.1-7.3 0-10-2 3 0.5 7.3-0.5 10 2z"/>
				<g>
					<path class="s0" d="m884 214l3-2c9.9 25.8 28.2 47.2 43.6 70 1.2 1.6 2.9-0.1 4.4 0.5 1.9 0.8 8.8 14.4 10.7 17.3 2.1 3.2 7.5 8.6 9.3 11.9 1.8 3.4 3.7 9.5 5 13.3 1.2 0.4 3.9-0.3 4-1.5 0.1-1.1-5.3-9.4-6.3-11.7-1-2.3-2-6.4-2.9-9.1-0.6-1.8-2.1-3 1.2-2.7 26.2 48.2 46.9 106.4 52 160l-3.9-7.6c0.1-2-0.5-4-0.7-6.1-0.4-5.2-1.5-10-3.2-16-0.5-1.6 0.7-2.8-2.2-2.3 0 6.9-1.1 13.6-1 20.6 0.2 17.7 3.1 36.2 2.8 53.9-0.9 59.1-20.6 114.8-44 167.8-8.5 19.3-21.3 37.8-31.7 56.5-0.6 1-1.7 4.5-0.1 5.2-9.2 14.3-15.4 26.2-24.7 40.7-3.9 6.1-12.5 15.7-15.3 21.3-4.3-17.8 4.8-38.1-3-55 1.9-0.6 2.1-2.4 2.6-4 4-13 0.7-29.3 1.4-43.5 1.1-19.1 7.2-41 7-59.5l3-1v3h1c-1-3.2 1.4-3.9 2-5 0 1.7 0.6 3.3 0.4 5-2.6 17.4-6.6 35.2-7.4 53-1.6 6.1-1.6 14.9 0 21 0.2 4.5-0.6 8.3 2 12.4l2 0.6c13.1-17.5 23.1-36.8 31.5-57 16-38.2 28.2-77.4 31.5-119 0.2 3.5 1.1 7.5 1 12-0.2 17.1-2.7 38.1-5.8 54.7-0.4 2.2 2.1 2.8-1.2 3.9 0.2 4.8-2.6 14.2-5 20.4-1.8 4.8-4.9 7.6-6 13l-4.7 6.8c-4.4 9.3-8.4 18.8-12.4 28.4-0.9 2.2-2.9 3-3.9 7.8-0.6-0.1-1.3 0-1.9 0l-1.1 5h3c0.2-1.6-0.3-3.5 0-5 0.5 0.1 1.7 1.3 2 1 0.2-0.2 2.9-5.1 3.4-6.1 4.8-8.5 13.7-27 15.6-35.9 3.8-3.8 5.7-9.1 8-14 28.2-58.7 33.9-114.5 29-179.5-0.7-10-3.8-40.8-7.2-48.7-0.4-0.8-0.7-1.8-1.8-1.8-1.4 3.9-1.5 7.9-2 12 0 0.4-0.9 1.6-1 3.4-0.8 11.5 0.7 24 0 35.6-1.2 15.3-2.8 30.7-4 46-0.1-3.2-0.9-7-1-11-0.8-49.3-9.7-92.3-30-137.5-4.3-9.6-11.2-19.1-15-28.5-2.8-6.9-2-5.2-1-11 1.7 1.3 3.4 3.4 4.4 5.1 15.5 25.8 25.3 48.9 33.6 77.9 1.3 4.5 0.2 10.1 3.5 14 2.4 0-1.2-12.7-1.5-14-1.9-10.4-4.1-20.8-7-31-1.4-5-2.1-7.2-4-12-5.6-14-14.1-29.1-22-42l2-4c-0.5 4.4 2.9 4.8 4 6.5 1.9 2.7 3.8 6.6 5.5 9.5 0.8 1.3-0.2 2.6 2.5 2-1.4-6.9-5.2-14.7-8.6-20.9-4.2-7.7-10.8-15.3-15.4-22.6-5.1-8-11.5-23-19-27.5-1.2-1.7-3.1-6.8-4-8 0.5-3.4 1.6-7 1.1-10.5-0.2-1.8-3-1.8-2.2-8 0.4-2.4 2.8-0.5 2.1-3.5h-2.9c-1.2-2.5 1.3-6.5 1-8.3-0.1-0.4-2.9-1.8-4.1-3.7-0.1-0.2 0.2-0.7 0-1z"/>
					<path class="s3" d="m664 105c1.8 0.3 3.2 0.5 5 1 2.9 2.2 7.4 2.8 11 3 54.3 15 104.3 37.5 150.4 69.2 15.3 10.5 29.2 24.5 45 35 2.7 1.7 2.5 5.1 8.6 1.8 1.2 1.8 4 3.3 4.1 3.7 0.3 1.7-2.1 5.8-1 8.2l2.9 0.1c0.8 3-1.7 1-2 3.4-0.9 6.3 1.9 6.3 2.1 8 0.5 3.5-0.6 7.2-1.1 10.6-1.6-2.2-6.3-5.4-8-7-2.1-2.1-7.3-10.3-10-8-0.1 1.5 1.4 3.7 2.4 4.6 0.7 0.7 5.8 3.5 6.6 4.4 4.5 4.6 6.9 10.4 13 14 7.6 4.5 13.9 19.5 19 27.5 4.7 7.3 11.2 14.9 15.4 22.6 3.4 6.2 7.2 14 8.6 20.9-2.6 0.5-1.7-0.7-2.4-2-1.8-2.9-3.7-6.9-5.5-9.6-1.2-1.6-4.6-2-4.1-6.4l-2 4c-2.1-3.6-5.5-8.1-8-12-4.5-7.1-9.2-15-14.9-21-0.1 2.5 1.3 4.9 2.3 7.2 2.4 5.4 6.2 10.7 8.6 15.8 1.2 2.4 2.9 6.3 4 9 0.4 0.8 1 1.9 1 2 0.1 0.3 0.1 0.7 0 1-1 5.8-1.7 4 1 11-4.1 3.1-1.7 6.2-1.9 9.4-0.2 2.9-1 5.3-1.1 8.6-1.8 4.8-0.9 11.6-1 17q0 5 0 10c-1.8 6.4-0.9 14.2-1 21q0 7 0 14h-2c-0.2 3.8 0.3 7.7 0.1 11.5-0.1 1.3-1.1 2.6-1.1 3v37c0 1.7-2.5 8.8-5 6.5l-2-22q0-0.5 0-1c0-7.3 0.4-8.8-1-16.5-0.3-1.8 1.3-4.1-2-3.5-5.2-51.5-20.6-102.5-45-148l-2-2c-0.1-0.3 0.2-0.8 0-1-1.3-2.3-2.7-4.8-4-7-10.4-18.2-21.4-34.7-34-51.5-4.4-5.9-10.1-10.6-13.7-17.3-2.2-4.1-6.1-10.8-0.3-13.7 5.4-2.7 10.8 6.4 14.5 9.5 12.9 10.7 27.5 19.6 40.7 30 4.6 3.6 8.3 9.3 14.3 12 2.8-1.7-0.2-3.1-0.5-5 0-0.4 1.5-2.7 0.1-4.4-0.9-1.2-2.7-0.2-3.8-0.8-1.6-0.9-3-7.5-3.3-7.8-2.2-1.8-1.8 3-3 2 0.5-1.5-1.4-1.9-1.6-2.3-0.5-0.8-1.7-3.1-3.8-4.7-2.8-2.1-7.8-2.7-7.6-7-0.9-0.4-1.8 1-2 1-0.3 0-0.6 0-1 0 1.1-4.4-2.2-2.3-3.1-3.6-0.5-0.8-0.4-2.9-1-3.3-0.9-0.5-3 0.3-3.7-0.3-0.4-0.3-0.3-3.4-2.6-4.9-4.7-3-11-6.4-15.7-9-1.7-0.9-4.4-1.9-4.7-2.1-0.7-0.4-0.3-3-1.9-3.9-1.1-0.8-8-1.2-7.3-3.9l-1 1c-40-28.3-80.6-50-128-63 0.1-1.7 0.4-2.3-1.5-2l-0.5 1c-0.9-0.3-1.7-0.9-2-1l-4-1c-0.8-0.2-2.1 0.2-3 0l0.1-1.4-2.1-0.6v-1h4zm205 176l-10.7-50.8c-2.5-3.3-22.5-21.4-25.3-19.2 3 3.3 4.6 7.8 7 11.2 9.8 14.1 14 23.1 20.3 40 1.4 3.7 1.6 9 3.5 12.8 0.3 0.6 3.7 7.7 5.2 6zm25 20c-0.7 7.5-2.7 16.5-3 23.4-0.4 10.5 3.5 27 5.3 37.7 2 12 4.2 23.9 6.2 35.9 2 2 2.4-0.8 2.6-2.5 1.4-12.3-1.8-29.4-2.1-42.5-0.1-5.5-0.2-11.6 0-17 0.4-6.3 4.4-21.2 4-24.4-0.1-1.3-8.5-21.6-9.5-23.6-0.6-1.2-0.9-2.8-2.5-3-2.2 4.5-0.4 10.9-1 16z"/>
					<path class="s3" d="m924 732c-1.6-0.7-0.5-4.2 0.1-5.2 10.4-18.7 23.2-37.2 31.7-56.5 23.4-53 43.1-108.8 44-167.8 0.3-17.7-2.6-36.2-2.8-53.9-0.1-7 1-13.7 1-20.6 2.9-0.5 1.7 0.6 2.2 2.3 1.7 6 2.8 10.7 3.2 16 0.2 2 0.8 4.1 0.7 6.1l3.9 7.6c1.2 12.3 1.8 24.4 2 37 0.1 5.3 0.1 10.7 0 16-0.4 23.4-2.8 47.1-7 69.4l-2 0.6c-0.8 0-1.4 0.7-2 1-0.8 0.4-1.2-0.7-2.3 1.2-2.1 3.9-4.5 15.4-6.2 20.8-0.6 1.7-0.1 4-0.5 5-5.8 17.4-14.8 36.5-23 53v-3h-3v4l3-1c-1.5 3-1.4 7.4-5 10 0.8-2.2 0.7-5.7 2-8-2.6-2.6-8 12.8-8.6 13.9-2.3 4.4-6.7 8.7-7.4 14.1-4.2 4.3-6.9 13-10.1 18.4-4.2 6.7-9.6 13-13.9 19.6z"/>
					<path class="s3" d="m764 110c83.5 45.3 146.6 106.4 192 190-3.3-0.3-1.8 0.9-1.2 2.7 0.9 2.7 1.9 6.8 2.9 9.1 1 2.3 6.4 10.6 6.3 11.7-0.1 1.1-2.8 1.9-4 1.5-1.3-3.8-3.2-9.9-5-13.3-1.8-3.3-7.2-8.7-9.3-11.9-1.9-2.9-8.8-16.5-10.7-17.3-1.5-0.6-3.2 1.1-4.4-0.5-15.4-22.8-33.7-44.2-43.6-70l-3 2c-26.4-42.7-76.8-76.5-120-101 0 0 0-3 0-3zm189.5 187v1q1-0.5 0-1z"/>
					<path class="s3" d="m869 572c0.2 8.4-1.5 15.3-1 24 0 0.3 0 0.7 0 1l-2 10c-5.7 1.5-1.7-6.8-7-7-1.1-4.2-2.4-8.4-4.1-12.4-3.2-7.2-15.8-22.1-10.8-29 2.7-3.7 10 1.5 9.8-8-0.1-3.5-5.3-30-6.6-32.3-2.6-4.6-9.9-0.1-8.3-7.3 11.3 0.1 15.7-2.5 18.8 9.8 2 8 2.6 17.3 4.5 25.4 2 8.7 6.5 16.9 6.7 25.8zm-8.5 25v1q1-0.5 0-1z"/>
					<path class="s0" d="m897 533c3.5-0.1 2.8-0.6 3 2.5 0.5 6-0.4 12.5 0 18.5 1 12.9 3.7 26.9 5 40h-3c0-0.7 0-1.3 0-2-0.1-5.6 0.1-11.4 0-17h-4c0.9-2.9-1.4-7-1-9.4 0.1-0.8 2.2-0.2 2.1-2.1 0-1.2-1.7-5.8-3.1-6.5l-4.2 20.3c-8.2 19.4-13 42.1-20.1 62.9-2.3 6.8-3.7 10.6-5.7 18.1-0.6 2-1.8-1.3-1 5.7-2.5 5.4-6.6 10.2-8 16-1.9 2.4-4.2 6.9-4 10-0.6-0.8-2.3-1.5-3.4-3.1-1.4-1.9-4.5-7.9-4.6-9.9-0.1-2.4 10.4-19.8 12.2-24.3 6.3-16.3 6.4-36.1 1.8-52.7 5.3 0.2 1.3 8.5 7 7l2-10c0.6 6.9-1.2 8.6-1.9 14.6-1.4 11.1-2.5 22.2-3.1 33.4 1.3-0.1 1.7-1.4 2.2-2.3 13.3-24.1 28.2-82 31.8-109.7z"/>
					<path class="s3" d="m478 39c32.3 0.5 69.2 6.8 101.5 11 2.9 0.4 20.4 1 21.5 2-0.1 1.8 1 3.1-1.5 3.1-8.6-0.1-20.8-3.2-30-4.1-4.8-0.5-10.4-0.6-15.5-1-6.7-0.5-8.1-0.7-15 0-13.6 1.5-35.1 5.9-47.8 2.3-3.4-1-6.9-3.3-10.2-4.3-5.6-1.8-11.9-0.9-18-1-2.3 0-8.6 0.6-10-0.4-1.6-1.1-0.6-3.5-1-4.6 1.2-1.2 0.3-2.8 2.5-3.1 6.1-0.8 16.8 0 23.5 0.1z"/>
					<path class="s0" d="m911 407c0 5.6 0.1 11.4 0 17-0.1 5.6 0.3 11.4 0 17-0.6 13.7-3.5 27.3-5 40.6-1.6 14.1-4.2 31.8-5 47.4l-3-2c1.1-9.9 1.7-21 2-31 1.7-1 1-3.8 1-5.5 0.3-15.8 0.2-31.7 0-47.5l2 22c2.5 2.3 5-4.8 5-6.5v-37c0-0.4 1-1.7 1.1-3 0.2-3.8-0.3-7.7-0.1-11.5 0 0 2 0 2 0z"/>
					<path class="s2" d="m764 110v3c-50-28.4-105-48.1-162-57.5-0.8-2.5 5.7-1.6 6.5-1.5 45.7 4.4 114.9 34 155.5 56z"/>
					<path class="s0" d="m631 99c9.9 0.9 23.1 4 33 6h-4v1l2.1 0.6-0.1 1.4c-10.2-2.5-20.6-5.2-31-7-2.4-0.4-4.2-0.7-7-1-0.3 0-0.6 0-1 0 1.5-1.6 5.8-1.2 8-1z"/>
					<path class="s2" d="m623 100c-9-1.1-18.4-1.6-27.5-2l-1.5-2c4 0.4 8.8-0.6 12.6-0.1 1.9 0.3 1.3 2.1 2 2.1 2.3 0.1 6.3-1.2 10-1 3.7 0.1 9 0.9 12.4 2-2.3-0.2-6.5-0.6-8 1z"/>
					<path class="s0" d="m801 174l1-1c-0.7 2.7 6.2 3.1 7.4 3.9 1.5 0.9 1.1 3.5 1.8 3.9 0.3 0.2 3 1.2 4.7 2.1 4.7 2.6 11 6 15.7 9 2.3 1.5 2.2 4.6 2.6 4.9 0.7 0.6 2.8-0.2 3.7 0.3 0.6 0.4 0.5 2.5 1 3.3 0.9 1.3 4.2-0.7 3.1 3.6z"/>
					<path class="s2" d="m901 443c0.2 15.8 0.2 31.7 0 47.5 0 1.7 0.7 4.5-1 5.5 0.6-17.2 0.8-36.9 0-54h1q0 0.5 0 1z"/>
					<path class="s0" d="m843 204c0.2 0 1-1.4 2-1-0.2 4.3 4.8 4.9 7.6 7 2.1 1.6 3.3 3.9 3.8 4.8 0.2 0.4 2.1 0.7 1.6 2.2 1.2 1 0.8-3.8 3-2 0.3 0.3 1.7 6.9 3.3 7.8 1.1 0.6 2.9-0.4 3.8 0.8 1.4 1.7-0.1 4-0.1 4.4z"/>
					<path class="s0" d="m868 596c-0.5-8.8 1.2-15.6 1-24 3.2 2.8-0.3 7.8 1.9 11.5z"/>
					<path class="s2" d="m901 529c-0.4 8.2 1.2 17.2-1 25-0.4-6 0.5-12.5 0-18.5-0.2-3.1 0.5-2.6-3-2.5 0.3-2.1 0.9-4.5 1-6z"/>
					<path class="s0" d="m898 422c3.3-0.6 1.6 1.7 2 3.5 1.4 7.7 1 9.2 1 16.5h-1c-0.3-6.5-1.3-13.5-2-20z"/>
					<path class="s0" d="m453 38c5.1-0.5 11.7 0 17 0 2.5 0 6.4-0.8 8 1-6.7-0.1-17.4-0.9-23.5-0.1-2.2 0.3-1.3 1.9-2.5 3.1-0.1-0.5-4.4-3.5 1-4z"/>
					<path class="s2" d="m481 48c-5.7-0.6-12.6 1.3-18-1 6.1 0.1 12.4-0.8 18 1z"/>
					<path class="s2" d="m470 38c-5.3 0-11.9-0.5-17 0 4.7-1.7 12.3-1.7 17 0z"/>
					<path class="s1" d="m554 50h-15c6.9-0.8 8.3-0.5 15 0z"/>
					<path class="s2" d="m851 271l-4-7c1.3 2.2 2.7 4.7 4 7z"/>
					<path class="s2" d="m631 101c-2.2-0.2-5.6 0.9-7-1 2.8 0.3 4.6 0.6 7 1z"/>
					<path class="s0" d="m680 109c-3.6-0.3-8.1-0.8-11-3 3.8 0.9 7.3 2 11 3z"/>
					<path class="s0" d="m669 109c-1.3-0.3-2.7-0.7-4-1z"/>
					<path class="s0" d="m671 110l0.5-1c1.9-0.3 1.6 0.3 1.5 2-0.6-0.2-1.3-0.8-2-1z"/>
					<path class="s2" d="m853 274c0-0.1-1.3-0.7-2-2z"/>
					<path class="s3" d="m865 664c-0.8-7 0.4-3.7 1-5.7 2-7.5 3.4-11.3 5.7-18.1 7.1-20.8 11.9-43.5 20.1-62.9l4.2-20.3c1.4 0.7 3.1 5.3 3.1 6.5 0.1 1.9-2 1.3-2.1 2.2-0.4 2.3 1.9 6.4 1 9.3h4c0.1 5.7-0.1 11.4 0 17-3.2 7.2-1.7 15.8-1.9 23.5-0.1 2.7-2.5 8-0.1 9.5 0 1.7-1.2 2.7-2 4-0.6 1.1-3 1.8-2 5h-0.9l-0.1-3-3 1c0-2.9 0.6-9.6-2.5-11-1.5-0.6-2.2 2-2.8 3.1-3.7 6.4-6.6 16-9 23.1-4.5 13.3-8.2 29.6-13.6 44.3-1 2.6-2.1 5.5-4.1 7.5-1.3-1.8-2.7-4.3-4-6 3.1-3.9 4.5-10.2 6-15 1.8-5.7 3.8-7.7 3-14z"/>
					<path class="s3" d="m941 649c-0.1 0.6 0.2 1.4 0 2-1.9 8.9-10.8 27.4-15.6 35.9-0.5 1-3.2 5.9-3.4 6.1-0.3 0.2-1.5-0.9-2-1-0.3 1.5 0.2 3.4 0 5h-3l1.1-5c0.6 0 1.3-0.1 1.9 0 1-4.9 3-5.6 3.9-7.8 4-9.6 8-19.1 12.4-28.5l4.7-6.7z"/>
					<path class="s10" d="m881 242c1.7 1.6 6.4 4.8 8 7 0.9 1.2 2.8 6.3 4 8-6.1-3.6-8.5-9.4-13-14z"/>
					<path class="s2" d="m966 458c0.7-11.6-0.8-24.1 0-35.6 0.1-1.8 1-3 1-3.4-0.6 11.6 0.9 24.1 0.1 35.6-0.1 1.8-1 3.1-1.1 3.4z"/>
					<path class="s10" d="m949 637c-2.3 4.8-4.2 10.2-8 14 0.2-0.6-0.1-1.4 0-2 1.1-5.4 4.2-8.2 6-13z"/>
					<path class="s10" d="m955 399c0.3 1.3 3.9 13.9 1.5 14-3.3-3.9-2.2-9.6-3.5-14z"/>
					<path class="s2" d="m959 557c0.1-4.5-0.8-8.5-1-12-0.2-4.3 0.2-8.7 0-13 1.5 0.5 1.9 5.2 2 6.5 0.4 5.5 0.6 13.3-1 18.5z"/>
					<path class="s2" d="m962 504c0.2 2.8 0.4 6.9 0 9.5-0.2 1.5-0.7 3.1-2 1.5l1-22c0.1 4 0.9 7.8 1 11z"/>
					<path class="s2" d="m891 708c-1.6-6.1-1.6-14.9 0-21-0.3 6.7-0.2 14.3 0 21z"/>
					<path class="s2" d="m948 368l-4-12c1.9 4.8 2.6 6.9 4 12z"/>
					<path class="s10" d="m914 302h-4v2c-2.4-5.1-6.3-10.4-8.7-15.8-1-2.3-2.4-4.6-2.3-7.2 5.8 6 10.5 13.9 15 21z"/>
					<path class="s2" d="m911 393c0-6.7-0.8-14.6 1-21 0 6.7 0.9 14.6-1 21z"/>
					<path class="s2" d="m912 362c0-5.4-0.8-12.2 1-17-0.1 5.5 1 12.1-1 17z"/>
					<path class="s2" d="m903 353c-1.6-4.6-1.6-12.3 0-17-0.3 5.4-0.1 11.5 0 17z"/>
					<path class="s2" d="m894 301c0.6-5.1-1.2-11.5 1-16-0.3 4.4 0.4 9.2 0.1 13.6-0.1 1.3-1.1 2.2-1.1 2.4z"/>
					<path class="s0" d="m915 315c0-0.1-0.6-1.2-1-2z"/>
					<path class="s2" d="m948 694c0.7-5.4 5.1-9.7 7.4-14.1 0.6-1.1 6-16.5 8.6-13.9-1.3 2.3-1.2 5.8-2 8-0.7 2.2-7.4 16.1-8.5 17-1.5 1.4-2.8 0.3-5.5 3z"/>
					<path class="s10" d="m999 584c-1.6 7-3.6 14-5.5 20.9-0.5 1.9-0.1 4-0.5 5.4-0.3 1.1-1.9 0.6-2 0.7h-1c0.4-1-0.1-3.3 0.5-5 1.7-5.4 4.1-16.9 6.2-20.8 1.1-1.9 1.5-0.9 2.3-1.2z"/>
					<path fill-rule="evenodd" class="s2" d="m967 664l-3 1v-4h3v3z"/>
					<path class="s0" d="m953.5 297q1 0.5 0 1z"/>
					<path class="s0" d="m860.5 597q1 0.5 0 1z"/>
					<path class="s3" d="m905 594c1.2 11.8 1.4 23.2 2.8 34.8 0.1 1.6 1.1 4.2-0.8 5.2 0-1.6 0.4-3.2-0.3-4.7-0.6-1.3-3.2-2-3.7-2.3 0.1-0.7 0-1.3 0-2h2v-6.4l-2-0.6c-0.1-8-0.7-16-1-24z"/>
					<path class="s10" d="m902 594c0.3 8 0.9 16 1 24 0.1 2.4 0.1 4.6 0 7 0 0.7 0.1 1.3 0 2-1.5-1.2-1.6-1.1-3-2-2.4-1.5 0-6.8 0.1-9.5 0.2-7.7-1.3-16.3 1.9-23.5 0 0.7 0 1.3 0 2z"/>
					<path class="s10" d="m862 678c0.1-1.7 0.4-2.3-1.5-2-1.2 1.2-2.4 2.6-3.5 4 1.4-5.8 5.5-10.6 8-16 0.8 6.3-1.2 8.3-3 14z"/>
					<path class="s2" d="m911 441c0.3-5.6-0.1-11.4 0-17 1.7 4.7 1.7 12.4 0 17z"/>
					<path class="s0" d="m903 627c0.5 0.4 3.1 1 3.7 2.3 0.7 1.5 0.3 3.1 0.3 4.7 0.1 4.2-0.2 9.2-1.2 13.2-0.2 0.4-3.4 7.8-3.7 8.1-1.1 1-1.7 0.8-3.1 0.7 2.9-9.9 3.6-18.8 4-29z"/>
					<path class="s2" d="m959 517c3 1.7 2.4 9.6 2 12.5-0.2 1.9 0.4 1.6-2 1.5z"/>
					<path class="s0" d="m903 618l2 0.6v6.4h-2c0.1-2.4 0.1-4.6 0-7z"/>
				</g>
				<g>
					<path class="s3" d="m162 79c1.8-2 1.5-4.6 4-4-0.5 4.3 4.1 5.1 5 6 3 3.1 5.3 6.8 8 10 0.2 0.2-0.1 1.1 0.4 1.7 2.6 3 7.3 7 10.6 9.3 14.2 13.3 32.8 17.8 52 18 1.7 1.8 5.5 0.9 8 1 0.4 0 0.7 0 1 0 1.2 1.8 4.2 0.9 6 1 17.7 3 28.4 5.7 47 6 5.4 2 12.2 0.8 18 1 41.6 1.5 77.2 16.3 115 31.5 38.3 15.3 70.2 29.6 100 59.5 1.4 4.9 7 7.3 10 11 6.3 7.6 9.9 12.6 15 21 1.4 5.1 4.9 9.3 7 14 3.1 6.9 4.3 11.7 6 19-2 0.4-2.2-1.1-3-2.4-8.2-15.6-18.3-35.3-30-48.1-7.8-8.6-21.4-22.8-30.6-27.9-3.1-1.7-1.3-3.9-1.8-4.6-0.7-1.1-21.1-12.4-22.4-12.9-2.9-1.1-8.9-3.5-9 1.3-0.1 3.1 6.1 5.3 8.8 4.6l-1 10c5.5-0.9 3.2 1.3 4.3 2.7 0.6 0.8 2.3 0.8 2.6 1.9 0.9 2.6-2 3.4 1.1 7.9 4.9 6.9 9.4 5.5 13.4 8.6 1.7 1.3 1.3 3.3 1.8 3.7 1 0.8 6 0 6.8 3.2-1.6-0.8-3.1-2.1-5-2-0.8 0.8 2.2 4.9 3 6-3.8 1.1-3.1-3.1-5.7-3.8-2.1-0.6-4.6 0.2-6.6-0.2-0.4-0.1-2.6-2.6-6.7-3-1.5-0.1-7.4-1-7 1.5 0.5 3.7 4.3 3.8 7 3.5 6.4 1.9-1.4 1-2 3 3.5 2.8 5.9 1.6 10.1 2.4l0.9 4.6c3.1 0.4 2.6-3.8 5.5-4.1 3.3-0.3 4.9 5.2 9.5 2.1 2.9 2.8 8.8 6.4 12 9.5 2.6 2.5 4.2 5.7 6 7.5-4.2 2.7-10.9-5.1-11.6-5-1.9 0-4.9 3.1-8.4 1-0.7 3.1 1.6 1.4 2.7 2.3 0.2 0.1 1 2.1 1.3 2.7 0.5 1.3 1.2 2.5 1 4-1.5 0.3-5.4 1.3-6 3h6c-1.8 4.8 2.4 5.2 2.9 6.6 0.4 1.3-0.3 3.6 0.2 4.3 0.8 0.8 4.8-0.9 3.7 4.4-1.2 5.9-6.7 9.2-1.7 17.1-8.4 3.6-3 6.9-3.3 8.9-0.1 0.7-1.4 1.6-1.6 2.5-1.5 7.6-1.3 5-6.8 10.1-3.4 3.3-11.3 10.7-15.4 12.6-2.5 1.1-13 1.5-17.2 2.8-9.5 2.9-6.5 3.9-17.3 3.7-4.9-0.1-11.5 0.7-16.1 0.1-0.4-0.1-6.4-2-7.7-2.4-2.7-0.8-12.9-4.9-14.2-6.7-0.9-1.3-1.1-3.5-1.5-5 3.7 1.4 8.2 7.1 12.5 8 6.7 1.2 13.4-1.5 19.5-2 2.3-0.2 4.6 1.6 7.3 0.8 1.6-0.4 3.7-3.6 5.7-4.3 4.2-1.4 4.5 0.6 9-2.5 24.8-17.1 19.3-42.9 32.5-61 1.2-1.6 3.4-1.9 4.2-3.6 1.5-3.4-2.5-4.2-4.3-6.3-1.1-1.3-1.3-3.7-1.6-3.9-0.7-0.6-2.4 0.1-3-0.3-1.4-0.8-2.1-2.8-5.3-2.7-0.8 0.2-0.9 1.3-1.5 1.8 0.5-2.2-1.1-2.2-2.6-2.9-6.9-2.8-10.3-4.4-17.4-6.6-4.9-1.4-7.5-5.7-13-4.5l2-7c-1.8 0.5-2.7-0.4-4-1 7.4-1.5 12.7 4 20 3-0.2-1.4 0.6-3.1-0.6-4.1-2.4-1.8-13-4.2-16.4-4.9-3.1-0.6-5.6-0.5-8-1-11.8-2.4-25.4-6.5-37-8v-1c2.2-0.4 6.8-1.7 8.7-2.8 2.7-1.4 5.2-5.6 7.9-5.9 0.7-0.1 6.9 0.5 7.7 0.7 4.5 1.1 13.2 5.7 18.1 7.1 2.2 0.6 6.9 1.5 8.9 0.7 7-6.2-3.9-11.4-9.4-13.3-17.6-6-47.7-12.1-66.5-15.4-26.4-4.5-48.6-10-75.9-7.1-47.1 5-94.5 29.8-128.5 62h-2v-2c2.2-2.4 4.7-4.7 7-7 4.1-1.6 6.8-6 10-9 4-3.8 7.6-6.7 12-10 2.2 0.5 3.4-0.5 5.1-1.4 3.2-1.5 13.8-6.6 15.8-8.1 2.3-1.7 1.8-4 2.2-4.4 0.9-0.7 3.9 0.5 4.8-0.2 0.4-0.3-0.1-1.7 0.1-1.9 2.8-3.5 22.8-11.6 28-13.5 53.8-19 96.1-16.4 151.5-18.5 1.2 0 3.7 0.8 3.5-1-23.7-8.3-47-19.5-71.8-24.7-24.7-5.2-50.2-4.5-75.2-4.3l0.8 1.8c-4.3 1.9-5.9 5.8-11.2 5.2-4.1-0.5-5.3-4.6-8.1-7-6.3-5.3-26.4-13.1-33.8-8.8-2.8 1.6-4.6 6.8-9.2 8.9-4.1 1.8-7.3 0.5-9.8 1.1-7.7 2-21.3 9.1-29 7.6-5.5-1.1-13.5-11.3-14.5-16.6-1.5-7.4 7.6-11.6 2.6-18.6-0.4-0.6-6.2-5.6-6.9-6-2.8-1.7-11.1-2.1-11.9-4.2-0.6-2.7 1.5-4.6 1.9-7 0.4-2.1-0.5-5 0.2-6.8 0.4-1.1 3.2-1.7 4.9-3.6zm38 36c-2.1-1.1-4.1-4.1-8-3 0.3 1.1 4.8 4.6 5 5 0.4 1.1-0.6 3.9 0.1 4.8 1.2 1.4 7.1 1.9 8.9 2.2 0.3 0 1.1 0.9 2.4 1 4.3 0.4 9.2-0.3 13.6 0 0.5-2.8-0.7-1.7-2.2-2.3-4.2-1.6-8.7-1.9-12.8-3.7-2-0.9-4.6-2.8-7-4zm276.9 78.1c-8.2-0.4 1.5 10.1 5.1 3.9l-3.9-0.1zm47.4 59.9c0-0.7-0.6-1.3-1.3-1.3-0.7 0-1.2 0.6-1.2 1.3 0 0.6 0.5 1.2 1.2 1.2 0.7 0 1.3-0.6 1.3-1.2z"/>
					<path class="s3" d="m364 397c-5.8 0.6-12.1 3.3-16.9 6.6-3.3 2.2-18.6 18.2-22.6 12.5-2.1-3.1 5.5-9.2 8.1-11.1 5.9-4.4 11.4-6.3 18.4-8 2-0.5 7.6-1.9 9-2 0.4 0 0.7 0 1 0 0 0 3 2 3 2z"/>
					<path class="s2" d="m443 418c0.6 0 1.4-1 3.3-0.8 1.8 0.2 2.8 1.5 3.7 1.8-6.4 3-11.4 1.4-18-0.5-14-4.1-27.3-12.8-40.7-17.3-6-2-12.2-2.5-18.3-4.2 2.6-0.1 5.7-0.9 7-1 17.4-0.7 44 23.2 63 22z"/>
					<path class="s0" d="m380 396c-1.3 0.1-4.4 0.9-7 1-2.9 0.1-6.1-0.3-9 0l-3-2c6.4-0.6 12.7 0.7 19 1z"/>
					<path class="s2" d="m284 454c-3.5-1.5-0.2-4.2 0.6-6 1-2.3-0.5-4.2 3.4-5z"/>
					<path class="s2" d="m578 323c0.3-6-0.2-12 0-18 0 0.3 1 1.6 1.1 3.4 0.3 4.2 0.5 10.6-1.1 14.6z"/>
					<path class="s2" d="m569 266c-2.1-4.8-5.6-8.9-7-14 2.5 4.1 6.8 8.5 7 14z"/>
					<path class="s2" d="m250 121c-2.5-0.1-6.3 0.8-8-1 2.5 0 6.4-0.8 8 1z"/>
					<path class="s2" d="m537 220c3.7 3.7 6.9 7.3 10 11-3-3.7-8.6-6.1-10-11z"/>
					<path class="s0" d="m360 395c-1.4 0.1-7 1.5-9 2 2.4-1.9 6.1-2 9-2z"/>
					<path class="s3" d="m415 970c-1.6-4.3 5.4-3.5 7.3-3 0.8 0.2 0.7 1.8 1.4 2 8.8 1.9 14.4 2.7 22.6 6.1 1 0.4 3.3 2.8 1.7 3.9 3.8-1.7 5.2 1.8 5.7 2 1.4 0.4 3.2-0.3 4.3 0 19.2 4.6 37.9 13.8 57 19.6 35.7 10.8 72.5 16.7 110 17.4 1.1 1.7 3.8 1 5.5 1 7.7 0.1 15.4 0.1 23 0 1.7 0 4.5 0.7 5.5-1 6.1 0 12.1 0 18.2-0.4 1.7-0.1 3.3 1.8 2.8-1.6 1.4 2 3.6 5.2 5 7-13 3.4-26.6 3.6-40 4-8.8 0.3-17.7-0.1-26.5 0-1.7 0-4.4-0.7-5.5 1-9.6 0-19.3 0-29 0-6.7-1.8-14.9-1-22-1q-3.5 0-7 0c-1-1.7-3.8-1-5.5-1-6.7-0.1-22.1-1.1-27.5 1-6.9 2.7-2.2 7.5-10 10.5-10.9 4.1-20.9 3.6-30-4-4.4-3.6-7.6-10.1-12-12.9-3-1.9-8-2.7-10.9-4.2-15-8.2-26.9-13.3-42.1-20.4l-1-6.2-3-4.8c6.1-2.6 6.2 1.6 8.8 3 2.3 1.2 5.5 0.5 7.2 1 8.6 2.5 16.3 8.9 24.3 12.2 23.4 9.5 81.9 17.9 107.7 18.8 7.5 1.8 16.3 1 24 1q0.5 0 1 0c4 0 8.1 0 12 0l-11-2c-48.7-6.5-131.6-22.6-172-49z"/>
					<path class="s3" d="m71 649c0.1-2.7 1-4.9 1.1-7.5 0.2-6-0.8-13.3-0.1-19 0.2-1.5 0.8-3.1 2-1.5 0.3 5.8-0.4 11.8 0 17.5 0.8 9.4 2.5 20.3 4 29.5 0.9 5.3 0.8 6.7 1 12 0.6 13.1 2.4 21.7 4 34 10.4 77.6 33.1 168.7 88 226.5 10.5 11.1 48 41.7 62 43.1 3.7 0.3 9.5-1.6 13.3-0.6 1.2 0.3 1.2 2.7 2.3 3 0.6 0.1 7.4-2.1 11.4-2-1.4 2.2 0 5.8 1 8-5.2-2.1-2.2 2.6-5.5 3-5.3 0.8-16-0.9-21.8-0.7-2.6 1.5-5.1 3.1-7.7 4.7-1.2 0.8-1.5 3.2-5 2-26.7-17.4-48.1-39.1-67.4-64.1-4.3-5.6-12.4-19.9-16.9-23.6-1.3-1.1-3-1.4-4.7-1.3 0.9 1.6 0.1 2.7 0 4-0.5 8.9 0.4 18.1 0 27-0.1 1.3-0.8 2.7-1 4-1.8-1-2.7 2.3-3 4 0-70.1-30.2-134.4-44.5-202-5.7-26.8-11.9-57.6-12.5-85-0.1-5-0.1-10 0-15z"/>
					<path class="s0" d="m158 306c-20.7 29.2-27.2 58.3-34.5 93.5-0.4 1.8-1.7 6.6-3.5 7.5-0.5-1.1-2.1-3.4-3.5-3-0.5 1.6-2.9 2.8-3.4 3.8-4.2 8.6-6.4 25-9.6 35.2-0.7 2.4-2.5 4.7-3.4 7.6-1.2 3.6-0.4 11.5-5.1 12.4 14.1-55.4 27-109.4 60-157h3z"/>
					<path class="s1" d="m201 259c-14.6 10.6-32.4 32.1-43 47h-3c10.7-15.4 22-26.4 34.6-40 1.1-1.2 2.5-2 2.4-4 2.5-1.1 6.4-1.3 9-3z"/>
					<path class="s0" d="m408 977l18.4 9.2 2.6 2.8c-1.7-0.5-4.9 0.2-7.2-1-2.6-1.4-2.7-5.6-8.8-3l2.9 4.8 1.1 6.2c-1.6-0.7-4.9-2.1-6-3-0.5-0.5-3.7-7.1-5-9 1.7-1.7 2.2-4.7 2-7z"/>
					<path class="s0" d="m209 251c0.9-0.2 4.8-1.1 5-1l-1 2c-3.3 1.6-9 4.8-12 7-2.6 1.7-6.5 1.9-9 3-2.5 1.1-8.1 4.3-11 6h-2l1-3c7.1-4.2 21.4-11.9 29-14z"/>
					<path class="s0" d="m250 195c-0.1 0.2 0.4 1.6 0 1.9-0.9 0.7-4-0.5-4.8 0.2-0.4 0.4 0 2.7-2.2 4.4-2.1 1.5-12.7 6.6-15.8 8.1-1.8 0.9-2.9 1.9-5.2 1.4 0.4-0.3 0.7-0.7 1-1l1-1c7.6-5.4 17.3-11 26-14z"/>
					<path class="s2" d="m555 1027q-16.5 0-33 0c5.4-2.1 20.8-1.1 27.5-1 1.7 0 4.5-0.7 5.5 1z"/>
					<path class="s3" d="m439 935c6.3 2 14.6 1.2 21 0 0.4 0.3-1.3 2-1.5 2h-18c-0.1 0-1.5 1.3-1.5 2 1.9 0.9 4.6-1 5.5-1h16c0.9 0 4.1-2.4 5.5-0.5-8.5 2.9-18.1 0.8-27 2.5 0.6 3.8 5 5.7 4 10h-5l1-3h-4c-0.8-2.6 1.4-1.7 1.8-2.5 0.8-2 0.2-3.7 0.2-4.5 0.1-1.3 1.5-2.8 1-5h1z"/>
					<path class="s0" d="m338 214c0.2 0 0.8 0.8 1.6 0.9 6.2 0.5 12.3 1.3 18.4 2.1 0.1 3.4-3.4 4.3-6 4l4 2c-9.4 1.7-23.8 5.8-33 9l-0.4-1.4c2.3 1.2 1-2.2 2.3-3.2 1.4-1 4.3 0.1 5-0.5 3.3-8-2.1-6.5-7.9-8.9l2-3c3.9-0.5 10.3-1.2 14-1z"/>
					<path class="s2" d="m390 213c-10.9 0-22-0.3-33 0 1.1-1.7 3.8-1 5.5-1 7.3-0.1 14.7-0.1 22 0 1.7 0 4.5-0.7 5.5 1z"/>
					<path class="s2" d="m424 213v1c-1.3-0.2-2.7 0.1-4 0v2c-1.9-0.7-4.2-0.9-6-2 1.8-0.1 8-0.7 10-1z"/>
					<path class="s10" d="m200 115c2.5 1.3 5 3.2 7 4-3.7 0.2-4.2 3.7-1 5-1.8-0.3-7.6-0.8-8.8-2.2-0.8-0.9 0.2-3.7-0.2-4.8h3z"/>
					<path class="s0" d="m476.9 193.1l1.3 3.8 3.8 0.1c-3.5 6.2-13.3-4.3-5.1-3.9z"/>
					<path class="s2" d="m585 1021c-7.7 0-16.6 0.8-24-1 7.9 0.3 16.5-1 24 1z"/>
					<path class="s2" d="m220 246l-1 2h3c-2.4 2.4-6.3 2.7-9 4l1-2c-0.2-0.1-4.1 0.8-5 1 3.1-2.4 7.4-3.7 11-5z"/>
					<path class="s3" d="m324 215l-2 3c5.8 2.4 11.2 0.9 7.9 8.9-0.7 0.6-3.6-0.4-5 0.5-1.3 1 0 4.4-2.3 3.2l0.4 1.4c-18.3 6.4-37.2 15.7-53.8 25.6-18.5 11-32.9 25-50.2 36.4 3.2-5.4 24.8-23.7 31.1-28.4 5.4-4.1 12.8-9 18.6-12.4 3.7-2.2 19.6-8.6 20.3-11.7 0.5-2.1-9.7-4.9-11.7-5.3-7.2-1.1-15.9 5.3-21.3 9.8l-1-1c1.2-1.4 3.3-3.9 4.1-5.5 0.7-1.4 1.4-0.9-0.6-2.5l-36.5 11h-3l1-2c22.3-8.3 43.3-15 66.2-21.3 12.1-3.3 25.1-8 37.8-9.7z"/>
					<path class="s3" d="m219 294c-2.4 4.1-3.7 4.3-5 6h-2c3.2-3.4 3.3-3.5 7-6z"/>
					<path class="s2" d="m256 246c-1 0.8-6.4 8.5-8 7 1.2-3.6 5.1-5.7 7-8z"/>
					<path class="s3" d="m208 304c-0.3-2.1 1.3-2.4 3-3-1.6 1.9-1.4 1.6-3 3z"/>
					<path class="s3" d="m207 305c-0.3 0.4 1.2 2.9-3 2 0.9-0.8 1-2.2 3-2z"/>
					<g>
						<path class="s3" d="m357 213c11-0.3 22.1 0 33 0 8.2 0 16.1 1.3 24 1 1.8 1.1 4.1 1.3 6 2 5.2 1.9 10.5 4.1 15.8 5.7 5.6 1.7 15.7 3.1 20.2 5.3 0.7 0.3 2.3 1 2 2-11.6 8.4 5.8 3.2 5.1 9.5-0.6 4.8-11.4 4.4-12.9 5.7-0.7 0.6-0.1 3.9-2.9 4.7-2.7 0.8-4.5-1.6-6.8-1.8-4-0.5-8.4 0.1-12.5-0.1 1.3 4.9 9.9 9 14.3 7.9 1.3-0.4 2.2-2.2 3.4-2.8 2.1-1 4.3-1.4 6.3-2.6 2.9-1.8 3.8-5.5 8.5-5.5 2.8 0 8.5 2.4 12.2 2.9 8.3 1.2 19.6 0.6 26.3 6.1-2 3.1-4.6 10.8-7 13-0.5 0.1-0.9 0.5-1 1-3.9 0.9-9.8-0.9-13.3-0.7-2.7 0.2-5.2 2.7-8.2 2.8-6 0.2-14.6-4.4-19.9 0-1.8 1.6-1.6 3.6-3 5-1.5 1.3-6.5 2.3-7.3 3.2-0.9 0.9-0.6 3.6-1.3 4.9-0.5 1.1-3.3 2.3-4.8 4.5-2.1 3-2.3 6.6-3.8 9.2-2.3 4.3-7.3 10-8.4 15.1-6.8-0.8-3.5 8.4-8.9 7l-1.2-5.9c-1.9-0.6-5.1 0.6-6.7-0.3-0.4-0.3-5.1-8.8-5.1-9.4-0.6-6.6 5.1-13.5 8.2-18.7 0.8-1.3 0.6-3.4 1.7-5.2 0.3-0.5 11.2-10.6 5.6-8.5-4 1.6-8.4 6-12 8.1-2.8 1.5-7.1 2.3-10 4-1.2 0.7-1.3 2.7-2.3 2.9-2.5 0.7-6.7-0.5-9.7 0.1-7.2 1.2-19 8.9-25.9 12.1-18 8.6-44.8 18.5-56.7 34.3-1.8 2.4-3.1 7.1-5.5 9.5-2.4 2.3-6.9 2.4-6.5 7.5 0.2 2.5 14.8-4.3 16.3-4.8 23.2-7.3 54.5-7.3 72.3 11.3 9.6 10.1 14.5 22.7 22.9 32.1 2.8 3.1 13.5 14.1 15.8 15.7 2 1.3 10.7 1.2 10.7 5.2-20.7-9.1-24.4-14.4-41.6-26.8-27.3-19.6-62-30.8-90.7-7-5 4.2-17.1 18.6-19.9 24.1-1 1.9-1.7 6.2-2 6.6-0.2 0.2-4 0.3-4.7 4.1-0.8 3.9 0.4 5.3 4.2 4.8 4.9-0.6 1.2-3.9 3.8-6.8 0.9 0.4 1.9 0.5 3 1l-3.1 6.5c0.1 1 6.9 2.5 6 5.5-8.7-2.2-11.4 1.6-11.9 10 3.8 1.4 7.3-4.6 10.2-3.9 2.8 0.7 5.8 6 4.7 8.9h-3.9l-2-4c-1.7 4.8-5.5 9.9-7.5 14.1-7.8 16.9-10.7 37.2-19.8 53.2l-7.8 22.2c0.6 1.1 3.2-2.6 3.3-2.8 7.1-12 12.5-29.7 20.1-40.3 3.6-4.8 10.3-8.8 13.6-14.4 1 0.2 3.1-0.5 3.1 0.5-4.2 16.8-10.3 28.3-21.1 41.5l-2 3c-0.3 0.4-0.6 0.7-1 1-3.1 2.2-9.9 7.9-11 11-1.9 5.9 7.4 4.7 4.2 13.6-2.2 6.3-9.2 14.6-15.2 19.4-0.2 0.2-1.3 0.1-1.9 0.5-1.2 0.9-2.5 5-4 3.5-0.4-0.3-1.8-8.3-2-10-0.6-2.9-0.9-6-1.1-9-9 2.3-16.1 6.3-23.4 12.1-19.4 15.2-35.7 40.6-36.5 64.9-1.8 7.4-1.1 16.3-1 24 0.6 49.8 10.2 93.2 42 133.5l38 40.5c-3.9 15.5-7.9 30.7-12 46 0.9-3.8-5-1.2-5.1-0.4 0.5 1.9 1.1 6.9 4.1 6.4-1.5 5.5-1.7 6.1-4 10-0.3-5.4-3.7 0.3-5 0.6-5.5 1.4-4.8-2.9-7.5-4.6-1.9-1.3-5.3-1.1-6.3-2.2-1.7-1.7-0.1-6-5.7-6.8-4.2-0.5 1.9 5.1 2.7 6.3 1 1.5 2 2.7 1.7 4.7-0.8-0.7-10.3-10.2-8.9-5.5 1.1 3.9 13.8 15 15.9 20.1 3.1 0.7 3.9 3 5.6 4.3 1 0.8 3.3 1 3.4 1.2 0.3 0.4-2 7.2 1 9q0 0.9 0 2c-23.8-24-46-51.7-64.4-80.1-17.1-26.4-32.3-54.2-42.6-83.9l1.1 1.9h0.9l-0.7-6.4 0.7-0.5c2.6 6.7 7.5 12.8 10.9 18.8 3.8 6.6 8.7 16.8 13.1 22.7 1.3 1.7 2.8 2.7 5 2.5 4.4 7.5 9.8 14.6 14 22.2l49.2 52.6c3.4 1 3.6-2.7 3.8-2.8 1.8-1.7 5.3-1.2 4-6-4.7-0.6-4.3-3.1-9-3 0 0.8 0 1.7-1 2-0.6-0.7-1.3-1.4-2-2q1.5 0 3 0c0.2-1.9-2.5-5.9-4-7-1.5-1.2-2.1-1.3-4-1v3c-17.5-18.1-32-34.7-43-57 3 0.9 6.1 12.9 9 10 1.1-3.9-1.7-5.8-2.8-8.7-16.6-47.2-28.1-93.1-32.2-143.3l4.1-1.7c0.8-2.2-1.1-5.1-1.1-6.8 0.1-0.6 1.7-0.6 2.1-1.2 1.1-1.9-0.3-37.6-0.1-43.9 0.6-22.2 1.9-61.5 10.3-81.8 1.2-3.1 4.1-6.3 5.3-11.6 7.4-31.8 15.5-64.6 32.5-93.3l5-4.7c-2 8.1-9.5 18.9-11.8 27.7-1.6 6-1.7 13.1-3.2 19.3-0.1 0.3 0 0.6 0 1-0.1 0.1-0.7 0.8-1 2-0.1 0.3 0 0.6 0 1-0.5 0.2-0.9 0.5-1 1-2.9 11.6-7.5 26.6-12 37-0.4 0.9-1.4 1.5-1.6 2.9-0.6 3 2.4 2.4-2.5 3.7-3.6 19.1-9.8 37.8-9.9 57.4 3 0.5 1.6-0.8 2-2.5 5-20.4 7.7-37.2 14.9-57.5 5.5-15.5 13.1-34.8 20-50 11-24.3 33-47.5 49.5-67.1 0.8-1.1 3.4-1.9 3.6-2.4 1.7-5.8-4.7 0.2-5.7 0.3-1.5 0.2-2.6-2.2-4.3-1.8-5.4 7.6-12.3 14.2-18 21.5-5.7 7.2-11.6 17.6-17.5 24.5-0.9 1.1-1.9 2.3-3.5 2-0.4-2 0.1-2.9 0.9-4.6 22.8-44 63.6-88.1 103.8-116.4 3.2-2.3 9.9-2.6 9.2-8-2.5 0.8-6.6 2-8.9 3v-3c-1.7 0-3.4-0.2-5 0 0.1-1-0.3-2.3-0.1-3.3 0.3-1.2 3 0 2.1-2.7h-4.1c0-2.3 0.4-5.2 3-5l-0.5-2c-17.4 7.6-32.9 20.4-48.4 31.5-0.3 1.5-0.1 1.7 1.5 1.5 0.9-0.1 8.9-4.2 10.6-5.1 0.8-0.4 1-1.4 1.7-1.8 2.2-1.1 11.6-5.7 13.2-4.1l-0.3 2.8-29.2 22.2c-20.1 19.9-44.6 33.9-65.1 53-6.2 5.7-20 23.1-26.3 25.7-2.6 1.1-6.7 2.2-9.2 4.8-0.9 0.9-1 2.2-1 3.5l-2-7c4.2-7.4 6.9-16.9 13-23 0 0 1 0.7 0.8 1.3l-3.8 10.7c1.7 0.3 2.7-0.9 3.6-2 3.2-3.7 6-9.9 9-13.9 8.1-10.6 18.3-19.6 24.4-31.6l28-27.5c7.3-3.8 16.7-12.6 24.1-17.4 34.2-22.6 63.9-40 103.7-51.3 18.7-5.3 43.8-12.6 62.8-14.3 1.2-0.1 19.1 1 15.5-3-19.6-6-40.9-6.5-61-3l-4-2c2.6 0.3 6.1-0.6 5.9-4-6.1-0.8-12.2-1.6-18.3-2.1-0.9-0.1-1.5-0.9-1.6-0.9 6.4 0.3 12.6-0.8 19-1zm-57.8 54c0-0.7-0.5-1.3-1.2-1.3-0.7 0-1.2 0.6-1.2 1.3 0 0.6 0.5 1.2 1.2 1.2 0.7 0 1.2-0.6 1.2-1.2zm-7.2 2v2h4v-2zm-32 154c-0.7-0.7-5.6 3.3-6.5 4-4.5 3.7-11 9.7-15 13.9-2 2.1-5 3.8-4.5 7.1 1.9 1.9 10.5-4.7 12-6.4 1.5-1.7 1.9-4 3-5.1 1.4-1.6 12.6-11.8 11-13.5zm-66 78v-5c-2-0.3-3.3 1.7-4.5 3-5.7 6.1-11.8 15.5-14.7 23.3-1.8 4.8-6.6 20.8-6.8 25.3-0.1 1.4 3.5 2.1 2 5.4l3-2c-0.5 2.1-1.5 3.9-2 6-0.6 2.3-1.2 2.8-1 6 0 0.6-0.1 1.3 0 2 4.6 0.9 6.3-3.5 9.6-5.8 6-4.2 14-7.6 19.4-12.2 1.7-1.5 3.4-1.9 3-5 4.1-0.2 19.5-12.2 25.5-13 2.7-1.8 6-7 7.5-10l3.9 2c-0.3-6.1 3.6-10.8 5.4-16.2 1.2-3.4 3.4-10 3.5-13.3 0-4.3-1.7-9.8-0.8-14.5l-3 5c0.5-3.6 0.7-11.5 2.2-14.3 1.5-3 4.1-0.9 3.8-7.2-0.1-1.1 0.5-3.4-1.5-2.5-0.7 0.3-8.9 9.3-11 11-14 11-31.9 17.5-43.5 32zm-47 92c-1.8 23.5-0.8 44.6 2 68-2.6-1.1-2.9 5.9-2.9 6.6 0.1 2 2.3 6 2.8 9 0.6 3.7 1.7 9.8 2 13 0.9 7.6-0.3 20.2 1.1 26.9 0.4 2.2 2.5 3 2.8 4.1 0.2 1.3-1.1 3.1-0.9 4.7 0.1 0.7 1.9 0.6 2.1 1.4 1.1 4.6-1.9 16.5 3.3 20.1 0.7 0.5 2.3 0 2.6 0.3 0.4 0.5-0.1 4.5 0.3 6.2 2 8.3 8.1 25.3 12.4 32.6 1.4 2.5 5 4.6 5.4 8.1l1.9-1.5c-3.3-6-7.5-12.5-10.1-18.8-1.5-3.5-5.4-14-5.7-17.3-0.2-1.5-1.1-3.9 1.4-3.4 0.7 1.5 3.5 3.4 4.1 4.3 0.7 1 1 7.7 4.4 4.7 1.9 3.3 4.2 9.5 8 10 1.8-2-11.8-30.4-13.5-35-14.7-39.4-18.6-77.3-19.5-119 2.1-4.5 0.6-10.5 1-15.5 2.5-33.5 9.4-72.6 29-100 1.8-2.5 5.2-4.8 6.4-6.5 1-1.4 5.5-9.9 1.2-8.9-0.3 0-4.8 2.7-5 2.9-1 0.9-2.2 7-5.7 4.5l1.7-4.4 11.4-15.1c-2.1-0.4-2.7 0.5-4.1 1.5-30.6 22.5-37.3 81.3-39.9 116.5zm42 172l-15-34c1.6 10.3 6.7 23.2 12.5 32 0.8 1.2-0.2 2.6 2.5 2z"/>
						<path class="s3" d="m285 287c-1.4 3.5-3 2.1-3 5h3c-0.1 0.1 0.1 1.8-0.9 2.5-1.4 1-3.4 0.2-4.1 0.5l-3-3.5c2.7-2.8 4.8-3.4 8-4.5z"/>
						<path class="s3" d="m290 284c-0.1 0.6 0.3 1.3-0.1 1.9-1.6 0.4-3.3 0.5-4.9 1.1 0.2-0.4-0.3-1.4 0.1-1.9 0.2-0.1 4.2-1 4.9-1.1z"/>
						<path class="s0" d="m516 233c-0.8-3.2-5.8-2.4-6.8-3.2-0.5-0.4 0-2.4-1.7-3.7-4.1-3.1-8.6-1.7-13.5-8.6-3.1-4.5-0.2-5.3-1-7.9-0.4-1.1-2.1-1.2-2.7-1.9-1-1.4 1.2-3.6-4.3-2.7l1-10c-2.7 0.7-8.9-1.5-8.8-4.7 0.2-4.7 6.2-2.3 9-1.2 1.3 0.5 21.7 11.8 22.4 12.9 0.6 0.7-1.3 2.9 1.8 4.6 9.2 5.1 22.8 19.3 30.7 27.9 11.6 12.8 21.7 32.5 29.9 48 0.8 1.4 1 2.9 3 2.5 1.8 7.6 2.4 12.4 3 20-0.1 6 0.3 12 0 18-0.4 11.2-3.4 20.7-7 30.5-4 10.7-12.1 23.9-20 33.5-6-0.8-2.9 1.1-4.2 3.7-0.2 0.3-4 3.5-4.8 4.3-14.8 14-40.8 24-61 25-8.9 0.4-18-0.3-27 0-1.7-0.4-2.2-0.5-4-1-0.9-0.3-1.9-1.6-3.7-1.8-1.9-0.2-2.7 0.8-3.3 0.8 0.6-2.4-1.2-2.1-2.6-2.8-4.8-2.6-11.1-4.9-16.4-7.2 0-4-8.7-4-10.7-5.3-2.3-1.5-13-12.5-15.8-15.7-8.4-9.3-13.3-22-22.9-32-17.8-18.6-49.1-18.6-72.3-11.3-1.5 0.5-16.1 7.2-16.3 4.8-0.4-5.1 4-5.2 6.5-7.6 2.4-2.4 3.7-7 5.5-9.4 11.9-15.8 38.7-25.7 56.7-34.3 6.9-3.3 18.7-10.9 25.9-12.2 3-0.5 7.2 0.7 9.7 0 1-0.2 1.2-2.2 2.3-2.9 2.9-1.7 7.2-2.5 10-4.1 3.6-2 8-6.5 12-8 5.6-2.2-5.3 7.9-5.6 8.5-1.1 1.8-0.9 3.8-1.7 5.2-3.1 5.2-8.8 12.1-8.2 18.7 0 0.6 4.7 9.1 5.1 9.4 1.6 0.9 4.8-0.3 6.7 0.3l1.2 5.9c5.4 1.4 2.1-7.8 8.9-7-1.3 6.2 2.3 10.3 3.1 15.9 0.6 0.4 1.5-0.1 1.9 0.1 0.4 1.5 0.7 3.7 1.6 4.9 1.3 1.9 11.4 6 14.2 6.8 1.2 0.4 7.2 2.3 7.7 2.4 4.5 0.6 11.1-0.3 16.1-0.2 10.8 0.2 7.7-0.8 17.2-3.6 4.3-1.3 14.7-1.7 17.2-2.8 4.2-1.9 12-9.3 15.5-12.6 5.5-5.1 5.3-2.5 6.8-10.2 0.2-0.8 1.4-1.7 1.6-2.4 0.3-2.1-5.2-5.3 3.2-8.9-4.9-7.9 0.5-11.3 1.8-17.1 1.1-5.3-3-3.6-3.7-4.5-0.5-0.6 0.1-2.9-0.3-4.2-0.5-1.4-4.7-1.8-2.9-6.6h-5.9c0.5-1.7 4.4-2.7 6-3 1.4-0.3 3.4 0.2 5 0l-1.6-6.1-4.4 2.1c-0.3-0.6-1.1-2.6-1.3-2.8-1.1-0.9-3.5 0.9-2.7-2.2 3.5 2.1 6.4-1 8.4-1.1 0.6 0 7.4 7.8 11.6 5.1 0.8 0.8 1.8 1.1 3 1 0.1 2 1.4 5.3 3.9 5 1-3.6-1.8-4.9-2.9-7-7.2-12.8-11.4-19.2-25-26zm33 42c-0.5 0.6 0.8 7.9 1.2 9.2 0.4 1.4 1.9 2.1 2.5 3.6 1.1 2.9 0.6 9.4 5.7 9.2 5-1.5-4.2-17.1-6.2-19.7-1-1.2-1.2-2.7-3.2-2.3zm-28.1 50c-2.3-0.6-1.6 0.4-2.2 1.3-1.3 1.6-2.1 3.5-3.7 5.2-1.8 1.9-8.2 6.5-8.6 7.5-0.9 2.1 0.5 3.2 0.5 4.6-0.2 3-7.8 7.8-9.9 10-1 0.9-0.8 2.5-1.8 3.5-4 4.1-11.3 6.7-11.2 14.3 0.8 2.4 3.8 1.1 5.2 1.7 1 0.4 0.4 1.8 2.2 2 2.6 0.3 10.5 0.3 13.1 0 1.9-0.2 1.3-1.9 2.1-2.1 3.1-0.7 7.4 0.7 10.6-0.2 1.2-0.3 19-13.1 19.8-14.3 0.9-1.4 0.8-3.3 1.5-4.4 3-4.8 7.6-7.8 4.7-14.8-2.7-6.5-10.4-5.1-15.3-6.8-2.5-0.8-4.6-4-8-3.5z"/>
						<path class="s10" d="m276 408c3 1.4 8.2 4.2 10 6.8 1.1 1.6 6.8 12.5 7 13.8 0.5 3.9-3.1 8.3-3 12.4-2.2 0-0.2-3.9-1.1-4.9-0.2-0.2-5.2-1.3-5.9-1.1-0.2 0.1-0.7 1.4-1.3 1.6-1.2 0.5-2.7 0.3-3.6 0.9-0.2 0.2-4.1 3.9-4.1 4.2-0.4 1.7 1.4 4.5 1 5.2-0.4 0.4-2.5 0.4-3.4 2.1-0.3 0.5-3.5 9-3.6 9.5-0.2 2.1 2.4 1.7 4 2.5 2.9 1.3 2.5 1.4 6 2-3.3 5.6-10.1 9.5-13.6 14.4-7.7 10.6-13 28.2-20.1 40.3-0.1 0.2-2.7 3.8-3.3 2.8l7.7-22.3c9.2-15.9 12.1-36.2 19.9-53.1 2-4.3 5.8-9.3 7.5-14.1l1.9 4h4c1.1-3-1.9-8.2-4.7-8.9-2.9-0.7-6.4 5.3-10.3 3.9 0.6-8.4 3.3-12.2 12-10 0.9-3-5.9-4.5-6-5.6l3-6.4z"/>
						<path class="s3" d="m225 577c0.6 3 3.2 4.7 4 7 2.9 8.1 7.5 22.7 9.6 31 0.4 1.9 2.2 9.5 2.2 10.7 0 2.6-4.1 4.3-5.7 3.2-1.1-0.8-7.2-23.5-7.8-26.7-1.4-8-2-17-2.3-25.2z"/>
						<path class="s0" d="m227 547c0.3 1.7 1.7 9.6 2 10 1.6 1.5 2.9-2.6 4-3.5 0.7-0.5 1.8-0.3 2-0.5-0.4 2.3-5.3 5.4-5.7 6.3-0.7 1.2-0.1 2.6-0.3 3.7-1 5-2.2 11.3 0 16 0.1 1.7 1.1 3.4 0 5-0.8-2.3-3.5-4-4-7-0.3-9.7-0.9-20.8 2-30z"/>
						<path class="s2" d="m283 435c1.4 4.3-4.2 3-4.9 5.6-0.4 1.8 1.8 4 0 6.7-0.5 0.8-5.9 4.7-6.1 5.4-0.5 2.4 0.3 5.7 0 8.3-1.7-0.8-4.2-0.4-4-2.5 0.1-0.5 3.3-9 3.6-9.5 0.9-1.7 3-1.7 3.4-2.1 0.4-0.7-1.4-3.5-1-5.2 0-0.3 3.9-4 4.1-4.2 0.9-0.6 2.4-0.4 3.6-0.9 0.6-0.2 1.1-1.5 1.3-1.6z"/>
						<path class="s2" d="m481 420c-1 1.7-3.8 1-5.5 1-7.2 0.1-14.5 0.5-21.5-1 9-0.3 18.1 0.4 27 0z"/>
						<path class="s10" d="m273 407c-2.5 2.9 1.2 6.1-3.7 6.8-3.8 0.5-5-1-4.3-4.8l6 2v-5c1.8-0.6 1.8 0.9 2 1z"/>
						<path class="s2" d="m165 639c-0.1-7.7-0.7-16.6 1-24-0.2 7.8 1.1 16.5-1 24z"/>
						<path class="s2" d="m229 579c-2.2-4.7-1-11 0-16 0.1 5.3-0.1 10.7 0 16z"/>
						<path class="s2" d="m551 387c-2.4 2.9-5.3 7.1-9 8 0.8-0.8 4.6-4 4.7-4.3 1.4-2.6-1.7-4.5 4.3-3.7z"/>
						<path class="s2" d="m257 509c-3.5 4-7 7.6-11 11 1.1-3.2 7.9-8.9 11-11z"/>
						<path class="s2" d="m258 508l2-3c-0.4 0.6-0.7 1.6-2 3z"/>
						<path class="s3" d="m120 407c1.5 3 1.8 8.5 2 12 0.1 0.7 0 1.3 0 2l4-0.1c-0.8-13.4 11.9-5.9 18.4-8.1 2-0.7 2.4-5.3 5.6-4.8 0 5.5-4.2 9.4-5.9 14.6-1.8 5.4-1.5 10-2.1 15.4-3.2 3.7-4.7 9-7 13-10.1 18.2-22.4 37.2-34 54.4-1.8 2.6-4.9 3.1-4 8.6 3.2-0.3 13.5 2.7 15 5l-1 2h-2.5l-1.5-2v3l-3-1c0.7 1.7-0.8 3-1 4-1.4-4.1-6.4-3.5-8.7-0.8-0.2 0.3 0.7 1.7-0.2 2.3-1.3 0.9-4.4 1-4.9 1.7-0.6 0.7 0.1 2.3-0.2 2.8-0.7-2.9-2.9-0.9-3-1-0.1-0.4 0.3-1.6-0.1-2.1-0.6-0.9-1.8-1.1-1.9-1.6-0.9-4 3.6-9.7-1-12.3 3.3-18.1 7.5-33.4 12-51 4.7-0.9 3.9-8.8 5.1-12.4 0.9-2.9 2.7-5.2 3.4-7.6 3.2-10.2 5.4-26.6 9.6-35.2 0.5-1 2.9-2.2 3.4-3.8 1.4-0.4 3 1.9 3.5 3z"/>
						<path class="s0" d="m83 514c4.6 2.6 0.1 8.3 1 12.3 0.2 0.4 1.3 0.7 1.9 1.6 0.4 0.5 0 1.7 0.2 2.1 0 0.1 2.2-1.9 2.9 1-2.1 4.9-4.5 7.5-5.5 14-1.9 11.2 3.9 10.1 10.8 16.3 3 1.2 8.4 0.9 11.7 0.7 1.8-0.1 3.5 0.1 5-1-0.2 1.7-0.3 5.9-0.9 6.5-3.5 3.5-13.4-4.4-14.9 4.2-1.1 6.7 9.7 5.2 11 6.9l-0.2 5.3c-2.8 1-8.5-2.8-9.8 0.7-1 5.8 5.5 5.8 9.8 6.4-2.5 9.3-7 3.9-13.8 2.9-0.3-9.2 3.8-13.8-0.8-22.8-1-2.1-7-7.9-8.9-8.1-5.3-0.6-2.6 4.3-2.9 6.5-1.4 9.5-3.2 18.4-3.5 28.5-0.4 10.1-0.4 21 0 31 0.2 7 0.4 15.6 0.9 22.5 0.5 5.5 2.7 10.2 1.1 16.5-1.6-9.2-3.3-20.1-4-29.5-0.5-5.7 0.3-11.7-0.1-17.5-1.2-1.6-1.8 0-2 1.5-0.7 5.7 0.3 13 0.1 19-0.1 2.6-1 4.8-1.1 7.5h-1c0-5 0-10 0-15 2-5.4 0.8-12.2 1-18 1.2-32.9 6.2-69.6 12-102z"/>
						<path class="s10" d="m208 873c0.3-2-0.7-3.2-1.7-4.7-0.8-1.2-6.9-6.9-2.8-6.3 5.7 0.7 4 5.1 5.8 6.8 1 1 4.4 0.9 6.3 2.1 2.7 1.8 2 6 7.5 4.7 1.3-0.3 4.7-6 4.9-0.6-0.3 0.6-0.7 10.7-1 13-2.2 0.4-3-0.7-4.5-2-5-4.1-9.7-8.8-14.5-13z"/>
						<path class="s0" d="m208 873c4.8 4.2 9.5 8.9 14.5 13 1.5 1.3 2.3 2.4 4.5 2-0.5 4.1-1.8 10.3-2 14-3-1.8-0.7-8.6-1-9-0.1-0.1-2.4-0.4-3.4-1.1-1.7-1.4-2.5-3.6-5.6-4.3-2.1-5.1-14.8-16.3-16-20.1-1.3-4.8 8.2 4.7 9 5.5z"/>
						<path class="s0" d="m136 398l2 7c0-1.2 0.1-2.5 1-3.5 2.5-2.6 6.6-3.7 9.2-4.8 6.3-2.6 20.1-19.9 26.3-25.7 20.5-19.1 45-33 65.1-53l29.2-22.2 0.3-2.8c-1.6-1.5-11 3-13.2 4.1-0.7 0.4-0.9 1.4-1.7 1.8-1.7 0.9-9.7 5-10.6 5.1-1.6 0.2-1.8 0-1.5-1.5 15.5-11.1 30.9-23.9 48.4-31.5l0.5 2c-2.7-0.2-3 2.7-3 5h4c1 2.7-1.7 1.6-2 2.7-0.3 1.1 0.2 2.3 0 3.3-0.7 0.1-4.7 1-4.8 1.1-0.5 0.5 0 1.5-0.2 1.9-3.1 1.1-5.3 1.7-7.9 4.5l2.9 3.5c-1.4 0.6-2.8 1.9-4 3-2 0.5-4.6 0.4-4 3-4 2.2-4.8 3.5-8 6-1.7 1.4-1.8 1.9-2 2-2.4 1.8-5.3 3.7-8 6-1.9 1.6-3.7 2.9-6 5-1.5 1.4-2.6 2.8-4 4-2.1 2-3.9 4-6 6q-0.5 0.5-1 1c-17.4 17.4-31.7 33.4-43 56-0.1 0.3 0.2 0.9 0 1-0.3 0.2-1.7-0.3-2 0-0.2 0.3 0.2 2.2 0 3 0 0.6 0.2 1.4 0 2l-4.9 4.7c-17 28.7-25.1 61.5-32.5 93.3-1.2 5.3-4.1 8.5-5.4 11.6-8.3 20.3-9.7 59.6-10.2 81.8-0.2 6.3 1.2 42 0 43.9-0.3 0.6-2 0.6-2 1.3 0 1.6 1.9 4.5 1.1 6.7l-4.1 1.7c-0.8-10.7-0.9-22-1-33 0-2.5 0.8-6.4-1-8q0-0.5 0-1c0-10.5 1.6-20.7 1-31 3.1-10.4 1.7-21.4 2-32-2.7-0.5-1.7 0.5-2.2 2.2-1.6 4.8-2.9 11.8-2.8 16.8 0 0.6 0 1.3 0 2-1.3 0.5-0.9 1.9-1 3-0.4 12.9-0.1 26.1 0 39 0.1 10.3-0.2 20.7 0 31-3.5-0.1-2.7-0.6-3 2.4-0.3 4.1 0.3 8.5 0 12.6l-2-4h-3l-2 5c-0.3-2.3 0.3-5.1 0.1-7.6-0.1-1.2-1.1-2.6-1.1-2.9v-15c0-6.3-0.8-13.8-1-20.5q0-0.5 0-1 0-0.5 0-1l2.1-21.6c0.4-1-1.1-2.2-1.1-2.4q0-1.5 0-3c4.2-0.3 2.1-9.3 2.4-12.4 0.1-1.4 1.6-2.8 1.6-3.1v-32c0-3.5 5.9-8.6 6.1-9.2 2.3-10.3 5.1-19 7.7-29 0.8-3.2-1.4-6.8 2.3-7.8-1.4-5.3-5-0.2-7.6 1.5-2 1.3-2.7 2-2.5-1 3.1-7.9 5.5-15.3 9-23 3-6.7 4.2-5.5 5-14 0.6-5.4 0.3-10 2.1-15.5 1.8-5.4 5.9-9 5.9-14.5-3.2-0.5-3.6 4.1-5.6 4.8-6.5 2.2-19.2-5.3-18.4 8.1l-4 0.1c0-0.7 0.1-1.3 0-2 2.5 0.5 2.1-1.3 2.8-2.6 3.8-6.1 7.9-12.4 11.2-18.4zm-9 226c0.7-1.4-0.6-2.7-1-2-0.7 1.4 0.7 2.7 1 2z"/>
						<path class="s0" d="m290 284c1.7-0.1 3.4 0.1 5 0v3c-1.9 0.8-8.7 4-10 5h-3c0-2.9 1.6-1.5 3-5 1.6-0.6 3.3-0.7 4.9-1.1 0.4-0.6 0-1.3 0.1-1.9z"/>
						<path class="s11" d="m491 267c-0.2 1.9 0.9 3.8 0.7 5.4-0.3 2.7-2 7.5-2.7 10.6h-3c0.1 1.4 0.1 2.8-0.2 4.2-1.5 6-3.3 12.4-6.8 18.1-2.8 4.5-5.7 1.5-6 1.7l3 3.5c-0.6 2.4-3.2 3-4 4.2-1.7 2.6-4 10.3-5.3 12-1 1.4-3.9 1.6-5 2.3-1 0.8-0.6 3.7-3.7 4-6.1 0.5-12.7 3.2-19.4 2-4.4-0.8-8.9-6.6-12.6-8-0.4-0.2-1.3 0.3-1.9-0.1-0.8-5.6-4.4-9.7-3.1-15.9 1.1-5.1 6.1-10.8 8.4-15.1 1.5-2.7 1.7-6.2 3.8-9.2 1.5-2.2 4.3-3.4 4.8-4.5 0.7-1.3 0.4-4 1.3-4.9 0.8-0.9 5.8-1.8 7.3-3.3 1.5-1.4 1.2-3.3 3-4.9 5.3-4.4 13.9 0.2 19.9 0 3-0.2 5.5-2.6 8.2-2.8 3.5-0.2 9.4 1.6 13.3 0.7z"/>
						<path class="s0" d="m118 740c-8.1-23.5-15.1-50.5-20.7-74.8-2.5-11-3.3-27.2-7-37-1.1-3-4-4.5-4.3-6.7-0.5-3 1.5-9.5 2-13 0.5-3.5-1.5-8.7 2-10.5 2 2.6 2.8 10.7 3.9 12.4 0.8 1.1 5.9 1.2 7.1 4.1l-4.8 2.6c-0.8 9 5.4 20.9 11.8 26.9-1.4 6.4 3.2 10.4 4.4 16.1 0.9 4.6-0.2 8.9 1.6 12.9 0 8 5.6 28.5 8 37 0.9 3.1 2 6 3 9 4.6 13.1 10.2 24.3 16.8 36.8 0.6 1.2-0.7 2.8 2.2 2.2-0.2-3-1.3-6.3-2.5-9-4.2-9.9-13.1-22.2-15.5-32-1-4-1.1-9-2-13-2.5-12-4-24.1-7-36-0.2-0.8-2.2-3.1 0-3l3.5 11.1c1 1.4 4 0.5 4.5 1 0.5 0.5 1.9 13.1 3.3 15.2l4.7 8.7c2.5-6.2-1.1-12.4-1.7-18.8-1.1-10.4-0.4-21-0.3-31.2 0.3 9.6 1.9 19.1 2.9 28.7 3.7 32.8 11.1 69.6 26.1 100.3 11 22.3 25.5 39 43 57q0.5 0.5 1 1c1.1 1.1 2.6 2.6 4 4 0.7 0.6 1.4 1.4 2 2 2.1 2.1 3.5 5.2 6 7-0.2 0.2-0.4 3.8-3.8 2.9l-49.2-52.7c-4.3-7.6-9.6-14.7-14-22.2-8.6-15-21.2-39-27-55-4.3-12.1-6.7-25.5-10-38-1.4-5.6-2.3-11.4-4-17-2.5-8.6-5.6-17.1-8.9-25.6-0.5-1.5 1-2.9-2.1-2.4 1.8 8.7 2.3 17.9 5.3 26.3 0.5 1.6 0.3 3.2 2.7 2.7-0.3 4.3 3 11.3 4 16 2.6 12.4 4.7 23.6 8 36 1.1 4.1 1.4 8.6 3 13l-0.7 0.6 0.7 6.4h-1l-1-2z"/>
						<path class="s10" d="m295 287c2.4-1 6.4-2.2 9-3 0.6 5.5-6.1 5.7-9.2 8-40.3 28.4-81.1 72.4-103.8 116.5-0.8 1.6-1.3 2.6-1 4.5 1.7 0.3 2.7-0.9 3.6-1.9 5.9-7 11.7-17.4 17.4-24.6 5.8-7.3 12.7-13.8 18.1-21.4 1.7-0.5 2.8 2 4.3 1.8 1-0.2 7.4-6.2 5.7-0.4-0.2 0.5-2.8 1.4-3.7 2.4-16.4 19.6-38.4 42.8-49.4 67.1 0.2-2 0.6-3.9-2.3-2.8-3.8 1.4-3.1 6.5-6.7 6.8 1.6-6.2 1.7-13.2 3.3-19.2 2.3-8.8 9.8-19.7 11.7-27.8 0.2-0.6-0.1-1.3 0-2h2v-3c0.2-0.1-0.1-0.7 0-1 1.9-0.1 3-1.1 4-2.5 10-13 17.3-30.7 31-42l8-11.5q0.5-0.5 1-1c3.5 0.3 6.4-2.7 6-6 1.3-1.2 2.5-2.6 4-4 3.1 0.3 5.7-2 6-5 2.7-2.3 5.6-4.2 8-6h2v-2c3.2-2.4 4-3.8 8-6 0.8-0.4 2.6-0.3 3.4-0.9 1.1-0.8 0.5-2 0.6-2.1 1.2-1.1 2.6-2.4 4-3 0.7-0.3 2.7 0.5 4.1-0.5 1-0.6 0.8-2.3 0.9-2.5 1.3-1 8.1-4.2 10-5z"/>
						<path class="s10" d="m147 593c2.6-35.2 9.4-94 40-116.5 1.4-1.1 2-1.9 4-1.5l-11.4 15.1-1.6 4.4c3.4 2.5 4.6-3.6 5.7-4.5 0.2-0.2 4.7-2.9 4.9-2.9 4.3-1-0.2 7.5-1.1 8.9-1.3 1.7-4.6 4-6.4 6.5-19.6 27.4-26.5 66.5-29.1 100-0.3 5 1.1 11-1 15.5-0.1-7.5 0.8-15.2-0.9-22.6-0.6-2.5 0.9-2.7-3.1-2.4z"/>
						<path class="s10" d="m214 300c-2.7 3.6-5.3 7.6-7.4 10.6-0.1 0.2-3.9 3-1.1 3.4 3.1 0.5 2.1-1.4 3.2-2 0.8-0.3 2 0.2 2.3 0l-28 27.5c-6.2 12-16.3 21-24.4 31.6-3.1 4-5.8 10.2-9 13.9-0.9 1.1-1.9 2.3-3.6 2l3.8-10.7c0.2-0.6-0.8-1.2-0.8-1.3 4.9-15.8 42-54.9 55-68 4.2 0.8 2.7-1.6 3-2 0.3-0.4 0.7-0.7 1-1 1.6-1.5 1.4-1.1 3-3 0.3-0.4 0.7-0.7 1-1z"/>
						<path class="s0" d="m149 661c3.9 33 10.4 71.5 27 101-3.4 3-3.7-3.7-4.3-4.7-0.7-0.9-3.4-2.8-4.2-4.3-2.4-0.4-1.5 1.9-1.4 3.4 0.4 3.3 4.3 13.8 5.7 17.3 2.7 6.3 6.8 12.9 10.2 18.9l-1.9 1.4c-0.4-3.5-4-5.6-5.5-8.1-4.2-7.3-10.3-24.3-12.3-32.6-0.4-1.7 0.1-5.7-0.4-6.2-0.3-0.3-1.9 0.2-2.6-0.3-5.2-3.6-2.1-15.5-3.3-20.1-0.2-0.8-1.9-0.7-2-1.3-0.3-1.7 1.1-3.5 0.8-4.8-0.2-1.1-2.3-1.9-2.8-4.1-1.3-6.7-0.1-19.3-1-26.9-0.4-3.2-1.5-9.3-2.1-13-0.5-3-2.6-7-2.7-9-0.1-0.7 0.2-7.7 2.8-6.6z"/>
						<path class="s0" d="m464 228c0.4 0.2 1.6 0.8 2 1 1.3 0.6 2.2 1.5 4 1l-2 7c5.5-1.2 8.1 3.1 13 4.5 7.2 2.2 10.5 3.8 17.4 6.6 1.6 0.7 3.1 0.7 2.6 2.9-0.6 0.6-1.6 1.4-2 2-6.7-5.5-18-4.9-26.3-6.1-3.7-0.6-9.4-2.9-12.2-2.9-4.7 0-5.6 3.7-8.5 5.5-2 1.2-4.2 1.6-6.3 2.6-1.2 0.6-2.1 2.4-3.4 2.8-4.4 1.1-13-3-14.3-7.9 4.1 0.2 8.5-0.4 12.5 0.1 2.3 0.2 4.1 2.6 6.8 1.8 2.8-0.8 2.2-4.1 2.9-4.7 1.5-1.3 12.3-0.8 12.9-5.7 0.7-6.3-16.7-1.1-5.1-9.5 0.3-1-1.3-1.7-2-2l5-2c0.1 0.7-0.1 1.4 0.5 2 0.8 1.1 2.1 0.7 2.5 1z"/>
						<path class="s0" d="m173 551l-3 2c1.5-3.3-2-4-2-5.4 0.3-4.5 5.1-20.5 6.8-25.3 3-7.8 9-17.2 14.7-23.3 1.2-1.3 2.5-3.2 4.5-3v5c-2.8 3.5-10.1 14.3-11.9 17.8-2 4.2-2.8 8 0.9 11.2l-1 3c-1.1-0.5-2.1-1.2-3.4-1-0.3 2-2.3 3-2.4 3.2-1.2 3.3-2.1 11-3.2 15.8z"/>
						<path class="s10" d="m117 722c2.5-0.5 2.2 0.9 2 3h2.5l0.5-1c5.8 16 18.4 40 27 55-2.2 0.2-3.7-0.8-5-2.5-4.4-5.9-9.3-16.1-13.1-22.7-3.4-6-8.3-12-10.9-18.8-1.6-4.4-1.9-8.8-3-13z"/>
						<path class="s10" d="m163 482v4h3c-7.2 20.3-10 37.1-14.9 57.6-0.4 1.7 0.9 2.9-2.1 2.4 0.2-19.5 6.4-38.3 10-57.4 4.9-1.3 1.8-0.7 2.4-3.7 0.3-1.3 1.2-2 1.6-2.9z"/>
						<path class="s0" d="m244 482l3-5c-0.8 4.7 0.9 10.2 0.8 14.5 0 3.3-2.3 9.9-3.4 13.3-1.9 5.4-5.7 10.1-5.4 16.2l-4-2c6.3-12.3 7.2-23.8 9-37z"/>
						<path class="s2" d="m260 423c1.6 1.7-9.5 11.9-11 13.5-1 1.2-1.4 3.3-2.9 5.1-1.5 1.7-10.1 8.3-12.1 6.4-0.4-3.2 2.6-5 4.5-7 4.1-4.3 10.6-10.3 15.1-14 0.9-0.7 5.7-4.7 6.4-4z"/>
						<path class="s10" d="m189 765c-2.7 0.6-1.7-0.8-2.4-2-5.8-8.8-10.9-21.7-12.6-32l15 34z"/>
						<path class="s10" d="m183 530c2.7 2.3 12.8 9.4 15.7 10.9 1 0.4 2.2 1.2 3.3 1.1 0.4 3.1-1.2 3.5-3 5 2.3-2.9-4.1-4.3-5.9-5.6-3.2-2.2-7.6-6.8-11.1-8.4z"/>
						<path class="s2" d="m207 835c1.5 1.2 4.2 5.2 4 7q-1.5 0-3 0c-1.4-1.4-2.9-2.9-4-4h3z"/>
						<path class="s0" d="m170 563c-0.2-3.2 0.4-3.6 1-6 1.5 2.1 1.1 4.5-1 6z"/>
						<path fill-rule="evenodd" class="s0" d="m292 271v-2h4v2z"/>
						<path fill-rule="evenodd" class="s0" d="m298 268.2c-0.6 0-1.2-0.5-1.2-1.2 0-0.7 0.6-1.2 1.2-1.2 0.7 0 1.3 0.5 1.3 1.2 0 0.7-0.6 1.2-1.3 1.2z"/>
						<path class="s10" d="m176 443c0.4-1.1 1-1.9 1-2z"/>
						<path class="s10" d="m491 267c0.1-0.5 0.5-0.9 1-1-0.3 0.3-0.5 0.9-1 1z"/>
						<path class="s10" d="m175 445c0.1-0.4 0.6-0.8 1-1-0.1 0.5-0.5 0.8-1 1z"/>
						<path class="s3" d="m521 325l-1 4c3.4-0.5 5.5 2.7 8 3.5 4.9 1.7 12.6 0.3 15.3 6.8 2.9 7-1.7 10-4.7 14.8-0.7 1.1-0.6 3-1.5 4.4-0.8 1.2-18.6 14-19.8 14.3-3.2 0.9-7.5-0.5-10.6 0.2-0.8 0.2-0.2 1.8-2.1 2.1-2.6 0.3-10.5 0.3-13.1 0-1.8-0.2-1.2-1.6-2.2-2-1.4-0.6-4.5 0.7-5.2-1.7-0.1-7.6 7.2-10.2 11.2-14.3 1-1 0.8-2.6 1.8-3.5 2.1-2.2 9.7-7 9.8-10 0.1-1.4-1.3-2.5-0.4-4.6 0.4-1 6.8-5.6 8.6-7.5 1.6-1.7 2.4-3.6 3.6-5.2 0.7-0.9 0-1.9 2.3-1.3z"/>
						<path class="s3" d="m549 275c2.1-0.4 2.3 1.1 3.3 2.3 2 2.6 11.2 18.2 6.2 19.7-5.1 0.2-4.6-6.3-5.7-9.3-0.6-1.4-2.1-2.1-2.5-3.5-0.4-1.3-1.8-8.6-1.3-9.2z"/>
						<path class="s10" d="m521 261l4.4-2.1 1.6 6.1c-1.5 0.2-3.6-0.3-5 0 0.2-1.6-0.4-2.7-1-4z"/>
						<path class="s3" d="m541 259c1.2 2.1 4 3.4 3 7-2.6 0.4-3.9-3-4-5 0-0.1 1.1-1.3 1-2z"/>
						<path class="s0" d="m495 230c4.1 0.4 6.3 2.9 6.7 3 2.1 0.4 4.5-0.4 6.7 0.2 2.5 0.7 1.8 4.9 5.6 3.8 1.3 1.8 3.5 4.5 5 6-4.6 3.1-6.2-2.4-9.4-2.1-3 0.3-2.4 4.5-5.6 4.1l-0.9-4.6c-4.2-0.8-6.6 0.4-10.1-2.4 0.7-2 8.4-1.1 2-3 0 0 0-5 0-5z"/>
						<path class="s10" d="m458 333c3.1-0.3 2.7-3.3 3.7-4 1.1-0.7 4-0.9 5-2.3 1.3-1.7 3.6-9.4 5.3-12 0.8-1.2 3.4-1.8 4-4.2l-3-3.5c0.3-0.3 3.2 2.8 6-1.7 3.5-5.7 5.3-12.1 6.8-18.1 0.3-1.4 0.3-2.8 0.2-4.2h3c-0.9 4.2-1.2 7.5-2.8 11.7-3.6 9.4-12.1 19.3-16.2 28.9l0.6 3.5 9.4-0.1c-4.5 3.1-4.8 1.1-8.9 2.5-2 0.7-4.2 3.9-5.8 4.3-2.7 0.8-5-1-7.3-0.8z"/>
						<path class="s2" d="m469 223l-4.8 0.1c-0.8 1.7-1.4 3.4-0.2 4.9-0.5-0.3-1.7 0.1-2.5-0.9-0.6-0.6-0.4-1.4-0.5-2.1 0-0.4 1.3-1.9 0-3 2.4 0.5 5 0.4 8 1z"/>
						<path fill-rule="evenodd" class="s0" d="m523 254.2c-0.6 0-1.2-0.5-1.2-1.2 0-0.7 0.6-1.2 1.2-1.2 0.7 0 1.3 0.5 1.3 1.2 0 0.7-0.6 1.2-1.3 1.2z"/>
						<path class="s0" d="m79 680c1.6 1.1 1.4 2.5 1.5 4.1 0.2 7.7 0.2 15.5 2.6 22.8l17.9-0.9c3.1 2.7-13.1 4.5-14.5 4.9-2 0.6-3.6 0.1-3.5 3.1-1.6-12.3-3.4-20.9-4-34z"/>
						<path class="s0" d="m103 525c0.2-1 1.7-2.3 1-4l3 1v-3l1.5 2h2.5l1-2c1.7 2.5 5.3 16.5 2.1 18.5-5 3.1-4.2-8-7.5-8.3-4.9-0.3-4.3 6.7-7.6 8.3-6.3 3.2-3.4-4.5-1-6.8 1.5-1.5 4-0.7 5.2-2.4 0.9-1.3-0.2-3-0.2-3.3z"/>
						<path class="s10" d="m137 452l-2-1c2.3-4 3.8-9.3 7-13-0.8 8.5-2 7.3-5 14z"/>
						<path class="s6" d="m106 562c5.8-3.2 0.8-10.8 4.5-15 2.4-0.5 1.5 2 1.5 3.5 0.1 3.6-0.5 7-1 10.5-1.5 1.1-3.2 0.9-5 1z"/>
						<path class="s2" d="m76 629c-0.3-10-0.3-21 0-31 1.7 1 1 3.8 1 5.5 0.1 6.6 0.1 13.4 0 20 0 1.7 0.7 4.5-1 5.5z"/>
						<path class="s3" d="m129 627c0.2 7.6 2.2 16.2 2 24-0.1 10.2-0.8 20.8 0.3 31.2 0.6 6.4 4.2 12.6 1.7 18.8l-4.7-8.8c-1.4-2-2.8-14.6-3.3-15.1-0.5-0.5-3.5 0.4-4.5-1l-3.5-11.1c-2.2-0.1-0.2 2.2 0 3l-3-1c0 2 0 4 0 6-1.8-4-0.7-8.3-1.6-12.9-1.2-5.7-5.8-9.7-4.4-16.1 3.7 3.4 6.1 4.5 11 5 0.1 0 0.3 1.1 1 0.6 0.9-0.6 1.4-2.2 2-3.2 0.6-2.4-1.3-1-2-1.4-1.3-0.8-0.8-0.8-1-2l2-5h3l2 4c0.3-4.1-0.3-8.4 0-12.5 0.3-3.1-0.5-2.6 3-2.5z"/>
						<path class="s3" d="m128 475c-0.2 3 0.5 2.3 2.5 1 2.6-1.6 6.2-6.8 7.6-1.5-3.7 1-1.5 4.6-2.3 7.8-2.6 10-5.4 18.7-7.7 29-0.2 0.6-6.1 5.7-6.1 9.2v32c0 0.3-1.5 1.7-1.6 3.1-0.3 3.1 1.8 12.1-2.4 12.4 0-5.3-0.1-10.7 0-16q0-0.5 0-1c1.5-0.1 1.5-2.9 0-3 0.4-16.3 0.9-37.5 3.2-53.4 1.3-9.4 3.9-11.9 6.8-19.6z"/>
						<path class="s3" d="m117 595c-0.1-8 0-16 0-24h1c0 0.2 1.5 1.5 1.1 2.4z"/>
						<path class="s2" d="m118 568q0 1.5 0 3h-1c0-6.1-0.8-13.3 1-19-0.1 5.3 0 10.7 0 16z"/>
						<path class="s0" d="m120 645c0.7 0.4 2.6-1 2 1.4-0.7 1-1.2 2.6-2 3.2-0.8 0.5-0.9-0.6-1-0.6l1-4z"/>
						<path class="s2" d="m118 551c0-1 0-2 0-3 1.5 0.1 1.5 2.9 0 3z"/>
						<path class="s3" d="m117 597l-1-0.5 1-0.5q0 0.5 0 1z"/>
						<path class="s10" d="m130 552h2c0.3 3.5-0.3 7.1 0 10.6 0.1 1.3 1 2.3 1 2.4 0.6 10.3-1 20.6-1 31h-3c-0.1-12.9-0.4-26.1 0-39 4.1 0.5 1.1-2.1 1-3 0-0.7 0.1-1.3 0-2z"/>
						<path class="s3" d="m194 387c11.3-22.6 25.6-38.6 43-56l-8 11.5c-13.7 11.3-21 29-31 42-1 1.4-2.2 2.4-4 2.5z"/>
						<path class="s3" d="m130 552c-0.2-5 1.2-12 2.8-16.8 0.5-1.7-0.5-2.7 2.2-2.2-0.3 10.7 1.1 21.6-2 32 0-0.1-0.9-1.1-1-2.4-0.3-3.5 0.3-7.1 0-10.6h-2z"/>
						<path class="s3" d="m238 330c2.1-2 3.9-4 6-6 0.4 3.3-2.6 6.3-6 6z"/>
						<path class="s3" d="m254 315c-0.4 3-2.9 5.3-6 5 2.3-2.1 4.1-3.4 6-5z"/>
						<path class="s3" d="m133 605c-1.8-1.7-0.9-5.5-1-8 1.8 1.7 1 5.5 1 8z"/>
						<path class="s3" d="m276 298c-0.1 0.1 0.4 1.3-0.6 2.1-0.8 0.6-2.6 0.4-3.4 0.9-0.6-2.6 2-2.5 4-3z"/>
						<path class="s3" d="m194 388v3h-2c0.1-0.8-0.2-2.7 0-3 0.2-0.3 1.6 0.2 2 0z"/>
						<path class="s3" d="m130 554c0.1 0.9 3.1 3.5-1 3 0.1-1.1-0.3-2.5 1-3z"/>
						<path class="s3" d="m264 307v2h-2c0.2-0.1 0.3-0.6 2-2z"/>
						<path class="s3" d="m127 624c-0.3 0.7-1.7-0.6-1-2 0.4-0.7 1.7 0.6 1 2z"/>
						<path class="s3" d="m126 717c2.4 9.8 11.3 22.1 15.5 32 1.2 2.7 2.3 6 2.5 9-2.9 0.6-1.6-1-2.2-2.2-6.6-12.5-12.2-23.7-16.8-36.8z"/>
						<path class="s3" d="m105 670c-2.4 0.5-2.1-1.1-2.7-2.7-3-8.4-3.5-17.6-5.3-26.3 3.1-0.5 1.6 0.9 2.1 2.4 3.3 8.5 6.4 17 8.9 25.6l-2-2c0.5 1.2-0.9 2.7-1 3z"/>
						<path class="s10" d="m108 669c1.7 5.6 2.6 11.4 4 17h-3c-1-4.7-4.3-11.7-4-16 0-0.4 1.5-1.8 1-3z"/>
						<path class="s10" d="m126 717l-1 2c-1-3-2.1-5.9-3-9l2 1v-7c0.9 4 1 9 2 13z"/>
						<g>
							<path class="s2" d="m378 996h-103c33.5 0.8 69.6 1.1 103 0z"/>
							<path class="s12" d="m379 747l1.5 2c-4.5 0.7-5.6 7.1-4.4 11.3 0.2 0.7 1.4 0.7 1.6 1 5.8 14.3 8.7 26.7 11.4 42.1 0.9 4.8 1.8 11.7 4.3 15.7 0.9 1.3 0.1 2.4 2.6 1.9-0.3-10.1-4.8-19.8-5.5-30-0.2-3.1-0.7-2 2.5-2 2.5 10.7 5.7 21.3 8 32 4.6 21.7 5.6 42.1 4 64l-3-2c2 3.7-0.6 4.4-1.5 7-0.6 1.5-0.2 3.6-1 5-0.6 1-2.6 1.5-3.5 2.5-4.6 5.1-9.5 9.3-14 14-2.3 2.5-5.2 2.1-4 7.5l-3-2-1 6c-0.2 0.2 0.6 2.1-0.5 2l-2.5-2c-0.1-0.6 0.1-1.3 0-2 1.4-1.2 1.4-2.8 0-4 0-0.3 0.1-0.7 0-1-0.4-3.4-1.3-3.3-2-5-0.1-0.3-0.8-0.6-1-1 3-4 0-12.9 1-16.4 0.2-0.7 2.8-0.9 4.1-2 0.4-0.4 4.8-6.9 4.9-7.3 0.4-2.1-0.4-4.5 0.1-6.6 0.1-0.7 1.7-0.7 1.8-1.5 3.8-15.4-0.1-17.5-1.9-30.6-2.1-15.1 1.9-25-2.7-41.4-1.6-5.6-1.6-12.9-3.2-17.7-2.1-6-8.3-7.9-12.1-2.8-0.4 0.6-3.8 5.7-3.9 6.1-1.3 3.2 0.3 7.1-4.1 8.8l1 3.4-3-1c0.5 2.8-0.7 5.2-1.9 7.6-0.8 1.7 1.1 3-3.1 2.4 4.2-11.8 7.2-24.6 12-36 2.6-6 6.1-12.4 9-18q0.5-1 1-2c2.4-0.2 3.9-2.1 5-4 3.5-1.6 4.3-2.4 7-4z"/>
							<path class="s12" d="m307 728l18.7 1.9c1.1 0.5 2.9-0.9 3.3-0.9 0.4 0 2.2 0.8 4 1 0.2 0 1.2 0.9 2.4 1 3.4 0.4 8-1.1 10.6 1-0.1 0-1 0.9-2.4 1-3.6 0.4-8.6-0.7-11.9 0-0.8 0.2-0.7 2.7-2.7 2 0-0.7 0.3-3.1-1-1.5-3 11.2-1.5 22.8-3 34h2c-0.4-9.6 1.7-18.9 2-28.5 5.8-1.2 2 5.9 2.3 8.3l4.3 11.7c3.4-2.3 6.4-2.3 10.4-2-1.4-4.9 5.9-7.4 10-8-4.7 5.9-6.9 13.4-11 20-2.7 4.4-2.3 5.2-4.5 10-4.2 9.5-10.9 18.6-7.6 29.5-1.3 2.2-2.1 1.4-3.9 0.5-7-6.8-13.7-14.8-22-20-5.3-3.4-11.8-6.5-18-8 1.5-14.9 7.7-30.9 10-46 2.3 1.2 2.9-4 3-6 1.7-0.5 3.3-0.9 5-1z"/>
							<path class="s12" d="m271 887c0.5-14.8 4.3-34.5 7.3-49.3 1.1-5.3 5.3-10.5 3.7-16.7h4c-0.3-3 2.2-23.1 3.1-23.9 2.8-2.6 5.8 2.2 7.3 3.5 0.8 0.7 2.2 0.6 3.5 2 3.4 3.6 2.2 8.8 7.2 11-0.2 3.1-3.3 3.2-3.8 6.1-0.5 2.6 0 5.1-0.4 7.7-1.8 13.2-5.9 29-5.6 42.1 0.1 8.4 3.1 9.5 4.6 14.2 0.4 1.6-0.3 4.4 0.3 5.2 0.2 0.2 5.1 1.9 5.5 3.4 0.9 2.5-1.2 7.3 2.4 6.7-0.1 1 0 2 0 3-0.2 2.2-2.9 7.5 0 10 0 0.7-0.1 1.4 0 2l-2 1c-2.7-3.8-9.1-5.6-12.6-8-6.6-4.5-13.2-13.7-12.4-22-7.9 2-4.9-3.5-10-5l-2 7z"/>
							<path class="s13" d="m345 811c4.2 0.6 2.3-0.7 3.1-2.3 1.2-2.5 2.4-4.9 1.9-7.7l3 1-1-3.4c4.4-1.7 2.8-5.6 4.1-8.8 0.1-0.3 3.5-5.5 3.9-6 3.8-5.2 10-3.3 12.1 2.7 1.6 4.8 1.6 12.1 3.2 17.8 4.6 16.3 0.6 26.2 2.7 41.3 1.8 13.1 5.7 15.2 1.9 30.7-0.1 0.7-1.7 0.7-1.8 1.4-0.5 2.1 0.3 4.6-0.1 6.6-0.1 0.5-4.5 7-4.9 7.3-1.3 1.1-3.9 1.3-4.1 2-1 3.6 2 12.5-1 16.4-3.7-10-6.2-17.2-11-27l5 2c1.2-3.2-2.8-5.5-2.5-8.1 0.4-3.5 3.1-3.5 4.3-5.5 1.3-2.1 2.6-24.4 2.2-27.9-0.6-5.4-4.4-7.4-4.8-10.2-0.5-3.4 3.9-10.9-3.5-11.1-3.1 3.2-7.5 4.3-10.9 6.8-1 0.8-1.3 2.2-2.2 3.1-1.9 1.7-5.1 0.4-4.6 6h-4c-0.4-2-1.3-2.2-0.9-5.4 0.1-1.2 3.4-10.6 3.9-11.6 0.3-0.5 0.9-0.8 1-1 1.6-3.2 3.2-4 5-9z"/>
							<path class="s13" d="m288 792c4.6 1.8 14.5 8.4 17.1 12.5 2.8 4.3 0.9 2.4 4.9 6.5-2.4 2.6 2.3 6.2 3.4 8.9 0.3 0.7-0.4 2-0.3 2.1 0.3 0.3 1.5-0.2 1.9 0-0.7 2-0.4 5.6-1 7.2-0.4 1.3-2.4 1.1-2.8 2.4-2 6.1-4.6 36.9-4.2 43.9 0.6 8.4 3.3 14.3 3 23.5-3.5 0.6-1.4-4.2-2.3-6.8-0.5-1.4-5.3-3.1-5.5-3.3-0.6-0.8 0.1-3.6-0.4-5.2-1.4-4.7-4.4-5.8-4.6-14.2-0.3-13.1 3.8-28.9 5.7-42.1 0.4-2.6-0.1-5.1 0.4-7.7 0.5-2.9 3.6-3 3.8-6.1-5.1-2.2-3.9-7.4-7.2-11-1.3-1.4-2.7-1.3-3.5-2-1.5-1.4-4.5-6.1-7.3-3.6-0.9 0.9-3.4 21-3.1 24h-4c1.5 6.2-2.7 11.3-3.8 16.7-2.9 14.8-6.7 34.5-7.2 49.3q0 0.5 0 1c-3 0.5-1.9-1.5-2-3.5-0.3-7.2 1.2-13.6 1-20.5 0-1 0-2 0-3l5.3-31.2 3.7-11.8c1.3 0.5 2.3 1.4 4 1l5-27z"/>
							<path class="s14" d="m336 838h4c-0.5-5.5 2.7-4.3 4.6-6 0.9-0.8 1.2-2.3 2.2-3 3.5-2.6 7.9-3.7 10.9-6.9 7.4 0.2 3 7.7 3.5 11.2 0.4 2.7 4.2 4.7 4.8 10.2 0.4 3.4-1 25.8-2.1 27.8-1.2 2-4 2-4.4 5.6-0.3 2.5 3.7 4.9 2.5 8.1l-4.9-2c-2.1-4.2-5.1-7.9-7-12q-0.6-1-1-2c-2-4.2-4-10.3-6-15-2.5-5.7-5.5-9.3-7-16z"/>
							<path class="s15" d="m325 901c0.1 0.7 0 1.3 0 2 8.8-0.8 18.3 2.4 27 4 1.4 5.3 4.5 11.1 5 17-0.6 0-1.3 0-2 0-4.8-1.9-11.5-0.9-17-1-5.4-0.1-10.7 0-16 0 2-7.9-0.5-16.5 3-24 0 0.7 0 1.4 0 2z"/>
							<path class="s14" d="m315 822c2.9 1.3 1.4 3.3 2.3 5.2 1.1 2.3 4.1 5.8 3.8 8.2-0.1 0.6-1.9 0.5-2.1 1.3-3.2 13.8-4.9 34.4-5 48.3 0 4.8-2.2 11.7-3 17h-1c0.1-1 0-2 0-3 0.3-9.2-2.4-15.1-3-23.5-0.4-7 2.1-37.8 4.2-43.9 0.4-1.3 2.3-1.1 2.8-2.3 0.6-1.7 0.3-5.3 1-7.3z"/>
							<path class="s15" d="m383 745c4.6 14.4 6.6 29.4 10 44-3.2 0-2.7-1.1-2.5 2 0.7 10.2 5.2 19.8 5.5 30-2.5 0.5-1.7-0.6-2.6-1.9-2.5-4-3.4-10.9-4.2-15.7-2.8-15.4-5.7-27.8-11.5-42.1-0.1-0.3-1.4-0.3-1.6-1-1.2-4.2-0.1-10.6 4.4-11.3l-1.5-2c1.4-0.9 3.2-1.4 4-2z"/>
							<path class="s0" d="m247 865c0.6-0.1 1.6 0.2 2 0 0.8 6.3 3.9 12.2 6.9 17.7 3.3 6.2 8.5 14.1 13.1 19.3 0.1 0.6 0 1.4 0 2 0.1 0.9 0 1.7 1 2 0.1 0.3-0.1 0.7 0 1 0.5 1.2 1 2.3 2 3-0.1 1 0.1 2 0 3-5.5-5.4-15.1-11.6-19.4-18.1-4.3-6.4-4-15.9-8.6-21.9 0.7-2.7 1.3-5.3 2-8z"/>
							<path class="s14" d="m403 822c4 21.5 6.8 45.1 4.9 67.4-1.6 18.3-9.4 20.4-18.9 33.6-2.6 0.5-5.4 1.2-8 2l-8.3 0.9c-1.6-0.5-1.4-1.6-1.7-2.9l2.5 2c1.1 0.1 0.3-1.8 0.5-2 0.5-0.4 5.6 0.4 7.3 0 0.3-0.1 4.7-2.6 5.3-3 6.7-4.5 10.5-14.8 17.2-19.2 1.5-5.2 0.9-10.6 1.2-15.8 1.6-21.9 0.6-42.3-4-64l2 1z"/>
							<path class="s13" d="m345 769l1 3c-5.6 13.5-9.7 28.4-12.8 42.7-0.5 2.2 0.6 3.1-2.2 1.3q0-0.5 0-1c0-0.4 0.7-1.1 1-1.5-0.6-1-1.4 0.6-2 0.5-0.5 0-1.3-0.8-2-1 0.5-2-4.1-3.5-6-5-3.1-2.5-5.9-5-8.1-8.4l-14.9-12.6c1.9 0.8 5.4 2.1 7 3 8.1 4.4 15.6 15.1 23 19 1.8 0.9 2.5 1.7 3.9-0.5-3.3-10.9 3.4-20 7.6-29.5 2.1-4.8 1.8-5.6 4.5-10z"/>
							<path class="s13" d="m329 875l1 16c4.2-1.6 7.5-0.4 11.4 1.1 0.8 0.3 6.2 2.9 6.4 3.1 1 1.3-0.5 6.5 3.2 5.8 0.5 1.5 0.7 2.7 1 4-7-7.4-14.1-2.1-21.3-4-1.1-0.3 0.2-3.7-5.7 0 0-0.6 0-1.3 0-2-0.1-8.3 2.3-16 4-24z"/>
							<path class="s14" d="m331 866c5.4 0.4 0 2.4 0 2.6-0.6 4 2.6 2.9 2 6.4l4-1c-0.8 3 2.3 3.5 3 4.8 1.7 3.1-0.5 8.4 6 7.2 2.2 5.6 3.3 9 5 15-3.7 0.7-2.2-4.5-3.2-5.8-0.2-0.2-5.6-2.8-6.4-3.1-3.9-1.5-7.2-2.7-11.4-1.1l-1-16c0.7-3 1.3-6 2-9z"/>
							<path class="s16" d="m357 883c4.8 9.8 7.3 16.9 11 27 0.2 0.4 0.9 0.7 1 1 0 1.9 0.3 3.9 2 5 0.1 0.3 0 0.7 0 1 0.2 1.3-0.1 2.7 0 4 0.1 0.7-0.1 1.4 0 2 0.3 1.3 0.1 2.4 1.7 2.9l8.3-0.9c-9.2 2.8-5.6 1.4-14 0 1.2-1.6-0.1-7.8-1-9.3-0.7-1.3-1.8-0.5-2-0.7-3.5-2.7-0.6-2.6-1.2-3.8-3.4-0.3-0.7-2.3-0.8-4.2-0.2-7.4-3.4-10.9-6-17-2-4.7-4.4-9.5-6.2-14.3-0.6-1.4-1.7-3.7 0.2-4.7 2 4.1 5 7.8 7 12z"/>
							<path class="s16" d="m403 822l-2-1c-2.2-10.7-5.5-21.3-8-32-3.4-14.6-5.4-29.6-10-44 1.3-0.8 2.4-1.3 2-3 7.3 26.1 13.2 53.8 18 80z"/>
							<path class="s9" d="m416 928c0.2 0 3 1.4 3.1 1.6 0.8 4.8-1.6 2.7-2.7 3.7-4 3.4-5.6 7.5-11.2 9.6-4.3 1.6-7.1 1.3-10.5 2.1-1.1 0.2-0.6 2-0.7 2h-14c-0.9-3.1-1.8-9.8 1-12 0.4 2.2-0.5 5.4 0 7.3 0.3 1.2 1.9 0.6 2 0.7 0.4 0.3-1.1 2.9 3.4 2 2.7-0.6 4.3-3.2 6.4-3.8 2-0.5 4.4 0.2 6.5-0.5 3.7-1.2 13.9-4.7 13.8-9.1l-3.1-2.6c0.4 0 0.7 0 1 0 1.6-0.1 2.9-1 3-1 0.7 0 1.4-0.1 2 0z"/>
							<path class="s0" d="m412 961c3.6 1.6 7.5 3.1 11.2 4.3 3.5 1.2 6.7 1.8 10 3 9 3.4 16.9 7.4 24.8 12.7-1.1-0.3-2.9 0.4-4.3 0-0.5-0.2-1.9-3.6-5.7-2 1.6-1-0.7-3.5-1.8-3.9-8.1-3.4-13.7-4.2-22.5-6.1-0.7-0.2-0.6-1.8-1.4-2-1.9-0.4-8.9-1.3-7.3 3-5-3.2-6.6-1.6-8 4-0.1-0.6-1.3-1.1-1-3.4 0.2-1.9 1.9-3.6 2-5.6 0.3-0.1 0.8 0.2 1 0l1-1c0.8-0.7 1.3-2.4 2-3z"/>
							<path class="s14" d="m355 723c3.1 0 6.4-3 7.6 1.1l2.4-1.1c0.2 2-0.2 4 0.1 6l5.9 1c-0.1-1.3 0.3-2.9 0-4 0.8-0.1 1.7 1 2 1 0.1 1.3-0.2 2.7 0 4 2.1 0.1 4 0.9 6 1 0 0.5-1.4 1.8-1 2 2.1 0 3.5-0.6 5 1-17.3 1.8-30.8 22.1-37 37l-1-3c4.1-6.6 6.3-14.1 11-20 1.4-1.8 4.6-5.6 6-7 1.3-1.3 4.6-1.6 5.3-4.8l6.7-2.2c0.4-0.4-0.8-3-1-4-7.4-0.4-12.2-1.7-19-2q-0.5 0-1 0c-0.4-2.4 1.8-3.9 2-6z"/>
							<path class="s8" d="m343 718v4c1.6-0.1 4.2 0.6 5-1 1.1 2.9 1.4 4.7 1 8 1.4 0 2.7 0 4 0q0.5 0 1 0v2c-3.3-0.2-5.2 0.7-8 1-2.6-2.1-7.2-0.6-10.6-1-1.2-0.1-2.2-1-2.4-1v-4c1.2 1.2 0.3 2.8 2.5 3.1 11.2 1.6 3.4-6 3.5-12.1 1.8-0.8 3.1 0.8 4 1z"/>
							<path class="s14" d="m270 864c0.2 6.9-1.2 13.4-1 20.5 0.1 2-1 4 2 3.5-0.1 4.3-0.6 11.2 0.5 15.1 0.5 1.9 2.2 1.9 2.5 2.6 1.6 3.6 2.4 5 4 8 1.6 3 2.9 6.1 4.2 9.1l26.8 0.2c-0.1-1.6 0.2-3.5 0-5 0-0.5-0.5-0.9-1-1-0.1-0.6 0.2-1.7 0-2l2-1c0.5 4.3 2.6 6.9 3 11h-31c-2.4-4.2-6.3-8.4-10-12 0.1-1-0.1-2 0-3 0.1-1 2.6-2.5-2-3-0.1-0.3 0.1-0.7 0-1-0.1-0.8 0.1-1.7-1-2 0-0.6 0.1-1.4 0-2-0.8-5.6-5.6-25.9-3-30 0.1-0.1 1.8 0.4 2.1-0.6 0.5-2-0.4-5.2-0.1-7.4h2z"/>
							<path class="s1" d="m413 829c-2.3-13-2.7-25.9-3-39 1.4 10 3.3 20.3 4 30.5 0.2 2.5 0.8 6.6-1 8.5z"/>
							<path class="s8" d="m318.7 718.3c0.6 0.5 2.9 4.2 2.3 4.7l-9.3 0.1-3.7 3.9c-1.3-5.1 6.2-12.5 10.7-8.7z"/>
							<path class="s16" d="m366 757c-2.9 5.7-6.4 12-9 18l-1-2c2.3-5.6 4-11.5 7-17 1.1 0.2 2.1 0.5 3 1z"/>
							<path class="s9" d="m408 965c-0.1 2-1.8 3.7-2 5.6-0.3 2.3 0.9 2.8 1 3.4 0.2 1 1 2.5 1 3 0.2 2.3-0.3 5.3-2 7-0.2-0.4-1.6-0.7-2-1.5-0.6-2 2-1.4 2.1-2 0.1-2-3.2-4.4-2.9-7.8 0.1-0.8 2.6-7.2 3-7.5 0.6-0.5 1.6-0.1 1.8-0.2z"/>
							<path class="s3" d="m388 934c-0.8 3.1-2.5 5.6-2 9h-3c-0.1-0.1-1.7 0.5-2-0.7-0.5-1.9 0.4-5.1 0-7.3 0.1-0.1 1.9-1 2-1 0.4-0.1 2.5 0.6 5 0z"/>
							<path class="s8" d="m271 787c-1.1 7.1-0.3 14.5-0.9 21.6-0.1 1.3-1 2.2-1.1 2.4h-1c0.9-8 0.5-17.8 1-26 1 0.6 1.9 1.9 2 2z"/>
							<path class="s14" d="m362 923c0.7 0.7 0.8 2 1 3-2 0-3.8-1.9-6-2-0.5-5.9-3.6-11.7-5-17-0.1-0.6 0.2-1.4 0-2 4 4.2 3.4 9.7 6.2 14.4 1.2 2 2.8 2.5 3.8 3.6z"/>
							<path class="s14" d="m362 907c-2.9 0.6-1.7-1.5-2.2-3.2-1.4-4.5-3.6-9-3.8-13.8 2.6 6.1 5.8 9.6 6 17z"/>
							<path class="s16" d="m379 732c-2-0.1-3.9-0.9-6-1-0.2-1.3 0.1-2.7 0-4 2.1 0.3 2.1-0.6 3-1 0.6-0.2 1.6-0.7 2-1 0.2 2.4 1.2 4.6 1 7z"/>
							<path class="s1" d="m302 723c-1.9 3.8 0.1 4.4 0 6-0.1 2-0.7 7.2-3 6 0.5-2.9 1.8-5.8 0.9-8.9-1.5-0.8-3.2-1-4.9-1.1 0.4-1.8-0.8-2.1-2-3 3.4-0.3 5.9 3.4 9 1z"/>
							<path class="s1" d="m328 728c0.5 0 0.9 0.5 1 1-0.4 0-2.2 1.4-3.3 0.9l-18.7-1.9c5.9-0.4 15.2-0.6 21 0z"/>
							<path class="s14" d="m364 915c0.3 0.2 1.3-0.6 2 0.7 0.9 1.5 2.2 7.7 1 9.3-0.6-0.1-1.3 0.1-2 0 0.8-1.7-0.8-3.1-1-4-0.3-1.6-0.7-4.4 0-6z"/>
							<path class="s16" d="m349 869l-2.9-2.5-3.1-12.5c2.1 4.7 4 10.8 6 15z"/>
							<path class="s1" d="m345 648h-19c0.8-1.3 1.2-0.9 2.4-1 3.4-0.4 11.8-0.4 15.2 0 0.8 0.1 1.5 0 1.4 1z"/>
							<path class="s1" d="m343 718c1.5 0.3 3 0.2 4.4 0.9 1 0.5 0.4 1.6 0.6 2.1-0.8 1.6-3.4 0.9-5 1z"/>
							<path class="s14" d="m355 924c-5.5-0.3-12.1 1.1-17-1 5.5 0.1 12.2-0.9 17 1z"/>
							<path class="s13" d="m311 902c-0.5 3.7-1.1 6-1 10-2.8-2.5-0.1-7.8 0-10z"/>
							<path class="s16" d="m372 751c-1.1 1.9-2.6 3.9-5 4 2.2-4.6 2-2.6 5-4z"/>
							<path class="s16" d="m365 925c-0.1 0-1 1-2 1-0.2-1-0.3-2.3-1-3l2-2c0.2 0.9 1.8 2.3 1 4z"/>
							<path class="s1" d="m247 865h-1c0.4-1.3 0.7-2.7 1-4z"/>
							<path class="s9" d="m409 965c0.3-0.1 0.7-0.7 1-1z"/>
							<path class="s8" d="m355 722c0-0.1-0.7-0.8-1-1z"/>
							<path class="s15" d="m374 923l1-6 3 2c-1.2-5.5 1.7-5 4-7.5 4.5-4.8 9.4-9 13.9-14 1-1 3-1.5 3.6-2.5 0.8-1.4 0.4-3.5 1-5 0.9-2.6 3.5-3.3 1.5-7l3 2c-0.4 5.3 0.3 10.6-1.2 15.8-6.7 4.5-10.5 14.7-17.3 19.2-0.5 0.4-4.9 2.9-5.2 3-1.7 0.4-6.8-0.4-7.3 0z"/>
							<path class="s14" d="m357 775c-4.8 11.5-7.8 24.2-12 36-1.8 5-3.4 5.8-5 9 3.4-16.4 9.8-31.8 16-47z"/>
							<path class="s14" d="m371 916c-1.7-1.1-2-3.1-2-5 0.7 1.7 1.6 1.6 2 5z"/>
							<path class="s14" d="m371 921c-0.1-1.3 0.2-2.7 0-4 1.4 1.2 1.4 2.8 0 4z"/>
							<path class="s0" d="m410 929l3.1 2.6c0.1 4.4-10.1 7.8-13.9 9.1-2 0.7-4.3 0-6.4 0.5-2.2 0.6-3.7 3.2-6.4 3.8-4.5 0.9-3-1.7-3.4-2h3c-0.5-3.4 1.2-5.9 2-9 7.9-1.9 13.9-4 22-5z"/>
							<path class="s0" d="m414 928c-0.1 0-1.4 0.9-3 1z"/>
							<path class="s15" d="m354 731c3.7 0.2 2.1 0.8 3.4 1.6 0.9 0.5 2.2 0.3 2.5 0.5 1.1 1.1-1.6 7.8 2.1 8.9-1.4 1.4-4.6 5.2-6 7-4.1 0.6-11.4 3.1-10 8-4-0.3-7-0.3-10.4 2l-4.3-11.7c-0.3-2.4 3.5-9.5-2.3-8.3 0.1-1.3 0.1-2.7 0-4 2 0.7 1.9-1.8 2.7-2 3.3-0.7 8.3 0.5 11.9 0 1.4-0.1 2.3-1 2.4-1 2.8-0.3 4.7-1.2 8-1z"/>
							<path class="s17" d="m329 735c0.1 1.3 0.1 2.7 0 4-0.3 9.6-2.4 18.9-2 28.5h-2c1.5-11.2 0-22.8 3-34 1.3-1.6 1 0.8 1 1.5z"/>
							<path class="s16" d="m307 789l-1 1c-1.6-0.9-5.1-2.2-7-3-2.4-1-10.2-1.3-10.8-4.7-0.2-0.7 0.8-1.1 0.8-1.3 6.2 1.5 12.7 4.6 18 8z"/>
							<path class="s18" d="m307 789c8.3 5.2 15 13.2 22 20-7.4-3.9-14.9-14.6-23-19z"/>
							<path class="s15" d="m271 887l2-7c5.2 1.5 2.1 7 10 5-0.7 8.3 5.9 17.5 12.5 22 3.5 2.4 9.8 4.2 12.5 8 0.2 0.3-0.1 1.4 0 2 0.1 0.4 0.6 0.9 1 1 0.3 1.5-0.1 3.4 0 5l-26.8-0.1c-1.3-3.1-2.6-6.2-4.2-9.2-1.6-2.9-2.4-4.4-4-8-0.3-0.7-2-0.7-2.5-2.6-1.1-3.9-0.6-10.8-0.5-15.1q0-0.5 0-1z"/>
							<path class="s5" d="m295 725c-0.1 0-0.7 0.9-1.4 0.9-2.2-0.2-4.3-1.3-6.5-0.9v-5c1-1 5 1.3 5.9 2 1.2 0.9 2.5 1.2 2 3z"/>
							<path class="s14" d="m322 808c1.9 1.5 6.5 3 6 5 0 0-0.3 0.9-1.4 0.1-1.6-1.1-3.4-3.5-4.6-5.1z"/>
							<path class="s14" d="m331 815l-1-1c0.6 0.1 1.4-1.5 2-0.5-0.3 0.4-1 1.1-1 1.5z"/>
							<path class="s19" d="m269 817l5 0.5c0.1 1.9-2.3 2.5-2.8 4.2-0.1 0.5-1.2 7.4-1.2 7.8v15c0 5.2 0 11.3 0 16.5 0 1 0 2 0 3h-2c-0.3 2.2 0.6 5.4 0 7.3-0.2 1.1-1.9 0.6-2 0.7-2.8-5.9-3.1-15-3-21.6 0-1.3 1-2.3 1-2.4 2.6-4 2.4-10.2 3-15 0.6-5.3 1.5-10.7 2-16z"/>
							<path class="s14" d="m279 818l-3.7 11.8-5.3 31.2c0-5.2 0-11.3 0-16.5v-15c0-0.4 1.1-7.3 1.2-7.8 0.5-1.7 2.9-2.3 2.8-4.2l-5-0.5c0.1-0.3 0-0.7 0-1 4.8-1 6.6 0.6 10 2z"/>
							<path class="s1" d="m263 833c1.1 5.3 1.1 9.6 1 15 0 0.1-1 1.1-1 2.4 0 6.6 0.2 15.7 3 21.6-2.6 4.1 2.2 24.4 3 30-4.6-5.2-9.8-13.1-13.1-19.3-3-5.5-6-11.4-6.9-17.7 3.2-1.4 5.4-9.5 5-13h3c1.2 7.4-0.9 15 0.1 22.4 0.3 2.7 2.9 5.3 1.9 8.6l3.9-1.6c-1.5-7.9-0.6-15.9-2-23.8-0.8-4.2-2.1-5.6-2.9-9.6l3 2c-0.2-6.4-0.1-12.7 1-19 1 0.3 0.9 1.2 1 2z"/>
							<path class="s20" d="m263 821c0.4 0.2 1.4-0.1 2 0 0.7 1.6-1 2.8-1 3-1.2 1.9-1.6 4.7-2 7-1.1 6.3-1.1 12.6-1 19l-3-2c-1.6-8.8 1.2-19 5-27z"/>
							<path class="s21" d="m269 816c0 0.3 0.1 0.7 0 1-0.5 5.3-1.3 10.7-2 16h-3c0.2-3-0.2-6 0-9 0-0.2 1.7-1.4 1-3-0.6-0.1-1.7 0.2-2 0-0.8-0.5-0.8-2.8-0.3-3.7 1.7-3.2 4.7-0.7 5.3-6.3h1c-0.1 1.6 0.2 3.4 0 5z"/>
							<path class="s12" d="m325 901c5.9-3.7 4.6-0.3 5.7 0 7.2 1.9 14.4-3.4 21.3 4 0.2 0.6-0.1 1.4 0 2-8.7-1.6-18.2-4.8-27-4 0-0.7 0.1-1.3 0-2z"/>
							<path class="s1" d="m272 910c-1-0.7-1.6-1.8-2-3 4.6 0.5 2.1 2 2 3z"/>
							<path class="s1" d="m270 906c-1-0.3-0.9-1.1-1-2 1.1 0.3 0.8 1.2 1 2z"/>
							<path class="s12" d="m354 729c6.8 0.3 11.6 1.6 19 2 0.2 1 1.4 3.6 1 4l-6.7 2.2c-0.7 3.2-4 3.5-5.3 4.8-3.7-1.1-1-7.8-2.1-8.9-0.3-0.2-1.6 0-2.5-0.5-1.3-0.8 0.3-1.4-3.4-1.6z"/>
							<path class="s12" d="m309 918c-0.4-0.1-0.9-0.6-1-1 0.5 0.1 1 0.5 1 1z"/>
							<path class="s22" d="m267 833c-0.5 4.8-0.4 11-3 15 0.1-5.4 0.1-9.7-1-15z"/>
							<path class="s19" d="m264 833h-1c-0.1-0.8 0-1.7-1-2 0.4-2.3 0.8-5.1 2-7-0.2 3 0.2 6 0 9z"/>
						</g>
					</g>
				</g>
			</g>
		</g>
	</g>
</svg>