<svg version="1.2" xmlns="http://www.w3.org/2000/svg" viewBox="0 0 132 30" width="132" height="30">
	<title>34</title>
	<style>
		.s0 { fill: #0e0f10 } 
		.s1 { fill: #171718 } 
		.s2 { fill: #151515 } 
		.s3 { fill: #1658a3 } 
		.s4 { fill: #5c94cf } 
		.s5 { fill: #d4e7f7 } 
		.s6 { fill: #4d6eb5 } 
		.s7 { fill: #8cbfe7 } 
		.s8 { fill: #6ea3d7 } 
		.s9 { fill: #3679bd } 
		.s10 { fill: #266ab3 } 
	</style>
	<g id="Layer_1-2">
		<g>
			<g>
				<path class="s0" d="m129.7 9.8c-0.4 0.8-0.9 1.6-1.8 2-0.1 0-0.1 0.1-0.1 0.1 0.2 0.5 0.7 0.8 1.3 0.8 0.6-0.1 1.1-0.4 1.6-0.9 0.6-0.5 1-1.2 1.1-2v-0.9q0-0.4-0.2-0.7c-0.4-0.6-0.9-0.8-1.5-0.9q-1.5-0.3-2.8 0.4c-1 0.6-1.7 1.4-2.3 2.4-0.3 0.6-0.6 1.2-0.5 1.9 0 0.1 0 0.2-0.1 0.2q-0.7 1-1.5 2.1c-0.9 1.1-1.8 2.2-3 3-0.4 0.3-0.8 0.5-1.2 0.6-0.4 0.1-0.8 0-0.9-0.4q-0.1-0.3-0.1-0.6c0-0.9 0.2-1.7 0.5-2.5 0.6 0.2 1.1 0.1 1.6 0q1.5-0.6 2.6-1.6c1-0.9 1.7-1.9 2-3.2 0.1-0.5 0.1-1-0.1-1.4-0.2-0.6-0.8-0.8-1.4-0.9-0.9-0.1-1.7 0.3-2.4 0.7-1.4 0.9-2.4 2.1-3.3 3.5-0.3 0.5-0.5 1-0.8 1.5q-1 1.4-2.1 2.8c-0.3 0.5-0.7 0.9-1.1 1.3-0.1 0-0.2 0.1-0.3 0.1-0.1-0.1 0-0.2 0-0.3 0.1-0.4 0.3-0.8 0.4-1.2q1.3-3.1 2.6-6.2 1.3-3.4 2.7-6.7c0-0.2 0-0.3-0.1-0.4-0.5-0.4-1.4-0.2-1.8 0.3-0.3 0.3-0.4 0.7-0.6 1.1 0 0.2 0.2 0.4 0.3 0.6 0.1 0.2 0 0.2-0.1 0.2-0.2 0.1-0.5 0.2-0.8 0.3q0 0.1 0 0.1c-0.9 2-1.7 4-2.5 6-0.1 0.2-0.2 0.6-0.4 0.8q-0.9 1.2-1.8 2.5c-0.7 0.9-1.3 1.8-2.1 2.6-0.2 0.1-0.3 0.3-0.4 0.3-0.2-0.1-0.1-0.3 0-0.5 0.3-0.9 0.7-1.7 1-2.5q1.3-3.1 2.6-6.1c0.1-0.3 0-0.5-0.3-0.6-0.6-0.3-1.4 0-1.7 0.6-0.5 0.8-0.9 1.7-1.3 2.5-0.3 0.6-0.5 1.2-0.8 1.6-0.9 1.3-1.9 2.6-2.8 3.8-0.3 0.4-0.7 0.8-1 1.1-0.1 0-0.2 0.1-0.3 0.1 0-0.1 0-0.2 0-0.2 0-0.3 0.2-0.6 0.3-0.9 0.7-1.9 1.6-3.8 2.4-5.7 0.2-0.7 0.4-1.3 0.4-1.9 0.1-0.5 0-0.8-0.4-1.1-0.4-0.2-0.8-0.1-1.2 0.2-0.4 0.3-0.7 0.6-0.9 1q-0.8 1.3-1.6 2.5c-0.1 0.1-0.1 0.3-0.3 0.4q0.3-0.9 0.6-1.8c0.1-0.5 0.3-1 0.3-1.5-0.1-0.6-0.5-0.9-1.1-0.9-0.3 0.1-0.5 0.3-0.7 0.5-0.6 0.5-1 1.2-1.4 1.8q-0.8 1.2-1.6 2.5c0 0 0 0.1-0.1 0.1q0-0.1 0.1-0.2 0-0.1 0-0.1 0.8-2 1.6-3.9c0.1-0.4 0-0.5-0.3-0.6-0.6-0.3-1.5 0-1.8 0.6q-0.6 1.2-1.1 2.4c-1 2-1.8 4.1-2.6 6.1-0.2 0.6-0.5 1.2-0.6 1.9-0.1 0.4 0.1 0.8 0.5 0.9 0.5 0.1 0.9 0 1.2-0.4 0.5-0.4 0.7-1 0.9-1.5 0.3-0.5 0.4-1 0.7-1.5 0.9-1.4 1.8-2.7 2.6-4.1 0.2-0.2 0.3-0.5 0.6-0.7-0.1 0.5-0.3 0.8-0.5 1.1-0.7 1.7-1.5 3.2-2 5-0.1 0.4-0.3 0.9-0.3 1.3 0 0.4 0.3 0.8 0.6 0.8 0.5 0 0.9-0.1 1.2-0.5 0.4-0.4 0.7-1 0.9-1.5 0.3-0.6 0.4-1.2 0.8-1.7 0.6-1.1 1.4-2.2 2.1-3.3 0.2-0.4 0.4-0.8 0.7-1.1q-0.1 0.2-0.1 0.5-0.6 1.2-1.1 2.5c-0.5 1.2-1 2.4-1.3 3.6-0.2 0.7 0.2 1.4 0.8 1.5 0.4 0.1 0.8-0.1 1.2-0.4 0.9-0.8 1.8-1.8 2.6-2.7q0.3-0.5 0.7-1c0 0.2 0 0.2 0 0.3-0.3 0.9-0.6 1.7-0.8 2.6-0.1 0.4 0.1 0.8 0.4 1 0.4 0.3 1 0.3 1.5-0.1 0.9-0.8 1.7-1.6 2.5-2.6q0.6-0.7 1.2-1.5 0 0 0-0.1 0.1 0.1 0 0.1 0 0.2-0.1 0.4c-0.3 0.8-0.6 1.7-0.8 2.6-0.2 0.5 0 1 0.5 1.3 0.3 0.2 0.9 0.1 1.3-0.2q0.7-0.5 1.3-1.2c0.7-0.7 1.4-1.6 2-2.4q0.1 0 0.1 0 0 0 0 0c-0.2 0.7-0.2 1.4-0.2 2 0.1 0.6 0.3 1.1 0.6 1.4 0.7 0.7 1.7 0.8 2.6 0.4 0.8-0.4 1.5-0.9 2.1-1.5 1.6-1.4 2.9-3 4.1-4.8 0.2 0.5 0.6 1 0.9 1.4 0.4 0.5 0.9 1 1.1 1.6 0.1 0.3 0.2 0.5 0.1 0.8-0.1 0.7-0.6 1.2-1.2 1.5-0.4 0.3-1 0.1-1.1-0.4-0.1-0.4-0.1-0.7 0.2-1 0.4-0.5 0.9-0.7 1.4-0.9 0.1-0.1 0.1-0.1 0.1-0.2-0.3-0.8-1-1.2-1.8-1-0.9 0.3-1.5 1-1.8 1.9-0.3 1.1 0.2 2.1 1.2 2.5 0.8 0.3 1.6 0.3 2.3 0.1 1.1-0.3 1.9-0.9 2.4-1.8 0.8-1.3 0.9-2.7-0.1-3.9-0.4-0.5-0.8-0.9-1.1-1.3-0.4-0.6-0.5-1.2-0.1-1.8 0.3-0.6 0.8-1.1 1.3-1.6 0.3-0.2 0.6-0.4 0.9-0.5 0.1-0.1 0.3-0.1 0.4 0 0.1 0.1 0.1 0.2 0.1 0.4q-0.1 0.5-0.3 1zm-9.9 1.3c0.5-0.8 1-1.6 1.7-2.3q0.3-0.3 0.7-0.5c0.4-0.1 0.6 0 0.6 0.4-0.1 0.5-0.2 1-0.5 1.4q-1.3 2.1-3.4 3.3-0.1 0.1-0.4 0.2c0.4-0.9 0.8-1.7 1.3-2.5z"/>
				<path class="s0" d="m91.1 12c-0.6-0.9-1.2-1.7-1.8-2.7-0.7-1.2-0.8-2.5-0.2-3.8q1-2.4 3.4-3.7c0.6-0.4 1.4-0.7 2.2-0.6 0.7 0 1.2 0.4 1.3 1.1q0.1 1.1-0.4 2.1c-0.5 1.1-1.3 2-2.3 2.8-0.3 0.3-0.8 0.6-1.2 0.9 0.8 0.6 1.7 0.8 2.6 0.6 0.7-0.2 1.3-0.6 1.8-1.1 1.4-1.4 2.4-2.9 2.3-5-0.2-1.6-1-2.5-2.5-2.6q-0.7 0-1.4 0c-0.3 0-0.6 0.1-0.8 0.1q-1.3 0.2-2.5 0.7c-1.6 0.8-3 1.8-4.1 3.2-0.8 1.1-1.4 2.3-1.6 3.7-0.1 0.7-0.1 1.5 0.1 2.2 0.2 1 0.7 1.9 1.2 2.7 0.6 0.9 1.4 1.8 2 2.7 0.6 1 1.1 2.1 0.7 3.4-0.5 1.4-1.4 2.6-3.2 2.8-0.5 0-1.1 0-1.6-0.3-0.8-0.5-1-1.3-1-2.1 0-1.3 0.6-2.4 1.5-3.2 0-0.1 0.1-0.1 0.1-0.1-0.5-0.1-1.1-0.2-1.6-0.1-0.9 0.2-1.6 0.5-2.1 1.3-0.4 0.7-0.5 1.5-0.4 2.4 0.2 1.5 1.2 2.6 2.6 3q1.8 0.6 3.6 0 2.6-0.7 4.1-2.8 1.5-2.3 0.7-4.9c-0.4-1-0.9-1.9-1.5-2.7z"/>
			</g>
			<g>
				<path class="s1" d="m65.9 15.6q-0.5-1.3-0.9-2.6c-0.1-0.1-0.1-0.2 0.1-0.3q0.2-0.1 0.5-0.2c0.6-0.5 1-1.1 1.1-1.9 0.2-1 0.1-1.9-0.3-2.8-0.5-0.7-1.1-1.2-2-1.3-0.9 0-1.9 0-2.8 0-0.3 0-0.3 0.1-0.3 0.3q0 2.9 0 5.7c0 1.9 0 3.6 0 5.4 0 0.7-0.1 0.6 0.6 0.6 0.3 0 0.3 0 0.3-0.4q0-2.5 0-5c0-0.2 0.1-0.2 0.2-0.2 0.3 0 0.6 0 0.9 0 0.2 0 0.5-0.1 0.7 0 0.2 0.1 0.2 0.4 0.2 0.6q0.8 2.2 1.5 4.4c0.3 0.7 0.1 0.6 0.9 0.6 0.2 0 0.3-0.1 0.2-0.3q-0.5-1.3-0.9-2.6zm-1.9-3.5q-0.8 0-1.6 0c-0.2 0-0.2-0.1-0.2-0.2q0-1.1 0-2.2 0-1.1 0-2.2c0-0.1 0.1-0.2 0.2-0.2 0.6 0.1 1.2 0 1.9 0.1 0.6 0 1 0.4 1.2 0.9 0.5 1.1 0.5 2.1-0.1 3.1q-0.5 0.7-1.4 0.7z"/>
				<path class="s1" d="m47.6 6.5c-0.3 0-0.4 0-0.4 0.3q0 2.5 0 5c0 0.2 0 0.3-0.2 0.3q-1.5-0.1-3 0c-0.2 0-0.2-0.1-0.2-0.3q0-2.3 0-4.7c0-0.6 0.1-0.6-0.7-0.6-0.2 0-0.3 0.1-0.3 0.3q0 2.9 0 5.7 0 2.7 0 5.4c0 0.7-0.1 0.6 0.6 0.6 0.3 0 0.3 0 0.3-0.4q0-2.5 0-5c0-0.1 0.1-0.2 0.3-0.2q1.5 0 2.9 0c0.3 0 0.3 0 0.3 0.3q0 2.3 0 4.7c0 0.6 0 0.6 0.6 0.6 0.4 0 0.4 0 0.4-0.4v-11q0-0.6-0.6-0.6z"/>
				<path class="s1" d="m16.1 17.9q-0.3-1.4-0.6-2.8-0.3-1-0.5-2.1-0.4-1.6-0.7-3.1-0.3-1.3-0.6-2.6c-0.2-0.8-0.2-0.8-0.9-0.8q-0.1 0-0.1 0c-0.1 0-0.2 0.1-0.2 0.2-0.2 0.6-0.3 1.1-0.4 1.6q-0.6 2.5-1.1 4.9-0.5 2.4-1.1 4.8c-0.1 0.5-0.1 0.5 0.4 0.5 0.5 0 0.5 0 0.6-0.5q0.1-0.9 0.4-1.8c0-0.1 0-0.2 0.1-0.2q1.6 0 3.2 0c0.1 0 0.2 0 0.2 0.1q0.2 1 0.4 1.9 0.1 0.5 0.5 0.5 0.4 0 0.4-0.6c0 0 0 0 0-0.1zm-1.8-2.6q-1.3 0-2.7 0c-0.1 0-0.1 0-0.1-0.2q0.4-1.8 0.8-3.6 0.3-1.7 0.7-3.4 0 0 0 0 0.2 0.8 0.4 1.6 0.3 1.7 0.7 3.4 0.2 1 0.4 2c0.1 0.2 0 0.2-0.1 0.2z"/>
				<path class="s1" d="m4.5 13.2c-0.8-0.7-1.6-1.2-2.4-1.9-1.1-0.9-1.4-1.7-1.1-2.9 0.2-0.7 0.7-1.1 1.4-1.2q1.2-0.1 1.8 0.8c0.3 0.5 0.3 1.1 0.3 1.7 0 0.3 0 0.3 0.3 0.3 0.7 0 0.6 0.1 0.6-0.6q0-0.3 0-0.6c-0.2-1.2-1.1-2.4-2.6-2.4-1.1 0-1.9 0.3-2.4 1.3-0.6 1-0.6 2.7 0.5 3.8 0.8 0.8 1.8 1.4 2.7 2.1 1.1 0.9 1.2 2.2 0.7 3.2q-0.4 0.9-1.3 1-1.1 0.1-1.7-0.9c-0.3-0.4-0.4-1-0.3-1.5 0-0.2-0.1-0.3-0.3-0.3-0.8 0-0.7-0.2-0.7 0.6 0 1.5 0.9 2.6 2.1 2.9 1 0.2 1.9 0 2.6-0.8 0.5-0.5 0.7-1.1 0.8-1.8 0.1-1.1-0.2-2-1-2.8z"/>
				<path class="s1" d="m34.7 6.5q-1.2 0-2.4 0c-0.4 0-0.4 0-0.4 0.4q0 2.8 0 5.6c0 1.9 0 3.6 0 5.4 0 0.7 0 0.6 0.7 0.6 0.2 0 0.3-0.1 0.3-0.3q0-2.5 0-5c0-0.2 0-0.3 0.2-0.3q0.9 0.1 1.7 0c1.1 0.1 1.9-0.5 2.4-1.5 0.4-1 0.4-2.1 0-3.2-0.4-1-1.2-1.7-2.5-1.7zm1.4 4.9q-0.5 0.7-1.3 0.7-0.9 0-1.7 0c-0.2 0-0.2 0-0.2-0.2q0-1.1 0-2.2 0-1.1 0-2.2c0-0.2 0-0.2 0.2-0.2q0.8 0 1.5 0c0.9 0 1.5 0.5 1.7 1.2 0.4 1 0.4 2-0.2 2.9z"/>
				<path class="s1" d="m23.9 6.5q-1.2 0-2.4 0c-0.4 0-0.4 0-0.4 0.4q0 2.8 0 5.6c0 1.9 0 3.6 0 5.4 0 0.7-0.1 0.6 0.6 0.6 0.3 0 0.3 0 0.3-0.3q0-2.5 0-5c0-0.2 0.1-0.3 0.3-0.3q0.8 0 1.7 0c1 0 1.8-0.5 2.2-1.4 0.6-1.1 0.6-2.4 0-3.6-0.4-0.9-1.2-1.4-2.3-1.4zm1.4 4.8q-0.5 0.8-1.5 0.8-0.8 0-1.6 0c-0.1 0-0.2 0-0.2-0.2q0-1.1 0-2.2 0-1.1 0-2.1c0-0.2 0.1-0.3 0.3-0.3q0.7 0 1.4 0c0.8 0 1.4 0.4 1.7 1.1 0.4 1 0.4 2-0.1 2.9z"/>
				<path class="s1" d="m77 17.6q-1.8 0-3.7 0c-0.2 0-0.2 0-0.2-0.2q0-2.1 0-4.3c0-0.2 0-0.2 0.2-0.2q1 0 2.1 0c0.5 0 0.5 0.1 0.5-0.5 0-0.3-0.1-0.4-0.3-0.4q-1.1 0.1-2.3 0c-0.1 0-0.2 0-0.2-0.2q0-2.1 0-4.3c0-0.1 0-0.2 0.2-0.2q1.9 0 3.8 0c0.3 0 0.3 0 0.3-0.3q0-0.1 0-0.2c0-0.3 0-0.3-0.3-0.3q-2.3 0-4.6 0c-0.3 0-0.3 0-0.3 0.3q0 2.9 0 5.7 0 1.1 0 2.2 0 1.8 0 3.5c0 0.1 0 0.3 0.2 0.3q2.4 0 4.8 0 0.2 0 0.2-0.3 0-0.1 0-0.2c0-0.3 0-0.4-0.4-0.4z"/>
				<path class="s1" d="m54.6 6.5c-0.3 0-0.3 0-0.3 0.4q0 2.8 0 5.6 0 2.7 0 5.4c0 0.7-0.1 0.6 0.5 0.6q0.4 0 0.4-0.5 0-5.4 0-10.9c0-0.6 0.1-0.6-0.6-0.6z"/>
			</g>
			<g>
				<path class="s2" d="m109.1 27.5q0.1 0 0.2 0 9.9 0 19.9 0 0.1 0 0.1 0c0.1 0 0.2-0.1 0.2-0.2 0-0.2-0.2-0.1-0.3-0.1q-5 0-9.9 0-4.8 0-9.6 0-0.3 0-0.5 0c-0.1 0-0.2 0-0.2 0.1 0 0 0 0.1 0.1 0.2z"/>
				<path class="s2" d="m129.5 28.6c-0.1-0.2-0.2-0.1-0.3-0.1q-9.9 0-19.9 0 0 0-0.1 0c-0.2 0-0.2 0.1-0.2 0.2 0.1 0.2 0.2 0.1 0.3 0.1q5 0 9.9 0 2.9 0 5.8 0 2.1 0 4.2 0 0.3 0 0.3-0.2z"/>
				<path class="s2" d="m21.4 28.5q-5 0-10 0-0.3 0-0.7 0-4.6 0-9.2 0c-0.2 0-0.3 0-0.3 0.2 0 0.2 0.2 0.1 0.3 0.1q9.1 0 18.2 0 0.8 0 1.7 0c0.2 0 0.2 0 0.2-0.2 0-0.2-0.1-0.1-0.2-0.1z"/>
				<path class="s2" d="m21.4 27.2q-10 0-19.9 0-0.1 0-0.1 0c-0.1 0-0.2 0-0.2 0.1 0 0.3 0.2 0.2 0.3 0.2q4.9 0 9.9 0 1.5 0 3 0 3.5 0 7 0c0.2 0 0.3 0 0.2-0.2 0-0.2-0.1-0.1-0.2-0.1z"/>
				<path class="s2" d="m106.6 24.6c-0.2 0-0.2 0-0.2 0.2q-0.2 1.2-0.4 2.3c-0.5-0.7-1.3-0.7-1.9-0.4-0.7 0.4-1 1.3-0.7 2 0.2 0.4 0.4 0.7 0.8 0.8 0.5 0.3 1 0.1 1.5-0.2-0.1 0.3 0 0.3 0.2 0.3q0.1 0 0.2 0c0.1 0 0.2 0 0.2-0.2q0.1-0.9 0.3-1.8c0.1-0.8 0.2-1.7 0.4-2.5 0.1-0.5 0.1-0.5-0.4-0.5zm-1.6 4.5c-0.5 0-1.1-0.5-1-1 0-0.6 0.4-1 1-1 0.5 0 0.9 0.4 0.9 0.9 0 0.6-0.4 1.1-0.9 1.1z"/>
				<path class="s2" d="m59.3 26.5c-0.4 0-0.6 0.3-0.8 0.5q-0.1 0-0.1 0.1c0-0.1 0-0.1 0-0.1q0.1-1 0.3-1.9c0-0.5 0-0.5-0.4-0.5-0.2 0-0.3 0.1-0.3 0.3q-0.1 1-0.3 2-0.1 1.1-0.2 2.2c-0.1 0.5-0.1 0.5 0.5 0.5q0.1 0 0.1-0.2 0.1-0.5 0.1-1.1c0.1-0.4 0.2-0.8 0.5-1.1 0.2-0.1 0.4-0.2 0.6-0.1 0.3 0.1 0.3 0.3 0.3 0.6q-0.1 0.8-0.2 1.7c0 0.1 0 0.2 0.2 0.2 0.1-0.1 0.3 0 0.4-0.1 0.2 0 0.1-0.2 0.1-0.4q0 0 0 0 0.1-0.8 0.2-1.6c0.1-0.6-0.4-1-1-1z"/>
				<path class="s2" d="m31 26.6c-0.3-0.2-0.8-0.1-1.1 0.2q-0.1 0.1-0.2 0.2-0.1 0-0.1 0 0.1-0.9 0.2-1.9c0.1-0.6 0.2-0.5-0.4-0.5-0.1 0-0.2 0-0.2 0.2q-0.2 2.1-0.5 4.2c-0.1 0.6-0.1 0.6 0.4 0.6 0.1 0 0.2-0.1 0.2-0.2q0-0.5 0.1-1c0.1-0.4 0.2-0.9 0.5-1.2 0.2-0.2 0.4-0.2 0.7-0.1 0.2 0.1 0.3 0.3 0.2 0.6q0 0.6-0.1 1.3c-0.1 0.6-0.1 0.6 0.4 0.6 0.2 0 0.2-0.1 0.2-0.2q0.1-0.9 0.2-1.9c0.1-0.4-0.1-0.8-0.5-0.9z"/>
				<path class="s2" d="m66.9 26.6c-0.5-0.1-0.5 0-0.6 0.4q0 0.1 0 0.2c-0.5-0.9-1.5-0.8-2.1-0.4-0.7 0.5-0.8 1.5-0.4 2.2 0.5 0.7 1.3 0.8 2.1 0.3 0 0.2 0.1 0.3 0.3 0.3q0.1 0 0.2 0 0.2 0 0.2-0.2c0.1-0.2 0.1-0.5 0.1-0.7q0.2-1 0.3-2c0-0.1 0-0.1-0.1-0.2zm-1.7 2.6c-0.5 0-0.9-0.5-0.9-1 0-0.6 0.4-1.1 1-1.1 0.5 0 0.9 0.5 0.9 1 0 0.6-0.4 1.1-1 1.1z"/>
				<path class="s2" d="m88.9 26.6c-0.2-0.1-0.2 0-0.2 0.2-0.1 0.1 0 0.2-0.1 0.3-0.5-0.5-0.6-0.5-1-0.6-1.1-0.1-2 1.1-1.6 2.2 0.4 0.9 1.3 1.2 2.2 0.6q0.1 0 0.1 0 0 0.1 0 0.1c-0.1 0.1-0.1 0.2 0.1 0.2q0.2 0 0.4 0 0.1 0 0.1-0.1 0.2-1.3 0.4-2.5c0-0.1 0.1-0.3 0-0.4-0.1-0.1-0.3 0-0.4 0zm-1.3 2.5c-0.5 0-1-0.4-1-1 0-0.6 0.5-1.1 1-1 0.5-0.1 1 0.5 0.9 0.9 0 0.6-0.4 1.1-0.9 1.1z"/>
				<path class="s2" d="m84.4 26.6c-0.9-0.4-1.9 0.1-2.2 1.1-0.2 0.7 0.1 1.4 0.7 1.8 0.7 0.3 1.5 0.2 1.9-0.3 0.1-0.1 0.2-0.1 0.1-0.2-0.1-0.1-0.2-0.3-0.3-0.3-0.1 0-0.2 0.1-0.3 0.2q0 0-0.1 0c-0.5 0.4-1.2 0.2-1.3-0.4-0.1-0.2-0.1-0.3 0.1-0.3q0.5 0.1 1 0 0.5 0 1 0c0.2 0 0.2 0 0.2-0.1 0.1-0.6-0.3-1.3-0.8-1.5zm0.2 1.1q-0.8 0-1.6 0c-0.2 0-0.1-0.1-0.1-0.2 0.2-0.3 0.5-0.5 0.9-0.5q0.5 0 0.7 0.5 0 0.1 0.1 0.1 0 0.1 0 0.1z"/>
				<path class="s2" d="m40 26.6c-0.6 0.2-1 0.6-1.1 1.3-0.1 0.6 0.2 1.3 0.8 1.6 0.6 0.3 1.5 0.1 1.9-0.4 0 0 0.1 0 0-0.1-0.1-0.1-0.2-0.2-0.3-0.3-0.1-0.1-0.1 0.1-0.2 0.1-0.6 0.6-1.4 0.3-1.5-0.4-0.1-0.2 0-0.2 0.1-0.2q0.5 0 1 0 0.5 0 1 0c0.1 0 0.2 0 0.2-0.2 0.1-1-0.8-1.8-1.9-1.4zm-0.4 1.1c0.1-0.4 0.4-0.6 0.8-0.7 0.5 0 0.7 0.2 0.9 0.7z"/>
				<path class="s2" d="m52.4 26.6c-0.7 0.1-1.2 0.9-1.2 1.6 0.1 0.6 0.4 1.1 0.9 1.3 0.7 0.3 1.4 0.1 1.8-0.3q0.1-0.1 0-0.2c-0.2-0.3-0.2-0.3-0.5-0.1q-0.1 0-0.1 0c-0.5 0.5-1.2 0.2-1.4-0.4 0-0.2 0-0.2 0.2-0.2q0.4 0 0.9 0 0.5 0 1 0c0.1 0 0.2 0 0.2-0.2 0.1-1-0.7-1.8-1.8-1.5zm1 1.1q-0.7 0-1.5 0c0.1-0.4 0.4-0.6 0.8-0.6 0.5-0.1 0.7 0.2 0.8 0.5 0.1 0.1 0.1 0.1-0.1 0.1z"/>
				<path class="s2" d="m34.8 26.8c-0.4-0.3-0.9-0.4-1.4-0.2-0.6 0.1-1.2 0.8-1.1 1.7 0 0.5 0.4 1.1 0.9 1.3 0.7 0.2 1.4 0 1.8-0.5 0 0 0 0 0-0.1-0.2-0.3-0.3-0.3-0.6-0.1q0 0-0.1 0.1c-0.5 0.3-1.2 0.1-1.4-0.5 0-0.2 0-0.3 0.2-0.3 0.3 0.1 0.7 0 1 0q0.5 0 1 0c0.1 0 0.2 0.1 0.2-0.1 0-0.5-0.1-0.9-0.5-1.3zm-0.3 0.9q-0.3 0-0.7 0-0.3 0-0.7 0c-0.1 0-0.1 0-0.1-0.1 0.1-0.2 0.4-0.5 0.8-0.5 0.5 0 0.7 0.1 0.8 0.5 0.1 0.1 0.1 0.1-0.1 0.1z"/>
				<path class="s2" d="m102 26.8c-0.4-0.3-0.8-0.3-1.3-0.2-0.6 0.2-1.2 0.9-1.1 1.7 0.1 0.6 0.4 1.1 1 1.3 0.6 0.2 1.3 0 1.7-0.5 0 0 0.1 0 0-0.1-0.1-0.1-0.2-0.2-0.3-0.3-0.1 0-0.2 0.1-0.3 0.2q-0.1 0.1-0.2 0.1c-0.5 0.3-1.1 0.1-1.2-0.5-0.1-0.2-0.1-0.2 0.1-0.2 0.4 0 0.7 0 1 0q0.5 0 1 0c0.1 0 0.2 0 0.2-0.1q0.1-0.9-0.6-1.4zm-0.2 0.9q-0.3 0-0.7 0-0.3 0-0.7 0c-0.1 0-0.1 0-0.1-0.1 0.1-0.3 0.5-0.5 0.9-0.5 0.4 0 0.6 0.2 0.8 0.5q0 0.2-0.2 0.1z"/>
				<path class="s2" d="m71.8 26.6c-0.8 0.2-1.3 1-1.1 1.9q0.2 0.9 1.1 1.1 0.9 0.2 1.5-0.4c0.1-0.1 0.1-0.1 0.1-0.2-0.3-0.3-0.3-0.3-0.6-0.1q-0.1 0-0.1 0.1c-0.6 0.3-1.2 0.1-1.4-0.6q0-0.2 0.2-0.2 0.5 0 1 0 0.5 0 1 0c0.1 0 0.1 0 0.2-0.1 0-1-0.8-1.9-1.9-1.5zm1 1.1q-0.3 0-0.7 0-0.3 0-0.6 0c-0.1 0-0.2 0-0.1-0.1 0-0.3 0.4-0.5 0.7-0.6 0.5 0 0.7 0.2 0.9 0.5 0 0.2 0 0.2-0.2 0.2z"/>
				<path class="s2" d="m48.6 26.6c-0.6 0.2-1.1 0.8-1.1 1.6 0 0.6 0.5 1.2 0.9 1.3 0.7 0.3 1.4 0.1 1.8-0.3 0-0.1 0.1-0.1 0-0.2-0.2-0.3-0.3-0.3-0.6-0.1q0 0 0 0c-0.5 0.4-1.2 0.2-1.4-0.4-0.1-0.2-0.1-0.3 0.2-0.3 0.3 0.1 0.6 0 0.9 0q0.5 0 1 0c0.1 0 0.2 0 0.2-0.1 0.1-1.1-0.8-1.9-1.9-1.5zm-0.4 1.1q0.2-0.6 0.9-0.7c0.5 0 0.7 0.2 0.8 0.7z"/>
				<path class="s2" d="m27.6 26.6q-0.2-0.1-0.3 0.2c-0.1 0.2-0.3 0.4-0.4 0.7q-0.3 0.4-0.5 0.8c-0.2-0.6-0.4-1.2-0.6-1.9-0.4 0.7-0.7 1.3-1 1.9-0.1-0.1-0.1-0.2-0.2-0.3q-0.1-0.5-0.3-1c-0.1-0.5-0.1-0.5-0.6-0.4q0 0 0 0 0.4 1.5 0.9 3.1c0.3-0.6 0.7-1.2 1.1-1.9 0.2 0.7 0.3 1.3 0.5 1.9 0.6-1.1 1.2-2.1 1.8-3.1q-0.2 0-0.4 0z"/>
				<path class="s2" d="m96 26.6c-0.2-0.1-0.4 0-0.6 0-0.1 0-0.1 0.1-0.1 0.2q-0.1 0.8-0.2 1.6c-0.1 0.4-0.5 0.7-1 0.6q-0.4-0.1-0.3-0.5 0.1-0.9 0.3-1.7c0-0.2 0-0.3-0.2-0.2q-0.1 0-0.2 0c-0.3 0-0.3 0-0.3 0.3-0.1 0.5-0.2 1-0.3 1.5 0 0.2 0 0.4 0.1 0.6 0.2 0.5 0.7 0.7 1.3 0.7 0.6-0.1 1.1-0.6 1.2-1.1q0.2-0.9 0.3-1.8c0-0.1 0-0.2 0-0.2z"/>
				<path class="s2" d="m92.3 26.8c-0.3-0.2-0.6-0.3-0.9-0.3-0.1 0-0.2 0-0.4 0.1-0.7 0.3-0.7 1.1-0.1 1.6q0.3 0.2 0.5 0.3c0.1 0.1 0.2 0.2 0.2 0.3q-0.1 0.2-0.3 0.2c-0.3 0.1-0.5 0-0.7-0.2-0.3-0.2-0.3-0.2-0.5 0.1q0 0 0 0.1-0.1 0.1 0 0.1c0.3 0.4 0.7 0.6 1.1 0.5 0.4 0 0.8-0.3 0.9-0.6q0.2-0.6-0.4-1-0.2-0.2-0.5-0.3c-0.1-0.1-0.2-0.3-0.1-0.4q0.1-0.3 0.4-0.2 0.2 0 0.4 0.2 0.1 0.1 0.2-0.1 0.1-0.1 0.2-0.2c0.1-0.1 0-0.2 0-0.2z"/>
				<path class="s2" d="m78.5 26.6c-0.2 0-0.2-0.1-0.2-0.2q0.1-0.4 0.1-0.7c0.1-0.5 0.1-0.5-0.4-0.5-0.1 0-0.2 0-0.2 0.2q-0.1 0.5-0.2 1c0 0.1 0 0.2-0.1 0.2-0.3-0.1-0.4 0.1-0.4 0.3q0 0.1 0 0.2 0 0.1 0.1 0.1c0.3 0 0.3 0 0.3 0.3q-0.2 1-0.3 2.1 0.3 0 0.5 0 0.1 0 0.1-0.1 0.2-1 0.3-2c0-0.3 0.1-0.4 0.4-0.3q0.2 0 0.3-0.2c0-0.4 0-0.4-0.3-0.4z"/>
				<path class="s2" d="m56.5 26.6c0 0 0 0-0.1 0q0.1-0.5 0.1-0.9c0.1-0.5 0.1-0.5-0.4-0.5q-0.2 0-0.2 0.2-0.1 0.5-0.1 1 0 0.2-0.2 0.2c-0.3-0.1-0.3 0-0.4 0.3 0 0.2 0 0.3 0.3 0.3 0.1-0.1 0.2 0 0.1 0.2q-0.1 0.8-0.2 1.7c-0.1 0.2-0.2 0.4-0.1 0.4 0.1 0.1 0.3 0 0.5 0.1 0.2 0 0.2-0.1 0.2-0.2 0.1-0.7 0.2-1.3 0.3-1.9 0-0.3 0.1-0.4 0.4-0.3 0.1 0 0.2-0.1 0.2-0.2 0-0.4 0-0.4-0.4-0.4z"/>
				<path class="s2" d="m46.7 26.6c0 0-0.1 0-0.2 0q0.1-0.3 0.1-0.5 0-0.2 0.1-0.4c0-0.5 0-0.5-0.5-0.5-0.1 0-0.2 0.1-0.2 0.2q0 0.4-0.1 0.9c0 0.2-0.1 0.3-0.3 0.3-0.2-0.1-0.2 0-0.2 0.2 0 0.1-0.1 0.2-0.1 0.3 0.1 0.1 0.3 0.1 0.4 0.1q0 0 0.1 0-0.2 1-0.3 1.9c0 0.2-0.2 0.3 0 0.4 0.1 0.1 0.3 0 0.4 0.1q0.2 0 0.2-0.2 0.1-0.9 0.3-1.9c0-0.3 0-0.3 0.4-0.3 0.1 0 0.2 0 0.2-0.1 0.1-0.5 0.1-0.5-0.4-0.5z"/>
				<path class="s2" d="m99 26.6c-0.4-0.2-0.9-0.1-1.1 0.2q-0.1 0.1-0.2 0.3c0-0.2 0.1-0.4 0-0.5-0.1-0.1-0.3 0-0.4 0q-0.2-0.1-0.2 0.1-0.2 1.2-0.4 2.4c-0.1 0.5-0.1 0.5 0.4 0.5 0.2 0 0.2-0.1 0.2-0.2q0.1-0.7 0.3-1.4c0.1-0.6 0.3-0.9 0.8-0.8 0.4 0 0.5-0.1 0.6-0.3q0-0.1 0-0.2 0.1-0.1 0-0.1z"/>
				<path class="s2" d="m38.2 26.5c-0.4 0-0.8 0-1.1 0.4 0 0 0 0.1-0.1 0.1 0-0.1 0.1-0.3 0-0.4 0-0.1-0.2 0-0.3 0-0.3-0.1-0.4 0.1-0.4 0.3q-0.2 1.3-0.4 2.7 0.3 0 0.5 0c0.2 0 0.2-0.1 0.2-0.2 0.1-0.6 0.1-1.2 0.3-1.7 0.1-0.4 0.4-0.6 0.8-0.5 0.3 0.1 0.5-0.1 0.6-0.3q0-0.1 0-0.1c0.1-0.2 0-0.2-0.1-0.3z"/>
				<path class="s2" d="m70 26.6c-0.4-0.1-0.8-0.2-1.1 0.3q0 0-0.1 0.1c-0.1-0.1 0.1-0.3 0-0.4-0.2-0.1-0.4 0-0.5 0q0 0-0.1 0c-0.1 0-0.1 0-0.1 0.1q-0.2 1.3-0.4 2.5c0 0.4 0 0.4 0.4 0.4 0.2 0 0.3-0.1 0.3-0.3q0.1-0.8 0.2-1.5c0.2-0.5 0.4-0.7 0.9-0.6 0.3 0.1 0.4-0.1 0.5-0.3q0-0.1 0.1-0.2c0-0.1 0-0.1-0.1-0.1z"/>
				<path class="s2" d="m81.5 26.6c-0.3-0.2-0.8-0.1-1 0.2q-0.1 0.1-0.2 0.2c0-0.1 0.1-0.3 0-0.4-0.1-0.1-0.3 0-0.5 0-0.1 0-0.1 0-0.1 0.1q-0.2 0.8-0.3 1.6c0 0.4-0.1 0.8-0.1 1.3q0.2 0 0.5 0c0 0 0.1 0 0.1-0.2q0.1-0.6 0.2-1.3c0.1-0.8 0.4-1 1.2-0.9 0.1 0 0.1-0.1 0.2-0.1 0-0.2 0.2-0.3 0.1-0.5 0 0 0 0-0.1-0.1z"/>
			</g>
			<g>
				<path class="s3" d="m113.6 5.7q-0.6 0.2-1.3 0.4c0.1-0.2 0.2-0.3 0.4-0.4 0.2-0.2 0.3-0.5 0.4-0.8q0-0.2 0-0.4c0.1-0.4 0.3-0.7 0.3-1.2q0 0 0 0 0 0 0.1 0 0.4 0.2 0.9 0.4-0.3 0.4-0.7 0.8c-0.2 0.2-0.5 0.4-0.6 0.7q0 0-0.1 0.1 0 0 0.1-0.1c0.4-0.1 0.7-0.3 1.1-0.4 0.3-0.2 0.7-0.4 1-0.5-0.2 0.2-0.5 0.4-0.7 0.6-0.3 0.3-0.7 0.5-0.9 0.8z"/>
				<path class="s4" d="m113.6 5.7c0.3-0.3 0.6-0.5 0.9-0.8 0.2-0.2 0.5-0.4 0.7-0.6 0.1-0.1 0.2-0.1 0.2-0.2 0.1-0.1 0-0.1 0-0.1-0.1-0.2-0.2-0.3-0.4-0.4-0.1-0.2-0.3-0.4-0.5-0.5 0.1-0.2 0.4-0.2 0.6-0.3q0.4 0.3 0.8 0.7-0.1 0.1-0.1 0.2c-0.3 0.4-0.4 0.4 0.2 0.6 0 0 0.1 0 0.1 0q0-0.1 0-0.3c-0.1-0.1-0.2-0.2-0.1-0.4q0 0.1 0.1 0.2c0 0.2 0.2 0.4 0.3 0.6-0.2-0.1-0.4 0.1-0.6 0.2q-0.5 0.2-0.9 0.4c-0.2 0.1-0.5 0.2-0.7 0.4-0.1 0-0.2 0-0.1 0.1q-0.2 0.2-0.5 0.2z"/>
				<path class="s5" d="m113.5 3.3c0 0-0.1 0-0.1 0q0-0.1-0.1-0.1-0.2-0.5-0.5-0.9c0-0.2-0.2-0.3-0.2-0.5q0.7 0.2 1.3 0.5c0.1 0.2 0.3 0.4 0.5 0.6 0.1 0.1 0.1 0.2-0.1 0.2q-0.4 0.1-0.8 0.2z"/>
				<path class="s4" d="m112.3 6.1c-0.3-0.2-0.4-0.6-0.6-0.9q-0.1-0.2-0.2-0.4 0.1-0.1 0-0.2 0-1.1-0.2-2c0.1 0 0.1 0 0.2 0.1q0 0.3 0.1 0.5 0.4 0.9 0.7 1.7c0 0.1 0 0.2 0 0.3-0.1 0.3 0 0.6 0 0.9z"/>
				<path class="s6" d="m112.3 6.1c0-0.3-0.1-0.6 0-0.9 0-0.1 0-0.2 0-0.3q0 0 0 0c0.1 0 0.1 0 0.1-0.1q0.5-0.7 1-1.5c0 0.4-0.2 0.8-0.3 1.2q0 0.2 0 0.4-0.1 0.4-0.4 0.7c-0.2 0.2-0.3 0.3-0.4 0.5q0 0 0 0z"/>
				<path class="s7" d="m112.6 1.8c0 0.1 0.2 0.3 0.2 0.5v0.1c-0.5-0.1-0.9 0-1.3 0h-0.2q0 0 0 0 0.1-0.2 0.1-0.3c0-0.1 0.1-0.3 0-0.4q0.1-0.1 0.1 0c0.4 0 0.7 0.1 1 0q0.1 0 0.1 0z"/>
				<path class="s6" d="m111.4 1.7c0.1 0.1 0 0.3 0 0.4q0 0.2-0.1 0.3-0.2-0.1-0.4-0.2-0.1 0-0.2 0c0 0 0 0.1 0 0.1q0.3 0.7 0.5 1.4c0.1 0.3 0.2 0.6 0.3 0.8q0.1 0.2 0 0.3-0.6-1.4-1.2-2.7c0.4 0.1 0.7-0.1 1-0.4 0 0 0.1 0 0.1 0z"/>
				<path class="s7" d="m113.5 3.3q0.4-0.1 0.8-0.2c0.2 0 0.2-0.1 0.1-0.2-0.2-0.2-0.4-0.4-0.5-0.6q0.6 0.2 1.2 0.5c-0.2 0.1-0.4 0.1-0.6 0.3 0 0.2 0 0.4 0 0.6q-0.1 0-0.1 0-0.5-0.2-0.9-0.4z"/>
				<path class="s3" d="m114.2 5.4c0.2-0.2 0.5-0.3 0.7-0.4q0.4-0.2 0.9-0.4c0.2-0.1 0.4-0.3 0.6-0.2 0.1 0.2 0 0.2-0.1 0.2-0.2 0.1-0.5 0.2-0.8 0.3q-0.5 0.2-1.1 0.5-0.1 0-0.2 0z"/>
				<path class="s8" d="m116 3.6c-0.1 0.2 0 0.3 0.1 0.4 0 0.1 0 0.2 0 0.3 0 0-0.1 0-0.1 0-0.6-0.2-0.5-0.2-0.2-0.6q0-0.1 0.1-0.2 0.1 0 0.1 0.1z"/>
				<path class="s3" d="m111.3 1.7c-0.3 0.3-0.6 0.5-0.9 0.3 0 0 0 0 0.2-0.1q0.3-0.1 0.7-0.2z"/>
				<path class="s8" d="m112.5 1.7c-0.3 0.1-0.7 0-1 0 0.3-0.1 0.7-0.2 1 0z"/>
				<path class="s3" d="m114.1 5.5c0-0.1 0.1-0.1 0.1-0.1 0 0.1-0.1 0.1-0.1 0.1z"/>
				<path class="s9" d="m114.4 3.7q0 0 0.1 0c0.3 0.1 0.5 0.3 0.9 0.3 0 0 0 0.1 0 0.1 0 0.1-0.1 0.1-0.2 0.2-0.3 0.1-0.7 0.3-1 0.5-0.4 0.1-0.7 0.3-1.1 0.4 0.1-0.3 0.4-0.5 0.6-0.7q0.4-0.4 0.7-0.8z"/>
				<path class="s10" d="m113.4 3.3q-0.5 0.8-1 1.5c0 0.1 0 0.1-0.1 0.2q0-1.1 0.1-2.1c0.1 0 0.2 0 0.2 0.1 0.3 0 0.5 0.2 0.7 0.2q0 0 0.1 0.1 0 0 0 0z"/>
				<path class="s9" d="m113.1 5.3q0 0-0.1 0 0 0 0.1-0.1z"/>
				<path class="s8" d="m115.4 4c-0.3 0-0.6-0.2-0.9-0.3-0.1-0.2 0-0.4 0-0.6 0.2 0.1 0.4 0.3 0.5 0.5 0.2 0.2 0.3 0.3 0.4 0.5z"/>
				<path class="s8" d="m115.4 4.1c0 0 0 0 0-0.1 0 0.1 0.1 0 0 0.1z"/>
				<path class="s6" d="m113.3 3.2c-0.2 0-0.4-0.2-0.6-0.2-0.1-0.1-0.2-0.1-0.3-0.1q0 0 0-0.1 0.2-0.2 0.4-0.5 0.3 0.4 0.5 0.9z"/>
				<path class="s9" d="m112.4 2.8q0 0.1 0 0.1-0.1 1-0.1 2 0 0 0 0-0.3-0.8-0.7-1.7-0.1-0.3-0.1-0.5c-0.1-0.1-0.1-0.1-0.2-0.1q0-0.1 0-0.2 0.1 0 0.2 0 0.4 0.3 0.9 0.4z"/>
				<path class="s3" d="m111.3 2.4c0 0 0 0.1 0 0.2 0.1 0.6 0.2 1.3 0.3 1.9-0.2-0.2-0.3-0.5-0.4-0.8q-0.2-0.7-0.4-1.4c0 0-0.1-0.1 0-0.1q0 0 0.1 0c0.1 0.1 0.3 0.2 0.4 0.2q0 0 0 0z"/>
				<path class="s4" d="m112.4 2.8q-0.5-0.1-0.9-0.4c0.4 0 0.8-0.1 1.3 0q-0.2 0.2-0.4 0.4z"/>
			</g>
		</g>
	</g>
</svg>