<svg version="1.2" xmlns="http://www.w3.org/2000/svg" viewBox="0 0 715 547" width="715" height="547">
	<title>35</title>
	<defs>
		<radialGradient id="g1" cx="0" cy="0" r="1" gradientUnits="userSpaceOnUse" gradientTransform="matrix(197.3,0,0,197.3,357.2,194.8)">
			<stop offset="0" stop-color="#2e69b2"/>
			<stop offset=".4" stop-color="#324f85"/>
			<stop offset=".8" stop-color="#1a2151"/>
		</radialGradient>
		<radialGradient id="g2" cx="0" cy="0" r="1" gradientUnits="userSpaceOnUse" gradientTransform="matrix(197.3,0,0,197.3,357.2,194.8)">
			<stop offset="0" stop-color="#2e69b2"/>
			<stop offset=".4" stop-color="#324f85"/>
			<stop offset=".8" stop-color="#1a2151"/>
		</radialGradient>
		<radialGradient id="g3" cx="0" cy="0" r="1" gradientUnits="userSpaceOnUse" gradientTransform="matrix(197.3,0,0,197.3,357.2,194.8)">
			<stop offset="0" stop-color="#2e69b2"/>
			<stop offset=".4" stop-color="#324f85"/>
			<stop offset=".8" stop-color="#1a2151"/>
		</radialGradient>
		<radialGradient id="g4" cx="0" cy="0" r="1" gradientUnits="userSpaceOnUse" gradientTransform="matrix(197.3,0,0,197.3,357.2,194.8)">
			<stop offset="0" stop-color="#2e69b2"/>
			<stop offset=".4" stop-color="#324f85"/>
			<stop offset=".8" stop-color="#1a2151"/>
		</radialGradient>
		<radialGradient id="g5" cx="0" cy="0" r="1" gradientUnits="userSpaceOnUse" gradientTransform="matrix(197.3,0,0,197.3,357.2,194.8)">
			<stop offset="0" stop-color="#2e69b2"/>
			<stop offset=".4" stop-color="#324f85"/>
			<stop offset=".8" stop-color="#1a2151"/>
		</radialGradient>
		<radialGradient id="g6" cx="0" cy="0" r="1" gradientUnits="userSpaceOnUse" gradientTransform="matrix(197.3,0,0,197.3,357.2,194.8)">
			<stop offset="0" stop-color="#2e69b2"/>
			<stop offset=".4" stop-color="#324f85"/>
			<stop offset=".8" stop-color="#1a2151"/>
		</radialGradient>
		<radialGradient id="g7" cx="0" cy="0" r="1" gradientUnits="userSpaceOnUse" gradientTransform="matrix(197.3,0,0,197.3,357.2,194.8)">
			<stop offset="0" stop-color="#2e69b2"/>
			<stop offset=".4" stop-color="#324f85"/>
			<stop offset=".8" stop-color="#1a2151"/>
		</radialGradient>
		<radialGradient id="g8" cx="0" cy="0" r="1" gradientUnits="userSpaceOnUse" gradientTransform="matrix(197.3,0,0,197.3,357.2,194.8)">
			<stop offset="0" stop-color="#2e69b2"/>
			<stop offset=".4" stop-color="#324f85"/>
			<stop offset=".8" stop-color="#1a2151"/>
		</radialGradient>
		<radialGradient id="g9" cx="0" cy="0" r="1" gradientUnits="userSpaceOnUse" gradientTransform="matrix(197.3,0,0,197.3,357.2,194.8)">
			<stop offset="0" stop-color="#2e69b2"/>
			<stop offset=".4" stop-color="#324f85"/>
			<stop offset=".8" stop-color="#1a2151"/>
		</radialGradient>
		<radialGradient id="g10" cx="0" cy="0" r="1" gradientUnits="userSpaceOnUse" gradientTransform="matrix(197.3,0,0,197.3,357.2,194.8)">
			<stop offset="0" stop-color="#2e69b2"/>
			<stop offset=".4" stop-color="#324f85"/>
			<stop offset=".8" stop-color="#1a2151"/>
		</radialGradient>
		<radialGradient id="g11" cx="0" cy="0" r="1" gradientUnits="userSpaceOnUse" gradientTransform="matrix(197.3,0,0,197.3,357.2,194.8)">
			<stop offset="0" stop-color="#2e69b2"/>
			<stop offset=".4" stop-color="#324f85"/>
			<stop offset=".8" stop-color="#1a2151"/>
		</radialGradient>
		<radialGradient id="g12" cx="0" cy="0" r="1" gradientUnits="userSpaceOnUse" gradientTransform="matrix(197.3,0,0,197.3,357.2,194.8)">
			<stop offset="0" stop-color="#2e69b2"/>
			<stop offset=".4" stop-color="#324f85"/>
			<stop offset=".8" stop-color="#1a2151"/>
		</radialGradient>
	</defs>
	<style>
		.s0 { fill: url(#g1) } 
		.s1 { fill: url(#g2) } 
		.s2 { fill: url(#g3) } 
		.s3 { fill: url(#g4) } 
		.s4 { fill: url(#g5) } 
		.s5 { fill: url(#g6) } 
		.s6 { fill: url(#g7) } 
		.s7 { fill: url(#g8) } 
		.s8 { fill: url(#g9) } 
		.s9 { fill: url(#g10) } 
		.s10 { fill: url(#g11) } 
		.s11 { fill: url(#g12) } 
		.s12 { fill: #26245d } 
	</style>
	<g id="Layer_2-2">
		<g>
			<g>
				<g>
					<path class="s0" d="m393.6 290.2l-32.3-81-4.5-11.2-6.3 10.3-49.7 81.4c1.1-0.6 2.2-1.1 3.2-1.6 0.3-0.1 0.9-0.5 0.9-0.5l0.8-0.4c1.3-0.5 2.5-1.1 3.9-1.6 1.3-0.5 2.5-0.9 3.7-1.3 0.3-0.1 1-0.4 1-0.4l1-0.3c1.2-0.4 2.5-0.7 3.8-1.1 1.2-0.3 2.4-0.6 3.6-0.8 0.4 0 0.8-0.2 1.2-0.2h0.2c0.4-0.1 0.7-0.2 1.1-0.2l28.4-46.5 19.5 48.8 2.1 5.2c-2.9-0.8-5.8-1.4-8.7-2-1.5-0.3-3-0.6-4.5-0.8-1.5-0.2-3-0.5-4.6-0.7-3.1-0.4-6.1-0.7-9.2-0.8-1.6 0-3.1-0.1-4.7-0.1h-4.7c-3.1 0.2-6.2 0.4-9.3 0.9-1.6 0.2-3.1 0.5-4.7 0.7-1.5 0.3-3.1 0.6-4.6 1.1-1.5 0.4-3.1 0.8-4.6 1.3-1.5 0.5-3 1-4.5 1.6-1.5 0.5-2.9 1.2-4.4 1.9-1.4 0.7-2.9 1.4-4.2 2.2-1.4 0.7-2.7 1.6-4.1 2.4l-2 1.3c-0.7 0.4-1.3 0.9-1.9 1.4-2.5 1.9-5 4-7.2 6.2-2.2 2.2-4.3 4.6-6.2 7.1l-0.7 0.9-0.7 1c-0.5 0.7-0.9 1.3-1.3 1.9-0.4 0.7-0.9 1.4-1.3 2.1-0.4 0.7-0.8 1.5-1.2 2.2-0.2 0.4-0.4 0.7-0.5 1.1-0.1 0.4-0.1 0.3-0.2 0.4-0.1 0.2-0.2 0.5-0.3 0.7 0 0.2-0.1 0.3-0.2 0.5 0 0.2-0.2 0.4-0.3 0.6 0 0.2-0.1 0.3-0.2 0.5 0 0.2-0.2 0.4-0.2 0.6 0 0.2-0.1 0.4-0.2 0.5 0 0.2-0.2 0.4-0.2 0.6 0 0.2-0.1 0.4-0.2 0.5 0 0.2-0.1 0.4-0.2 0.6 0 0.2-0.1 0.4-0.2 0.5 0 0.2-0.1 0.4-0.2 0.6 0 0.2-0.1 0.4-0.2 0.5 0 0.2-0.1 0.4-0.2 0.6v0.5c-0.2 0.2-0.2 0.4-0.3 0.6v0.5c-0.2 0.2-0.2 0.4-0.3 0.6 0 0.2 0 0.4-0.1 0.5 0 0.2 0 0.4-0.1 0.7 0 0.2 0 0.4 0 0.5 0 0.2 0 0.4-0.1 0.7 0 0.2 0 0.3 0 0.5 0 0.2 0 0.4 0 0.7 0 0.2 0 0.3 0 0.5 0 0.2 0 0.5 0 0.7 0 0.2 0 0.3 0 0.5 0 0.2 0 0.5 0 0.7 0 0.2 0 0.3 0 0.5v0.2c0 0.3 0 0.5 0 0.8-0.4 6.4 0.5 12.9 2.6 18.9 0.5 1.6 1.2 3.1 1.8 4.6 0 0 0 0.1 0 0.2 0.2 0.4 0.4 0.8 0.6 1.3 0 0.1 0.1 0.2 0.2 0.3 0.2 0.5 0.5 0.9 0.7 1.4 0 0 0 0.1 0.1 0.2 0.2 0.4 0.5 0.8 0.7 1.2 0 0.1 0.1 0.2 0.2 0.4 0.3 0.4 0.5 0.9 0.9 1.3 0 0 0 0.1 0.1 0.2 0.3 0.4 0.5 0.8 0.8 1.1 0 0.1 0.2 0.2 0.2 0.3 0.3 0.4 0.6 0.8 1 1.3 0.3 0.4 0.6 0.8 1 1.1 0 0.1 0.2 0.2 0.3 0.3 0.4 0.4 0.7 0.8 1.1 1.2 2.2 2.3 4.8 4.4 7.5 6.1 1.4 0.9 2.8 1.6 4.3 2.3l1.1 0.5c0.4 0.2 0.7 0.3 1.1 0.4 0.7 0.3 1.5 0.5 2.2 0.8 3 1 6.1 1.6 9.3 2 3.1 0.3 6.3 0.2 9.4-0.2 3.1-0.4 6.2-1.2 9.1-2.4 2.9-1.1 5.7-2.6 8.3-4.4 5.2-3.5 9.4-8.2 12.5-13.6 3.1-5.4 4.8-11.4 5.2-17.5 0.2-2.9 0.4-6.4-0.6-9.3-0.3-0.9-0.7-1.7-1.3-2.4q-0.6-0.7-1.5-1.5c-0.4-0.3-0.8-0.5-1.2-0.8q-0.3-0.1-0.6-0.3c-0.7-0.3-1.5-0.5-2.3-0.5-4.4-0.4-8.2 2.9-8.6 7.2-0.4 4.4 2.9 8.2 7.2 8.6 1.7 0.2 3.3-0.3 4.7-1.1-0.7 5.3-2.5 10.5-5.3 15-2.9 4.6-6.8 8.5-11.4 11.3-2.3 1.4-4.7 2.5-7.2 3.4-2.5 0.8-5.2 1.4-7.8 1.6-2.6 0.2-5.3 0.2-7.9-0.2-2.6-0.4-5.2-1-7.6-2-0.6-0.2-1.2-0.5-1.8-0.8-0.3-0.1-0.6-0.3-0.9-0.4l-0.9-0.4c-1.2-0.6-2.3-1.3-3.3-2q-3.1-2.2-5.7-5.1c-3.4-3.9-5.8-8.6-7.3-13.6q-0.1-0.6-0.3-1.2 0-0.1 0-0.3c0-0.4-0.2-0.7-0.3-1.1-0.9-4.2-1.1-8.5-0.7-12.8 0.5-5.1 2.1-10.1 4.5-14.5 0.3-0.5 0.7-1.1 1-1.6 0.3-0.5 0.7-1 1.1-1.5 0.4-0.5 0.8-1.1 1.2-1.6l0.6-0.8 0.6-0.8c1.7-2 3.6-3.9 5.5-5.7 1.9-1.8 4-3.4 6.2-4.9 0.5-0.4 1.1-0.7 1.6-1.1l1.7-1c1.1-0.6 2.3-1.3 3.5-1.8 1.2-0.6 2.4-1.1 3.6-1.6 1.2-0.5 2.4-1 3.7-1.4 1.2-0.4 2.5-0.8 3.8-1.1 1.3-0.3 2.5-0.7 3.8-0.9 1.3-0.3 2.6-0.5 3.9-0.7 1.3-0.2 2.6-0.4 4-0.5 2.6-0.3 5.3-0.3 8-0.3h2l2 0.1c1.3 0 2.7 0.2 4 0.3 2.7 0.3 5.4 0.6 8 1.1 1.3 0.2 2.7 0.5 4 0.8 1.3 0.3 2.7 0.6 4 0.9 2.6 0.7 5.3 1.4 7.9 2.2 2.6 0.8 5.1 1.8 7.6 2.7 1.3 0.5 2.5 1 3.7 1.6 0.2 0 0.4 0.2 0.6 0.3l2.6 6.4 20.8 52.1c1 2.4 0.5 5.2-1.2 7.1-6 6.6-18.5 4-18.5 4l-0.2 2.9 44.7 3.8-34.4-86.3-3.2-8.1z"/>
					<path class="s1" d="m393.6 290.2l-32.3-81-4.5-11.2-6.3 10.3-49.7 81.4c1.1-0.6 2.2-1.1 3.2-1.6 0.3-0.1 0.9-0.5 0.9-0.5l0.8-0.4c1.3-0.5 2.5-1.1 3.9-1.6 1.3-0.5 2.5-0.9 3.7-1.3 0.3-0.1 1-0.4 1-0.4l1-0.3c1.2-0.4 2.5-0.7 3.8-1.1 1.2-0.3 2.4-0.6 3.6-0.8 0.4 0 0.8-0.2 1.2-0.2h0.2c0.4-0.1 0.7-0.2 1.1-0.2l28.4-46.5 19.5 48.8 2.1 5.2c-2.9-0.8-5.8-1.4-8.7-2-1.5-0.3-3-0.6-4.5-0.8-1.5-0.2-3-0.5-4.6-0.7-3.1-0.4-6.1-0.7-9.2-0.8-1.6 0-3.1-0.1-4.7-0.1h-4.7c-3.1 0.2-6.2 0.4-9.3 0.9-1.6 0.2-3.1 0.5-4.7 0.7-1.5 0.3-3.1 0.6-4.6 1.1-1.5 0.4-3.1 0.8-4.6 1.3-1.5 0.5-3 1-4.5 1.6-1.5 0.5-2.9 1.2-4.4 1.9-1.4 0.7-2.9 1.4-4.2 2.2-1.4 0.7-2.7 1.6-4.1 2.4l-2 1.3c-0.7 0.4-1.3 0.9-1.9 1.4-2.5 1.9-5 4-7.2 6.2-2.2 2.2-4.3 4.6-6.2 7.1l-0.7 0.9-0.7 1c-0.5 0.7-0.9 1.3-1.3 1.9-0.4 0.7-0.9 1.4-1.3 2.1-0.4 0.7-0.8 1.5-1.2 2.2-0.2 0.4-0.4 0.7-0.5 1.1-0.1 0.4-0.1 0.3-0.2 0.4-0.1 0.2-0.2 0.5-0.3 0.7 0 0.2-0.1 0.3-0.2 0.5 0 0.2-0.2 0.4-0.3 0.6 0 0.2-0.1 0.3-0.2 0.5 0 0.2-0.2 0.4-0.2 0.6 0 0.2-0.1 0.4-0.2 0.5 0 0.2-0.2 0.4-0.2 0.6 0 0.2-0.1 0.4-0.2 0.5 0 0.2-0.1 0.4-0.2 0.6 0 0.2-0.1 0.4-0.2 0.5 0 0.2-0.1 0.4-0.2 0.6 0 0.2-0.1 0.4-0.2 0.5 0 0.2-0.1 0.4-0.2 0.6v0.5c-0.2 0.2-0.2 0.4-0.3 0.6v0.5c-0.2 0.2-0.2 0.4-0.3 0.6 0 0.2 0 0.4-0.1 0.5 0 0.2 0 0.4-0.1 0.7 0 0.2 0 0.4 0 0.5 0 0.2 0 0.4-0.1 0.7 0 0.2 0 0.3 0 0.5 0 0.2 0 0.4 0 0.7 0 0.2 0 0.3 0 0.5 0 0.2 0 0.5 0 0.7 0 0.2 0 0.3 0 0.5 0 0.2 0 0.5 0 0.7 0 0.2 0 0.3 0 0.5v0.2c0 0.3 0 0.5 0 0.8-0.4 6.4 0.5 12.9 2.6 18.9 0.5 1.6 1.2 3.1 1.8 4.6 0 0 0 0.1 0 0.2 0.2 0.4 0.4 0.8 0.6 1.3 0 0.1 0.1 0.2 0.2 0.3 0.2 0.5 0.5 0.9 0.7 1.4 0 0 0 0.1 0.1 0.2 0.2 0.4 0.5 0.8 0.7 1.2 0 0.1 0.1 0.2 0.2 0.4 0.3 0.4 0.5 0.9 0.9 1.3 0 0 0 0.1 0.1 0.2 0.3 0.4 0.5 0.8 0.8 1.1 0 0.1 0.2 0.2 0.2 0.3 0.3 0.4 0.6 0.8 1 1.3 0.3 0.4 0.6 0.8 1 1.1 0 0.1 0.2 0.2 0.3 0.3 0.4 0.4 0.7 0.8 1.1 1.2 2.2 2.3 4.8 4.4 7.5 6.1 1.4 0.9 2.8 1.6 4.3 2.3l1.1 0.5c0.4 0.2 0.7 0.3 1.1 0.4 0.7 0.3 1.5 0.5 2.2 0.8 3 1 6.1 1.6 9.3 2 3.1 0.3 6.3 0.2 9.4-0.2 3.1-0.4 6.2-1.2 9.1-2.4 2.9-1.1 5.7-2.6 8.3-4.4 5.2-3.5 9.4-8.2 12.5-13.6 3.1-5.4 4.8-11.4 5.2-17.5 0.2-2.9 0.4-6.4-0.6-9.3-0.3-0.9-0.7-1.7-1.3-2.4q-0.6-0.7-1.5-1.5c-0.4-0.3-0.8-0.5-1.2-0.8q-0.3-0.1-0.6-0.3c-0.7-0.3-1.5-0.5-2.3-0.5-4.4-0.4-8.2 2.9-8.6 7.2-0.4 4.4 2.9 8.2 7.2 8.6 1.7 0.2 3.3-0.3 4.7-1.1-0.7 5.3-2.5 10.5-5.3 15-2.9 4.6-6.8 8.5-11.4 11.3-2.3 1.4-4.7 2.5-7.2 3.4-2.5 0.8-5.2 1.4-7.8 1.6-2.6 0.2-5.3 0.2-7.9-0.2-2.6-0.4-5.2-1-7.6-2-0.6-0.2-1.2-0.5-1.8-0.8-0.3-0.1-0.6-0.3-0.9-0.4l-0.9-0.4c-1.2-0.6-2.3-1.3-3.3-2q-3.1-2.2-5.7-5.1c-3.4-3.9-5.8-8.6-7.3-13.6q-0.1-0.6-0.3-1.2 0-0.1 0-0.3c0-0.4-0.2-0.7-0.3-1.1-0.9-4.2-1.1-8.5-0.7-12.8 0.5-5.1 2.1-10.1 4.5-14.5 0.3-0.5 0.7-1.1 1-1.6 0.3-0.5 0.7-1 1.1-1.5 0.4-0.5 0.8-1.1 1.2-1.6l0.6-0.8 0.6-0.8c1.7-2 3.6-3.9 5.5-5.7 1.9-1.8 4-3.4 6.2-4.9 0.5-0.4 1.1-0.7 1.6-1.1l1.7-1c1.1-0.6 2.3-1.3 3.5-1.8 1.2-0.6 2.4-1.1 3.6-1.6 1.2-0.5 2.4-1 3.7-1.4 1.2-0.4 2.5-0.8 3.8-1.1 1.3-0.3 2.5-0.7 3.8-0.9 1.3-0.3 2.6-0.5 3.9-0.7 1.3-0.2 2.6-0.4 4-0.5 2.6-0.3 5.3-0.3 8-0.3h2l2 0.1c1.3 0 2.7 0.2 4 0.3 2.7 0.3 5.4 0.6 8 1.1 1.3 0.2 2.7 0.5 4 0.8 1.3 0.3 2.7 0.6 4 0.9 2.6 0.7 5.3 1.4 7.9 2.2 2.6 0.8 5.1 1.8 7.6 2.7 1.3 0.5 2.5 1 3.7 1.6 0.2 0 0.4 0.2 0.6 0.3l2.6 6.4 20.8 52.1c1 2.4 0.5 5.2-1.2 7.1-6 6.6-18.5 4-18.5 4l-0.2 2.9 44.7 3.8-34.4-86.3-3.2-8.1z"/>
				</g>
				<g>
					<path class="s2" d="m291.2 272.3l55.8-67 7.7-9.2-12-0.6-95.2-4.9c1 0.7 2 1.3 2.9 2 0.3 0.2 0.9 0.6 0.9 0.6l0.7 0.5c1.1 0.8 2.2 1.7 3.3 2.6 1.1 0.9 2 1.8 2.9 2.6 0.2 0.2 0.8 0.7 0.8 0.7l0.7 0.7c0.9 0.9 1.9 1.8 2.8 2.9q1.3 1.3 2.4 2.7c0.3 0.3 0.5 0.6 0.8 0.9v0.2c0.2 0.3 0.5 0.6 0.7 0.9l54.4 2.8-33.6 40.3-3.6 4.3c-0.7-2.9-1.5-5.7-2.4-8.6-0.5-1.5-0.9-2.9-1.4-4.4-0.5-1.5-1-2.9-1.6-4.3-1.1-2.9-2.4-5.7-3.7-8.5q-1-2.1-2.1-4.2c-0.4-0.7-0.7-1.4-1.1-2l-1.2-2c-1.6-2.7-3.3-5.3-5.2-7.8-0.9-1.3-1.9-2.5-2.9-3.7-1-1.2-2-2.4-3.1-3.6-1.1-1.2-2.2-2.3-3.3-3.4-1.2-1.1-2.3-2.2-3.5-3.2-1.2-1-2.5-2-3.7-3q-2-1.4-3.9-2.7c-1.3-0.9-2.7-1.6-4.1-2.4l-2.1-1.1c-0.7-0.4-1.4-0.7-2.2-1-2.9-1.3-5.9-2.5-8.9-3.3-3-0.9-6.1-1.6-9.2-2.1l-1.2-0.2h-1.2c-0.8-0.2-1.5-0.3-2.4-0.4-0.8 0-1.6-0.1-2.5-0.2-0.8 0-1.6 0-2.5 0q-0.6 0-1.2 0c-0.2 0-0.3 0-0.4 0-0.3 0-0.5 0-0.8 0-0.2 0-0.4 0-0.5 0-0.2 0-0.5 0-0.7 0-0.2 0-0.4 0-0.5 0-0.2 0-0.4 0-0.7 0-0.2 0-0.4 0-0.5 0q-0.3 0-0.6 0c-0.2 0-0.4 0-0.5 0-0.2 0-0.4 0-0.6 0.1-0.2 0-0.4 0-0.5 0.1-0.2 0-0.4 0-0.6 0.1-0.2 0-0.4 0-0.5 0.1-0.2 0-0.4 0-0.6 0.2-0.2 0-0.4 0-0.5 0.1-0.2 0-0.4 0.1-0.6 0.2-0.2 0-0.4 0-0.5 0.2-0.2 0-0.4 0.1-0.6 0.2-0.2 0-0.4 0.1-0.5 0.2-0.2 0-0.4 0.1-0.6 0.2-0.2 0-0.3 0.1-0.5 0.2-0.2 0-0.4 0.2-0.6 0.2-0.2 0-0.3 0.1-0.5 0.2-0.2 0-0.4 0.2-0.6 0.2-0.2 0-0.3 0.1-0.5 0.2-0.2 0-0.4 0.2-0.6 0.3-0.2 0-0.3 0.1-0.5 0.2-0.2 0-0.4 0.2-0.7 0.3-0.2 0-0.3 0.1-0.4 0.2h-0.2c-0.2 0.1-0.5 0.2-0.7 0.3-5.8 2.7-11.1 6.6-15.4 11.3-1.1 1.2-2.2 2.5-3.2 3.8 0 0 0 0 0 0.1-0.3 0.4-0.5 0.7-0.8 1.1 0 0.1-0.2 0.2-0.2 0.3-0.3 0.4-0.6 0.9-0.9 1.3 0 0 0 0.1-0.1 0.2-0.2 0.4-0.5 0.8-0.7 1.2 0 0.1-0.1 0.2-0.2 0.4-0.3 0.5-0.5 0.9-0.7 1.4 0 0 0 0.1 0 0.2-0.2 0.4-0.4 0.8-0.6 1.3 0 0.1-0.1 0.3-0.2 0.4-0.2 0.5-0.4 0.9-0.6 1.4 0 0 0 0 0 0.1-0.2 0.5-0.4 0.9-0.5 1.4 0 0.1 0 0.3-0.2 0.4-0.2 0.5-0.4 1-0.5 1.5-1 3.1-1.6 6.3-1.8 9.5-0.1 1.6 0 3.3 0 4.8v1.2c0.1 0.4 0.2 0.8 0.2 1.2 0 0.8 0.2 1.6 0.4 2.4 0.5 3.1 1.5 6.2 2.7 9.1 1.3 2.9 2.8 5.7 4.7 8.2 1.9 2.5 4 4.9 6.4 6.9 2.4 2 5 3.8 7.8 5.2 5.5 2.9 11.7 4.4 17.9 4.5 6.2 0.1 12.3-1.2 17.9-3.7 2.7-1.2 5.8-2.7 7.9-5 0.6-0.7 1.1-1.5 1.5-2.3 0.3-0.6 0.5-1.3 0.6-2 0-0.5 0.1-1 0-1.5 0-0.2 0-0.4 0-0.7 0-0.8-0.3-1.5-0.6-2.3-1.8-4-6.4-5.8-10.5-4.1-4 1.8-5.8 6.4-4.1 10.5 0.7 1.6 1.8 2.8 3.1 3.6-5 2-10.4 2.8-15.7 2.5-5.4-0.4-10.7-1.9-15.4-4.6-2.3-1.3-4.5-2.9-6.4-4.7-1.9-1.8-3.6-3.9-5.1-6.1-1.5-2.2-2.7-4.6-3.6-7-0.9-2.5-1.6-5-1.9-7.6 0-0.7-0.2-1.3-0.2-2 0-0.3 0-0.7 0-1v-1c0-1.3 0-2.6 0.1-3.9 0.3-2.5 0.9-5.1 1.8-7.5 1.8-4.8 4.7-9.2 8.4-12.9 0.3-0.3 0.6-0.5 0.9-0.8l0.2-0.2c0.3-0.3 0.6-0.5 0.9-0.8 3.3-2.8 7-5.1 10.9-6.7 4.8-2 9.9-3 14.9-2.9 0.6 0 1.3 0 1.9 0 0.6 0 1.2 0.1 1.8 0.2 0.6 0 1.3 0.2 2 0.3l1 0.2 1 0.2c2.6 0.5 5.2 1.3 7.6 2.1 2.5 0.9 4.9 1.9 7.2 3.1 0.6 0.3 1.2 0.6 1.7 0.9l1.7 1c1.1 0.7 2.2 1.4 3.3 2.2 1.1 0.7 2.1 1.6 3.1 2.4 1 0.9 2 1.7 3 2.6 1 0.9 1.9 1.8 2.8 2.8 0.9 1 1.8 1.9 2.6 3 0.9 1 1.6 2.1 2.5 3.1 0.8 1.1 1.6 2.1 2.3 3.3 1.5 2.2 2.8 4.5 4.1 6.9l0.9 1.8 0.9 1.8c0.6 1.2 1.1 2.5 1.7 3.7 1 2.5 2 5 2.9 7.6 0.5 1.3 0.8 2.6 1.2 3.9 0.4 1.3 0.7 2.6 1.1 4 0.7 2.6 1.3 5.3 1.8 8 0.5 2.7 0.9 5.4 1.2 8 0.2 1.3 0.3 2.7 0.4 4 0 0.2 0 0.5 0 0.7l-4.4 5.3-35.9 43.1c-1.6 2-4.3 2.9-6.8 2.3-8.7-2.2-12.3-14.3-12.3-14.3l-2.7 1.2 18 41.1 59.5-71.4 5.6-6.7v-0.2z"/>
					<path class="s3" d="m291.2 272.3l55.8-67 7.7-9.2-12-0.6-95.2-4.9c1 0.7 2 1.3 2.9 2 0.3 0.2 0.9 0.6 0.9 0.6l0.7 0.5c1.1 0.8 2.2 1.7 3.3 2.6 1.1 0.9 2 1.8 2.9 2.6 0.2 0.2 0.8 0.7 0.8 0.7l0.7 0.7c0.9 0.9 1.9 1.8 2.8 2.9q1.3 1.3 2.4 2.7c0.3 0.3 0.5 0.6 0.8 0.9v0.2c0.2 0.3 0.5 0.6 0.7 0.9l54.4 2.8-33.6 40.3-3.6 4.3c-0.7-2.9-1.5-5.7-2.4-8.6-0.5-1.5-0.9-2.9-1.4-4.4-0.5-1.5-1-2.9-1.6-4.3-1.1-2.9-2.4-5.7-3.7-8.5q-1-2.1-2.1-4.2c-0.4-0.7-0.7-1.4-1.1-2l-1.2-2c-1.6-2.7-3.3-5.3-5.2-7.8-0.9-1.3-1.9-2.5-2.9-3.7-1-1.2-2-2.4-3.1-3.6-1.1-1.2-2.2-2.3-3.3-3.4-1.2-1.1-2.3-2.2-3.5-3.2-1.2-1-2.5-2-3.7-3q-2-1.4-3.9-2.7c-1.3-0.9-2.7-1.6-4.1-2.4l-2.1-1.1c-0.7-0.4-1.4-0.7-2.2-1-2.9-1.3-5.9-2.5-8.9-3.3-3-0.9-6.1-1.6-9.2-2.1l-1.2-0.2h-1.2c-0.8-0.2-1.5-0.3-2.4-0.4-0.8 0-1.6-0.1-2.5-0.2-0.8 0-1.6 0-2.5 0q-0.6 0-1.2 0c-0.2 0-0.3 0-0.4 0-0.3 0-0.5 0-0.8 0-0.2 0-0.4 0-0.5 0-0.2 0-0.5 0-0.7 0-0.2 0-0.4 0-0.5 0-0.2 0-0.4 0-0.7 0-0.2 0-0.4 0-0.5 0q-0.3 0-0.6 0c-0.2 0-0.4 0-0.5 0-0.2 0-0.4 0-0.6 0.1-0.2 0-0.4 0-0.5 0.1-0.2 0-0.4 0-0.6 0.1-0.2 0-0.4 0-0.5 0.1-0.2 0-0.4 0-0.6 0.2-0.2 0-0.4 0-0.5 0.1-0.2 0-0.4 0.1-0.6 0.2-0.2 0-0.4 0-0.5 0.2-0.2 0-0.4 0.1-0.6 0.2-0.2 0-0.4 0.1-0.5 0.2-0.2 0-0.4 0.1-0.6 0.2-0.2 0-0.3 0.1-0.5 0.2-0.2 0-0.4 0.2-0.6 0.2-0.2 0-0.3 0.1-0.5 0.2-0.2 0-0.4 0.2-0.6 0.2-0.2 0-0.3 0.1-0.5 0.2-0.2 0-0.4 0.2-0.6 0.3-0.2 0-0.3 0.1-0.5 0.2-0.2 0-0.4 0.2-0.7 0.3-0.2 0-0.3 0.1-0.4 0.2h-0.2c-0.2 0.1-0.5 0.2-0.7 0.3-5.8 2.7-11.1 6.6-15.4 11.3-1.1 1.2-2.2 2.5-3.2 3.8 0 0 0 0 0 0.1-0.3 0.4-0.5 0.7-0.8 1.1 0 0.1-0.2 0.2-0.2 0.3-0.3 0.4-0.6 0.9-0.9 1.3 0 0 0 0.1-0.1 0.2-0.2 0.4-0.5 0.8-0.7 1.2 0 0.1-0.1 0.2-0.2 0.4-0.3 0.5-0.5 0.9-0.7 1.4 0 0 0 0.1 0 0.2-0.2 0.4-0.4 0.8-0.6 1.3 0 0.1-0.1 0.3-0.2 0.4-0.2 0.5-0.4 0.9-0.6 1.4 0 0 0 0 0 0.1-0.2 0.5-0.4 0.9-0.5 1.4 0 0.1 0 0.3-0.2 0.4-0.2 0.5-0.4 1-0.5 1.5-1 3.1-1.6 6.3-1.8 9.5-0.1 1.6 0 3.3 0 4.8v1.2c0.1 0.4 0.2 0.8 0.2 1.2 0 0.8 0.2 1.6 0.4 2.4 0.5 3.1 1.5 6.2 2.7 9.1 1.3 2.9 2.8 5.7 4.7 8.2 1.9 2.5 4 4.9 6.4 6.9 2.4 2 5 3.8 7.8 5.2 5.5 2.9 11.7 4.4 17.9 4.5 6.2 0.1 12.3-1.2 17.9-3.7 2.7-1.2 5.8-2.7 7.9-5 0.6-0.7 1.1-1.5 1.5-2.3 0.3-0.6 0.5-1.3 0.6-2 0-0.5 0.1-1 0-1.5 0-0.2 0-0.4 0-0.7 0-0.8-0.3-1.5-0.6-2.3-1.8-4-6.4-5.8-10.5-4.1-4 1.8-5.8 6.4-4.1 10.5 0.7 1.6 1.8 2.8 3.1 3.6-5 2-10.4 2.8-15.7 2.5-5.4-0.4-10.7-1.9-15.4-4.6-2.3-1.3-4.5-2.9-6.4-4.7-1.9-1.8-3.6-3.9-5.1-6.1-1.5-2.2-2.7-4.6-3.6-7-0.9-2.5-1.6-5-1.9-7.6 0-0.7-0.2-1.3-0.2-2 0-0.3 0-0.7 0-1v-1c0-1.3 0-2.6 0.1-3.9 0.3-2.5 0.9-5.1 1.8-7.5 1.8-4.8 4.7-9.2 8.4-12.9 0.3-0.3 0.6-0.5 0.9-0.8l0.2-0.2c0.3-0.3 0.6-0.5 0.9-0.8 3.3-2.8 7-5.1 10.9-6.7 4.8-2 9.9-3 14.9-2.9 0.6 0 1.3 0 1.9 0 0.6 0 1.2 0.1 1.8 0.2 0.6 0 1.3 0.2 2 0.3l1 0.2 1 0.2c2.6 0.5 5.2 1.3 7.6 2.1 2.5 0.9 4.9 1.9 7.2 3.1 0.6 0.3 1.2 0.6 1.7 0.9l1.7 1c1.1 0.7 2.2 1.4 3.3 2.2 1.1 0.7 2.1 1.6 3.1 2.4 1 0.9 2 1.7 3 2.6 1 0.9 1.9 1.8 2.8 2.8 0.9 1 1.8 1.9 2.6 3 0.9 1 1.6 2.1 2.5 3.1 0.8 1.1 1.6 2.1 2.3 3.3 1.5 2.2 2.8 4.5 4.1 6.9l0.9 1.8 0.9 1.8c0.6 1.2 1.1 2.5 1.7 3.7 1 2.5 2 5 2.9 7.6 0.5 1.3 0.8 2.6 1.2 3.9 0.4 1.3 0.7 2.6 1.1 4 0.7 2.6 1.3 5.3 1.8 8 0.5 2.7 0.9 5.4 1.2 8 0.2 1.3 0.3 2.7 0.4 4 0 0.2 0 0.5 0 0.7l-4.4 5.3-35.9 43.1c-1.6 2-4.3 2.9-6.8 2.3-8.7-2.2-12.3-14.3-12.3-14.3l-2.7 1.2 18 41.1 59.5-71.4 5.6-6.7v-0.2z"/>
				</g>
				<g>
					<path class="s4" d="m255.5 181.5l86.6 10.1 12 1.4-6.1-10.4-48-82.4q0 1.8 0 3.6c0 0.3 0 1.1 0 1.1v0.8c-0.2 1.4-0.3 2.8-0.5 4.2q-0.3 2.1-0.6 3.9c0 0.3-0.2 1.1-0.2 1.1l-0.2 1c-0.3 1.3-0.5 2.6-0.9 3.9-0.3 1.2-0.6 2.4-1 3.5q-0.1 0.6-0.3 1.2c0 0.1 0 0.2 0 0.2-0.1 0.4-0.2 0.7-0.4 1.1l27.4 47.1-52.1-6.1-5.5-0.6c2-2.2 4-4.4 5.9-6.7 1-1.2 1.9-2.4 2.9-3.6 0.9-1.2 1.9-2.4 2.7-3.7 1.8-2.5 3.5-5.1 5.1-7.7 0.8-1.3 1.6-2.7 2.3-4 0.4-0.7 0.7-1.4 1.1-2.1l1.1-2.1c1.4-2.8 2.6-5.7 3.7-8.6 0.6-1.5 1-3 1.5-4.5 0.4-1.5 0.9-3 1.3-4.5 0.4-1.5 0.7-3.1 1-4.6 0.3-1.6 0.5-3.1 0.7-4.7 0.2-1.6 0.3-3.2 0.4-4.7 0-1.6 0.1-3.2 0-4.8 0-1.6-0.1-3.2-0.2-4.8l-0.2-2.4c0-0.8-0.2-1.6-0.3-2.4-0.5-3.1-1.1-6.3-2.1-9.3-0.9-3-2-6-3.3-8.9l-0.5-1.1-0.5-1.1c-0.4-0.7-0.7-1.4-1.1-2.1-0.4-0.7-0.8-1.5-1.2-2.2-0.4-0.7-0.9-1.4-1.3-2.1-0.2-0.3-0.5-0.7-0.7-1 0-0.1-0.2-0.2-0.3-0.4-0.2-0.2-0.3-0.4-0.5-0.6-0.1-0.1-0.2-0.3-0.3-0.4-0.2-0.2-0.3-0.4-0.4-0.5-0.1-0.1-0.2-0.3-0.4-0.4-0.1-0.2-0.3-0.3-0.4-0.5-0.1-0.1-0.2-0.3-0.4-0.4-0.1-0.2-0.3-0.3-0.4-0.5-0.1-0.1-0.3-0.3-0.4-0.4-0.2-0.2-0.3-0.3-0.4-0.5-0.1-0.1-0.3-0.3-0.4-0.4-0.2-0.2-0.3-0.3-0.4-0.5-0.1-0.1-0.3-0.3-0.4-0.4-0.2-0.2-0.3-0.3-0.5-0.4-0.1-0.1-0.3-0.2-0.4-0.4-0.2-0.2-0.3-0.3-0.5-0.4-0.1-0.1-0.3-0.2-0.4-0.4-0.2-0.2-0.3-0.3-0.5-0.4-0.1-0.1-0.3-0.2-0.4-0.4-0.2-0.1-0.3-0.3-0.5-0.4-0.1-0.1-0.3-0.2-0.4-0.3-0.2-0.1-0.4-0.3-0.5-0.4-0.1-0.1-0.3-0.2-0.4-0.3-0.2-0.1-0.4-0.3-0.5-0.4-0.1-0.1-0.3-0.2-0.4-0.3-0.2-0.1-0.4-0.3-0.6-0.4-0.1 0-0.3-0.2-0.4-0.3-0.2-0.1-0.4-0.3-0.6-0.4-0.1 0-0.3-0.2-0.4-0.3 0 0-0.1 0-0.2-0.1-0.2-0.1-0.5-0.3-0.7-0.4-5.5-3.4-11.6-5.7-17.9-6.7-1.6-0.3-3.3-0.5-4.9-0.6h-0.2c-0.5 0-0.9 0-1.4 0h-2.2c-0.5 0-0.9 0-1.4 0-0.1 0-0.3 0-0.4 0-0.5 0-1 0-1.6 0.1h-0.2c-0.5 0-0.9 0.1-1.4 0.2-0.1 0-0.3 0-0.4 0-0.5 0-1 0.2-1.6 0.3 0 0 0 0-0.1 0-0.5 0-1 0.2-1.5 0.3-0.1 0-0.3 0-0.4 0-0.5 0.1-1 0.2-1.5 0.4-3.1 0.9-6.1 2.1-8.9 3.7-1.4 0.8-2.7 1.7-4 2.7l-0.9 0.7c-0.3 0.2-0.6 0.5-0.9 0.8-0.6 0.5-1.2 1.1-1.8 1.6-2.3 2.2-4.4 4.6-6.1 7.3-1.8 2.6-3.2 5.5-4.3 8.4-1.1 2.9-1.9 6-2.3 9.1-0.4 3.1-0.4 6.3-0.1 9.4 0.6 6.2 2.8 12.2 6 17.4 3.3 5.2 7.8 9.6 12.9 12.9 2.5 1.6 5.5 3.4 8.5 3.9q1.4 0.3 2.7 0c0.7-0.1 1.3-0.3 2-0.6 0.4-0.2 0.9-0.4 1.3-0.7 0.2-0.1 0.4-0.3 0.5-0.4 0.6-0.5 1.1-1.1 1.6-1.8 2.4-3.7 1.4-8.6-2.3-11-3.7-2.4-8.6-1.4-11 2.3-0.9 1.4-1.3 3-1.3 4.6-4.4-3.1-8-7.2-10.7-11.8-2.7-4.7-4.3-10-4.5-15.4-0.2-2.7 0-5.4 0.5-8 0.5-2.6 1.3-5.2 2.3-7.6q1.7-3.6 3.9-6.9c1.6-2.1 3.4-4.1 5.4-5.8 0.5-0.4 1-0.9 1.5-1.2 0.3-0.2 0.5-0.4 0.8-0.6l0.8-0.6c1.1-0.7 2.2-1.4 3.3-2 2.3-1.2 4.7-2 7.2-2.6 5-1.1 10.3-1.1 15.4 0 0.4 0 0.8 0.2 1.2 0.3q0.2 0 0.3 0c0.4 0 0.7 0.2 1.1 0.3 4.1 1.2 8.1 3.1 11.6 5.5 4.3 2.9 7.9 6.6 10.5 10.9 0.3 0.5 0.6 1.1 0.9 1.6 0.3 0.5 0.5 1.1 0.8 1.7 0.3 0.6 0.5 1.2 0.8 1.8l0.4 0.9 0.4 0.9c1 2.5 1.8 5 2.4 7.6 0.7 2.5 1.1 5.1 1.3 7.8 0 0.7 0.2 1.3 0.2 2v2c0.1 1.3 0.2 2.6 0 3.9 0 1.3-0.2 2.6-0.3 3.9-0.2 1.3-0.3 2.6-0.5 3.9-0.2 1.3-0.5 2.6-0.8 3.9-0.3 1.3-0.6 2.5-1.1 3.8-0.4 1.3-0.8 2.5-1.2 3.8-0.5 1.2-0.9 2.5-1.5 3.7-1 2.5-2.2 4.8-3.5 7.2l-1 1.8-1 1.7c-0.7 1.2-1.5 2.3-2.2 3.4-1.5 2.2-3.1 4.4-4.8 6.5-0.8 1.1-1.7 2.1-2.6 3.2-0.9 1-1.8 2-2.7 3.1-1.8 2-3.8 4-5.7 5.9q-3 2.9-6 5.4c-1 0.9-2.1 1.7-3.1 2.5-0.2 0.1-0.4 0.3-0.5 0.4l-6.9-0.8-55.7-6.5c-2.6-0.3-4.8-2-5.7-4.4-2.9-8.4 5.3-18.1 5.3-18.1l-2.5-1.6-24.6 37.5 92.3 10.7 8.6 1z"/>
					<path class="s5" d="m255.5 181.5l86.6 10.1 12 1.4-6.1-10.4-48-82.4q0 1.8 0 3.6c0 0.3 0 1.1 0 1.1v0.8c-0.2 1.4-0.3 2.8-0.5 4.2q-0.3 2.1-0.6 3.9c0 0.3-0.2 1.1-0.2 1.1l-0.2 1c-0.3 1.3-0.5 2.6-0.9 3.9-0.3 1.2-0.6 2.4-1 3.5q-0.1 0.6-0.3 1.2c0 0.1 0 0.2 0 0.2-0.1 0.4-0.2 0.7-0.4 1.1l27.4 47.1-52.1-6.1-5.5-0.6c2-2.2 4-4.4 5.9-6.7 1-1.2 1.9-2.4 2.9-3.6 0.9-1.2 1.9-2.4 2.7-3.7 1.8-2.5 3.5-5.1 5.1-7.7 0.8-1.3 1.6-2.7 2.3-4 0.4-0.7 0.7-1.4 1.1-2.1l1.1-2.1c1.4-2.8 2.6-5.7 3.7-8.6 0.6-1.5 1-3 1.5-4.5 0.4-1.5 0.9-3 1.3-4.5 0.4-1.5 0.7-3.1 1-4.6 0.3-1.6 0.5-3.1 0.7-4.7 0.2-1.6 0.3-3.2 0.4-4.7 0-1.6 0.1-3.2 0-4.8 0-1.6-0.1-3.2-0.2-4.8l-0.2-2.4c0-0.8-0.2-1.6-0.3-2.4-0.5-3.1-1.1-6.3-2.1-9.3-0.9-3-2-6-3.3-8.9l-0.5-1.1-0.5-1.1c-0.4-0.7-0.7-1.4-1.1-2.1-0.4-0.7-0.8-1.5-1.2-2.2-0.4-0.7-0.9-1.4-1.3-2.1-0.2-0.3-0.5-0.7-0.7-1 0-0.1-0.2-0.2-0.3-0.4-0.2-0.2-0.3-0.4-0.5-0.6-0.1-0.1-0.2-0.3-0.3-0.4-0.2-0.2-0.3-0.4-0.4-0.5-0.1-0.1-0.2-0.3-0.4-0.4-0.1-0.2-0.3-0.3-0.4-0.5-0.1-0.1-0.2-0.3-0.4-0.4-0.1-0.2-0.3-0.3-0.4-0.5-0.1-0.1-0.3-0.3-0.4-0.4-0.2-0.2-0.3-0.3-0.4-0.5-0.1-0.1-0.3-0.3-0.4-0.4-0.2-0.2-0.3-0.3-0.4-0.5-0.1-0.1-0.3-0.3-0.4-0.4-0.2-0.2-0.3-0.3-0.5-0.4-0.1-0.1-0.3-0.2-0.4-0.4-0.2-0.2-0.3-0.3-0.5-0.4-0.1-0.1-0.3-0.2-0.4-0.4-0.2-0.2-0.3-0.3-0.5-0.4-0.1-0.1-0.3-0.2-0.4-0.4-0.2-0.1-0.3-0.3-0.5-0.4-0.1-0.1-0.3-0.2-0.4-0.3-0.2-0.1-0.4-0.3-0.5-0.4-0.1-0.1-0.3-0.2-0.4-0.3-0.2-0.1-0.4-0.3-0.5-0.4-0.1-0.1-0.3-0.2-0.4-0.3-0.2-0.1-0.4-0.3-0.6-0.4-0.1 0-0.3-0.2-0.4-0.3-0.2-0.1-0.4-0.3-0.6-0.4-0.1 0-0.3-0.2-0.4-0.3 0 0-0.1 0-0.2-0.1-0.2-0.1-0.5-0.3-0.7-0.4-5.5-3.4-11.6-5.7-17.9-6.7-1.6-0.3-3.3-0.5-4.9-0.6h-0.2c-0.5 0-0.9 0-1.4 0h-2.2c-0.5 0-0.9 0-1.4 0-0.1 0-0.3 0-0.4 0-0.5 0-1 0-1.6 0.1h-0.2c-0.5 0-0.9 0.1-1.4 0.2-0.1 0-0.3 0-0.4 0-0.5 0-1 0.2-1.6 0.3 0 0 0 0-0.1 0-0.5 0-1 0.2-1.5 0.3-0.1 0-0.3 0-0.4 0-0.5 0.1-1 0.2-1.5 0.4-3.1 0.9-6.1 2.1-8.9 3.7-1.4 0.8-2.7 1.7-4 2.7l-0.9 0.7c-0.3 0.2-0.6 0.5-0.9 0.8-0.6 0.5-1.2 1.1-1.8 1.6-2.3 2.2-4.4 4.6-6.1 7.3-1.8 2.6-3.2 5.5-4.3 8.4-1.1 2.9-1.9 6-2.3 9.1-0.4 3.1-0.4 6.3-0.1 9.4 0.6 6.2 2.8 12.2 6 17.4 3.3 5.2 7.8 9.6 12.9 12.9 2.5 1.6 5.5 3.4 8.5 3.9q1.4 0.3 2.7 0c0.7-0.1 1.3-0.3 2-0.6 0.4-0.2 0.9-0.4 1.3-0.7 0.2-0.1 0.4-0.3 0.5-0.4 0.6-0.5 1.1-1.1 1.6-1.8 2.4-3.7 1.4-8.6-2.3-11-3.7-2.4-8.6-1.4-11 2.3-0.9 1.4-1.3 3-1.3 4.6-4.4-3.1-8-7.2-10.7-11.8-2.7-4.7-4.3-10-4.5-15.4-0.2-2.7 0-5.4 0.5-8 0.5-2.6 1.3-5.2 2.3-7.6q1.7-3.6 3.9-6.9c1.6-2.1 3.4-4.1 5.4-5.8 0.5-0.4 1-0.9 1.5-1.2 0.3-0.2 0.5-0.4 0.8-0.6l0.8-0.6c1.1-0.7 2.2-1.4 3.3-2 2.3-1.2 4.7-2 7.2-2.6 5-1.1 10.3-1.1 15.4 0 0.4 0 0.8 0.2 1.2 0.3q0.2 0 0.3 0c0.4 0 0.7 0.2 1.1 0.3 4.1 1.2 8.1 3.1 11.6 5.5 4.3 2.9 7.9 6.6 10.5 10.9 0.3 0.5 0.6 1.1 0.9 1.6 0.3 0.5 0.5 1.1 0.8 1.7 0.3 0.6 0.5 1.2 0.8 1.8l0.4 0.9 0.4 0.9c1 2.5 1.8 5 2.4 7.6 0.7 2.5 1.1 5.1 1.3 7.8 0 0.7 0.2 1.3 0.2 2v2c0.1 1.3 0.2 2.6 0 3.9 0 1.3-0.2 2.6-0.3 3.9-0.2 1.3-0.3 2.6-0.5 3.9-0.2 1.3-0.5 2.6-0.8 3.9-0.3 1.3-0.6 2.5-1.1 3.8-0.4 1.3-0.8 2.5-1.2 3.8-0.5 1.2-0.9 2.5-1.5 3.7-1 2.5-2.2 4.8-3.5 7.2l-1 1.8-1 1.7c-0.7 1.2-1.5 2.3-2.2 3.4-1.5 2.2-3.1 4.4-4.8 6.5-0.8 1.1-1.7 2.1-2.6 3.2-0.9 1-1.8 2-2.7 3.1-1.8 2-3.8 4-5.7 5.9q-3 2.9-6 5.4c-1 0.9-2.1 1.7-3.1 2.5-0.2 0.1-0.4 0.3-0.5 0.4l-6.9-0.8-55.7-6.5c-2.6-0.3-4.8-2-5.7-4.4-2.9-8.4 5.3-18.1 5.3-18.1l-2.5-1.6-24.6 37.5 92.3 10.7 8.6 1z"/>
				</g>
				<g>
					<path class="s6" d="m318.8 101.6l34.4 80.1 4.7 11.1 6-10.5 47.5-82.7c-1.1 0.6-2.1 1.2-3.1 1.7-0.3 0.2-0.9 0.5-0.9 0.5l-0.8 0.4c-1.2 0.6-2.5 1.2-3.8 1.7-1.3 0.5-2.5 1-3.7 1.5-0.3 0.1-1 0.4-1 0.4l-1 0.3c-1.2 0.4-2.5 0.8-3.8 1.2q-1.8 0.6-3.6 0.9c-0.4 0-0.8 0.2-1.2 0.3h-0.2c-0.4 0.1-0.7 0.2-1.1 0.3l-27.2 47.2-20.7-48.2-2.2-5.1q4.3 1.1 8.7 1.8c1.5 0.2 3 0.5 4.5 0.7 1.5 0.2 3.1 0.4 4.6 0.5 3.1 0.3 6.2 0.5 9.2 0.6 1.6 0 3.1 0 4.7 0 0.8 0 1.6 0 2.3 0h2.3c3.1-0.4 6.2-0.7 9.3-1.2 1.5-0.2 3.1-0.6 4.6-0.9 1.5-0.4 3.1-0.7 4.6-1.2 1.5-0.4 3-0.9 4.5-1.4 1.5-0.5 3-1.1 4.4-1.7 1.5-0.6 2.9-1.3 4.3-2 1.4-0.7 2.8-1.5 4.2-2.3 1.4-0.8 2.7-1.7 4-2.5l1.9-1.4c0.7-0.5 1.3-1 1.9-1.5 2.5-2 4.9-4.1 7-6.4 2.2-2.3 4.2-4.7 6-7.3l0.7-0.9 0.7-1c0.4-0.7 0.9-1.3 1.3-2 0.4-0.7 0.9-1.4 1.3-2.2 0.4-0.7 0.8-1.5 1.1-2.2 0.3-0.7 0.4-0.7 0.5-1.1 0-0.1 0.1-0.3 0.2-0.4 0.1-0.2 0.2-0.5 0.3-0.7 0-0.2 0.1-0.3 0.2-0.5 0-0.2 0.2-0.4 0.3-0.6 0-0.2 0.1-0.4 0.2-0.5 0-0.2 0.2-0.4 0.2-0.6 0-0.2 0.1-0.4 0.2-0.5 0-0.2 0.1-0.4 0.2-0.6 0-0.2 0.1-0.4 0.2-0.5 0-0.2 0.1-0.4 0.2-0.6 0-0.2 0.1-0.4 0.2-0.5 0-0.2 0.1-0.4 0.2-0.6 0-0.2 0-0.4 0.1-0.5 0.1-0.1 0.1-0.4 0.2-0.6 0-0.2 0-0.4 0.1-0.5 0-0.2 0-0.4 0.1-0.6 0-0.2 0-0.4 0.1-0.5 0-0.2 0-0.4 0.1-0.6 0-0.2 0-0.4 0-0.5 0-0.2 0-0.4 0.1-0.7 0-0.2 0-0.4 0-0.5 0-0.2 0-0.4 0-0.7 0-0.2 0-0.4 0-0.5 0-0.2 0-0.5 0-0.7 0-0.2 0-0.3 0-0.5 0-0.2 0-0.5 0-0.7 0-0.2 0-0.3 0-0.5 0-0.2 0-0.5 0-0.7 0-0.2 0-0.3 0-0.5v-0.2c0-0.3 0-0.5 0-0.8 0.2-6.4-0.9-12.9-3.1-18.9-0.6-1.6-1.2-3.1-2-4.6 0 0 0-0.1 0-0.2q-0.3-0.6-0.6-1.2c0-0.1-0.1-0.2-0.2-0.3-0.3-0.5-0.5-0.9-0.8-1.4 0 0 0-0.1-0.1-0.2-0.2-0.4-0.5-0.8-0.7-1.2 0-0.1-0.2-0.2-0.2-0.4-0.3-0.4-0.6-0.9-0.9-1.3 0 0 0-0.1-0.1-0.2-0.3-0.4-0.5-0.7-0.8-1.1 0-0.1-0.2-0.2-0.3-0.3-0.3-0.4-0.7-0.8-1-1.2-0.3-0.4-0.7-0.7-1-1.1 0-0.1-0.2-0.2-0.3-0.3-0.4-0.4-0.7-0.8-1.1-1.1-2.3-2.3-4.9-4.3-7.7-5.9-1.4-0.8-2.9-1.5-4.3-2.2l-1.1-0.5c-0.4-0.2-0.7-0.3-1.1-0.4-0.7-0.3-1.5-0.5-2.3-0.7-3-0.9-6.2-1.5-9.3-1.7-3.2-0.2-6.3 0-9.4 0.5-3.1 0.5-6.2 1.4-9 2.6-2.9 1.2-5.6 2.7-8.2 4.6-5.1 3.6-9.2 8.5-12.1 13.9-2.9 5.4-4.5 11.5-4.8 17.6-0.1 2.9-0.2 6.4 0.9 9.3 0.3 0.9 0.8 1.7 1.3 2.4 0.4 0.5 0.9 1 1.5 1.4 0.4 0.3 0.8 0.5 1.3 0.7 0.2 0 0.4 0.2 0.6 0.3 0.7 0.3 1.5 0.4 2.3 0.5 4.4 0.3 8.1-3.1 8.4-7.5 0.3-4.4-3.1-8.1-7.5-8.4-1.7 0-3.3 0.3-4.6 1.2 0.5-5.3 2.2-10.5 4.9-15.1 2.8-4.7 6.6-8.7 11.1-11.6 2.2-1.5 4.6-2.7 7.1-3.6 2.5-0.9 5.1-1.5 7.7-1.8 2.6-0.3 5.3-0.3 7.9 0 2.6 0.3 5.2 0.9 7.7 1.8 0.6 0.2 1.2 0.4 1.8 0.7 0.3 0.1 0.6 0.2 0.9 0.4l0.9 0.4c1.2 0.6 2.3 1.2 3.4 1.9 2.2 1.4 4.1 3.1 5.9 4.9 3.5 3.8 6.1 8.4 7.6 13.4 0.1 0.4 0.2 0.8 0.4 1.1q0 0.1 0 0.3c0.1 0.4 0.2 0.7 0.3 1.1 1 4.2 1.4 8.5 1 12.8-0.4 5.1-1.8 10.2-4.2 14.6-0.3 0.5-0.6 1.1-0.9 1.6-0.3 0.5-0.7 1-1 1.6-0.4 0.5-0.8 1.1-1.2 1.6l-0.6 0.8-0.6 0.8c-1.6 2.1-3.4 4-5.3 5.9-1.9 1.9-3.9 3.5-6.1 5-0.5 0.4-1.1 0.8-1.6 1.1l-1.6 1.1c-1.1 0.7-2.2 1.3-3.4 1.9-1.1 0.6-2.4 1.2-3.5 1.7q-1.8 0.7-3.6 1.5c-1.2 0.5-2.5 0.8-3.7 1.3-1.3 0.4-2.5 0.7-3.8 1-1.3 0.3-2.6 0.5-3.9 0.8-1.3 0.2-2.6 0.4-4 0.5-2.6 0.3-5.3 0.5-8 0.5h-4c-1.3 0-2.7-0.2-4-0.2q-4.1-0.3-8.1-0.9c-1.3-0.2-2.7-0.4-4-0.7-1.3-0.2-2.7-0.5-4-0.8-2.7-0.6-5.3-1.3-7.9-2-2.6-0.7-5.2-1.6-7.7-2.5-1.3-0.5-2.5-1-3.7-1.5-0.2 0-0.4-0.2-0.6-0.3l-2.7-6.3-22.1-51.5c-1-2.4-0.7-5.2 1-7.1 5.8-6.7 18.4-4.5 18.4-4.5l0.2-2.9-44.8-2.6 36.7 85.4 3.4 8z"/>
					<path class="s7" d="m318.8 101.6l34.4 80.1 4.7 11.1 6-10.5 47.5-82.7c-1.1 0.6-2.1 1.2-3.1 1.7-0.3 0.2-0.9 0.5-0.9 0.5l-0.8 0.4c-1.2 0.6-2.5 1.2-3.8 1.7-1.3 0.5-2.5 1-3.7 1.5-0.3 0.1-1 0.4-1 0.4l-1 0.3c-1.2 0.4-2.5 0.8-3.8 1.2q-1.8 0.6-3.6 0.9c-0.4 0-0.8 0.2-1.2 0.3h-0.2c-0.4 0.1-0.7 0.2-1.1 0.3l-27.2 47.2-20.7-48.2-2.2-5.1q4.3 1.1 8.7 1.8c1.5 0.2 3 0.5 4.5 0.7 1.5 0.2 3.1 0.4 4.6 0.5 3.1 0.3 6.2 0.5 9.2 0.6 1.6 0 3.1 0 4.7 0 0.8 0 1.6 0 2.3 0h2.3c3.1-0.4 6.2-0.7 9.3-1.2 1.5-0.2 3.1-0.6 4.6-0.9 1.5-0.4 3.1-0.7 4.6-1.2 1.5-0.4 3-0.9 4.5-1.4 1.5-0.5 3-1.1 4.4-1.7 1.5-0.6 2.9-1.3 4.3-2 1.4-0.7 2.8-1.5 4.2-2.3 1.4-0.8 2.7-1.7 4-2.5l1.9-1.4c0.7-0.5 1.3-1 1.9-1.5 2.5-2 4.9-4.1 7-6.4 2.2-2.3 4.2-4.7 6-7.3l0.7-0.9 0.7-1c0.4-0.7 0.9-1.3 1.3-2 0.4-0.7 0.9-1.4 1.3-2.2 0.4-0.7 0.8-1.5 1.1-2.2 0.3-0.7 0.4-0.7 0.5-1.1 0-0.1 0.1-0.3 0.2-0.4 0.1-0.2 0.2-0.5 0.3-0.7 0-0.2 0.1-0.3 0.2-0.5 0-0.2 0.2-0.4 0.3-0.6 0-0.2 0.1-0.4 0.2-0.5 0-0.2 0.2-0.4 0.2-0.6 0-0.2 0.1-0.4 0.2-0.5 0-0.2 0.1-0.4 0.2-0.6 0-0.2 0.1-0.4 0.2-0.5 0-0.2 0.1-0.4 0.2-0.6 0-0.2 0.1-0.4 0.2-0.5 0-0.2 0.1-0.4 0.2-0.6 0-0.2 0-0.4 0.1-0.5 0.1-0.1 0.1-0.4 0.2-0.6 0-0.2 0-0.4 0.1-0.5 0-0.2 0-0.4 0.1-0.6 0-0.2 0-0.4 0.1-0.5 0-0.2 0-0.4 0.1-0.6 0-0.2 0-0.4 0-0.5 0-0.2 0-0.4 0.1-0.7 0-0.2 0-0.4 0-0.5 0-0.2 0-0.4 0-0.7 0-0.2 0-0.4 0-0.5 0-0.2 0-0.5 0-0.7 0-0.2 0-0.3 0-0.5 0-0.2 0-0.5 0-0.7 0-0.2 0-0.3 0-0.5 0-0.2 0-0.5 0-0.7 0-0.2 0-0.3 0-0.5v-0.2c0-0.3 0-0.5 0-0.8 0.2-6.4-0.9-12.9-3.1-18.9-0.6-1.6-1.2-3.1-2-4.6 0 0 0-0.1 0-0.2q-0.3-0.6-0.6-1.2c0-0.1-0.1-0.2-0.2-0.3-0.3-0.5-0.5-0.9-0.8-1.4 0 0 0-0.1-0.1-0.2-0.2-0.4-0.5-0.8-0.7-1.2 0-0.1-0.2-0.2-0.2-0.4-0.3-0.4-0.6-0.9-0.9-1.3 0 0 0-0.1-0.1-0.2-0.3-0.4-0.5-0.7-0.8-1.1 0-0.1-0.2-0.2-0.3-0.3-0.3-0.4-0.7-0.8-1-1.2-0.3-0.4-0.7-0.7-1-1.1 0-0.1-0.2-0.2-0.3-0.3-0.4-0.4-0.7-0.8-1.1-1.1-2.3-2.3-4.9-4.3-7.7-5.9-1.4-0.8-2.9-1.5-4.3-2.2l-1.1-0.5c-0.4-0.2-0.7-0.3-1.1-0.4-0.7-0.3-1.5-0.5-2.3-0.7-3-0.9-6.2-1.5-9.3-1.7-3.2-0.2-6.3 0-9.4 0.5-3.1 0.5-6.2 1.4-9 2.6-2.9 1.2-5.6 2.7-8.2 4.6-5.1 3.6-9.2 8.5-12.1 13.9-2.9 5.4-4.5 11.5-4.8 17.6-0.1 2.9-0.2 6.4 0.9 9.3 0.3 0.9 0.8 1.7 1.3 2.4 0.4 0.5 0.9 1 1.5 1.4 0.4 0.3 0.8 0.5 1.3 0.7 0.2 0 0.4 0.2 0.6 0.3 0.7 0.3 1.5 0.4 2.3 0.5 4.4 0.3 8.1-3.1 8.4-7.5 0.3-4.4-3.1-8.1-7.5-8.4-1.7 0-3.3 0.3-4.6 1.2 0.5-5.3 2.2-10.5 4.9-15.1 2.8-4.7 6.6-8.7 11.1-11.6 2.2-1.5 4.6-2.7 7.1-3.6 2.5-0.9 5.1-1.5 7.7-1.8 2.6-0.3 5.3-0.3 7.9 0 2.6 0.3 5.2 0.9 7.7 1.8 0.6 0.2 1.2 0.4 1.8 0.7 0.3 0.1 0.6 0.2 0.9 0.4l0.9 0.4c1.2 0.6 2.3 1.2 3.4 1.9 2.2 1.4 4.1 3.1 5.9 4.9 3.5 3.8 6.1 8.4 7.6 13.4 0.1 0.4 0.2 0.8 0.4 1.1q0 0.1 0 0.3c0.1 0.4 0.2 0.7 0.3 1.1 1 4.2 1.4 8.5 1 12.8-0.4 5.1-1.8 10.2-4.2 14.6-0.3 0.5-0.6 1.1-0.9 1.6-0.3 0.5-0.7 1-1 1.6-0.4 0.5-0.8 1.1-1.2 1.6l-0.6 0.8-0.6 0.8c-1.6 2.1-3.4 4-5.3 5.9-1.9 1.9-3.9 3.5-6.1 5-0.5 0.4-1.1 0.8-1.6 1.1l-1.6 1.1c-1.1 0.7-2.2 1.3-3.4 1.9-1.1 0.6-2.4 1.2-3.5 1.7q-1.8 0.7-3.6 1.5c-1.2 0.5-2.5 0.8-3.7 1.3-1.3 0.4-2.5 0.7-3.8 1-1.3 0.3-2.6 0.5-3.9 0.8-1.3 0.2-2.6 0.4-4 0.5-2.6 0.3-5.3 0.5-8 0.5h-4c-1.3 0-2.7-0.2-4-0.2q-4.1-0.3-8.1-0.9c-1.3-0.2-2.7-0.4-4-0.7-1.3-0.2-2.7-0.5-4-0.8-2.7-0.6-5.3-1.3-7.9-2-2.6-0.7-5.2-1.6-7.7-2.5-1.3-0.5-2.5-1-3.7-1.5-0.2 0-0.4-0.2-0.6-0.3l-2.7-6.3-22.1-51.5c-1-2.4-0.7-5.2 1-7.1 5.8-6.7 18.4-4.5 18.4-4.5l0.2-2.9-44.8-2.6 36.7 85.4 3.4 8z"/>
				</g>
				<g>
					<path class="s8" d="m420.5 116.5l-53.3 69-7.4 9.5 12.1 0.2 95.4 1.3c-1.1-0.6-2.1-1.3-3-1.9-0.3-0.2-0.9-0.6-0.9-0.6l-0.7-0.5c-1.1-0.8-2.3-1.6-3.4-2.5-1.1-0.8-2.1-1.7-3.1-2.5-0.2-0.2-0.8-0.7-0.8-0.7l-0.7-0.7c-0.9-0.9-1.9-1.8-2.9-2.8-0.9-0.9-1.7-1.8-2.5-2.7-0.3-0.3-0.5-0.6-0.8-0.9v-0.2c-0.2-0.3-0.5-0.6-0.7-0.9l-54.5-0.8 32.1-41.6 3.4-4.4c0.8 2.9 1.7 5.7 2.7 8.5 0.5 1.5 1 2.9 1.6 4.3 0.6 1.4 1.1 2.9 1.8 4.3 1.2 2.8 2.6 5.6 4 8.4 0.7 1.4 1.5 2.7 2.3 4.1 0.4 0.7 0.8 1.3 1.2 2l1.3 2c1.7 2.6 3.5 5.2 5.5 7.6 0.9 1.3 2 2.4 3 3.6 1.1 1.1 2.1 2.3 3.3 3.4 1.1 1.1 2.3 2.2 3.4 3.3 1.2 1 2.4 2.1 3.6 3 1.2 1 2.5 1.9 3.8 2.8 1.3 0.9 2.7 1.8 4 2.5 1.4 0.8 2.8 1.5 4.2 2.3l2.2 1c0.7 0.4 1.5 0.6 2.2 0.9 2.9 1.2 6 2.2 9 3 3.1 0.8 6.2 1.4 9.3 1.7l1.2 0.2h1.2c0.8 0.2 1.5 0.2 2.4 0.3 0.8 0 1.7 0 2.5 0 0.8 0 1.6 0 2.5 0q0.6 0 1.2 0c0.2 0 0.3 0 0.4 0 0.3 0 0.5 0 0.8 0 0.2 0 0.3 0 0.5 0 0.2 0 0.5 0 0.7 0 0.2 0 0.4 0 0.5 0 0.2 0 0.4 0 0.7-0.1 0.2 0 0.4 0 0.5-0.1 0.2 0 0.4 0 0.6-0.1 0.2 0 0.4 0 0.5-0.1 0.2 0 0.4 0 0.6-0.1 0.2 0 0.4 0 0.5-0.1 0.2 0 0.4 0 0.6-0.2 0.2 0 0.4 0 0.5-0.1 0.1-0.1 0.4-0.1 0.6-0.2 0.2 0 0.4-0.1 0.5-0.2 0.2 0 0.4-0.1 0.6-0.2 0.2 0 0.4-0.1 0.5-0.2 0.2 0 0.4-0.1 0.6-0.2 0.2 0 0.3-0.1 0.5-0.2 0.2 0 0.4-0.2 0.6-0.2 0.2 0 0.3-0.1 0.5-0.2 0.2 0 0.4-0.2 0.6-0.2 0.2 0 0.3-0.1 0.5-0.2 0.2 0 0.4-0.2 0.6-0.3 0.2 0 0.3-0.1 0.5-0.2 0.2 0 0.4-0.2 0.6-0.3 0.2 0 0.3-0.1 0.4-0.2q0.3-0.1 0.6-0.3c0.1 0 0.3-0.1 0.4-0.2 0 0 0.2 0 0.2-0.1 0.2-0.1 0.5-0.2 0.7-0.4 5.7-3 10.8-7 15-11.9 1.1-1.3 2.1-2.6 3-4 0 0 0 0 0-0.1 0.3-0.4 0.5-0.8 0.8-1.2 0-0.1 0.1-0.2 0.2-0.3 0.3-0.4 0.5-0.9 0.8-1.3 0 0 0-0.1 0.1-0.2 0.2-0.4 0.4-0.8 0.7-1.2 0-0.1 0.1-0.2 0.2-0.4 0.2-0.5 0.5-0.9 0.7-1.4 0 0 0-0.1 0-0.2 0.2-0.4 0.4-0.9 0.6-1.3 0-0.1 0.1-0.3 0.2-0.4q0.3-0.7 0.6-1.5c0 0 0 0 0-0.1 0.2-0.5 0.3-0.9 0.5-1.4 0-0.1 0-0.3 0.1-0.4 0.2-0.5 0.3-1 0.5-1.5 0.9-3.1 1.3-6.3 1.4-9.6 0-1.6 0-3.3-0.2-4.8v-1.2q-0.3-0.6-0.3-1.2c-0.1-0.8-0.3-1.6-0.4-2.3-0.7-3.1-1.7-6.1-3.1-9-1.4-2.9-3-5.6-5-8-2-2.5-4.2-4.7-6.7-6.6-2.5-2-5.1-3.6-8-4.9-5.6-2.7-11.9-3.9-18.1-3.8-6.2 0.1-12.3 1.7-17.7 4.4-2.6 1.3-5.7 2.9-7.7 5.3-0.6 0.7-1.1 1.5-1.4 2.4-0.2 0.6-0.4 1.3-0.5 2q0 0.8 0 1.5c0 0.2 0 0.4 0 0.7 0.1 0.8 0.4 1.5 0.7 2.2 1.9 4 6.7 5.6 10.6 3.7 4-1.9 5.6-6.7 3.7-10.6-0.7-1.5-1.9-2.7-3.3-3.5 4.9-2.1 10.3-3.2 15.6-3.1 5.4 0.2 10.8 1.5 15.5 4q3.6 2 6.6 4.5c2 1.7 3.8 3.7 5.4 5.9 1.5 2.2 2.8 4.5 3.8 6.9 1 2.4 1.8 5 2.2 7.6 0.1 0.7 0.2 1.3 0.3 2 0 0.3 0 0.7 0.1 1v1q0.2 2 0 3.9c-0.2 2.5-0.7 5.1-1.5 7.5-1.6 4.9-4.4 9.4-8 13.2-0.3 0.3-0.5 0.6-0.8 0.9l-0.2 0.2c-0.3 0.3-0.5 0.5-0.8 0.8-3.2 2.9-6.8 5.3-10.7 7.1-4.7 2.2-9.8 3.4-14.8 3.4-0.6 0-1.3 0-1.9 0-0.6 0-1.2 0-1.9-0.1-0.6 0-1.3-0.2-2-0.2h-1c0-0.1-1-0.3-1-0.3-2.6-0.4-5.2-1.1-7.7-1.8-2.5-0.7-5-1.7-7.3-2.8-0.6-0.3-1.2-0.5-1.8-0.9l-1.7-0.9c-1.1-0.7-2.3-1.3-3.4-2-1.1-0.7-2.2-1.5-3.2-2.2-1-0.8-2.1-1.6-3.1-2.5-1-0.8-2-1.8-2.9-2.7-0.9-0.9-1.9-1.9-2.7-2.9-0.9-1-1.7-2-2.6-3-0.8-1.1-1.6-2.1-2.4-3.2-1.6-2.2-3-4.4-4.4-6.7l-1-1.8-0.9-1.8q-0.9-1.8-1.8-3.6c-1.1-2.5-2.2-4.9-3.1-7.5-0.5-1.3-0.9-2.6-1.4-3.8q-0.6-1.9-1.2-3.9c-0.8-2.6-1.5-5.3-2.1-7.9-0.6-2.6-1.1-5.3-1.5-8-0.2-1.3-0.4-2.7-0.5-4 0-0.2 0-0.5 0-0.7l4.2-5.5 34.3-44.4c1.6-2 4.2-3.1 6.7-2.6 8.7 1.8 12.8 13.9 12.8 13.9l2.6-1.3-19.5-40.4-56.8 73.6-5.3 6.9z"/>
					<path class="s9" d="m420.5 116.5l-53.3 69-7.4 9.5 12.1 0.2 95.4 1.3c-1.1-0.6-2.1-1.3-3-1.9-0.3-0.2-0.9-0.6-0.9-0.6l-0.7-0.5c-1.1-0.8-2.3-1.6-3.4-2.5-1.1-0.8-2.1-1.7-3.1-2.5-0.2-0.2-0.8-0.7-0.8-0.7l-0.7-0.7c-0.9-0.9-1.9-1.8-2.9-2.8-0.9-0.9-1.7-1.8-2.5-2.7-0.3-0.3-0.5-0.6-0.8-0.9v-0.2c-0.2-0.3-0.5-0.6-0.7-0.9l-54.5-0.8 32.1-41.6 3.4-4.4c0.8 2.9 1.7 5.7 2.7 8.5 0.5 1.5 1 2.9 1.6 4.3 0.6 1.4 1.1 2.9 1.8 4.3 1.2 2.8 2.6 5.6 4 8.4 0.7 1.4 1.5 2.7 2.3 4.1 0.4 0.7 0.8 1.3 1.2 2l1.3 2c1.7 2.6 3.5 5.2 5.5 7.6 0.9 1.3 2 2.4 3 3.6 1.1 1.1 2.1 2.3 3.3 3.4 1.1 1.1 2.3 2.2 3.4 3.3 1.2 1 2.4 2.1 3.6 3 1.2 1 2.5 1.9 3.8 2.8 1.3 0.9 2.7 1.8 4 2.5 1.4 0.8 2.8 1.5 4.2 2.3l2.2 1c0.7 0.4 1.5 0.6 2.2 0.9 2.9 1.2 6 2.2 9 3 3.1 0.8 6.2 1.4 9.3 1.7l1.2 0.2h1.2c0.8 0.2 1.5 0.2 2.4 0.3 0.8 0 1.7 0 2.5 0 0.8 0 1.6 0 2.5 0q0.6 0 1.2 0c0.2 0 0.3 0 0.4 0 0.3 0 0.5 0 0.8 0 0.2 0 0.3 0 0.5 0 0.2 0 0.5 0 0.7 0 0.2 0 0.4 0 0.5 0 0.2 0 0.4 0 0.7-0.1 0.2 0 0.4 0 0.5-0.1 0.2 0 0.4 0 0.6-0.1 0.2 0 0.4 0 0.5-0.1 0.2 0 0.4 0 0.6-0.1 0.2 0 0.4 0 0.5-0.1 0.2 0 0.4 0 0.6-0.2 0.2 0 0.4 0 0.5-0.1 0.1-0.1 0.4-0.1 0.6-0.2 0.2 0 0.4-0.1 0.5-0.2 0.2 0 0.4-0.1 0.6-0.2 0.2 0 0.4-0.1 0.5-0.2 0.2 0 0.4-0.1 0.6-0.2 0.2 0 0.3-0.1 0.5-0.2 0.2 0 0.4-0.2 0.6-0.2 0.2 0 0.3-0.1 0.5-0.2 0.2 0 0.4-0.2 0.6-0.2 0.2 0 0.3-0.1 0.5-0.2 0.2 0 0.4-0.2 0.6-0.3 0.2 0 0.3-0.1 0.5-0.2 0.2 0 0.4-0.2 0.6-0.3 0.2 0 0.3-0.1 0.4-0.2q0.3-0.1 0.6-0.3c0.1 0 0.3-0.1 0.4-0.2 0 0 0.2 0 0.2-0.1 0.2-0.1 0.5-0.2 0.7-0.4 5.7-3 10.8-7 15-11.9 1.1-1.3 2.1-2.6 3-4 0 0 0 0 0-0.1 0.3-0.4 0.5-0.8 0.8-1.2 0-0.1 0.1-0.2 0.2-0.3 0.3-0.4 0.5-0.9 0.8-1.3 0 0 0-0.1 0.1-0.2 0.2-0.4 0.4-0.8 0.7-1.2 0-0.1 0.1-0.2 0.2-0.4 0.2-0.5 0.5-0.9 0.7-1.4 0 0 0-0.1 0-0.2 0.2-0.4 0.4-0.9 0.6-1.3 0-0.1 0.1-0.3 0.2-0.4q0.3-0.7 0.6-1.5c0 0 0 0 0-0.1 0.2-0.5 0.3-0.9 0.5-1.4 0-0.1 0-0.3 0.1-0.4 0.2-0.5 0.3-1 0.5-1.5 0.9-3.1 1.3-6.3 1.4-9.6 0-1.6 0-3.3-0.2-4.8v-1.2q-0.3-0.6-0.3-1.2c-0.1-0.8-0.3-1.6-0.4-2.3-0.7-3.1-1.7-6.1-3.1-9-1.4-2.9-3-5.6-5-8-2-2.5-4.2-4.7-6.7-6.6-2.5-2-5.1-3.6-8-4.9-5.6-2.7-11.9-3.9-18.1-3.8-6.2 0.1-12.3 1.7-17.7 4.4-2.6 1.3-5.7 2.9-7.7 5.3-0.6 0.7-1.1 1.5-1.4 2.4-0.2 0.6-0.4 1.3-0.5 2q0 0.8 0 1.5c0 0.2 0 0.4 0 0.7 0.1 0.8 0.4 1.5 0.7 2.2 1.9 4 6.7 5.6 10.6 3.7 4-1.9 5.6-6.7 3.7-10.6-0.7-1.5-1.9-2.7-3.3-3.5 4.9-2.1 10.3-3.2 15.6-3.1 5.4 0.2 10.8 1.5 15.5 4q3.6 2 6.6 4.5c2 1.7 3.8 3.7 5.4 5.9 1.5 2.2 2.8 4.5 3.8 6.9 1 2.4 1.8 5 2.2 7.6 0.1 0.7 0.2 1.3 0.3 2 0 0.3 0 0.7 0.1 1v1q0.2 2 0 3.9c-0.2 2.5-0.7 5.1-1.5 7.5-1.6 4.9-4.4 9.4-8 13.2-0.3 0.3-0.5 0.6-0.8 0.9l-0.2 0.2c-0.3 0.3-0.5 0.5-0.8 0.8-3.2 2.9-6.8 5.3-10.7 7.1-4.7 2.2-9.8 3.4-14.8 3.4-0.6 0-1.3 0-1.9 0-0.6 0-1.2 0-1.9-0.1-0.6 0-1.3-0.2-2-0.2h-1c0-0.1-1-0.3-1-0.3-2.6-0.4-5.2-1.1-7.7-1.8-2.5-0.7-5-1.7-7.3-2.8-0.6-0.3-1.2-0.5-1.8-0.9l-1.7-0.9c-1.1-0.7-2.3-1.3-3.4-2-1.1-0.7-2.2-1.5-3.2-2.2-1-0.8-2.1-1.6-3.1-2.5-1-0.8-2-1.8-2.9-2.7-0.9-0.9-1.9-1.9-2.7-2.9-0.9-1-1.7-2-2.6-3-0.8-1.1-1.6-2.1-2.4-3.2-1.6-2.2-3-4.4-4.4-6.7l-1-1.8-0.9-1.8q-0.9-1.8-1.8-3.6c-1.1-2.5-2.2-4.9-3.1-7.5-0.5-1.3-0.9-2.6-1.4-3.8q-0.6-1.9-1.2-3.9c-0.8-2.6-1.5-5.3-2.1-7.9-0.6-2.6-1.1-5.3-1.5-8-0.2-1.3-0.4-2.7-0.5-4 0-0.2 0-0.5 0-0.7l4.2-5.5 34.3-44.4c1.6-2 4.2-3.1 6.7-2.6 8.7 1.8 12.8 13.9 12.8 13.9l2.6-1.3-19.5-40.4-56.8 73.6-5.3 6.9z"/>
				</g>
				<g>
					<path class="s10" d="m467.2 207.6l-8.6-0.8-86.8-8.2-12-1.1 6.3 10.3 49.8 81.3q0-1.8 0-3.6v-1.9c0.1-1.4 0.2-2.8 0.4-4.2 0.1-1.4 0.3-2.7 0.5-3.9 0-0.3 0.2-1.1 0.2-1.1l0.2-1c0.2-1.3 0.5-2.6 0.8-3.9 0.3-1.3 0.6-2.4 0.9-3.6q0.1-0.6 0.3-1.2c0-0.1 0-0.2 0-0.2 0.1-0.4 0.2-0.7 0.3-1.1l-28.4-46.5 52.3 4.9 5.6 0.5c-2 2.2-3.9 4.5-5.8 6.8-0.9 1.2-1.9 2.4-2.8 3.6-0.9 1.3-1.8 2.5-2.7 3.8-1.8 2.5-3.4 5.2-4.9 7.8-0.7 1.4-1.5 2.7-2.2 4.1-0.4 0.7-0.7 1.4-1.1 2.1l-1 2.1c-1.3 2.8-2.5 5.7-3.5 8.7q-0.7 2.3-1.5 4.5c-0.4 1.5-0.8 3-1.2 4.6-0.4 1.5-0.6 3.1-0.9 4.6-0.2 1.6-0.5 3.1-0.6 4.7-0.2 1.6-0.2 3.2-0.3 4.7q0 2.4 0 4.8c0 1.6 0.2 3.2 0.3 4.8l0.3 2.4c0 0.8 0.2 1.6 0.4 2.4 0.5 3.1 1.3 6.2 2.3 9.2 1 3 2.1 6 3.5 8.8l0.5 1.1 0.5 1c0.4 0.7 0.7 1.4 1.1 2.1 0.4 0.7 0.8 1.4 1.3 2.1 0.5 0.7 0.9 1.4 1.4 2 0.2 0.3 0.5 0.7 0.7 1 0 0.1 0.2 0.2 0.3 0.4 0.2 0.2 0.3 0.4 0.5 0.6 0.1 0.1 0.2 0.3 0.3 0.4 0.2 0.2 0.3 0.4 0.4 0.5 0.1 0.1 0.2 0.3 0.4 0.4 0.2 0.2 0.3 0.3 0.4 0.5 0.1 0.1 0.2 0.3 0.4 0.4 0.2 0.2 0.3 0.3 0.4 0.5 0.1 0.1 0.3 0.3 0.4 0.4 0.1 0.1 0.3 0.3 0.4 0.5l0.4 0.4c0.2 0.2 0.3 0.3 0.5 0.4 0.1 0.1 0.3 0.3 0.4 0.4 0.2 0.2 0.3 0.3 0.5 0.4 0.1 0.1 0.3 0.2 0.4 0.4 0.2 0.1 0.3 0.3 0.5 0.4 0.1 0.1 0.3 0.2 0.4 0.4 0.2 0.1 0.3 0.3 0.5 0.4 0.1 0.1 0.3 0.2 0.4 0.3 0.2 0.1 0.4 0.3 0.5 0.4 0.1 0.1 0.3 0.2 0.4 0.3l0.5 0.4c0.1 0.1 0.3 0.2 0.4 0.3 0.2 0.1 0.4 0.3 0.5 0.4 0.1 0 0.3 0.2 0.4 0.3 0.2 0.1 0.4 0.3 0.6 0.4 0.1 0 0.3 0.2 0.4 0.3 0.2 0.1 0.4 0.3 0.6 0.4 0.1 0 0.3 0.2 0.4 0.2 0 0 0.1 0 0.2 0.1 0.2 0.1 0.5 0.3 0.7 0.4 5.6 3.3 11.7 5.4 18 6.3 1.6 0.2 3.3 0.4 5 0.5h0.2c0.5 0 0.9 0 1.4 0h0.4c0.5 0 1.1 0 1.6 0h0.2c0.5 0 0.9 0 1.4 0 0.1 0 0.3 0 0.4 0 0.5 0 1 0 1.6-0.2 0 0 0.1 0 0.2 0 0.5 0 0.9-0.1 1.4-0.2 0.1 0 0.3 0 0.4 0 0.5 0 1-0.2 1.5-0.3 0 0 0 0 0.1 0q0.7-0.2 1.5-0.3c0.1 0 0.3 0 0.4-0.1 0.5-0.1 1-0.3 1.5-0.4 3.1-0.9 6.1-2.2 8.9-3.9 1.4-0.8 2.7-1.8 4-2.7l0.9-0.7c0.3-0.3 0.6-0.5 0.9-0.8 0.6-0.5 1.2-1.1 1.7-1.6 2.3-2.2 4.3-4.7 6-7.4 1.7-2.7 3.1-5.5 4.1-8.5 1-3 1.7-6 2.1-9.2 0.3-3.1 0.3-6.3 0-9.4-0.8-6.2-3-12.1-6.4-17.3-3.4-5.2-8-9.5-13.2-12.6-2.5-1.5-5.5-3.3-8.6-3.7q-1.4-0.2-2.7 0c-0.7 0.1-1.3 0.3-1.9 0.6-0.4 0.2-0.9 0.5-1.2 0.7-0.2 0.1-0.4 0.3-0.5 0.4q-0.9 0.7-1.5 1.8c-2.3 3.7-1.2 8.6 2.5 10.9 3.7 2.3 8.6 1.2 10.9-2.5 0.9-1.4 1.3-3.1 1.2-4.6 4.4 3 8.2 7 10.9 11.6 2.8 4.7 4.5 9.9 4.9 15.3 0.2 2.7 0.1 5.4-0.3 8-0.4 2.6-1.1 5.2-2.1 7.7-1 2.5-2.3 4.8-3.8 6.9-1.5 2.1-3.3 4.1-5.2 5.9-0.5 0.4-1 0.9-1.5 1.3-0.3 0.2-0.5 0.4-0.8 0.6l-0.8 0.6c-1.1 0.7-2.1 1.5-3.3 2-2.3 1.2-4.7 2.2-7.1 2.8-5 1.3-10.3 1.3-15.4 0.3-0.4 0-0.8-0.2-1.2-0.2q-0.2 0-0.3 0c-0.4 0-0.7-0.2-1.1-0.3-4.2-1.1-8.1-2.9-11.7-5.2-4.3-2.8-8.1-6.5-10.8-10.6-0.4-0.5-0.6-1.1-1-1.6-0.3-0.5-0.6-1.1-0.9-1.6q-0.5-0.9-0.9-1.8l-0.4-0.9-0.4-0.9c-1.1-2.4-1.9-5-2.6-7.5-0.7-2.5-1.2-5.1-1.5-7.7 0-0.7-0.2-1.3-0.2-2l-0.2-2c0-1.3-0.1-2.6 0-3.9 0-1.3 0.1-2.6 0.2-3.9 0.1-1.3 0.2-2.6 0.5-3.9 0.2-1.3 0.5-2.6 0.7-3.9 0.3-1.3 0.6-2.6 1-3.8 0.3-1.3 0.8-2.5 1.2-3.8 0.5-1.3 0.9-2.5 1.4-3.7 1-2.5 2.1-4.9 3.4-7.3l0.9-1.8 1-1.8c0.7-1.2 1.4-2.3 2.1-3.4 1.5-2.3 3-4.5 4.7-6.7 0.8-1.1 1.7-2.2 2.5-3.2 0.9-1.1 1.8-2.1 2.6-3.1 1.8-2 3.7-4.1 5.6-6 1.9-1.9 3.9-3.8 5.9-5.5 1-0.9 2-1.7 3.1-2.6 0.2-0.2 0.4-0.3 0.5-0.4l6.9 0.6 55.8 5.3c2.6 0.2 4.9 1.9 5.8 4.3 3.1 8.4-4.9 18.3-4.9 18.3l2.5 1.6 23.7-38.1-92.5-8.7z"/>
					<path class="s11" d="m467.2 207.6l-8.6-0.8-86.8-8.2-12-1.1 6.3 10.3 49.8 81.3q0-1.8 0-3.6v-1.9c0.1-1.4 0.2-2.8 0.4-4.2 0.1-1.4 0.3-2.7 0.5-3.9 0-0.3 0.2-1.1 0.2-1.1l0.2-1c0.2-1.3 0.5-2.6 0.8-3.9 0.3-1.3 0.6-2.4 0.9-3.6q0.1-0.6 0.3-1.2c0-0.1 0-0.2 0-0.2 0.1-0.4 0.2-0.7 0.3-1.1l-28.4-46.5 52.3 4.9 5.6 0.5c-2 2.2-3.9 4.5-5.8 6.8-0.9 1.2-1.9 2.4-2.8 3.6-0.9 1.3-1.8 2.5-2.7 3.8-1.8 2.5-3.4 5.2-4.9 7.8-0.7 1.4-1.5 2.7-2.2 4.1-0.4 0.7-0.7 1.4-1.1 2.1l-1 2.1c-1.3 2.8-2.5 5.7-3.5 8.7q-0.7 2.3-1.5 4.5c-0.4 1.5-0.8 3-1.2 4.6-0.4 1.5-0.6 3.1-0.9 4.6-0.2 1.6-0.5 3.1-0.6 4.7-0.2 1.6-0.2 3.2-0.3 4.7q0 2.4 0 4.8c0 1.6 0.2 3.2 0.3 4.8l0.3 2.4c0 0.8 0.2 1.6 0.4 2.4 0.5 3.1 1.3 6.2 2.3 9.2 1 3 2.1 6 3.5 8.8l0.5 1.1 0.5 1c0.4 0.7 0.7 1.4 1.1 2.1 0.4 0.7 0.8 1.4 1.3 2.1 0.5 0.7 0.9 1.4 1.4 2 0.2 0.3 0.5 0.7 0.7 1 0 0.1 0.2 0.2 0.3 0.4 0.2 0.2 0.3 0.4 0.5 0.6 0.1 0.1 0.2 0.3 0.3 0.4 0.2 0.2 0.3 0.4 0.4 0.5 0.1 0.1 0.2 0.3 0.4 0.4 0.2 0.2 0.3 0.3 0.4 0.5 0.1 0.1 0.2 0.3 0.4 0.4 0.2 0.2 0.3 0.3 0.4 0.5 0.1 0.1 0.3 0.3 0.4 0.4 0.1 0.1 0.3 0.3 0.4 0.5l0.4 0.4c0.2 0.2 0.3 0.3 0.5 0.4 0.1 0.1 0.3 0.3 0.4 0.4 0.2 0.2 0.3 0.3 0.5 0.4 0.1 0.1 0.3 0.2 0.4 0.4 0.2 0.1 0.3 0.3 0.5 0.4 0.1 0.1 0.3 0.2 0.4 0.4 0.2 0.1 0.3 0.3 0.5 0.4 0.1 0.1 0.3 0.2 0.4 0.3 0.2 0.1 0.4 0.3 0.5 0.4 0.1 0.1 0.3 0.2 0.4 0.3l0.5 0.4c0.1 0.1 0.3 0.2 0.4 0.3 0.2 0.1 0.4 0.3 0.5 0.4 0.1 0 0.3 0.2 0.4 0.3 0.2 0.1 0.4 0.3 0.6 0.4 0.1 0 0.3 0.2 0.4 0.3 0.2 0.1 0.4 0.3 0.6 0.4 0.1 0 0.3 0.2 0.4 0.2 0 0 0.1 0 0.2 0.1 0.2 0.1 0.5 0.3 0.7 0.4 5.6 3.3 11.7 5.4 18 6.3 1.6 0.2 3.3 0.4 5 0.5h0.2c0.5 0 0.9 0 1.4 0h0.4c0.5 0 1.1 0 1.6 0h0.2c0.5 0 0.9 0 1.4 0 0.1 0 0.3 0 0.4 0 0.5 0 1 0 1.6-0.2 0 0 0.1 0 0.2 0 0.5 0 0.9-0.1 1.4-0.2 0.1 0 0.3 0 0.4 0 0.5 0 1-0.2 1.5-0.3 0 0 0 0 0.1 0q0.7-0.2 1.5-0.3c0.1 0 0.3 0 0.4-0.1 0.5-0.1 1-0.3 1.5-0.4 3.1-0.9 6.1-2.2 8.9-3.9 1.4-0.8 2.7-1.8 4-2.7l0.9-0.7c0.3-0.3 0.6-0.5 0.9-0.8 0.6-0.5 1.2-1.1 1.7-1.6 2.3-2.2 4.3-4.7 6-7.4 1.7-2.7 3.1-5.5 4.1-8.5 1-3 1.7-6 2.1-9.2 0.3-3.1 0.3-6.3 0-9.4-0.8-6.2-3-12.1-6.4-17.3-3.4-5.2-8-9.5-13.2-12.6-2.5-1.5-5.5-3.3-8.6-3.7q-1.4-0.2-2.7 0c-0.7 0.1-1.3 0.3-1.9 0.6-0.4 0.2-0.9 0.5-1.2 0.7-0.2 0.1-0.4 0.3-0.5 0.4q-0.9 0.7-1.5 1.8c-2.3 3.7-1.2 8.6 2.5 10.9 3.7 2.3 8.6 1.2 10.9-2.5 0.9-1.4 1.3-3.1 1.2-4.6 4.4 3 8.2 7 10.9 11.6 2.8 4.7 4.5 9.9 4.9 15.3 0.2 2.7 0.1 5.4-0.3 8-0.4 2.6-1.1 5.2-2.1 7.7-1 2.5-2.3 4.8-3.8 6.9-1.5 2.1-3.3 4.1-5.2 5.9-0.5 0.4-1 0.9-1.5 1.3-0.3 0.2-0.5 0.4-0.8 0.6l-0.8 0.6c-1.1 0.7-2.1 1.5-3.3 2-2.3 1.2-4.7 2.2-7.1 2.8-5 1.3-10.3 1.3-15.4 0.3-0.4 0-0.8-0.2-1.2-0.2q-0.2 0-0.3 0c-0.4 0-0.7-0.2-1.1-0.3-4.2-1.1-8.1-2.9-11.7-5.2-4.3-2.8-8.1-6.5-10.8-10.6-0.4-0.5-0.6-1.1-1-1.6-0.3-0.5-0.6-1.1-0.9-1.6q-0.5-0.9-0.9-1.8l-0.4-0.9-0.4-0.9c-1.1-2.4-1.9-5-2.6-7.5-0.7-2.5-1.2-5.1-1.5-7.7 0-0.7-0.2-1.3-0.2-2l-0.2-2c0-1.3-0.1-2.6 0-3.9 0-1.3 0.1-2.6 0.2-3.9 0.1-1.3 0.2-2.6 0.5-3.9 0.2-1.3 0.5-2.6 0.7-3.9 0.3-1.3 0.6-2.6 1-3.8 0.3-1.3 0.8-2.5 1.2-3.8 0.5-1.3 0.9-2.5 1.4-3.7 1-2.5 2.1-4.9 3.4-7.3l0.9-1.8 1-1.8c0.7-1.2 1.4-2.3 2.1-3.4 1.5-2.3 3-4.5 4.7-6.7 0.8-1.1 1.7-2.2 2.5-3.2 0.9-1.1 1.8-2.1 2.6-3.1 1.8-2 3.7-4.1 5.6-6 1.9-1.9 3.9-3.8 5.9-5.5 1-0.9 2-1.7 3.1-2.6 0.2-0.2 0.4-0.3 0.5-0.4l6.9 0.6 55.8 5.3c2.6 0.2 4.9 1.9 5.8 4.3 3.1 8.4-4.9 18.3-4.9 18.3l2.5 1.6 23.7-38.1-92.5-8.7z"/>
				</g>
			</g>
			<g>
				<g>
					<path class="s12" d="m53.2 419.9c0.9 0.5 1.8 1.2 2.6 2 0.8 0.8 1.6 1.8 2.3 3 0.7 1.2 1.3 2.7 1.7 4.2 0.4 1.6 0.7 3.5 0.8 5.7 0.2 2.2 0 4.7-0.4 7.3-1.2 8-3.4 15.9-6.7 23.6-3.3 7.7-7.4 14.7-12.4 21-4.2 5.3-8.6 9.6-13 12.8-4.5 3.2-8.3 4.8-11.6 4.8h-0.1c-0.5 0-1.1 0-1.6-0.2-0.6 3.6-1 6.3-1.1 8.3 0-0.2 0.2-0.4 0.2-0.6 0.1-0.3 0.4-0.6 0.7-0.7 0.3-0.1 0.6-0.1 1 0 0.4 0.1 0.5 0.4 0.7 0.7q0.1 0.5 0 0.9c-0.7 1.8-1.3 3-1.8 3.8-0.5 0.8-1 1.1-1.6 1.1-0.6 0-0.3 0-0.4-0.1-0.5-0.1-0.8-0.5-1-1-0.2-0.5-0.2-1.9 0-4q0.3-3.2 1.2-9.3c-1.7-1.2-2.8-3.1-3-5.8q0-0.3 0-0.6c0-0.2 0.2-0.4 0.4-0.5 0.2-0.1 0.4-0.2 0.6-0.2 0.2 0 0.3 0 0.5 0 0.1 0 0.3 0.1 0.4 0.2 0.1 0 0.2 0.2 0.3 0.3 0 0.1 0.1 0.3 0.1 0.4 0.2 1.4 0.5 2.5 1.1 3.2 1.7-9.8 5.1-27.3 10.2-52.3 2.2-10.9 3.7-18.3 4.5-22.4-0.7 0.4-1.3 0.8-1.9 1.3-2 1.4-3.9 3-5.6 4.8-1.7 1.8-3.4 3.8-4.9 6-1.5 2.3-2.8 4.6-3.6 7.1-0.9 2.5-1.5 5.1-1.8 8-0.3 2.9 0 5.8 0.6 8.7 0 0.3 0 0.7-0.2 0.9-0.2 0.3-0.4 0.4-0.8 0.5-0.3 0-0.6 0-0.9-0.2-0.3-0.2-0.5-0.4-0.5-0.8-0.8-3.2-1-6.3-0.7-9.4 0.3-3.1 0.9-5.9 1.9-8.6 1-2.7 2.2-5.2 3.9-7.6 1.7-2.4 3.4-4.6 5.2-6.5 1.8-1.9 3.8-3.6 5.9-5.1 1.3-0.9 2.6-1.8 3.9-2.5 0.3-1.8 0.6-3.3 0.9-4.6 0-0.3 0.2-0.6 0.5-0.8 0.3-0.2 0.6-0.2 0.9-0.2 0.3 0 0.6 0.2 0.8 0.5 0.2 0.3 0.3 0.6 0.2 0.9-0.2 0.8-0.3 1.7-0.5 2.7 4.1-2 8.2-3.1 12.1-3.3 3.9-0.2 7.3 0.6 10.1 2.2zm4.5 22c0.7-5 0.5-9.1-0.4-12.5-0.9-3.4-2.8-5.8-5.4-7.5-2.7-1.6-5.9-2.2-9.7-1.8-3.8 0.4-7.8 1.6-11.8 3.8-0.9 4.3-2.5 12.5-5 24.6-5.3 26-8.7 43.8-10.4 53.3 0.4 0 0.8 0.2 1.2 0.2h0.1c2.6 0 6-1.4 10.1-4.3 4.1-2.9 8.3-7 12.5-12.4 1.7-2.1 3.3-4.4 5-7 1.6-2.5 3.4-5.7 5.3-9.3 1.9-3.6 3.6-7.9 5.1-12.6 1.5-4.7 2.6-9.5 3.3-14.5z"/>
					<path class="s12" d="m83.5 466.6c0.3-0.1 0.6 0 0.9 0 0.3 0.2 0.5 0.4 0.6 0.7q0.1 0.5 0 0.9c-1.1 2.5-2.4 5-3.9 7.6-1.4 2.6-3 5.2-4.7 7.8-1.7 2.7-3.4 4.8-5.1 6.5-1.7 1.7-3.1 2.5-4.3 2.5-1.2 0-0.6 0-0.8-0.2-1.7-0.7-2.3-3.3-1.6-7.9 0.6-4.3 2.2-10.3 4.7-18.2 0 0 0 0-0.1 0-0.1 0 0 0-0.1 0-0.9 0.6-1.7 1.1-2.3 1.5-0.6 0.3-1.4 0.7-2.5 1.1-1.1 0.4-2 0.6-3 0.6-0.9 0-1.8-0.3-2.6-0.9-1.6-1.1-2.4-2.7-2.5-4.8 0-2 0.7-4.2 2.3-6.7 1-1.5 2.1-2.9 3.5-4 1.4-1.1 2.5-1.4 3.5-0.8 0.6 0.3 0.9 0.9 1 1.7 0.1 0.8-0.3 2.2-1.1 4.4-0.9 2.2-2.3 5-4.2 8.5 1.3 0.2 3.5-0.7 6.5-2.7 0.5-0.4 1-0.6 1.2-0.8 0.3-0.2 0.6-0.3 1-0.5 0.4-0.2 0.7-0.2 0.9-0.2 0.2 0 0.5 0.2 0.8 0.3q0.9 0.8 0.3 2.7c-4.2 13.1-5.9 21.1-5 23.9 0 0.2 0.1 0.3 0.2 0.4 0.3 0 0.9-0.2 1.6-0.8 0.7-0.6 1.6-1.5 2.6-2.8 1-1.3 2.2-2.8 3.4-4.6 1.2-1.8 2.5-4 4-6.5 1.5-2.5 2.9-5.3 4.2-8.3 0.2-0.3 0.4-0.6 0.7-0.7zm-24.7-4.3c-0.4 1.5-0.3 2.7 0.2 3.6 3.1-5.4 4.7-9 5-10.9q-0.7 0.5-1.8 1.5c-0.7 0.7-1.3 1.6-2 2.6-0.7 1-1.2 2.2-1.4 3.3z"/>
					<path class="s12" d="m86 476.5c1.5-0.5 2.4-0.1 2.6 1 0.1 1.2-0.4 2.1-1.7 2.7-0.7 0.3-1.4 0.5-2.3 0.5-1.4-0.1-1.7-0.9-1-2.2 0.6-1 1.4-1.7 2.4-2z"/>
					<path class="s12" d="m195 460.5c0.5 0.3 0.7 0.8 0.8 1.3 0 0.5 0 1-0.3 1.4-0.4 0.5-0.9 0.8-1.6 0.8-0.7 0-0.5 0-0.8-0.2-1.3-0.3-7.9-0.6-19.8-1-3.3 13.7-5.9 25.2-7.9 34.7-4.1 18.8-6.1 30.9-6.1 36.3q0.5-0.8 0.9-1.5 0.4-0.8 1.2-0.9c0.5-0.1 1 0 1.5 0.2 0.4 0.3 0.7 0.6 0.9 1.1 0.1 0.5 0 1-0.2 1.4-1.9 3.3-3.6 4.9-5 4.9-1.4 0-0.7 0-1-0.2-0.8-0.3-1.4-1.1-1.6-2.1-0.3-1.1-0.4-3.2-0.2-6.3 0.2-3.1 0.8-7.4 1.8-12.8 1-5.4 2.5-12.7 4.4-21.7 1.9-9 4.5-20.1 7.5-33.1-4.5-0.1-11.3-0.3-20.3-0.5q-1.9 0-4.5 0c-10 19.1-17.9 32.5-23.4 40-1.5 1.9-2.9 3.4-4.4 4.5-1.5 1.1-2.8 1.7-4.1 1.9-1.3 0.2-2.3 0.1-3.2 0-0.9-0.2-1.7-0.5-2.5-1-3.5-2-6.2-6-8.2-12.1-2-6.1-3-12.8-2.8-20.3 0.2-7.4 1.5-13.9 3.9-19.4 3-6.8 7.4-11.3 13.1-13.7 5.7-2.4 12.5-2.3 20.3 0.2 0.5 0.1 0.9 0.4 1.1 0.9 0.2 0.5 0.3 0.9 0.1 1.4-0.2 0.5-0.5 0.9-1 1.2q-0.8 0.5-1.5 0c-2.6-0.8-5.1-1.3-7.6-1.5-2.5-0.2-5 0-7.7 0.6-2.7 0.6-5.2 1.9-7.5 4-2.3 2.1-4.3 4.9-5.9 8.4-1.2 2.7-2.1 5.8-2.7 9.1-0.6 3.3-0.9 6.6-0.9 9.8 0 3.2 0.2 6.3 0.7 9.4 0.5 3.1 1.1 5.9 2 8.4 0.8 2.5 1.8 4.6 2.9 6.4 1.1 1.8 2.3 3.1 3.5 3.8 2.8 1.6 5.9 0.2 9.2-4.3q7.9-10.8 22.2-37.8c-17.3-0.5-26.8-0.9-28.4-1.2-0.5-0.1-1-0.4-1.2-0.8-0.3-0.4-0.4-0.9-0.3-1.4q0.1-0.8 0.9-1.2c0.5-0.3 0.9-0.4 1.4-0.3q2.2 0.4 29.7 1.2c2.9-5.7 7.4-14.4 13.3-26 3.9-7.7 7-14 9.5-18.8 2.5-4.8 4.9-9.4 7.2-13.7 2.3-4.3 4.2-7.6 5.6-9.8 1.4-2.2 2.7-4.2 4-5.8 1.3-1.6 2.3-2.7 3.1-3.1 0.8-0.4 1.6-0.5 2.5-0.2 1.1 0.4 1.8 1.3 2 2.7 0.3 1.4 0.3 3.3 0 5.8-0.4 4.3-1.6 10.8-3.5 19.4-0.8 3.8-2.8 12.4-6.1 25.8-2.5 10.5-4.5 18.7-5.9 24.6 13 0.4 19.9 0.9 20.8 1.5zm-45.8-2.2c8.7 0.3 15.8 0.5 21.1 0.6 1.8-7.7 3.8-16.2 6-25.4 3.3-13.3 5.3-21.9 6.2-25.7 2.6-11.8 3.8-19.3 3.5-22.7-1.1 1.1-2.5 3.1-4.4 6.2-1.9 3.1-4.3 7.4-7.2 12.8q-4.4 8.2-7.2 13.8c-1.9 3.7-4.6 9-8.1 15.8-5.5 10.8-9.6 18.9-12.4 24.4h2.6z"/>
					<path class="s12" d="m237.1 458.5c0.5-0.1 1 0 1.5 0.2q0.8 0.4 0.9 1.2c0.1 0.5 0 1-0.2 1.4-2.3 4-4.2 7.2-5.9 9.5-1.7 2.3-3.4 4.2-5.1 5.5-1.7 1.3-3.4 1.9-5.1 1.7-3.3-0.4-6-4-7.9-10.8q-2.1-6.9-3.6-6.9c-0.2 0-0.5 0-0.9 0.2q-0.6 0.3-1.8 1.8c-0.8 1-1.7 2.3-2.6 3.9-0.9 1.6-2.2 4.1-3.8 7.4-1.6 3.3-3.2 7.1-5 11.6q-0.5 1.2-1.8 1.2c-0.9 0-0.3 0-0.4 0q-1.6-0.5-1.5-2.1c0.7-5.5 3.2-15.6 7.5-30.5 0.5-1.5 0.8-2.7 1-3.5 0.2-0.5 0.5-0.9 1-1.2 0.5-0.2 1-0.3 1.5-0.2 0.5 0.1 0.9 0.4 1.1 0.9 0.2 0.5 0.3 1 0.1 1.5-0.1 0.5-0.5 1.6-1 3.5-1.5 5.1-2.6 9.1-3.4 12 2.1-4 4-6.8 5.6-8.3 1.6-1.5 3.1-2.3 4.6-2.2 1.7 0 3.1 1 4.1 2.7 1 1.7 2 4.1 3 7.1 1.5 5.1 3 7.8 4.7 8 0.8 0.1 1.8-0.3 3-1.3 1.2-1 2.4-2.5 3.8-4.5 1.3-2 2.4-3.5 3-4.6 0.7-1.1 1.5-2.6 2.5-4.3q0.4-0.8 1.2-0.9z"/>
					<path class="s12" d="m315.8 422.1c0.3 0.4 0.5 0.9 0.4 1.4 0 0.5-0.3 1-0.8 1.3-0.8 0.5-1.6 0.5-2.3 0-3.2-1.1-25.6-1.2-67.3-0.3q-6.5 27.3-13.2 59.1c-5.3 25.6-8.6 43.2-9.7 52.8 0.1 0 0.3 0 0.4 0.1 0.5 0.1 0.9 0.4 1.1 0.9 0.2 0.5 0.2 1 0 1.4q-0.5 1.7-0.9 2.4c-0.3 0.5-0.6 1-1 1.5-0.5 0.5-1 0.8-1.5 0.8-0.5 0-0.4 0-0.7-0.1q-1.4-0.5-1.5-2.1c-0.2-1.1 0-2.7 0.2-4.6 0.3-2.8 0.9-6.8 1.8-12.1 1.7-10 4.2-23 7.5-38.9 4.5-21.6 9-41.9 13.5-61.1-4.5 0-10.1 0.2-16.9 0.4-10.6 0.3-16.9 0.4-18.8 0.4-1.9 0-1-0.2-1.4-0.5-0.4-0.3-0.5-0.8-0.5-1.3 0-0.5 0-0.7 0.2-1 0.2-0.3 0.4-0.5 0.7-0.7 0.3-0.2 0.6-0.2 1-0.2 1.9 0 8.1-0.2 18.7-0.5 6.6-0.1 12.6-0.3 18-0.4 2.1-8.8 4-16.2 5.7-22.4q0.1-0.8 0.9-1.2c0.5-0.3 1-0.3 1.5-0.2 0.5 0.1 0.9 0.4 1.1 0.9 0.2 0.5 0.3 1 0.2 1.5-1.6 5.9-3.4 13-5.5 21.3 20-0.5 35.1-0.7 45.2-0.6 10.2 0.1 16.6 0.3 19.2 0.7 2.6 0.3 4.2 0.8 4.6 1.5z"/>
					<path class="s12" d="m277.1 458.8c0.5 0 1 0 1.5 0.4 0.4 0.3 0.7 0.8 0.8 1.3 0 0.5 0 1-0.4 1.4-2.7 3.5-6 6.3-9.8 8.3-3.8 2-7.4 2.6-10.7 1.9-0.9 2.3-2.2 4-3.9 5.3-1.7 1.3-3.4 1.9-5.2 1.9h-0.1c-1.8 0-3.4-0.7-4.7-1.8-1.4-1.2-2.3-2.8-2.9-4.8-0.9-3.3-0.7-6.4 0.5-9.3 1.2-3 2.9-5.1 5-6.5 0.5-0.3 1-0.4 1.6-0.2 0.6-1.5 1.5-2.6 2.5-3.4 1-0.8 2.2-1.1 3.5-0.9 0.7 0.1 1.3 0.4 1.9 0.8 0.6 0.4 1.1 1.1 1.7 2.1 0.6 1 1 2.4 1.2 4.3 0.2 1.9 0.3 4.2 0.2 6.9 0 0.7-0.2 1.3-0.3 2 2.5 0.5 5.3 0 8.4-1.9 3.1-1.9 5.7-4.1 7.9-7 0.3-0.4 0.8-0.6 1.3-0.7zm-27.8 16.7c0.9 0 1.9-0.4 3-1.3 1-0.9 1.9-2 2.5-3.5-4.3-2.4-6.6-5.7-6.8-9.8-1.3 1.3-2.2 3-2.8 5.1-0.6 2.1-0.5 4 0 5.6 0.7 2.6 2.1 3.9 4 3.9zm6.5-9.3c0.1-1.6 0.1-3 0-4.1-0.1-1.2-0.2-2.1-0.4-2.8-0.1-0.7-0.3-1.3-0.5-1.8-0.2-0.5-0.4-0.8-0.5-1-0.2-0.2-0.3-0.3-0.4-0.3h-0.1c-0.3 0-0.6 0.2-1 0.7-0.4 0.5-0.7 1-0.9 1.8-0.4 1.4-0.3 2.8 0.2 4.3 0.5 1.5 1.7 2.8 3.5 4v-0.6z"/>
					<path class="s12" d="m310.1 459.2c0.5 0 1 0 1.5 0.2 0.4 0.3 0.7 0.7 0.8 1.2 0.1 0.5 0 1-0.2 1.4-0.8 1.3-1.7 2.6-2.6 4.1-0.9 1.4-2.3 3.4-4.1 5.8-1.8 2.5-3.6 4.6-5.2 6.4q-2.6 2.7-5.4 4.8c-1.9 1.4-3.6 2.1-5 2.1-1.4 0-1 0-1.4-0.3q-4.8-1.8-2.7-15.3c-2.2 3-4.2 5.3-6 6.8-2.6 2.2-4.9 2.5-6.8 0.8-1.8-1.5-2.6-4.1-2.5-7.8 0.2-3.7 1.2-7.3 3.2-10.8q0.5-0.8 1.2-0.9c0.5-0.1 1 0 1.5 0.2 0.5 0.2 0.8 0.7 0.9 1.2 0.1 0.5 0 1-0.2 1.4-1.1 1.9-1.9 3.8-2.3 5.9-0.4 2.1-0.6 3.8-0.4 5.1 0.2 1.4 0.5 2.2 1 2.7 0.3 0.3 1 0 1.9-0.7 1.7-1.5 3.9-4.1 6.5-7.9 0.5-0.6 0.8-1.1 1-1.3 0.2-0.3 0.5-0.7 0.8-1.1 0.3-0.4 0.6-0.7 0.8-0.8 0.2-0.1 0.4-0.3 0.7-0.4 0.3-0.1 0.5-0.2 0.8-0.2 0.3 0 0.6 0.1 0.9 0.2 0.9 0.3 1.3 1.1 1.4 2.2 0.1 1.1 0 2.7-0.5 4.5-0.7 3.7-1 6.5-0.8 8.4 0.2 1.9 0.3 3.1 0.5 3.6 0.1 0.4 0.3 0.7 0.5 0.7 0.2 0.1 0.5 0 1-0.2q0.7-0.3 1.8-1.2c0.7-0.6 1.5-1.2 2.3-2.1 0.9-0.8 1.8-1.8 3-3.1q1.6-1.8 3.3-3.9c1.1-1.4 2.4-3.1 3.7-5q2-2.9 3.9-6c0.3-0.5 0.7-0.7 1.2-0.8z"/>
					<path class="s12" d="m343.8 458.5c0.5-0.1 1 0 1.5 0.2q0.8 0.4 0.9 1.2c0.1 0.5 0 1-0.2 1.4-2.3 4-4.2 7.2-5.9 9.5-1.7 2.3-3.4 4.2-5.1 5.5-1.7 1.3-3.4 1.9-5.1 1.7-3.3-0.4-6-4-7.9-10.8q-2.1-6.9-3.6-6.9c-0.2 0-0.5 0-0.8 0.2-0.3 0.2-1 0.8-1.8 1.8q-1.2 1.5-2.7 3.9c-1 1.7-2.2 4.1-3.8 7.4-1.6 3.3-3.2 7.1-5 11.6q-0.5 1.2-1.8 1.2c-0.9 0-0.3 0-0.4 0q-1.7-0.5-1.5-2.1c0.7-5.5 3.2-15.6 7.5-30.5 0.5-1.5 0.8-2.7 1-3.5 0.2-0.5 0.5-0.9 1-1.2 0.5-0.2 1-0.3 1.5-0.2q0.7 0.1 1.2 0.9 0.4 0.7 0 1.5c-0.1 0.5-0.5 1.6-1 3.5-1.5 5.1-2.6 9.1-3.4 12 2.1-4 4-6.8 5.6-8.3 1.6-1.5 3.1-2.3 4.6-2.2 1.7 0 3.1 1 4.2 2.7 1 1.7 2 4.1 3 7.1 1.5 5.1 3 7.8 4.7 8 0.8 0.1 1.8-0.3 3-1.3 1.2-1 2.4-2.5 3.8-4.5 1.3-2 2.3-3.5 3-4.6 0.7-1.1 1.5-2.6 2.5-4.3q0.5-0.8 1.2-0.9z"/>
				</g>
				<path class="s12" d="m375.2 507.2c-0.8 0-1.5-0.7-1.5-1.5v-65.9c0-0.8 0.7-1.5 1.5-1.5 0.8 0 1.5 0.7 1.5 1.5v65.9c0 0.9-0.7 1.5-1.5 1.5z"/>
				<g>
					<path class="s12" d="m566 511.9c-2 0-3.9-0.3-5.6-1-1.7-0.7-3.1-1.5-4.1-2.6l0.9-1.4c0.9 0.9 2.2 1.7 3.8 2.4 1.6 0.6 3.3 1 5 1 1.7 0 3.2-0.2 4.4-0.7 1.2-0.5 2-1.1 2.5-1.9 0.5-0.8 0.8-1.7 0.8-2.6 0-0.9-0.3-2.1-0.9-2.8-0.6-0.7-1.4-1.2-2.4-1.6-1-0.4-2.1-0.8-3.2-1-1.1-0.2-2.3-0.6-3.5-0.9q-1.8-0.5-3.3-1.2-1.5-0.8-2.4-2.1c-0.6-0.9-0.9-2-0.9-3.4 0-1.4 0.3-2.4 1-3.5 0.7-1.1 1.7-1.9 3.1-2.6 1.4-0.7 3.2-1 5.4-1 2.2 0 2.9 0.2 4.4 0.7 1.5 0.5 2.7 1 3.7 1.8l-0.7 1.6c-1.1-0.8-2.3-1.3-3.6-1.7-1.3-0.4-2.5-0.6-3.7-0.6-1.7 0-3.1 0.2-4.2 0.7-1.1 0.5-2 1.1-2.5 1.9-0.5 0.8-0.8 1.7-0.8 2.7 0 1 0.3 2.1 0.9 2.8 0.6 0.7 1.4 1.2 2.4 1.6 1 0.4 2.1 0.8 3.3 1 1.2 0.2 2.4 0.6 3.5 0.9 1.1 0.3 2.2 0.7 3.2 1.2q1.5 0.7 2.4 2.1c0.6 0.9 0.9 2 0.9 3.4 0 1.4-0.3 2.4-1 3.5-0.7 1.1-1.7 1.9-3.2 2.6-1.4 0.6-3.2 1-5.4 1z"/>
					<path class="s12" d="m584.4 511.7v-26.7h1.6l12.4 21.4h-0.9l12.4-21.4h1.6v26.7h-1.9v-23.8h0.5l-11.7 20.2h-1l-11.8-20.2h0.6v23.8h-1.9z"/>
					<path class="s12" d="m623.1 511.7v-26.7h2v26.7z"/>
					<path class="s12" d="m636.6 511.7v-26.7h2v24.9h15.4v1.8h-17.3z"/>
					<path class="s12" d="m663.1 510h16.5v1.8h-18.4v-26.7h17.8v1.8h-15.9v23.2zm-0.2-12.7h14.5v1.7h-14.5z"/>
					<path class="s12" d="m696 511.9c-2 0-3.9-0.3-5.6-1-1.7-0.7-3.1-1.5-4.1-2.6l0.9-1.4c0.9 0.9 2.2 1.7 3.8 2.4 1.6 0.6 3.3 1 5 1 1.7 0 3.2-0.2 4.4-0.7 1.2-0.5 2-1.1 2.5-1.9 0.5-0.8 0.8-1.7 0.8-2.6 0-0.9-0.3-2.1-0.9-2.8-0.6-0.7-1.4-1.2-2.4-1.6-1-0.4-2.1-0.8-3.2-1-1.1-0.2-2.3-0.6-3.5-0.9q-1.8-0.5-3.3-1.2-1.5-0.8-2.4-2.1c-0.6-0.9-0.9-2-0.9-3.4 0-1.4 0.3-2.4 1-3.5 0.7-1.1 1.7-1.9 3.1-2.6 1.4-0.7 3.2-1 5.4-1 2.2 0 2.9 0.2 4.4 0.7 1.5 0.5 2.7 1 3.7 1.8l-0.7 1.6c-1.1-0.8-2.3-1.3-3.6-1.7-1.3-0.4-2.5-0.6-3.7-0.6-1.7 0-3.1 0.2-4.2 0.7-1.1 0.5-2 1.1-2.5 1.9-0.5 0.8-0.8 1.7-0.8 2.7 0 1 0.3 2.1 0.9 2.8 0.6 0.7 1.4 1.2 2.4 1.6 1 0.4 2.1 0.8 3.3 1 1.2 0.3 2.4 0.6 3.5 0.9 1.1 0.3 2.2 0.7 3.2 1.2q1.5 0.7 2.4 2.1c0.6 0.9 0.9 2 0.9 3.4 0 1.4-0.3 2.4-1 3.5-0.7 1.1-1.7 1.9-3.2 2.6-1.4 0.6-3.2 1-5.4 1z"/>
				</g>
				<g>
					<path class="s12" d="m421.7 477.1c-3.1 0-6-0.5-8.9-1.4-2.9-0.9-5-2.2-6.7-3.7l2.1-4.5c1.5 1.3 3.5 2.5 5.9 3.4 2.4 0.9 4.9 1.3 7.5 1.3 2.6 0 4.3-0.3 5.7-0.8 1.5-0.5 2.5-1.3 3.2-2.2 0.7-0.9 1-2 1-3.2 0-1.2-0.5-2.5-1.4-3.4-0.9-0.8-2.1-1.5-3.5-2.1-1.4-0.6-3-1-4.8-1.4-1.7-0.4-3.5-0.8-5.2-1.4-1.8-0.5-3.4-1.2-4.8-2-1.4-0.8-2.6-1.9-3.5-3.3-0.9-1.4-1.3-3.1-1.3-5.3 0-2.2 0.5-4 1.7-5.8q1.7-2.7 5.1-4.2c2.3-1 5.2-1.6 8.8-1.6 3.6 0 4.7 0.3 7 0.9q3.5 0.9 6 2.7l-1.9 4.6c-1.7-1.2-3.6-2-5.5-2.5-1.9-0.5-3.8-0.8-5.6-0.8-1.8 0-4.2 0.3-5.6 0.9-1.4 0.6-2.5 1.3-3.2 2.3-0.7 1-1 2.1-1 3.2 0 1.1 0.5 2.6 1.4 3.4 0.9 0.8 2.1 1.5 3.5 2 1.5 0.5 3 1 4.8 1.4 1.7 0.4 3.5 0.9 5.2 1.4 1.7 0.5 3.4 1.2 4.8 2 1.4 0.8 2.6 1.9 3.5 3.2 0.9 1.3 1.3 3.1 1.3 5.2 0 2.1-0.6 3.9-1.7 5.7-1.1 1.8-2.8 3.2-5.2 4.2-2.3 1.1-5.3 1.6-8.8 1.6z"/>
					<path class="s12" d="m439.7 476.7l18.4-40.5h5.7l18.4 40.5h-6.1l-16.4-37.3h2.3l-16.4 37.3h-6zm7.8-10.2l1.6-4.6h22.8l1.7 4.6z"/>
					<path class="s12" d="m488.2 476.7v-40.5h15.8c3.5 0 6.6 0.6 9.1 1.7 2.5 1.1 4.4 2.7 5.8 4.9 1.3 2.1 2 4.7 2 7.6 0 2.9-0.7 5.5-2 7.6-1.3 2.1-3.3 3.7-5.8 4.9-2.5 1.1-5.5 1.7-9.1 1.7h-12.6l2.6-2.7v15h-5.8zm5.8-14.4l-2.6-2.9h12.5q5.5 0 8.4-2.4c1.9-1.6 2.9-3.8 2.9-6.7 0-2.9-1-5.1-2.9-6.7q-2.9-2.4-8.4-2.4h-12.5l2.6-2.9z"/>
					<path class="s12" d="m529.5 476.7v-40.5h15.8c3.5 0 6.6 0.6 9.1 1.7 2.5 1.1 4.4 2.7 5.8 4.9 1.3 2.1 2 4.7 2 7.6 0 2.9-0.7 5.5-2 7.6-1.3 2.1-3.3 3.7-5.8 4.9-2.5 1.1-5.5 1.7-9.1 1.7h-12.6l2.6-2.7v15h-5.8zm5.8-14.4l-2.6-2.9h12.5q5.5 0 8.4-2.4c1.9-1.6 2.9-3.8 2.9-6.7 0-2.9-1-5.1-2.9-6.7q-2.9-2.4-8.4-2.4h-12.5l2.6-2.9z"/>
					<path class="s12" d="m576.5 476.7h-5.8v-40.5h5.8zm23.8-18.1h-24.4v-5h24.4zm-0.5-22.5h5.8v40.5h-5.8z"/>
					<path class="s12" d="m617.8 476.7v-40.5h5.8v40.5z"/>
					<path class="s12" d="m635.7 476.7v-40.5h15.8c3.5 0 6.6 0.6 9.1 1.7 2.5 1.1 4.4 2.7 5.8 4.9 1.3 2.1 2 4.7 2 7.6 0 2.9-0.7 5.5-2 7.6-1.3 2.1-3.3 3.7-5.8 4.8-2.5 1.1-5.5 1.7-9.1 1.7h-12.6l2.6-2.7v15h-5.8zm5.8-14.4l-2.6-2.8h12.5q5.5 0 8.4-2.4c1.9-1.6 2.9-3.8 2.9-6.8 0-3-1-5.1-2.9-6.7q-2.9-2.4-8.4-2.4h-12.5l2.6-2.9zm21.3 14.4l-10.3-14.7h6.2l10.4 14.7z"/>
					<path class="s12" d="m683.6 471.6h23.6v5h-29.4v-40.5h28.6v5h-22.8zm-0.5-18h20.8v4.9h-20.8z"/>
				</g>
			</g>
		</g>
	</g>
</svg>