<svg version="1.2" xmlns="http://www.w3.org/2000/svg" viewBox="0 0 449 202" width="449" height="202">
	<title>74</title>
	<defs>
		<linearGradient id="g1" x2="1" gradientUnits="userSpaceOnUse" gradientTransform="matrix(0,-54.51,27.408,0,387.77,56.9)">
			<stop offset="0" stop-color="#ded0a8"/>
			<stop offset="1" stop-color="#9e843b"/>
		</linearGradient>
		<linearGradient id="g2" x2="1" gradientUnits="userSpaceOnUse" gradientTransform="matrix(0,54.51,-27.408,0,397.59,55.21)">
			<stop offset="0" stop-color="#ded0a8"/>
			<stop offset="1" stop-color="#9e843b"/>
		</linearGradient>
	</defs>
	<style>
		.s0 { fill: #86d0ca } 
		.s1 { fill: #9e8439 } 
		.s2 { fill: url(#g1) } 
		.s3 { fill: url(#g2) } 
	</style>
	<g id="Layer_1-2">
		<g>
			<g>
				<path class="s0" d="m90 135.2c-0.6-0.5-3.3-0.6-22.8-0.8-24.4-0.1-24.1-0.1-26.7-2.7-2.6-2.5-2.6-2.4-2.8-26.8-0.1-4.1 0-8.3-0.1-12.4q-0.1-3.1-0.3-6.2-0.1-1.6-0.2-3.1c-0.1-0.9-0.2-1.2-1.1-1.4-0.5-0.1-1-0.1-1.5-0.1-1.1-0.1-2.2-0.1-3.2 0q-2.9 0-5.7 0c-0.4 0-0.9 0-1.3 0.2-0.6 0.2-0.9 0.8-1 1.5-0.4 3.8-0.2 7.8-0.3 11.7q0 4.5 0 9c0.1 23 0.3 26.9 1.8 31.2 2.4 7 7.4 10.8 16.3 12.4 2.5 0.4 8.3 0.6 25.6 0.6 21.9 0 22.4 0 23.2-0.8 0.7-0.7 0.8-1.3 0.8-6.2 0-4.8-0.1-5.5-0.7-6.1z"/>
				<path class="s0" d="m162.9 107.6c-3.1-5.5-6.1-11.1-9.2-16.6-1.6-2.7-3.1-5.7-5.7-7.6-2.6-1.8-5.9-1.7-9-1.7-3.8 0-7.4 0.1-10.2 3.1-1.6 1.7-7 11.3-19.6 34.8-3.1 5.6-5.7 10.5-5.9 10.7-0.2 0.2-1.8 3.2-3.7 6.7-1.8 3.4-3.7 6.9-4.1 7.6-0.7 1.3-1 3-0.4 3.5 0.1 0.1 3.4 0.2 7.3 0.2h7l1-1c0.6-0.6 1-1.2 1-1.4 0-0.2 1.2-2.4 2.6-5.1 1.5-2.6 2.7-4.9 2.7-5.1 0-0.2 0.3-0.5 0.7-0.7 0.3-0.2 10.4-0.3 22.2-0.3 18.5 0.1 21.7 0.2 22.2 0.7 0.3 0.3 1.8 2.8 3.3 5.6 1.5 2.8 3.1 5.6 3.5 6.2l0.8 1.1 7.2-0.1 7.1-0.1 0.1-1.1c0.2-1.1-2.3-5.9-13.5-25.8-1.1-2.1-4.5-8.3-7.5-13.6zm-23.3 15.9c-8.5 0.1-15.6 0-15.7-0.2-0.1-0.2 2.5-5.4 5.9-11.6 8.3-15.6 9.4-17 9.4-17 0 0 1.5 1.5 2.5 3.4 8 14.4 13.1 23.9 13.2 24.6 0.1 0.7-1.2 0.7-15.3 0.8z"/>
				<path class="s0" d="m261.8 119.7c-0.7-3-3.2-6.8-5.6-8.3-4-2.5-3.9-2.5-27.1-2.7-23.2-0.3-22-0.2-23.1-2.8-0.7-1.6-0.7-6.9 0-8.2 0.2-0.5 0.9-1.3 1.6-1.8 1-0.8 1.7-0.8 26-0.9 26.9-0.1 25.2-0.2 26-1.1 2.4-3.3 2.5-8.2-0.2-11.3-0.8-0.9-0.1-0.9-28.3-0.9h-24.3c-2.1 0-4.2 0.3-6.2 0.9-7.7 2.6-10.6 8.4-10 20.1 0.4 7.4 1.6 10.9 4.7 13.8 2.4 2.1 5.3 3.3 9.3 3.8 2 0.3 11.5 0.5 21.9 0.5 16.9 0 18.5 0.1 19.3 0.7 1.5 1.2 1.8 2.3 1.8 6.2 0 3.8-0.5 5.6-2.2 6.5-0.7 0.4-6.9 0.6-27.3 0.8-23 0.1-26.5 0.2-26.9 0.8-0.1 0.3-0.4 2.9-0.4 5.8 0 4.4 0.2 5.4 0.7 6 0.6 0.7 2.1 0.7 28.9 0.7 26.8 0 28.4 0 30.9-0.7 8.7-2.4 11.8-8.1 11.2-20.9-0.2-2.7-0.5-5.8-0.7-7z"/>
				<path class="s0" d="m364.8 134.3c-10.8-13.6-13.2-16.5-15.1-18-1.2-0.9-2.2-1.9-2.3-2-0.1-0.2 0.9-1.5 2.2-2.9 1.3-1.5 4.9-5.8 7.9-9.7 3-3.9 7.3-9.5 9.6-12.5 2.3-3 4.1-5.7 4.1-6.2 0-0.5-0.4-0.9-1-1.2-1.1-0.4-11.1-0.5-13.1-0.1-1 0.2-2.5 1.9-10.2 12.1-4.9 6.5-9.5 12.4-10.3 13.1-2.2 1.7-5.3 2.2-14 2l-7.1-0.1-0.2-12.9-0.2-11.6c0-0.8-0.3-1.6-0.9-2.1-1-0.8-1.6-0.8-6.7-0.7-4.7 0.1-5.6 0.3-6.2 0.9-0.7 0.7-0.8 2.6-0.9 31.2-0.1 16.8 0 31.2 0.1 32.2 0.2 1.3 0.5 1.9 1.2 2.1 1.1 0.5 11.6 0.6 12.3 0.1 1.1-0.7 1.3-2.8 1.3-15.1v-12.6l9.9 0.1 7.6 0.1c1.4 0.1 2.8 0.5 4.1 1.2 1 0.6 2.4 1.7 2.9 2.4 0.6 0.8 4.1 5.3 7.7 10 3.8 4.8 7.8 10 9 11.5 1.4 1.7 3.5 2.7 5.7 2.7h3.5c10.7 0 10.8 0.9-0.9-14z"/>
			</g>
			<path fill-rule="evenodd" class="s0" d="m275.6 81.5h8.9c1.8 0 3.2 1.4 3.2 3.2v60.3c0 1.8-1.4 3.3-3.2 3.3h-8.9c-1.8 0-3.2-1.5-3.2-3.3v-60.3c0-1.8 1.4-3.2 3.2-3.2z"/>
			<path class="s1" d="m339.5 39.4h36.6v18.7c0 0-0.7 9.1-5 9.1h-31.6c0 0-2.5-0.1-2.5-2.4v-22.9c0 0 0.1-2.5 2.5-2.5z"/>
			<path class="s2" d="m376.1 3.2v55c0 0-0.6 9-5.2 9 0 0 4.1 0.5 9.5-4 5.3-4.5 16.3-16.1 16.3-16.1 0 0 8-6.7 8-15.4v-29c0 0 0.1-2.7-3.1-2.7h-22.9c0 0-2.6 0-2.6 3.2z"/>
			<g>
				<path class="s1" d="m285.9 191.9c-8.3 0-15.1-6.8-15.1-15.1 0-8.3 6.8-15.1 15.2-15.1 8.3 0 15.1 6.8 15.1 15.1 0 8.3-6.8 15.1-15.1 15.1zm0-25.7c-5.9 0-10.7 4.8-10.7 10.6 0 5.9 4.8 10.6 10.7 10.6 5.8 0 10.6-4.7 10.6-10.6 0-5.8-4.8-10.6-10.6-10.6z"/>
				<path class="s1" d="m273.1 201.7c-1.2 0-2.2-1-2.2-2.3v-22.6c0-1.2 1-2.2 2.2-2.2 1.3 0 2.3 1 2.3 2.2v22.6c0 1.3-1 2.3-2.3 2.3z"/>
				<path class="s1" d="m313.7 191.9c-3.3 0-5.8-0.9-7.4-2.7-1.7-2-1.6-4.3-1.5-5.1v-20.1c0-1.3 1-2.3 2.2-2.3 1.2 0 2.3 1 2.3 2.3l-0.1 20.6c0 0-0.1 0.9 0.6 1.7 0.6 0.7 2 1.1 3.9 1.1 1.3 0 2.3 1 2.3 2.3 0 1.2-1 2.2-2.3 2.2z"/>
				<path class="s1" d="m331 191.9c-9.7 0-13.1-6.8-13.5-10.4v-0.2-17.3c0-1.3 1-2.3 2.2-2.3 1.2 0 2.3 1 2.3 2.3v17.1c0.1 1 1.4 6.3 9 6.3 8.4 0 9.5-5.6 9.6-5.7 0.2-1.2 1.4-2 2.6-1.8 1.2 0.2 2 1.4 1.8 2.6-0.6 3.3-4.3 9.4-14 9.4z"/>
				<path class="s1" d="m342.8 192.8c-1.3-0.1-2.3-1.1-2.3-2.3v-26.5c0-1.3 1-2.3 2.3-2.3 1.2 0 2.2 1 2.2 2.3v26.5c0 1.2-1 2.2-2.2 2.2z"/>
				<path class="s1" d="m362.5 192.3c-9.7 0-12-5.2-12.2-5.8-0.5-1.2 0.1-2.5 1.3-2.9 1.1-0.5 2.4 0.1 2.9 1.3 0 0.1 1.4 2.9 8 2.9 6.6 0 6.6-3.4 6.6-4.5 0-0.8-1.4-4.6-7.3-4.8-6.9-0.2-10.4-3.1-10.4-8.9 0-3.1 2.8-7.9 10.7-7.9 7 0 10.8 4.6 11 4.8 0.8 0.9 0.7 2.3-0.3 3.1-1 0.8-2.4 0.7-3.2-0.3-0.1-0.1-2.7-3.1-7.5-3.1-4.5 0-6.2 2.1-6.2 3.4 0 1.8 0 4.3 6 4.4 8.8 0.2 11.7 6.5 11.7 9.3 0 2.1-0.8 9-11.1 9z"/>
			</g>
			<g>
				<path class="s1" d="m445.9 72.7h-36.7v-18.7c0 0 0.7-9.1 5.1-9.1h31.6c0 0 2.5 0.1 2.5 2.4v22.9c0 0-0.1 2.5-2.5 2.5z"/>
				<path class="s3" d="m409.2 108.9v-54.9c0 0 0.6-9.1 5.3-9.1 0 0-4.2-0.5-9.5 4-5.3 4.5-16.3 16.2-16.3 16.2 0 0-8 6.6-8 15.3v29c0 0-0.1 2.7 3.1 2.7h22.9c0 0 2.5 0 2.5-3.2z"/>
			</g>
			<g>
				<path class="s0" d="m1.4 87.2q-0.3 0-0.3-0.3v-3.7h-0.8q-0.3 0-0.3-0.3v-0.8q0-0.3 0.3-0.3h3.1q0.3 0 0.3 0.3v0.8q0 0.3-0.3 0.3h-0.8v3.7q0 0.3-0.3 0.3z"/>
				<path class="s0" d="m4.4 87.2q-0.3 0-0.3-0.3v-4.8q0-0.3 0.3-0.3h1.8c0.2 0 0.3 0.1 0.3 0.3l0.5 2.1 0.3 1.6h0.1l0.2-1.6 0.5-2.1c0.1-0.2 0.2-0.3 0.3-0.3h1.9q0.3 0 0.3 0.3v4.8q0 0.3-0.3 0.3h-0.9q-0.3 0-0.3-0.3v-1.4l0.1-2.4h-0.1l-0.9 3.8c0 0.1-0.1 0.2-0.2 0.2h-1.3c-0.2 0-0.3-0.1-0.3-0.2l-0.9-3.8v2.4 1.4q0 0.3-0.3 0.3c0 0-0.8 0-0.8 0z"/>
			</g>
		</g>
	</g>
</svg>