<svg version="1.2" xmlns="http://www.w3.org/2000/svg" viewBox="0 0 784 653" width="784" height="653">
	<title>37</title>
	<style>
		.s0 { fill: #aa8465 } 
		.s1 { fill: #066a7d } 
	</style>
	<g id="Layer_1-2">
		<g>
			<g>
				<path class="s0" d="m692.8 367.3c-7.3 1.7-15 3.1-16.7 3.6-13.2 3.6-26.4 7-39.7 10.1-73.9 17.7-150 31.3-226.1 32.9-51.3 1-102.7-2.7-153.3-11.3-26.9-4.5-53.5-10.2-79.4-18.5-33.1-10.6-70.4-23.8-98.5-44.8-1.7 1.4-1.4 2.5 0.3 3.9 73.6 59.9 177.1 86.6 270.1 91.8 16.2 0.9 32.4 1.2 48.7 0.8 66.6-1.4 132.9-12 196.8-30.7 36.2-10.6 71.8-23.4 106.6-38 1.9-0.8 3.4-1.6 4-3.5-4.2 1-8.5 2.5-12.8 3.6z"/>
				<path class="s1" d="m513.9 236.7c0.5-15.9-0.7-31.8-3.6-47.6-3.2-17-8.8-34.3-20.2-47.6-9-10.5-20.1-17.4-34.2-18-31.4-1.3-59.3 22-79.9 43.2-7 7.2-13.6 14.9-20 22.7-0.8 0.9-1.7 1.7-1.1 3.2 2.1-0.2 3.8-1.1 5.3-2.5 22-21.9 60.7-46.9 92.8-32.3 20.3 9.2 32 31 37.9 51.5 2.5 9 4.1 18.2 4.6 27.5 2.6 49.5-11.5 97.8-33.9 141.7-12 23.6-27.4 44.9-41.4 67.3-3.1 5-7.8 9.2-9 15.4 14.9-11.9 26.3-30 37-45.6 36.1-53.1 63.9-114 65.7-179.1z"/>
				<path class="s0" d="m408.8 302.9c-25.5 1-46.2-20.5-46.1-45.5 0-26.4 20.2-46.5 46.2-46.6 24.5-0.1 46.4 20.5 46.1 47.5-0.3 23.7-22 46.4-46.2 44.7z"/>
				<path class="s1" d="m423.2 334.6c-18.7 6.7-36 10.3-50.5 12.2-9 0.6-13.5 0.4-17.7-0.1-62.2-8-60.8-84.9-48-130.1 11.3-39.9 31.5-76.9 56.5-109.9 7.2-9.5 23.5-28.2 40.4-46.4 10-10.8 17.5-18.5 24.5-25.3 9.6-9.3 18.1-17 24.9-22.9-13.9 8.7-32.4 21.4-52.6 38.8-25.1 21.7-58 55.1-86 101.8-20.2 33.6-28.7 58.8-31 66-4.4 13.5-7.8 27.4-10.2 42.1-6.2 37.7-6 93 35.3 111.1 25.1 11 55.5 0 75.8-7.9 19.3-7.6 38-20.1 43.5-23.7 10.1-6.7 18.1-13.1 23.8-17.9-8.4 4.2-18 8.4-28.6 12.2zm-77.5-206.1c0.3-0.3 0.5-0.6 0.8-0.9-0.3 0.3-0.6 0.6-0.8 0.9zm10.8 243c0.8-0.3 1.6-0.4 2.4-0.6q-1.2 0.1-2.4 0.6z"/>
			</g>
			<g>
				<path class="s0" d="m97.3 566.9c-1.3 0.7-1 1.8-1 2.7 0 0.9 0 5.6 0 16.3 0 0.7 0 1.9 0 3.4 1.4 0.5 3 1.1 4.7 1.5 1.3 0.4 2.6 0.6 3.7 0.8q0 1.2 0 2.4v2.2q-15.6 0-31.2 0c-0.2-0.5-0.5-1.3-0.5-2.3 0-1 0-1.8 0.2-2.3 1-0.4 2.1-0.7 3.2-1 1.4-0.4 2.8-0.8 4.2-1.1 0-1 0-2.6 0.1-4.6 0.8-34.7 0.5-32.1 0.6-41.8 0-5.2 0-10.5 0-15.8 0-1.7-0.4-3.2-0.5-4.8-0.2-1.9-1.3-2.6-3.1-2.6-1.3 0-1.2 0.3-2.6-0.4-0.8-1.5-0.5-3.1-0.1-5.4 7.4-0.9 13.4-2.4 20.6-4.7 1.3 2.7 0.2 5 1 7 1.5 0.9 2.2-0.2 3.1-0.9 2-1.9 4-3.9 6.6-5 4.5-1.8 8.9-1.4 13.4 0 4.6 1.3 8 4 10.5 8 1.7 2.7 2.7 5.6 2.9 8.8 0.6 10.1-1.4 17.6-1.4 17.6-1.9 7.1-4.1 15.1-11.2 19.5-4.6 2.9-9.7 3.3-12.3 3.5-4.5 0.4-8.3-0.3-10.8-0.9zm21.4-26.7c0-5.9-0.5-9-2-12.6-3.4-7.8-12.2-9.4-18.4-3.9-1.4 1.2-2.5 2.4-2.5 4.5 0 7.9 0 15.8 0 23.6 0 0.9 0 1.9 0.6 2.6 2.7 3.6 6.2 6.1 10.7 5.8 4.4-0.3 7.5-3.1 9.4-7.2 2-4.3 2-8.9 2.2-12.8z"/>
				<path class="s0" d="m9.3 561.5c1-6.6 1.2-13.6 1.8-20.3 1.9 0.2 3.7 0.4 5.6 0.6 0 1.3 0 3.1 0.2 5.2 0.3 2.5 0.5 4.5 1.6 6.3 1.3 2.2 3.5 3.8 6.5 5.2 4.5 2.1 9.1 2.1 13.8 1.7 6.1-0.5 11.6-6.2 12.1-12.6 0.4-4.4-0.2-8.7-3.9-11.5-2.7-2-6.2-2.5-9.6-3.2-5.3-1.1-10.8-1.4-15.7-3.5-5.3-2.3-9-6.1-10.7-12.1-1.6-6-1.5-11.9 0.5-17.5 2.3-6.5 6.6-11.7 13.5-14.2 2-0.7 8.4-3.3 17.1-2.9 8.8 0.3 15.6 3.4 19.2 5.4-0.1 3.7-0.4 7.7-1 11.9-0.3 2-0.6 4-0.9 5.9q-2.5 0-5.1 0c0-1.1-0.2-2.1-0.3-3.2-0.3-2.6-0.8-4.9-1.3-7.1-6.2-5.2-13.1-6.1-20.5-4-3.5 1-7.7 6.3-8.1 10.4-0.5 4.6 1.7 9.5 5.7 11.4 4.2 2 8.9 2.7 13.5 3.4 5.6 0.9 11.2 1.7 15.9 5.3 4 3 6 7.2 6.5 11.9 0.4 3.3 0.5 6.8 0 10-0.6 4.1-2.2 7.9-4.7 11.3-1.2 1.7-2.5 3.2-4 4.5-5.5 5.1-11.8 6.7-14.9 7.5-3 0.8-13.2 2.9-24.6-1.5-3.6-1.4-6.4-3.1-8.3-4.4z"/>
				<path class="s1" d="m507.4 498c-6.5-5.8-13.9-7.2-22.2-6.6-7.6 0.6-13.6 3.8-18.2 9.7-7.3 9.3-7.9 24-4.7 35 1.1 3.7 5.1 14.6 15.4 19.7 11.4 5.7 25.1 1.5 32.7-0.8 1.8-0.5 3.2-1 4.1-1.4-0.7 2.8-1.4 5.6-2 8.4-18.5 9.7-39.7 8.8-53.8-2.5-10.8-8.7-13.9-20.7-14.6-24.4-4.7-24.4 9.9-47.7 34.9-51.5 16-2.4 30.5 2.5 35.5 4.4 0.7 0.3 1.3 0.5 1.7 0.7-0.3 3.5-0.8 7.2-1.4 11-0.5 3.2-1 6.3-1.6 9.2q-2.7-0.5-5.4-0.9 0.2-1.5 0.3-3.3c0-2.6-0.2-4.9-0.6-6.8z"/>
				<path class="s0" d="m257.6 561.5c0 1.8 0 3.6 0 5.3q-1.4 0-2.7 0c-6.8 0.2-13.5 0.2-20 0-0.2-14.2-0.3-28.5-0.5-42.7-0.9-0.9-3.6-3.5-7.2-3.4-1.9 0-3.5 0.9-5.3 1.8-1.8 0.9-3.1 1.9-4 2.7 0 0.8 0 2.1 0 3.6 0.1 13.1 0 18.4 0 28 0 1.1-0.2 2.2 0.7 3.4 2 0.3 4.2 0.7 6.2 1.1 0.3 0.7 0.7 1.8 0.7 3.2 0 1 0 1.9-0.2 2.5-9.4 0-18.9 0.2-28.3 0.3v-5.5c0.8-0.3 1.6-0.5 2.4-0.8 1.1-0.3 2.2-0.6 3.2-0.8 0-13.1-0.2-26.3-0.3-39.4-2.1 0-4.2 0-6.3-0.1 0-1.9 0-3.9 0-5.8 2.7-0.6 4.9-1.2 6.5-1.6 3.4-0.9 5.1-1.4 10.5-3 1.9-0.5 3.5-1 4.5-1.2 0 2.9 0 5.7 0 8.6 2.2-2.1 4.3-3.5 5.8-4.3 1.2-0.7 11.1-6.1 18.6-2.5 3.4 1.6 5.7 4 7.3 7.2 0 0 0.7 1.5 1 3.3 0.6 3.6 0.9 18.7 0.8 39.3 0.7-0.1 1.8-0.3 3.2 0 1.4 0.3 2.4 0.7 3 1z"/>
				<path class="s1" d="m638.8 561.5c0 1.8 0 3.6 0 5.3q-1.3 0-2.7 0c-6.8 0.2-12.4 0.2-18.9 0-0.2-13.6-0.3-27.3-0.5-40.9 0-1.2-0.7-2.4-1.7-3-1.7-1.1-4.2-2.2-6.6-2.1-1.9 0-3.5 0.9-5.3 1.8-1.8 0.9-3.1 1.9-4 2.7 0 0.8 0 2.1 0 3.6 0.1 13.1 0 18.4 0 28 0 1.1-0.2 2.2 0.7 3.4 2 0.3 4.2 0.7 6.2 1.1 0.3 0.7 0.7 1.8 0.7 3.2 0 1 0 1.9-0.2 2.5-9.4 0-18.8 0.2-28.3 0.3v-5.5c0.8-0.3 1.6-0.5 2.4-0.8 1.1-0.3 2.2-0.6 3.2-0.8 0-13.1-0.2-26.3-0.3-39.4-2.1 0-4.2 0-6.3-0.1 0-1.9 0-3.9 0-5.8 2.7-0.6 4.9-1.2 6.5-1.6 3.4-0.9 5.1-1.4 10.5-3 1.9-0.5 3.5-1 4.5-1.2 0 2.9 0 5.7 0 8.6 2.2-2.1 4.3-3.5 5.8-4.3 1.2-0.7 11.1-6.1 18.6-2.5 3.4 1.6 5.7 4 7.3 7.2 0 0 0.7 1.5 1 3.3 0.6 3.6 0.9 18.7 0.8 39.3 0.7-0.1 1.8-0.3 3.2 0 1.4 0.3 2.4 0.7 3 1z"/>
				<path class="s0" d="m409 560.4c-1.3-0.2-2.5 0-3.2 0 0-20.6-0.2-35.7-0.8-39.3-0.3-1.8-1-3.3-1-3.3-1-1.9-2.2-3.5-3.8-4.8 0 0-1.6-1.4-3.6-2.3-5.4-2.5-12.9-1.4-18.5 1.1-1.9 0.9-4.7 2.4-7.6 5.1 0-12.2 0-24.4-0.1-36.6-3.2 1.4-7 2.8-11.5 3.8-3.5 0.8-6.8 1.3-9.7 1.6 0 1.6 0 3.1 0 4.7 1.3 0 2.6 0 3.8 0 0.3 23 0.5 46.1 0.8 69.1-1.6 0.1-2.7 0.2-4.3 0.4 0 2.6 0 5.2 0 7.7 9.5 0 17.2-0.1 26.6-0.2v-7.8c-2.3 0-3.3 0-5.6-0.1-0.2-15.6-0.4-27-0.4-29.9 0-0.5 0-1.7 0.5-3.2 0.5-1.2 1.3-2.2 2.4-3.1 0.8-0.7 1.7-1.2 2.5-1.6 0.9-0.5 3.1-1.5 6-1.1 4.7 0.7 7.1 4.5 7.4 5.1 0 13.7 0.2 27.3 0.3 41 6.5 0.2 13.2 0.3 20 0q1.3 0 2.7 0c0-1.8 0-3.6 0-5.3-0.6-0.4-1.7-0.8-3-1z"/>
				<path class="s0" d="m153 520.9c0 0.7 0 1.6 0 2.6 0 1.8-0.2 2.1-0.4 2.3-0.6 0.7-1.7 0.6-3.1 0.5-0.9 0-2.3-0.3-3.9-0.9-0.5-2.5-0.1-5-0.3-7.6 1.6-1.7 4.5-4.4 8.7-6.4 2.4-1.1 10.3-4.8 18.8-1.7 1.6 0.6 6.1 2.3 9 6.7 2.8 4.2 2.8 8.7 2.8 11.4 0 9.1 0 19.9-0.3 32.4 0.4 0 0.8 0 1.1 0.1 1 0.1 1.9 0.3 2.7 0.5 0.8 2.1 0.5 4.3 0.2 6.9-6.7 0-11.5-0.2-18.3-0.3 0-2.2-0.2-4.4-0.3-6.5-1.2 1.6-3.9 5-8.7 6.6-5.4 1.9-13.4 1.6-17.8-3.7-4-4.8-3.1-11-2.8-12.8 0.7-4.9 3.2-8.1 4.1-9.2 2.8-3.5 6.1-5.1 8.1-6 3.6-1.7 6.9-2.2 12.4-3 2-0.3 3.6-0.5 4.7-0.6 0.2-0.7 1.6-6.6-1.8-10.1-3.8-3.9-11-2.3-13.1-1.8-0.9 0.2-1.6 0.4-2 0.6zm17.2 18.2c-4.3-0.9-11.4 1.8-13.5 4.9-2.5 3.7-2.2 9.1 0.6 11.4 4.1 3.2 12 0.2 12.8-5.2 0.5-3.6 0.1-7.4 0.1-11.1z"/>
				<path class="s0" d="m306.3 548.5c-0.2 0.9-0.8 4 0.8 7 1.1 2.2 2.8 3.3 3.8 3.9 4.6 2.9 11.4 2.9 15-0.3 2.6-2.3 2.9-5.1 2.2-8.1-0.7-2.7-3.1-4.2-5.5-4.7-4.9-1.2-9.8-2.3-14.4-4.1-3.3-1.3-6.1-3.9-6.9-7.5-1.5-6.6-1.6-13 3.3-18.7 1.3-1.6 2.8-2.8 4.4-3.8 3.4-2.1 6.7-2.5 9.7-2.8 4.8-0.5 8.5 0 12.1 0.7 2.7 0.4 5 1 6.5 1.4v15.1h-5.9q0-0.9 0-2.4c-0.1-1.1-0.3-3.5-1.8-5.2-2-2.2-5.3-2.7-8.6-2.6-2.8 0-5.5 0.7-7.2 3.5-1.9 3.1-1.6 6 1.6 7.9 4 2.4 8.6 3 13 3.9 7.2 1.4 12.2 5.5 12.9 13.3 0.5 4.9-0.3 9.2-2.4 12.8-2.5 4.2-6 6.2-8.1 7.4-7 3.9-14 3.2-17.3 2.9-2.8-0.3-7.4-1.2-12.5-4 0-5.2 0-10.4-0.1-15.6h5.5c0 0.1 0 0.1 0 0.1z"/>
				<path class="s1" d="m648.3 522.6c-0.9 0.1-2 0.2-3.1 0.2-1.1 0-2.1 0-3-0.1 0-0.5-0.2-1-0.2-1.5 0-1 0-1.8 0-2.5 0.9-0.7 1.9-1.4 2.9-2.1 1.3-0.9 2.5-1.7 3.8-2.5 0-3 0-6-0.1-9.1 0-3.1-0.2-6.2-0.4-9.2 2-0.2 4.8-0.8 7.8-2 2.8-1.2 5-2.6 6.6-3.8 0 3.8 0.2 7.7 0.2 11.6 0 4 0 8 0 11.9q4.2 0 8.4 0h3.5c0 1.5 0.2 3.1 0.2 4.7 0 1.5 0 2.9 0 4.3-2.1 0-4.2 0-6.4 0-2.2 0-3.8 0-5.7 0 0 0.8 0 2 0.1 3.4 0.2 9.4-0.1 14.1 0 18 0 3 0 6.1 0.5 9.1 0.3 2.1 1.4 3.5 3.6 3.5 2.2 0 4.5-0.2 6.8-0.3 0.6 0.6 0.9 1.2 1 1.8 0 0.8-0.2 1.3-0.6 2.1-1 1.8-1.6 2.8-2.8 4.2-1.2 1.4-1.8 2.1-2.9 2.6-0.4 0.2-1 0.6-2.6 0.5-2.3 0-4.7 0-7.1 0-2.6 0-4.2-0.7-5.8-1.8-3.4-2.3-4.1-6.7-4.3-8.1-0.2-11.8-0.3-23.5-0.5-35.3z"/>
				<path class="s1" d="m567.9 538.8c-4.8 0-9.7 0-14.5 0-5.3 0-10.7 0-16 0 0.2 6.1 1.6 11.3 5.7 15.2 7.3 7.1 15.4 5.5 23.4 1.2 1.5 0.9 1.3 2.1 1.1 3.4-1 4.2-4.3 5.8-7.8 7.2-5.3 2.2-11 2.5-16.5 1.7-8-1.2-14.3-5.3-17.6-13.3-3.8-8.9-3.4-17.9-1.3-27 2.5-11 15.8-18.7 26.7-17.4 6.8 0.8 11.3 5.1 11.6 5.4 4.1 3.9 5.2 8.6 5.8 11.1 1.2 5.6 0.3 10.2-0.4 12.5zm-21.9-5.8c3.5 0 6.9 0 10.4 0.1 0.2-1.3 0.5-3.6-0.3-6.3-0.4-1.6-1.2-4.2-3.5-5.9-3-2.2-7.4-2.2-10.5-0.3-2.4 1.5-3.4 3.8-3.9 5-1.3 3-1.1 5.8-0.9 7.1q4.4 0.2 8.7 0.3z"/>
				<path class="s1" d="m725.7 538.8c-4.8 0-9.7 0-14.5 0-5.3 0-10.7 0-16 0 0.2 6.1 1.6 11.3 5.7 15.2 7.3 7.1 15.4 5.5 23.4 1.2 1.6 0.9 1.3 2.1 1.1 3.4-1 4.2-4.3 5.8-7.8 7.2-5.3 2.2-11 2.5-16.5 1.7-8-1.2-14.3-5.3-17.6-13.3-3.8-8.9-3.4-17.9-1.3-27 2.5-11 15.8-18.7 26.7-17.4 6.8 0.8 11.3 5.1 11.6 5.4 4.1 3.9 5.2 8.6 5.8 11.1 1.2 5.6 0.3 10.2-0.4 12.5zm-21.9-5.8c3.5 0 6.9 0 10.4 0.1 0.2-1.3 0.5-3.6-0.3-6.3-0.4-1.6-1.2-4.2-3.5-5.9-3-2.2-7.4-2.2-10.5-0.3-2.4 1.5-3.4 3.8-3.9 5-1.3 3-1.1 5.8-0.9 7.1q4.4 0.2 8.7 0.3z"/>
				<path class="s0" d="m293 561.2l-0.2 6.1c-9.6 0-19.3-0.1-28.9-0.2v-6.1c1.9-0.2 3.9-0.5 5.8-0.7 0-13.4 0-26.7 0-40-0.9 0-1.8 0-2.8 0-0.8 0-1.5 0-2.2 0 0-2.1 0-4.3 0-6.4 7.8 0 11.4-1.1 13.1-2.2 0.4-0.3 2-1.3 4.2-1.7 1.3-0.2 2.4-0.1 3.1 0 0.2 16.6 0.3 33.3 0.5 49.9 1.5 0.2 3 0.5 4.6 0.8 1 0.2 1.9 0.4 2.9 0.6z"/>
				<path class="s0" d="m275.9 503c-4.9 0-9.2-4.3-9.2-9.4 0-4.7 4.6-10.3 8.8-10 4.8 0.3 9.3 3.7 9.3 10 0 5.3-4 9.4-9 9.3z"/>
				<path class="s1" d="m774.3 510c-8.9-3.2-13.5 2.3-17.7 9.2-1.2-3.7 0-6.8-0.9-9.4-2.5-1-5.8 0.9-8.2 1.6-3.5 1.1-6.7 1.2-10.6 1.9-1.9 0.3-3.4 0.6-4.5 0.8 0 0.8-0.1 1.9-0.2 3.2 0 2.6 0.2 2.9 0.4 3.1 0.7 0.6 1.6 0.2 3.6 0.3 1.3 0 2.4 0.4 3.1 0.7 0.8 0.7 0.7 1.6 0.8 2.4 0.6 10-0.1 19.9 0 29.8 0 2.2-0.2 4.3-1.1 6.3-2.1 0.2-4.2 0.4-6 1-0.8 0.9-0.6 1.9-0.7 2.7-0.2 1.6 0 2.6 0.6 3.3 0.9 1.1 2.7 0.9 3.3 0.9 3.3-0.2 12.6-0.2 25.4 0 0.3 0 2 0.5 3-0.4 0.4-0.4 0.6-0.8 0.7-1.4 0.2-1.7 0.4-3.4-0.3-5.1-2.6-1-5.4-0.7-8-1.1-0.2-0.9-0.6-1.7-0.6-2.5-0.2-8.9-0.4-17.7 0-26.6 0.2-3.1 2.3-5.1 5.1-6 2.8-0.8 5.7-1 7.6 2.2 0.3 0.6 0.8 1 1.4 1.1 0.6 0.2 1.1 0 1.4 0 1.3-0.3 2.1-1.3 2.4-1.8 0-5.4 0-10.8 0.1-16.2z"/>
				<g>
					<path fill-rule="evenodd" class="s1" d="m148.1 604.2h-5.9v31.3h14.6v-5.7h-8.7v-25.6z"/>
					<path class="s1" d="m170.9 604.2l-12.1 31.3h6.2l2.5-6.4h12.8l2.5 6.4h6.2l-12-31.3h-6zm-1.2 19l4.2-10.8 4.2 10.8z"/>
					<path class="s1" d="m207.2 620.2c-0.5-0.5-1.9-1.7-4.1-3.6-2.4-2.1-3.9-3.4-4.4-4-0.4-0.5-0.5-1-0.5-1.5 0-0.5 0.2-1 0.8-1.4 0.6-0.4 1.1-0.6 1.9-0.6 1.6 0 3.2 1.1 4.7 3.2l4.4-3.9c-1.6-1.9-3.2-3.2-4.6-4-1.4-0.7-2.9-1.1-4.5-1.1-2.4 0-4.5 0.8-6.1 2.3-1.6 1.5-2.5 3.4-2.5 5.6 0 2.2 0.5 3 1.5 4.5 1 1.5 3.2 3.7 6.6 6.4 1.8 1.5 3 2.6 3.5 3.3 0.5 0.7 0.8 1.4 0.8 2.1 0 0.7-0.4 1.5-1 2.1-0.7 0.6-1.6 0.9-2.6 0.9-2 0-3.7-1.4-5.2-4.1l-5 3c1.2 2.3 2.6 4.1 4.2 5.1 1.6 1 3.6 1.6 5.8 1.6 2.2 0 5.2-0.8 7-2.5 1.8-1.7 2.7-3.8 2.7-6.4 0-2.6-0.2-2.5-0.8-3.6-0.5-1.1-1.4-2.3-2.6-3.5z"/>
					<path fill-rule="evenodd" class="s1" d="m215.8 604.2h5.9v31.3h-5.9z"/>
					<path fill-rule="evenodd" class="s1" d="m250.2 604.2h-7.2l-8.5 10.8v-10.8h-6v31.3h6v-13.9l9.6 13.9h7.1l-12-17.4 11-13.9z"/>
					<path fill-rule="evenodd" class="s1" d="m253.6 639.3l2.9 1.3 5.3-8.9-4.2-2.1-4 9.7z"/>
					<path fill-rule="evenodd" class="s1" d="m279.9 635.5h17.1v-5.9h-11.2v-8.2h11.2v-5.7h-11.2v-5.7h11.2v-5.8h-17.1v31.3z"/>
					<path fill-rule="evenodd" class="s1" d="m312.5 615.4l-5.8-11.2h-6.4l9.2 17.7v13.6h6v-13.6l9.2-17.7h-6.4l-5.8 11.2z"/>
					<path fill-rule="evenodd" class="s1" d="m329.6 635.5h17.1v-5.9h-11.2v-8.2h11.2v-5.7h-11.2v-5.7h11.2v-5.8h-17.1v31.3z"/>
					<path class="s1" d="m365.9 620.2c-0.5-0.5-1.9-1.7-4.1-3.6-2.4-2.1-3.9-3.4-4.4-4-0.4-0.5-0.5-1-0.5-1.5 0-0.5 0.2-1 0.8-1.4 0.6-0.4 1.1-0.6 1.9-0.6 1.6 0 3.2 1.1 4.7 3.2l4.4-3.9c-1.7-1.9-3.2-3.2-4.6-4-1.4-0.7-2.9-1.1-4.5-1.1-2.4 0-4.5 0.8-6.1 2.3-1.6 1.5-2.5 3.4-2.5 5.6 0 2.2 0.5 3 1.5 4.5 1 1.5 3.2 3.7 6.6 6.4 1.8 1.5 3 2.6 3.5 3.3 0.5 0.7 0.8 1.4 0.8 2.1 0 0.7-0.3 1.5-1 2.1-0.7 0.6-1.6 0.9-2.6 0.9-2 0-3.7-1.4-5.2-4.1l-5 3c1.2 2.3 2.6 4.1 4.2 5.1 1.6 1 3.6 1.6 5.8 1.6 2.2 0 5.2-0.8 7-2.5 1.8-1.7 2.7-3.8 2.7-6.4 0-2.6-0.2-2.5-0.8-3.6-0.5-1.1-1.4-2.3-2.6-3.5z"/>
					<path class="s1" d="m408.6 628.7l1.6-1.5-3.5-4.1c-1.9 1.6-3 2.6-3.5 2.9-0.7-0.7-2.4-2.6-4.9-5.6 2.2-2.1 3.6-3.8 4.2-4.9 0.6-1.1 0.9-2.2 0.9-3.4 0-1.2-0.7-3-2-4.5-1.3-1.5-3.2-2.2-5.7-2.2-2.5 0-4.3 0.8-5.6 2.3-1.3 1.5-2 3-2 4.6 0 1.6 1 4.5 3 7.2-2 1.6-3.5 3.1-4.3 4.6-0.8 1.5-1.3 3-1.3 4.7 0 1.7 0.7 4 2.2 5.4 1.5 1.4 3.4 2.1 5.8 2.1 2.4 0 5.9-1 9.2-2.9l2.1 2.1h7.2l-5-5.3 1.6-1.4zm-14.2-17.3c0.4-0.4 0.8-0.6 1.4-0.6 0.6 0 1 0.2 1.4 0.5 0.3 0.3 0.5 0.8 0.5 1.3q0 1.5-2.4 3.6c-1-1.3-1.5-2.5-1.5-3.5 0-1 0.2-1 0.6-1.3zm-0.2 19.5c-0.9 0-1.6-0.3-2.2-0.8-0.6-0.5-0.9-1.1-0.9-1.7 0-1.3 1-2.8 3.2-4.6 2 2.5 3.5 4.3 4.6 5.4-1.9 1.1-3.5 1.7-4.7 1.7z"/>
					<path class="s1" d="m443.9 609.1q5.3 0 9.6 4.5l4.2-4c-1.7-2-3.8-3.6-6.2-4.6-2.4-1-4.9-1.6-7.5-1.6-2.6 0-5.9 0.7-8.5 2.2-2.6 1.5-4.7 3.4-6.1 5.9-1.4 2.5-2.1 5.2-2.1 8.3 0 4.8 1.5 8.8 4.7 11.9 3.1 3.1 7.1 4.6 12 4.6 4.9 0 5-0.4 7-1.3 2-0.9 4.2-2.4 6.5-4.7l-4-4.2c-1.7 1.7-3.3 2.9-4.7 3.5-1.4 0.6-3 1-4.7 1-1.7 0-3.9-0.5-5.5-1.4-1.7-0.9-2.9-2.2-3.8-3.8-0.9-1.6-1.4-3.5-1.4-5.6 0-3 1-5.5 3.1-7.6 2.1-2.1 4.6-3.1 7.6-3.1z"/>
					<path class="s1" d="m477.7 603.4c-2.9 0-5.7 0.7-8.2 2.2q-3.7 2.3-6 6c-1.5 2.5-2.2 5.3-2.2 8.3 0 4.5 1.5 8.3 4.7 11.6 3.2 3.3 7 4.9 11.7 4.9 4.7 0 8.3-1.6 11.5-4.8 3.1-3.2 4.7-7 4.7-11.6q0-6.9-4.8-11.7-4.8-4.8-11.4-4.8zm7.2 24c-2 2-4.4 3.1-7.2 3.1-2.8 0-4.7-0.8-6.7-2.4-2.5-2-3.7-4.8-3.7-8.2 0-3.4 1-5.7 3-7.7 2-2 4.4-3 7.3-3 2.9 0 5.3 1 7.3 3.1 2 2.1 3 4.6 3 7.6 0 3-1 5.5-3 7.6z"/>
					<path class="s1" d="m513.2 620.2c-0.5-0.5-1.9-1.7-4.1-3.6-2.4-2.1-3.9-3.4-4.4-4-0.4-0.5-0.5-1-0.5-1.5 0-0.5 0.2-1 0.8-1.4 0.6-0.4 1.1-0.6 1.9-0.6 1.6 0 3.2 1.1 4.7 3.2l4.4-3.9c-1.7-1.9-3.2-3.2-4.6-4-1.4-0.7-2.9-1.1-4.5-1.1-2.4 0-4.5 0.8-6.1 2.3-1.6 1.5-2.5 3.4-2.5 5.6 0 2.2 0.5 3 1.5 4.5 1 1.5 3.2 3.7 6.6 6.4 1.8 1.5 3 2.6 3.5 3.3 0.5 0.7 0.8 1.4 0.8 2.1 0 0.7-0.3 1.5-1 2.1-0.7 0.6-1.6 0.9-2.6 0.9-2 0-3.7-1.4-5.2-4.1l-5 3c1.2 2.3 2.6 4.1 4.2 5.1 1.6 1 3.6 1.6 5.8 1.6 2.2 0 5.2-0.8 7-2.5 1.8-1.7 2.7-3.8 2.7-6.4 0-2.6-0.2-2.5-0.8-3.6-0.5-1.1-1.4-2.3-2.6-3.5z"/>
					<path fill-rule="evenodd" class="s1" d="m545.6 604.2l-7.3 21.8-7.3-21.8h-5.8l-5.4 31.3h5.8l3.4-19.8 6.6 19.8h5.3l6.6-19.8 3.4 19.8h5.7l-5.2-31.3h-5.8z"/>
					<path fill-rule="evenodd" class="s1" d="m561.4 635.5h17.1v-5.9h-11.2v-8.2h11.2v-5.7h-11.2v-5.7h11.2v-5.8h-17.1v31.3z"/>
					<path fill-rule="evenodd" class="s1" d="m581 610h5.5v25.5h6.1v-25.5h5.7v-5.8h-17.3v5.8z"/>
					<path fill-rule="evenodd" class="s1" d="m601.9 604.2h5.9v31.3h-5.9z"/>
					<path class="s1" d="m634.4 629.6c-1.4 0.6-3 1-4.7 1-1.7 0-3.9-0.5-5.5-1.4-1.7-0.9-2.9-2.2-3.8-3.8-0.9-1.6-1.4-3.5-1.4-5.6 0-3 1-5.5 3.1-7.6 2.1-2.1 4.6-3.1 7.6-3.1 3 0 6.7 1.5 9.6 4.5l4.2-4c-1.7-2-3.8-3.6-6.2-4.6-2.4-1-4.9-1.6-7.5-1.6-2.6 0-5.9 0.7-8.5 2.2-2.6 1.5-4.7 3.4-6.1 5.9-1.4 2.5-2.1 5.2-2.1 8.3 0 4.8 1.5 8.8 4.7 11.9 3.1 3.1 7.1 4.6 12 4.6 4.9 0 5-0.4 7-1.3 2-0.9 4.2-2.4 6.5-4.7l-4-4.2c-1.7 1.7-3.3 2.9-4.7 3.5z"/>
				</g>
			</g>
		</g>
	</g>
</svg>