<svg version="1.2" xmlns="http://www.w3.org/2000/svg" viewBox="0 0 709 521" width="709" height="521">
	<title>36</title>
	<style>
		.s0 { fill: #d2ad8a } 
		.s1 { fill: #3e96a9 } 
		.s2 { fill: #cea886 } 
	</style>
	<g id="Layer_1-2">
		<g>
			<g>
				<path class="s0" d="m543.5 242.1c-4.6 1.1-9.4 2-10.5 2.3-8.3 2.2-16.6 4.4-25 6.4-46.5 11.1-94.4 19.7-142.3 20.7-32.3 0.7-64.6-1.7-96.5-7.1-16.9-2.9-33.6-6.4-49.9-11.6-20.8-6.7-44.3-15-61.9-28.2-1.1 0.9-0.9 1.6 0.2 2.4 46.3 37.7 111.4 54.5 169.9 57.8 10.2 0.6 20.4 0.7 30.6 0.5 41.9-0.9 83.6-7.6 123.8-19.3 22.8-6.7 45.1-14.8 67.1-23.9 1.2-0.5 2.1-1 2.5-2.2-2.6 0.6-5.3 1.6-8 2.2z"/>
				<path class="s1" d="m425.7 225.8c0.3-10-0.4-20-2.3-29.9-2-10.7-5.5-21.6-12.7-29.9-5.7-6.6-12.6-10.9-21.5-11.3-19.8-0.8-37.3 13.8-50.2 27.2-4.4 4.6-8.6 9.4-12.6 14.3-0.5 0.6-1.1 1.1-0.7 2 1.3-0.1 2.4-0.7 3.3-1.6 13.8-13.8 38.2-29.5 58.4-20.3 12.8 5.8 20.2 19.5 23.8 32.4 1.6 5.6 2.6 11.5 2.9 17.3 1.6 31.2-7.2 61.6-21.3 89.2-7.6 14.9-17.2 28.3-26 42.4-2 3.2-4.9 5.8-5.7 9.7 9.4-7.5 16.6-18.9 23.3-28.7 22.7-33.4 40.2-71.7 41.3-112.7z"/>
				<path class="s0" d="m404.7 142.9c-16 0.6-29.1-12.9-29-28.6 0-16.6 12.7-29.2 29.1-29.3 15.4 0 29.2 12.9 29 29.9-0.2 14.9-13.8 29.2-29 28.1z"/>
				<path class="s1" d="m373.9 221.6c-11.8 4.2-22.6 6.4-31.7 7.7-5.7 0.3-8.5 0.3-11.2 0-39.1-5-38.3-53.4-30.2-81.9 7.1-25.1 19.8-48.3 35.5-69.1 4.5-6 14.8-17.7 25.4-29.2 6.3-6.8 11-11.6 15.4-15.9 6-5.9 11.4-10.7 15.7-14.4-8.7 5.5-20.4 13.5-33.1 24.4-15.8 13.6-36.5 34.7-54.1 64-12.7 21.2-18 37-19.5 41.5-2.8 8.5-4.9 17.3-6.4 26.5-3.9 23.7-3.8 58.5 22.2 69.9 15.8 6.9 34.9 0 47.7-5 12.2-4.8 23.9-12.6 27.3-14.9 6.3-4.2 11.4-8.2 15-11.2-5.3 2.7-11.3 5.3-18 7.7zm-48.8-129.7c0.2-0.2 0.3-0.4 0.5-0.6-0.2 0.2-0.4 0.3-0.5 0.6zm6.8 152.9c0.5-0.2 1-0.3 1.5-0.4-0.5 0-1 0.2-1.5 0.4z"/>
			</g>
			<g>
				<g>
					<path class="s1" d="m271.7 430c-0.8 0.4-0.6 1.1-0.6 1.7 0 0.6 0 3.4 0 10.1 0 0.4 0 1.2 0 2.1 0.9 0.3 1.8 0.7 2.9 0.9 0.8 0.2 1.6 0.4 2.3 0.5v2.8q-9.6 0-19.2 0c-0.1-0.3-0.3-0.8-0.3-1.4 0-0.6 0-1.1 0.1-1.4 0.6-0.2 1.3-0.4 2-0.6 0.9-0.3 1.7-0.5 2.6-0.7 0-0.6 0-1.6 0-2.8 0.5-21.4 0.3-19.8 0.4-25.8 0-3.2 0-6.5 0-9.7 0-1-0.2-2-0.3-3-0.1-1.2-0.8-1.6-1.9-1.6-1.1 0-0.7 0.2-1.6-0.3-0.5-0.9-0.3-1.9 0-3.3 4.6-0.5 8.2-1.5 12.7-2.9 0.8 1.7 0.2 3.1 0.6 4.3 0.9 0.5 1.4 0 1.9-0.6 1.3-1.2 2.5-2.4 4.1-3.1 2.7-1.1 5.5-0.8 8.3 0 2.8 0.8 4.9 2.5 6.5 4.9 1 1.6 1.7 3.5 1.8 5.4 0.4 6.2-0.9 10.9-0.9 10.9-1.2 4.4-2.5 9.3-6.9 12-2.9 1.8-6 2-7.6 2.1-2.8 0.2-5.1-0.2-6.7-0.6zm13.2-16.5c0-3.7-0.3-5.6-1.2-7.8-2.1-4.8-7.5-5.8-11.4-2.4-0.9 0.8-1.6 1.5-1.5 2.8 0 4.9 0 9.7 0 14.6 0 4.9 0 1.1 0.4 1.6 1.6 2.2 3.9 3.8 6.6 3.6 2.7-0.2 4.6-1.9 5.8-4.4 1.3-2.7 1.2-5.5 1.4-7.9z"/>
					<path class="s1" d="m217.4 426.7c0.6-4.1 0.8-8.4 1.1-12.5 1.1 0.1 2.3 0.2 3.4 0.3 0 0.8 0 1.9 0.2 3.2 0.2 1.5 0.3 2.8 1 3.9 0.8 1.4 2.2 2.3 4 3.2 2.8 1.3 5.6 1.3 8.5 1.1 3.7-0.3 7.1-3.8 7.5-7.8 0.2-2.7-0.1-5.4-2.4-7.1-1.7-1.2-3.8-1.5-5.9-2-3.2-0.7-6.6-0.8-9.7-2.2-3.3-1.4-5.6-3.8-6.6-7.4-1-3.7-1-7.4 0.3-10.8 1.4-4 4.1-7.2 8.3-8.7 1.2-0.5 5.2-2 10.6-1.8 5.5 0.2 9.6 2.1 11.9 3.3 0 2.3-0.3 4.8-0.6 7.3-0.2 1.2-0.4 2.5-0.5 3.6-1 0-2.1 0-3.1 0 0-0.7-0.1-1.3-0.2-2-0.2-1.6-0.5-3-0.8-4.4-3.8-3.2-8.1-3.7-12.7-2.5-2.2 0.6-4.7 3.9-5 6.4-0.3 2.9 1.1 5.9 3.5 7 2.6 1.2 5.5 1.7 8.3 2.1 3.4 0.6 6.9 1 9.8 3.3 2.5 1.9 3.7 4.4 4 7.3 0.2 2 0.3 4.2 0 6.2-0.4 2.5-1.4 4.9-2.9 7-0.7 1.1-1.6 2-2.5 2.8-3.4 3.1-7.3 4.2-9.2 4.6-1.9 0.5-8.1 1.8-15.2-0.9-2.2-0.9-4-1.9-5.1-2.7z"/>
					<path class="s1" d="m524.5 387.5c-4-3.6-8.6-4.4-13.7-4.1-4.7 0.3-8.4 2.3-11.2 6-4.5 5.7-4.9 14.8-2.9 21.6 0.7 2.3 3.1 9 9.5 12.2 7 3.5 15.5 0.9 20.1-0.5 1.1-0.3 2-0.6 2.5-0.9-0.4 1.7-0.8 3.5-1.3 5.2-11.4 6-24.5 5.4-33.2-1.5-6.7-5.4-8.6-12.8-9-15.1-2.9-15 6.1-29.4 21.5-31.7 9.9-1.5 18.8 1.5 21.9 2.7 0.4 0.2 0.8 0.3 1 0.4-0.2 2.2-0.5 4.4-0.9 6.8-0.3 2-0.6 3.9-1 5.7-1.1-0.2-2.2-0.4-3.3-0.5 0-0.6 0.1-1.3 0.2-2q0-2.4-0.3-4.2z"/>
					<path class="s1" d="m370.5 426.6q0 1.6 0 3.3c-0.5 0-1.1 0-1.6 0q-6.3 0.2-12.3 0c0-8.8-0.2-17.6-0.3-26.3-0.5-0.6-2.2-2.2-4.4-2.1-1.2 0-2.2 0.5-3.2 1.1-1.1 0.6-1.9 1.2-2.5 1.6 0 0.5 0 1.3 0 2.2 0 8.1 0 11.3 0 17.2 0 0.7-0.2 1.3 0.4 2.1 1.2 0.2 2.6 0.4 3.8 0.7 0.2 0.4 0.4 1.1 0.4 2 0 0.6 0 1.2-0.1 1.6-5.8 0-11.6 0.1-17.4 0.2v-3.4c0.5-0.2 1-0.3 1.5-0.5 0.7-0.2 1.4-0.3 2-0.5 0-8.1-0.1-16.2-0.2-24.3q-2 0-3.9 0 0-1.8 0-3.6c1.7-0.4 3-0.8 4-1 2.1-0.5 3.2-0.9 6.5-1.8 1.2-0.3 2.2-0.6 2.8-0.8 0 1.8 0 3.5 0 5.3 1.4-1.3 2.7-2.1 3.6-2.6 0.8-0.4 6.8-3.7 11.5-1.6 2.1 1 3.5 2.5 4.5 4.4 0 0 0.4 0.9 0.6 2.1 0.3 2.2 0.5 11.5 0.5 24.2 0.4 0 1.1-0.2 2 0 0.8 0.1 1.5 0.4 1.9 0.6z"/>
					<path class="s1" d="m605.5 426.6q0 1.6 0 3.3c-0.5 0-1.1 0-1.6 0-4.2 0.1-7.7 0.1-11.7 0 0-8.4-0.2-16.8-0.3-25.2 0-0.8-0.4-1.5-1-1.9-1-0.7-2.6-1.4-4.1-1.3-1.2 0-2.2 0.5-3.2 1.1-1.1 0.6-1.9 1.2-2.5 1.6 0 0.5 0 1.3 0 2.2 0 8.1 0 11.3 0 17.2 0 0.7-0.2 1.3 0.4 2.1 1.2 0.2 2.6 0.4 3.8 0.7 0.2 0.4 0.4 1.1 0.4 2 0 0.6 0 1.2-0.1 1.6-5.8 0-11.6 0.1-17.4 0.2v-3.4c0.5-0.2 1-0.3 1.5-0.5 0.7-0.2 1.3-0.3 2-0.5 0-8.1-0.1-16.2-0.2-24.3q-2 0-3.9 0 0-1.8 0-3.6c1.7-0.4 3-0.8 4-1 2.1-0.5 3.2-0.9 6.5-1.8 1.2-0.3 2.2-0.6 2.8-0.8 0 1.8 0 3.5 0 5.3 1.4-1.3 2.7-2.1 3.6-2.6 0.8-0.4 6.8-3.7 11.5-1.6 2.1 1 3.5 2.5 4.5 4.4 0 0 0.4 0.9 0.6 2.1 0.3 2.2 0.5 11.5 0.5 24.2 0.4 0 1.1-0.2 2 0 0.8 0.1 1.5 0.4 1.9 0.6z"/>
					<path class="s1" d="m463.8 426c-0.8-0.1-1.5 0-2 0 0-12.7-0.1-22-0.5-24.2-0.2-1.1-0.6-2.1-0.6-2.1-0.6-1.2-1.4-2.2-2.3-3 0 0-1-0.8-2.2-1.4-3.3-1.6-7.9-0.9-11.4 0.7-1.2 0.5-2.9 1.5-4.7 3.1q0-11.2 0-22.5c-2 0.8-4.3 1.7-7.1 2.4-2.2 0.5-4.2 0.8-6 1 0 1 0 1.9 0 2.9q1.2 0 2.4 0c0.2 14.2 0.3 28.4 0.5 42.6-1 0-1.7 0.2-2.7 0.2q0 2.4 0 4.8c5.8 0 10.6 0 16.4-0.1v-4.8c-1.4 0-2.1 0-3.5 0-0.2-9.6-0.2-16.7-0.3-18.4 0-0.3 0-1.1 0.3-1.9 0.3-0.7 0.8-1.3 1.5-1.9 0.5-0.4 1-0.8 1.6-1 0.5-0.3 1.9-0.9 3.7-0.7 2.9 0.4 4.4 2.8 4.6 3.1 0 8.4 0.1 16.8 0.2 25.3q6 0.3 12.3 0c0.5 0 1.1 0 1.6 0q0-1.6 0-3.3c-0.4-0.2-1-0.5-1.9-0.6z"/>
					<path class="s1" d="m306 401.6c0 0.4 0 1 0 1.6 0 1.1-0.1 1.3-0.2 1.4-0.4 0.4-1 0.4-1.9 0.3-0.5 0-1.4-0.2-2.4-0.6-0.3-1.5 0-3.1-0.2-4.7 1-1 2.8-2.7 5.4-4 1.5-0.7 6.3-3 11.6-1 1 0.4 3.7 1.4 5.5 4.1 1.7 2.6 1.7 5.4 1.7 7 0 5.6 0 12.2-0.2 20 0.2 0 0.5 0 0.7 0 0.6 0 1.2 0.2 1.7 0.3 0.5 1.3 0.3 2.6 0.1 4.2-4.2 0-7.1-0.1-11.3-0.2 0-1.3-0.1-2.7-0.2-4-0.7 1-2.4 3.1-5.4 4.1-3.3 1.2-8.2 1-11-2.3-2.5-2.9-1.9-6.8-1.7-7.9 0.5-3 2-5 2.5-5.7 1.8-2.2 3.8-3.2 5-3.7 2.2-1.1 4.3-1.3 7.6-1.8 1.2-0.2 2.2-0.3 2.9-0.3 0.1-0.4 1-4.1-1.1-6.2-2.3-2.4-6.8-1.4-8.1-1.1-0.5 0.1-1 0.2-1.3 0.4zm10.6 11.3c-2.7-0.6-7 1.1-8.3 3-1.5 2.3-1.4 5.6 0.4 7 2.5 2 7.4 0.2 7.9-3.2 0.3-2.2 0-4.5 0-6.8z"/>
					<path class="s1" d="m400.5 418.6c-0.1 0.6-0.5 2.5 0.5 4.3 0.7 1.3 1.7 2 2.3 2.4 2.8 1.8 7 1.8 9.2-0.2 1.6-1.4 1.8-3.1 1.3-5-0.4-1.7-1.9-2.6-3.4-2.9-3-0.7-6-1.4-8.9-2.6-2-0.8-3.8-2.4-4.2-4.6-0.9-4.1-1-8 2-11.5 0.8-1 1.8-1.7 2.7-2.3 2.1-1.3 4.1-1.5 6-1.7 2.9-0.3 5.3 0 7.5 0.4 1.7 0.3 3.1 0.6 4 0.9v9.3h-3.6q0-0.6 0-1.5c0-0.7-0.2-2.2-1.1-3.2-1.2-1.4-3.3-1.7-5.3-1.6-1.7 0-3.4 0.5-4.4 2.2-1.2 1.9-1 3.7 1 4.9 2.5 1.5 5.3 1.8 8 2.4 4.5 0.9 7.5 3.4 8 8.2 0.3 3-0.2 5.7-1.5 7.9-1.5 2.6-3.7 3.8-5 4.5-4.3 2.4-8.7 2-10.7 1.8-1.7-0.2-4.5-0.7-7.7-2.4q0-4.8 0-9.6c1.1 0 2.3 0 3.4 0z"/>
					<path class="s1" d="m611.4 402.7c-0.6 0-1.2 0.1-1.9 0.2q-1 0-1.8 0c0-0.3 0-0.6-0.1-0.9q0-0.9 0-1.5c0.6-0.4 1.2-0.9 1.8-1.3 0.8-0.5 1.6-1.1 2.3-1.5 0-1.8 0-3.7 0-5.6 0-1.9-0.1-3.8-0.2-5.7 1.2-0.2 2.9-0.5 4.8-1.3 1.7-0.7 3.1-1.6 4-2.3 0 2.4 0.1 4.8 0.2 7.2 0 2.5 0 4.9 0 7.3 1.7 0 3.4 0 5.2 0h2.1c0 0.9 0 1.9 0.1 2.9q0 1.3 0 2.7-1.9 0-3.9 0c-1.3 0-2.3 0-3.5 0q0 0.7 0 2.1c0.1 5.8 0 8.7 0 11.1 0 1.9 0 3.8 0.3 5.6 0.2 1.3 0.8 2.2 2.2 2.2 1.4 0 2.8-0.1 4.2-0.2 0.4 0.3 0.5 0.7 0.6 1.1 0 0.5-0.1 0.8-0.4 1.3-0.6 1.1-1 1.7-1.7 2.6-0.7 0.8-1.1 1.3-1.8 1.6-0.3 0.1-0.6 0.4-1.6 0.3-1.5 0-2.9 0-4.3 0-1.6 0-2.6-0.4-3.6-1.1-2.1-1.4-2.5-4.1-2.6-5-0.1-7.3-0.2-14.5-0.3-21.8z"/>
					<path class="s1" d="m561.8 412.6q-4.5 0-9 0-5 0-9.9 0c0 3.7 1 6.9 3.5 9.4 4.5 4.4 9.5 3.4 14.4 0.7 1 0.6 0.8 1.3 0.7 2.1-0.6 2.6-2.7 3.6-4.8 4.4-3.3 1.3-6.8 1.6-10.2 1-5-0.8-8.8-3.3-10.9-8.2-2.3-5.5-2.1-11.1-0.8-16.7 1.5-6.8 9.8-11.5 16.4-10.7 4.2 0.5 7 3.1 7.2 3.3 2.5 2.4 3.2 5.3 3.5 6.9 0.8 3.4 0.2 6.3-0.2 7.7zm-13.5-3.5c2.1 0 4.3 0 6.4 0 0.2-0.8 0.3-2.2-0.2-3.9-0.3-1-0.7-2.6-2.2-3.7-1.8-1.4-4.6-1.3-6.5-0.2-1.5 0.9-2.1 2.3-2.4 3.1-0.8 1.9-0.7 3.6-0.6 4.4 1.8 0 3.6 0.1 5.4 0.2z"/>
					<path class="s1" d="m659.1 412.6q-4.5 0-9 0-4.9 0-9.9 0c0 3.7 1 6.9 3.5 9.4 4.5 4.4 9.5 3.4 14.4 0.7 1 0.6 0.8 1.3 0.7 2.1-0.6 2.6-2.7 3.6-4.8 4.4-3.3 1.3-6.8 1.6-10.2 1-5-0.8-8.8-3.3-10.9-8.2-2.3-5.5-2.1-11.1-0.8-16.7 1.5-6.8 9.8-11.5 16.4-10.7 4.2 0.5 7 3.1 7.2 3.3 2.5 2.4 3.2 5.3 3.5 6.9 0.8 3.4 0.2 6.3-0.2 7.7zm-13.5-3.5c2.1 0 4.3 0 6.4 0 0.2-0.8 0.3-2.2-0.2-3.9-0.3-1-0.7-2.6-2.2-3.7-1.8-1.4-4.6-1.3-6.5-0.2-1.5 0.9-2.1 2.3-2.4 3.1-0.8 1.9-0.7 3.6-0.6 4.4 1.8 0 3.6 0.1 5.4 0.2z"/>
					<path class="s1" d="m392.4 426.5v3.8c-6.1 0-12 0-17.9-0.1v-3.8c1.2-0.2 2.4-0.3 3.6-0.5 0-8.2 0-16.5 0-24.7q-0.7 0-1.8 0c-0.5 0-1 0-1.4 0 0-1.3 0-2.6 0-4 4.8 0 7-0.7 8.1-1.3 0.3-0.2 1.2-0.8 2.6-1 0.8-0.1 1.5 0 1.9 0 0 10.2 0.2 20.5 0.3 30.8 0.9 0.2 1.9 0.3 2.8 0.5 0.6 0.1 1.2 0.2 1.8 0.4z"/>
					<path class="s1" d="m381.8 390.6c-3 0-5.6-2.7-5.7-5.8 0-2.9 2.8-6.3 5.5-6.1 2.9 0.2 5.7 2.3 5.8 6.1 0 3.3-2.5 5.8-5.5 5.8z"/>
					<path class="s1" d="m689 394.9c-5.5-2-8.3 1.4-10.9 5.7-0.7-2.3 0-4.2-0.6-5.8-1.6-0.6-3.6 0.5-5.1 1-2.2 0.7-4.1 0.7-6.6 1.2-1.1 0.2-2.1 0.3-2.8 0.5 0 0.5 0 1.2 0 1.9 0 1.6 0.1 1.8 0.2 1.9 0.4 0.4 1 0.1 2.2 0.2 0.8 0 1.5 0.3 1.9 0.4 0.5 0.5 0.4 1 0.5 1.5 0.4 6.2 0 12.2 0 18.4 0 1.3-0.1 2.6-0.7 3.9-1.3 0.2-2.6 0.2-3.7 0.6-0.5 0.5-0.4 1.2-0.5 1.7-0.1 1 0 1.6 0.4 2.1 0.6 0.7 1.7 0.6 2 0.6 2.1-0.1 7.8 0 15.6 0 0.2 0 1.2 0.3 1.8-0.2 0.2-0.2 0.3-0.5 0.4-0.8 0.2-1 0.2-2.1-0.2-3.1-1.6-0.6-3.3-0.4-5-0.7-0.2-0.6-0.4-1.1-0.4-1.5-0.1-5.5-0.3-10.9 0-16.4 0-1.9 1.4-3.2 3.2-3.7 1.8-0.5 3.5-0.6 4.7 1.3 0.2 0.3 0.5 0.6 0.9 0.7 0.4 0.1 0.7 0 0.9 0 0.8-0.2 1.3-0.8 1.5-1.1 0-3.3 0-6.7 0-10z"/>
				</g>
				<g>
					<g>
						<path class="s1" d="m109.8 465.5h5.9v25.4h8.6v5.6h-14.5z"/>
						<path class="s1" d="m138.3 465.5h6l11.9 31h-6.1l-2.4-6.4h-12.6l-2.5 6.4h-6.1l11.9-31zm3 8.2l-4.2 10.6h8.3z"/>
						<path class="s1" d="m177 469.7l-4.4 3.9c-1.5-2.1-3.1-3.2-4.7-3.2-1.6 0-1.4 0.2-1.9 0.6-0.5 0.4-0.7 0.9-0.7 1.4 0 0.5 0.2 1 0.5 1.5 0.5 0.6 1.9 1.9 4.3 4 2.3 1.9 3.6 3.1 4.1 3.6 1.2 1.2 2 2.4 2.5 3.5 0.5 1.1 0.7 2.3 0.7 3.6 0 2.5-0.9 4.6-2.6 6.3-1.8 1.7-4 2.5-6.9 2.5-2.9 0-4.1-0.5-5.8-1.6q-2.4-1.7-4.2-5.1l5-3c1.5 2.7 3.2 4.1 5.1 4.1 1.9 0 1.9-0.3 2.6-0.9 0.7-0.6 1-1.3 1-2 0-0.7-0.3-1.4-0.8-2.1-0.5-0.7-1.7-1.8-3.4-3.2-3.4-2.8-5.6-4.9-6.5-6.4q-1.5-2.2-1.5-4.5c0-2.1 0.8-4 2.5-5.5 1.6-1.5 3.7-2.3 6.1-2.3 2.4 0 3 0.4 4.4 1.1q2.1 1.1 4.5 3.9z"/>
						<path class="s1" d="m182.7 465.5h5.9v31h-5.9z"/>
						<path class="s1" d="m195.3 465.5h6v10.7l8.4-10.7h7.1l-10.8 13.8 11.9 17.2h-7l-9.6-13.8v13.8h-6z"/>
						<path class="s1" d="m224.1 490.7l4.1 2.1-5.2 8.9-2.9-1.4z"/>
						<path class="s1" d="m246.1 465.5h16.9v5.8h-11.1v5.6h11.1v5.7h-11.1v8.2h11.1v5.8h-16.9v-31z"/>
						<path class="s1" d="m266.4 465.5h6.3l5.8 11.1 5.8-11.1h6.3l-9.1 17.6v13.4h-5.9v-13.4l-9.1-17.6z"/>
						<path class="s1" d="m295.3 465.5h16.9v5.8h-11.1v5.6h11.1v5.7h-11.1v8.2h11.1v5.8h-16.9v-31z"/>
						<path class="s1" d="m334 469.7l-4.4 3.9c-1.5-2.1-3.1-3.2-4.7-3.2-1.6 0-1.4 0.2-1.9 0.6-0.5 0.4-0.7 0.9-0.7 1.4 0 0.5 0.2 1 0.5 1.5 0.5 0.6 1.9 1.9 4.3 4 2.3 1.9 3.6 3.1 4.1 3.6 1.2 1.2 2 2.4 2.5 3.5 0.5 1.1 0.7 2.3 0.7 3.6 0 2.5-0.9 4.6-2.6 6.3-1.8 1.7-4 2.5-6.9 2.5-2.9 0-4.1-0.5-5.8-1.6-1.7-1.1-3-2.8-4.2-5.1l5-3c1.5 2.7 3.2 4.1 5.1 4.1 1.9 0 1.9-0.3 2.6-0.9 0.7-0.6 1-1.3 1-2 0-0.7-0.3-1.4-0.8-2.1-0.5-0.7-1.7-1.8-3.4-3.2-3.4-2.8-5.6-4.9-6.5-6.4q-1.5-2.2-1.5-4.5c0-2.1 0.8-4 2.5-5.5 1.6-1.5 3.7-2.3 6.1-2.3 2.4 0 3 0.4 4.4 1.1q2.1 1.1 4.5 3.9z"/>
						<path class="s1" d="m371.7 484.3l3.5 4-1.6 1.5-1.6 1.4 5 5.3h-7.2l-2-2.1c-3.3 1.9-6.3 2.9-9.1 2.9-2.8 0-4.3-0.7-5.8-2.1-1.5-1.4-2.2-3.2-2.2-5.4 0-2.2 0.4-3.2 1.2-4.7 0.8-1.5 2.3-3 4.3-4.5-2-2.7-3-5.1-3-7.1 0-2 0.7-3 2-4.5 1.3-1.5 3.2-2.2 5.6-2.2 2.4 0 4.3 0.7 5.6 2.2 1.3 1.5 1.9 3 1.9 4.5 0 1.5-0.3 2.3-0.9 3.4-0.6 1.1-2 2.7-4.1 4.8 2.5 3 4.1 4.8 4.9 5.5 0.4-0.3 1.6-1.3 3.4-2.9zm-7.7 6c-1.1-1.1-2.6-2.8-4.6-5.3-2.1 1.7-3.1 3.2-3.1 4.5 0 1.3 0.3 1.2 0.9 1.7 0.6 0.5 1.3 0.8 2.2 0.8 1.2 0 2.8-0.6 4.7-1.7zm-3.5-12.8c1.6-1.3 2.3-2.5 2.3-3.5 0-1-0.2-1-0.5-1.3-0.4-0.3-0.8-0.5-1.4-0.5-0.6 0-1 0.2-1.4 0.6-0.4 0.4-0.6 0.8-0.6 1.3 0 1 0.5 2.2 1.5 3.5z"/>
						<path class="s1" d="m422.1 471l-4.1 3.9c-2.8-3-6-4.4-9.5-4.4-3.5 0-5.5 1-7.5 3q-3 3-3 7.5c0 3 0.4 3.9 1.3 5.5 0.9 1.6 2.2 2.9 3.8 3.8 1.6 0.9 3.5 1.4 5.5 1.4 2 0 3.3-0.3 4.7-1 1.4-0.6 3-1.8 4.7-3.5l4 4.2c-2.3 2.2-4.5 3.8-6.5 4.6-2 0.8-4.4 1.3-7 1.3-4.8 0-8.8-1.5-11.8-4.6-3.1-3.1-4.6-7-4.6-11.7 0-4.7 0.7-5.8 2.1-8.2 1.4-2.4 3.4-4.3 6-5.8 2.6-1.5 5.4-2.2 8.4-2.2 3 0 5 0.5 7.4 1.6 2.4 1.1 4.4 2.6 6.1 4.6z"/>
						<path class="s1" d="m441.9 464.7c4.4 0 8.2 1.6 11.3 4.8 3.2 3.2 4.7 7 4.7 11.6 0 4.6-1.6 8.3-4.7 11.5-3.1 3.1-6.9 4.7-11.3 4.7-4.4 0-8.5-1.6-11.6-4.8-3.1-3.2-4.6-7-4.6-11.5 0-4.5 0.7-5.7 2.2-8.2 1.4-2.5 3.4-4.5 5.9-5.9 2.5-1.4 5.2-2.2 8.1-2.2zm0 5.8q-4.4 0-7.2 3c-1.9 2-2.9 4.5-2.9 7.6 0 3.1 1.2 6.1 3.7 8.1 1.9 1.6 4.1 2.3 6.6 2.3 2.5 0 5.2-1 7.1-3q3-3 3-7.5c0-3-1-5.4-3-7.5-2-2-4.4-3.1-7.2-3.1z"/>
						<path class="s1" d="m479.8 469.7l-4.4 3.9c-1.5-2.1-3.1-3.2-4.7-3.2-1.6 0-1.4 0.2-1.9 0.6-0.5 0.4-0.7 0.9-0.7 1.4 0 0.5 0.2 1 0.5 1.5 0.5 0.6 1.9 1.9 4.3 4 2.3 1.9 3.6 3.1 4.1 3.6 1.2 1.2 2 2.4 2.5 3.5 0.5 1.1 0.7 2.3 0.7 3.6 0 2.5-0.9 4.6-2.6 6.3-1.8 1.7-4 2.5-6.9 2.5-2.9 0-4.1-0.5-5.8-1.6-1.7-1.1-3-2.8-4.2-5.1l5-3c1.5 2.7 3.2 4.1 5.1 4.1 1.9 0 1.9-0.3 2.6-0.9 0.7-0.6 1-1.3 1-2 0-0.7-0.3-1.4-0.8-2.1-0.5-0.7-1.7-1.8-3.4-3.2-3.4-2.8-5.6-4.9-6.5-6.4q-1.5-2.2-1.5-4.5c0-2.1 0.8-4 2.5-5.5 1.6-1.5 3.7-2.3 6.1-2.3 2.4 0 3 0.4 4.4 1.1q2.1 1.1 4.5 3.9z"/>
						<path class="s1" d="m489 465.5h5.7l7.2 21.6 7.2-21.6h5.7l5.2 31h-5.7l-3.3-19.6-6.6 19.6h-5.2l-6.5-19.6-3.4 19.6h-5.8l5.4-31z"/>
						<path class="s1" d="m524.8 465.5h16.9v5.8h-11.1v5.6h11.1v5.7h-11.1v8.2h11.1v5.8h-16.9v-31z"/>
						<path class="s1" d="m544.2 465.5h17.1v5.8h-5.6v25.2h-6v-25.2h-5.5z"/>
						<path class="s1" d="m564.9 465.5h5.9v31h-5.9z"/>
						<path class="s1" d="m605.9 471l-4.1 3.9c-2.8-3-6-4.4-9.5-4.4-3.5 0-5.5 1-7.5 3q-3 3-3 7.5c0 3 0.4 3.9 1.3 5.5 0.9 1.6 2.2 2.9 3.8 3.8 1.6 0.9 3.5 1.4 5.5 1.4 2 0 3.3-0.3 4.7-1 1.4-0.6 3-1.8 4.7-3.5l4 4.2c-2.3 2.2-4.5 3.8-6.5 4.6-2 0.8-4.4 1.3-7 1.3-4.8 0-8.8-1.5-11.8-4.6-3.1-3.1-4.6-7-4.6-11.7 0-4.7 0.7-5.8 2.1-8.2 1.4-2.4 3.4-4.3 6-5.8 2.6-1.5 5.4-2.2 8.4-2.2 3 0 5 0.5 7.4 1.6 2.4 1.1 4.4 2.6 6.1 4.6z"/>
					</g>
				</g>
				<g>
					<path class="s2" d="m64.3 424.7c-0.6-0.4-1.1-1-1.8-1.7-1.8-1.8-3.4-3.9-6.3-8-2.1-3.2-5-7.6-6.5-10.3 6.4-2.9 9.6-7.5 9.6-13.5 0-6-2-8.5-5.6-10.8-3-2-6.9-2.8-13.2-2.8h-21v3.9h0.7c5.6 0.4 6.1 0.5 6.1 6.7v30.6c0 6.1-0.4 6.3-6.4 6.8h-0.7v3.8h22.9v-3.7h-0.7c-5.9-0.5-6.3-0.7-6.3-6.9v-11.2h1.4c3.8 0 4.9 0.8 6.2 2.8 0.9 1.3 1.8 2.8 2.7 4.4 1.6 2.7 3.3 5.4 5 7.8 2.7 3.8 5.3 5.8 9 6.7 0 0 0.1 0 0.2 0 0.8 0.2 1.7 0.4 2.7 0.5 1.3 0.2 2.9 0.4 5.1 0.4 2.2 0 3.8-0.2 5.4-0.5v-3c-1.4 0-3.4-0.2-5.7-0.9-1.1-0.3-2-0.7-2.9-1.1zm-18.3-23.3c-1.8 1.4-4.2 2-8.1 2h-2.7v-18.2c0-1.9 0.3-2.5 0.5-2.7 0.2-0.2 1.1-0.6 3.8-0.6 2.7 0 10.5 1 10.5 10.5 0 9.5-1.2 6.8-3.9 8.9z"/>
					<path class="s2" d="m87.6 393.3c-7.7 0-18.6 6-18.6 19.3 0 13.3 6.5 17.7 18.6 17.7 12.1 0 18.2-6.7 18.2-19.1 0-12.4-8-17.9-18.2-17.9zm0.8 32.7c-5.7 0-9.8-6.6-9.8-16.1 0-9.5 4.1-12.5 7.9-12.5h0.1c5.8 0 9.5 6.1 9.5 15.5 0 9.4-2.6 13.1-7.8 13.1z"/>
					<path class="s2" d="m129.5 397.7h0.7c1.4 0.3 3.2 0.6 3.6 1.3 0.2 0.4 0.1 1-0.2 2.1-1.4 4.2-4.2 11.8-6.2 16.7l-6.4-17q-0.6-1.7-0.3-2.1c0.3-0.5 1.7-0.8 2.8-1h0.7c0-0.1-0.2-3.6-0.2-3.6h-18.1v3.5h0.7c3.9 0.7 4.5 1.5 6.1 5.3 2 4.6 5.4 13.5 9.1 23.7 0.3 0.9 0.5 1.5 0.4 2.2 0 0.4-0.2 0.7-0.2 0.8-1.5 3.8-3 6.4-3 6.4-0.4 0.8-1 1.8-1.6 3.1-0.6 1.1-1.6 1.8-2.9 1.9-0.9 0-1.4 0-2.3-0.1-1.5-0.2-2.8-0.5-3.9 0.3-0.9 0.7-1.2 1.8-1.2 2.1-0.1 0.4-0.3 1.3 0 2.3 0.4 1.2 1.6 1.9 2.8 1.9 1.2 0 1.9 0 3.5 0h0.6c3.5 0 6.5-2.1 7.6-5.4 1.2-3.4 3.1-8 6.7-16.2 2.2-5.2 4-9.3 5.4-12.6 2-4.8 3.4-7.9 4.5-10.2 2-4.3 2.5-4.7 6.4-5.2h0.7v-3.6h-15.9v3.5z"/>
					<path class="s2" d="m176.6 422.7c-0.8 0.5-1.7 0.7-2.4 0.7-1.3 0-2-1.4-2-3.8v-13.9c0-4.9-1.2-8-4.1-10.4-1.8-1.4-4.2-2.1-7-2.1h-0.1c-4.5 0.9-9.9 3.9-12.3 5.6-1.5 1-2.9 2.2-2.9 3.8 0 1.6 2.4 4.2 4.4 4.2 2 0 2.7-0.8 3.3-2.5 0.7-2.6 1.4-4.1 2.2-4.9 0.7-0.7 1.6-1.1 2.7-1.1 3.4 0 5.5 2.9 5.5 7.7v1c-1.6 1.1-5.9 2.8-11.6 4.6-4.7 1.5-6.9 4.2-6.9 8.3 0 4.1 3.9 10.3 10.5 10.3 6.6 0 4.7-1.8 7.6-3.7 0.4-0.2 0.7-0.5 1-0.7 0.4 0.9 0.9 1.8 1.8 2.6 1 1 2.9 1.8 4.6 1.8h0.2l7.7-4.5-1.4-3.6-0.8 0.4zm-12.7-0.9c-1.3 1.2-3.5 2.1-5 2.1-1.5 0-4.6-1.4-4.6-5.1 0-3.7 1.2-3.6 4.3-5 1.3-0.6 3.6-1.6 5.2-2.4v10.4z"/>
					<path class="s2" d="m197.9 425.7c-4.7-0.4-5.1-0.6-5.1-5.4v-47.7l-1 0.3c-3 0.9-7.9 2.2-12 2.7h-0.7v3.4h0.7c3.1 0.4 4.7 2.1 4.7 5.1v36.2c0 4.7-0.3 4.8-4.9 5.4h-0.7v3.6h19.7v-3.6h-0.7z"/>
				</g>
			</g>
		</g>
	</g>
</svg>