<svg version="1.2" xmlns="http://www.w3.org/2000/svg" viewBox="0 0 749 270" width="749" height="270">
	<title>Asset 2</title>
	<defs>
		<linearGradient id="g1" x2="1" gradientUnits="userSpaceOnUse" gradientTransform="matrix(-186.35,-310.24,302.207,-181.525,437.83,222.18)">
			<stop offset="0" stop-color="#a9824f"/>
			<stop offset=".29" stop-color="#dfd3b0"/>
			<stop offset=".63" stop-color="#e4ceb0"/>
			<stop offset="1" stop-color="#b2865c"/>
		</linearGradient>
		<linearGradient id="g2" x2="1" gradientUnits="userSpaceOnUse" gradientTransform="matrix(-186.35,-310.24,258.651,-155.362,481.73,195.81)">
			<stop offset="0" stop-color="#a9824f"/>
			<stop offset=".29" stop-color="#dfd3b0"/>
			<stop offset=".63" stop-color="#e4ceb0"/>
			<stop offset="1" stop-color="#b2865c"/>
		</linearGradient>
		<linearGradient id="g3" x2="1" gradientUnits="userSpaceOnUse" gradientTransform="matrix(-186.35,-310.23,310.741,-186.657,502.48,183.34)">
			<stop offset="0" stop-color="#a9824f"/>
			<stop offset=".29" stop-color="#dfd3b0"/>
			<stop offset=".63" stop-color="#e4ceb0"/>
			<stop offset="1" stop-color="#b2865c"/>
		</linearGradient>
		<linearGradient id="g4" x2="1" gradientUnits="userSpaceOnUse" gradientTransform="matrix(-186.35,-310.23,308.124,-185.085,555.99,151.2)">
			<stop offset="0" stop-color="#a9824f"/>
			<stop offset=".29" stop-color="#dfd3b0"/>
			<stop offset=".63" stop-color="#e4ceb0"/>
			<stop offset="1" stop-color="#b2865c"/>
		</linearGradient>
		<linearGradient id="g5" x2="1" gradientUnits="userSpaceOnUse" gradientTransform="matrix(-186.35,-310.24,287.964,-172.97,596.73,126.73)">
			<stop offset="0" stop-color="#a9824f"/>
			<stop offset=".11" stop-color="#bea174"/>
			<stop offset=".29" stop-color="#dfd3b0"/>
			<stop offset=".63" stop-color="#e4ceb0"/>
			<stop offset="1" stop-color="#b2865c"/>
		</linearGradient>
		<linearGradient id="g6" x2="1" gradientUnits="userSpaceOnUse" gradientTransform="matrix(-186.36,-310.24,308.135,-185.095,638.26,101.79)">
			<stop offset="0" stop-color="#a9824f"/>
			<stop offset=".29" stop-color="#dfd3b0"/>
			<stop offset=".63" stop-color="#e4ceb0"/>
			<stop offset="1" stop-color="#b2865c"/>
		</linearGradient>
		<linearGradient id="g7" x2="1" gradientUnits="userSpaceOnUse" gradientTransform="matrix(-186.35,-310.24,307.761,-184.861,683.29,74.74)">
			<stop offset="0" stop-color="#a9824f"/>
			<stop offset=".29" stop-color="#dfd3b0"/>
			<stop offset=".63" stop-color="#e4ceb0"/>
			<stop offset="1" stop-color="#b2865c"/>
		</linearGradient>
		<linearGradient id="g8" x2="1" gradientUnits="userSpaceOnUse" gradientTransform="matrix(-186.35,-310.24,272.68,-163.789,720.96,52.11)">
			<stop offset="0" stop-color="#a9824f"/>
			<stop offset=".29" stop-color="#dfd3b0"/>
			<stop offset=".63" stop-color="#e4ceb0"/>
			<stop offset="1" stop-color="#b2865c"/>
		</linearGradient>
		<linearGradient id="g9" x2="1" gradientUnits="userSpaceOnUse" gradientTransform="matrix(-186.35,-310.23,309.541,-185.936,409.47,239.21)">
			<stop offset="0" stop-color="#a9824f"/>
			<stop offset=".29" stop-color="#dfd3b0"/>
			<stop offset=".63" stop-color="#e4ceb0"/>
			<stop offset="1" stop-color="#b2865c"/>
		</linearGradient>
		<linearGradient id="g10" x2="1" gradientUnits="userSpaceOnUse" gradientTransform="matrix(-186.35,-310.23,204.345,-122.747,434.91,223.93)">
			<stop offset="0" stop-color="#a9824f"/>
			<stop offset=".29" stop-color="#dfd3b0"/>
			<stop offset=".63" stop-color="#e4ceb0"/>
			<stop offset="1" stop-color="#b2865c"/>
		</linearGradient>
		<linearGradient id="g11" x2="1" gradientUnits="userSpaceOnUse" gradientTransform="matrix(-186.36,-310.23,239.797,-144.05,468.38,203.83)">
			<stop offset="0" stop-color="#a9824f"/>
			<stop offset=".29" stop-color="#dfd3b0"/>
			<stop offset=".63" stop-color="#e4ceb0"/>
			<stop offset="1" stop-color="#b2865c"/>
		</linearGradient>
		<linearGradient id="g12" x2="1" gradientUnits="userSpaceOnUse" gradientTransform="matrix(-186.35,-310.23,307.752,-184.861,499.42,185.18)">
			<stop offset="0" stop-color="#a9824f"/>
			<stop offset=".29" stop-color="#dfd3b0"/>
			<stop offset=".63" stop-color="#e4ceb0"/>
			<stop offset="1" stop-color="#b2865c"/>
		</linearGradient>
		<linearGradient id="g13" x2="1" gradientUnits="userSpaceOnUse" gradientTransform="matrix(-186.36,-310.24,239.801,-144.048,530.23,166.68)">
			<stop offset="0" stop-color="#a9824f"/>
			<stop offset=".29" stop-color="#dfd3b0"/>
			<stop offset=".63" stop-color="#e4ceb0"/>
			<stop offset="1" stop-color="#b2865c"/>
		</linearGradient>
		<linearGradient id="g14" x2="1" gradientUnits="userSpaceOnUse" gradientTransform="matrix(-186.35,-310.24,309.55,-185.935,562.46,147.32)">
			<stop offset="0" stop-color="#a9824f"/>
			<stop offset=".29" stop-color="#dfd3b0"/>
			<stop offset=".63" stop-color="#e4ceb0"/>
			<stop offset="1" stop-color="#b2865c"/>
		</linearGradient>
		<linearGradient id="g15" x2="1" gradientUnits="userSpaceOnUse" gradientTransform="matrix(-186.35,-310.23,254.385,-152.805,358.6,269.77)">
			<stop offset="0" stop-color="#a9824f"/>
			<stop offset=".29" stop-color="#dfd3b0"/>
			<stop offset=".63" stop-color="#e4ceb0"/>
			<stop offset="1" stop-color="#b2865c"/>
		</linearGradient>
		<linearGradient id="g16" x2="1" gradientUnits="userSpaceOnUse" gradientTransform="matrix(-186.35,-310.23,312.491,-187.708,389.76,251.05)">
			<stop offset="0" stop-color="#a9824f"/>
			<stop offset=".29" stop-color="#dfd3b0"/>
			<stop offset=".63" stop-color="#e4ceb0"/>
			<stop offset="1" stop-color="#b2865c"/>
		</linearGradient>
		<linearGradient id="g17" x2="1" gradientUnits="userSpaceOnUse" gradientTransform="matrix(-186.35,-310.23,312.553,-187.745,415.9,235.35)">
			<stop offset="0" stop-color="#a9824f"/>
			<stop offset=".29" stop-color="#dfd3b0"/>
			<stop offset=".63" stop-color="#e4ceb0"/>
			<stop offset="1" stop-color="#b2865c"/>
		</linearGradient>
		<linearGradient id="g18" x2="1" gradientUnits="userSpaceOnUse" gradientTransform="matrix(-186.35,-310.23,203.717,-122.369,431.11,226.21)">
			<stop offset="0" stop-color="#a9824f"/>
			<stop offset=".29" stop-color="#dfd3b0"/>
			<stop offset=".63" stop-color="#e4ceb0"/>
			<stop offset="1" stop-color="#b2865c"/>
		</linearGradient>
		<linearGradient id="g19" x2="1" gradientUnits="userSpaceOnUse" gradientTransform="matrix(-186.35,-310.23,274.762,-165.045,444.73,218.03)">
			<stop offset="0" stop-color="#a9824f"/>
			<stop offset=".29" stop-color="#dfd3b0"/>
			<stop offset=".63" stop-color="#e4ceb0"/>
			<stop offset="1" stop-color="#b2865c"/>
		</linearGradient>
		<linearGradient id="g20" x2="1" gradientUnits="userSpaceOnUse" gradientTransform="matrix(-186.35,-310.24,308.936,-185.567,469.92,202.91)">
			<stop offset="0" stop-color="#a9824f"/>
			<stop offset=".29" stop-color="#dfd3b0"/>
			<stop offset=".63" stop-color="#e4ceb0"/>
			<stop offset="1" stop-color="#b2865c"/>
		</linearGradient>
		<linearGradient id="g21" x2="1" gradientUnits="userSpaceOnUse" gradientTransform="matrix(-186.35,-310.24,208.907,-125.483,501.48,183.95)">
			<stop offset="0" stop-color="#a9824f"/>
			<stop offset=".29" stop-color="#dfd3b0"/>
			<stop offset=".63" stop-color="#e4ceb0"/>
			<stop offset="1" stop-color="#b2865c"/>
		</linearGradient>
		<linearGradient id="g22" x2="1" gradientUnits="userSpaceOnUse" gradientTransform="matrix(-186.35,-310.23,203.806,-122.423,510.51,178.52)">
			<stop offset="0" stop-color="#a9824f"/>
			<stop offset=".29" stop-color="#dfd3b0"/>
			<stop offset=".63" stop-color="#e4ceb0"/>
			<stop offset="1" stop-color="#b2865c"/>
		</linearGradient>
		<linearGradient id="g23" x2="1" gradientUnits="userSpaceOnUse" gradientTransform="matrix(-186.35,-310.23,293.744,-176.447,525.09,169.76)">
			<stop offset="0" stop-color="#a9824f"/>
			<stop offset=".29" stop-color="#dfd3b0"/>
			<stop offset=".63" stop-color="#e4ceb0"/>
			<stop offset="1" stop-color="#b2865c"/>
		</linearGradient>
		<linearGradient id="g24" x2="1" gradientUnits="userSpaceOnUse" gradientTransform="matrix(-186.36,-310.23,288.302,-173.187,538,162.01)">
			<stop offset="0" stop-color="#a9824f"/>
			<stop offset=".29" stop-color="#dfd3b0"/>
			<stop offset=".63" stop-color="#e4ceb0"/>
			<stop offset="1" stop-color="#b2865c"/>
		</linearGradient>
		<linearGradient id="g25" x2="1" gradientUnits="userSpaceOnUse" gradientTransform="matrix(-186.36,-310.24,212.473,-127.632,570.82,142.3)">
			<stop offset="0" stop-color="#a9824f"/>
			<stop offset=".29" stop-color="#dfd3b0"/>
			<stop offset=".63" stop-color="#e4ceb0"/>
			<stop offset="1" stop-color="#b2865c"/>
		</linearGradient>
		<linearGradient id="g26" x2="1" gradientUnits="userSpaceOnUse" gradientTransform="matrix(-186.35,-310.23,299.21,-179.731,588.57,131.63)">
			<stop offset="0" stop-color="#a9824f"/>
			<stop offset=".29" stop-color="#dfd3b0"/>
			<stop offset=".63" stop-color="#e4ceb0"/>
			<stop offset="1" stop-color="#b2865c"/>
		</linearGradient>
		<linearGradient id="g27" x2="1" gradientUnits="userSpaceOnUse" gradientTransform="matrix(-186.35,-310.24,208.907,-125.483,621.09,112.1)">
			<stop offset="0" stop-color="#a9824f"/>
			<stop offset=".29" stop-color="#dfd3b0"/>
			<stop offset=".63" stop-color="#e4ceb0"/>
			<stop offset="1" stop-color="#b2865c"/>
		</linearGradient>
		<linearGradient id="g28" x2="1" gradientUnits="userSpaceOnUse" gradientTransform="matrix(-186.35,-310.24,203.719,-122.366,630.12,106.68)">
			<stop offset="0" stop-color="#a9824f"/>
			<stop offset=".29" stop-color="#dfd3b0"/>
			<stop offset=".63" stop-color="#e4ceb0"/>
			<stop offset="1" stop-color="#b2865c"/>
		</linearGradient>
		<linearGradient id="g29" x2="1" gradientUnits="userSpaceOnUse" gradientTransform="matrix(-186.36,-310.24,293.757,-176.459,644.7,97.92)">
			<stop offset="0" stop-color="#a9824f"/>
			<stop offset=".29" stop-color="#dfd3b0"/>
			<stop offset=".63" stop-color="#e4ceb0"/>
			<stop offset="1" stop-color="#b2865c"/>
		</linearGradient>
		<linearGradient id="g30" x2="1" gradientUnits="userSpaceOnUse" gradientTransform="matrix(-186.35,-310.24,288.308,-173.176,657.6,90.17)">
			<stop offset="0" stop-color="#a9824f"/>
			<stop offset=".29" stop-color="#dfd3b0"/>
			<stop offset=".63" stop-color="#e4ceb0"/>
			<stop offset="1" stop-color="#b2865c"/>
		</linearGradient>
		<linearGradient id="g31" x2="1" gradientUnits="userSpaceOnUse" gradientTransform="matrix(422.34,300.61,-312.442,438.964,.26,42.87)">
			<stop offset="0" stop-color="#a9824f"/>
			<stop offset=".29" stop-color="#dfd3b0"/>
			<stop offset=".63" stop-color="#e4ceb0"/>
			<stop offset="1" stop-color="#b2865c"/>
		</linearGradient>
		<linearGradient id="g32" x2="1" gradientUnits="userSpaceOnUse" gradientTransform="matrix(422.47,300.7,-303.234,426.03,.28,42.84)">
			<stop offset="0" stop-color="#a9824f"/>
			<stop offset=".29" stop-color="#dfd3b0"/>
			<stop offset=".63" stop-color="#e4ceb0"/>
			<stop offset="1" stop-color="#b2865c"/>
		</linearGradient>
		<linearGradient id="g33" x2="1" gradientUnits="userSpaceOnUse" gradientTransform="matrix(422.47,300.7,-291.792,409.954,.29,42.83)">
			<stop offset="0" stop-color="#a9824f"/>
			<stop offset=".29" stop-color="#dfd3b0"/>
			<stop offset=".63" stop-color="#e4ceb0"/>
			<stop offset="1" stop-color="#b2865c"/>
		</linearGradient>
		<linearGradient id="g34" x2="1" gradientUnits="userSpaceOnUse" gradientTransform="matrix(422.47,300.7,-300.746,422.535,.23,42.91)">
			<stop offset="0" stop-color="#a9824f"/>
			<stop offset=".29" stop-color="#dfd3b0"/>
			<stop offset=".63" stop-color="#e4ceb0"/>
			<stop offset="1" stop-color="#b2865c"/>
		</linearGradient>
		<linearGradient id="g35" x2="1" gradientUnits="userSpaceOnUse" gradientTransform="matrix(422.47,300.7,-302.025,424.331,.28,42.84)">
			<stop offset="0" stop-color="#a9824f"/>
			<stop offset=".29" stop-color="#dfd3b0"/>
			<stop offset=".63" stop-color="#e4ceb0"/>
			<stop offset="1" stop-color="#b2865c"/>
		</linearGradient>
	</defs>
	<style>
		.s0 { fill: url(#g1) } 
		.s1 { fill: url(#g2) } 
		.s2 { fill: url(#g3) } 
		.s3 { fill: url(#g4) } 
		.s4 { fill: url(#g5) } 
		.s5 { fill: url(#g6) } 
		.s6 { fill: url(#g7) } 
		.s7 { fill: url(#g8) } 
		.s8 { fill: url(#g9) } 
		.s9 { fill: url(#g10) } 
		.s10 { fill: url(#g11) } 
		.s11 { fill: url(#g12) } 
		.s12 { fill: url(#g13) } 
		.s13 { fill: url(#g14) } 
		.s14 { fill: url(#g15) } 
		.s15 { fill: url(#g16) } 
		.s16 { fill: url(#g17) } 
		.s17 { fill: url(#g18) } 
		.s18 { fill: url(#g19) } 
		.s19 { fill: url(#g20) } 
		.s20 { fill: url(#g21) } 
		.s21 { fill: url(#g22) } 
		.s22 { fill: url(#g23) } 
		.s23 { fill: url(#g24) } 
		.s24 { fill: url(#g25) } 
		.s25 { fill: url(#g26) } 
		.s26 { fill: url(#g27) } 
		.s27 { fill: url(#g28) } 
		.s28 { fill: url(#g29) } 
		.s29 { fill: url(#g30) } 
		.s30 { fill: url(#g31) } 
		.s31 { fill: url(#g32) } 
		.s32 { fill: url(#g33) } 
		.s33 { fill: url(#g34) } 
		.s34 { fill: url(#g35) } 
	</style>
	<g id="Layer_1-2">
		<g>
			<g>
				<path class="s0" d="m342.1 30.3c18.4 0 30.8 11.7 30.8 29.7 0 17-12.5 29-30.9 29h-22.2v-0.6c2-0.8 3.3-3.7 3.3-6.4v-44.8c0-2.6-1.3-5.5-3.3-6.3v-0.6h22.3zm-6.8 57.6h6.4c10.6 0 17.6-7.6 17.6-27.9 0-20.3-6.9-28.6-17.5-28.6h-6.5z"/>
				<path class="s1" d="m425.1 79.5c2.1 3.2 3.7 7.3 7.5 8.9v0.5h-18.7v-0.5c2.1-0.9 1.4-3.2 0-5.7l-12-20.4h-6.6v19.7c0 2.7 1.4 5.6 3.4 6.4v0.5h-18.8v-0.5c2-0.8 3.3-3.7 3.3-6.4v-44.8c0-2.9-1.3-5.5-3.3-6.3v-0.6h20.4c14.8 0 26.1 1.9 26.1 15.4 0 7.3-5.7 12-12.9 14.5zm-25.9-18.3c6.9 0 14.2-3.1 14.2-15.7 0-12.6-7.3-14.2-14.3-14.2h-3.7v29.9z"/>
				<path class="s2" d="m435.5 83.2c0-3.7 3.1-6.6 6.9-6.6 3.8 0 6.8 2.9 6.8 6.6 0 3.7-3.1 6.9-6.8 6.9-3.7 0-6.9-3.2-6.9-6.9z"/>
				<path class="s3" d="m471.8 59.5c0-17 12.6-29.7 29.1-29.7 16.4 0 29.1 12.3 29.1 29.3 0 17.1-12.6 30.4-29.1 30.4-16.5 0-29.1-12.7-29.1-30zm44.6-0.2c0-21.3-7-28.3-15.5-28.3-8.6 0-15.5 7.1-15.5 28.3 0.1 22.2 7 29 15.5 29 8.4 0 15.4-6.8 15.5-29z"/>
				<path class="s4" d="m580.4 76.9l-2.1 12h-43.2v-1l29.3-56.6h-10.8c-11.9 0-16.8 5.6-19 11h-0.4l2-12h41.6v1.1l-29.4 56.5h12.5c12 0 16.9-5.6 19.1-11h0.4z"/>
				<path class="s5" d="m583.7 59.5c0-17 12.7-29.7 29.1-29.7 16.4 0 29.2 12.3 29.2 29.3 0 17.1-12.7 30.4-29.2 30.4-16.5 0-29.1-12.7-29.1-30zm44.6-0.2c0-21.3-7-28.3-15.5-28.3-8.5 0-15.5 7.1-15.5 28.3 0.1 22.2 7.1 29 15.5 29 8.5 0 15.5-6.8 15.5-29z"/>
				<path class="s6" d="m691.1 30.3h8.6v0.6c-2.1 1.6-3.7 4.4-3.7 8.1v49.9h-0.9l-41.5-46.9v38.2c0 3.7 1.6 6.5 3.7 8.2v0.5h-8.6v-0.5c2.2-1.8 3.6-4.5 3.6-8.2v-38.5c0-7.1-1.3-10-3.3-10.8v-0.6h9.5l36.2 41.1v-32.4c0-3.7-1.4-6.4-3.6-8.1 0 0 0-0.6 0-0.6z"/>
				<path class="s7" d="m749 76.9l-2.1 12h-40.2v-0.5c2-0.8 3.3-3.7 3.3-6.4v-44.8c0-2.6-1.3-5.5-3.3-6.3v-0.6h37.6l2 12h-0.4c-2.2-5.4-7.1-10.9-18-10.9h-5.7v24.9h10.6c2.4 0 5.2-3.5 6.1-7.3h0.5v15.7h-0.5c-0.9-3.5-3.6-7.2-6.1-7.2h-10.6v30.2h7.1c12.2 0 17.1-5.5 19.2-10.8h0.5z"/>
				<path class="s8" d="m319.2 134.7c0-16.6 11.8-29.7 28.7-29.7 6.9 0 13.6 2.6 18.3 6.5l-4.5 9.5h-0.6c-1.6-3.8-5.6-14.7-13.9-14.7-8.9 0-14.4 10.3-14.3 24.4 0.1 14.8 7.1 26.3 18.8 26.3 4.1-0.1 9.9-1.7 14.3-7.3l0.4 0.5c-3.6 7.7-9.8 14.5-21.2 14.5-13.9 0-25.9-11.8-25.9-30"/>
				<path class="s9" d="m412.8 152.1l-2 12h-38.8v-0.5c2-0.8 3.3-3.7 3.3-6.4v-44.8c0-2.6-1.3-5.5-3.3-6.3v-0.6h18.7v0.6c-2 0.8-3.3 3.7-3.3 6.3v50.7h7.2c10.7 0 15.6-5.6 17.8-11 0 0 0.4 0 0.4 0z"/>
				<path class="s10" d="m417.5 164.1v-0.5c2-0.8 3.3-3.7 3.3-6.4v-44.8c0-2.6-1.3-5.5-3.3-6.3v-0.6h18.9v0.6c-2.1 0.8-3.4 3.7-3.4 6.3v44.8c0 2.7 1.3 5.6 3.4 6.4v0.5z"/>
				<path class="s11" d="m486 105.5h8.6v0.6c-2 1.6-3.7 4.4-3.7 8.1v49.9h-0.8l-41.5-46.9v38.2c0 3.7 1.6 6.5 3.7 8.2v0.5h-8.6v-0.5c2.1-1.8 3.6-4.5 3.6-8.2v-38.5c0-7.1-1.4-10-3.4-10.8v-0.6h9.5l36.3 41.1v-32.4c0-3.7-1.5-6.4-3.7-8.1 0 0 0-0.6 0-0.6z"/>
				<path class="s12" d="m501.7 164.1v-0.5c2-0.8 3.3-3.7 3.3-6.4v-44.8c0-2.6-1.3-5.5-3.3-6.3v-0.6h18.8v0.6c-2 0.8-3.4 3.7-3.4 6.3v44.8c0 2.7 1.4 5.6 3.4 6.4v0.5z"/>
				<path class="s13" d="m527.4 134.7c0-16.6 11.8-29.7 28.7-29.7 6.8 0 13.6 2.6 18.3 6.5l-4.5 9.5h-0.6c-1.6-3.8-5.6-14.7-13.9-14.7-9 0-14.4 10.3-14.3 24.4 0 14.8 7.1 26.3 18.8 26.3 4.1-0.1 9.9-1.7 14.3-7.3l0.4 0.5c-3.7 7.7-9.8 14.5-21.2 14.5-13.9 0-25.9-11.8-25.9-30"/>
			</g>
			<g>
				<path class="s14" d="m347.1 232.7v0.2c-0.6 3-2 4.2-4.1 4.2-2.6 0-4.6-1.9-4.6-6.4v-0.3c-3 3.8-7.2 6.7-12.4 6.7-4.8 0-7.9-2.6-7.9-6.8 0-4.1 3.3-7.3 10.4-9.7l9.9-3.5v-2.6c0-3.9-1.6-9.5-8.4-9.5-6.2 0-10.1 5.3-10.1 9.1h-0.3c0-5 3.5-10.7 10.8-10.7 8 0 10.8 5.2 10.8 12.5v15.4c0 2.7 0.9 3.8 2.8 3.8 1.3 0 2.3-0.7 3-2.4h0.1zm-8.7-3v-12.2l-9.5 3.8c-6.3 2.6-8 5.6-8 8.6 0 3.4 2.4 5.5 6.2 5.5 5.8 0 9.3-3.2 11.3-5.7z"/>
				<path class="s15" d="m377.5 188.4v44c0 1.7 0.7 3.2 2.3 3.9v0.3h-4.7l-0.4-6.3c-2.3 3.8-6.7 6.8-11.7 6.8-7.3 0-13.2-6.1-13.2-15.5 0-11 7.2-18.2 14.8-18.2 3.3 0 7.8 1.9 10.1 4.8v-12.4c0-2.8-1.1-3.7-2.3-4.8v-0.3c1.6-0.8 3.4-1.5 4.9-2.3zm-2.8 41.4v-21.2c-2.2-2.4-6.3-3.5-9.5-3.5-7.1 0-12.4 6.2-12.4 16.5 0 8.1 4.5 13.8 10.8 13.8 5 0 8.8-2.3 11.1-5.6"/>
				<path class="s16" d="m413.1 188.4v44c0 1.7 0.7 3.2 2.3 3.9v0.3h-4.7l-0.4-6.3c-2.3 3.8-6.7 6.8-11.7 6.8-7.3 0-13.2-6.1-13.2-15.5 0-11 7.2-18.2 14.8-18.2 3.3 0 7.8 1.9 10.1 4.8v-12.4c0-2.8-1.1-3.7-2.4-4.8v-0.3c1.7-0.8 3.4-1.5 5-2.3h0.2zm-2.8 41.4v-21.2c-2.2-2.4-6.3-3.5-9.4-3.5-7.1 0-12.4 6.2-12.4 16.5 0 8.1 4.5 13.8 10.8 13.8 4.9 0 8.8-2.3 11-5.6"/>
				<path class="s17" d="m421.3 236.6v-0.3c1.6-0.7 2.2-2.2 2.2-3.9v-21c0-2.7-1.1-3.7-2.4-4.8v-0.3l5-2.3h0.2v28.4c0 1.7 0.7 3.2 2.3 3.9v0.3zm0.6-43.6c0-1.2 1.1-2.4 2.5-2.4 1.3 0 2.4 1.2 2.4 2.4 0 1.5-1.1 2.6-2.4 2.6-1.4 0-2.5-1.1-2.5-2.6z"/>
				<path class="s18" d="m461.9 232.4c0.1 1.7 0.7 3.2 2.3 3.9v0.3h-7.2v-0.3c1.5-0.7 2.2-2.2 2.2-3.9v-16.3c0-7.4-3.7-11.1-8.6-11.1-5 0-8.8 2.3-11.1 5.5v21.9c0 1.7 0.7 3.2 2.3 3.8v0.4h-7.3v-0.4c1.6-0.6 2.2-2.1 2.2-3.8v-21c0-2.8-1.1-3.7-2.4-4.8v-0.3c2.1-0.9 3.3-1.6 4.8-2.3h0.3v6.1c2.2-3.6 6.8-6.7 12.2-6.7 8.7 0 10.3 7.5 10.3 13.6 0 0 0 15.4 0.1 15.4z"/>
				<path class="s19" d="m485.6 232.3c5.5 0.7 10 3.1 10 8.4 0 5.6-5.9 9.1-14.1 9.1-7.7 0-13.2-3-13.2-8.6 0-3.8 2.8-6.3 6.8-7.9-2.8-0.2-4.9-1.4-4.9-3.5 0-2.5 2.4-4.1 6-5.5-3.6-1.8-5.7-5.4-5.7-9.9 0-6.3 4.2-11 11.4-11 2.2 0 4.1 0.6 5.8 1.6 3.1-0.7 6.7-1.5 8.1-2.1l0.3 3.7-7.7-1.1c2.5 2 4 5.2 4 9 0 6.4-4.2 11-10.5 11-2 0-3.8-0.4-5.4-1.1-2.5 1.4-4.3 2.7-4.3 4.2 0 1.2 1 2.3 3 2.5zm7.3 9c0-4.1-3.3-6.3-7.7-6.9-3.4-0.4-8.2-0.8-9.7-1-3 1.4-4.4 4.1-4.4 7.4 0 5.1 4.1 8.3 10.4 8.3 6.6 0 11.4-2 11.4-7.8zm-11-16.4c4.3 0 7.6-4.6 7.6-10.4 0-5.9-3.3-10.5-7.6-10.5-5.3 0-8.5 4.6-8.5 10.5 0 5.8 3.2 10.4 8.5 10.4z"/>
				<path class="s20" d="m516.2 236.6v-0.3c1.5-0.7 2.2-2.2 2.2-3.9v-36.6c0-2.8-1.2-3.7-2.4-4.8v-0.3c2.1-0.9 3.3-1.6 4.8-2.3h0.3v44c0 1.7 0.7 3.2 2.3 3.9v0.3z"/>
				<path class="s21" d="m529.4 236.6v-0.3c1.5-0.7 2.2-2.2 2.2-3.9v-21c0-2.7-1.2-3.7-2.4-4.8v-0.3l4.9-2.3h0.3v28.4c0 1.7 0.6 3.2 2.2 3.9v0.3zm0.7-43.6c0-1.2 1-2.4 2.5-2.4 1.3 0 2.4 1.2 2.4 2.4 0 1.5-1.1 2.6-2.4 2.6-1.5 0-2.5-1.1-2.5-2.6z"/>
				<path class="s22" d="m547.6 198.2v6.2h9.5v0.7h-9.5v27.3c0 1.7 0.7 3.2 2.3 3.9v0.3h-7.3v-0.3c1.6-0.7 2.2-2.2 2.2-3.9v-27.3h-3.7v-0.7h3.7v-6.4c0-5.5 3.2-9.8 8.4-9.8 4.5 0 6.7 2.6 7.6 3.4l-2.1 4.2h-0.3c-0.5-2.5-0.7-6.8-5.2-6.8-4.5 0-5.6 4.5-5.6 9.2z"/>
				<path class="s23" d="m561.5 217.9q-0.1 0.6-0.1 1.2c0 9.3 5.6 15.6 12.8 15.6 5.1 0 8.6-1.4 11-5l0.2 0.2c-2.1 4.3-6.4 7.2-11.6 7.2-8.7 0-15.4-6.5-15.4-16.7 0-10.2 6.1-17 14.7-17 8.6 0 13 4.9 13.1 14.2v0.3zm0.1-0.7h21.8c-0.1-8.1-3.5-13-10.2-13-6.2 0-10.9 6.1-11.6 13z"/>
				<path class="s24" d="m624.2 233.3c-1.5 2.6-3.5 3.8-6.1 3.8-5.2 0-7.5-3.7-7.5-8.1v-23.9h-4.3v-0.1c2.4-1.4 4.7-2.9 6.9-4.8h0.1v4.1h8.8v0.8h-8.8v24c0 4 2.2 6 5.8 6 2.2 0 3.6-0.7 4.8-2.1l0.3 0.3z"/>
				<path class="s25" d="m626.6 220.5c0-10.3 6.6-17.1 15.2-17.1 8.6 0 15.3 6.4 15.3 16.7 0 10.3-6.7 17-15.3 17-8.6 0-15.2-6.2-15.2-16.6zm27.4-0.2c0-9.6-5.3-16.1-12.2-16.1-6.9 0-12.2 6.5-12.2 16.1 0 9.5 5.3 16 12.2 16 6.9 0 12.2-6.3 12.2-16z"/>
				<path class="s26" d="m678.9 236.6v-0.3c1.6-0.7 2.2-2.2 2.2-3.9v-36.6c0-2.8-1.1-3.7-2.4-4.8v-0.3c2.1-0.9 3.3-1.6 4.8-2.3h0.4v44c0 1.7 0.7 3.2 2.3 3.9v0.3z"/>
				<path class="s27" d="m692.1 236.6v-0.3c1.6-0.7 2.2-2.2 2.2-3.9v-21c0-2.7-1.1-3.7-2.4-4.8v-0.3l5-2.3h0.2v28.4c0 1.7 0.7 3.2 2.3 3.9v0.3zm0.6-43.6c0-1.2 1.1-2.4 2.6-2.4 1.2 0 2.4 1.2 2.4 2.4 0 1.5-1.2 2.6-2.4 2.6-1.5 0-2.6-1.1-2.6-2.6z"/>
				<path class="s28" d="m710.4 198.2v6.2h9.5v0.7h-9.5v27.3c0 1.7 0.7 3.2 2.3 3.9v0.3h-7.3v-0.3c1.6-0.7 2.2-2.2 2.2-3.9v-27.3h-3.8v-0.7h3.8v-6.4c0-5.5 3.2-9.8 8.4-9.8 4.4 0 6.6 2.6 7.6 3.4l-2.2 4.2h-0.3c-0.5-2.5-0.7-6.8-5.1-6.8-4.5 0-5.6 4.5-5.6 9.2z"/>
				<path class="s29" d="m724.2 217.9q-0.1 0.6 0 1.2c0 9.3 5.6 15.6 12.7 15.6 5.2 0 8.6-1.4 11.1-5l0.2 0.2c-2.1 4.3-6.4 7.2-11.7 7.2-8.6 0-15.4-6.5-15.4-16.7 0-10.2 6.2-17 14.8-17 8.6 0 13 4.9 13.1 14.2v0.3zm0.1-0.7h21.8c-0.1-8.1-3.6-13-10.2-13-6.2 0-10.9 6.1-11.6 13z"/>
			</g>
			<g>
				<path class="s30" d="m127.5 269.4c-1.3-0.1-2.2-1.2-2.1-2.5 0.1-1.2 1.2-2.2 2.4-2.1 1.3 0.1 2.2 1.2 2.2 2.5-0.1 1.1-1.1 2.1-2.3 2.1zm5.2-2.4c-0.3-1.3 0.5-2.5 1.7-2.8 1.3-0.3 2.5 0.5 2.8 1.7 0.3 1.3-0.5 2.5-1.7 2.8l-0.6 0.1c-1 0-1.9-0.8-2.2-1.8zm-13 0.7c-1.2-0.4-1.9-1.7-1.4-2.9 0.3-1.2 1.7-1.9 2.9-1.4 1.2 0.4 1.8 1.7 1.4 2.9-0.3 0.9-1.3 1.5-2.2 1.5l-0.8-0.1zm20.2-2.8c-0.5-1.1 0-2.5 1.1-3 1.2-0.5 2.5 0 3.1 1.1 0.5 1.2 0 2.5-1.1 3.1q-0.5 0.2-1 0.2c-0.9 0-1.7-0.5-2.1-1.4zm-27.2-0.4c-1.1-0.6-1.6-1.9-1-3.1 0.6-1.1 2-1.5 3.2-0.9 1.1 0.6 1.5 2 0.9 3.1-0.4 0.8-1.2 1.2-2 1.2q-0.6 0-1.1-0.3zm33.8-2.8c-0.6-1.1-0.2-2.5 0.9-3.2 1.1-0.6 2.5-0.3 3.1 0.8 0.6 1.1 0.3 2.5-0.8 3.2q-0.6 0.3-1.2 0.3c-0.8 0-1.5-0.4-2-1.1zm-40.3-0.9c-1.1-0.7-1.5-2.1-0.8-3.2 0.7-1.1 2.1-1.4 3.2-0.8 1 0.7 1.4 2.1 0.7 3.2-0.4 0.7-1.2 1.1-1.9 1.1-0.4 0-0.9-0.1-1.2-0.3m46.7-2.9c-0.7-1.1-0.3-2.5 0.8-3.2 1.1-0.6 2.5-0.3 3.1 0.8 0.7 1.1 0.3 2.5-0.7 3.1q-0.6 0.4-1.2 0.4c-0.8 0-1.6-0.4-2-1.1zm-53-0.9c-1.1-0.6-1.5-2-0.9-3.1 0.7-1.1 2-1.5 3.2-0.9 1.1 0.6 1.4 2 0.8 3.1-0.4 0.8-1.2 1.2-2 1.2q-0.6 0-1.1-0.3zm59.4-2.9c-0.6-1.1-0.2-2.5 1-3.1 1.1-0.6 2.5-0.1 3 1 0.6 1.2 0.2 2.5-1 3.1q-0.5 0.2-1 0.3c-0.8 0-1.7-0.5-2-1.3zm-65.8-0.3c-1.1-0.5-1.7-1.9-1.2-3 0.5-1.2 1.8-1.7 3-1.2 1.2 0.4 1.7 1.8 1.2 3-0.3 0.8-1.2 1.4-2.1 1.4-0.3 0-0.6-0.1-0.9-0.2m72.5-2.8c-0.4-1.3 0.3-2.5 1.5-2.9 1.2-0.4 2.5 0.4 2.9 1.6 0.3 1.2-0.4 2.5-1.6 2.8l-0.6 0.1c-1 0-2-0.7-2.2-1.6zm-79.1 0.8c-1.2-0.3-2-1.5-1.8-2.7 0.3-1.3 1.5-2.1 2.7-1.8 1.3 0.2 2.1 1.4 1.8 2.7-0.2 1.1-1.2 1.8-2.2 1.8zm86.2-2.6c-0.2-1.2 0.7-2.4 2-2.6 1.2-0.1 2.4 0.7 2.5 2 0.2 1.2-0.7 2.4-1.9 2.6h-0.3c-1.2 0-2.2-0.8-2.3-2zm-93.4 1.6c-1.2-0.1-2.1-1.3-2-2.5 0.1-1.3 1.3-2.2 2.5-2.1 1.3 0.1 2.2 1.3 2.1 2.5-0.2 1.2-1.2 2.1-2.3 2.1 0 0-0.3 0-0.3 0zm100.7-2.5c-0.1-1.2 0.9-2.4 2.1-2.5 1.3-0.1 2.4 0.9 2.5 2.1 0.1 1.3-0.8 2.4-2.1 2.5h-0.2c-1.1 0-2.2-0.9-2.3-2.1zm-108 1.8c-1.3-0.1-2.2-1.2-2.1-2.5 0.1-1.2 1.3-2.1 2.5-2 1.3 0.1 2.2 1.2 2.1 2.4-0.1 1.2-1.1 2.1-2.3 2.1 0 0-0.2 0-0.2 0zm115.4-2.4c-0.2-1.3 0.8-2.4 2-2.6 1.3-0.1 2.4 0.8 2.6 2 0.1 1.3-0.8 2.5-2 2.6h-0.3c-1.2 0-2.2-0.9-2.3-2zm-122.9 1.5c-1.2-0.1-2.1-1.3-1.9-2.6 0.2-1.2 1.4-2.1 2.6-1.9 1.3 0.2 2.1 1.4 1.9 2.6-0.1 1.2-1.1 2-2.2 2l-0.4-0.1zm130.3-2.5c-0.3-1.2 0.4-2.4 1.6-2.7 1.3-0.3 2.5 0.4 2.8 1.6 0.3 1.3-0.4 2.5-1.7 2.8l-0.5 0.1c-1 0-2-0.7-2.2-1.8m-137.8 0.8c-1.3-0.5-1.9-1.8-1.5-3 0.4-1.1 1.7-1.8 3-1.4 1.1 0.4 1.8 1.7 1.4 2.9-0.4 1-1.2 1.6-2.2 1.6zm144.9-2.7c-0.6-1.2-0.1-2.6 1-3.1 1.1-0.6 2.5-0.2 3.1 0.9 0.6 1.2 0.1 2.5-1 3.1q-0.5 0.3-1.1 0.3c-0.8 0-1.6-0.5-2-1.2m-152.1-1c-1-0.7-1.3-2.2-0.5-3.2 0.7-1 2.2-1.2 3.2-0.5 1 0.8 1.3 2.2 0.5 3.2-0.4 0.6-1.1 0.9-1.8 0.9q-0.8 0-1.4-0.4m158.4-2.9c-0.9-0.8-0.9-2.3 0-3.2 0.9-0.9 2.3-0.9 3.2-0.1 0.9 0.9 1 2.4 0.1 3.3-0.5 0.4-1.1 0.7-1.7 0.7-0.6 0-1.1-0.2-1.6-0.7m-164.1-2.7c-0.8-1.1-0.6-2.5 0.5-3.3 1-0.7 2.4-0.5 3.2 0.5 0.7 1 0.5 2.4-0.5 3.2q-0.6 0.5-1.4 0.5c-0.7 0-1.3-0.4-1.8-1m169-2.8c-1.1-0.6-1.5-2-0.8-3.1 0.6-1.1 2-1.5 3.1-0.8 1.1 0.7 1.5 2 0.8 3.2-0.4 0.7-1.2 1.1-2 1.1q-0.6 0-1.1-0.4zm-173.1-3.8c-0.5-1.1-0.1-2.5 1-3.1 1.1-0.6 2.5-0.1 3.1 1 0.6 1.1 0.2 2.5-1 3.1-0.3 0.2-0.7 0.2-1 0.2-0.9 0-1.7-0.4-2.1-1.2m176.7-2.6c-1.2-0.5-1.7-1.9-1.2-3.1 0.5-1.1 1.9-1.6 3.1-1.1 1.1 0.5 1.6 1.9 1.1 3-0.4 0.9-1.2 1.4-2.1 1.4q-0.5 0-0.9-0.2zm-179.8-4.2c-0.5-1.2 0-2.6 1.2-3.1 1.2-0.4 2.5 0.1 3 1.2 0.5 1.2-0.1 2.6-1.2 3.1-0.3 0.1-0.6 0.1-0.9 0.1-0.9 0-1.8-0.5-2.1-1.3zm182.7-2.6c-1.1-0.5-1.7-1.8-1.2-3 0.5-1.2 1.8-1.7 3-1.2 1.2 0.4 1.7 1.8 1.3 3h-0.1c-0.3 0.8-1.2 1.4-2.1 1.4-0.3 0-0.6-0.1-0.9-0.2zm-185.6-4.2c-0.5-1.2 0-2.6 1.2-3.1 1.1-0.5 2.5 0.1 3 1.2 0.5 1.2 0 2.5-1.2 3q-0.5 0.2-0.9 0.2c-0.9 0-1.7-0.5-2.1-1.3zm188.5-2.6c-1.1-0.6-1.6-2-1-3.1 0.6-1.1 1.9-1.6 3.1-1 1.1 0.5 1.6 1.9 1 3-0.4 0.8-1.2 1.3-2 1.3q-0.6 0-1.1-0.2m-191.7-3.9c-0.6-1.1-0.2-2.5 0.9-3.1 1.1-0.6 2.5-0.2 3.1 0.9 0.6 1.1 0.3 2.5-0.8 3.1q-0.6 0.3-1.2 0.3c-0.8 0-1.5-0.4-2-1.2zm195.1-2.7c-1-0.7-1.3-2.1-0.5-3.2 0.7-1 2.1-1.3 3.2-0.5 1 0.7 1.2 2.1 0.5 3.2-0.4 0.6-1.1 0.9-1.8 0.9q-0.7 0-1.4-0.4zm-199-3c-0.8-0.9-0.7-2.4 0.3-3.2 0.9-0.8 2.4-0.7 3.2 0.3 0.8 0.9 0.7 2.4-0.3 3.2-0.4 0.4-0.9 0.5-1.5 0.5-0.6 0-1.2-0.2-1.7-0.8m203.6-2.8c-0.9-0.9-0.9-2.4 0-3.3 0.9-0.9 2.3-0.9 3.2 0 0.9 0.9 0.9 2.4 0 3.3-0.4 0.4-1 0.6-1.6 0.6-0.6 0-1.2-0.2-1.6-0.6zm-208.6-2.2c-0.9-0.9-1-2.3-0.1-3.3 0.8-0.9 2.2-1 3.2-0.1 0.9 0.8 1 2.3 0.1 3.2-0.4 0.5-1 0.8-1.7 0.8-0.5 0-1.1-0.2-1.5-0.6zm213.9-2.9c-0.8-1-0.7-2.5 0.2-3.3 1-0.8 2.5-0.7 3.3 0.3 0.8 0.9 0.7 2.3-0.3 3.2q-0.6 0.5-1.5 0.5c-0.6 0-1.2-0.2-1.7-0.7m-219.4-2c-1-0.8-1.1-2.2-0.3-3.2 0.9-1 2.3-1.1 3.3-0.2 0.9 0.8 1 2.2 0.2 3.2-0.4 0.5-1.1 0.8-1.7 0.8-0.6 0-1.1-0.2-1.5-0.6zm225-2.9c-0.8-0.9-0.7-2.4 0.2-3.2 0.9-0.9 2.4-0.8 3.2 0.2 0.9 0.9 0.8 2.4-0.1 3.2-0.5 0.4-1 0.6-1.6 0.6-0.6 0-1.2-0.3-1.7-0.8zm-230.6-2.1c-0.9-0.9-1-2.3-0.1-3.2 0.9-0.9 2.3-1 3.3-0.1 0.9 0.9 0.9 2.3 0 3.3-0.4 0.4-1 0.7-1.6 0.7-0.6 0-1.2-0.2-1.6-0.7m236.1-2.8c-1-0.9-1-2.4-0.1-3.3 0.8-0.9 2.2-1 3.2-0.1 0.9 0.8 1 2.2 0.1 3.2-0.4 0.5-1 0.7-1.7 0.7-0.5 0-1.1-0.2-1.5-0.5zm-241.3-2.9c-0.8-1-0.6-2.4 0.4-3.2 1-0.8 2.4-0.6 3.2 0.4 0.8 1 0.6 2.5-0.4 3.2-0.4 0.4-1 0.5-1.4 0.5-0.7 0-1.4-0.3-1.8-0.9zm246.1-2.8c-1.1-0.6-1.5-2-0.8-3.1 0.6-1.1 2-1.5 3.1-0.8 1.1 0.6 1.5 2 0.8 3.1-0.4 0.7-1.1 1.1-2 1.1q-0.5 0-1.1-0.3m-250.2-4c-0.5-1.2 0.1-2.6 1.2-3 1.2-0.5 2.5 0 3 1.2 0.5 1.2 0 2.5-1.2 3q-0.4 0.2-0.9 0.2c-0.9 0-1.8-0.6-2.1-1.4m253.6-2.6c-1.3-0.2-2.1-1.4-1.8-2.7 0.2-1.2 1.5-2 2.7-1.8 1.2 0.3 2 1.5 1.8 2.8-0.2 1-1.2 1.8-2.3 1.8l-0.4-0.1zm-255.4-5.3c-0.1-1.3 0.8-2.4 2.1-2.5 1.3-0.1 2.4 0.9 2.4 2.1 0.1 1.3-0.8 2.4-2.1 2.5h-0.2c-1.2 0-2.1-0.9-2.2-2.1zm254-4.2c-0.1-1.2 0.9-2.3 2.2-2.4 1.2-0.1 2.3 0.9 2.4 2.2 0.1 1.2-0.9 2.3-2.2 2.4h-0.1c-1.2 0-2.2-0.9-2.3-2.2zm-251.7-1.1c-1.3-0.2-2.2-1.3-2-2.6 0.1-1.2 1.3-2.1 2.6-2 1.2 0.2 2.1 1.4 1.9 2.6-0.1 1.2-1.1 2-2.2 2zm250.8-5.9c-0.3-1.2 0.5-2.4 1.8-2.6 1.2-0.3 2.4 0.5 2.6 1.8 0.3 1.2-0.5 2.4-1.8 2.6l-0.4 0.1c-1.1 0-2-0.8-2.3-1.9m-249.6-1.4c-1.2-0.3-2-1.5-1.7-2.7 0.2-1.2 1.5-2 2.7-1.7 1.2 0.2 2 1.4 1.7 2.7-0.2 1.1-1.2 1.8-2.2 1.8zm248.1-5.8c-0.3-1.2 0.5-2.4 1.7-2.7 1.2-0.3 2.4 0.5 2.7 1.7 0.3 1.2-0.5 2.5-1.7 2.8h-0.5c-1.1 0-2-0.7-2.2-1.8zm-246.5-1.5c-1.2-0.2-2-1.5-1.7-2.7 0.3-1.2 1.5-2 2.7-1.7 1.3 0.3 2 1.5 1.8 2.7-0.3 1.1-1.2 1.8-2.3 1.8 0 0-0.5-0.1-0.5-0.1zm244.9-5.8c-0.3-1.2 0.6-2.4 1.8-2.6 1.3-0.3 2.4 0.5 2.7 1.8 0.2 1.2-0.6 2.4-1.8 2.7h-0.5c-1.1 0-2-0.7-2.2-1.9zm-243.3-1.4c-1.3-0.2-2.1-1.3-2-2.6 0.2-1.2 1.4-2.1 2.6-1.9 1.3 0.1 2.2 1.3 2 2.6-0.2 1.1-1.2 1.9-2.3 1.9h-0.3zm242.3-6.2q-0.1-0.6 0.2-1.2c-0.2-0.3-0.3-0.7-0.3-1.1 0-1.3 1-2.3 2.3-2.3 1.3 0 2.3 1 2.3 2.3 0 0.4-0.1 0.7-0.3 1 0.2 0.3 0.3 0.7 0.3 1.1 0.1 1.2-0.8 2.3-2.1 2.4h-0.2c-1.1 0-2.1-0.9-2.2-2.2m-243.8-3.4c-0.1-1.2 1-2.3 2.2-2.3 1.3-0.1 2.3 0.9 2.4 2.2 0 1.3-1 2.3-2.2 2.4h-0.1c-1.3 0-2.3-1-2.3-2.3zm246.3-4c-1.3-0.2-2.1-1.4-1.9-2.7 0.2-1.2 1.4-2 2.6-1.9 1.3 0.3 2.1 1.4 1.9 2.7-0.2 1.1-1.1 1.9-2.2 1.9zm-247.1-3c-0.2-1.2 0.6-2.4 1.8-2.6 1.3-0.2 2.5 0.6 2.7 1.8 0.2 1.3-0.6 2.5-1.9 2.7l-0.4 0.1c-1.1 0-2-0.8-2.2-2zm248.4-4.3c-1.3-0.3-2-1.5-1.8-2.7 0.3-1.3 1.6-2 2.8-1.8 1.2 0.3 2 1.6 1.7 2.8-0.2 1.1-1.2 1.8-2.2 1.8zm-249.9-2.8c-0.3-1.2 0.5-2.5 1.7-2.7 1.2-0.3 2.4 0.4 2.7 1.7 0.3 1.2-0.4 2.4-1.7 2.7l-0.5 0.1c-1.1 0-2-0.7-2.2-1.8m251.5-4.4c-1.2-0.3-2-1.5-1.7-2.7 0.2-1.3 1.5-2.1 2.7-1.8 1.2 0.3 2 1.5 1.8 2.7-0.3 1.1-1.2 1.9-2.3 1.9l-0.5-0.1zm-253.2-2.9c-0.2-1.2 0.6-2.4 1.8-2.7 1.3-0.2 2.5 0.6 2.7 1.8 0.3 1.3-0.5 2.5-1.7 2.7l-0.5 0.1c-1.1 0-2-0.8-2.3-1.9zm254.7-4.4c-1.3-0.1-2.2-1.2-2-2.5 0.1-1.2 1.2-2.2 2.5-2 1.3 0.1 2.2 1.3 2 2.5-0.1 1.2-1.1 2.1-2.2 2.1l-0.3-0.1zm-255.8-3.1c-0.1-1.3 0.8-2.4 2.1-2.5 1.2-0.1 2.4 0.8 2.4 2.1 0.2 1.2-0.8 2.4-2 2.5h-0.2c-1.2 0-2.2-0.9-2.3-2.1zm253.9-6.3c-0.2-1.2 0.7-2.4 2-2.5 1.2-0.1 2.4 0.8 2.5 2 0.1 1.3-0.8 2.4-2 2.6h-0.3c-1.1 0-2.1-0.9-2.2-2.1zm-251.8 1c-1.3-0.2-2.1-1.4-1.9-2.6 0.2-1.3 1.4-2.2 2.6-2 1.3 0.2 2.1 1.4 1.9 2.7-0.2 1.1-1.1 1.9-2.2 1.9 0 0-0.4 0-0.4 0zm250-7.3h-0.1c-0.5-1.2 0-2.5 1.2-3.1 1.1-0.5 2.5 0 3 1.1 0.5 1.2 0 2.5-1.1 3.1q-0.5 0.2-1 0.2c-0.8 0-1.6-0.5-2-1.3zm-248.4 0.1c-1.1-0.6-1.5-2-0.9-3.1 0.6-1.2 1.9-1.6 3.1-1 1.1 0.6 1.5 2 0.9 3.1-0.4 0.8-1.2 1.2-2 1.2-0.4 0-0.7-0.1-1.1-0.2m244.7-5.8c-0.8-1-0.7-2.5 0.3-3.3 1-0.8 2.4-0.6 3.2 0.4 0.8 0.9 0.7 2.4-0.3 3.2q-0.7 0.5-1.5 0.5c-0.6 0-1.3-0.3-1.7-0.8m-240.9-0.6c-0.9-0.8-1-2.3-0.2-3.2 0.8-1 2.3-1.1 3.2-0.3 1 0.9 1.1 2.3 0.2 3.3-0.4 0.5-1 0.8-1.7 0.8-0.5 0-1.1-0.2-1.5-0.6zm236-4.5c-1-0.9-1-2.4-0.1-3.3 0.8-0.9 2.3-1 3.2-0.1 0.9 0.9 1 2.3 0.1 3.2-0.5 0.5-1.1 0.8-1.7 0.8-0.5 0-1.1-0.2-1.5-0.6m-231-0.9c-0.8-1-0.8-2.4 0.2-3.3 0.9-0.8 2.4-0.7 3.2 0.2 0.9 0.9 0.8 2.4-0.1 3.2-0.5 0.4-1 0.6-1.6 0.6-0.6 0-1.2-0.2-1.7-0.7zm225.5-4c-1-0.8-1.1-2.3-0.3-3.2 0.9-1 2.3-1.1 3.3-0.3 0.9 0.9 1 2.3 0.2 3.3-0.5 0.5-1.1 0.8-1.7 0.8-0.6 0-1.1-0.2-1.5-0.6zm-219.9-0.9c-0.9-1-0.7-2.5 0.2-3.3 1-0.8 2.4-0.7 3.3 0.3 0.8 0.9 0.7 2.4-0.3 3.2-0.4 0.4-0.9 0.6-1.5 0.6-0.6 0-1.3-0.3-1.7-0.8m214.3-4c-1-0.9-1-2.4-0.2-3.3 0.9-0.9 2.4-1 3.3-0.1 0.9 0.9 1 2.3 0.1 3.2-0.4 0.5-1.1 0.8-1.7 0.8-0.5 0-1.1-0.2-1.5-0.6zm-208.7-0.9c-0.9-0.9-0.9-2.4 0-3.2 0.9-0.9 2.4-0.9 3.3 0 0.8 0.9 0.8 2.4-0.1 3.3-0.5 0.4-1 0.6-1.6 0.6-0.6 0-1.2-0.2-1.7-0.7m203.5-4.7c-0.8-1-0.7-2.5 0.3-3.3 1-0.8 2.4-0.6 3.2 0.4 0.8 1 0.7 2.4-0.3 3.2-0.4 0.3-0.9 0.5-1.4 0.5-0.7 0-1.4-0.3-1.8-0.8zm-198.2-0.5c-1-0.8-1.2-2.2-0.5-3.2 0.8-1 2.2-1.3 3.3-0.5 0.9 0.8 1.2 2.2 0.4 3.2-0.5 0.6-1.2 0.9-1.8 0.9q-0.8 0-1.4-0.4m193.9-6.1c-0.6-1.1-0.2-2.5 0.9-3.1 1.1-0.6 2.5-0.2 3.1 0.9 0.6 1.2 0.2 2.5-0.9 3.1q-0.5 0.3-1.1 0.3c-0.8 0-1.6-0.4-2-1.2zm-189.7 0c-1.1-0.6-1.6-2-1-3.1 0.5-1.1 1.9-1.6 3.1-1 1.1 0.6 1.6 2 1 3.1-0.4 0.8-1.2 1.2-2.1 1.2q-0.5 0-1-0.2zm186.4-6.8c-0.4-1.2 0.1-2.6 1.2-3.1 1.2-0.5 2.5 0.1 3.1 1.2 0.5 1.2-0.1 2.6-1.2 3.1q-0.5 0.1-1 0.1c-0.8 0-1.7-0.5-2.1-1.3m-183.2 0.1c-1.1-0.5-1.7-1.8-1.2-3 0.5-1.1 1.8-1.7 3-1.2 1.2 0.5 1.7 1.9 1.2 3-0.3 0.9-1.2 1.4-2.1 1.4q-0.4 0-0.9-0.2zm180.3-7c-0.4-1.1 0.1-2.5 1.3-3 1.1-0.5 2.5 0.1 3 1.2 0.5 1.2-0.1 2.5-1.2 3q-0.5 0.2-1 0.2c-0.8 0-1.7-0.5-2.1-1.4zm-177.4 0.2c-1.2-0.5-1.7-1.9-1.2-3 0.5-1.2 1.9-1.7 3.1-1.2 1.1 0.5 1.6 1.9 1.1 3-0.4 0.9-1.2 1.4-2.1 1.4q-0.4 0-0.9-0.2zm174.4-6.7c-0.6-1.1-0.2-2.5 0.9-3.1 1.1-0.6 2.5-0.1 3.1 1 0.6 1.1 0.2 2.5-0.9 3.1q-0.6 0.3-1.1 0.3c-0.8 0-1.6-0.5-2-1.3zm-171.4 0c-1.1-0.6-1.4-2.1-0.8-3.1 0.6-1.1 2-1.5 3.1-0.9 1.1 0.6 1.5 2 0.9 3.1-0.5 0.7-1.2 1.2-2 1.2q-0.6 0-1.2-0.3zm167.6-5.8c-0.8-1-0.7-2.4 0.3-3.2 1-0.8 2.4-0.7 3.2 0.3 0.8 1 0.7 2.4-0.3 3.2q-0.6 0.5-1.5 0.5c-0.6 0-1.3-0.2-1.7-0.8m-163.7-0.5c-1-0.9-1.1-2.3-0.2-3.3 0.8-0.9 2.3-1 3.2-0.2 1 0.8 1.1 2.3 0.2 3.3-0.5 0.5-1.1 0.7-1.7 0.7-0.6 0-1.1-0.1-1.5-0.5m158.8-4c-1.1-0.7-1.4-2.1-0.7-3.1 0.7-1.1 2.1-1.4 3.1-0.7h0.1c1 0.7 1.3 2.1 0.6 3.2-0.4 0.6-1.1 1-1.9 1-0.4 0-0.9-0.1-1.2-0.4m-153.6-1.3c-0.7-1.1-0.3-2.5 0.8-3.2v0.1c1.1-0.7 2.5-0.3 3.2 0.8 0.6 1.1 0.2 2.5-0.9 3.1-0.3 0.2-0.7 0.3-1.1 0.3-0.8 0-1.6-0.4-2-1.1zm147.4-1.4c-1.2-0.4-1.9-1.7-1.5-2.9 0.4-1.2 1.7-1.9 2.9-1.5 1.2 0.3 1.9 1.6 1.5 2.8-0.3 1-1.2 1.7-2.2 1.7 0 0-0.7-0.1-0.7-0.1zm-140.8-2c-0.4-1.2 0.4-2.4 1.6-2.8 1.2-0.3 2.5 0.4 2.8 1.7 0.3 1.2-0.4 2.4-1.6 2.8l-0.6 0.1c-1 0-2-0.7-2.2-1.8zm134 0.5h-0.1c-1.2-0.2-2.1-1.3-1.9-2.6 0.2-1.2 1.3-2.1 2.6-1.9 1.2 0.1 2.1 1.3 1.9 2.6-0.1 1.1-1.1 1.9-2.2 1.9zm-126.8-2.1c-0.2-1.3 0.7-2.4 2-2.6 1.2-0.1 2.4 0.7 2.5 2 0.2 1.3-0.7 2.4-1.9 2.6h-0.3c-1.2 0-2.1-0.9-2.3-2m119.5 1.3c-1.2-0.1-2.2-1.2-2.1-2.5 0.2-1.2 1.3-2.2 2.5-2 1.3 0.1 2.2 1.2 2.1 2.5-0.1 1.2-1.1 2.1-2.3 2.1h-0.2zm-112.1-2.2c-0.2-1.3 0.8-2.4 2-2.5 1.3-0.1 2.4 0.8 2.5 2.1 0.1 1.2-0.8 2.4-2.1 2.5h-0.2c-1.2 0-2.2-0.9-2.2-2.1zm104.7 1.5v-0.1c-1.2-0.1-2.2-1.2-2-2.5 0.1-1.2 1.3-2.2 2.5-2 1.3 0.1 2.2 1.3 2 2.5-0.1 1.2-1.1 2.1-2.2 2.1zm-97.4-2.2c-0.2-1.2 0.7-2.4 2-2.5 1.2-0.2 2.4 0.7 2.5 2 0.2 1.2-0.7 2.4-2 2.5h-0.3c-1.1 0-2.1-0.8-2.2-2zm89.8 0.9c-1.2-0.3-2-1.5-1.7-2.7 0.3-1.3 1.5-2 2.7-1.7 1.3 0.2 2 1.5 1.7 2.7-0.2 1.1-1.1 1.8-2.2 1.8zm-82.5-1.9c-0.3-1.3 0.5-2.5 1.7-2.8 1.2-0.3 2.5 0.4 2.8 1.6 0.3 1.2-0.4 2.5-1.7 2.8l-0.5 0.1c-1.1 0-2-0.7-2.3-1.7zm75.1-0.6c-1.2-0.5-1.7-1.9-1.2-3 0.6-1.2 1.9-1.7 3.1-1.2 1.1 0.5 1.7 1.9 1.1 3-0.3 0.9-1.2 1.4-2 1.4q-0.5 0-1-0.2m-68-1.6c-0.5-1.1-0.1-2.5 1.1-3 1.1-0.6 2.5-0.1 3 1 0.6 1.2 0.1 2.5-1 3.1-0.4 0.2-0.7 0.2-1 0.2-0.9 0-1.7-0.5-2.1-1.3m61.2-2c-1.1-0.6-1.4-2-0.8-3.1 0.7-1.1 2.1-1.5 3.2-0.8 1.1 0.6 1.4 2 0.8 3.1-0.5 0.7-1.2 1.2-2 1.2q-0.6 0-1.2-0.4m-54.6-1.4c-0.6-1-0.3-2.4 0.8-3.1 1.1-0.6 2.5-0.3 3.1 0.8 0.7 1.1 0.3 2.5-0.8 3.1q-0.5 0.4-1.1 0.4c-0.8 0-1.6-0.4-2-1.2zm48.3-2.4c-1.1-0.7-1.5-2.1-0.8-3.2 0.7-1.1 2.1-1.4 3.2-0.7 1 0.6 1.4 2 0.7 3.1-0.4 0.7-1.2 1.1-1.9 1.1q-0.6 0-1.2-0.3m-42-1.4c-0.6-1.1-0.3-2.5 0.8-3.1 1.1-0.7 2.5-0.3 3.2 0.8 0.6 1 0.3 2.5-0.8 3.1-0.4 0.2-0.8 0.3-1.2 0.3-0.8 0-1.5-0.4-2-1.1m35.7-2.2c-1.1-0.6-1.6-1.9-1-3.1 0.6-1.1 1.9-1.5 3.1-1 1.1 0.6 1.5 2 1 3.1-0.4 0.8-1.2 1.3-2.1 1.3q-0.5 0-1-0.3zm-29.3-1.5c-0.5-1.2-0.1-2.5 1.1-3.1 1.1-0.5 2.5-0.1 3 1.1 0.6 1.1 0.1 2.5-1 3.1q-0.5 0.2-1 0.2c-0.9 0-1.7-0.5-2.1-1.3zm22.8-1.2c-1.2-0.4-1.8-1.7-1.5-2.9 0.4-1.2 1.7-1.8 2.9-1.5 1.2 0.4 1.9 1.7 1.5 2.9-0.3 1-1.2 1.6-2.2 1.6 0 0-0.7-0.1-0.7-0.1zm-16-1.9c-0.4-1.2 0.3-2.5 1.6-2.8 1.2-0.3 2.4 0.4 2.8 1.6 0.3 1.2-0.4 2.5-1.6 2.8l-0.6 0.1c-1 0-2-0.7-2.2-1.7m9.4 0.8c-1.3-0.1-2.3-1.1-2.2-2.4 0-1.3 1.1-2.3 2.3-2.2v-0.1c1.3 0.1 2.3 1.1 2.3 2.4-0.1 1.3-1.1 2.3-2.4 2.3z"/>
				<path class="s31" d="m118.1 246.9c-0.1-1.4 0.9-2.7 2.4-2.8 1.4-0.1 2.6 1 2.7 2.4 0.1 1.4-0.9 2.6-2.3 2.8h-0.2c-1.4 0-2.5-1-2.6-2.4zm-5.7 1.2c-1.4-0.5-2.1-1.9-1.6-3.3 0.5-1.3 2-2 3.3-1.6 1.4 0.5 2.1 2 1.6 3.4-0.4 1-1.4 1.7-2.4 1.7q-0.5 0-0.9-0.2m13.2-2.3c-0.6-1.3 0.1-2.8 1.4-3.3 1.3-0.5 2.8 0.1 3.4 1.4 0.5 1.4-0.2 2.8-1.5 3.4q-0.5 0.1-0.9 0.2c-1.1 0-2.1-0.7-2.4-1.7zm-20.5-1.6c-1.2-0.8-1.4-2.4-0.6-3.6 0.8-1.1 2.4-1.4 3.6-0.6 1.1 0.8 1.4 2.4 0.6 3.6-0.5 0.7-1.3 1.1-2.1 1.1q-0.8 0-1.5-0.5zm27.4-1.4c-0.7-1.2-0.2-2.8 1.1-3.5 1.2-0.6 2.8-0.2 3.5 1.1 0.7 1.3 0.2 2.8-1.1 3.5q-0.6 0.3-1.2 0.3c-0.9 0-1.8-0.5-2.3-1.4zm6.7-3.6c-0.7-1.2-0.2-2.8 1.1-3.4 1.2-0.7 2.8-0.2 3.5 1.1 0.6 1.3 0.1 2.8-1.2 3.5-0.3 0.1-0.8 0.2-1.1 0.2-1 0-1.9-0.5-2.3-1.4zm-40.2 0.2c-1.1-0.9-1.2-2.6-0.3-3.7 0.9-1 2.6-1.2 3.7-0.3 1 1 1.2 2.6 0.2 3.7-0.5 0.6-1.2 0.9-1.9 0.9-0.6 0-1.2-0.2-1.7-0.6zm46.9-3.5c-0.4-1.4 0.4-2.8 1.8-3.2 1.3-0.5 2.8 0.3 3.2 1.7 0.4 1.4-0.4 2.8-1.7 3.2l-0.8 0.1c-1.1 0-2.1-0.7-2.5-1.8m25 1.5c-1.5-0.1-2.6-1.3-2.5-2.7 0-1.5 1.2-2.6 2.7-2.5 1.4 0.1 2.5 1.3 2.4 2.7 0 1.4-1.2 2.5-2.5 2.5h-0.2zm5.1-2.5c-0.1-1.4 0.8-2.7 2.2-2.9 1.5-0.2 2.7 0.8 2.9 2.2 0.2 1.4-0.7 2.7-2.2 2.9h-0.3c-1.3 0-2.4-0.9-2.6-2.2m-12.7 1.9c-1.4-0.1-2.5-1.3-2.4-2.7 0.1-1.4 1.4-2.5 2.8-2.4 1.4 0.1 2.5 1.3 2.4 2.8-0.1 1.3-1.3 2.3-2.6 2.3 0 0-0.2 0-0.2 0zm-7.3-0.2c-1.4 0-2.6-1.1-2.6-2.5-0.1-1.4 1.1-2.6 2.5-2.7 1.4 0 2.6 1.1 2.6 2.5 0.1 1.5-1.1 2.6-2.5 2.7zm-62.6-2c-1.1-0.9-1.3-2.5-0.4-3.7 0.8-1.1 2.5-1.3 3.6-0.4 1.1 0.9 1.3 2.5 0.4 3.7-0.5 0.6-1.3 0.9-2 0.9-0.6 0-1.2-0.2-1.6-0.5m90.1-1.1c-0.7-1.2-0.3-2.8 0.9-3.6 1.2-0.7 2.8-0.3 3.5 0.9 0.8 1.3 0.4 2.9-0.8 3.6q-0.7 0.3-1.4 0.3c-0.8 0-1.7-0.4-2.2-1.2zm-96-2.8c-1.2-0.7-1.7-2.2-1.1-3.5 0.6-1.3 2.2-1.8 3.5-1.1 1.2 0.6 1.7 2.2 1.1 3.4-0.5 0.9-1.4 1.4-2.3 1.4-0.4 0-0.8 0-1.2-0.2zm102.2-1.6c-1.2-0.8-1.4-2.5-0.5-3.6 0.9-1.1 2.5-1.3 3.6-0.5 1.2 0.9 1.4 2.5 0.5 3.7-0.5 0.6-1.3 1-2.1 1-0.5 0-1.1-0.2-1.5-0.6zm-108.7-0.6c-1.4-0.3-2.3-1.7-2-3.1 0.3-1.4 1.7-2.3 3.1-2 1.4 0.4 2.3 1.7 2 3.1-0.3 1.2-1.4 2.1-2.5 2.1zm-7.3-1.3c-1.4-0.1-2.4-1.5-2.2-2.9 0.2-1.4 1.5-2.4 2.9-2.2 1.4 0.2 2.4 1.5 2.2 2.9-0.2 1.3-1.3 2.3-2.6 2.3zm-7.6-1.2c-1.4-0.2-2.3-1.6-2-3 0.2-1.4 1.6-2.3 3-2 1.4 0.2 2.3 1.6 2 3-0.2 1.2-1.3 2.1-2.5 2.1 0 0-0.5-0.1-0.5-0.1zm-7.8-2.2c-1.3-0.5-1.9-2-1.4-3.3 0.6-1.3 2.1-2 3.4-1.4 1.3 0.5 2 2 1.4 3.3-0.4 1-1.4 1.6-2.4 1.6-0.3 0-0.6 0-1-0.2zm135.7-1c-1.3-0.6-1.8-2.2-1.1-3.4 0.7-1.3 2.2-1.8 3.5-1.1 1.2 0.6 1.7 2.2 1.1 3.4-0.5 0.9-1.4 1.4-2.3 1.4-0.4 0-0.8 0-1.2-0.3zm-142.8-3.7c-1-1-0.9-2.7 0.1-3.7 1-1 2.7-0.9 3.7 0.1 1 1.1 0.9 2.7-0.1 3.7-0.5 0.5-1.2 0.7-1.8 0.7-0.6 0-1.4-0.3-1.9-0.8zm146.2-3c-1.3-0.6-1.8-2.2-1.2-3.5 0.6-1.2 2.2-1.8 3.5-1.2 1.2 0.7 1.8 2.2 1.1 3.5-0.4 0.9-1.3 1.5-2.3 1.5q-0.6 0-1.1-0.3zm-150.7-4.1c-0.6-1.3 0-2.8 1.3-3.4 1.4-0.6 2.9 0.1 3.4 1.4 0.6 1.3 0 2.8-1.3 3.3q-0.5 0.3-1 0.3c-1 0-2-0.6-2.4-1.6zm154-2.7c-1.2-0.8-1.5-2.4-0.8-3.6 0.8-1.2 2.4-1.5 3.6-0.8 1.2 0.8 1.5 2.4 0.8 3.6-0.5 0.8-1.3 1.2-2.2 1.2q-0.7 0-1.4-0.4zm-156.5-4.9c-0.4-1.3 0.5-2.7 1.9-3.1 1.3-0.4 2.8 0.5 3.1 1.8 0.4 1.4-0.5 2.9-1.8 3.2l-0.7 0.1c-1.1 0-2.2-0.8-2.5-2zm160.8-1.4c-1-1-0.9-2.7 0.1-3.6 1.1-1 2.7-0.9 3.7 0.1 1 1.1 0.9 2.7-0.2 3.7-0.5 0.4-1.1 0.7-1.7 0.7-0.7 0-1.4-0.3-1.9-0.9zm5.8-4.8c-0.8-1.2-0.4-2.8 0.7-3.6 1.2-0.8 2.8-0.4 3.6 0.8 0.8 1.2 0.4 2.8-0.8 3.6v-0.1q-0.6 0.5-1.4 0.4c-0.8 0-1.6-0.4-2.1-1.1zm-168.4-1.1c-0.3-1.4 0.5-2.8 1.9-3.1 1.4-0.4 2.8 0.4 3.1 1.8 0.4 1.4-0.5 2.8-1.9 3.2h-0.6c-1.1 0-2.2-0.8-2.5-1.9zm174.8-2.9c-0.8-1.3-0.4-2.8 0.8-3.6 1.2-0.8 2.8-0.4 3.6 0.8 0.7 1.3 0.3 2.8-0.9 3.6-0.4 0.2-0.9 0.4-1.3 0.4-0.9 0-1.7-0.5-2.2-1.2m-176.9-4c-0.5-1.4 0.1-2.8 1.5-3.4 1.3-0.5 2.8 0.2 3.3 1.5 0.5 1.3-0.1 2.8-1.5 3.3q-0.4 0.2-0.9 0.2c-1 0-2-0.6-2.4-1.6zm183.3-0.1c-0.9-1.1-0.7-2.7 0.4-3.6 1.1-0.9 2.7-0.7 3.6 0.4 0.9 1.1 0.7 2.7-0.4 3.6-0.5 0.4-1 0.6-1.6 0.6-0.8 0-1.5-0.3-2-1zm5.7-4.9c-1.1-0.8-1.4-2.4-0.7-3.6 0.8-1.2 2.4-1.5 3.6-0.7 1.2 0.8 1.5 2.4 0.7 3.6-0.5 0.7-1.3 1.2-2.1 1.2-0.5 0-1-0.2-1.5-0.5zm-192.3-1c-0.9-1.1-0.7-2.7 0.4-3.6 1.2-0.8 2.8-0.6 3.6 0.5 0.9 1.1 0.7 2.7-0.4 3.6-0.5 0.4-1 0.5-1.6 0.5-0.8 0-1.5-0.3-2-1zm-4.9-5.3c-1-1-1-2.6 0-3.6 1-1 2.6-1 3.6-0.1 1.1 1 1.1 2.7 0.1 3.7-0.5 0.5-1.2 0.8-1.9 0.8-0.6 0-1.3-0.3-1.8-0.8zm201-0.3c-1.4-0.2-2.4-1.5-2.2-2.9 0.2-1.4 1.5-2.4 2.9-2.2 1.4 0.2 2.4 1.5 2.2 3-0.2 1.2-1.3 2.2-2.5 2.2zm-206.5-5c-1-1-1-2.6 0-3.7 1-1 2.6-1 3.7 0 1 1 1 2.7 0 3.7-0.5 0.5-1.2 0.8-1.9 0.8-0.6 0-1.3-0.3-1.8-0.8zm204.3-4.9c-0.2-1.4 0.8-2.7 2.3-2.8 1.4-0.2 2.6 0.9 2.8 2.3 0.1 1.4-0.9 2.7-2.3 2.8h-0.3c-1.3 0-2.4-1-2.5-2.3zm-209.6-1c-0.9-1.1-0.7-2.7 0.5-3.6 1.1-0.8 2.7-0.6 3.6 0.5 0.9 1.1 0.7 2.8-0.5 3.6-0.4 0.4-1 0.6-1.5 0.6-0.8 0-1.6-0.4-2.1-1m208.5-6.4c-0.3-1.4 0.6-2.7 2-2.9 1.4-0.3 2.8 0.6 3 2 0.3 1.4-0.6 2.8-2 3l-0.5 0.1c-1.2 0-2.3-0.9-2.6-2.2m-212.5-1h0.1c-0.5-1.3 0.2-2.8 1.6-3.2 1.3-0.5 2.8 0.2 3.3 1.6 0.4 1.3-0.3 2.8-1.7 3.3l-0.8 0.1c-1.1 0-2.1-0.7-2.5-1.8zm211.3-6.6c-0.2-1.4 0.8-2.7 2.3-2.8 1.4-0.2 2.7 0.8 2.8 2.2 0.2 1.4-0.8 2.7-2.2 2.9h-0.3c-1.3 0-2.4-0.9-2.6-2.3m-209.8 0.9c-1.4-0.1-2.4-1.4-2.3-2.8 0.2-1.5 1.5-2.5 2.9-2.3 1.4 0.1 2.4 1.4 2.3 2.9-0.2 1.3-1.3 2.2-2.6 2.2 0 0-0.3 0-0.3 0zm211.9-6.1c-1.4-0.2-2.5-1.4-2.4-2.8l0.1-0.4v-0.4c0.1-1.4 1.4-2.4 2.8-2.2 1.4 0.1 2.5 1.4 2.3 2.8v0.3 0.3c-0.2 1.3-1.3 2.4-2.6 2.4h-0.2zm-210.7-1.3c-1.3-0.5-2-2-1.6-3.3 0.5-1.4 2-2.1 3.3-1.6 1.4 0.5 2.1 1.9 1.6 3.3-0.4 1.1-1.4 1.7-2.4 1.7 0 0-0.9-0.1-0.9-0.1zm211.9-6.9c-1.4-0.5-2.1-1.9-1.7-3.2 0.5-1.4 1.9-2.1 3.3-1.7 1.3 0.5 2.1 2 1.6 3.3-0.4 1.1-1.4 1.8-2.4 1.8 0 0-0.8-0.2-0.8-0.2zm-209.2-0.2c-1.4-0.6-2-2.1-1.5-3.4 0.6-1.3 2.1-1.9 3.4-1.4 1.3 0.5 2 2.1 1.4 3.4-0.4 1-1.3 1.6-2.4 1.6q-0.5 0-0.9-0.2zm211.7-6.9c-1.3-0.5-2-2-1.4-3.4 0.5-1.3 2-1.9 3.4-1.4 1.3 0.6 1.9 2.1 1.4 3.4-0.4 1-1.4 1.6-2.4 1.6-0.3 0-0.7-0.1-1-0.2zm-208.9-0.1c-1.3-0.5-2.1-1.9-1.6-3.3 0.4-1.3 1.9-2 3.2-1.6 1.4 0.4 2.1 1.9 1.7 3.2-0.4 1.1-1.4 1.8-2.5 1.8 0 0-0.8-0.1-0.8-0.1zm211.8-6.9c-1.4-0.4-2.1-1.9-1.6-3.2 0.4-1.4 1.9-2.1 3.3-1.7 1.3 0.5 2 2 1.6 3.3-0.4 1.1-1.4 1.8-2.5 1.8l-0.8-0.2zm-209.5-0.4c-1.5-0.1-2.5-1.3-2.4-2.8 0.1-1.4 1.4-2.5 2.8-2.3 1.4 0.1 2.5 1.4 2.4 2.8-0.1 1.3-1.3 2.4-2.6 2.4l-0.2-0.1zm211.8-6.8c-1.4-0.1-2.4-1.4-2.3-2.8 0.1-1.4 1.4-2.5 2.8-2.3 1.4 0.1 2.5 1.4 2.3 2.8-0.1 1.3-1.2 2.3-2.5 2.3h-0.3zm-214.4-3c-0.2-1.4 0.8-2.7 2.2-2.8 1.5-0.2 2.8 0.8 2.9 2.2 0.2 1.4-0.8 2.7-2.2 2.9h-0.3c-1.3 0-2.4-1-2.6-2.3zm211.4-6.1c-0.5-1.4 0.2-2.9 1.5-3.4 1.4-0.4 2.9 0.3 3.3 1.6 0.5 1.4-0.2 2.8-1.5 3.3q-0.5 0.2-0.9 0.2c-1.1 0-2.1-0.7-2.4-1.8m-212.6-1.1c-0.2-1.4 0.7-2.8 2.1-3 1.4-0.3 2.8 0.7 3 2.1 0.3 1.4-0.7 2.7-2.1 3h-0.4c-1.3 0-2.4-0.8-2.6-2.1m209.2-4.7v0.1c-0.9-1.2-0.7-2.8 0.5-3.7 1.1-0.8 2.7-0.7 3.6 0.5 0.9 1.1 0.7 2.7-0.5 3.6-0.4 0.4-1 0.5-1.6 0.5-0.7 0-1.5-0.3-2-1m-210.4-2.9c-0.1-1.4 0.9-2.7 2.3-2.9 1.4-0.1 2.7 0.9 2.8 2.3 0.2 1.4-0.8 2.7-2.2 2.9h-0.3c-1.3 0-2.4-1-2.6-2.3m205.5-2.4c-1-0.9-1-2.6 0-3.6 1-1 2.6-1 3.6 0 1 1 1.1 2.6 0.1 3.6-0.5 0.5-1.2 0.8-1.9 0.8q-1 0-1.8-0.7m-203.3-3c-1.4-0.2-2.4-1.5-2.2-2.9 0.2-1.4 1.5-2.4 2.9-2.2 1.4 0.2 2.4 1.5 2.2 2.9-0.2 1.3-1.3 2.2-2.6 2.2h-0.3zm197.8-2.3c-1-1-1-2.6 0-3.7 1-1 2.7-1 3.7 0 1 1 1 2.6 0 3.7-0.5 0.5-1.2 0.8-1.8 0.8-0.7 0-1.4-0.3-1.9-0.8zm-196.3-5.1c-1.2-0.8-1.6-2.4-0.8-3.6 0.8-1.2 2.4-1.6 3.6-0.8 1.2 0.8 1.5 2.4 0.7 3.6-0.4 0.7-1.3 1.2-2.1 1.2-0.5 0-1-0.2-1.4-0.4zm191-0.8c-0.8-1.2-0.6-2.8 0.6-3.6 1.1-0.9 2.7-0.6 3.6 0.5 0.8 1.2 0.6 2.8-0.5 3.6-0.5 0.4-1 0.5-1.6 0.5-0.8 0-1.5-0.3-2.1-1zm-186.5-5.3c-0.9-1.1-0.7-2.7 0.4-3.6 1.1-0.9 2.7-0.7 3.6 0.4 0.9 1.1 0.7 2.7-0.4 3.6-0.4 0.4-1 0.5-1.6 0.5-0.8 0-1.5-0.3-2-0.9m182.6-1.9c-0.5-1.4 0.2-2.9 1.5-3.4 1.3-0.5 2.8 0.2 3.4 1.5 0.5 1.3-0.2 2.8-1.5 3.3q-0.5 0.2-1 0.2c-1 0-2-0.6-2.4-1.6zm-176.6-2.7c-0.7-1.2-0.4-2.8 0.8-3.5 1.2-0.8 2.8-0.4 3.6 0.8 0.8 1.2 0.4 2.8-0.8 3.6-0.5 0.2-0.9 0.3-1.4 0.3-0.9 0-1.7-0.4-2.2-1.2zm6.5-3.9c-0.8-1.2-0.5-2.8 0.7-3.6 1.2-0.8 2.8-0.4 3.6 0.8 0.8 1.2 0.4 2.8-0.8 3.6-0.4 0.2-0.9 0.4-1.4 0.4-0.8 0-1.7-0.5-2.1-1.2zm167.9-1h-0.1c-0.3-1.4 0.5-2.8 1.9-3.1 1.4-0.4 2.8 0.5 3.1 1.9 0.4 1.4-0.5 2.8-1.8 3.1l-0.7 0.1c-1.1 0-2.2-0.8-2.5-2m-161.5-3.2c-1-1-0.9-2.7 0.2-3.6 1.1-1 2.7-0.9 3.6 0.2 1 1.1 0.9 2.7-0.2 3.7-0.5 0.4-1.1 0.6-1.7 0.6-0.7 0-1.4-0.3-1.9-0.9m159.7-4.1c-0.3-1.4 0.5-2.8 1.9-3.1 1.4-0.4 2.8 0.4 3.1 1.8 0.4 1.4-0.4 2.8-1.8 3.2h-0.7c-1.1 0-2.2-0.7-2.5-1.9zm-154.3-1.2c-1.2-0.8-1.6-2.3-0.8-3.5 0.7-1.3 2.3-1.6 3.5-0.8 1.3 0.7 1.6 2.3 0.8 3.5-0.5 0.8-1.3 1.2-2.2 1.2q-0.7 0-1.3-0.4zm152.1-5.6c-0.6-1.3 0-2.8 1.3-3.3 1.3-0.6 2.8 0 3.4 1.3 0.6 1.3 0 2.8-1.3 3.4q-0.6 0.2-1.1 0.2c-1 0-1.9-0.6-2.3-1.6zm-148.3-0.9c-1.2-0.6-1.8-2.2-1.2-3.4 0.7-1.3 2.2-1.9 3.5-1.2 1.3 0.6 1.8 2.2 1.2 3.4-0.5 0.9-1.4 1.5-2.3 1.5-0.4 0-0.8-0.1-1.2-0.3m144.7-4.6c-1-1-1-2.6 0-3.6 1-1 2.6-1 3.6 0 1 1 1 2.7 0 3.7-0.5 0.5-1.1 0.7-1.8 0.7-0.6 0-1.3-0.3-1.8-0.8zm-141.4-2.2c-1.3-0.7-1.7-2.2-1.1-3.5 0.7-1.2 2.2-1.7 3.5-1.1 1.2 0.7 1.8 2.2 1.1 3.5-0.5 0.9-1.4 1.4-2.3 1.4q-0.6 0-1.2-0.3zm135.9-1.2c-1.3-0.5-1.9-2-1.4-3.4 0.5-1.3 2-1.9 3.3-1.4 1.3 0.5 2 2 1.5 3.3-0.4 1.1-1.4 1.7-2.4 1.7q-0.5 0-1-0.2zm-6.8-1.8c-1.4-0.3-2.3-1.6-2-3 0.2-1.4 1.6-2.4 3-2.1 1.4 0.3 2.3 1.6 2 3-0.2 1.2-1.3 2.1-2.5 2.1h-0.5zm-7.4-1.1c-1.4-0.2-2.3-1.5-2.2-2.9 0.3-1.4 1.6-2.4 3-2.2 1.4 0.2 2.4 1.5 2.2 2.9-0.2 1.3-1.3 2.2-2.6 2.2 0 0-0.4 0-0.4 0zm-7.6-1.3c-1.4-0.3-2.3-1.7-1.9-3.1 0.3-1.4 1.6-2.3 3-2 1.4 0.3 2.3 1.7 2 3.1-0.3 1.2-1.4 2-2.6 2 0 0-0.5 0-0.5 0zm-110.6-1.3c-1.1-0.8-1.3-2.4-0.5-3.6 0.9-1.1 2.5-1.4 3.6-0.5 1.2 0.8 1.4 2.5 0.6 3.6-0.5 0.7-1.3 1-2.1 1q-0.8 0.1-1.6-0.5zm102.9-1.4c-1.3-0.7-1.8-2.3-1.1-3.5 0.6-1.3 2.2-1.8 3.4-1.1 1.3 0.7 1.8 2.2 1.1 3.5-0.4 0.8-1.3 1.4-2.2 1.4q-0.7 0-1.2-0.3zm-98.1-4.5c-0.7-1.1-0.4-2.8 0.9-3.5 1.2-0.8 2.8-0.4 3.5 0.8 0.8 1.2 0.4 2.8-0.8 3.6-0.4 0.2-0.9 0.4-1.4 0.4-0.8 0-1.7-0.5-2.2-1.3m91.4-0.1c-1.1-0.8-1.3-2.5-0.4-3.6 0.9-1.1 2.5-1.3 3.6-0.4 1.1 0.9 1.3 2.5 0.4 3.7-0.5 0.6-1.2 0.9-2 0.9-0.6 0-1.2-0.2-1.6-0.6m-62-3.2c-0.1-1.4 1.1-2.6 2.5-2.6 1.4 0 2.6 1.1 2.6 2.5 0 1.5-1.1 2.6-2.5 2.7-1.4 0-2.6-1.2-2.6-2.6zm-5.2 2.3c-1.4-0.1-2.5-1.4-2.4-2.8 0.1-1.4 1.3-2.5 2.8-2.4 1.4 0.1 2.5 1.3 2.4 2.8-0.1 1.3-1.3 2.4-2.6 2.4h-0.2zm-17.4-2.4c-0.3-1.4 0.7-2.7 2.1-3 1.4-0.2 2.7 0.8 3 2.2 0.2 1.4-0.8 2.7-2.2 2.9l-0.4 0.1c-1.3 0-2.3-1-2.5-2.2zm10 1.8c-1.5 0-2.6-1.2-2.5-2.6 0-1.4 1.2-2.6 2.6-2.5 1.4 0.1 2.6 1.2 2.5 2.7 0 1.4-1.2 2.5-2.6 2.4zm20.2-2c-0.4-1.4 0.4-2.8 1.8-3.2 1.3-0.4 2.8 0.4 3.2 1.8 0.4 1.3-0.4 2.7-1.8 3.2l-0.7 0.1c-1.1 0-2.2-0.8-2.5-1.9zm48.6-1.4c-1.1-0.9-1.2-2.5-0.3-3.6 0.9-1.1 2.6-1.2 3.7-0.3 1.1 0.9 1.2 2.5 0.3 3.6-0.5 0.6-1.3 1-2 0.9-0.6 0-1.2-0.2-1.7-0.6m-41.4-1c-0.7-1.3-0.2-2.9 1.1-3.5 1.3-0.7 2.8-0.2 3.5 1.1 0.6 1.3 0.1 2.8-1.2 3.5-0.3 0.2-0.8 0.3-1.1 0.3-1 0-1.9-0.6-2.3-1.4zm6.7-3.6c-0.7-1.2-0.2-2.8 1-3.4 1.3-0.7 2.9-0.3 3.5 1 0.7 1.3 0.2 2.8-1 3.5q-0.6 0.3-1.3 0.3c-0.9 0-1.8-0.5-2.2-1.4zm29 0.1c-1.2-0.8-1.5-2.4-0.7-3.6 0.8-1.2 2.4-1.4 3.6-0.6 1.2 0.8 1.5 2.4 0.7 3.6-0.5 0.7-1.3 1.1-2.2 1.1-0.5 0-1-0.2-1.4-0.5m-22.4-3.6c-0.5-1.3 0.2-2.8 1.5-3.3 1.3-0.6 2.8 0.1 3.3 1.4 0.6 1.3-0.1 2.8-1.4 3.3q-0.5 0.2-0.9 0.2c-1.1 0-2-0.6-2.5-1.6zm16.3 0.4h0.1c-1.4-0.4-2.1-1.9-1.7-3.2 0.5-1.4 2-2.1 3.3-1.6 1.4 0.4 2.1 1.9 1.6 3.2-0.4 1.1-1.3 1.8-2.4 1.8zm-9.2-3.1c-0.1-1.4 0.9-2.6 2.3-2.8 1.5-0.1 2.7 0.9 2.9 2.3 0.1 1.5-0.9 2.7-2.4 2.9h-0.2c-1.3 0-2.4-1-2.6-2.4z"/>
				<path class="s32" d="m107.7 229.3c-1.5-0.1-2.8-1.4-2.7-3 0.1-1.6 1.4-2.8 3-2.7 1.6 0.1 2.8 1.4 2.7 3 0 1.5-1.3 2.7-2.8 2.7h-0.2zm5-3.2c-0.5-1.5 0.3-3.2 1.8-3.7 1.5-0.5 3.1 0.3 3.6 1.8 0.5 1.5-0.3 3.2-1.8 3.7q-0.4 0.1-0.9 0.1c-1.2 0-2.3-0.7-2.7-1.9m-13.7 0.1c-1.2-1-1.5-2.7-0.6-4 0.9-1.3 2.7-1.6 4-0.7 1.3 1 1.6 2.8 0.6 4-0.5 0.8-1.4 1.2-2.3 1.2-0.5 0-1.2-0.2-1.7-0.5zm58.1-2.4c-0.1-1.6 1.1-3 2.6-3.1 1.6-0.1 3 1 3.1 2.6 0.1 1.6-1 3-2.6 3.1h-0.2c-1.5 0-2.8-1.2-2.9-2.6zm-5.5 1.6c-1.5-0.4-2.5-1.9-2.1-3.4 0.4-1.6 2-2.5 3.5-2.1 1.5 0.3 2.5 1.9 2.1 3.4-0.3 1.3-1.5 2.2-2.8 2.2 0 0-0.7-0.1-0.7-0.1zm-31.7-2c-0.6-1.5 0.1-3.2 1.5-3.8 1.5-0.6 3.2 0 3.8 1.5 0.6 1.4 0 3.1-1.5 3.7q-0.6 0.3-1.1 0.3c-1.1 0-2.2-0.7-2.7-1.7zm44.9-0.9c-1-1.2-0.9-3 0.3-4 1.3-1 3.1-0.9 4.1 0.4 1 1.2 0.8 3-0.4 4-0.5 0.4-1.2 0.7-1.8 0.7-0.8 0-1.7-0.4-2.2-1.1zm-20.7 0.7c-1.5-0.4-2.4-2-2-3.5 0.5-1.5 2.1-2.4 3.6-2 1.5 0.5 2.4 2.1 2 3.6-0.4 1.3-1.6 2.1-2.8 2.1 0 0-0.8-0.2-0.8-0.2zm-17.1-3c-0.5-1.5 0.4-3.1 2-3.5 1.5-0.5 3.1 0.4 3.5 1.9 0.5 1.5-0.4 3.1-1.9 3.6l-0.8 0.1c-1.3 0-2.4-0.8-2.8-2.1zm10.1 1.4c-1.6-0.2-2.8-1.6-2.6-3.2 0.2-1.5 1.7-2.7 3.2-2.5 1.6 0.2 2.7 1.6 2.5 3.2-0.1 1.5-1.4 2.6-2.8 2.6l-0.3-0.1zm-44-1.4c-1-1.2-0.8-3 0.4-4 1.2-1 3-0.8 4 0.4 1 1.2 0.8 3.1-0.4 4-0.5 0.5-1.2 0.7-1.8 0.7-0.8 0-1.7-0.4-2.2-1.1m77.3-3c-1.3-0.8-1.7-2.6-0.9-3.9 0.9-1.4 2.7-1.7 4-0.9 1.3 0.9 1.7 2.7 0.9 4-0.6 0.8-1.5 1.3-2.5 1.3-0.5 0-1-0.2-1.5-0.5zm-82.1-3.2c-0.9-1.2-0.7-3 0.6-4 1.2-1 3-0.7 4 0.5 0.9 1.3 0.7 3.1-0.5 4-0.6 0.5-1.2 0.6-1.8 0.6-0.8 0-1.7-0.4-2.3-1.1zm86.2-3.3c-1.4-0.8-1.9-2.6-1-4 0.8-1.3 2.5-1.8 3.9-0.9 1.3 0.8 1.8 2.5 1 3.9-0.5 0.9-1.5 1.4-2.5 1.4q-0.7 0-1.4-0.4zm-90.9-1.9c-1.2-1-1.4-2.8-0.4-4 1-1.3 2.8-1.4 4-0.4 1.3 1 1.4 2.8 0.4 4-0.5 0.7-1.4 1-2.2 1-0.6 0-1.3-0.2-1.8-0.6zm-5.9-3c-1.5-0.5-2.3-2.1-1.8-3.6 0.5-1.5 2.1-2.4 3.6-1.9 1.5 0.5 2.3 2.1 1.8 3.6-0.4 1.3-1.5 2-2.7 2q-0.4 0-0.9-0.1zm100.7-1.8c-1.2-1-1.3-2.8-0.2-4 1-1.2 2.9-1.3 4-0.3 1.2 1.1 1.3 2.9 0.3 4.1-0.6 0.6-1.4 1-2.2 1-0.7 0-1.3-0.3-1.9-0.8m-107.9 0c-1.6-0.4-2.5-1.9-2.2-3.5 0.4-1.5 1.9-2.5 3.4-2.1 1.6 0.3 2.6 1.8 2.2 3.4-0.3 1.3-1.5 2.2-2.8 2.2zm-7.7-2c-1.5-0.5-2.3-2.2-1.8-3.7 0.5-1.5 2.1-2.3 3.6-1.7 1.5 0.5 2.3 2.1 1.8 3.6-0.4 1.2-1.5 1.9-2.7 1.9q-0.5 0.1-0.9-0.1zm121.2-3.4c-0.7-1.4-0.1-3.1 1.3-3.8 1.4-0.7 3.1-0.1 3.8 1.3 0.7 1.5 0.1 3.2-1.3 3.9q-0.6 0.3-1.3 0.3c-1 0-2.1-0.6-2.5-1.7zm-129-1.1c-1.1-1.1-1.1-2.9 0-4 1.1-1.1 2.9-1.2 4-0.1 1.2 1.2 1.2 3 0.1 4.1-0.6 0.6-1.3 0.9-2.1 0.9-0.7 0-1.4-0.3-2-0.9zm136-2c-0.5-1.5 0.3-3.1 1.8-3.6 1.5-0.5 3.1 0.3 3.6 1.8 0.5 1.5-0.3 3.1-1.7 3.6-0.3 0.1-0.7 0.2-1 0.2-1.1 0-2.3-0.8-2.7-2zm7.3-2.4c-0.6-1.5 0-3.2 1.5-3.8 1.4-0.6 3.1 0 3.8 1.5 0.6 1.4 0 3.1-1.5 3.7-0.3 0.2-0.8 0.3-1.1 0.3-1.1 0-2.2-0.6-2.7-1.7zm-147.6-3.7c-0.3-1.5 0.6-3.1 2.1-3.4 1.6-0.4 3.1 0.5 3.5 2.1 0.4 1.5-0.6 3.1-2.1 3.4l-0.7 0.1c-1.3 0-2.5-0.9-2.8-2.2zm154.7 0.4c-1.2-1.1-1.2-2.9-0.1-4.1 1.1-1.1 2.9-1.1 4.1 0 1.1 1 1.2 2.8 0.1 4-0.6 0.6-1.4 0.9-2.1 0.9-0.7 0-1.4-0.3-2-0.8zm-155.6-8.6c0-1.6 1.2-2.9 2.8-3 1.6 0 2.9 1.2 3 2.8 0 1.6-1.2 2.9-2.8 3h-0.1c-1.6 0-2.8-1.3-2.9-2.8zm160.4 2.5c-1.6-0.3-2.6-1.7-2.4-3.3 0.3-1.6 1.7-2.6 3.3-2.4 1.6 0.3 2.6 1.8 2.4 3.3-0.3 1.4-1.5 2.4-2.8 2.4 0 0-0.5 0-0.5 0zm-160.6-10.2c-0.1-1.5 1.2-2.9 2.7-3 1.6-0.1 3 1.1 3.1 2.7 0 1.6-1.2 3-2.7 3.1h-0.2c-1.5 0-2.8-1.2-2.9-2.8m158.3-0.1c-0.1-1.6 1.1-3 2.7-3.1 1.5-0.1 2.9 1.1 3 2.6 0.2 1.6-1 3-2.6 3.1h-0.2c-1.5 0-2.8-1.1-2.9-2.6zm-159.4-6.7c-0.5-1.5 0.3-3.1 1.8-3.6 1.5-0.6 3.1 0.3 3.7 1.7 0.5 1.5-0.3 3.2-1.8 3.7q-0.5 0.2-1 0.2c-1.2 0-2.2-0.8-2.7-2zm158.7-1c-0.1-1.6 1.1-3 2.7-3.1 1.6-0.1 2.9 1.1 3 2.7 0.2 1.6-1.1 2.9-2.6 3h-0.2c-1.5 0-2.8-1.1-2.9-2.6zm-162.1-4.8c-1-1.2-0.8-3 0.4-4 1.3-1 3.1-0.8 4.1 0.5 0.9 1.2 0.7 3-0.5 4-0.5 0.4-1.2 0.6-1.8 0.6-0.8 0-1.7-0.3-2.2-1.1m164.7-0.3c-1.6-0.3-2.6-1.7-2.4-3.3q0.1-0.5 0.3-0.9 0-0.5 0.1-0.9c0.4-1.6 2-2.5 3.5-2.1 1.6 0.4 2.5 2 2.1 3.5l-0.3 0.7v0.7c-0.3 1.3-1.4 2.4-2.8 2.4 0 0-0.5-0.1-0.5-0.1zm-169.7-5.4c-1-1.2-0.9-3 0.3-4 1.2-1.1 3-0.9 4 0.3 1.1 1.1 0.9 3-0.2 4-0.6 0.5-1.3 0.7-1.9 0.7-0.8 0-1.6-0.3-2.2-1zm172.2-3.5c-1.3-0.9-1.7-2.6-0.9-4 0.8-1.3 2.6-1.7 4-0.9 1.3 0.8 1.7 2.6 0.9 4-0.5 0.8-1.5 1.3-2.4 1.3q-0.8 0-1.6-0.4m-177.2-2.9c-0.8-1.4-0.4-3.2 0.9-4 1.4-0.8 3.1-0.4 4 0.9 0.8 1.4 0.4 3.1-0.9 4-0.5 0.3-1.1 0.4-1.6 0.4-0.9 0-1.9-0.5-2.4-1.3zm181.5-3.6c-1.3-0.9-1.7-2.7-0.8-4 0.9-1.3 2.7-1.6 4-0.7 1.3 0.9 1.7 2.7 0.7 4-0.5 0.8-1.4 1.2-2.3 1.2-0.6 0-1.1-0.2-1.6-0.5m-184.4-5c-0.1-1.6 1.1-2.9 2.7-3 1.5-0.1 2.9 1.1 3 2.7 0.1 1.5-1.1 2.9-2.7 3h-0.2c-1.5 0-2.7-1.2-2.8-2.7zm188.8-1.3c-1.5-0.7-2.1-2.4-1.4-3.9 0.6-1.4 2.3-2 3.8-1.4 1.4 0.7 2 2.4 1.4 3.8-0.5 1.1-1.6 1.7-2.6 1.7-0.4 0-0.9-0.1-1.2-0.2zm-185.4-3.7c-1.4-0.7-2-2.4-1.3-3.8 0.7-1.4 2.5-2 3.9-1.3 1.4 0.7 2 2.4 1.2 3.8-0.5 1-1.5 1.6-2.5 1.6q-0.7 0-1.3-0.3zm185.2-6.1c-0.2-1.6 0.9-3 2.5-3.2 1.6-0.2 3 0.9 3.2 2.5 0.1 1.6-1 3-2.5 3.2h-0.4c-1.4 0-2.7-1.1-2.8-2.5zm-181.5-0.6c-1.3-1-1.6-2.8-0.7-4 0.9-1.3 2.7-1.7 4-0.7 1.3 0.8 1.6 2.6 0.7 3.9-0.5 0.8-1.4 1.3-2.3 1.3-0.6 0-1.2-0.2-1.7-0.5m179.1-5.2c-0.9-1.4-0.6-3.1 0.8-4 1.3-0.9 3.1-0.5 3.9 0.8 0.9 1.3 0.6 3.1-0.8 4-0.4 0.3-1 0.5-1.5 0.5-1 0-1.9-0.5-2.4-1.3m-174.6-1.2c-1.3-0.8-1.8-2.5-1-3.9 0.8-1.4 2.6-1.8 3.9-1 1.4 0.8 1.9 2.6 1 4-0.5 0.8-1.4 1.4-2.4 1.4q-0.8 0-1.5-0.5zm170-4.5c-1.1-1.2-1-3 0.2-4.1 1.2-1 3-0.9 4.1 0.3 1 1.1 0.9 3-0.3 4-0.5 0.5-1.2 0.7-1.9 0.7-0.8 0-1.6-0.3-2.1-0.9zm-166.1-2.2c-1.6-0.3-2.5-1.8-2.2-3.4 0.3-1.5 1.8-2.5 3.4-2.2 1.5 0.4 2.5 1.9 2.2 3.4-0.3 1.4-1.5 2.3-2.8 2.3 0 0-0.6-0.1-0.6-0.1zm160.9-3.9c-0.9-1.2-0.7-3 0.6-4 1.2-0.9 3-0.7 4 0.6 0.9 1.2 0.7 3-0.6 4-0.5 0.4-1.1 0.6-1.7 0.6-0.9 0-1.7-0.4-2.3-1.1m-162.8-6.5c-0.1-1.6 1.1-2.9 2.7-3 1.6-0.1 3 1.1 3 2.7 0.1 1.6-1.1 2.9-2.7 3h-0.1c-1.5 0-2.8-1.2-2.9-2.7m158.7-1.2c-0.5-1.6 0.4-3.1 1.9-3.6 1.6-0.5 3.1 0.4 3.6 1.9v0.1c0.4 1.5-0.4 3.1-2 3.5l-0.8 0.1c-1.2 0-2.3-0.8-2.7-2m-159.3-6.4c-0.2-1.6 1-3 2.6-3.1 1.5-0.2 2.9 1 3.1 2.6 0.1 1.6-1.1 3-2.7 3.1h-0.2c-1.5 0-2.7-1.1-2.9-2.6m158.2-1.9v-0.1c-0.1-1.5 1.2-2.9 2.8-3 1.5 0 2.9 1.2 2.9 2.8 0.1 1.6-1.1 2.9-2.7 3h-0.1c-1.6 0-2.8-1.2-2.9-2.7zm-155.7-3.2c-1.6-0.2-2.7-1.6-2.5-3.2 0.2-1.6 1.6-2.7 3.2-2.5 1.6 0.2 2.7 1.6 2.5 3.2-0.2 1.4-1.4 2.5-2.8 2.5zm155.5-4.6c-0.1-1.6 1.1-2.9 2.7-2.9 1.6-0.1 2.9 1.1 3 2.7 0 1.6-1.2 2.9-2.8 3h-0.1c-1.5 0-2.8-1.2-2.8-2.8zm-154.2-3.1c-1.2-1-1.4-2.8-0.4-4 1-1.3 2.9-1.4 4.1-0.4 1.2 1 1.4 2.8 0.3 4.1-0.5 0.6-1.4 1-2.2 1-0.6 0-1.3-0.2-1.8-0.7zm153.3-3.8c-0.4-1.6 0.4-3.2 2-3.6 1.5-0.4 3.1 0.5 3.5 2 0.4 1.5-0.5 3.1-2 3.6l-0.8 0.1c-1.2 0-2.4-0.9-2.7-2.1zm-147.9-1.6c-0.6-1.5 0-3.2 1.4-3.8 1.4-0.7 3.2-0.1 3.9 1.3 0.6 1.4 0 3.2-1.4 3.8-0.4 0.2-0.9 0.3-1.3 0.3-1 0-2.1-0.6-2.6-1.6zm7.1-3.1c-0.5-1.5 0.3-3.1 1.8-3.6 1.5-0.6 3.2 0.3 3.7 1.7 0.5 1.5-0.3 3.2-1.8 3.7q-0.5 0.1-0.9 0.1c-1.2 0-2.4-0.7-2.8-1.9zm137.7-0.4c-1.2-1.1-1.3-2.9-0.3-4.1 1.1-1.2 2.9-1.3 4.1-0.3 1.2 1 1.3 2.9 0.3 4.1-0.6 0.6-1.4 1-2.2 1-0.7 0-1.3-0.3-1.9-0.7m-130.3-2c-0.7-1.5 0-3.2 1.4-3.8 1.4-0.7 3.1 0 3.8 1.4 0.6 1.5 0 3.1-1.4 3.8-0.4 0.2-0.8 0.2-1.2 0.2-1.1 0-2.1-0.6-2.6-1.6m124.5-1c-1.5-0.4-2.3-2.1-1.8-3.6 0.4-1.5 2-2.3 3.6-1.8 1.4 0.4 2.3 2.1 1.8 3.6-0.4 1.2-1.5 2-2.7 2q-0.5 0-0.9-0.2zm-117.5-2.5c-1.2-1.1-1.2-2.9-0.2-4 1.1-1.2 3-1.2 4.1-0.1 1.2 1.1 1.2 2.9 0.1 4-0.6 0.6-1.3 0.9-2.1 0.9-0.7 0-1.4-0.2-1.9-0.8zm110.3 0.7c-1.6-0.3-2.6-1.9-2.2-3.4 0.3-1.5 1.9-2.5 3.4-2.2 1.6 0.4 2.5 1.9 2.2 3.4-0.3 1.4-1.5 2.3-2.8 2.3zm-7.8-2.1c-1.5-0.5-2.3-2.1-1.7-3.6 0.5-1.5 2.1-2.3 3.6-1.8 1.5 0.5 2.3 2.2 1.8 3.7-0.4 1.1-1.5 1.9-2.7 1.9q-0.5 0-1-0.2m-7.6-4.4c-1.2-1-1.3-2.8-0.2-4 1-1.2 2.9-1.3 4-0.2 1.2 1 1.3 2.8 0.3 4-0.6 0.7-1.4 1-2.2 1-0.7 0-1.3-0.3-1.9-0.8m-89.9 0c-1.3-0.9-1.8-2.6-0.9-4 0.8-1.3 2.5-1.8 3.9-1 1.4 0.9 1.8 2.6 0.9 4-0.5 0.9-1.4 1.4-2.4 1.4q-0.8 0-1.5-0.4m84.5-6.1c-1-1.3-0.8-3.1 0.5-4.1 1.3-0.9 3.1-0.7 4 0.6 1 1.3 0.8 3-0.5 4-0.5 0.4-1.2 0.6-1.8 0.6-0.8 0-1.7-0.4-2.3-1.1m-80.5-0.6c-1.3-0.8-1.7-2.6-0.8-4 0.8-1.3 2.6-1.7 3.9-0.8 1.4 0.8 1.8 2.6 0.9 3.9-0.5 0.9-1.5 1.3-2.4 1.3-0.5 0-1.1-0.1-1.5-0.4m35.2-4.3c-1.6-0.3-2.6-1.7-2.4-3.3 0.2-1.5 1.7-2.6 3.3-2.4 1.5 0.3 2.6 1.7 2.4 3.3-0.2 1.4-1.5 2.4-2.9 2.4zm40.7-1.2c-1-1.2-0.9-3 0.3-4 1.3-1 3.1-0.8 4.1 0.4 1 1.2 0.8 3-0.4 4-0.5 0.5-1.2 0.7-1.8 0.7-0.9 0-1.7-0.4-2.2-1.1zm-35.4-1.3c-0.4-1.5 0.6-3.1 2.1-3.5 1.5-0.3 3.1 0.6 3.5 2.1 0.4 1.5-0.5 3.1-2.1 3.5l-0.7 0.1c-1.3 0-2.4-0.9-2.8-2.2m-36.3 0.3c-1.1-1.2-1-3 0.1-4.1 1.2-1 3-0.9 4.1 0.2 1.1 1.2 1 3-0.2 4.1-0.6 0.5-1.3 0.7-1.9 0.7-0.8 0-1.6-0.3-2.1-0.9zm23.2 0.3c-1.6-0.5-2.4-2.1-2-3.6 0.5-1.5 2.1-2.4 3.6-1.9 1.5 0.4 2.4 2 1.9 3.6-0.4 1.2-1.5 2-2.7 2l-0.9-0.1zm20.6-2.8c-0.6-1.5 0-3.2 1.5-3.8 1.4-0.6 3.1 0.1 3.8 1.5 0.6 1.4-0.1 3.1-1.5 3.8q-0.6 0.2-1.2 0.2c-1.1 0-2.1-0.6-2.6-1.7m-27.8 0.7c-1.5-0.4-2.5-1.9-2.1-3.4 0.3-1.6 1.8-2.6 3.4-2.2 1.5 0.4 2.5 1.9 2.1 3.4-0.3 1.4-1.5 2.3-2.8 2.3zm-9.8-3.1c-0.2-1.5 0.9-3 2.4-3.2 1.6-0.2 3.1 0.9 3.3 2.5 0.2 1.6-0.9 3-2.5 3.2h-0.4c-1.4 0-2.6-1-2.8-2.5zm60.6 1.2c-1.3-0.9-1.7-2.6-0.8-4 0.9-1.3 2.6-1.7 4-0.8 1.3 0.9 1.7 2.7 0.8 4-0.5 0.8-1.5 1.3-2.4 1.3-0.5 0-1.1-0.2-1.6-0.5zm-15.9-2c-0.5-1.5 0.2-3.1 1.7-3.7 1.5-0.5 3.2 0.3 3.7 1.8 0.5 1.5-0.2 3.1-1.7 3.6q-0.5 0.2-1 0.2c-1.2 0-2.3-0.7-2.7-1.9zm7.4-2.5c-0.1-1.6 1.2-2.9 2.8-2.9 1.6 0 2.9 1.2 2.9 2.8 0 1.6-1.3 2.9-2.9 2.9-1.5 0-2.8-1.2-2.8-2.8z"/>
				<path class="s33" d="m124.3 214.2c-0.4-1.7 0.6-3.4 2.3-3.9 1.6-0.5 3.4 0.5 3.8 2.2 0.5 1.6-0.5 3.4-2.2 3.8l-0.8 0.1c-1.4 0-2.7-0.8-3-2.3m-5.8 2.1c-1.7-0.6-2.5-2.4-2-4.1 0.6-1.6 2.4-2.5 4.1-1.9 1.6 0.5 2.5 2.4 1.9 4-0.4 1.3-1.7 2.1-3 2.1q-0.5 0-1-0.1m13.2-4.6c-0.9-1.5-0.5-3.4 1-4.3 1.5-1 3.4-0.5 4.4 1 0.9 1.5 0.4 3.4-1 4.3q-0.8 0.5-1.7 0.5c-1.1 0-2.1-0.5-2.7-1.5zm-20.9-0.1c-1.3-1.1-1.5-3.1-0.4-4.4 1.2-1.4 3.1-1.5 4.5-0.4 1.3 1.1 1.5 3.1 0.4 4.4-0.6 0.8-1.6 1.1-2.5 1.1-0.7 0-1.4-0.2-2-0.7zm27.5-4.2c-1-1.4-0.6-3.4 0.8-4.4 1.4-1 3.4-0.6 4.4 0.8 1 1.5 0.6 3.4-0.8 4.4-0.6 0.4-1.2 0.6-1.8 0.6-1 0-2-0.5-2.6-1.4zm-33.4-1.4c-1.3-1.2-1.3-3.2-0.1-4.4 1.3-1.2 3.2-1.3 4.5-0.1 1.2 1.3 1.3 3.3 0.1 4.5-0.7 0.6-1.5 1-2.3 1-0.8 0-1.6-0.4-2.2-1zm39.9-3.1c-0.7-1.6-0.1-3.5 1.5-4.2 1.6-0.7 3.5-0.1 4.2 1.5 0.7 1.6 0.1 3.5-1.5 4.2q-0.7 0.3-1.4 0.3c-1.1 0-2.3-0.7-2.8-1.8zm7.3-3c-0.2-1.7 1.1-3.3 2.8-3.4 1.8-0.2 3.3 1.1 3.4 2.8 0.2 1.8-1.1 3.3-2.8 3.5h-0.3c-1.6 0-3-1.2-3.1-2.9zm7.8-0.5c0-1.8 1.4-3.2 3.2-3.2 1.7 0 3.1 1.4 3.2 3.1 0 1.8-1.4 3.2-3.2 3.2-1.7 0-3.1-1.4-3.2-3.1m7.9 0c-0.1-1.8 1.1-3.3 2.8-3.5 1.7-0.2 3.3 1 3.5 2.7 0.2 1.8-1 3.3-2.8 3.5l-0.3 0.1c-1.6 0-3-1.2-3.2-2.8zm-68.5 1.6c-1.4-1-1.6-3-0.5-4.4 1-1.4 3-1.6 4.4-0.6 1.3 1.1 1.6 3.1 0.5 4.4-0.6 0.8-1.5 1.3-2.5 1.3-0.6 0-1.3-0.2-1.9-0.7zm76.5-2.6c-0.9-1.5-0.4-3.5 1.1-4.3 1.5-0.9 3.5-0.4 4.3 1.1 0.9 1.5 0.3 3.5-1.2 4.4q-0.7 0.4-1.5 0.4c-1.1 0-2.2-0.6-2.8-1.6zm-82.4-0.6c-1.6-0.6-2.5-2.4-1.9-4.1 0.5-1.6 2.3-2.5 4-1.9 1.6 0.5 2.5 2.4 2 4-0.5 1.3-1.7 2.1-3.1 2.1q-0.4 0-1-0.1zm-7.2-1.8c-1.7-0.3-2.8-2-2.5-3.7 0.3-1.7 2-2.8 3.7-2.5 1.7 0.3 2.8 2 2.5 3.7-0.3 1.5-1.6 2.6-3.1 2.6l-0.6-0.1zm-7.8-1.5c-1.7-0.4-2.8-2.1-2.4-3.8 0.4-1.7 2.1-2.8 3.8-2.4 1.7 0.4 2.8 2.1 2.3 3.8-0.3 1.5-1.6 2.5-3 2.5 0 0-0.7-0.1-0.7-0.1zm104-0.6c-1.5-0.7-2.2-2.6-1.4-4.2 0.8-1.6 2.7-2.2 4.2-1.4 1.6 0.7 2.2 2.6 1.5 4.2-0.6 1.1-1.7 1.7-2.9 1.7q-0.7 0-1.4-0.3m-112.3-2.6c-1.5-0.9-2-2.8-1-4.3 0.9-1.5 2.8-2 4.3-1.1 1.5 0.9 2 2.9 1 4.4-0.6 0.9-1.6 1.5-2.6 1.5-0.6 0-1.2-0.2-1.7-0.5zm115.4-4.6c-1.7-0.4-2.7-2.1-2.4-3.7 0.4-1.8 2.1-2.8 3.8-2.5 1.7 0.4 2.8 2.1 2.4 3.8-0.3 1.4-1.6 2.5-3.1 2.5 0 0-0.7-0.1-0.7-0.1zm-121.7-2.7c-0.7-1.6 0-3.4 1.6-4.1 1.6-0.7 3.5 0 4.2 1.6 0.7 1.6-0.1 3.5-1.7 4.1q-0.6 0.3-1.2 0.3c-1.2 0-2.4-0.7-2.9-1.9zm123.3-5c-1.7-0.4-2.8-2-2.5-3.7 0.3-1.8 2-2.9 3.7-2.5 1.7 0.3 2.8 2 2.5 3.7-0.3 1.5-1.6 2.5-3.1 2.5zm-125.2-3.6c-0.2-1.7 1.1-3.2 2.9-3.4 1.7-0.1 3.2 1.2 3.4 2.9 0.1 1.8-1.2 3.3-2.9 3.4h-0.3c-1.6 0-3-1.2-3.1-2.9zm126.7-4.1c-1.6-0.7-2.3-2.5-1.7-4.1 0.2-0.4 0.4-0.7 0.6-1q0.1-0.5 0.3-1c0.8-1.6 2.7-2.2 4.3-1.4 1.5 0.8 2.1 2.7 1.3 4.2l-0.5 0.7-0.2 0.8c-0.5 1.3-1.6 2-2.9 2q-0.6 0-1.2-0.2m-126.9-4c0-1.7 1.4-3.1 3.1-3.2 1.7 0 3.2 1.4 3.2 3.2 0 1.7-1.4 3.1-3.2 3.1-1.7 0.1-3.1-1.3-3.1-3.1zm131.4-4.7c-1.2-1.2-1.4-3.2-0.2-4.5 1.2-1.2 3.2-1.4 4.5-0.2 1.3 1.2 1.4 3.2 0.2 4.5-0.6 0.7-1.5 1-2.4 1-0.7 0-1.5-0.3-2.1-0.8zm-131.8-2.7c-0.3-1.8 0.9-3.4 2.6-3.6 1.8-0.2 3.4 1 3.6 2.7 0.2 1.7-0.9 3.3-2.7 3.6h-0.4c-1.6 0-2.9-1.1-3.1-2.7zm137.2-3.1c-1.2-1.2-1.3-3.2-0.1-4.4 1.3-1.3 3.3-1.3 4.5-0.1 1.3 1.2 1.3 3.2 0.1 4.4-0.6 0.7-1.5 1-2.3 1-0.8 0-1.6-0.3-2.2-0.9m-139.4-3.3c-0.8-1.6-0.2-3.5 1.3-4.3 1.6-0.8 3.5-0.2 4.3 1.3 0.8 1.5 0.2 3.4-1.3 4.3q-0.7 0.3-1.5 0.3c-1.1 0-2.2-0.6-2.8-1.6m144.9-2.3c-1.4-1-1.8-3-0.9-4.4 1-1.5 3-1.9 4.4-0.9 1.5 1 1.9 2.9 0.9 4.4-0.6 0.9-1.6 1.4-2.6 1.4q-1 0-1.8-0.5zm-148.9-4c-1-1.5-0.6-3.4 0.8-4.4 1.4-1 3.4-0.7 4.4 0.8 1 1.4 0.6 3.3-0.8 4.3-0.5 0.4-1.2 0.6-1.8 0.6-1 0-2-0.5-2.6-1.3zm153.2-2.8c-1.7-0.1-3.1-1.6-3-3.3 0.1-1.7 1.6-3.1 3.3-3 1.7 0.1 3.1 1.6 3 3.3-0.1 1.7-1.5 3-3.1 3zm-157.7-4c-0.9-1.5-0.4-3.5 1.1-4.4 1.5-0.8 3.5-0.3 4.3 1.2 0.9 1.5 0.4 3.4-1.1 4.3-0.5 0.3-1 0.4-1.6 0.4-1.1 0-2.1-0.5-2.7-1.5zm153.2-5.4c-0.7-1.6 0-3.5 1.6-4.2 1.6-0.8 3.4-0.1 4.1 1.5 0.8 1.6 0.1 3.5-1.5 4.2q-0.6 0.3-1.3 0.3c-1.2 0-2.3-0.7-2.9-1.8zm-156.5-2.9c-0.3-1.8 0.8-3.4 2.5-3.7 1.8-0.3 3.4 0.8 3.7 2.5 0.3 1.8-0.8 3.4-2.6 3.7l-0.5 0.1c-1.5 0-2.8-1.1-3.1-2.6zm152.8-3.4c-1-1.5-0.7-3.4 0.8-4.4 1.4-1 3.4-0.6 4.4 0.8 0.9 1.4 0.6 3.4-0.9 4.4-0.5 0.4-1.1 0.5-1.8 0.5-1 0-1.9-0.4-2.5-1.3zm-150-2c-1.6-0.7-2.3-2.6-1.6-4.2 0.8-1.6 2.7-2.3 4.2-1.5 1.6 0.7 2.3 2.6 1.6 4.2-0.6 1.1-1.7 1.8-2.9 1.8q-0.7 0-1.3-0.3zm145.4-4.6c-0.9-1.5-0.4-3.5 1-4.4 1.5-0.9 3.5-0.5 4.4 1 0.9 1.5 0.5 3.4-1 4.3q-0.8 0.5-1.7 0.5c-1 0-2-0.5-2.7-1.4zm-141.7-2.3c-1.3-1.2-1.4-3.2-0.2-4.5 1.1-1.3 3.1-1.4 4.4-0.2 1.3 1.1 1.4 3.1 0.3 4.4-0.7 0.7-1.5 1.1-2.4 1.1-0.7 0-1.5-0.3-2.1-0.8zm138-5.7c-0.5-1.7 0.5-3.4 2.2-3.9 1.7-0.4 3.4 0.6 3.9 2.2 0.5 1.7-0.5 3.5-2.2 3.9l-0.8 0.1c-1.4 0-2.7-0.9-3.1-2.3m-132.6-0.1c-1.3-1.2-1.3-3.2-0.1-4.5 1.2-1.2 3.2-1.3 4.5-0.1 1.2 1.3 1.2 3.2 0.1 4.5-0.7 0.7-1.5 1-2.3 1-0.8 0-1.6-0.3-2.2-0.9zm5.5-5.7c-1.4-1-1.8-2.9-0.8-4.4 1-1.4 3-1.8 4.4-0.8 1.4 1 1.8 3 0.8 4.4-0.7 0.9-1.6 1.4-2.6 1.4-0.7 0-1.3-0.2-1.8-0.6zm126-2.7c0-1.8 1.3-3.2 3.1-3.3 1.7 0 3.2 1.3 3.2 3.1 0.1 1.7-1.3 3.2-3 3.2h-0.1c-1.7 0-3.1-1.3-3.2-3zm-121.8-3.9c-1.7-0.5-2.6-2.3-2.1-4 0.5-1.6 2.2-2.6 3.9-2.1 1.7 0.5 2.6 2.2 2.1 3.9-0.4 1.4-1.6 2.3-3 2.3q-0.5 0-0.9-0.1m121.7-4c0-1.8 1.3-3.2 3.1-3.3 1.7 0 3.2 1.4 3.2 3.1 0.1 1.7-1.3 3.2-3 3.2h-0.1c-1.7 0-3.2-1.3-3.2-3m-119.7-3.7c-1.7-0.3-2.8-1.9-2.5-3.7 0.3-1.6 2-2.8 3.7-2.5 1.7 0.3 2.8 2 2.5 3.7-0.3 1.5-1.6 2.6-3.1 2.6l-0.6-0.1zm118.9-3.5c-0.4-1.7 0.7-3.4 2.3-3.8 1.7-0.4 3.4 0.6 3.9 2.3 0.4 1.7-0.7 3.4-2.3 3.8l-0.8 0.1c-1.4 0-2.7-0.9-3.1-2.4zm-117.5-4.2c-1.7-0.5-2.7-2.2-2.2-3.9 0.4-1.7 2.2-2.7 3.9-2.2 1.6 0.5 2.6 2.2 2.2 3.9-0.4 1.4-1.7 2.3-3.1 2.3 0 0-0.8-0.1-0.8-0.1zm114.7-1.1c-1.2-1.2-1.2-3.2 0-4.5 1.2-1.2 3.2-1.2 4.4 0 1.3 1.2 1.3 3.2 0.1 4.4-0.6 0.7-1.5 1-2.3 1-0.8 0-1.6-0.3-2.2-0.9zm-5.5-3.1c-1.7-0.5-2.6-2.3-2.1-3.9 0.6-1.7 2.3-2.6 4-2.1 1.6 0.6 2.6 2.4 2 4-0.4 1.4-1.6 2.2-3 2.2q-0.5 0-0.9-0.2zm-7.3-1.6c-1.7-0.4-2.9-2-2.6-3.7 0.4-1.7 2-2.9 3.7-2.6 1.7 0.4 2.9 2 2.5 3.7-0.2 1.6-1.6 2.6-3.1 2.6 0 0-0.5 0-0.5 0zm-99.8-1.9c-1.3-1.1-1.6-3-0.5-4.4 1-1.4 3-1.7 4.4-0.6 1.4 1.1 1.6 3 0.6 4.4-0.6 0.8-1.6 1.3-2.5 1.3-0.7 0-1.4-0.3-2-0.7m91.8 0.2c-1.6-0.4-2.7-2.1-2.2-3.8 0.4-1.7 2.1-2.7 3.8-2.3 1.7 0.5 2.7 2.2 2.3 3.9-0.4 1.4-1.7 2.4-3.1 2.4l-0.8-0.2zm-8.1-3.2c-1.5-0.9-2-2.9-1.1-4.3 0.9-1.5 2.9-2 4.4-1.1 1.5 0.9 1.9 2.9 1 4.4-0.6 0.9-1.6 1.4-2.7 1.4-0.5 0-1.1-0.1-1.6-0.4m-78.3-2.9c-0.6-1.6 0.3-3.4 2-4 1.6-0.5 3.4 0.4 4 2.1 0.5 1.6-0.4 3.4-2 3.9q-0.5 0.2-1 0.2c-1.4 0-2.6-0.8-3-2.2zm7.6-2c-0.1-1.8 1.2-3.3 3-3.3 1.7-0.1 3.2 1.2 3.3 2.9 0.1 1.8-1.3 3.3-3 3.3h-0.2c-1.6 0-3-1.3-3.1-2.9zm7.9-0.3c-0.1-1.7 1.3-3.2 3-3.2 1.8 0 3.2 1.4 3.3 3.1 0 1.8-1.4 3.2-3.2 3.2-1.7 0-3.1-1.4-3.2-3.1m7.9-0.1c-0.3-1.7 0.8-3.4 2.5-3.7 1.7-0.3 3.4 0.8 3.7 2.5 0.4 1.7-0.7 3.4-2.4 3.7l-0.7 0.1c-1.4 0-2.8-1.1-3.1-2.6m48.3 0c-1.2-1.2-1.3-3.2-0.1-4.5 1.2-1.3 3.2-1.3 4.4-0.1 1.3 1.2 1.4 3.2 0.2 4.4-0.7 0.7-1.5 1.1-2.3 1.1-0.8 0-1.6-0.3-2.2-0.9zm-40.6-1.9c-0.9-1.5-0.4-3.5 1.1-4.3 1.5-0.9 3.5-0.4 4.4 1.1 0.8 1.5 0.3 3.4-1.2 4.3-0.5 0.3-1 0.4-1.6 0.4-1.1 0-2.1-0.5-2.7-1.5m35-3.6c-1.3-1.2-1.4-3.1-0.2-4.4 1.2-1.3 3.2-1.4 4.5-0.2 1.2 1.2 1.3 3.2 0.1 4.5-0.6 0.6-1.4 1-2.3 1-0.8 0-1.5-0.3-2.1-0.9zm-28.3-0.6c-1-1.4-0.7-3.4 0.8-4.4 1.4-0.9 3.4-0.6 4.4 0.8 1 1.4 0.6 3.4-0.8 4.4-0.6 0.4-1.2 0.6-1.8 0.6-1 0-2-0.5-2.6-1.4m6.4-4.5c-0.8-1.6-0.2-3.5 1.3-4.3 1.6-0.8 3.5-0.2 4.3 1.3 0.8 1.5 0.2 3.4-1.3 4.3-0.5 0.2-1 0.3-1.5 0.3-1.1 0-2.2-0.6-2.8-1.6zm16.2 0.7c-1.5-0.8-2-2.8-1.1-4.2 0.8-1.6 2.7-2.1 4.2-1.2 1.6 0.8 2.1 2.8 1.2 4.3-0.6 1-1.6 1.6-2.7 1.6q-0.8 0-1.6-0.4m-9.1-4.5c-0.1-1.7 1.2-3.2 3-3.3 1.7-0.1 3.2 1.2 3.3 2.9 0.1 1.7-1.2 3.2-2.9 3.4h-0.2c-1.7 0-3.1-1.3-3.2-3z"/>
				<path class="s34" d="m103.4 199.7c0-1.9 1.5-3.5 3.5-3.5 1.9 0 3.4 1.5 3.4 3.4 0 1.9-1.5 3.4-3.4 3.5-1.9 0-3.5-1.6-3.5-3.4m46.6 0.3c-0.2-1.9 1.1-3.6 3-3.9 1.8-0.3 3.6 1.1 3.8 3 0.3 1.8-1 3.6-2.9 3.8l-0.5 0.1c-1.7 0-3.1-1.3-3.4-3zm-5.5 1.8c-1.8-0.6-2.8-2.5-2.3-4.3 0.6-1.8 2.5-2.8 4.3-2.3 1.8 0.6 2.9 2.5 2.3 4.3-0.4 1.5-1.8 2.5-3.3 2.5q-0.5 0-1-0.2zm-33-2.7c-0.7-1.8 0.3-3.7 2.1-4.4 1.8-0.6 3.8 0.4 4.4 2.2 0.6 1.8-0.4 3.7-2.2 4.3q-0.5 0.2-1.1 0.2c-1.4 0-2.8-0.9-3.2-2.3zm-14.3 0.1c-1.4-1.3-1.4-3.5-0.1-4.8 1.4-1.4 3.6-1.4 4.9-0.1 1.4 1.3 1.4 3.5 0.1 4.9-0.7 0.7-1.6 1-2.5 1-0.9 0-1.7-0.3-2.4-1zm39.6-0.2c-1.8-0.6-2.7-2.6-2.1-4.4 0.6-1.7 2.6-2.7 4.4-2 1.8 0.6 2.7 2.6 2.1 4.4-0.5 1.4-1.8 2.2-3.3 2.2q-0.5 0-1.1-0.2m21.2-0.8c-1.5-1.2-1.7-3.4-0.5-4.8 1.2-1.5 3.3-1.8 4.8-0.6 1.5 1.2 1.7 3.4 0.5 4.9-0.7 0.8-1.7 1.2-2.6 1.2-0.8 0-1.6-0.2-2.2-0.7zm-39-1.9c-0.6-1.8 0.4-3.7 2.2-4.3 1.8-0.6 3.8 0.4 4.4 2.2 0.6 1.8-0.4 3.7-2.2 4.3q-0.6 0.2-1.1 0.2c-1.5 0-2.8-0.9-3.3-2.4m10.9 1c-1.8-0.1-3.3-1.7-3.2-3.6 0.1-1.9 1.8-3.4 3.7-3.2 1.9 0.1 3.3 1.7 3.2 3.6-0.1 1.9-1.6 3.3-3.4 3.3h-0.3zm-37.8-5.8c-0.8-1.7-0.1-3.7 1.6-4.6 1.7-0.8 3.7-0.1 4.6 1.6 0.8 1.7 0.1 3.8-1.6 4.6-0.5 0.2-1 0.3-1.5 0.3-1.3 0-2.5-0.6-3.1-1.9zm70.6 0.1c-1.7-0.8-2.4-2.9-1.6-4.6 0.8-1.7 2.8-2.4 4.5-1.6 1.8 0.8 2.5 2.8 1.7 4.5-0.6 1.3-1.8 2-3.1 2q-0.8 0-1.5-0.3zm-74-7.3c-0.9-1.7-0.2-3.8 1.5-4.6 1.7-0.9 3.7-0.2 4.6 1.5 0.9 1.7 0.2 3.8-1.5 4.6q-0.8 0.4-1.6 0.4c-1.2 0-2.4-0.7-3-1.9m77.3-0.1c-1.6-0.9-2.2-3-1.3-4.6 0.7-1.3 2-1.9 3.3-1.8-0.6-1.2-0.3-2.8 0.7-3.8 1.3-1.3 3.5-1.3 4.9 0 1.3 1.4 1.3 3.6 0 4.9-0.8 0.7-1.8 1.1-2.8 1 0.5 0.9 0.4 2.1-0.1 3-0.6 1.1-1.8 1.8-3 1.8-0.6 0-1.2-0.1-1.7-0.5zm-81.2-5.5c-1.4-1.3-1.4-3.5-0.1-4.9 1.3-1.4 3.5-1.4 4.9-0.1 1.3 1.3 1.4 3.5 0.1 4.8-0.7 0.7-1.6 1.1-2.5 1.1-0.9 0-1.7-0.3-2.4-0.9zm89.9-5.1c-0.8-1.7-0.1-3.8 1.6-4.7 1.7-0.8 3.7-0.1 4.6 1.6 0.8 1.7 0.1 3.8-1.6 4.6q-0.7 0.4-1.5 0.4c-1.3 0-2.5-0.7-3.1-1.9zm-95.8 1.3c-1.7-0.8-2.4-2.9-1.5-4.6 0.8-1.7 2.9-2.4 4.6-1.6 1.7 0.9 2.4 3 1.5 4.6-0.6 1.3-1.8 2-3 2-0.6 0-1.1-0.1-1.6-0.4zm103.1-4.8c-0.9-1.7-0.2-3.8 1.5-4.6 1.7-0.9 3.8-0.2 4.6 1.5 0.9 1.7 0.2 3.8-1.5 4.6q-0.7 0.4-1.5 0.4c-1.3 0-2.5-0.7-3.1-1.9m-110.4 1.3c-1.7-0.8-2.3-2.9-1.5-4.6 0.9-1.7 3-2.4 4.7-1.5 1.6 0.9 2.3 3 1.4 4.6-0.6 1.2-1.8 1.9-3 1.9q-0.8 0-1.6-0.4zm117.7-4.8c-1.4-1.3-1.5-3.5-0.2-4.9 1.3-1.4 3.5-1.5 4.9-0.2 1.4 1.2 1.5 3.4 0.2 4.8-0.7 0.8-1.6 1.2-2.6 1.2-0.8 0-1.6-0.3-2.3-0.9zm-125.2-0.7c-1.2-1.4-1.1-3.6 0.4-4.8 1.4-1.2 3.6-1.1 4.9 0.4 1.2 1.5 1 3.6-0.5 4.8-0.6 0.6-1.4 0.8-2.2 0.8-1 0-1.9-0.4-2.6-1.2m126.7-9.1c-0.1-1.9 1.4-3.5 3.3-3.6 1.9-0.1 3.5 1.4 3.5 3.3 0.1 1.9-1.4 3.5-3.3 3.6h-0.1c-1.8 0-3.4-1.5-3.4-3.3zm-126.6 2.9c-1.9-0.2-3.3-1.8-3.2-3.7 0.1-1.9 1.8-3.3 3.7-3.2 1.8 0.1 3.3 1.8 3.2 3.6-0.2 1.9-1.7 3.3-3.5 3.3zm125-9.7c-0.6-1.8 0.3-3.8 2.1-4.4 1.8-0.7 3.8 0.3 4.4 2.1 0.6 1.8-0.3 3.8-2.1 4.4-0.4 0.1-0.8 0.2-1.1 0.2-1.5 0-2.8-0.9-3.3-2.3zm-124 1.7c-1.8-0.7-2.7-2.6-2.1-4.4 0.7-1.8 2.6-2.7 4.4-2.1 1.8 0.6 2.7 2.6 2.1 4.4-0.5 1.4-1.8 2.3-3.2 2.3q-0.6 0-1.2-0.2m121.3-9.4c-0.6-1.8 0.4-3.7 2.2-4.3 1.8-0.6 3.8 0.4 4.3 2.2 0.6 1.8-0.4 3.7-2.2 4.3q-0.5 0.2-1 0.2c-1.5 0-2.8-0.9-3.3-2.4m-118.4 1.8c-1.9-0.5-2.9-2.4-2.3-4.2 0.6-1.9 2.5-2.9 4.3-2.3 1.8 0.5 2.8 2.5 2.3 4.3-0.5 1.5-1.8 2.4-3.3 2.4q-0.5 0-1-0.2zm120.2-7.3c-1.9-0.2-3.3-1.9-3.2-3.7 0.2-1.9 1.9-3.4 3.8-3.2 1.9 0.2 3.3 1.9 3.1 3.8-0.2 1.8-1.7 3.1-3.4 3.1zm-121.6-3.4c-0.2-2 1.1-3.6 3-3.9 1.9-0.2 3.6 1.2 3.8 3.1 0.3 1.8-1.1 3.6-3 3.8h-0.4c-1.7 0-3.2-1.3-3.4-3zm122.7-4.6c-1.8-0.6-2.7-2.6-2-4.4 0.6-1.8 2.6-2.7 4.4-2 1.7 0.6 2.7 2.6 2 4.4-0.5 1.4-1.8 2.2-3.2 2.2q-0.6 0-1.2-0.2zm-124.6-2.4c-0.7-1.8 0.2-3.8 2-4.4 1.8-0.7 3.8 0.3 4.4 2 0.7 1.8-0.2 3.8-2 4.5q-0.6 0.1-1.2 0.2c-1.4 0-2.7-0.9-3.2-2.3zm127.5-5.1c-1.8-0.5-2.9-2.4-2.3-4.3 0.5-1.8 2.4-2.8 4.3-2.3 1.8 0.6 2.8 2.5 2.3 4.3-0.5 1.5-1.8 2.5-3.3 2.5q-0.5 0-1-0.2zm-130.3-2.7c-0.5-1.9 0.6-3.8 2.4-4.3 1.8-0.5 3.7 0.5 4.2 2.4 0.6 1.8-0.5 3.7-2.3 4.3q-0.5 0.1-1 0.1c-1.5 0-2.9-1-3.3-2.5m128.7-7.9c-0.3-1.9 0.9-3.7 2.8-4 1.9-0.3 3.7 0.9 4 2.8 0.3 1.9-0.9 3.7-2.8 4h-0.6c-1.6 0-3.1-1.1-3.4-2.8zm-126.7 2.4c-1.9-0.5-3.1-2.3-2.6-4.2 0.4-1.8 2.2-3 4.1-2.6 1.8 0.4 3 2.3 2.6 4.1-0.4 1.6-1.8 2.7-3.4 2.7l-0.7-0.1zm123.7-6.7c-1.5-1.2-1.8-3.4-0.6-4.9 1.2-1.5 3.3-1.8 4.8-0.6 1.5 1.2 1.8 3.3 0.7 4.8-0.7 0.9-1.7 1.4-2.8 1.4-0.7 0-1.4-0.3-2.1-0.7zm-121.2-1c-1.1-1.5-0.8-3.7 0.7-4.8 1.6-1.1 3.7-0.8 4.8 0.8 1.2 1.5 0.8 3.6-0.7 4.8-0.6 0.4-1.3 0.6-2 0.6-1.1 0-2.2-0.5-2.8-1.4zm114.9-2.6c-1.7-0.8-2.5-2.8-1.7-4.6 0.8-1.7 2.9-2.4 4.6-1.6 1.7 0.8 2.5 2.8 1.7 4.6-0.6 1.2-1.9 1.9-3.2 1.9q-0.7 0-1.4-0.3m-108.2-1.8c-0.8-1.8-0.1-3.8 1.6-4.6 1.8-0.8 3.8-0.1 4.6 1.7 0.8 1.7 0.1 3.7-1.7 4.5q-0.7 0.3-1.4 0.4c-1.3 0-2.6-0.8-3.1-2m100.7-1.9c-1.6-0.9-2.2-3-1.3-4.7 1-1.6 3.1-2.2 4.7-1.2 1.7 0.9 2.2 3 1.3 4.7-0.6 1.1-1.8 1.7-3 1.7-0.5 0-1.1-0.2-1.7-0.5m-93.4-1.4c-0.9-1.7-0.4-3.8 1.3-4.7 1.6-1 3.7-0.5 4.7 1.2 0.9 1.6 0.4 3.7-1.3 4.7q-0.8 0.5-1.7 0.5c-1.2 0-2.3-0.6-3-1.7zm86.3-4.7c-1.1-1.5-0.8-3.7 0.7-4.8 1.6-1.1 3.7-0.8 4.8 0.7 1.2 1.6 0.8 3.7-0.7 4.8-0.6 0.5-1.3 0.7-2 0.7-1.1 0-2.1-0.5-2.8-1.4zm-79.3 0.4c-1.6-1-2-3.2-0.9-4.8 1.1-1.5 3.3-1.9 4.8-0.8 1.6 1.1 2 3.2 0.9 4.8-0.7 1-1.8 1.5-2.9 1.5-0.7 0-1.3-0.2-1.9-0.7zm75-8c-0.8-1.7 0-3.8 1.7-4.6 1.7-0.8 3.8 0 4.6 1.7 0.8 1.7 0.1 3.7-1.7 4.5q-0.7 0.4-1.4 0.4c-1.3 0-2.6-0.8-3.2-2zm-70.7 1.3c-1.7-0.8-2.5-2.9-1.6-4.6 0.8-1.7 2.8-2.5 4.5-1.6 1.7 0.8 2.5 2.8 1.7 4.5-0.6 1.3-1.8 2-3.1 2-0.5 0-1-0.1-1.5-0.3m67.3-8.2c-0.9-1.7-0.4-3.8 1.3-4.8 1.6-0.9 3.7-0.3 4.7 1.3 0.9 1.6 0.4 3.7-1.3 4.7q-0.8 0.5-1.7 0.5c-1.2 0-2.3-0.7-3-1.7m-64 0.8c-1.6-1-2.2-3.1-1.2-4.7 1-1.6 3.1-2.2 4.7-1.2 1.7 1 2.2 3.1 1.2 4.8v-0.1c-0.6 1.1-1.8 1.7-2.9 1.7-0.6 0-1.3-0.2-1.8-0.5zm29.7-0.8c-1.8-0.4-3-2.3-2.6-4.1 0.5-1.9 2.3-3.1 4.2-2.6 1.8 0.4 3 2.2 2.5 4.1-0.3 1.6-1.7 2.6-3.3 2.6zm5.4-2.6c-0.5-1.9 0.7-3.7 2.5-4.1 1.9-0.5 3.7 0.6 4.2 2.5 0.4 1.8-0.7 3.7-2.6 4.1l-0.8 0.1c-1.5 0-2.9-1-3.3-2.6zm-13.5 0c-1.8-0.7-2.7-2.6-2-4.4 0.7-1.8 2.6-2.7 4.4-2 1.8 0.6 2.7 2.6 2.1 4.4-0.6 1.4-1.9 2.2-3.3 2.2q-0.6 0-1.2-0.2m21.2-2.2c-0.6-1.7 0.3-3.7 2-4.4 1.8-0.7 3.8 0.2 4.5 2 0.6 1.8-0.3 3.8-2 4.5q-0.7 0.2-1.3 0.2c-1.4 0-2.7-0.9-3.2-2.3m17.1 0.3c-1.6-0.8-2.3-2.9-1.4-4.6 0.9-1.7 3-2.3 4.7-1.5 1.7 0.9 2.3 3 1.4 4.7-0.6 1.2-1.8 1.8-3 1.8q-0.9 0-1.7-0.4zm-55.7-1.7c-0.8-1.7-0.1-3.8 1.6-4.6 1.7-0.8 3.8-0.1 4.6 1.6 0.8 1.8 0.1 3.8-1.6 4.6q-0.8 0.3-1.5 0.4c-1.3 0-2.5-0.8-3.1-2zm10.3 1.3c-1.9-0.4-3.1-2.2-2.7-4 0.4-1.9 2.2-3.1 4-2.7 1.9 0.4 3.1 2.2 2.7 4.1-0.3 1.6-1.7 2.7-3.3 2.7zm35.8-2.8c-0.3-1.9 0.9-3.7 2.8-4 1.9-0.4 3.6 0.9 4 2.7 0.3 1.9-0.9 3.7-2.8 4l-0.6 0.1c-1.6 0-3.1-1.2-3.4-2.8"/>
			</g>
		</g>
	</g>
</svg>