<svg version="1.2" xmlns="http://www.w3.org/2000/svg" viewBox="0 0 62 99" width="62" height="99">
	<title>Heba Sharkas</title>
	<style>
		.s0 { fill: #50c2b5 } 
		.s1 { fill: #7d2c6f } 
	</style>
	<g id="Layer_1-2">
		<g>
			<path class="s0" d="m31 44.1c-0.4 0.3-0.7 0.7-1 1.1-0.4 0.7-0.8 1.5-1.3 2.1-0.2 0.3-0.4 0.6-0.7 0.8q-0.7 0.8-1.7 0.5c-1.2-0.4-2.1-1-2.8-2q-0.4-0.6-0.8-1.2-0.5-0.9-1.5-0.6c-0.5 0.2-0.9 0.5-1.2 1-0.4 0.5-0.6 1.2-0.7 1.9-0.2 1.1-0.3 2.2-0.5 3.3-0.2 1-0.4 2-0.8 3-0.2 0.4-0.5 0.7-0.8 1-0.9 0.7-1.9 0.7-2.9 0.2q-0.9-0.5-1.4-1.4c-0.9-1.2-1.4-2.6-1.5-4.1-0.5-3.3 0.6-6.1 2.5-8.6q1.1-1.5 2.6-2.7c0.1-0.1 0.2-0.2 0.2-0.4q0.2-1.3 0.3-2.7c0-0.4 0-0.4 0.4-0.5 1.5-0.4 3-0.8 4.4-1.3 0.4-0.1 0.5-0.1 0.6 0.3 0.2 0.3 0.2 0.7 0.2 1.1 0 0.6 0 1.1-0.2 1.7q-0.2 0.7-0.9 1.1c-0.8 0.4-1.6 0.6-2.4 0.8q-0.9 0.2-1.8 0.3-0.2 0-0.4 0.2c-1.6 1.4-3 3.1-3.8 5.1-0.6 1.5-1 3-0.9 4.6q0.1 1.6 0.9 2.9 0.3 0.6 0.8 1c0.8 0.7 1.8 0.5 2.4-0.4 0.3-0.6 0.5-1.2 0.7-1.9 0.4-1.4 0.6-2.8 0.8-4.2 0.3-1.5 0.7-3 1.4-4.3 0.4-0.7 0.9-1.2 1.6-1.5q1.1-0.4 2 0.3 0.7 0.6 1.2 1.4 0.4 0.6 0.9 1.1 0.5 0.4 1.1 0.7 0.4 0.2 0.8 0c0.5-0.2 0.8-0.6 1.1-1q0.5-0.7 0.9-1.6c0.3-0.7 0.8-1.3 1.4-1.8q0.2 0 0.3-0.1 0.9-0.5 1.1 0.6c0.1 1.5 1 2.6 2.3 3.3 0.4 0.2 0.7 0.2 1.1 0.1 1-0.2 2-0.5 3-0.8 0.4-0.2 0.7-0.5 0.9-0.9 0.1-0.1 0.2-0.2 0-0.3-1.3-0.8-1.4-2-1.2-3.3 0.2-1.3 0.7-2.5 1.3-3.7q1-1.5 1.7-3.2c0-0.2 0.1-0.4 0.3-0.4 0.2-0.1 0.3 0.2 0.4 0.3q0.2 0.4 0.3 0.7c0.1 0.5 0.4 0.7 0.8 0.8 0.6 0.3 1.3 0.3 2 0.4q1.5 0.2 3 0.5c1.5 0.2 2.4 1.1 2.6 2.6q0.2 1.9-0.8 3.6c-0.4 0.7-1.1 1.1-1.9 1.2q-1.3 0.1-2.5 0.2-0.8 0-1.6 0.2c-0.3 0-0.5 0.2-0.7 0.5-0.7 1.1-1.6 2.1-2.5 3.1q-0.7 0.8-1.7 1.4-1.5 0.8-3.3 1.3-0.8 0.2-1.6-0.2c-1-0.5-1.7-1.3-2.1-2.3-0.2-0.3-0.3-0.6-0.4-1m9.7-4.9q0.9 0 1.5-0.6 1.3-1.1 0-2.2c-1.1-0.9-2.4-0.6-2.9 0.7-0.4 1.1 0.3 2.1 1.4 2.1zm4.5-0.7c0.5 0 1-0.1 1.5-0.1q0.6-0.1 1.3-0.3 0.7-0.2 0.5-0.9-0.1-0.4-0.5-0.6-0.5-0.2-1-0.4c-0.6-0.2-1.2-0.2-1.8-0.3-0.4 0-0.5 0.1-0.5 0.5 0 0.5 0.1 1-0.1 1.6-0.1 0.5-0.1 0.5 0.4 0.5h0.2"/>
			<path class="s1" d="m28.4 60.6q-0.4 0.9-1.1 1.7c-0.7 0.8-1.7 1.2-2.8 1.3q-0.1 0-0.2 0.1c-0.5 0-0.5 0-0.5 0.5-0.2 2.2-0.6 4.5-1.5 6.6-0.6 1.3-1.3 2.5-2.5 3.5-2.1 1.6-4.4 2.1-6.9 1.4-1.9-0.5-3-1.9-3.6-3.8-0.4-1.3-0.4-2.7-0.3-4.1q0.3-2.6 1.3-5.2c0.6-1.4 1.5-2.6 2.5-3.7 0.1-0.1 0.3-0.3 0.5-0.2 0.2 0.1 0 0.3 0 0.5-0.2 0.8-0.6 1.5-1 2.2q-1.1 2.1-1.5 4.5c-0.1 1.1-0.2 2.1 0.1 3.2 0.4 1.7 1.6 2.9 3.4 3.1q1.4 0.3 2.8 0c2.2-0.5 3.6-1.9 4.4-3.9 0.5-1.2 0.6-2.4 0.4-3.7-0.2-1.3-1-2.2-2.2-2.7-0.6-0.2-0.6-0.2-0.5-0.8q0-1.6 0.1-3.3 0-0.1 0-0.2c0.1-0.3 0.2-0.3 0.4-0.2q0.2 0.1 0.3 0.2c0.6 0.3 1.2 0.7 1.7 1 0.8 0.3 1.5 0.5 2.3 0.6q2.2 0 3.5-1.8c0.5-0.7 0.8-1.6 1.1-2.5q0-0.4 0.1-0.7c0.1-0.2 0.2-0.3 0.4-0.2 0.2 0 0.2 0.2 0.2 0.4q-0.1 0.3-0.2 0.7c-0.1 0.5 0 1 0.2 1.5q0.4 0.7 1.2 0.7c0.6 0 1.2-0.3 1.7-0.8 0.8-0.8 1.3-1.8 1.4-3 0-0.3 0-0.7 0-1 0-0.2 0-0.3 0.2-0.4q0.3 0 0.4 0.3c0.1 0.4 0.2 0.8 0.2 1.2q0 0.4 0 0.8c0 0.2 0 0.4 0.3 0.3 1.4-0.1 2.5-0.7 3.2-2 0.2-0.3 0.2-0.6 0.1-0.9-0.2-1.1-0.6-2.2-1-3.2-0.2-0.6-0.2-0.5 0.2-0.6q0.7-0.3 1.3-0.6c0.2 0.1 0.2 0.2 0.2 0.4 0.8 2.2 1 4.4 0.5 6.6-0.3 1.6-1 3-2.3 4-0.6 0.4-1.2 0.6-1.9 0.7q-0.1 0.1-0.3 0.1c-0.4 0-0.7 0.2-1 0.6-0.5 0.9-1.2 1.5-2.2 1.9-1.2 0.4-2.2 0.1-3-1q0 0-0.1-0.1"/>
			<path class="s1" d="m51.7 54.3c0 1.3-0.2 2.6-0.8 3.9-0.3 0.7-0.8 1.3-1.6 1.7-0.2 0.1-0.2 0.2-0.3 0.4-0.3 0.6-0.7 1.1-1.2 1.5-0.7 0.6-1.5 0.6-2.3 0.4q-0.3-0.1-0.4-0.3c-0.2-0.1-0.4-0.2-0.4-0.4-0.5-0.8-1.1-1-1.9-0.8q-0.5 0.1-0.9 0.3c-0.3 0.1-0.5 0.3-0.8 0.4-1 0.4-1.6 1.3-2 2.3-0.5 1.3-0.8 2.6-1.1 3.9-0.4 1.6-0.8 3.1-1.6 4.6q-1.5 2.9-3.9 5.1c-1.8 1.8-4.1 2.7-6.6 3.2-1 0.2-2.1 0.3-3.2 0.3q-0.2 0-0.4 0c-0.2 0-0.2-0.1-0.1-0.3 0.3-0.2 0.5-0.4 0.8-0.6q2.1-1.1 4.1-2.4 2.6-1.7 4.9-3.9c2.6-2.5 4.3-5.4 5-8.9q0.4-1.9 1.2-3.8 0.4-1 1-1.9c0.5-0.9 1.3-1.6 2.3-1.9 0.7-0.3 1.4-0.5 2.2-0.5q0.7 0 1.1 0.4 0.3 0.3 0.6 0.5c0.7 0.5 1.4 0.4 2-0.2 0.4-0.4 0.6-1 0.7-1.6q0.1-0.5 0.1-1.1 0-0.1 0-0.2c0.1-0.2 0.2-0.3 0.3-0.3q0.2-0.1 0.4 0.1 0.1 0.3 0.2 0.6 0.1 0.2 0.3 0.1c0.5-0.3 0.8-0.7 0.9-1.2q0.1-0.8 0.1-1.5c0-0.2 0-0.4 0.1-0.6 0.2-0.3 0.5-0.3 0.7 0 0.2 0.2 0.3 0.6 0.4 0.9 0.1 0.6 0.1 1.1 0.2 1.9"/>
			<path class="s0" d="m46.5 76.4q0-0.2 0.1-0.3 0.8-1.4 1.3-3c0.6-0.2 1-0.6 1.5-1 3.7-2.9 6.7-6.5 8.8-10.8 1.2-2.6 2.1-5.4 2.4-8.4 0.7-6.1-0.3-11.8-3.5-17.2-2.9-5.1-7.1-8.9-12.3-11.7q-3.5-1.9-7.3-2.8c-0.1 0-0.3 0-0.5-0.2 0.6-0.4 1.2-0.7 1.8-1.1 0.5-0.3 1-0.3 1.6-0.1 3.7 1.2 7 3.1 10 5.7 5.3 4.7 8.6 10.6 10.1 17.5 0.6 2.9 0.7 5.8 0.5 8.8q-0.5 8-4.7 14.9c-2.4 3.8-5.3 6.9-9.1 9.4-0.2 0.1-0.4 0.3-0.6 0.3"/>
			<path class="s1" d="m38.9 17.9q0.4 0 0.9 0c0 0 0.1 0 0.2 0.1 0 0.1-0.1 0.1-0.1 0.2-0.2 0.2-0.5 0.4-0.8 0.5q-1.8 1-3.5 2.2c-2.1 1.3-3.9 2.8-5.5 4.7-1.4 1.7-2.3 3.7-2.8 5.9q-0.4 1.5-0.8 3c-0.3 0.9-1.2 1.4-2 1.3-0.5-0.1-0.7-0.4-0.4-0.8q0-0.1 0.1-0.1c0.6-0.9 1.1-1.9 1.3-3 0.4-1.5 0.7-3 1.1-4.5 0.4-1.6 0.9-3.2 1.9-4.7q1.4-2.2 3.9-3.3c1.6-0.7 3.3-1.1 5-1.4q0.7-0.1 1.5-0.1"/>
			<path class="s1" d="m29.7 30.9c0.1-0.7 0.2-1.5 0.4-2.2 0-0.2 0-0.3 0.2-0.4 0.2 0 0.3 0.2 0.4 0.3q0.1 0.1 0.1 0.2c0.9 3.2 2.4 6.2 3.7 9.2q0.8 1.8 1.6 3.6c0.2 0.4 0.2 0.4-0.2 0.5q-0.4 0.1-0.7 0.2c-0.8 0.2-1.2-0.1-1.5-0.8-1.5-3.2-2.8-6.5-3.9-9.8q-0.1-0.2-0.1-0.4c0-0.1 0-0.2 0-0.4"/>
			<path class="s1" d="m49.5 47.5q0 0.8-0.3 1.6-0.1 0.3-0.2 0.5c-0.1 0.2-0.2 0.5-0.5 0.4-0.3 0-0.3-0.2-0.4-0.4q-0.1-0.5-0.4-0.9c-0.4-0.7-1.4-0.9-2-0.2q-0.5 0.5-0.8 1.2c-0.4 0.9-0.7 1.8-1 2.8q-0.2 0.5-0.4 1c0 0.1-0.1 0.3-0.3 0.3q-0.3-0.1-0.3-0.4 0-0.3 0.1-0.7c0.4-2.1 1-4.1 1.9-6 0.3-0.6 0.7-1.1 1.1-1.6 1.1-1 2.4-0.8 3.1 0.5 0.3 0.6 0.4 1.2 0.3 1.9"/>
			<path class="s0" d="m16 77.1c0.1-0.1 0.2-0.1 0.3-0.1q1.3-0.2 2.6-0.9c0.2-0.1 0.4-0.1 0.6 0q2.4 1 4.9 1.6 0.2 0 0.4 0.1c-0.3 0.3-0.7 0.5-1 0.7-0.6 0.3-1.2 0.6-1.7 1-0.2 0.1-0.3 0.1-0.5 0.1q-2.9-1-5.5-2.4-0.1-0.1-0.1-0.1z"/>
			<path class="s0" d="m32.5 49.9q0 0.2-0.1 0.5-0.4 1.1-1 2c-0.2 0.3-0.3 0.3-0.6 0.1-0.7-0.4-1.4-0.9-2.1-1.2-0.1-0.1-0.2-0.2-0.1-0.4 0.3-0.8 0.6-1.7 1-2.4 0.2-0.4 0.3-0.4 0.6-0.3 0.7 0.3 1.4 0.6 2 1.1 0.2 0.2 0.3 0.3 0.3 0.6"/>
			<path class="s0" d="m46.4 76.5q0-0.1 0.1-0.1 0 0.1-0.1 0.1z"/>
			<path class="s1" d="m48.5 64.6q-0.1-0.3-0.2-0.5c-0.1-0.1-0.1-0.2-0.2-0.2-0.1 0.1-0.2 0.2-0.2 0.2q0 0.2 0 0.3-0.1 1-0.2 1.9-0.8 5-3.9 9c-0.2 0.2-0.3 0.4-0.5 0.5 0 0.1-0.1 0.2-0.2 0.3q-1.5 1.6-3.4 2.8-0.7 0.4-1.3 0.8c-1.2 0.7-2.5 1.3-3.7 1.9q-1.6 0.7-3.1 1.5c-1.5 0.8-2.9 1.7-4.1 2.9-1.1 1-1.9 2.1-2.4 3.5-0.5 1.5-0.4 2.9-0.1 4.4 0.2 1 0.6 2 1.2 2.8 1.8 2.4 4.9 1.8 6.1-0.5q0.2-0.4 0.2-0.8 0-1.5-0.6-2.8c-0.1-0.2-0.1-0.3-0.3-0.4-0.1 0.1-0.2 0.2-0.2 0.3q-0.3 0.5-0.7 0.8c-1.1 1.1-2.9 1.3-4.1 0.4-0.6-0.4-0.6-0.5-0.3-1.1q0.4-0.8 0.9-1.5c0.8-1.1 1.9-2 3-2.8 1.3-0.8 2.6-1.5 3.9-2.1 1.7-0.8 3.3-1.5 4.9-2.4q2.8-1.5 4.9-3.8c1-1.1 1.8-2.3 2.6-3.5q0-0.1 0-0.1c0-0.1 0.1-0.2 0.1-0.3q0.8-1.4 1.3-3 0.8-2.5 1-5.1c0.1-1.2 0.1-2.3-0.3-3.4"/>
			<path fill-rule="evenodd" class="s1" d="m46.5 76.4"/>
			<path class="s0" d="m36.6 80.4q0.2-0.1 0.4-0.1 0.4-0.1 0.8-0.2c1.9-1.1 3.7-2.4 5.3-4 0.1-0.1 0.2-0.2 0.2-0.3-0.2 0-0.3 0.1-0.4 0.1-2.3 1-4.6 1.7-7.1 2.1q-1.3 0.2-2.7 0.3c-0.2 0-0.5 0.1-0.7 0.2-1.2 1-2.5 1.7-3.9 2.2-0.1 0-0.2 0-0.2 0.2 1.3 0 2.5 0.1 3.8 0 1.5-0.1 3.1-0.2 4.6-0.6"/>
			<path class="s0" d="m36.3 4.6c-0.2-1.1-0.6-2.1-1.2-3-1.3-1.8-3.5-2.1-5.2-0.8-0.6 0.6-1.2 1.3-1.3 2.2-0.1 1 0.2 2.1 0.7 3 0 0.1 0.1 0.3 0.2 0.3 0.2 0 0.2-0.1 0.2-0.2q0.1-0.2 0.2-0.4c1.1-1.7 3.3-2.2 4.8-1 0.5 0.4 0.5 0.4 0.3 1-0.4 1.1-1.1 2-1.9 2.9-1.2 1.3-2.6 2.3-4.1 3.2-1.8 1.1-3.6 2-5.3 3.1-2.8 1.8-5.1 4-6.7 7q-0.2 0.3-0.5 0.5-2.5 1.4-4.8 3.3c-3.2 2.7-5.9 5.9-7.9 9.6-2.8 5.3-4.1 11-3.7 17q0.1 2.5 0.7 4.9c1.1 4.7 3.2 8.9 6.3 12.6q0.4 0.4 0.7 0.8c0.1-0.1 0.1-0.1 0.1-0.2 0-0.9 0-1.8 0.1-2.7 0-0.2-0.1-0.4-0.2-0.5-4-5-6.1-10.7-6.5-17.1q-0.2-4.1 0.8-8.1c1.8-7.1 5.7-12.7 11.8-16.8 0.6-0.4 1.2-0.9 1.9-1.2 0.1 0 0.1 0 0.2 0 0 0.1-0.1 0.1-0.1 0.1q0 0.2-0.1 0.3c-0.9 2.7-1.3 5.5-1.2 8.4 0 0.7 0 1.4 0.2 2.1 0.1 0.3 0.2 0.6 0.4 0.8 0 0.1 0.1 0.2 0.2 0.2 0.2-0.1 0.2-0.2 0.2-0.3q0-0.4 0-0.7 0-2.3 0.5-4.5c0.7-3.1 2.1-5.9 4.3-8.2q0.3-0.4 0.8-0.5c2.4-0.7 4.9-1.2 7.4-1.3 0.4 0 0.7-0.1 1.1-0.4 0.6-0.5 1.3-0.9 2-1.3 0.2-0.1 0.3-0.1 0.5-0.3-1-0.1-1.8 0-2.7 0q-1.4 0.1-2.7 0.3-0.1 0-0.2 0.1c-0.2 0-1.9 0.3-2.5 0.4 0 0-0.1 0.1-0.1 0 0 0 0.1-0.1 0.1-0.1q0.1-0.2 0.3-0.2 0.3-0.3 0.6-0.4 0.7-0.5 1.5-0.8 0.3-0.2 0.6-0.4c0.9-0.5 1.9-1 2.8-1.6 0.8-0.5 1.7-1.1 2.5-1.8q0.4-0.3 0.7-0.6c2.6-2.4 3.8-5.2 3.2-8.7"/>
		</g>
	</g>
</svg>