<svg version="1.2" xmlns="http://www.w3.org/2000/svg" viewBox="0 0 854 337" width="854" height="337">
	<title>24</title>
	<style>
		.s0 { fill: #ac7c44 } 
		.s1 { fill: #087779 } 
	</style>
	<g id="Layer_1-2">
		<g>
			<path class="s0" d="m788.8 136.6q-1.1-2.6-2.2-5.1c-3.2-6.8-6.5-13.2-9.7-19.1q-1.3-2.4-2.6-4.7-1.3-2.4-2.6-4.6c-3.7-6.3-7.1-11.5-9.9-15.4-8.3-11.5-24-16.6-40.6-16.6-18.6 0-38.3 6.4-49.9 17.3-12.8 12.1-34.6 36-58.4 64.4 2.5 7.1 5.5 14 8.5 20.3 16.1-19 30.7-34.9 39.5-43.2 8.5-8.1 23-12.8 36.7-12.8 12.2 0 23.8 3.8 30 12.3 2.8 3.9 6.5 9.8 10.4 16.9q1.2 2.2 2.5 4.6 1.2 2.3 2.4 4.8c3 6.1 6.1 12.8 8.8 19.8q1 2.6 2 5.2 0.9 2.7 1.8 5.4c8.6 26 11.5 53.7-4.6 68.9-25.7 24.3-141.5 58-190.9 58-10.9 0-18.6-1.6-21.3-5.4-6.8-9.4 11-40.4 35.4-74.4-2.2-4-4.5-8.3-6.7-12.6q-1.6-3.2-3.2-6.4c-38.4 51.4-68.8 101.3-58.7 115.3 3.7 5.2 14.1 7.4 29 7.4 67 0 224.1-45.7 259-78.7 26.8-25.2 14.9-75.8-2.4-116.5q-1.1-2.6-2.3-5.1"/>
			<path class="s1" d="m568.6 200.4q1.1 2.5 2.2 5c3.2 6.8 6.5 13.3 9.7 19.1q1.3 2.4 2.6 4.7 1.3 2.4 2.6 4.6c3.7 6.3 7.1 11.5 9.9 15.4 8.3 11.6 24 16.7 40.6 16.7 18.6 0 38.3-6.4 49.9-17.4 12.8-12 34.6-36 58.4-64.4-2.5-7.1-5.5-13.9-8.5-20.3-16.1 19.1-30.7 35-39.5 43.2-8.5 8.1-23 12.8-36.7 12.8-12.2 0-23.8-3.8-30-12.3-2.8-3.9-6.5-9.7-10.4-16.9q-1.2-2.2-2.5-4.6-1.2-2.3-2.4-4.7c-3-6.1-6.1-12.9-8.8-19.8q-1-2.6-2-5.3-0.9-2.6-1.8-5.4c-8.6-26-11.5-53.7 4.6-68.9 25.7-24.3 141.5-58 190.9-58 10.9 0 18.6 1.7 21.3 5.5 6.8 9.4-11 40.4-35.4 74.3 2.2 4.1 4.5 8.3 6.7 12.6q1.6 3.3 3.2 6.5c38.4-51.5 68.8-101.3 58.7-115.4-3.7-5.1-14.1-7.4-29-7.4-67 0-224.1 45.8-259 78.7-26.8 25.2-14.9 75.8 2.4 116.6q1.1 2.5 2.3 5.1z"/>
			<path fill-rule="evenodd" class="s1" d="m23.2 235.8h-17.7v-13.3h15.2v-4.1h-15.2v-13.3h16.8l0.6-4.2h-22.4v39.1h22.7v-4.2z"/>
			<path class="s1" d="m70.8 240h5v-26.9q0-4.9-8.8-4.9-3.1 0-5.5 0.6-2.4 0.7-4.3 2.2-1.6-2.8-8.3-2.8-3.5-0.1-6 0.8-2.6 0.9-4.8 2.8l-1.4-3.1h-2.2v31.3h5v-23.8q0-2.3 1.2-3.1 1.2-0.9 4.7-0.9h7.3v27.8h5v-24.9q0.2-1.6 1.5-2.3 1.2-0.6 4.3-0.6h7.3c0 0 0 27.8 0 27.8z"/>
			<path fill-rule="evenodd" class="s1" d="m89.6 240h5v-31.9l-5 0.8v31.1z"/>
			<path class="s1" d="m92.2 196.2q-2 0-2.7 0.7-0.6 0.7-0.6 2.6c0 1.3 0.2 2.1 0.6 2.6q0.7 0.6 2.7 0.6 1.9 0 2.5-0.6 0.6-0.7 0.7-2.6c0-1.2-0.3-2.1-0.7-2.6q-0.7-0.7-2.5-0.7z"/>
			<path class="s1" d="m121.3 207.8q-1.5 0.6-3.4 2-2 1.4-5 4l-1.9-5.1h-2.3v31.3h5v-23q1.6-1.2 3.9-2.4 2.2-1.2 4.4-1.9l-0.7-4.9z"/>
			<path class="s1" d="m149.3 236.8l1.4 3.2h2.2v-23.5q0-3.2-1-5-1.1-1.8-3.4-2.6-2.3-0.8-6.5-0.8-3.1 0-6.5 0.5-3.4 0.5-5.4 1.4l0.7 3.7q5.4-1.4 10.2-1.4 4.4 0 6.9 0.7v8.5h-0.7q-8.8 0-12.5 0.6-3.6 0.7-4.8 2.6-1.2 1.9-1.2 6.7c0 3.1 0.7 5.6 2.2 7q2.1 2.1 7.1 2.1 3.6 0 6.4-0.9 2.7-0.8 4.9-2.8m-16.1-0.3v-7.5q0-2.2 1.1-3 1.1-0.9 4.2-0.9h9.4v7.5q0 2.2-1.1 3-1 0.9-4 0.9c0 0-9.6 0-9.6 0z"/>
			<path class="s1" d="m173.7 200.5l-5 1.2v7h-4.6v3.6h4.6v24q0 4.2 4 4.2 1.7 0 5.3-0.6l0.3-3.4q-0.6 0-4.6-0.3v-23.9h5.8v-3.6h-5.8z"/>
			<path class="s1" d="m206.9 226.5q3.8-0.6 5-2.5 1.2-2 1.3-6.7 0-3.8-1.1-5.7-1-1.9-3.5-2.7-2.6-0.7-7.5-0.7c-3.3 0-5.9 0.4-7.7 1.4q-2.6 1.4-3.7 4.9-1.1 3.4-1.1 9.8c0 4.3 0.3 7.9 0.9 10.2q0.9 3.4 3.2 4.7 2.4 1.3 7.1 1.3 3.7 0 7-0.5 3.4-0.5 5.5-1.3l-0.6-3.7q-3.5 0.8-5.9 1.1-2.3 0.3-4.9 0.3-4.4 0-7.1-0.8v-8.5q9.3 0 13.1-0.6m-13.1-10.2q0-2.2 1.1-3 1.1-0.8 4.2-0.8h9.5v7.2q0 2.2-1.1 3-1.1 0.8-4.3 0.8h-9.4z"/>
			<path class="s1" d="m240.1 223.1q-3.5-1.1-11.3-2.3v-8.4q3.6-0.6 7.5-0.6 1.7 0 3.9 0.3 2.1 0.4 3.7 0.8l0.8-3.8q-4.8-1.3-9.8-1.3-5.8 0-8.6 2.2-2.7 2.1-2.7 6.8 0 3.9 1.1 5.7 1.1 1.7 4.5 2.7 3.4 1 11.9 2.3v8.3q-2 0.7-3.5 0.8-1.4 0.2-3.6 0.2-5.4 0-10.3-1.8l-0.9 4.1q5.8 1.8 10.8 1.8 4.7 0 7.5-0.9 2.7-1 3.9-3 1.3-2.1 1.3-5.7 0-3.5-1.3-5.3-1.3-1.9-4.9-2.9z"/>
			<path class="s1" d="m299.4 237.1q2.7-2.8 2.7-8.2 0-3.3-1.5-5.5-1.4-2.2-4.2-3.2v-0.4q2-1.5 2.9-3.6 0.8-2.1 0.8-5.8 0-4.8-2.5-7.2-2.5-2.3-7.7-2.3h-14.5v39h16.5q4.9 0 7.5-2.8zm-18.9-32.5h9.2q3.1 0 4.3 1.5 1.1 1.5 1.1 5.6c0 2.6-0.4 4.3-1.2 5.3q-1.2 1.5-4.3 1.5h-9.1zm0 31.7v-14.2h11q3 0 4.3 1.5 1.3 1.6 1.3 5.2 0 4-1.3 5.8-1.3 1.7-4.4 1.7c0 0-10.9 0-10.9 0z"/>
			<path class="s1" d="m318.6 196.9q-0.6-0.7-2.5-0.7c-1.2 0-2.2 0.2-2.6 0.7q-0.7 0.7-0.7 2.6c0 1.3 0.2 2.1 0.7 2.6q0.7 0.6 2.6 0.6 2 0 2.6-0.6 0.6-0.7 0.6-2.6c0-1.2-0.2-2.1-0.7-2.6z"/>
			<path fill-rule="evenodd" class="s1" d="m313.6 240h4.9v-31.9l-5 0.8v31.1z"/>
			<path class="s1" d="m340.1 236.5l-2.8-0.3v-37.8l-5 0.9v37q0 4.2 3.9 4.2 1.7 0 3.6-0.6c0 0 0.3-3.4 0.3-3.4z"/>
			<path class="s1" d="m350.6 199.3v37q0 4.2 3.9 4.2 1.7 0 3.6-0.6l0.3-3.4-2.8-0.3v-37.8c0 0-5 0.9-5 0.9z"/>
			<path fill-rule="evenodd" class="s1" d="m374.3 208.1l-5 0.8v31.1h5v-31.9z"/>
			<path class="s1" d="m374.4 202.1q0.6-0.7 0.6-2.6c0-1.2-0.2-2.1-0.6-2.6q-0.7-0.7-2.5-0.7c-1.3 0-2.2 0.2-2.7 0.7q-0.7 0.7-0.7 2.6c0 1.3 0.3 2.1 0.7 2.6q0.7 0.6 2.7 0.6 1.9 0 2.5-0.6z"/>
			<path class="s1" d="m410.3 216.5q0-3.2-1.1-5-1-1.8-3.3-2.6-2.4-0.7-6.5-0.7-3.2 0-6.5 0.5-3.4 0.4-5.4 1.3l0.7 3.7q5.3-1.4 10.2-1.4 4.4 0 6.9 0.7v8.5h-0.7q-8.9 0-12.5 0.7-3.6 0.6-4.8 2.5-1.2 1.9-1.2 6.7c0 3.2 0.7 5.6 2.1 7q2.2 2.1 7.2 2.1 3.6 0 6.3-0.8 2.8-0.9 5-2.9l1.4 3.2h2.2v-23.5zm-5 16.1q0 2.2-1 3-1.1 0.8-4.1 0.9h-9.6v-7.5q0-2.2 1.1-3 1.1-0.9 4.2-0.9h9.4z"/>
			<path class="s1" d="m433.3 209.8q-2 1.4-5 4l-2-5.1h-2.2v31.3h5v-23q1.6-1.2 3.9-2.4 2.2-1.2 4.3-1.9l-0.6-4.9q-1.5 0.6-3.5 2"/>
			<path class="s1" d="m448.5 239.7q2.4 1.2 7.5 1.2 4.2 0 6.5-0.7 2.3-0.7 3.5-2.7l1.2 2.5h2.2v-42.5l-5 0.7v11.6q-1.4-0.9-3.6-1.3-2.3-0.4-5.8-0.4-4.5 0-6.7 1.4-2.2 1.3-3 4.6-0.9 3.3-0.9 10.2 0 7.3 0.9 10.7 0.9 3.4 3.3 4.7m1-25.7q0-1 0.6-1.3 0.6-0.3 2.3-0.3h11.9v22.7q0 0.9-0.6 1.2-0.6 0.3-2.4 0.3h-11.8v-22.6z"/>
			<path class="s1" d="m20.9 279.8q-2.6-1.1-7.6-1.4l-7.3-0.4v-13.3q2.2-0.3 5.4-0.3 7.1 0 11.7 0.8l0.6-3.9q-5.9-1-12.1-1-4.1 0-6.5 1.1-2.4 1.2-3.5 3.7-1.1 2.6-1.1 6.9c0 2.9 0.4 4.9 1.1 6.3q1.1 2.2 4 3.2 2.9 1 8.7 1.4l6 0.4v13.2q-4.3 0.4-7.4 0.4-3 0-6.4-0.4-3.4-0.4-5.7-0.9l-0.8 4q5.7 1.4 11.8 1.4 5.4 0 8.4-1 3-1.1 4.3-3.5 1.2-2.4 1.2-6.6 0-4.3-1.1-6.7-1.1-2.3-3.7-3.4"/>
			<path class="s1" d="m55.5 269.6q-2.2-1.2-6.9-1.2c-3.1 0-5.4 0.2-7.1 0.7q-2.4 0.6-3.6 2.4l-1.2-2.5h-2.2v42.2l5-0.7v-11.2q1.3 1 3.4 1.3 2.2 0.4 5.7 0.4 4.6 0 6.8-1.4 2.3-1.3 3.1-4.7 0.9-3.4 0.9-10.4c0-4.7-0.3-8.1-0.9-10.3q-0.8-3.3-3-4.6m-1.3 25.6q0 0.9-0.6 1.2-0.6 0.4-2.4 0.3h-11.7v-22.9q0-0.7 0.6-0.9 0.6-0.3 2.3-0.3h11.8c0 0 0 22.6 0 22.6z"/>
			<path class="s1" d="m88.7 269.6q-2.7-1.2-8.3-1.2c-3.7 0-6.4 0.4-8.2 1.3q-2.6 1.3-3.6 4.6-1 3.3-1 10.2 0 6.9 1 10.2 1 3.4 3.6 4.6 2.7 1.3 8.2 1.3 5.6 0 8.3-1.3 2.7-1.2 3.7-4.6 1-3.3 1-10.2c0-4.6-0.4-8.1-1-10.3q-1-3.3-3.7-4.6zm-0.4 25.2q0 1-0.7 1.3-0.6 0.3-2.4 0.3h-12.5v-22.2q0-0.9 0.6-1.3 0.6-0.3 2.5-0.3h12.5z"/>
			<path class="s1" d="m112.7 270.1q-2 1.3-5 4l-1.9-5.1h-2.3v31h5v-22.8q1.6-1.2 3.9-2.4 2.2-1.2 4.3-1.9l-0.6-4.9q-1.5 0.7-3.5 2.1"/>
			<path class="s1" d="m130.8 260.8l-4.9 1.2v7h-4.6v3.5h4.6v23.9q0 4.2 3.9 4.2 1.7 0 5.3-0.6l0.3-3.4q-0.6 0-4.6-0.3v-23.8h5.8v-3.5h-5.8z"/>
			<path class="s1" d="m159.9 283.2q-3.5-1.1-11.3-2.2v-8.4q3.6-0.5 7.5-0.5 1.7 0 3.9 0.3 2.1 0.3 3.7 0.7l0.8-3.7q-4.8-1.4-9.7-1.4-5.9 0-8.6 2.2-2.7 2.2-2.7 6.9 0 3.8 1.1 5.5 1 1.8 4.4 2.8 3.4 1 11.9 2.3v8.2q-2 0.7-3.4 0.9-1.5 0.1-3.7 0.1-5.4 0-10.2-1.8l-0.9 4.1q5.8 1.8 10.8 1.8 4.6 0 7.4-0.9 2.7-1 3.9-3 1.2-2.1 1.2-5.6 0-3.6-1.3-5.4-1.2-1.8-4.8-2.9"/>
			<path fill-rule="evenodd" class="s1" d="m191.3 300h5v-16.6h12.8v-4.1h-12.8v-13.9h14.8l0.5-4.2h-20.3v38.8z"/>
			<path class="s1" d="m233.4 286.7q3.8-0.6 5-2.6 1.2-1.9 1.2-6.6 0-3.8-1-5.6-1-1.9-3.6-2.7-2.5-0.8-7.4-0.8c-3.3 0-5.8 0.5-7.6 1.4q-2.6 1.5-3.7 4.9-1.1 3.4-1.1 9.8 0 6.7 0.9 10.1 0.9 3.4 3.2 4.7 2.3 1.3 7.1 1.3 3.6 0 6.9-0.5 3.4-0.5 5.5-1.3l-0.7-3.7q-3.4 0.8-5.8 1.1-2.3 0.3-4.9 0.3-4.4 0-7.1-0.7v-8.5q9.3 0 13.1-0.6m-13.1-10.1q0-2.3 1.2-3.1 1.1-0.8 4.2-0.8h9.4v7.2q0 2.2-1.1 3-1.1 0.8-4.3 0.8h-9.4c0 0 0-7.2 0-7.1z"/>
			<path class="s1" d="m268.3 270q-1.3-0.8-3.6-1.2-2.2-0.4-5.8-0.4-4.4 0-6.6 1.3-2.2 1.3-3 4.6-0.9 3.4-0.9 10.2 0 7.3 0.9 10.7 0.9 3.4 3.2 4.6 2.4 1.2 7.4 1.2 4.3 0 6.6-0.7 2.3-0.8 3.4-2.7l1.2 2.4h2.2v-42.2l-5 0.7c0 0 0 11.5 0 11.5zm0 25.2q0 0.9-0.6 1.2-0.5 0.4-2.3 0.4h-11.8v-22.6q0-0.9 0.6-1.3 0.6-0.3 2.3-0.3h11.8z"/>
			<path class="s1" d="m301.7 286.7q3.8-0.6 5-2.6 1.2-1.9 1.2-6.6 0-3.8-1-5.6-1-1.9-3.6-2.7-2.5-0.8-7.4-0.8c-3.3 0-5.8 0.5-7.6 1.4q-2.6 1.5-3.7 4.9-1.1 3.4-1.1 9.8 0 6.7 0.9 10.1 0.9 3.4 3.2 4.7 2.3 1.3 7.1 1.3 3.6 0 6.9-0.5 3.4-0.5 5.5-1.3l-0.7-3.7q-3.4 0.8-5.8 1.1-2.3 0.3-4.9 0.3-4.4 0-7.1-0.7v-8.5q9.3 0 13.1-0.6zm-13.1-10.1q0-2.3 1.2-3.1 1.1-0.8 4.2-0.8h9.4v7.2q0.1 2.2-1.1 3-1.1 0.8-4.3 0.8h-9.4c0 0 0-7.2 0-7.1z"/>
			<path class="s1" d="m327.9 270.1q-2 1.3-5 4l-1.9-5.1h-2.3v31h5v-22.8q1.6-1.2 3.9-2.4 2.2-1.2 4.3-1.9l-0.6-4.9q-1.5 0.7-3.5 2.1"/>
			<path class="s1" d="m356.4 269.2q-2.3-0.8-6.5-0.8-3.1 0-6.4 0.5-3.4 0.5-5.4 1.3l0.7 3.7q5.4-1.4 10.2-1.4 4.4 0 6.9 0.8v8.4h-0.8q-8.8 0-12.4 0.6-3.6 0.6-4.8 2.6-1.1 1.9-1.1 6.6c0 3.2 0.7 5.6 2.1 7q2.1 2.1 7.1 2.1 3.6 0 6.3-0.9 2.7-0.8 4.9-2.8l1.4 3.1h2.2v-23.3q0-3.1-1-4.9-1-1.8-3.4-2.6zm-0.5 23.5q0 2.2-1.1 3.1-1.1 0.8-4 0.8h-9.6v-7.5q0-2.2 1.1-3 1.1-0.8 4.2-0.8h9.3c0 0 0 7.4 0.1 7.4z"/>
			<path class="s1" d="m379.6 260.8l-4.9 1.2v7h-4.6v3.5h4.6v23.9q0 4.2 3.9 4.2 1.7 0 5.3-0.6l0.3-3.4q-0.6 0-4.6-0.3v-23.8h5.8v-3.5h-5.8z"/>
			<path fill-rule="evenodd" class="s1" d="m394.6 300h4.9v-31.7l-4.9 0.8v30.9z"/>
			<path class="s1" d="m397.1 255q-1.9 0-2.6 0.7-0.7 0.7-0.7 2.6c0 1.2 0.3 2 0.7 2.5q0.7 0.6 2.6 0.6 1.9 0 2.6-0.6 0.6-0.7 0.6-2.5c0-1.3-0.2-2.2-0.7-2.6q-0.6-0.7-2.5-0.7z"/>
			<path class="s1" d="m430.9 269.6q-2.7-1.2-8.3-1.2c-3.7 0-6.4 0.4-8.2 1.3q-2.7 1.3-3.7 4.6-1 3.3-1 10.2 0 6.9 1 10.2 1 3.4 3.7 4.6 2.7 1.3 8.2 1.3 5.5 0 8.2-1.3 2.7-1.2 3.7-4.6 1-3.3 1-10.2c0-4.6-0.3-8.1-1-10.3q-1-3.3-3.6-4.6zm-0.5 25.2q0 1-0.6 1.3-0.6 0.3-2.5 0.3h-12.5v-22.2q0-0.9 0.7-1.3 0.6-0.3 2.4-0.3h12.5c0 0 0 22.2 0 22.2z"/>
			<path class="s1" d="m460.7 268.4q-3.7 0-6.4 0.9-2.7 0.8-5 2.8l-1.4-3.1h-2.2v31.1h5v-23.7q0-2.3 1.2-3.1 1.2-0.8 4.6-0.8h7.9v27.6h5v-26.8q0-4.9-8.7-4.9z"/>
			<path class="s1" d="m27.1 61q0.8 0.1 1.9-1 1.2-1.2 1.2-2 0-0.9-1.1-2-1.1-1-2-1.1-0.9 0.1-2 1.1-1 1.1-1 2 0 0.8 1.1 2 1.1 1.1 1.9 1z"/>
			<path class="s1" d="m3.8 90.3q1.8 1.3 4.9 1.3l35.1-0.1v-29.2h-4v24.8h-34.3q-1-3.2-1-8.7 0-4.3 1.5-9.5l-3.8-0.7q-0.8 1.9-1.2 5-0.5 3-0.5 5.7 0 4.8 0.8 7.5 0.8 2.7 2.5 3.9z"/>
			<path class="s1" d="m18.8 61q0.8 0.1 1.9-1 1.1-1.2 1.1-2 0-0.9-1.1-2-1.1-1-1.9-1.1-0.9 0.1-2 1.1-1.1 1.1-1.1 2 0 0.8 1.2 2 1.1 1.1 1.9 1z"/>
			<path fill-rule="evenodd" class="s1" d="m56.9 52.4h4v39.1h-4z"/>
			<path class="s1" d="m77.8 101.4q2.1-3.7 2.1-9.5v-29.6h-4v29.6q0 4.8-1.5 7.5-1.4 2.8-5 4.5l1.8 3.4q4.6-2.3 6.6-5.9"/>
			<path class="s1" d="m104.9 91.5h93.9v-22.2q0-2.9-1-4.5-1-1.6-3.4-2.3-2.4-0.7-6.7-0.7-3.4 0-7 0.6-3.5 0.6-5.7 1.8-2.9 7-2.9 13.5 0 5.9 1.3 9.4h-76.4v-34.7h-4v39.1c0 0 11.9 0 11.9 0zm73.1-24.1q4.6-1.2 9.5-1.1 4.4 0 7.4 0.7v20.1h-17.5q-1.3-3.5-1.3-9.4 0-4.4 1.9-10.3z"/>
			<path class="s1" d="m215 91.7q2.9 0.8 8.2 0.8 8.3 0 12.1-2.5 3.8-2.4 3.7-7.8 0.1-2.6-1.1-4.7-1.2-2.1-4.3-4.6v-0.4q4-1.5 4-7.1v-13h-4v15.8l-4.3 1.7-15.4-12.4-2.5 3.2 13.5 10.8-6.2 2.4q-3.9 1.5-5.7 2.7-1.9 1.2-2.6 2.8-0.7 1.6-0.7 4.6 0 3.3 1.2 5.1 1.2 1.8 4.1 2.6m-1.1-11.5l15-5.6 3 2.3q1.4 1.2 2.1 2.7 0.8 1.5 0.8 3 0 2.3-2 3.8-2 1.6-5.9 1.6h-13v-7.8z"/>
			<path class="s1" d="m219.3 107l-5.4 1.5q-0.9 0.3-1.6 0.3-0.8 0-1.1-0.4-0.3-0.4-0.3-1.2l0.1-6q1.2-0.8 3.1-1.2 1.9-0.4 3.8-0.4v-3.1q-5.2-0.1-7.9 1.8-2.7 1.8-2.7 6.8 0 3.3 0.8 4.9l-2.8 0.8v2.5l14-3.7v-2.6z"/>
			<path fill-rule="evenodd" class="s1" d="m250.7 52.4h4v39.1h-4z"/>
			<path class="s1" d="m305.9 88.1q-4-13.3-6.3-18.6-2.2-5.2-5-6.8-2.8-1.7-8.6-1.7-2.5 0-5.2 0.7l1 4.4q2.4-0.6 4.3-0.6 3.9 0 6.2 1.6 2.3 1.6 4.2 6 1.9 4.4 4.7 14h-22.5v4.5h27.2v-3.5z"/>
			<path class="s1" d="m454.4 54.8q0.8 0.1 1.9-1 1.1-1.2 1.1-2 0-0.9-1.1-2-1.1-1-1.9-1.1-0.9 0.1-2 1.1-1.1 1.1-1.1 2 0 0.8 1.1 2 1.2 1.1 2 1z"/>
			<path class="s1" d="m452.2 91.5v-29.2h-4v24.8h-11l-4.7-12.3q-1.7-4.8-4.1-7.6-2.4-2.8-5.9-4.1-3.5-1.3-8.7-1.3-2.3 0-6 0.3l0.7 4.3q2.5-0.1 4.5-0.2 4.6 0 7.5 1 2.9 0.9 4.8 3.1 2 2.2 3.7 6.2l0.1 0.4q-1.8 4.2-5 7.2-3.1 3-7.3 3h-97.2v-34.7h-4v39.1h98.9q10.9 0 16.6-9.5l2.3 6.1q0.7 1.8 1.7 2.6 1.1 0.8 2.9 0.8h14.2z"/>
			<path class="s1" d="m446 54.8q0.8 0.1 2-1 1.1-1.2 1.1-2 0-0.9-1.1-2-1.1-1-2-1.1-0.8 0.1-1.9 1.1-1.1 1.1-1.1 2 0 0.8 1.1 2 1.1 1.1 1.9 1z"/>
			<path fill-rule="evenodd" class="s1" d="m465.4 52.4h3.9v39.1h-3.9z"/>
			<path class="s1" d="m16.4 133.8q-2.8-1.6-8.6-1.6-2.5 0-5.2 0.7l1 4.4q2.4-0.6 4.2-0.6 4 0 6.3 1.6 2.3 1.6 4.2 6 1.9 4.4 4.7 14h-22.5v4.5h27.2v-3.5q-4-13.3-6.3-18.6-2.2-5.2-5-6.9z"/>
			<path class="s1" d="m41.1 172.6q2-3.7 2-9.5v-29.6h-3.9v29.6q0 4.8-1.5 7.5-1.5 2.8-5.1 4.5l1.8 3.4q4.6-2.3 6.7-5.9"/>
			<path class="s1" d="m174.8 172.8q1.1-1.2 1.1-2 0-0.9-1.1-2-1.1-1-2-1.1-0.8 0.1-1.9 1.1-1.1 1.1-1.1 2 0 0.8 1.1 2 1.1 1.1 1.9 1 0.9 0.1 2-1z"/>
			<path class="s1" d="m181.2 167.7q-0.9 0.1-2 1.1-1.1 1.1-1.1 2 0 0.8 1.2 2 1.1 1.1 1.9 1 0.8 0.1 1.9-1 1.1-1.2 1.1-2 0-0.9-1.1-2-1-1-1.9-1.1z"/>
			<path class="s1" d="m218.1 172.8q1.1-1.2 1.1-2 0-0.9-1.1-2-1.1-1-1.9-1.1-0.9 0.1-2 1.1-1.1 1.1-1.1 2 0 0.8 1.1 2 1.2 1.1 2 1 0.8 0.1 1.9-1z"/>
			<path fill-rule="evenodd" class="s1" d="m206.6 162.8l16.9-0.1h2.5 11.6v-39.1h-4v34.7h-7.6-2.5-5.3v-24.8h-4v24.8h-7.6-2.5-5.3v-34.7h-4v34.7h-7.6-2.5-5.3v-24.8h-4v24.8h-7.6-43.9-12.6-2.5-12.7-2.5-10.3-4.9-10.3-2.5-5.3v-34.7h-4v39.1h9.3 2.5 10.3 4.9 10.3 2.5 12.7 2.5 12.6 43.9 16.9 2.5 16.9 2.5z"/>
			<path fill-rule="evenodd" class="s1" d="m250.7 123.6h4v39.2h-4z"/>
			<path class="s1" d="m299.2 169.6q-1.1 1-1.1 1.9 0 0.9 1.1 2 1.1 1.1 1.9 1.1 0.8 0 2-1.1 1.1-1.1 1.1-2 0-0.8-1.1-1.9-1.1-1.1-2-1.1-0.8 0-1.9 1.1z"/>
			<path class="s1" d="m282 161.5q1.8 1.3 4.9 1.3l35.1-0.1v-29.2h-4v24.8h-34.3q-1-3.2-1-8.7 0-4.3 1.5-9.5l-3.8-0.7q-0.8 1.9-1.2 5-0.5 3-0.5 5.7 0 4.8 0.8 7.5 0.8 2.7 2.5 4"/>
			<path class="s1" d="m377.2 162.8l8.1-0.1q6.4 0 12-2.4 5.6 2.5 12 2.4h19.6v-39.1h-3.9v34.7h-15.7q-3.8 0-7.1-0.8 4.5-3.3 7.1-8.1 2.6-4.9 2.6-10.5 0-2.4-1.2-3.7-1.3-1.2-4.3-1.7-3.1-0.5-9.1-0.5-6 0-9.1 0.5-3 0.5-4.3 1.7-1.2 1.3-1.2 3.7 0 5.6 2.6 10.5 2.6 4.8 7.1 8.1-3.2 0.8-7.1 0.8h-46.2v-34.7h-4v39.1c0 0 42.1 0 42.1 0zm12.2-14.1q-2.7-4.7-2.7-11.2h21.2q0 6.5-2.7 11.2-2.8 4.8-7.9 7.2-5.1-2.4-7.9-7.2z"/>
			<path class="s1" d="m453.2 115.8l-5.4 1.5q-1 0.3-1.7 0.3-0.8 0-1.1-0.4-0.3-0.4-0.3-1.2l0.2-6q1.1-0.8 3.1-1.2 1.9-0.4 3.8-0.4v-3.1q-5.3-0.1-8 1.8-2.7 1.8-2.7 6.8 0 3.3 0.9 4.9l-2.9 0.8v2.5l14.1-3.7v-2.6z"/>
			<path class="s1" d="m453.6 163.7q8.3 0 12-2.5 3.8-2.4 3.8-7.8 0-2.6-1.2-4.7-1.2-2.1-4.2-4.6v-0.4q3.9-1.5 3.9-7.1v-13h-4v15.8l-4.2 1.7-15.4-12.4-2.6 3.2 13.5 10.8-6.2 2.4q-3.8 1.5-5.7 2.7-1.8 1.2-2.5 2.8-0.7 1.6-0.7 4.6 0 3.3 1.2 5.1 1.2 1.8 4.1 2.6 2.9 0.8 8.1 0.8m-9.2-12.3l14.9-5.6 3.1 2.4q1.3 1.1 2.1 2.6 0.8 1.5 0.8 3 0 2.3-2 3.8-2 1.6-5.9 1.6h-13v-7.8z"/>
		</g>
	</g>
</svg>