<svg version="1.2" xmlns="http://www.w3.org/2000/svg" viewBox="0 0 260 134" width="260" height="134">
	<title>Orenda</title>
	<defs>
		<linearGradient id="g1" x2="1" gradientUnits="userSpaceOnUse" gradientTransform="matrix(-96.42,63.62,-51.715,-78.378,188.83,-12.92)">
			<stop offset="0" stop-color="#ffccb5"/>
			<stop offset=".12" stop-color="#ffccb5"/>
			<stop offset="1" stop-color="#a34e59"/>
		</linearGradient>
		<linearGradient id="g2" x2="1" gradientUnits="userSpaceOnUse" gradientTransform="matrix(-96.42,63.63,-130.015,-197.015,187.24,-15.34)">
			<stop offset="0" stop-color="#ffccb5"/>
			<stop offset=".12" stop-color="#ffccb5"/>
			<stop offset="1" stop-color="#a34e59"/>
		</linearGradient>
		<linearGradient id="g3" x2="1" gradientUnits="userSpaceOnUse" gradientTransform="matrix(-96.42,63.63,-161.152,-244.197,192.46,-7.43)">
			<stop offset="0" stop-color="#ffccb5"/>
			<stop offset=".12" stop-color="#ffccb5"/>
			<stop offset="1" stop-color="#a34e59"/>
		</linearGradient>
		<linearGradient id="g4" x2="1" gradientUnits="userSpaceOnUse" gradientTransform="matrix(-96.42,63.63,-22.902,-34.704,202.46,7.72)">
			<stop offset="0" stop-color="#ffccb5"/>
			<stop offset=".12" stop-color="#ffccb5"/>
			<stop offset="1" stop-color="#a34e59"/>
		</linearGradient>
		<linearGradient id="g5" x2="1" gradientUnits="userSpaceOnUse" gradientTransform="matrix(-96.42,63.63,-93.894,-142.28,191.55,-8.81)">
			<stop offset="0" stop-color="#ffccb5"/>
			<stop offset=".12" stop-color="#ffccb5"/>
			<stop offset="1" stop-color="#a34e59"/>
		</linearGradient>
		<linearGradient id="g6" x2="1" gradientUnits="userSpaceOnUse" gradientTransform="matrix(-96.42,63.63,-29.465,-44.649,193.53,-5.81)">
			<stop offset="0" stop-color="#ffccb5"/>
			<stop offset=".12" stop-color="#ffccb5"/>
			<stop offset="1" stop-color="#a34e59"/>
		</linearGradient>
		<linearGradient id="g7" x2="1" gradientUnits="userSpaceOnUse" gradientTransform="matrix(-96.42,63.63,-28.157,-42.667,198.94,2.39)">
			<stop offset="0" stop-color="#ffccb5"/>
			<stop offset=".12" stop-color="#ffccb5"/>
			<stop offset="1" stop-color="#a34e59"/>
		</linearGradient>
		<linearGradient id="g8" x2="1" gradientUnits="userSpaceOnUse" gradientTransform="matrix(-96.42,63.62,-25.754,-39.032,211.78,21.85)">
			<stop offset="0" stop-color="#ffccb5"/>
			<stop offset=".12" stop-color="#ffccb5"/>
			<stop offset="1" stop-color="#a34e59"/>
		</linearGradient>
		<linearGradient id="g9" x2="1" gradientUnits="userSpaceOnUse" gradientTransform="matrix(0,-114.63,0,0,NaN,NaN)">
			<stop offset="0" stop-color="#ffccb5"/>
			<stop offset=".12" stop-color="#ffccb5"/>
			<stop offset="1" stop-color="#a34e59"/>
		</linearGradient>
		<linearGradient id="g10" x2="1" gradientUnits="userSpaceOnUse" gradientTransform="matrix(-96.42,63.62,-47.311,-71.703,215.3,27.19)">
			<stop offset="0" stop-color="#ffccb5"/>
			<stop offset=".12" stop-color="#ffccb5"/>
			<stop offset="1" stop-color="#a34e59"/>
		</linearGradient>
		<linearGradient id="g11" x2="1" gradientUnits="userSpaceOnUse" gradientTransform="matrix(-96.42,63.63,-51.751,-78.42,205.04,11.64)">
			<stop offset="0" stop-color="#ffccb5"/>
			<stop offset=".12" stop-color="#ffccb5"/>
			<stop offset="1" stop-color="#a34e59"/>
		</linearGradient>
		<linearGradient id="g12" x2="1" gradientUnits="userSpaceOnUse" gradientTransform="matrix(-96.42,63.62,-18.217,-27.609,208.66,17.12)">
			<stop offset="0" stop-color="#ffccb5"/>
			<stop offset=".12" stop-color="#ffccb5"/>
			<stop offset="1" stop-color="#a34e59"/>
		</linearGradient>
		<linearGradient id="g13" x2="1" gradientUnits="userSpaceOnUse" gradientTransform="matrix(-96.42,63.63,-56.183,-85.136,193.37,-6.05)">
			<stop offset="0" stop-color="#ffccb5"/>
			<stop offset=".12" stop-color="#ffccb5"/>
			<stop offset="1" stop-color="#a34e59"/>
		</linearGradient>
		<linearGradient id="g14" x2="1" gradientUnits="userSpaceOnUse" gradientTransform="matrix(-96.42,63.62,-108.379,-164.256,215.5,27.49)">
			<stop offset="0" stop-color="#ffccb5"/>
			<stop offset=".12" stop-color="#ffccb5"/>
			<stop offset="1" stop-color="#a34e59"/>
		</linearGradient>
		<linearGradient id="g15" x2="1" gradientUnits="userSpaceOnUse" gradientTransform="matrix(-96.42,63.62,-43.838,-66.439,202.39,7.63)">
			<stop offset="0" stop-color="#ffccb5"/>
			<stop offset=".12" stop-color="#ffccb5"/>
			<stop offset="1" stop-color="#a34e59"/>
		</linearGradient>
	</defs>
	<style>
		.s0 { fill: #2b2b2b } 
		.s1 { fill: url(#g1) } 
		.s2 { fill: url(#g2) } 
		.s3 { fill: url(#g3) } 
		.s4 { fill: url(#g4) } 
		.s5 { fill: url(#g5) } 
		.s6 { fill: url(#g6) } 
		.s7 { fill: url(#g7) } 
		.s8 { fill: url(#g8) } 
		.s9 { fill: url(#g9) } 
		.s10 { fill: url(#g10) } 
		.s11 { fill: url(#g11) } 
		.s12 { fill: url(#g12) } 
		.s13 { fill: url(#g13) } 
		.s14 { fill: url(#g14) } 
		.s15 { fill: none } 
		.s16 { fill: url(#g15) } 
	</style>
	<g id="Layer_1-2">
		<g>
			<path class="s0" d="m22.8 96.5c-15.8 0-22.8 10.1-22.8 19.4 0 8.6 6.7 17.4 21.2 17.4 16.1 0 22.9-10.3 22.9-19.7 0-8.8-5.9-17.1-21.3-17.1zm6.4 34c-10.1 1.6-16.1-12.7-17.7-17.1q-4.5-12.9 3.5-14.1c10.1-1.6 16 12.5 17.6 17.1q4.5 12.9-3.4 14.1z"/>
			<path class="s0" d="m108.6 131.6c10.1 0 15-9.7 17.8-14.8h0.2l-1.4 16.5h-0.1q-4-0.7-9.9-0.7h-27.5v-0.3c7.1-2.4 4.9-33.4 0-34.8v-0.3h25.1c2.9 0 8.1 0 10.7-1h0.1l-1.3 14.6h-0.3c-2.6-5.8-7.3-12.4-13.6-12.4-4.5 0-4.8 7.3-4.8 10.6v4.6l14.5-2.3v4.5l-14.5-1.4v6.4q0 5 0.4 7.3c0.3 2.1 0.6 3.6 4.6 3.6z"/>
			<path class="s0" d="m171.3 97.2l-0.1 0.3c-2.9 1.7-4.7 6.9-5.8 12.7-1 5.6-1.2 11.3-0.7 17l0.6 6.1h-1.4l-30-29.1c0.4 9.1 3.8 24.8 10.3 28.1l0.1 0.3h-17.1v-0.3c5.9-3.5 5.9-21.9 5.4-29.4l-0.2-0.1q-0.3-1.9-0.8-2.9-0.7-1.2-2.2-1.8l-1.3-0.6v-0.3h11.5l23 22.4c-0.7-8.8-3.4-19.4-8.4-22.1v-0.3h17.1z"/>
			<path class="s0" d="m259.1 132.3v0.3h-19.4v-0.3c1.4-1.5 1-4.8-0.2-8.7h-15.4c-0.3 3.9 0.4 7.2 3.3 8.7v0.3h-16.3v-0.3c6.8-4.5 16.4-25.3 19.1-31l-1.9-3.8v-0.2h10.4c2.7 10.6 12.4 30.6 20.4 35m-19.9-9.7c-2.4-7.3-7.2-16.2-8.4-18.9-2.2 4.6-5.8 12.4-6.6 18.9 0 0 15 0 15 0z"/>
			<path class="s0" d="m78.6 120c-2.2-3.4-10.3-1.3-10.7-1.9l4.4-0.7c6.8-1 12-4.4 12-10.1 0-7.3-7.9-10.1-18-10.1h-11.5-10.1v0.3c5 3.1 5.4 31.9 0 34.8v0.3h19v-0.3c-2.3-1.2-3.6-7.1-3.9-13.7 1.5 0 4.9-0.2 6.4-0.3 2.5 3.7 5 7.3 7.2 11.8 0.8 1.6 1.5 2.3 3.8 2.4 3.5 0.2 6.7 0.2 11.2-0.2v-0.3c-4.7-1.4-6.1-6.3-9.8-12zm-20.2-13.2q-2.7-7.5 2-8.2c5.9-0.9 9.3 7.3 10.2 10q2.7 7.5-2 8.2c-5.8 0.9-9.3-7.4-10.2-10z"/>
			<path class="s0" d="m194.8 97.2h-6.2-17v0.3c4.9 3.1 5.3 31.9 0 34.8v0.3h22.5c27.2 0 29.4-35.4 0.7-35.4m5.6 32.6c-9.8 1.5-15.6-12.5-17.1-16.7q-4.4-12.6 3.3-13.8c9.8-1.5 15.6 12.3 17.2 16.7q4.4 12.6-3.4 13.8z"/>
		</g>
		<g>
			<path class="s1" d="m86.3 52.4q0.4 2 1 4-0.8 0.4-1.6 1-0.2 0.1-0.4 0.2c-0.5 0.2-0.9 0.3-1.3-0.1-0.4-0.3-0.4-0.8-0.3-1.3 0.3-0.7 0.7-1.4 1.2-2q0.7-1 1.4-1.8z"/>
			<path class="s2" d="m116.7 28.9q0.1-0.5 0.2-1.1-0.1-1-0.2-2c1.8 0.8 3.2 2 4.6 3.3 0.6 0.4 0.9 0.8 0.6 1.6-0.2 0.7-0.2 1.5-0.2 2.3 0 0.1 0.1 0.4-0.1 0.4-0.2 0.1-0.3-0.1-0.4-0.2q-0.8-0.6-1.5-1.3l-2-1.2c0 0 0 0 0 0q-1.2-0.5-1-1.8z"/>
			<path class="s3" d="m124.2 50.2c-6-1.6-9.7-5.7-11.3-11.7q0-0.1 0-0.1c-0.4-1-0.5-2-0.7-3-0.3-1.5-0.6-3-1.1-4.6 1.4 0.3 2.8 0.8 4.1 1.5 5.3 2.5 9.3 6.4 12 11.6 0.6 1.1 1.1 2.3 1.3 3.5 0.1 0.2 0.1 0.5 0.1 0.8 0 0 0.1 0.1 0.1 0.1 0.1 0.4 0.2 0.9 0.3 1.4-1.6-0.8-2.7-2-3.6-3.4q0 0 0-0.1-0.1 0-0.1-0.1-0.8-1.2-1.7-2.4c0.1 1 0.4 2 0.9 2.9 0.6 1.1 1.4 2.1 2.2 3 0.4 0.3 0.7 0.6 1.2 1-1.3 0.1-2.5-0.1-3.7-0.4z"/>
			<path class="s4" d="m106.6 69c-1.1-0.4-1.9-1.2-2.8-2.1 0.4-0.1 0.6 0 0.9 0.1 2.3 0.5 4.6 0.6 7 0.4 4-0.3 7.4-1.8 10.6-4.2 2.4-1.8 4.5-4 6.4-6.3q0.2-0.2 0.3-0.4l1.2 0.6c-2.1 2.6-3.9 5.5-6.3 7.9-2 2-4.3 3.6-7 4.4-3.5 1-6.9 0.8-10.3-0.4z"/>
			<path class="s5" d="m124.2 35.3c-0.2-1.8 0-3.6 0.6-5.4 0.3-1.4 1-2.7 1.7-4 0.9-1.5 1.8-3 2.7-4.5 0.2-0.4 0.4-0.4 0.6 0 1.4 2.2 2.9 4.4 4 6.8 0.2 0.6 0.5 1.3 0.6 1.9 0.5 1.4 0.6 2.9 0.6 4.4 0 0.8-0.2 1.5-0.8 2.1-1 0.9-1.7 2-2.5 3.1-0.8 1.1-1.5 2.2-2.2 3.5-0.2-0.4-0.3-0.7-0.5-1q-1.9-3.3-4.4-6.1c-0.3-0.2-0.4-0.5-0.4-0.8z"/>
			<path class="s6" d="m137 29.9c-0.1-0.4 0.4-0.6 0.6-0.8q2.1-2 4.8-3.3c-0.1 0.6-0.1 1.2-0.1 1.8 0.1 0.7 0.1 1.5 0.3 2.2l-1.1 0.9q-1.1 0.7-2.1 1.3c-0.6 0.5-1.3 1-2 1.5 0.1-1.3-0.1-2.4-0.4-3.6z"/>
			<path class="s7" d="m130.3 48.4c1.5-8.3 10.3-16 17.7-17.5-0.9 2.3-1 4.8-1.6 7.1-0.1 0.2 0 0.4-0.2 0.5-0.1 1.1-0.5 2.1-1 3.1-2.3 4.8-6 7.9-11.3 8.9-0.9 0.1-1.7 0.2-2.7 0.1 0.4-0.4 0.9-0.8 1.3-1.1 1-1.2 2-2.4 2.6-3.9 0.2-0.6 0.3-1.2 0.4-1.8q-0.6 0.7-1.1 1.4c-1.2 2.1-2.9 3.8-4.3 4.4 0-0.4 0-0.8 0.1-1.2z"/>
			<path class="s8" d="m136.7 63.1q4.8 3.9 11.1 4.4 3.6 0.2 7.2-0.6c0-0.1 0.2-0.2 0.2 0-1.1 1.4-2.6 2.2-4.3 2.6q-7.8 1.9-14.1-2.9-0.2-0.1-0.3-0.2c-0.6-0.4-1.3-0.4-1.6 0.1-0.4 0.5-0.3 1.1 0.2 1.6 2.4 2 5.1 3.4 8.2 4q2.8 0.5 5.5 0.2c-1.6 1.6-3.5 1.5-5.5 1.1-3.4-0.6-6.4-2-9.1-4.1q-0.1-0.1-0.3-0.2c-0.7-0.5-1.4-0.5-1.8 0-0.4 0.6-0.3 1.2 0.4 1.8q1 0.9 2.2 1.6 3.4 2.3 7.5 3.1c0.1 0 0.2 0.1 0.3 0.1-8.6 3.5-17.3 3.4-26 0 0.8-0.2 1.6-0.4 2.4-0.6 3.2-1.1 6.1-2.7 8.7-4.8 2.9-2.1 5.5-4.6 8-7.2 0.4-0.3 0.6-0.4 1.1 0z"/>
			<path class="s9" d="m155.3 66.9l-0.1-0.1z"/>
			<path class="s10" d="m155.3 66.8q0 0-0.1 0 0 0 0 0 0.1 0 0.1 0z"/>
			<path class="s11" d="m171.8 56.5c-5.4 18.2-22.3 31.5-42.3 31.5-19.9 0-36.8-13.3-42.2-31.6 3.8-1.8 7.8-1.6 11.8 0.1 2.5 1 4.7 2.4 7 3.7 3.1 1.7 6.4 2.5 10.1 1.9 1.8-0.3 3.5-1.1 5-2.2 0.8-0.6 0.7-1.4 0-2q-0.3-0.1-0.6-0.3c-1-0.5-2-1-3.1-1.5-4.9-2.1-10-3.5-15.2-4.5-1.2-0.2-2.3-0.4-3.4-0.4-0.9 0-1.3 0.6-1.1 1.4 0.2 0.6 0.8 0.7 1.4 0.8q8.5 1.4 16.5 4.6c0.8 0.3 1.5 0.6 2.3 1.1-0.7 0.4-1.3 0.6-2 0.7-2.9 0.5-5.7 0-8.2-1.5-2-1.1-4-2.3-6-3.3-2.8-1.3-5.6-2.3-8.6-2.2-1.3 0-2.5 0.1-3.9 0.3 1.9-2 4.1-3 6.7-3.5 3.7-0.7 7.5-0.4 11.2 0.3 4.4 0.9 8.8 2.2 13.1 3.6 1.9 0.6 3.7 1.4 5.2 2.8 0.3 0.3 0.3 0.4 0.1 0.6-1.2 1.2-2.3 2.4-3.5 3.4-3.5 3-7.4 4.9-12.1 4.9-1.4 0-2.8-0.1-4.1-0.5-2.9-0.6-5.4-1.9-6.9-4.7-0.3-0.6-0.7-1.3-1-2-0.2-0.4-0.5-0.8-0.9-1-0.6-0.3-1.2-0.3-1.7 0.1-0.4 0.4-0.3 0.9-0.2 1.4q0.1 0.2 0.2 0.4c1.7 4.1 4.1 7.7 7.2 10.8 6.6 6.7 14.7 10.3 24.1 11.1 4.9 0.5 9.7-0.2 14.4-1.7 9.4-3.1 16.7-8.8 21.4-17.6q0.8-1.5 1.4-3.1c0.2-0.5 0.1-0.9-0.2-1.3-0.4-0.4-0.9-0.4-1.3-0.3-0.5 0.2-0.9 0.6-1.2 1q-0.5 1.1-1.1 2.1c-1.1 2.1-2.7 3.5-4.9 4.2q-9.1 3.1-16.8-2.6l1.1-0.5c1.7 0.9 3.7 1.3 5.7 1.3 3.1 0 6-1 8.6-2.6 2.2-1.4 4.4-2.7 6.9-3.5 3.8-1.4 7.5-1.6 11.1 0.3z"/>
			<path class="s12" d="m169.7 53.1c-1.2-0.2-2.4-0.3-3.5-0.3-3.2-0.1-6.1 0.8-8.9 2.2q-2.6 1.3-5.1 2.8c-2 1.3-4.1 2.1-6.5 2.2-1.6 0-3.1-0.2-4.7-0.9 1-0.6 1.9-1 2.9-1.4 5.2-1.9 10.6-3.4 16.1-4.3 0.4-0.1 0.8-0.1 1.1-0.5 0.3-0.3 0.3-0.8 0.1-1.2-0.2-0.5-0.7-0.6-1.3-0.6-1.9 0.2-3.8 0.6-5.7 1q-4.8 1.2-9.4 2.8c-4.4 1.5-8.1 3.9-11.4 7.1-2.5 2.4-4.9 4.8-7.7 6.8-2.8 2.1-5.8 3.7-9.2 4.5q-1.6 0.4-3.3 0.3c-1 0-1.8-0.6-2.8-1.2 1.3-0.1 2.5 0 3.7-0.1 1.9-0.2 3.6-0.7 5.4-1.4 4.1-1.8 7-4.9 9.5-8.4l3.3-4.3c1.8-2.6 4.3-4.1 7.3-5 4.6-1.3 9.1-2.8 13.8-3.5 3.6-0.6 7.1-0.8 10.6 0.1 2.2 0.6 4.1 1.6 5.7 3.3z"/>
			<path class="s13" d="m129.5 0c-24.3 0-44 19.7-44 44q0 4.3 0.8 8.4c3-3.4 6.9-5.2 11.6-5.6 4.1-0.4 8 0.2 11.9 1.1q3.9 0.9 7.7 2.1c0.1 0 0.2 0.1 0.3 0q-0.5-0.5-1.1-0.9c-3.6-3.1-5.7-7-6.6-11.6-0.4-2.3-0.8-4.5-1.6-6.7-0.3-0.8-0.8-1.6-1.2-2.3-0.2-0.4-0.4-0.7-0.1-1.1 0.2-0.4 0.6-0.4 1-0.3 1.9 0.3 3.7 0.9 5.4 1.7 0.6 0.3 0.6 0.3 0.6-0.4q0.3-2.7-0.4-5.4c-0.2-0.7 0.1-1.1 0.8-0.9 1.8 0.5 3.4 1.3 4.9 2.3q1.9 1.2 3.5 2.9 0.1 0 0.1-0.1c1.1-2.4 2.6-4.6 3.8-6.9q1.2-2.1 2.2-4.3c0.1-0.3 0.1-0.6 0.5-0.6 0.3 0 0.4 0.3 0.5 0.6 1.1 2.8 2.6 5.3 4.1 7.9q1 1.7 1.9 3.5c1.8-1.8 3.7-3.2 5.9-4.3 0.8-0.4 1.6-0.8 2.4-1 0.3 0 0.6-0.1 0.8 0.1 0.3 0.3 0.2 0.5 0.1 0.8q-0.9 3-0.3 6.1c1.1-0.5 2.3-1 3.5-1.3 0.8-0.3 1.5-0.6 2.4-0.7 0.4 0 0.8-0.1 1.1 0.3 0.3 0.5 0 0.8-0.2 1.2-0.9 1.3-1.4 2.7-1.8 4.2-0.5 1.9-0.8 3.9-1.2 5.9q-1.2 4.7-4.4 8.4c-0.9 1-2 1.9-3.1 2.8 0.6 0.1 1.1-0.1 1.7-0.2 3.4-1.1 6.9-2 10.5-2.6 3.9-0.6 7.7-0.7 11.5 0.4 3.1 0.9 5.7 2.6 7.8 4.8q0.7-4 0.7-8.3c0-24.3-19.7-44-44-44zm36 45.6c-1 0-1.5-0.4-1.5-1.1 0-8.5-2.8-15.9-8.3-22.3-5.7-6.8-13-10.9-21.8-12.2-6.1-0.9-12.1 0.1-17.8 2.6q-6 2.6-10.7 7.3c-5.3 5.4-8.7 11.7-9.9 19.2q-0.5 2.6-0.5 5.3c0 0.5-0.1 0.9-0.7 1.1-0.5 0.2-1.2 0.3-1.7-0.2-0.3-0.2-0.3-0.6-0.3-0.9 0-6.2 1.5-12.1 4.5-17.5q2.2-4.1 5.3-7.5c5.6-6.2 12.6-10 20.8-11.7 2.2-0.4 4.5-0.7 6.8-0.7 9.1 0.2 17.1 3.2 24 9.1 6.3 5.5 10.4 12.3 12.2 20.4 0.6 2.7 0.8 5.3 0.9 8 0 0.8-0.5 1.1-1.3 1.1z"/>
			<path class="s14" d="m175.1 57.5c-0.4 0.4-1.1 0.4-1.7-0.1q-0.8-0.5-1.6-0.9 0.6-2.1 1-4.2 1.3 1.6 2.4 3.5c0.4 0.7 0.3 1.3-0.1 1.7z"/>
			<path class="s15" d="m171.8 56.5q0.6-2.1 1-4.2 0.7-4 0.7-8.3c0.1-24.3-19.7-44-44-44-24.3 0-44 19.7-44 44q0 4.3 0.8 8.4 0.4 2 1 4c5.4 18.3 22.2 31.6 42.2 31.6 20 0 36.9-13.3 42.3-31.5z"/>
			<path class="s16" d="m86.3 52.4q-0.7 0.8-1.4 1.8c-0.5 0.6-0.9 1.3-1.2 2.1-0.1 0.4-0.1 0.9 0.3 1.2 0.4 0.4 0.8 0.3 1.3 0.1q0.2-0.1 0.4-0.2 0.8-0.6 1.6-1-0.6-2-1-4zm88.9 3.4q-1.1-1.9-2.4-3.5-0.4 2.1-1 4.2 0.8 0.4 1.6 0.9c0.6 0.5 1.3 0.5 1.7 0.1 0.4-0.4 0.5-1 0.1-1.7z"/>
		</g>
	</g>
</svg>