<svg version="1.2" xmlns="http://www.w3.org/2000/svg" viewBox="0 0 359 193" width="359" height="193">
	<title>26</title>
	<style>
		.s0 { fill: #525253 } 
		.s1 { fill: #05a6d3 } 
	</style>
	<g id="Layer_1-2">
		<g>
			<g>
				<g>
					<path class="s0" d="m16.4 171.6l-3.2 11.4h-2.7l-2.1-8.1-2.2 8.1h-2.7l-3.1-11.4h2.4l2 8.9 2.3-8.9h2.5l2.2 8.8 2-8.8h2.5z"/>
					<path class="s0" d="m20.1 173.4v2.9h3.8v1.8h-3.8v3h4.3v1.9h-6.6v-11.4h6.6v1.9h-4.3z"/>
					<path class="s0" d="m38.3 176.8c-0.3 0.5-0.7 1-1.4 1.3-0.6 0.3-1.4 0.5-2.3 0.5h-1.9v4.4h-2.3v-11.4h4.2c0.9 0 1.6 0.2 2.3 0.5 0.6 0.3 1.1 0.7 1.4 1.3 0.3 0.5 0.5 1.1 0.5 1.8 0 0.7-0.1 1.2-0.4 1.7zm-2.4-0.5c0.3-0.3 0.5-0.7 0.5-1.2 0-1.1-0.6-1.7-1.9-1.7h-1.8v3.3h1.8c0.6 0 1.1-0.1 1.4-0.4z"/>
					<path class="s0" d="m46.2 183l-2.5-4.4h-1.1v4.4h-2.3v-11.4h4.3c0.9 0 1.6 0.2 2.3 0.5 0.6 0.3 1.1 0.7 1.4 1.3 0.3 0.5 0.5 1.1 0.5 1.8 0 0.7-0.2 1.4-0.7 2-0.4 0.6-1.1 1-1.9 1.2l2.7 4.6h-2.6zm-3.6-6.2h1.9c0.6 0 1.1-0.1 1.4-0.4 0.3-0.3 0.5-0.7 0.5-1.2 0-0.5-0.2-0.9-0.5-1.2-0.3-0.3-0.8-0.4-1.4-0.4h-1.9v3.3z"/>
					<path class="s0" d="m53.1 171.6v11.4h-2.3v-11.4z"/>
					<path class="s0" d="m65.1 183h-2.3l-5.2-7.8v7.8h-2.3v-11.4h2.3l5.2 7.8v-7.8h2.3z"/>
					<path class="s0" d="m75.1 171.6v1.8h-3v9.6h-2.3v-9.6h-3v-1.8h8.4z"/>
					<path class="s0" d="m89.7 171.6l-3.9 7.4v4h-2.3v-4l-3.9-7.4h2.6l2.4 5.2 2.4-5.2h2.5z"/>
					<path class="s0" d="m93.4 182.3q-1.3-0.8-2.1-2.1c-0.5-0.9-0.8-1.9-0.8-3 0-1.1 0.3-2.1 0.8-3q0.8-1.3 2.1-2.1c0.9-0.5 1.9-0.8 2.9-0.8 1 0 2.1 0.2 2.9 0.8 0.8 0.6 1.6 1.2 2.1 2.1 0.5 0.9 0.8 1.9 0.8 3 0 1.1-0.3 2.1-0.8 3q-0.7 1.4-2.1 2.1c-0.9 0.5-1.9 0.8-2.9 0.8-1 0-2-0.2-2.9-0.8zm4.8-1.7c0.5-0.3 0.9-0.8 1.2-1.3 0.3-0.6 0.4-1.2 0.4-2 0-0.8-0.1-1.4-0.4-2-0.3-0.6-0.7-1-1.2-1.3-0.5-0.3-1.1-0.5-1.8-0.5-0.7 0-1.3 0.2-1.8 0.5-0.5 0.3-0.9 0.7-1.2 1.3-0.3 0.6-0.4 1.2-0.4 2 0 0.8 0.1 1.4 0.4 2 0.3 0.6 0.7 1 1.2 1.3 0.5 0.3 1.1 0.5 1.8 0.5 0.7 0 1.3-0.2 1.8-0.5z"/>
					<path class="s0" d="m106.1 171.6v7.1q0 1.2 0.6 1.8c0.4 0.4 1 0.6 1.7 0.6 0.7 0 1.3-0.2 1.7-0.6q0.6-0.6 0.6-1.8v-7.1h2.3v7c0 1-0.2 1.8-0.6 2.5-0.4 0.7-1 1.2-1.7 1.5-0.7 0.3-1.5 0.5-2.3 0.5-0.8 0-1.6-0.2-2.3-0.5-0.7-0.3-1.2-0.8-1.6-1.5-0.4-0.7-0.6-1.5-0.6-2.5v-7h2.3z"/>
					<path class="s0" d="m121.1 183l-2.5-4.4h-1.1v4.4h-2.3v-11.4h4.3c0.9 0 1.6 0.2 2.3 0.5 0.6 0.3 1.1 0.7 1.4 1.3 0.3 0.5 0.5 1.1 0.5 1.8 0 0.7-0.2 1.4-0.7 2-0.4 0.6-1.1 1-1.9 1.2l2.7 4.6h-2.6zm-3.6-6.2h1.9c0.6 0 1.1-0.1 1.4-0.4 0.3-0.3 0.5-0.7 0.5-1.2 0-0.5-0.2-0.9-0.5-1.2-0.3-0.3-0.8-0.4-1.4-0.4h-1.9v3.3z"/>
					<path class="s0" d="m129.8 174.2q0.8-1.4 2.1-2.1c0.9-0.5 1.9-0.7 2.9-0.7 1 0 2.4 0.3 3.3 1 1 0.7 1.6 1.6 2 2.7h-2.6c-0.3-0.5-0.6-1-1.1-1.2-0.5-0.3-1-0.4-1.6-0.4-0.6 0-1.3 0.2-1.8 0.5-0.5 0.3-0.9 0.7-1.2 1.3-0.3 0.6-0.4 1.2-0.4 2 0 0.8 0.1 1.4 0.4 2 0.3 0.6 0.7 1 1.2 1.3 0.5 0.3 1.1 0.5 1.8 0.5 0.7 0 1.2-0.1 1.6-0.4 0.5-0.3 0.8-0.7 1.1-1.2h2.6c-0.4 1.2-1 2.1-2 2.7-1 0.6-2.1 1-3.4 1-1.3 0-2.1-0.2-2.9-0.7q-1.4-0.7-2.1-2.1c-0.5-0.9-0.8-1.9-0.8-3 0-1.1 0.3-2.1 0.8-3z"/>
					<path class="s0" d="m144.4 171.6v7.1q0 1.2 0.6 1.8c0.4 0.4 1 0.6 1.7 0.6 0.7 0 1.3-0.2 1.7-0.6q0.6-0.6 0.6-1.8v-7.1h2.3v7c0 1-0.2 1.8-0.6 2.5-0.4 0.7-1 1.2-1.7 1.5-0.7 0.3-1.5 0.5-2.3 0.5-0.8 0-1.6-0.2-2.3-0.5-0.7-0.3-1.2-0.8-1.6-1.5-0.4-0.7-0.6-1.5-0.6-2.5v-7h2.3z"/>
					<path class="s0" d="m159.4 183l-2.5-4.4h-1.1v4.4h-2.3v-11.4h4.3c0.9 0 1.6 0.2 2.3 0.5 0.6 0.3 1.1 0.7 1.4 1.3 0.3 0.5 0.5 1.1 0.5 1.8 0 0.7-0.2 1.4-0.7 2-0.4 0.6-1.1 1-1.9 1.2l2.7 4.6h-2.6zm-3.6-6.2h1.9c0.6 0 1.1-0.1 1.4-0.4 0.3-0.3 0.5-0.7 0.5-1.2 0-0.5-0.2-0.9-0.5-1.2-0.3-0.3-0.8-0.4-1.4-0.4h-1.9v3.3z"/>
					<path class="s0" d="m166.3 173.4v2.9h3.8v1.8h-3.8v3h4.3v1.9h-6.6v-11.4h6.6v1.9h-4.3z"/>
					<path class="s0" d="m175.2 180.6l-1.9 4.6h-1.5l1.1-4.6z"/>
					<path class="s0" d="m180.9 174.2q0.8-1.4 2.1-2.1c0.9-0.5 1.9-0.7 2.9-0.7 1 0 2.4 0.3 3.3 1 1 0.7 1.6 1.6 2 2.7h-2.6c-0.3-0.5-0.6-1-1.1-1.2-0.5-0.3-1-0.4-1.6-0.4-0.6 0-1.3 0.2-1.8 0.5-0.5 0.3-0.9 0.7-1.2 1.3-0.3 0.6-0.4 1.2-0.4 2 0 0.8 0.1 1.4 0.4 2 0.3 0.6 0.7 1 1.2 1.3 0.5 0.3 1.1 0.5 1.8 0.5 0.7 0 1.2-0.1 1.6-0.4 0.5-0.3 0.8-0.7 1.1-1.2h2.6c-0.4 1.2-1 2.1-2 2.7-1 0.6-2.1 1-3.4 1-1.3 0-2.1-0.2-2.9-0.7q-1.3-0.7-2.1-2.1c-0.5-0.9-0.8-1.9-0.8-3 0-1.1 0.3-2.1 0.8-3z"/>
					<path class="s0" d="m195.5 171.6v7.1q0 1.2 0.6 1.8c0.4 0.4 1 0.6 1.7 0.6 0.7 0 1.3-0.2 1.7-0.6q0.6-0.6 0.6-1.8v-7.1h2.3v7c0 1-0.2 1.8-0.6 2.5-0.4 0.7-1 1.2-1.7 1.5-0.7 0.3-1.5 0.5-2.3 0.5-0.8 0-1.6-0.2-2.3-0.5-0.7-0.3-1.2-0.8-1.6-1.5-0.4-0.7-0.6-1.5-0.6-2.5v-7h2.3z"/>
					<path class="s0" d="m206.4 182.7q-0.9-0.4-1.5-1.2-0.6-0.7-0.6-1.8h2.4c0 0.5 0.2 0.8 0.5 1.1 0.3 0.3 0.7 0.4 1.2 0.4 0.5 0 1-0.1 1.3-0.4 0.3-0.3 0.5-0.6 0.5-1 0-0.4-0.1-0.6-0.3-0.8-0.2-0.2-0.5-0.4-0.8-0.5-0.3-0.1-0.7-0.3-1.3-0.4q-1.1-0.3-1.8-0.6c-0.5-0.2-0.9-0.5-1.2-1-0.3-0.4-0.5-1-0.5-1.7 0-0.7 0.2-1.3 0.5-1.8 0.3-0.5 0.8-0.9 1.4-1.2 0.6-0.3 1.3-0.4 2.1-0.4 1.2 0 2.1 0.3 2.9 0.9q1 0.9 1.2 2.4h-2.5c0-0.4-0.2-0.7-0.5-1-0.3-0.3-0.7-0.4-1.2-0.4-0.5 0-0.8 0.1-1.1 0.3-0.3 0.2-0.4 0.6-0.4 1 0 0.4 0 0.6 0.3 0.8 0.2 0.2 0.5 0.4 0.8 0.5 0.3 0.1 0.7 0.3 1.3 0.4 0.7 0.2 1.3 0.4 1.8 0.7 0.5 0.2 0.9 0.5 1.2 1 0.3 0.4 0.5 1 0.5 1.7 0 0.7-0.2 1.2-0.5 1.7-0.3 0.5-0.8 0.9-1.4 1.2-0.6 0.3-1.3 0.5-2.2 0.5-0.9 0-1.5-0.1-2.1-0.4z"/>
					<path class="s0" d="m222.3 171.6v1.8h-3v9.6h-2.3v-9.6h-3v-1.8h8.4z"/>
					<path class="s0" d="m226.4 182.3q-1.3-0.8-2.1-2.1c-0.5-0.9-0.8-1.9-0.8-3 0-1.1 0.3-2.1 0.8-3q0.8-1.3 2.1-2.1c0.9-0.5 1.9-0.8 2.9-0.8 1 0 2.1 0.2 2.9 0.8 0.8 0.6 1.6 1.2 2.1 2.1 0.5 0.9 0.8 1.9 0.8 3 0 1.1-0.3 2.1-0.8 3q-0.7 1.4-2.1 2.1c-0.9 0.5-1.9 0.8-2.9 0.8-1 0-2-0.2-2.9-0.8zm4.7-1.7c0.5-0.3 0.9-0.8 1.2-1.3 0.3-0.6 0.4-1.2 0.4-2 0-0.8-0.1-1.4-0.4-2-0.3-0.6-0.7-1-1.2-1.3-0.5-0.3-1.1-0.5-1.8-0.5-0.7 0-1.3 0.2-1.8 0.5-0.5 0.3-0.9 0.7-1.2 1.3-0.3 0.6-0.4 1.2-0.4 2 0 0.8 0.1 1.4 0.4 2 0.3 0.6 0.7 1 1.2 1.3 0.5 0.3 1.1 0.5 1.8 0.5 0.7 0 1.3-0.2 1.8-0.5z"/>
					<path class="s0" d="m249.3 171.6v11.4h-2.3v-7.4l-3.1 7.4h-1.7l-3.1-7.4v7.4h-2.3v-11.4h2.6l3.6 8.5 3.6-8.5h2.6z"/>
					<path class="s0" d="m253.8 171.6v11.4h-2.3v-11.4z"/>
					<path class="s0" d="m258.4 181h5.1v1.9h-7.8v-1.8l5.1-7.7h-5.1v-1.9h7.8v1.8z"/>
					<path class="s0" d="m267.7 173.4v2.9h3.8v1.8h-3.8v3h4.3v1.9h-6.6v-11.4h6.6v1.9h-4.3z"/>
					<path class="s0" d="m281.3 172.3c0.9 0.5 1.6 1.1 2.1 2 0.5 0.9 0.7 1.9 0.7 3 0 1.1-0.2 2.1-0.7 3-0.5 0.9-1.2 1.5-2.1 2-0.9 0.5-2 0.7-3.2 0.7h-4v-11.4h4c1.2 0 2.2 0.2 3.2 0.7zm-0.5 7.7c0.7-0.7 1-1.6 1-2.8 0-1.2-0.3-2.1-1-2.8-0.7-0.7-1.6-1-2.8-1h-1.6v7.5h1.6c1.2 0 2.1-0.3 2.8-1z"/>
					<path class="s0" d="m296.8 171.6v1.8h-4.8v2.9h3.6v1.8h-3.6v4.8h-2.3v-11.4h7z"/>
					<path class="s0" d="m300.7 182.3q-1.3-0.8-2.1-2.1c-0.5-0.9-0.8-1.9-0.8-3 0-1.1 0.3-2.1 0.8-3q0.7-1.3 2.1-2.1c0.9-0.5 1.9-0.8 2.9-0.8 1 0 2.1 0.2 2.9 0.8q1.3 0.8 2.1 2.1c0.5 0.9 0.8 1.9 0.8 3 0 1.1-0.3 2.1-0.8 3q-0.7 1.4-2.1 2.1c-0.9 0.5-1.9 0.8-2.9 0.8-1 0-2-0.2-2.9-0.8zm4.8-1.7c0.5-0.3 0.9-0.8 1.2-1.3 0.3-0.6 0.4-1.2 0.4-2 0-0.8-0.1-1.4-0.4-2-0.3-0.6-0.7-1-1.2-1.3-0.5-0.3-1.1-0.5-1.8-0.5-0.7 0-1.3 0.2-1.8 0.5-0.5 0.3-0.9 0.7-1.2 1.3-0.3 0.6-0.4 1.2-0.4 2 0 0.8 0.1 1.4 0.4 2 0.3 0.6 0.7 1 1.2 1.3 0.5 0.3 1.1 0.5 1.8 0.5 0.7 0 1.3-0.2 1.8-0.5z"/>
					<path class="s0" d="m317.1 183l-2.5-4.4h-1.1v4.4h-2.3v-11.4h4.3c0.9 0 1.6 0.2 2.3 0.5 0.6 0.3 1.1 0.7 1.4 1.3 0.3 0.5 0.5 1.1 0.5 1.8 0 0.7-0.2 1.4-0.7 2-0.4 0.6-1.1 1-1.9 1.2l2.7 4.6h-2.6zm-3.6-6.2h1.9c0.6 0 1.1-0.1 1.4-0.4 0.3-0.3 0.5-0.7 0.5-1.2 0-0.5-0.2-0.9-0.5-1.2-0.3-0.3-0.8-0.4-1.4-0.4h-1.9v3.3z"/>
					<path class="s0" d="m334.6 171.6l-3.9 7.4v4h-2.3v-4l-3.9-7.4h2.6l2.4 5.2 2.4-5.2h2.5z"/>
					<path class="s0" d="m338.3 182.3q-1.4-0.8-2.1-2.1c-0.5-0.9-0.8-1.9-0.8-3 0-1.1 0.3-2.1 0.8-3q0.7-1.3 2.1-2.1c0.9-0.5 1.9-0.8 2.9-0.8 1 0 2.1 0.2 2.9 0.8q1.3 0.8 2.1 2.1c0.5 0.9 0.8 1.9 0.8 3 0 1.1-0.3 2.1-0.8 3q-0.8 1.4-2.1 2.1c-0.9 0.5-1.9 0.8-2.9 0.8-1 0-2-0.2-2.9-0.8zm4.8-1.7c0.5-0.3 0.9-0.8 1.2-1.3 0.3-0.6 0.4-1.2 0.4-2 0-0.8-0.1-1.4-0.4-2-0.3-0.6-0.7-1-1.2-1.3-0.5-0.3-1.1-0.5-1.8-0.5-0.7 0-1.3 0.2-1.8 0.5-0.5 0.3-0.9 0.7-1.2 1.3-0.3 0.6-0.4 1.2-0.4 2 0 0.8 0.1 1.4 0.4 2 0.3 0.6 0.7 1 1.2 1.3 0.5 0.3 1.1 0.5 1.8 0.5 0.7 0 1.3-0.2 1.8-0.5z"/>
					<path class="s0" d="m351 171.6v7.1q0 1.2 0.6 1.8c0.4 0.4 1 0.6 1.7 0.6 0.7 0 1.3-0.2 1.7-0.6q0.6-0.6 0.6-1.8v-7.1h2.3v7c0 1-0.2 1.8-0.6 2.5-0.4 0.7-1 1.2-1.7 1.5-0.7 0.3-1.5 0.5-2.3 0.5-0.8 0-1.6-0.2-2.3-0.5-0.7-0.3-1.2-0.8-1.6-1.5-0.4-0.7-0.6-1.5-0.6-2.5v-7h2.3z"/>
				</g>
			</g>
			<g>
				<g>
					<path class="s1" d="m9 162c-5.6 0-8.4-2.2-8.4-6.5 0-4.3 0.1-2 0.4-3l4.3-0.7q-0.6 1.4-0.6 3.3c0 1.3 0.4 2.3 1.1 2.9q1.1 0.9 3.6 0.9h3.5v-11.9h4.1v11.9h1.8v3.2h-9.7zm-2.9-11.1c0.4 0 0.6 0 0.8 0 0-0.1-0.1-0.3-0.1-0.6 0-0.8 0.3-1.4 0.8-1.9 0.6-0.6 1.6-0.8 2.8-0.8 1.2 0 1 0 1.4 0.1l-0.3 2.2c-0.3 0-0.7-0.1-1.1-0.1-0.4 0-0.8 0.2-0.8 0.5 0 0.3 0.4 0.6 1.2 0.6h1.3v2.2h-6z"/>
					<path class="s1" d="m18.5 158.8h2.2v-11.9h4.1v11.9h1.8v3.2h-8v-3.2z"/>
					<path class="s1" d="m26.2 158.8h7.4c0-0.3 0-0.5 0-0.8 0-2-1.1-3.1-3.4-3.1-2.3 0-1.7 0-2.6 0.2v-3.2c0.9-0.1 1.9-0.2 3-0.2q3.6 0 5.4 1.5c1.1 1 1.7 2.5 1.7 4.6 0 2.1-0.1 2.6-0.4 4h-11.1v-3.2zm3.7 7.7c-0.4-0.4-0.6-0.8-0.6-1.4 0-0.6 0.2-1 0.6-1.4 0.4-0.4 0.8-0.6 1.4-0.6 0.6 0 1 0.2 1.4 0.6 0.4 0.4 0.6 0.8 0.6 1.4 0 0.6-0.2 1-0.6 1.4-0.4 0.4-0.8 0.6-1.4 0.6-0.6 0-1-0.2-1.4-0.6z"/>
					<path class="s1" d="m37.9 148.9c0.4 0 0.7 0 0.8 0-0.1-0.2-0.2-0.4-0.2-0.7 0-0.7 0.3-1.3 0.9-1.7 0.7-0.5 1.6-0.8 2.8-0.8 1.2 0 0.9 0 1.4 0.1l-0.3 1.9c-0.3 0-0.7-0.1-1.2-0.1-0.5 0-0.9 0.2-0.9 0.5 0 0.3 0.4 0.6 1.3 0.6h1.4v2h-6v-2zm1.1 13.1v-3.2h6.6v-11.2h4.1v14.4h-10.6zm5.8-4.3h-4.1l-1.7-6.2h4.2z"/>
					<path class="s1" d="m56.7 146.9h4.1v11.9h1.8v3.2h-5.9v-15z"/>
					<path class="s1" d="m67.3 146.1l4.8-0.7v1.8l-4.8 0.7zm0-2.5l4.8-0.7v1.8l-4.8 0.7z"/>
					<path class="s1" d="m62.3 158.8h2.6v-6.9h4.1c0 0.9 0 1.6-0.3 2.3 0.4-0.8 1.1-1.4 2-1.9 0.9-0.5 1.8-0.7 2.8-0.7 1.6 0 2.8 0.4 3.7 1.3 0.8 0.8 1.2 2 1.2 3.5 0 1.5-0.1 1.7-0.4 2.4h1.2v3.2h-16.7v-3.2zm9.4 0c1.6 0 2.4-0.8 2.4-2.2 0-1.4-0.5-1.8-1.6-1.8-1.1 0-1.5 0.4-2.2 1.1-0.7 0.8-1.2 1.7-1.5 2.9z"/>
					<path class="s1" d="m78.7 158.8h4.5v3.2h-4.5z"/>
					<path class="s1" d="m82.7 158.8h3.6v-6.9h4.1v6.9h1.7v3.2h-9.4zm3.1 7.7c-0.4 0.4-0.8 0.6-1.3 0.6-0.5 0-0.9-0.2-1.3-0.6-0.3-0.4-0.5-0.8-0.5-1.3 0-0.5 0.2-1 0.5-1.3 0.4-0.4 0.8-0.6 1.3-0.6 0.5 0 1 0.2 1.3 0.6 0.3 0.4 0.5 0.8 0.5 1.3 0 0.5-0.2 1-0.5 1.3zm4.1 0c-0.3 0.4-0.8 0.6-1.3 0.6-0.5 0-0.9-0.2-1.3-0.6-0.4-0.4-0.5-0.8-0.5-1.3 0-0.5 0.2-1 0.5-1.3 0.4-0.4 0.8-0.6 1.3-0.6 0.5 0 0.9 0.2 1.3 0.6 0.3 0.4 0.5 0.8 0.5 1.3 0 0.5-0.2 1-0.5 1.3z"/>
					<path class="s1" d="m91.8 158.8h2.6v-6.9h4.1c0 0.9 0 1.6-0.3 2.3 0.4-0.8 1.1-1.4 2-1.9 0.9-0.5 1.8-0.7 2.8-0.7 1.6 0 2.8 0.4 3.7 1.3 0.8 0.8 1.2 2 1.2 3.5 0 1.5-0.1 1.7-0.4 2.4h1.2v3.2h-16.7v-3.2zm9.4 0c1.6 0 2.4-0.8 2.4-2.2 0-1.4-0.5-1.8-1.6-1.8-1.1 0-1.5 0.4-2.2 1.1-0.7 0.8-1.2 1.7-1.5 2.9z"/>
					<path class="s1" d="m108.2 158.8h7.4c0-0.3 0-0.5 0-0.8 0-2-1.1-3.1-3.4-3.1-2.3 0-1.7 0-2.6 0.2v-3.2c0.9-0.1 1.9-0.2 3-0.2q3.6 0 5.4 1.5c1.1 1 1.7 2.5 1.7 4.6 0 2.1-0.1 2.6-0.4 4h-11.1v-3.2zm3.7-8.5c-0.4-0.4-0.6-0.8-0.6-1.4 0-0.6 0.2-1 0.6-1.4 0.4-0.4 0.8-0.6 1.4-0.6 0.6 0 1 0.2 1.4 0.6 0.4 0.4 0.6 0.8 0.6 1.4 0 0.6-0.2 1-0.6 1.4-0.4 0.4-0.8 0.6-1.4 0.6-0.6 0-1-0.2-1.4-0.6z"/>
					<path class="s1" d="m133.7 162c-5.6 0-8.4-2.2-8.4-6.5 0-4.3 0.1-2 0.4-3l4.3-0.7q-0.6 1.4-0.6 3.3c0 1.3 0.4 2.3 1.1 2.9q1.1 0.9 3.6 0.9h1.8v-6.9h4.1v6.9h1.7v3.2h-8zm-3.8-11.7c-0.3-0.4-0.5-0.8-0.5-1.3 0-0.5 0.2-1 0.5-1.3 0.4-0.4 0.8-0.6 1.3-0.6 0.5 0 1 0.2 1.3 0.6 0.3 0.4 0.5 0.8 0.5 1.3 0 0.5-0.2 1-0.5 1.3-0.4 0.4-0.8 0.6-1.3 0.6-0.5 0-0.9-0.2-1.3-0.6zm4.1 0c-0.4-0.4-0.5-0.8-0.5-1.3 0-0.5 0.2-1 0.5-1.3 0.4-0.4 0.8-0.6 1.3-0.6 0.5 0 0.9 0.2 1.3 0.6 0.4 0.4 0.5 0.8 0.5 1.3 0 0.5-0.2 1-0.5 1.3-0.3 0.4-0.8 0.6-1.3 0.6-0.5 0-0.9-0.2-1.3-0.6z"/>
					<path class="s1" d="m141.3 158.8h4.5v3.2h-4.5z"/>
					<path class="s1" d="m145.4 158.8h4.5v3.2h-4.5z"/>
					<path class="s1" d="m157.5 162c-2 0-3.6-0.4-4.6-1.2q-0.7 1.2-3.6 1.2h-0.3v-3.2c1.5 0 2.3-0.7 2.3-2.1 0-1.4 0.5-2.6 1.4-3.6 1.1-1 2.5-1.6 4.4-1.6 1.9 0 3.1 0.5 4 1.4q1.2 1.4 1.2 3.6v2.1h1.3v3.2h-6.2zm0.9-4.9c0-1.5-0.5-2.3-1.5-2.3-1 0-0.9 0.2-1.2 0.6-0.3 0.4-0.4 0.8-0.4 1.4 0 1.4 0.7 2.1 2.2 2.1h0.9z"/>
					<path class="s1" d="m171.4 162c-2 0-3.6-0.4-4.6-1.2q-0.7 1.2-3.6 1.2h-0.3v-3.2c1.5 0 2.3-0.7 2.3-2.1 0-1.4 0.5-2.6 1.4-3.6 1.1-1 2.5-1.6 4.4-1.6 1.9 0 3.1 0.5 4 1.4q1.2 1.4 1.2 3.6v2.1h1.3v3.2h-6.2zm0.9-4.9c0-1.5-0.5-2.3-1.5-2.3-1 0-0.9 0.2-1.2 0.6-0.3 0.4-0.4 0.8-0.4 1.4 0 1.4 0.7 2.1 2.2 2.1h0.9z"/>
					<path class="s1" d="m181.2 145.7l1.6-0.3q0-0.3 0-0.6c0-0.6 0.2-1.1 0.7-1.6 0.5-0.4 1-0.6 1.7-0.6 1.3 0 2 0.6 2 1.7 0 1.1-0.7 1.8-2.2 2.1l-3.3 0.7-0.3-1.4zm3.6-0.7c0.4 0 0.6-0.2 0.6-0.5 0-0.3-0.1-0.4-0.4-0.4-0.4 0-0.7 0.2-0.7 0.7 0 0.5 0 0.2 0 0.3h0.4z"/>
					<path class="s1" d="m177.2 158.8h2.6v-6.9h4.1c0 0.9 0 1.6-0.3 2.3 0.4-0.8 1.1-1.4 2-1.9 0.9-0.5 1.8-0.7 2.8-0.7 1.6 0 2.8 0.4 3.7 1.3 0.8 0.8 1.2 2 1.2 3.5 0 1.5-0.5 3-1.6 4q-1.8 1.5-5.4 1.5h-9v-3.2zm9.3 0c1.7 0 2.5-0.7 2.5-2.2 0-1.5-0.5-1.8-1.6-1.8-1.1 0-1.5 0.4-2.2 1.1-0.7 0.8-1.2 1.7-1.5 2.9z"/>
					<path class="s1" d="m199.5 161.5c-0.4-0.5-0.7-1.2-0.7-2 0-2 1.1-3.9 3.4-5.8l1.6 1.4c-0.8 0.8-1.2 1.5-1.3 2-0.1 0.5 0 1 0.5 1.6 0.6 0.6 0.7 1.4 0.3 2.2-0.4 0.9-1.1 1.3-2.1 1.3-1 0-1.2-0.3-1.7-0.8z"/>
					<path class="s1" d="m213.3 162c-5.6 0-8.4-2.2-8.4-6.5 0-4.3 0.1-2 0.4-3l4.3-0.7q-0.6 1.4-0.6 3.3c0 1.3 0.4 2.3 1.1 2.9q1.1 0.9 3.6 0.9h3.5v-11.9h4.1v11.9h1.8v3.2h-9.7zm-2.9-11.1c0.4 0 0.6 0 0.8 0 0-0.1-0.1-0.3-0.1-0.6 0-0.8 0.3-1.4 0.8-1.9 0.6-0.6 1.6-0.8 2.8-0.8 1.2 0 1 0 1.4 0.1l-0.3 2.2c-0.3 0-0.7-0.1-1.1-0.1-0.4 0-0.8 0.2-0.8 0.5 0 0.3 0.4 0.6 1.2 0.6h1.3v2.2h-6z"/>
					<path class="s1" d="m222.7 158.8h4.5v3.2h-4.5z"/>
					<path class="s1" d="m226.8 158.8h4.5v3.2h-4.5z"/>
					<path class="s1" d="m230.8 158.8h7.4c0-0.3 0-0.5 0-0.8 0-2-1.1-3.1-3.4-3.1-2.3 0-1.7 0-2.6 0.2v-3.2c0.9-0.1 1.9-0.2 3-0.2q3.6 0 5.4 1.5c1.1 1 1.7 2.5 1.7 4.6 0 2.1-0.1 2.6-0.4 4h-11.1v-3.2zm3.7 7.7c-0.4-0.4-0.6-0.8-0.6-1.4 0-0.6 0.2-1 0.6-1.4 0.4-0.4 0.8-0.6 1.4-0.6 0.6 0 1 0.2 1.4 0.6 0.4 0.4 0.6 0.8 0.6 1.4 0 0.6-0.2 1-0.6 1.4-0.4 0.4-0.8 0.6-1.4 0.6-0.6 0-1-0.2-1.4-0.6z"/>
					<path class="s1" d="m249 157.7h-4.1l-2.6-10.4 4.1-0.6 2.6 10.9zm-5.8 4.3v-3.2h6.6v-11.9h4.1v11.9h1.8v3.2h-12.4z"/>
					<path class="s1" d="m255.3 158.8h2c-0.5-0.6-0.7-1.3-0.7-2.3 0-1.4 0.5-2.6 1.5-3.4 1.1-1 2.6-1.4 4.5-1.4 1.9 0 1.7 0 2.5 0.3l-0.7 3.2q-0.8-0.3-1.8-0.3c-0.7 0-1.1 0.2-1.4 0.5-0.4 0.3-0.5 0.8-0.5 1.3 0 1.5 1.2 2.2 3.7 2.2h1.5v3.2h-10.6v-3.2z"/>
					<path class="s1" d="m279.4 162c-5.6 0-8.4-2.2-8.4-6.5 0-4.3 0.1-2 0.4-3l4.3-0.7q-0.6 1.4-0.6 3.3c0 1.3 0.4 2.3 1.1 2.9q1.1 0.9 3.6 0.9h3.5v-11.9h4.1v11.9h1.8v3.2h-9.7zm-2.9-11.1c0.4 0 0.6 0 0.8 0 0-0.1-0.1-0.3-0.1-0.6 0-0.8 0.3-1.4 0.8-1.9 0.6-0.6 1.6-0.8 2.8-0.8 1.2 0 1 0 1.4 0.1l-0.3 2.2c-0.3 0-0.7-0.1-1.1-0.1-0.4 0-0.8 0.2-0.8 0.5 0 0.3 0.4 0.6 1.2 0.6h1.3v2.2h-6z"/>
					<path class="s1" d="m288.9 158.8h2.2v-11.9h4.1v15h-6.2v-3.2z"/>
					<path class="s1" d="m302.6 166.2q-1.5-1.1-1.5-2.7c0-1.1 0.4-2.2 1.3-3 0.6-0.5 1.6-1.1 2.9-1.7-1.4-1.3-2.6-2.1-3.6-2.3l0.3-2.9c2-1.4 4.1-2.1 6.1-2.1 2 0 3 0.4 3.9 1.1 0.8 0.7 1.2 1.5 1.2 2.6 0 1.1-0.5 2.5-1.5 3.4 0.4 0 0.8 0.1 1.2 0.1h1.6v3.2h-2c-1.7 0-3.2-0.3-4.5-1-1.9 0.9-2.9 1.6-2.9 2.1 0 0.5 0.9 1.2 2.6 1.2 1.7 0 2.1 0 3-0.3l0.2 3.1c-1.2 0.2-2.4 0.4-3.7 0.4-2.1 0-3.8-0.4-4.9-1.2zm6-9c0.4-0.4 0.7-0.8 0.7-1.4 0-0.9-0.5-1.3-1.5-1.3-1 0-1.3 0.2-2 0.7 0.2 0 1.1 0.7 2.8 2z"/>
					<path class="s1" d="m314.3 158.8h4.5v3.2h-4.5z"/>
					<path class="s1" d="m318.3 158.8h4.5v3.2h-4.5z"/>
					<path class="s1" d="m322.3 158.8h4.5v3.2h-4.5z"/>
					<path class="s1" d="m326.4 158.8h2.8v-6.9h4.1v6.9h1.7v3.2h-8.5v-3.2zm1.6 7.7c-0.4-0.4-0.6-0.8-0.6-1.4 0-0.6 0.2-1 0.6-1.4 0.4-0.4 0.8-0.6 1.4-0.6 0.6 0 1 0.2 1.4 0.6 0.4 0.4 0.6 0.8 0.6 1.4 0 0.6-0.2 1-0.6 1.4-0.4 0.4-0.8 0.6-1.4 0.6-0.6 0-1-0.2-1.4-0.6z"/>
					<path class="s1" d="m334.6 158.8h2.1v-11.9h4.1v5.1c0 0.8 0 1.5-0.3 2.2 0.4-0.8 1.1-1.4 2-1.9 0.9-0.5 1.8-0.7 2.8-0.7 1.6 0 2.8 0.4 3.7 1.3 0.8 0.8 1.2 2 1.2 3.5 0 1.5-0.1 1.7-0.4 2.4h1.6v3.2h-16.7v-3.2zm9 0c1.6 0 2.4-0.8 2.4-2.2 0-1.4-0.5-1.8-1.6-1.8-1.1 0-1.5 0.4-2.2 1.1-0.7 0.8-1.2 1.7-1.5 2.9z"/>
					<path class="s1" d="m351 158.8h2.8v-6.9h4.1v10h-6.8v-3.2zm3.4-8.5c-0.4-0.4-0.6-0.8-0.6-1.4 0-0.6 0.2-1 0.6-1.4 0.4-0.4 0.8-0.6 1.4-0.6 0.6 0 1 0.2 1.4 0.6 0.4 0.4 0.6 0.8 0.6 1.4 0 0.6-0.2 1-0.6 1.4-0.4 0.4-0.8 0.6-1.4 0.6-0.6 0-1-0.2-1.4-0.6z"/>
				</g>
			</g>
			<g>
				<path class="s0" d="m89.9 75.1c-1.7 0.3-3.4 0.5-5.1 0.5q-39 0-78 0h-0.7c-3.4-0.2-6.2-3-6.2-6.5 0-3.5 2.9-6.5 6.5-6.5 13.2 0 62.7 0 79.5 0 1.3 0 2.5-0.3 3.5-1.2 1.7-1.4 2-3.5 1.3-5.7-0.6-2.1-2.6-3.3-4.9-3.3h-58.4c-3.1 0-6.3 0-9.4 0-4.1 0-7.1-3.8-6.3-7.9 0.7-3.2 3.4-5.2 7-5.2q33.6 0 67.2 0c0.8 0 1.7 0 2.3-0.4 2.4-1.1 3.4-3.5 2.8-6-0.5-2.3-3-3.7-5.2-3.7-5.5 0.1-11.1 0-16.6 0h-63.1c-3.4-0.2-6.1-3.1-6.1-6.5 0-3.4 2.9-6.5 6.5-6.5h79.2c7.9 0 15.1 5.3 17.3 12.9q2.4 8.4-2.7 15.6c-0.3 0.4-0.5 0.7-0.8 1.1 0 0 0 0.2-0.1 0.3 2.1 2.6 3.5 5.5 4.1 8.9 1.7 8.8-4.8 18.4-13.5 20.2"/>
				<path class="s0" d="m33.5 88.4c-0.8-0.5-1.9-0.8-3.3-0.8h-2.3c-1.4 0-2.4 0.1-3 0.4-0.6 0.2-1.1 0.7-1.4 1.3-0.3 0.6-0.6 1.7-1 3.1l-2.8 10.7-2.4 9-2.4-9-2.8-10.7c-0.4-1.4-0.7-2.5-1-3.1-0.3-0.6-0.8-1.1-1.4-1.3-0.6-0.2-1.6-0.4-3-0.4h-2.3c-1.4 0-2.5 0.3-3.3 0.8-0.8 0.6-1.2 1.6-1.2 3.2v28.5c0 1.4 0.3 2.4 0.9 3.1 0.6 0.7 1.4 1 2.4 1 1 0 1.8-0.3 2.4-1 0.6-0.7 0.9-1.7 0.9-3.1v-24.9l2 7.9 3.8 15.1c0.2 0.8 0.4 1.5 0.6 2.2 0.2 0.7 0.5 1.3 0.8 1.9 0.3 0.6 0.8 1 1.4 1.4 0.6 0.4 1.3 0.6 2.2 0.6 0.9 0 2-0.3 2.6-0.9 0.6-0.6 1.1-1.2 1.3-1.9q0.3-1 0.9-3.3l3.8-15.1 2-7.9v24.9c0 1.4 0.3 2.4 0.9 3.1 0.6 0.7 1.4 1 2.4 1 1 0 1.9-0.3 2.5-1 0.6-0.7 0.9-1.7 0.9-3.1v-28.5c0-1.6-0.4-2.6-1.2-3.2"/>
				<path class="s0" d="m69.2 118.7c-0.6-0.5-1.4-0.8-2.6-0.8h-17v-10.2h15.1c1.1 0 2-0.2 2.5-0.8 0.5-0.5 0.8-1.2 0.8-2 0-0.8-0.2-1.2-0.5-1.7 0-0.1-0.2-0.2-0.3-0.3-0.5-0.5-1.4-0.8-2.5-0.8h-15.2v-8.8h16.4c1.2 0 2-0.3 2.6-0.8 0.6-0.5 0.8-1.2 0.8-2.1 0-0.9-0.3-1.5-0.8-2-0.5-0.5-1.4-0.8-2.6-0.8h-19.3c-1 0-1.9 0.2-2.5 0.4-0.7 0.3-1.1 0.8-1.5 1.4-0.3 0.7-0.5 1.5-0.5 2.6v27.1c0 1.6 0.3 2.7 1 3.4 0.7 0.7 1.8 1.1 3.4 1.1h19.8c1.1 0 2-0.3 2.6-0.8q0.9-0.7 0.9-2.1 0-1.3-0.9-2.1"/>
				<path class="s0" d="m106.6 103.2c-0.4-5.4-2.3-9.5-5.6-12.3-1.4-1.3-3.1-2.1-4.8-2.6-1.8-0.5-3.9-0.7-6.4-0.7h-9.5c-1.6 0-2.7 0.3-3.4 1.1-0.7 0.7-1.1 1.8-1.1 3.4v26.4c0 1.2 0.1 2.1 0.3 2.8 0.2 0.7 0.6 1.3 1.3 1.7q1 0.6 3 0.6h9.5c1.7 0 3.1-0.1 4.5-0.3 1.3-0.2 2.5-0.6 3.7-1.1 1.2-0.5 2.2-1.2 3.2-2.1 1.2-1.1 2.2-2.4 3-3.8 0.8-1.4 1.4-3.1 1.7-4.8 0.4-1.8 0.6-3.8 0.6-5.9 0-2.1 0-1.6 0-2.3m-11 12.9c-0.5 0.5-1.2 0.8-1.9 1.1-0.7 0.3-1.4 0.4-2.1 0.5-0.7 0-1.6 0-2.8 0h-5.5v-24.5h4.8c2.2 0 4.1 0.2 5.7 0.7 1.6 0.5 2.9 1.6 4 3.4q1.2 2.1 1.5 5.7c0 0.7 0 1.5 0 2.3 0 5-1.2 8.6-3.7 10.7"/>
				<path class="s0" d="m119.7 88.1c-0.7-0.7-1.6-1.1-2.7-1.1-1.1 0-1.9 0.4-2.6 1.1-0.7 0.7-1 1.8-1 3.3v28.4c0 1.5 0.3 2.6 1 3.3 0.7 0.7 1.5 1.1 2.6 1.1 1.1 0 2-0.4 2.7-1.1 0.7-0.7 1-1.9 1-3.3v-28.4c0-1.5-0.3-2.6-1-3.3z"/>
				<path class="s0" d="m158.7 110c0 0-0.1 0-0.1-0.1-0.6-0.5-1.3-0.8-2.1-0.8-0.8 0-1.8 0.3-2.2 0.9-0.4 0.6-0.8 1.4-1.2 2.3-0.7 2-1.8 3.5-3.3 4.6-1.4 1-3.2 1.6-5.3 1.6-2.1 0-2.1-0.2-3-0.4-0.7-0.2-1.4-0.5-2-0.9-1.4-0.9-2.6-2.3-3.3-4.2-0.6-1.4-0.9-3-1.1-4.9q0-1.1 0-2.1c0-4.2 0.9-7.4 2.7-9.7 1.8-2.3 4.2-3.4 7.2-3.4 3 0 2.1 0.1 3 0.4q0.9 0.3 1.8 0.9c1.3 0.9 2.4 2.2 3.4 4 0.6 1.1 1.1 1.8 1.6 2.3 0.5 0.4 1.2 0.7 2.1 0.7 0.9 0 1.5-0.3 2.1-1 0.6-0.6 0.9-1.4 0.9-2.2q0-2.3-1.8-4.8c-1.2-1.7-2.9-3.2-5.2-4.3-2.3-1.2-4.9-1.7-7.8-1.7-2.9 0-3 0.2-4.4 0.5-0.8 0.2-1.6 0.4-2.3 0.8-2.1 0.8-3.9 2.1-5.5 3.7-1.6 1.6-2.8 3.6-3.6 5.9-0.7 1.9-1.1 3.9-1.2 6.2 0 0.5 0 1 0 1.6 0 1.8 0.2 3.5 0.5 5.1q0.4 2.4 1.5 4.5c0.7 1.4 1.5 2.7 2.4 3.8 1.1 1.2 2.2 2.2 3.5 3 1.3 0.8 2.7 1.3 4.2 1.7 1 0.2 2 0.4 3.1 0.5q1 0 2.1 0 3.7 0 6.6-1.2c1.9-0.8 3.4-1.8 4.6-3.1q1.8-1.9 2.7-3.9c0.5-1.1 0.8-2.1 0.8-3.1q0-0.3 0-0.6c0-0.9-0.3-1.7-0.9-2.3"/>
				<path class="s0" d="m195.9 117.1l-9.4-23.3c-0.4-1.2-0.8-2.1-1.1-2.8-0.3-0.7-0.6-1.3-1.1-2-0.4-0.6-1-1.1-1.6-1.5-0.7-0.4-1.5-0.6-2.5-0.6-1 0-1.8 0.2-2.5 0.6-0.7 0.4-1.2 0.9-1.6 1.5-0.4 0.6-0.8 1.4-1.2 2.3q-0.6 1.4-0.9 2.4l-9.2 23.4c-0.4 0.9-0.6 1.7-0.8 2.2-0.2 0.5-0.2 1-0.2 1.5 0 0.9 0.4 1.6 1.1 2.3 0.7 0.7 1.5 1 2.4 1 0.9 0 1.9-0.3 2.3-0.9 0.5-0.6 1-1.8 1.7-3.7l1.7-4.6h14.6l1.7 4.5c0.2 0.6 0.5 1.2 0.8 1.9 0.3 0.7 0.6 1.3 0.9 1.6 0.3 0.4 0.6 0.6 1 0.8q0.6 0.3 1.5 0.3c1 0 1.8-0.3 2.5-1.1 0.7-0.7 1-1.5 1-2.3 0-0.8-0.4-2.1-1.1-3.9m-21.1-7.1l5.3-14.9 5.4 14.9h-10.8z"/>
				<path class="s0" d="m227 118.5q-0.9-0.9-2.7-0.9h-14.8v-26.2c0-1.5-0.4-2.6-1-3.3-0.7-0.7-1.6-1.1-2.7-1.1-1.1 0-1.9 0.4-2.6 1.1-0.7 0.7-1 1.8-1 3.3v27.8c0 1.6 0.4 2.7 1.1 3.4 0.7 0.7 1.8 1.1 3.4 1.1h17.6c1.2 0 2.1-0.3 2.7-0.8 0.6-0.6 0.9-1.3 0.9-2.2 0-0.9-0.3-1.6-0.9-2.2z"/>
				<path class="s0" d="m302.9 45c0 3.8-3.1 6.9-6.9 6.9-3.8 0-6.9-3.1-6.9-6.9 0-3.8 3.1-6.9 6.9-6.9 3.8 0 6.9 3.1 6.9 6.9z"/>
				<path class="s0" d="m298.6 65.6c0 3.8-3.1 6.9-6.9 6.9-3.8 0-6.9-3.1-6.9-6.9 0-3.8 3.1-6.9 6.9-6.9 3.8 0 6.9 3.1 6.9 6.9z"/>
				<path class="s0" d="m294.7 85c0 3-2.5 5.5-5.5 5.5-3 0-5.5-2.5-5.5-5.5 0-3 2.5-5.5 5.5-5.5 3 0 5.5 2.5 5.5 5.5z"/>
				<path class="s0" d="m295.3 103.7c0 2.8-2.3 5.2-5.2 5.2-2.9 0-5.2-2.3-5.2-5.2 0-2.9 2.3-5.2 5.2-5.2 2.9 0 5.2 2.3 5.2 5.2z"/>
				<path class="s0" d="m299.2 135.8c0 1.7-1.4 3.1-3.1 3.1-1.7 0-3.1-1.4-3.1-3.1 0-1.7 1.4-3.1 3.1-3.1 1.7 0 3.1 1.4 3.1 3.1z"/>
				<path class="s1" d="m324.1 54.5c0 2.8-2.3 5.2-5.2 5.2-2.9 0-5.2-2.3-5.2-5.2 0-2.9 2.3-5.2 5.2-5.2 2.9 0 5.2 2.3 5.2 5.2z"/>
				<path class="s1" d="m323.4 36.1c0 2.7-2.2 4.9-4.9 4.9-2.7 0-4.9-2.2-4.9-4.9 0-2.7 2.2-4.9 4.9-4.9 2.7 0 4.9 2.2 4.9 4.9z"/>
				<path class="s1" d="m322.2 72.9c0 3.7-3 6.6-6.6 6.6-3.6 0-6.6-3-6.6-6.6 0-3.6 3-6.6 6.6-6.6 3.6 0 6.6 3 6.6 6.6z"/>
				<path class="s1" d="m318.7 94.1c0 3.7-3 6.6-6.6 6.6-3.6 0-6.6-3-6.6-6.6 0-3.6 3-6.6 6.6-6.6 3.6 0 6.6 3 6.6 6.6z"/>
				<path class="s1" d="m315.6 3.1c0 1.7-1.4 3.1-3.1 3.1-1.7 0-3.1-1.4-3.1-3.1 0-1.7 1.4-3.1 3.1-3.1 1.7 0 3.1 1.4 3.1 3.1z"/>
				<path class="s0" d="m254 69c0 21.7 13.6 40.8 33.9 47.7l2.1 0.6c0.8-0.9 2-1.6 3.4-1.6 2.4 0 4.4 2 4.4 4.4 0 2.4-2 4.4-4.4 4.4-2.4 0-4.4-2-4.4-4.4v-0.2l-1.9-0.6c-21.5-7.3-35.9-27.5-35.9-50.4 0-22.9 23.6-53.1 52.5-53.1v2.9c-27.4 0-49.7 22.6-49.7 50.3z"/>
				<path class="s1" d="m358.2 69.7c0 29.7-24.5 53.8-54.5 53.8v-2.9c28.5 0 51.7-22.9 51.7-51 0-28.1-14.9-42.1-36.2-48.7-0.8 1.1-2.1 1.8-3.6 1.8-2.4 0-4.4-2-4.4-4.4 0-2.4 2-4.4 4.4-4.4 2.4 0 4.4 1.9 4.4 4.3 22.5 7 38.2 28 38.2 51.4"/>
				<path class="s0" d="m228.9 43v-0.2c-0.6-6-2.5-11.4-6-16.2-4.5-6.2-10.4-10.2-18.1-10.2-26.9-0.1-53.8 0-80.7 0-1.1 0-2.3 0.4-3.3 0.9-2.7 1.5-3.7 4.4-2.9 7.4 0.7 2.6 3.3 4.6 6.2 4.6 2.9 0 4.4 0 6.7 0 4.1 0 22.3 0 39.1 0v-8.8h11.2v8.8c11.6 0 20.5 0 20.5 0 8.1 0 13.3 5 14.5 12.6 0.1 0.7 0.2 1.4 0.3 2.3l-0.2 4c0 2.5-0.6 4.7-1.6 6.8-2.6 5.2-6.9 7.7-12.7 7.7h-20.4c0.3 0.5 0.6 0.6 0.8 0.7 0.5 0.3 1.3 0.4 2.1 0.5h4.5v9.4h-6.2c-4.2 0-7.4-1.1-9.6-3.2-1.2-1.2-2.1-2.8-2.6-4.7-0.3-0.9-0.4-1.8-0.6-2.8h-11.6v5.1c0 4.1-2.1 6.5-5.5 6.5q-2.4 0-3.9-1.5c-1.2-1.2-1.8-3-1.8-5.1v-5.1h-16.4v-15.7c0-1.2-0.3-2.3-0.8-3.4v-0.3c-1.3-2.5-3.4-3.8-6-3.7-3.6 0.1-6.4 2.9-6.4 6.6v22.9c0 3.9 2.8 6.7 6.7 6.7q40.2 0 80.4 0c4.7 0 8.9-1.6 12.6-4.4 5.9-4.5 9.3-10.7 11-17.9 0.3-1.4 0.6-2.8 0.8-4.2 0-0.5 0.1-0.9 0.1-1.3 0-0.2 0-0.3 0-0.5 0-1.4 0-2.9-0.2-4.3zm-70.4-18.2c0 1.9-1.6 3.5-3.5 3.5h-4.4c-1.9 0-3.5-1.5-3.5-3.5v-4.4c0-1.9 1.6-3.5 3.5-3.5h4.4c1.9 0 3.5 1.6 3.5 3.5z"/>
				<path class="s1" d="m187.3 71.5v-6.1h-2.8c-1.1 0-2.1-0.2-2.8-0.6-1.6-0.7-2.3-2.1-2.3-4.5 0-7.1 0-24.2 0-24.2h7.2v-5.2h-7.2v-8.8h-7.9v8.8h-4.3v5.2h4.3v24c0 1.8 0.2 3.3 0.6 4.7 0.4 1.6 1.2 2.9 2.2 4 1.9 1.8 4.8 2.7 8.5 2.7h4.4z"/>
				<path class="s1" d="m156.7 36v31.8c0 2.9-1.5 4.6-3.9 4.6-1.1 0-2.1-0.3-2.7-1-0.9-0.8-1.3-2.1-1.3-3.6v-32c0-2.2 1.2-3.8 3.3-4.1 2.2-0.3 3.8 0.6 4.4 2.7 0.2 0.5 0.2 1.1 0.2 1.6z"/>
				<path class="s1" d="m156.5 21.2v2.9c0 1.3-1 2.3-2.3 2.3h-2.9c-1.3 0-2.3-1-2.3-2.3v-2.9c0-1.2 1-2.3 2.3-2.3h2.9c1.3 0 2.3 1 2.3 2.3z"/>
			</g>
		</g>
	</g>
</svg>