<svg version="1.2" xmlns="http://www.w3.org/2000/svg" viewBox="0 0 140 102" width="140" height="102">
	<title>28</title>
	<defs>
		<linearGradient id="g1" x2="1" gradientUnits="userSpaceOnUse" gradientTransform="matrix(39.8,-59.3,59.3,39.8,48.4,69.4)">
			<stop offset="0" stop-color="#4eb2ab"/>
			<stop offset="1" stop-color="#99ccbe"/>
		</linearGradient>
	</defs>
	<style>
		.s0 { fill: url(#g1) } 
		.s1 { fill: #165461 } 
	</style>
	<g id="Layer_1-2">
		<g>
			<g>
				<path fill-rule="evenodd" class="s0" d="m69.5 72.2c-19 0-34.3-15.3-34.3-34.3 0-19 15.3-34.3 34.3-34.3 19 0 34.3 15.3 34.3 34.3 0 19-15.3 34.3-34.3 34.3z"/>
				<path class="s1" d="m93.6 36.8l-3.9-21.5c0-0.3-0.3-0.4-0.5-0.4-0.3 0-0.4 0.2-0.4 0.5l-0.4 37.2-4.7-23.5c0-0.2-0.3-0.4-0.5-0.4-0.2 0-0.4 0.2-0.5 0.4l-2.8 12.9-2.6-9.5c0-0.2-0.3-0.4-0.5-0.4-0.2 0-0.4 0.2-0.5 0.4l-2.3 10.2-1.7-12.2c0-0.2-0.2-0.4-0.5-0.4-0.2 0-0.4 0.2-0.5 0.4l-1.3 7.9-1.4-6.7c0-0.2-0.2-0.4-0.5-0.4-0.3 0-0.4 0.1-0.5 0.4l-2.3 8.7-2.3-10.5c0-0.2-0.3-0.4-0.5-0.4-0.2 0-0.4 0.2-0.5 0.4l-3.1 21.7-3.3-26.1c0-0.2-0.2-0.4-0.5-0.4-0.2 0-0.4 0.2-0.5 0.4l-3.3 20.4-2.2-8.5c0-0.2-0.3-0.4-0.5-0.4h-22.4v1h22l2.7 10.4c0 0.2 0.2 0.3 0.5 0.4 0.2 0 0.4-0.2 0.5-0.4l3.1-19.4 3.4 26.3c0 0.3 0.2 0.4 0.5 0.4 0.2 0 0.5-0.2 0.5-0.4l3.2-22.6 2.2 9.8c0 0.2 0.2 0.4 0.5 0.4 0.3 0 0.4-0.1 0.5-0.4l2.3-8.7 1.5 7.3c0 0.2 0.2 0.4 0.5 0.4 0.3 0 0.4-0.2 0.5-0.4l1.2-7.3 1.6 11.7c0 0.2 0.2 0.4 0.5 0.4 0.2 0 0.4-0.1 0.5-0.4l2.4-11 2.7 9.6c0 0.2 0.3 0.3 0.5 0.4 0.2 0 0.4-0.2 0.5-0.4l2.7-12.5 5.2 25.9c0 0.2 0.3 0.4 0.5 0.4 0.3 0 0.4-0.2 0.4-0.5l0.4-36.7 3.1 16.8c0 0.2 0.3 0.4 0.5 0.4h20.5v-1h-20.1z"/>
				<path fill-rule="evenodd" class="s1" d="m69.4 25.6h1.8v1.8h-1.8z"/>
				<path fill-rule="evenodd" class="s1" d="m70.7 22.7h1.8v1.8h-1.8z"/>
				<path fill-rule="evenodd" class="s1" d="m72.5 25.6h1.8v1.8h-1.8z"/>
				<path fill-rule="evenodd" class="s1" d="m78.8 46.9h2.1v2.1h-2.1z"/>
				<path fill-rule="evenodd" class="s1" d="m51.9 50.5h2.1v2.1h-2.1z"/>
				<path fill-rule="evenodd" class="s1" d="m49.1 50.5h2.1v2.1h-2.1z"/>
			</g>
			<g>
				<path class="s1" d="m4.8 84.2c-1.3 0-2.2-0.3-2.8-0.8-0.6-0.5-0.8-1.2-0.8-2.2 0-1 0.1-1.2 0.3-1.7l1-0.2c-0.3 0.5-0.4 1.1-0.4 1.8 0 0.7 0.2 1.4 0.6 1.8 0.4 0.4 1.2 0.6 2.2 0.6h0.9v-4c0.6-0.1 1.2-0.2 1.9-0.2 0.7 0 1.4 0.2 1.8 0.6 0.3 0.4 0.5 0.9 0.5 1.7v1.5h-0.9v-1.4c0-0.6-0.1-1-0.3-1.3-0.2-0.3-0.6-0.4-1.1-0.4-0.5 0-0.6 0-0.9 0v4.2h-1.9zm-0.5 2c-0.1 0.1-0.2 0.2-0.4 0.2-0.2 0-0.3 0-0.4-0.2 0-0.1-0.2-0.2-0.2-0.4 0-0.2 0-0.3 0.2-0.4 0.2-0.1 0.2-0.2 0.4-0.2 0.2 0 0.3 0 0.4 0.2 0.1 0.1 0.2 0.2 0.2 0.4 0 0.2 0 0.3-0.2 0.4zm1.5 0c0 0.1-0.2 0.2-0.4 0.2-0.2 0-0.3 0-0.4-0.2-0.1-0.1-0.2-0.2-0.2-0.4 0-0.2 0-0.3 0.2-0.4 0.1-0.1 0.2-0.2 0.4-0.2 0.2 0 0.3 0 0.4 0.2 0 0.1 0.2 0.2 0.2 0.4 0 0.2 0 0.3-0.2 0.4z"/>
				<path class="s1" d="m13.4 84.2q0 2.7-2.4 2.7c-1.6 0-0.7 0-1.1-0.1v-0.8c0.4 0.1 0.8 0.2 1.2 0.2 0.4 0 0.8-0.1 1-0.4 0.2-0.3 0.4-0.8 0.4-1.4v-5h0.9v4.1h1.3c0.4 0 0.7-0.1 0.8-0.3 0.2-0.2 0.2-0.6 0.2-1.1v-2.1h0.9v1.9c0 0.6 0 1 0.1 1.2 0.1 0.3 0.4 0.4 0.8 0.4 0.7 0 1.1-0.6 1.1-1.7v-2.3h0.9v2.7c0 0.5 0.1 0.9 0.3 1 0.2 0.1 0.6 0.2 1.2 0.2h0.3c0-0.5 0-1 0-1.4 0-1-0.1-2-0.3-2.9l0.9-0.2c0.2 0.9 0.4 1.9 0.4 2.9 0 1 0 0.9 0 1.5h1.1v0.8h-2.4c-0.7 0-1.1 0-1.4-0.2-0.3-0.1-0.5-0.3-0.7-0.7-0.2 0.6-0.8 0.9-1.6 0.9-0.8 0-1.2-0.3-1.3-0.9-0.2 0.5-0.7 0.8-1.4 0.8h-1.3zm4.5-6c-0.1-0.1-0.2-0.2-0.2-0.4 0-0.2 0-0.3 0.2-0.4 0.1-0.1 0.2-0.2 0.4-0.2 0.2 0 0.3 0 0.4 0.2 0.1 0.1 0.2 0.2 0.2 0.4 0 0.2 0 0.3-0.2 0.4-0.1 0.1-0.2 0.2-0.4 0.2-0.2 0-0.3 0-0.4-0.2zm0.8-1.2c-0.1-0.1-0.1-0.2-0.1-0.4 0-0.2 0-0.3 0.1-0.4 0.1-0.1 0.2-0.2 0.4-0.2 0.2 0 0.3 0 0.4 0.2 0.1 0.1 0.1 0.2 0.1 0.4 0 0.2 0 0.3-0.1 0.4-0.1 0.1-0.2 0.1-0.4 0.1-0.2 0-0.3 0-0.4-0.1zm0.8 1.2c-0.1-0.1-0.2-0.2-0.2-0.4 0-0.2 0-0.3 0.2-0.4 0.1-0.1 0.2-0.2 0.4-0.2 0.2 0 0.3 0 0.4 0.2 0.1 0.2 0.2 0.2 0.2 0.4 0 0.2 0 0.3-0.2 0.4-0.1 0.1-0.2 0.2-0.4 0.2-0.2 0-0.3 0-0.4-0.2z"/>
				<path class="s1" d="m23.4 83.5h1.5v-4.1h1v4.1h1.2v0.8h-3.6v-0.8zm0.9 2.7c-0.1-0.1-0.2-0.2-0.2-0.4 0-0.2 0-0.3 0.2-0.4 0.1-0.1 0.2-0.2 0.4-0.2 0.2 0 0.3 0 0.4 0.2 0.1 0.1 0.2 0.2 0.2 0.4 0 0.2 0 0.3-0.2 0.4-0.1 0.1-0.2 0.2-0.4 0.2-0.2 0-0.3 0-0.4-0.2z"/>
				<path class="s1" d="m26.9 83.5h1.5v-6.6h1v7.3h-2.4v-0.8z"/>
				<path class="s1" d="m31.2 76.9h1v7.3h-1z"/>
				<path class="s1" d="m35.8 83.7c0-0.7 0-1.3 0.3-2l1-0.2q-0.3 1.1-0.3 2.1c0 1.5 0.6 2.2 1.7 2.2 1.1 0 1.5-0.7 1.5-2.1v-4.4h1v0.4c0 0.7 0 1.3-0.1 1.9q0.3-1.2 1.2-1.8c0.5-0.4 1.1-0.6 1.7-0.6 0.6 0 1.2 0.2 1.5 0.6 0.4 0.4 0.5 1 0.5 1.7 0 0.7-0.2 1.4-0.7 1.9-0.5 0.5-1.3 0.8-2.4 0.8h-1.8c0 0.8-0.3 1.4-0.8 1.8-0.4 0.4-1 0.6-1.7 0.6-1.7 0-2.6-1-2.6-2.9zm7-0.2c1.3 0 2-0.6 2-1.8 0-1.2-0.4-1.7-1.3-1.7-0.9 0-1.3 0.4-1.8 1.1-0.5 0.7-0.7 1.5-0.8 2.4zm0.3-5.4c-0.1-0.1-0.2-0.2-0.2-0.4 0-0.2 0-0.3 0.2-0.4 0.1-0.1 0.2-0.2 0.4-0.2 0.2 0 0.3 0 0.4 0.2 0.1 0.2 0.2 0.2 0.2 0.4 0 0.2 0 0.3-0.2 0.4-0.1 0.1-0.2 0.2-0.4 0.2-0.2 0-0.3 0-0.4-0.2z"/>
				<path class="s1" d="m47.2 76.9h1v7.3h-1z"/>
				<path class="s1" d="m49.4 86.7v-0.8c0.7 0.1 1.2 0.2 1.7 0.2 1.3 0 2-0.5 2-1.6v-0.2h-1q-2.7 0-2.7-2.4c0-1.6 0.2-1.3 0.6-1.8 0.5-0.5 1.1-0.8 2-0.8 0.9 0 1.5 0.1 2.1 0.4v3.9h1.1v0.8h-1.1v0.2c0 0.7-0.2 1.2-0.7 1.7-0.5 0.5-1.3 0.8-2.3 0.8-1 0-1.1 0-1.6-0.2zm3.7-6.5c-0.3-0.2-0.8-0.2-1.2-0.2-0.4 0-0.9 0.2-1.1 0.5-0.2 0.3-0.4 0.7-0.4 1.2 0 1.2 0.6 1.8 1.9 1.8h0.9v-3.2z"/>
				<path class="s1" d="m55.1 83.5h2c-0.7-0.3-1.1-0.9-1.1-1.8 0-0.9 0.2-1.2 0.6-1.7 0.5-0.5 1.1-0.7 1.9-0.7 0.8 0 0.9 0 1.3 0.2l-0.2 0.8c-0.4-0.2-0.8-0.2-1.2-0.2-0.4 0-0.8 0.1-1.1 0.4-0.3 0.3-0.4 0.7-0.4 1.2 0 0.5 0.2 1 0.7 1.3 0.5 0.4 1.2 0.5 2.1 0.5h0.8v0.8h-5.5v-0.8z"/>
				<path class="s1" d="m62.9 86.8v-0.8c0.4 0.1 0.8 0.2 1.1 0.2 0.3 0 0.8-0.1 1-0.4 0.3-0.3 0.4-0.8 0.4-1.4v-5h0.9v4.9c0 1.7-0.8 2.6-2.4 2.6-1.6 0-0.7 0-1.1-0.1z"/>
				<path class="s1" d="m67.7 86.7v-0.8c0.7 0.1 1.2 0.2 1.7 0.2 1.3 0 2-0.5 2-1.6v-0.2h-1q-2.7 0-2.7-2.4c0-1.6 0.2-1.3 0.6-1.8 0.5-0.5 1.1-0.8 2-0.8 0.9 0 1.5 0.1 2.1 0.4v3.9h1.1v0.8h-1.1v0.2c0 0.7-0.2 1.2-0.7 1.7-0.5 0.5-1.3 0.8-2.3 0.8-1 0-1.1 0-1.6-0.2zm3.7-6.5c-0.3-0.2-0.8-0.2-1.2-0.2-0.4 0-0.9 0.2-1.1 0.5-0.2 0.3-0.4 0.7-0.4 1.2 0 1.2 0.6 1.8 1.9 1.8h0.9v-3.2z"/>
				<path class="s1" d="m73.3 83.5h1.5v-4.1h0.9v4.1h1.1v0.8h-3.5zm0.7-5.3c-0.1-0.1-0.2-0.2-0.2-0.4 0-0.2 0-0.3 0.2-0.4 0-0.1 0.2-0.2 0.4-0.2 0.2 0 0.3 0 0.4 0.2 0.1 0.2 0.2 0.2 0.2 0.4 0 0.2 0 0.3-0.2 0.4 0 0.1-0.2 0.2-0.4 0.2-0.2 0-0.3 0-0.4-0.2zm1.5 0c-0.1-0.1-0.2-0.2-0.2-0.4 0-0.2 0-0.3 0.2-0.4 0.1-0.1 0.2-0.2 0.4-0.2 0.2 0 0.3 0 0.4 0.2 0 0.1 0.2 0.2 0.2 0.4 0 0.2 0 0.3-0.2 0.4-0.2 0.1-0.2 0.2-0.4 0.2-0.2 0-0.3 0-0.4-0.2z"/>
				<path class="s1" d="m76.7 83.5h3.3c0-1-0.2-1.8-0.7-2.3-0.4-0.5-1.1-0.9-2-1.2v-0.7l3.9-2.5v1l-2.8 1.7c0.8 0.4 1.5 0.8 1.9 1.5 0.4 0.7 0.7 1.6 0.7 2.8v0.5h-4.3z"/>
				<path class="s1" d="m81.9 83.5h3.3c0-1-0.2-1.7-0.6-2.3-0.4-0.6-1.1-1-2-1.3l0.2-0.8c1.1 0.4 1.9 0.9 2.5 1.5 0.6 0.7 0.8 1.6 0.9 2.8h0.8v0.8h-5.1v-0.8z"/>
				<path class="s1" d="m86.8 83.5h1.4v-6.6h0.9v7.3h-2.4v-0.8z"/>
				<path class="s1" d="m91.2 76.9h0.9v7.3h-0.9z"/>
				<path class="s1" d="m99.4 84.2c-1.3 0-2.2-0.3-2.8-0.8-0.6-0.5-0.8-1.2-0.8-2.2 0-1 0.1-1.2 0.3-1.7l1-0.2c-0.3 0.5-0.4 1.1-0.4 1.8 0 0.7 0.2 1.4 0.6 1.8 0.4 0.4 1.2 0.6 2.2 0.6h0.9v-4c0.6-0.1 1.2-0.2 1.9-0.2 0.7 0 1.4 0.2 1.8 0.6 0.3 0.4 0.5 0.9 0.5 1.7v2h1v0.8h-2v-2.6c0-0.6-0.1-1-0.3-1.3-0.2-0.2-0.6-0.4-1.1-0.4-0.5 0-0.6 0-0.9 0v4.2h-1.9z"/>
				<path class="s1" d="m105.5 83.5h0.6c0.2 0 0.5 0 0.7 0-0.5-0.3-0.7-0.9-0.7-1.7 0-0.8 0.2-1.3 0.7-1.8 0.5-0.5 1.1-0.7 1.8-0.7 0.7 0 1.2 0.2 1.7 0.6 0.4 0.4 0.7 1 0.7 1.9 0 0.9-0.3 1.5-0.8 1.9 0.3 0 0.7 0 0.9 0h0.7v0.8h-6.3v-0.8zm4.1-0.5c0.3-0.3 0.4-0.8 0.4-1.3 0-1.1-0.5-1.7-1.4-1.7-0.9 0-0.8 0.1-1 0.4-0.3 0.3-0.5 0.7-0.5 1.3 0 1.2 0.5 1.8 1.4 1.8 0.9 0 0.8-0.1 1-0.4zm-1.3-4.9c-0.1-0.1-0.2-0.2-0.2-0.4 0-0.2 0-0.3 0.2-0.4 0.1-0.1 0.2-0.2 0.4-0.2 0.2 0 0.3 0 0.4 0.2 0.1 0.1 0.2 0.2 0.2 0.4 0 0.2 0 0.3-0.2 0.4-0.2 0.1-0.2 0.2-0.4 0.2-0.2 0-0.3 0-0.4-0.2z"/>
				<path class="s1" d="m118.6 84.2c-0.7 0-1.1 0-1.4-0.2-0.3-0.1-0.6-0.3-0.7-0.7-0.2 0.6-0.8 0.9-1.6 0.9-0.8 0-1.2-0.3-1.3-0.9-0.2 0.5-0.7 0.8-1.4 0.8h-0.4v-0.8h0.4c0.4 0 0.7-0.1 0.8-0.3 0.2-0.2 0.2-0.6 0.2-1.1v-2.1h0.9v1.9c0 0.6 0 1 0.1 1.2 0.1 0.3 0.4 0.4 0.8 0.4 0.7 0 1.1-0.6 1.1-1.7v-2.3h0.9v2.7c0 0.5 0.1 0.9 0.3 1 0.2 0.1 0.6 0.2 1.2 0.2h0.3c0-0.5 0-1 0-1.4 0-1-0.1-2-0.3-2.9l0.9-0.2c0.2 0.9 0.4 1.9 0.4 2.9 0 1 0 0.9 0 1.5h1.1v0.8h-2.4zm-3.2-6c-0.1-0.1-0.2-0.2-0.2-0.4 0-0.2 0-0.3 0.2-0.4 0-0.1 0.2-0.2 0.4-0.2 0.2 0 0.3 0 0.4 0.2 0.1 0.2 0.2 0.2 0.2 0.4 0 0.2 0 0.3-0.2 0.4 0 0.1-0.2 0.2-0.4 0.2-0.2 0-0.3 0-0.4-0.2zm0.7-1.2c0-0.1-0.2-0.2-0.2-0.4 0-0.2 0-0.3 0.2-0.4 0.2-0.1 0.2-0.2 0.4-0.2 0.2 0 0.3 0 0.4 0.2 0 0.1 0.2 0.2 0.2 0.4 0 0.2 0 0.3-0.2 0.4 0 0.1-0.2 0.1-0.4 0.1-0.2 0-0.3 0-0.4-0.1zm0.8 1.2c-0.1-0.1-0.2-0.2-0.2-0.4 0-0.2 0-0.3 0.2-0.4 0-0.1 0.2-0.2 0.4-0.2 0.2 0 0.3 0 0.4 0.2 0.1 0.2 0.2 0.2 0.2 0.4 0 0.2 0 0.3-0.2 0.4 0 0.1-0.2 0.2-0.4 0.2-0.2 0-0.3 0-0.4-0.2z"/>
				<path class="s1" d="m120.8 83.5h1.5v-4.1h0.9v4.1h1.1v0.8h-3.5zm0.7-5.3c-0.1-0.1-0.2-0.2-0.2-0.4 0-0.2 0-0.3 0.2-0.4 0-0.1 0.2-0.2 0.4-0.2 0.2 0 0.3 0 0.4 0.2 0.1 0.2 0.2 0.2 0.2 0.4 0 0.2 0 0.3-0.2 0.4 0 0.1-0.2 0.2-0.4 0.2-0.2 0-0.3 0-0.4-0.2zm1.5 0c-0.1-0.1-0.2-0.2-0.2-0.4 0-0.2 0-0.3 0.2-0.4 0.1-0.1 0.2-0.2 0.4-0.2 0.2 0 0.3 0 0.4 0.2 0 0.1 0.2 0.2 0.2 0.4 0 0.2 0 0.3-0.2 0.4-0.2 0.1-0.2 0.2-0.4 0.2-0.2 0-0.3 0-0.4-0.2z"/>
				<path class="s1" d="m124.2 83.5h0.4c0.4 0 0.7-0.1 0.8-0.3 0.2-0.2 0.2-0.6 0.2-1.1v-2.1h0.9v1.9c0 0.6 0 1 0.1 1.2 0.1 0.3 0.4 0.4 0.8 0.4 0.7 0 1.1-0.6 1.1-1.7v-2.3h0.9v2.7c0 0.5 0.1 0.9 0.3 1 0.2 0.1 0.6 0.2 1.2 0.2h0.3c0-0.5 0-1 0-1.4 0-1-0.1-2-0.3-2.9l0.9-0.2c0.2 0.9 0.4 1.9 0.4 2.9 0 1 0 0.9 0 1.5h1.1v0.8h-2.4c-0.7 0-1.1 0-1.4-0.2-0.3-0.1-0.6-0.3-0.7-0.7-0.2 0.6-0.8 0.9-1.6 0.9-0.8 0-1.2-0.3-1.3-0.9-0.2 0.5-0.7 0.8-1.4 0.8h-0.4v-0.8z"/>
				<path class="s1" d="m133.4 84.2v-0.8h0.8q0.3 0 0.6 0c-0.5-0.3-0.8-0.9-0.8-1.8 0-0.9 0.2-1.3 0.6-1.8 0.5-0.5 1.1-0.8 1.9-0.8 1.5 0 2.2 0.8 2.2 2.3v2.7h-5.5zm4.5-2.5c0-1.2-0.5-1.7-1.4-1.7-0.9 0-0.9 0.2-1.1 0.5-0.3 0.3-0.4 0.7-0.4 1.2 0 1.2 0.6 1.8 1.9 1.8h1v-1.7z"/>
			</g>
			<g>
				<path class="s1" d="m2.4 97.4c-0.4 0-0.7 0-1 0-0.2 0-0.5 0-0.7 0v-6.6h0.5c0.5 0 0.9 0 1.4 0 1 0 1.9 0.3 2.5 0.8 0.6 0.5 0.9 1.3 0.9 2.5 0 1.2-0.2 1.4-0.5 1.9-0.3 0.5-0.7 0.9-1.3 1.1-0.5 0.2-1.2 0.4-1.9 0.4zm0.1-0.8c0.5 0 1 0 1.4-0.3 0.4-0.3 0.7-0.5 0.9-0.9q0.3-0.6 0.3-1.5c0-1.7-0.8-2.6-2.5-2.6-1.7 0-0.5 0-1 0v5.1q0.3 0 0.9 0z"/>
				<path class="s1" d="m11.7 97.3h-1.1l-2.2-3h-0.1v3h-0.9v-6.6c0.4 0 0.9 0 1.7 0 0.8 0 0.8 0 1.2 0.2 0.3 0.1 0.6 0.3 0.8 0.5 0.2 0.2 0.3 0.6 0.3 1 0 0.4 0 0.7-0.3 1-0.2 0.3-0.4 0.5-0.7 0.6-0.3 0.1-0.6 0.2-1 0.3 0.2 0.2 0.4 0.5 0.6 0.7l1.8 2.4zm-2.9-3.6c0.5 0 0.8-0.1 1.1-0.3 0.3-0.2 0.4-0.5 0.4-0.9 0-0.4-0.1-0.7-0.4-0.9-0.2-0.2-0.6-0.2-1.1-0.2-0.5 0-0.4 0-0.6 0v2.2q0.2 0 0.6 0z"/>
				<path class="s1" d="m13 97.4c-0.2 0-0.3 0-0.4-0.2-0.1-0.2-0.2-0.3-0.2-0.4 0-0.1 0-0.3 0.2-0.4 0.2-0.1 0.3-0.2 0.4-0.2 0.1 0 0.3 0 0.4 0.2 0.1 0.2 0.2 0.3 0.2 0.4 0 0.1 0 0.3-0.2 0.4-0.2 0.1-0.3 0.2-0.4 0.2z"/>
				<path class="s1" d="m22.4 97.3h-1l-0.5-1.5h-2.8l-0.5 1.5h-0.9l2.4-6.6h1l2.4 6.6zm-1.7-2.2l-0.9-2.5q-0.2-0.4-0.3-0.9c0 0.3-0.2 0.6-0.3 0.9l-0.9 2.5h2.3z"/>
				<path class="s1" d="m29.3 97.3h-1.1l-1.3-4.4c-0.1-0.4-0.2-0.8-0.2-1.1 0 0.4-0.1 0.8-0.2 1.1l-1.2 4.4h-1.1l-1.7-6.6h1l1.1 4.3c0.1 0.4 0.2 0.9 0.3 1.3 0-0.4 0.2-0.8 0.3-1.2l1.2-4.3h1l1.3 4.4q0.2 0.6 0.3 1.2c0-0.4 0.1-0.7 0.2-1.1l1.1-4.5h0.9l-1.7 6.6z"/>
				<path class="s1" d="m38.6 97.3h-1.1l-1.3-4.4c0-0.4-0.2-0.8-0.2-1.1 0 0.4-0.1 0.8-0.2 1.1l-1.2 4.4h-1.1l-1.7-6.6h1l1.1 4.3c0.1 0.4 0.2 0.9 0.3 1.3 0-0.4 0.2-0.8 0.3-1.2l1.2-4.3h1l1.3 4.4c0 0.4 0.2 0.8 0.3 1.2 0-0.4 0.1-0.7 0.2-1.1l1.1-4.5h0.9l-1.7 6.6z"/>
				<path class="s1" d="m46.1 97.3h-1l-0.5-1.5h-2.8l-0.5 1.5h-0.9l2.4-6.6h1l2.4 6.6zm-1.8-2.2l-0.9-2.5q-0.2-0.4-0.3-0.9c0 0.3-0.2 0.6-0.3 0.9l-0.9 2.5h2.3z"/>
				<path class="s1" d="m48.7 97.4c-0.4 0-0.7 0-1 0-0.2 0-0.5 0-0.7 0v-6.6h0.5c0.5 0 0.9 0 1.4 0 1 0 1.9 0.3 2.5 0.8 0.6 0.5 0.9 1.3 0.9 2.5 0 1.2-0.2 1.4-0.5 1.9-0.3 0.5-0.7 0.9-1.3 1.1-0.6 0.2-1.2 0.4-1.9 0.4zm0.1-0.8c0.5 0 1 0 1.4-0.3 0.4-0.3 0.7-0.5 0.9-0.9q0.3-0.6 0.3-1.5c0-1.7-0.8-2.6-2.5-2.6-1.7 0-0.5 0-1 0v5.1q0.3 0 0.9 0z"/>
				<path class="s1" d="m61.1 97.3h-1l-0.5-1.5h-2.8l-0.5 1.5h-0.9l2.4-6.6h1l2.4 6.6zm-1.8-2.2l-0.9-2.5q-0.2-0.4-0.3-0.9c0 0.3-0.2 0.6-0.3 0.9l-0.9 2.5h2.3z"/>
				<path class="s1" d="m65.3 97.3h-3.3v-6.6h0.9v5.8h2.4z"/>
				<path class="s1" d="m67.8 97.4q-0.4 0-0.9 0h-0.7v-6.6c0.9 0 1.6 0 1.9 0 0.7 0 1.2 0.1 1.6 0.4 0.4 0.3 0.5 0.7 0.5 1.2 0 0.5 0 0.6-0.3 0.9-0.2 0.3-0.5 0.5-0.8 0.6 0.4 0 0.7 0.2 1 0.5 0.2 0.3 0.4 0.6 0.4 1 0 0.4 0 0.6-0.2 0.9-0.2 0.3-0.4 0.6-0.8 0.8q-0.6 0.3-1.5 0.3zm-0.1-3.8q0.8 0 1.2-0.3c0.3-0.2 0.4-0.5 0.4-0.8 0-0.3 0-0.5-0.3-0.7-0.2-0.2-0.5-0.3-1-0.3-0.5 0-0.6 0-0.9 0v2.1zm0.2 3c0.5 0 0.9-0.1 1.2-0.4 0.3-0.3 0.4-0.5 0.4-0.9 0-0.8-0.6-1.1-1.8-1.1h-0.6v2.3c0.3 0 0.6 0 0.8 0z"/>
				<path class="s1" d="m72.7 97.3h-0.9v-6.6h0.9z"/>
				<path class="s1" d="m75.5 97.4c-0.5 0-1 0-1.4-0.2v-0.9c0.6 0.2 1 0.3 1.5 0.3 0.5 0 0.5 0 0.7-0.1 0.2-0.1 0.4-0.2 0.5-0.4 0.1-0.2 0.2-0.4 0.2-0.6 0-0.2 0-0.4-0.2-0.6-0.1-0.1-0.3-0.3-0.5-0.4q-0.3-0.2-0.6-0.3c-0.3-0.1-0.5-0.2-0.8-0.4-0.2-0.1-0.5-0.3-0.6-0.5-0.2-0.2-0.2-0.5-0.2-0.9 0-0.5 0.2-1 0.6-1.3 0.4-0.3 1-0.5 1.7-0.5 0.7 0 0.8 0 1.2 0.1v0.8c-0.5-0.1-0.9-0.2-1.2-0.2-0.3 0-0.8 0-1 0.3-0.2 0.3-0.3 0.4-0.3 0.7 0 0.3 0 0.4 0.2 0.5 0.1 0.1 0.3 0.2 0.5 0.4q0.3 0.1 0.6 0.3c0.3 0.1 0.5 0.2 0.8 0.4 0.3 0.1 0.5 0.3 0.7 0.5q0.3 0.3 0.3 0.9c0 0.6-0.2 1.1-0.7 1.5q-0.6 0.6-1.8 0.6z"/>
				<path class="s1" d="m84.4 97.3h-0.9v-3h-3.4v3h-0.9v-6.6h0.9v2.8h3.4v-2.8h0.9z"/>
				<path class="s1" d="m87.2 97.3h-0.9v-6.6h0.9z"/>
				<path class="s1" d="m93.3 97.3h-1.1l-2.2-3h-0.1v3h-0.9v-6.6c0.4 0 0.9 0 1.7 0 0.8 0 0.8 0 1.2 0.2 0.3 0.1 0.6 0.3 0.8 0.5 0.2 0.2 0.3 0.6 0.3 1 0 0.4 0 0.7-0.3 1-0.2 0.3-0.4 0.5-0.7 0.6-0.3 0.1-0.6 0.2-1 0.3 0.2 0.2 0.4 0.5 0.6 0.7l1.8 2.4zm-2.8-3.6c0.5 0 0.8-0.1 1.1-0.3 0.3-0.2 0.4-0.5 0.4-0.9 0-0.4-0.1-0.7-0.4-0.9-0.2-0.2-0.6-0.2-1.1-0.2-0.5 0-0.4 0-0.6 0v2.2q0.2 0 0.6 0z"/>
				<path class="s1" d="m95.4 97.3h-0.9v-6.6h0.9z"/>
				<path class="s1" d="m104.6 97.3h-0.9v-3h-3.4v3h-0.9v-6.6h0.9v2.8h3.4v-2.8h0.9z"/>
				<path class="s1" d="m108.8 97.4c-0.7 0-1.2-0.1-1.6-0.4-0.4-0.3-0.8-0.7-1-1.2-0.2-0.5-0.3-1.1-0.3-1.7 0-0.6 0.1-1.4 0.4-1.9 0.3-0.5 0.7-0.9 1.1-1.2 0.5-0.3 1-0.4 1.6-0.4 0.6 0 1.2 0.1 1.6 0.4 0.4 0.3 0.8 0.7 1 1.2 0.2 0.5 0.3 1.1 0.3 1.7 0 0.6-0.1 1.4-0.4 1.9-0.3 0.5-0.7 0.9-1.1 1.2-0.5 0.3-1 0.4-1.6 0.4zm0.1-0.8c0.4 0 0.7-0.1 1-0.3 0.3-0.2 0.6-0.5 0.8-0.9 0.2-0.4 0.3-0.8 0.3-1.4 0-0.8-0.2-1.4-0.5-1.9-0.3-0.5-0.9-0.7-1.6-0.7-0.7 0-0.7 0.1-1 0.3-0.3 0.2-0.6 0.5-0.8 0.9-0.2 0.4-0.3 0.8-0.3 1.4 0 0.8 0.2 1.4 0.5 1.9 0.3 0.5 0.9 0.7 1.6 0.7z"/>
				<path class="s1" d="m114.3 97.4c-0.5 0-1 0-1.4-0.2v-0.9c0.6 0.2 1 0.3 1.5 0.3 0.5 0 0.5 0 0.7-0.1 0.2-0.1 0.4-0.2 0.5-0.4 0.1-0.2 0.2-0.4 0.2-0.6 0-0.2 0-0.4-0.2-0.6-0.1-0.1-0.3-0.3-0.5-0.4q-0.3-0.2-0.6-0.3c-0.3-0.1-0.5-0.2-0.8-0.4-0.2-0.1-0.5-0.3-0.6-0.5-0.2-0.2-0.2-0.5-0.2-0.9 0-0.5 0.2-1 0.6-1.3 0.4-0.3 1-0.5 1.7-0.5 0.7 0 0.8 0 1.2 0.1v0.8c-0.5-0.1-0.9-0.2-1.2-0.2-0.3 0-0.8 0-1 0.3-0.2 0.3-0.3 0.4-0.3 0.7 0 0.3 0 0.4 0.2 0.5 0.1 0.1 0.3 0.2 0.5 0.4q0.3 0.1 0.6 0.3c0.3 0.1 0.5 0.2 0.8 0.4 0.3 0.1 0.5 0.3 0.7 0.5q0.3 0.3 0.3 0.9c0 0.6-0.2 1.1-0.7 1.5q-0.6 0.6-1.8 0.6z"/>
				<path class="s1" d="m118.9 97.3h-0.9v-6.6h0.2q0.3 0 0.6 0h0.8c0.8 0 1.3 0.2 1.8 0.5 0.4 0.4 0.6 0.8 0.6 1.4 0 0.6-0.2 1.2-0.7 1.6-0.4 0.4-1.1 0.6-1.8 0.6-0.7 0-0.3 0-0.4 0h-0.2zm0.7-3.2c0.5 0 0.9-0.1 1.1-0.4 0.2-0.3 0.4-0.6 0.4-1 0-0.9-0.5-1.3-1.5-1.3h-0.7v2.6h0.2c0.1 0 0.3 0 0.5 0z"/>
				<path class="s1" d="m124.1 97.3h-0.9v-6.6h0.9z"/>
				<path class="s1" d="m127.8 97.3h-0.9v-5.8h-1.9v-0.8h4.7v0.8h-1.9z"/>
				<path class="s1" d="m135.1 97.3h-1l-0.6-1.5h-2.8l-0.6 1.5h-0.9l2.4-6.6h1l2.4 6.6zm-1.8-2.2l-0.9-2.5q-0.1-0.4-0.3-0.9c0 0.3-0.2 0.6-0.3 0.9l-0.9 2.5h2.3z"/>
				<path class="s1" d="m139.2 97.3h-3.3v-6.6h0.9v5.8h2.4z"/>
			</g>
		</g>
	</g>
</svg>