<svg version="1.2" xmlns="http://www.w3.org/2000/svg" viewBox="0 0 330 246" width="330" height="246">
	<title>29</title>
	<defs>
		<linearGradient id="g1" x2="1" gradientUnits="userSpaceOnUse" gradientTransform="matrix(94.1,-140.3,140.3,94.1,113.8,162.6)">
			<stop offset="0" stop-color="#4fb0ab"/>
			<stop offset="1" stop-color="#a6cfc2"/>
		</linearGradient>
	</defs>
	<style>
		.s0 { fill: url(#g1) } 
		.s1 { fill: #18525f } 
	</style>
	<g>
		<path fill-rule="evenodd" class="s0" d="m163.7 169.3c-44.8 0-81-36.2-81-81 0-44.8 36.2-81 81-81 44.8 0 81 36.2 81 81 0 44.8-36.2 81-81 81z"/>
		<path class="s1" d="m209.3 135.1c-0.6 0-1-0.4-1.1-0.9l-12.3-61.1-6.5 29.7c-0.1 0.5-0.6 0.9-1.1 0.9-0.5 0-1-0.3-1.2-0.8l-6.3-22.6-5.8 26c-0.1 0.6-0.6 0.9-1.2 0.9-0.6 0-1-0.5-1.1-1l-3.8-27.8-2.8 17.1c0 0.6-0.6 1-1.1 1-0.6 0-1.1-0.4-1.2-0.9l-3.6-17.3-5.5 20.5c-0.1 0.5-0.6 0.8-1.2 0.9-0.5 0-1-0.4-1.1-0.9l-5.2-23.3-7.6 53.5c0 0.6-0.6 1-1.2 1-0.6 0-1.1-0.4-1.1-1l-7.9-62.3-7.4 45.8c0 0.5-0.5 0.9-1.1 1q-0.9 0-1.2-0.9l-6.3-24.6h-52.1v-2.3h53c0.5 0 1 0.4 1.1 0.9l5.2 20 7.8-48.3c0-0.6 0.5-0.9 1.2-1 0.6 0 1.1 0.4 1.1 1l7.9 61.7 7.3-51.3c0-0.6 0.5-1 1.1-1 0.6 0 1.1 0.4 1.2 0.9l5.5 24.9 5.6-20.6c0.1-0.5 0.6-0.8 1.2-0.9 0.5 0 1 0.4 1.1 0.9l3.3 16 3.1-18.6c0-0.6 0.6-1 1.2-1 0.6 0 1.1 0.4 1.1 1l4 28.9 5.4-24.2c0.1-0.5 0.6-0.9 1.1-0.9 0.5 0 1 0.3 1.2 0.8l6.3 22.6 6.6-30.5c0.1-0.5 0.6-0.9 1.1-0.9 0.6 0 1 0.4 1.1 0.9l11.2 55.7 0.9-87.9c0-0.6 0.5-1.1 1.1-1.2 0.6-0.1 1.1 0.4 1.2 0.9l9.3 50.9h47.5v2.3h-48.4c-0.6 0-1-0.4-1.1-0.9l-7.3-39.8-0.8 86.8c0 0.6-0.5 1.1-1.1 1.2h-0.1z"/>
		<path fill-rule="evenodd" class="s1" d="m163.4 59.2h4.3v4.3h-4.3z"/>
		<path fill-rule="evenodd" class="s1" d="m166.6 52.3h4.3v4.3h-4.3z"/>
		<path fill-rule="evenodd" class="s1" d="m170.7 59.2h4.3v4.3h-4.3z"/>
		<path fill-rule="evenodd" class="s1" d="m122.2 118h5v4.9h-5z"/>
		<path fill-rule="evenodd" class="s1" d="m186.7 111.3h5v4.9h-5z"/>
		<path fill-rule="evenodd" class="s1" d="m115.5 118h5v4.9h-5z"/>
	</g>
	<g>
		<path class="s1" d="m7.5 214.5l-1.5-9.4c0-0.6-0.2-1.1-0.2-1.6 0-0.7 0.1-1.2 0.3-1.6 0.4-0.7 1.1-1 2.1-1h0.8c0.2 4.1 2.7 6.1 7.6 6.1h5.8v-7.4c0-4.3-2.1-6.5-6.2-6.5-4.1 0-3.6 0.5-4.9 1.6-1.2 1-1.9 2.4-2.2 4h-0.8c-2 0-3.4 0.6-4.3 1.8-0.6 0.8-0.8 1.8-0.8 3.1 0 1.3 0 1.1 0.1 1.7l1.5 9.2h2.6zm5.4-18c0.8-0.9 1.8-1.3 3.2-1.3q3.9 0 3.9 4.8v4.9h-2.9c-3.5 0-5.3-1.6-5.3-4.9 0-3.3 0.4-2.6 1.2-3.5z"/>
		<path class="s1" d="m55 204.9h-5.4c-1.4 0-2.8-0.5-4.2-1.4 2.3-1.8 3.5-3.8 3.5-6 0-2.2-0.4-2.3-1.3-3.1-1-0.9-2.4-1.4-4.3-1.4-1.9 0-5.3 1.2-8.4 3.5l-0.2 1.8c1.6 0.5 3.9 2.2 7 5-2.2 1-4.8 1.5-7.9 1.5h-3.7v-18.3h-2.7v20.4h6.1c3.8 0 7.1-0.7 9.8-2.2 1.8 1.4 3.8 2.2 5.9 2.2h8.4v-20.4h-2.7v18.3zm-11.2-2.7q-4.7-4.2-6.3-4.8c2.2-1.5 4-2.3 5.6-2.3 1.6 0 1.9 0.3 2.5 0.8 0.5 0.5 0.8 1.2 0.8 2 0 1.6-0.8 3-2.5 4.3z"/>
		<path fill-rule="evenodd" class="s1" d="m63.2 186.6h2.7v20.4h-2.7z"/>
		<path class="s1" d="m83.6 209.8c-0.4 0-0.8 0.2-1.1 0.5-0.3 0.3-0.4 0.7-0.4 1.1 0 0.4 0.2 0.8 0.4 1.1 0.2 0.3 0.7 0.5 1.1 0.5 0.4 0 0.8-0.2 1.1-0.5 0.3-0.3 0.4-0.7 0.4-1.1 0-0.4-0.2-0.8-0.4-1.1-0.2-0.3-0.7-0.4-1.1-0.4z"/>
		<path class="s1" d="m87.9 209.8c-0.4 0-0.8 0.2-1.1 0.5-0.3 0.3-0.4 0.7-0.4 1.1 0 0.4 0.2 0.8 0.4 1.1 0.3 0.3 0.7 0.5 1.1 0.5 0.4 0 0.8-0.2 1.1-0.5 0.3-0.3 0.4-0.7 0.4-1.1 0-0.4-0.2-0.8-0.4-1.1-0.2-0.3-0.7-0.4-1.1-0.4z"/>
		<path class="s1" d="m108.4 211.4c0-0.4-0.2-0.8-0.5-1.1-0.3-0.3-0.7-0.4-1.1-0.4-0.4 0-0.8 0.2-1.1 0.5-0.3 0.3-0.5 0.7-0.5 1.1 0 0.4 0.2 0.8 0.5 1.1 0.3 0.3 0.7 0.5 1.1 0.5 0.4 0 0.8-0.2 1.1-0.5 0.3-0.3 0.5-0.7 0.5-1.1z"/>
		<path class="s1" d="m138.7 204.9h-7.7c1.3-1.2 2-3 2-5.2 0-2.2-0.5-3.7-1.5-4.8-1-1.2-2.4-1.7-4.3-1.7-1.9 0-3.3 0.6-4.7 1.7-1.5 1.2-2.6 2.8-3.2 4.9 0.2-1.5 0.3-3.2 0.3-5.2v-7.9h-2.7v18.3h-6.8v-11.5h-2.7v11.5h-6.7v-5.5c0-2.1-0.5-3.6-1.4-4.6-1-1.1-2.7-1.7-5.1-1.7-2.4 0-3.6 0.2-5.3 0.5v11.3h-2.5c-2.9 0-5-0.5-6.2-1.7-1.1-1-1.6-2.7-1.6-5 0-2.3 0.4-3.5 1.1-5l-2.8 0.5c-0.6 1.4-1 3-1 4.8 0 2.8 0.8 4.9 2.3 6.3 1.6 1.4 4.2 2.2 7.8 2.2h5.4v-11.6c0.8-0.2 1.6-0.2 2.4-0.2 1.5 0 2.5 0.4 3.2 1.1 0.6 0.7 1 1.9 1 3.5v7.2h43.3v-20.4h-2.7v18.3zm-13.6 0h-5.6c0.2-2.5 1-4.7 2.3-6.6 1.4-2.1 3-3.1 4.9-3.1 1.9 0 3.6 1.6 3.6 4.7 0 3.1-1.7 4.9-5.1 5z"/>
		<path fill-rule="evenodd" class="s1" d="m146.9 186.6h2.7v20.4h-2.7z"/>
		<path class="s1" d="m168.4 212.4c0.3-0.3 0.4-0.7 0.4-1.1 0-0.4-0.1-0.8-0.4-1.1-0.3-0.3-0.7-0.4-1.1-0.4-0.4 0-0.8 0.2-1.1 0.5-0.3 0.3-0.4 0.7-0.4 1.1 0 0.4 0.1 0.8 0.4 1.1 0.3 0.3 0.7 0.5 1.1 0.5 0.4 0 0.8-0.2 1.1-0.5z"/>
		<path class="s1" d="m178 193.1c-1.8 0-3.6 0.2-5.3 0.5v11.2h-2.5c-2.9 0-5-0.5-6.2-1.7-1.1-1-1.6-2.7-1.6-5 0-2.3 0.4-3.5 1.1-5l-2.8 0.5c-0.6 1.4-1 3-1 4.8 0 2.8 0.8 4.9 2.3 6.3 1.6 1.4 4.2 2.2 7.8 2.2h5.4v-11.6c0.8-0.2 1.6-0.2 2.4-0.2 1.5 0 2.5 0.4 3.1 1.1 0.6 0.7 1 1.9 1 3.5v3.8h2.6v-4.1c0-2.1-0.5-3.6-1.4-4.6-1-1.1-2.7-1.7-5.1-1.7z"/>
		<path class="s1" d="m171.6 209.8c-0.4 0-0.8 0.2-1.1 0.5-0.3 0.3-0.4 0.7-0.4 1.1 0 0.4 0.1 0.8 0.4 1.1 0.3 0.3 0.7 0.5 1.1 0.5 0.4 0 0.8-0.2 1.1-0.5 0.3-0.3 0.4-0.7 0.4-1.1 0-0.4-0.1-0.8-0.4-1.1-0.3-0.3-0.6-0.4-1.1-0.4z"/>
		<path class="s1" d="m208 190.8c0.4 0 0.8-0.1 1.1-0.5 0.3-0.3 0.4-0.7 0.4-1.1 0-0.4-0.1-0.8-0.4-1.1-0.3-0.3-0.7-0.4-1.1-0.4-0.4 0-0.8 0.1-1.1 0.5-0.3 0.3-0.4 0.7-0.4 1.1 0 0.4 0.1 0.8 0.4 1.1 0.3 0.3 0.6 0.4 1.1 0.4z"/>
		<path class="s1" d="m210.1 187.3c0.4 0 0.8-0.1 1-0.4 0.3-0.3 0.4-0.6 0.4-1 0-0.4-0.1-0.8-0.4-1.1-0.3-0.3-0.6-0.4-1-0.4-0.4 0-0.8 0.1-1.1 0.4-0.3 0.3-0.4 0.6-0.4 1.1 0 0.5 0.1 0.8 0.4 1 0.3 0.2 0.6 0.4 1.1 0.4z"/>
		<path class="s1" d="m210.8 189.2c0 0.5 0.1 0.8 0.4 1.1 0.3 0.3 0.6 0.4 1.1 0.4 0.5 0 0.8-0.1 1.1-0.5 0.3-0.3 0.4-0.7 0.4-1.1 0-0.4-0.1-0.8-0.4-1.1-0.3-0.3-0.6-0.4-1.1-0.4-0.5 0-0.8 0.1-1.1 0.5-0.3 0.3-0.4 0.7-0.4 1.1z"/>
		<path class="s1" d="m225.8 209.8c-0.4 0-0.8 0.2-1.1 0.5-0.3 0.3-0.5 0.7-0.5 1.1 0 0.4 0.2 0.8 0.5 1.1 0.3 0.3 0.7 0.5 1.1 0.5 0.4 0 0.8-0.2 1.1-0.5 0.3-0.3 0.5-0.7 0.5-1.1 0-0.4-0.2-0.8-0.5-1.1-0.3-0.3-0.7-0.4-1.1-0.4z"/>
		<path class="s1" d="m238.6 186.6h-2.7v18.3h-6.8v-11.5h-2.7v11.5h-7c0.1-1.7 0.2-3.1 0.2-4.3 0-3-0.4-5.7-1.1-8.2l-2.6 0.5c0.6 2.4 1 5.1 1 8 0 2.9 0 2.7-0.2 4h-0.9c-1.6 0-2.8-0.2-3.3-0.6-0.6-0.5-0.9-1.4-0.9-2.9v-7.4h-2.6v6.5c0 3.1-1 4.7-3 4.7-2 0-1.8-0.4-2.1-1.2-0.2-0.6-0.4-1.7-0.4-3.5v-5.3h-2.7v5.8c0 1.5-0.2 2.5-0.7 3.1-0.4 0.6-1.2 0.8-2.3 0.8h-3.5v-11.5h-2.7v14c0 1.8-0.3 3.1-1 3.9-0.6 0.7-1.6 1.1-2.8 1.1-1.2 0-2-0.2-2.9-0.5l-0.3 2.2c1 0.3 2 0.4 3 0.4 4.5 0 6.7-2.4 6.7-7.3 0-0.1 3.5-0.1 3.5-0.1 2 0 3.3-0.8 3.9-2.3 0.5 1.7 1.7 2.5 3.8 2.5 2.1 0 3.7-0.8 4.4-2.5 0.4 0.9 1.1 1.5 1.9 1.8 0.8 0.3 2.2 0.5 4 0.5h22.7v-20.4z"/>
		<path fill-rule="evenodd" class="s1" d="m244.1 186.6h2.7v20.4h-2.7z"/>
		<path class="s1" d="m299 209.8c-0.4 0-0.8 0.2-1.1 0.5-0.3 0.3-0.5 0.7-0.5 1.1 0 0.4 0.1 0.8 0.5 1.1 0.4 0.3 0.7 0.5 1.1 0.5 0.4 0 0.8-0.2 1.1-0.5 0.3-0.3 0.5-0.7 0.5-1.1 0-0.4-0.2-0.8-0.5-1.1-0.3-0.3-0.7-0.4-1.1-0.4z"/>
		<path class="s1" d="m292.6 207h31.6v-7.4c0-4.3-2.1-6.5-6.2-6.5-4.1 0-4.1 0.7-5.4 2.1-1.2 1.3-1.8 3-1.8 5 0 2 0.7 4 2.1 4.9-0.5 0-1-0.2-1.7-0.2h-4.5c0.1-1.2 0.2-2.3 0.2-3.2 0-2.8-0.7-4.9-2-6.3-1.4-1.4-3.7-2.1-6.8-2.1-3.1 0-2.4 0-3.5 0.2v2.1c1-0.1 2.1-0.2 3.2-0.2 2.3 0 4 0.5 5 1.6 0.9 1 1.4 2.6 1.4 4.9 0 2.3 0 1.8-0.2 3h-14.4v-5.3c0-4.3-2.1-6.5-6.2-6.5-4.1 0-4.1 0.7-5.4 2.1-1.2 1.3-1.8 3-1.8 5 0 2-0.3 3.1-1 3.8-0.5 0.6-1.4 0.9-2.6 0.9h-0.8c-1.6 0-3.2-0.6-4.7-1.8 2.7-1.6 4-3.5 4-5.6 0-2.1-0.4-2.3-1.3-3.1-1-0.9-2.4-1.4-4.3-1.4-1.9 0-5.3 1.2-8.4 3.5l-0.2 1.8c1.7 0.6 3.9 2 6.3 4.5-2.5 1.2-4.1 2.1-4.8 2.6-1.6 1.2-2.3 2.5-2.3 4 0 1.5 0.6 2.6 1.9 3.5q2.1 1.5 6 1.5c2.6 0 3.3-0.2 5-0.5v-2c-1.7 0.3-3.2 0.4-4.7 0.4-3.7 0-5.5-1-5.5-3.1 0-2.1 0.6-1.9 1.9-2.8 0.5-0.3 1.9-1.1 4.2-2.2 2.1 1.8 4.2 2.7 6.5 2.7h2.1q3.2-0.3 3.9-2.7c1.1 1.8 3.3 2.7 6.7 2.7h8.3zm22-10.5c0.8-0.9 1.8-1.3 3.2-1.3 2.5 0 3.8 1.6 3.8 4.8v4.9h-2.9c-3.5 0-5.3-1.6-5.3-4.9 0-3.3 0.4-2.6 1.2-3.5zm-54.8 0.9c2.2-1.5 4-2.3 5.6-2.3 1.6 0 1.9 0.3 2.5 0.8 0.5 0.5 0.8 1.2 0.8 2 0 1.4-1 2.7-3 3.8-2.6-2.4-4.5-3.9-5.8-4.4zm27.3 7.5h-2.9c-3.5 0-5.3-1.6-5.3-4.9 0-3.3 0.4-2.6 1.2-3.5 0.8-0.9 1.8-1.3 3.2-1.3 2.5 0 3.8 1.6 3.8 4.8z"/>
		<path class="s1" d="m9.3 223.1l-5.7 15.5h2.2l1.3-3.6h6.7l1.3 3.6h2.4l-5.8-15.5zm-1.6 10.2l2.1-5.8c0.3-0.7 0.5-1.4 0.7-2.1 0.2 0.7 0.4 1.4 0.7 2.1l2.1 5.7h-5.6z"/>
		<path fill-rule="evenodd" class="s1" d="m24.2 223.1h-2.2v15.5h7.8v-1.8h-5.6v-13.7z"/>
		<path class="s1" d="m41.2 230.4c1.7-0.6 2.7-2 2.7-3.7 0-2.3-1.7-3.7-5-3.7-3.3 0-3.5 0-4.6 0v15.5c1.5 0 3.1 0 4 0 4.9 0 6.1-2.8 6.1-4.7 0-1.9-1-3.2-3.2-3.6zm-4.8-5.7q0.9 0 2.1 0c2.4 0 3.2 1 3.2 2.4 0 1.4-1.2 2.7-3.8 2.7-2.6 0-1 0-1.4 0v-5zm2 12.2c-0.9 0-1.6 0-2-0.1v-5.4c0.4 0 1.2 0 1.5 0 2.4 0 4.2 0.6 4.2 2.6 0 2-1.1 2.9-3.7 2.9z"/>
		<path fill-rule="evenodd" class="s1" d="m50.1 223.1h2.2v15.5h-2.2z"/>
		<path class="s1" d="m60 227c0-1.5 1-2.4 3.2-2.4 2.2 0 1.9 0.2 2.7 0.4l0.3-1.9c-0.9-0.2-1.9-0.3-2.8-0.3-3.5 0-5.5 1.8-5.5 4.4 0 4.9 7.1 3.6 7.1 7.1 0 3.5-1.6 2.6-3.4 2.6-1.8 0-2.3-0.2-3.3-0.6l-0.3 2c1 0.3 2.2 0.4 3.5 0.4 3.5 0 5.8-2 5.8-4.8 0-4.9-7.2-3.7-7.2-7z"/>
		<path fill-rule="evenodd" class="s1" d="m82.8 229.6h-8v-6.5h-2.2v15.5h2.2v-7.2h8v7.2h2.1v-15.5h-2.1v6.5z"/>
		<path class="s1" d="m96.3 231.4c2.5-0.2 4.6-1.7 4.6-4.4 0-2.7-2.2-4-5.3-4-3.1 0-2.9 0-3.9 0v15.5h2.2v-7h0.3l5.2 7h2.7l-4.3-5.5c-0.4-0.5-0.9-1.1-1.3-1.7zm-2.5-1.4v-5.3c0.4 0 0.9 0 1.4 0 2.3 0 3.5 0.7 3.5 2.6 0 1.9-1.3 2.8-3.6 2.8-2.3 0-1.1 0-1.3 0z"/>
		<path fill-rule="evenodd" class="s1" d="m107.2 223.1h2.2v15.5h-2.2z"/>
		<path class="s1" d="m135.6 223.1l-3.4 9.9c-0.4 1-0.6 1.9-0.9 2.9-0.3-1.1-0.6-2.2-0.9-3.1l-3.3-9.8h-2.6l-2.3 15.5h2.2l1.1-8.8c0.2-1.5 0.3-2.8 0.4-4 0.3 1.1 0.6 2.2 1 3.5l3.2 9.3h2.3l3.4-10c0.4-1.1 0.6-2.1 0.8-2.8 0 0.9 0.3 2.2 0.5 3.8l1.3 9h2.3l-2.4-15.5h-2.7z"/>
		<path fill-rule="evenodd" class="s1" d="m146.1 238.6h8.1v-1.8h-6v-5.4h5.7v-1.7h-5.7v-4.9h6v-1.7h-8.1v15.5z"/>
		<path class="s1" d="m164.8 223c-1.7 0-3.5 0-4.7 0v15.5c1.2 0 2.4 0 4 0 5.1 0 8.8-2.7 8.8-8 0-5.3-3-7.7-8-7.7zm-0.5 13.9c-0.6 0-1.5 0-2.1-0.1v-12c0.6 0 1.5 0 2.4 0 4.1 0 6 2.1 6 6.1 0 4-2.6 6.1-6.3 6.1z"/>
		<path fill-rule="evenodd" class="s1" d="m178.2 223.1h2.1v15.5h-2.1z"/>
		<path class="s1" d="m193.4 236.9c-3.7 0-5.3-2.2-5.3-6 0-3.8 1.5-6.1 5.1-6.1 3.6 0 2.4 0.2 3.5 0.6l0.4-1.9c-1.1-0.3-2.4-0.5-3.6-0.5-5.3 0-7.7 3.5-7.7 8.3 0 4.8 2.1 7.6 7.2 7.6 5.1 0 3.1-0.3 4.3-0.8l-0.4-1.8c-0.9 0.5-2.3 0.8-3.4 0.8z"/>
		<path class="s1" d="m206.3 223.1l-5.7 15.5h2.2l1.3-3.6h6.7l1.3 3.6h2.4l-5.8-15.5zm-1.7 10.2l2.1-5.8q0.4-1 0.6-2.1c0.2 0.7 0.4 1.4 0.7 2.1l2.1 5.7h-5.6z"/>
		<path fill-rule="evenodd" class="s1" d="m221.2 223.1h-2.2v15.5h7.8v-1.8h-5.6v-13.7z"/>
		<path class="s1" d="m245.5 236.9c-3.7 0-5.3-2.2-5.3-6 0-3.8 1.5-6.1 5.1-6.1 3.6 0 2.4 0.2 3.5 0.6l0.4-1.9c-1.1-0.3-2.4-0.5-3.6-0.5-5.3 0-7.7 3.5-7.7 8.3 0 4.8 2.1 7.6 7.2 7.6 5.1 0 3.1-0.3 4.3-0.8l-0.4-1.8c-0.9 0.5-2.3 0.8-3.4 0.8z"/>
		<path fill-rule="evenodd" class="s1" d="m254.9 238.6h8.1v-1.8h-6v-5.4h5.7v-1.7h-5.7v-4.9h6v-1.7h-8.1v15.5z"/>
		<path class="s1" d="m279.3 227.5c0 2.6 0 6.4 0.2 8.3-0.6-1.1-1.2-2.3-1.9-3.4l-5.9-9.3h-2.8v15.5h2.1v-5c0-2.5 0-6.2-0.2-7.8 0.5 1 1.1 2.1 1.8 3.2l6 9.6h2.8v-15.5h-2.1z"/>
		<path fill-rule="evenodd" class="s1" d="m286.1 224.8h4.5v13.8h2.1v-13.8h4.6v-1.7h-11.2v1.7z"/>
		<path fill-rule="evenodd" class="s1" d="m301.8 238.6h8.1v-1.8h-6v-5.4h5.7v-1.7h-5.7v-4.9h6v-1.7h-8.1v15.5z"/>
		<path class="s1" d="m321.8 233c-0.4-0.5-0.9-1.1-1.4-1.7 2.5-0.2 4.6-1.7 4.6-4.4 0-2.7-2.2-4-5.3-4-3.1 0-2.9 0-3.9 0v15.5h2.1v-7h0.3l5.1 7h2.7l-4.3-5.5zm-3.9-3v-5.3c0.4 0 0.9 0 1.4 0 2.3 0 3.5 0.7 3.5 2.6 0 1.9-1.3 2.8-3.6 2.8-2.3 0-1.1 0-1.3 0z"/>
	</g>
</svg>