<svg version="1.2" xmlns="http://www.w3.org/2000/svg" viewBox="0 0 103 75" width="103" height="75">
	<title>27</title>
	<defs>
		<linearGradient id="g1" x2="1" gradientUnits="userSpaceOnUse" gradientTransform="matrix(27.5,-40.9,40.899,27.499,36.3,47.1)">
			<stop offset="0" stop-color="#4eb3ad"/>
			<stop offset="1" stop-color="#9acdbf"/>
		</linearGradient>
	</defs>
	<style>
		.s0 { fill: url(#g1) } 
		.s1 { fill: #165461 } 
		.s2 { fill: #1a8caa } 
		.s3 { fill: #0a5375 } 
	</style>
	<g>
		<path class="s0" d="m50.9 1.8c13.1 0 23.6 10.6 23.6 23.6 0 13-10.6 23.6-23.6 23.6-13 0-23.6-10.6-23.6-23.6 0-13 10.5-23.6 23.6-23.6z"/>
		<path class="s1" d="m67.5 24.7l-2.7-14.8c0-0.2-0.2-0.3-0.4-0.3-0.2 0-0.3 0.2-0.3 0.3l-0.3 25.7-3.3-16.2c0-0.2-0.2-0.3-0.3-0.3q-0.3 0-0.3 0.3l-1.9 8.9-1.8-6.6c0-0.1-0.2-0.3-0.3-0.3-0.1 0-0.3 0.1-0.3 0.3l-1.6 7.1-1.2-8.4c0-0.2-0.2-0.3-0.3-0.3q-0.3 0-0.3 0.3l-0.9 5.4-1-4.7c0-0.1-0.2-0.3-0.3-0.3-0.1 0-0.3 0-0.3 0.2l-1.6 6-1.6-7.3c0-0.2-0.2-0.3-0.3-0.3q-0.3 0-0.3 0.3l-2.1 14.9-2.3-18c0-0.2-0.2-0.3-0.3-0.3q-0.3 0-0.3 0.3l-2.3 14.1-1.5-5.9c0-0.1-0.2-0.3-0.3-0.3h-15.5v0.7h15.2l1.8 7.2c0 0.2 0.2 0.3 0.3 0.3q0.3 0 0.3-0.3l2.2-13.4 2.3 18.2c0 0.2 0.2 0.3 0.3 0.3q0.3 0 0.3-0.3l2.2-15.6 1.5 6.8c0 0.2 0.2 0.3 0.4 0.3 0.1 0 0.2-0.1 0.3-0.2l1.6-6 1.1 5c0 0.2 0.2 0.3 0.4 0.2 0.1 0 0.2-0.1 0.2-0.3l0.8-5 1.1 8.1c0 0.2 0.2 0.3 0.3 0.3 0.1 0 0.3-0.1 0.3-0.3l1.7-7.6 1.8 6.6c0 0.1 0.2 0.2 0.3 0.3q0.3 0 0.3-0.3l1.9-8.7 3.6 17.8c0 0.2 0.2 0.3 0.3 0.3 0.2 0 0.3-0.2 0.3-0.3l0.3-25.3 2.1 11.6c0 0.2 0.2 0.3 0.3 0.3h14.1v-0.7h-13.8z"/>
		<path fill-rule="evenodd" class="s1" d="m57.6 31.7h0.5c0.3 0 0.5 0.2 0.5 0.5v0.5c0 0.3-0.2 0.5-0.5 0.5h-0.5c-0.3 0-0.5-0.2-0.5-0.5v-0.5c0-0.3 0.2-0.5 0.5-0.5z"/>
		<path fill-rule="evenodd" class="s1" d="m39.2 34.2h0.5c0.3 0 0.5 0.2 0.5 0.5v0.5c0 0.3-0.2 0.5-0.5 0.5h-0.5c-0.3 0-0.5-0.2-0.5-0.5v-0.5c0-0.3 0.2-0.5 0.5-0.5z"/>
		<path fill-rule="evenodd" class="s1" d="m37.4 34.2h0.5c0.3 0 0.5 0.2 0.5 0.5v0.5c0 0.3-0.2 0.5-0.5 0.5h-0.5c-0.3 0-0.5-0.2-0.5-0.5v-0.5c0-0.3 0.2-0.5 0.5-0.5z"/>
		<path fill-rule="evenodd" class="s1" d="m53.2 15.1h0.3c0.3 0 0.6 0.3 0.6 0.6v0.3c0 0.3-0.3 0.6-0.6 0.6h-0.3c-0.3 0-0.6-0.3-0.6-0.6v-0.3c0-0.3 0.3-0.6 0.6-0.6z"/>
		<path fill-rule="evenodd" class="s1" d="m54.1 16.9h0.3c0.3 0 0.6 0.3 0.6 0.6v0.3c0 0.3-0.3 0.6-0.6 0.6h-0.3c-0.3 0-0.6-0.3-0.6-0.6v-0.3c0-0.3 0.3-0.6 0.6-0.6z"/>
		<path fill-rule="evenodd" class="s1" d="m52.3 16.9h0.3c0.3 0 0.6 0.3 0.6 0.6v0.3c0 0.3-0.3 0.6-0.6 0.6h-0.3c-0.3 0-0.6-0.3-0.6-0.6v-0.3c0-0.3 0.3-0.6 0.6-0.6z"/>
	</g>
	<g>
		<g>
			<path class="s2" d="m12.8 70.3h-1.4l-0.6-1.7h-3l-0.6 1.7h-1.4l2.7-7.4h1.6zm-4.6-2.9h2.2l-1.1-3z"/>
			<path class="s2" d="m14 70.3v-7.4h1.3v7.4z"/>
			<path class="s2" d="m22.6 69.2c0.9 0 1.6-0.3 1.6-1 0-0.7-0.6-0.8-1.4-1h-0.6c-1.3-0.5-2-1.2-2-2.3 0-1.1 1.1-2 2.7-2 1.6 0 1.9 0.3 2.6 0.7l-0.5 1.1c-0.5-0.3-1.4-0.6-2.1-0.6-0.7 0-1.3 0.3-1.3 0.8 0 0.5 0.3 0.7 1.2 1h0.6c1.2 0.5 2.3 1.1 2.3 2.4 0 1.3-1.2 2.2-2.9 2.2-1.7 0-2.1-0.3-2.7-0.6l0.5-1.1c0.5 0.3 1.4 0.6 2.2 0.6z"/>
			<path class="s2" d="m28.4 65.2c0.4 0 0.7-0.1 1-0.1 1.3 0 2.3 0.4 2.3 2.1v3.2h-1.3v-2.8c0-0.9-0.4-1.2-1.1-1.2-0.7 0-0.6 0-1 0.1v3.9h-1.3v-7.4h1.3v2.2z"/>
			<path class="s2" d="m36 69.2c0.5 0 1.2-0.2 1.5-0.5l0.6 1.1c-0.5 0.3-1.2 0.6-2.2 0.6-1.6 0-2.8-1.2-2.8-2.7 0-1.5 1.2-2.7 2.7-2.7 1.5 0 2.7 1.1 2.6 3.1h-4c0.2 0.7 0.7 1 1.5 1h0.1zm-1.6-2.1h2.7c-0.1-0.6-0.6-0.9-1.3-0.9-0.7 0-1.2 0.4-1.3 0.9z"/>
			<path class="s2" d="m39.2 65.2h1v-0.5c0-1.2 0.6-1.8 2-1.8h1.2v1.2h-1.2c-0.7 0-0.8 0.3-0.8 0.8v0.2h1.9v1.2h-1.9v3.9h-1.3v-3.9h-1v-1.2z"/>
			<path class="s2" d="m44.2 68.7c0-1.1 1-1.7 2.4-1.7 1.4 0 0.6 0 1 0 0-0.6-0.5-0.8-1.2-0.8-0.7 0-1.3 0.2-1.8 0.5l0.2-1.3c0.4-0.2 1.1-0.4 1.8-0.4 1.3 0 2.3 0.5 2.3 2v3c-0.6 0.2-1.5 0.4-2.2 0.4-1.3 0-2.4-0.4-2.4-1.7zm3.4-0.6c-0.2 0-0.6-0.1-0.9-0.1-0.6 0-1.2 0.2-1.2 0.6 0 0.4 0.5 0.6 1.1 0.6 0.6 0 0.7 0 0.9-0.1v-1z"/>
			<path class="s2" d="m53.9 70.3v-7.4h1.3v3h3.5v-3h1.3v7.4h-1.3v-3.1h-3.5v3.1z"/>
			<path class="s2" d="m61.6 67.7c0-1.5 1.2-2.7 2.8-2.7 1.6 0 2.8 1.2 2.8 2.7 0 1.5-1.2 2.7-2.8 2.7-1.6 0-2.8-1.2-2.8-2.7zm4.2 0c0-0.8-0.5-1.5-1.4-1.5-0.9 0-1.4 0.7-1.4 1.5 0 0.8 0.5 1.5 1.4 1.5 0.9 0 1.4-0.6 1.4-1.5z"/>
			<path class="s2" d="m71.6 68.8c0-0.3-0.2-0.4-0.8-0.5h-0.4c-1.2-0.3-1.8-0.8-1.8-1.7 0-0.9 0.8-1.6 2.1-1.6 1.3 0 1.6 0.2 2.2 0.5l-0.5 1.2c-0.5-0.2-1.2-0.4-1.8-0.4-0.6 0-0.8 0.1-0.8 0.3 0 0.2 0.2 0.4 0.8 0.5h0.4c1.4 0.3 1.9 0.8 1.9 1.8 0 1-0.8 1.6-2.3 1.6-1.5 0-1.7-0.2-2.3-0.5l0.5-1.2c0.5 0.3 1.2 0.5 1.8 0.5 0.6 0 0.9-0.1 0.9-0.4z"/>
			<path class="s2" d="m75.7 72.3h-1.3v-7q0.9-0.3 2.1-0.3c1.9 0 3 1.2 3 2.7 0 1.5-1.1 2.7-2.9 2.7-1.8 0-0.5 0-0.9 0v2zm0-3.2c0.3 0 0.6 0.1 0.8 0.1 1 0 1.6-0.5 1.6-1.5 0-1-0.6-1.5-1.6-1.5-1 0-0.5 0-0.8 0.1v2.7z"/>
			<path class="s2" d="m80.8 63.8c0-0.4 0.3-0.7 0.7-0.7 0.4 0 0.7 0.3 0.7 0.7 0 0.4-0.3 0.7-0.7 0.7-0.4 0-0.7-0.2-0.7-0.7zm0.1 1.4h1.3v5.1h-1.3z"/>
			<path class="s2" d="m83.4 65.2h1v-1.9h1.3v1.9h1.9v1.2h-1.9v1.9c0 0.7 0.2 0.9 0.9 0.9h1.1v1.2h-1.2c-1.4 0-2-0.4-2-1.6v-2.3h-1v-1.2z"/>
			<path class="s2" d="m88.8 68.7c0-1.1 1-1.7 2.4-1.7 1.4 0 0.6 0 1 0 0-0.6-0.5-0.8-1.2-0.8-0.7 0-1.3 0.2-1.8 0.5l0.2-1.3c0.4-0.2 1.1-0.4 1.8-0.4 1.3 0 2.3 0.5 2.3 2v3c-0.6 0.2-1.5 0.4-2.2 0.4-1.3 0-2.4-0.4-2.4-1.7zm3.4-0.6c-0.2 0-0.6-0.1-0.9-0.1-0.6 0-1.2 0.2-1.2 0.6 0 0.4 0.5 0.6 1.1 0.6 0.6 0 0.7 0 0.9-0.1v-1z"/>
			<path class="s2" d="m95.2 70.3v-7.4h1.3v7.4z"/>
		</g>
		<g>
			<path class="s3" d="m21.4 54.1c0.2 0.1 0.4 0.2 0.6 0.2 0.2 0 0.4 0 0.6-0.2 0.2-0.1 0.3-0.4 0.3-0.6 0-0.2 0-0.4-0.3-0.6-0.3-0.2-0.4-0.2-0.6-0.2-0.2 0-0.5 0-0.6 0.2-0.1 0.2-0.3 0.3-0.3 0.6 0 0.3 0 0.5 0.3 0.6z"/>
			<path class="s3" d="m29.4 54c0.2 0.1 0.4 0.2 0.6 0.2 0.2 0 0.4 0 0.6-0.2 0.2-0.2 0.3-0.3 0.3-0.6 0-0.3 0-0.4-0.2-0.6-0.2-0.1-0.4-0.2-0.6-0.2-0.2 0-0.4 0-0.6 0.2-0.2 0.1-0.2 0.3-0.2 0.6 0 0.3 0 0.5 0.3 0.6z"/>
			<path class="s3" d="m30.4 52.6c0.2 0.1 0.3 0.2 0.5 0.2 0.2 0 0.4 0 0.5-0.2 0.2-0.1 0.2-0.3 0.2-0.5 0-0.2 0-0.4-0.2-0.5-0.2-0.1-0.3-0.2-0.5-0.2-0.2 0-0.4 0-0.5 0.2-0.2 0.1-0.2 0.3-0.2 0.5 0 0.2 0 0.4 0.2 0.5z"/>
			<path class="s3" d="m31.1 53.5c0 0.3 0 0.5 0.3 0.6 0.2 0.1 0.4 0.2 0.6 0.2 0.2 0 0.4 0 0.6-0.2 0.2-0.2 0.3-0.3 0.3-0.6 0-0.3 0-0.4-0.2-0.6-0.2-0.1-0.4-0.2-0.6-0.2-0.2 0-0.4 0-0.6 0.2-0.2 0.1-0.2 0.3-0.2 0.6z"/>
			<path class="s3" d="m37.1 58.9h-0.5c-0.3 0-0.6 0-0.8 0-0.2 0-0.4-0.1-0.5-0.2 0 0 0-0.2 0-0.4 0-0.1 0-0.3 0-0.5v-3.5h-1.6v3.7c0 0.3 0 0.6-0.2 0.8-0.2 0.2-0.4 0.3-0.8 0.3-0.4 0-0.6 0-0.8-0.3q-0.3-0.3-0.3-0.9v-2.5h-1.6v2.5c0 0.2 0 0.4 0 0.5 0 0.1-0.2 0.2-0.3 0.3-0.1 0-0.2 0.1-0.4 0.2-0.2 0.1-0.3 0-0.4 0h-0.8v-3.5h-1.6v3.5h-2.5v-4h-1.7c-0.5 0-0.9 0-1.3 0.2-0.4 0.1-0.8 0.3-1.1 0.6-0.3 0.2-0.5 0.5-0.7 0.9-0.2 0.4-0.2 0.7-0.2 1.2 0 0.5 0 0.5 0.1 0.8 0 0.2 0.2 0.4 0.2 0.4h-5.3v-6.4h-1.6v7.9h16.5c0.4 0 0.7 0 1.1-0.2 0.3-0.1 0.6-0.3 0.8-0.5 0 0.1 0.2 0.2 0.3 0.3 0.2 0.1 0.3 0.2 0.5 0.3 0.2 0.1 0.3 0.1 0.5 0.2 0.2 0.1 0.4 0 0.6 0 1 0 1.7-0.3 2-0.8 0 0 0 0 0.1 0.1 0.1 0.1 0.2 0.2 0.4 0.3 0.2 0 0.3 0.1 0.5 0.2 0 0 0.2 0 0.4 0h2.5v-6.4h0.6v-1.6h-2.2v6.4zm-14.6 0h-1.2c-0.2-0.1-0.3-0.3-0.5-0.5-0.2-0.2-0.2-0.4-0.2-0.7 0-0.3 0-0.4 0.1-0.5 0.1-0.1 0.2-0.3 0.3-0.4 0.1-0.1 0.3-0.2 0.5-0.2 0.2 0 0.3 0 0.5 0h0.4v2.4z"/>
			<path fill-rule="evenodd" class="s3" d="m40.7 52.5h1.6v7.9h-1.6z"/>
			<path class="s3" d="m47.8 57.3c0.2 0.1 0.4 0.2 0.6 0.2 0.2 0 0.4 0 0.6-0.2 0.2-0.1 0.3-0.4 0.3-0.6 0-0.2 0-0.4-0.3-0.6-0.3-0.2-0.4-0.2-0.6-0.2-0.2 0-0.5 0-0.6 0.2-0.1 0.2-0.3 0.4-0.3 0.6 0 0.2 0 0.5 0.3 0.6z"/>
			<path class="s3" d="m47.8 59.4c0.2 0.1 0.4 0.2 0.6 0.2 0.2 0 0.4 0 0.6-0.2 0.2-0.1 0.3-0.4 0.3-0.6 0-0.2 0-0.4-0.3-0.6-0.3-0.2-0.4-0.2-0.6-0.2-0.2 0-0.5 0-0.6 0.2-0.1 0.2-0.3 0.4-0.3 0.6 0 0.2 0 0.5 0.3 0.6z"/>
			<path class="s3" d="m58.3 54.1c0.2 0.1 0.4 0.2 0.6 0.2 0.2 0 0.4 0 0.6-0.2 0.2-0.1 0.3-0.4 0.3-0.6 0-0.2 0-0.4-0.3-0.6-0.3-0.2-0.4-0.2-0.6-0.2-0.2 0-0.5 0-0.6 0.2-0.1 0.2-0.3 0.3-0.3 0.6 0 0.3 0 0.5 0.3 0.6z"/>
			<path class="s3" d="m67.3 52.6c0.2 0.1 0.3 0.2 0.5 0.2 0.2 0 0.4 0 0.5-0.2 0.2-0.1 0.2-0.3 0.2-0.5 0-0.2 0-0.4-0.2-0.5-0.2-0.1-0.3-0.2-0.5-0.2-0.2 0-0.4 0-0.5 0.2-0.2 0.1-0.2 0.3-0.2 0.5 0 0.2 0 0.4 0.2 0.5z"/>
			<path class="s3" d="m68 53.5c0 0.3 0 0.5 0.3 0.6 0.2 0.1 0.4 0.2 0.6 0.2 0.2 0 0.4 0 0.6-0.2 0.2-0.2 0.3-0.3 0.3-0.6 0-0.3 0-0.4-0.2-0.6-0.2-0.1-0.4-0.2-0.6-0.2-0.2 0-0.4 0-0.6 0.2-0.2 0.1-0.2 0.3-0.2 0.6z"/>
			<path class="s3" d="m66.3 54c0.2 0.1 0.4 0.2 0.6 0.2 0.2 0 0.4 0 0.6-0.2 0.2-0.2 0.3-0.3 0.3-0.6 0-0.3 0-0.4-0.2-0.6-0.2-0.1-0.4-0.2-0.6-0.2-0.2 0-0.4 0-0.6 0.2-0.2 0.1-0.2 0.3-0.2 0.6 0 0.3 0 0.5 0.3 0.6z"/>
			<path class="s3" d="m76.9 54.3c0.2 0 0.4 0 0.6-0.2 0.2-0.2 0.3-0.3 0.3-0.6 0-0.3 0-0.4-0.2-0.6-0.2-0.2-0.4-0.2-0.6-0.2-0.2 0-0.4 0-0.6 0.2-0.2 0.2-0.2 0.3-0.2 0.6 0 0.3 0 0.5 0.3 0.6 0.2 0.1 0.4 0.2 0.6 0.2z"/>
			<path class="s3" d="m74.8 54.3c0.2 0 0.4 0 0.6-0.2 0.2-0.2 0.3-0.3 0.3-0.6 0-0.3 0-0.4-0.2-0.6-0.2-0.2-0.4-0.2-0.6-0.2-0.2 0-0.4 0-0.6 0.2-0.2 0.2-0.2 0.3-0.2 0.6 0 0.3 0 0.5 0.3 0.6 0.2 0.1 0.4 0.2 0.6 0.2z"/>
			<path class="s3" d="m96.2 57.2c-0.2-0.4-0.4-0.7-0.6-1-0.2-0.3-0.6-0.5-1-0.6-0.4-0.1-0.8-0.2-1.2-0.2-0.4 0-0.8 0-1.2 0.2q-0.6 0.3-0.9 0.6c-0.2 0.2-0.5 0.6-0.6 1-0.2 0.4-0.2 0.8-0.2 1.2 0 0.4 0 0.3 0 0.5h-0.4c-0.6 0-1.1-0.1-1.3-0.4 0 0 0-0.2 0-0.3 0-0.1 0-0.3 0-0.4v-3.5h-1.6v3.7c0 0.3 0 0.6-0.2 0.8-0.2 0.2-0.4 0.3-0.8 0.3-0.4 0-0.6-0.1-0.8-0.3q-0.3-0.3-0.3-0.9v-2.4h-1.6v2.5c0 0.2 0 0.4-0.1 0.5-0.1 0.1-0.1 0.2-0.3 0.3-0.1 0-0.2 0.1-0.4 0.2-0.2 0.1-0.3 0-0.4 0h-0.8v-3.5h-1.6v3.5h-3.4v-4h-1.6v4h-1.5c-0.3 0-0.6 0-0.8 0-0.2 0-0.4-0.1-0.5-0.2 0 0 0-0.2 0-0.4 0-0.1 0-0.3 0-0.5v-3.5h-1.6v3.7c0 0.3 0 0.6-0.2 0.8-0.2 0.2-0.4 0.3-0.8 0.3-0.4 0-0.6 0-0.8-0.3q-0.3-0.3-0.3-0.9v-2.5h-1.6v2.5c0 0.2 0 0.4 0 0.5 0 0.1-0.2 0.2-0.3 0.3-0.1 0-0.2 0.1-0.4 0.2-0.2 0.1-0.3 0-0.4 0h-0.8v-3.5h-1.6v3.5h-2.5v-4h-1.7c-0.5 0-0.9 0-1.3 0.2-0.4 0.1-0.8 0.3-1.1 0.6-0.3 0.2-0.5 0.5-0.7 0.9-0.2 0.4-0.2 0.7-0.2 1.2 0 0.5 0 0.5 0.1 0.8 0 0.2 0.2 0.4 0.2 0.4h-1.7v-4h-1.9c-0.4 0-0.7 0-1.1 0.1-0.4 0.1-0.6 0.2-0.8 0.4-0.3 0.2-0.5 0.5-0.7 0.9-0.1 0.4-0.2 0.8-0.2 1.2v2.6h-1.7c-0.3 0-0.6 0-0.8-0.1-0.3 0-0.6-0.2-1-0.4l-0.6 1.4c0.3 0.2 0.5 0.3 0.7 0.4 0.2 0.1 0.4 0.1 0.6 0.2 0.2 0.1 0.4 0 0.7 0.1 0.3 0.1 0.5 0 0.9 0h2.9v-4.2c0-0.1 0-0.3 0-0.4 0-0.1 0.1-0.3 0.2-0.3 0 0 0.2-0.1 0.3-0.2 0.1-0.1 0.3 0 0.4 0h0.5v4h12.9c0.4 0 0.7 0 1.1-0.2 0.3-0.1 0.6-0.3 0.8-0.5 0 0.1 0.2 0.2 0.3 0.3 0.2 0.1 0.3 0.2 0.5 0.3 0.2 0.1 0.3 0.1 0.5 0.2 0.2 0.1 0.4 0 0.6 0 1 0 1.7-0.3 2-0.8 0 0 0 0 0.1 0.1 0.1 0.1 0.2 0.2 0.4 0.3 0.2 0 0.3 0.1 0.5 0.2 0 0 0.2 0 0.4 0h9.4c0.4 0 0.7 0 1.1-0.2 0.3-0.1 0.6-0.3 0.8-0.5 0 0.1 0.2 0.2 0.3 0.3 0.1 0.1 0.3 0.2 0.5 0.3 0.2 0.1 0.4 0.1 0.5 0.2 0.1 0.1 0.4 0 0.6 0 1 0 1.7-0.3 2-0.8 0 0 0 0 0.1 0.1 0 0.1 0.2 0.2 0.4 0.3 0.1 0 0.3 0.1 0.5 0.2 0.1 0 0.2 0 0.4 0h1.7c0.2 0.3 0.6 0.5 0.9 0.7 0.4 0.2 0.8 0.2 1.2 0.2 0.4 0 0.8 0 1.1-0.2 0.3-0.2 0.7-0.4 1-0.6 0.3-0.3 0.5-0.6 0.7-0.9 0.2-0.4 0.2-0.8 0.2-1.2 0-0.4 0-0.8-0.2-1.2zm-36.8 1.7h-1.2c-0.2-0.1-0.3-0.3-0.5-0.5-0.2-0.2-0.2-0.4-0.2-0.7 0-0.3 0-0.4 0.1-0.5 0.1-0.1 0.2-0.3 0.3-0.4 0.1-0.1 0.3-0.2 0.5-0.2 0.2 0 0.3 0 0.5 0h0.4v2.4zm35.4 0c0 0.2-0.2 0.3-0.3 0.4-0.1 0.1-0.3 0.2-0.5 0.3-0.2 0-0.4 0.1-0.6 0.1-0.2 0-0.4 0-0.6-0.1-0.2-0.1-0.3-0.2-0.4-0.3-0.1-0.1-0.2-0.3-0.3-0.4 0-0.2-0.1-0.4-0.1-0.6 0-0.2 0-0.4 0.1-0.6 0.1-0.2 0.2-0.3 0.3-0.5 0.1-0.2 0.3-0.2 0.4-0.3 0.1-0.1 0.4-0.1 0.6-0.1 0.2 0 0.4 0 0.6 0.1 0.2 0 0.3 0.2 0.5 0.3 0.2 0.1 0.2 0.3 0.3 0.5 0 0.2 0.1 0.4 0.1 0.6 0 0.2 0 0.4-0.1 0.6z"/>
			<path class="s3" d="m8.5 58.3c0-0.4 0-0.6 0.3-0.8 0.2-0.2 0.4-0.3 0.7-0.3h1.2v-1.6h-1c-0.9 0-1.5 0.2-2 0.7-0.5 0.5-0.7 1.2-0.7 2.2v0.4h-1.1v1.6h5.2v-1.6h-2.6z"/>
		</g>
	</g>
</svg>