<svg version="1.2" xmlns="http://www.w3.org/2000/svg" viewBox="0 0 763 242" width="763" height="242">
	<title>87</title>
	<style>
		.s0 { fill: #34b1e6 } 
		.s1 { fill: #2c92d0 } 
		.s2 { fill: #0d99d6 } 
		.s3 { fill: #23a4dd } 
		.s4 { fill: #67c4eb } 
		.s5 { fill: #59bee9 } 
		.s6 { fill: #88d1ed } 
		.s7 { fill: #4bbae6 } 
		.s8 { fill: #26a9e1 } 
		.s9 { fill: #27b7ea } 
		.s10 { fill: #929497 } 
		.s11 { fill: #0b67b2 } 
		.s12 { fill: #0d61ae } 
	</style>
	<g id="Layer_1-2">
		<g>
			<g>
				<path fill-rule="evenodd" class="s0" d="m93 108.3l135.6 27.5-88.4-65.4-47.3 37.9z"/>
				<path class="s1" d="m233.7 49.9c-3.2-10.5-8.8-20.2-16.5-28.3q-3.6-3.7-7.6-6.9l-69.4 55.7 83.6 61.9 4.8 3.5q0.3-1.3 0.5-2.6c4.7-21.8 7.8-43.9 7.7-62.6-0.1-7.2-1.1-14.1-3.1-20.8"/>
				<path class="s2" d="m209.6 14.7c-12.3-9.5-27.6-14.7-43.9-14.7-15.4 0-36 9.8-48.2 16-6.5-4-23.9-10.2-23.9-10.2-12.5-4.2-27.9-7-42.5-3.2-0.6 0.2-1.8 0.5-2.4 0.7l91.5 67.1z"/>
				<path class="s3" d="m93 108.3l47.2-37.9c0 0-91.3-67.2-91.5-67.1l44.1 105z"/>
				<path class="s4" d="m135.2 209.4c24.4 18.4 52.8 37.4 58.8 31.1 5-5.1 23.6-54.3 34.6-104.7l-103.4 49.8 10 23.8z"/>
				<path class="s5" d="m93 108.3l-0.2 0.1 32.4 77.2c0 0 103.4-49.6 103.4-49.8z"/>
				<path class="s6" d="m50.7 221.2c6.8 11.3 12 18.3 13.6 18.9 11.4 4.5 44.7-14.3 70.7-30.8q0.1 0 0.2 0.1l-10-23.8z"/>
				<path class="s4" d="m92.8 108.4l-70.3 56.5c2.5 5.9 4.6 11.1 4.6 11.1 8.1 17.9 16.6 33.7 23.6 45.2l74.5-35.6-32.4-77.2z"/>
				<path class="s7" d="m92.8 108.3l-91.6-16.8c2.2 18.4 7.6 37.8 14.3 56.1 1 2.5 4.2 10.4 7 17.3l70.3-56.5v-0.1z"/>
				<path class="s8" d="m48.8 3.3c-42.8 12.3-52.6 48.1-47.6 88.2l91.6 16.8z"/>
			</g>
			<g>
				<path class="s9" d="m753.9 42.7v-0.1c-0.2-0.4-0.5-1.5-1-3.5-0.4-2-1.1-2.7-2.8-2.7h-1.6v6.3h-2.1v-14.6h0.1c0.9-0.2 2.3-0.3 3.6-0.3 2.1 0 3.4 0.3 4.3 1.2 0.8 0.7 1.2 1.7 1.2 2.8 0 1.8-1 3.1-2.6 3.8q1.5 0.6 2 2.9c0.4 1.9 0.8 3.4 1.1 4l0.1 0.2zm-3.7-8c1.9 0 3.2-1.1 3.2-2.6 0-2.1-1.8-2.6-3.2-2.6-0.8 0-1.4 0.1-1.7 0.1v5.1c0 0 1.7 0 1.7 0z"/>
				<path class="s9" d="m750.6 47.1c-6.5 0-11.8-5.2-11.8-11.7 0.1-6.5 5.3-11.7 11.8-11.7 6.4 0 11.7 5.2 11.7 11.7 0 6.4-5.3 11.7-11.7 11.7zm0-21.8c-5.6 0-10.1 4.5-10.1 10.1 0 5.6 4.5 10.1 10.1 10.1 5.6 0 10.1-4.5 10.1-10.1 0-5.6-4.5-10.1-10.1-10.1z"/>
			</g>
			<g>
				<path class="s10" d="m299.5 158.9l7.4 2.4q-1.7 6.1-5.7 9-3.9 3-10.1 3-7.5 0-12.4-5.1-4.9-5.1-4.9-13.9 0-9.3 4.9-14.5 4.9-5.1 12.9-5.1 7 0 11.3 4 2.6 2.4 3.9 6.9l-7.6 1.8q-0.7-2.9-2.8-4.6-2.1-1.7-5.2-1.7-4.2 0-6.9 3-2.6 3-2.6 9.7 0 7.1 2.6 10.1 2.6 3 6.8 3 3 0 5.2-1.9 2.2-2 3.2-6"/>
				<path fill-rule="evenodd" class="s10" d="m372.7 172.7v-37.1h7.7v30.8h19.1v6.3h-26.8z"/>
				<path fill-rule="evenodd" class="s10" d="m462.8 135.3h7.6v37.4h-7.6z"/>
				<path fill-rule="evenodd" class="s10" d="m536.8 172.7v-37.4h7.5l15.6 25v-25h7.1v37.4h-7.7l-15.3-24.4v24.4h-7.2z"/>
				<path fill-rule="evenodd" class="s10" d="m633.9 135.3h7.6v37.4h-7.6z"/>
				<path class="s10" d="m732.2 158.9l7.4 2.4q-1.7 6.1-5.7 9-3.9 3-10.1 3-7.5 0-12.4-5.1-4.9-5.1-4.9-13.9 0-9.3 4.9-14.5 4.9-5.1 12.9-5.1 7 0 11.3 4 2.6 2.4 3.9 6.9l-7.6 1.8q-0.7-2.9-2.8-4.6-2.1-1.7-5.2-1.7-4.2 0-6.9 3-2.6 3-2.6 9.7 0 7.1 2.6 10.1 2.6 3 6.7 3 3.1 0 5.3-1.9 2.2-2 3.2-6.1z"/>
			</g>
			<g>
				<path class="s11" d="m328.4 29.5h11.1v48.2q0 12.6-2.9 20-2.8 7.4-10.3 12-7.4 4.7-19.5 4.7c-8 0-14.2-1.4-19.1-4q-7.5-4.1-10.7-11.8-3.2-7.6-3.2-20.9v-48.2h11.1v48.2q-0.1 10.8 2 16 2 5.1 6.9 7.9 4.9 2.8 12.1 2.8 12.1 0 17.3-5.5 5.2-5.5 5.2-21.2v-48.2z"/>
				<path class="s11" d="m356.5 113v-60.5h9.3l-0.1 8.6q6.7-10 19.3-10 5.5 0 10 2 4.6 2 6.9 5.2 2.3 3.2 3.2 7.5 0.6 2.9 0.6 10v37.2h-10.3v-36.8q0-6.3-1.2-9.4-1.2-3.1-4.2-4.9-3.1-1.9-7.2-1.9-6.5 0-11.3 4.2-4.7 4.1-4.7 15.7v33.1z"/>
				<path fill-rule="evenodd" class="s11" d="m421.4 29.5h10.3v11.8h-10.3z"/>
				<path fill-rule="evenodd" class="s11" d="m421.4 52.5h10.3v60.5h-10.3z"/>
				<path class="s9" d="m514.3 50.9q-3.3-8.6-9.9-14.2-5.1-4.4-12.2-6-5.2-1.2-14.9-1.2h-28.7v83.5h30.1q7.6 0 13.4-1.5 5.8-1.4 9.9-4.1 4.2-2.8 7.7-7.6 3.4-4.8 5.6-12.2 2.3-7.3 2.3-16.8-0.1-11.2-3.3-19.9zm-10.3 35.8q-2.2 6.6-6.1 10.6-2.8 2.7-7.5 4.3-4.7 1.5-13 1.5h-17.8v-63.7h17.6q9.8 0 14.2 1.7 6.2 2.4 10.5 9.4 4.3 7 4.3 20.1 0 9.5-2.2 16.1"/>
				<path class="s9" d="m583.8 82.6q0-15-7.7-23.2-7.7-8.3-19.8-8.3c-8.1 0-15.2 2.8-20.4 8.5q-7.9 8.4-7.9 23.6c0 10.2 2.6 17.5 7.8 23q7.8 8.1 21 8.1 10.6 0 17.3-5.1 6.8-5.1 9.3-14.4l-10.6-1.3q-2.3 6.5-6.3 9.5-4 2.9-9.6 2.9-7.6 0-12.7-5.3-5-5.3-5.6-15.2h45.1q0.1-1.9 0-2.8m-44.5-5.7q0.5-7.9 5.3-12.6 4.8-4.7 11.9-4.7 7.8 0 12.7 5.9 3.2 3.8 3.8 11.4h-33.7z"/>
				<path class="s9" d="m596.3 113v-60.5h9.2v8.6q6.7-10 19.3-10 5.4 0 10 2 4.6 2 6.9 5.2 2.2 3.2 3.2 7.5 0.5 2.9 0.5 10v37.2h-10.2v-36.8q0-6.3-1.2-9.4-1.2-3.1-4.3-4.9-3-1.9-7.1-1.9-6.6 0-11.3 4.2-4.8 4.1-4.8 15.7v33.1c0 0-10.2 0-10.2 0z"/>
				<path class="s9" d="m683.5 103.8l1.5 9q-4.3 1-7.8 1-5.5 0-8.6-1.8-3.1-1.8-4.3-4.6-1.3-2.9-1.3-12.1v-34.8h-7.5v-8h7.5v-15l10.2-6.1v21.1h10.3v8h-10.3v35.3q0 4.4 0.5 5.7 0.6 1.2 1.8 2 1.2 0.7 3.5 0.7 1.7 0 4.5-0.4"/>
				<path class="s9" d="m689.4 94.9l10.1-1.6q0.9 6.1 4.8 9.4 3.9 3.2 10.9 3.2c4.7 0 8.2-0.9 10.5-2.9q3.4-2.8 3.4-6.7 0-3.5-3-5.5-2.1-1.3-10.5-3.4-11.3-2.9-15.6-5-4.4-2-6.6-5.7-2.3-3.7-2.3-8.1 0-4.1 1.9-7.5 1.8-3.4 5-5.7 2.4-1.8 6.5-3 4.2-1.2 8.9-1.2 7.1 0 12.5 2 5.4 2.1 7.9 5.6 2.6 3.5 3.5 9.3l-10 1.4q-0.7-4.7-3.9-7.3-3.3-2.6-9.3-2.6-7 0-10 2.3-3.1 2.3-3.1 5.5 0.1 2 1.3 3.6 1.3 1.6 3.9 2.7 1.6 0.6 9.1 2.6 10.9 2.9 15.1 4.8 4.3 1.8 6.8 5.3 2.4 3.6 2.4 8.8c0 3.5-1 6.6-3 9.7q-2.9 4.5-8.6 7-5.6 2.4-12.7 2.5-11.8-0.1-18-4.9-6.1-4.9-7.9-14.6"/>
			</g>
			<g>
				<path class="s12" d="m295 213.6q0 4.7-3 8.1-3.1 3.4-7.5 3.4c-3 0-5.4-1.1-7.5-3.3q-3.2-3.3-3.2-8.2v-9.3h3.8v8.9q0 3.3 1.7 5.6 1.9 2.7 5.2 2.7c2.1 0 3.8-0.9 5.1-2.7q1.7-2.3 1.7-5.6v-8.9h3.7v9.3zm-8.6-12.4h-3.7v-3.7h3.7z"/>
				<path class="s12" d="m308.3 219.5h-4.4q-2.8 0-4.2-1.7-1.4-1.6-1.3-4.4v-15.5h3.7v14q0 2.5 1.1 3.2 0.7 0.6 2.9 0.6h2.2v3.8z"/>
				<path class="s12" d="m322.6 219.5h-15.6v-3.8h3.5q1.7 0 2.3-1.1c0.3-0.5 0.4-1.4 0.4-2.6v-7.7h3.7v7.5q0 3-0.8 3.9h6.5v3.8zm-5.7-18.3h-3.7v-3.7h3.7z"/>
				<path class="s12" d="m321.6 215.7h2.8q2.8 0 2.8-3.9v-7.5h3.8v7.3q0 3-0.6 3.9v0.2h3.5q2.9 0 2.9-3.7v-7.7h3.8v7.3q0 3.3-0.8 4.1h3.7q2.8 0 2.8-3.7v-7.7h3.8v7.3c0 4.8-2.7 8-6.5 8h-22v-3.9z"/>
				<path class="s12" d="m359.4 198.7h-5.8v-1.6h1.4c-0.2-0.6-0.3-1-0.3-1.2 0-1.5 1.1-2.7 2.6-2.7q1.4 0 2.1 1.5l-1.2 0.6c-0.1-0.5-0.4-0.7-0.9-0.7-0.7 0-1.2 0.6-1.2 1.3 0 0.5 0.2 1 0.6 1.2h2.8v1.5zm10.1-0.7v16.4c0 3.1-2.3 5.2-5.9 5.2h-10.1v-3.8h5.2l-4.3-15.5h4l4.2 15.5c1 0 1.8-0.2 2.3-0.7q0.9-1 0.9-3.3v-13.8z"/>
				<path class="s12" d="m376.7 219.5h-3.8v-21.7h3.8z"/>
				<path class="s12" d="m401.3 219.5h-14.2v-3.8h3.1q-0.6-1.3-0.6-2.8c0-1.8 0.6-3.4 1.7-4.6q1.8-1.9 4.4-1.9c2.3 0 4.3 1.3 5.3 3.5l-2.7 1.8q-0.6-1.8-2.4-1.8-1.3 0-2 1-0.6 0.9-0.6 2.3 0 1.6 0.8 2.5h7.2v3.8z"/>
				<path class="s12" d="m414.6 219.5h-4.4q-2.7 0-4.2-1.7-1.3-1.6-1.3-4.4v-15.5h3.7v14q0 2.5 1.1 3.2 0.8 0.6 2.9 0.6h2.2v3.8z"/>
				<path class="s12" d="m428.9 219.5h-15.5v-3.8h3.5q1.6 0 2.2-1.1c0.3-0.5 0.4-1.4 0.4-2.6v-7.7h3.8v7.5q-0.1 3-0.8 3.9h6.4v3.8zm-5.7 7.4h-3.7v-3.7h3.7z"/>
				<path class="s12" d="m455.7 219.5h-27.8v-3.8h6.2v-17.8h3.6l-0.4 12.1c3.1-4 6.4-5.8 9.9-5.8 5.8 0 8.7 4 8.7 11.8 0 1.2-0.1 2.3-0.2 3.5zm-3.7-3.8v-1.1c0-4.2-1.9-7-5.2-7-3.8 0-7.5 3.4-9.8 8.1 0 0 15 0 15 0z"/>
				<path class="s12" d="m463.9 196.1h-5.9v-1.5h1.4c-0.2-0.6-0.3-1-0.3-1.2 0-1.6 1.2-2.7 2.6-2.7q1.4 0 2.1 1.5l-1.2 0.6c-0.1-0.5-0.4-0.7-0.9-0.7-0.7 0-1.2 0.6-1.2 1.2 0 0.6 0.2 1.1 0.6 1.3h2.8zm-1 23.4h-3.7v-21.7h3.7z"/>
				<path class="s12" d="m489.3 219.5h-16v-3.8h12.2q0-6.6-5.1-7.7c-1.1-0.2-2.2-0.3-3.4-0.3v-3.4q2.8 0 3.5 0 0.7 0.1 2 0.5 6.7 2.3 6.8 10.9v3.8z"/>
				<path class="s12" d="m502.5 219.5h-4.4q-2.7 0-4.2-1.7-1.3-1.6-1.3-4.4v-15.5h3.7v14q0.1 2.5 1.1 3.2 0.8 0.6 2.9 0.6h2.2v3.8z"/>
				<path class="s12" d="m528.3 219.5h-27v-3.8h19.4q0-3.1-1.7-5.3c-1.4-1.8-3.4-2.6-5.8-2.6q-1.3 0-2.8 0.6-1.8 0.8-3 2.2-0.6-1.1-1.9-3c1.1-1 2.3-1.8 3.6-2.4q2.2-0.9 4.5-0.9 3.5 0 6.1 1.6 4.6 2.8 5 9.8h3.6c0 0 0 3.8 0 3.8z"/>
				<path class="s12" d="m530.7 201.2h-3.7v-3.7h3.7zm6.4 12.2q0 6.1-5.6 6.1h-4v-3.8h3.2c1.2 0 2-0.4 2.4-1.1q0.3-0.6 0.3-2.4v-7.9h3.7zm-0.1-12.3h-3.7v-3.7h3.7z"/>
				<path class="s12" d="m545.2 226.4h-5.8v-1.5h1.4q-0.4-1-0.3-1.2c0-1.6 1.1-2.8 2.6-2.8q1.4 0 2.1 1.5l-1.2 0.6c-0.1-0.5-0.5-0.7-1-0.7-0.6 0-1.1 0.6-1.1 1.3q0 0.9 0.6 1.3h2.7v1.5zm-1.1-6.9h-3.7v-21.7h3.7z"/>
				<path class="s12" d="m577.8 219.5h-0.8c-4.3 0-8.1-3-9.1-6.7h-5.5q-5.2 0-5.2 4.4c0 2.6 2 4.2 5.2 4.2h6v3.7h-5.7c-5.6 0-9.1-3-9.1-8 0-4.2 2.5-7.3 6.3-7.9q-1.3-1.8-1.3-4.2c0-4.2 3-7.1 7-7.1q3.7 0 5.5 3.5l-2.9 1.4q-0.8-1.8-2.7-1.8c-2.1 0-3.4 1.6-3.4 3.9 0 1.8 1.1 3.7 2.3 4.2h0.5c0.8 0 1.9 0 3.3 0h3.1c0.5 4.1 2.6 6.6 5.7 6.6h0.9v3.8z"/>
				<path class="s12" d="m598.9 219.5h-4.8q-2.1 3-6.1 2.9c-2.6 0-4.5-0.9-6-2.9h-5.1v-3.8h3.6q0-0.6 0-1.1 0-3.4 2.1-5.6 2.1-2.1 5.4-2.1 3.4 0 5.5 2.2 2.1 2.3 2.1 5.6v1h3.3zm-7.2-4.8q0-1.8-0.9-3.1c-0.7-0.9-1.7-1.4-2.9-1.4-1.1 0-2 0.5-2.7 1.4-0.5 0.7-0.8 1.7-0.8 2.9 0 2.4 1.4 4.4 3.7 4.4q1.8 0 2.7-1.3 0.9-1.1 0.9-3z"/>
				<path class="s12" d="m624.8 219.5h-27v-3.8h19.4q0-3.1-1.7-5.3c-1.4-1.8-3.3-2.6-5.8-2.6q-1.3 0-2.8 0.6-1.8 0.8-3 2.2-0.6-1.1-1.8-3c1-1 2.2-1.8 3.6-2.4q2.2-0.9 4.4-0.9 3.5 0 6.1 1.6 4.6 2.8 5 9.8h3.6c0 0 0 3.8 0 3.8zm-12.9 7.4h-3.7v-3.8h3.7z"/>
				<path class="s12" d="m643.4 214.8c0 4.4-3 7.7-7.5 7.7-2.6 0-4.6-1-6.1-3h-6v-3.8h4.6v-0.2q-0.1-0.4-0.1-0.9c0-4.5 3.1-7.7 7.6-7.7 4.5 0 7.5 3.5 7.5 7.9zm-3.8 0c0-2.6-1.6-4.5-3.8-4.5-2.2 0-3.6 1.8-3.6 4.3 0 2.5 1.6 4.4 3.8 4.4 2.1 0 3.6-1.7 3.6-4.2z"/>
				<path class="s12" d="m674.3 219.5h-4.1c-2.9 0-5.3-1.9-6-4.9q-1.8 2.5-4.3 2.5c-4.3 0-7-3.2-7-7.9 0-5 2.6-8.2 7-8.2h8.2v10.7c0 2.6 1.3 4 3.8 4h2.4c0 0 0 3.8 0 3.8zm-10-10.7v-4.9h-3.4c-2.7 0-4.3 2.1-4.3 5.2 0 2.6 1.5 4.8 3.7 4.8 2.5 0 4-2.2 4-5.1zm-2.8-10.5h-3.7v-3.7h3.7zm6.4 0h-3.7v-3.8h3.7z"/>
				<path class="s12" d="m695.8 217.2v2.3h-22.5v-3.8h18.4q0-3.1-1.8-5.3-2.1-2.6-5.8-2.6h-7.7l6.6-9.9h4.5l-4.6 6.4h1.7q3.7 0 6.4 1.8c3.2 2.1 4.8 5.8 4.8 11.1z"/>
				<path class="s12" d="m712.3 219.5h-6c-0.6 3.6-3.6 5.6-8.2 5.6v-3.2c3.1 0 4.7-1.6 4.7-4.8v-12.8h3.7v11.4h5.8c0 0 0 3.8 0 3.8z"/>
				<path class="s12" d="m711.1 215.7h2.8q2.8 0 2.8-3.9v-7.5h3.8v7.3q0 3-0.6 3.9v0.2h3.5q2.9 0 2.9-3.7v-7.7h3.8v7.3q-0.1 3.3-0.8 4.1h3.6q2.9 0 2.9-3.7v-7.7h3.8v7.3c0 4.8-2.7 8-6.5 8h-22v-3.9zm12-14.5v-3.7h3.7v3.7zm3.2-5.3v-3.7h3.6v3.7zm3.2 5.3v-3.7h3.7v3.7z"/>
			</g>
		</g>
	</g>
</svg>