<svg version="1.2" xmlns="http://www.w3.org/2000/svg" viewBox="0 0 281 66" width="281" height="66">
	<title>32</title>
	<style>
		.s0 { fill: #0c154c } 
	</style>
	<g id="Layer_1-2">
		<g>
			<g>
				<path class="s0" d="m36.2 10.4q1.3 2.9 1.3 6.1v14.9q0 3.2-1.3 6.2-1.2 2.7-3.4 4.9-4.6 4.5-11.2 4.5h-21.6v-46.1h21.6q6.5 0 11.2 4.6 2.2 2.1 3.4 4.9zm-9.8 21v-14.9q0-1.8-1.4-3.2-1.4-1.3-3.4-1.3h-10.5v24h10.5q2 0 3.4-1.4 1.4-1.3 1.4-3.2z"/>
				<path class="s0" d="m77.3 47q-0.1-1.3-0.1-4v-4.4q0-2.9-0.4-4.9-0.4-1.9-2.1-4-1.7-2.1-4.9-3.8 3.4-1 5.1-3.9 1.7-2.9 1.7-6.8 0-6.7-4.8-10.5-4.8-3.8-12.4-3.8h-17.8v46.1h11.1v-15.4h6.6q2 0 3.2 0.6 1.3 0.6 2.1 1.5 0.7 0.8 1.1 2.6 0.3 1.7 0.4 3.2 0.1 1.6 0.1 4.3v3.2h11.1zm-11.6-30.3q0 0.1-0.1 0.2c-0.1 0.9-0.5 1.8-1.2 2.4-0.7 0.8-1.8 1.3-3 1.3h-8.7v-8.6h8.7c2.2 0 4.1 1.7 4.3 3.9q0 0.2 0 0.4v0.4z"/>
				<path class="s0" d="m83.8 39.1q1.5-1.3 3.6-1.3 2.2 0 3.7 1.3 1.6 1.4 1.6 3.3 0 1.9-1.6 3.3-1.5 1.3-3.7 1.3-2.1 0-3.6-1.3-1.6-1.4-1.6-3.3 0-1.9 1.6-3.3z"/>
				<path class="s0" d="m97.6 0.9h13q8.4 0 12.5 1.8 4 1.8 5.7 5.2 1.4 3 1.4 6.5 0 5.9-4.3 8 3.5 1.3 5.8 4.1 2.2 2.8 2.2 7.2 0 1.3-0.1 2-0.3 3-1.6 5.2-1.4 2.2-3 3.4-1.6 1.1-4 1.8-2.3 0.6-4.1 0.8-1.7 0.1-4 0.1h-19.5v-46.1zm11.1 11.1v6.1h7.9q1.5 0 2.3-0.8 0.8-0.8 0.8-2.3 0-3-3.1-3h-7.9zm14 19.9q0-2.2-1.3-3.4-1.3-1.1-3.2-1.1h-9.6v9.2h7.5q6.6 0 6.6-4.7z"/>
				<path class="s0" d="m175.2 40.9q-6.8 7-16.4 7-9.5 0-16.3-7-6.7-7.1-6.7-16.9 0-9.9 6.7-16.9 6.7-7.1 16.3-7.1 9.6 0 16.4 7.1 6.7 7 6.7 16.9 0 9.8-6.7 16.9zm-24.8-7.8q3.5 3.8 8.5 3.8 4.9 0 8.4-3.8 3.5-3.7 3.5-9.1 0-5.4-3.5-9.2-3.5-3.7-8.4-3.7-5 0-8.5 3.7-3.5 3.8-3.5 9.2 0 5.4 3.5 9.1z"/>
				<path class="s0" d="m186 0.9h14.7l13 27.6v-27.6h11.1v46.1h-13.5l-14.2-30.8v30.8h-11.1z"/>
				<path class="s0" d="m261.7 47v-46.1h11v46.1c0 0-11 0-11 0z"/>
				<g>
					<path class="s0" d="m277.6 1.2h-0.7v-0.3h1.6v0.3h-0.7v1.9h-0.3v-1.9z"/>
					<path class="s0" d="m280.5 2.2c0-0.4-0.1-0.7 0-1h-0.1q-0.1 0.4-0.2 0.8l-0.4 1.1h-0.2l-0.4-1.1q-0.1-0.4-0.2-0.8c0 0.3-0.1 0.6-0.1 1v0.9h-0.3l0.1-2.2h0.4l0.4 1.1q0.1 0.4 0.2 0.7 0.1-0.3 0.2-0.7l0.4-1.1h0.4l0.1 2.2h-0.3v-1z"/>
				</g>
				<path class="s0" d="m256.3 0.9v18.2q-0.2 1-0.6 1.8h-9.9q-0.5-0.9-0.6-1.9v-18.1z"/>
				<g>
					<path class="s0" d="m253.8 24.7c-1 0-1.8 0.8-1.8 1.8 0 1 0.8 1.9 1.8 1.9 1 0 1.9-0.9 1.9-1.9 0-1-0.9-1.8-1.9-1.8z"/>
					<path class="s0" d="m248 24.7q-0.7 0-1.2 0.4c-1 0.6-1.3 2-0.6 3 0.5 0.7 1.4 1 2.3 0.8 0.1 0 0.4 0.2 0.8 0.7 0.3 0.5 0.4 0.8 0.3 0.9-1.1 1.3-1.3 3-0.3 4.4 1 1.6 3.2 2 4.8 0.9 1.6-1.1 2-3.3 0.9-4.9-0.9-1.3-2.6-1.8-4.2-1.2 0 0-0.4-0.2-0.7-0.7-0.3-0.5-0.4-0.8-0.3-0.9 0.4-0.8 0.5-1.7 0-2.5-0.5-0.6-1.1-0.9-1.8-0.9z"/>
					<path class="s0" d="m246.8 30c-0.5 0-1 0.5-1 1 0 0.6 0.5 1.1 1 1.1 0.6 0 1.1-0.5 1.1-1.1 0-0.5-0.5-1-1.1-1z"/>
					<path class="s0" d="m231.8 32.7c-0.9 0-1.8 0.5-2.3 1.4q-0.5 0.7-0.4 1.6c0 0.9 0.5 1.8 1.3 2.3 1.2 0.6 2.6 0.4 3.6-0.5 0-0.1 0.3-0.1 0.7 0.2 0.5 0.2 0.6 0.5 0.6 0.6-0.1 0.7 0.2 1.4 0.8 1.8 0.9 0.5 2 0.2 2.5-0.6 0.5-0.8 0.2-1.9-0.7-2.4-0.6-0.4-1.4-0.3-2 0.1 0 0.1-0.3 0-0.7-0.2-0.5-0.2-0.6-0.5-0.6-0.6 0.4-1.3-0.1-2.6-1.2-3.3q-0.7-0.4-1.4-0.4h-0.2z"/>
					<path class="s0" d="m247.9 36.4c-0.9 0-1.6 0.7-1.6 1.6 0 0.9 0.7 1.7 1.6 1.7 0.9 0 1.6-0.8 1.6-1.7 0-0.9-0.7-1.6-1.6-1.6z"/>
					<path class="s0" d="m252.8 37.2c-0.5 0-0.9 0.2-1.3 0.5-0.6 0.5-0.7 1.3-0.5 2.1 0 0.1-0.1 0.4-0.5 0.8-0.4 0.3-0.7 0.4-0.8 0.3-1.2-0.7-2.7-0.7-3.8 0.3-1.3 1.1-1.4 3.1-0.2 4.4 1.1 1.2 3.1 1.3 4.4 0.2 1-1 1.2-2.6 0.6-3.9-0.1 0 0-0.3 0.4-0.7 0.4-0.4 0.7-0.4 0.8-0.4 0.7 0.3 1.6 0.3 2.2-0.3 0.7-0.7 0.8-1.9 0.1-2.7q-0.4-0.4-1-0.6-0.2 0-0.4 0z"/>
					<path class="s0" d="m242.7 40.1q-0.3 0-0.7 0.1c-0.7 0.3-1.1 1-1.1 1.8 0 0-0.3 0.3-0.7 0.5-0.5 0.2-0.8 0.2-0.9 0.1-0.8-1.1-2.3-1.6-3.6-1.1-0.9 0.4-1.6 1.2-1.8 2.2-0.1 0.5-0.1 1.1 0.2 1.7 0.6 1.5 2.4 2.3 3.9 1.7 1.3-0.6 2-1.9 1.8-3.3 0-0.1 0.2-0.3 0.7-0.5 0.5-0.2 0.8-0.2 0.8-0.1 0.6 0.5 1.4 0.7 2.1 0.4 0.9-0.3 1.4-1.4 1-2.4-0.3-0.7-0.9-1.1-1.7-1.1z"/>
					<path class="s0" d="m232.4 39.7c-0.9 0-1.5 0.6-1.5 1.5 0 0.8 0.6 1.5 1.5 1.5 0.8 0 1.5-0.7 1.5-1.5 0-0.9-0.7-1.5-1.5-1.5z"/>
					<path class="s0" d="m243 44.2c-0.9 0-1.6 0.7-1.6 1.6 0 0.8 0.7 1.5 1.6 1.6 0.8 0 1.5-0.8 1.5-1.6 0-0.9-0.7-1.6-1.5-1.6z"/>
				</g>
				<path class="s0" d="m256.3 18.4q0 0.4-0.1 0.7-0.1 1-0.5 1.8c-1 1.8-2.8 3-5 3-2.2 0-4-1.2-4.9-3q-0.5-0.9-0.6-1.9 0-0.3 0-0.6 0-0.3 0-0.7c0.3-2.7 2.7-4.9 5.5-4.9 2.9 0 5.2 2.1 5.5 4.9q0.1 0.3 0.1 0.7z"/>
			</g>
			<g>
				<path class="s0" d="m38.6 60.7c0-0.9-0.6-1.5-1.7-1.5h-2.4v5.3h0.9v-2.2h1.3c0.6 0 1 0.2 1 0.9v0.8q0 0.3 0.1 0.5h0.8q0-0.2 0-0.5v-0.9c0-0.6-0.3-0.9-0.9-1.1 0.6-0.2 0.9-0.6 0.9-1.3zm-1.8 1h-1.4v-1.8h1.4c0.7 0 1 0.3 1 0.9 0 0.5-0.3 0.9-1 0.9z"/>
				<path fill-rule="evenodd" class="s0" d="m42.2 64.5h3.7v-0.7h-2.9v-1.7h2.7v-0.6h-2.7v-1.6h2.9v-0.7h-3.7v5.3z"/>
				<path class="s0" d="m52.7 61.8c0.5-0.1 0.9-0.6 0.9-1.2 0-0.8-0.7-1.4-1.7-1.4h-2.5v5.3h2.6c1.1 0 1.7-0.6 1.7-1.4 0-0.7-0.4-1.1-1-1.3zm-2.5-1.9h1.6c0.6 0 0.9 0.3 0.9 0.8 0 0.5-0.3 0.8-0.9 0.8h-1.6zm1.7 4h-1.7v-1.7h1.7c0.7 0 1 0.4 1 0.9 0 0.5-0.4 0.9-1 0.8z"/>
				<path class="s0" d="m58.8 59.3l-2 5.2h0.9l0.4-1.2h2.5l0.4 1.2h0.9l-2-5.2zm-0.5 3.4l1-2.7 1 2.7z"/>
				<path fill-rule="evenodd" class="s0" d="m66 59.3h-0.8v5.2h3.4v-0.7h-2.6v-4.5z"/>
				<path class="s0" d="m73.7 59.3l-2.1 5.2h0.9l0.5-1.2h2.4l0.4 1.2h0.9l-2-5.2zm-0.5 3.4l1-2.7 1 2.7z"/>
				<path fill-rule="evenodd" class="s0" d="m83.6 63.4l-2.7-4.1h-0.9v5.2h0.8v-4.1l2.7 4.1h0.9v-5.2h-0.8v4.1z"/>
				<path class="s0" d="m90.4 59.9c1 0 1.5 0.5 1.6 1.2h0.8c0-1.1-0.9-1.9-2.4-1.9-1.6 0-2.5 1.1-2.5 2.7 0 1.6 0.9 2.7 2.5 2.7 1.5 0 2.4-0.9 2.4-2h-0.8c-0.1 0.8-0.6 1.3-1.6 1.3-1.1 0-1.7-0.7-1.7-2 0-1.3 0.6-2.1 1.7-2.1z"/>
				<path fill-rule="evenodd" class="s0" d="m96.3 64.5h3.7v-0.7h-2.9v-1.7h2.7v-0.6h-2.7v-1.6h2.9v-0.7h-3.7v5.3z"/>
				<path class="s0" d="m103.5 64.4c0 0.5 0 0.7-0.2 1l0.4 0.2c0.4-0.3 0.5-0.7 0.5-1.2v-0.8h-0.7c0 0 0 0.8 0 0.8z"/>
				<path class="s0" d="m116.6 60.7c0-0.9-0.6-1.5-1.7-1.5h-2.4v5.3h0.9v-2.2h1.3c0.6 0 1 0.2 1 0.9v0.8q0 0.3 0.1 0.5h0.8q0-0.2 0-0.5v-0.9c0-0.6-0.3-0.9-0.9-1.1 0.6-0.2 0.9-0.6 0.9-1.3zm-1.8 1h-1.5v-1.8h1.5c0.7 0 1 0.3 1 0.9 0 0.5-0.3 0.9-1 0.9z"/>
				<path fill-rule="evenodd" class="s0" d="m120.2 64.5h3.7v-0.7h-2.9v-1.7h2.7v-0.6h-2.7v-1.6h2.9v-0.7h-3.7v5.3z"/>
				<path fill-rule="evenodd" class="s0" d="m129.6 63.7l-1.7-4.5h-0.8l2 5.3h1l2-5.3h-0.9l-1.6 4.5z"/>
				<path fill-rule="evenodd" class="s0" d="m135.4 64.5h3.7v-0.7h-2.9v-1.7h2.7v-0.6h-2.7v-1.6h2.9v-0.7h-3.7v5.3z"/>
				<path class="s0" d="m146.7 60.7c0-0.9-0.6-1.5-1.7-1.5h-2.4v5.3h0.8v-2.2h1.4c0.6 0 1 0.2 1 0.9v0.8q0 0.3 0.1 0.5h0.8q-0.1-0.2-0.1-0.5v-0.9c0-0.6-0.3-0.9-0.8-1.1 0.6-0.2 0.9-0.6 0.9-1.3zm-1.8 1h-1.5v-1.8h1.5c0.7 0 1 0.3 1 0.9 0 0.5-0.3 0.9-1 0.9z"/>
				<path class="s0" d="m152.7 61.5l-0.7-0.1c-0.8-0.1-1-0.3-1-0.7 0-0.5 0.4-0.9 1.2-0.9 0.7 0 1.1 0.3 1.2 1h0.8c0-1-0.7-1.6-2-1.6-1.4 0-2 0.6-2 1.6 0 0.8 0.4 1.2 1.5 1.3l0.7 0.1c0.9 0.1 1.1 0.4 1.1 0.8 0 0.6-0.4 1-1.3 1-0.9 0-1.3-0.4-1.3-1.1h-0.8c0 1.1 0.7 1.7 2.1 1.7 1.4 0 2.1-0.6 2.1-1.6 0-0.9-0.6-1.3-1.6-1.5z"/>
				<path fill-rule="evenodd" class="s0" d="m157.8 64.5h3.7v-0.7h-2.9v-1.7h2.7v-0.6h-2.7v-1.6h2.9v-0.7h-3.7v5.3z"/>
				<path class="s0" d="m165 64.4c0 0.5-0.1 0.7-0.2 1l0.4 0.2c0.3-0.3 0.5-0.7 0.5-1.2v-0.8h-0.7v0.8z"/>
				<path class="s0" d="m178.1 60.7c0-0.9-0.6-1.5-1.7-1.5h-2.4v5.3h0.8v-2.2h1.4c0.6 0 1 0.2 1 0.9v0.8q0 0.3 0.1 0.5h0.8q-0.1-0.2-0.1-0.5v-0.9c0-0.6-0.3-0.9-0.9-1.1 0.7-0.2 1-0.6 1-1.3zm-1.8 1h-1.5v-1.8h1.5c0.7 0 1 0.3 1 0.9 0 0.5-0.3 0.9-1 0.9z"/>
				<path fill-rule="evenodd" class="s0" d="m181.7 64.5h3.7v-0.7h-2.9v-1.7h2.7v-0.6h-2.7v-1.6h2.9v-0.7h-3.7v5.3z"/>
				<path class="s0" d="m191.4 62.3h1.4c0 1-0.5 1.6-1.6 1.6-1.1 0-1.7-0.7-1.7-2 0-1.3 0.6-2.1 1.7-2.1 1 0 1.5 0.6 1.6 1.2h0.7c0-0.9-0.8-1.8-2.3-1.8-1.6 0-2.5 1.1-2.5 2.7 0 1.6 0.8 2.7 2.5 2.7 1 0 1.5-0.4 1.7-1.1l0.1 1h0.6v-2.8h-2.2c0 0 0 0.6 0 0.6z"/>
				<path fill-rule="evenodd" class="s0" d="m197.2 64.5h3.7v-0.7h-2.9v-1.7h2.7v-0.6h-2.7v-1.6h2.9v-0.7h-3.7v5.3z"/>
				<path fill-rule="evenodd" class="s0" d="m208 63.4l-2.7-4.1h-0.9v5.2h0.8v-4.1l2.7 4.1h0.9v-5.2h-0.8v4.1z"/>
				<path fill-rule="evenodd" class="s0" d="m212.5 64.5h3.7v-0.7h-2.9v-1.7h2.7v-0.6h-2.7v-1.6h2.9v-0.7h-3.7v5.3z"/>
				<path class="s0" d="m223.8 60.7c0-0.9-0.6-1.5-1.7-1.5h-2.4v5.3h0.8v-2.2h1.4c0.6 0 1 0.2 1 0.9v0.8q0 0.3 0.1 0.5h0.8q-0.1-0.2-0.1-0.5v-0.9c0-0.6-0.3-0.9-0.9-1.1 0.6-0.2 1-0.6 1-1.3zm-1.8 1h-1.5v-1.8h1.5c0.7 0 1 0.3 1 0.9 0 0.5-0.3 0.9-1 0.9z"/>
				<path class="s0" d="m229 59.3l-2 5.2h0.8l0.5-1.2h2.4l0.5 1.2h0.8l-2-5.2zm-0.5 3.4l1-2.7 1 2.7z"/>
				<path fill-rule="evenodd" class="s0" d="m235.1 59.9h1.6v4.6h0.8v-4.6h1.7v-0.6h-4.1v0.6z"/>
				<path fill-rule="evenodd" class="s0" d="m246.3 59.9v-0.6h-3.8v5.2h3.8v-0.7h-2.9v-1.7h2.6v-0.6h-2.6v-1.6h2.9z"/>
			</g>
		</g>
	</g>
</svg>