<svg version="1.2" xmlns="http://www.w3.org/2000/svg" viewBox="0 0 717 466" width="717" height="466">
	<title>60</title>
	<style>
		.s0 { fill: #00326a } 
		.s1 { fill: #29abe2 } 
		.s2 { fill: #00428d } 
		.s3 { fill: #606060 } 
	</style>
	<g id="Layer_1-2">
		<g>
			<g>
				<path class="s0" d="m383.1 186.8q3.1-7.2 5.2-14.7c3-10.8 5.6-21.8 6-33.2 0.3-8.5 0.9-17.1 3.5-25.4 1.9-6.4 4.3-12.6 6.6-18.9 1.8-5.2 3.3-10.4 3.9-15.7-9.8 17.1-29.2 36.2-54.8 53.6 34.4-31.8 51.4-70.1 38.2-87.4-7.5-9.8-23.2-10.8-41.9-4.5 9.7-0.3 17.6 2.4 22.2 8.5 13.8 18-5.3 58.9-42.6 91.3-17 14.9-34.9 25.3-50.6 30.6 5.1-0.2 10.8-1.2 16.8-3 1.9 8 4.7 15.7 8 23.2-37-14.1-63.3-50.2-63.3-92.4 0.1-54.6 44-98.8 98.1-98.8 54.2 0 98.1 44.2 98.1 98.8 0 38.4-21.7 71.6-53.4 88zm-36.2-44.6c-0.2-1-0.6-2-1.1-2.9q-5.4 4.4-10.8 8.3 0 0.3 0 0.7c-0.6 8.7-0.6 17.4-1 26.1-0.3 7.7-0.5 15.4-2.3 23q3.4 0.2 6.7 0.2c5.8 0 11.5-0.5 17-1.5-1.5-11.1-2.7-22.3-4.3-33.5-1-6.8-2.6-13.6-4.2-20.4z"/>
				<path class="s1" d="m282.7 103c5.4 11.9 8.4 24.3 9.2 37.3 0.2 4.3 0.6 8.7 1.2 13q0.8-0.4 1.7-0.8 0.1-0.1 0.1-0.1c45.2-35.6 71-76.9 58.9-97.8q-0.4-0.6-0.7-1.1c-17-1.7-22.3-14.4-49.4-14.4-10.6 2-19.3 7-24.9 16.4-4.8 7.9-5 16.6-3.3 25.5 1.4 7.6 4.1 14.9 7.2 22z"/>
			</g>
			<g>
				<g>
					<path class="s2" d="m64.6 278.5c0 10.8 0 16.6 1.7 18.2 1.5 1.2 3.7 1.8 10.3 1.8 4.4 0 7.7-0.1 9.8-2.3 1-1.1 2.1-3.5 2.2-5.1 0.1-0.8 0.3-1.3 1-1.3 0.5 0 0.6 0.4 0.6 1.5 0 0.9-0.6 7.2-1.2 9.7-0.5 1.8-1 2.2-5.4 2.2-6 0-10.4-0.1-14.2-0.2-3.8-0.2-6.9-0.3-10.3-0.3-1 0-2.8 0-4.8 0.1-2 0-4.2 0.2-5.9 0.2-1.1 0-1.7-0.3-1.7-0.8 0-0.5 0.4-0.7 1.4-0.7 1.3 0 2.3-0.2 3-0.4 1.7-0.3 2.1-2.2 2.5-4.6 0.4-3.6 0.4-10.2 0.4-18v-14.9c0-12.8 0-15.2-0.2-17.9-0.1-2.8-0.8-4.2-3.6-4.8-0.7-0.1-1.7-0.2-2.8-0.2-0.9 0-1.4-0.2-1.4-0.8 0-0.6 0.6-0.7 1.8-0.7 4 0 9.3 0.2 11.6 0.2 2 0 8.2-0.2 11.5-0.2 1.2 0 1.8 0.1 1.8 0.7 0 0.6-0.6 0.8-1.6 0.8-0.9 0-2.2 0.1-3.3 0.2-2.2 0.4-2.9 1.9-3.1 4.8-0.1 2.7-0.1 5.1-0.1 17.9 0 0 0 14.9 0 14.9z"/>
					<path class="s2" d="m103.4 269.4c0-10.8 0-12.9-0.1-15.1-0.2-2.5-0.9-3.3-2.5-3.8-0.9-0.3-1.8-0.4-2.7-0.4-0.8 0-1.2-0.2-1.2-0.8 0-0.4 0.6-0.6 1.8-0.6 2.7 0 7.8 0.1 9.9 0.1 1.9 0 6.7-0.1 9.6-0.1 0.9 0 1.5 0.1 1.5 0.6 0 0.7-0.4 0.8-1.2 0.8-0.8 0-1.4 0.1-2.2 0.3-2 0.3-2.6 1.3-2.8 3.8-0.2 2.3-0.2 4.3-0.2 15.2v12.7c0 6.9 0 12.7 0.4 15.7 0.2 2 0.7 3.1 2.9 3.4 1.1 0.2 2.7 0.3 3.8 0.3 0.9 0 1.2 0.4 1.2 0.7 0 0.5-0.6 0.8-1.4 0.8-4.9 0-10-0.3-12-0.3-1.7 0-6.8 0.3-9.7 0.3-0.9 0-1.5-0.3-1.5-0.8 0-0.3 0.3-0.7 1.2-0.7 1.1 0 2-0.1 2.6-0.3 1.6-0.3 2-1.4 2.2-3.5 0.4-2.9 0.4-8.7 0.4-15.6v-12.6z"/>
					<path class="s2" d="m142.4 293.2c0.2 5.6 1.1 7.2 2.5 7.8 1.3 0.4 2.7 0.5 3.9 0.5 0.9 0 1.3 0.3 1.3 0.7 0 0.6-0.7 0.8-1.7 0.8-4.8 0-8.3-0.3-9.6-0.3-0.7 0-4.3 0.3-8.1 0.3-1 0-1.6-0.1-1.6-0.8 0-0.4 0.5-0.7 1.1-0.7 1 0 2.4-0.1 3.4-0.4 2-0.5 2.2-2.4 2.3-8.7l0.7-42.5c0-1.5 0.5-2.5 1.2-2.5 1 0 2 1.1 3.3 2.4 0.9 0.9 12 12.3 22.8 22.9 5.1 4.9 15 15.1 16.1 16.1h0.3l-0.7-31.9c-0.1-4.4-0.8-5.7-2.6-6.4-1.1-0.4-2.8-0.4-3.8-0.4-1 0-1.2-0.3-1.2-0.7 0-0.6 0.7-0.7 1.8-0.7 3.9 0 7.9 0.2 9.5 0.2 0.8 0 3.6-0.2 7.3-0.2 1 0 1.6 0.1 1.6 0.7 0 0.4-0.4 0.7-1.2 0.7-0.8 0-1.4 0-2.3 0.3-2 0.6-2.6 1.8-2.7 5.9l-0.8 45.3c0 1.6-0.6 2.2-1.2 2.2-1.3 0-2.3-0.7-3.1-1.5-4.6-4.3-13.9-13.2-21.7-20.7-8.1-7.7-15.9-16.5-17.4-17.7h-0.2l0.8 29.3z"/>
					<path class="s2" d="m208.8 269.4c0-10.8 0-12.9-0.1-15.1-0.2-2.5-0.9-3.3-3.2-3.9-0.6-0.2-1.9-0.3-3-0.3-0.8 0-1.3-0.2-1.3-0.7 0-0.5 0.6-0.7 1.7-0.7 3.9 0 8.6 0.2 10.8 0.2 2.2 0 7.6-0.2 12-0.2 9.3 0 21.8 0 29.9 8.2 3.7 3.7 7 9.7 7 18.2 0 9.1-3.8 15.9-8.1 20-3.3 3.4-11.2 8.5-24.9 8.5-2.7 0-5.9-0.3-8.8-0.4-3-0.3-5.7-0.5-7.6-0.5-0.8 0-2.4 0.1-4.2 0.1-1.8 0.1-3.6 0.2-5.1 0.2-1 0-1.5-0.3-1.5-0.8 0-0.3 0.3-0.7 1.2-0.7 1.1 0 1.9-0.1 2.6-0.3 1.5-0.3 2-1.7 2.2-3.8 0.4-3 0.4-8.7 0.4-15.3v-12.7zm9.9 8c0 7.6 0.1 13.1 0.2 14.5 0.1 1.8 0.2 4.3 0.8 5.1 1 1.3 3.9 2.8 9.7 2.8 6.8 0 11.8-1.1 16.2-4.9 4.9-3.9 6.4-10.3 6.4-17.8 0-9.1-3.6-15-6.9-17.9-6.9-6.1-15-6.8-20.8-6.8-1.5 0-4 0.2-4.6 0.5-0.7 0.2-0.9 0.6-0.9 1.4-0.1 2.5-0.1 8.4-0.1 14.1v9z"/>
					<path class="s2" d="m278.1 269.4c0-10.8 0-12.9-0.1-15.1-0.2-2.5-0.8-3.3-3.2-3.9-0.6-0.2-1.9-0.3-3-0.3-0.7 0-1.2-0.2-1.2-0.7 0-0.5 0.6-0.7 1.7-0.7 3.8 0 8.6 0.2 10.7 0.2 2.4 0 18.8 0 20.3 0 1.3-0.1 2.5-0.4 3.1-0.5 0.4 0 0.8-0.3 1.2-0.3 0.4 0 0.5 0.3 0.5 0.7 0 0.5-0.4 1.3-0.6 4.6-0.1 0.8-0.3 3.9-0.4 4.8-0.1 0.3-0.3 1.1-0.9 1.1-0.5 0-0.6-0.3-0.6-0.9 0-0.5 0-1.8-0.5-2.6-0.6-1.3-1.1-2.3-4.9-2.6-1.2-0.2-10.1-0.4-11.6-0.4-0.4 0-0.5 0.3-0.5 0.7v17.7c0 0.5 0.1 0.8 0.5 0.8 1.7 0 11.3 0 13-0.2 1.8-0.1 2.9-0.3 3.5-1.1 0.6-0.5 0.9-0.9 1.2-0.9 0.4 0 0.6 0.3 0.6 0.7 0 0.5-0.2 1.7-0.6 5.3-0.1 1.4-0.3 4.3-0.3 4.8 0 0.6-0.1 1.6-0.8 1.6-0.5 0-0.7-0.2-0.7-0.6 0-0.7 0-1.7-0.2-2.6-0.4-1.4-1.4-2.5-4.1-2.8-1.4-0.2-9.8-0.3-11.7-0.3-0.3 0-0.4 0.3-0.4 0.7v5.8c0 2.4-0.1 8.5 0 10.6 0.2 4.9 2.4 6 10 6 2 0 5.1-0.1 7-0.9 1.9-0.9 2.7-2.4 3.3-5.3 0.1-0.8 0.3-1.1 0.8-1.1 0.6 0 0.7 0.9 0.7 1.6 0 1.6-0.6 6.5-1 8-0.5 1.8-1.2 1.8-4 1.8-5.6 0-10.1 0-13.7-0.2-3.6-0.1-6.4-0.2-8.6-0.2-0.8 0-2.4 0.1-4.2 0.1-1.8 0.1-3.6 0.2-5.2 0.2-0.9 0-1.4-0.3-1.4-0.8 0-0.3 0.2-0.7 1.2-0.7 1.1 0 1.9-0.1 2.6-0.3 1.5-0.3 1.9-1.7 2.2-3.8 0.3-3 0.3-8.7 0.3-15.3v-12.7z"/>
					<path class="s2" d="m329.7 293.2c0.2 5.6 1.1 7.2 2.5 7.8 1.3 0.4 2.7 0.5 3.9 0.5 0.8 0 1.3 0.3 1.3 0.7 0 0.6-0.7 0.8-1.7 0.8-4.8 0-8.3-0.3-9.7-0.3-0.6 0-4.2 0.3-8 0.3-1 0-1.7-0.1-1.7-0.8 0-0.4 0.5-0.7 1.2-0.7 1 0 2.4-0.1 3.4-0.4 1.9-0.5 2.2-2.4 2.3-8.7l0.6-42.5c0-1.5 0.6-2.5 1.3-2.5 0.9 0 2 1.1 3.2 2.4 1 0.9 12.1 12.3 22.9 22.9 5.1 4.9 15 15.1 16.1 16.1h0.3l-0.8-31.9c-0.1-4.4-0.7-5.7-2.5-6.4-1.1-0.4-2.9-0.4-3.9-0.4-0.9 0-1.2-0.3-1.2-0.7 0-0.6 0.8-0.7 1.9-0.7 3.9 0 7.9 0.2 9.5 0.2 0.8 0 3.6-0.2 7.2-0.2 1 0 1.7 0.1 1.7 0.7 0 0.4-0.4 0.7-1.3 0.7-0.7 0-1.3 0-2.2 0.3-2.1 0.6-2.7 1.8-2.7 5.9l-0.9 45.3c0 1.6-0.6 2.2-1.1 2.2-1.3 0-2.3-0.7-3.1-1.5-4.6-4.3-13.9-13.2-21.7-20.7-8.1-7.7-15.9-16.5-17.4-17.7h-0.2l0.8 29.3z"/>
					<path class="s2" d="m389.2 255.7c-0.9-2.6-1.5-4.3-2.6-5-0.8-0.5-2.2-0.6-2.9-0.6-0.8 0-1.2-0.2-1.2-0.7 0-0.5 0.6-0.7 1.7-0.7 3.8 0 8 0.2 8.6 0.2 0.7 0 4.3-0.2 8.6-0.2 1.1 0 1.7 0.2 1.7 0.7 0 0.5-0.6 0.7-1.4 0.7-0.6 0-1.3 0.1-1.9 0.4-0.6 0.2-0.7 0.6-0.7 1.4 0 0.9 0.7 3.3 1.6 6.6 1.3 4.7 8 26.4 9.1 29.7h0.3l14.1-36.6c0.8-2.1 1.6-2.6 2.2-2.6 0.9 0 1.6 1.1 2.5 3.3l14.9 35.4h0.2c1.4-4.1 7.1-23 9.7-31.4 0.5-1.7 0.8-3.1 0.8-4.1 0-1.2-0.7-2.1-3.7-2.1-0.6 0-1.2-0.3-1.2-0.7 0-0.5 0.6-0.7 1.7-0.7 3.9 0 7.3 0.2 8 0.2 0.5 0 3.7-0.2 6.2-0.2 0.8 0 1.3 0.2 1.3 0.6 0 0.5-0.3 0.8-1 0.8-0.8 0-1.8 0.1-2.6 0.4-1.8 0.6-2.6 3.3-4.2 7.5-3.4 9-11 31.8-14.7 42.5-0.8 2.6-1.2 3.4-2.3 3.4-1 0-1.5-0.8-2.6-3.4l-15.2-35.4h-0.1c-1.3 3-11.3 28.4-14.3 35-1.3 3-1.8 3.8-2.9 3.8-0.9 0-1.3-0.7-2-2.6 0 0-15.7-45.6-15.7-45.6z"/>
					<path class="s2" d="m468.6 275.8c0-12.3 8.6-28.1 31.1-28.1 18.8 0 30.4 10.3 30.4 26.8 0 16.5-12 29.4-31.1 29.4-21.7 0-30.4-15.4-30.4-28.1zm50.5 1.3c0-15.8-9.6-25.6-21.6-25.6-8.2 0-18 4.4-18 22.1 0 14.8 8.5 26.4 22.5 26.4 5.2 0 17.1-2.4 17.1-22.9z"/>
					<path class="s2" d="m553.9 282.1c0 9.2 0 13.8 1.6 15.1 1.3 1.1 4.2 1.6 9.9 1.6 4 0 6.9-0.1 8.7-2.1 1-0.9 1.7-2.9 1.9-4.3 0.1-0.7 0.2-1.1 0.8-1.1 0.5 0 0.7 0.8 0.7 1.6 0 0.9-0.5 6.2-1.1 8.3-0.5 1.6-0.8 1.9-4.7 1.9-5.3 0-9.7 0-13.4-0.2-3.7-0.1-6.8-0.2-9.8-0.2-0.9 0-2.5 0.1-4.3 0.1-1.7 0.1-3.6 0.2-5.1 0.2-0.9 0-1.5-0.3-1.5-0.8 0-0.3 0.3-0.8 1.2-0.8 1.1 0 2 0 2.6-0.2 1.6-0.3 2-1.7 2.2-3.8 0.4-3 0.4-8.7 0.4-15.3v-12.7c0-10.9 0-12.9-0.1-15.2-0.2-2.4-0.9-3.2-3.2-3.8-0.6-0.2-1.5-0.3-2.5-0.3q-1.2 0-1.3-0.8c0-0.5 0.6-0.6 1.7-0.6 3.4 0 8.2 0.1 10.2 0.1 1.7 0 7.8-0.1 10.7-0.1 1.1 0 1.6 0.1 1.6 0.6 0 0.6-0.4 0.8-1.3 0.8-0.9 0-2.1 0.1-2.9 0.3-2 0.3-2.6 1.3-2.8 3.8-0.2 2.3-0.2 4.3-0.2 15.2v12.7z"/>
					<path class="s2" d="m590.6 269.4c0-10.8 0-12.9-0.1-15.1-0.2-2.5-0.9-3.3-3.2-3.9-0.6-0.2-1.9-0.3-3-0.3-0.7 0-1.3-0.2-1.3-0.7 0-0.5 0.6-0.7 1.7-0.7 3.9 0 8.7 0.2 10.8 0.2 2.2 0 7.6-0.2 12.1-0.2 9.2 0 21.7 0 29.9 8.2 3.7 3.7 7 9.7 7 18.2 0 9.1-3.9 15.9-8.1 20-3.4 3.4-11.3 8.5-25 8.5-2.7 0-5.9-0.3-8.8-0.4-3-0.3-5.7-0.5-7.5-0.5-0.9 0-2.5 0.1-4.3 0.1-1.7 0.1-3.6 0.2-5.1 0.2-0.9 0-1.5-0.3-1.5-0.8 0-0.3 0.3-0.7 1.2-0.7 1.1 0 2-0.1 2.6-0.3 1.6-0.3 2-1.7 2.2-3.8 0.4-3 0.4-8.7 0.4-15.3zm9.9 8c0 7.6 0.1 13 0.2 14.5 0.1 1.7 0.3 4.3 0.8 5 1 1.4 3.9 2.9 9.8 2.9 6.7 0 11.7-1.2 16.2-4.9 4.8-4 6.3-10.4 6.3-17.8 0-9.1-3.6-15-6.9-17.9-6.9-6.1-15-6.8-20.8-6.8-1.5 0-4 0.1-4.5 0.5-0.7 0.2-1 0.6-1 1.4-0.1 2.5-0.1 8.4-0.1 14v9.1z"/>
				</g>
				<g>
					<path class="s2" d="m8.5 360.7c0-12.9 0-15.2-0.1-17.9-0.2-2.9-0.9-4.2-3.7-4.8-0.7-0.2-2.1-0.3-3.3-0.3-0.9 0-1.4-0.1-1.4-0.7 0-0.6 0.6-0.8 1.9-0.8 4.5 0 9.8 0.3 12.1 0.3 2.6 0 8-0.3 13-0.3 10.6 0 24.7 0 33.9 9.6 4.2 4.4 8.2 11.4 8.2 21.5 0 10.6-4.5 18.7-9.2 23.5-3.9 4-12.7 10-28.3 10-3 0-6.5-0.2-9.7-0.5-3.2-0.3-6.2-0.5-8.3-0.5-0.9 0-2.8 0-4.8 0.1-1.9 0-4.1 0.1-5.8 0.1-1.1 0-1.7-0.2-1.7-0.8 0-0.4 0.3-0.7 1.3-0.7 1.3 0 2.3-0.2 3.1-0.3 1.7-0.4 2.1-2.2 2.4-4.7 0.4-3.5 0.4-10.2 0.4-18 0 0 0-14.8 0-14.8zm10.6 9.3c0 8.9 0.1 15.4 0.2 17 0 2.1 0.2 5.5 0.9 6.5 1.1 1.6 4.4 3.3 11 3.3 8.7 0 14.4-1.7 19.5-6 5.4-4.7 7.1-12.4 7.1-21.1 0-10.7-4.5-17.6-8.2-21.1-7.7-7.4-17.4-8.4-23.9-8.4-1.7 0-4.8 0.2-5.5 0.6-0.8 0.3-1 0.7-1 1.6-0.1 2.9-0.1 10.3-0.1 16.9 0 0 0 10.7 0 10.7z"/>
					<path class="s2" d="m82.5 366.5c0-10.9 0-12.9-0.1-15.2-0.2-2.4-0.8-3.2-3.2-3.9-0.6-0.1-1.9-0.2-3-0.2-0.7 0-1.2-0.3-1.2-0.8 0-0.5 0.6-0.7 1.7-0.7 3.8 0 8.6 0.2 10.7 0.2 2.4 0 18.8 0.1 20.3 0 1.3-0.1 2.5-0.3 3.1-0.4 0.4-0.1 0.8-0.3 1.2-0.3 0.4 0 0.5 0.3 0.5 0.6 0 0.5-0.4 1.4-0.6 4.7-0.1 0.7-0.3 3.9-0.4 4.7-0.1 0.4-0.3 1.2-0.9 1.2-0.5 0-0.6-0.3-0.6-0.9 0-0.5 0-1.8-0.5-2.7-0.6-1.2-1.2-2.2-4.9-2.6-1.2-0.1-10.1-0.3-11.6-0.3-0.4 0-0.5 0.2-0.5 0.7v17.7c0 0.4 0 0.8 0.5 0.8 1.7 0 11.3 0 13-0.2 1.8-0.2 2.9-0.4 3.5-1.1 0.6-0.5 0.9-0.9 1.2-0.9 0.4 0 0.6 0.3 0.6 0.7 0 0.4-0.2 1.6-0.6 5.2-0.2 1.5-0.3 4.4-0.3 4.9 0 0.5-0.1 1.6-0.8 1.6-0.5 0-0.7-0.3-0.7-0.6-0.1-0.8-0.1-1.7-0.2-2.6-0.4-1.5-1.4-2.6-4.2-2.8-1.3-0.2-9.8-0.4-11.6-0.4-0.3 0-0.4 0.4-0.4 0.8v5.7c0 2.5-0.1 8.6 0 10.7 0.1 4.9 2.4 6 10 6 2 0 5.1-0.1 7-1 1.9-0.8 2.7-2.3 3.2-5.3 0.2-0.7 0.4-1.1 0.9-1.1 0.6 0 0.7 0.9 0.7 1.7 0 1.6-0.6 6.5-1 7.9-0.6 1.9-1.2 1.9-4 1.9-5.6 0-10.1-0.1-13.7-0.2-3.6-0.1-6.4-0.2-8.6-0.2-0.8 0-2.5 0.1-4.2 0.1-1.8 0-3.7 0.1-5.2 0.1-0.9 0-1.4-0.2-1.4-0.7 0-0.4 0.2-0.8 1.2-0.8 1.1 0 1.9-0.1 2.6-0.2 1.5-0.4 1.9-1.7 2.2-3.8 0.3-3.1 0.3-8.7 0.3-15.3v-12.7z"/>
					<path class="s2" d="m134.1 390.2c0.2 5.6 1.1 7.3 2.5 7.8 1.3 0.4 2.7 0.5 3.9 0.5 0.8 0 1.3 0.4 1.3 0.8 0 0.6-0.7 0.7-1.7 0.7-4.8 0-8.3-0.2-9.7-0.2-0.6 0-4.2 0.2-8 0.2-1 0-1.7 0-1.7-0.7 0-0.4 0.5-0.8 1.2-0.8 1 0 2.4-0.1 3.4-0.3 1.9-0.5 2.2-2.5 2.3-8.7l0.7-42.6c0-1.4 0.5-2.4 1.2-2.4 1 0 2 1.1 3.2 2.3 1 1 12.1 12.4 22.9 22.9 5.1 5 15 15.1 16.1 16.2h0.3l-0.8-32c0-4.4-0.7-5.6-2.5-6.3-1.1-0.4-2.9-0.4-3.9-0.4-0.9 0-1.1-0.4-1.1-0.8 0-0.6 0.7-0.7 1.8-0.7 3.9 0 7.9 0.2 9.5 0.2 0.8 0 3.6-0.2 7.2-0.2 1 0 1.7 0.1 1.7 0.7 0 0.4-0.4 0.8-1.2 0.8-0.8 0-1.4 0-2.3 0.2-2.1 0.6-2.6 1.9-2.7 5.9l-0.9 45.3c0 1.6-0.6 2.3-1.1 2.3-1.3 0-2.3-0.8-3.1-1.5-4.6-4.3-13.9-13.2-21.7-20.7-8.1-7.8-15.9-16.5-17.4-17.7h-0.2l0.8 29.3z"/>
					<path class="s2" d="m210.3 350.1l-11 0.3c-4.3 0.1-6.1 0.6-7.2 2.2-0.8 1-1.1 1.9-1.3 2.4-0.2 0.6-0.3 0.9-0.8 0.9-0.5 0-0.7-0.4-0.7-1.1 0-1.2 1.4-8.1 1.6-8.7 0.2-1 0.4-1.4 0.8-1.4 0.6 0 1.4 0.6 3.3 0.9 2.2 0.2 4.9 0.3 7.4 0.3h30.1c2.4 0 4-0.2 5.1-0.3 1.2-0.2 1.8-0.4 2-0.4 0.5 0 0.6 0.4 0.6 1.5 0 1.6-0.1 6.9-0.1 8.7-0.1 0.8-0.3 1.2-0.7 1.2-0.6 0-0.8-0.3-0.9-1.4v-0.8c-0.2-1.8-2.2-4-8.8-4.1l-9.4-0.2v29.1c0 6.5 0.1 12.2 0.4 15.3 0.3 2.1 0.7 3.4 2.9 3.7 1 0.2 2.7 0.3 3.8 0.3 0.8 0 1.2 0.4 1.2 0.7 0 0.6-0.6 0.8-1.5 0.8-4.9 0-9.8-0.2-12-0.2-1.6 0-6.7 0.2-9.7 0.2-0.9 0-1.4-0.2-1.4-0.8 0-0.3 0.2-0.7 1.2-0.7 1.1 0 2-0.1 2.6-0.3 1.5-0.3 1.9-1.7 2.2-3.8 0.3-3 0.3-8.7 0.3-15.3v-29z"/>
					<path class="s2" d="m252 382c-0.4 0-0.5 0-0.6 0.5l-4 9.6c-0.8 1.8-1.1 3.5-1.1 4.4 0 1.3 0.7 2 3 2h1c1 0 1.1 0.4 1.1 0.8 0 0.6-0.4 0.7-1.1 0.7-2.5 0-5.9-0.2-8.3-0.2-0.8 0-4.7 0.2-8.6 0.2-0.9 0-1.4-0.1-1.4-0.7 0-0.4 0.3-0.8 0.9-0.8 0.7 0 1.5-0.1 2.2-0.1 3.4-0.5 4.6-2.7 6.1-6.3l19.5-45.2c0.8-2 1.4-2.9 2.1-2.9 1.1 0 1.5 0.7 2.2 2.3 1.8 4 14.2 33.4 19 44.3 2.8 6.5 4.9 7.4 6.3 7.7 1.1 0.1 1.9 0.2 2.8 0.2q1 0 1 0.8c0 0.6-0.4 0.7-3.2 0.7-2.6 0-8 0-14.3-0.1-1.3-0.1-2.2-0.1-2.2-0.6 0-0.4 0.2-0.7 1-0.8 0.5-0.1 1-0.7 0.6-1.6l-5.7-14.4c-0.2-0.5-0.4-0.5-0.8-0.5h-17.4zm15.8-4c0.4 0 0.5-0.2 0.4-0.4l-7-18.3c-0.1-0.2-0.2-0.7-0.4-0.7-0.2 0-0.3 0.5-0.4 0.7l-7.2 18.2c-0.1 0.3 0 0.5 0.3 0.5 0 0 14.3 0 14.3 0z"/>
					<path class="s2" d="m312.2 379.2c0 9.2 0 13.7 1.6 15.1 1.2 1.1 4.1 1.5 9.8 1.5 4 0 6.9-0.1 8.7-2 1-0.9 1.7-3 1.9-4.3 0.1-0.7 0.3-1.1 0.8-1.1 0.6 0 0.7 0.7 0.7 1.6 0 0.8-0.5 6.1-1.1 8.3-0.5 1.6-0.8 1.9-4.7 1.9-5.3 0-9.6-0.1-13.3-0.3-3.8 0-6.9-0.1-9.9-0.1-0.9 0-2.5 0-4.2 0-1.8 0.1-3.7 0.2-5.2 0.2-0.9 0-1.4-0.2-1.4-0.7 0-0.4 0.2-0.8 1.1-0.8 1.1 0 2-0.1 2.7-0.2 1.5-0.4 1.9-1.7 2.2-3.9 0.3-3 0.3-8.6 0.3-15.2v-12.7c0-10.9 0-12.9-0.1-15.2-0.2-2.5-0.8-3.2-3.2-3.9-0.6-0.2-1.5-0.2-2.4-0.2q-1.3 0-1.3-0.8c0-0.5 0.5-0.7 1.6-0.7 3.4 0 8.2 0.2 10.2 0.2 1.8 0 7.9-0.2 10.7-0.2 1.1 0 1.6 0.2 1.6 0.7 0 0.5-0.4 0.8-1.3 0.8-0.9 0-2 0-2.9 0.2-2 0.3-2.6 1.4-2.8 3.9-0.1 2.3-0.1 4.3-0.1 15.2v12.7z"/>
					<path class="s2" d="m377.1 392c-8.3-7.3-10.5-16.7-10.5-24.9 0-5.7 1.8-15.7 9.9-23.1 6.1-5.6 14.1-9 26.7-9 5.2 0 8.3 0.3 12.2 0.8 3.2 0.5 5.9 1.2 8.5 1.5 0.9 0.1 1.2 0.5 1.2 1 0 0.7-0.2 1.7-0.4 4.6-0.2 2.8-0.1 7.5-0.2 9.2-0.1 1.2-0.3 1.9-1 1.9-0.7 0-0.9-0.7-0.9-1.9-0.1-2.6-1.2-5.5-3.3-7.7-2.8-3-9.3-5.3-17.1-5.3-7.4 0-12.2 1.9-15.9 5.3-6.2 5.6-7.8 13.7-7.8 21.8 0 20.1 15.3 30.1 26.6 30.1 7.6 0 12.1-0.8 15.5-4.7 1.4-1.6 2.5-4.1 2.9-5.6 0.2-1.3 0.4-1.7 1.1-1.7 0.5 0 0.7 0.6 0.7 1.3 0 1-1 8.3-1.8 11.2-0.5 1.5-0.8 1.9-2.2 2.5-3.4 1.3-9.8 1.9-15.2 1.9-11.6 0-21.3-2.5-29-9.2z"/>
					<path class="s2" d="m441.7 366.5c0-10.9 0-12.9-0.1-15.2-0.2-2.4-0.8-3.2-3.2-3.9-0.6-0.1-1.9-0.2-3-0.2-0.7 0-1.2-0.3-1.2-0.8 0-0.5 0.5-0.7 1.6-0.7 3.9 0 8.7 0.2 10.8 0.2 2.3 0 18.8 0.1 20.2 0 1.4-0.1 2.6-0.3 3.2-0.4 0.4-0.1 0.8-0.3 1.2-0.3 0.4 0 0.5 0.3 0.5 0.6 0 0.5-0.5 1.4-0.6 4.7-0.1 0.7-0.3 3.9-0.4 4.7-0.1 0.4-0.3 1.2-0.9 1.2-0.5 0-0.6-0.3-0.6-0.9 0-0.5-0.1-1.8-0.5-2.7-0.6-1.2-1.2-2.2-4.9-2.6-1.3-0.1-10.1-0.3-11.6-0.3-0.4 0-0.5 0.2-0.5 0.7v17.7c0 0.4 0 0.8 0.5 0.8 1.7 0 11.3 0 13-0.2 1.7-0.2 2.8-0.4 3.5-1.1 0.6-0.5 0.9-0.9 1.2-0.9 0.3 0 0.6 0.3 0.6 0.7 0 0.4-0.2 1.6-0.6 5.2-0.2 1.5-0.3 4.4-0.3 4.9 0 0.5-0.1 1.6-0.8 1.6-0.5 0-0.7-0.3-0.7-0.6-0.1-0.8-0.1-1.7-0.2-2.6-0.4-1.5-1.4-2.6-4.2-2.8-1.3-0.2-9.8-0.4-11.6-0.4-0.4 0-0.4 0.4-0.4 0.8v5.7c0 2.5-0.1 8.6 0 10.7 0.1 4.9 2.4 6 10 6 2 0 5.1-0.1 7-1 1.9-0.8 2.7-2.3 3.2-5.3 0.2-0.7 0.4-1.1 0.9-1.1 0.6 0 0.7 0.9 0.7 1.7 0 1.6-0.6 6.5-1.1 7.9-0.5 1.9-1.1 1.9-3.9 1.9-5.6 0-10.1-0.1-13.7-0.2-3.6-0.1-6.4-0.2-8.6-0.2-0.9 0-2.5 0.1-4.2 0.1-1.8 0-3.7 0.1-5.2 0.1-0.9 0-1.4-0.2-1.4-0.7 0-0.4 0.2-0.8 1.2-0.8 1.1 0 1.9-0.1 2.6-0.2 1.5-0.4 1.9-1.7 2.2-3.8 0.3-3.1 0.3-8.7 0.3-15.3v-12.7z"/>
					<path class="s2" d="m493.3 390.2c0.1 5.6 1.1 7.3 2.5 7.8 1.3 0.4 2.7 0.5 3.9 0.5 0.8 0 1.2 0.4 1.2 0.8 0 0.6-0.6 0.7-1.7 0.7-4.8 0-8.2-0.2-9.6-0.2-0.7 0-4.2 0.2-8 0.2-1 0-1.7 0-1.7-0.7 0-0.4 0.5-0.8 1.2-0.8 1 0 2.3-0.1 3.4-0.3 1.9-0.5 2.2-2.5 2.2-8.7l0.7-42.6c0-1.4 0.5-2.4 1.3-2.4 0.9 0 1.9 1.1 3.2 2.3 0.9 1 12.1 12.4 22.9 22.9 5.1 5 14.9 15.1 16 16.2h0.4l-0.8-32c-0.1-4.4-0.7-5.6-2.5-6.3-1.1-0.4-2.9-0.4-3.9-0.4-0.9 0-1.2-0.4-1.2-0.8 0-0.6 0.8-0.7 1.9-0.7 3.9 0 7.8 0.2 9.5 0.2 0.8 0 3.6-0.2 7.2-0.2 1 0 1.7 0.1 1.7 0.7 0 0.4-0.4 0.8-1.3 0.8-0.7 0-1.3 0-2.2 0.2-2.1 0.6-2.7 1.9-2.7 5.9l-0.9 45.3c0 1.6-0.6 2.3-1.2 2.3-1.2 0-2.2-0.8-3-1.5-4.6-4.3-13.9-13.2-21.7-20.7-8.1-7.8-16-16.5-17.4-17.7h-0.3l0.9 29.3z"/>
					<path class="s2" d="m569.5 350.1l-11.1 0.3c-4.3 0.1-6 0.6-7.1 2.2-0.8 1-1.1 1.9-1.3 2.4-0.2 0.6-0.3 0.9-0.8 0.9-0.5 0-0.7-0.4-0.7-1.1 0-1.2 1.4-8.1 1.6-8.7 0.2-1 0.4-1.4 0.8-1.4 0.6 0 1.4 0.6 3.2 0.9 2.2 0.2 5 0.3 7.5 0.3h30.1c2.4 0 4-0.2 5.1-0.3 1.2-0.2 1.8-0.4 2-0.4 0.5 0 0.6 0.4 0.6 1.5 0 1.6-0.2 6.9-0.2 8.7 0 0.8-0.2 1.2-0.6 1.2-0.6 0-0.8-0.3-0.9-1.4l-0.1-0.8c-0.1-1.8-2.1-4-8.7-4.1l-9.4-0.2v29.1c0 6.5 0.1 12.2 0.4 15.3 0.3 2.1 0.7 3.4 2.9 3.7 1 0.2 2.7 0.3 3.8 0.3 0.8 0 1.2 0.4 1.2 0.7 0 0.6-0.6 0.8-1.5 0.8-4.9 0-9.9-0.2-12-0.2-1.7 0-6.7 0.2-9.7 0.2-0.9 0-1.4-0.2-1.4-0.8 0-0.3 0.2-0.7 1.1-0.7 1.1 0 2.1-0.1 2.7-0.3 1.5-0.3 1.9-1.7 2.2-3.8 0.3-3 0.3-8.7 0.3-15.3v-29z"/>
					<path class="s2" d="m613.1 366.5c0-10.9 0-12.9-0.1-15.2-0.2-2.4-0.9-3.2-3.2-3.9-0.6-0.1-1.9-0.2-3-0.2-0.8 0-1.3-0.3-1.3-0.8 0-0.5 0.6-0.7 1.7-0.7 3.9 0 8.6 0.2 10.8 0.2 2.3 0 18.8 0.1 20.2 0 1.4-0.1 2.6-0.3 3.2-0.4 0.4-0.1 0.8-0.3 1.1-0.3 0.5 0 0.5 0.3 0.5 0.6 0 0.5-0.4 1.4-0.5 4.7-0.1 0.7-0.3 3.9-0.5 4.7 0 0.4-0.2 1.2-0.8 1.2-0.5 0-0.6-0.3-0.6-0.9 0-0.5-0.1-1.8-0.5-2.7-0.6-1.2-1.2-2.2-4.9-2.6-1.3-0.1-10.1-0.3-11.7-0.3-0.3 0-0.5 0.2-0.5 0.7v17.7c0 0.4 0.1 0.8 0.5 0.8 1.7 0 11.4 0 13.1-0.2 1.7-0.2 2.8-0.4 3.5-1.1 0.6-0.5 0.8-0.9 1.2-0.9 0.3 0 0.6 0.3 0.6 0.7 0 0.4-0.2 1.6-0.6 5.2-0.2 1.5-0.4 4.4-0.4 4.9 0 0.5 0 1.6-0.7 1.6-0.5 0-0.7-0.3-0.7-0.6-0.1-0.8-0.1-1.7-0.2-2.6-0.5-1.5-1.4-2.6-4.2-2.8-1.3-0.2-9.8-0.4-11.6-0.4-0.4 0-0.5 0.4-0.5 0.8v5.7c0 2.5 0 8.6 0 10.7 0.2 4.9 2.5 6 10.1 6 1.9 0 5.1-0.1 7-1 1.9-0.8 2.7-2.3 3.2-5.3 0.2-0.7 0.4-1.1 0.9-1.1 0.5 0 0.6 0.9 0.6 1.7 0 1.6-0.6 6.5-1 7.9-0.5 1.9-1.2 1.9-3.9 1.9-5.6 0-10.1-0.1-13.7-0.2-3.7-0.1-6.4-0.2-8.6-0.2-0.9 0-2.5 0.1-4.3 0.1-1.7 0-3.6 0.1-5.1 0.1-0.9 0-1.4-0.2-1.4-0.7 0-0.4 0.2-0.8 1.1-0.8 1.1 0 2-0.1 2.7-0.2 1.5-0.4 1.9-1.7 2.1-3.8 0.4-3.1 0.4-8.7 0.4-15.3v-12.7z"/>
					<path class="s2" d="m660 366.5c0-10.9 0-12.9-0.1-15.2-0.1-2.4-0.8-3.2-3.2-3.9-0.6-0.1-1.8-0.2-2.9-0.2-0.8 0-1.3-0.3-1.3-0.8 0-0.5 0.6-0.7 1.7-0.7 3.9 0 8.6 0.2 10.1 0.2 2.5 0 9.3-0.2 11.6-0.2 4.7 0 10.1 0.5 14.1 3.1 2.1 1.4 5.2 5.1 5.2 9.9 0 5.3-3 10-10.3 15.8 6.6 8.2 11.9 14.7 16.3 19.1 4.2 4.2 6.8 4.5 8 4.8 0.7 0.1 1.2 0.1 1.7 0.1 0.6 0 1 0.4 1 0.8 0 0.6-0.5 0.7-1.5 0.7h-7.1c-4.1 0-6.1-0.4-8.1-1.4-3.2-1.6-6-5-10.1-10.6-3-3.8-6.1-8.7-7-9.8-0.4-0.4-0.9-0.5-1.4-0.5l-6.6-0.1c-0.4 0-0.6 0.1-0.6 0.5v1.1c0 6.6 0.1 12.2 0.4 15.2 0.2 2.2 0.6 3.5 2.9 3.8 1.1 0.2 2.7 0.3 3.6 0.3 0.6 0 0.9 0.4 0.9 0.8 0 0.5-0.6 0.7-1.5 0.7-4.3 0-10.5-0.2-11.6-0.2-1.4 0-6.1 0.2-9.1 0.2-0.9 0-1.4-0.2-1.4-0.7 0-0.4 0.2-0.8 1.2-0.8 1.1 0 1.9-0.1 2.6-0.3 1.5-0.3 1.9-1.6 2.2-3.8 0.3-3 0.3-8.7 0.3-15.2v-12.7zm9.5 5.6c0 0.7 0.1 1 0.6 1.2 1.7 0.5 3.8 0.7 5.7 0.7 3 0 4-0.2 5.2-1.2 2.3-1.6 4.9-4.7 4.9-10.6 0-10.1-7-12.8-11.4-12.8-1.8 0-3.6 0.1-4.4 0.3-0.5 0.2-0.6 0.4-0.6 1 0 0 0 21.4 0 21.4z"/>
				</g>
				<g>
					<path class="s3" d="m186.2 446c0-6.1 0-7.3-0.1-8.6-0.1-1.3-0.4-2-1.7-2.3-0.4 0-1-0.1-1.6-0.1-0.4 0-0.7-0.1-0.7-0.3 0-0.3 0.3-0.4 0.9-0.4 2.1 0 4.7 0.1 5.8 0.1 1.3 0 3.8-0.1 6.2-0.1 5.1 0 11.8 0 16.2 4.6 2 2.1 3.9 5.4 3.9 10.2 0 5.1-2.1 9-4.4 11.3-1.9 1.9-6 4.8-13.5 4.8-1.5 0-3.1-0.2-4.7-0.3-1.5-0.1-2.9-0.2-3.9-0.2-0.5 0-1.3 0-2.3 0-0.9 0-2 0.1-2.8 0.1q-0.8 0-0.8-0.4c0-0.2 0.2-0.3 0.6-0.3 0.7 0 1.1-0.1 1.5-0.2 0.8-0.1 1-1 1.2-2.2 0.2-1.7 0.2-4.9 0.2-8.6v-7.1zm5 4.5c0 4.2 0.1 7.3 0.1 8.1 0 1 0.1 2.6 0.4 3.1 0.6 0.7 2.1 1.6 5.3 1.6 4.1 0 6.9-0.8 9.3-2.9 2.6-2.2 3.4-5.9 3.4-10.1 0-5.1-2.1-8.4-3.9-10.1-3.7-3.5-8.3-4-11.4-4-0.8 0-2.3 0.1-2.7 0.3-0.3 0.1-0.4 0.3-0.4 0.8-0.1 1.4-0.1 4.9-0.1 8.1v5z"/>
					<path class="s3" d="m223.6 446c0-6.1 0-7.3-0.1-8.6-0.1-1.3-0.4-2-1.8-2.3-0.3 0-1-0.1-1.5-0.1-0.5 0-0.7-0.1-0.7-0.3 0-0.3 0.3-0.4 0.9-0.4 2.1 0 4.7 0.1 5.5 0.1 1.4 0 4.4-0.1 5.7-0.1 2.5 0 5.2 0.2 7.4 1.7 1.1 0.8 2.8 2.9 2.8 5.6 0 3-1.3 5.7-5.4 9 3.6 4.5 6.4 8.1 8.8 10.6 2.3 2.4 3.9 2.6 4.5 2.8q0.7 0.1 1.1 0.1 0.5 0 0.5 0.3c0 0.3-0.3 0.4-0.7 0.4h-3.9c-2.2 0-3.2-0.2-4.3-0.8-1.7-0.9-3.3-2.8-5.5-5.9-1.6-2.2-3.5-5-4-5.6-0.2-0.2-0.5-0.2-0.7-0.2l-3.6-0.1c-0.2 0-0.3 0.1-0.3 0.3v0.6c0 3.7 0 6.9 0.2 8.6 0.1 1.2 0.4 2 1.6 2.2 0.6 0.1 1.5 0.2 2 0.2q0.5 0 0.5 0.3 0 0.4-0.9 0.4c-2.3 0-5.3-0.1-5.9-0.1-0.8 0-3.3 0.1-4.9 0.1q-0.8 0-0.8-0.4c0-0.2 0.1-0.3 0.6-0.3 0.6 0 1.1-0.1 1.5-0.2 0.8-0.2 1-1 1.2-2.2 0.2-1.7 0.2-4.9 0.2-8.6v-7.1zm4.7 3.2c0 0.4 0.1 0.6 0.4 0.7 0.8 0.3 2 0.4 3 0.4 1.7 0 2.2-0.2 2.9-0.7 1.2-0.9 2.4-2.7 2.4-6 0-5.8-3.8-7.4-6.2-7.4-1 0-1.7 0-2.1 0.2-0.3 0-0.4 0.2-0.4 0.5v12.3z"/>
					<path class="s3" d="m250 462.2c0-1 0.7-2.4 2.5-2.4 1.3 0 2.4 0.9 2.4 2.3 0 1.4-0.9 2.6-2.5 2.6-1.7 0-2.4-1.4-2.4-2.5z"/>
					<path class="s3" d="m276.2 446c0-6.1 0-7.3 0-8.6-0.1-1.3-0.5-2-1.4-2.2-0.4-0.1-1-0.2-1.5-0.2-0.4 0-0.6-0.1-0.6-0.4 0-0.2 0.3-0.3 1-0.3 1.5 0 4 0.1 5.2 0.1 1 0 3.4-0.1 4.9-0.1 0.6 0 0.9 0.1 0.9 0.3 0 0.3-0.3 0.4-0.7 0.4-0.4 0-0.7 0.1-1.2 0.1-1.1 0.2-1.4 0.9-1.5 2.3 0 1.3 0 2.5 0 8.6v7.1c0 3.9 0 7.1 0.1 8.8 0.1 1.1 0.4 1.8 1.6 2 0.6 0.1 1.5 0.2 2.1 0.2q0.6 0 0.6 0.3c0 0.3-0.3 0.4-0.7 0.4-2.7 0-5.2-0.1-6.3-0.1-0.9 0-3.5 0.1-5.1 0.1q-0.8 0-0.8-0.4c0-0.2 0.2-0.3 0.6-0.3 0.7 0 1.1-0.1 1.5-0.2 0.8-0.1 1-0.8 1.2-2 0.2-1.7 0.2-4.9 0.2-8.8v-7.1z"/>
					<path class="s3" d="m292.3 464.3c-0.7-0.3-0.8-0.5-0.8-1.4 0-2.2 0.2-4.6 0.2-5.2 0-0.6 0.2-1.1 0.5-1.1 0.3 0 0.4 0.4 0.4 0.7 0 0.5 0.1 1.4 0.3 2.1 0.9 3 3.3 4 5.8 4 3.6 0 5.4-2.4 5.4-4.6 0-1.9-0.6-3.8-3.9-6.4l-1.9-1.5c-4.4-3.4-6-6.3-6-9.5 0-4.5 3.7-7.7 9.3-7.7 2.7 0 4.4 0.4 5.4 0.7 0.4 0.1 0.6 0.2 0.6 0.5 0 0.5-0.2 1.7-0.2 4.9 0 0.8-0.1 1.2-0.4 1.2q-0.4 0-0.4-0.8c0-0.3-0.2-1.6-1.1-2.6-0.6-0.8-1.8-2-4.4-2-3 0-4.8 1.7-4.8 4.2 0 1.8 1 3.2 4.3 5.8l1.1 0.8c4.9 3.7 6.7 6.5 6.7 10.3 0 2.4-0.9 5.1-3.8 7-2.1 1.3-4.3 1.7-6.5 1.7-2.3 0-4.1-0.3-5.8-1.1z"/>
					<path class="s3" d="m338.7 447.1c0.1 0 0.2-0.1 0.2-0.3v-0.8c0-6.1 0-7.3-0.1-8.6 0-1.3-0.4-2-1.7-2.3-0.3 0-1-0.1-1.6-0.1-0.4 0-0.7-0.1-0.7-0.3 0-0.3 0.3-0.4 0.9-0.4 2.2 0 4.7 0.1 5.8 0.1 1 0 3.5-0.1 5.1-0.1 0.6 0 0.8 0.1 0.8 0.4 0 0.2-0.2 0.3-0.7 0.3q-0.5 0-1.2 0.1c-1 0.2-1.4 0.9-1.4 2.3-0.1 1.3-0.1 2.5-0.1 8.6v7.1c0 3.7 0 6.9 0.2 8.6 0.1 1.2 0.3 2 1.5 2.2 0.6 0.1 1.5 0.2 2.1 0.2q0.7 0 0.7 0.3c0 0.3-0.4 0.4-0.9 0.4-2.6 0-5.1-0.1-6.3-0.1-0.9 0-3.4 0.1-5 0.1q-0.8 0-0.8-0.4c0-0.2 0.1-0.3 0.6-0.3 0.6 0 1.1-0.1 1.5-0.2 0.8-0.2 1-1 1.1-2.2 0.2-1.7 0.2-4.9 0.2-8.6v-3.6c0-0.1-0.1-0.2-0.2-0.2h-15.4c-0.1 0-0.3 0-0.3 0.2v3.6c0 3.7 0 6.9 0.2 8.6 0.2 1.2 0.4 2 1.6 2.2 0.6 0.1 1.5 0.2 2.1 0.2q0.6 0 0.6 0.3c0 0.3-0.3 0.4-0.8 0.4-2.6 0-5.2-0.1-6.3-0.1-0.9 0-3.5 0.1-5.1 0.1q-0.8 0-0.8-0.4c0-0.2 0.2-0.3 0.7-0.3 0.6 0 1.1-0.1 1.4-0.2 0.8-0.2 1-1 1.2-2.2 0.2-1.7 0.2-4.9 0.2-8.6v-7.1c0-6.1 0-7.3-0.1-8.6-0.1-1.3-0.4-2-1.7-2.3-0.3 0-1-0.1-1.6-0.1-0.4 0-0.7-0.1-0.7-0.3 0-0.3 0.3-0.4 0.9-0.4 2.1 0 4.7 0.1 5.8 0.1 0.9 0 3.5-0.1 5.1-0.1 0.5 0 0.8 0.1 0.8 0.4 0 0.2-0.2 0.3-0.7 0.3q-0.5 0-1.2 0.1c-1.1 0.2-1.4 0.9-1.5 2.3-0.1 1.3-0.1 2.5-0.1 8.6v0.8c0 0.2 0.2 0.3 0.3 0.3 0 0 15.4 0 15.4 0z"/>
					<path class="s3" d="m358.8 454.3c-0.2 0-0.3 0-0.3 0.3l-2.2 5.7c-0.4 1.1-0.6 2-0.6 2.5 0 0.7 0.3 1.3 1.6 1.3h0.6c0.5 0 0.6 0 0.6 0.3 0 0.3-0.2 0.4-0.7 0.4-1.3 0-3-0.1-4.3-0.1-0.4 0-2.6 0.1-4.7 0.1-0.5 0-0.8-0.1-0.8-0.4 0-0.3 0.2-0.3 0.5-0.3 0.3 0 0.9-0.1 1.2-0.1 1.9-0.3 2.7-1.6 3.5-3.7l10.1-25.3c0.5-1.2 0.7-1.6 1.1-1.6 0.4 0 0.6 0.3 1 1.3 1 2.2 7.5 18.7 10 24.8 1.6 3.6 2.7 4.2 3.6 4.4 0.6 0.1 1.2 0.2 1.7 0.2 0.3 0 0.5 0 0.5 0.3 0 0.3-0.3 0.4-1.8 0.4-1.5 0-4.4 0-7.7-0.1-0.7 0-1.2 0-1.2-0.3 0-0.3 0.2-0.3 0.6-0.4 0.3-0.1 0.6-0.4 0.4-0.9l-3.3-8.6q-0.1-0.3-0.4-0.2c0 0-9 0-9 0zm8.3-2.1c0.2 0 0.2-0.1 0.2-0.2l-3.7-10c0-0.1-0.1-0.3-0.2-0.3-0.1 0-0.2 0.2-0.2 0.3l-3.7 10c-0.1 0.1 0 0.2 0.1 0.2z"/>
					<path class="s3" d="m390.4 447.8h0.2c1.4-1.5 7.2-7.5 8.4-8.9 1.1-1.3 2-2.3 2-3 0-0.5-0.1-0.8-0.5-0.8-0.4-0.1-0.5-0.2-0.5-0.5 0-0.2 0.1-0.3 0.6-0.3 0.9 0 3.1 0.1 4.2 0.1 1.2 0 3.4-0.1 4.7-0.1 0.4 0 0.7 0.1 0.7 0.3 0 0.3-0.2 0.4-0.6 0.4-0.6 0-1.6 0.2-2.4 0.4-1.2 0.5-2.6 1.4-4.3 3.1-1.3 1.2-7.4 7.2-8.7 8.7 1.4 1.9 9.3 10.4 10.9 11.9 1.8 1.7 3.6 3.5 5.8 4.3 1.2 0.5 2 0.6 2.5 0.6 0.2 0 0.5 0.1 0.5 0.4 0 0.2-0.2 0.4-1 0.4h-3.5c-1.2 0-1.9 0-2.8-0.1-2.2-0.2-3.3-1.1-5-2.6-1.8-1.6-9.7-10.9-10.6-12.1l-0.4-0.6h-0.2v3.7c0 3.7 0 6.9 0.1 8.6 0.1 1.1 0.5 2 1.5 2.2 0.5 0.1 1.4 0.1 2 0.1 0.3 0 0.5 0.2 0.5 0.4 0 0.2-0.3 0.4-0.8 0.4-2.3 0-4.8-0.2-5.8-0.2-0.9 0-3.5 0.2-5.1 0.2q-0.8 0-0.8-0.4c0-0.2 0.2-0.4 0.7-0.4 0.6 0 1 0 1.4-0.1 0.8-0.2 1-1.1 1.2-2.2 0.2-1.7 0.2-4.9 0.2-8.6v-7.1c0-6.2 0-7.3-0.1-8.6-0.1-1.4-0.4-2-1.7-2.3-0.4-0.1-1.1-0.1-1.6-0.1-0.5 0-0.7-0.1-0.7-0.4 0-0.2 0.3-0.3 0.9-0.3 2.1 0 4.7 0.1 5.6 0.1 1 0 3.5-0.1 4.9-0.1 0.6 0 0.9 0.1 0.9 0.3 0 0.3-0.3 0.4-0.6 0.4-0.4 0-0.6 0-1.1 0.1-1.1 0.2-1.4 0.9-1.5 2.3-0.1 1.3-0.1 2.4-0.1 8.6v1.7z"/>
					<path class="s3" d="m426.4 464.3c-0.7-0.3-0.8-0.5-0.8-1.4 0-2.2 0.2-4.6 0.2-5.2 0-0.6 0.2-1.1 0.5-1.1 0.3 0 0.4 0.4 0.4 0.7 0 0.5 0.1 1.4 0.3 2.1 0.9 3 3.3 4 5.8 4 3.6 0 5.4-2.4 5.4-4.6 0-1.9-0.6-3.8-3.9-6.4l-1.9-1.5c-4.4-3.4-6-6.3-6-9.5 0-4.5 3.7-7.7 9.3-7.7 2.7 0 4.4 0.4 5.4 0.7 0.4 0.1 0.6 0.2 0.6 0.5 0 0.5-0.2 1.7-0.2 4.9 0 0.8-0.1 1.2-0.4 1.2q-0.4 0-0.4-0.8c0-0.3-0.2-1.6-1.1-2.6-0.6-0.8-1.8-2-4.4-2-3 0-4.8 1.7-4.8 4.2 0 1.8 0.9 3.2 4.3 5.8l1.1 0.8c4.9 3.7 6.6 6.5 6.6 10.3 0 2.4-0.8 5.1-3.7 7-2.1 1.3-4.3 1.7-6.5 1.7-2.3 0-4.1-0.3-5.9-1.1z"/>
					<path class="s3" d="m453.7 454.3c-0.2 0-0.3 0-0.4 0.3l-2.2 5.7c-0.4 1.1-0.6 2-0.6 2.5 0 0.7 0.4 1.3 1.6 1.3h0.7c0.4 0 0.6 0 0.6 0.3 0 0.3-0.3 0.4-0.7 0.4-1.3 0-3.1-0.1-4.3-0.1-0.5 0-2.7 0.1-4.8 0.1-0.5 0-0.7-0.1-0.7-0.4 0-0.3 0.1-0.3 0.4-0.3 0.4 0 1-0.1 1.3-0.1 1.8-0.3 2.6-1.6 3.4-3.7l10.1-25.3c0.5-1.2 0.8-1.6 1.2-1.6 0.3 0 0.6 0.3 1 1.3 1 2.2 7.4 18.7 10 24.8 1.5 3.6 2.7 4.2 3.5 4.4 0.6 0.1 1.3 0.2 1.7 0.2 0.4 0 0.6 0 0.6 0.3 0 0.3-0.4 0.4-1.9 0.4-1.5 0-4.4 0-7.6-0.1-0.7 0-1.2 0-1.2-0.3 0-0.3 0.1-0.3 0.5-0.4 0.3-0.1 0.6-0.4 0.4-0.9l-3.2-8.6q-0.1-0.3-0.4-0.2c0 0-9 0-9 0zm8.2-2.1c0.2 0 0.3-0.1 0.2-0.2l-3.6-10c0-0.1-0.1-0.3-0.2-0.3-0.1 0-0.2 0.2-0.2 0.3l-3.8 10c0 0.1 0 0.2 0.2 0.2h7.4z"/>
					<path class="s3" d="m480.3 446c0-6.1 0-7.3-0.1-8.6 0-1.3-0.4-2-1.3-2.2-0.5-0.1-1-0.2-1.5-0.2-0.4 0-0.6-0.1-0.6-0.4 0-0.2 0.3-0.3 1-0.3 1.5 0 4 0.1 5.2 0.1 1 0 3.4-0.1 4.9-0.1 0.6 0 0.9 0.1 0.9 0.3 0 0.3-0.3 0.4-0.7 0.4-0.4 0-0.7 0.1-1.2 0.1-1.1 0.2-1.4 0.9-1.5 2.3-0.1 1.3-0.1 2.5-0.1 8.6v7.1c0 3.9 0 7.1 0.2 8.8 0.1 1.1 0.4 1.8 1.6 2 0.6 0.1 1.5 0.2 2.1 0.2q0.6 0 0.6 0.3c0 0.3-0.3 0.4-0.7 0.4-2.7 0-5.2-0.1-6.3-0.1-1 0-3.5 0.1-5.1 0.1q-0.8 0-0.8-0.4c0-0.2 0.1-0.3 0.6-0.3 0.6 0 1.1-0.1 1.5-0.2 0.8-0.1 1-0.8 1.2-2 0.2-1.7 0.2-4.9 0.2-8.8v-7.1z"/>
					<path class="s3" d="m498.6 446c0-6.1 0-7.3-0.1-8.6-0.1-1.3-0.4-2-1.8-2.3-0.3 0-1-0.1-1.5-0.1-0.5 0-0.7-0.1-0.7-0.3 0-0.3 0.3-0.4 0.9-0.4 2.1 0 4.7 0.1 5.8 0.1 1.2 0 3.8-0.1 6.2-0.1 5 0 11.8 0 16.2 4.6 2 2.1 3.9 5.4 3.9 10.2 0 5.1-2.2 9-4.4 11.3-1.9 1.9-6.1 4.8-13.5 4.8-1.5 0-3.1-0.2-4.7-0.3-1.5-0.1-2.9-0.2-3.9-0.2-0.5 0-1.4 0-2.3 0-1 0-2 0.1-2.8 0.1q-0.8 0-0.8-0.4c0-0.2 0.1-0.3 0.6-0.3 0.6 0 1.1-0.1 1.5-0.2 0.8-0.1 1-1 1.1-2.2 0.2-1.7 0.2-4.9 0.2-8.6v-7.1zm5.1 4.5c0 4.2 0 7.3 0.1 8.1 0 1 0.1 2.6 0.4 3.1 0.5 0.7 2.1 1.6 5.3 1.6 4.1 0 6.9-0.8 9.3-2.9 2.6-2.2 3.4-5.9 3.4-10.1 0-5.1-2.2-8.4-3.9-10.1-3.7-3.5-8.3-4-11.5-4-0.8 0-2.3 0.1-2.6 0.3-0.3 0.1-0.5 0.3-0.5 0.8 0 1.4 0 4.9 0 8.1v5z"/>
				</g>
				<path fill-rule="evenodd" class="s0" d="m3.2 451.9h159.9v1.1h-159.9z"/>
				<path fill-rule="evenodd" class="s0" d="m550.6 451.9h165.4v1.1h-165.4z"/>
			</g>
		</g>
	</g>
</svg>