<svg version="1.2" xmlns="http://www.w3.org/2000/svg" viewBox="0 0 352 274" width="352" height="274">
	<title>30</title>
	<style>
		.s0 { fill: #1a2a6a } 
		.s1 { fill: #21a9f6 } 
		.s2 { fill: #00ff9b } 
		.s3 { fill: #f4ad33 } 
	</style>
	<g>
		<path class="s0" d="m95.3 241.4h-5.8c-1.4 0-2.5-0.3-3.2-1-0.6-0.6-1-1.4-1-2.7v-3.7h-4.2v4.2c0 2.1 0.5 4 1.6 5.2 1.4 1.5 3.3 2.2 6.2 2.2h10.6v-13.4h-4.2z"/>
		<path class="s0" d="m85.5 229.4c0 1.3 1 1.9 2.2 1.9 1.2 0 2.2-0.7 2.2-1.9 0-1.2-0.9-2-2.2-2-1.3 0-2.2 0.8-2.2 2z"/>
		<path class="s0" d="m90.9 229.4c0 1.3 1 1.9 2.2 1.9 1.2 0 2.2-0.7 2.2-1.9 0-1.2-0.9-2-2.2-2-1.3 0-2.2 0.8-2.2 2z"/>
		<path class="s0" d="m144.3 246.6c-1.2 0-2.2 0.8-2.2 1.9 0 1.1 1 2 2.2 2 1.2 0 2.2-0.7 2.2-2 0-1.3-1-1.9-2.2-1.9z"/>
		<path fill-rule="evenodd" class="s0" d="m150.6 232.1h-4.2v9.3h-4.5-0.5-3.3-0.5-3.3-0.5-3.3-0.5-3.3-0.4-3.4-0.4-3.3-0.5-3.3-0.5-3.3-0.5-2.1v-14.7h-4.2v18.8h6.3 0.5 3.3 0.5 3.3 0.5 3.3 0.4 3.4 0.4 3.3 0.5 3.3 0.5 3.3 0.5 3.3 0.5 8.7v-13.4z"/>
		<path class="s0" d="m149.8 246.6c-1.2 0-2.2 0.8-2.2 1.9 0 1.1 1 2 2.2 2 1.2 0 2.2-0.7 2.2-2 0-1.3-0.9-1.9-2.2-1.9z"/>
		<path class="s0" d="m157.5 228.5c0 1.4 1.1 2.1 2.3 2.1 1.2 0 2.3-0.7 2.3-2.1 0-1.4-1-2-2.3-2-1.3 0-2.3 0.8-2.3 2z"/>
		<path class="s0" d="m197.9 233.1h-6.2l3.9-6.4h-5.1l-3.4 6.4c0 1.8 0.6 3.2 1.4 4.2h9.7c0.8 0 1.4 0.2 1.9 0.7 0.4 0.4 0.5 1 0.5 1.7v1.8h-38.7v-9.2h-4.2v12.2c0 1.4-0.7 2.1-1.7 2.1-1 0-0.9 0-1.6-0.2l0.5 4.2c0.4 0.1 1 0.2 1.6 0.2 3.8 0 5.1-1.6 5.4-5.1h42.9v-5.7c0-1.9-0.4-3.8-1.5-5-1.2-1.3-2.9-1.8-5.3-1.8z"/>
		<path class="s0" d="m245.3 233.2c-3.9 0-7.2 3.2-7.2 7.3 0 4.1 0 0.6 0 0.8h-22.8v-9.2h-4.2v12.2c0 1.4-0.7 2.1-1.7 2.1-1 0-0.9 0-1.6-0.2l0.5 4.2c0.4 0.1 1 0.2 1.6 0.2 3.8 0 5.1-1.6 5.4-5.1h25c1.3 1.3 3.1 2.1 5 2.1 3.8 0 7.3-3.1 7.3-7.1 0-4-3.3-7.3-7.3-7.3zm0 10.3c-1.6 0-3-1.3-3-3 0-1.7 1.3-3.1 3-3.1 1.7 0 3.1 1.3 3.1 3.1 0 1.8-1.4 3-3.1 3z"/>
		<path class="s0" d="m35.3 191.3c2.3 0 4.9 1.1 6.8 2.9l4.8-6.1c-3.2-2.9-7.6-4.7-11.6-4.8-9.8 0-17.3 7.1-17.3 16.4 0 9.3 8.3 16.4 17.2 16.4 8.9 0 8.7-1.9 11.7-4.6l-4.8-6.3c-2 1.8-4.4 3.1-7 3.1-4.5 0-8.7-3.6-8.7-8.5 0-4.9 4-8.5 8.9-8.5z"/>
		<path fill-rule="evenodd" class="s0" d="m51.7 215.4h20.4v-7.8h-12.1v-4.5h12.1v-7h-12.1v-4.3h12.1v-7.8h-20.4v31.4z"/>
		<path fill-rule="evenodd" class="s0" d="m86.4 198.3l10.9 17.1h8v-31.4h-8.4v16.2l-11-16.2h-7.9v31.4h8.4v-17.1z"/>
		<path fill-rule="evenodd" class="s0" d="m117.5 215.4h8.4v-23.7h7.6v-7.7h-23.5v7.7h7.5v23.7z"/>
		<path class="s0" d="m146.5 215.4v-12.6h3l5.4 12.6h8.5l-7-12.8c3.1-1.4 5.3-4.5 5.3-8.5 0-5.6-4.9-10.2-11.6-10.2h-12v31.5zm0-23.9h3.4c1.8 0 3.4 1.2 3.4 3.1 0 1.9-1.7 3.2-3.4 3.2h-3.4z"/>
		<path class="s0" d="m177 211.8h11.6l1.6 3.6h9l-14.4-31.5h-3.9l-14.5 31.5h9zm5.8-13.4l3.2 7.4h-6.4z"/>
		<path fill-rule="evenodd" class="s0" d="m224 207.5h-12.1v-23.5h-8.3v31.4h20.4v-7.9z"/>
		<path fill-rule="evenodd" class="s0" d="m229 184h8.4v31.5h-8.4z"/>
		<path fill-rule="evenodd" class="s0" d="m242 191.7h7.6v23.7h8.3v-23.7h7.6v-7.7h-23.5v7.7z"/>
		<path fill-rule="evenodd" class="s0" d="m270.2 184h8.4v31.5h-8.4z"/>
		<path fill-rule="evenodd" class="s0" d="m285.5 215.4h20.4v-7.8h-12.1v-4.5h12.1v-7h-12.1v-4.3h12.1v-7.8h-20.4v31.4z"/>
		<path class="s0" d="m325.4 196.3c-3.4-1.4-5.7-1.8-5.7-3.3 0-1.5 1.3-2 3-2 1.7 0 4 0.8 4.9 2.4l4.9-4.7c-1.2-3.1-5-5.5-9.9-5.5-4.9 0-11.2 4-11.2 9.4 0 5.4 3.4 7.5 7.5 9.3 3.1 1.4 6.4 2.8 6.4 4.5 0 1.7-1.8 2-3.5 2-2.7 0-5.1-1.2-6.5-3.2l-5.1 5c1.6 3.5 6.4 5.8 11.6 5.8 5.2 0 12.1-3.7 12.1-9.8 0-6.1-3.3-7.8-8.3-9.9z"/>
	</g>
	<g>
		<g>
			<g>
				<path class="s1" d="m179.3 24.7h-0.8v-0.4h2.2v0.4h-0.8v2.2h-0.5v-2.2z"/>
				<path class="s1" d="m183.2 25l-0.9 1.1-0.8-1.1v1.9h-0.5v-2.6h0.6l0.8 1.1 0.8-1.1h0.6v2.6h-0.5v-1.9z"/>
			</g>
			<g>
				<path class="s1" d="m175.1 148.5c-3.4 0.6-6.8 0.9-10.3 0.9-35.2 0-62.9-32.9-54-69.5 4.5-18.6 18.4-33.6 36.7-39.2 9.4-2.9 18.8-3.4 27.6-1.7v-15.4c-3.4-0.5-6.8-0.7-10.3-0.7-39.1 0-70.9 31.8-70.9 70.9 0 39.1 31.8 70.9 70.9 70.9 39.1 0 6.9-0.2 10.3-0.7v-15.4z"/>
				<path class="s2" d="m175.1 126.5c-3.3 1.1-6.8 1.6-10.4 1.6-19.4 0-35.1-16.1-34.4-35.6 0.6-17.7 14.8-32.1 32.4-33.1 4.3-0.2 8.5 0.3 12.4 1.6v-15.7c-3.9-0.9-8-1.2-12.1-1.1-26.6 0.9-47.9 23-47.9 49.7 0 27.3 22.3 49.4 49.6 49.4 27.3 0 7-0.4 10.4-1.1z"/>
			</g>
		</g>
		<path class="s3" d="m246.2 82.2c-4 0-7.5 2-9.6 5h-67.4c-2.1-3-5.6-5-9.6-5-6.5 0-11.7 5.2-11.7 11.7 0 6.5 5.2 11.7 11.7 11.7 6.5 0 7.5-2 9.6-5h67.4c2.1 3 5.6 5 9.6 5 6.5 0 11.7-5.2 11.7-11.7 0-6.5-5.2-11.7-11.7-11.7z"/>
		<path class="s1" d="m253.6 133.2c0 5.9-4.8 10.8-10.8 10.8-6 0-10.8-4.8-10.8-10.8 0-6 0 0 0 0l-13.9-13.9h-38.1v-13.1h43.6l16.6 16.6c0.8-0.2 1.7-0.4 2.6-0.4 5.9 0 10.8 4.8 10.8 10.8z"/>
		<path class="s2" d="m252.1 52.9c0 5.9-4.8 10.8-10.8 10.8-6 0-6.5-1.7-8.5-4.2h-8.4v22.3h-44.5v-13.1h31.4v-22.3h21.5c2-2.6 5-4.2 8.5-4.2 6 0 10.8 4.8 10.8 10.8z"/>
	</g>
</svg>