<svg version="1.2" xmlns="http://www.w3.org/2000/svg" viewBox="0 0 158 118" width="158" height="118">
	<title>69</title>
	<defs>
		<clipPath clipPathUnits="userSpaceOnUse" id="cp1">
			<path d="m82.86 65.52c-0.45-0.33-1.4-0.99-2.42-1.9-1.02-0.92-2.12-2.09-3.84-4.75-1.71-2.66-4.04-6.79-6.91-11.78-2.87-4.99-6.27-10.83-8.1-13.98-1.83-3.16-2.1-3.64-2.31-4.02-0.21-0.38-0.36-0.66-0.59-0.79-0.22-0.13-0.51-0.1-0.88-0.09-0.37 0.01-0.82 0.01-1.25 0.01-0.43 0-0.85 0-1.42 0.17-0.57 0.17-1.31 0.51-1.9 1.11-0.59 0.6-1.03 1.47-1.27 2.13-0.24 0.67-0.26 1.14-0.17 1.64 0.09 0.5 0.3 1.02 2.89 5.59 2.59 4.57 7.57 13.18 10.49 17.95 2.92 4.76 3.78 5.68 4.96 6.55 1.18 0.86 2.67 1.68 3.81 2.19 1.14 0.51 1.92 0.72 3.02 0.8 1.1 0.08 2.51 0.03 3.47-0.03 0.96-0.05 1.45-0.1 1.83-0.16q0.55-0.1 0.76-0.18c0.14-0.05 0.17-0.07 0.21-0.09 0.03-0.02 0.06-0.03-0.39-0.36"/>
		</clipPath>
		<clipPath clipPathUnits="userSpaceOnUse" id="cp2">
			<path d=""/>
		</clipPath>
		<clipPath clipPathUnits="userSpaceOnUse" id="cp3">
			<path d="m71.27 65.28c-0.58-0.62-2.02-1.84-3.8-4.14-1.78-2.3-3.9-5.69-6.21-9.58-2.31-3.88-4.81-8.25-6.51-11.15-1.7-2.89-2.59-4.31-3.06-5.49-0.47-1.18-0.52-2.14-0.5-2.79 0.02-0.65 0.11-1.01 0.41-1.54 0.3-0.54 0.81-1.26 1.37-1.76 0.56-0.5 1.16-0.79 1.56-0.95 0.41-0.16 0.62-0.18 6.03-0.2 5.42-0.01 16.05-0.01 21.36 0 5.31 0 5.3 0.02 5.33 0 0.04-0.01 0.13-0.05 0.29-0.34 0.16-0.29 0.4-0.83 1.19-2.26 0.79-1.44 2.14-3.78 2.81-4.95q0.67-1.17 0.58-1.18c-0.09-0.01-0.28-0.04-6.73-0.05-6.46-0.01-19.2-0.01-25.61 0-6.41 0.01-6.51 0.04-6.62 0.08-0.12 0.04-0.26 0.09-0.9 0.38-0.64 0.29-1.78 0.81-2.84 1.44-1.06 0.63-2.04 1.36-2.89 2.23-0.85 0.86-1.57 1.86-2.12 2.77-0.55 0.91-0.93 1.73-1.2 2.59-0.27 0.86-0.43 1.75-0.47 3.04-0.05 1.3 0.02 3 0.29 4.42 0.27 1.43 0.74 2.58 1.32 3.78 0.58 1.2 1.28 2.46 2.79 5.09 1.52 2.63 3.86 6.64 5.53 9.48 1.67 2.84 2.66 4.52 3.74 5.92 1.07 1.4 2.23 2.53 3.36 3.4 1.13 0.88 2.24 1.51 3.22 1.9 0.97 0.4 1.81 0.57 3.15 0.61 1.33 0.04 3.17-0.05 4.11-0.09 0.94-0.03 0.99 0 1.16 0 0.17 0 0.44-0.03-0.14-0.66z"/>
		</clipPath>
		<clipPath clipPathUnits="userSpaceOnUse" id="cp4">
			<path d=""/>
		</clipPath>
		<clipPath clipPathUnits="userSpaceOnUse" id="cp5">
			<path d=""/>
		</clipPath>
		<clipPath clipPathUnits="userSpaceOnUse" id="cp6">
			<path d="m48.09 20.85c0.14-6.83 7.81-11.27 13.9-11.27h26.35c2.89 0 5.81 0.11 6.02 3.61 0.1 1.75-0.35 3.51-1.55 4.83h-31.22c-3.58 0-12.06-0.56-13.5 2.83z"/>
		</clipPath>
		<clipPath clipPathUnits="userSpaceOnUse" id="cp7">
			<path d=""/>
		</clipPath>
		<clipPath clipPathUnits="userSpaceOnUse" id="cp8">
			<path d="m53.7 10.92c0.77-6.92 7.72-10.92 14.26-10.92h20.81c8.13 0 14.14 4.13 15.04 11.94 0.65 5.66-2.27 10.25-5.23 15l-14.61 24.9-5.03-8.88 15.09-25.99c1.49-2.57 1.5-5.64-0.64-7.23-0.85-0.63-1.85-0.95-2.9-0.95h-24.35c-3.69 0-9.89-0.56-12.45 2.12"/>
		</clipPath>
		<clipPath clipPathUnits="userSpaceOnUse" id="cp9">
			<path d=""/>
		</clipPath>
		<clipPath clipPathUnits="userSpaceOnUse" id="cp10">
			<path d=""/>
		</clipPath>
		<clipPath clipPathUnits="userSpaceOnUse" id="cp11">
			<path d="m59.4 28.2l14.94 25.56c3.36 5.76 5.3 11.12 12.47 12.22 7.19 1.09 13.09-2.15 16.26-8.95l9.19-15.98c3.58-6.22 3.86-13.34-2.04-18.54 0 0 0.16 4.87-2.83 9.35l-11.3 19.72c-1.79 3.13-3.01 6.29-6.92 5.98-4.38-0.34-7.93-9.32-10.14-13.21l-9.18-16.18-10.45 0.04z"/>
		</clipPath>
		<clipPath clipPathUnits="userSpaceOnUse" id="cp12">
			<path d=""/>
		</clipPath>
		<clipPath clipPathUnits="userSpaceOnUse" id="cp13">
			<path d=""/>
		</clipPath>
		<clipPath clipPathUnits="userSpaceOnUse" id="cp14">
			<path d="m104.56 12.45c-0.6 0.04 4.97 3.73 4.99 10.68 0 2.08-0.65 4.67-1.69 6.77-2.99 6.02-7.89 13.25-11.41 19.23l-2.59 4.73c-1.4 2.55-3.27 3.76-5.89 2.71-1.68-0.67-4.01-2.86-3.14-4.79 0 0 6.6-11.54 11.39-19.52 3.56-5.93 9.02-12.69 8.34-19.81z"/>
		</clipPath>
		<clipPath clipPathUnits="userSpaceOnUse" id="cp15">
			<path d=""/>
		</clipPath>
	</defs>
	<style>
		.s0 { fill: #333433 } 
		.s1 { fill: #4f4f4f } 
		.s2 { fill: #353535 } 
		.s3 { fill: #989898 } 
		.s4 { fill: #666666 } 
		.s5 { fill: none;stroke: #666666;stroke-miterlimit:2.61;stroke-width: .4 } 
	</style>
	<g id="Layer_1-2">
		<g>
			<path class="s0" d="m145.4 82.7c-7.6 0-12.9 5.5-12.9 12.7 0 7.2 5.1 12.8 13.1 12.8 4.9 0 8.9-2.2 10.8-6.4 0.3-0.8-0.1-1.3-1-1.3h-4.6c-0.7 0-1 0.2-1.5 0.6-0.9 0.8-2.2 1.2-3.6 1.2-2.5 0-4.8-1.1-5.6-4h16.1c0.7 0 1.2-0.3 1.3-1.1 0-0.5 0.1-1.1 0.1-1.7 0-7.3-5.1-12.8-12.2-12.8zm-5.4 10.2c0.8-2.4 2.7-3.8 5.4-3.8 2.1 0 4.2 1 5 3.8h-10.4zm-7.1-9.5h-2.7v-6.5c0-0.8-0.4-1.2-1.2-1.2h-4.8c-0.8 0-1.2 0.4-1.2 1.2v6.5h-5.5c-0.8 0-1.2 0.4-1.2 1.2v4.5c0 0.8 0.4 1.2 1.2 1.2h5.5v16c0 0.8 0.4 1.2 1.2 1.2h4.8c0.8 0 1.2-0.4 1.2-1.2v-16h2.7c0.7 0 1.2-0.4 1.2-1.2v-4.5c0-0.8-0.5-1.2-1.2-1.2zm-19.9 24.1h4.8c0.8 0 1.2-0.4 1.2-1.2v-21.7c0-0.8-0.4-1.2-1.2-1.2h-4.8c-0.8 0-1.2 0.4-1.2 1.2v21.7c0 0.8 0.4 1.2 1.2 1.2zm0-27h4.8c0.8 0 1.2-0.4 1.2-1.2v-4.3c0-0.8-0.4-1.2-1.2-1.2h-4.8c-0.8 0-1.2 0.4-1.2 1.2v4.3c0 0.8 0.4 1.2 1.2 1.2zm-10.4 2.2c-3.1 0-5.1 1.2-6.2 2.9v-10.6c0-0.8-0.5-1.3-1.3-1.3h-4.8c-0.7 0-1.2 0.5-1.2 1.3v31.3c0 0.8 0.4 1.2 1.2 1.2h4.8c0.8 0 1.3-0.4 1.3-1.2v-12.9c0-2.8 1.3-4 3.5-4 1.8 0 3.2 1 3.2 3.4v13.5c0 0.8 0.4 1.2 1.2 1.2h4.8c0.8 0 1.2-0.4 1.2-1.2v-14.1c0-6-3.2-9.5-7.7-9.5zm-25.8 0c-3.3 0-5.6 1.1-7.2 2.9v-1c0-0.8-0.4-1.2-1.2-1.2h-4.8c-0.8 0-1.3 0.4-1.3 1.2v31.3c0 0.8 0.5 1.2 1.3 1.2h4.8c0.7 0 1.2-0.4 1.2-1.2v-10.7c1.6 1.9 3.9 2.9 7.2 2.9 6.3 0 11.5-5.5 11.5-12.7 0-7.2-5.2-12.7-11.5-12.7zm-1.5 18.6c-3.3 0-5.7-2.3-5.7-5.9 0-3.6 2.4-5.9 5.7-5.9 3.3 0 5.8 2.3 5.8 5.9 0 3.6-2.5 5.9-5.8 5.9zm-24.4-18.6c-4.9 0-9.4 2.6-10 7.8 0 0.9 0.4 1.3 1.2 1.3h4.7c0.8 0 1-0.4 1.3-1.1 0.4-0.8 1.3-1.4 2.8-1.4 2 0 3 1.1 3 3.5v2.1c-1.3-1-3.2-1.8-6.2-1.8-4.3 0-8 2.5-8 7.5 0 5 3.7 7.5 8 7.5 3 0 4.9-1 6.2-2.5v0.7c0 0.7 0.4 1.2 1.2 1.2h4.6c0.8 0 1.2-0.5 1.2-1.2v-14c0-6.5-4.7-9.6-10-9.6zm-0.7 20.3c-2.2 0-3.3-1-3.3-2.4 0-1.4 1.1-2.4 3.3-2.4 2.4 0 3.7 0.9 3.7 2.4 0 1.4-1.3 2.4-3.7 2.4zm-9.9-20c-2.4 0.3-4.3 1.8-5.1 4.2v-2.6c0-0.8-0.4-1.2-1.2-1.2h-4.8c-0.8 0-1.2 0.4-1.2 1.2v21.7c0 0.7 0.4 1.2 1.2 1.2h4.8c0.8 0 1.2-0.5 1.2-1.2v-10.2c0-3.9 2.6-5.2 5.3-5.1q1 0 1-1.2v-5.7c0-0.7-0.4-1.3-1.2-1.1zm-15.5 0.4h-4.7c-0.7 0-1.2 0.4-1.2 1.2v1.2c-1.6-1.9-4-3.1-7.4-3.1-6.3 0-11.5 5.5-11.5 12.2 0 6.7 5.2 12.3 11.5 12.3 3.4 0 5.8-1.2 7.4-3.1v2.2c0 3.4-2.1 5.1-5.3 5.1-2.7 0-4.3-0.9-4.8-2.4-0.2-0.7-0.6-1.1-1.3-1.1h-4.9c-0.7 0-1.2 0.5-1.2 1.3 0.7 5.8 6.2 8.6 12.2 8.6 5.9 0 12.4-3.4 12.4-11.5v-21.7c0-0.8-0.5-1.2-1.3-1.2zm-11.6 17.1c-3.4 0-5.9-2.3-5.9-5.6 0-3.3 2.5-5.6 5.9-5.6 3.4 0 5.8 2.3 5.8 5.6 0 3.3-2.4 5.6-5.8 5.6z"/>
			<path fill-rule="evenodd" class="s1" d="m82.9 65.5c-0.5-0.3-1.4-1-2.5-1.9-1-0.9-2.1-2.1-3.8-4.7-1.7-2.7-4-6.8-6.9-11.8-2.9-5-6.3-10.8-8.1-14-1.8-3.1-2.1-3.6-2.3-4-0.2-0.4-0.4-0.7-0.6-0.8-0.2-0.1-0.5-0.1-0.9-0.1-0.4 0-0.8 0-1.2 0-0.5 0-0.9 0-1.5 0.2-0.5 0.2-1.3 0.5-1.9 1.1-0.6 0.6-1 1.5-1.2 2.1-0.3 0.7-0.3 1.2-0.2 1.7 0.1 0.5 0.3 1 2.9 5.6 2.6 4.5 7.6 13.1 10.5 17.9 2.9 4.8 3.8 5.7 4.9 6.6 1.2 0.8 2.7 1.6 3.8 2.1 1.2 0.6 2 0.8 3.1 0.8 1.1 0.1 2.5 0.1 3.4 0 1 0 1.5-0.1 1.9-0.1q0.5-0.1 0.7-0.2c0.2-0.1 0.2-0.1 0.2-0.1 0.1 0 0.1 0-0.4-0.4"/>
			<g id="Clip-Path" clip-path="url(#cp1)">
				<g>
					<g id="Clip-Path" clip-path="url(#cp2)">
						<g>
							<path fill-rule="evenodd" class="s2" d="m75.9 7.7l-41.2 7.1 9.1 34.3 41.2-7.1-9.1-34.3z"/>
						</g>
					</g>
				</g>
			</g>
			<path fill-rule="evenodd" class="s1" d="m71.3 65.3c-0.6-0.6-2-1.9-3.8-4.2-1.8-2.3-3.9-5.6-6.2-9.5-2.4-3.9-4.9-8.3-6.5-11.2-1.8-2.9-2.6-4.3-3.1-5.5-0.5-1.2-0.5-2.1-0.5-2.8 0-0.6 0.1-1 0.4-1.5 0.3-0.5 0.8-1.3 1.4-1.8 0.5-0.5 1.1-0.8 1.5-0.9 0.4-0.2 0.6-0.2 6.1-0.2 5.4 0 16 0 21.3 0 5.3 0 5.3 0 5.3 0 0.1 0 0.2-0.1 0.3-0.4 0.2-0.2 0.4-0.8 1.2-2.2 0.8-1.5 2.2-3.8 2.8-5q0.7-1.1 0.6-1.1c-0.1-0.1-0.3-0.1-6.7-0.1-6.5 0-19.2 0-25.6 0-6.4 0-6.5 0-6.6 0.1-0.2 0-0.3 0.1-0.9 0.4-0.7 0.3-1.8 0.8-2.9 1.4-1 0.6-2 1.4-2.9 2.2-0.8 0.9-1.5 1.9-2.1 2.8-0.5 0.9-0.9 1.7-1.2 2.6-0.3 0.9-0.4 1.7-0.5 3 0 1.3 0.1 3 0.3 4.5 0.3 1.4 0.8 2.5 1.3 3.7 0.6 1.2 1.3 2.5 2.8 5.1 1.6 2.7 3.9 6.7 5.6 9.5 1.6 2.8 2.6 4.5 3.7 5.9 1.1 1.4 2.2 2.6 3.4 3.4 1.1 0.9 2.2 1.5 3.2 1.9 1 0.4 1.8 0.6 3.1 0.6 1.4 0.1 3.2 0 4.1-0.1 1 0 1 0 1.2 0 0.2 0 0.4 0-0.1-0.6z"/>
			<g id="Clip-Path" clip-path="url(#cp3)">
				<g>
					<g id="Clip-Path" clip-path="url(#cp4)">
						<g>
							<path fill-rule="evenodd" class="s2" d="m103.4 40.1l5.3-41.5-35.5-1.3-5.3 41.5 35.5 1.3z"/>
						</g>
					</g>
					<g id="Clip-Path" clip-path="url(#cp5)">
						<g>
							<path fill-rule="evenodd" class="s3" d="m14.7 77.4l40.5-105.9 28.8 11-40.5 105.9z"/>
						</g>
					</g>
				</g>
			</g>
			<path fill-rule="evenodd" class="s1" d="m48.1 20.9c0.1-6.9 7.8-11.3 13.9-11.3h26.3c2.9 0 5.9 0.1 6.1 3.6 0.1 1.7-0.4 3.5-1.6 4.8h-31.2c-3.6 0-12.1-0.5-13.5 2.9z"/>
			<g id="Clip-Path" clip-path="url(#cp6)">
				<g>
					<g id="Clip-Path" clip-path="url(#cp7)">
						<g>
							<path fill-rule="evenodd" class="s2" d="m103.4 40.1l5.3-41.5-35.5-1.3-5.3 41.5 35.5 1.3z"/>
						</g>
					</g>
				</g>
			</g>
			<path fill-rule="evenodd" class="s1" d="m53.7 10.9c0.8-6.9 7.7-10.9 14.3-10.9h20.8c8.1 0 14.1 4.1 15 11.9 0.7 5.7-2.3 10.3-5.2 15l-14.6 24.9-5.1-8.8 15.1-26c1.5-2.6 1.5-5.7-0.6-7.3-0.9-0.6-1.9-0.9-2.9-0.9h-24.4c-3.7 0-9.9-0.6-12.4 2.1"/>
			<g id="Clip-Path" clip-path="url(#cp8)">
				<g>
					<g id="Clip-Path" clip-path="url(#cp9)">
						<g>
							<path fill-rule="evenodd" class="s2" d="m67.2 45.3l33.3 25.4 18.9-30-33.3-25.4-18.9 30z"/>
						</g>
					</g>
					<g id="Clip-Path" clip-path="url(#cp10)">
						<g>
							<path fill-rule="evenodd" class="s3" d="m57.7-26.5l25.8-16.9 62.4 94.7-25.8 16.9z"/>
						</g>
					</g>
				</g>
			</g>
			<path fill-rule="evenodd" class="s1" d="m59.4 28.2l14.9 25.6c3.4 5.7 5.3 11.1 12.5 12.2 7.2 1.1 13.1-2.2 16.3-9l9.2-16c3.5-6.2 3.8-13.3-2.1-18.5 0 0 0.2 4.9-2.8 9.4l-11.3 19.7c-1.8 3.1-3 6.3-6.9 6-4.4-0.4-8-9.4-10.2-13.2l-9.2-16.2h-10.4z"/>
			<g id="Clip-Path" clip-path="url(#cp11)">
				<g>
					<g id="Clip-Path" clip-path="url(#cp12)">
						<g>
							<path fill-rule="evenodd" class="s2" d="m75.9 7.7l-41.2 7.1 9.1 34.3 41.2-7.1-9.1-34.3z"/>
						</g>
					</g>
					<g id="Clip-Path" clip-path="url(#cp13)">
						<g>
							<path fill-rule="evenodd" class="s3" d="m30.1 44.7h113.4v30.8h-113.4z"/>
						</g>
					</g>
				</g>
			</g>
			<path fill-rule="evenodd" class="s1" d="m104.6 12.4c-0.6 0.1 4.9 3.8 5 10.7 0 2.1-0.7 4.7-1.7 6.8-3 6-7.9 13.3-11.4 19.2l-2.6 4.8c-1.4 2.5-3.3 3.7-5.9 2.7-1.7-0.7-4-2.9-3.2-4.8 0 0 6.6-11.6 11.4-19.5 3.6-6 9-12.7 8.4-19.9z"/>
			<g id="Clip-Path" clip-path="url(#cp14)">
				<g>
					<g id="Clip-Path" clip-path="url(#cp15)">
						<g>
							<path fill-rule="evenodd" class="s2" d="m67.2 45.3l33.3 25.4 18.9-30-33.3-25.4-18.9 30z"/>
						</g>
					</g>
				</g>
			</g>
			<path class="s4" d="m152.7 114.4q0 1.3-0.7 2-0.7 0.8-2 0.8-1.3 0-2.1-0.8-0.7-0.7-0.7-2 0-1.3 0.7-2 0.8-0.8 2.1-0.8 1.3 0 2 0.8 0.7 0.7 0.7 2zm-2.7 2.3q1 0 1.6-0.6 0.6-0.7 0.6-1.7 0-1.1-0.6-1.7-0.6-0.6-1.6-0.6-1.1 0-1.7 0.6-0.6 0.6-0.6 1.7 0 1.1 0.6 1.7 0.6 0.6 1.7 0.6zm-13.9 0.3v-5.2h0.6v5.2zm-13.6-5.2q0.9 0 1.4 0.1 0.4 0.1 0.8 0.3 0.4 0.4 0.6 0.9 0.2 0.5 0.2 1.3 0 0.7-0.2 1.3-0.2 0.5-0.6 0.8-0.4 0.3-0.8 0.4-0.5 0.1-1.4 0.1h-1.9v-5.2h1.9zm-0.1 0.4h-1.3v4.3h1.4q0.7 0 1.1-0.1 0.4 0 0.6-0.2 0.4-0.3 0.6-0.7 0.2-0.5 0.2-1.2 0-0.6-0.2-1.1-0.2-0.4-0.6-0.6-0.2-0.2-0.6-0.3-0.4-0.1-1.2-0.1zm-17.2-0.4h0.6v3.2q0 0.8 0.4 1.2 0.4 0.4 1.3 0.4 0.9 0 1.4-0.4 0.4-0.4 0.4-1.2v-3.2h0.5v3.3q0 1-0.6 1.5-0.6 0.6-1.7 0.6-1.1 0-1.7-0.6-0.6-0.5-0.6-1.5v-3.3zm-12.7 5.2v-4.8h-2v-0.4h4.6v0.4h-2.1v4.8h-0.5zm-16.4-1.7h0.5q0 0.6 0.5 1 0.4 0.3 1.2 0.3 0.8 0 1.2-0.2 0.4-0.3 0.4-0.8 0-0.4-0.2-0.6-0.3-0.2-1.1-0.3l-1.1-0.2q-0.6-0.2-0.9-0.5-0.4-0.3-0.4-0.9 0-0.6 0.6-1.1 0.5-0.4 1.4-0.4c0.6 0 1.2 0.2 1.5 0.5q0.6 0.4 0.6 1.1h-0.5q-0.1-0.5-0.5-0.8-0.3-0.3-1.1-0.3-0.6 0-1 0.3-0.4 0.2-0.4 0.7 0 0.4 0.2 0.6 0.3 0.2 1.1 0.3l1 0.2q0.7 0.1 1 0.4 0.4 0.4 0.4 1 0 0.7-0.6 1.1-0.6 0.5-1.6 0.5c-0.6 0-1.2-0.2-1.6-0.5q-0.6-0.5-0.6-1.3v-0.1z"/>
			<path class="s5" d="m152.7 114.4q0 1.3-0.7 2-0.7 0.8-2 0.8-1.3 0-2.1-0.8-0.7-0.7-0.7-2 0-1.3 0.7-2 0.8-0.8 2.1-0.8 1.3 0 2 0.8 0.7 0.7 0.7 2zm-2.7 2.3q1 0 1.6-0.6 0.6-0.7 0.6-1.7 0-1.1-0.6-1.7-0.6-0.6-1.6-0.6-1.1 0-1.7 0.6-0.6 0.6-0.6 1.7 0 1.1 0.6 1.7 0.6 0.6 1.7 0.6zm-13.9 0.3v-5.2h0.6v5.2zm-13.6-5.2q0.9 0 1.4 0.1 0.4 0.1 0.8 0.3 0.4 0.4 0.6 0.9 0.2 0.5 0.2 1.3 0 0.7-0.2 1.3-0.2 0.5-0.6 0.8-0.4 0.3-0.8 0.4-0.5 0.1-1.4 0.1h-1.9v-5.2h1.9zm-0.1 0.4h-1.3v4.3h1.4q0.7 0 1.1-0.1 0.4 0 0.6-0.2 0.4-0.3 0.6-0.7 0.2-0.5 0.2-1.2 0-0.6-0.2-1.1-0.2-0.4-0.6-0.6-0.2-0.2-0.6-0.3-0.4-0.1-1.2-0.1zm-17.2-0.4h0.6v3.2q0 0.8 0.4 1.2 0.4 0.4 1.3 0.4 0.9 0 1.4-0.4 0.4-0.4 0.4-1.2v-3.2h0.5v3.3q0 1-0.6 1.5-0.6 0.6-1.7 0.6-1.1 0-1.7-0.6-0.6-0.5-0.6-1.5v-3.3zm-12.7 5.2v-4.8h-2v-0.4h4.6v0.4h-2.1v4.8h-0.5zm-16.4-1.7h0.5q0 0.6 0.5 1 0.4 0.3 1.2 0.3 0.8 0 1.2-0.2 0.4-0.3 0.4-0.8 0-0.4-0.2-0.6-0.3-0.2-1.1-0.3l-1.1-0.2q-0.6-0.2-0.9-0.5-0.4-0.3-0.4-0.9 0-0.6 0.6-1.1 0.5-0.4 1.4-0.4c0.6 0 1.2 0.2 1.5 0.5q0.6 0.4 0.6 1.1h-0.5q-0.1-0.5-0.5-0.8-0.3-0.3-1.1-0.3-0.6 0-1 0.3-0.4 0.2-0.4 0.7 0 0.4 0.2 0.6 0.3 0.2 1.1 0.3l1 0.2q0.7 0.1 1 0.4 0.4 0.4 0.4 1 0 0.7-0.6 1.1-0.6 0.5-1.6 0.5c-0.6 0-1.2-0.2-1.6-0.5q-0.6-0.5-0.6-1.3v-0.1z"/>
		</g>
	</g>
</svg>