<svg version="1.2" xmlns="http://www.w3.org/2000/svg" viewBox="0 0 706 173" width="706" height="173">
	<title>52</title>
	<style>
		.s0 { fill: #000000 } 
	</style>
	<g id="Layer_1-2">
		<g>
			<path class="s0" d="m65.7 2.5c-48.2 11.8-79.1 62.3-60 115.7 2 5.6 2.8 12 2.5 18-0.5 11.2-2.8 24.1-4 35.5 3.1-0.6 2.7-0.5 3.1-0.6 9.9-2 19.8-3.7 29.6-6.1 6-1.5 11.4-0.8 17.2 1.3 66.9 24.6 119.7-29.4 118.2-80.5-1.6-55.8-52.4-96.5-106.6-83.3zm77.7 120.8c-9.5 14.5-22.6 24.2-39.3 28.7-43.3 11.6-85.3-20.9-85.2-65.6 0.1-30.1 20.2-56.7 48.9-64.9 29-8.2 60.3 3.8 75.9 29.1 5.1 8.3 4.6 14.7-1.6 18.6-6 3.9-12 1.7-17.6-6.5-10.5-15.7-25.3-23-44.1-20.5-18 2.4-30.3 12.7-36.4 29.9-7.4 20.5 1.8 43.8 20.9 54.1 19.5 10.4 43.4 5.6 56.9-11.6 1.1-1.4 2.1-2.9 3.1-4.4 5.4-7.4 11.5-9.1 17.2-4.9 5.7 4.2 6.2 10.3 1.3 18zm-28.5-36.1c0 3-2.5 5.5-5.5 5.5-3 0-5.5-2.5-5.5-5.5 0-3 2.5-5.5 5.5-5.5 3 0 5.5 2.5 5.5 5.5zm-20.2 0c0 4.7-3.8 8.5-8.6 8.5-4.7 0-8.5-3.8-8.5-8.5 0-4.7 3.8-8.5 8.5-8.5 4.7 0 8.6 3.8 8.6 8.5zm-26 0c0 3-2.5 5.5-5.5 5.5-3 0-5.4-2.5-5.4-5.5 0-3 2.4-5.5 5.4-5.5 3 0 5.5 2.5 5.5 5.5z"/>
			<g>
				<path class="s0" d="m258.3 132.6q-9.1 0-17-3.7-3.6-1.6-6.7-4-7.8-5.7-12.3-14.4-4.3-9.5-4.3-19.7l0.1-2.3q0.5-11 5.2-20.9 4.7-9.4 13.5-15.2 8.7-5.6 19.1-6.4l2.5-0.1q4.4 0 8.7 1 14.8 3.7 23.3 15.7 1.2 1.8 1.2 4 0 5.1-4.3 7.7-2 1.1-4.3 1.1-1.2 0-2.3-0.3-2.8-0.8-4.4-3 0 0.1 0.1 0.2 0.1 0.1 0.2 0.1-2.1-2.6-4.6-4.6-2.4-1.7-5.1-3-4.5-1.7-8.5-1.7-1.4 0-2.8 0.1-3 0.6-5.8 1.6-2.7 1.3-5.2 3-2 1.7-3.7 3.8-1.8 2.4-3.1 5.3-1.5 4.2-2.3 8.6-0.2 2.8-0.2 5.6 0 2.1 0.1 4.2 0.6 3.3 1.7 6.5 1.3 2.5 2.9 4.8 1.9 2.2 4.2 4.1 2.5 1.8 5.3 3.2 2.8 1 5.6 1.5 1.5 0.1 3 0.1c1 0 1.9 0 2.9-0.1q3.2-0.6 6.2-1.7 2.8-1.3 5.3-3.1 1.9-1.6 3.5-3.5 1.2-1.7 2.9-2.7 1-0.4 2.1-0.8 1-0.4 2.1-0.3 2.3-0.1 4.5 1.1 1.4 0.8 2.4 2.2 1.8 2.4 1.8 5.2 0 2.4-1.2 4.4-2.3 3-3.7 4.5-7.1 7-16.7 10.1-5.8 1.8-11.9 1.8z"/>
				<path class="s0" d="m350.4 131.8l-0.2-0.1q-3.2 0-5.9-2.5-2.6-2.7-2.6-6.1 0-13.5 0-26.9h-24.4l0.1 26.9q0 3.6-2.6 6-2.6 2.5-6.3 2.6-3.1 0-5.8-2.5-2.5-2.8-2.5-6.1-0.1-33.9-0.1-67.9 0-3.7 2.5-6 2.5-2.4 6-2.6h0.2q3.2 0 5.9 2.5 2.5 2.7 2.6 6.1 0 19.4 0 23.8 12.2 0 24.4 0l-0.1-23.8q0-3.6 2.6-6 2.6-2.4 6.4-2.6 3 0 5.7 2.6 2.5 2.7 2.5 6l0.1 30q0.3 0.9 0.4 2.7 0 1.1-0.4 2.3v32.9q0 3.6-2.5 6-2.5 2.4-6 2.6z"/>
				<path class="s0" d="m427.4 131.6q-2.3 0-4.4-1.2-2.9-1.8-4-5.2l-1.9-4.8-3.1-8.2q-12.5 0.6-25 0.6l-4.6 12.4q-1.1 3.3-3.9 5.1-2.1 1.2-4.2 1.2-3.2 0-5.4-1.7-3.4-2.8-3.4-7.1 0-1.1 0.3-2 7-18.8 14.1-37.4 5.7-15.1 11.4-30.3 1-3.3 3.9-5.2 2.3-1.1 4.5-1.2 2.8 0 5 1.9 2.3 1.8 3.1 4.5l17.1 44.8q3.1 8.1 6.1 16.1l2.6 6.8q0.4 1 0.4 2.2 0 2.3-1.3 4.4-1.8 3.1-5.1 4-1 0.3-2.1 0.3zm-32-36q6.1-0.1 12.1-0.3l-6-15.8z"/>
				<path class="s0" d="m463.6 131.8h-0.1q-3.2 0-5.9-2.5-2.6-2.9-2.6-6.1v-59.3q-7.1 0-14.3 0.2-3.7 0-6.1-2.6-2.4-2.6-2.5-6.3 0-1.5 0.7-3.1 0.7-1.6 1.9-2.7 2.5-2.4 6-2.5l47.2-0.8q3.6 0.1 5.9 2.6 2.4 2.5 2.6 6.1v0.1q0 3.2-2.5 5.9-2.8 2.5-6.1 2.5-7.8 0.2-15.7 0.3 0 4.4 0.1 8.8v50.8q0 3.6-2.5 6-2.5 2.4-6.1 2.6z"/>
				<path class="s0" d="m531.4 131.8h-0.2q-3.2 0-5.9-2.5-2.6-2.9-2.6-6.1v-59.3q-7.1 0-14.3 0.2-3.7 0-6.1-2.6-2.3-2.6-2.5-6.3 0-1.5 0.7-3.1 0.7-1.6 1.9-2.7 2.5-2.4 6.1-2.5l47.1-0.8q3.6 0.1 5.9 2.6 2.4 2.5 2.6 6.1v0.1q0 3.2-2.5 5.9-2.7 2.5-6.1 2.5-7.8 0.2-15.6 0.3 0 4.4 0 8.8v50.8q0 3.6-2.5 6-2.5 2.4-6 2.6z"/>
				<path class="s0" d="m581.5 132.1h-0.3q-3.4-0.1-5.7-2.6-2.4-2.6-2.5-6.1-0.6-24.2-0.6-68.1 0-3.5 2.6-6.1 2.5-2.5 5.9-2.5 5.6-0.1 30-0.1l15.2-0.1q3.7 0 6.1 2.6 2.4 2.6 2.5 6.3 0 3.2-2.5 5.8-2.7 2.5-6.1 2.5l-36.5 0.1q0 10.6 0.1 14.8 16.5 0 33 0 3.6 0 6 2.6 2.4 2.5 2.5 6.2 0 1.6-0.7 3.2-0.7 1.6-1.8 2.6-2.7 2.6-6 2.6-16.5 0-32.9 0l0.2 18.8q7.1-0.2 14.2-0.2 11 0 21.9 0.4 3.8 0.2 6.1 2.6 2.5 2.5 2.6 6.3 0 3.2-2.6 5.8-2.6 2.5-5.8 2.5h-0.3q-10.8-0.4-21.7-0.4c-7.3 0-15.2 0.2-22.9 0.5z"/>
				<path class="s0" d="m697.3 131.8q-1.2 0-2.2-0.3-5.2-1.6-9.4-4.7-3.8-2.9-7-6.3-2.5-2.9-4.9-5.9l-0.3-0.4q-3.9-5.4-8.9-9.8-1.7-1.3-3.6-2.2h-0.7l-0.2 20.7q-0.1 3.7-2.6 6.1-2.4 2.3-6 2.5h-0.3q-3.1 0-5.8-2.5-2.5-2.9-2.5-6.1 0.1-7.5 0.1-15 0.2-14.1 0.2-28.2 0-12.3-0.2-24.6 0-3.5 2.6-6 2.6-2.5 6-2.5h14.5q6.6 0 13.2 1.1 6 1.1 11.3 4.5 5.3 3.4 8.3 8.9 3.4 6.9 3.4 14.2 0 6.6-2.8 13-4.5 8.9-15.2 12l1.6 2q4 5.6 9.2 10.2 2.3 1.7 4.5 2.4 3 1 4.6 3.3 1.7 2.3 1.7 5.2 0 4.2-3.4 6.7-2.4 1.7-5.2 1.7zm-36.9-46.7q2.4 0 4.7-0.1h2.3q4.5-0.1 9-0.5 2.2-0.3 4.3-1 1-0.5 2-1.1l0.9-1 0.7-1.2q0.5-1.3 0.7-2.7l0.2-2.2-0.2-2.1q-0.3-1.6-0.9-3.1-0.4-1-1-1.8l-0.3-0.4q-1.2-1.3-3.5-2.4-2.5-0.9-5.2-1.4-3.9-0.3-7.9-0.3h-5.9q0.1 6.2 0.1 21.3z"/>
			</g>
		</g>
	</g>
</svg>