<svg version="1.2" xmlns="http://www.w3.org/2000/svg" viewBox="0 0 286 256" width="286" height="256">
	<title>78 - Copy</title>
	<defs>
		<linearGradient id="g1" x2="1" gradientUnits="userSpaceOnUse" gradientTransform="matrix(0,140.6,-200.854,0,142.7,27)">
			<stop offset="0" stop-color="#20a2dc"/>
			<stop offset="1" stop-color="#8e2d91"/>
		</linearGradient>
		<linearGradient id="g2" x2="1" gradientUnits="userSpaceOnUse" gradientTransform="matrix(-99.2,-35.7,33.949,-94.334,166.8,77.4)">
			<stop offset=".6" stop-color="#2265b1" stop-opacity="0"/>
			<stop offset="1" stop-color="#2265b1" stop-opacity="1"/>
		</linearGradient>
		<linearGradient id="g3" x2="1" gradientUnits="userSpaceOnUse" gradientTransform="matrix(99.2,-35.7,33.949,94.334,118.2,77.4)">
			<stop offset=".6" stop-color="#2265b1" stop-opacity="0"/>
			<stop offset="1" stop-color="#2265b1" stop-opacity="1"/>
		</linearGradient>
	</defs>
	<style>
		.s0 { fill: #102f52 } 
		.s1 { fill: url(#g1) } 
		.s2 { fill: url(#g2) } 
		.s3 { fill: url(#g3) } 
	</style>
	<g id="Layer_1-2">
		<g>
			<g>
				<path class="s0" d="m192 245.8h-19.4v-58.3h19.2c4 0.6 11.7 3.9 11.7 11.9v33.7c-0.2 4.4-2.9 12.8-11.5 12.8zm-17.1-2.3h17c8.4 0 9.1-9.8 9.2-10.5v-33.6c0-7.6-8.6-9.4-9.6-9.5h-16.6z"/>
				<path class="s0" d="m227.8 246.7c-12 0-15.2-6.3-15.9-11.6v-35.5c0-0.2 0-5 3.5-8.6 2.5-2.6 6.2-3.9 11-3.9 14.4 0 16 12.4 16 12.5v36c0 0.2-2.5 11-14.5 11zm-13.6-11.9c0.8 6.3 5.4 9.5 13.6 9.5 8.2 0 12-7.9 12.2-9v-35.6c-0.1-0.9-1.8-10.4-13.7-10.4-11.9 0-7.2 1.1-9.3 3.2-2.9 2.9-2.8 6.9-2.8 6.9v35.3z"/>
				<path class="s0" d="m265.2 246.7c-13.4 0-14.6-11.7-14.6-11.8v-34.6q0-6.5 3.9-9.9c4.1-3.6 9.9-3.1 10.8-3 5.4-0.2 9.5 1.3 12.2 4.4 4.9 5.6 3.5 14.3 3.4 14.7-0.1 0.6-0.7 1.1-1.4 1-0.6-0.1-1.1-0.7-1-1.4 0 0 1.3-8-2.9-12.8-2.3-2.6-5.8-3.8-10.4-3.6h-0.2c0 0-5.6-0.7-9.1 2.4q-3 2.7-3 8.1v34.5c0 0.8 1.3 9.6 12.3 9.6 0 0 3.5 0 6.8-1.2 4.2-1.4 6.3-3.9 6.3-7.4v-9.6c0-0.6 0.5-1.2 1.1-1.2 0.6 0 1.2 0.5 1.2 1.2v9.6c0 2.6-0.9 4.8-2.6 6.5-4.3 4.3-12.3 4.3-12.8 4.3z"/>
				<path fill-rule="evenodd" class="s0" d="m4.3 245.5v-58.2h10.9l12.5 46.7 11.5-46.7h11.6v58.7h-7.9v-46.8l-12.2 46.7h-6.7l-12.6-46.3v45.8l-7.1 0.1z"/>
				<path fill-rule="evenodd" class="s0" d="m57.9 245.3v-58h30.1v6.4h-21.4v19.7h17.7v6.2h-17.9v20.2h21.6v6.2h-30l-0.1-0.7z"/>
				<path fill-rule="evenodd" class="s0" d="m105.9 245.7v-51.8h-13v-6.7h34.8v6.7h-13.2v51.6l-8.6 0.2z"/>
				<path class="s0" d="m151.7 187.1h-10.6l-14.6 58.5h8l3.3-11.2h17.2l3.6 11.5 7.7-0.3-14.5-58.5zm-13.6 41.3l8-32.8 7.9 32.6-15.8 0.2z"/>
			</g>
			<g>
				<path class="s1" d="m226.2 149.9c-32.2 27.3-49.3 25.1-49.3 25.1 0 0-8.8 1-16.1-9.8 0 0-10.5-16.7 10.3-28.4 0 0 37-14.8 46.7-43.9 5.7-17.1-4.4-37.1-24-36.3-10.2 0.4-18 7-25.1 13.7 0 0-10.1 10.1-24.1 10.8q-0.4 0-0.9 0c0 0 0 0-0.2 0-0.2 0-0.4 0-0.7 0q-0.9 0-0.9 0c-14.6-0.3-25.1-10.8-25.1-10.8-7.1-6.7-14.9-13.3-25.1-13.7-16.3-0.6-26 13-25.6 27.5 0 2.9 0.6 5.9 1.6 8.8 0 0.2 0.1 0.4 0.2 0.6 0.4 1.1 0.8 2.2 1.3 3.2 11.5 26.6 45.2 40.1 45.2 40.1 20.8 11.7 10.3 28.4 10.3 28.4-7.3 10.8-16.1 9.8-16.1 9.8 0 0-17.1 2.2-49.3-25.1-42.2-35.7-34.9-78.7-34.9-78.7 0.4-11.5 2.9-23 8.6-33.2 12-21.6 36.8-32.1 60.2-28.7 6.5 0.9 12.8 2.9 18.8 6.1 9.8 5.1 19.1 16.7 30.8 17 1.3 0 2.7-0.2 3.9-0.5 9.9-2.3 18.1-11.9 26.8-16.5 27.4-14.4 63.7-4.9 79 22.6 5.6 10.1 8.2 21.6 8.6 33.2 0 0 7.3 43.1-34.7 78.7z"/>
				<path class="s2" d="m146.6 31.9l-2.1 49.1q-0.4 0-0.9 0c0 0 0 0-0.2 0-0.2 0-0.4 0-0.7 0q-0.9 0-0.9 0c-14.6-0.3-25.1-10.8-25.1-10.8-7.1-6.7-14.9-13.3-25.1-13.7-16.3-0.6-26 13-25.6 27.5-2.8-19.2-3.3-55.5 27.2-74.7 6.5 0.9 12.8 2.9 18.8 6.1 9.8 5.1 19.1 16.7 30.8 17 1.3 0 2.7-0.2 3.9-0.5z"/>
				<path class="s3" d="m138.4 31.9l2.1 49.1q0.4 0 0.9 0c0 0 0 0 0.2 0 0.2 0 0.4 0 0.7 0q0.9 0 0.9 0c14.6-0.3 25.1-10.8 25.1-10.8 7.1-6.7 14.9-13.3 25.1-13.7 16.3-0.6 26 13 25.6 27.5 2.8-19.2 3.3-55.5-27.2-74.7-6.5 0.9-12.8 2.9-18.8 6.1-9.8 5.1-19.1 16.7-30.8 17-1.3 0-2.7-0.2-3.9-0.5z"/>
			</g>
		</g>
	</g>
</svg>