<svg version="1.2" xmlns="http://www.w3.org/2000/svg" viewBox="0 0 442 400" width="442" height="400">
	<title>55</title>
	<defs>
		<linearGradient id="g1" x2="1" gradientUnits="userSpaceOnUse" gradientTransform="matrix(21.4,-129.9,76.203,12.554,207,141.8)">
			<stop offset="0" stop-color="#d3c6c2"/>
			<stop offset=".2" stop-color="#dbd1cc"/>
			<stop offset=".5" stop-color="#fefefd"/>
			<stop offset=".8" stop-color="#ddd3ce"/>
			<stop offset="1" stop-color="#f0f0ee"/>
		</linearGradient>
		<linearGradient id="g2" x2="1" gradientUnits="userSpaceOnUse" gradientTransform="matrix(21.4,-129.9,104.745,17.256,202.1,141)">
			<stop offset="0" stop-color="#d3c6c2"/>
			<stop offset=".2" stop-color="#dbd1cc"/>
			<stop offset=".5" stop-color="#fefefd"/>
			<stop offset=".8" stop-color="#ddd3ce"/>
			<stop offset="1" stop-color="#f0f0ee"/>
		</linearGradient>
	</defs>
	<style>
		.s0 { fill: #a63551 } 
		.s1 { fill: #3b4a6b } 
		.s2 { fill: url(#g1) } 
		.s3 { fill: url(#g2) } 
	</style>
	<g id="Layer_1-2">
		<g>
			<g>
				<path class="s0" d="m107.6 188.1c-1.5-2.8-2.4-4.5-3.5-6.7 7.5-2.5 14.6-4.8 22.1-7.3-16.1-47.8-34.6-94.2-57.9-139.6-4.5 3.6-9.1 6.4-12.5 10.2-3 3.3-5.6 3.8-10.1 1.1 6.7-5.1 13.2-10.1 20-15.3-2.2-4.2-4.5-8.8-7.2-14 6.7-2.9 13.3-5.7 20.1-8.7 2 4.9 3.9 9.6 5.7 14.2 7.6-1.8 14.9-3.9 22.3-5.2 22.3-3.9 44.3-3.1 65.1 7 28.9 14 43 46.5 33 77-11.3 34.4-33.8 59.2-66.6 74.8-9.8 4.6-20.1 8.2-30.4 12.4m24.7-16.2c18.5-8.1 34.7-19.6 45.7-37.4 10.4-16.8 12.6-34.9 9.6-54.3-4.5-29.8-22.8-50.3-52.2-57.1-16.6-3.9-32.6-1.2-48.1 4.3 15 48.2 29.9 96 44.9 144.4"/>
				<path class="s1" d="m358.1 22.6c1.9-4.7 3.8-9.4 5.9-14.5 6.7 2.9 13.2 5.7 19.9 8.5-2.6 5-5 9.7-7.3 14.1 6.6 4.9 12.9 9.6 19.8 14.7-3.8 2.1-6.2 3-9.2-0.3-3.6-3.9-8.2-7-12.9-10.9-23.4 45.5-42 92.1-58.2 140.1 7.3 2.4 14.5 4.7 22.1 7.2-1 2-1.9 3.8-2.9 5.9-12.3-3.4-23.9-8-34.9-13.7-28.3-14.6-48.2-36.8-60.2-66.2-17.7-43.4 10.8-82.9 50.3-90 25.1-4.5 35.7-3.4 67.7 5.2m-3.1 4.6c-2.3-0.7-4.8-1.7-7.3-2.3q-5.2-1.3-10.5-2.4c-28.1-5.9-58.5 6-72.4 29-11.3 18.8-14.5 39.5-9.9 60.9 4.1 18.9 15.2 33.6 30.4 45.3 7.8 6 16.2 10.8 24.7 14.2 15-48.2 29.9-96.2 45-144.7z"/>
				<path class="s2" d="m188.4 23.6c21 4 28 19.6 32.6 37.8 4.1-18.9 13.1-33.5 33.2-39-4.2 5-8.6 9.5-12.2 14.5-8.4 11.5-12.5 24.7-13.2 38.9-1.1 21.8 5.5 41.8 15.2 60.9 0.6 1.1 1.1 2.3 1.2 3.6-11.5-12.1-19.7-26-24.2-42.4-6 17-13.5 32.9-28.7 43.9 0.7-1.1 1.4-2.1 2.2-3.2 11.5-16 18.1-33.8 19.5-53.4 1.7-23.9-6-44-24.5-59.6-0.4-0.3-0.8-0.7-1.1-1.1 0 0 0-0.2 0-0.9z"/>
				<path class="s3" d="m230.4 24.7c0 6.8-3.8 11.7-9.2 11.7-5.1 0-9.3-5.1-9.3-11.3 0-6.6 4.2-11.9 9.3-11.9 5.1 0 9.1 5.1 9.2 11.5z"/>
			</g>
			<g>
				<path class="s1" d="m261.8 272.7c15.8 3.1 25.6-3.2 25.4-16.8h-10.6c-13.2 0-20.8-7.2-21-20.3 0-4.4 0.5-8.9 1.6-13.2 2.2-8.6 8.8-12.8 18.7-12.6 9.4 0.2 15.5 4.4 17 13.3 1.2 7.4 1.1 15.1 1.6 22.7 0 1.5-0.1 3.1-0.2 5.1 1.7 0.1 3 0.3 4.4 0.3 14.3 0 35.9 0 50.2 0 3.3 0 4.6-0.8 4.5-4.3-0.2-10 0-20 0-30.4h4.7v39.2c-1.7 0-3.3 0.2-5 0.2-15.8 0-39.1 0-55 0-3.3 0-4.7 0.8-5.5 4.1-3.5 14.5-12.2 20.2-26.9 18.3-3.4-0.4-5.1-1.8-3.8-5.6m27.4-32.8c-0.4-4.1-0.6-8.3-1.1-12.4-1-7.8-5.3-12.2-12.3-12.5-7.3-0.4-12.2 3.6-13.8 11.3-0.6 2.9-1 6-0.9 8.9 0.3 11.5 4.9 16 16.4 16 7.6 0 11.5-3.8 11.8-11.4"/>
				<path class="s1" d="m111.8 216.2c2 0.1 3.2 0.2 5 0.3 0 6.5 0 12.8 0 19 0 2.7 0.2 5.5 1 8 1.5 4.7 4.9 7.5 9.9 7.6 13.3 0.1 26.5 0 39.8 0.1 3.1 0 3-1.8 3-4q0-12.9 0-25.8v-5h4.7v39.2c-1.6 0-3.1 0.2-4.6 0.2-12.7 0-25.4 0-38 0-5.5 0-10.6-0.8-15.5-5.8-0.1 2.8-0.1 4.5-0.3 6.2-0.5 4.4-0.6 8.9-1.7 13.2-1.7 6.7-5.8 9.2-12.8 8.9-3.7-0.2-5.8-1.4-4.5-5.8 0.6 0.2 1.2 0.3 1.9 0.5 7 1.4 10.5-0.7 11.6-7.8 0.6-4.2 0.5-8.6 0.5-12.9 0-11.9 0-23.8 0-36.2"/>
				<path class="s1" d="m42.3 278.2c-1.7 0-3 0.2-4.2 0.3-1.9-16-2-24.8 15.6-27.8-5.7-6.9-7.7-14.7-6.2-23.4 1.9-11.1 9.7-17.7 21-17.5 10.8 0.3 18.2 6.9 19.5 18 0.4 3.2 0.5 6.6 0.1 9.9-1.2 11.6-8.4 18-20 18.2-4.5 0-8.9 0-13.4 0-8.9 0.2-12.5 3.9-12.5 12.6q0 4.7 0 9.6m10.5-45.2c0 1.6-0.2 3.2 0 4.7 1 6.2 3.8 11.2 10.2 13.1 6.1 1.8 11.8 0.8 16.1-4.2 5.4-6.2 5.6-19.8 0.5-26.2-1.3-1.6-3.1-3-5-3.9-11.6-5.5-22.2 2.5-21.9 16.6"/>
				<path class="s1" d="m193.7 216.2c0-1.6-0.2-2.8-0.2-4 14.3-3.2 26.2 4.3 27.8 18.4 0.9 8.2 0.2 16.5 0.2 25.1h-31.6c-1.1-3.1-0.4-4.5 3.2-4.4 6.8 0.2 13.5 0 20.3 0 2.7 0 4-0.7 3.8-3.7-0.4-5.9 0-11.8-0.9-17.6-1.6-9.8-7.2-13.9-17.2-13.9h-5.4"/>
				<path class="s1" d="m376.5 211.8c17.7-1.9 27.4 6.1 28.1 23.2 0.3 6.7 0 13.5 0 20.9h-32.3c-0.2-1.4-0.3-2.8-0.5-4.6h28.5c-0.6-8.2-0.3-16-1.8-23.4-1.9-8.8-7.1-11.6-17.9-11.7-2.9 0-4.3-1.5-4.1-4.4z"/>
				<path class="s1" d="m341.8 275.8h-4.4v-9.8c1.4 0 2.8-0.1 4.4-0.2z"/>
				<path fill-rule="evenodd" class="s1" d="m154.5 266.1h4.4v9.6h-4.4z"/>
				<path class="s1" d="m168.9 265.6c1.6 0.4 4.1 0.6 4.1 1.1 0.4 2.7 0.4 5.6 0 8.3 0 0.5-2.3 0.8-4.1 1.3v-10.8z"/>
				<path class="s1" d="m356.6 270.9c-0.6 1.8-0.8 3.4-1.7 4.7-0.3 0.4-3 0-3-0.3-0.3-2.9-0.4-5.9-0.3-8.8 0-0.3 3-0.9 3.3-0.5 0.9 1.4 1.2 3.2 1.7 4.9z"/>
			</g>
			<g>
				<path class="s1" d="m385.2 303.6c0 3.4 0 6.8 0 10.3 0.2 12.2 0.5 24.3 0.8 36.5 0 2.8 0.3 5.7-4.4 4.2v-57.6c5-1.8 7.3-0.1 9 4.6 4.8 13.6 10 27.1 15 40.7 0.6 1.5 1.3 2.9 2.5 5.5 4.1-10.9 7.9-20.8 11.6-30.7 1.9-5.1 4.2-10.2 5.7-15.4 1.4-4.9 4.2-6.3 9.3-4.6 0 1.7 0.3 3.7 0.3 5.6q0 23.7 0 47.4c0 0.2 0 0.4 0 0.5-0.9 1.5-1.7 2.9-2.6 4.4-0.7-1.4-2.1-2.9-2.1-4.3 0-10.8 0.2-21.7 0.4-32.5 0-4.8 0-9.6-0.9-14.6-2.1 5.3-4.3 10.5-6.3 15.8-4.1 10.7-8.1 21.5-12.3 32.2-0.5 1.3-2.2 3.3-3 3.1-1.4-0.3-3-1.8-3.6-3.1-5.8-15.2-11.5-30.5-17.2-45.8-0.3-0.8-0.6-1.5-0.9-2.2-0.4 0-0.9 0-1.3 0z"/>
				<path class="s1" d="m146.4 303.2c-3.3 11.8-6.6 23.7-9.8 35.5-1.2 4.5-2.3 9-3.8 13.4-0.4 1.2-2 2.4-3.3 2.6-0.8 0.1-2.6-1.4-2.9-2.4-5.1-18.4-10-36.8-15-55.3 3.8-1.6 5 0 5.8 3.2 3.5 14.4 7.2 28.7 10.9 43 0.3 1.1 0.8 2.1 1.6 4.3 3.2-11.6 6-21.9 8.8-32.3 1.4-5.1 2.5-10.4 4.1-15.4 0.5-1.4 2.2-2.9 3.7-3.5 2.5-0.9 3.8 0.8 4.4 3.2 3.4 13 7 26 10.5 39 0.6 2.4 1.4 4.7 3.2 7.2 1.7-6.1 3.4-12.2 5-18.4 2.4-9.2 4.8-18.4 7-27.5 0.6-2.6 1.5-4.5 5.1-2.8-1.2 4.9-2.4 9.8-3.8 14.7-3.5 12.8-6.9 25.7-10.5 38.5-0.5 1.7-2.2 3.1-3.4 4.6-1.2-1.4-3.1-2.7-3.6-4.4-4.1-14.6-8-29.2-12-43.8-0.3-1.2-0.8-2.5-1.2-3.7-0.4 0-0.7 0-1.1 0"/>
				<path class="s1" d="m372.8 354.2c-4.9 1.7-7.1 0-9.1-3.2-3.2-5.3-6.8-10.3-10.1-15.5-5-7.9-12.6-8.5-20.7-7.8-0.9 0-2.2 2.2-2.2 3.5-0.2 6.7-0.1 13.3-0.1 20 0 6.7-0.8 4.6-4.6 3.5v-58.2c9.3 0 18.3-0.3 27.3 0 8.5 0.4 13.4 5.1 14.2 12.7 1 9.2-2.2 14.2-11 17-1.5 0.5-3.1 0.9-3.5 1 6.4 8.8 12.9 17.6 19.7 27m-41.8-30.3c8.2-0.4 15.8-0.3 23.1-1.3 5.7-0.8 8.8-5.2 8.8-10.5 0-5.2-3-10.1-8-10.7-7.8-1-15.8-1-24-1.4v23.9z"/>
				<path class="s1" d="m7.1 354.3v-20.5c0-11 0.1-22 0-32.9 0-3.4 1-4.7 4.6-4.6 5.5 0.3 11 0 16.5 0 15 0.2 22.4 6.1 25.3 20.9 1.8 9 1.2 17.9-3.2 26.2-3.1 5.9-8 10.2-14.8 10.7-9.1 0.6-18.2 0.1-28.4 0.1m4.8-3.7c7.1 0 13.3 0.2 19.4 0 7.8-0.4 13-4.7 15.7-11.9 2.8-7.6 3-15.4 1-23.1-2.1-8.4-7.7-13.5-16.5-14.5-5.1-0.6-10.3-0.3-15.5-0.7-3.4-0.2-4.3 1.2-4.2 4.4 0.1 11.1 0 22.3 0 33.4v12.4"/>
				<path class="s1" d="m215.1 354.8v-57.8c9.7 0 19.2-0.6 28.5 0.2 6.9 0.5 12 5.2 14.8 11.4 4.5 10.1 4.8 20.7 1.1 31.2-3.1 8.7-9.4 14.3-18.8 14.9-8.3 0.6-16.6 0.1-25.6 0.1zm4.5-29.3c0 7 0 14 0 20.9 0 3.2 1.2 4.4 4.4 4.3 5.2-0.3 10.3 0 15.5-0.4 7.7-0.5 12.7-4.9 15.2-11.9 2.8-7.8 3-16 0.7-24.1-2.2-7.6-7.3-12.3-15.1-13.4-5.8-0.8-11.6-0.6-17.5-0.8-2.7-0.1-3.3 1.4-3.3 3.8 0 7.2 0 14.3 0 21.5"/>
				<path class="s1" d="m67.6 355v-58.7h15.8c5.8 0 11.7 0 17.5 0.1 1.1 0 2.2 1.2 3.4 1.8-1.1 0.7-2.2 1.9-3.2 1.9q-12 0.3-24 0c-3.6-0.1-5.1 0.9-4.9 4.7 0.3 5.6 0 11.2 0 17.6 8.4 0 16.1-0.1 23.9 0 2 0 4 1.1 6 1.7-2 0.8-4.1 2.3-6.1 2.3-7.6 0.3-15.3 0.1-23.4 0.1v24h25.6c1.5 0 3.1-0.2 4.5 0.2 1 0.3 1.9 1.3 2.9 1.9-1.1 0.7-2.1 2-3.2 2-11.3 0.1-22.7 0-34.7 0"/>
				<path class="s1" d="m311.8 300.4c-9 0-18 0.2-27 0-4.1-0.1-5.3 1.2-5 5.1 0.3 4.5 0.2 9 0.1 13.5 0 2.8 1.1 3.8 3.9 3.7q10.5-0.3 21 0c1.7 0 3.3 1.2 5 1.8-1.7 0.7-3.4 1.9-5.2 2-6.7 0.2-13.4 0.2-20 0-3.2 0-5 0.6-4.8 4.4 0.3 6.3 0 12.6 0 19.8h33.1l0.7 1.9c-1.1 0.8-2.2 2.3-3.4 2.3-11.5 0.2-23 0.1-34.9 0.1v-58.5c11.5 0 22.8 0 34.1 0.1 1 0 1.9 1.5 2.8 2.3-0.2 0.5-0.5 1-0.7 1.5"/>
			</g>
			<g>
				<g>
					<path class="s0" d="m252.4 387.3c-1.9 0-4.5-1.3-4.5-5.1 0-3.8 1.7-5.4 4.5-5.4h4.6v8.6h2.8v1.9zm2.6-8.8h-2.5c-1.9 0-2.4 2.3-2.4 3.7 0 1.4 0.7 3.2 2.4 3.2h2.5zm-3.3-5.8h2.1v2.1h-2.1zm3.2 0h2.1v2.1h-2.1z"/>
					<path class="s0" d="m258.5 389.3h2.1v2.1h-2.1zm0.8-2v-1.9c1.9 0 2.8-1 2.8-2.7v-6h2.1v6.1c0 2.8-1.8 4.4-4.9 4.4m2.4 2.1h2.1v2.1h-2.1z"/>
					<path class="s0" d="m266.5 387.3v-1.9h5.1v-3.9c0-2.5-0.4-3.2-1.9-3.2l0.3-1.8c1.5 0 2.6 0.6 3.2 1.7 0.3 0.6 0.4 1 0.4 2.2v4.9h3.1v1.9h-10.3z"/>
					<path class="s0" d="m283.8 387.3c-1.7 0-2.9-0.5-3.7-1.4-0.8 0.9-2 1.4-3.6 1.4h-0.4v-1.9h0.4c1.5 0 2.5-0.8 2.5-2.2v-10.5h2.1v10.6c0 1.4 1.1 2.1 2.8 2.1h0.4v1.9h-0.4z"/>
					<path class="s0" d="m283.5 387.3v-1.9h7.8c0-7-6.2-6.7-6.2-6.7v-1.8c5.7 0 8.3 3.9 8.3 8.4h3v1.9h-12.9zm3.7 1.9h2.1v2.1h-2.1z"/>
					<path class="s0" d="m295.8 387.3v-1.9c1.9 0 2.9-1 2.9-2.7v-10.1h2.1v10.2c0 2.8-2 4.4-5 4.4"/>
					<path fill-rule="evenodd" class="s0" d="m303.2 372.7h2.1v14.6h-2.1z"/>
					<path class="s0" d="m312.3 392v-1.7c1.8 0 2.4-1.9 2.3-3.3q-0.6 1.5-2.7 1.5c-2.7 0-4.3-2.1-4.3-5.8 0-3.7 1.7-5.8 4.4-5.8h4.7v10.7c0 2.9-1.9 4.6-4.3 4.6m2.2-13.7h-2.4c-2.1 0-2.4 2.6-2.4 4 0 1.4 0.3 4.1 2.4 4.1 2.1 0 2.4-2.5 2.4-4z"/>
					<path class="s0" d="m335.4 387.3c-1.1 0-2-0.2-2.7-0.7v0.3c0 2.6-1.9 4.4-4.5 4.4-0.3 0-0.4 0-0.6 0-2.5 0-4.5-1.8-4.5-4.4v-4.3h2.1v4.2c0 1.6 0.8 2.7 2.7 2.7 1.9 0 2.6-1 2.6-2.7v-14.1h2.1v10.8c0 1.2 1.1 1.9 2.7 1.9h0.4v1.9h-0.4z"/>
					<path class="s0" d="m334.6 389.3h2.1v2.1h-2.1zm8.2-2c-1.6 0-2.9-0.5-3.7-1.4-0.8 0.9-2 1.4-3.6 1.4h-0.4v-1.9h0.4c1.5 0 2.5-0.8 2.5-2.2v-6.4h2.1v6.5c0 1.4 1.1 2.1 2.8 2.1h0.4v1.9h-0.4zm-4.9 2h2.1v2.1h-2.1z"/>
					<path class="s0" d="m357.3 387.3c-1.3 0-2.3-0.3-3.1-0.9-0.7 1.9-2.2 3-4.3 3-2.1 0-3.6-1-4.3-2.8-0.7 0.5-1.7 0.8-2.9 0.8h-0.4v-1.9h0.4c1.4 0 2.3-0.6 2.4-1.9 0.2-3.4 1.9-5.4 4.8-5.4 2.9 0 4.5 1.9 4.7 5.2 0 1.4 1.1 2.1 2.8 2.1h0.4v1.9h-0.4zm-7.4-7.5c-1.7 0-2.5 1.3-2.5 3.9 0 2.6 0.8 3.8 2.5 3.8 1.7 0 2.6-1.3 2.6-3.8 0-2.5-0.8-3.9-2.6-3.9z"/>
					<path class="s0" d="m357.1 387.3v-1.9h7.8c0-7-6.2-6.7-6.2-6.7v-1.8c5.7 0 8.3 3.9 8.3 8.4h3v1.9h-12.9zm3.7 1.9h2.1v2.1h-2.1z"/>
					<path class="s0" d="m368.9 372.7h2.1v2.1h-2.1zm8.2 14.6c-1.7 0-2.9-0.5-3.7-1.4-0.8 0.9-2 1.4-3.6 1.4h-0.2v-1.9h0.2c1.5 0 2.5-0.8 2.5-2.2v-6.4h2.1v6.5c0 1.4 1.1 2.1 2.8 2.1h0.2v1.9h-0.2zm-4.9-14.6h2.1v2.1h-2.1z"/>
					<path class="s0" d="m376.8 387.3v-1.9c1.9 0 2.9-1 2.9-2.7v-10.1h2.1v10.2c0 2.8-2 4.4-5 4.4"/>
					<path fill-rule="evenodd" class="s0" d="m384.1 372.7h2.1v14.6h-2.1z"/>
					<path class="s0" d="m397.2 387.3c-1.9 0-4.5-1.3-4.5-5.1 0-3.8 1.7-5.4 4.5-5.4h4.6v8.6h2.8v1.9zm2.5-8.8h-2.5c-1.9 0-2.4 2.3-2.4 3.7 0 1.4 0.7 3.2 2.4 3.2h2.5zm-3.3-5.8h2.1v2.1h-2.1zm3.3 0h2.1v2.1h-2.1z"/>
					<path class="s0" d="m404.1 387.3v-1.9h7.7c0-7-6.2-6.7-6.2-6.7v-1.8c5.7 0 8.3 3.9 8.3 8.4v1.9h-9.8z"/>
					<path fill-rule="evenodd" class="s0" d="m416.2 372.7h2.1v14.6h-2.1z"/>
					<path class="s0" d="m426.5 387.3c-1.1 0-2-0.2-2.7-0.7v0.2c0 2.4-1.6 4.6-4.5 4.6v-1.7c0.8 0 1.7-0.6 2-1.5 0.4-0.9 0.3-2 0.3-2.6v-8.8h2.1v6.6c0 1.3 1.1 2 2.7 2h0.2v1.9h-0.2z"/>
					<path class="s0" d="m426 387.3v-1.9h8.1c0-7-6.2-6.7-6.2-6.7v-1.8c5.7 0 8.3 3.9 8.3 8.4v1.9h-10.2zm3.9 1.9h2.1v2.1h-2.1z"/>
				</g>
				<g>
					<path class="s0" d="m9.2 383l-1.5 4.4h-1.9l4.8-14.1h2.2l4.8 14.1h-2l-1.5-4.4h-5zm4.6-1.4l-1.4-4.1c-0.3-0.9-0.5-1.8-0.7-2.6-0.2 0.8-0.4 1.7-0.7 2.6l-1.4 4.1h4.3z"/>
					<path class="s0" d="m20.5 382.8c0 2.5 1.6 3.5 3.5 3.5 1.9 0 2.1-0.2 2.8-0.5l0.3 1.3c-0.6 0.3-1.8 0.6-3.4 0.6-3.1 0-5-2.1-5-5.1 0-3 1.8-5.5 4.8-5.5 3 0 4.2 2.9 4.2 4.8 0 1.9 0 0.7 0 0.9h-7.1zm5.4-1.4c0-1.2-0.5-3-2.6-3-2.1 0-2.7 1.7-2.8 3z"/>
					<path class="s0" d="m29.7 385.6c0.5 0.4 1.5 0.7 2.4 0.7 1.3 0 2-0.7 2-1.5 0-0.8-0.5-1.4-1.9-1.9-1.8-0.6-2.7-1.7-2.7-2.9 0-1.2 1.3-3 3.5-3 2.2 0 1.9 0.3 2.5 0.6l-0.5 1.3c-0.4-0.2-1.1-0.6-2.1-0.6-1 0-1.7 0.6-1.7 1.4 0 0.8 0.6 1.2 1.9 1.7 1.8 0.7 2.7 1.6 2.7 3.1 0 1.5-1.4 3.1-3.8 3.1-2.4 0-2.1-0.3-2.9-0.7l0.5-1.4z"/>
					<path class="s0" d="m40.5 374.4v2.9h2.6v1.4h-2.6v5.5c0 1.3 0.4 2 1.4 2 1 0 0.8 0 1.1-0.1v1.4c-0.3 0.1-0.8 0.2-1.6 0.2-0.8 0-1.5-0.3-2-0.8-0.5-0.5-0.7-1.4-0.7-2.6v-5.5h-1.6v-1.4h1.6v-2.4l1.8-0.5z"/>
					<path class="s0" d="m45.2 372.6h1.9v6.3c0.3-0.5 0.8-1 1.3-1.3 0.5-0.3 1.2-0.5 1.9-0.5 1.4 0 3.5 0.8 3.5 4.4v6h-1.9v-5.8c0-1.6-0.6-3-2.4-3-1.8 0-2.1 0.8-2.5 1.9-0.1 0.2-0.1 0.5-0.1 0.9v6.1h-1.9v-14.9z"/>
					<path class="s0" d="m57.9 382.8c0 2.5 1.6 3.5 3.5 3.5 1.9 0 2.1-0.2 2.8-0.5l0.3 1.3c-0.6 0.3-1.8 0.6-3.4 0.6-3.1 0-5-2.1-5-5.1 0-3 1.8-5.5 4.8-5.5 3 0 4.2 2.9 4.2 4.8 0 1.9 0 0.7 0 0.9h-7.1zm5.4-1.4c0-1.2-0.5-3-2.6-3-2.1 0-2.7 1.7-2.8 3z"/>
					<path class="s0" d="m69.6 374.4v2.9h2.6v1.4h-2.6v5.5c0 1.3 0.4 2 1.4 2 1 0 0.8 0 1.1-0.1v1.4c-0.3 0.1-0.8 0.2-1.6 0.2-0.8 0-1.5-0.3-2-0.8-0.5-0.5-0.7-1.4-0.7-2.6v-5.5h-1.6v-1.4h1.6v-2.4l1.8-0.5z"/>
					<path class="s0" d="m76.4 374.5c0 0.6-0.4 1.1-1.2 1.1-0.8 0-1.1-0.5-1.1-1.1 0-0.6 0.5-1.2 1.1-1.2 0.6 0 1.1 0.5 1.1 1.2zm-2.1 13v-10.2h1.9v10.2z"/>
					<path class="s0" d="m86.5 387.1c-0.5 0.2-1.5 0.6-2.9 0.6-3.1 0-5.1-2.1-5.1-5.2 0-3.1 2.1-5.4 5.5-5.4 3.4 0 2.1 0.3 2.6 0.5l-0.4 1.4c-0.4-0.2-1.1-0.5-2.1-0.5-2.3 0-3.6 1.7-3.6 3.8 0 2.1 1.5 3.8 3.5 3.8 2 0 1.7-0.3 2.3-0.5l0.3 1.4z"/>
					<path class="s0" d="m102 387.5c-0.4-0.4-0.8-0.8-1.3-1.4-1.2 1.1-2.6 1.6-4.1 1.6-2.8 0-4.4-1.9-4.4-4 0-2.1 1.2-3.2 2.8-4.1-0.7-1-1.2-2-1.2-3 0-1.7 1.2-3.5 3.6-3.5 2.4 0 3.1 1.2 3.1 3 0 1.8-0.9 2.7-3.1 3.8 1.2 1.4 2.5 3 3.4 4 0.6-1 1.1-2.4 1.4-4.1h1.7c-0.4 2.2-1 4-2 5.2 0.8 0.8 1.5 1.6 2.3 2.5zm-2.2-2.4c-0.8-0.9-2.4-2.6-4-4.4-0.8 0.5-1.8 1.4-1.8 2.9 0 1.5 1.2 2.9 2.9 2.9 1.7 0 2.2-0.6 2.9-1.3zm-4.3-8.7c0 1 0.5 1.8 1.1 2.5 1.4-0.8 2.4-1.6 2.4-2.8 0-1.2-0.5-1.8-1.6-1.8-1.1 0-1.8 1-1.8 2.1z"/>
					<path class="s0" d="m110.3 373.5q1.7-0.3 3.9-0.3 3.9 0 5.7 1.8c1.3 1.2 2 2.8 2 5.1 0 2.3-0.7 4.2-2 5.5-1.3 1.3-3.5 2-6.2 2-2.7 0-2.4 0-3.3-0.2v-13.9zm1.9 12.6c0.5 0 1.1 0.1 1.9 0.1 3.9 0 6-2.2 6-6 0-3.3-1.9-5.5-5.7-5.5-3.8 0-1.7 0-2.1 0.2v11.2z"/>
					<path class="s0" d="m125.4 382.8c0 2.5 1.6 3.5 3.5 3.5 1.9 0 2.1-0.2 2.8-0.5l0.3 1.3c-0.6 0.3-1.8 0.6-3.4 0.6-3.1 0-5-2.1-5-5.1 0-3 1.8-5.5 4.8-5.5 3 0 4.2 2.9 4.2 4.8 0 1.9 0 0.7 0 0.9h-7.1zm5.4-1.4c0-1.2-0.5-3-2.6-3-2.1 0-2.7 1.7-2.8 3z"/>
					<path class="s0" d="m134.9 380.5c0-1.2 0-2.2 0-3.2h1.6v2h0.1c0.5-1.4 1.6-2.2 2.8-2.2 1.2 0 0.4 0 0.5 0v1.7q-0.3 0-0.6 0c-1.3 0-2.2 1-2.5 2.4 0 0.2 0 0.6 0 0.9v5.4h-1.8v-7z"/>
					<path class="s0" d="m141.8 380.1c0-1.1 0-1.9 0-2.8h1.6v1.6h0.1c0.6-1 1.5-1.9 3.2-1.9 1.7 0 2.4 0.8 2.9 2 0.3-0.6 0.7-1 1.1-1.3 0.6-0.5 1.3-0.7 2.2-0.7 0.9 0 3.3 0.9 3.3 4.4v6h-1.8v-5.8c0-1.9-0.7-3.1-2.2-3.1-1.5 0-1.9 0.8-2.2 1.7 0 0.2-0.1 0.6-0.1 0.9v6.3h-1.8v-6.1c0-1.6-0.7-2.8-2.1-2.8-1.4 0-2 0.9-2.3 1.9-0.1 0.3-0.1 0.6-0.1 0.9v6.1h-1.8v-7.4z"/>
					<path class="s0" d="m165 387.5l-0.2-1.3c-0.6 0.8-1.7 1.5-3.1 1.5-2.1 0-3.1-1.4-3.1-2.9 0-2.5 2.2-3.8 6.1-3.8v-0.2c0-0.8-0.2-2.4-2.3-2.4-2.1 0-1.9 0.3-2.6 0.8l-0.4-1.2c0.8-0.6 2.1-0.9 3.3-0.9 3.1 0 3.9 2.1 3.9 4.2v3.8c0 0.9 0 1.7 0.2 2.4h-1.7zm-0.3-5.2c-2 0-4.3 0.3-4.3 2.3 0 2 0.8 1.8 1.7 1.8 0.9 0 2.2-0.8 2.5-1.7q0-0.3 0-0.6v-1.8z"/>
					<path class="s0" d="m171.6 374.4v2.9h2.6v1.4h-2.6v5.5c0 1.3 0.4 2 1.4 2 1 0 0.8 0 1.1-0.1v1.4c-0.3 0.1-0.8 0.2-1.6 0.2-0.8 0-1.5-0.3-2-0.8-0.5-0.5-0.7-1.4-0.7-2.6v-5.5h-1.6v-1.4h1.6v-2.4l1.8-0.5z"/>
					<path class="s0" d="m185.4 382.3c0 3.8-2.6 5.4-5.1 5.4-2.5 0-4.9-2-4.9-5.2 0-3.2 2.2-5.4 5-5.4 2.8 0 4.9 2.1 4.9 5.2zm-8.1 0.1c0 2.2 1.3 3.9 3.1 3.9 1.8 0 3.1-1.7 3.1-3.9 0-2.2-0.9-3.9-3-3.9-2.1 0-3.1 2-3.1 3.9z"/>
					<path class="s0" d="m187.7 372.6h1.8v14.9h-1.8z"/>
					<path class="s0" d="m201.9 382.3c0 3.8-2.6 5.4-5.1 5.4-2.5 0-4.9-2-4.9-5.2 0-3.2 2.2-5.4 5-5.4 2.8 0 4.9 2.1 4.9 5.2zm-8.1 0.1c0 2.2 1.3 3.9 3.1 3.9 1.8 0 3.1-1.7 3.1-3.9 0-2.2-0.9-3.9-3-3.9-2.1 0-3.1 2-3.1 3.9z"/>
					<path class="s0" d="m213 377.3c0 0.7 0 1.6 0 2.8v5.9c0 2.3-0.5 3.8-1.5 4.6-1 0.9-2.4 1.2-3.7 1.2-1.3 0-2.6-0.3-3.4-0.8l0.5-1.4c0.7 0.4 1.7 0.8 3 0.8 1.9 0 3.3-1 3.3-3.6v-1.1c-0.6 0.9-1.7 1.7-3.2 1.7-2.5 0-4.3-2.1-4.3-4.9 0-2.8 2.2-5.4 4.6-5.4 2.4 0 2.7 0.9 3.2 1.8v-1.5h1.7zm-1.9 4c0-0.3 0-0.6 0-0.8-0.3-1.1-1.2-1.9-2.6-1.9-1.4 0-3 1.5-3 3.8 0 2.3 1 3.6 3 3.6 2 0 2.2-0.7 2.6-1.9 0.1-0.3 0.2-0.7 0.2-1v-1.8z"/>
					<path class="s0" d="m216.6 377.3l2.2 6c0.2 0.7 0.5 1.5 0.7 2.1 0.2-0.6 0.4-1.4 0.7-2.1l2-6h2l-2.8 7.2c-1.3 3.5-2.2 5.3-3.5 6.4-0.9 0.8-1.8 1.1-2.3 1.2l-0.5-1.6c0.5-0.1 1.1-0.4 1.6-0.9 0.5-0.4 1.1-1.1 1.5-2.1 0-0.2 0.2-0.3 0.2-0.4 0-0.1 0-0.2-0.1-0.5l-3.8-9.4h2z"/>
				</g>
				<path fill-rule="evenodd" class="s0" d="m236.1 387.3c-1.4 0-2.6-1.2-2.6-2.6 0-1.4 1.2-2.6 2.6-2.6 1.4 0 2.6 1.2 2.6 2.6 0 1.4-1.2 2.6-2.6 2.6z"/>
			</g>
		</g>
	</g>
</svg>