<svg version="1.2" xmlns="http://www.w3.org/2000/svg" viewBox="0 0 1119 124" width="1119" height="124">
	<title>Travel To CHina</title>
	<style>
		.s0 { fill: #67844f } 
		.s1 { fill: #fbfbfb } 
		.s2 { fill: #262626 } 
	</style>
	<g id="Layer_1-2">
		<g>
			<path class="s0" d="m937.7 101c-1.2-1.1-3.8 3.8-4.6 4.7-25.2 28.5-70.9 3-61-32.5 7.5-27.3 43-35.3 61.6-13.3 1.2 1.4 2 4.5 4 4.2v-14.7c1-1.2 3.5-1.2 4.5 0v66.3c-1 1.2-3.5 1.2-4.5 0 0 0 0-14.7 0-14.7zm0-18.4c0-17.2-13.9-31.1-31.2-31.1-17.2 0-31.2 13.9-31.2 31.1 0 17.2 14 31.1 31.2 31.1 17.3 0 31.2-13.9 31.2-31.1z"/>
			<path class="s0" d="m1042.1 101c-1.1-1.1-3.7 3.8-4.5 4.7-25.3 28.5-71 3-61.1-32.5 7.6-27.3 43.1-35.3 61.6-13.3 1.3 1.4 2 4.5 4 4.2v-14.7c1-1.2 3.5-1.2 4.5 0v66.3c-1 1.2-3.5 1.2-4.5 0 0 0 0-14.7 0-14.7zm0.1-18.4c0-17.2-14-31.1-31.2-31.1-17.2 0-31.2 13.9-31.2 31.1 0 17.2 14 31.1 31.2 31.1 17.2 0 31.2-13.9 31.2-31.1z"/>
			<path class="s0" d="m288 101c-1.9-0.5-2 1.8-3.1 3.1-25.2 32.2-75.3 3.2-61.4-33.8 9.1-24.1 43-31.9 60-11.4 1.2 1.4 2 3.7 3 4.9 0.4 0.6 0.9 0.2 1.5 0.3v-14.7c1-1.3 3-0.6 4.5-0.8v67.8c-1.5-0.1-3.4 0.6-4.5-0.7v-14.7zm0.5-18.4c0-17.3-14-31.3-31.4-31.3-17.3 0-31.4 14-31.4 31.3 0 17.3 14.1 31.3 31.4 31.3 17.4 0 31.4-14 31.4-31.3z"/>
			<path class="s0" d="m678.3 13.2c-18-12.6-43.3-12-61.1 0.6-27.2 19.2-31.6 58.4-9.9 83.5 18.2 20.9 47.9 23.9 71 9.2 0.9 5-1.5 5.5-5.3 7.4-38.8 19-82.7-9.9-84.1-52-1.5-40.6 40-72.8 78.9-58.4 1.7 0.7 9.1 4 10 5 1 1.1 0.3 3.3 0.5 4.7z"/>
			<path class="s0" d="m698.8 61.6c2-0.6 2.6-2.8 4-4.3 16.6-17.4 47.7-12.5 51.8 13.2 2.3 14-0.3 30.4 0.7 44.7l-0.9 1.2-3.6 0.1v-43.7c0-21-27.6-28.1-42.3-16.7-3.8 3-9.7 11.3-9.7 16.2v43.4c-1 1.2-3.5 1.2-4.5 0v-111.7c1-1.2 3.5-1.2 4.5 0z"/>
			<path class="s0" d="m579.9 82.6c0 19.9-16.2 36-36.1 36-19.9 0-36.1-16.1-36.1-36 0-19.9 16.2-36 36.1-36 19.9 0 36.1 16.1 36.1 36zm-4.3 0c0-17.6-14.3-31.8-31.8-31.8-17.6 0-31.9 14.2-31.9 31.8 0 17.5 14.3 31.7 31.9 31.7 17.5 0 31.8-14.2 31.8-31.7z"/>
			<path class="s0" d="m428.4 100.5c0.6 5.1-0.1 6.3-3.7 9.5-20.8 18.1-53.9 4.4-58.6-21.9-6.3-35.1 39.5-55.3 62.3-28.7l-47 46.8c0 2 9 6.4 11.1 7 10.2 3.1 21.9 0.5 29.9-6.5 2.2-1.9 3.8-4.3 6-6.2zm-30.6-49.2c-8.2 0.8-16.6 5.3-21.6 11.8-8.7 11.7-8.1 30.1 2.5 40.4l44.2-44.1c-6.7-6.7-15.7-9.1-25.1-8.1z"/>
			<path class="s0" d="m1118.5 100.5c0.5 5.1-0.2 6.3-3.8 9.5-20.7 18.1-53.9 4.4-58.6-21.9-6.2-35.1 39.5-55.3 62.4-28.7l-47 46.8c0 2 9 6.4 11 7 10.2 3.1 21.9 0.5 30-6.5 2.2-1.9 3.8-4.3 6-6.2zm-30.6-49.2c-8.3 0.8-16.7 5.3-21.6 11.8-8.8 11.7-8.2 30.1 2.4 40.4l44.3-44.1c-6.8-6.7-15.8-9.1-25.1-8.1z"/>
			<path class="s0" d="m858.7 116.5l-3.7-0.1-0.8-1.2c-0.8-14.1 1.1-29.4 0-43.4-2.6-33.4-52-23.3-52 4.5v40.2h-4v-67.9h4v14c2 0.3 2.8-2.8 4-4.2 13.3-15.3 41.7-16.3 50.1 4.3 0.7 1.8 2.4 6.9 2.4 8.6z"/>
			<path class="s0" d="m154.6 7.3v108.4c-1.1 1.3-3 0.6-4.5 0.8v-109.3h-25.8c-1.1-0.9-1.1-3.1 0-3.9h55.5c1.2 0.9 1.1 3.1 0 3.9 0 0-25.2 0-25.2 0z"/>
			<path class="s0" d="m330.5 106.9l2-0.2 27-56.7c1-2 3.1-1.3 4.9-1.4l-32.4 68.8-33.5-68.8c1.8 0.1 4-0.6 4.9 1.4l27.1 56.9z"/>
			<path class="s0" d="m481.4 48.6h20.2c1.2 1 1.2 3.1 0 4h-20.2v44.1c0 1.3 2 6 2.7 7.3 3.5 6.3 11.2 9.7 18.3 9.5-0.1 1 0.4 3.6-0.8 3.9-0.8 0.2-7.4-1.3-8.7-1.7-7.8-2.7-16-11.9-16-20.4v-73.3c1-1.2 3.5-1.2 4.5 0v26.6z"/>
			<path class="s0" d="m444.9 3.3v91.5c0 1.3 1.4 6 2.1 7.4 3.3 7.3 11 11.6 18.9 12 0.8 0.5 0.8 3.4-0.3 3.7-15.5-1.3-24.3-11.4-25.2-26.6-1.7-28.1 1.3-58 0-86.3l0.8-1.7h3.7z"/>
			<path class="s0" d="m184.6 48.6v14.5c2.1 0.3 2.8-3 4-4.7 6.7-8.7 17.3-12.5 27.7-7.8l0.2 4.5c-12.9-7.4-27.3 1.4-30.8 14.9-0.3 1.3-1.2 4.7-1.2 5.8v40.7h-4v-67.9h4z"/>
			<path fill-rule="evenodd" class="s0" d="m774.2 48.6h4.5v67.9h-4.5z"/>
			<path fill-rule="evenodd" class="s0" d="m776.6 32.6c-2.7 0-4.9-2.2-4.9-4.9 0-2.7 2.2-4.9 4.9-4.9 2.7 0 4.9 2.2 4.9 4.9 0 2.7-2.2 4.9-4.9 4.9z"/>
			<path fill-rule="evenodd" class="s0" d="m964.2 115.9c-2.7 0-4.9-2.2-4.9-4.9 0-2.7 2.2-4.9 4.9-4.9 2.7 0 4.9 2.2 4.9 4.9 0 2.7-2.2 4.9-4.9 4.9z"/>
			<g>
				<g>
					<path class="s1" d="m44.5 7.4c20.3-2.1 40.9 8.6 44.9 29.7 8.2 44.1-73 51.8-79.2 10.2-2.9-19.9 15.2-38 34.3-39.9zm-10.5 20.9c-8.5 1.7-18.8 19.8-10.3 26 7.4 5.6 19.3-5.5 21.2-12.6 2.1-7.6-2.2-15.2-10.9-13.4zm30 0c-7.2 1.2-8.1 9.5-6 15.2 2.7 7.1 15.8 18.5 21.2 8.5 4.5-8.3-5.8-25.2-15.2-23.7zm-5.6 22.8c-1.7-0.5-10.4 0-13 0-1.8 1.9-0.4 4.7 1.6 6 2.3 1.4 4.6 0.5 3.4 5-2.3 2.1-5.3 0.5-7.3-1.2-1-0.9-1.4-3.1-3-2 1.2 6.6 9.2 8.6 15.1 7 2.3-0.7 8.3-4.1 7.4-7-0.8-2.6-3.1 1.7-3.7 2.2-1.3 1.2-6.1 2.7-6.7 0.7-1.1-4.5 2.1-3.3 4.6-5.2 1.3-1 3.8-4.8 1.6-5.5z"/>
					<path class="s2" d="m34 28.3c8.6-1.8 12.9 5.8 10.9 13.4-2 7-13.8 18.2-21.3 12.6-8.4-6.2 1.9-24.3 10.4-26zm6.2 14.9c0-2.3-1.9-4.2-4.3-4.2-2.3 0-4.2 1.9-4.2 4.2 0 2.4 1.9 4.3 4.2 4.3 2.4 0 4.3-1.9 4.3-4.3z"/>
					<path class="s2" d="m64 28.3c9.4-1.5 19.7 15.4 15.2 23.7-5.4 10-18.5-1.4-21.2-8.5-2.1-5.7-1.3-14 6-15.2zm6.6 14.9c0-2.4-1.9-4.3-4.2-4.3-2.4 0-4.3 1.9-4.3 4.3 0 2.4 1.9 4.3 4.3 4.3 2.3 0 4.2-1.9 4.2-4.3z"/>
					<path class="s2" d="m58.4 51.1c2.2 0.7-0.3 4.5-1.6 5.4-2.5 2-5.7 0.8-4.6 5.3 0.6 1.9 5.3 0.5 6.7-0.7 0.6-0.5 2.9-4.8 3.7-2.2 0.9 2.9-5.1 6.3-7.5 7-5.8 1.6-13.8-0.4-15-7 1.6-1.1 2 1.1 3 2 2 1.7 5 3.3 7.3 1.2 1.2-4.5-1.1-3.6-3.5-5.1-1.9-1.2-3.3-4-1.5-5.9 2.5 0 11.3-0.5 13 0z"/>
					<path class="s1" d="m40.2 43.2c0 2.4-1.9 4.3-4.3 4.3-2.3 0-4.2-1.9-4.2-4.3 0-2.3 1.9-4.2 4.2-4.2 2.4 0 4.3 1.9 4.3 4.2zm-2.2-1.9c-1.6-1.6-4.5-0.8-4.4 2.1 0.1 5.7 7.7 1.2 4.4-2.1z"/>
					<path class="s1" d="m70.6 43.2c0 2.4-1.9 4.3-4.2 4.3-2.4 0-4.3-1.9-4.3-4.3 0-2.3 1.9-4.3 4.3-4.3 2.3 0 4.2 2 4.2 4.3zm-1.5 0.2c0-1.6-1.3-2.8-2.8-2.8-1.6 0-2.8 1.2-2.8 2.8 0 1.6 1.2 2.8 2.8 2.8 1.6 0 2.8-1.2 2.8-2.8z"/>
					<path class="s2" d="m38 41.3c3.3 3.3-4.3 7.8-4.4 2.1-0.1-2.9 2.8-3.7 4.4-2.1z"/>
					<path fill-rule="evenodd" class="s2" d="m66.3 46.2c-1.6 0-2.8-1.2-2.8-2.8 0-1.6 1.2-2.8 2.8-2.8 1.5 0 2.8 1.2 2.8 2.8 0 1.6-1.3 2.8-2.8 2.8z"/>
				</g>
				<g>
					<path class="s2" d="m23.6 111c-6.5-1-13.8-7.2-16.7-13-6.1-12-2.6-26 4.6-36.6-5.7-8.6-6.9-19.2-3.3-28.9-23.1-13.7 8.4-47 23.3-25.2 4.5-0.8 8.8-2.7 13.4-3 8.7-0.7 17.5 0.4 25.5 3.9 1 0 1.3-1.3 1.9-2 17.1-17.7 42.7 15.4 20.9 28.3 2.2 10 0.1 19-4.6 27.8l6.5 9.3c-2.9 0.7-16 5.4-18 6.7-1.3 0.9-2.8 3.6-2.5 5.2-2.2 0.9-4.1 2.1-6.5 3 0-3.2 0.1-6.4-0.6-9.6-0.2-0.5-0.2-1.5-0.9-1.3-0.7 4.1-1.3 8.2-1 12.4-1.4 1-2.7 2.2-4.5 2.6 2.4 8.3-3.5 8.6-8.6 12-1.8 1.1-3.3 2.9-4.9 3.9-6.2 3.9-16.7 5.5-24 4.5zm20.9-103.6c-19.1 1.9-37.3 20-34.3 39.9 6.2 41.6 87.4 33.9 79.2-10.2-4-21.1-24.6-31.8-44.9-29.7zm26.1 77.1c2.6-4.8 6.4-9.3 7.5-14.9-3.2 3-8 9.8-8.5 14.2-0.1 1 0.1 0.8 1 0.7z"/>
					<path class="s2" d="m96.6 74.1c11.6 18.5 4 37.3-15.3 45.8-8.4 3.7-32.4 7.7-33.6-5.8-1-11 19.5-16.8 27.9-18.6 1.4-1.4-3.9-1-4.5-1 5.8-3.1 12.5-5.5 19-7 0.1-1.3 0-0.8-0.8-0.9-5.1-1-10.5-0.4-15.7-0.6 1.3-0.7 4-1.8 4-2.9 2.5-0.2 4.4-1.2 7.4-2.4l12.6-3.6h-7l6-3z"/>
					<path class="s0" d="m47.6 106.5c-1.3 1.9-1 5.4-1.7 7-0.2 0.3-4.9 5.1-5.3 5.2-1.1 0.5-2.7-2.3-3.4-3.1-0.2-1 2.9-2.2 1.7-3.6-0.4-0.1-0.7-0.1-1 0-3.2 0.6-12.3 9.8-16.1 11.4-1.7 0.2-4.9-6.3-5.6-7.7 0-0.5 5.2-2.8 6.1-3.3 0.7-0.4 1.6-0.2 1.3-1.4 7.3 1 17.8-0.6 24-4.5z"/>
					<path class="s0" d="m73.6 86c5.2 0.2 10.6-0.4 15.7 0.5 0.8 0.2 0.9-0.3 0.8 1-6.5 1.5-13.2 3.9-19 7-2.5 0.1-4.6 0.8-7 1l-0.5-3.6c3.2-2.1 6.7-3.9 10-5.9z"/>
					<path class="s0" d="m95.1 71.6c1.6-0.5 4.2-0.4 6-1-0.8 1.9-4.4 1.5-4.5 3.5l-6 3h7l-12.6 3.6c-3 1.2-4.9 2.2-7.4 2.3-1.3 0.1-1.7 0-3 0.5-0.2-1.6 1.3-4.3 2.5-5.2 2-1.3 15.2-6 18-6.7z"/>
					<path class="s0" d="m68.1 86.5c-1.8 0.7-1.4 0.8-2.5 1.5-0.3-4.2 0.3-8.3 1-12.4 0.7-0.2 0.7 0.8 0.8 1.3 0.8 3.2 0.7 6.4 0.7 9.6z"/>
					<path class="s0" d="m70.6 84.5c-0.8 0.1-1.1 0.3-1-0.7 0.5-4.4 5.3-11.2 8.5-14.2-1.1 5.6-4.8 10.1-7.5 14.9z"/>
				</g>
			</g>
		</g>
	</g>
</svg>