<svg version="1.2" xmlns="http://www.w3.org/2000/svg" viewBox="0 0 98 31" width="98" height="31">
	<title>chocolate</title>
	<defs>
		<clipPath clipPathUnits="userSpaceOnUse" id="cp1">
			<path d="m0 0h98v31h-98z"/>
		</clipPath>
	</defs>
	<style>
		.s0 { fill: #020202 } 
		.s1 { fill: #681b12 } 
		.s2 { fill: #030303 } 
		.s3 { fill: #e63133 } 
		.s4 { fill: #ffffff } 
		.s5 { fill: #e32f33 } 
		.s6 { fill: #6fa442 } 
		.s7 { fill: #631c12 } 
	</style>
	<g id="Clip-Path" clip-path="url(#cp1)">
		<g>
			<path class="s0" d="m91 5q-2.5-0.1-2.9 0 0 0.5 0.3 3.2 0.1 1.3 0.1 1.6 0.4 4 0.7 7.7c0.1 0.7 0.6 0.5 0.6 0.5l6.6-0.6 0.1-0.5q0-1 0.2-2.7-0.2-0.1-0.6 0-1 0-2 0.2-1 0.1-2.1 0.2-0.1-0.6 0-1.5v-0.1l2.3-0.3q-0.1-1.4 0.2-2.8-0.3-0.1-2.6 0.1-0.1-0.5-0.1-1.2c0 0 2.4-0.6 4.3-0.4q0.9 0.1 1 0v-0.4q0-0.5 0.1-0.9v-0.6q0.1-0.9 0.2-2-3.6 0.4-6.4 0.5"/>
			<path class="s1" d="m91.3 5.3q-2.4-0.1-2.8 0 0 0.4 0.3 3 0.1 1.3 0.1 1.6 0.4 3.8 0.7 7.3c0.1 0.7 0.6 0.5 0.6 0.5l6.3-0.6v-0.5q0.1-0.9 0.2-2.5-0.2-0.1-0.5-0.1-1 0-2 0.2-0.9 0.2-1.9 0.2h-0.1q0-0.5 0-1.4v-0.1l2.2-0.3q0-1.3 0.2-2.7-0.2 0-2.5 0.1 0-0.4 0-1.1c0 0 2.3-0.5 4.1-0.4q0.8 0.1 1 0v-0.4q0-0.5 0-0.8v-0.5q0.1-0.9 0.2-2-3.4 0.4-6.1 0.5"/>
			<path class="s0" d="m85.4 18.7l-0.7-10.9 2.9-0.5q-0.3-2.3-0.2-4.5-1.8 0.3-5.9 0.8-3 0.2-3.6 0.3-0.9 0.1-1.7 0.2 0.3 1.1 0.6 3.1 0.1 1.1 0.2 1.9 2.1-0.6 3.8-0.8l0.4 10.5c0 0 2.1-0.6 4.2-0.1z"/>
			<path class="s0" d="m76.9 10.6l-0.7-2.6q-0.6-2.1-0.9-3.5-0.2-0.9-0.4-2.9-2.2 0.6-4.6 1-0.1 1.2-0.3 2.5-0.1 1.1-0.7 5.9-0.6 4.3-0.9 6.3 1.6 0.3 3.9 1 0.1-2.1 0.3-3.3 0.6 0 1.5-0.4 0.2 1.3 0.7 3 1.9-1.2 3.7-1.8-0.5-1.6-0.7-2.1l-0.9-3.1zm-4.2 1.7q0.1-1.6 0.3-3 0.3 1.2 0.6 2.8-0.2 0.2-0.9 0.2z"/>
			<path class="s1" d="m76.9 10.6l-0.7-2.5q-0.6-1.9-0.8-3.2-0.2-0.9-0.4-2.7-2.1 0.5-4.3 0.8-0.1 1.2-0.3 2.4-0.1 1-0.6 5.6-0.6 3.9-0.9 5.8 1.5 0.3 3.6 1 0.1-2 0.3-3.1 0.6-0.1 1.4-0.4 0.2 1.2 0.7 2.8 1.8-1.1 3.5-1.7-0.6-1.4-0.7-1.9c0 0-0.9-2.9-0.8-2.9zm-4 1.6q0.1-1.5 0.3-2.9 0.3 1.2 0.6 2.7-0.3 0.2-0.9 0.2z"/>
			<path class="s2" d="m57.7 6.8c-2.1-1.5-5.4-0.3-7.5 2.6-2.2 2.9-2.3 6.5-0.3 7.9 2 1.5 5.4 0.4 7.5-2.5 2.2-2.9 2.3-6.5 0.3-8zm-2.9 7.6c-1.1 1.1-2.5 1.4-3.2 0.8-0.6-0.7-0.3-2.1 0.8-3.2 1.1-1.1 2.5-1.4 3.1-0.8 0.7 0.7 0.4 2.1-0.7 3.2z"/>
			<path class="s1" d="m57.7 6.4c-2.1-1.5-5.4-0.3-7.5 2.6-2.2 2.9-2.3 6.5-0.3 7.9 2 1.5 5.4 0.4 7.5-2.5 2.2-2.9 2.3-6.5 0.3-8zm-2.9 7.6c-1.1 1.1-2.5 1.4-3.2 0.8-0.6-0.7-0.3-2.1 0.8-3.2 1.1-1.1 2.5-1.4 3.1-0.8 0.7 0.7 0.4 2.1-0.7 3.2z"/>
			<path class="s1" d="m57.7 6.4c-2.1-1.5-5.4-0.3-7.5 2.6-2.2 2.9-2.3 6.5-0.3 7.9 2 1.5 5.4 0.4 7.5-2.5 2.2-2.9 2.3-6.5 0.3-8zm-2.9 7.6c-1.1 1.1-2.5 1.4-3.2 0.8-0.6-0.7-0.3-2.1 0.8-3.2 1.1-1.1 2.5-1.4 3.1-0.8 0.7 0.7 0.4 2.1-0.7 3.2z"/>
			<path class="s0" d="m46.3 9l-0.1-5.6q-2.6 0.2-4.6 2-1.3 1.2-2.1 2.3-1.6 2.5-1.8 5-0.1 0.9 0.1 2 0.1 0.2 0.2 0.4c0.2 1 0.8 1.9 1.9 2.7 3.6 2.3 7.6-1.2 8.2-1.7q0.2-0.1 0.4-0.3l-0.7-4.1q-2.5 2.3-3.9 2.6-0.3 0-0.6 0c-0.6-0.2-0.8-0.4-0.8-0.4-0.9-0.8-0.5-2.3 0.3-3.4 0 0 1.1-1.9 3.5-1.5"/>
			<path class="s1" d="m46.3 8.9v-5.4q-2.6 0.2-4.5 2-1.2 1.1-2 2.2-1.5 2.4-1.8 4.8 0 0.9 0.2 1.9 0 0.2 0.1 0.4c0.3 1 0.8 1.9 1.9 2.6 3.4 2.3 7.3-1.1 7.8-1.6q0.2-0.2 0.4-0.3l-0.6-3.9q-2.4 2.2-3.8 2.4-0.3 0.1-0.5 0c-0.6-0.1-0.8-0.4-0.8-0.4-0.8-0.8-0.5-2.2 0.3-3.3 0 0 1.1-1.7 3.3-1.4z"/>
			<path class="s2" d="m21.4 0.9q0-0.2-0.2-0.3-0.1-0.1-0.2-0.1-0.1 0-0.2 0.1-1.1 0.8-3.3 1.2c-0.2 0.1-0.3 0.2-0.3 0.4q0.4 2.8 0.6 5.8l-1 0.5q-0.4-2.4-0.9-8.1 0-0.2-0.1-0.3-0.1 0-0.2 0-0.1 0-0.2 0-1.7 0.7-3.7 0.9-0.1 0-0.2 0.1-0.1 0.1-0.1 0.3 1 6.4 1.6 11c0.2 2.2 0.2 4.6 0.5 7.3q0 0.2 0.2 0.3 0.1 0 0.2 0 0.1 0 0.2 0c0.9-0.7 1.9-1.2 2.6-1.6l0.7-0.3c0.2-0.1 0.3-0.2 0.3-0.4q-0.3-1.6-0.6-5.3l1.1-0.5c0.2 2.1 0.5 4.6 0.8 7.3q0 0.2 0.2 0.3 0.1 0.1 0.1 0.1 0.1 0 0.2-0.1 1.8-1.2 3-1.8c0.2 0 0.3-0.2 0.2-0.3-0.4-4.8-0.8-10.2-1.3-16.5z"/>
			<path class="s2" d="m11.1 16.8c0 0-3.5 5.1-8.4 2.4-4.8-2.6-1.3-9.3-1.3-9.3 0 0 3.2-6.6 9.7-7.4l-0.8 6.2c0 0-4.7 0.4-5.1 4.3-0.4 3.9 3.9 1.6 4.8 0.1 0 0 1.1 3.7 1.1 3.7z"/>
			<path class="s1" d="m11.1 16.5c0 0-3.4 4.8-8 2.3-4.6-2.5-1.3-8.9-1.3-8.9 0 0 3.1-6.2 9.3-7l-0.8 5.8c0 0-4.5 0.4-4.9 4.1-0.4 3.7 3.7 1.6 4.5 0.2 0 0 1.2 3.5 1.2 3.5z"/>
			<path class="s3" d="m74.2 23.7q1.3-0.4 1.5-1.7 0-0.3-0.2-0.7-1.1-1.7-3.9-2-1.6-0.1-2.2 0.1-0.1 1.4-0.2 2.7-0.1 0.8-0.4 4.9 0 0.1 0.9 0.3 0.8 0.3 1.4 0.4 1.4 0.1 1.8 0 0.5 0 1.4-0.3 0.3-0.1 0.6-0.4 0.6-0.4 0.9-1.4-0.1-0.7-0.5-1-0.4-0.5-1.1-0.9m-2.7-2.1q0.6-0.1 1.3 0.1 0.4 0.2 0.4 0.6-0.1 0.5-1.7 0.5-0.1-0.5 0-1.2zm0.2 4.2q-0.2-0.6-0.2-1.3 0.8-0.2 1.5 0.1 0.5 0.1 0.6 0.6-0.1 0.6-1.9 0.6z"/>
			<path class="s3" d="m89.4 24.7q-0.1-0.2-0.2-0.3-0.5-0.4-0.8-0.4-0.4-0.1-0.9 0-0.3 0.1-1.1 0.5-0.8 0.4-0.9-0.4-0.1-1.1 1.1-1.5 1.3-0.4 2.4 0l0.2-2.9q-2.1-0.2-4.2 1-1.1 0.9-1.1 1.3-0.3 0.6-0.5 1.3-0.4 1.4-0.2 2.2 0.1 0.5 0.4 0.7 0.3 0.4 0.7 0.5 0.4 0.2 0.9 0.1 0.4 0 0.6 0 0.3-0.1 1-0.4 0.6-0.3 0.9-0.3 0.2-0.1 0.3 0.1 0 0.2-0.1 0.5-0.3 0.4-0.7 0.8-0.6 0.5-1.7 0.6-0.9 0.1-1.4 0-0.3 1.5-0.6 2.2 0.4 0.1 0.9 0.2 2.1-0.1 3.3-0.7 1-0.7 1.4-1.3 0.2-0.4 0.5-1.1 0.4-1.1 0.2-2-0.1-0.4-0.4-0.7"/>
			<path class="s3" d="m96.9 18.1q-0.8 0.6-2.5 0.9 0.3 2.1 0.4 4.2l-1.1 0.6q-0.3-1.6-0.6-6-1.3 0.5-2.7 0.6 1.3 8.5 1.5 12.6l2.4-1q-0.2-1.2-0.4-4l1.2-0.6q0.3 2.3 0.6 5.5 1.3-0.8 2.1-1.2-0.4-5.1-0.9-11.6z"/>
			<path class="s3" d="m81.1 24.6l-0.4-1.6q-0.4-1.3-0.6-2.2-0.1-0.6-0.2-1.7-1.4 0.3-2.8 0.5-0.2 0.8-0.3 1.6 0 0.7-0.4 3.7-0.3 2.6-0.6 3.8 1.1 0.2 2.5 0.7 0-1.3 0.1-2.1 0.4 0 1-0.3 0.1 0.8 0.4 1.9 1.2-0.7 2.3-1.1-0.3-1-0.4-1.3c0 0-0.6-1.9-0.6-1.9zm-2.6 1.1q0.1-1 0.2-1.9 0.2 0.7 0.4 1.8-0.2 0.1-0.6 0.1z"/>
			<path class="s4" d="m79 19.7c0.1 0.7 1.4 4 1.6 4.5-0.2-0.6-1.2-4.7-1.2-4.7 0 0-0.4 0.2-0.4 0.2z"/>
			<path class="s4" d="m96.5 19.1l-0.8 0.1 1 4.3z"/>
			<path class="s2" d="m65.3 18.9q-1.3 0.4-3.7 1.1 0 0.1-0.1 0.1-0.1 0-0.2-0.1-0.1-0.1-0.1-0.3-0.2-1.9-0.6-4-0.3-2-0.6-3.4-0.4-2.2-0.9-4.5c-0.1-0.2 0-0.4 0.2-0.4q2.1-0.6 4.1-1.3 0.1 0 0.2 0 0.1 0 0.2 0 0.1 0.1 0.1 0.3 0.4 3.9 0.5 5.1 0.1 1.2 0.2 2.6v0.8l0.7-0.3q0.5-0.3 2-0.9c0.5-0.4 0.7-0.4 0.8-0.4q0 0 0 0 0.1 0 0.2 0.1 0.1 0.1 0.1 0.3c-0.1 3.8-0.2 4-0.2 4.1q0 0 0 0v0.1"/>
			<path class="s2" d="m67.9 17.6q0 0 0 0 0-0.1 0.2-4-0.1 0-0.7 0.4-1.5 0.7-1.9 0.9l-1.1 0.5-0.2-1.3q0-1.3-0.1-2.5-0.2-1.2-0.5-5.2-2.1 0.7-4.2 1.3 0.6 2.4 0.9 4.5 0.3 1.4 0.7 3.5 0.4 2.1 0.5 4 2.4-0.7 3.7-1.1 0.6-0.1 1.1 0"/>
			<path class="s1" d="m85.3 18l-0.7-10.5 3.2-0.5q-0.3-2.1-0.2-4.2-1.7 0.2-5.6 0.7-3 0.2-3.5 0.3-0.8 0.1-1.6 0.2 0.2 1 0.5 2.9 0.1 1.1 0.2 1.9 2-0.6 3.6-0.8l0.5 10c0 0 1.6-0.5 3.6 0z"/>
			<path class="s1" d="m67.9 17.3c0 0 0.1-1.5 0.2-4q-0.1 0-0.7 0.3-1.5 0.7-1.9 0.9l-1.2 0.5-0.1-1.2q-0.1-1.4-0.1-2.6-0.2-1.2-0.5-5.2-2.1 0.7-4.2 1.4 0.5 2.3 0.9 4.4 0.3 1.4 0.7 3.5 0.3 2.1 0.5 4 2.4-0.7 3.7-1.1l2.7-0.9z"/>
			<path class="s1" d="m17.6 1.8q2.3-0.5 3.4-1.3 0.8 9.2 1.4 16.5-1.2 0.6-3.1 1.8-0.4-4.5-0.8-7.9l-1.7 0.9q0.3 4 0.5 5.6l-2 0.9-1.4 0.6c0 0-0.9-9.9-2.2-17.9q2.1-0.2 3.9-1 0.5 6.4 0.9 8.6l1.7-0.8q-0.2-3.1-0.6-6z"/>
			<path class="s4" d="m57.2 7.3c1.6 3.4 0.3 5.6 0.3 5.6 0 0 1.2-1.2 0.9-2.9-0.2-1.8-1.2-2.7-1.2-2.7z"/>
			<path class="s4" d="m62.2 18.7l0.8-0.4-1.8-6z"/>
			<path class="s4" d="m73.6 3.2c0.2 1 2 5.6 2.3 6.5-0.3-1-1.7-6.7-1.7-6.7z"/>
			<path class="s4" d="m75.6 9.7q0 0.1 0 0.1 0 0 0-0.1z"/>
			<path class="s4" d="m39.3 10.8c0 0-2 5.1 3 6.6 0 0-3.5-1.2-3-6.6z"/>
			<path class="s4" d="m87 4v-0.7l-8.6 1z"/>
			<path class="s4" d="m89.7 6l0.8 7.3v-7.3z"/>
			<path class="s4" d="m20.6 1.5l-0.9 0.6 1.6 8.7-0.7-8.7z"/>
			<path class="s4" d="m2 11.4c0 0-2 5.2 3 6.6 0 0-3.5-1.1-3-6.6z"/>
			<path class="s4" d="m36.7 5.3c-1.1-0.6-2.9-0.7-4.4-0.7q0.4-0.3 0.6-0.6c0.7-1.2 0.6-2.5 0.4-3.2q0-0.1 0-0.1c0.2 0 0.3-0.2 0.3-0.4-0.1-0.2-0.2-0.3-0.4-0.3 0 0-0.1 0-0.2 0.1-2.1 0.6-3 1.8-3.3 2.8-0.3-0.6-0.8-1.1-1.6-1.6-1.5-0.8-4 0-4.1 0-0.1 0.1-0.2 0.2-0.2 0.4 0 0.1 0.1 0.3 0.2 0.3 0.6 0.3 1.1 1.5 1.3 2.6q0.1 0.7 0.6 1 0.2 0.1 0.5 0.2c-0.7 0.3-1.5 0.7-2.1 1.3-2.3 2-2.5 4.6-0.6 7.4 1.9 3 5.8 4.5 7.4 4.5q0 0 0.1 0c1.6 0 4.6-2 5.8-5.4 1.6-4.4 1.5-7.1-0.3-8.3z"/>
			<path class="s5" d="m32.2 7.1c0 0-3.5-0.6-6 0.7-2.4 1.3-2.3 3.3-1.9 4.7 0.4 1.4 3.4 5.1 6 5.8 2.5 0.8 5-2.4 5-2.4 0 0 1.9-3.1 2.2-5 0.3-2 0.6-2.6 0.6-2.6 0 0-1.2-2.3-3.8-2.3-2.7 0-4.8 0.4-4.8 0.4 0 0 1.8 0.1 2.7 0.7z"/>
			<path class="s4" d="m36.7 6.9c0 0.5-0.3 0.9-0.6 0.9-0.3 0-0.5-0.4-0.5-1 0-0.5 0.3-0.9 0.6-0.9 0.3 0 0.5 0.4 0.5 1z"/>
			<path class="s4" d="m37.1 8.4c0 0.4-0.2 0.6-0.4 0.6-0.2 0-0.4-0.3-0.4-0.6 0-0.3 0.2-0.6 0.4-0.6 0.2 0 0.4 0.3 0.4 0.6z"/>
			<path class="s6" d="m30.8 4.7c0-1.8 1.3-2.8 1.9-3.2 0.1 0.6 0.1 1.4-0.4 2.1q-0.5 0.7-1.5 1.1z"/>
			<path class="s6" d="m28.6 5.1q-1.5 0.2-2.1 0c-0.1-0.4-0.2-1-0.3-1.5-0.2-0.9-0.7-1.5-0.7-1.5 1.2-0.1 2.3 0.1 3 0.4 0.5 0.5 0.7 1 0.9 1.5-0.6-0.4-1.5-1-2.3-1.1 0 0 2 1.7 1.5 2.2z"/>
			<path class="s0" d="m33.6 0.3c-0.1-0.2-0.2-0.3-0.4-0.3 0 0-0.1 0-0.2 0.1-2.1 0.6-3 1.8-3.3 2.8-0.3-0.6-0.8-1.1-1.6-1.6-1.5-0.8-4 0-4.1 0-0.1 0.1-0.2 0.2-0.2 0.4 0 0.1 0.1 0.3 0.2 0.3 0.7 0.3 1.1 1.5 1.3 2.6q0.1 0.7 0.6 1 0.5 0.3 1.4 0.3c0.7 0 1.7-0.1 3.1-0.4q1.8-0.3 2.5-1.5c0.7-1.2 0.6-2.5 0.4-3.2q0-0.1 0-0.1c0.2 0 0.3-0.2 0.3-0.4zm-5 4.8q-1.8 0.3-2.3-0.1-0.2-0.1-0.3-0.5c-0.1-0.5-0.3-1.9-1.1-2.7 0.9-0.1 2.1-0.3 2.9 0.2 1 0.5 1.3 1.3 1.6 2-0.6-0.4-1.5-1-2.3-1.1 0 0 2 1.7 1.5 2.2zm3.7-1.5q-0.6 0.9-2 1.2c0-0.1-0.1-0.3-0.1-0.5q0-0.1 0-0.4c0-0.7 0.4-2.1 2.4-2.9q0 0 0 0c0.1 0.6 0.3 1.7-0.3 2.6z"/>
			<path class="s4" d="m33.8 7.9c0 0-0.7 0.4-0.1 1.3 0 0 0.8-0.6 0.1-1.3z"/>
			<path class="s4" d="m29.9 8.6c0 0-0.7 0.4-0.1 1.3 0 0 0.8-0.5 0.1-1.3z"/>
			<path class="s4" d="m26.9 9.6c0 0-0.7 0.4-0.1 1.3 0 0 0.8-0.5 0.1-1.3z"/>
			<path class="s4" d="m28.5 12.7c0 0-0.6 0.4-0.1 1.3 0 0 0.8-0.5 0.1-1.3z"/>
			<path class="s4" d="m31.9 11.5c0 0-0.6 0.4-0.1 1.3 0 0 0.8-0.6 0.1-1.3z"/>
			<path class="s4" d="m35.5 10.1c0 0-0.6 0.4-0.1 1.3 0 0 0.8-0.5 0.1-1.3z"/>
			<path class="s4" d="m35.1 12.6c0 0-0.7 0.4-0.1 1.3 0 0 0.8-0.5 0.1-1.3z"/>
			<path class="s0" d="m36.7 5.3c-2.1-1.3-6.6-0.4-6.9-0.4-0.3 0-3.6 0.5-5.5 2.2q-1.6 1.4-1.8 3.1c0 0-0.4 1.4 0.5 3.4q0.1 0.2 0.2 0.4c0.2 0.3 0.5 0.7 0.9 1.1q0.3 0.4 0.6 0.7c0.7 0.7 1.4 1.4 1.7 1.7 0.7 0.5 1.4 1.1 1.6 1.8q0 0.1 0 0.2c0.2 0.8 0.4 1.7 1.1 1.5q0.7-0.1 0.8-0.6 0-0.1 0-0.2c0.2 0 0.5 0.1 0.7 0.5q0.6 1.4 0.2 3.3c-0.2 1.2-0.2 2.3 0.3 3q0.3 0.5 0.8 0.5 0.3 0.1 0.5 0 0.5 0 0.8-0.4c0.1-0.2 0.3-0.5 0.3-0.9 0.1-0.4 0.1-1-0.1-1.7-0.1-0.6-0.3-1-0.5-1.5-0.2-0.6-0.4-1.1-0.4-1.7q0.1-0.3 0.4-0.7c0.3-0.4 0.8-1.1 1.3-1.8 1-1.3 2-2.7 2.3-3.4 0.4-0.8 0.9-2.4 1.1-3.2q0 0 0 0 0 0 0 0 0 0 0 0 0 0 0 0 0 0 0 0 0-0.2 0.1-0.4c0.6-2.7 0.2-4.5-1.2-5.4m-12.2 7.7q-0.4-0.6-0.7-1.1 0.1 0 0.3 0c0.7 0.1 1.8 1.1 1.8 1.1 0.5 0.6 2 1.2 2.6 0.8q0.1-0.1 0.2-0.1c0.5-0.4 1.1-0.8 1.9-0.7 0.4 0 0.6 0.2 0.9 0.3 0.3 0.2 0.6 0.5 1.3 0.5 1.2 0.1 2.2-0.5 2.6-1.5 0.4-0.9 1.1-1.7 1.6-2.3l0.1-0.2q0.1-0.2 0.3-0.2-0.3 1.2-0.8 2.6c-1.2 3.2-4 5-5.2 5q-0.1 0-0.1 0c-1.2 0-4.9-1.3-6.8-4.2zm0.5-6.5c1.8-1.5 5-2 5.1-2q0 0 0 0c0 0 1.7-0.3 3.5-0.3 1.1 0 2.2 0.2 2.9 0.6q1.6 1 1 4.2c-0.2 0-0.3 0-0.6 0.3l-0.1 0.1c-0.5 0.7-1.2 1.5-1.6 2.4-0.4 0.9-1.3 1.4-2.4 1.3-0.5 0-0.8-0.2-1-0.4-0.3-0.2-0.6-0.3-1.1-0.4-1-0.1-1.6 0.4-2.1 0.7q-0.1 0.1-0.2 0.2c-0.4 0.3-1.7-0.2-2.1-0.7-0.1-0.1-1.2-1.2-2.1-1.3q-0.4 0-0.6 0.1c-0.7-2.2 0.3-3.8 1.4-4.8m8 11.7q-0.4 0.6-0.4 1c-0.2 0.8 0.1 1.4 0.3 2.1 0.2 0.4 0.4 0.9 0.5 1.4q0.2 0.9 0.1 1.5 0 0.2-0.2 0.4c-0.2 0.3-0.6 0.3-0.9 0.3q-0.4-0.1-0.6-0.4c-0.4-0.6-0.4-1.6-0.2-2.7q0.4-1.9-0.3-3.4c-0.2-0.6-0.6-0.8-1-0.8q0 0 0 0.1-0.3 0-0.4 0.3 0 0 0 0.1 0 0.1 0 0.1-0.1 0.2-0.4 0.3c-0.4 0-0.5-0.5-0.7-1.3q0-0.1 0-0.2-0.1-0.4-0.4-0.7c1.2 0.6 2.4 0.9 3.1 0.9q0 0 0 0c0.7-0.1 1.7-0.4 2.7-1.2-0.4 0.6-0.8 1.1-1 1.5"/>
			<path class="s4" d="m32.1 26.6c-0.4-0.1-0.5-0.2-0.8-0.5-0.4-0.7-0.4-1.7-0.2-2.9q0.4-1.8-0.2-3.2c-0.2-0.5-0.6-0.8-0.8-0.7-0.1 0-0.3 0.2-0.3 0.2 0.1 0.6 0 0.8-0.5 0.9-0.7 0.2-0.8-0.5-1-1.3 0 0-0.1-0.3-0.2-0.4-0.1-0.7-0.9-1.3-1.7-1.9-0.6-0.5-2.6-2.6-3.1-3.3-0.3-0.5-0.2-0.5-0.1-0.8 0.2-0.1 0.2-0.3 0.8-0.3 0.9 0.1 2 1.3 2 1.4 0 0 1.6 1 2.1 0.7 0-0.1 0.4-0.3 0.5-0.3 0.5-0.4 0.9-0.7 1.8-0.6 0.6 0 0.8 0.2 1.1 0.4 0.3 0.2 0.6 0.4 1.1 0.4 1.1 0.1 2.2-0.6 2.6-1.5 0.4-0.9 1-1.6 1.5-2.3l0.3-0.2c0.2-0.2 0.3-0.3 0.5-0.2 0.2 0.1 0.3 0.2 0.3 0.5 0 0.4-0.7 2.5-1.2 3.5-0.3 0.7-1.3 2.1-2.3 3.4-0.5 0.7-0.9 1.4-1.3 1.9-0.7 1-0.6 1.7-0.2 2.7 0.2 0.4 0.4 1 0.5 1.5 0.4 1.5 0.4 1.9 0.1 2.3-0.2 0.2-0.3 0.5-0.6 0.5 0 0-0.6 0.1-0.7 0.1z"/>
			<path class="s7" d="m37.9 10.7c0 0.4-0.6 2.6-1.1 3.6-0.4 0.7-1.4 2.1-2.4 3.4-0.5 0.7-1 1.3-1.3 1.8-0.7 1-0.4 1.8 0 2.8 0.1 0.4 0.3 0.9 0.5 1.5 0.2 0.8 0.2 1.4 0.1 1.8-0.6 0.1-1.5 0.1-1.8-0.5-0.5-1-0.1-2.7-0.4-3.5-0.1-0.3-0.3-0.5-0.5-0.5q-0.1-0.6-0.3-1.1c-0.2-0.5-0.5-0.6-0.6-0.5-0.1 0-0.1 0-0.1 0.1q0 0.2 0 0.3l-0.1-0.2c0 0-0.3-0.1-0.4 0.1-0.1 0.3-0.3 0.4-0.5-0.5-0.2-1-1.5-2.2-2.2-2.1q-0.1 0-0.2 0-0.1-0.1-0.1-0.1c-0.7-0.5-2.7-2.8-3.2-3.5q-0.2-0.2-0.3-0.4c0.4-0.2 0.9-0.3 1.3 0 0.7 0.6 1.7 1.6 2.7 1.7q0.6 0.1 1.2-0.2c0.2 0 0.4-0.2 0.6-0.4q0.2-0.2 0.6-0.3c0.4-0.2 1-0.3 1.4-0.2q0.2 0.1 0.4 0.2c0.4 0.2 0.7 0.2 1 0.2q0.2 0 0.4 0c1.1 0.1 2-0.4 2.4-1.3 0.4-0.9 1.1-1.7 1.6-2.4l0.1-0.1c0.3-0.4 0.6-0.4 0.8-0.3 0.2 0.1 0.4 0.3 0.4 0.6"/>
			<path class="s0" d="m32.5 26.8q-0.2 0-0.4 0-0.6-0.1-0.9-0.6c-0.4-0.6-0.5-1.8-0.2-3q0.3-1.8-0.3-3.2c-0.2-0.5-0.5-0.6-0.6-0.5-0.1 0-0.1 0-0.1 0.1q0.1 0.9-0.8 1.1c-0.7 0.1-0.9-0.7-1.1-1.6q0-0.1 0-0.1c-0.2-0.8-0.9-1.4-1.6-1.9-0.7-0.5-2.7-2.8-3.2-3.4-0.3-0.5-0.4-0.9-0.2-1.1 0.1-0.2 0.3-0.3 0.9-0.3 0.9 0.1 2 1.2 2 1.3 0.5 0.5 1.7 1 2.2 0.7q0.1-0.1 0.1-0.2c0.5-0.3 1.2-0.8 2.2-0.7 0.5 0.1 0.8 0.2 1 0.4 0.3 0.2 0.6 0.4 1.1 0.4 1.1 0.1 2-0.4 2.4-1.3 0.4-0.9 1.1-1.7 1.6-2.4l0.1-0.1c0.3-0.4 0.6-0.4 0.8-0.3 0.2 0.1 0.4 0.3 0.4 0.6 0 0.4-0.6 2.6-1.2 3.6-0.3 0.7-1.3 2.1-2.3 3.4-0.5 0.7-1 1.3-1.3 1.8-0.7 1-0.4 1.8 0 2.8 0.1 0.4 0.3 0.9 0.5 1.5 0.3 1.4 0 2.1-0.3 2.5q-0.3 0.4-0.8 0.5m-2.4-7.7c0.3 0 0.7 0.2 0.9 0.7q0.7 1.5 0.3 3.5c-0.2 1.1-0.1 2.1 0.2 2.6q0.2 0.4 0.6 0.5c0.3 0 0.7 0 1-0.4 0.3-0.4 0.3-1.2 0.1-2.2-0.1-0.5-0.3-1-0.5-1.4-0.3-1-0.7-1.9 0.1-3.1 0.4-0.5 0.9-1.2 1.4-1.8 0.9-1.3 1.9-2.7 2.3-3.4 0.5-1 1.1-3.1 1.1-3.5 0-0.1-0.1-0.3-0.2-0.3 0-0.1-0.2 0-0.4 0.3l-0.1 0.1c-0.6 0.6-1.2 1.4-1.6 2.3-0.4 1-1.4 1.6-2.7 1.5-0.6 0-0.9-0.3-1.2-0.5-0.3-0.1-0.5-0.3-0.9-0.3q-0.6-0.1-1.2 0.2c-0.4 0.2-0.6 0.5-1 0.6-0.5 0.3-1 0.1-1.5-0.1-0.5-0.2-0.9-0.7-1.4-1-0.4-0.4-0.9-0.7-1.5-0.8q-0.4 0-0.5 0.1c-0.1 0.2-0.1 0.5 0.2 0.8 0.5 0.6 2.5 2.8 3.1 3.3 0.8 0.6 1.5 1.2 1.7 2.1q0.1 0.1 0.1 0.2c0.2 0.7 0.3 1.3 0.6 1.2 0.4-0.1 0.6-0.3 0.6-0.7-0.1-0.3 0.1-0.4 0.3-0.5q0 0 0.1 0"/>
			<path class="s4" d="m33.3 15.2c0 0 0.4-0.5 0.7-0.2 0.4 0.3 0.7 0.6 0.9 0.3 0 0 0 0.3-0.4 0.3-0.3 0-0.5-0.7-1.2-0.4z"/>
			<path class="s4" d="m30 17.7c0 0 0.3-0.5 0.5-0.5 0.3 0 0.5 0.1 0.7 0.4 0.1 0.2 0.5 0.7 0.8 0.7 0 0-0.5 0-0.7-0.3-0.2-0.2-0.6-0.6-0.7-0.6-0.2 0-0.5 0.2-0.6 0.3z"/>
			<path class="s4" d="m31.5 15.9c-0.2-0.2-0.4-0.5-0.8-0.7-0.9-0.4-1.3 0.3-1.6 0.7-0.1 0.2-0.3 0.5-0.6 0.6v0.1q-0.1 0-0.2 0 0 0 0 0 0 0 0 0.1c-0.5 0.1-0.9-0.3-0.9-0.3 0.8 0.5 1.3-0.5 1.5-0.8 0.2-0.3 0.7-1 1.4-0.9 0.7 0.2 1.2 1.1 1.2 1.2z"/>
		</g>
	</g>
</svg>