<svg version="1.2" xmlns="http://www.w3.org/2000/svg" viewBox="0 0 233 191" width="233" height="191">
	<title>41</title>
	<defs>
		<clipPath clipPathUnits="userSpaceOnUse" id="cp1">
			<path d="m96.14 90.57l-1.09 4.2 0.15 0.12c8.79-2.37 17.87-4.99 26.8-7.97l2.9-4.56-0.14-0.18c-7.85 2.55-18.45 5.53-28.62 8.39z"/>
		</clipPath>
		<linearGradient id="g1" x2="1" gradientUnits="userSpaceOnUse" gradientTransform="matrix(0,-150.87,354.325,0,110.385,176)">
			<stop offset="0" stop-color="#2d2479"/>
			<stop offset=".18" stop-color="#2d2479"/>
			<stop offset=".59" stop-color="#0e71bc"/>
			<stop offset=".8" stop-color="#0095db"/>
			<stop offset="1" stop-color="#0095db"/>
		</linearGradient>
		<clipPath clipPathUnits="userSpaceOnUse" id="cp2">
			<path d="m192.93 31.69q0.22-1.02 0.64-1.02 0.42 0 1.04 1.02 8.7 13.81 8.7 17.47 0 2.27-0.65 2.27-0.44-0.08-0.8-0.66-2.78-3.37-4.31-3.73l4.97 44.74q2.26 19.36 6.51 30.48 7.24-1.98 11.55-1.83 7.39 0.29 9.8 3.95 1.83 2.64 1.83 9.58 0 10.08-9.21 10.23-9.07 0.15-15.79-11.62-5.2 1.61-10.42 3.11-5.22 1.5-10.56 1.5-1.62 0.15-3.44 0.15-0.15 0.79-0.66 3.36-1.46 7.82-6.36 13.23-9.87 9-23.03 17.62-11.84 7.68-19.59 10.82-16.02 2.34-28.66 7.02-2.63 0.95-4.24 0.95-1.02 0-1.02-0.44 0-0.95 4.02-2.7 12.28-5.34 25.51-12.06 16.23-8.19 33.7-20.25 17.04-11.77 17.18-14.48-0.36-1.76-1.02-3.07-13.89 0-17.33-1.46-1.9-0.81-3.51-2.85-1.9-2.34-1.9-4.54 0.07-6.15 3.88-11.59 3.79-5.44 7.89-5.44 2.92-0.01 7.6 4.82 4.89 5.05 6.65 10.75 2.41 0 4.32-0.07 9.43 0 17.47-2.92-1.54-4.1-3.88-13.16-1.98-11.77-5.92-45.1-0.29-3.65-1.46-22.44-0.65-1.75-1.75-4.9 0.58-1.68 2.26-6.73m-21.2 95.18q-0.66-0.88-1.61-2.27-1.47-2.19-3.95-2.34-1.75-0.07-2.85 0.77-1.1 0.84-1.02 2.52 1.17 1.03 9.43 1.32zm51.89 8.12q0.73 0.13 1.34 0.13 1.83 0 2.54-1.15 0.15-1.32-1.97-2.41-2.48-1.25-6.43-1.25-2.26 0-4.75 0.44 2.93 2.62 4.97 3.36 0.38 0.15 4.32 0.88z"/>
		</clipPath>
		<linearGradient id="g2" x2="1" gradientUnits="userSpaceOnUse" gradientTransform="matrix(0,-150.87,125.657,0,166.125,85313.45)">
			<stop offset="0" stop-color="#2d2479"/>
			<stop offset=".18" stop-color="#2d2479"/>
			<stop offset=".59" stop-color="#0e71bc"/>
			<stop offset=".8" stop-color="#0095db"/>
			<stop offset="1" stop-color="#0095db"/>
		</linearGradient>
		<clipPath clipPathUnits="userSpaceOnUse" id="cp3">
			<path d="m192.93 31.69q0.22-1.02 0.64-1.02 0.42 0 1.04 1.02 8.7 13.81 8.7 17.47 0 2.27-0.65 2.27-0.44-0.08-0.8-0.66-2.78-3.37-4.31-3.73l4.97 44.74q2.26 19.36 6.51 30.48 7.24-1.98 11.55-1.83 7.39 0.29 9.8 3.95 1.83 2.64 1.83 9.58 0 10.08-9.21 10.23-9.07 0.15-15.79-11.62-5.2 1.61-10.42 3.11-5.22 1.5-10.56 1.5-1.62 0.15-3.44 0.15-0.15 0.79-0.66 3.36-1.46 7.82-6.36 13.23-9.87 9-23.03 17.62-11.84 7.68-19.59 10.82-16.02 2.34-28.66 7.02-2.63 0.95-4.24 0.95-1.02 0-1.02-0.44 0-0.95 4.02-2.7 12.28-5.34 25.51-12.06 16.23-8.19 33.7-20.25 17.04-11.77 17.18-14.48-0.36-1.76-1.02-3.07-13.89 0-17.33-1.46-1.9-0.81-3.51-2.85-1.9-2.34-1.9-4.54 0.07-6.15 3.88-11.59 3.79-5.44 7.89-5.44 2.92-0.01 7.6 4.82 4.89 5.05 6.65 10.75 2.41 0 4.32-0.07 9.43 0 17.47-2.92-1.54-4.1-3.88-13.16-1.98-11.77-5.92-45.1-0.29-3.65-1.46-22.44-0.65-1.75-1.75-4.9 0.58-1.68 2.26-6.73m-21.2 95.18q-0.66-0.88-1.61-2.27-1.47-2.19-3.95-2.34-1.75-0.07-2.85 0.77-1.1 0.84-1.02 2.52 1.17 1.03 9.43 1.32zm51.89 8.12q0.73 0.13 1.34 0.13 1.83 0 2.54-1.15 0.15-1.32-1.97-2.41-2.48-1.25-6.43-1.25-2.26 0-4.75 0.44 2.93 2.62 4.97 3.36 0.38 0.15 4.32 0.88z"/>
		</clipPath>
		<linearGradient id="g3" x2="1" gradientUnits="userSpaceOnUse" gradientTransform="matrix(0,-150.87,125.657,0,166.125,85313.45)">
			<stop offset="0" stop-color="#2d2479"/>
			<stop offset=".18" stop-color="#2d2479"/>
			<stop offset=".59" stop-color="#0e71bc"/>
			<stop offset=".8" stop-color="#0095db"/>
			<stop offset="1" stop-color="#0095db"/>
		</linearGradient>
		<clipPath clipPathUnits="userSpaceOnUse" id="cp4">
			<path d="m29.58 81.78q1.83-3.58 2.71-3.58 0.57 0 0.58 1.68 0 3.58-1.46 6.43-1.47 2.86-10.6 15.43 5.26 5.41 6.07 7.9 1.02 3.22 1.02 6.58-0.01 5.4-2.56 10.45-0.44 0.82-1.43 1.86-1.73 1.8-5.16 4.21-0.19 0.13-0.38 0.26-5.49 3.75-8.1 3.4-5.12-0.67-5.12-7.75 0-5.26 3-14.18 1.32-4.02 4.9-9.36-7.82-6.72-11.62-13.96-1.47 0.01-1.32-0.8 0.22-5.4 0.22-8.48 0-0.65 0.44-0.65-0.19 0.01 3.29 2.26 2.85 1.61 5.7 3.29 2.14 1.2 2.97 1.91 0.06 0.55 0.13 1.11-0.24 0.09-0.65 0.12-1.06 0.08-3.91 0.44 0.49 0.8 5.21 4.98 1.69 1.49 3.93 3.42 1.2-1.6 2.5-3.36 4.33-5.89 9.63-13.6m-18.36 44.37q2.23-0.01 5.61-1.84 0.95-0.51 2-1.16 1.86-1.21 3.29-2.35 1.59-1.25 2.63-2.4 0.22-0.3 0.22-0.66-0.01-1.45-3.55-5.04-2.03-2.06-5.22-4.83-0.58 0.71-1.15 1.53-1.97 2.8-3.93 6.81-2.52 5.19-2.52 7.75-0.02 2.19 2.62 2.19z"/>
		</clipPath>
		<linearGradient id="g4" x2="1" gradientUnits="userSpaceOnUse" gradientTransform="matrix(0,-150.87,84.835,0,16.885,85313.45)">
			<stop offset="0" stop-color="#2d2479"/>
			<stop offset=".18" stop-color="#2d2479"/>
			<stop offset=".59" stop-color="#0e71bc"/>
			<stop offset=".8" stop-color="#0095db"/>
			<stop offset="1" stop-color="#0095db"/>
		</linearGradient>
		<clipPath clipPathUnits="userSpaceOnUse" id="cp5">
			<path d="m29.58 81.78q1.83-3.58 2.71-3.58 0.57 0 0.58 1.68 0 3.58-1.46 6.43-1.47 2.86-10.6 15.43 5.26 5.41 6.07 7.9 1.02 3.22 1.02 6.58-0.01 5.4-2.56 10.45-0.44 0.82-1.43 1.86-1.73 1.8-5.16 4.21-0.19 0.13-0.38 0.26-5.49 3.75-8.1 3.4-5.12-0.67-5.12-7.75 0-5.26 3-14.18 1.32-4.02 4.9-9.36-7.82-6.72-11.62-13.96-1.47 0.01-1.32-0.8 0.22-5.4 0.22-8.48 0-0.65 0.44-0.65-0.19 0.01 3.29 2.26 2.85 1.61 5.7 3.29 2.14 1.2 2.97 1.91 0.06 0.55 0.13 1.11-0.24 0.09-0.65 0.12-1.06 0.08-3.91 0.44 0.49 0.8 5.21 4.98 1.69 1.49 3.93 3.42 1.2-1.6 2.5-3.36 4.33-5.89 9.63-13.6m-18.36 44.37q2.23-0.01 5.61-1.84 0.95-0.51 2-1.16 1.86-1.21 3.29-2.35 1.59-1.25 2.63-2.4 0.22-0.3 0.22-0.66-0.01-1.45-3.55-5.04-2.03-2.06-5.22-4.83-0.58 0.71-1.15 1.53-1.97 2.8-3.93 6.81-2.52 5.19-2.52 7.75-0.02 2.19 2.62 2.19z"/>
		</clipPath>
		<linearGradient id="g5" x2="1" gradientUnits="userSpaceOnUse" gradientTransform="matrix(0,-150.87,84.835,0,16.845,85313.45)">
			<stop offset="0" stop-color="#2d2479"/>
			<stop offset=".18" stop-color="#2d2479"/>
			<stop offset=".59" stop-color="#0e71bc"/>
			<stop offset=".8" stop-color="#0095db"/>
			<stop offset="1" stop-color="#0095db"/>
		</linearGradient>
		<clipPath clipPathUnits="userSpaceOnUse" id="cp6">
			<path d="m65.6 78.21q-0.5 1.64-0.5 2.07 0 0.43 0.57 1 3.99 4.42 3.99 11.25 0 2.99-0.71 5.13-2 5.13-2 9.83 0 2.56 1.28 4.42 1 1.71 2.14 1.71 3.13 0 3.13-5.13 0-2.14-0.43-2.14-0.57 0-0.57 1.14 0 2.71-2 2.71-1.99 0-1.99-3.42 0-3.86 2.14-9.12 0.72-2.14 0.72-6.13 0-6.98-3.56-13.25-1-1.71-1.43-1.71-0.29 0-0.78 1.64z"/>
		</clipPath>
		<linearGradient id="g6" x2="1" gradientUnits="userSpaceOnUse" gradientTransform="matrix(0,-150.87,34.255,0,69.715,85313.45)">
			<stop offset="0" stop-color="#2d2479"/>
			<stop offset=".18" stop-color="#2d2479"/>
			<stop offset=".59" stop-color="#0e71bc"/>
			<stop offset=".8" stop-color="#0095db"/>
			<stop offset="1" stop-color="#0095db"/>
		</linearGradient>
		<clipPath clipPathUnits="userSpaceOnUse" id="cp7">
			<path d="m73.86 77.11q-0.26 0.35-0.42 0.93-1.1 4.49-1.27 6-0.18 2.62 0.85 4.06 0.33 0.51 1.01 0.42 0.76-0.09 1.27-0.85 0.26-0.42 0.42-1.52 0.16-1.18-0.08-1.18-0.25 0-0.34 0.42-0.34 1.18-1.18 1.18-0.34 0-0.59-0.34-0.42-0.5-0.42-2.03 0-2.11 1.1-6.34 0.26-0.77 0.26-1.01 0-0.29-0.11-0.29-0.15 0-0.49 0.54"/>
		</clipPath>
		<linearGradient id="g7" x2="1" gradientUnits="userSpaceOnUse" gradientTransform="matrix(0,-150.87,47.524,0,74.365,85313.45)">
			<stop offset="0" stop-color="#2d2479"/>
			<stop offset=".18" stop-color="#2d2479"/>
			<stop offset=".59" stop-color="#0e71bc"/>
			<stop offset=".8" stop-color="#0095db"/>
			<stop offset="1" stop-color="#0095db"/>
		</linearGradient>
		<clipPath clipPathUnits="userSpaceOnUse" id="cp8">
			<path d="m28.05 19.21q-1.33 5.48-2.37 8.96 0 0.44 2.66 9.18 2.95 9.48 3.76 15.11 2.88 19.18 5.09 41.26 2 19.77 4.13 26.81 1.62 5.41 5.98 10.3 5.76 6.44 12.47 6.44 9.3 0 18.9-5.26 4.43-2.37 12.77-8.74-0.44 6.37 3.03 9.85 3.1 3.04 7.9 3.04 6.57 0 9.89-4.67 2.58-3.63 3.91-6.37 1.92 2.22 3.76 4.52 2.73 2.52 6.2 2.52 11.07 0 11.07-15.78 0-3.18-1.36-6.78-1.37-3.59-2.47-3.59-0.3 0-0.52 0.37-1.91 3.18-1.55 8.3 0 0.97 1.26 2.62 1.26 1.67 1.26 2.48 0 0.96-2.43 1.85-2.07 0.74-3.54 0.74-4.73 0-8.04-4.44 1.7-5.7 1.7-6.44 0-0.81-0.44-0.82-0.3 0.07-0.59 0.22-2.88 2.75-4.43 6.15-4.21 9.42-12.25 9.41-5.91 0-9.15-6.52 0.51-3.18 0.59-3.92 0.08-0.74 0.08-1.19 0-1.18-0.67-1.18-0.45 0-1.62 0.81-11.07 7.56-15.43 9.41-7.01 3.04-17.79 3.04-4.28 0.01-8.63-4.97-5.54-6.28-6.94-17.55-0.81-9.7-1.55-19.41-1.54-17.85-4.21-34.89-1.55-9.63-4.65-20.07-3.33-11.19-5.17-11.19-0.37 0-0.59 0.37"/>
		</clipPath>
		<linearGradient id="g8" x2="1" gradientUnits="userSpaceOnUse" gradientTransform="matrix(0,-150.87,142.068,0,81.855,85313.45)">
			<stop offset="0" stop-color="#2d2479"/>
			<stop offset=".18" stop-color="#2d2479"/>
			<stop offset=".59" stop-color="#0e71bc"/>
			<stop offset=".8" stop-color="#0095db"/>
			<stop offset="1" stop-color="#0095db"/>
		</linearGradient>
		<clipPath clipPathUnits="userSpaceOnUse" id="cp9">
			<path d="m28.05 19.21q-1.33 5.48-2.37 8.96 0 0.44 2.66 9.18 2.95 9.48 3.76 15.11 2.88 19.18 5.09 41.26 2 19.77 4.13 26.81 1.62 5.41 5.98 10.3 5.76 6.44 12.47 6.44 9.3 0 18.9-5.26 4.43-2.37 12.77-8.74-0.44 6.37 3.03 9.85 3.1 3.04 7.9 3.04 6.57 0 9.89-4.67 2.58-3.63 3.91-6.37 1.92 2.22 3.76 4.52 2.73 2.52 6.2 2.52 11.07 0 11.07-15.78 0-3.18-1.36-6.78-1.37-3.59-2.47-3.59-0.3 0-0.52 0.37-1.91 3.18-1.55 8.3 0 0.97 1.26 2.62 1.26 1.67 1.26 2.48 0 0.96-2.43 1.85-2.07 0.74-3.54 0.74-4.73 0-8.04-4.44 1.7-5.7 1.7-6.44 0-0.81-0.44-0.82-0.3 0.07-0.59 0.22-2.88 2.75-4.43 6.15-4.21 9.42-12.25 9.41-5.91 0-9.15-6.52 0.51-3.18 0.59-3.92 0.08-0.74 0.08-1.19 0-1.18-0.67-1.18-0.45 0-1.62 0.81-11.07 7.56-15.43 9.41-7.01 3.04-17.79 3.04-4.28 0.01-8.63-4.97-5.54-6.28-6.94-17.55-0.81-9.7-1.55-19.41-1.54-17.85-4.21-34.89-1.55-9.63-4.65-20.07-3.33-11.19-5.17-11.19-0.37 0-0.59 0.37"/>
		</clipPath>
		<linearGradient id="g9" x2="1" gradientUnits="userSpaceOnUse" gradientTransform="matrix(0,-150.87,142.068,0,81.855,85313.45)">
			<stop offset="0" stop-color="#2d2479"/>
			<stop offset=".18" stop-color="#2d2479"/>
			<stop offset=".59" stop-color="#0e71bc"/>
			<stop offset=".8" stop-color="#0095db"/>
			<stop offset="1" stop-color="#0095db"/>
		</linearGradient>
		<clipPath clipPathUnits="userSpaceOnUse" id="cp10">
			<path d="m206.74 0.51q-2.77 8.49-2.34 9.29 1.76 3.51 1.97 4.31 1.39 14.47 1.98 22.15 4.67 41.96 7.31 62.87 0.65 6.43-0.07 12.35-0.59 4.68 0.22 4.68 0.51 0 1.61-2.05 2.85-5.34 2.85-17.47 0-3.43-0.29-7.09-1.24-14.33-5.04-43.93-3.15-24.86-2.99-26.9 2.04 2.12 3.87 3.51 0.66 0.44 0.95 0.44 0.44 0 0.44-0.59 0-1.83-3.51-9.28-2.19-4.82-4.46-9.65-1.31-3.14-2.04-3.14-0.29 0-0.44 0.51"/>
		</clipPath>
		<linearGradient id="g10" x2="1" gradientUnits="userSpaceOnUse" gradientTransform="matrix(0,-150.87,20.989,0,212.705,85313.45)">
			<stop offset="0" stop-color="#2d2479"/>
			<stop offset=".18" stop-color="#2d2479"/>
			<stop offset=".59" stop-color="#0e71bc"/>
			<stop offset=".8" stop-color="#0095db"/>
			<stop offset="1" stop-color="#0095db"/>
		</linearGradient>
		<clipPath clipPathUnits="userSpaceOnUse" id="cp11">
			<path d="m206.74 0.51q-2.77 8.49-2.34 9.29 1.76 3.51 1.97 4.31 1.39 14.47 1.98 22.15 4.67 41.96 7.31 62.87 0.65 6.43-0.07 12.35-0.59 4.68 0.22 4.68 0.51 0 1.61-2.05 2.85-5.34 2.85-17.47 0-3.43-0.29-7.09-1.24-14.33-5.04-43.93-3.15-24.86-2.99-26.9 2.04 2.12 3.87 3.51 0.66 0.44 0.95 0.44 0.44 0 0.44-0.59 0-1.83-3.51-9.28-2.19-4.82-4.46-9.65-1.31-3.14-2.04-3.14-0.29 0-0.44 0.51"/>
		</clipPath>
		<linearGradient id="g11" x2="1" gradientUnits="userSpaceOnUse" gradientTransform="matrix(0,-150.87,20.989,0,212.585,85313.45)">
			<stop offset="0" stop-color="#2d2479"/>
			<stop offset=".18" stop-color="#2d2479"/>
			<stop offset=".59" stop-color="#0e71bc"/>
			<stop offset=".8" stop-color="#0095db"/>
			<stop offset="1" stop-color="#0095db"/>
		</linearGradient>
		<clipPath clipPathUnits="userSpaceOnUse" id="cp12">
			<path d="m138.01 18.69q-2.77 8.48-2.34 9.28 1.76 3.51 1.97 4.31 1.39 14.47 1.98 22.15 4.67 41.96 7.31 62.86 0.65 6.43-0.07 12.36-0.59 4.68 0.22 4.68 0.51-0.01 1.61-2.05 2.85-5.34 2.85-17.47 0-3.43-0.29-7.09-1.24-14.33-5.04-43.93-3.15-24.86-3-26.9 2.05 2.11 3.87 3.51 0.66 0.44 0.95 0.44 0.44 0 0.44-0.59 0-1.83-3.51-9.28-2.19-4.83-4.46-9.65-1.32-3.15-2.04-3.14-0.29 0-0.44 0.51"/>
		</clipPath>
		<linearGradient id="g12" x2="1" gradientUnits="userSpaceOnUse" gradientTransform="matrix(0,-150.87,20.976,0,143.975,85313.45)">
			<stop offset="0" stop-color="#2d2479"/>
			<stop offset=".18" stop-color="#2d2479"/>
			<stop offset=".59" stop-color="#0e71bc"/>
			<stop offset=".8" stop-color="#0095db"/>
			<stop offset="1" stop-color="#0095db"/>
		</linearGradient>
		<clipPath clipPathUnits="userSpaceOnUse" id="cp13">
			<path d="m138.01 18.69q-2.77 8.48-2.34 9.28 1.76 3.51 1.97 4.31 1.39 14.47 1.98 22.15 4.67 41.96 7.31 62.86 0.65 6.43-0.07 12.36-0.59 4.68 0.22 4.68 0.51-0.01 1.61-2.05 2.85-5.34 2.85-17.47 0-3.43-0.29-7.09-1.24-14.33-5.04-43.93-3.15-24.86-3-26.9 2.05 2.11 3.87 3.51 0.66 0.44 0.95 0.44 0.44 0 0.44-0.59 0-1.83-3.51-9.28-2.19-4.83-4.46-9.65-1.32-3.15-2.04-3.14-0.29 0-0.44 0.51"/>
		</clipPath>
		<linearGradient id="g13" x2="1" gradientUnits="userSpaceOnUse" gradientTransform="matrix(0,-150.87,20.976,0,143.855,85313.45)">
			<stop offset="0" stop-color="#2d2479"/>
			<stop offset=".18" stop-color="#2d2479"/>
			<stop offset=".59" stop-color="#0e71bc"/>
			<stop offset=".8" stop-color="#0095db"/>
			<stop offset="1" stop-color="#0095db"/>
		</linearGradient>
	</defs>
	<style>
		.s0 { fill: url(#g1) } 
		.s1 { fill: url(#g2) } 
		.s2 { fill: url(#g3) } 
		.s3 { fill: url(#g4) } 
		.s4 { fill: url(#g5) } 
		.s5 { fill: url(#g6) } 
		.s6 { fill: url(#g7) } 
		.s7 { fill: #e5252d } 
		.s8 { fill: url(#g8) } 
		.s9 { fill: url(#g9) } 
		.s10 { fill: url(#g10) } 
		.s11 { fill: url(#g11) } 
		.s12 { fill: url(#g12) } 
		.s13 { fill: url(#g13) } 
	</style>
	<g id="Layer_1-2">
		<g id="Clip-Path" clip-path="url(#cp1)">
			<g>
				<path fill-rule="evenodd" class="s0" d="m95 82.2h29.9v12.7h-29.9z"/>
			</g>
		</g>
		<g id="Clip-Path" clip-path="url(#cp2)">
			<g>
				<path fill-rule="evenodd" class="s1" d="m99.2 30.7h133v159.6h-133z"/>
			</g>
		</g>
		<g id="Clip-Path" clip-path="url(#cp3)">
			<g>
				<path fill-rule="evenodd" class="s2" d="m99.2 30.7h133v159.6h-133z"/>
			</g>
		</g>
		<g id="Clip-Path" clip-path="url(#cp4)">
			<g>
				<path fill-rule="evenodd" class="s3" d="m0 78.2h32.9v58.4h-32.9z"/>
			</g>
		</g>
		<g id="Clip-Path" clip-path="url(#cp5)">
			<g>
				<path fill-rule="evenodd" class="s4" d="m0 78.2h32.9v58.4h-32.9z"/>
			</g>
		</g>
		<g id="Clip-Path" clip-path="url(#cp6)">
			<g>
				<path fill-rule="evenodd" class="s5" d="m65.1 76.6h8.4v37h-8.4z"/>
			</g>
		</g>
		<g id="Clip-Path" clip-path="url(#cp7)">
			<g>
				<path fill-rule="evenodd" class="s6" d="m72 76.6h3.8v12h-3.8z"/>
			</g>
		</g>
		<g>
			<path class="s7" d="m11.2 163.4q0 3.5-3.1 3.5-3 0-3-3.5 0-3.5 3-3.5 3.1 0 3.1 3.5zm-1.4 0q0-2.2-1.7-2.2-1.6 0-1.6 2.2 0 2.1 1.6 2.1 1.7 0 1.7-2.1zm-3.2-6.5h1.2v1.6h-1.2zm1.9 0h1.2v1.6h-1.2z"/>
			<path class="s7" d="m14.4 166.8q-0.7-0.1-1.1-0.4-0.7-0.5-0.6-1.8v-7.5l1.3-0.2v7.7q0 0.5 0.2 0.7 0.1 0.1 0.4 0.1h1.5l0.2 1.3zm0 0q-0.8 0-1.2-0.3-0.6-0.5-0.6-1.8v-7.5l1.4-0.2v7.7q0 0.5 0.1 0.7 0.2 0.1 0.4 0.1h1.6l0.1 1.3z"/>
			<path class="s7" d="m15.9 165.4h10.7q1.3 0 1.3-1.8v-2.6l1.4-0.2v3.1q0 0.8-0.2 1.3 0.9 0.2 1.8 0.2 1.2 0 1.2-1.8v-3.2l1.4-0.2v3.7q0 0.5-0.2 1.1 0.7 0.4 1.6 0.4 1.3 0 1.3-1.8v-3.5l1.4-0.3v4.1q0 2.8-2.6 2.8-0.6 0-1.2-0.1-0.6-0.1-1.2-0.4-0.7 0.5-1.7 0.5-0.5 0-1.3-0.1-0.7-0.1-1.4-0.2-0.6 0.3-1.5 0.3h-10.6l-0.2-1.3z"/>
			<path fill-rule="evenodd" class="s7" d="m39.2 166.8v-9.7l1.4-0.2v9.8h-1.4z"/>
			<path class="s7" d="m42.8 168.3h1q1.7 0 2-1.6h-0.8q-1.2 0-1.9-0.7-0.8-0.7-0.8-2.2 0-1.4 0.9-2.2 0.7-0.7 1.9-0.7 0.9 0 2.1 0.3v4.2h0.9l0.2 1.3h-1.1q-0.2 2.9-3.3 2.9h-0.4zm0.8-4.4q0 1.6 1.4 1.6h0.8v-3.2q-0.3-0.1-0.7-0.1-0.6 0-1 0.4-0.5 0.5-0.5 1.3z"/>
			<path class="s7" d="m56.7 166.8q-0.9 0-1.8-0.4-0.6 1.3-2.5 1.3-1.3 0-2-0.8-0.2-0.2-0.4-0.6-0.6 0.5-1.9 0.4l-0.1-1.3q1.5 0 1.6-1.2 0.1-1.2 0.9-1.8 0.8-0.6 1.9-0.6 1.4 0 2.2 0.8 0.7 0.8 0.7 2.1v0.4q0.5 0.3 1.3 0.3h0.2q1.7 0 1.7-1.8v-6.5l1.3-0.2v7q0 2.9-2.8 2.9h-0.3zm-2.8-2q0-1.7-1.5-1.7-1.2 0-1.4 1.2 0 0.1 0 0.1v0.1q0 0.1 0 0.2v0.1q0 1.6 1.4 1.6 1.5 0 1.5-1.6z"/>
			<path fill-rule="evenodd" class="s7" d="m61.6 166.8v-9.7l1.4-0.2v9.8h-1.4z"/>
			<path class="s7" d="m76.5 166.3q-0.8 0.2-1.9 0.3-1 0.1-1.9 0.1-3.3 0-3.3-3.3v-2.1l1.4-1.5v3.4q0 2.2 2 2.2 0.6 0 1.1 0 0.5-0.1 1-0.1-0.3-1.3-0.6-2.1l-0.3-1.2-0.1-0.6v-0.1l-0.4-1.4h1.8q2.4 0 2.9 2.4l0.6 2.3q0.1 0.5 0.5 0.7 0.3 0.1 0.9 0.1l0.1 1.3q-0.5 0.1-0.8 0-0.5 0-0.8-0.2-1-0.4-1.2-1.5l-0.5-2.1q-0.3-1.7-1.3-1.7h-0.4l1.2 5.1z"/>
			<path class="s7" d="m80.1 165.4h3.5q-1-0.4-1.5-1.2-0.5-0.8-0.5-1.9 0-1.3 0.9-2.1 0.7-0.6 1.8-0.6 1.3 0 2.1 0.8 0.7 0.8 0.7 2 0 0.9-0.3 1.6-0.1 0.3-0.3 0.6-0.1 0.2-0.2 0.4 0.4 0.2 0.8 0.3 0.5 0.1 1.1 0.1l0.2 1.3h-0.5q-0.5 0-1.2-0.1-0.7-0.2-1.4-0.4-0.7 0.5-1.5 0.5h-3.6l-0.1-1.3zm5.6-2.9q0-1.6-1.4-1.6-0.6 0-1 0.3-0.4 0.4-0.4 1.1 0 1.5 2 2.4l0.2-0.4q0.2-0.2 0.3-0.5 0.3-0.6 0.3-1.3m-2.2-6h1.4v1.7h-1.4z"/>
			<path class="s7" d="m88 165.4h1.6q1.2 0 1.2-1.8v-2.6l1.4-0.2v3.1q0 0.7-0.2 1.3 0.9 0.2 1.8 0.2 1.3 0 1.3-1.8v-3.2l1.3-0.2v3.7q0 0.7-0.1 1.1 0.7 0.4 1.5 0.4 1.3 0 1.3-1.8v-3.5l1.4-0.3v4.1q0 0.6-0.2 1.1 0.8 0.4 1.6 0.4h0.4l0.1 1.3h-0.4q-1.3 0-2.3-0.5-0.6 0.5-1.8 0.5-1.3 0-2.3-0.5-0.7 0.5-1.7 0.5-0.5 0-1.3-0.1-0.7-0.1-1.5-0.2-0.6 0.3-1.5 0.3h-1.4l-0.2-1.3zm6.2-8.6h1.2v1.6h-1.2zm1-2.1h1.1v1.4h-1.1zm0.9 2.2h1.2v1.6h-1.2z"/>
			<path class="s7" d="m102 156.9h1.3v1.6h-1.3zm4.6 9.9q-0.6 0-1.1-0.2-0.7-0.1-1.2-0.4-0.8 0.6-2 0.6l-0.1-1.4q1.6 0 1.6-1.8v-3.5l1.4-0.2v4q0 0.5-0.2 1.1 0.7 0.4 1.6 0.4h0.3l0.2 1.4h-0.5zm-2.6-9.9h1.2v1.6h-1.2z"/>
			<path class="s7" d="m106.7 165.4h6.1q1.3 0 1.3-1.8v-2.6l1.3-0.2v3.1q0 0.7-0.2 1.3 1 0.2 1.8 0.2 1.3 0 1.3-1.8v-3.2l1.3-0.2v3.7q0 0.7-0.1 1.1 0.7 0.4 1.6 0.4 1.3 0 1.3-1.8v-3.5l1.3-0.3v4.1q0 0.6-0.1 1.1 0.7 0.4 1.6 0.4h0.3l0.1 1.3h-0.4q-1.2 0-2.3-0.5-0.6 0.5-1.8 0.5-1.3 0-2.3-0.5-0.7 0.5-1.7 0.5-0.5 0-1.3-0.1-0.7-0.1-1.4-0.2-0.6 0.3-1.5 0.3h-6.1l-0.1-1.3z"/>
			<path class="s7" d="m125.4 165.4h1.9q-0.4-0.7-0.4-1.6 0-1.5 0.8-2.3 0.8-0.7 2.1-0.7 1.4 0 2.1 0.8 0.7 0.8 0.7 2.2 0 3-2.8 3h-4.3l-0.1-1.4zm5.8-1.6q0-1.7-1.4-1.7-1.5 0-1.5 1.7c0 1.1 0.5 1.6 1.4 1.6h0.1q1.4 0 1.4-1.6z"/>
			<path class="s7" d="m12.6 149.7q-0.8 0.2-2 0.3-1 0.1-2 0.1-3.5 0-3.5-3.5v-2.2l1.5-1.6v3.6q0 2.3 2.1 2.3 0.7 0 1.1 0 0.6 0 1.1-0.1-0.3-1.3-0.6-2.2l-0.3-1.3-0.2-0.6c0 0 0-0.1 0-0.1l-0.4-1.5h2q2.5 0 3 2.5l0.6 2.5q0.1 0.6 0.6 0.7 0.3 0.1 0.9 0.1l0.1 1.4q-0.5 0-0.8 0-0.5 0-0.9-0.2-1-0.4-1.3-1.6l-0.4-2.2q-0.4-1.8-1.4-1.8h-0.5l1.3 5.4z"/>
			<path class="s7" d="m16.4 148.7h5q1.4 0 1.4-1.8v-2.8l1.4-0.2v2.7q0.7-1.1 1.4-1.9 0.7-0.8 1.4-1.2 0.7-0.4 1.3-0.6 0.5-0.2 1-0.2 1.5 0 2.3 0.9 1 1 1 2.8 0 2-1 2.9-0.2 0.2-0.5 0.4-0.3 0.2-0.7 0.3-0.4 0.1-0.9 0.1h-3.4q-0.5 0-1.2-0.1-0.5 0-1.2-0.2v0.1l-0.1-0.1h-0.2q-0.1 0-0.2 0 0-0.1-0.1-0.1 0 0 0 0.1-0.6 0.3-1.6 0.3h-5zm12.9 0q1.8 0 1.8-2.3 0-2.3-1.7-2.3h-0.2q0 0-0.1 0.1-1 0.1-2.2 1.2-0.6 0.6-1.2 1.4-0.6 0.8-1 1.8 0.7 0.1 1.3 0.1h3.3zm-1-9.1h1.5v1.8h-1.5z"/>
			<path class="s7" d="m33.6 151.8h1q2.2 0 2.2-2.3v-4.7l1.5-0.3v3.8c0.5 0.3 2.2 0.4 2.8 0.4h0.4l0.1 1.4h-0.4c-0.6 0-2.4-0.1-2.9-0.3q-0.1 3.4-3.6 3.4h-0.4z"/>
			<path class="s7" d="m41.4 148.7h2q-0.4-0.7-0.4-1.7 0-1.6 0.8-2.4 0.8-0.7 2.2-0.7 1.5 0 2.3 0.8 0.7 0.8 0.7 2.3 0 3.1-3 3.1h-4.5c0 0-0.2-1.4-0.1-1.4zm6.1-1.7q0-1.8-1.5-1.8-1.5 0-1.6 1.8c0 1.2 0.5 1.7 1.5 1.7h0.1q1.5 0 1.5-1.7z"/>
			<path class="s7" d="m56.9 149q-0.6 0.1-1.1 0.1-1.3 0-2-0.7-0.8-0.7-0.8-2.3c0-1 0.3-1.8 0.9-2.4q0.8-0.7 2-0.7 1.1 0 2.4 0.4v5.3h5.1l0.1 1.4h-6.6c0 0 0-1.1 0-1.1zm-2.7-9.3h1.3v1.7h-1.3zm2.7 4.8q-0.3 0-0.7 0h-0.3q-1.4 0-1.4 1.6 0 1.6 1.3 1.6 0.5 0 1.1-0.2c0 0 0-3 0-3zm-0.7-4.8h1.3v1.7h-1.3z"/>
			<path class="s7" d="m62.8 151.9h1.3v1.7h-1.3zm0.5-3.2q1.7 0 1.7-1.9v-3.7l1.5-0.3v4.3q0 3-3.1 3c0 0-0.1-1.4-0.1-1.4zm1.5 3.2h1.3v1.7h-1.3z"/>
			<path class="s7" d="m70.3 150.1q-0.8 0-1.2-0.3-0.7-0.6-0.7-1.9v-8l1.5-0.2v8.1q0 0.6 0.1 0.8 0.2 0.1 0.5 0.1h1.6l0.1 1.4h-1.9zm0 0q-0.8 0-1.2-0.3-0.7-0.6-0.7-1.9v-8l1.5-0.2v8.1q0 0.6 0.1 0.8 0.2 0.1 0.5 0.1h1.6l0.1 1.4z"/>
			<path class="s7" d="m72 148.7h1.5q-0.5-0.8-0.5-2.3 0-1.8 0.9-2.8 0.9-0.9 2.4-0.9 0.9 0 1.4 0.3 0.8 0.5 1.2 1.5l-1 0.8q-0.3-0.7-0.7-0.9-0.4-0.3-0.9-0.3-1.8 0-1.8 2.3 0 2.3 1.8 2.3h2.7l0.1 1.4h-7c0 0-0.1-1.4-0.1-1.4z"/>
			<path class="s7" d="m80.1 151.8h1q2.2 0 2.2-2.3v-4.7l1.4-0.3v5.1q0 3.6-3.6 3.6h-0.4l-0.6-1.4z"/>
			<path class="s7" d="m93.2 149q-0.6 0.1-1 0.1-1.4 0-2.1-0.7-0.8-0.7-0.8-2.3c0-1 0.3-1.8 0.9-2.4q0.8-0.7 2.1-0.7 1 0 2.3 0.4v5.3h7.4l0.1 1.4h-8.9c0 0 0-1.1 0-1.1zm-2.7-9.3h1.3v1.7h-1.3zm2.7 4.8q-0.3 0-0.7 0h-0.2q-1.4 0-1.4 1.6 0 1.6 1.3 1.6 0.4 0 1-0.2v-3zm-0.7-4.8h1.3v1.7h-1.3z"/>
			<path class="s7" d="m101.7 151.9h1.3v1.7h-1.3zm4.9-1.8q-0.6 0-1.2-0.1-0.7-0.2-1.3-0.5-0.8 0.6-2.1 0.6l-0.1-1.4q1.7 0 1.7-1.9v-3.7l1.5-0.3v4.3q0 0.6-0.2 1.2 0.7 0.4 1.6 0.4h0.4l0.1 1.4c0 0-0.4 0-0.4 0zm-2.8 1.8h1.3v1.7h-1.3z"/>
			<path class="s7" d="m106.8 148.7h3l-0.5-1q-0.3-0.4-0.6-1l-1.1-2q0.8-0.8 1.8-1.2 0.9-0.4 1.8-0.4 2.3 0 3.4 1.6l-2 4h2.9l0.2 1.4h-8.8l-0.1-1.4zm4.5-0.2l1.6-3.5q-0.7-0.4-1.6-0.4-1.1 0-1.8 0.4z"/>
			<path class="s7" d="m117.1 147.4q0.1-1.2 1-1.9 0.7-0.6 2-0.6 1.5 0 2.3 0.9 0.7 0.8 0.7 2.2v0.4q0.6 0.3 1.4 0.3h0.4l0.1 1.4h-0.4q-0.9 0-1.9-0.3-0.7 1.4-2.6 1.3-1.4 0.1-2.2-0.8-0.2-0.2-0.5-0.6-0.5 0.4-1.9 0.4l-0.1-1.4q1.6 0 1.7-1.3m4.5 0.6q0-1.8-1.5-1.8-1.4 0-1.5 1.3 0 0.1-0.1 0.2v0.1q0 0 0 0.1v0.1q0 1.7 1.5 1.7h0.1q1.5 0 1.5-1.7"/>
			<path class="s7" d="m132.6 150.1h-7.7l-0.2-1.4h6.3q-0.1-1.8-1-3.1-1-1.4-2.5-1.4-1.1 0-2.2 0.8l0.8-1.7q1-0.4 1.9-0.4 1.7 0 2.9 1.3 1.1 1.3 1.4 3.3zm-3.3 1.8h-1.5v1.8h1.5z"/>
			<path class="s7" d="m12 67.9q-0.6-0.4-1.4-0.9c-0.4-0.2-0.7-0.4-1-0.6-2.7-1.6-4.8-3-6-4.3q-3.6 8.1-3.6 9 0 1.3 5.1 4.2 4.7 2.8 5.4 2.8 0.4 0 0.8-0.4 0.9-0.6 1.7-2.7 0.5-1.4 0.7-2.6 0.1-0.9 0.1-1.7 0-1.4-1.8-2.8"/>
			<path class="s7" d="m18.9 60.7q-0.6 0-2.2 4-0.3 0.6-0.5 1.2-0.3 0.6-0.4 1.1-0.6 1.5-0.6 1.8 0 0.8 1.7 2 0.1 0.1 0.2 0.1 0.9 0.6 2 1.3 3 1.6 5.9 3.2 1.3-1.6 2.5-4.9 0.9-3 0.9-4.1 0-1.5-9.5-5.7"/>
			<path class="s7" d="m197.6 106.9q-0.1 0.4-0.3 1.7 0 0.8-0.1 0.8-0.3-0.1-0.6-0.3-1.1-0.6-2-1-1.4 3.1-4.8 5.9-1.9 1.6-4.9 3.3-1.7 1-2 0.5-0.3-0.2 1.6-1.7 3.4-2.7 4.7-3.7 2.6-2.5 3.7-4.6-0.5-0.2-1.6-0.3-2.4-0.5-2.7-2.1-0.3-2.1 1.3-4.4 1.5-2.2 3-2.4 2.1-0.3 2.6 3.1 0.3 2-0.3 4 2.3 0.8 2.3 1.3m-3.8-4q-0.2-1.6-1.7-1.4-2.1 0.3-1.9 2 0.1 0.7 3.5 1.7 0.2-1.3 0.1-2.3"/>
			<path class="s7" d="m66.4 49.4q0 1.8-1.3 3.5-1.4 1.8-3.2 1.8-3.1 0-3.1-3.6 0-2 1.1-5.7 0.7-2.1 0.7-4.6-0.1-5.7-4.5-8.7-0.3-0.2 0.2-1.7 0.4-1.4 0.6-1.4 0.8 0 2.6 2.7 2.4 3.6 2.4 8.3 0 1-0.3 2.3-0.3 1.2-0.3 2 0.1 0.3 0.6 0.7 4.5 1.9 4.5 4.4m-1.4 0.9q0-0.3-1.7-1.6-1.8-1.2-2-1.2-0.5 0-0.9 1.1-0.4 1.1-0.4 1.7 0 1.8 1.9 1.8 0.5 0 1.8-0.7 1.3-0.8 1.3-1.1z"/>
		</g>
		<g id="Clip-Path" clip-path="url(#cp8)">
			<g>
				<path fill-rule="evenodd" class="s8" d="m25.7 18.8h111.5v118.5h-111.5z"/>
			</g>
		</g>
		<g id="Clip-Path" clip-path="url(#cp9)">
			<g>
				<path fill-rule="evenodd" class="s9" d="m25.7 18.8h111.5v118.5h-111.5z"/>
			</g>
		</g>
		<g id="Clip-Path" clip-path="url(#cp10)">
			<g>
				<path fill-rule="evenodd" class="s10" d="m204.1 0h16.2v116.2h-16.2z"/>
			</g>
		</g>
		<g id="Clip-Path" clip-path="url(#cp11)">
			<g>
				<path fill-rule="evenodd" class="s11" d="m204.1 0h16.2v116.2h-16.2z"/>
			</g>
		</g>
		<g id="Clip-Path" clip-path="url(#cp12)">
			<g>
				<path fill-rule="evenodd" class="s12" d="m135.4 18.2h16.1v116.1h-16.1z"/>
			</g>
		</g>
		<g id="Clip-Path" clip-path="url(#cp13)">
			<g>
				<path fill-rule="evenodd" class="s13" d="m135.4 18.2h16.1v116.1h-16.1z"/>
			</g>
		</g>
	</g>
</svg>