<svg version="1.2" xmlns="http://www.w3.org/2000/svg" viewBox="0 0 477 431" width="477" height="431">
	<title>TIH</title>
	<defs>
		<linearGradient id="g1" x2="1" gradientUnits="userSpaceOnUse" gradientTransform="matrix(214.67,0,0,194.481,129.4,97.23)">
			<stop offset="0" stop-color="#bc9673"/>
			<stop offset="1" stop-color="#a58368"/>
		</linearGradient>
	</defs>
	<style>
		tspan { white-space:pre } 
		.s0 { fill: #58604d } 
		.s1 { fill: url(#g1) } 
		.s2 { fill: #bc9673 } 
		.t3 { font-size: 29px;fill: #58604d;font-weight: bold;font-family: "T SSafaa" } 
	</style>
	<g id="Layer_1-2">
		<g>
			<path class="s0" d="m103.3 115.6c15.7-1.8 29.8 3 41.6 13.2 25.2 21.7 48.4 53.4 73.8 73.8 10.7 8.7 24.2 8.9 35.1 0.4 25.4-22.7 48.3-51.7 73.9-73.8 49.4-42.6 114.2 20.5 74.6 70.7-58.4 51.9-96.7 126.6-187.7 111.9-62.1-10.1-98.8-73.4-143.6-111.5-26.7-30-7.6-80.2 32.3-84.7zm50.4 47.4c-6.6-6.4-21.1-22.1-28.3-25.8-30.3-15.7-61.7 19.1-43.2 47.9 54.1 49.5 98.7 131.1 185.3 105.8 47.9-14 82.5-70.2 119.8-101.3 27.6-33.1-14.3-73.6-45.4-48.6-25.1 20.2-48.2 51.5-73 73.1-21 18.2-45 17.5-65.6-0.8-17-15.1-33.3-34.2-49.6-50.3z"/>
			<path class="s1" d="m191.7 0.3c16-1.5 30.9 2.1 44.8 10.1 53.3-32 119.3 14.6 105.8 75.8-4.4 19.6-17.2 32.2-30.4 46.2-15.5 16.3-35 37.1-51.7 51.7-14 12.1-28.5 14.3-43.9 2.7-21.2-23.7-48.4-45.1-69.1-69-37.4-43.4-12.8-112 44.5-117.5zm92.8 133.5c22.9-23.2 52.3-44.3 38.2-81.8-13.3-35.5-59.3-45.5-86.2-18.7-37.5-36.2-98.8-3.5-88.5 48.2 3.4 16.8 15.3 26.7 26.5 38.2 19.3 18.3 36.8 38.8 57.2 55.7 4.3 1.5 8.4 1.3 12.2-1.3 3.8-2.5 12.3-11.5 16.3-15.3 8.4-8 16.2-16.7 24.3-25z"/>
			<path class="s2" d="m462.7 367v-24.2h-6.3v20.1h-0.1v1.3h-3.6q-0.7 0-1.3 0h-5.2v-14.7h-13.2c-3.1 0-5.8 1.7-7.4 4.1-0.8 1.3-1.3 2.9-1.3 4.7v5.8h-20v-13.8c0 0-0.1-0.1-0.1-0.1v-1.1h-2.1c-1-0.2-2.1-0.1-3.2 0h-1.8v15h-4.7v-15h-6.3v15h-4.8v-9.1h0.1v-5.9h-2.2c-1-0.2-2.1-0.1-3.2 0h-1.7c0 0 0 0-0.1 0v15h-27.6v-15.2h-7.1v15.2h-22.9v-15h-7.1v15h-4.7v-3.4c0 0-0.1-0.1-0.1-0.2v-11.4h-6.3v15h-4.7v-15h-6.3v15h-1.2-13.8v-11.5c0-4.2-11.8-3.9-14.7-3.5-8 0.9-5.5 9-5.9 15h-24.4v-13.8l-2.4-1.2h-12.3c-0.8 0-3.5 2.7-3.5 3.5v11.5h-6.3v-15h-6.3v20.1c0 0.3 3.1 2.8 3.5 2.8h15.4v-15.2h4.7l-0.1 0.2h0.1v15c9.6-0.2 19.3-0.1 28.9 0h213.6v-5h-0.1zm-197.3-2.9h-6.4v-7.1h6.4zm174.7 0h-5.1c-1 0-2-0.4-2.7-1.1q-0.1-0.1-0.1-0.2 0 0.1 0 0c-0.7-0.7-1-1.6-1-2.6 0-2.2 1.7-3.9 3.9-3.9h5v7.8z"/>
			<path fill-rule="evenodd" class="s2" d="m386.1 349.2v-0.1 0.1z"/>
			<path fill-rule="evenodd" class="s2" d="m6.3 349.3l-0.1-0.2h0.1v0.2z"/>
			<path class="s2" d="m67.9 342.8v25.6c0 0.8-2.8 3.6-3.5 3.6h-39.5-1.2v-1.5-13.5h-4v15h-15.4c-1.7 0-4.3-2.6-4.3-4.3v-18.6h6.2v15h6.4c-0.3-3.3-0.6-15 4.4-15h13.8v15h30.8v-21.3h6.3z"/>
			<path class="s2" d="m160.3 364.1h-45v-11.4c0-0.8-2.8-3.6-3.6-3.6h-16.2v7.9h12.3c2 1.7 0.9 4.7 1.2 7.1h-15v7.9h69c0.5 0 3.6-2.4 3.6-2.8v-26.4h-6.3v21.3z"/>
			<path class="s2" d="m74.6 349.1c-4.6 0-3.9 14.4-3.5 17.8 0.8 7.3 8 4.6 13.4 5.1v2.3h-5.3v8.1h3.8c3.6 0.4 8.6-2.1 8.6-5.3v-28c0 0-17 0-17 0zm9.9 15h-7.1v-7.1h7.1z"/>
			<path fill-rule="evenodd" class="s2" d="m466.6 342.8h6.3v29.2h-6.3z"/>
			<path fill-rule="evenodd" class="s2" d="m170.5 342.8h6.4v29.2h-6.4z"/>
			<path fill-rule="evenodd" class="s2" d="m259 340.4h6.3v7.1h-6.3z"/>
			<path fill-rule="evenodd" class="s2" d="m335.8 340.3h6.9v7.2h-6.9z"/>
			<path fill-rule="evenodd" class="s2" d="m344.1 340.3h6.8v7.2h-6.8z"/>
			<path fill-rule="evenodd" class="s2" d="m293.9 340.3h6.8v7.2h-6.8z"/>
			<path fill-rule="evenodd" class="s2" d="m298.1 331.8h6.8v7.2h-6.8z"/>
			<path fill-rule="evenodd" class="s2" d="m302.1 340.3h6.9v7.2h-6.9z"/>
			<path fill-rule="evenodd" class="s2" d="m4.7 373.4h7v7.3h-7z"/>
			<path fill-rule="evenodd" class="s2" d="m13.1 373.4h7v7.3h-7z"/>
			<text id="THE INTERNATIONAL HOSPITAL" style="transform: matrix(1,0,0,1,37.27,415.54)" >
				<tspan x="0" y="0" class="t3">THE INTERNATIONAL HOSPITAL
</tspan>
			</text>
		</g>
	</g>
</svg>