<svg version="1.2" xmlns="http://www.w3.org/2000/svg" viewBox="0 0 93 90" width="93" height="90">
	<title>45</title>
	<style>
		.s0 { fill: #1d68b3 } 
		.s1 { fill: #f2cc48 } 
	</style>
	<g id="Layer_1-2">
		<g>
			<g>
				<path class="s0" d="m43.7 6.7c2.3-2 5.2-3.8 8.2-3.5 3 0.3 5.7 2.8 6.3 5.8 0.3 1.5 0.1 3-0.5 4.4q-0.4 1.1-1.1 2c-0.5 0.6-1.1 1.1-1.7 1.6-0.2 0.1-0.4 0.3-0.4 0.5-0.2 1.3 3 1.5 3.8 1.8 1.3 0.4 2.5 1 3.1 2.1 0.5 0.8 0.6 1.7 0.6 2.7 0.6 8.5 0.1 17.2 2.3 25.6 0.1 0.3 0.2 0.6 0.2 0.9-4.1-2.4-9.7-3.8-14.4-2.4-3.7 1.2-7.2 3.4-11.2 3.6-7.3 0.3-9.9-7.9-9.1-14 0.5-3.9 1.5-7.8 5.2-10 0.3-0.2 0.5-0.3 0.6-0.5 0.5-0.6-0.1-1.4-0.6-2-1.6-1.6-3.2-3.6-3.2-5.9 0-2.1 1.3-4.1 3.1-5 1.9-0.9 4.1-0.7 5.9 0.3 1.8 1 3.1 2.8 3.7 4.7-0.1-0.4 0.1-1.1 0.1-1.5q0-0.8-0.2-1.6c-0.2-1.1-0.6-2.1-1.3-3-1.1-1.5-3-2.1-4.9-2.4-3.3-0.3-7 0-8.7 3.2-0.7 1.2-0.9 2.6-1 4 0 1.7 0.3 3.5 1.4 5 0.9 1.3 2.4 2 3.5 3 0.4 0.4 0.7 0.5 0.3 0.9-0.3 0.3-0.8 0.5-1.1 0.8-0.9 0.5-1.7 0.9-2.5 1.5-2.8 2-3.5 5-3.7 8.3-0.3 6.2 1.5 14.2 7.9 16.8 2.8 1.1 6.1 0.9 8.9-0.2 2.6-1.1 4.9-2.9 7.6-3.8 4.1-1.5 8.1-0.7 11.9 1.1 0.8 0.4 2.1 1.4 3 0.9 0.6-0.4 0.6-1.3 0.6-1.9-0.1-1.8-0.7-3.4-1-5.1-0.3-1.8-0.4-3.6-0.4-5.3 0.1-3.7 0.5-7.4 0.7-11q0.2-2.2 0.2-4.5 0-0.5 0-1c-0.1-1.1-0.2-2.3-0.7-3.3-0.7-1.5-2.4-2.4-4-2.7-1.7-0.3-3.4 0-5.1 0.2 2.1-1.4 4.2-3 5-5.3 0.5-1.3 0.5-2.6 0.3-4-0.3-1.8-0.9-3.6-2-5-2-2.7-5.6-4-8.8-3.3-3.3 0.6-6 3.3-6.8 6.5z"/>
				<path class="s1" d="m62.9 44.7c-0.4-0.2-0.7-0.6-1-0.7q-1.4-1-3-1.5c-2.6-0.9-5.5-1.1-8.2-0.8-1 0.1-2.1 0.3-3.1 0.2-1-0.1-2-0.6-2.7-1.3-0.8-0.8-1.1-1.9-1.1-3-0.1-1.9 0.8-3.8 2.2-5q0.5-0.5 1.2-0.9c0.2-0.1 1.1-0.3 1.2-0.6 0.2-0.6-1.3-2.2-1.5-2.8-0.3-0.8-0.4-1.7-0.2-2.6 0.2-1.3 1.2-2.3 2.3-2.9 1.4-0.8 3.1-1 4.5-0.3 1 0.6 1.7 1.5 2 2.6 0.4 1 0.3 2.1 0.5 3.1 1.7-1.5 0.7-5.1-0.6-6.6-1.6-1.9-4.3-2.7-6.7-1.9-1.4 0.4-2.7 1.4-3.4 2.7-0.7 1.3-0.7 2.9-0.3 4.3 0.4 1.4 1.2 2.5 2 3.7-0.7 0.7-2.1 1-3 1.5-1 0.6-1.9 1.3-2.4 2.3-0.7 1.2-0.9 2.6-0.9 3.9 0 2.9 1.3 5.4 4.4 5.8 2.9 0.5 5.7-0.9 8.7-1.1 3-0.2 6.3 0.8 9.1 1.8z"/>
			</g>
			<g>
				<path class="s0" d="m2.7 81.3h-2.7v8.4h2.7q4.5 0 4.5-4.2c0-2.8-1.5-4.1-4.5-4.1zm0 6.8h-0.8v-5.3h0.8c1.8 0 2.5 0.7 2.5 2.6 0 1.9-0.7 2.7-2.5 2.7z"/>
				<path class="s0" d="m11.1 83.3q-0.8 0-1.5 0.5c-0.1-0.3-0.3-0.5-0.7-0.5h-1.1v6.4h1.8v-4.4q0.7-0.5 1.6-0.5c0 0 0.1 0 0.2 0h0.4v-1.4l-0.2-0.1c-0.1 0-0.3 0-0.5 0z"/>
				<path class="s0" d="m13.2 87.5c-0.7 0-1.2 0.5-1.2 1.1 0 0.5 0.5 1 1.2 1 0.6 0 1.2-0.4 1.2-1 0-0.6-0.6-1.1-1.2-1.1z"/>
				<path class="s0" d="m20.8 81.3l-2.9 7.6v0.1 0.7h1.6l0.7-2.2h2.7l0.7 2.2h1.8v-0.7l-2.8-7.7zm1.5 4.7h-1.5l0.7-2.2 0.8 2.2z"/>
				<path class="s0" d="m28.4 85.6c-1.1-0.1-1.1-0.3-1.1-0.5 0-0.1 0-0.4 0.9-0.4q0.7 0 1.2 0.4h0.1 0.8v-1.3l-0.2-0.1c-0.5-0.3-1.2-0.4-2-0.4-1.6 0-2.5 0.7-2.5 1.9 0 1.5 1.2 1.9 2.2 2 1.1 0.1 1.1 0.3 1.1 0.5 0 0.2 0 0.6-1 0.6-0.8 0-1.2-0.3-1.4-0.5l-0.1-0.1h-0.8v1.4l0.1 0.1c0.4 0.2 1.1 0.5 2.2 0.5 2.4 0 2.7-1.3 2.7-2.1 0-1.5-1.1-1.8-2.2-2z"/>
				<path class="s0" d="m35.1 83.2c-0.9 0-1.6 0.3-2.1 0.6v-1.4c0-0.7-0.1-1-0.9-1h-0.9v8.3h1.8v-4.5q0.8-0.4 1.5-0.4c0.5 0 0.6 0.1 0.6 0.6v4.3h1.8v-4.6c0-0.8-0.3-1.9-1.8-1.9z"/>
				<path class="s0" d="m41.2 83.3q-0.9 0-1.6 0.5c-0.1-0.3-0.3-0.5-0.7-0.5h-1v6.4h1.8v-4.4q0.7-0.5 1.5-0.5h0.1c0 0 0.1 0 0.1 0h0.4v-1.4l-0.2-0.1c-0.1 0-0.2 0-0.4 0z"/>
				<path class="s0" d="m44.9 83.2c-1.1 0-1.9 0.3-2.4 0.6h-0.2v1.4h0.8l0.1-0.1c0.3-0.2 0.8-0.4 1.5-0.4 0.8 0 0.9 0.3 0.9 0.7v0.4c-0.3-0.1-0.6-0.1-1-0.1-1.7 0-2.7 0.7-2.7 2 0 1.3 0.9 2 2.2 2q1 0 1.7-0.4c0.2 0.3 0.5 0.4 0.9 0.4h0.8v-4.4q0-2.1-2.7-2.1zm0.8 3.8v0.9c-0.2 0.2-0.6 0.5-1.1 0.5q-0.8 0-0.8-0.7c0-0.6 0.6-0.7 1.1-0.7q0.4 0 0.8 0z"/>
				<path class="s0" d="m50.6 81.3c-1.3 0-2 0.7-2 1.8v0.2h-0.8v1.4h0.8v5h1.8v-5h1.3v-1.4h-1.3v-0.1c0-0.4 0.1-0.5 0.5-0.5h0.9v-1.2l-0.2-0.1c-0.2 0-0.5-0.1-1-0.1z"/>
				<path class="s0" d="m57.8 81.3l-2.9 7.6v0.1 0.7h1.6l0.8-2.2h2.6l0.8 2.2h1.7v-0.7l-2.8-7.7zm1.6 4.7h-1.6l0.8-2.2 0.8 2.2z"/>
				<path class="s0" d="m66.5 83.2q-0.9 0-1.7 0.5v-1.3c0-0.7-0.1-1-0.9-1h-0.9v8.3h0.8q0.3 0 0.6-0.4 0.8 0.4 1.8 0.4c1.4 0 2.9-0.8 2.9-3.3 0-2-1-3.2-2.6-3.2zm0.8 3.3c0 1.6-0.8 1.8-1.4 1.8-0.5 0-0.8-0.1-1.1-0.4v-2.7c0.3-0.2 0.8-0.5 1.3-0.5 0.5 0 1.2 0.2 1.2 1.8z"/>
				<path class="s0" d="m72.6 83.2c-1.9 0-3.2 1.4-3.2 3.3 0 2 1.3 3.2 3.2 3.2 2 0 3.3-1.3 3.3-3.2 0-1.9-1.3-3.3-3.3-3.3zm0 5.1c-0.9 0-1.4-0.6-1.4-1.8 0-1.1 0.5-1.8 1.4-1.8 0.9 0 1.5 0.6 1.5 1.8 0 0.8-0.3 1.8-1.5 1.8z"/>
				<path class="s0" d="m82.2 81.3l-2.9 7.6v0.1 0.7h1.6l0.8-2.2h2.6l0.8 2.2h1.7v-0.7l-2.8-7.7zm1.6 4.7h-1.6l0.8-2.2c0 0 0.8 2.2 0.8 2.2z"/>
				<path class="s0" d="m88.3 81.4h-1v8.3h1.9v-7.3c0-0.7-0.1-1-0.9-1z"/>
				<path class="s0" d="m91 81.4c-0.5 0-1 0.4-1 0.9 0 0.6 0.5 1 1 1 0.6 0 1-0.4 1-1 0-0.5-0.4-0.9-1-0.9z"/>
				<path class="s0" d="m91.1 83.3h-1v6.4h1.8v-5.2c0-0.8-0.1-1.2-0.8-1.2z"/>
				<path class="s0" d="m4.1 76.3c0.3 0 0.4-0.2 0.4-0.4v-0.7c0-0.2-0.1-0.4-0.4-0.4h-0.6c-0.3 0-0.4 0.1-0.4 0.4v0.7c0 0.2 0.1 0.4 0.4 0.4z"/>
				<path class="s0" d="m5.8 76.3c0.3 0 0.4-0.2 0.4-0.4v-0.7c0-0.2-0.1-0.4-0.4-0.4h-0.6c-0.2 0-0.4 0.2-0.4 0.4v0.7c0 0.2 0.2 0.4 0.4 0.4z"/>
				<path class="s0" d="m26.9 72.4v-0.6c0-0.2-0.1-0.4-0.4-0.4h-3.2c-0.5 0-0.8-0.5-0.8-1v-1.2c0-0.8 0.7-1.4 1.5-1.4 0.6 0 1.2 0.3 1.3 0.7v0.2c0.1 0.2 0.2 0.4 0.4 0.4h0.1l0.6-0.2c0.3 0 0.3-0.2 0.3-0.3q0-0.1 0-0.1l-0.1-0.3q-0.2-0.8-0.9-1.3-0.8-0.5-1.7-0.5-1.2 0-2.1 0.8c-0.6 0.5-0.9 1.2-0.9 1.9v1.3q0 0.6 0.3 1h-4.9q-0.5 0-0.6-0.1 0 0 0-0.1v-7c0-0.3-0.2-0.4-0.4-0.4h-0.6c-0.2 0-0.4 0.1-0.4 0.4v6.8c0 0.3-0.1 0.4-0.4 0.4h-2.5v-2.8q0-0.9-0.7-1.5-0.7-0.7-1.7-0.7c-0.6 0-1.2 0.2-1.6 0.7q-0.7 0.6-0.7 1.5v4.2h-3.8c-0.8 0-1.5-0.7-1.5-1.4 0-0.7 0.4-1.2 0.9-1.4l0.2-0.1q0.3-0.1 0.3-0.4-0.1 0-0.1-0.1l-0.3-0.6c0-0.1-0.2-0.2-0.3-0.2q-0.1 0-0.2 0.1l-0.3 0.1c-1 0.5-1.6 1.5-1.6 2.6q0 1.1 0.8 1.9 0.9 0.8 2.1 0.8h4.5c0.4 0 0.7-0.3 0.7-0.6v-4.9c0-0.5 0.4-0.8 1-0.8 0.5 0 0.9 0.3 0.9 0.8v3.5c0 0.4 0.3 0.7 0.7 0.7h3.2q0.7 0 1.2-0.4 0.5 0.4 1.4 0.4h9.9c0.3 0 0.4-0.2 0.4-0.4z"/>
				<path class="s0" d="m34 72.8h1.5c-0.1 0.6-0.7 1.1-1.3 1.1h-1.4c-0.2 0-0.4 0.1-0.4 0.4v0.5c0 0.2 0.2 0.4 0.4 0.4h1.4q1.1 0 1.9-0.7 0.8-0.8 0.8-1.7h3.2c1.1 0 1.8-0.8 1.8-1.8v-4c0-0.2-0.1-0.4-0.4-0.4h-0.6c-0.2 0-0.4 0.2-0.4 0.4v4c0 0.3-0.1 0.4-0.5 0.4h-3.1v-2.3q0-1.1-0.9-1.9-0.8-0.8-2-0.8-1.2 0-2.1 0.8-0.9 0.8-0.9 1.9v0.9q0 1.2 0.9 2c0.6 0.5 1.3 0.7 2.1 0.7zm0-4.9c0.8 0 1.5 0.6 1.5 1.3v2.3h-1.5c-0.9 0-1.6-0.6-1.6-1.4v-0.9c0-0.7 0.7-1.3 1.6-1.3z"/>
				<path class="s0" d="m40.1 73.3c-0.3 0-0.5 0.2-0.5 0.4v0.7c0 0.2 0.2 0.4 0.5 0.4h0.6c0.2 0 0.4-0.1 0.4-0.4v-0.7c0-0.2-0.2-0.4-0.4-0.4z"/>
				<path class="s0" d="m43.3 63.4h2.1c0.3 0 0.4-0.1 0.4-0.3v-0.3c0-0.2-0.2-0.3-0.4-0.3h-1v-0.5c0-0.1 0.1-0.2 0.2-0.2q0.1 0 0.2 0.1v0.1c0.1 0.2 0.4 0.3 0.5 0.2l0.2-0.1c0.2 0 0.3-0.1 0.3-0.3q0-0.1-0.1-0.2-0.3-0.7-1.1-0.7c-0.7 0-1.2 0.5-1.2 1.1v0.5h-0.1c-0.2 0-0.4 0.1-0.4 0.3v0.3c0 0.2 0.2 0.3 0.4 0.3z"/>
				<path class="s0" d="m44.1 63.8c-0.3 0-0.5 0.2-0.5 0.4v8.2c0 0.2 0.2 0.4 0.5 0.4h0.6c0.2 0 0.4-0.2 0.4-0.4v-8.2c0-0.3-0.2-0.4-0.4-0.4z"/>
				<path class="s0" d="m59.1 65.7h0.6c0.3 0 0.4-0.1 0.4-0.4v-0.6c0-0.2-0.1-0.4-0.4-0.4h-0.6c-0.3 0-0.4 0.2-0.4 0.4v0.6c0 0.3 0.1 0.4 0.4 0.4z"/>
				<path class="s0" d="m59.5 66.4q-1.2 0-2 0.8c-0.6 0.5-0.9 1.2-0.9 1.9v0.9q0 0.8 0.4 1.4h-4.5q-0.6 0-1.1-0.4-0.4-0.4-0.4-1c0-0.7 0.4-1.2 0.8-1.4l0.3-0.1c0.2-0.1 0.2-0.2 0.2-0.4q0.1 0 0-0.2l-0.3-0.4q-0.1-0.2-0.3-0.3-0.1 0-0.2 0.1l-0.3 0.1c-1 0.5-1.6 1.5-1.6 2.6q0 1.1 0.8 1.9 0.9 0.9 2.2 0.9h9.2c0.4 0 0.7-0.4 0.7-0.7v-2.9c0-0.8-0.3-1.5-0.9-2q-0.9-0.8-2.1-0.8zm0 1.4c0.9 0 1.6 0.6 1.6 1.4v2.2h-1.6c-0.8 0-1.5-0.6-1.5-1.4v-0.8c0-0.8 0.7-1.4 1.5-1.4z"/>
				<path class="s0" d="m71.9 65.7h0.6c0.3 0 0.4-0.2 0.4-0.4v-0.7c0-0.2-0.1-0.4-0.4-0.4h-0.6c-0.2 0-0.4 0.2-0.4 0.4v0.7c0 0.3 0.2 0.4 0.4 0.4z"/>
				<path class="s0" d="m72.8 64.3h0.6c0.2 0 0.4-0.2 0.4-0.4v-0.7c0-0.3-0.2-0.4-0.4-0.4h-0.6c-0.3 0-0.4 0.1-0.4 0.4v0.7c0 0.2 0.1 0.4 0.4 0.4z"/>
				<path class="s0" d="m73.2 64.7v0.7c0 0.2 0.2 0.3 0.4 0.3h0.6c0.3 0 0.4-0.1 0.4-0.3v-0.7c0-0.3-0.1-0.5-0.4-0.5h-0.6c-0.2 0-0.4 0.2-0.4 0.5z"/>
				<path class="s0" d="m76.7 66.7h-0.6c-0.3 0-0.4 0.1-0.4 0.3v4c0 0.3-0.1 0.4-0.5 0.4h-0.8c-0.6 0-0.6-0.1-0.6-0.2v-3.8c0-0.3-0.2-0.4-0.4-0.4h-0.6c-0.3 0-0.4 0.1-0.4 0.4v3.6c0 0.3-0.1 0.4-0.5 0.4h-0.8c-0.4 0-0.5-0.1-0.6-0.1q0 0 0-0.1v-4.2c0-0.1-0.1-0.3-0.4-0.3h-0.6c-0.3 0-0.4 0.1-0.4 0.3v4c0 0.3-0.1 0.4-0.5 0.4h-2.7v-4.3c0-0.3-0.1-0.4-0.4-0.4h-0.6c-0.2 0-0.4 0.1-0.4 0.4v5.9c0 0.6-0.3 0.9-1 0.9h-0.6c-0.3 0-0.4 0.1-0.4 0.4v0.5c0 0.3 0.1 0.4 0.4 0.4h0.6c1.5 0 2.4-0.9 2.4-2.2v-0.2h2.7q0.8-0.1 1.2-0.4 0.6 0.3 1.5 0.4h0.6q0.7-0.1 1.2-0.4 0.6 0.3 1.4 0.4h0.7c1.1 0 1.9-0.7 1.9-1.8v-4c0-0.2-0.2-0.4-0.4-0.4z"/>
				<path class="s0" d="m80.2 72.4v-8.2c0-0.3-0.1-0.4-0.4-0.4h-0.6c-0.2 0-0.4 0.2-0.4 0.4v8.2c0 0.2 0.2 0.4 0.4 0.4h0.6c0.3 0 0.4-0.2 0.4-0.4z"/>
				<path class="s0" d="m80.9 63.1v-0.3c0-0.2-0.1-0.3-0.3-0.3h-1.1v-0.5c0-0.1 0.1-0.2 0.2-0.2q0.2 0 0.2 0.1l0.1 0.1c0 0.2 0.3 0.3 0.5 0.2l0.2-0.1c0.1 0 0.2-0.1 0.2-0.3q0-0.1 0-0.2h-0.1q-0.3-0.7-1.1-0.7c-0.6 0-1.2 0.5-1.2 1.1v0.5h-0.1c-0.2 0-0.3 0.1-0.3 0.3v0.3c0 0.2 0.1 0.3 0.3 0.3h2.2c0.2 0 0.3-0.1 0.3-0.3z"/>
				<path class="s0" d="m85.1 72.8h0.7c0.2 0 0.3-0.2 0.3-0.4v-0.7c0-0.2-0.1-0.4-0.3-0.4h-0.7c-0.3 0-0.4 0.2-0.4 0.4v0.7c0 0.2 0.1 0.4 0.4 0.4z"/>
				<path class="s0" d="m91.9 67.1q-0.7-0.7-1.8-0.7-1.2 0-1.9 0.5l-0.2 0.1c-0.1 0.1-0.2 0.2-0.2 0.3v0.1c0 0 0 0.1 0.1 0.2l0.3 0.5c0.1 0.1 0.2 0.1 0.3 0.1h0.1c0 0 0.1 0 0.2-0.1l0.2-0.1q0.4-0.2 1.1-0.2c0.6 0 1.2 0.4 1.2 1v1.9c0 0.5-0.2 0.7-1.1 0.7h-2.7c-0.2 0-0.4 0.2-0.4 0.4v0.6c0 0.2 0.2 0.4 0.4 0.4h2.7c1.6 0 2.5-0.8 2.5-2.1v-1.9q0-1-0.8-1.7zm-3.8 0.3z"/>
			</g>
		</g>
	</g>
</svg>