<svg version="1.2" xmlns="http://www.w3.org/2000/svg" viewBox="0 0 130 24" width="130" height="24">
	<title>Dar El-Zokora Group</title>
	<defs>
		<linearGradient id="g1" x2="1" gradientUnits="userSpaceOnUse" gradientTransform="matrix(-2.63,-0.62,.647,-2.744,14.49,9.26)">
			<stop offset="0" stop-color="#ffffff" stop-opacity="0"/>
			<stop offset="1" stop-color="#ffffff" stop-opacity="1"/>
		</linearGradient>
	</defs>
	<style>
		.s0 { fill: #ffffff } 
		.s1 { fill: #00aeab } 
		.s2 { fill: #008d86 } 
		.s3 { mix-blend-mode: soft-light;fill: url(#g1) } 
		.s4 { fill: none } 
		.s5 { fill: #3f403e } 
		.s6 { fill: #091622 } 
	</style>
	<g>
		<g id="Layer_2">
			<g id="Layer_1-2">
				<g>
					<g>
						<path class="s0" d="m29.8 14.3c0-0.1-2.9 2.3-2.9 2.6-0.1 0.3-3.6 0.5-4 0.5-0.4 0-2.7-0.2-3.4-0.5-0.6-0.3-1.9-0.9-2.1-1.1-0.1-0.2-1.5-0.9-1.8-1.1-0.3-0.1-4.2 2.5-4.2 2.5 0 0-3.1 0.4-3.8 0.5-0.6 0.1-3.5-1.7-3.5-1.7 0 0-1.4-1.1-1.5-1.3-0.1-0.1 0-0.9 0-0.9l5.7-1.4c0 0 3.3-1.1 3.6-1.1h2.3l2.2 1.1 1.4-1.1c0 0 1.9-0.4 2-0.3 0.1 0 7.1 2.3 7.1 2.3l2.9 1z"/>
						<g>
							<path class="s1" d="m16 15.5c0 0 0 0 0 0-0.8 0.5-3.4 2.3-6.2 2.4q-0.2 0.1-0.4 0.1c1.6 1.5 3.5 3.2 6.6 3.2 3.2 0 5.2-1.9 6.5-3.2-3.3-0.2-6.5-2.5-6.5-2.5z"/>
							<path class="s2" d="m16 15.5c0 0-2.8 2.7-6.3 2.8l-0.3-0.3c0 0 2.9 0 6.6-2.5z"/>
							<path class="s2" d="m16 15.5c0 0 2.7 2.7 6.3 2.8l0.2-0.3c0 0-2.9 0-6.5-2.5z"/>
							<g>
								<path class="s1" d="m16 11.6q0 0 0 0 0 0 0 0z"/>
								<path class="s1" d="m23.8 11.9q0 0 0 0z"/>
								<path class="s1" d="m13.7 10.7l0.2-0.1 0.1 0.1c0.7 0.1 1.4 0.4 2 1 0 0 1.2-2.7 7.8 0.3q0 0 0 0c-0.6-3.7-3.9-6.6-7.8-6.6-4 0-7.4 2.9-7.9 6.7 0 0 3.1-1.7 5.6-1.4z"/>
							</g>
							<g>
								<path class="s2" d="m23.8 11.9q0 0 0 0z"/>
								<path class="s2" d="m15.9 5.4c-4 0-7.3 2.9-7.8 6.7q0 0 0.1-0.1-0.1-0.1-0.1-0.1c0 0 2.1-6.1 7.7-6.1 5.6 0 7.8 6.1 7.8 6.1 0 0 0.1 0.1 0.2 0.1q0 0 0 0c-0.6-3.7-3.9-6.6-7.9-6.6z"/>
							</g>
							<path class="s3" d="m8.3 11.7c0 0 4.8-2.9 7.7-0.7l0.4-5.2c0 0-5.7-0.6-8.1 5.9z"/>
							<path class="s4" d="m16 21.4c2.7 0 5-1.4 6.5-3.4q-3.2-0.2-6.5-2.5-3.4 2.3-6.6 2.5c1.5 2 3.9 3.4 6.6 3.4z"/>
							<path class="s4" d="m16 5.4c-3.9 0-7.2 2.8-7.9 6.5 1.3-0.5 2.7-1 4-1.3 1.6-0.3 2.9 0 3.9 1 0.9-1 2.2-1.3 3.8-1 1.4 0.3 2.7 0.8 4 1.3-0.7-3.7-3.9-6.5-7.8-6.5z"/>
							<path class="s5" d="m22.5 18c-1.5 2-3.9 3.4-6.5 3.4-2.7 0-5.1-1.4-6.6-3.4q-0.2 0-0.5 0-0.8 0-1.5-0.1c1.6 3.1 4.9 5.2 8.6 5.2 3.7 0 6.9-2.1 8.5-5.2q-0.7 0.1-1.5 0.1-0.3 0-0.5 0z"/>
							<path class="s5" d="m30.2 13.1q-0.6 0.2-1.3 0.2c-1 0-2.1-0.3-3.3-0.7q-0.7-0.3-1.5-0.6-0.2 0-0.3-0.1c-1.3-0.5-2.6-1-4-1.3-1.6-0.3-2.9 0-3.8 1-1-1-2.3-1.3-3.9-1-1.3 0.3-2.7 0.8-4 1.3q-0.1 0.1-0.2 0.1-0.8 0.3-1.5 0.6c-1.2 0.4-2.3 0.7-3.3 0.7q-0.8 0-1.3-0.3l-1.8-0.8 1.1 1.6c0.1 0.2 2.3 3.4 6.3 4.1q0.7 0.1 1.5 0.1 0.3 0 0.6 0 3.1-0.2 6.5-2.5 3.3 2.3 6.5 2.5 0.3 0 0.5 0 0.8 0 1.5-0.1c4.1-0.7 6.3-3.9 6.4-4.1l1-1.6-1.7 0.8zm-5.1 3.6q-0.9 0.3-2 0.3 0 0-0.1 0c-2.1 0-4.4-0.8-6.7-2.5l-0.3-0.3-0.3 0.3c-2.4 1.7-4.6 2.5-6.8 2.5q0 0-0.1 0-1 0-1.9-0.3c-1.8-0.4-3.1-1.4-3.9-2.2q0 0 0.1 0c1 0 2.1-0.3 3.2-0.7q0.9-0.3 1.7-0.6 0.1 0 0.3-0.1c1.3-0.5 2.7-1 4.1-1.3q2.1-0.5 3.1 1l0.5 0.7 0.4-0.7q1.1-1.5 3.2-1c1.4 0.3 2.8 0.8 4.1 1.3q0.1 0.1 0.3 0.1 0.8 0.3 1.6 0.6c1.2 0.4 2.3 0.7 3.4 0.7-0.9 0.8-2.2 1.8-3.9 2.2z"/>
							<path class="s5" d="m19.4 1.5l1.6 1.3 3.7-0.7-2.9 3.6c-1.7-1.2-3.7-1.9-5.8-1.9-5.1 0-9.2 3.9-9.6 8.8q0.7-0.3 1.5-0.6 0.1 0 0.2-0.1c0.7-3.7 4-6.5 7.9-6.5 3.9 0 7.1 2.8 7.8 6.5q0.1 0.1 0.3 0.1 0.7 0.3 1.5 0.6c-0.2-2.2-1.1-4.2-2.5-5.7l2.9-3.6-0.1 3.6 1.7 1.3v-8.2c0 0-8.2 1.5-8.2 1.5z"/>
							<path class="s5" d="m23.1 16.6c1.8 0 3.9-0.9 5.4-2h-0.7c-2.1 1.7-4.8 2-7.7 1-2.3-0.7-3.9-2-3.9-2l-0.2 0.3c0 0.1 1.6 1.3 3.9 2.1q1.7 0.6 3.2 0.6z"/>
							<path class="s5" d="m23.2 15.6c1.2 0 2.8-0.5 4-1.1l-0.6-0.1c-4.3 2.4-9.8-1.3-9.9-1.3l-0.2 0.3c0 0 3.2 2.2 6.7 2.2z"/>
							<path class="s5" d="m23.2 14.7c0.8 0 2-0.2 2.8-0.5l-0.6-0.2c-3.6 1.3-8.1-1.6-8.1-1.6l-0.2 0.3c0.1 0.1 3 2 6.1 2z"/>
							<path class="s5" d="m23.3 13.9c0.3 0 1.1-0.1 1.4-0.1l-0.5-0.3c-2.5 0.5-6.2-1.6-6.2-1.6l-0.2 0.3c0.1 0.1 3 1.7 5.5 1.8z"/>
							<path class="s5" d="m20.9 12.8c1.1 0.3 2 0.5 2 0.4 0-0.1-0.8-0.5-1.9-0.8-1-0.3-1.9-0.5-2-0.4 0 0.1 0.9 0.5 2 0.8z"/>
							<path class="s5" d="m8.9 16.6c-1.9 0-4-0.9-5.4-2h0.6c2.2 1.7 4.8 2 7.8 1 2.2-0.7 3.8-2 3.9-2l0.2 0.3c-0.1 0.1-1.7 1.3-4 2.1q-1.6 0.6-3.1 0.6z"/>
							<path class="s5" d="m8.8 15.6c-1.2 0-2.9-0.4-4-1.1l0.5-0.1c4.4 2.4 9.9-1.2 9.9-1.3l0.2 0.3c0 0-3.1 2.2-6.6 2.2z"/>
							<path class="s5" d="m8.7 14.8c-0.8-0.1-2-0.3-2.7-0.6l0.5-0.2c3.6 1.4 8.1-1.5 8.2-1.6l0.2 0.3c-0.2 0.1-3.1 2-6.2 2.1z"/>
							<path class="s5" d="m8.7 14c-0.4 0-1.2-0.1-1.5-0.2l0.6-0.3c2.5 0.5 6.2-1.5 6.2-1.5l0.2 0.3c-0.2 0.1-3.1 1.7-5.5 1.7z"/>
							<path class="s5" d="m11 12.8c-1.1 0.4-1.9 0.5-1.9 0.4-0.1-0.1 0.8-0.4 1.8-0.8 1.1-0.3 2-0.5 2-0.4 0.1 0.1-0.8 0.5-1.9 0.8z"/>
							<path class="s6" d="m9.7 18.3c0 0-1.2 0.1-2.1 0l-0.2-0.4c0 0 1.3 0.2 2 0.1 0 0 0.3 0.3 0.3 0.3z"/>
							<path class="s6" d="m22.3 18.3c0 0 1.1 0.1 2 0l0.2-0.4c0 0-1.2 0.2-2 0.1l-0.2 0.3z"/>
							<path class="s6" d="m23.8 11.9l1.8 0.7c0 0-0.1-0.5-0.1-0.7h-1.7z"/>
							<path class="s6" d="m8.1 11.9l-1.8 0.7c0 0 0.1-0.5 0.1-0.7h1.7z"/>
						</g>
					</g>
					<g>
						<path class="s5" d="m36.1 4.6c0.3 0 0.6-0.2 0.6-0.5 0-0.4-0.3-0.6-0.6-0.6-0.3 0-0.6 0.2-0.6 0.6 0 0.3 0.3 0.5 0.6 0.5z"/>
						<path class="s5" d="m37.8 4.6c0.3 0 0.6-0.2 0.6-0.5 0-0.4-0.3-0.6-0.6-0.6-0.4 0-0.6 0.2-0.6 0.6 0 0.3 0.3 0.5 0.6 0.5z"/>
						<path class="s5" d="m38.4 9.9v-4.7h-1v0.4h-0.2c-1.7 0-2.6 0.9-2.6 2.2 0 1.4 1.1 2.1 2.6 2.1h1.2zm-2.8-2.1c0-0.7 0.7-1.1 1.3-1.1h0.5v2.2h-0.5c-0.6 0-1.2-0.4-1.3-1.1z"/>
						<path class="s5" d="m39.6 11.6c1.1 0 1.6-0.6 1.6-2v-4h-1.1v4.2c0 0.5-0.2 0.7-0.6 0.7q-0.2 0.1-0.5 0l0.1 1.1c0.1 0 0.3 0 0.5 0z"/>
						<path class="s5" d="m50.3 5.9h-2.3l1.2-2.2h-1.2l-1.2 2.2c0 0.5 0.1 0.8 0.3 1.1h3.3c0.2 0 0.5 0.1 0.6 0.3q0.2 0.3 0.2 0.7v0.8h-5.4v-3.2h-1.2c-1.5 0-2.6 0.8-2.6 2.1 0 1.6 1.2 2.2 2.6 2.2h0.2c-0.1 0.6-0.4 0.6-1 0.6-0.4 0-0.7 0-1.1-0.2v1.1c0.5 0.2 0.7 0.2 1.2 0.2 1.4 0 1.9-0.7 1.9-1.7h6.5v-1.8c0-0.7-0.1-1.2-0.4-1.6-0.4-0.4-1-0.6-1.7-0.6zm-5.4 3h-0.5c-0.7 0-1.2-0.4-1.2-1.1 0-0.7 0.6-1.1 1.2-1.1h0.5z"/>
						<path class="s5" d="m54.8 5c0.4 0 0.7-0.2 0.7-0.6 0-0.3-0.3-0.5-0.7-0.5-0.3 0-0.6 0.2-0.6 0.5 0 0.4 0.3 0.6 0.6 0.6z"/>
						<path class="s5" d="m57.5 9.9h1.7v-6.2h-1.1v5.1h-1.4v-1.1c0-0.6-0.1-1.2-0.5-1.5-0.4-0.5-0.9-0.6-1.6-0.6h-0.3v1.1h0.4c0.3 0 0.5 0.1 0.7 0.2q0.2 0.3 0.2 0.8v1.1h-2.7v1.1h4.6z"/>
						<path fill-rule="evenodd" class="s5" d="m60.7 3.7h1.1v6.2h-1.1z"/>
						<path class="s5" d="m66.7 9.6v-4h-1.1v4.2c0 0.5-0.1 0.8-0.6 0.8q-0.2 0-0.5-0.1l0.1 1.1c0.1 0 0.4 0 0.6 0 1.1 0 1.5-0.6 1.5-2z"/>
						<path fill-rule="evenodd" class="s5" d="m68.1 3.7h1.1v6.2h-1.1z"/>
						<path class="s5" d="m73.7 7.7c0-0.6-0.1-1.2-0.4-1.5-0.4-0.5-0.9-0.6-1.6-0.6h-0.4v1.1h0.5c0.2 0 0.5 0.1 0.6 0.2q0.2 0.3 0.2 0.8v1.1h-2.7v1.1h3.8v-2.2z"/>
						<path class="s5" d="m77.9 4.9c0.3 0 0.6-0.2 0.6-0.6 0-0.3-0.2-0.5-0.6-0.5-0.4 0-0.6 0.2-0.6 0.5 0 0.4 0.3 0.6 0.6 0.6z"/>
						<path class="s5" d="m78.5 9.9h6.5v-1.8c0-0.7-0.1-1.2-0.4-1.6-0.4-0.4-0.9-0.6-1.6-0.6h-2.3l1.2-2.2h-1.2l-1.2 2.2c0 0.5 0.2 0.9 0.4 1.1h3.2c0.3 0 0.5 0.1 0.6 0.3q0.3 0.3 0.3 0.7v0.8h-5.5v-3.2h-1.1v4.2c0 0.5-0.2 0.7-0.6 0.7q-0.2 0.1-0.5 0l0.1 1.1c0.1 0 0.3 0 0.5 0 1 0 1.5-0.5 1.6-1.7z"/>
						<path fill-rule="evenodd" class="s5" d="m86.4 3.7h1v6.2h-1z"/>
						<path class="s5" d="m88.8 11.6c1 0 1.5-0.5 1.6-1.7h2c0.4 0.5 1 0.8 1.6 0.8 1.3 0 2.4-1 2.4-2.4 0-1.3-1.1-2.3-2.4-2.3-1.3 0-2.3 1-2.3 2.3q0 0.3 0.1 0.5h-1.5v-3.2h-1v4.2c0 0.5-0.2 0.7-0.6 0.7q-0.2 0-0.5 0l0.1 1c0.1 0.1 0.3 0.1 0.5 0.1zm5.2-4.5c0.8 0 1.3 0.5 1.3 1.2 0 0.8-0.6 1.3-1.3 1.3-0.7 0-1.2-0.6-1.2-1.3 0-0.7 0.5-1.2 1.2-1.2z"/>
						<path class="s5" d="m100.6 4.6c0.3 0 0.6-0.2 0.6-0.5 0-0.4-0.3-0.6-0.6-0.6-0.3 0-0.6 0.2-0.6 0.6 0 0.3 0.3 0.5 0.6 0.5z"/>
						<path class="s5" d="m102.3 4.6c0.3 0 0.6-0.2 0.6-0.5 0-0.4-0.3-0.6-0.6-0.6-0.4 0-0.6 0.2-0.6 0.6 0 0.3 0.3 0.5 0.6 0.5z"/>
						<path class="s5" d="m103.5 9.9h4.4v-1.1h-2.4c-0.3-0.3-0.4-0.7-0.4-1.2 0-0.3 0.1-0.6 0.3-0.8q0.4-0.3 0.9-0.3c0.3 0 0.8 0.2 1.1 0.3l0.4-0.9c-0.6-0.3-1.1-0.5-1.7-0.5q-0.8 0-1.4 0.5c-0.4 0.4-0.7 0.9-0.7 1.7 0 0.5 0.1 0.9 0.3 1.3h-1.4v-3.7h-1.1v0.4h-0.1c-1.7 0-2.7 0.9-2.7 2.2 0 1.4 1.1 2.1 2.7 2.1h1.7zm-3.3-2.1c0-0.7 0.7-1.1 1.3-1.1h0.4v2.2h-0.5c-0.6 0-1.2-0.4-1.2-1.1z"/>
						<path class="s5" d="m121.8 11c0-0.3-0.3-0.6-0.7-0.6-0.3 0-0.6 0.3-0.6 0.6 0 0.4 0.3 0.6 0.6 0.6 0.4 0 0.7-0.2 0.7-0.6z"/>
						<path class="s5" d="m127 10.7c1.3 0 2.3-1 2.3-2.3 0-1.4-1-2.4-2.3-2.4-1.3 0-2.3 1-2.3 2.4q0 0.2 0 0.4h-1.4q0.1-0.4 0.1-1c0-0.8-0.3-1.4-0.7-1.8-0.4-0.4-0.9-0.6-1.5-0.6-0.7 0-1.2 0.2-1.7 0.5l0.4 1c0.4-0.3 0.7-0.4 1.1-0.4q0.6 0 1 0.3c0.2 0.2 0.3 0.6 0.3 0.9 0 0.3 0 0.8-0.1 1.1h-3.9q0-0.2 0-0.5c0-1.3-1-2.3-2.3-2.3-1.3 0-2.3 1-2.3 2.3q0 0.3 0 0.5h-1.3v-3.2h-1.2c-1.5 0-2.6 0.8-2.6 2.1 0 1.6 1.1 2.2 2.6 2.2h0.1c0 0.5-0.3 0.6-0.9 0.6-0.4 0-0.7 0-1.2-0.2l0.1 1.1c0.5 0.2 0.7 0.2 1.1 0.2 1.4 0 1.9-0.7 2-1.7h1.9c0.4 0.5 1 0.8 1.7 0.8 0.6 0 1.3-0.3 1.7-0.8h7.6c0.4 0.5 1 0.8 1.7 0.8zm0-3.6c0.7 0 1.3 0.5 1.3 1.2 0 0.8-0.6 1.3-1.3 1.3-0.7 0-1.2-0.6-1.2-1.3 0-0.7 0.5-1.2 1.2-1.2zm-15.7 1.7h-0.4c-0.7 0-1.3-0.4-1.3-1.1 0-0.6 0.6-1.1 1.3-1.1h0.4zm4.7 0.8c-0.7 0-1.3-0.6-1.3-1.3 0-0.6 0.6-1.2 1.3-1.2 0.7 0 1.2 0.5 1.2 1.2 0 0.8-0.5 1.3-1.2 1.3z"/>
						<path class="s5" d="m36.6 15.5h-1.5v5.5h1.5c1.9 0 3.2-1 3.2-2.8 0-1.8-1.4-2.7-3.2-2.7zm0 4.6h-0.5v-3.7h0.5c1.3 0 2.2 0.5 2.2 1.8 0 1.4-0.9 1.9-2.2 1.9z"/>
						<path class="s5" d="m42 15.5l-2 5.5h1l0.5-1.3h2.3l0.5 1.3h1l-2.1-5.5c0 0-1.2 0-1.2 0zm-0.2 3.3l0.8-2.3 0.9 2.3z"/>
						<path class="s5" d="m50.2 17.1c0-0.8-0.6-1.6-2-1.6h-2.1v5.5h1v-2.2h0.9l1.4 2.2h1.1l-1.4-2.3c0.8-0.3 1.1-0.9 1.1-1.5zm-2.3 0.8h-0.8v-1.6h0.8c0.8 0 1.2 0.2 1.2 0.8 0 0.6-0.4 0.8-1.2 0.8z"/>
						<path class="s5" d="m55 15.5l-2.1 5.5h1.1l0.4-1.3h2.3l0.5 1.3h1l-2-5.5c0 0-1.2 0-1.2 0zm-0.2 3.3l0.8-2.3 0.8 2.3z"/>
						<path fill-rule="evenodd" class="s5" d="m60 15.5h-1v5.5h3.6v-0.9h-2.6v-4.6z"/>
						<path fill-rule="evenodd" class="s5" d="m69.5 16.4v-0.9h-4.1v0.9h2.9l-3.1 3.7v0.9h4.3v-0.9h-3.1l3.1-3.7z"/>
						<path class="s5" d="m73 15.4c-1.7 0-2.9 1.2-2.9 2.8 0 1.7 1.2 2.9 2.9 2.9 1.6 0 2.8-1.2 2.8-2.9 0-1.6-1.2-2.8-2.8-2.8zm0 4.8c-1.1 0-1.9-0.8-1.9-2 0-1.1 0.8-1.9 1.9-1.9 1 0 1.8 0.8 1.8 1.9 0 1.2-0.8 2-1.8 2z"/>
						<path fill-rule="evenodd" class="s5" d="m81.2 15.5h-1.2l-2.2 2.8v-2.8h-1v5.5h1v-2.7l2.3 2.7h1.2l-2.3-2.8 2.2-2.7z"/>
						<path class="s5" d="m84.3 15.4c-1.7 0-2.9 1.2-2.9 2.8 0 1.7 1.2 2.9 2.9 2.9 1.7 0 2.9-1.2 2.9-2.9 0-1.6-1.2-2.8-2.9-2.8zm0 4.8c-1.1 0-1.8-0.8-1.8-2 0-1.1 0.7-1.9 1.8-1.9 1 0 1.8 0.8 1.8 1.9 0 1.2-0.8 2-1.8 2z"/>
						<path class="s5" d="m92.3 17.1c0-0.8-0.6-1.6-2-1.6h-2.1v5.5h1v-2.2h0.9l1.4 2.2h1.1l-1.4-2.3c0.8-0.3 1.1-0.9 1.1-1.5zm-2.3 0.8h-0.8v-1.6h0.8c0.9 0 1.2 0.2 1.2 0.8 0 0.6-0.4 0.8-1.2 0.8z"/>
						<path class="s5" d="m95 15.5l-2 5.5h1l0.4-1.3h2.3l0.5 1.3h1l-2-5.5h-1.2zm-0.2 3.3l0.8-2.3 0.8 2.3z"/>
						<path class="s5" d="m103.5 18.9h1.3v1c-0.3 0.2-0.8 0.3-1.1 0.3-1 0-1.9-0.6-1.9-1.9 0-1.4 0.8-2 1.9-2 0.6 0 1.2 0.2 1.6 0.4l0.3-0.8c-0.4-0.3-1.2-0.5-2-0.5-1.7 0-2.8 1.2-2.8 2.8 0 1.7 1.1 2.9 2.8 2.9 0.7 0 1.7-0.2 2.2-0.5v-2.6h-2.2v0.9z"/>
						<path class="s5" d="m111.3 17.1c0-0.8-0.6-1.6-2-1.6h-2.1v5.5h1v-2.2h0.9l1.4 2.2h1.1l-1.5-2.3c0.9-0.3 1.2-0.9 1.2-1.5zm-2.3 0.8h-0.8v-1.6h0.8c0.8 0 1.2 0.2 1.2 0.8 0 0.6-0.4 0.8-1.2 0.8z"/>
						<path class="s5" d="m115 15.4c-1.6 0-2.8 1.2-2.8 2.8 0 1.7 1.2 2.9 2.8 2.9 1.7 0 2.9-1.2 2.9-2.9 0-1.6-1.2-2.8-2.9-2.8zm0 4.8c-1 0-1.8-0.8-1.8-2 0-1.1 0.8-1.9 1.8-1.9 1.1 0 1.9 0.8 1.9 1.9 0 1.2-0.8 2-1.9 2z"/>
						<path class="s5" d="m122.7 18.6c0 1-0.4 1.6-1.4 1.6-1.1 0-1.4-0.6-1.4-1.6v-3.1h-1v3.4c0 1.2 0.6 2.2 2.4 2.2 1.7 0 2.4-1 2.4-2.3v-3.3h-1v3.1z"/>
						<path class="s5" d="m127 15.5h-2v5.5h1v-2.1h1c1.4 0 2.1-0.8 2.1-1.7 0-0.9-0.7-1.7-2.1-1.7zm-0.2 2.5h-0.8v-1.6h0.8q1.2 0 1.2 0.8c0 0.6-0.5 0.8-1.2 0.8z"/>
					</g>
				</g>
			</g>
		</g>
	</g>
</svg>