<svg version="1.2" xmlns="http://www.w3.org/2000/svg" viewBox="0 0 1481 981" width="1481" height="981">
	<title>89</title>
	<style>
		.s0 { fill: #2c3a6b } 
	</style>
	<g id="Layer_1-2">
		<g>
			<path class="s0" d="m496.3 302.5c1 3.9 5.1 9.2 9.5 9.2 12.5 0 24.9 0 37.3 0.5 4.2 0.2 8.6-0.2 12.1-2.5 3.2-2 5.3-5.4 6.5-9 2.5-7.6 2.8-16.5 3.9-24.4 1.2-8.6 2.4-17.3 4-25.8 2.4-13.4 5.7-26.8 8.5-40.2q7.6-35.7 15.1-71.5 0.8-3.7 1.5-7.4c1.3-5.4 2.7-10.9 3.7-16.4 0.2-1.3 0.9-2.8 2.2-3.2 1.3-0.4 2.7 0.4 3.4 1.5 1.8 2.6 1.9 7.7 2.4 10.8l2.6 17q4.4 28.5 8.9 57.1l11.3 73.3q5.5 35.9 11.1 71.8 4.1 26.5 8.2 52.9 1.3 8.4 2.6 16.8c0 0 1.8 8.3 9.5 8.3 0 0 8.3 3 13-10.1l54-179.6c0 0 11.8-38.4 11.8-38.5 1.6-5.3 4.6-8.4 10.5-8.5 11.4-0.2 22.9-0.1 34.3 0 6 0.1 12-0.6 17.9-0.1 5.1 0.5 11.4 2.2 15.6-1.7 1.8-1.8 2.8-4.2 3.6-6.6q6.4-17.8 11.7-36c0.6-2.4 1.4-4.9 3-6.7 1.6-1.9 4.5-2.9 6.6-1.7 1.9 1.1 2.6 3.4 3.2 5.5q3.7 14.3 7.5 28.6c2.1 8.2 4.9 17.3 12.3 21.4 5.1 2.8 11.3 2.6 17.1 2.3q15.7-0.8 31.4-1.5c2.8-0.2 6.3 0.1 7.2 2.8 0.9 2.6-1.6 5-3.9 6.7q-15.3 11.1-30.6 22.2c-3.6 2.6-7.4 5.6-8.6 9.8-1.1 3.8 0.1 7.7 1.2 11.4q5.9 18.8 12.3 37.3c1 3 1.5 7.4-1.4 8.5-2 0.8-4.1-0.5-5.8-1.7q-16.5-12.1-33-24.1c-2.9-2.1-6-4.3-9.6-4.7-5.2-0.5-9.8 3-13.9 6.2q-12.5 10.1-25 20.1c-4.4 3.5-11.6 6.7-14.7 2.1-1.7-2.5-1-5.8-0.1-8.6q3.3-11.3 7.6-22.2c3-7.6 6.4-15.7 4.6-23.7-1.9-7.9-12-14.2-18.4-9.1-2.9 2.3-4.1 6-5.2 9.5q-13.5 44.9-27.1 89.9c-1.8 5.9-2.6 14.1 3.1 16.5 1.8 0.8 4 0.7 6 0.4 10.4-1.7 19.4-8.1 28-14.3l47.7-34.7c1.5-1.1 3.2-2.2 5-2.1 1.5 0.1 2.8 1.1 4.1 2q30.6 22.5 61.2 45.1c3.9 2.9 7.9 5.8 12.6 7 4.7 1.3 10.2 0.5 13.3-3.2 4.3-5.1 2.4-12.7 0.2-19q-11.3-33.3-22.7-66.5c-1.2-3.5-2.4-7.1-1.7-10.7 1.1-5 5.6-8.5 9.8-11.5q27.1-19.3 54.2-38.6c4.2-3 8.5-6.1 11.3-10.5 2.8-4.4 3.6-10.4 0.6-14.7-3.6-5.3-11.1-5.8-17.5-5.8q-39.7 0-79.4-0.1c-6.9 0-8.1-5-9.9-10.8q-7.4-25-14.8-50c-3-10.2-6.7-37.4-23.4-33.1-10.2 2.6-12.9 18.5-15.4 26.9q-6.2 20-12.3 40c-2.1 6.8-4.1 13.6-6.7 20.2-2 5.3-4.9 9.1-11.3 9-21 0-42-0.4-62.9-0.4-1 0-2 0-2.9 0.3-2.2 0.6-3.8 2.5-4.8 4.6-3.6 7.5-5.3 16.5-7.7 24.5l-9.9 33.5q-10.9 36.8-21.7 73.6c-2.4 7.8-5 15.7-7 23.6-0.7 2.7-2.1 5.9-4.2 7.7-1.7 1.3-4.3 1.8-5.9 0.5-1.1-0.9-1.6-2.3-1.9-3.7-3.5-12.7-4.3-27.3-6.1-40.4q-4.6-32.5-9.1-64.9-5.1-35.9-10.1-71.8-3.1-22.1-6.2-44.1-0.2-1.3-0.4-2.6-2.6-15.9-5.2-31.7-2.1-13.2-4.2-26.3c-1.6-9.4-2.4-19.2-4.8-28.4-0.7-2.9-1.6-5.7-2.8-8.4-0.9-2.2-2.1-4.4-4-5.8-1.7-1.2-3.9-1.7-6-1.8-2-0.1-4 0.2-5.8 1.1-2.9 1.4-4.8 4.3-5.8 7.4-1.6 5-1.7 10.8-2.7 16q-1 5.7-2 11.3-2.8 15.1-5.6 30.2c-4.8 26.1-9.7 52.2-14.7 78.2q-7.3 38.9-14.7 77.8c-3.3 17.7-7.4 35.6-9.9 53.5-0.4 2.4-1 5.3-3.3 6-0.8 0.3-1.6 0.2-2.4 0.1-13.8-0.9-27.5-1.4-41.3-2q0 8.4 0.1 16.7c0 2.1 0 4.2 0.5 6.2z"/>
			<path class="s0" d="m130.2 652.7h-44.2l-86 193h45.8l17.1-41.4h89.6l17.1 41.4h46.9c0 0-86.3-193-86.3-193zm-53 117.7l30.6-73.9 30.6 73.9z"/>
			<path fill-rule="evenodd" class="s0" d="m236.6 845.7h141.5v-36.4h-96.8v-156.6h-44.7v193z"/>
			<path fill-rule="evenodd" class="s0" d="m531.7 652.7h-168.2v36.4h61.7v156.6h44.7v-156.6h61.8v-36.4z"/>
			<path fill-rule="evenodd" class="s0" d="m688 845.7h44.7v-193h-44.7v76.1h-87.7v-76.1h-44.6v193h44.6v-79.1h87.7v79.1z"/>
			<path class="s0" d="m951.7 760.8v-108.1h-44.2v106.4c0 36.7-15.7 51.9-43 51.9-27.3 0-43-15.2-43-51.9v-106.4h-44.7v108.1c0 56.8 32.6 88.2 87.4 88.2 54.9 0 87.5-31.4 87.5-88.2z"/>
			<path class="s0" d="m1163.2 722.7c0-43.3-32.3-70-83.8-70h-83.6v193h44.7v-53.8h41.1l37.2 53.8h48l-43.3-62c25.1-10.8 39.7-32 39.7-61zm-86.3 33.6h-36.4v-67.2h36.4c27.3 0 41 12.4 41 33.6 0 21.2-13.7 33.6-41 33.6z"/>
			<path fill-rule="evenodd" class="s0" d="m1198.5 652.7h44.7v193h-44.7z"/>
			<path class="s0" d="m1393.7 652.7h-44.1l-86 193h45.7l17.1-41.4h89.7l17.1 41.4h46.9l-86.4-193zm-52.9 117.7l30.6-73.9 30.6 73.9z"/>
			<path fill-rule="evenodd" class="s0" d="m256.5 937.4h-42.1v-31.5h-10.5v73.3h10.5v-32.7h42.1v32.7h10.5v-73.3h-10.5v31.5z"/>
			<path class="s0" d="m399.5 905c-22.5 0-39 16-39 37.5 0 21.5 16.5 37.5 39 37.5 22.6 0 38.9-15.9 38.9-37.5 0-21.6-16.5-37.5-38.9-37.5zm0 65.7c-16.4 0-28.5-11.9-28.5-28.2 0-16.2 12.1-28.1 28.5-28.1 16.5 0 28.4 11.9 28.4 28.1 0 16.3-12.1 28.2-28.4 28.2z"/>
			<path class="s0" d="m537.3 925.6c0-6.4 5.3-11.7 17.8-11.7 6.5 0 13.7 1.9 20.1 6l3.4-8.4c-6-4.2-14.9-6.5-23.5-6.5-19.3 0-28.1 9.7-28.1 21 0 27.2 44.4 15.9 44.4 33.8 0 6.4-5.4 11.3-18.1 11.3-9.4 0-18.8-3.5-24.2-8.5l-3.9 8.2c5.9 5.5 16.9 9.2 28.1 9.2 19.4 0 28.4-9.6 28.4-20.8 0-26.9-44.4-15.7-44.4-33.6z"/>
			<path class="s0" d="m703 905.9h-28.5v73.3h10.4v-22.2h18.1c19.1 0 30.6-9.6 30.6-25.6 0-15.9-11.5-25.5-30.6-25.5zm-0.3 42h-17.8v-32.9h17.8c13.4 0 20.4 6 20.4 16.4 0 10.5-7 16.5-20.4 16.5z"/>
			<path fill-rule="evenodd" class="s0" d="m826.5 905.9h10.5v73.3h-10.5z"/>
			<path fill-rule="evenodd" class="s0" d="m925.9 915h25.1v64.2h10.4v-64.2h25.1v-9.1h-60.6v9.1z"/>
			<path class="s0" d="m1093.9 905.9l-33.2 73.3h10.8l8-18.3h39l8.1 18.3h11l-33.3-73.3c0 0-10.4 0-10.4 0zm-10.7 46.6l15.8-35.9 15.8 35.9z"/>
			<path fill-rule="evenodd" class="s0" d="m1236.4 905.9h-10.4v73.3h50.1v-9.1h-39.7v-64.2z"/>
			<path fill-rule="evenodd" class="s0" d="m136.6 568.2h59.6 59.7v-9.7h-59.7-59.6-10.8v-76.4l-9.7 4.7v76.6l4.8 4.8h15.7z"/>
			<path fill-rule="evenodd" class="s0" d="m331.3 563.4v-41.6l-9.7 4.7v32h-65.7v9.7h70.6l4.8-4.8z"/>
			<path fill-rule="evenodd" class="s0" d="m308.1 588.5l4-4c1.4-1.4 3.7-1.4 5.2 0l4 4c1.4 1.4 1.4 3.8 0 5.2l-4 4c-1.5 1.5-3.8 1.5-5.2 0l-4-4c-1.5-1.4-1.5-3.8 0-5.2z"/>
			<path class="s0" d="m286.4 597.8l4.2-4.1c1.3-1.4 1.3-3.7 0-5.1l-4.2-4.1c-1.3-1.4-3.7-1.4-5 0l-4.2 4.1c-1.3 1.4-1.3 3.7 0 5.1l4.2 4.1c1.3 1.4 3.7 1.4 5 0z"/>
			<path class="s0" d="m378.8 568.2h59.6v-9.7h-59.6v-31.8l-9.7 4.7v36.8c0 11.5-9.4 20.9-20.8 20.9h-4.9l4.9 9.7c16.8 0 30.5-13.6 30.5-30.6z"/>
			<path class="s0" d="m479.3 492.9c1.5 1.3 3.7 1.3 5 0l4.2-4.2c1.3-1.3 1.3-3.5 0-5l-4.2-4c-1.3-1.5-3.5-1.5-5 0l-4 4c-1.5 1.5-1.5 3.7 0 5z"/>
			<path class="s0" d="m464 514.7c1.3 1.3 3.7 1.3 5 0l4.2-4.2c1.3-1.3 1.3-3.5 0-5l-4.2-4c-1.3-1.5-3.8-1.5-5 0l-4.2 4c-1.3 1.5-1.3 3.7 0 5z"/>
			<path class="s0" d="m494.7 514.7c1.4 1.3 3.7 1.3 5.1 0l4.1-4.2c1.4-1.3 1.4-3.5 0-5l-4.1-4c-1.4-1.5-3.7-1.5-5.1 0l-4.1 4c-1.4 1.5-1.4 3.7 0 5z"/>
			<path fill-rule="evenodd" class="s0" d="m513.9 563.4v-41.6l-9.7 4.7v32h-65.8v9.7h70.6l4.9-4.8z"/>
			<path fill-rule="evenodd" class="s0" d="m513.9 558.5h59.6v9.7h-59.6z"/>
			<path fill-rule="evenodd" class="s0" d="m602 558.5h-28.5v9.7h33.3l4.8-4.8v-81.3l-9.6 6.3v70.1z"/>
			<path fill-rule="evenodd" class="s0" d="m627.8 568.2l9.7-4.7v-81.4l-9.7 4.7v81.4z"/>
			<path fill-rule="evenodd" class="s0" d="m878.2 483.9l4.1-4.1c1.4-1.4 3.7-1.4 5.1 0l4.1 4.1c1.4 1.4 1.4 3.7 0 5.1l-4.1 4.1c-1.4 1.4-3.7 1.4-5.1 0l-4.1-4.1c-1.4-1.4-1.4-3.7 0-5.1z"/>
			<path class="s0" d="m804.7 563.2l-4.8-4.9h-27.7v-6.4c0-9.6 8.6-17.2 19.4-17.2h5c10.7 0 19.4 7.8 19.4 17.2v16.3h91.2l4.8-4.9v-22.6c0-15-12.3-27.3-27.5-27.3-15.1 0-27.3 12.3-27.3 27.3 0 6.8 2.5 13 6.5 17.8h-38v-6.6c0-7.3-3-14.1-8.7-19.1-5.5-5-12.8-7.8-20.4-7.8h-5c-7.7 0-15 2.8-20.5 7.6-5.5 5.2-8.5 12-8.5 19.3v11.1l5.9 5h25.9c-2.3 9.2-10.5 16-20.2 16h-35.2c-16.7 0-30.4-12.6-30.4-28.1v-4.8h-9.7v4.8c0 10.2 4.2 19.7 11.9 26.8 7.5 7.1 17.5 11 28.2 11h35.2c16.8 0 30.5-13.7 30.5-30.5zm79.8-40.1c9.9 0 17.8 7.9 17.8 17.6v17.8h-17.8c-9.7 0-17.6-7.9-17.6-17.8 0-9.8 7.9-17.6 17.6-17.6z"/>
			<path class="s0" d="m999.1 462l4.1-4.1c1.4-1.4 3.7-1.4 5.1 0l4.1 4.1c1.4 1.4 1.4 3.7 0 5.1l-4.1 4.1c-1.4 1.4-3.7 1.4-5.1 0l-4.1-4.1c-1.4-1.4-1.4-3.7 0-5.1z"/>
			<path fill-rule="evenodd" class="s0" d="m983.8 483.8l4-4.1c1.4-1.4 3.7-1.4 5.2 0l4 4.1c1.4 1.4 1.4 3.7 0 5.1l-4 4.1c-1.5 1.4-3.8 1.4-5.2 0l-4-4.1c-1.5-1.4-1.5-3.7 0-5.1z"/>
			<path class="s0" d="m1018.5 492.9c1.4 1.5 3.7 1.5 5.2 0l4-4c1.5-1.5 1.5-3.8 0-5.2l-4-4c-1.5-1.5-3.8-1.5-5.2 0l-4 4c-1.3 1.5-1.3 3.7 0 5.2z"/>
			<path class="s0" d="m1077.1 514.7c1.3 1.3 3.8 1.3 5.1 0l4.2-4.2c1.2-1.3 1.2-3.5 0-5l-4.2-4c-1.3-1.5-3.8-1.5-5.1 0l-4.2 4c-1.2 1.5-1.2 3.7 0 5z"/>
			<path class="s0" d="m1107.8 514.7c1.5 1.3 3.8 1.3 5.2 0l4-4.2c1.5-1.3 1.5-3.5 0-5l-4-4c-1.4-1.5-3.7-1.5-5.2 0l-4 4c-1.5 1.5-1.5 3.7 0 5z"/>
			<path class="s0" d="m1006.5 560.6c3.8 4.7 9.6 7.6 16.2 7.6h11.9c7 0 13.2-3.4 17-8.6v8.6h70.6l4.9-4.8v-41.6l-9.7 4.7v32h-65c2-3.2 3.3-7.1 3.3-11.3l-0.2-1.3-8.6-30.7-9.3 2.6 8.4 30.1c-0.3 5.9-5.4 10.6-11.3 10.6h-12c-6.3 0-11.3-5-11.3-11.3v-24.1l-9.7 4.7v19.4c0 6.3-5.2 11.3-11.3 11.3h-13.3c-6.1 0-11.3-5-11.3-11.3v-20.7l-9.7 4.7v16c0 6.3-5 11.3-11.3 11.3h-32.8v9.7h32.8c6.5 0 12.3-2.9 16.2-7.6 3.9 4.7 9.7 7.6 16.2 7.6h13.2c6.5 0 12.3-2.9 16.2-7.6z"/>
			<path class="s0" d="m1221.6 560.6c3.7 4.7 9.5 7.6 16.2 7.6h11.9c7 0 13.2-3.4 17-8.6v8.6h47.3l3.1-3.1 6.5 3.3c8.4 4 11.3 4.5 13 4.5 15.1 0 27.3-12.3 27.3-27.5 0-15.2-12.2-27.3-27.3-27.3h-22.6l-4.8 4.9v35.5h-41.8c2.1-3.3 3.3-7.1 3.3-11.3l-0.1-1.3-8.6-30.7-9.4 2.6 8.4 30c-0.3 6-5.3 10.7-11.3 10.7h-11.9c-6.3 0-11.3-5-11.3-11.3v-24.1l-9.7 4.7v19.4c0 6.3-5.2 11.3-11.3 11.3h-13.3c-6.1 0-11.3-5-11.3-11.3v-20.7l-9.7 4.7v16c0 6.3-5 11.3-11.3 11.3h-32.8v9.7h32.8c6.5 0 12.3-2.9 16.2-7.6 3.8 4.7 9.6 7.6 16.1 7.6h13.3c6.4 0 12.2-2.9 16.1-7.6zm97.3-32.8h17.8c9.7 0 17.6 7.9 17.6 17.6 0 9.7-7.9 17.8-17.6 17.8-2-0.2-9.9-3.9-17.8-8.1 0 0 0-27.3 0-27.3z"/>
		</g>
	</g>
</svg>