<svg version="1.2" xmlns="http://www.w3.org/2000/svg" viewBox="0 0 144 82" width="144" height="82">
	<title>51</title>
	<style>
		.s0 { fill: #10426c } 
		.s1 { fill: #42c1c5 } 
	</style>
	<g id="Layer_1-2">
		<g>
			<g>
				<path class="s0" d="m17.7 73.2c-1.4 0-2.2 1.2-2.2 2.3v0.5c0 0.3-0.2 0.5-0.6 0.5h-1-1.5q0.2-0.3 0.2-0.8c0-1.5-1.5-2.3-2.6-2.3-0.7 0-1.8 0.3-2.5 1.2v-0.8h-1.2v2.7h-1.8c-0.6 0-0.9-0.3-0.9-0.8v-1.9h-1.3v3.3c0 0.9-0.8 1.2-1.2 1.2-0.6 0-1.1-0.2-1.1-0.2l0.2 1.1c0 0 0.5 0.2 1.1 0.3 1 0 2.1-0.6 2.3-2 0.2 0.2 0.5 0.3 1 0.3h10.4c0.6 0 1-0.3 1.1-0.5 0.4 0.3 0.9 0.6 1.6 0.6 1.5 0 2.3-1.3 2.3-2.4 0-1.1-0.8-2.3-2.3-2.3zm-7.5 3.3h-2.7c0.2-0.8 1.1-2 2.5-1.9 0.4 0.1 1.2 0.3 1.2 1.1 0 0.5-0.4 0.8-1 0.8zm7.5 0.3c-0.7 0-0.9-0.6-0.9-1.3 0-0.6 0.2-1.3 0.9-1.3 0.7 0 1 0.6 1 1.3 0 0.8-0.3 1.3-1 1.3z"/>
				<path fill-rule="evenodd" class="s0" d="m36.6 71.2h1.3v1.1h-1.3z"/>
				<path class="s0" d="m35 74.7c0 0.8 0.7 1.3 1.4 1.3q0.7 0 1.2-0.5v0.5c0 0.3-0.2 0.5-0.6 0.5h-3.2c-0.4 0-0.6-0.2-0.6-0.5v-2.5h-3.3c-1.8 0-2 1.9-1 2.6 0.9 0.6 1.4 0.8 1.4 1.3 0 0.6-0.5 0.8-1 0.8h-2.9c-1.4 0-1.5-1.3-1-1.9l-1-0.7c-1 1.5-0.3 3.9 2.1 3.9h2.8c1.1 0 2.3-0.7 2.3-2.1 0-1.1-0.9-1.5-1.8-2.1-0.5-0.2-0.4-0.6 0-0.6h2.1v1.2c0 0.6 0.2 1.9 1.8 1.9h3.4c1.7 0 1.8-1.3 1.8-1.9v-2.8c-2.1 0-3.9-0.1-3.9 1.6zm1.9 0.4c-0.4 0-0.7-0.2-0.7-0.6 0-0.7 0.9-0.7 1.4-0.6 0 0.5 0 1.3-0.7 1.2z"/>
				<path fill-rule="evenodd" class="s0" d="m45.2 80h1.3v1.1h-1.3z"/>
				<path fill-rule="evenodd" class="s0" d="m47.1 80h1.3v1.1h-1.3z"/>
				<path class="s0" d="m55.1 76c0 0.3-0.2 0.5-0.5 0.5h-1.9c-0.4 0-0.6-0.2-0.6-0.5v-2.5h-3.4c-1.7 0-2 1.9-0.9 2.6 0.9 0.6 1.4 0.8 1.4 1.3 0 0.6-0.5 0.8-1.1 0.8h-2.8c-1.4 0-1.5-1.3-1-1.9l-1-0.7c-1 1.5-0.3 3.9 2.1 3.9h2.8c1 0 2.3-0.7 2.3-2.1 0-1.1-0.9-1.5-1.9-2.1-0.4-0.2-0.3-0.6 0.1-0.6h2.1v1.2c0 0.6 0.1 1.9 1.8 1.9h2.1c1.6 0 1.7-1.3 1.7-1.9v-4.3h-1.3v4.4z"/>
				<path fill-rule="evenodd" class="s0" d="m59.4 71.9h1.3v1.1h-1.3z"/>
				<path fill-rule="evenodd" class="s0" d="m63.9 71.6h1.3v1.1h-1.3z"/>
				<path class="s0" d="m70.6 73.2c-1.5 0-2.3 1.2-2.3 2.3v0.5c0 0.3-0.2 0.5-0.5 0.5h-1.7c-0.6 0-0.9-0.3-0.9-0.9v-1.8h-1.3v2c0 0.5-0.3 0.7-0.8 0.7h-1.5c-0.6 0-0.9-0.3-0.9-0.8v-1.8h-1.3v3.3c0 0.9-0.8 1.2-1.2 1.2-0.6 0-1.1-0.3-1.1-0.3l0.2 1.1c0 0 0.4 0.2 1 0.3 1.1 0.1 2.2-0.6 2.3-2 0.3 0.2 0.6 0.3 1.1 0.3h1.8c0.6 0 1.1-0.2 1.3-0.6 0.3 0.3 0.7 0.6 1.4 0.6h1.6c0.6 0 1-0.3 1.2-0.5 0.3 0.3 0.8 0.6 1.6 0.6 1.4 0 2.2-1.3 2.2-2.4 0-1.1-0.8-2.3-2.2-2.3zm0 3.6c-0.7 0-1-0.6-1-1.3 0-0.6 0.3-1.2 1-1.2 0.6 0 0.9 0.5 0.9 1.2 0 0.8-0.2 1.3-0.9 1.3z"/>
				<path fill-rule="evenodd" class="s0" d="m89.5 71.2h1.4v1.1h-1.4z"/>
				<path fill-rule="evenodd" class="s0" d="m96.6 71.6h1.3v1.1h-1.3z"/>
				<path fill-rule="evenodd" class="s0" d="m97.5 70.1h1.3v1h-1.3z"/>
				<path fill-rule="evenodd" class="s0" d="m98.5 71.6h1.3v1.1h-1.3z"/>
				<path fill-rule="evenodd" class="s0" d="m103 71.6h1.3v1.1h-1.3z"/>
				<path fill-rule="evenodd" class="s0" d="m104.8 71.6h1.4v1.1h-1.4z"/>
				<path class="s0" d="m121.7 73.2c-1.5 0-2.2 1.2-2.2 2.3v0.5c0 0.3-0.2 0.5-0.6 0.5h-1.7c-0.5 0-0.9-0.3-0.9-0.8v-2.1h-1.3v2.6c0 0.4-0.1 0.9-0.8 0.9-0.4 0-0.7-0.4-0.7-1v-2.3h-1.3v2.4c0 0.4-0.2 0.9-0.8 0.9-0.4 0-0.8-0.4-0.8-1v-2.3h-1.3v2.2c0 0.3-0.2 0.5-0.5 0.5h-1.7c-0.6 0-0.9-0.3-0.9-0.9v-1.8h-1.3v2c0 0.5-0.3 0.7-0.8 0.7h-1.5c-0.6 0-0.9-0.3-0.9-0.8v-2.1h-1.3v2.6c0 0.4-0.2 0.9-0.8 0.9-0.4 0-0.8-0.4-0.8-1v-2.3h-1.3v2.3c0 0.5-0.1 1-0.8 1-0.4 0-0.7-0.4-0.7-1v-2.3h-1.4v2.1c0 0.4-0.2 0.6-0.5 0.6h-2.3c0.2-0.3 0.4-0.7 0.4-1.2 0-1.1-0.8-2.1-2-2.1-1.3 0-2.1 1.1-2.1 2.1 0 0.5 0.2 0.9 0.5 1.2h-2c-0.4 0-0.6-0.2-0.6-0.6v-2.4h-3.4c-1.7 0-2 1.9-0.9 2.6 0.9 0.6 1.4 0.8 1.4 1.3 0 0.6-0.5 0.8-1.1 0.8h-2.8c-1.4 0-1.5-1.4-1-1.9l-1-0.7c-1 1.5-0.3 3.9 2.1 3.9h2.8c1.1 0 2.3-0.7 2.3-2.1 0-1.1-0.9-1.5-1.8-2.1-0.5-0.3-0.4-0.6 0-0.6h2.1v1.2c0 0.5 0.2 1.9 1.8 1.9h2.7c0.3 0 0.7 0 1-0.2q0.5 0.2 0.9 0.2h3.1c0.8 0 1.2-0.3 1.5-0.7 0.4 0.8 0.9 0.9 1.6 0.9 0.4 0 1.2-0.3 1.3-0.8 0.4 0.6 0.9 0.8 1.5 0.8 0.7 0 1-0.3 1.3-0.7 0.2 0.3 0.6 0.5 1.2 0.5h1.8c0.6 0 1.1-0.2 1.3-0.6 0.3 0.3 0.7 0.6 1.4 0.6h1.8c0.8 0 1.2-0.3 1.4-0.7 0.4 0.8 1 0.9 1.6 0.9 0.5 0 1.2-0.3 1.4-0.8 0.4 0.6 0.8 0.8 1.5 0.8 0.6 0 1-0.3 1.2-0.7 0.3 0.3 0.7 0.5 1.3 0.5h1.6c0.6 0 1-0.3 1.2-0.5 0.3 0.3 0.8 0.6 1.6 0.6 1.4 0 2.2-1.3 2.2-2.4 0-1.1-0.8-2.3-2.2-2.3zm-31.5 3.1c0 0-0.8-0.3-0.8-1 0-0.4 0.2-0.9 0.8-0.9 0.5 0 0.7 0.5 0.7 0.9 0 0.6-0.7 1-0.7 1zm31.5 0.5c-0.7 0-1-0.6-1-1.3 0-0.6 0.3-1.3 1-1.3 0.6 0 0.9 0.6 0.9 1.3 0 0.8-0.2 1.3-0.9 1.3z"/>
				<path class="s0" d="m132.9 76.2c0 1.2-0.9 2-1.9 2-0.9 0-1.8-0.9-1.8-2 0-0.8 0.3-1.4 0.3-1.4h-1.3c-0.2 0.5-0.2 0.8-0.2 1.4 0 1.9 1.3 3.3 3 3.3 1.7 0 3.2-1.3 3.2-3.2v-4.7h-1.3c0 0 0 4.6 0 4.6z"/>
				<path class="s0" d="m135.6 75.6c0 1.3 1 2.2 2.3 2.2h0.7c-0.2 0.5-0.9 0.5-1.1 0.5h-0.1c-0.3 0-0.6 0-0.8-0.1l0.3 1.2c0.2 0 0.6 0.1 0.8 0.1 1 0 2.2-0.5 2.2-2v-3.9h-2c-1.4 0-2.3 0.8-2.3 2zm3 0.9h-0.8c-0.6 0-0.9-0.4-0.9-0.9 0-0.4 0.3-0.9 0.9-0.9h0.8z"/>
				<path fill-rule="evenodd" class="s0" d="m141.5 71.6h1.3v6.2h-1.3z"/>
				<path class="s0" d="m142.7 70.5c0 0.1-0.2 0.1-0.2 0.1h-0.4v-0.2c0-0.2 0-0.3 0.2-0.3 0 0 0.1 0 0.1 0.2h0.5q-0.1-0.7-0.6-0.7c-0.5 0-0.7 0.4-0.7 0.8v0.2h-0.2l-0.2 0.5h1.3c0.2 0 0.4-0.1 0.5-0.4l-0.3-0.2z"/>
			</g>
			<g>
				<path class="s0" d="m0.7 53.1c0-6.1 4.8-10.9 10.9-10.9 2.9 0 5.4 1 7.2 2.6l-1.4 1.9c-1.5-1.3-3.5-2.1-5.8-2.1-4.6 0-8.4 3.7-8.4 8.6 0 4.8 3.8 8.5 8.4 8.5 2.2 0 4.1-0.8 5.8-2.2l1.4 1.9c-1.8 1.6-4.3 2.7-7.2 2.7-6.1 0-10.9-4.8-10.9-11z"/>
				<path class="s0" d="m37.5 63.8l-1.9-4.9h-10.4l-1.9 4.9h-2.6l8.6-21.3h2.3l8.5 21.3h-2.6zm-11.4-7.3h8.6l-4.2-10.7-0.1-0.3-0.1 0.3z"/>
				<path class="s0" d="m57.7 63.8h-2.8l-3.6-7.7q-0.7 0.1-1.4 0.1h-5.2v7.6h-2.5v-21.3h8.3c4.3 0 7.1 2.7 7.1 6.9 0 3-1.5 5.1-3.8 6.1l3.9 8.3zm-13-10h5.6c2.9 0 4.8-1.7 4.8-4.4 0-2.8-1.9-4.5-4.8-4.5h-5.6z"/>
				<path class="s0" d="m60.1 63.8v-21.3h14.9v2.4h-12.4v6.8h10.1v2.4h-10.1v7.3h12.6v2.4c0 0-15.1 0-15.1 0z"/>
				<path class="s1" d="m84.7 63.8v-21.3h6.1v7.1h6.5v-7.1h6.1v21.3h-6.1v-8.3h-6.5v8.3z"/>
				<path class="s1" d="m105.7 55.6v-13.1h6.1v12.2c0 2.2 1.1 3.8 3 3.8 1.9 0 3.1-1.6 3.1-3.8v-12.2h6.1v13.1c0 4.9-3.4 8.6-9.2 8.6-5.9 0-9.2-3.7-9.1-8.6z"/>
				<path class="s1" d="m126.3 63.8v-21.3h8.6c4.5 0 7.4 2.1 7.4 5.9 0 1.7-1 3.4-2.2 3.9 1.8 0.8 3.1 2.9 3.1 5.1 0 4.5-3.5 6.4-7.4 6.4zm6.1-13.4h2.1c1.1 0 1.7-0.6 1.7-1.4 0-0.8-0.6-1.3-1.5-1.3h-2.3v2.7zm0 8.2h3c1.1 0 1.7-0.7 1.7-1.8 0-0.9-0.7-1.7-1.9-1.7h-2.8z"/>
			</g>
			<path class="s1" d="m72.8 0c-11.1 0-20 9-20 20.1 0 4.6 1.8 8.8 4.9 11.9 3 3 7.2 4.9 11.9 4.9h20.1v-20.1c0-9.3-7.6-16.8-16.9-16.8zm14.8 34.9h-17.8c-8.3 0-15-6.7-15-15 0-4.9 2-9.4 5.2-12.6 3.2-3.2 7.7-5.2 12.6-5.2 4.2 0 7.9 1.6 10.6 4.3 2.7 2.8 4.4 6.5 4.4 10.6z"/>
			<path class="s0" d="m75.6 18.4c0 2.5-2 4.5-4.4 4.5-2.5 0-4.4-2-4.4-4.4 0-2.5 1.9-4.5 4.4-4.5 2.4 0 4.4 2 4.4 4.5z"/>
		</g>
	</g>
</svg>