<svg version="1.2" xmlns="http://www.w3.org/2000/svg" viewBox="0 0 61 61" width="61" height="61">
	<title>44</title>
	<defs>
		<clipPath clipPathUnits="userSpaceOnUse" id="cp1">
			<path d="m28.27 2.46c0.14 0.89 0.87 1.62 1.76 1.76 1.43 0.22 2.65-1 2.43-2.43-0.14-0.89-0.87-1.62-1.76-1.76q-0.18-0.04-0.34-0.03c-1.28 0-2.3 1.14-2.09 2.46z"/>
		</clipPath>
		<clipPath clipPathUnits="userSpaceOnUse" id="cp2">
			<path d="m28.27 36.26c0.14 0.89 0.87 1.62 1.76 1.76 1.43 0.22 2.65-1 2.43-2.43-0.14-0.89-0.87-1.62-1.76-1.76q-0.17-0.03-0.33-0.03c-1.28 0-2.3 1.14-2.09 2.46"/>
		</clipPath>
		<clipPath clipPathUnits="userSpaceOnUse" id="cp3">
			<path d="m42.93 27.73c0.14 0.89 0.87 1.62 1.76 1.76 1.43 0.22 2.65-1 2.43-2.43-0.14-0.89-0.87-1.62-1.76-1.76q-0.17-0.03-0.34-0.03c-1.28 0-2.3 1.14-2.09 2.46z"/>
		</clipPath>
		<clipPath clipPathUnits="userSpaceOnUse" id="cp4">
			<path d="m13.61 27.73c0.14 0.89 0.87 1.62 1.76 1.76 1.43 0.22 2.65-1 2.43-2.43-0.14-0.89-0.87-1.62-1.76-1.76q-0.17-0.03-0.34-0.03c-1.28 0-2.3 1.14-2.09 2.46z"/>
		</clipPath>
		<clipPath clipPathUnits="userSpaceOnUse" id="cp5">
			<path d="m42.93 10.98c0.14 0.89 0.87 1.62 1.76 1.76 1.43 0.22 2.65-1 2.43-2.43-0.14-0.89-0.87-1.62-1.76-1.76q-0.16-0.03-0.33-0.03c-1.28 0-2.3 1.14-2.1 2.46z"/>
		</clipPath>
		<clipPath clipPathUnits="userSpaceOnUse" id="cp6">
			<path d="m32.8 3.08q-0.16 0.41-0.45 0.74c-0.5 0.58-1.22 0.91-1.99 0.91q-0.21 0-0.41-0.03c-0.92-0.14-1.69-0.78-2.03-1.63q-0.49-0.11-1-0.11c-1.21 0-2.35 0.47-3.2 1.32q-0.49 0.49-0.8 1.08 0.86 0.14 1.61 0.54 0.16-0.24 0.37-0.45c0.54-0.54 1.26-0.83 2.03-0.83 0.77 0 1.49 0.3 2.03 0.83l1.4 1.41 1.41-1.41c0.54-0.54 1.26-0.83 2.03-0.83 0.77 0 1.49 0.3 2.03 0.83 0.68 0.68 0.95 1.63 0.8 2.52v0.02q-0.03 0.18-0.09 0.36l-0.92 3.73 1.39-1.39c1.76-1.77 1.76-4.64 0-6.41-0.85-0.85-1.99-1.32-3.2-1.32q-0.51 0-0.99 0.11"/>
		</clipPath>
		<clipPath clipPathUnits="userSpaceOnUse" id="cp7">
			<path d="m34.19 9.17l-0.46 1.74-1.37 5.13-0.59 2.2 1.98 0.53 3.22-0.86-3.16-0.84 0.71-2.8 1.59-6.27c0.1-0.45 0.06-0.93-0.11-1.36-0.85 0.59-1.51 1.47-1.8 2.55"/>
		</clipPath>
		<clipPath clipPathUnits="userSpaceOnUse" id="cp8">
			<path d="m38.52 5.81q0.29 0.81 0.29 1.67 0.24 0.02 0.5 0.08c0.74 0.2 1.35 0.67 1.74 1.34 0.39 0.67 0.49 1.44 0.29 2.17l-0.51 1.92 1.92 0.51c0.74 0.2 1.35 0.67 1.74 1.34 0.38 0.67 0.49 1.44 0.29 2.17-0.2 0.73-0.67 1.35-1.34 1.74q-0.41 0.24-0.86 0.33l-3.75 1.03 2.01 0.54q0.59 0.15 1.17 0.15 1.2-0.01 2.26-0.61c1.05-0.61 1.8-1.58 2.11-2.75 0.41-1.54-0.03-3.1-1.02-4.2q-0.16 0.02-0.34 0.02-0.21 0-0.41-0.03c-1.11-0.17-2.01-1.07-2.18-2.18-0.11-0.7 0.07-1.4 0.48-1.96q-0.15-0.53-0.43-1.02c-0.61-1.05-1.58-1.8-2.75-2.11q-0.59-0.15-1.16-0.15h-0.06"/>
		</clipPath>
		<clipPath clipPathUnits="userSpaceOnUse" id="cp9">
			<path d="m40.84 17.39l-1.93 0.52-7.13 1.9 0.58 2.19 2.35 2.35-0.9-3.36 8.79-2.41q0.3-0.08 0.59-0.24 0.45-0.26 0.73-0.66-0.92-0.44-1.92-0.44-0.59 0-1.16 0.15z"/>
		</clipPath>
		<clipPath clipPathUnits="userSpaceOnUse" id="cp10">
			<path d="m44.61 20.57q0.1 0.22 0.16 0.45c0.2 0.74 0.09 1.51-0.29 2.17-0.38 0.67-1 1.14-1.74 1.34l-1.92 0.51 0.51 1.92c0.2 0.73 0.09 1.5-0.29 2.17-0.38 0.67-1 1.14-1.74 1.34-1.03 0.27-2.08-0.05-2.78-0.76l-2.85-2.75 0.51 1.91c0.54 2.02 2.38 3.36 4.38 3.36q0.58 0 1.16-0.15c1.17-0.31 2.14-1.06 2.75-2.11q0.28-0.49 0.43-1.02-0.38-0.5-0.48-1.14c-0.12-0.76 0.1-1.54 0.6-2.12 0.5-0.58 1.22-0.91 1.99-0.91q0.16 0 0.33 0.03c1-1.1 1.43-2.67 1.02-4.21q-0.17-0.6-0.48-1.14-0.54 0.66-1.29 1.11"/>
		</clipPath>
		<clipPath clipPathUnits="userSpaceOnUse" id="cp11">
			<path d="m28.81 22.26l-0.86 3.21 2.41-2.41 6.61 6.4c0.36 0.32 0.82 0.54 1.32 0.6-0.11-1.03-0.56-1.97-1.3-2.71l-1.34-1.34-5.3-5.3-1.55 1.55z"/>
		</clipPath>
		<clipPath clipPathUnits="userSpaceOnUse" id="cp12">
			<path d="m23.73 27.35c-1.76 1.76-1.76 4.64 0 6.4 0.85 0.85 1.99 1.32 3.2 1.32q0.51 0 0.99-0.11 0.16-0.41 0.45-0.74c0.5-0.58 1.22-0.91 1.99-0.91q0.2 0 0.41 0.03c0.92 0.14 1.69 0.78 2.03 1.62q0.49 0.11 1 0.12c1.16 0 2.32-0.44 3.2-1.32q0.48-0.49 0.8-1.08-0.86-0.14-1.61-0.54-0.16 0.24-0.36 0.45c-1.12 1.12-2.94 1.12-4.05 0l-1.4-1.41-1.41 1.41c-0.54 0.54-1.25 0.83-2.02 0.83-0.77 0-1.49-0.3-2.03-0.83-0.71-0.71-0.97-1.71-0.77-2.63l0.05-0.21 0.97-3.8-1.42 1.42z"/>
		</clipPath>
		<clipPath clipPathUnits="userSpaceOnUse" id="cp13">
			<path d="m23.76 20.14l3.16 0.84-2.29 9.01c-0.11 0.47-0.08 0.97 0.1 1.43 0.85-0.59 1.51-1.47 1.8-2.55l2.42-9.06-1.98-0.53c0 0-3.22 0.86-3.21 0.86z"/>
		</clipPath>
		<clipPath clipPathUnits="userSpaceOnUse" id="cp14">
			<path d="m16.46 17.85c-1.05 0.61-1.8 1.58-2.11 2.74-0.31 1.17-0.15 2.38 0.46 3.44q0.24 0.42 0.56 0.77 0.16-0.02 0.34-0.02 0.21 0 0.41 0.03c1.11 0.17 2.01 1.07 2.18 2.18 0.11 0.7-0.07 1.4-0.48 1.96q0.15 0.53 0.43 1.02c0.61 1.05 1.59 1.8 2.75 2.11q0.58 0.15 1.17 0.15h0.05q-0.29-0.81-0.29-1.67-0.24-0.01-0.5-0.09c-0.74-0.2-1.35-0.67-1.74-1.34-0.38-0.67-0.49-1.44-0.29-2.17l0.52-1.92-1.92-0.51c-0.74-0.2-1.35-0.67-1.74-1.34-0.38-0.66-0.49-1.44-0.29-2.17 0.2-0.74 0.67-1.35 1.34-1.74q0.33-0.2 0.71-0.29l3.9-1.07-2-0.53q-0.58-0.15-1.17-0.15-1.2 0-2.26 0.61"/>
		</clipPath>
		<clipPath clipPathUnits="userSpaceOnUse" id="cp15">
			<path d="m20.99 5.96c-1.16 0.31-2.14 1.06-2.75 2.11q-0.28 0.49-0.43 1.02 0.38 0.5 0.48 1.14c0.12 0.76-0.1 1.54-0.6 2.12-0.5 0.58-1.22 0.91-1.99 0.91q-0.16 0-0.34-0.03-0.32 0.36-0.56 0.77c-0.61 1.05-0.77 2.27-0.46 3.43q0.16 0.62 0.48 1.14 0.54-0.66 1.29-1.12-0.1-0.22-0.17-0.45c-0.2-0.74-0.09-1.51 0.29-2.17 0.38-0.67 1-1.14 1.74-1.34l1.92-0.51-0.51-1.92c-0.2-0.73-0.09-1.5 0.29-2.17 0.39-0.67 1-1.14 1.74-1.34q0.37-0.1 0.74-0.1c0.8 0 1.55 0.34 2.09 0.9l2.8 2.71-0.51-1.91c-0.54-2.02-2.38-3.36-4.38-3.36q-0.58 0-1.17 0.15"/>
		</clipPath>
		<clipPath clipPathUnits="userSpaceOnUse" id="cp16">
			<path d="m26.92 17.06l-3.12 0.86-5.67 1.56q-0.01 0-0.03 0h-0.04v0.01q-0.27 0.08-0.52 0.22-0.44 0.26-0.73 0.66 0.92 0.43 1.92 0.43 0.59 0 1.17-0.15l1.93-0.52 5.15-1.38 1.98-0.53-0.58-2.19-2.35-2.35 0.9 3.36z"/>
		</clipPath>
		<clipPath clipPathUnits="userSpaceOnUse" id="cp17">
			<path d="m23.73 10.7l1.34 1.34 3.75 3.75 1.54 1.54 1.55-1.55 0.86-3.2-2.41 2.41-2.37-2.3-4.17-4.03c-0.37-0.36-0.85-0.6-1.39-0.67 0.11 1.03 0.56 1.97 1.29 2.71"/>
		</clipPath>
		<clipPath clipPathUnits="userSpaceOnUse" id="cp18">
			<path d="m13.61 10.98c0.14 0.89 0.87 1.62 1.76 1.76 1.43 0.22 2.65-1 2.43-2.43-0.14-0.89-0.87-1.62-1.76-1.76q-0.16-0.03-0.34-0.03c-1.28 0-2.3 1.14-2.09 2.46z"/>
		</clipPath>
	</defs>
	<style>
		.s0 { fill: #32495e } 
	</style>
	<g id="Layer_1-2">
		<g>
			<g>
				<g>
					<path class="s0" d="m28.3 2.5c0.1 0.9 0.8 1.6 1.7 1.7 1.5 0.2 2.7-1 2.5-2.4-0.2-0.9-0.9-1.6-1.8-1.8q-0.2 0-0.3 0c-1.3 0-2.3 1.1-2.1 2.5z"/>
					<g id="Clip-Path" clip-path="url(#cp1)">
						<g>
							<path fill-rule="evenodd" class="s0" d="m25.9 2.4l4.3-4.7 4.7 4.3-4.3 4.7z"/>
						</g>
					</g>
				</g>
				<g>
					<path class="s0" d="m28.3 36.3c0.1 0.9 0.8 1.6 1.7 1.7 1.5 0.2 2.7-1 2.5-2.4-0.2-0.9-0.9-1.6-1.8-1.8q-0.2 0-0.3 0c-1.3 0-2.3 1.1-2.1 2.5"/>
					<g id="Clip-Path" clip-path="url(#cp2)">
						<g>
							<path fill-rule="evenodd" class="s0" d="m25.9 36.2l4.3-4.7 4.7 4.3-4.3 4.7z"/>
						</g>
					</g>
				</g>
				<g>
					<path class="s0" d="m42.9 27.7c0.2 0.9 0.9 1.7 1.8 1.8 1.4 0.2 2.6-1 2.4-2.4-0.1-0.9-0.8-1.7-1.7-1.8q-0.2 0-0.4 0c-1.3 0-2.3 1.1-2.1 2.4z"/>
					<g id="Clip-Path" clip-path="url(#cp3)">
						<g>
							<path fill-rule="evenodd" class="s0" d="m40.5 27.7l4.4-4.7 4.7 4.3-4.4 4.7z"/>
						</g>
					</g>
				</g>
				<g>
					<path class="s0" d="m13.6 27.7c0.2 0.9 0.9 1.7 1.8 1.8 1.4 0.2 2.6-1 2.4-2.4-0.1-0.9-0.9-1.7-1.8-1.8q-0.1 0-0.3 0c-1.3 0-2.3 1.1-2.1 2.4z"/>
					<g id="Clip-Path" clip-path="url(#cp4)">
						<g>
							<path fill-rule="evenodd" class="s0" d="m11.2 27.7l4.3-4.7 4.7 4.3-4.3 4.7z"/>
						</g>
					</g>
				</g>
				<g>
					<path class="s0" d="m42.9 11c0.2 0.9 0.9 1.6 1.8 1.7 1.4 0.3 2.6-1 2.4-2.4-0.1-0.9-0.8-1.6-1.7-1.7q-0.2-0.1-0.4-0.1c-1.2 0-2.3 1.2-2.1 2.5z"/>
					<g id="Clip-Path" clip-path="url(#cp5)">
						<g>
							<path fill-rule="evenodd" class="s0" d="m40.5 10.9l4.4-4.7 4.7 4.4-4.4 4.7z"/>
						</g>
					</g>
				</g>
				<g>
					<path class="s0" d="m32.8 3.1q-0.2 0.4-0.5 0.7c-0.5 0.6-1.2 0.9-1.9 0.9q-0.2 0-0.5 0c-0.9-0.1-1.6-0.8-2-1.6q-0.5-0.1-1-0.1c-1.2 0-2.3 0.4-3.2 1.3q-0.5 0.5-0.8 1.1 0.9 0.1 1.6 0.5 0.2-0.2 0.4-0.4c0.5-0.6 1.3-0.9 2-0.9 0.8 0 1.5 0.3 2.1 0.9l1.4 1.4 1.4-1.4c0.5-0.6 1.2-0.9 2-0.9 0.8 0 1.5 0.3 2 0.9 0.7 0.6 1 1.6 0.8 2.5q0 0.2-0.1 0.3l-0.9 3.8 1.4-1.4c1.8-1.8 1.8-4.7 0-6.4-0.8-0.9-2-1.3-3.2-1.3q-0.5 0-1 0.1"/>
					<g id="Clip-Path" clip-path="url(#cp6)">
						<g>
							<path fill-rule="evenodd" class="s0" d="m18.4 7.9l11.8-12.8 13.1 12.1-11.8 12.8z"/>
						</g>
					</g>
				</g>
				<g>
					<path class="s0" d="m34.2 9.2l-0.5 1.7-1.3 5.1-0.6 2.2 1.9 0.6 3.3-0.9-3.2-0.8 0.7-2.8 1.6-6.3c0.1-0.4 0.1-0.9-0.1-1.4-0.8 0.6-1.5 1.5-1.8 2.6"/>
					<g id="Clip-Path" clip-path="url(#cp7)">
						<g>
							<path fill-rule="evenodd" class="s0" d="m25.7 13.2l8.5-9.2 8.8 8.2-8.4 9.2z"/>
						</g>
					</g>
				</g>
				<g>
					<path class="s0" d="m38.5 5.8q0.3 0.8 0.3 1.7 0.3 0 0.5 0.1c0.8 0.2 1.4 0.6 1.8 1.3 0.3 0.7 0.4 1.4 0.2 2.2l-0.5 1.9 2 0.5c0.7 0.2 1.3 0.7 1.7 1.3 0.4 0.7 0.5 1.5 0.3 2.2-0.2 0.7-0.7 1.4-1.4 1.7q-0.4 0.3-0.8 0.4l-3.8 1 2 0.5q0.6 0.2 1.2 0.2 1.2 0 2.3-0.6c1-0.6 1.8-1.6 2.1-2.8 0.4-1.5 0-3.1-1-4.2q-0.2 0.1-0.4 0.1-0.2 0-0.4-0.1c-1.1-0.1-2-1-2.2-2.2-0.1-0.7 0.1-1.4 0.5-1.9q-0.1-0.5-0.4-1c-0.6-1.1-1.6-1.8-2.8-2.1q-0.6-0.2-1.1-0.2h-0.1"/>
					<g id="Clip-Path" clip-path="url(#cp8)">
						<g>
							<path fill-rule="evenodd" class="s0" d="m31 13.9l11.3-12.2 12 11-11.3 12.2z"/>
						</g>
					</g>
				</g>
				<g>
					<path class="s0" d="m40.8 17.4l-1.9 0.5-7.1 1.9 0.6 2.2 2.3 2.4-0.9-3.4 8.8-2.4q0.3-0.1 0.6-0.3 0.4-0.2 0.7-0.6-0.9-0.5-1.9-0.5-0.6 0-1.2 0.2z"/>
					<g id="Clip-Path" clip-path="url(#cp9)">
						<g>
							<path fill-rule="evenodd" class="s0" d="m28.2 21.1l9.2-9.9 10.1 9.3-9.2 9.9z"/>
						</g>
					</g>
				</g>
				<g>
					<path class="s0" d="m44.6 20.6q0.1 0.2 0.2 0.4c0.2 0.8 0.1 1.5-0.3 2.2-0.4 0.7-1 1.1-1.8 1.3l-1.9 0.5 0.5 2c0.2 0.7 0.1 1.5-0.3 2.1-0.3 0.7-1 1.2-1.7 1.4-1 0.2-2.1-0.1-2.8-0.8l-2.8-2.7 0.5 1.9c0.5 2 2.4 3.3 4.4 3.3q0.5 0 1.1-0.1c1.2-0.3 2.2-1.1 2.8-2.1q0.3-0.5 0.4-1-0.4-0.6-0.5-1.2c-0.1-0.7 0.1-1.5 0.6-2.1 0.5-0.6 1.2-0.9 2-0.9q0.2 0 0.3 0c1-1.1 1.5-2.7 1.1-4.2q-0.2-0.6-0.5-1.1-0.6 0.6-1.3 1.1"/>
					<g id="Clip-Path" clip-path="url(#cp10)">
						<g>
							<path fill-rule="evenodd" class="s0" d="m27.3 26.3l12.4-13.4 13.5 12.4-12.5 13.5z"/>
						</g>
					</g>
				</g>
				<g>
					<path class="s0" d="m28.8 22.3l-0.9 3.2 2.5-2.4 6.6 6.4c0.3 0.3 0.8 0.5 1.3 0.6-0.1-1.1-0.6-2-1.3-2.8l-1.4-1.3-5.3-5.3-1.5 1.6z"/>
					<g id="Clip-Path" clip-path="url(#cp11)">
						<g>
							<path fill-rule="evenodd" class="s0" d="m23.3 25.7l9.4-10.1 10.3 9.4-9.5 10.2z"/>
						</g>
					</g>
				</g>
				<g>
					<path class="s0" d="m23.7 27.4c-1.7 1.7-1.7 4.6 0 6.4 0.9 0.8 2 1.3 3.2 1.3q0.5 0 1-0.1 0.2-0.4 0.5-0.8c0.5-0.6 1.2-0.9 2-0.9q0.2 0 0.4 0c0.9 0.2 1.7 0.8 2 1.7q0.5 0.1 1 0.1c1.2 0 2.3-0.5 3.2-1.3q0.5-0.5 0.8-1.1-0.9-0.2-1.6-0.6-0.2 0.3-0.4 0.5c-1.1 1.1-2.9 1.1-4 0l-1.4-1.4-1.4 1.4c-0.6 0.5-1.3 0.8-2.1 0.8-0.7 0-1.4-0.3-2-0.8-0.7-0.7-1-1.7-0.8-2.6l0.1-0.2 1-3.8-1.4 1.4z"/>
					<g id="Clip-Path" clip-path="url(#cp12)">
						<g>
							<path fill-rule="evenodd" class="s0" d="m17.4 30.9l11.9-12.9 13.1 12.1-11.9 12.9z"/>
						</g>
					</g>
				</g>
				<g>
					<path class="s0" d="m23.8 20.1l3.1 0.9-2.3 9c-0.1 0.5 0 1 0.1 1.4 0.9-0.6 1.5-1.4 1.8-2.5l2.5-9.1-2-0.5c0 0-3.2 0.8-3.2 0.8z"/>
					<g id="Clip-Path" clip-path="url(#cp13)">
						<g>
							<path fill-rule="evenodd" class="s0" d="m17.7 25.8l8.5-9.1 8.8 8.2-8.4 9.1z"/>
						</g>
					</g>
				</g>
				<g>
					<path class="s0" d="m16.5 17.9c-1.1 0.6-1.8 1.5-2.1 2.7-0.4 1.2-0.2 2.4 0.4 3.4q0.3 0.5 0.6 0.8 0.1 0 0.3 0 0.2 0 0.4 0c1.1 0.2 2 1.1 2.2 2.2 0.1 0.7-0.1 1.4-0.5 2q0.2 0.5 0.4 1c0.7 1 1.6 1.8 2.8 2.1q0.6 0.1 1.2 0.1-0.3-0.8-0.3-1.6-0.2-0.1-0.5-0.1c-0.7-0.2-1.3-0.7-1.7-1.4-0.4-0.6-0.5-1.4-0.3-2.1l0.5-2-1.9-0.5c-0.7-0.2-1.3-0.6-1.7-1.3-0.4-0.7-0.5-1.5-0.3-2.2 0.2-0.7 0.6-1.3 1.3-1.7q0.3-0.2 0.7-0.3l3.9-1.1-2-0.5q-0.6-0.2-1.1-0.2-1.2 0-2.3 0.6"/>
					<g id="Clip-Path" clip-path="url(#cp14)">
						<g>
							<path fill-rule="evenodd" class="s0" d="m6.6 25.3l11.2-12.1 11.9 11-11.3 12.1z"/>
						</g>
					</g>
				</g>
				<g>
					<path class="s0" d="m21 6c-1.2 0.3-2.2 1-2.8 2.1q-0.2 0.5-0.4 1 0.4 0.5 0.5 1.1c0.1 0.8-0.1 1.6-0.6 2.2-0.5 0.5-1.2 0.9-2 0.9q-0.2 0-0.3-0.1-0.4 0.4-0.6 0.8c-0.6 1.1-0.8 2.3-0.5 3.4q0.2 0.6 0.5 1.2 0.6-0.7 1.3-1.1-0.1-0.3-0.2-0.5c-0.2-0.7-0.1-1.5 0.3-2.2 0.4-0.6 1-1.1 1.8-1.3l1.9-0.5-0.5-1.9c-0.2-0.8-0.1-1.5 0.3-2.2 0.4-0.7 1-1.1 1.7-1.3q0.4-0.2 0.7-0.1c0.8 0 1.6 0.3 2.1 0.9l2.8 2.7-0.5-1.9c-0.5-2.1-2.4-3.4-4.4-3.4q-0.5 0-1.1 0.1"/>
					<g id="Clip-Path" clip-path="url(#cp15)">
						<g>
							<path fill-rule="evenodd" class="s0" d="m7.7 12.7l12.3-13.4 13.4 12.4-12.3 13.4z"/>
						</g>
					</g>
				</g>
				<g>
					<path class="s0" d="m26.9 17.1l-3.1 0.8-5.7 1.6q0 0 0 0-0.3 0.1-0.6 0.2-0.4 0.3-0.7 0.7 0.9 0.4 1.9 0.4 0.6 0 1.2-0.2l1.9-0.5 5.2-1.4 2-0.5-0.6-2.2-2.4-2.3 0.9 3.3z"/>
					<g id="Clip-Path" clip-path="url(#cp16)">
						<g>
							<path fill-rule="evenodd" class="s0" d="m13.3 17.5l9.1-9.9 10.1 9.4-9.1 9.9z"/>
						</g>
					</g>
				</g>
				<g>
					<path class="s0" d="m23.7 10.7l1.4 1.3 3.7 3.8 1.6 1.5 1.5-1.5 0.9-3.2-2.4 2.4-2.4-2.3-4.2-4c-0.4-0.4-0.8-0.6-1.4-0.7 0.1 1 0.6 2 1.3 2.7"/>
					<g id="Clip-Path" clip-path="url(#cp17)">
						<g>
							<path fill-rule="evenodd" class="s0" d="m17.8 13l9.4-10.2 10.2 9.5-9.4 10.2z"/>
						</g>
					</g>
				</g>
				<g>
					<path class="s0" d="m13.6 11c0.2 0.9 0.9 1.6 1.8 1.7 1.4 0.3 2.6-1 2.4-2.4-0.1-0.9-0.9-1.6-1.8-1.7q-0.1-0.1-0.3-0.1c-1.3 0-2.3 1.2-2.1 2.5z"/>
					<g id="Clip-Path" clip-path="url(#cp18)">
						<g>
							<path fill-rule="evenodd" class="s0" d="m11.2 10.9l4.3-4.7 4.7 4.4-4.3 4.7z"/>
						</g>
					</g>
				</g>
			</g>
			<g>
				<path class="s0" d="m38.8 44.9c0.7-1.1 1.7-1.4 2.8-1 0.9 0.3 1.7 0.5 2.6 0.8 0.1 0 0.3 0.1 0.4 0.2-0.1 0.1-0.2 0.3-0.2 0.3-5.4 3.9-11.1 6.9-17.6 8-3 0.5-6 0.6-9.1 0.1-1.4-0.2-2.6-0.8-3.7-1.8-1.1 0.8-2.3 1-3.6 1.3-2.3 0.6-4.2 2-5.6 3.9-1 1.2-2.1 2.3-3.4 3.1-0.5 0.2-0.9 0.4-1.4 0.5 2.1-1.1 3.5-2.9 4.8-4.8 0.8-1.2 1.9-2.1 3.1-2.8q0.2-0.1 0.3-0.2 0.1-0.1 0.2-0.1c-0.4-0.4-0.2-0.8 0-1.2 0.5-0.8 0.9-1.5 1.7-1.9 0.9-0.4 1.6 0 1.5 1 0 0.5-0.2 0.9-0.3 1.4 0.6 0.1 2-0.6 2.3-1.2 0.2-0.3 0.1-0.7-0.3-0.8q-0.2-0.2-0.5-0.2c-0.1 0-0.3 0-0.5 0 0.2-0.3 0.3-0.4 0.5-0.6 0.7-0.6 1.6-0.8 2.5-0.6 0.8 0.2 1 0.9 0.5 1.6-0.1 0.1-0.1 0.2-0.3 0.5 0.8 0.2 1.5 0.5 2.3 0.6 2.9 0.5 5.8 0.5 8.7 0.1 2.5-0.2 5-0.7 7.4-1.5q4.3-1.3 8.1-3.9c0.4-0.2 0.3-0.4 0.1-0.6-0.8-0.8-1.8-1-2.9-0.4q-0.2 0.1-0.4 0.2zm-28.9 6.8c0.2-0.1 0.6-0.1 0.8-0.3 0.4-0.3 0.4-0.8-0.1-0.9-0.4-0.1-0.9 0-1.3 0.1-0.2 0-0.4 0.3-0.4 0.5 0 0.2 0.3 0.4 0.4 0.5 0.1 0.1 0.3 0.1 0.6 0.1z"/>
				<path class="s0" d="m56.9 46.9c0.2 0.4 0.1 0.5-0.2 0.7q-1.7 0.8-3.3 1.8-0.3 0.2-0.6 0.5c-0.5 0.4-0.4 0.7 0.1 1q0.1 0.1 0.2 0.1c0.9 0.7 0.9 0.9 0.4 1.9-0.5 0.7-0.9 1-1.8 0.7-0.9-0.2-1.7 0.1-2.4 0.8q-0.8 0.7-1.5 1.6c-1.3 1.5-2.8 2.8-4.5 4q-0.3 0.2-0.7 0.3 0.4-0.3 0.7-0.6c1.7-1.3 3.2-3 4.5-4.8 0.6-0.8 1.3-1.5 2-2.2 0.3-0.3 0.9-0.5 1.3-0.8 0.2 0 0.3-0.2 0.4-0.3 0.5-1.5 0.5-1.5 1.5-2.6q-0.2-0.1-0.4-0.3c-0.5-0.3-0.6-0.8-0.2-1.2q0.9-1.1 1.8-2c0.3-0.3 0.8-0.4 1.1-0.1 0.1 0.1 0.2 0.3 0.2 0.4 0 0.1-0.3 0.1-0.4 0.2-0.1 0-0.2 0-0.3 0q-0.1-0.1-0.3-0.1c-0.4 0-1 0.4-1.1 0.7-0.1 0.3 0.3 0.9 0.8 0.9 0.4 0.1 1 0.1 1.4 0 0.5-0.1 0.9-0.4 1.3-0.6z"/>
				<path class="s0" d="m44.4 54.1c-0.5 0-0.9 0-1.2 0-0.6-0.1-0.8-0.4-0.7-0.9 0.1-0.9 0.6-1.6 1.2-2.3 0.3-0.3 0.8-0.2 1.2 0.1q0.6 0.7 0.5 1.6c-0.1 1-0.6 1.9-1.2 2.7-0.2 0.3-0.6 0.6-0.9 0.7-0.7 0.3-1.5 0.4-2.2 0.6l-0.1-0.1q0.4-0.3 0.8-0.5 1.1-0.7 2.1-1.3c0.2-0.2 0.3-0.4 0.5-0.6z"/>
				<path class="s0" d="m56.3 57.1q0.7-0.4 1.5-0.8c0.4-0.3 0.9-0.5 1.3-0.8 0.6-0.5 0.6-0.9 0.1-1.5-0.2-0.3-0.5-0.5-0.7-0.8-0.1-0.1-0.1-0.3 0-0.5 0.2-0.4 0.4-0.8 0.6-1.2q0.2-0.4 0.6-0.1c1 0.7 1.3 1.8 0.8 2.9q-1 2.5-3.7 2.9-0.3 0-0.5 0 0 0 0-0.1z"/>
				<path class="s0" d="m33.2 45.2c-0.3 0.4-0.6 0.6-1 0.7q-3.4 0.5-6.8 1.1-2.3 0.4-4.5 0.8-0.2 0-0.4 0c0-0.4 0.2-0.5 0.5-0.6q6-1 11.9-2 0.1 0 0.3 0z"/>
				<path class="s0" d="m49.5 47.3c0.1-0.6 0.2-1.1 0.4-1.6q0.1-0.4 0.3-0.8c0.2-0.2 0.5-0.4 0.7-0.2 0.2 0.1 0.4 0.4 0.5 0.7 0 0.3-0.2 0.4-0.5 0.3-0.4-0.3-0.6-0.2-0.8 0.2-0.2 0.6-0.3 1.3-0.5 1.9 0 0.3-0.1 0.5-0.2 0.7q-0.1 0-0.1 0-0.2-0.4-0.3-0.7c-0.2-0.4-0.4-0.8-0.6-1.2 0-0.1-0.3-0.3-0.4-0.2-0.4 0-0.7-0.2-0.7-0.5-0.1-0.2 0.1-0.5 0.2-0.7 0.1-0.1 0.4-0.2 0.5-0.1 0.7 0.2 0.9 0.9 1.1 1.5q0.2 0.3 0.3 0.7 0 0 0.1 0z"/>
				<path class="s0" d="m41.1 51.7c-0.5 0.5-1 0.9-1.4 1.2-0.1 0.1-0.3 0.1-0.4 0-0.5-0.3-0.9-0.7-1.4-1.2 0.6-0.4 1.1-0.9 1.6-1.4q0.8 0.7 1.6 1.4z"/>
				<path class="s0" d="m9 46.7c0.5-0.5 1-0.9 1.6-1.4 0.5 0.5 1 0.9 1.5 1.4-0.5 0.5-1 0.9-1.5 1.4-0.5-0.4-1-0.9-1.6-1.4z"/>
				<path class="s0" d="m53.5 55c0.5-0.5 1-0.9 1.6-1.4 0.5 0.5 1 0.9 1.5 1.4q-0.7 0.6-1.4 1.3c0 0-0.2 0-0.2-0.1q-0.8-0.6-1.5-1.2z"/>
			</g>
		</g>
	</g>
</svg>