<svg version="1.2" xmlns="http://www.w3.org/2000/svg" viewBox="0 0 115 40" width="115" height="40">
	<title>39</title>
	<defs>
		<radialGradient id="g1" cx="0" cy="0" r="1" gradientUnits="userSpaceOnUse" gradientTransform="matrix(21.21,0,0,21.21,13.03,16.66)">
			<stop offset="0" stop-color="#fbd1b1"/>
			<stop offset="1" stop-color="#cf763e"/>
		</radialGradient>
		<radialGradient id="g2" cx="0" cy="0" r="1" gradientUnits="userSpaceOnUse" gradientTransform="matrix(21.21,0,0,21.21,13.03,16.66)">
			<stop offset="0" stop-color="#fbd1b1"/>
			<stop offset="1" stop-color="#cf763e"/>
		</radialGradient>
		<radialGradient id="g3" cx="0" cy="0" r="1" gradientUnits="userSpaceOnUse" gradientTransform="matrix(21.21,0,0,21.21,13.03,16.66)">
			<stop offset="0" stop-color="#fbd1b1"/>
			<stop offset="1" stop-color="#cf763e"/>
		</radialGradient>
		<radialGradient id="g4" cx="0" cy="0" r="1" gradientUnits="userSpaceOnUse" gradientTransform="matrix(21.21,0,0,21.21,13.03,16.66)">
			<stop offset="0" stop-color="#fbd1b1"/>
			<stop offset="1" stop-color="#cf763e"/>
		</radialGradient>
		<radialGradient id="g5" cx="0" cy="0" r="1" gradientUnits="userSpaceOnUse" gradientTransform="matrix(21.22,0,0,21.22,13.03,16.66)">
			<stop offset="0" stop-color="#fbd1b1"/>
			<stop offset="1" stop-color="#cf763e"/>
		</radialGradient>
		<radialGradient id="g6" cx="0" cy="0" r="1" gradientUnits="userSpaceOnUse" gradientTransform="matrix(21.21,0,0,21.21,13.03,16.66)">
			<stop offset="0" stop-color="#fbd1b1"/>
			<stop offset="1" stop-color="#cf763e"/>
		</radialGradient>
		<radialGradient id="g7" cx="0" cy="0" r="1" gradientUnits="userSpaceOnUse" gradientTransform="matrix(49.86,0,0,49.86,55.34,-2.51)">
			<stop offset="0" stop-color="#fbd1b1"/>
			<stop offset="1" stop-color="#cf763e"/>
		</radialGradient>
		<radialGradient id="g8" cx="0" cy="0" r="1" gradientUnits="userSpaceOnUse" gradientTransform="matrix(49.86,0,0,49.86,55.34,-2.51)">
			<stop offset="0" stop-color="#fbd1b1"/>
			<stop offset="1" stop-color="#cf763e"/>
		</radialGradient>
		<radialGradient id="g9" cx="0" cy="0" r="1" gradientUnits="userSpaceOnUse" gradientTransform="matrix(49.86,0,0,49.86,55.34,-2.51)">
			<stop offset="0" stop-color="#fbd1b1"/>
			<stop offset="1" stop-color="#cf763e"/>
		</radialGradient>
		<radialGradient id="g10" cx="0" cy="0" r="1" gradientUnits="userSpaceOnUse" gradientTransform="matrix(49.86,0,0,49.86,55.34,-2.51)">
			<stop offset="0" stop-color="#fbd1b1"/>
			<stop offset="1" stop-color="#cf763e"/>
		</radialGradient>
		<radialGradient id="g11" cx="0" cy="0" r="1" gradientUnits="userSpaceOnUse" gradientTransform="matrix(49.86,0,0,49.86,55.33,-2.505)">
			<stop offset="0" stop-color="#fbd1b1"/>
			<stop offset="1" stop-color="#cf763e"/>
		</radialGradient>
		<radialGradient id="g12" cx="0" cy="0" r="1" gradientUnits="userSpaceOnUse" gradientTransform="matrix(49.45,0,0,49.45,55.34,-1.94)">
			<stop offset="0" stop-color="#fbd1b1"/>
			<stop offset="1" stop-color="#cf763e"/>
		</radialGradient>
		<radialGradient id="g13" cx="0" cy="0" r="1" gradientUnits="userSpaceOnUse" gradientTransform="matrix(49.7,0,0,49.7,55.34,-2.26)">
			<stop offset="0" stop-color="#fbd1b1"/>
			<stop offset="1" stop-color="#cf763e"/>
		</radialGradient>
	</defs>
	<style>
		.s0 { fill: url(#g1) } 
		.s1 { fill: url(#g2) } 
		.s2 { fill: url(#g3) } 
		.s3 { fill: url(#g4) } 
		.s4 { fill: url(#g5) } 
		.s5 { fill: url(#g6) } 
		.s6 { fill: url(#g7) } 
		.s7 { fill: url(#g8) } 
		.s8 { fill: url(#g9) } 
		.s9 { fill: url(#g10) } 
		.s10 { fill: url(#g11) } 
		.s11 { fill: url(#g12) } 
		.s12 { fill: url(#g13) } 
	</style>
	<g id="Layer_1-2">
		<g>
			<g>
				<path class="s0" d="m8.8 21.7c1.2 1.4 2.3 2.7 3.4 4.1 0.1 0.2 0.1 0.6 0 0.9-0.4 0.9-0.9 1.9-1.3 2.8 0 0.2-0.1 0.3-0.2 0.6 0.8 0 1.6 0 2.4 0q1-0.1 2-0.1 0.9 0 1.4 0.8c0.3 0.4 0.6 0.8 0.9 1.3-0.2 0-0.4 0-0.6 0q-2.8 0-5.7 0c-0.9 0-1.5 0.3-1.8 1.2-0.2 0.7-0.5 1.3-0.7 1.9-0.4 1.1 0.1 1.7 1.2 1.8q0.6 0 1.2 0 0.1 0.2 0.1 0.3 0 0.8 0 1.7h-11.1c0-0.3 0-0.6 0-0.9 0-0.1 0.2-0.2 0.3-0.2 1.5-0.2 2.4-1.2 3-2.5 0.9-2.1 1.7-4.2 2.5-6.3q1.4-3.4 2.7-6.7c0.1-0.2 0.2-0.4 0.3-0.7z"/>
				<g>
					<path class="s1" d="m28.7 0.2c0.4 0.1 0.8 0.2 1.1 0.3 1.8 0.7 2.6 2.2 3 4 0.6 2.3 0 4.5-0.8 6.7-0.6 1.7-1.8 3.1-3.2 4.3-0.5 0.4-0.7 0.9-0.6 1.5 0.2 1.8 0.3 3.6-0.1 5.4q-0.4 1.8-1.5 3.2c1.2-3.6 0.1-6.9-0.7-10.3q0-0.1 0.1-0.1c2.3-1.4 3.5-3.4 4-6q0.3-1.7 0.3-3.4c-0.1-2.2-1.4-3.2-3.4-2.7-1.4 0.4-2.7 1-4 1.5-1 0.4-1.9 0.9-2.9 1.4-1.3-1.9-2.8-3.5-5-4.5 0.6-0.1 1.2-0.1 1.8 0.1q1.7 0.8 3.3 1.7c0.4 0.2 0.6 0.2 1-0.1 1.7-1.5 3.6-2.5 5.8-3q0.1 0 0.1 0 0.9 0 1.7 0z"/>
					<path class="s2" d="m21.6 38.9c0.4-1.6-0.3-2.9-1.1-4.2-2.9-4.7-6.3-8.9-9.9-13.1-1.1-1.3-2.3-2.6-3-4.2-1.6-3.2-1.6-6.4 0.2-9.5 0.1-0.2 0.2-0.3 0.4-0.5 0 0.1 0 0.2 0 0.3 0.2 2 0.9 3.7 2.1 5.3 1.8 2.3 3.7 4.5 5.5 6.8q2.7 3.2 5.4 6.5 3 3.5 2.5 8.2-0.2 2.5-2.1 4.4z"/>
					<path class="s3" d="m15.8 3.5q-0.3 0-0.6 0c-0.7 0-1.4 0-2.1 0.1-1.1 0.3-1.7 1.2-1.6 2.4 0.2 1.8 0.8 3.5 1.6 5.1q1.3 2.5 2.6 5.1 0.1 0.2 0.2 0.4c-2.8-2.4-5.4-4.9-6.1-8.7-0.3-1.3-0.1-2.5 0.3-3.7 0.6-1.4 1.8-2 3.4-1.7 0.8 0.1 1.5 0.4 2.2 0.7 0.1 0 0.1 0.1 0.1 0.1q0 0.1 0 0.2z"/>
					<path class="s4" d="m20.4 11.9c0.2-0.9 0.4-1.7 0.7-2.6-2-0.2-3.6-0.8-4.2-3 2.4 1.7 4.9 1.8 7.6 0.9-1.4 1.7-2.7 3.2-4 4.7q-0.1 0-0.1 0z"/>
					<path class="s5" d="m19.4 16.1c1.8 0.4 3.5 0.4 5.3-0.3-1.2 1.3-3.8 1.4-5.2 0.3z"/>
				</g>
			</g>
			<path class="s6" d="m53.2 11.1c-1.9-1.4-4.1-1.8-6.3-2-3.2-0.3-6.4 0.4-9.4 1.7-0.4 0.2-0.7 0.4-1.1 0.6q0 0.2 0.1 0.3 2.8-0.4 5.5-0.9c-1 5.6-2.1 11-2.2 16.5 2.3-5.2 3.2-10.8 4.2-16.7 2 0.2 4.1 0.3 6.1 0.8 2.1 0.6 3.5 1.9 3.1 3.9-0.2 0.9-0.6 1.8-1 2.6-2.2 3.6-5.4 6.1-8.6 8.7-3 2.4-6.2 4.6-9.3 7 0 0-0.9 0.7-0.7 1.2 0.1 0.2 0.7 0.1 1.2 0q0.1 0 0.1 0 0.3-0.1 0.6-0.3 0.2 0 0.2 0 0.5-0.2 1-0.5c5.1-2.9 9.6-6.6 13.6-10.9 1.7-1.7 3-3.7 4.2-5.8 1-1.7 0.6-4.7-1.3-6.2z"/>
			<path class="s7" d="m64.5 19.6q-0.8 0.8-1.6 1.6c-0.4 0.5-0.3-0.2-0.3-0.2 0-0.8 0-1.7 0-2.6 0-1.4-1.2-2-2.3-1.2-0.8 0.7-1.5 1.7-2.4 2.6 0-0.9 0.1-1.9 0.2-2.8 0 0 0.4-3.3-0.2-3.8q-0.1 0-0.1 0c-0.2 0.1-0.5 0.9-0.6 1.4q0 0.1 0 0.2 0 0.1 0 0.1c-0.5 3.5-1 7-1.5 10.6 0 0-0.3 1.4 0.5 1.6 0.8 0.3 1.4-1 1.4-1 0.6-1.3 1-2.7 1.6-4 0.4-1.1 0.6-2.5 1.9-3.4 0 1.1 0 1.9 0 2.7 0.1 1.2 1.2 1.9 2.2 1.5 0.7-0.4 1.4-1.8 1.6-3 0-0.7-0.5-0.3-0.5-0.3z"/>
			<path class="s8" d="m100.4 27.1c-0.8 0.5-2.1 0.4-2.6 0.3q-0.3 0-0.3 0-0.1 0-0.1 0-0.3-0.1-0.5-0.2c-1-0.6-0.9-2-0.9-2 0.6-0.4 1.9-2 2.2-2.5q1.4-1.9 2-4.3c0.3-1.3 0.3-2.8 0.2-4.2-0.1-1.3-1.6-2.1-2.7-1.4-0.8 0.6-1.6 1.5-2.1 2.4-1.2 2.1-1.7 4.2-1.8 6.5q0 0.1 0 0.2-0.1 1-0.1 1.9c0.1 0.9 0.2 1.6 0.2 1.6l-1 1.6 1.2-0.5c0 0 0.1 0.4 0.5 1.3q0.1 0.2 0.2 0.5c1 1.6 3.5 2.7 5.2 0.4 0.3-0.5 0.4-1 0.6-1.5q-0.1 0-0.2 0zm-2.7-12c0 0 0.7-0.8 1-0.3q0.2 0.2 0.2 0.3 0.1 0.2 0.1 0.3c-0.1 2.9-1.4 5.2-3.1 7.5 0-2.8 0.1-5.5 1.8-7.8z"/>
			<path class="s9" d="m113 9.1c0 0-0.1 0-0.1 0.1-0.3 0.3-0.4 0.8-0.6 1.3q-2.2 6.4-4.4 12.9-0.7 2-1.5 4c-0.6-1.4-1.1-2.8-1.4-4.1-0.2-1.2-0.3-2.4-0.3-3.5 0.1-1.8 0.4-3.6 0.6-5.4 0.1-0.7-0.1-1-0.3-1.1-0.3 0-0.6 0.3-0.8 0.8-0.8 2.5-1.2 5-0.9 7.6 0 0.6 0.2 1.2 0.1 1.7-0.4 1.5-0.9 3-1.3 4.5q-0.8 2.2-1.5 4.3c0 0-0.3 0.7 0 0.8 0.1 0 0.3-0.2 0.4-0.5q0.1-0.3 0.2-0.5c0.9-2.3 1.8-4.6 2.7-6.9 0.3 1 0.6 2.1 1 3 0.2 0.5 0.7 1.1 1.2 1.2 0.3 0.1 1-0.4 1.3-0.9q0.9-1.4 1.5-3c0.7-2 1.3-4 2-6q0 0 0.1 0.1c-0.2 2.6-0.6 5.3-0.8 8-0.1 1.9-0.1 3.8-0.1 5.8 0 0.4 0.1 1.6 0.7 1.6 0.4-0.1 0.5-1.1 0.5-1.1 0.3-3.1 0.4-6.3 0.8-9.4 0.4-3.1 0.9-6.1 1.4-9.2 0.3-1.6 0.6-3.3 0.9-4.9 0.1-0.5 0.2-2.2-1.4-1.2z"/>
			<path fill-rule="evenodd" class="s10" d="m67 26.2c-0.5 0.6-1.3 0.7-1.8 0.3-0.5-0.5-0.5-1.3 0-1.9 0.5-0.6 1.3-0.7 1.8-0.3 0.5 0.5 0.5 1.3 0 1.9z"/>
			<path class="s11" d="m88.9 38.2c-0.8-2.9-1.7-5.9-2.5-8.8q-0.1-0.2-0.1-0.3 0-0.1 0-0.2l-0.4-1.2 1-0.1q0.6-0.1 1.2-0.1c0 0 0.7-0.2 0.8-0.2l-1-0.1c-0.4-0.1-1-0.2-1.3-0.2q0 0 0 0-0.1 0-0.1 0-0.1 0-0.2 0l-0.6-0.1v-0.6q-0.1 0-0.1-0.1c-0.3-4.1-0.7-8.1-0.9-12.1-0.2-3.7 0-7.5-0.1-11.2-0.3-2.3-0.8-2.9-1.3-2.9-0.7 0.1-1.1 1.2-1.4 2.1-0.7 2.6-1.2 5.1-2 7.6-1.5 5.6-3.2 11.1-4.9 16.6q0 0.2-0.1 0.4l-0.2 0.5-0.6 0.1q-0.2 0.1-0.5 0.1-0.1 0-0.2 0.1-0.1 0-0.3 0c-2.8 0.4-5.3 0.8-5.3 1.5 0.1 0.8 1.2 0.6 1.2 0.6h0.1q0.2 0 0.4 0c1.5-0.2 2.9-0.5 4.6-0.8-0.6 2.1-1.2 4-1.7 5.8-0.1 0.2-0.3 0.9-0.2 1 0.3 0.1 0.8-0.8 1.1-1.4q0.5-1.4 1.1-2.7l1.2-2.7 1.8-0.3q0.3 0 0.6-0.1h0.4q1.7-0.2 3.4-0.4h0.1q0.5 0 1-0.1 0 0 0.1 0h0.4l0.2 0.7c0 0 0.1 0 0.1 0.1q0.1 0.5 0.3 1.1l0.1 0.3c0.8 3 1.9 6 3.6 8.7q0 0.1 0.1 0.2c1 0.5 1.2-0.3 1.2-0.6q0-0.1 0-0.2zm-12.8-11.1l0.1-0.3q0.1-0.2 0.1-0.4c2.1-6.9 4.2-13.7 6-19.9 0 2.9 0 6.4 0.1 9.8 0.1 3.5 0.4 6.9 0.7 10.5l-7 0.3z"/>
			<path class="s12" d="m93.8 33.9l-0.5-1.5c-0.5-1.5-0.9-3.4-1.3-5q-0.3-1.8-0.6-3.7 0 0 0 0c-0.2-0.8-0.3-1.7-0.2-2.6 1.8-3.7 1.8-10.2 1.8-10.2q0.1-1.4 0.1-2.6 0-1.1-0.1-2.1 0-1.1-0.2-2.1 0-0.1 0-0.1-0.2-0.6-0.3-1.2c-0.2-0.7-0.7-1.7-1.7-0.6-0.1 0.2-0.2 0.4-0.2 0.7-0.4 2.6-0.8 5.1-1 7.7q0 0.1 0 0.2c0 0.1 0 0.4 0 0.8q-0.1 1.9-0.1 3.8c0.1 2.1 0.3 4.2 0.4 5q-0.3 0.6-0.6 1.2l-1.5 2q0 0.1-0.1 0.2l-1.2 1.7c0 0 1.1-0.5 2-1.3q0.6-0.4 1-1h0.1q0.2-0.3 0.3-0.6l0.4 2.5q0.2 0.8 0.3 1.7 0.1 0.1 0.1 0.2 0.1 0.5 0.1 1c0.5 2.6 1.5 5.2 1.5 5.3q0 0 0 0v0.1c0.4 0.8 0.9 1.4 1.4 1.4 0.3-0.1 0.1-0.9 0.1-0.9zm-2.5-28.7q0.1 0.3 0.1 0.6 0 0.1 0.1 0.1 0 0.1 0 0.2c0.5 2.2 0.4 4.5 0.1 6.8-0.1 1.3-0.2 2.6-0.4 3.6q-0.1 0.5-0.3 1.1l0.4-12.4z"/>
		</g>
	</g>
</svg>