<svg version="1.2" xmlns="http://www.w3.org/2000/svg" viewBox="0 0 122 66" width="122" height="66">
	<title>71</title>
	<style>
		.s0 { fill: #737476 } 
	</style>
	<g id="Layer_1-2">
		<g>
			<path class="s0" d="m42.7 19.9l4.4 13.5h6.4l3.3-10.8v-6.9h8.2v6.9l3.3 10.8h6.1l5-14.1v-17.5c0-1-0.8-1.8-1.8-1.8h-11.2c-1 0-1.8 0.8-1.8 1.8v6.5h3.7v-5.1h7.4v16.1l-3 10.6h-1.9l-2.5-7.3v-8.1c0-1-0.8-1.8-1.8-1.8h-10.9c-1 0-1.8 0.8-1.8 1.8v8.1l-2.5 7.3h-2l-2.9-10.6v-16.1h7.4v5.1h3.6v-6.5c0-1-0.8-1.8-1.8-1.8h-11.1c-1 0-1.8 0.8-1.8 1.8z"/>
			<path class="s0" d="m1.4 50.6q-0.1 0.1-0.4 0.2v0.3h6q1.5 0 2.4-0.3 1-0.3 1.7-0.9 1.8-1.5 1.8-4.3 0-1.5-0.6-2.7-0.8-1.5-2.3-2.2-1-0.5-3-0.5h-6v0.3q0.3 0.1 0.4 0.2 0.1 0.1 0.1 0.4v9.1q0 0.3-0.1 0.4zm2.4-8.6h3q1.1 0 1.7 0.2 0.7 0.3 1.1 0.8 0.9 0.9 0.9 2.6 0 2.4-1.6 3.3-0.7 0.4-2.1 0.4h-3c0 0 0-7.3 0-7.3z"/>
			<path class="s0" d="m22.5 50.8v0.3h3.9v-0.3q-0.4 0-0.7-0.2-0.2-0.3-0.8-1l-2.1-3q3-0.5 3-3.1 0-0.8-0.3-1.5-0.3-0.7-1-1.1-0.5-0.4-1.2-0.5-0.7-0.1-2-0.1h-6.7v0.2q0.2 0.1 0.4 0.2 0.1 0.2 0.1 0.4v9.1q0 0.3-0.1 0.4-0.2 0.1-0.4 0.2v0.3h3.3v-0.3q-0.2-0.1-0.4-0.2-0.1-0.1-0.1-0.4v-3.5h2.9l2.2 3.1q0.4 0.6 0.4 0.7 0 0.3-0.4 0.3zm-0.3-6q-0.3 0.1-1.1 0.1h-3.7v-2.8h3.7q0.8-0.1 1.1 0 0.3 0 0.6 0.2 0.6 0.3 0.6 1.2 0 0.8-0.6 1.1-0.3 0.2-0.6 0.2z"/>
			<path class="s0" d="m28.3 49q-0.4 0.4-0.4 0.9 0 0.6 0.3 1 0.4 0.4 1 0.3 0.5 0 0.9-0.3 0.4-0.4 0.4-0.9 0-0.6-0.4-1-0.4-0.3-0.9-0.4-0.6 0.1-1 0.4z"/>
			<path class="s0" d="m44.2 40.7q0.1-0.1 0.4-0.2v-0.2h-3.4v0.2q0.3 0.1 0.4 0.2 0.1 0.1 0.1 0.4v3.5h-6.2v-3.5q0-0.3 0.1-0.4 0.1-0.1 0.4-0.2v-0.2h-3.4v0.2q0.3 0.1 0.4 0.2 0.2 0.2 0.1 0.4v9.1q0 0.3-0.1 0.4-0.1 0.1-0.4 0.2v0.2h3.4v-0.2q-0.3-0.1-0.4-0.2-0.1-0.1-0.1-0.4v-3.9h6.2v3.9q0 0.3-0.1 0.4-0.1 0.1-0.4 0.2v0.2h3.4v-0.2q-0.3-0.1-0.4-0.2-0.1-0.1-0.1-0.4v-9.1q0-0.3 0.1-0.4z"/>
			<path class="s0" d="m56.3 51.1q0.3 0 0.4 0.1 0.1 0.1 0.2 0.4h0.3v-2.8h-0.3q-0.1 0.3-0.2 0.4-0.1 0.1-0.4 0.1h-6.9v-3h4.4q0.2 0 0.3 0.1 0.2 0.2 0.2 0.4h0.3v-2.7h-0.3q0 0.3-0.2 0.4-0.1 0.1-0.3 0.1h-4.4v-2.6h6.8q0.2 0.1 0.3 0.2 0.1 0.1 0.2 0.3h0.3v-2.7h-0.3q-0.1 0.2-0.2 0.3-0.1 0.2-0.3 0.2h-9.7v0.2q0.3 0.1 0.4 0.2 0.1 0.2 0.1 0.4v9.1q0 0.3-0.1 0.4-0.1 0.1-0.4 0.2v0.3z"/>
			<path class="s0" d="m67.6 43.7l1.3-2.5-0.2-0.1q-0.3 0.1-0.4 0.1-0.1 0-0.6-0.1-1.3-0.6-2.2-0.8-0.9-0.2-1.9-0.2-2.5 0-3.7 1.2-1 0.9-1 2.2 0 0.9 0.4 1.5 0.4 0.7 1.1 1.1 0.5 0.2 1 0.3 0.5 0.1 1.8 0.3l1.2 0.1q1.2 0.1 1.6 0.3 0.6 0.2 0.6 0.8 0 0.3-0.3 0.6-0.2 0.4-0.6 0.6-0.8 0.3-1.8 0.3-1 0-2.1-0.3-1-0.3-1.6-0.8-0.3-0.3-0.3-0.6v-0.1l-0.2-0.2-1.2 2.7 0.2 0.1q0.3-0.2 0.4-0.2 0 0 0.5 0.2 2.1 1.1 4.2 1.1 1.2 0 2.3-0.3 1.4-0.4 2-1.2 0.8-0.9 0.8-2 0-0.7-0.4-1.4-0.3-0.6-0.8-1-0.5-0.4-1.2-0.6-0.7-0.2-1.8-0.3l-1.2-0.1q-1.3-0.1-1.7-0.3-0.7-0.2-0.7-0.8 0-0.4 0.3-0.7 0.3-0.3 0.7-0.5 0.7-0.2 1.5-0.2 1.9 0 3.3 1 0.5 0.3 0.5 0.6 0 0 0 0.1l0.2 0.2z"/>
			<path class="s0" d="m82.1 40.7q0.1-0.1 0.4-0.2v-0.2h-3.4v0.2q0.3 0.1 0.4 0.2 0.1 0.1 0.1 0.4v3.5h-6.2v-3.5q0-0.3 0.1-0.4 0.1-0.1 0.4-0.2v-0.2h-3.4v0.2q0.3 0.1 0.4 0.2 0.1 0.2 0.1 0.4v9.1q0 0.3-0.1 0.4-0.1 0.1-0.4 0.2v0.2h3.4v-0.2q-0.3-0.1-0.4-0.2-0.1-0.1-0.1-0.4v-3.9h6.2v3.9q0 0.3-0.1 0.4-0.1 0.1-0.4 0.2v0.2h3.4v-0.2q-0.3-0.1-0.4-0.2-0.1-0.1-0.1-0.4v-9.1q0-0.3 0.1-0.4z"/>
			<path class="s0" d="m97.7 40.7q0.1-0.1 0.4-0.2v-0.2h-4v0.2q0.3 0.1 0.4 0.4-0.1 0.1-0.2 0.5l-3 5.5-3-5.6q-0.1-0.2-0.1-0.4 0-0.3 0.4-0.4v-0.2h-4.2v0.2q0.3 0.1 0.4 0.2 0.1 0.2 0.1 0.4v9.1q0 0.3-0.1 0.4-0.1 0.1-0.4 0.2v0.3h3.2v-0.3q-0.3-0.1-0.4-0.2-0.1-0.1-0.1-0.4v-6.6l4 7.5 4.2-7.5v6.6q0 0.3-0.1 0.4-0.2 0.1-0.4 0.2v0.3h3.3v-0.3q-0.3-0.1-0.4-0.2-0.1-0.1-0.1-0.4v-9.1q0-0.3 0.1-0.4z"/>
			<path class="s0" d="m107.5 40.5v-0.2h-3.8v0.2q0.5 0.2 0.5 0.5 0 0.3-0.2 0.7l-4 8.3q-0.2 0.4-0.4 0.6-0.1 0.2-0.4 0.2v0.3h3.5v-0.3q-0.5-0.1-0.5-0.5 0-0.2 0.1-0.5l0.8-1.5h4.9l0.7 1.5q0.2 0.4 0.2 0.5 0 0.4-0.5 0.5v0.3h3.9v-0.3q-0.3-0.1-0.5-0.2-0.2-0.2-0.4-0.8l-4.2-8.3q-0.1-0.3-0.1-0.5 0-0.3 0.5-0.5zm-0.3 6.3h-3.5l1.8-3.8z"/>
			<path class="s0" d="m121.5 40.1q-0.2 0.2-0.4 0.2h-9.1q-0.2 0-0.3-0.2-0.1-0.1-0.2-0.4h-0.3v2.8h0.3q0-0.3 0.2-0.4 0.1-0.1 0.3-0.1h3.4v8.2q0 0.3-0.1 0.4-0.1 0.1-0.4 0.2v0.2h3.3v-0.2q-0.2-0.1-0.4-0.2-0.1-0.1-0.1-0.4v-8.2h3.4q0.2 0 0.4 0.1 0.1 0.1 0.2 0.4h0.2v-2.8h-0.2q-0.1 0.3-0.2 0.4z"/>
			<path fill-rule="evenodd" class="s0" d="m0 55.7h121.2v0.2h-121.2z"/>
			<path class="s0" d="m20.7 61.4h-1.7v3.9h1.6q1.5 0 2.4-0.5 0.9-0.6 0.9-1.5 0-1.9-3.2-1.9zm1.8 3.1q-0.7 0.4-1.9 0.4h-0.9v-3h1q2.4 0 2.4 1.4 0 0.8-0.6 1.2z"/>
			<path fill-rule="evenodd" class="s0" d="m27.5 63.5h2.2v-0.4h-2.2v-1.3h2.4v-0.4h-3.1v3.9h3.2v-0.4h-2.5v-1.4z"/>
			<path class="s0" d="m37.1 64.2q0 0.4 0.1 0.5h-0.1c0 0-0.1-0.1-0.2-0.2l-3.1-3.1h-0.9v3.9h0.7v-2.8q0-0.4 0-0.5 0.1 0.1 0.2 0.2l3.1 3.1h0.9v-3.9h-0.7v2.8z"/>
			<path fill-rule="evenodd" class="s0" d="m40.5 61.8h1.8v3.5h0.7v-3.5h1.7v-0.4h-4.2v0.4z"/>
			<path class="s0" d="m48.4 61.4l-2.3 3.9h0.8l0.6-1.1h2.5l0.7 1.1h0.8l-2.4-3.9h-0.7zm-0.7 2.4l0.9-1.6q0.1-0.1 0.1-0.3 0.1 0.2 0.1 0.3l1 1.6z"/>
			<path fill-rule="evenodd" class="s0" d="m54.8 64.9v-3.5h-0.7v3.9h3.1v-0.4h-2.4z"/>
			<path class="s0" d="m64.5 61.9q-0.9 0.6-0.9 1.5 0 0.9 0.8 1.4 0.8 0.6 2.1 0.6 1 0 1.6-0.3v-0.4q-0.6 0.3-1.5 0.3-1 0-1.6-0.5-0.6-0.4-0.6-1.1 0-0.7 0.6-1.2 0.7-0.4 1.7-0.4 0.8 0 1.4 0.2v-0.5q-0.5-0.1-1.4-0.1-1.3 0-2.2 0.5z"/>
			<path fill-rule="evenodd" class="s0" d="m71.8 64.9v-1.4h2.2v-0.4h-2.2v-1.3h2.4v-0.4h-3.1v3.9h3.2v-0.4h-2.5z"/>
			<path class="s0" d="m81.4 64.2q0 0.4 0 0.5c0 0-0.1-0.1-0.2-0.2l-3.1-3.1h-0.9v3.9h0.7v-2.8q0-0.4 0-0.5 0.1 0.1 0.2 0.2l3.1 3.1h0.9v-3.9h-0.7c0 0 0 2.8 0 2.8z"/>
			<path fill-rule="evenodd" class="s0" d="m84.8 61.8h1.8v3.5h0.7v-3.5h1.7v-0.4h-4.2v0.4z"/>
			<path fill-rule="evenodd" class="s0" d="m92.4 63.5h2.2v-0.4h-2.2v-1.3h2.4v-0.4h-3.1v3.9h3.2v-0.4h-2.5v-1.4z"/>
			<path class="s0" d="m100.8 63.9q-0.1-0.1-0.2-0.1-0.1-0.1-0.2-0.2-0.1 0-0.3-0.1 0.4 0 0.6-0.1 0.2-0.1 0.4-0.3 0.2-0.1 0.3-0.3 0.1-0.1 0.1-0.3 0-0.3-0.2-0.5-0.1-0.2-0.3-0.3-0.3-0.1-0.6-0.2-0.4 0-0.8 0h-1.8v3.8h0.7v-1.6h0.6q0.2 0 0.4 0 0.1 0 0.3 0.1 0.1 0.1 0.3 0.2 0.1 0.1 0.2 0.2l1 1.1h0.9l-1.1-1.1q-0.2-0.2-0.3-0.3zm-0.8-0.7q-0.2 0.1-0.5 0.1h-0.9v-1.4h0.9q0.6 0 0.9 0.1 0.4 0.2 0.4 0.5 0 0.2-0.1 0.3-0.1 0.2-0.3 0.3-0.1 0.1-0.4 0.1z"/>
		</g>
	</g>
</svg>