<svg version="1.2" xmlns="http://www.w3.org/2000/svg" viewBox="0 0 112 50" width="112" height="50">
	<title>76</title>
	<style>
		.s0 { fill: #b369aa } 
		.s1 { fill: #56296f } 
	</style>
	<g id="Layer_1-2">
		<g>
			<g>
				<path class="s0" d="m111.2 12.3c-0.1-0.8-0.7-1.2-1.1-1.7-0.3-0.5-0.6-1.1-0.8-1.7 0-0.3 0-0.5-0.1-0.8 0-0.1 0-0.3 0-0.5 0.1-0.2 0.1-0.4 0.1-0.6 0.1-0.5 0.2-0.8 0.4-1.2 0.3-1 0.5-2.5 0.3-3.7 0-0.5-0.1-0.9-0.2-1.3-0.1-0.1-0.1-0.3-0.2-0.4 0 0.3 0 0.5-0.1 0.8q0 0.3 0 0.6-0.1 0.4-0.1 0.9c-0.2 0.8-0.3 1.5-0.5 2.3-1.1 3.1-2.8 5.5-5.1 7.4q-0.2 0.2-0.4 0.4c-0.4 0.3-0.9 0.7-1.3 1.1-0.6 0.4-1 0.8-1.5 1.2q-0.3 0.3-0.6 0.6-0.5 0.4-0.9 0.9-0.2 0.2-0.4 0.5c-0.7 0.8-1.3 1.5-1.7 2.6q-0.1 0.4-0.1 0.9c-0.1 0.6 0 1.2 0.1 1.6 0.4 1.2 1 2 1.7 2.8q0.3 0.4 0.7 0.9c0.2 0.2 0.4 0.4 0.7 0.6q0.1 0.2 0.3 0.3 0.5 0.5 1 0.9 1.5 1.2 3.3 2.3c1.1 0.8 2.7 1.5 3.1 3 0.1 0.9-0.4 1.9-0.7 2.4q-0.2 0.2-0.3 0.4 0 0-0.1 0c0.3-0.1 0.6-0.3 0.8-0.5 0.7-0.5 1.5-1.5 1.2-2.9-0.1-0.6-0.4-1.2-0.7-1.7-1.4-2.4-3.9-3.8-5.4-6.2-0.4-0.6-0.8-1.2-1-2-0.1-0.4-0.1-0.9 0-1.3 0.1-0.4 0.3-0.9 0.6-1.1 0.4-0.1 1.1 0.2 1.3 0.3 0.9 0.4 1.7 0.6 2.7 0.8 0.7 0.2 1.3 0.1 1.7-0.2 0.4-0.3 0.4-0.7 0.5-1.3 0-0.1 0.1-0.3 0-0.5 0-0.4-0.1-1.1 0-1.4 0.1-0.2 0.2-0.3 0.3-0.4 0.1 0 0.2-0.1 0.3-0.2 0-0.1-0.1-0.5-0.1-0.6q0-0.1-0.1-0.1 0.1-0.1 0.1-0.2c0.2-0.2 0.4-0.4 0.5-0.7 0.1-0.1 0.1-0.4 0.1-0.6q-0.1-0.1-0.1-0.2c0.1-0.2 0.3-0.6 0.5-0.8 0.3-0.4 0.8-0.6 1.1-1.1 0.1-0.1 0.2-0.3 0.2-0.6z"/>
				<path class="s1" d="m106.2 6.1c-0.3 0.5-0.7 0.9-1.1 1.4q-0.2 0.3-0.5 0.5c-0.2 0.3-0.6 0.7-0.9 1q-0.1 0.1-0.3 0.3-0.6 0.5-1.2 1.1-0.6 0.5-1.3 1.1c-1.2 1-2.4 2-3.4 3.3-0.7 1.1-1.3 2.2-1.6 3.6-0.1 0.4-0.1 0.8-0.1 1.1-0.1 0.8 0 1.7 0.1 2.3 0.1 0.2 0.1 0.5 0.2 0.6q0 0 0 0.1 0-0.2-0.1-0.4 0-0.3 0-0.5c-0.1-0.2 0-0.4 0-0.5-0.1-0.5 0.1-1.1 0.3-1.5 0.4-1 0.9-1.9 1.5-2.7 0.2-0.3 0.4-0.5 0.7-0.8 0.2-0.3 0.5-0.6 0.7-0.8 0.3-0.3 0.5-0.5 0.7-0.7q0.4-0.3 0.7-0.7c0.6-0.5 1.2-1.1 1.9-1.6 1.9-1.6 3.7-3.2 4.8-5.6q0.3-0.6 0.6-1.3c0.1-0.4 0.3-1 0.4-1.5 0.2-0.6 0.3-1.2 0.4-1.9 0.1-0.5 0.1-1 0.1-1.4v-0.6c-0.5 2.5-1.3 4.4-2.6 6.1z"/>
			</g>
			<path class="s0" d="m63.4 27.8c-0.2-0.1-0.5-0.2-0.9-0.1-0.2 0-0.4 0-0.6 0.1q-0.3 0.2-0.6 0.4-0.1 0.1-0.3 0.3c0-0.6 0.1-1.9-0.1-2.2-0.3-0.1-0.8-0.1-1.2-0.1v6.9h1.3q0-0.5 0-0.9v-1.4c0-1 0.1-1.8 1-1.9 0.4-0.1 0.8 0.1 0.9 0.3 0.3 0.4 0.3 1 0.3 1.7v2.2h1.4v-2.6c0-0.7 0-1.3-0.2-1.7-0.2-0.5-0.5-0.8-0.9-1zm18.8-1.3c-0.2-0.4-0.7-0.3-1.2-0.3v1.1h1.3c0-0.3 0-0.7-0.1-0.8zm2.9 5.5c-0.2 0-0.6 0-0.7-0.1-0.1-0.2-0.1-0.6-0.1-0.9v-2.3c0.7 0 0.8-0.3 0.8-1h-0.8v-0.5q0-0.2 0-0.4c-0.1-0.6-0.6-0.6-1.3-0.6v4.7c0 0.6-0.1 1.5 0.2 1.9 0.2 0.3 0.8 0.3 1.4 0.3 0.1 0 0.4 0 0.5-0.1 0.1 0 0-0.2 0-0.2v-0.8zm6.9-5.5c-0.3-0.3-0.7-0.3-1.2-0.3v6.9h1.3v-4.8c0-0.5 0.1-1.5-0.1-1.8zm-22.4 2.4c-0.4-0.9-1.1-1.3-2.3-1.2q-0.2 0-0.3 0-0.2 0-0.4 0.1-0.9 0.3-1.3 1.2c-0.1 0.3-0.1 0.6-0.2 0.9 0 0.3 0 0.6 0 0.9 0.1 0.2 0.1 0.4 0.1 0.6 0.2 0.9 0.6 1.5 1.4 1.7 0.2 0.1 0.3 0.1 0.6 0.1 0.2 0 0.5 0 0.7 0 1.2-0.2 1.7-0.8 1.9-2.1 0.1-0.3 0.1-0.7 0-1 0-0.5-0.1-0.9-0.2-1.2zm-1.5 2.8c-0.1 0.2-0.3 0.3-0.5 0.3-1 0.2-1.3-1.2-1.1-2.2 0.1-0.4 0.2-0.7 0.6-0.9 0.1 0 0.2 0 0.3-0.1q0.4 0 0.7 0.2c0.5 0.5 0.5 2.2 0 2.7zm5-1.9c-0.4-0.1-1.4-0.2-1.3-0.7 0.1-0.4 0.7-0.4 1.1-0.3 0.2 0 0.3 0.1 0.4 0.3 0.1 0.1 0.1 0.2 0.3 0.3 0.2 0.1 0.8 0 1.2 0 0-1-0.7-1.4-1.5-1.7-1.2-0.2-2.4 0.2-2.7 1q-0.1 0.2-0.1 0.4c-0.3 1.2 0.8 1.7 1.6 1.9 0.5 0.1 1.3 0.2 1.5 0.6 0.1 0.5-0.7 0.6-1.1 0.5-0.5 0-0.8-0.2-0.9-0.7h-1.3c0 1 0.6 1.5 1.3 1.7 1.2 0.4 2.6 0 3.1-0.7q0.1-0.3 0.2-0.5c0.3-1.5-0.9-1.8-1.9-2.1zm14.5-2.1q-0.1 0-0.2 0-0.2 0-0.4 0.1-0.8 0.2-1.1 0.9c-0.1 0.1-0.1 0.3-0.1 0.5h1.3c0.1-0.5 1.1-0.5 1.5-0.3 0.1 0.1 0.2 0.3 0.1 0.5-0.1 0.4-0.8 0.3-1.2 0.4-0.6 0.1-1.2 0.3-1.5 0.7q-0.2 0.2-0.3 0.5c-0.1 0.2-0.1 0.6 0 0.8 0.1 0.9 0.6 1.3 1.4 1.4 0.2 0 0.4 0.1 0.6 0 0.2 0 0.4 0 0.6-0.1 0.7-0.1 1.3-0.5 1.5-1.1 0.2-0.4 0.2-0.8 0.2-1.4 0-0.6 0.1-1.5 0-1.9-0.3-0.9-1.2-1.1-2.4-1zm1.1 3.5q-0.1 0.7-0.8 0.9c-0.3 0.1-0.7 0-0.8-0.2q-0.1-0.1-0.2-0.3c-0.2-1 1.3-0.8 1.8-1.2 0.1 0.1 0 0.7 0 0.8zm-9.8-3.4c-0.2-0.1-0.5-0.1-0.7-0.1-1.2 0-1.9 0.3-2.3 1.1-0.3 0.5-0.3 1.4-0.3 2.3v4.1c0.4 0 1 0.1 1.2-0.2 0.1-0.2 0.1-0.5 0.1-0.9v-1.7q0.1 0.1 0.2 0.2c0.1 0.2 0.3 0.4 0.6 0.5 0.5 0.2 1.1 0.1 1.6-0.1 0.6-0.3 0.9-0.9 1.1-1.7 0-0.2 0-0.4 0-0.6 0.1-0.4 0-1 0-1.3-0.3-0.8-0.7-1.4-1.5-1.6zm-0.2 3.9c-0.2 0.2-0.3 0.3-0.6 0.3-1.1 0.2-1.4-1.4-1.1-2.4 0.1-0.3 0.2-0.6 0.5-0.7 0.1 0 0.2 0 0.4-0.1 0.6 0 0.9 0.3 1.1 0.8 0.2 0.7 0.1 1.8-0.3 2.1zm2.4-4v5.4h1.3v-3.7c0-0.5 0.1-1.2-0.2-1.5-0.1-0.2-0.7-0.2-1.1-0.2z"/>
			<path class="s1" d="m11.5 24.1c-0.5 0.3-0.5 1.1-0.7 1.8q-0.6 2.6-1.3 5.3 0 0 0 0-0.7-3.6-1.4-7.3-1.2 0-2.3 0-0.7 3.7-1.5 7.3-0.9-3.6-1.7-7.3-1.2 0-2.3 0 1.5 5.2 3 10.4h2q0.8-4 1.6-7.9 0.8 3.9 1.6 7.9h2q1.5-5.2 2.9-10.4c-0.6 0-1.5-0.1-1.9 0.2zm38.1 0c-0.1 0.1-0.1 0.8-0.1 1q0.4 1.2 0.6 2.5 0.2-0.5 0.3-1 0.2-0.8 0.3-1.6v-1.1c-0.3 0-0.9-0.1-1.1 0.2zm-29.6 3.9c-0.6-1.3-1.7-1.9-3.5-1.9q-0.2 0-0.3 0c-0.3 0.1-0.6 0.1-0.8 0.2-1 0.3-1.6 0.9-2 1.8-0.2 0.4-0.2 0.8-0.3 1.3-0.1 0.6-0.1 1.5 0.1 2.1 0.2 1.4 0.8 2.4 2.1 2.8 0.2 0.1 0.5 0.1 0.7 0.1 0.4 0.1 1 0.1 1.4 0 1.6-0.3 2.3-0.9 2.8-2.4 0.1-0.3 0.1-0.7 0.1-1.1q0-0.2 0.1-0.4c0-0.3 0-0.9-0.1-1.2-0.1-0.5-0.1-0.9-0.3-1.3zm-1.8 3.3c-0.2 0.8-0.5 1.2-1.4 1.4-0.3 0-0.7-0.1-0.9-0.3-0.7-0.4-1-2.1-0.6-3.3 0.1-0.5 0.4-0.9 0.8-1.1q0.2-0.1 0.4-0.1 0.1 0 0.2 0c1 0 1.3 0.6 1.5 1.4 0 0.2 0 0.4 0.1 0.7 0 0.4-0.1 0.9-0.1 1.3zm12.5-5.1c-0.2 0-0.4 0-0.7-0.1-0.3 0-0.9 0-1.2 0.1-0.5 0.1-0.8 0.1-1.2 0.3q-0.2 0.1-0.4 0.3c-0.4-0.3-0.9-0.5-1.5-0.6-0.3-0.1-0.8-0.1-1.1-0.1-0.2 0-0.5 0-0.7 0.1-0.8 0.1-1.5 0.4-1.9 1-0.7 0.9-0.7 2-0.7 3.6v3.5h2.1v-4c0-0.7-0.1-1.5 0.2-1.9 0.2-0.3 0.5-0.4 1-0.5 0.3 0 0.6 0 0.8 0.1 0.9 0.3 0.7 1.3 0.7 2.6v3.7h2.1v-4c0-0.7-0.1-1.4 0.2-1.8 0.2-0.5 1.2-0.7 1.8-0.4 0.8 0.3 0.7 1 0.7 2.1v2.3c0 0.5 0 1 0.1 1.3 0.3 0.7 1.1 0.6 2 0.6v-3.8c0-1.3 0-2.3-0.5-3.1-0.4-0.7-1-1-1.8-1.2zm10.5 2.5c-0.2-1-0.7-1.8-1.5-2.2q-0.4-0.3-1-0.4c-0.3-0.1-0.9-0.1-1.4-0.1-0.3 0.1-0.5 0.1-0.8 0.2-1 0.3-1.7 0.9-2.1 1.9-0.2 0.4-0.2 0.9-0.3 1.4-0.1 0.5 0 1.1 0 1.5 0.1 0.3 0.1 0.6 0.2 0.9 0.3 1.1 0.9 1.8 1.8 2.2q0.5 0.2 1 0.2c0.3 0.1 0.8 0.1 1.1 0.1 0.3-0.1 0.5-0.1 0.7-0.1 0.9-0.3 1.5-0.8 2-1.6 0.1-0.2 0.3-0.6 0.4-1h-1.2c-0.2 0-0.4 0-0.5 0.1-0.3 0-0.5 0.2-0.7 0.4q-0.2 0.2-0.6 0.3c-1.3 0.4-2.1-0.6-2.1-1.8h5.2c0-0.4 0-0.8 0-1.2-0.1-0.3-0.1-0.6-0.2-0.8zm-5 0.6c0.1-0.7 0.4-1.3 0.9-1.5 0.2-0.1 0.3-0.1 0.5-0.1 0.9 0 1.3 0.4 1.5 1.1q0.1 0.2 0.1 0.5h-3zm10.9-3.1c-0.4-0.1-0.8-0.2-1.1-0.2-1.7 0-2.8 0.5-3.3 1.6-0.4 0.8-0.4 1.7-0.4 2.8v3.8q1 0 2.1 0 0-0.7 0-1.3v-2.7c0-1.3-0.2-2.1 0.9-2.3 0.1-0.1 0.4-0.1 0.6-0.1 0.2 0 0.4 0.1 0.6 0.1 0.7 0.4 0.6 1.1 0.6 2.1v2.4c0 0.4 0 0.8 0.1 1.1 0.2 0.8 1 0.7 2 0.7v-3.9c0-1 0-1.9-0.3-2.6-0.4-0.8-1-1.3-1.8-1.6zm11 4.6c-0.5-0.9-1.5-1.2-2.6-1.5-0.7-0.1-1.3-0.2-1.7-0.5-0.1-0.1-0.3-0.3-0.3-0.5 0.1-0.6 1-0.7 1.7-0.6 0.2 0.1 0.5 0.2 0.6 0.4 0.2 0.2 0.2 0.4 0.4 0.5 0.4 0.3 1.3 0.2 1.9 0.2 0-1.5-1-2.3-2.2-2.6-0.2 0-0.5 0-0.7-0.1q-0.2 0-0.3 0c-0.4 0-0.8 0-1.1 0.1-1 0.2-1.6 0.6-2.1 1.3q-0.1 0.3-0.2 0.7c0 0.2 0 0.7 0 0.9 0.3 1.3 1.4 1.7 2.6 2 0.6 0.1 1.1 0.2 1.6 0.4 0.2 0.1 0.5 0.2 0.6 0.5 0.1 0.7-1 0.9-1.6 0.8-0.8-0.1-1.4-0.3-1.4-1.2h-2c0 1.7 0.9 2.4 2.1 2.7q0.6 0.2 1.3 0.1c1.5 0 2.6-0.3 3.2-1.2q0.3-0.3 0.4-0.7c0-0.2 0-0.4 0-0.6 0.1-0.4 0-0.9-0.2-1.1z"/>
			<path class="s0" d="m56.2 1.9c-0.1-0.4-0.4-0.7-0.6-1-0.2-0.3-0.6-0.6-1.1-0.7-0.3 0-0.6 0-0.9 0h-1.6v7.1q-0.1-0.2-0.2-0.3-0.1-0.2-0.3-0.4c-0.4-0.6-1.2-1.2-1.9-1.4-1.5-0.7-3.8-0.5-5.1 0.3-1.6 0.9-2.7 2.4-3.3 4.4-0.1 0.5-0.2 1-0.3 1.6-0.1 0.3-0.1 0.7-0.1 1q0 0.2 0 0.5v0.9q0 0.3 0 0.7c0.1 0.6 0.1 1.2 0.3 1.8 0.5 2.1 1.5 3.9 3.2 4.7 0.8 0.4 1.7 0.6 2.6 0.7q0.4 0.1 0.7 0.1c0.2 0 0.6 0.1 0.8 0q0.3 0 0.5 0c0.4-0.1 0.9-0.1 1.2-0.2 2.5-0.5 4.5-1.4 5.4-3.5 0.3-0.6 0.5-1.4 0.6-2.2 0.1-0.4 0-0.8 0.1-1.2v-11.8c0-0.4 0-0.8 0-1.1zm-4.2 11.9q0 0.3 0 0.5c-0.2 0.7-0.2 1.3-0.4 1.8-0.4 1-1 1.8-2 2.1-0.3 0.1-0.5 0.1-0.9 0.1q-0.2 0-0.4 0-0.1 0-0.3 0c-0.4-0.1-0.8-0.2-1.1-0.4-1-0.5-1.4-1.4-1.7-2.7-0.1-0.3-0.1-0.6-0.2-0.9 0-0.3-0.1-1 0-1.3q0-0.2 0-0.3c0-0.4 0-0.8 0.1-1.1 0.3-1.4 0.9-2.4 2.1-2.9q0.3-0.1 0.7-0.2 0.2 0 0.4 0c2 0 2.9 1 3.4 2.6 0.1 0.3 0.1 0.5 0.2 0.8 0.1 0.4 0.1 0.9 0.1 1.4q0 0.2 0 0.5z"/>
			<path class="s0" d="m60 0.3c-0.4-0.1-0.9 0-1.3 0h-1.3v3.4h4.3c0-0.5 0.1-1.3 0-1.8-0.2-0.8-0.9-1.4-1.7-1.6z"/>
			<path class="s0" d="m77.4 11.5q-0.1-0.4-0.1-0.8 0-0.4-0.1-0.8c-0.1-0.7-0.3-1.2-0.5-1.8-0.6-1.5-1.8-2.2-3.3-2.8-0.5-0.2-1-0.3-1.6-0.4q-0.4-0.1-0.7-0.1c-0.2 0-0.4 0-0.6 0q-0.2 0-0.4-0.1c-0.5 0.1-1 0.1-1.5 0.2-1.8 0.4-3.6 1.2-4.4 2.5-0.5 0.7-0.8 1.5-1 2.5q-0.1 0.5-0.1 1c-0.1 0.4 0 0.7 0 1.1v9.6h4.3v-8.4c0-1.4-0.2-2.9 0.4-3.8 0.5-0.9 2-1.5 3.4-1 0.8 0.2 1.4 0.7 1.7 1.5 0.3 0.7 0.2 1.7 0.2 2.7v6.4c0 0.5 0 1 0.1 1.4q0.4 0.9 1.3 1.2c0.4 0.1 0.8 0.1 1.2 0.1h1.7v-7.8q0-1 0-2v-0.3z"/>
			<path class="s0" d="m19.8 5.1c-2-0.6-4.7-0.4-6.4 0.4-0.3 0.2-0.9 0.5-1.1 0.8-0.6-0.5-1.1-0.8-1.9-1.1-0.4-0.1-0.8-0.2-1.2-0.3-1-0.2-2.5-0.2-3.5 0-2.1 0.5-3.9 1.2-4.9 2.9-0.8 1.5-0.8 3.5-0.8 5.8v8h4.3v-8.3c0-1.3-0.1-2.9 0.4-3.8 0.3-0.6 0.9-1 1.7-1.2q0.3 0 0.5-0.1c0.3 0 0.7 0 0.9 0.1 0.8 0.2 1.4 0.5 1.8 1.1 0.6 0.8 0.5 2.4 0.5 3.8v8.4h4.2v-8.3c0-1.4-0.1-3 0.4-3.8 0.5-0.9 2.1-1.6 3.6-1.1 0.7 0.3 1.3 0.7 1.6 1.5 0.3 0.7 0.2 1.7 0.2 2.7v5c0 0.9-0.1 2.2 0.2 2.8 0.2 0.6 0.7 1 1.3 1.2 0.3 0.1 0.7 0 1.1 0h1.7v-7.9c0-2.2 0-4.1-0.7-5.6-0.8-1.6-2.1-2.4-3.9-2.9z"/>
			<path class="s0" d="m39.3 7.9c-0.6-1.5-1.7-2.3-3.3-2.8-0.5-0.1-1.2-0.2-1.8-0.3-0.5-0.1-1-0.1-1.5-0.1-2.7 0-4.7 0.8-5.8 2.4-0.3 0.5-0.6 1-0.7 1.7-0.1 0.2-0.1 0.3-0.1 0.5h4.1q0-0.1 0.1-0.1c0-0.2 0.1-0.3 0.3-0.4 0.5-0.5 1-0.5 1.8-0.6 0.3-0.1 0.6-0.1 0.9 0 0.8 0.1 1.5 0.2 1.9 0.7 0.2 0.3 0.3 0.9 0.1 1.2-0.6 1.1-2.5 1.1-3.9 1.4q-0.2 0-0.4 0c-1.4 0.2-2.6 0.7-3.6 1.3-0.4 0.2-0.7 0.5-0.9 0.8-0.3 0.3-0.5 0.7-0.6 1.2-0.1 0.4-0.2 0.7-0.2 1.1q0 0.3-0.1 0.5 0 0.3 0 0.6 0 0.2 0.1 0.5c0 0.4 0.1 0.8 0.2 1.2 0.4 1.4 1.5 2.2 2.8 2.8 0.5 0.2 1 0.3 1.6 0.4q0.4 0 0.7 0c0.2 0.1 0.6 0 0.8 0q0.4 0 0.9 0 0.2 0 0.5-0.1c0.4 0 0.9 0 1.3-0.1 1.5-0.4 2.8-1 3.6-2.1 0.5-0.6 0.9-1.3 1.2-2.2 0.2-0.9 0.2-2 0.2-3.1v-2.6c0-1.3 0.1-2.9-0.2-3.8zm-3.9 7.9c-0.4 1.5-1.2 2.3-2.6 2.7-1 0.2-2.3 0-2.8-0.6-0.4-0.6-0.5-1.6-0.1-2.3 0.1-0.1 0.1-0.3 0.2-0.4 0.4-0.4 1-0.6 1.6-0.8q0.7-0.1 1.4-0.3 0.6-0.1 1.2-0.3c0.4-0.1 0.9-0.3 1.2-0.5 0 0.1 0 0.6 0 0.7 0 0.6 0 1.3-0.1 1.9z"/>
			<path class="s0" d="m92.3 7.9c-0.6-1.5-1.7-2.3-3.2-2.7-0.6-0.2-1.2-0.3-1.9-0.4q-0.5 0-0.9-0.1h-0.3q-0.2 0-0.5 0c-0.5 0-1 0-1.4 0.1-0.4 0.1-0.7 0.1-1.1 0.2-1.3 0.4-2.3 1.1-3.1 2.1-0.3 0.5-0.6 1-0.7 1.7-0.1 0.1-0.1 0.3-0.1 0.5h4.1q0-0.1 0.1-0.1 0.1-0.3 0.3-0.4c0.4-0.5 1-0.5 1.8-0.6 0.3-0.1 0.6 0 0.9 0 0.7 0.1 1.5 0.2 1.9 0.7 0.2 0.3 0.3 0.9 0.1 1.2-0.6 1.1-2.6 1.1-3.9 1.4q-0.2 0-0.4 0c-1.4 0.3-2.6 0.7-3.6 1.3-0.3 0.2-0.6 0.5-0.9 0.8-0.3 0.4-0.5 0.8-0.7 1.4-0.1 0.3-0.1 0.6-0.2 1q0 0.2 0 0.5 0 0.2 0 0.5 0 0.3 0.1 0.6c0 0.4 0.1 0.7 0.2 1.1 0.4 1.4 1.4 2.3 2.8 2.8 0.5 0.2 1 0.3 1.6 0.4q0.4 0 0.7 0.1c0.2 0 0.5 0 0.8 0q0.4-0.1 0.9-0.1 0.2 0 0.5 0c0.4-0.1 0.9-0.1 1.3-0.2 1.4-0.3 2.8-0.9 3.6-2 0.5-0.6 0.9-1.2 1.1-2.1 0.3-1 0.3-2.1 0.3-3.4v-2.4c0-1.4 0.1-2.9-0.2-3.9zm-3.9 8c-0.3 1.5-1.2 2.3-2.7 2.6-1 0.3-2.2 0.1-2.6-0.5q-0.3-0.3-0.4-0.8c-0.2-0.7 0.1-1.5 0.4-1.9 0.1-0.3 0.6-0.4 0.8-0.6 0.6-0.2 1.2-0.3 1.8-0.4 0.6-0.2 1.2-0.3 1.8-0.5 0.3-0.1 0.7-0.2 1-0.4 0 0 0 0.5 0 0.6 0 0.7 0 1.4-0.1 1.9z"/>
			<path class="s0" d="m61.3 5.9c-0.3-0.4-0.7-0.6-1.1-0.7-0.3-0.1-0.7-0.1-1-0.1h-1.7q0 8.3 0 16.5 2.1 0 4.3 0v-13.5c0-0.5 0-1-0.1-1.4 0-0.3-0.2-0.6-0.4-0.8z"/>
			<g>
				<path class="s1" d="m2.8 41.3c1.6 0 2.4 1.1 2.4 2.6 0 1.5-0.8 2.6-2.4 2.6-1.6 0-2.4-1.1-2.4-2.6 0-1.5 0.8-2.6 2.4-2.6zm-0.9-0.9c-0.5 0-0.9-0.4-0.9-0.8 0-0.5 0.4-0.9 0.9-0.9 0.4 0 0.8 0.4 0.8 0.9 0 0.4-0.4 0.8-0.8 0.8zm0.9 2.3c-0.5 0-0.7 0.4-0.7 1.2 0 0.8 0.2 1.2 0.7 1.2 0.5 0 0.7-0.4 0.7-1.2 0-0.8-0.2-1.2-0.7-1.2zm1-2.3c-0.5 0-0.8-0.4-0.8-0.8 0-0.5 0.4-0.9 0.8-0.9 0.5 0 0.8 0.4 0.8 0.9 0 0.4-0.4 0.8-0.8 0.8z"/>
				<path class="s1" d="m8.1 39h-2.3l0.5-0.6h0.3v-0.1c0-0.5 0.3-0.9 0.8-0.9 0.2 0 0.5 0.1 0.7 0.3l-0.5 0.5c-0.1-0.2-0.2-0.2-0.2-0.2-0.1 0-0.2 0.1-0.2 0.2v0.2h0.9v0.7zm-0.2 7.5h-1.7v-6.6l1.7-0.5z"/>
				<path class="s1" d="m14.1 45v1.5h-1.5c-0.3 1.5-1.5 2.1-2.6 2.2-0.5 0-1.1-0.1-1.5-0.3l-0.8-1.7c0.8 0.5 1.7 0.5 1.9 0.5 0.8-0.1 1.3-0.6 1.4-1.5v-3.1l1.7-0.5v2.8h1.4z"/>
				<path class="s1" d="m14.5 46.5h-0.7v-1.5h0.7c0.4 0 0.6-0.3 0.7-0.6 0.2-1.1 0.9-1.9 2.3-1.9 1.3 0 2.1 0.8 2.3 1.9q0.1 0.6 0.7 0.6h0.6v1.5h-0.5q-0.5 0-1-0.2c-0.3 0.8-1 1.4-2.1 1.4-1.1 0-1.8-0.5-2.1-1.3q-0.4 0.1-0.9 0.1zm3-2.6q-0.7-0.1-0.7 1.1 0 1.2 0.7 1.2 0.7 0 0.7-1.2 0-1.1-0.7-1.1z"/>
				<path class="s1" d="m22.4 40l1.7-0.5v4.8c0 0.4 0.2 0.7 0.6 0.7h0.9v1.5h-1c-0.6 0-1.1-0.1-1.4-0.5-0.3 0.4-0.7 0.5-1.2 0.5h-1.1v-1.5h0.9c0.5 0 0.6-0.3 0.6-0.7v-4.3z"/>
				<path class="s1" d="m26.9 40.2l1.7-0.5v4.6c0 1.5-1 2.2-2.1 2.2h-1.1v-1.6h0.7c0.4 0 0.8-0.2 0.8-0.8z"/>
				<path class="s1" d="m35.7 44.2c0 0.5 0.3 0.8 0.7 0.8l0.8-0.1v1.6h-1c-0.4 0-0.8-0.1-1.2-0.4-0.4 0.3-1 0.5-1.6 0.5-1.3 0-2.2-0.9-2.2-2.5 0-1.6 1-2.6 2.4-2.6h2.1c0 0 0 2.7 0 2.7zm-2.9-3.6c-0.5 0-0.8-0.4-0.8-0.8 0-0.5 0.3-0.8 0.8-0.8 0.4 0 0.8 0.3 0.8 0.8 0 0.4-0.4 0.8-0.8 0.8zm1.3 2.5h-0.5c-0.5 0-0.8 0.4-0.8 1 0 0.5 0.2 0.9 0.6 0.9 0.4 0 0.7-0.3 0.7-0.9 0 0 0-1 0-1zm0.6-2.5c-0.4 0-0.8-0.4-0.8-0.8 0-0.5 0.4-0.8 0.8-0.8 0.5 0 0.8 0.3 0.8 0.8 0 0.4-0.3 0.8-0.8 0.8z"/>
				<path class="s1" d="m38.4 42.6l1.7-0.5v2.2c0 0.4 0.2 0.7 0.7 0.7h0.9v1.5h-1.1c-0.6 0-1-0.1-1.3-0.5-0.4 0.4-0.8 0.5-1.3 0.5h-1.1v-1.5h0.9c0.5 0 0.6-0.3 0.6-0.7zm0-1.4c-0.4 0-0.8-0.4-0.8-0.8 0-0.5 0.4-0.9 0.8-0.9 0.5 0 0.9 0.4 0.9 0.9 0 0.4-0.4 0.8-0.9 0.8z"/>
				<path class="s1" d="m41.6 49.1c-0.4 0-0.8-0.4-0.8-0.8 0-0.5 0.4-0.8 0.8-0.8 0.5 0 0.9 0.3 0.9 0.8 0 0.4-0.4 0.8-0.9 0.8zm3-4.8c0 1.5-1 2.2-2 2.2h-1.2v-1.5h0.8c0.4 0 0.8-0.3 0.8-0.9v-1.9l1.6-0.5c0 0 0 2.6 0 2.6zm-1 4.8c-0.5 0-0.9-0.4-0.9-0.8 0-0.5 0.4-0.8 0.9-0.8 0.4 0 0.8 0.3 0.8 0.8 0 0.4-0.4 0.8-0.8 0.8z"/>
				<path class="s1" d="m51.9 45v1.5h-6.4l1.1-1.5h2.2v-1.2c0-0.5-0.4-0.8-0.9-0.8-0.5 0-1 0.3-1.4 0.7v-1.6c0.3-0.2 1.1-0.6 1.9-0.7 1.4 0 2.1 1 2.1 2.2v1.4h1.4z"/>
				<path class="s1" d="m52.3 46.5h-0.7v-1.5h0.7c0.3 0 0.6-0.3 0.6-0.6 0.3-1.1 1-1.9 2.4-1.9 1.3 0 2.1 0.8 2.3 1.9q0.1 0.6 0.7 0.6h0.6v1.5h-0.5q-0.6 0-1-0.2c-0.3 0.8-1.1 1.4-2.1 1.4-1.1 0-1.8-0.5-2.2-1.3q-0.3 0.1-0.8 0.1zm3-2.6q-0.8-0.1-0.8 1.1 0 1.2 0.8 1.2 0.6 0 0.7-1.2-0.1-1.1-0.7-1.1z"/>
				<path class="s1" d="m60.2 40.2l1.7-0.5v4.6c0 1.5-1 2.2-2.1 2.2h-1.2v-1.6h0.8c0.4 0 0.8-0.2 0.8-0.8z"/>
				<path class="s1" d="m64.8 46.5h-1.7v-6.5l1.7-0.5z"/>
				<path class="s1" d="m74.8 45v1.5h-0.7c-0.2 1.1-1.2 2.2-3.4 2.2-2.2 0-3.4-1.5-3.4-3 0-0.6 0.1-1.2 0.5-2l2.2-1.4c-0.8 1.3-1 2.2-1 3.1 0 0.8 0.6 1.7 1.7 1.7 0.8 0 1.3-0.1 1.7-0.6-0.6-0.1-1-0.8-1.1-1.2l1-1.7c0 1.1 0.7 1.4 1 1.4h1.5z"/>
				<path class="s1" d="m80.6 46.5h-2.4c-0.2 0-0.4 0-0.6-0.1-0.1 0.1-0.4 0.1-0.6 0.1h-2.5v-1.5h1c-0.1-0.3-0.2-0.7-0.2-1 0-1.4 0.8-2.5 2.3-2.5 1.5 0 2.3 1.1 2.3 2.5 0 0.3-0.1 0.7-0.2 1h0.9v1.5zm-3-5.9c-0.4 0-0.8-0.4-0.8-0.8 0-0.5 0.4-0.8 0.8-0.8 0.5 0 0.8 0.3 0.8 0.8 0 0.4-0.3 0.8-0.8 0.8zm-0.6 3.2c0 0.4 0.2 0.9 0.6 1.1 0.4-0.2 0.6-0.7 0.6-1.1 0-0.4-0.3-0.7-0.6-0.7-0.3 0-0.6 0.3-0.6 0.7z"/>
				<path class="s1" d="m81.7 43l1.6-0.5v2.5h1.3v-2.3l1.7-0.6v2.9h1.3v-2.7l1.6-0.6v3.3h1.3v1.5h-10.2v-1.5h1.4v-1.9zm2.7-1.9c-0.4 0-0.8-0.3-0.8-0.8 0-0.4 0.4-0.8 0.8-0.8 0.5 0 0.8 0.4 0.8 0.8 0 0.5-0.3 0.8-0.8 0.8zm1-1.6c-0.5 0-0.8-0.4-0.8-0.8 0-0.4 0.3-0.8 0.8-0.8 0.4 0 0.7 0.4 0.7 0.8 0 0.4-0.3 0.8-0.7 0.8zm1 1.6c-0.5 0-0.9-0.3-0.9-0.8 0-0.4 0.4-0.8 0.9-0.8 0.4 0 0.8 0.4 0.8 0.8 0 0.5-0.4 0.8-0.8 0.8z"/>
				<path class="s1" d="m90.8 41.2c-0.4 0-0.8-0.4-0.8-0.8 0-0.4 0.4-0.8 0.8-0.8 0.5 0 0.8 0.4 0.8 0.8 0 0.4-0.3 0.8-0.8 0.8zm0.9 1.4l1.7-0.5v2.2c0 0.4 0.2 0.7 0.7 0.7h0.8v1.5h-1c-0.6 0-1-0.1-1.3-0.5-0.4 0.4-0.8 0.5-1.3 0.5h-1.1v-1.5h1c0.4 0 0.5-0.3 0.5-0.7zm1.1-1.4c-0.5 0-0.9-0.4-0.9-0.8 0-0.5 0.4-0.8 0.9-0.8 0.4 0 0.8 0.3 0.8 0.8 0 0.4-0.4 0.8-0.8 0.8z"/>
				<path class="s1" d="m96 43l1.7-0.5v2.5h1.3v-2.3l1.6-0.6v2.9h1.3v-2.7l1.7-0.6v3.3h1.2v1.5h-10.1v-1.5h1.3v-1.9z"/>
				<path class="s1" d="m108.4 46.5c-0.6 0-1.1-0.1-1.6-0.4-0.4 0.4-0.8 0.4-1.4 0.4h-0.8v-1.5h0.6c0.4 0 0.8-0.1 0.8-1.1-0.1-1.5 0.8-2.6 2.4-2.6 1.6 0 2.4 1.1 2.4 2.6 0 1.5-0.9 2.6-2.4 2.6zm0-3.8q-0.7 0-0.7 1.2 0 1.2 0.7 1.2 0.7 0 0.7-1.2 0-1.2-0.7-1.2z"/>
			</g>
		</g>
	</g>
</svg>