<svg version="1.2" xmlns="http://www.w3.org/2000/svg" viewBox="0 0 481 481" width="481" height="481">
	<title>KUC</title>
	<style>
		.s0 { fill: #0f532a } 
		.s1 { fill: #feffff } 
		.s2 { fill: #6ebf53 } 
	</style>
	<g id="Layer_1-2">
		<g>
			<path class="s0" d="m232.3 0.1c128.3-4.3 238.1 93.9 247.7 221.9 11.3 151.1-117.7 274.5-268.1 257-113.3-13.2-202.5-106.2-211.2-219.9-10.4-136.6 94.8-254.3 231.6-259zm-1.7 11.2c-108.4 4.1-200.1 86.5-216.7 193.3-22.8 146.7 97.4 276.1 245.2 264.3 104.8-8.5 191.6-89.1 207.7-192.9 22.3-143.4-91.7-270.2-236.2-264.7z"/>
			<path class="s1" d="m230.6 11.3c144.5-5.5 258.5 121.4 236.2 264.7-16.1 103.8-102.9 184.4-207.7 192.9-147.8 11.8-268-117.6-245.2-264.3 16.6-106.8 108.3-189.2 216.7-193.3zm2.7 5.2c-137.5 4.7-238.8 130.4-213.1 266.1 17.5 92.6 93.2 165.3 186.4 179.3 149.3 22.4 277.5-106.1 255-255.3-16.8-111.1-115.6-193.9-228.3-190.1z"/>
			<path class="s0" d="m233.3 16.5c112.7-3.8 211.5 79 228.3 190.1 22.5 149.2-105.7 277.7-255 255.3-93.2-14-168.9-86.7-186.4-179.3-25.7-135.7 75.6-261.4 213-266.1zm40.8 19.3c-1.3 0.4-6.5-1.2-7.1-0.3l-2.1 16.2c-0.8 3.3-4.2 3.2-6.9 2.5 1.2-4.7 1.5-12-4-13.9-2.8-1-8.2-1.1-11.1-0.5-2.3 0.5-4.2 1.6-5.1 3.8-2.2 4.7 1 11.3-7.7 9.9l-1.9-13.6c-0.6-0.5-5.8 0.7-6.9 0.9-0.1 1.7 2.3 13.1 1.9 13.7-0.1 0.2-3.4 0.9-3.7 0.4l-1.8-13.5-6.9 0.7 1.6 13.9-3.4 0.7-2.2-14-6.8 1 1.9 14.4c-8.6 2-17.1 4.3-25.3 7.3-3.3 1.2-8.7 4.2-11.7 4.8-1.8 0.3-2.9 0.2-4.1-1.3-1.9-2.2-5.2-10.1-6.7-13.3-0.4-0.6-0.6-1.3-0.7-2.1-1.7 0.9-4.7 1.8-6.1 2.7-0.3 0.2-0.6 0.3-0.5 0.7l8.4 17c2.7 3.4 5.6 3.3 9.4 1.9 12.6-4.7 23.4-9.9 36.9-12.7 11-2.2 27.7-5 38.6-5.3 1.6-0.1 4.2 0.8 5.9 1 5.2 0.4 11.2 0.7 16.4 1 6.5 0.2 8.6-1.1 9.7-7.5 0.9-5.3 1.1-11.1 2-16.5zm10.8 2l-6.9-1-4.2 24.6 6.8 1zm15 33c1.3-1.2 1.7-2.9 2.2-4.5 1-3.1 3.5-10.8 3.8-13.7 0.3-2.9-1.7-3.4-3.9-4.1-2.4-0.9-8.6-2.8-11-2.5-4.6 0.6-6.6 6.7-7 10.7-0.8 8.2 4.8 7.5 10.8 9.5-0.3 0.2-0.6 0.8-1 0.9-1.7 0.8-8.6-2.1-10.8-2.4-0.2 0.9-1.4 3.9-1 4.5 5 0.9 13.7 5.8 17.9 1.6zm-156.7-12c-0.5-0.3-4.9 2.4-5.8 2.8-0.3 0.2-0.5 0-0.4 0.6 1.3 3.9 8.3 12.5 8.4 16.2 0 0.8-0.8 2.5-1.5 2.9-0.4 0.1-0.9-0.2-1.3 0-0.6 0.2-1.5 1.5-2.3 1.1l-11.7-15.7-5.6 3.9 11.7 16.5c-2.8 1.5-9.6 8.2-12.1 8.7-2.8 0.5-5-4.3-6.8-6.2-0.9 0.8-5.4 3.5-5.4 4.4 0 0.7 3.4 5.1 4.1 5.8 2.9 3 5.4 3.6 9.1 1.6 6.7-3.7 14.1-12.1 20.6-15.3 0.6-0.3 1.1-0.1 1.5-0.4 4.3-2.2 8.4-4.6 6.6-10.3l-9.1-16.6zm182.1 14.1l-2 4.1c1.5 1.4 4.9 1.5 4.6 4.2-0.1 0.8-1 2.1-1.8 2.2-1.2 0.1-9.6-3.2-8.2-5.6l6-12.3c0-0.4-6.1-3.4-6.5-3.1-1.7 5.9-10.4 14.7-4.3 20.2 1.8 1.5 11.7 6.4 14 6.7 4.5 0.4 6.7-2.2 7.7-6.2 1.8 1.1 3.5 2.3 5.5 3.2 0.8 0.4 2.2 0.5 2.6 0.8 0.2 0.1 1.6 2 2.2 2.5 4.1 3.3 9 6.2 13.1 9.5 11.1 8.9 20.2 19.8 29.7 30.1 2.6 2.7 5.2 4.2 9 2.3l15.3-11.6-4.1-5.7c-4.3 2.8-8.3 7.1-12.6 9.7-3.8 2.3-4.5 0.8-7.2-2 3.7-2.7 6.5-6.7 3.3-11.1-1.6-2.1-6.1-5.6-7.3-7.5-1-1.8 0.3-2.7 2-2l8.1 5.4c0.4 0 3.4-2.9 3.7-3.5 0.2-0.2 0.6-0.4 0.2-0.8-3.6-1.7-10.3-8.2-14.1-8.2-4.1 0-7.7 4.1-6.6 8.2 0.8 2.9 8.4 8.7 8.7 10.4 0.3 1.6-1.4 3.5-3 3-7.1-7-14-14-21.8-20.3-2.1-1.7-11.4-7.9-11.9-9.7-0.2-1-0.1-2 0.3-2.9l8.5-13.8c0.1-0.5 0-0.7-0.3-1-0.2-0.2-4.3-2.8-4.6-2.9-1.3-0.6-0.8 0.1-1.4 0.9-2.6 3.7-5 8.7-7.8 12.1-1.4 1.6-2.5 2.9-4.8 2l-14.2-7.3zm-202.5 5.5c0.3-0.5-0.7-2.5-1.7-2.2-0.3 0.1-5.1 3.7-5.3 4-1.1 1.2-0.7 2.5 0.2 3.6 2.4 2.8 4.9-0.1 7.5-0.4 0.9 0.7-4.7 2.8-4.2 4.6 0.1 0.4 0.9 1.2 1.2 1.2 0.5 0.1 6.5-4.4 6.7-5.4 0.2-1.2-1.1-3.3-2.2-3.7-2.1-0.6-4.3 1.6-6.4 1.6-0.2-0.8 0.3-0.6 0.6-0.8 0.7-0.6 3.5-2.3 3.6-2.5zm108.3 11.3c-118.3 6-182.9 144-112.8 239.8 71.6 97.7 224.1 75.5 264.3-38.4 36.4-102.9-43.5-206.9-151.5-201.4zm-139.6 7.8c-0.3 0-4 4.1-4.2 4.6-0.2 0.3-0.3 0.6 0 0.9 5.9 5.5 11.6 11.3 17.7 16.5l0.5-0.2 4.3-4.9zm-1.1 38.8c0.3-0.4 1.5-0.9 2-1.5 1.7-1.9 7.3-8.9 7.7-11 0.5-3.1-0.4-4.8-2.6-6.8-3.2-3.2-8.3-7.2-12-10-0.5-0.5-1.1-0.8-1.6-1.3l-4.4 5.3 12.6 10.7c3.1 2.9-0.8 8.3-4.2 7.9-2.3-0.3-9.9-6.9-10.4-6.6-0.3 1.5-3.8 4.8-3.6 6.1 0.1 0.7 9.5 5.1 9.8 8.6 0.1 1.8-6.2 11.4-7.5 13.7l-6.2 11.5-0.8 0.1c-2.8-0.7-7.6-3.9-10.3-4.1-2-0.2-3 1.4-3.7 3-0.9 1.8-3.8 8.5-3.9 10.2-0.4 5.2 5.5 8.3 9.8 9.2 8 1.7 7.9-4.1 10.7-9.7 0.3 0.3 0.6 0.8 0.7 1.2 0.6 2.4-3.1 7.8-3.5 10.4l4.3 1.8c1.2-5.3 7.8-13.2 3.3-18.2-0.7-0.7-2.1-1.3-2-2.2 3.9-7.3 7.9-14.6 12.2-21.7 1-1.7 2.9-5.6 3.6-6.6zm307.3 6.7l20.6-13.7c0.3-0.9-3.1-5.6-3.5-5.8-1.1-0.6-17.8 12.2-20.4 13.5-0.3 0.3-0.3 0.4-0.1 0.8 0.5 1.4 2.9 3.6 3.4 5.3zm-306.7-1.7c0.1 0.1 3.1 1.9 3.3 1.9 0.5-0.9 4-5.1 3.9-5.6-0.1-0.3-3.4-2.7-3.6-2.5-0.3 1.3-4.1 5.2-3.6 6.2zm334.6 7.9l3.3 6.4c0.2 0.2 3.3-1.6 3.5-1.8 0.2-0.3-2.5-5.9-2.8-6.1-0.7-0.4-3 1.5-4 1.5zm-10.8 13.5c1.5-0.7 11.9-5.5 12.1-6.2-0.1-0.8-2.7-6.3-3.1-6.3l-15.2 7.7c-1.2 0.4-2.4 0.1-3.4-0.6-0.8-0.5-1.8-2.5-2-2.5-0.3 0-3.8 1.8-3.8 2.4 0.1 0.6 2.5 4.6 3 5.2 1.2 1.6 3 3.1 5 3.2 1.6 0 2.4-1.3 3.3 0.3 7.2 13.3 8.9 28.1 13.6 41.8 1.8 5.1 5.2 6 10.2 4 7.6-3.1 2-11.6 1.6-17.1 0-1.1 0.3-1.6 1.4-1.6 2.3 0.7 4.3 9.1 5.5 9.8l5.6-1.1c0.1-0.4-0.1-0.7-0.2-1-0.6-2.1-4.9-10.9-6.2-12.5-3.4-4.2-11.5-2.3-11.7 3.5 0 2.7 3.1 10.7 2.6 12.4-0.3 1.2-3.3 2.1-4.3 0.9-2.7-10-5.1-20-8.8-29.7-1.6-4.2-3.9-8.3-5.2-12.6zm-376.6 74.1v13.9c0 0.5 1 2.7 1.3 3.2 0.8 1.2 2.2 2.1 3.6 2.4 2.6 0.6 7.6 0.5 10.1-0.4 1.6-0.6 2.7-1.6 3.4-3.2 1.8-4.1-0.1-12.7 0.3-17.4 0.3-4.3 0.8-8.8 1.3-13.1 0.9-7.3 2.1-15.7 4.1-22.5 1.1-3.9 3.7-10.4 1.5-14-1.7-2.9-9.8-4.8-13.2-5.8-1.1-0.3-7.8-2.5-8.1-2.2 0.1 1.4-2.2 5.7-1.6 6.6 0.8 1 15.1 3.9 16.9 5.7 2.2 1.7 0.6 7.4-1.8 8-2.6 0.6-11.7-2.3-12.2-1.9l-1.3 6.8c3.8 1.6 13 0.7 12.7 6.4-0.2 4.3-1.4 9.2-1.9 13.5-0.5 3.8-0.5 7.5-1.4 10.9-0.1 0.6 0.2 2.6 0 2.7l-13.7 0.4zm25.6-33.5c0.1 0.1 3.7 1 3.9 0.8 0.3-0.8 1.7-6.4 1.5-6.7-0.2-0.3-3.9-1.2-4.1-1 0 1.1-1.7 6.4-1.3 6.9zm2.2 9.2c-0.1-1.5 1.7-5.7 1.3-6.7-0.1-0.4-3.4-1.2-3.7-1.2-0.7 0.2-1.4 5.7-1.8 6.7 0.2 0.6 3.4 1 4.2 1.2zm358 1.9c-2.9 0.7-4.5-0.8-4.3 2.8 0.2 2.5 1.2 7 3.5 8.3 1.1 0.7 2.6 0.6 3.5 1.1 0.9 0.5 0.5 4.2 0.6 5.3 0.2 1.6 1.1 3.7 1.2 4.7 0 0.7-0.8 2.8-0.9 3.9-0.3 3.6 0 10.7 3.3 12.8 3.3 2.1 12.4 1.8 14.8-1.9 2.1-3.1 1.8-13-0.5-16-3.4-4.3-8.8-1.3-11.7-3.4-1.6-1.2-1.5-4.3-1.6-6.1l13.7-1.7c0.2-2.2-0.4-4.5-0.6-6.8l-17.2 2c-2.8-0.4-3.6-2.5-3.8-4.9zm-387.8 23.6h-4.3v7.2h4.3zm-4 15.7c0.9-0.1 3.7 0.4 4.2-0.3 0.3-0.4 0.2-6.4-0.2-6.7-0.7-0.5-3.3 0-4.3-0.2zm243.5 178.5v-6.7c0-2-1.6-6.2-2.7-7.8-3.5-4.9-13.2-3.8-18.4-2.8-11.1 2.2-10.4 11.2-8.1 20.2l-27.3-1.3-0.6 6.6c3.3 0.6 8.6-0.1 7.7 4.9-0.5 2.8-3 2.4-5.3 2.3-1.6 0-7.3-0.7-8.3-1.5-1.3-1-1.1-3-1-4.6 0.1-2.2 2.3-16.2 1.8-16.9-3-0.5-6.3-0.8-9.4-1.1-0.3 0.2-0.5 2.4-0.6 3-0.6 4.5-1.4 10.5-1.7 15-0.2 4.8 0.6 8.5 5.3 10.5 3.1 1.4 15.9 3 19.5 2.8 3.2-0.1 7.3-1.6 8.8-4.7 0.1-0.3 0.9-2.5 0.9-2.7v-5c18.7 1.2 37.9-1.3 56-5.8 26.2-6.5 51.2-19.3 72.6-35.4 2.1-1.6 6.2-4.7 7-7.1 0.4-0.8 0.4-2.5 0.5-2.6 0.2-0.2 3.1-0.1 4.4-0.7 2.4-1.1 8.2-7.3 10.2-9.5 10.3-10.9 19.8-23.3 27.4-36.2 1.8-3 5.8-9.1 6.7-12.1 0.8-2.7-0.8-3.7-0.8-4.3 0.1-0.3 3-1.2 3.8-2.2 1.6-1.9 5.4-12 5.4-14.5-0.1-9-15.9-17-22.6-11.9-4.2 3.3-9 14.8-8.1 20 1.1 6.9 10 7.1 12.3 10.9 2.3 3.9-2.9 8-3.9 11.6-2.3-0.7-14.5-11.3-15.5-11.1-0.7 0.2-4.7 6.4-5.8 7.4l15.3 12c0.2 0.4-2 4.1-2.2 4.2-0.4 0.2-1-0.2-1.4-0.4l-14.8-11.3c-0.5 0-5 5.9-5.4 6.7-0.2 0.3-0.5 0.6-0.2 1.1l15.2 11.5c0.4 0.8-2.7 3.8-3.4 4.5l-15.7-11.8-5.4 7.1 0.4 1.1 14.3 11c-2.9 2.3-6 8.2-10.3 7.3-3.5-0.7-9.3-9.2-12-11.9l-0.8-0.4c-1.5 1.9-4.9 3.7-6.3 5.5-0.3 0.4-0.5 0.5-0.4 1.1 0.1 1 7.5 8.4 8.8 10.3 4 6.1-1.1 8.3-5.6 11.7-5 3.7-10.4 6.8-15.6 10.4l-8.1-17-8.7 3.9 7.8 17.5c0 0.7-3.9 2.9-4.7 2.1l-8.2-17.3-7.9 3.6-0.5 0.8 7.7 16.9c0.3 0.4 0.1 0.5-0.1 0.8-0.3 0.3-4.4 2.1-4.7 2-1.3-2-7.4-17.3-8.4-17.6-2.8 1-5.6 2.5-8.3 3.8l7.6 17.2c-9.4 2.5-18.6 5.4-28.3 6.9zm-188.3-76.8c-3.4-6.3-7.9-12.2-11.5-18.5-3.9-6.8-6.7-14.4-10.4-21.3l17.5-6.8-3.1-9.2-22.8 8.2c-3.5 0.6-5.7-2.2-6.6-5.2-1.1 0.3-5.6 1.3-5.7 2.5-0.1 1 2.9 7.6 3.7 8.7 1.1 1.9 3 3.6 5.1 4.1 1.3 0.2 3.8-0.2 4.5 0.4 3.8 7.1 7 14.9 10.9 21.9 12.4 22.1 30.4 43.4 50.1 59.2 2.8 2.2 15.8 12.3 18.4 12.4 0.6 0.1 1.9-0.4 2.1-0.3 0.1 0.1 0.4 1.8 0.8 2.3 1.3 1.7 13.8 8.3 16.3 9 5.9 1.7 10.8 0.2 13.5-5.5l10.1-22.5-8.9-4c-2.6 5.6-4.8 11.4-7.6 16.9-1.4 2.8-2.7 7.2-6.6 6.7-1.3-0.1-7.2-3.4-7.9-4.5-0.6-0.9-0.6-1.7-0.5-2.8 0.4-3.7 6.2-10 7.7-13.6 0.1-0.4 0.3-0.6 0.2-1-1.6-0.2-7.6-5.1-8.5-4.6-2.4 3.7-4.5 8.7-7.3 12-2.7 3.3-4 2.9-7.3 0.7-6.7-4.4-13.2-10.1-19.2-15.5l13.1-11.5c0.1-0.9-5.8-7.4-6.4-7.3l-13.3 11.6c-1.4 0.5-3.1-2.5-4.3-3.3l14.1-12.3-0.1-0.7-6.1-6.7-14.1 12.2-0.6 0.1c-0.2-1.1-3.3-3.4-2.9-4.2 0.2-0.3 1.3-1.3 1.7-1.7 3.7-3.5 7.9-6.7 11.6-10.4 0.1-0.4 0-0.7-0.1-1-0.3-0.7-4.1-4.4-5-5.3-0.8-0.9-0.2-1.6-1.9-0.3-3.6 2.6-7.5 7-11 10-0.3 0.2-1.6 1.2-1.6 1.1zm274.8 8.5c0.5-0.8-3.1-4-3.7-4.9-0.9 1.2-7.1 5.8-7 6.7 0 0.5 3.3 4.2 3.7 4.1 0 0 7-5.9 7-5.9zm-19.6 9c-0.5 0.9 3 4.1 3.8 4.8 0.8-1.1 7.1-5.8 7-6.7-0.1-0.3-3.2-3.5-3.8-4.1 0 0-7 5.9-7 6zm-13.5 11.1c-1.1 0.2-8.5 3.2-8.8 3.6-0.5 0.8 1.9 4.4 1.9 5.6 1.4-0.7 8.3-3.2 8.8-4 0.5-0.8-1.7-4.1-1.9-5.2zm-13.4 6.2c-0.8-0.6-7.7 3.5-9.2 3.6-0.2 0.3 1.9 5.2 2.3 5.4 0.4 0.3 0.5 0 0.9-0.1 0.7-0.2 7.5-3.3 7.8-3.6 0.6-0.9-2-4-1.8-5.3zm-132.6 5.9l-11.4 32.7 9 3.4 11.6-32.3c0-0.6-0.4-0.7-0.7-0.9-2.1-1.2-6.1-1.9-8.5-2.9zm111.6 9.5c0.4 0.4 7.9-3.4 9-3.9 0.2-0.2-1.9-5-2.1-5.1-0.4-0.3-8.5 3.4-8.7 3.8-0.6 0.8 2 4 1.8 5.2zm-31.5 0.3l-9.8 0.7 0.6 5.9 9.9-1-0.7-5.6zm-129.6 13.8c0-1.3 2.9-4.1 2.6-5l-8-5.1-3.1 5.2zm1.7 1.3c1.6 0.3 6.8 4.6 8 4.6 0.7 0 2.6-3.9 3-4.7l-8.3-5.2c-0.3 1.1-3.2 4.5-2.7 5.3z"/>
			<path class="s1" d="m275.6 432.4c9.6-1.4 18.9-4.3 28.3-6.8l-7.6-17.2c2.7-1.4 5.5-2.8 8.3-3.8 1 0.3 7.1 15.6 8.4 17.6 0.2 0.1 4.4-1.8 4.7-2 0.2-0.3 0.4-0.5 0.1-0.9l-7.7-16.9 0.5-0.7 7.9-3.6 8.2 17.3c0.8 0.8 4.7-1.4 4.7-2.1l-7.9-17.6 8.7-3.9 8.2 17c5.1-3.5 10.6-6.6 15.6-10.3 4.5-3.4 9.6-5.6 5.5-11.7-1.2-1.9-8.6-9.3-8.7-10.3-0.1-0.7 0.1-0.7 0.4-1.1 1.4-1.9 4.8-3.7 6.3-5.6l0.8 0.5c2.7 2.6 8.5 11.2 12 11.9 4.3 0.9 7.4-5 10.3-7.3l-14.3-11-0.4-1.1 5.4-7.1 15.7 11.8c0.7-0.7 3.8-3.8 3.4-4.5l-15.2-11.6c-0.3-0.4 0-0.7 0.2-1 0.4-0.8 4.9-6.8 5.4-6.8l14.8 11.3c0.4 0.3 1 0.7 1.4 0.4 0.2-0.1 2.4-3.7 2.2-4.2l-15.3-12c1.1-0.9 5.1-7.1 5.8-7.3 1-0.3 13.2 10.4 15.5 11.1 1-3.6 6.2-7.8 3.9-11.6-2.3-3.8-11.3-4-12.3-11-0.9-5.2 3.9-16.7 8.1-19.9 6.7-5.1 22.5 2.8 22.6 11.9 0 2.5-3.8 12.5-5.4 14.5-0.8 1-3.7 1.9-3.8 2.2 0 0.5 1.6 1.6 0.8 4.3-0.9 3-4.9 9.1-6.7 12.1-7.6 12.8-17.1 25.3-27.4 36.2-2 2.2-7.8 8.4-10.2 9.5-1.3 0.6-4.2 0.5-4.4 0.7 0 0.1-0.1 1.8-0.5 2.6-0.8 2.3-4.9 5.4-7 7-21.4 16.2-46.4 28.9-72.6 35.4-18.1 4.5-37.3 7-56 5.8v5.1c0 0.2-0.8 2.3-0.9 2.7-1.5 3-5.6 4.5-8.8 4.7-3.6 0.1-16.4-1.5-19.5-2.8-4.7-2-5.5-5.8-5.3-10.5 0.3-4.5 1.1-10.5 1.7-15 0.1-0.7 0.3-2.8 0.6-3.1 3.1 0.3 6.4 0.6 9.4 1.2 0.5 0.7-1.7 14.6-1.8 16.9-0.1 1.5-0.4 3.6 1 4.6 1 0.8 6.7 1.4 8.3 1.5 2.3 0.1 4.8 0.5 5.3-2.3 0.9-5-4.4-4.3-7.7-5l0.6-6.5 27.3 1.3c-2.3-9-3-18.1 8.1-20.2 5.2-1.1 14.9-2.1 18.4 2.7 1.1 1.6 2.7 5.9 2.7 7.8v6.8zm135-123.7c-2.5 0.6-4.5 5.5-3.3 7.8 0.9 1.7 5.4 3.7 7.2 4 3.8 0.4 6.5-4.9 5-8-1-2.1-6.6-4.3-8.9-3.8zm-154 124.5c2.1 2 7.2 1.4 8.6-1.2 1-1.8 0.5-6.3-0.3-8.2-1.5-3.2-7.8-2.9-9.3-0.1-1.1 2-0.6 7.9 1 9.5z"/>
			<path class="s1" d="m230.9 89.7c108.1-5.5 188 98.5 151.6 201.4-40.2 113.9-192.8 136.1-264.3 38.4-70.1-95.8-5.5-233.8 112.8-239.8zm7.8 4.3c-112.1 1.1-181.8 123.8-124.5 220.8 53.7 90.9 183.9 96.5 245.3 10.5 69.4-97.5-1.8-232.6-120.8-231.3z"/>
			<path class="s1" d="m87.3 355.7c0.1 0 1.4-0.9 1.7-1.2 3.5-3 7.4-7.4 11-10 1.7-1.2 1.1-0.5 1.9 0.4 0.8 0.8 4.6 4.5 4.9 5.2 0.2 0.4 0.3 0.7 0.2 1.1-3.7 3.7-7.9 6.8-11.7 10.4-0.3 0.3-1.5 1.3-1.6 1.6-0.4 0.8 2.7 3.1 2.8 4.3l0.7-0.1 14.1-12.2 6 6.7 0.2 0.7-14.1 12.3c1.1 0.8 2.9 3.7 4.3 3.3l13.3-11.6c0.6-0.1 6.5 6.4 6.4 7.3l-13.2 11.5c6.1 5.3 12.5 11.1 19.3 15.5 3.3 2.2 4.5 2.5 7.3-0.8 2.7-3.3 4.9-8.3 7.3-11.9 0.9-0.5 6.9 4.3 8.4 4.6 0.1 0.3 0 0.6-0.1 0.9-1.5 3.6-7.3 9.9-7.7 13.6-0.2 1.1-0.1 1.9 0.5 2.8 0.7 1.2 6.5 4.5 7.9 4.6 3.8 0.4 5.2-3.9 6.6-6.8 2.8-5.5 5-11.2 7.6-16.8l8.9 3.9-10.1 22.6c-2.7 5.7-7.6 7.1-13.5 5.5-2.5-0.7-15-7.3-16.3-9-0.4-0.6-0.7-2.3-0.8-2.3-0.2-0.2-1.5 0.3-2.1 0.3-2.6-0.2-15.6-10.2-18.4-12.5-19.8-15.8-37.8-37.1-50.1-59.1-3.9-7.1-7.1-14.8-10.9-21.9-0.7-0.6-3.2-0.2-4.5-0.5-2.2-0.4-4-2.2-5.2-4-0.7-1.2-3.8-7.8-3.6-8.8 0.1-1.2 4.5-2.2 5.7-2.5 0.9 3 3 5.9 6.5 5.3l22.9-8.2 3.1 9.2-17.6 6.7c3.8 7 6.6 14.5 10.5 21.4 3.5 6.3 8 12.1 11.5 18.5z"/>
			<path class="s1" d="m274 35.8c-0.9 5.4-1.1 11.2-2 16.5-1.1 6.4-3.2 7.7-9.6 7.5-5.2-0.3-11.2-0.6-16.4-1-1.8-0.2-4.4-1.1-5.9-1-11 0.3-27.7 3.1-38.7 5.3-13.5 2.7-24.3 8-36.9 12.7-3.8 1.4-6.7 1.5-9.4-2l-8.3-16.9c-0.1-0.4 0.2-0.5 0.4-0.7 1.5-1 4.4-1.8 6.1-2.7q0.2 1.1 0.7 2.1c1.5 3.2 4.8 11.1 6.7 13.3 1.2 1.5 2.3 1.6 4.1 1.3 3-0.6 8.5-3.6 11.7-4.8 8.2-3 16.8-5.3 25.3-7.3l-1.9-14.4 6.9-1 2.1 14 3.4-0.8-1.6-13.9 6.9-0.6 1.8 13.5c0.3 0.5 3.6-0.3 3.7-0.4 0.4-0.6-2-12-1.9-13.8 1.1-0.1 6.3-1.3 6.9-0.8l1.9 13.6c8.8 1.4 5.5-5.2 7.7-9.9 1-2.2 2.8-3.3 5.1-3.8 2.9-0.6 8.3-0.5 11.1 0.5 5.5 1.9 5.2 9.2 4 13.9 2.7 0.7 6.2 0.8 6.9-2.5l2.1-16.2c0.6-0.9 5.8 0.6 7.1 0.3zm-27.6 8.9c-2.8 0.6-2.9 4.3-2.4 6.5 0.7 3.4 6 3.6 7.1 0.5 1.3-3.9 0.2-8-4.7-7z"/>
			<path class="s1" d="m325.2 72.9l14.2 7.3c2.3 0.9 3.4-0.4 4.7-2 2.8-3.4 5.3-8.4 7.9-12.1 0.5-0.8 0-1.5 1.4-0.9 0.3 0.1 4.4 2.7 4.6 2.9 0.3 0.3 0.4 0.6 0.3 1l-8.5 13.8c-0.4 0.9-0.5 1.9-0.3 2.9 0.5 1.9 9.8 8 11.9 9.7 7.7 6.3 14.7 13.4 21.7 20.3 1.7 0.5 3.4-1.4 3.1-3-0.3-1.7-8-7.5-8.7-10.4-1.1-4.1 2.5-8.2 6.6-8.2 3.8 0 10.5 6.5 14.1 8.2 0.4 0.4 0 0.6-0.2 0.9-0.4 0.5-3.4 3.4-3.8 3.4l-8-5.4c-1.7-0.7-3 0.2-2 2 1.1 1.9 5.7 5.4 7.2 7.5 3.2 4.4 0.5 8.4-3.2 11.1 2.7 2.8 3.3 4.3 7.1 2 4.4-2.6 8.4-6.9 12.7-9.7l4.1 5.7-15.3 11.7c-3.8 1.8-6.4 0.3-9-2.4-9.6-10.3-18.7-21.2-29.7-30-4.1-3.4-9-6.3-13.1-9.6-0.7-0.5-2-2.4-2.2-2.5-0.4-0.2-1.8-0.4-2.7-0.8-1.9-0.9-3.6-2.1-5.4-3.2-1 4-3.2 6.6-7.7 6.2-2.3-0.3-12.2-5.1-14-6.7-6.1-5.5 2.6-14.3 4.3-20.2 0.4-0.3 6.4 2.7 6.5 3.1l-6 12.3c-1.4 2.4 7 5.8 8.2 5.6 0.8-0.1 1.7-1.3 1.8-2.2 0.3-2.7-3.1-2.8-4.6-4.2l2-4.1z"/>
			<path class="s1" d="m90.4 136.3c-0.8 1.1-2.6 4.9-3.7 6.7-4.3 7.1-8.2 14.3-12.1 21.6-0.2 1 1.2 1.5 1.9 2.3 4.5 4.9-2.1 12.8-3.3 18.2l-4.3-1.9c0.5-2.6 4.1-8 3.6-10.3-0.1-0.5-0.4-0.9-0.8-1.3-2.7 5.6-2.6 11.5-10.7 9.7-4.3-0.9-10.2-3.9-9.8-9.1 0.2-1.8 3-8.5 3.9-10.3 0.8-1.5 1.7-3.2 3.7-3 2.7 0.2 7.6 3.4 10.4 4.2l0.7-0.1 6.2-11.6c1.3-2.3 7.7-11.9 7.5-13.6-0.3-3.5-9.7-8-9.8-8.7-0.2-1.3 3.3-4.5 3.7-6 0.5-0.4 8 6.3 10.3 6.5 3.5 0.4 7.3-5 4.3-7.8l-12.7-10.7 4.5-5.4c0.4 0.6 1 0.9 1.6 1.3 3.6 2.8 8.7 6.9 12 10 2.1 2.1 3.1 3.7 2.5 6.8-0.3 2.1-5.9 9.2-7.7 11-0.4 0.6-1.7 1.1-2 1.5zm-31 30.5c-1.2 0.2-2 3.2-1.8 4.3 0.4 2 6.1 4.1 7.8 2.7 0.5-0.5 1.9-3.5 1.5-4.1-0.2-0.4-7.1-3-7.5-2.9z"/>
			<path class="s1" d="m38.1 236.9l13.8-0.3c0.1-0.2-0.1-2.2 0-2.8 0.8-3.4 0.8-7 1.3-10.8 0.5-4.3 1.8-9.3 2-13.5 0.2-5.7-9-4.9-12.8-6.4l1.3-6.9c0.5-0.3 9.6 2.5 12.2 1.9 2.5-0.5 4-6.3 1.9-7.9-1.9-1.9-16.2-4.7-16.9-5.8-0.6-0.9 1.7-5.1 1.5-6.5 0.3-0.3 7.1 1.9 8.1 2.2 3.4 1 11.5 2.8 13.3 5.7 2.1 3.6-0.4 10.1-1.6 14-2 6.9-3.1 15.2-4 22.5-0.5 4.3-1 8.9-1.4 13.1-0.4 4.8 1.5 13.4-0.2 17.5-0.7 1.6-1.9 2.5-3.5 3.1-2.4 0.9-7.5 1.1-10.1 0.5-1.4-0.4-2.7-1.2-3.5-2.4-0.3-0.5-1.4-2.8-1.4-3.2v-14zm14.1 6.9h-9.2c-0.1 3.6-0.3 5.7 3.8 5.9 4.9 0.3 5.8-1.1 5.4-5.9z"/>
			<path class="s1" d="m414.8 162.8c1.2 4.3 3.5 8.4 5.1 12.7 3.7 9.7 6.1 19.6 8.8 29.6 1 1.2 4 0.4 4.4-0.9 0.4-1.6-2.7-9.7-2.6-12.4 0.1-5.8 8.2-7.6 11.6-3.4 1.3 1.5 5.6 10.4 6.3 12.4 0.1 0.4 0.2 0.7 0.1 1l-5.6 1.2c-1.2-0.7-3.2-9.2-5.5-9.9-1.1 0-1.4 0.6-1.3 1.6 0.3 5.5 6 14-1.7 17.1-4.9 2-8.4 1.2-10.1-3.9-4.8-13.7-6.4-28.6-13.7-41.9-0.8-1.6-1.6-0.3-3.2-0.3-2.1-0.1-3.9-1.6-5.1-3.1-0.5-0.7-2.9-4.7-3-5.3 0-0.6 3.6-2.4 3.8-2.3 0.2 0 1.3 2 2 2.5 1 0.7 2.2 0.9 3.4 0.5l15.3-7.6c0.3 0 3 5.4 3 6.3-0.2 0.6-10.6 5.4-12.1 6.1z"/>
			<path class="s1" d="m143.1 58.8l9.1 16.6c1.8 5.7-2.3 8.1-6.6 10.4-0.4 0.2-0.9 0-1.5 0.3-6.5 3.2-13.9 11.6-20.6 15.3-3.7 2-6.2 1.4-9.1-1.6-0.7-0.7-4.1-5.1-4.1-5.8 0-0.8 4.5-3.6 5.4-4.4 1.8 1.9 4 6.7 6.8 6.2 2.5-0.5 9.3-7.2 12.1-8.7l-11.7-16.5 5.6-3.9 11.7 15.7c0.8 0.4 1.7-0.9 2.3-1.1 0.4-0.2 0.9 0.1 1.3 0 0.7-0.3 1.5-2.1 1.5-2.9-0.1-3.7-7.1-12.2-8.4-16.2-0.1-0.6 0.1-0.4 0.4-0.6 0.9-0.4 5.3-3.1 5.8-2.8z"/>
			<path class="s1" d="m423.9 214.6c0.3 2.5 1.1 4.6 3.8 4.9l17.2-1.9c0.2 2.2 0.8 4.5 0.7 6.8l-13.8 1.7c0.2 1.7 0.1 4.9 1.7 6 2.9 2.2 8.3-0.9 11.6 3.5 2.3 3 2.6 12.9 0.6 16-2.5 3.7-11.5 4-14.9 1.9-3.3-2.2-3.6-9.3-3.3-12.8 0.2-1.1 1-3.2 0.9-3.9 0-1-1-3.2-1.1-4.7-0.2-1.2 0.3-4.9-0.7-5.4-0.8-0.4-2.3-0.3-3.4-1-2.3-1.3-3.4-5.9-3.5-8.3-0.3-3.7 1.4-2.1 4.2-2.8zm11.4 25.7c-3.4 0.6-3.3 5.9-0.9 6.9 2.9 1.3 7.5 0.5 7.6-3.2 0.1-4.1-3.6-4.3-6.7-3.7z"/>
			<path class="s1" d="m299.8 70.8c-4.2 4.2-12.9-0.7-17.9-1.6-0.4-0.6 0.8-3.6 1-4.5 2.2 0.3 9.1 3.2 10.8 2.4 0.3-0.1 0.6-0.7 1-1-6-2-11.6-1.2-10.8-9.4 0.4-4 2.4-10.1 7-10.7 2.4-0.3 8.5 1.6 11 2.4 2.2 0.8 4.1 1.3 3.9 4.2-0.3 2.9-2.8 10.6-3.8 13.6-0.6 1.6-1 3.4-2.2 4.6zm-3.5-9.7c-0.1-2.9 4-8.2-0.3-9.1-2.3-0.5-3.2 0.1-4.1 2.2-2 4.7-0.5 6.5 4.4 6.9z"/>
			<path class="s1" d="m183.1 396.4c2.3 1 6.4 1.7 8.5 2.8 0.3 0.3 0.7 0.4 0.7 0.9l-11.7 32.3-8.9-3.4z"/>
			<path fill-rule="evenodd" class="s1" d="m284.8 37.8l-4.2 24.6-6.9-1 4.2-24.6 6.9 1z"/>
			<path class="s1" d="m397.7 143.1c-0.5-1.7-3-3.8-3.5-5.3-0.1-0.4-0.2-0.5 0.2-0.8 2.5-1.3 19.3-14 20.3-13.5 0.4 0.2 3.9 4.9 3.5 5.8 0 0-20.5 13.8-20.5 13.8z"/>
			<path class="s1" d="m91.4 97.5l18.2 16.9-4.2 4.9-0.5 0.2c-6.1-5.2-11.8-11-17.8-16.4-0.2-0.4-0.1-0.6 0-1 0.3-0.5 4-4.6 4.3-4.6z"/>
			<path class="s1" d="m122.7 78.4c-0.1 0.2-2.9 2-3.6 2.5-0.3 0.3-0.8 0-0.6 0.8 2.1 0 4.3-2.2 6.3-1.5 1.2 0.3 2.4 2.4 2.2 3.6-0.1 1-6.2 5.5-6.7 5.4-0.2 0-1-0.8-1.1-1.1-0.5-1.9 5.1-4 4.2-4.7-2.7 0.3-5.2 3.2-7.5 0.4-0.9-1.1-1.3-2.4-0.3-3.6 0.3-0.3 5.1-3.9 5.4-4 0.9-0.3 2 1.7 1.7 2.2z"/>
			<path class="s1" d="m315.6 390.5c-0.1 1.2 2.5 4.3 1.9 5.2-0.3 0.4-7.1 3.4-7.8 3.7-0.4 0.1-0.5 0.4-0.9 0.1-0.4-0.2-2.5-5.1-2.3-5.4 1.5-0.1 8.4-4.3 9.1-3.6z"/>
			<path class="s1" d="m135.3 421.3c-0.5-0.8 2.4-4.2 2.7-5.3l8.3 5.2c-0.4 0.8-2.3 4.7-3 4.7-1.2 0-6.4-4.3-8-4.7z"/>
			<path class="s1" d="m362.2 364.2l-7.1 5.9c-0.3 0.1-3.6-3.6-3.6-4.1-0.1-1 6.1-5.6 7-6.7 0.6 0.9 4.2 4.1 3.7 4.9z"/>
			<path fill-rule="evenodd" class="s1" d="m263.2 406.2l0.6 5.6-9.8 0.9-0.7-5.8 9.9-0.7z"/>
			<path class="s1" d="m294.7 405.9c0.1-1.3-2.4-4.4-1.9-5.3 0.3-0.4 8.4-4.1 8.8-3.8 0.2 0.2 2.3 4.9 2.1 5.2-1.1 0.5-8.6 4.2-9 3.9z"/>
			<path class="s1" d="m133.6 420l-8.5-4.9 3.1-5.3 8 5.1c0.3 1-2.6 3.8-2.6 5.1z"/>
			<path class="s1" d="m342.6 373.1l7-5.9c0.6 0.5 3.7 3.8 3.8 4.1 0.1 0.8-6.3 5.6-7.1 6.7-0.7-0.8-4.2-3.9-3.7-4.9z"/>
			<path class="s1" d="m329.1 384.2c0.2 1.2 2.4 4.4 1.8 5.3-0.5 0.7-7.4 3.2-8.7 3.9 0-1.2-2.4-4.7-1.9-5.5 0.3-0.4 7.7-3.4 8.8-3.7z"/>
			<path class="s1" d="m32.2 254l-0.3-7.2c0.9 0.1 3.6-0.4 4.3 0.1 0.4 0.3 0.5 6.3 0.1 6.8-0.4 0.6-3.2 0.1-4.1 0.3z"/>
			<path fill-rule="evenodd" class="s1" d="m31.9 238.2h4.2v7.3h-4.2z"/>
			<path class="s1" d="m66 212.6c-0.8-0.2-4.1-0.5-4.2-1.1 0.4-1 1-6.5 1.7-6.7 0.3-0.1 3.6 0.8 3.8 1.2 0.3 1-1.4 5.2-1.3 6.6z"/>
			<path class="s1" d="m63.7 203.4c-0.3-0.5 1.4-5.8 1.3-6.8 0.2-0.2 3.9 0.6 4.1 0.9 0.3 0.3-1.1 5.9-1.4 6.8-0.2 0.1-3.9-0.7-4-0.9z"/>
			<path class="s1" d="m91 141.4c-0.6-1 3.3-4.9 3.5-6.2 0.3-0.1 3.6 2.2 3.6 2.5 0.1 0.5-3.4 4.8-3.9 5.6-0.2 0.1-3.1-1.7-3.2-1.9z"/>
			<path class="s1" d="m425.6 149.3c1 0 3.2-1.9 3.9-1.5 0.4 0.2 3 5.8 2.8 6.1-0.1 0.2-3.2 2-3.5 1.8 0 0-3.2-6.4-3.2-6.4z"/>
			<path class="s0" d="m256.7 433.3c-1.6-1.6-2.2-7.5-1-9.5 1.5-2.8 7.8-3.1 9.3 0.1 0.8 1.9 1.3 6.4 0.3 8.2-1.5 2.6-6.5 3.2-8.6 1.2z"/>
			<path class="s0" d="m410.7 308.8c2.3-0.5 7.8 1.6 8.9 3.8 1.5 3.1-1.2 8.4-5 7.9-1.9-0.2-6.3-2.2-7.2-3.9-1.2-2.3 0.8-7.2 3.3-7.8z"/>
			<path class="s0" d="m238.8 94c119-1.3 190.2 133.8 120.8 231.3-61.4 86-191.6 80.4-245.3-10.5-57.3-97 12.4-219.7 124.5-220.8zm-2.3 10.1c-108.4 3.4-170.6 126.8-106.8 215.6 61.2 85.2 191.9 71.9 234.9-23.5 41.2-91.4-28.3-195.2-128.1-192.1z"/>
			<path class="s0" d="m246.3 44.7c4.9-1 6 3.1 4.7 7-1 3.1-6.3 2.9-7-0.5-0.5-2.2-0.4-5.9 2.3-6.5z"/>
			<path class="s0" d="m59.3 166.8c0.4-0.1 7.3 2.5 7.5 2.8 0.5 0.6-0.9 3.7-1.5 4.1-1.7 1.5-7.3-0.6-7.8-2.6-0.2-1.1 0.6-4.1 1.8-4.3z"/>
			<path class="s0" d="m52.2 243.8c0.4 4.8-0.6 6.2-5.4 5.9-4.1-0.3-3.9-2.3-3.8-5.9z"/>
			<path class="s0" d="m435.3 240.3c3.1-0.6 6.8-0.4 6.7 3.7-0.1 3.8-4.8 4.5-7.6 3.2-2.4-1.1-2.5-6.3 0.9-6.9z"/>
			<path class="s0" d="m296.3 61.1c-4.9-0.4-6.4-2.2-4.4-6.9 0.9-2.1 1.8-2.7 4.1-2.2 4.3 0.9 0.1 6.2 0.3 9.1z"/>
			<path class="s0" d="m277.6 155.2c-7.6 1.5-14.7 3.3-21.6 6.9-24.9 13-44.8 43.3-45 71.7-0.2 22.9 17.3 62.2 40.7 69.7h-87.8c-3.1-0.1-5.5-3-5.7-6v-136.8c0.5-3 2.7-5.1 5.7-5.5 37.9 0.3 75.8-0.3 113.7 0zm-91 13.2h-15c-0.3 2 0.2 1.3 1 1.8 0.9 0.6 1.4 1.4 1.3 2.6-0.6 7.3 0.8 15.8 0 22.9-0.1 0.7-0.2 1.5-0.6 2-0.8 1-2.1 0.4-1.7 2.1h15.4c0.5-1.7-0.8-1.1-1.6-2.1-1.5-1.8-0.2-11-0.7-13.7 1.9-2.3 3.8 1.4 4.9 3 1.4 2 5.3 8.9 3.7 11.1-0.4 0.5-1.4 0.2-1 1.8h15.7c0.4-1.7-0.7-1.4-1.8-2.3-2.2-2.1-3.3-7.2-4.7-10.1-1.9-4.1-4.5-7.8-7.9-10.8 3.3-3.2 7.4-6.5 12.1-6.7 0-0.5 0.2-1.2-0.3-1.5-0.6-0.4-13.6-0.3-14.1 0.2 0 0.1-0.1 1.1 0 1.2 0.3 0.3 2.1 0.2 1.5 2-0.8 2.2-6.4 6.1-8.1 7.9v-8c0-1.2 2.2-1.7 2.3-1.8 0.2-0.3 0-1.5-0.5-1.7zm0.9 47h-17.4c-0.3 1.7 1.5 1 2.4 1.9 0.4 0.4 0.7 1.6 0.8 2.2 0.9 6.4-2 15.6 0 21.7 2.3 7.1 14.9 6.9 20.7 5.2 10.6-3.2 7.2-13 6.9-21.3-0.1-2.5-0.6-6.5 1.7-7.9 1.3-0.8 2.3 0.1 1.9-1.8h-12.1c-0.5 1.8 1.3 1.2 2.5 2.3 1.7 1.6 1.9 7.2 2.1 9.6 0.2 3.4 0.7 8.9-0.3 12-1.8 5.9-12.3 5.5-13.1-0.8-0.6-4.2-0.2-13.4 0.3-17.7 0.2-1.4 0.6-2.9 1.9-3.6 1.1-0.7 2 0 1.7-1.8zm13.4 45.9c-4.1 1.4-8.2 0-12.3 0-6.8 0-14.8 2.4-17.1 9.5-2.9 9.7 2.1 19.5 11.8 22.4 6 1.9 10.1 0.3 15.8 0.2 0.7 0 2.7 0.7 3.1 0.4 0.4-0.4 3-8.9 3.6-10.2-1.8-0.7-2 1.3-3.1 2.7-4.2 5-12.4 4.8-16.9 0.1-4.4-4.7-5.5-14.9 0.4-19 3.9-2.7 9.1-1.6 12.3 1.8 0.9 1 3 4.8 3.9 4.9 0.2 0 1.1-0.3 1.1-0.3 0.4-0.6-2.7-10.9-2.6-12.5z"/>
			<path class="s2" d="m291.1 182.1c-0.1-0.1-0.2-0.3-0.4-0.6 0.3 0.3 0.3 0.6 0.4 0.6z"/>
			<path class="s2" d="m290.7 181.5c-0.7-0.9-0.3-0.7-0.6-1.3 0.8 0.2 0.5 0.8 0.6 1.3z"/>
			<path class="s2" d="m277.6 155.2c11.2 0.1 19.3-0.7 28.8 6.5 13.3 9.9 16.8 25.4 6.3 39-4.8 6.1-12.4 8.9-18.4 13.6 32.9 9.4 30 51.7 25.2 78.5-2 11-5.7 21.5-6.8 32.7h-2.9c1.7-16.8 4.3-35.4-1.4-51.7-3.7-10.8-12.1-20.9-24.6-20.5 9.8 12.9 14.4 28.8 2.5 42-8.1 9-23.3 11.8-34.6 8.2-23.4-7.5-40.9-46.8-40.7-69.7 0.2-28.5 20.1-58.7 45.1-71.8 6.8-3.5 13.9-5.4 21.5-6.8zm-32.5 108.9c0-0.5-0.2-2.6 0.5-2.6 0.8 0 1.6 4.8 2.5 5.3 1.2-5.6 6.1-13 12.3-13.5 7.6-0.5 6 10.7 4.5 15.4-0.7 2.2-2 4.1-2.7 6.3 0.2 0.2 3.6-1.9 5.2-1.2 0.6 0.3 0.9 1.2 1.6 1.4 0.6 0.2 1.7-0.2 2.4 0.1-0.5 3.7 0.2 8.5 1.2 12.1 0.2 0.9 1.1 4.4 2.5 4 2.3-0.8-0.3-8.6-1-10.2-0.6-1.6-2.2-3-1.4-4.6l5.6 10.3c5.5 5.1 2.5-2.2 0.9-4.8-1.2-1.8-2.8-3.2-4.2-4.7 0.2-0.3 0.8 0 0.6-0.6-4.9-12.7-0.6-29.6 16.4-23.9 14 4.7 19.9 21.7 21.6 35.1 0.9 6.3 0.5 12.1 0.7 18.3 0.1 0.4-0.2 1.2 0.4 1.1 1.5-7.2 3.5-14.3 4.7-21.6 4.2-23.6 0.7-51.9-20.2-66.7-4.5-3.3-11.6-3.6-12.1-10.6-0.7-9.1 8.9-16.9 15.1-22.1h-5.1c-0.2 0-2.2-2.3-2.6-2.7-0.2-0.2-0.2-0.6-0.2-0.6-0.1-0.1-1 1.2-1.3 0.2-0.3-1.2 0.5-1 0.8-1.9 0.8-2.5 2.1-10.4 1.8-12.9-0.4-3.7-2.2-2-3.1 0.5-0.6 2-0.6 4.9-0.5 7 0.1 1.3 1.1 4.9 1 5.6 0 0.1-1.2 0.6-0.7 1.8-0.9 0.1-1-0.7-1.3-1.3 0.1 0.1 0.8 0.2 0.7-0.2 0.3-2-1.1-10.9-1.9-12.8-0.6-1.3-2.4-3.5-2.7-0.9-0.5 4.1 1.4 8.3 2.9 12-0.1-0.1-0.7-0.2-0.6 0.2-0.7 5.6-3.7 14.1-8.8 17.1-2 1.2-3.6 1.1-5.7 0-4.4-2.2-4.8-11.4-5.2-15.7-1.7 0.3-2.2 3.1-3.9 3.3 1.5-2.6 8.5-9.7 8.5-12 0-3.2-3.1 0-3.9 1-2.6 2.8-4.5 7.3-5.3 11 0.2 0 0.5 0 0.7 0-0.3 0.4-0.4 1-0.9 1.3-0.3-1.3-1-0.8-0.8 0.3l-0.6-1c-1.4 0.2-2.9 2.2-4 0.5-0.1-0.3 0.8 0 0.7-0.3-0.2-0.6-5.7-7-6.6-7.9-0.6-0.6-4.1-3.7-4.9-3.1-0.9 3.6 3.8 7 6.5 8.7 0.8 0.5 4.2 2 4.3 2.2 0 0-0.3 0.5-0.1 0.9 0.2 0.4 1 0.6 0.8 1.3l-3 0.2c6 4.7 11.3 11.9 10.2 20-0.8 6-7.1 2.8-10.3 0.8-4.1-2.7-7.8-6.7-11.7-9.8-0.2 1.2 1.7 4.4 1.7 5.1 0 0.1-0.9 1.8-1.1 2.2-0.1 0.2-0.5 0.2-0.6 0.5 0 0.1 0 2 0 2.1 0.1 0.4 0.8 0 0.6 1-0.4 1.7-2.2 2.2-2.2 3.8h6.7c2.8 0 8 5.3 7.1 8.1-1.1 4-9.3 4.9-12.7 5.3-3.5 0.5-6.7 0.6-10 0.7-0.4 0.4 1.5 1.8 0.2 1.7-1.9-1.6-8.2-9.1-10.5-8.9-0.4 0.1-1 0.5-1.1 0.9-0.3 1.4 4.1 5 5.2 5.8 1.1 0.7 6.1 3.6 7.1 3.8 0.8 0.2 0.3-0.8 0.4-1 1.2 0.7 0.6 2.6 0.7 3.8 0.2 1.2 1.4 1.8 0 3.1l1.6-0.6-0.3 4.2c5.5-7.1 18.9-9.7 13.6 4-1.8 4.7-6 9.1-10.5 11.4-0.8 0.5-3.3 0.7-3.1 1.7-2.9-0.2-5.8-1.1-8.7-1.3-1.2-0.1-6.4-0.3-4.3 2 2.4 2.4 12 1.1 15.3 0.6 0.3-1.3-2.1-0.2-2.3-1.3 0.8 0.1 2.5-0.2 3 0.1 0.3 0.2 0.2 0.9 0.4 1.1 0.4 0.4 2.6 2.5 2.7 2.7 0.4 0.9-0.4 2.6 0.8 2.3-0.1 2.9-0.4 7.3-0.3 10 0.1 2.9 2.8 7.2 3.3 2.3 0.3-3.3-0.3-9.5-1.9-12.5-0.2-0.3-0.4-0.7-0.8-0.8 0 0.4 0.3 0.9-0.3 1zm49.9-81.3c1.7-3.3 4.5-6.6 5.9-10 2.3-5.3-0.4-5.2-2.9-1.3-1.6 2.5-3.3 7.8-3.6 10.8-0.1 0.7 0 0.5 0.6 0.5zm-32.2 2.3c-0.4-4.1 0.8-8.3 0.4-12.3-0.3-2.8-2.6-4.8-3.2-1.3-0.7 3.7 0.5 9.5 2.1 12.9 0.2 0.4-0.2 0.9 0.7 0.7zm1.3-0.4c0.7-1.8 6.7-13.9 3.8-14.7-0.8-0.1-1.7 0.9-2.1 1.4-1.5 2.2-2.6 10.2-2.3 12.8 0 0.5 0.2 1 0.6 0.5zm-2.6 1c-0.9-3.5-2-7.8-3.5-11-0.4-0.8-2.4-4.1-3.4-3.4-1 5.2 3.3 11 6.9 14.4zm34.1-2.3l9.1-6.5c0.8-0.8 3.1-3.2 2.3-4.3-1-1.5-5.7 2.7-6.6 3.6-0.7 0.7-5.3 6.7-4.8 7.2zm1 1c4.5-1.8 11.7-1.7 14.1-6.4-0.7-3.2-10.2 2.8-11.6 3.8-0.3 0.3-2.9 2.2-2.5 2.6zm-37.7 3.3c0.1-0.7-0.6-1.1-1-1.5-1.7-1.3-9-5.6-11-5.7-5.8-0.5 1.8 4.1 3.3 4.8 2.8 1.3 5.8 1.6 8.7 2.4zm38.4-2h12.6c1 0 3.8-0.8 3-2.3-1.4-2.5-11.2 0.1-13.6 0.9-0.7 0.3-2.1 0.4-2 1.4zm-51.2 18.1c-1.4-3.8-2.6-7.9-4.5-11.4-0.8-1.3-1.6-3.3-3.4-2.6-0.3 0.2-0.3 0.7-0.3 1-0.2 3.3 4.8 10 7 12.3 0.4 0.4 0.6 0.8 1.2 0.7zm-1 0.9c0.2-0.2-1.1-1.8-1.3-2.1-1.6-2-6.3-8.3-8.8-8.6-0.8-0.1-1.4 0.5-1.3 1.3 0.3 3.1 8.4 8.6 11.4 9.4zm-0.3 0.7c-3.8-1-9.5-6.7-13.3-6.3-0.5 0.1-0.9 0.1-1.1 0.6-0.7 2.2 7.3 5.2 9.1 5.6 1.2 0.3 3.2 0.7 4.5 0.8 0.7 0 0.9 0.1 0.8-0.7zm0 1.6c-2-0.6-15.2-3.1-15.8-1.1-0.2 0.9 1.1 1.6 1.8 1.9 3.5 1.4 7.8 0.6 11.4 0.1l2.6-0.8zm-0.3 1.3c-3.8 0.7-8.1 1.2-11.7 2.6-1.6 0.6-5.7 2.8-1.6 3.3 4 0.4 10.5-3.1 13.3-5.9zm0.6 1.6c-0.4-0.4-9.4 5.2-10.1 5.8-1.4 1-4.2 4.9-0.7 3.9 3.3-1 7.7-5.2 9.8-7.9 0.2-0.3 1.3-1.5 1-1.8zm-9.2 22c-3.9-1.4-8.9-5.8-13.3-5.3-1.3 0.2-1.4 0.7-0.7 1.8 1.4 2.5 10.1 3.9 12.9 4.1 0.7 0.1 1.3 0.3 1.1-0.6zm0 1.3c-4.2 0.3-11.3-2.6-15-0.4-1.5 0.9 0.6 2 1.6 2.2 3.6 0.8 7.6 0.5 11.2-0.6 0.2-0.1 3-0.6 2.2-1.2zm-14.1 7.2c5.3 1.3 11-2.4 14.8-5.7-3 0.4-12.9 2.2-14.5 4.5-0.2 0.4-0.4 0.7-0.3 1.2zm3.3 6.2c0.8 0.1 1.5 0.1 2.3-0.1 3-0.7 8.5-7.7 9.5-10.7-2.9 1.9-6 3.8-8.5 6.1-0.7 0.6-4.2 3.8-3.3 4.7zm13.1-9.1c-0.3-0.4-1.4 0.8-1.6 1.1-1.7 2-6.2 8.2-6.5 10.6-0.2 1.4 0.4 2.4 1.7 1.4 0.5-0.4 3-3.8 3.4-4.5 1.5-2.6 2.2-5.8 3-8.7zm3 22.4c-3.1 0.6-12.4 0.4-14.5 2.7-1.3 1.5 0.5 2.4 1.9 2.5 3.1 0.1 10.3-3 12.6-5.2zm-1.7 4.9c-0.2-1.7 2.5-2.3 2.2-4-3.3 2.2-8.1 3.6-11.1 6-1.1 0.9-3 3.1-0.7 3.5 2.2 0.3 8.5-5.3 9-4.9 0.1 0.7-0.4 0.8-0.7 1.2-1.6 1.9-3.2 3.2-4.2 5.6-0.4 1.1-1.4 2.8 0.6 2.3 2.3-0.6 5.2-4.9 6.2-7 0.9-1.7 1.8-3.8 2-5.7 0 0-3.2 3-3.3 3zm4.6-2c-0.7-0.1-0.5 0-0.7 0.4-0.6 1.2-1.4 3.6-1.9 5-1.1 3.1-2.2 6.3-2 9.7 2.1 0.2 3.2-2.3 3.7-4 0.3-0.7 0.9-3.5 0.9-4v-7.1zm23.2 12.2c-2.6 2.1-10 5.7-11.2 8.8-0.5 1.5 0 2.3 1.6 1.9 2.9-0.6 8.8-7.7 9.6-10.7zm1.5 0.6c-0.7-0.1-0.8 0.4-1.1 0.8-1.4 1.8-6.5 9-6.8 10.9-0.2 1.5-0.4 2.6 1.4 2 2.7-0.9 6.3-10.7 6.5-13.7zm1.3 0c-0.8 0.4-0.9 1.6-1.2 2.3-0.8 2.8-2.5 9.4-2.1 12 0.4 2.2 1.5 1.6 2.4 0.1 2.3-4 1.3-10 0.9-14.4z"/>
			<path class="s1" d="m186.6 168.3c0.4 0.2 0.7 1.4 0.4 1.7-0.1 0.1-2.2 0.6-2.2 1.8v8c1.6-1.8 7.3-5.7 8-7.9 0.6-1.8-1.2-1.7-1.4-2-0.1-0.1-0.1-1.1-0.1-1.2 0.5-0.5 13.6-0.6 14.1-0.2 0.5 0.3 0.4 1 0.4 1.5-4.8 0.2-8.9 3.5-12.2 6.7 3.4 3 6.1 6.7 7.9 10.8 1.4 2.9 2.5 8 4.7 10.1 1.1 0.9 2.2 0.6 1.9 2.3h-15.8c-0.4-1.6 0.6-1.3 1-1.8 1.6-2.2-2.3-9.1-3.7-11.1-1.1-1.6-3-5.3-4.8-3 0.4 2.7-0.9 11.9 0.6 13.7 0.8 1 2.1 0.4 1.7 2.1h-15.5c-0.4-1.7 0.9-1.1 1.7-2.1 0.4-0.5 0.6-1.3 0.6-2 0.8-7.1-0.6-15.6 0.1-22.9 0-1.2-0.5-2-1.4-2.6-0.8-0.5-1.2 0.2-1-1.8h15z"/>
			<path class="s1" d="m187.4 215.3c0.3 1.7-0.6 1.1-1.7 1.7-1.3 0.8-1.7 2.3-1.9 3.7-0.5 4.3-0.9 13.5-0.3 17.7 0.8 6.2 11.3 6.7 13.2 0.7 0.9-3.1 0.4-8.5 0.2-11.9-0.2-2.4-0.4-8-2.1-9.7-1.2-1-3-0.4-2.5-2.3h12.1c0.4 1.9-0.6 1.1-1.9 1.9-2.3 1.4-1.8 5.4-1.7 7.8 0.3 8.4 3.7 18.1-6.9 21.3-5.8 1.8-18.4 2-20.7-5.1-2-6.1 0.9-15.3 0-21.7 0-0.6-0.4-1.8-0.8-2.2-0.8-0.9-2.7-0.2-2.4-2h17.4z"/>
			<path class="s1" d="m200.8 261.2c-0.1 1.6 3 11.9 2.6 12.4 0 0.1-0.9 0.4-1.1 0.4-0.9-0.1-3-4-3.9-4.9-3.2-3.4-8.3-4.6-12.3-1.8-5.9 4.1-4.9 14.2-0.4 19 4.6 4.8 12.7 4.9 16.9-0.2 1.1-1.3 1.4-3.4 3.2-2.6-0.7 1.2-3.3 9.8-3.7 10.1-0.4 0.4-2.4-0.3-3.1-0.3-5.7 0.1-9.7 1.7-15.8-0.2-9.6-3-14.7-12.8-11.7-22.4 2.2-7.2 10.2-9.5 17-9.5 4.1-0.1 8.2 1.3 12.3 0z"/>
			<path class="s0" d="m290.1 180.2c-1.6-3.7-3.5-7.9-3-12 0.3-2.6 2.1-0.3 2.7 0.9 0.9 1.9 2.2 10.8 1.9 12.8 0.1 0.4-0.6 0.3-0.6 0.2-0.1 0-0.1-0.3-0.4-0.6-0.1-0.5 0.2-1.1-0.6-1.3z"/>
			<path class="s0" d="m291.1 182.1c0.2 0.6 0.3 1.4 1.3 1.3-0.6-1.2 0.6-1.7 0.6-1.8 0.2-0.7-0.9-4.3-1-5.6-0.1-2.1-0.1-5 0.5-7 0.9-2.5 2.7-4.2 3.1-0.5 0.3 2.5-1 10.4-1.8 12.9-0.3 0.9-1.1 0.7-0.8 1.9 0.3 1 1.2-0.3 1.3-0.2 0.1 0 0 0.4 0.2 0.6 0.4 0.4 2.4 2.7 2.6 2.7h5.1c-6.1 5.2-15.8 13.1-15.1 22.1 0.6 7 7.6 7.3 12.1 10.6 21 14.9 24.4 43.1 20.2 66.7-1.2 7.3-3.2 14.4-4.7 21.6-0.6 0.1-0.3-0.7-0.3-1.1-0.3-6.2 0.1-12-0.7-18.3-1.8-13.4-7.7-30.4-21.7-35.1-17-5.7-21.3 11.2-16.3 23.9 0.1 0.6-0.5 0.3-0.7 0.6 1.4 1.5 3.1 2.9 4.2 4.7 1.6 2.6 4.6 9.9-0.9 4.8l-5.6-10.3c-0.8 1.6 0.8 3 1.5 4.6 0.6 1.6 3.2 9.5 0.9 10.2-1.4 0.4-2.2-3.1-2.5-4-1-3.6-1.7-8.4-1.2-12.1-0.7-0.3-1.8 0.1-2.4 0-0.7-0.2-1-1.2-1.5-1.5-1.7-0.7-5 1.4-5.3 1.2 0.7-2.2 2-4.1 2.7-6.3 1.5-4.7 3.2-15.9-4.5-15.4-6.2 0.5-11 7.9-12.3 13.5-0.8-0.5-1.7-5.3-2.5-5.3-0.6 0-0.4 2.1-0.4 2.6 0.5-0.1 0.2-0.6 0.3-0.9 0.4 0 0.5 0.4 0.7 0.7 1.6 3 2.3 9.2 1.9 12.5-0.5 4.9-3.1 0.6-3.3-2.3-0.1-2.7 0.2-7.1 0.3-10-1.2 0.3-0.3-1.4-0.8-2.3-0.1-0.1-2.3-2.3-2.7-2.7-0.2-0.2-0.1-0.8-0.4-1-0.5-0.4-2.2-0.1-2.9-0.2 0.2 1.1 2.6 0 2.3 1.3-3.3 0.6-12.9 1.8-15.3-0.6-2.2-2.3 3-2.1 4.3-2 2.9 0.2 5.7 1.1 8.7 1.3-0.2-1 2.2-1.2 3-1.7 4.5-2.2 8.7-6.7 10.6-11.4 5.3-13.7-8.2-11.1-13.6-3.9l0.3-4.3-1.7 0.7c1.4-1.4 0.2-2 0.1-3.2-0.2-1.2 0.4-3.1-0.7-3.7-0.2 0.2 0.4 1.1-0.5 0.9-1-0.2-6-3-7-3.8-1.2-0.8-5.5-4.4-5.3-5.8 0.1-0.4 0.7-0.8 1.1-0.9 2.3-0.2 8.6 7.3 10.5 8.9 1.4 0.1-0.5-1.3-0.1-1.6 3.3-0.2 6.6-0.3 9.9-0.7 3.5-0.5 11.6-1.4 12.8-5.3 0.8-2.9-4.4-8.1-7.2-8.1h-6.7c0.1-1.7 1.9-2.2 2.3-3.9 0.2-1-0.5-0.6-0.6-0.9-0.1-0.1-0.1-2.1 0-2.2 0-0.3 0.5-0.3 0.6-0.5 0.2-0.4 1-2.1 1-2.2 0-0.7-1.9-3.9-1.6-5.1 3.8 3.1 7.5 7.1 11.7 9.8 3.1 2 9.4 5.2 10.2-0.8 1.1-8.1-4.1-15.2-10.1-20l2.9-0.2c0.2-0.7-0.6-0.8-0.8-1.3-0.2-0.4 0.2-0.9 0.1-0.9-0.1-0.2-3.4-1.6-4.2-2.1-2.7-1.8-7.5-5.2-6.6-8.8 0.9-0.6 4.3 2.5 5 3.1 0.8 0.9 6.4 7.3 6.5 7.9 0.1 0.3-0.7 0-0.6 0.3 1.1 1.8 2.6-0.2 3.9-0.4l0.7 0.9c-0.2-1.1 0.4-1.5 0.8-0.3 0.4-0.3 0.5-0.9 0.8-1.3-0.2 0-0.4 0-0.6 0 0.7-3.7 2.7-8.1 5.2-11 0.8-0.9 3.9-4.2 4-1 0 2.3-7 9.4-8.6 12 1.8-0.2 2.2-3 3.9-3.3 0.4 4.3 0.9 13.5 5.2 15.7 2.1 1.1 3.7 1.3 5.8 0 5-3 8.1-11.5 8.7-17.1 0-0.3 0.5-0.3 0.7-0.2 0.3 0.6-0.1 0.4 0.6 1.3 0.2 0.3 0.3 0.5 0.4 0.6zm-18.4 94.2c0.3-0.3 0.5-1.8-0.5-1.6-0.9 0.2-0.2 2.2 0.5 1.6z"/>
			<path class="s0" d="m239.6 264.8l3.2-2.9c-0.2 1.8-1.1 4-2 5.7-1 2-3.9 6.3-6.2 6.9-2 0.5-1-1.1-0.6-2.3 1-2.4 2.6-3.7 4.2-5.6 0.3-0.4 0.8-0.5 0.7-1.1-0.5-0.5-6.8 5.2-9 4.8-2.3-0.3-0.4-2.6 0.7-3.5 3-2.4 7.8-3.7 11.1-5.9 0.3 1.7-2.4 2.2-2.1 3.9z"/>
			<path class="s0" d="m241.2 259.9c-2.3 2.2-9.5 5.4-12.6 5.2-1.4-0.1-3.2-1-1.9-2.4 2.1-2.3 11.4-2.1 14.5-2.8z"/>
			<path class="s0" d="m264.1 184.8c-0.4 0.4-0.5-0.1-0.6-0.5-0.3-2.7 0.8-10.7 2.3-12.8 0.4-0.6 1.4-1.6 2.1-1.5 2.9 0.8-3.1 13-3.7 14.7z"/>
			<path class="s0" d="m235.9 232c0.3 0.9-0.4 0.7-1.1 0.7-2.8-0.3-11.4-1.7-12.9-4.2-0.7-1.1-0.6-1.6 0.7-1.8 4.4-0.5 9.4 3.9 13.3 5.3z"/>
			<path class="s0" d="m296.6 184.4c-0.4-0.4 2.2-2.3 2.5-2.6 1.4-1 10.9-6.9 11.6-3.7-2.4 4.6-9.6 4.5-14.1 6.3z"/>
			<path class="s0" d="m297.3 185.7c-0.1-1 1.3-1.1 2-1.4 2.4-0.8 12.3-3.4 13.6-0.9 0.8 1.5-2 2.3-3 2.3 0 0-12.6 0-12.6 0z"/>
			<path class="s0" d="m244.5 208.4c-2.8 2.8-9.3 6.4-13.3 5.9-4.1-0.5 0-2.7 1.6-3.3 3.6-1.4 7.9-1.9 11.7-2.6z"/>
			<path class="s0" d="m245.1 204.8c-3-0.9-11.1-6.4-11.4-9.5-0.1-0.8 0.5-1.4 1.3-1.3 2.5 0.3 7.2 6.6 8.8 8.6 0.3 0.4 1.6 1.9 1.3 2.2z"/>
			<path class="s0" d="m267.3 275c-0.8 3.1-6.7 10.1-9.6 10.7-1.6 0.4-2.1-0.3-1.6-1.9 1.1-3 8.6-6.7 11.2-8.8z"/>
			<path class="s0" d="m246.1 203.8c-0.6 0.1-0.8-0.3-1.1-0.7-2.3-2.3-7.2-9-7.1-12.3 0-0.3 0-0.8 0.3-1 1.8-0.7 2.6 1.3 3.4 2.6 1.9 3.5 3.1 7.6 4.5 11.4z"/>
			<path class="s0" d="m244.1 262.8v7.1c0 0.5-0.7 3.3-0.8 4-0.5 1.7-1.7 4.2-3.7 4-0.3-3.3 0.8-6.6 1.9-9.7 0.5-1.4 1.3-3.8 1.9-5 0.2-0.3 0-0.5 0.7-0.4z"/>
			<path class="s0" d="m244.8 205.4c0.1 0.9-0.1 0.7-0.8 0.7-1.2-0.1-3.3-0.5-4.5-0.8-1.8-0.4-9.8-3.3-9.1-5.6 0.2-0.5 0.6-0.5 1.1-0.5 3.9-0.5 9.5 5.2 13.3 6.2z"/>
			<path class="s0" d="m235.9 233.3c0.8 0.6-1.9 1.2-2.2 1.2-3.5 1.1-7.6 1.4-11.2 0.6-1-0.2-3.1-1.3-1.6-2.2 3.7-2.2 10.8 0.7 15 0.4z"/>
			<path class="s0" d="m270.1 275.6c0.4 4.3 1.4 10.4-1 14.4-0.9 1.5-2 2.1-2.3-0.1-0.4-2.6 1.3-9.3 2.1-12 0.3-0.7 0.4-1.9 1.2-2.3z"/>
			<path class="s0" d="m225.1 246.8c-0.9-1 2.6-4.2 3.3-4.8 2.6-2.3 5.6-4.2 8.5-6.1-1 3.1-6.5 10-9.5 10.7-0.7 0.2-1.5 0.2-2.3 0.2z"/>
			<path class="s0" d="m295.6 183.4c-0.5-0.5 4.1-6.4 4.8-7.2 0.9-0.9 5.6-5 6.6-3.6 0.8 1.1-1.5 3.5-2.3 4.3 0 0-9.1 6.5-9.1 6.5z"/>
			<path class="s0" d="m268.8 275.6c-0.2 3-3.8 12.8-6.5 13.7-1.8 0.6-1.6-0.5-1.4-2 0.3-1.9 5.3-9.1 6.8-10.9 0.3-0.4 0.4-0.9 1-0.8z"/>
			<path class="s0" d="m262.8 185.1c-0.9 0.2-0.5-0.3-0.7-0.7-1.6-3.4-2.8-9.2-2.1-12.9 0.6-3.5 2.9-1.5 3.2 1.3 0.4 4-0.8 8.2-0.4 12.3z"/>
			<path class="s0" d="m244.8 207.1l-2.6 0.8c-3.6 0.5-7.9 1.3-11.4-0.1-0.7-0.3-2-0.9-1.8-1.9 0.6-2 13.8 0.5 15.8 1.1z"/>
			<path class="s0" d="m261.5 185.7c-3.5-3.4-7.9-9.2-6.9-14.4 1.1-0.7 3 2.7 3.4 3.4 1.5 3.2 2.6 7.6 3.5 11z"/>
			<path class="s0" d="m245.1 210c0.3 0.3-0.7 1.5-1 1.8-2 2.7-6.5 7-9.8 7.9-3.5 1-0.6-2.9 0.7-3.9 0.7-0.6 9.7-6.2 10.1-5.8z"/>
			<path class="s0" d="m221.8 240.5c-0.1-0.5 0.1-0.8 0.3-1.1 1.6-2.4 11.6-4.2 14.5-4.6-3.8 3.3-9.5 7-14.8 5.7z"/>
			<path class="s0" d="m295 182.8c-0.6 0-0.7 0.2-0.6-0.5 0.3-2.9 2-8.3 3.6-10.8 2.5-3.9 5.2-4 2.9 1.3-1.4 3.5-4.2 6.7-5.9 10z"/>
			<path class="s0" d="m238.2 237.6c-0.8 2.8-1.5 6-3 8.6-0.4 0.7-2.9 4.2-3.4 4.5-1.3 1-1.9 0-1.7-1.4 0.3-2.3 4.8-8.6 6.5-10.6 0.2-0.2 1.3-1.5 1.6-1.1z"/>
			<path class="s0" d="m258.9 187.7c-2.9-0.8-5.9-1.1-8.6-2.3-1.6-0.8-9.1-5.4-3.4-4.9 2 0.1 9.3 4.4 11 5.8 0.5 0.3 1.1 0.7 1 1.4z"/>
			<path class="s2" d="m272.7 276.3c-0.7 0.5-1.4-1.5-0.5-1.7 0.9-0.2 0.8 1.4 0.5 1.7z"/>
		</g>
	</g>
</svg>