<svg version="1.2" xmlns="http://www.w3.org/2000/svg" viewBox="0 0 457 299" width="457" height="299">
	<title>IRIS</title>
	<defs>
		<linearGradient id="g1" x2="1" gradientUnits="userSpaceOnUse" gradientTransform="matrix(221.77,221.77,-221.864,221.864,108.65,-17.52)">
			<stop offset="0" stop-color="#31496f"/>
			<stop offset="1" stop-color="#95afca"/>
		</linearGradient>
		<linearGradient id="g2" x2="1" gradientUnits="userSpaceOnUse" gradientTransform="matrix(221.77,221.77,-278.074,278.074,106.7,-15.57)">
			<stop offset="0" stop-color="#31496f"/>
			<stop offset="1" stop-color="#95afca"/>
		</linearGradient>
	</defs>
	<style>
		.s0 { fill: url(#g1) } 
		.s1 { fill: url(#g2) } 
		.s2 { fill: #31496f } 
		.s3 { fill: #8e8073 } 
		.s4 { fill: #95afca } 
	</style>
	<g id="Layer_1-2">
		<g>
			<path class="s0" d="m216.4 0.3c86.4-6.1 133.4 98 77 161.8-40.3 45.5-112.2 41.5-147.1-8.2-42.7-60.7-5.1-148.4 70.1-153.7zm-2.4 12.8c-59.8 5.5-90.9 76.3-61.8 127.1 25.5 44.7 88.3 55.7 126 19.6 58.1-55.6 16.6-154-64.2-146.7z"/>
			<path class="s1" d="m261.5 114.4c7-4 22.3-18 22.8-21.1 0.2-2.7-9-10.3-11.5-12.2-16.1-12.9-32-18-52.7-15.2-31.8 4.4-49.9 27.6-61.3 55.6-8.8 1.5-4.5-8.3-2.8-13.2 8.6-24.7 30.2-48.2 56.3-54.2 26.2-6.1 63.3 1.8 77.3 27 6.2 11.1 4.9 16.8-3.2 25.5-14.5 15.4-20.4 18.8-37.6 25.6-6.1 2.4-9.4 5.8-16.8 6.4-38.9 3.5-53.6-47.9-21.4-65.4 28.2-15.4 58.5 10.5 50.9 41.2zm-36-24.9c-14.5 2.6-13.6 24.3 0.7 25.7 20.6 2.1 18.8-29.3-0.7-25.7z"/>
		</g>
		<g>
			<path class="s2" d="m29.3 250.1q0 6.7-3.8 10.1-3.8 3.4-10.9 3.4-4.6 0-7.9-1.5-3.3-1.5-5-4.5-1.7-3-1.7-7.3v-12.3h7.4v9.1q0 3 0.5 5 0.6 2.1 2.1 3.4 1.6 1.3 4.6 1.3 2.9 0 4.5-1.3 1.6-1.2 2.2-3.3 0.5-2.1 0.5-5.1v-15.6h7.4v18.6zm-14.4-28.9q1 0 1.8 0.5 0.8 0.5 1.3 1.4 0.5 0.8 0.5 1.8 0 0.9-0.5 1.7-0.5 0.9-1.3 1.4-0.8 0.5-1.8 0.5-0.9 0-1.8-0.5-0.8-0.5-1.3-1.4-0.5-0.8-0.5-1.7 0-1 0.5-1.8 0.5-0.9 1.3-1.4 0.8-0.5 1.8-0.5z"/>
			<path class="s2" d="m60 246.3q0.8 0 1.2 0.2 0.3 0.3 0.5 1 0.2 0.8 0.2 2.2c0 1 0 1.7-0.1 2.2q-0.2 0.7-0.6 1-0.4 0.2-1.2 0.2h-3.2q-0.1 3.5-1 5.7-0.8 2.3-3 3.6-2.1 1.2-6.1 1.2h-7.9v-6.9h7.5q1.4 0 2.1-0.3 0.6-0.2 0.8-1 0.2-0.7 0.2-2.3h-14.2v-12.4q0-4.6 2.2-6.9 2.2-2.3 6.8-2.3h12.6v14.8h3.2zm-13.7-8q-2 0-2.9 0.7-0.9 0.7-0.9 2.4v4.9h7v-8z"/>
			<path class="s2" d="m78.4 246.3q0.8 0 1.2 0.2 0.4 0.3 0.6 1 0.2 0.8 0.2 2.2 0 1.4-0.2 2.2-0.2 0.7-0.6 0.9-0.4 0.3-1.2 0.3h-18.4q-0.7 0-1.1-0.3-0.4-0.2-0.6-0.9-0.2-0.7-0.2-2.2c0-0.9 0.1-1.7 0.2-2.2q0.2-0.7 0.6-1 0.4-0.3 1.1-0.3h7.1v-14.8h7.3v14.8h4zm-12.2 9.6q0.9 0 1.8 0.5 0.8 0.5 1.3 1.3 0.4 0.9 0.4 1.8c0 0.7-0.1 1.3-0.5 1.8q-0.4 0.8-1.3 1.3-0.8 0.5-1.7 0.5-1 0-1.8-0.5-0.9-0.5-1.4-1.3-0.5-0.8-0.5-1.8 0-0.9 0.5-1.8 0.5-0.8 1.4-1.3 0.8-0.5 1.8-0.5zm8.5 0q1 0 1.8 0.5 0.8 0.5 1.3 1.3 0.4 0.9 0.5 1.8-0.1 1-0.5 1.8-0.5 0.8-1.4 1.3-0.8 0.5-1.7 0.5-1 0-1.9-0.5-0.9-0.5-1.4-1.3-0.5-0.8-0.5-1.8 0-0.9 0.5-1.8 0.5-0.8 1.4-1.3 0.9-0.5 1.9-0.5z"/>
			<path class="s2" d="m93.2 238.3q-1.4 0-2.2 0.3-0.8 0.2-1.2 0.9-0.3 0.7-0.3 1.9v4.9h12.3q0.7 0 1.1 0.2 0.4 0.3 0.6 1 0.2 0.8 0.2 2.2 0 1.4-0.2 2.2-0.1 0.7-0.6 0.9-0.4 0.3-1.1 0.3h-23.4q-0.8 0-1.2-0.3-0.4-0.2-0.5-0.9-0.2-0.7-0.2-2.2c0-0.9 0-1.7 0.2-2.2q0.2-0.7 0.6-1 0.4-0.3 1.1-0.3h3.6v-5.6q0-4.5 2.2-6.9 2.2-2.3 6.9-2.3h8.1v6.9h-6z"/>
			<path class="s2" d="m117.7 246.3q0.8 0 1.2 0.2 0.4 0.3 0.6 1 0.2 0.8 0.2 2.3c0 0.9-0.1 1.6-0.2 2.1q-0.2 0.7-0.6 1-0.4 0.2-1.2 0.2h-15.9q-0.8 0-1.2-0.2-0.4-0.3-0.6-1-0.2-0.7-0.2-2.1c0-1 0.1-1.8 0.2-2.3q0.2-0.7 0.6-1 0.4-0.3 1.1-0.2h5.6v-25.4h7.4v25.3h3z"/>
			<path class="s2" d="m117.7 253.1q-0.7 0-1.1-0.2-0.4-0.3-0.6-1-0.2-0.7-0.2-2.1c0-1 0.1-1.8 0.2-2.3q0.2-0.7 0.6-1 0.4-0.2 1.1-0.2h5.6v-25.4h7.4v32.2h-13z"/>
			<path class="s2" d="m174.4 253.1q-0.9 5.2-4.5 7.9-3.7 2.6-9.6 2.6-4.6 0-7.9-1.5-3.3-1.5-5-4.5-1.7-3-1.7-7.3v-12.3h7.4v9.1q0 3 0.5 5.1 0.5 2.1 2.1 3.4 1.6 1.3 4.5 1.3 3 0 4.6-1.3 1.6-1.2 2.1-3.4 0.6-2.1 0.6-5.1v-15.7h7.4v14.9h4.8v-13.3h7.4v13.3h4.1v-14.9h7.4v21.7h-24.2z"/>
			<path class="s2" d="m217.3 246.3q0.7 0 1.1 0.2 0.4 0.3 0.6 1 0.2 0.8 0.2 2.2c0 1-0.1 1.7-0.2 2.2q-0.2 0.7-0.6 1-0.4 0.2-1.1 0.2h-3.2q0.1 4.9-2.3 7.7-2.4 2.8-7.4 2.8h-3.2v-7h2.4q1.7 0 2.4-1.1 0.7-1.1 0.7-2.6v-21.5h7.4v14.9h3.1z"/>
			<path class="s2" d="m217.3 253.1q-0.8 0-1.2-0.2-0.4-0.3-0.6-1-0.2-0.7-0.2-2.1c0-1 0.1-1.8 0.2-2.3q0.2-0.7 0.6-1 0.4-0.2 1.2-0.2h7.7v-14.9h7.3v21.7c0 0-15 0-15 0zm4.8 2.7q0.9 0 1.8 0.5 0.8 0.5 1.3 1.3 0.4 0.9 0.4 1.9c0 0.6-0.1 1.2-0.5 1.7q-0.4 0.9-1.3 1.4-0.8 0.5-1.7 0.5-1 0-1.8-0.5-0.9-0.5-1.4-1.4-0.5-0.8-0.5-1.7 0-1 0.5-1.9 0.5-0.8 1.4-1.3 0.8-0.5 1.8-0.5zm8.5 0q1 0 1.8 0.5 0.8 0.5 1.3 1.3 0.5 0.9 0.5 1.9 0 0.9-0.5 1.7-0.5 0.9-1.4 1.4-0.8 0.5-1.7 0.5-1 0-1.9-0.5-0.9-0.5-1.4-1.4-0.5-0.8-0.5-1.7 0-1 0.5-1.9 0.5-0.8 1.4-1.3 0.9-0.5 1.9-0.5z"/>
			<path class="s2" d="m243.4 210.2q-0.9 0-1.2 0.2-0.3 0.2-0.3 0.9v2.5h5.3v3.3h-11v-3.3h2.3v-2.6q-0.1-2.3 1-3.3 1-1 3.4-1h3.6v3.3c0 0-3.1 0-3.1 0zm-4.1 42.9v-32.2h7.4v32.2z"/>
			<path class="s2" d="m306.3 246.3q0.8 0 1.1 0.2 0.5 0.3 0.6 1 0.2 0.8 0.2 2.3c0 0.9 0 1.6-0.1 2.1q-0.2 0.7-0.6 1-0.4 0.2-1.2 0.2h-10.5v-14.8h-2.4q-2 0-2.9 0.8-0.9 0.8-0.9 2.8v8.2q0 6.6-3.7 10.1-3.8 3.4-10.9 3.4-4.6 0-7.9-1.5-3.3-1.6-5-4.5-1.7-3-1.7-7.3v-12.3h7.4v9.1q0 3 0.5 5 0.5 2.1 2.1 3.4 1.6 1.3 4.6 1.3 2.9 0 4.5-1.3 1.6-1.2 2.1-3.3 0.6-2.1 0.6-5.1v-6.1q0-9.5 9.3-9.5h11.7v14.8h3.1z"/>
			<path class="s2" d="m335.5 246.3q0.7 0 1.1 0.2 0.4 0.3 0.6 1 0.2 0.8 0.2 2.3c0 0.9-0.1 1.6-0.2 2.1q-0.2 0.7-0.6 1-0.4 0.2-1.2 0.2h-29.1q-0.7 0-1.2-0.2-0.4-0.3-0.5-1-0.2-0.7-0.2-2.1c0-1 0.1-1.8 0.2-2.3q0.2-0.7 0.6-1 0.4-0.2 1.1-0.2h4.3v-5.6q0-4.6 2.2-6.9 2.2-2.4 6.9-2.4h12.6v14.9h3.1zm-14.3-26.5q1 0 1.8 0.5 0.9 0.5 1.3 1.4 0.5 0.8 0.5 1.8 0 0.9-0.5 1.8-0.4 0.8-1.3 1.3-0.8 0.5-1.8 0.5-0.9 0-1.8-0.5-0.8-0.5-1.3-1.3-0.5-0.8-0.5-1.8 0-1 0.5-1.8 0.5-0.9 1.3-1.4 0.9-0.5 1.8-0.5zm0.6 18.5q-2 0-2.9 0.7-0.9 0.7-0.9 2.4v4.9h6.9v-8z"/>
			<path class="s2" d="m373.8 246.3q0.8 0 1.1 0.2 0.5 0.3 0.6 1 0.2 0.8 0.2 2.3c0 0.9 0 1.6-0.1 2.1q-0.2 0.7-0.6 1-0.4 0.2-1.2 0.2h-38.4q-0.8 0-1.2-0.2-0.4-0.3-0.6-1-0.1-0.7-0.1-2.1c0-1 0-1.8 0.2-2.3q0.2-0.7 0.6-1 0.4-0.2 1.1-0.2h4.9v-13.3h7.4v13.3h4.1v-13.3h7.4v13.3h4.1v-14.9h7.4v14.9h3.1zm-22.6-26q1 0 1.8 0.5 0.8 0.5 1.3 1.4 0.5 0.9 0.5 1.9 0 0.9-0.5 1.7-0.5 0.8-1.3 1.3-0.8 0.5-1.8 0.5-0.9 0-1.8-0.5-0.8-0.5-1.3-1.3-0.5-0.8-0.5-1.7 0-1 0.5-1.9 0.5-0.9 1.3-1.4 0.8-0.5 1.8-0.5zm4.4-7.3q1 0 1.8 0.5 0.8 0.5 1.3 1.4 0.4 0.9 0.5 1.9-0.1 0.8-0.5 1.7-0.5 0.8-1.4 1.3-0.8 0.5-1.7 0.5-1 0-1.9-0.5-0.8-0.5-1.3-1.3-0.6-0.8-0.6-1.7 0-1 0.6-1.9 0.5-0.9 1.3-1.4 0.9-0.5 1.9-0.5zm4.2 7.3q0.9 0 1.8 0.5 0.8 0.5 1.3 1.4 0.5 0.8 0.5 1.8c0 0.6-0.2 1.2-0.5 1.7q-0.5 0.9-1.3 1.4-0.9 0.5-1.8 0.5-1 0-1.8-0.5-0.9-0.5-1.3-1.3-0.5-0.9-0.5-1.8 0-1 0.5-1.8 0.4-0.9 1.3-1.4 0.8-0.5 1.8-0.5z"/>
			<path class="s2" d="m392.2 246.3q0.7 0 1.1 0.2 0.5 0.3 0.6 1 0.2 0.8 0.2 2.2 0 1.4-0.2 2.2-0.1 0.7-0.5 0.9-0.5 0.3-1.2 0.3h-18.4q-0.8 0-1.2-0.3-0.4-0.2-0.5-0.9-0.2-0.7-0.2-2.2c0-0.9 0-1.7 0.2-2.2q0.2-0.7 0.6-1 0.4-0.3 1.1-0.3h7.1v-14.8h7.3v14.8h4zm-11.3-26.4q0.9 0 1.8 0.5 0.8 0.5 1.3 1.4 0.4 0.8 0.4 1.8 0 0.9-0.5 1.8-0.4 0.8-1.3 1.3-0.8 0.5-1.7 0.5-1 0-1.8-0.5-0.9-0.5-1.4-1.3-0.5-0.9-0.5-1.8 0-1 0.5-1.8 0.5-0.9 1.4-1.4 0.8-0.5 1.8-0.5zm8.5 0q0.9 0 1.8 0.5 0.8 0.5 1.3 1.4 0.5 0.8 0.5 1.8-0.1 0.9-0.5 1.8-0.5 0.8-1.4 1.3-0.8 0.5-1.7 0.5-1 0-1.9-0.5-0.8-0.5-1.4-1.3-0.5-0.9-0.5-1.8 0-1 0.5-1.8 0.5-0.9 1.4-1.4 0.9-0.5 1.9-0.5z"/>
			<path class="s2" d="m430.6 246.3q0.7 0 1.1 0.2 0.4 0.3 0.6 1 0.2 0.8 0.2 2.3c0 0.9-0.1 1.6-0.2 2.1q-0.2 0.7-0.6 1-0.4 0.2-1.2 0.2h-38.4q-0.7 0-1.1-0.2-0.5-0.3-0.6-1-0.2-0.7-0.2-2.1c0-1 0.1-1.8 0.2-2.3q0.2-0.7 0.6-1 0.4-0.2 1.1-0.2h4.9v-13.3h7.4v13.3h4.1v-13.3h7.4v13.3h4.2v-14.9h7.3v14.9h3.1z"/>
			<path class="s2" d="m447.3 231.4q4.7 0 6.9 2.4 2.2 2.3 2.2 6.9v12.4h-25.9q-0.7 0-1.1-0.2-0.4-0.3-0.6-1-0.2-0.7-0.2-2.2c0-0.9 0.1-1.7 0.2-2.2q0.2-0.7 0.6-1 0.4-0.3 1.1-0.3h4.2v-14.8c0 0 12.6 0 12.6 0zm-5.2 14.9h6.9v-4.9q0-1.7-0.8-2.4-0.9-0.7-2.9-0.7h-3.2z"/>
		</g>
		<g>
			<path class="s3" d="m63.1 285.5h1.6v12.6h-1.6z"/>
			<path class="s3" d="m86.2 298.1h-1.9l-3-5.1h-3.1v5.1h-1.6v-12.6h5.2c2.3 0 3.9 1.4 3.9 3.7 0 2-1.1 3.3-2.8 3.6l3.2 5.3zm-4.5-6.4c1.5 0 2.5-0.9 2.5-2.5 0-1.5-1.1-2.4-2.5-2.4h-3.4v4.9z"/>
			<path class="s3" d="m100.8 285.5h1.6v12.6h-1.6z"/>
			<path class="s3" d="m113.8 297.7v-1.3c2.1 0.5 3.4 0.6 4.4 0.6 2.2 0 3-1.1 3-2.2 0-1.5-1.6-2-3.2-2.5-1.9-0.6-4-1.3-4-3.7 0-2.3 1.7-3.3 4.3-3.3 1.4 0 2.7 0.2 4.3 0.6v1.4c-2-0.6-3.2-0.7-4.3-0.7-1.7 0-2.7 0.7-2.7 2 0 1.4 1.5 1.8 3.2 2.3 1.9 0.6 4 1.3 4 3.8 0 2.4-1.8 3.6-4.5 3.6-1.4 0-2.9-0.2-4.5-0.6z"/>
			<path class="s3" d="m151.4 286.8v4.1h5.5v1.3h-5.5v4.6h6.4v1.3h-8v-12.6h7.9v1.3z"/>
			<path class="s3" d="m181.6 285.5l-4.3 8.3v4.3h-1.6v-4.3l-4.4-8.3h1.8l1.8 3.4 1.6 3.3 1.6-3.3 1.8-3.4h1.7z"/>
			<path class="s3" d="m197.7 286.8v4.1h5.5v1.3h-5.5v4.6h6.5v1.3h-8.1v-12.6h8v1.3z"/>
			<path class="s3" d="m230.9 285.5h1.6v5.4h6.2v-5.4h1.6v12.6h-1.6v-5.9h-6.2v5.9h-1.6z"/>
			<path class="s3" d="m255.8 291.7c0-3.9 1.7-6.4 5.3-6.4 3.5 0 5.3 2.5 5.3 6.4 0 4-1.8 6.6-5.3 6.6-3.6 0-5.3-2.5-5.3-6.6zm8.9 0c0-3.3-1.2-5.1-3.6-5.1-2.5 0-3.7 1.8-3.7 5.1 0 2.8 0.8 5.3 3.7 5.3 2.8 0 3.6-2.5 3.6-5.3z"/>
			<path class="s3" d="m281.9 297.7v-1.3c2.1 0.5 3.3 0.6 4.4 0.6 2.1 0 2.9-1.1 2.9-2.2 0-1.5-1.5-2-3.2-2.5-1.9-0.6-4-1.3-4-3.7 0-2.3 1.8-3.3 4.4-3.3 1.4 0 2.7 0.2 4.2 0.6v1.4c-2-0.6-3.2-0.7-4.2-0.7-1.8 0-2.7 0.7-2.7 2 0 1.4 1.5 1.8 3.1 2.3 1.9 0.6 4.1 1.3 4.1 3.8 0 2.4-1.9 3.6-4.5 3.6-1.4 0-3-0.2-4.5-0.6z"/>
			<path class="s3" d="m307.1 298.1h-1.7v-12.6h5.2c2.4 0 3.9 1.4 3.9 3.7 0 2.3-1.5 3.7-3.9 3.7h-3.5c0 0 0 5.2 0 5.2zm3.4-6.5c1.5 0 2.4-0.8 2.4-2.4 0-1.6-1-2.4-2.4-2.4h-3.4v4.8c0 0 3.4 0 3.4 0z"/>
			<path class="s3" d="m329.4 285.5h1.6v12.6h-1.6z"/>
			<path class="s3" d="m347.4 286.8v11.3h-1.6v-11.3h-3.6v-1.3h8.9v1.3c0 0-3.7 0-3.7 0z"/>
			<path class="s3" d="m375.2 298.1h-1.7l-1.1-3.4h-5.2l-1.2 3.4h-1.6l4.8-12.7h1.3zm-3.1-4.6l-2.2-6.5-2.4 6.5z"/>
			<path class="s3" d="m391.3 296.8h6.2v1.3h-7.8v-12.6h1.6z"/>
		</g>
		<g>
			<path class="s4" d="m119.7 18.7v6.1h-0.8v-6.1h-2v-0.7h4.8v0.7h-2z"/>
			<path class="s4" d="m129.3 18v6.8h-0.8v-5.4l-2.2 4.3h-0.6l-2.2-4.3v5.4h-0.8v-6.8h1.1l1.3 2.6 1 2 2.2-4.6h1.1z"/>
		</g>
	</g>
</svg>