<svg version="1.2" xmlns="http://www.w3.org/2000/svg" viewBox="0 0 1247 1186" width="1247" height="1186">
	<title>57</title>
	<style>
		.s0 { fill: #99bb3c } 
		.s1 { fill: #4580c1 } 
		.s2 { fill: none } 
	</style>
	<g>
		<path class="s0" d="m1203.4 1035c0 0.5-1.3 4.6-1.5 4.7-22.2 3.7-35.9-6.9-37.6-29.3-1.7-23.2 0.7-49 0-72.6-0.2-6.3-1.9-13.3-1-19.9h24.2c0.1 24.3-0.2 48.7 0 73 0 6.3-0.8 13 0 19.4 1.2 9.2 8 10.7 15.7 12.6-0.3 3.8 0.5 8.4 0 12.1z"/>
		<path class="s0" d="m542.6 843.5c-3.1-8.9-5.5-16.7-4.5-26.4 4.3-42.1 71.5-42.4 78.3-3.2 1.9 11-0.2 19.2-3.1 29.6h71.6c0.2-7.3 0.9-16.4 0-23.6-2.9-22.4-30-16.3-45.5-13.6l-3.3-17.7c22.4-8.4 62-7.8 70.5 19.8 0.8 2.7 2.5 9.9 2.5 12.3v22.8c0 0.4 8.4-0.4 8.4 0v19.5h-118.5c-2.3 0 0-5.5-2.8-5.6-2.8-0.1-7.8 2.6-11.4 3.5-3.6 0.9-9.6 2.1-11.8 2.1h-138.5c0 0-1.4-1.3-1.4-1.4v-18.1h48.3c0.9-22.3-11.6-41.5-32.5-49.3l6.5-21.4c26.7 13.7 45.7 28.3 49.1 60.1 0.2 2.1-0.6 10.6 1.5 10.6h36.7zm30.4-39.7c-15.9 2.7-16.2 36.8 0.7 38.8 11.5 1.4 18.8-3.7 20-15.4 1.5-14.8-4.1-26.3-20.7-23.5z"/>
		<path class="s0" d="m327.8 843.5c0.4-2.7 1-5.1 1-7.9 0-5-0.4-14.7-1.1-19.4-2.7-20.2-29.8-12.1-42.6-8.9 0.3-4.8-5.3-12.6-5.5-16.4-0.2-3.8 7.2-3.7 9.3-4.3 23.6-6 58.7-6.1 62 25.1 0.8 7.4-1.5 25.1 0.2 30.4 1 2.9 10.1 1 12.9 1.5v19.5h-200.8v-19.5h28.8l-22.3-78.1h25.1l22.5 76.5c1.9 3.1 9.5 0.9 12.9 1.5v-98.5h22.8l1.9 98.5h73z"/>
		<path class="s0" d="m1100.3 851c1.2-3.6 0-6.5 0-9.7-0.1-9.7 1.7-23.5-2.3-32.1-8-17.5-37.8-13-52.5-7.4 0.2-38.6 30.1-63.9 67.9-62.3-0.4 2.4 0.9 9.5-0.9 10.8-1.8 1.3-6.4 0.2-8.8 0.5-12.7 1.8-24.8 5.9-33.1 16.2-3.5 4.3-8.1 13.1-8.4 18.6-0.3 5.5 5.8 0.5 7.9 0.4 14.3-0.5 31.2 1.2 39.4 14.6 1.5 2.5 4.8 10.3 4.8 12.9v49.7h-153.4c0.7 25.8-18.1 39.5-43 36.9-24.9-2.6-15.1-3-17.5-4.9-2.4-1.9 0.2-12.3 3.7-11.1 4.2 1.4 7.4 3.7 12.6 4.2 19.8 2 32.6-2.9 31.1-25.1h-20c-2.6 0-13.7-5.2-16.2-7-22.3-16.2-18.8-58.6 9.2-66.9 11.5-3.4 18.1-1.4 29.3-0.5 2 0.2 10.7-0.7 10.7 1.4v60.9h36.7c1 0 1.3-2.3 1.4-3.2 2.1-18.1-2.8-39.1-0.8-57.6 1-3 11-1 13.8-1.5v62.3h88.3zm-152.5 0v-50.7c-6-3.1-16.7-2.3-23.2 0-16.4 5.8-18.2 34-7 45.1 1.2 1.2 8.3 5.5 9.3 5.5h20.9z"/>
		<path class="s0" d="m485.9 953.2c0.3 0.3-0.2 6.1 0 7.4 3.6 0.5 4.9-3.3 7.5-5 9.2-6.3 25.6-7.1 34.8-0.5 9.2 6.6 4.4 5.9 7.4 5.6 3-0.3 8.3-6.1 11.3-7.4 20.8-8.6 46.8 1.4 46.8 26.4v57.2h-23.2v-54.4c0-1.7-2.9-7.3-4.3-8.7-5.4-5.5-16-4.8-22.1-0.9-6.1 3.9-4.3 3.7-4.3 4v58.6c0 0-1.3 1.4-1.4 1.4h-21.8v-56.2c0-1.8-4-7.9-5.8-9-3.9-2.4-11.8-2.3-15.9-0.6-3.7 1.5-8.9 7.6-8.9 11.5v54.4h-23.2v-83.7c3.1 0.6 22.4-0.8 23.2 0z"/>
		<path class="s0" d="m903.2 1021.1v-27.9c-3.4-2.5-13.4 1.9-15.4-0.9-1.1-1.6-0.4-14.5-0.4-17.7h38.1v58.6c-41.1 17.9-88.8 7.4-95.6-42.4-5.5-40.5 18.8-74.5 61.7-71.9 4.2 0.3 29.1 4.9 30.1 8 0.5 1.5-4.2 15.9-5.5 16.7-19.2-5.7-45.4-8.3-56.1 12.6-8 15.5-7 45.8 7.4 57.5 2.8 2.3 12.6 7.5 15.8 7.5h20z"/>
		<path class="s0" d="m358.5 1036.9h-27.9l-7.4-24.7h-41l-8.3 24.7h-25.1l37.6-115.3c0.7-1 1.7-0.8 2.8-1 3.1-0.4 24.9-0.3 26.5 0.5 1.6 0.8 1.8 2.1 2.3 3.3l40.4 112.5zm-69.7-43.7h27l-12.6-41.8-3 1.6z"/>
		<path class="s0" d="m141 744.1c-1 33.4 1.3 67.6 0 100.9-1.3 33.3-0.9 29.7-11.2 41.8-16.2 18.9-55.7 20.2-73 2.4-4.9-5-11.6-18.7-11.6-25.6v-40.4h22.8c0.7 0 1 1.1 1 1.9 0 8.8-1.1 17.7-0.6 26.5 0.5 8.8 2.2 27.6 17.2 29.2 15 1.6 24.8-0.3 28.8-13.9 4-13.6 1.4-5.7 1.4-6v-116.7h25.1z"/>
		<path class="s0" d="m777.7 917.9v119.9c-6.4 0-12.7 0-19.1 0-8.2 0-12.1 1.4-19.4 1.8-49.3 3.2-56.7-69.6-18.1-85.1 1.9-0.8 9.1-3.3 10.7-3.3h22.8v-33.5h23.2zm-23.2 52.1h-17.2c-1.3 0-9 4.4-10.2 5.6-6.9 7-6.8 23.8-3.7 32.5 4.7 13.4 18.7 15.5 31.1 13z"/>
		<path class="s0" d="m390.1 917.9v39c4.1-0.4 7.5-3.4 11.6-4.7 22.1-7 45.1 4.2 45.1 29.3v55.3h-23.2v-52.5c0-1.3-3.1-8.4-4.1-9.8-5.6-7.4-18.6-6.5-25.5-1.3-0.7 0.5-3.8 3.4-3.8 3.7v60h-23.2v-119h23.2z"/>
		<path class="s0" d="m630.9 1001.6c1.9 24.5 29.7 22.5 47.4 18 1 4.3 8.3 13.7 3.4 16.6-9.2 5.3-33.5 5.1-43.8 2.5-43.3-10.9-41.4-81.2 1.9-86.3 22.5-2.6 41.3 6 45.7 29.4 0.5 2.6 2.6 19.7-0.2 19.7h-54.4zm32.5-14.9c2.6-26.2-32.7-24-32.5 0z"/>
		<path class="s0" d="m1145.8 1037.8c-6-0.6-13.4 0.8-19.1 0-5.7-0.8-0.9-2.1-2.6-2-2.9 0.2-7.3 2.8-10.6 3.5-19.6 4.2-40.3-4.4-38.4-27.2 2-24.1 31.6-22 49.3-22.7 3.5-27.1-24.4-21.5-41.8-17.7 0-3.2-4-14.5-1.9-16.3 2.1-1.8 9.7-2.6 11.9-3 14.8-2.4 43.4-3.3 50.4 13.2 0.6 1.4 2.8 8.3 2.8 9.3v62.7zm-21.4-16.2c0.7-2.3 0-14 0-17.7 0-3.7-2.2-1.4-3.2-1.4-3.3 0-12.2 1.4-15.4 2.4-5.2 1.7-7.5 3.5-7.5 9.3 0 15.6 25.2 10.2 26.1 7.4z"/>
		<path class="s0" d="m1010.1 1037.8c-5.7-0.6-12.7 0.8-18.2 0-1.8-0.2-0.9-2-2.7-2-4.2-0.2-9.5 3.3-14 3.8-19.8 2.2-38.4-3.3-36.8-26.5 1.8-24.9 32.1-22.1 50.2-23.7 4.5-28.6-23.3-19.8-40.9-17.7l-2.7-14.8c15.4-6.6 52-10.3 62.1 6.1 10.1 16.4 2.9 6.3 2.9 7.3v67.4zm-21.4-35.3c-8.4 0.3-25.8-0.1-26.8 11-0.8 10 8.9 11.9 16.9 11.2 8-0.7 9.3-1.6 9.7-1.9 3-2.1-0.9-16.4 0.2-20.3z"/>
		<path class="s0" d="m49 921.6h42.3c65.5 0 73.8 104.4 3.5 115-10.7 1.6-31.9 2.5-42.6 1.2-0.9-0.1-3.2-0.4-3.2-1.4zm12.1 8.4v98.1c0 0 1.3 1.4 1.4 1.4h23.2c52.3 0 58-81.2 16.5-96.5-1.8-0.6-9.7-3-10.9-3z"/>
		<path class="s0" d="m1052.9 917.9c-0.2 22.2 0.2 44.3 0 66.5 0 5.9-1.4 12.1-1 18.6 0.6 11.6 1.7 20.1 15.8 19v16.7c-11.9 2.1-27.7 2.4-34.4-9.7-0.8-1.4-3.7-9.2-3.7-10.3v-100.9h23.2z"/>
		<path fill-rule="evenodd" class="s0" d="m741.5 754.3h23.2v108.8h-23.2z"/>
		<g>
			<g>
				<path class="s1" d="m472.8 149.1c3.5-0.8 10.7-1.7 14.4-1.9 43-2.7 89 2.7 132.1 0 2.6-0.2 5.1-0.5 7.6-1.2 9.5-18.7 19.9-37 31.6-54.4 6.1-9.1 18-27.1 25.5-34 4-3.7 4-1.3 2.5 2.5-5.3 13.3-16.4 29.1-23 43-21.3 45.1-33.5 91.7-30.8 142.1 2.9 54.5 53.3 152.5 0.5 194.7-40.2 32.2-90.9-9.2-127.5-24.9-29.5-12.7-61.9-12.4-90.2 3.4-1.7 0.9-14.6 10.1-15.2 9.5v-191.5c-0.2-39.8 34.4-78.6 72.5-87.4z"/>
				<path class="s0" d="m472.8 149.1c-38.1 8.8-72.7 47.6-72.5 87.4l-137.6 241.2 1.4 1.4c29.6-0.2 59.2 0.2 88.8 0-0.4 6.1-3.2 11.6-4.4 17.5-3.3 15.9-4.7 39.2-2.1 55.1l-123.6 1.4-74.8 133.4h-100c8.6-16.9 18.2-33.4 27.7-49.9 57.2-99.3 115.6-197.9 173.8-296.6l110-190.7c29.8-0.9 59.8 0.6 89.6-0.1 7.4-0.2 16.2-2.6 23.7 0z"/>
			</g>
			<g>
				<path class="s0" d="m824.2 206.7c0 14.5-2 29.1-0.5 43.8 18 2.8 38.7 11.2 52.6 23.2 56.1 48.6 27.1 140.4-9.1 192.2-1.2 1.7-16.3 22.7-17.9 20.7 1.8-6.9 7.2-13.1 10.7-19.5 25-46.1 44.4-112.5 14.8-160.8-21.5-35-61.6-45.9-100.2-35.3-20.4 5.6-41.8 24.6-63.3 13-22.9-12.4-17.3-54.9-14.1-76.5 3.2-21.6 8.1-38.9 14.3-57.5h89.1c10.1 0.7 17.4 8.3 20.6 17.5 3.7 10.5 3.1 28 3 39.3z"/>
				<g>
					<path class="s1" d="m818.6 532.1c0.2-1.8 1-5.5 3.7-3.7 2.7 1.8 2.7 8.1 3.6 9.9 37.8 80.9 134.2 96.3 212.1 67.7l28.8-134.3-117.1 0.9 17.7-76.2h205.4l-54.2 256.8-1.7 3c-56.2 28.8-118.9 45.6-182.6 40.5-44.2-3.5-86.3-17.1-125-38.1 16.1-38 4.4-86.4 9.3-126.4z"/>
					<path class="s1" d="m824.2 206.7c25.3-18.9 53.3-34.1 83.2-44.6 78.5-27.9 168.6-29 247.3-0.9 4.8 1.7 34.9 13.6 36.3 15.8 2.3 3.6-17.3 73.5-17.2 83.7-1.1 0.2-1.8-0.1-2.8-0.5-4.5-1.8-15-10.5-20.8-13.6-82.3-45.2-202.9-35.7-273.9 27.1-13.8-12-34.6-20.4-52.6-23.2-1.5-14.6 0.4-29.2 0.5-43.8z"/>
				</g>
			</g>
			<g>
				<path class="s0" d="m809.3 658.5c-14.1 33.3-45.2 46.8-79.4 48.4-24.6 1.1-50.1-0.9-74.9 0 21-56.8-1.7-108.7-64.6-116.2-50.2-5.9-89.6 23.5-139.8-7.1-61.9-37.7-42.8-136.7 29.9-117.3 28 7.5 49.8 40.9 71.4 59.7 72.4 62.9 160.7 79.5 242.9 22.6 6.7-4.6 13-10.6 19.5-14.9 6.5-4.3 2.6-1.8 4.4-1.6-4.9 40 6.8 88.5-9.3 126.4z"/>
				<path class="s1" d="m352.9 479.1c5.6 0 10.4-1.5 15.8 0-1.4 5.9-4 11.5-5.3 17.5-18.2 80.2 45 154.4 126.6 150.8 26.7-1.2 67.6-12.7 91.9-2.7 26.1 10.8 25.9 42.3 10.4 62.1h-191.9v-67.9c-23.4-16.3-41.3-43.6-49.5-70.9-1.3-4.5-3.7-12.2-4.4-16.5-2.6-15.9-1.2-39.2 2.1-55.1 1.2-5.9 4-11.4 4.4-17.5z"/>
			</g>
			<path class="s0" d="m840 428c-15.1 58.5-63 109.1-123.4 120.6-60.4 11.5-39.4 4-51.4 0.7-12-3.3-2.2-0.3-1.8-2.3 75.7 8.4 145-46.3 161.7-119z"/>
		</g>
		<path class="s0" d="m1131.9 863.1v-12.1h50.2v-18.1c0-2.5-4.1-13.1-5.4-16-5.1-10.8-13.8-20-23.9-26.3 0.2-2.4 3.6-9.8 6.3-9.2 8.1 1.9 22.3 18.3 26.5 25.6 8 13.7 12.3 37.1 10.5 52.9-0.1 0.9-0.4 3.2-1.4 3.2h-62.7z"/>
		<path class="s0" d="m872.5 789.6v81.3c0 1-2.1 8-2.6 9.5-5.5 14.8-18.4 20.8-33.6 19.8 0.6-1.8 0.5-10.8 0.9-11.2 0.6-0.6 10.9 0.2 16.3-4.7 2.5-2.3 6.1-9.4 6.1-12.5v-82.3h13z"/>
		<path class="s0" d="m174.5 1036.9c-3.5-0.7-12.2 2-13-2.3v-80.7c1-2.4 10.1-1.9 11.2-1.1 2.3 1.6-0.8 7.6 2.3 7 3.1-0.6 5.2-4.1 7.6-5.4 5.8-3.5 15.2-4.8 21.7-2.9-1.5 2.9-0.9 6.2-0.9 9.3-8.3-0.4-19.4-0.3-25.1 7-0.8 1.1-3.7 6.6-3.7 7.4v61.8z"/>
		<path fill-rule="evenodd" class="s0" d="m312.4 902.2c-7 0-12.6-5.6-12.6-12.6 0-7 5.6-12.6 12.6-12.6 7 0 12.6 5.6 12.6 12.6 0 7-5.6 12.6-12.6 12.6z"/>
		<path fill-rule="evenodd" class="s0" d="m989.2 772.3c-5.9 0-10.6-4.7-10.6-10.6 0-5.9 4.7-10.6 10.6-10.6 5.9 0 10.6 4.7 10.6 10.6 0 5.9-4.7 10.6-10.6 10.6z"/>
		<path fill-rule="evenodd" class="s0" d="m1016.4 772.2c-5.6 0-10.2-4.6-10.2-10.2 0-5.6 4.6-10.2 10.2-10.2 5.6 0 10.2 4.6 10.2 10.2 0 5.6-4.6 10.2-10.2 10.2z"/>
		<path class="s0" d="m763.7 720c0.6 0.9-0.5 6.1-0.8 6.4-0.6 0.5-9.9-6.2-14-0.5-5.6 7.6 12.4 9.1 16.8 8 0.7 8.3-4.8 5.1-10.7 5.6-4.8 0.4-9.7 1.3-14.4 1.8-0.6-6.6-0.2-4.5 4.6-7-7.5-7.4-1.8-15.8 7.9-16.3 9.7-0.5 9.8 0.7 10.6 2z"/>
	</g>
	<path fill-rule="evenodd" class="s2" d="m43.4 41.3h1160.2v1103.5h-1160.2z"/>
</svg>