<svg version="1.2" xmlns="http://www.w3.org/2000/svg" viewBox="0 0 109 67" width="109" height="67">
	<title>91</title>
	<style>
		.s0 { fill: #117da6 } 
		.s1 { fill: #be1e2d } 
		.s2 { fill: #1281aa } 
		.s3 { fill: #d22333 } 
		.s4 { fill: #231f20 } 
	</style>
	<g id="Layer_1-2">
		<g>
			<path class="s0" d="m21.8 27.8c0 0 1 4.2 4.2 6.6 0 0 3.2 2.1 3.8 3.1l-2.4-1.6c0 0-6.4-3.1-5.6-8.1z"/>
			<path class="s0" d="m11.6 14.8c2.4-2.3 5.3-4 8.5-4.9q0-0.5 0.1-1.1c-3.3 1.3-6.3 3.4-8.6 6z"/>
			<path class="s1" d="m28.3 53.6c-13.4 0-24.2-10.8-24.2-24.1 0-10.6 6.8-19.6 16.3-22.8q0.1-1.1 0.3-2.3c-11.5 2.6-20.1 12.9-20.1 25.1 0 14.2 11.5 25.7 25.7 25.7 8.6 0 16.2-4.2 20.9-10.7-4.5 5.5-11.3 9.1-19 9.1z"/>
			<path class="s1" d="m28.3 5.4c7.2 0 13.8 3.2 18.2 8.3-4.5-5.7-11.3-9.5-19.1-9.8q-0.2 0.7-0.4 1.5 0.6 0 1.3 0z"/>
			<path class="s0" d="m28.4 7.3q-0.9 0-1.8 0.1-0.2 0.8-0.4 1.7c11.2 0.2 20.3 9.3 20.3 20.5 0 5.4-2.1 10.3-5.5 13.9q-1.2 1.4-2.8 2.6c-3.4 2.6-7.7 4.1-12.3 4.1-5.4 0-10.4-2.1-14.1-5.6 4.1 4.5 10 7.4 16.6 7.4 12.3 0 22.3-10 22.3-22.4 0-12.3-10-22.3-22.3-22.3z"/>
			<path class="s0" d="m26.9 0c0 0-5.5 13.6-1.7 22.3 0 0 1.5 4.7 3.2 6.7 0 0 4.6 7.3 4.9 7.8q0.4 0.6 0.8 1.2c0.9 1.2 1.9 2.3 2.9 3.3 0.5 0.5 1.1 0.9 1.7 1.2 0.2 0.1 0.7 0.1 0.7 0.3 0 0.6-1 1.2-1.4 1.4q-0.8 0.5-1.8 0.5c-0.8 0-1.7-0.2-2.5-0.5q-0.8-0.2-1.6-0.6c-1.6-0.8-3.1-1.9-4.5-3 0 0-2.9-2.3-6-3-1-0.3-2-0.8-3-1.4-0.7-0.4-1.3-0.9-1.8-1.6-0.7-1-0.5-1.7-0.2-2.7q0.3-0.9 0.5-1.8c0.1-1 0.1-2-0.1-3-0.3-1.6-0.5-3.3-1-4.9-0.3-1.1-0.8-2.7-1.8-3.4 1 0.7 1.9 2 2.5 3.1 0.6 1.2 0.8 2.7 1.2 4 0.2 1.3 0.4 2.6 0.4 3.9 0.1 0.9-0.2 2-0.3 3-0.1 0.9 0.2 1.2 0.8 1.9 0 0 1.1 1.2 5 2.4q0.7 0.2 1.3 0.5c1.1 0.6 3.4 1.9 5.6 3.6 0 0 5.2 4.6 7.8 1.9 0 0-2.4-0.7-4.6-3.6 0 0-6.3-8.6-7.1-10.3 0 0-4.4-5.8-4.9-13.6 0 0-0.8-6.2 1.4-15.6h3.6z"/>
			<path class="s0" d="m33.9 39.5c0 0-6.3-8.6-7.1-10.3 0 0-4.4-5.8-5-13.6 0 0-0.7-6.1 1.5-15.6h3.6c0 0-5.5 13.6-1.7 22.3 0 0 1.5 4.7 3.2 6.7 0 0 4.6 7.3 4.9 7.8q0.4 0.6 0.8 1.2c0.9 1.2 1.9 2.3 2.9 3.3 0.5 0.5 1.1 0.9 1.7 1.2 0.2 0.1 0.7 0.1 0.7 0.3l-5.5-3.3z"/>
			<path class="s2" d="m99.9 27.4q-1.6 1.6-4 1.6-2.4 0-4.1-1.6-1.6-1.7-1.6-4.1 0-2.4 1.6-4 1.7-1.7 4.1-1.7 2.4 0 4 1.7 1 0.9 1.4 2.2l7-3.3q-1-2.4-2.9-4.4-4-3.9-9.5-3.9-0.9 0-1.8 0.1-4.4 0.6-7.7 3.8-3.9 4-3.9 9.5c0 3.7 1.2 6.6 3.6 9.2q0.2 0.1 0.3 0.3 3.9 3.9 9.5 3.9 5.5 0 9.5-3.9 1.9-2 2.9-4.4l-7-3.1q-0.4 1.1-1.4 2.1z"/>
			<path class="s2" d="m80.6 25.8l-3.8 10.8v0.1h7.6zm-5.6-15.9h-7.7l-9.6 26.7h7.7l1.3-3.8h8.8l1.2 3.4 3.8-10.9-5.6-15.4zm-6.3 15.3l2.1-6.3 0.4-1.4 2.6 7.7c0 0-5.1 0-5.1 0z"/>
			<path fill-rule="evenodd" class="s3" d="m80.4 25.4l-3.8 10.8-3.8-11-2.2-6.3-0.1-0.3-0.4-1-2.9-7.7h7.8l5.6 14.9-0.2 0.6z"/>
			<path class="s3" d="m94.1 10l-7.3 22.4-1.5 4.3h-8.5v-0.1l3.8-10.8 0.5-1.6 2.2-5.7c0 0 1.3-3.1 3.1-4.6 2.2-2.2 4.8-3.5 7.7-3.9z"/>
			<g>
				<path class="s4" d="m60.6 47.6h-1l-2.5-7h0.9l2.1 5.9 2-5.9h0.9z"/>
				<path class="s4" d="m67.8 45.5h-2.7l-0.8 2.1h-0.9l2.5-7h1.2l2.4 7h-1l-0.7-2.1zm-0.2-0.8l-1.1-3.2-1.2 3.2h2.2z"/>
				<path class="s4" d="m75.4 42.6h-0.9q0-0.7-0.5-1.1-0.5-0.3-1.2-0.3-0.8 0-1.2 0.4-0.4 0.3-0.4 0.7 0 0.4 0.3 0.7 0.2 0.2 0.9 0.4l1.6 0.4q1.6 0.4 1.6 1.8 0 0.4-0.2 0.8-0.2 0.5-0.5 0.7-0.7 0.6-2 0.6-1.6 0-2.4-1-0.4-0.6-0.4-1.4h0.9q-0.1 0.6 0.3 1 0.5 0.6 1.6 0.6 0.9 0 1.3-0.3 0.2-0.2 0.4-0.4 0.1-0.3 0.1-0.6 0-0.7-1.3-1.1l-1.7-0.4q-1.4-0.4-1.4-1.6 0-1 0.8-1.6 0.6-0.5 1.7-0.5 1.5 0 2.2 0.9 0.4 0.5 0.4 1.1v0.2z"/>
				<path class="s4" d="m82.4 42.7h-0.9q-0.1-0.7-0.5-1-0.5-0.5-1.4-0.5-1.1 0-1.7 0.9-0.5 0.8-0.5 2 0 1.4 0.7 2.1 0.6 0.7 1.6 0.7 0.6 0 1-0.3 0.4-0.2 0.6-0.6 0.2-0.4 0.3-1.1h1q-0.4 2.8-2.9 2.8-1.4 0-2.2-0.8-0.5-0.6-0.8-1.3-0.2-0.7-0.2-1.5 0-1.7 1-2.8 0.8-0.8 2.2-0.9 1.2 0.1 1.9 0.7 0.6 0.5 0.8 1.6z"/>
				<path class="s4" d="m88.3 40.5h0.9v4.9q0 1.1-0.8 1.7-0.8 0.6-1.9 0.6-1.4 0-2.1-0.7-0.6-0.6-0.6-1.7v-4.8h0.9v4.8q0 0.8 0.5 1.2 0.5 0.4 1.3 0.4 0.9 0 1.4-0.5 0.4-0.4 0.4-1.1v-4.8z"/>
				<path class="s4" d="m91.6 40.5v6.3h3.5v0.8h-4.4v-7.1z"/>
				<path class="s4" d="m99.8 45.5h-2.7l-0.7 2.1h-0.9l2.5-7h1.1l2.5 7h-1l-0.7-2.1zm-0.3-0.8l-1.1-3.2-1.1 3.2h2.2z"/>
				<path class="s4" d="m103.5 44.5v3.1h-0.9v-7h3.2q1.1 0 1.7 0.5 0.4 0.5 0.4 1.3 0 0.6-0.2 1-0.3 0.4-0.9 0.7 0.5 0.2 0.7 0.5 0.2 0.2 0.2 0.5 0.1 0.2 0.1 0.8 0 0.8 0.1 1 0 0.3 0.3 0.5v0.2h-1.1q-0.1-0.2-0.1-0.5-0.1-0.3-0.1-0.5v-1.1q0-0.1-0.1-0.3-0.1-0.2-0.2-0.3-0.2-0.3-0.9-0.3h-2.3zm0-0.8h2.2q0.8 0 1.1-0.4 0.3-0.3 0.3-0.8 0-0.7-0.4-1-0.3-0.2-1-0.2h-2.1v2.4z"/>
				<path class="s4" d="m60.8 53.2h-2.5v2.2h-0.7v-4.9h0.7v2.1h2.5v-2.1h0.6v4.9h-0.6z"/>
				<path class="s4" d="m67 50.3q1.2 0 1.8 0.8 0.6 0.7 0.6 1.7 0 1.2-0.7 1.9-0.7 0.6-1.6 0.6-1.2 0-1.8-0.8-0.6-0.6-0.6-1.7 0-1.2 0.7-1.9 0.7-0.6 1.6-0.6zm0 0.6q-0.8 0-1.3 0.6-0.4 0.5-0.4 1.3 0 1 0.6 1.5 0.4 0.5 1.1 0.5 0.9 0 1.3-0.6 0.5-0.5 0.5-1.4-0.1-0.9-0.6-1.4-0.4-0.5-1.2-0.5z"/>
				<path class="s4" d="m76.3 51.8h-0.6q0-0.5-0.4-0.7-0.3-0.2-0.8-0.2-0.6-0.1-0.9 0.2-0.2 0.2-0.2 0.6 0 0.2 0.2 0.4 0.1 0.1 0.6 0.3l1.1 0.3q1.1 0.2 1.1 1.2 0 0.3-0.1 0.6-0.2 0.3-0.4 0.5-0.5 0.3-1.4 0.3-1.1 0-1.6-0.6-0.3-0.4-0.3-1h0.6q0 0.4 0.3 0.7 0.3 0.4 1.1 0.4 0.6 0 0.9-0.2 0.1-0.1 0.2-0.3 0.1-0.2 0.1-0.4 0-0.5-0.9-0.7l-1.2-0.4q-0.9-0.2-0.9-1.1 0-0.7 0.5-1 0.4-0.4 1.2-0.4 1 0 1.5 0.7 0.3 0.3 0.3 0.7c0 0 0 0.1 0 0.1z"/>
				<path class="s4" d="m80.3 53.3v2.1h-0.6v-4.9h2q0.8 0 1.2 0.4 0.3 0.4 0.3 1 0 0.7-0.4 1.1-0.4 0.3-0.9 0.3c0 0-1.6 0-1.6 0zm0-0.5h1.3q0.5 0 0.8-0.3 0.2-0.2 0.2-0.6 0-0.4-0.3-0.6-0.2-0.2-0.7-0.2h-1.3c0 0 0 1.7 0 1.7z"/>
				<path class="s4" d="m87.1 50.6v4.8h-0.6v-4.8z"/>
				<path class="s4" d="m92.7 51.1v4.3h-0.7v-4.3h-1.6v-0.5h3.8v0.5z"/>
				<path class="s4" d="m100.6 53.9h-1.9l-0.5 1.5h-0.6l1.7-4.9h0.8l1.7 4.9h-0.7c0 0-0.5-1.5-0.5-1.5zm-0.2-0.5l-0.7-2.2-0.8 2.2h1.5z"/>
				<path class="s4" d="m105.7 50.5v4.3h2.4v0.6h-3v-4.9h0.6z"/>
			</g>
			<g>
				<path fill-rule="evenodd" class="s2" d="m87.1 59.7h0.7v0.7h-0.7z"/>
				<path fill-rule="evenodd" class="s2" d="m92.2 59.1h0.6v0.6h-0.6z"/>
				<path fill-rule="evenodd" class="s2" d="m91.8 59.7h0.6v0.7h-0.6z"/>
				<path fill-rule="evenodd" class="s2" d="m92.6 59.7h0.6v0.7h-0.6z"/>
				<path fill-rule="evenodd" class="s2" d="m96.6 59.9h0.6v0.6h-0.6z"/>
				<path fill-rule="evenodd" class="s2" d="m95.8 59.9h0.6v0.6h-0.6z"/>
				<path class="s2" d="m106.9 60.8c-0.9 0-1.4 0.8-1.4 1.6v0.3c0 0.4-0.2 0.7-0.6 0.7h-0.7q-0.6 0-0.7-0.7v-1.7h-0.6v1.8c0 0.4-0.2 0.6-0.6 0.6-0.5 0-0.7-0.4-0.7-0.8v-1.4h-0.5v1.6c0 0.4-0.2 0.6-0.6 0.6-0.5 0-0.7-0.4-0.7-0.8v-1.4h-0.6v1.5q0 0.7-0.6 0.7h-0.7c-0.6 0-0.7-0.6-0.7-0.8v-1.4h-0.6v1.5q0 0.7-0.6 0.7h-0.7q-0.6 0-0.7-0.7v-1.7h-0.6v1.8c0 0.4-0.2 0.7-0.6 0.7-0.5 0-0.6-0.5-0.6-0.9v-1.4h-0.6v1.6c0 0.4-0.2 0.7-0.6 0.7-0.5 0-0.7-0.5-0.7-0.9v-1.4h-0.5v1.6q-0.1 0.6-0.7 0.6h-1.5c0.3-0.3 0.5-0.6 0.5-1.2 0-0.7-0.4-1.4-1.3-1.4-0.8 0-1.3 0.7-1.3 1.4 0 0.6 0.3 0.9 0.6 1.2h-1.1c-0.1 0-0.5-0.1-0.9-0.8q-0.3-0.3-0.8-0.3c-0.8 0-1.1 0.4-1.1 1v0.9h0.9c0.2 0 1.1 0.1 1.1 0.8 0 0.7-0.9 0.8-1.1 0.8h-1.3c-1 0-1.1-0.7-1.1-0.9 0-0.1 0-0.4 0.1-0.6v-0.1l-0.1-0.1c0 0-0.1-0.1-0.2-0.2h-0.1v0.1c-0.3 0.3-0.3 0.7-0.3 0.9 0.1 0.6 0.5 1.4 1.7 1.4h1.4c0.8 0 1.5-0.4 1.5-1.3 0-0.9-0.7-1.3-1.4-1.3h-0.6v-0.4c0.1-0.3 0.2-0.5 0.6-0.5q0.3 0 0.4 0.2c0.1 0 0.7 1 1.4 0.9h1.1c0.1 0 0.4 0 0.7-0.1 0.2 0.1 0.5 0.1 0.6 0.1h1.7c0.5 0 0.8-0.2 0.9-0.4 0.2 0.3 0.6 0.5 1 0.5 0.4 0 0.7-0.2 0.9-0.5q0.4 0.5 0.9 0.5 0.7 0 0.9-0.5c0.2 0.2 0.5 0.4 0.9 0.4h0.8c0.5 0 0.8-0.2 0.9-0.5 0.2 0.3 0.6 0.5 1 0.5h0.7c0.5 0 0.8-0.2 0.9-0.4 0.2 0.3 0.6 0.5 1 0.5 0.4 0 0.7-0.2 0.9-0.5q0.4 0.5 0.9 0.5 0.7 0 0.9-0.5c0.2 0.2 0.5 0.4 0.9 0.4h0.8c0.5 0 0.7-0.2 0.9-0.4q0.4 0.5 1 0.5c0.9 0 1.4-0.8 1.4-1.6 0-0.8-0.5-1.6-1.4-1.6zm0 2.6c-0.6 0-0.8-0.6-0.8-1 0-0.4 0.2-1 0.8-1 0.7 0 0.8 0.6 0.8 1 0 0.5-0.2 1-0.8 1zm-18.7-1.2c0 0.5-0.5 0.8-0.7 1-0.3-0.1-0.8-0.5-0.8-1 0-0.4 0.3-0.9 0.8-0.9 0.4 0 0.7 0.5 0.7 0.9z"/>
				<path class="s2" d="m3.1 63.2h-0.5v-0.4c0-0.4 0.2-0.5 0.5-0.5 0.5 0 0.6 0.2 0.6 0.4v0.1h0.6v-0.1c-0.1-0.6-0.5-0.9-1.2-0.9-0.7 0-1.1 0.3-1.1 1v0.9h1c0.2 0 1 0.1 1 0.8 0 0.7-0.8 0.8-1 0.8h-1.3c-1 0-1.1-0.8-1.2-0.9 0-0.2 0-0.4 0.2-0.6v-0.1l-0.1-0.1c0 0-0.1-0.1-0.2-0.2l-0.1-0.1-0.1 0.1c-0.2 0.3-0.2 0.8-0.2 1 0 0.6 0.5 1.4 1.6 1.4h1.4c0.8 0 1.6-0.4 1.6-1.3 0-0.9-0.8-1.3-1.5-1.3z"/>
				<path class="s2" d="m20.7 63.6q0 0.6-0.6 0.6h-0.8q-0.6 0-0.7-0.7v-1.7h-0.5v1.9c0 0.4-0.3 0.6-0.7 0.6-0.4 0-0.6-0.4-0.6-0.8v-1.5h-0.6v1.7c0 0.4-0.2 0.6-0.6 0.6-0.5 0-0.7-0.4-0.7-0.8v-1.5h-0.5v1.6q0 0.6-0.6 0.6h-1.6q0.3-0.4 0.3-0.8c0-0.8-0.6-1.6-1.5-1.6h-2c0.1-0.4 0.6-0.7 1.1-0.7h0.8v-0.5h-0.9c-0.9 0-1.6 0.8-1.6 1.6v0.2h2.6c0.6 0 0.9 0.5 0.9 0.9 0 0.4-0.3 0.9-0.8 0.9h-3.6c-0.6 0-0.7-0.5-0.8-0.7v-1.5h-0.5v2.6c-0.1 0.4-0.3 0.7-0.7 0.7-0.1 0-0.3 0-0.6-0.2l-0.2-0.1 0.1 0.6c0.1 0.1 0.4 0.2 0.7 0.2 0.4 0 0.7-0.1 0.9-0.3q0.3-0.4 0.3-0.8v-0.2c0.2 0.2 0.5 0.3 0.8 0.3h6.4c0.4 0 0.7-0.2 0.9-0.5 0.2 0.4 0.5 0.5 0.9 0.5 0.4 0 0.7-0.1 0.9-0.4q0.4 0.4 0.9 0.4 0.7 0 1-0.5c0.1 0.3 0.5 0.5 0.8 0.5h0.9c0.7 0 1.1-0.5 1.1-1.2l-0.1-3h-0.5z"/>
				<path fill-rule="evenodd" class="s2" d="m21.9 60.6h0.6v4.2h-0.6z"/>
				<path class="s2" d="m27.3 61.7c-0.5 0-0.9 0.2-1.2 0.6q-0.2 0.3-0.5 0.3h-0.6c-0.7 0-1.1 0.4-1.1 1.2v2h0.6v-2.1c0-0.4 0.2-0.6 0.6-0.6h0.6q0.1 0 0.2 0 0 0.1 0 0.2c0 0.7 0.4 1.5 1.4 1.5 0.9 0 1.4-0.8 1.4-1.5 0-0.5-0.2-0.9-0.5-1.2q-0.4-0.4-0.9-0.4zm0 2.6c-0.6 0-0.9-0.6-0.9-1 0-0.4 0.2-1.1 0.9-1.1 0.6 0 0.8 0.7 0.8 1.1 0 0.3-0.2 1-0.8 1z"/>
				<path fill-rule="evenodd" class="s2" d="m34.1 60.6h0.6v0.6h-0.6z"/>
				<path fill-rule="evenodd" class="s2" d="m33.3 60.6h0.6v0.6h-0.6z"/>
				<path class="s2" d="m36.9 63.6q0 0.6-0.6 0.6h-1.6c0.3-0.2 0.6-0.6 0.6-1.2 0-0.6-0.5-1.3-1.3-1.3-0.8 0-1.3 0.7-1.3 1.3 0 0.6 0.3 1 0.6 1.2h-1.8v-1.4c0-0.6-0.4-1-1.1-1-0.6 0-1 0.3-1.1 0.9v0.1h0.5v-0.1c0-0.2 0.1-0.4 0.6-0.4 0.4 0 0.5 0.2 0.5 0.5v1.4h-1.7v0.6h4.2c0.1 0 0.3-0.1 0.6-0.2 0.3 0.1 0.5 0.2 0.7 0.2h1.7c0.7 0 1.1-0.5 1.1-1.3v-2.9h-0.6c0 0 0 3 0 3zm-2.2-0.6c0 0.6-0.4 0.9-0.7 1.1-0.3-0.2-0.7-0.5-0.8-1.1 0-0.3 0.3-0.8 0.8-0.8 0.5 0 0.7 0.5 0.7 0.8z"/>
				<path fill-rule="evenodd" class="s2" d="m38.1 60.6h0.6v4.2h-0.6z"/>
				<path class="s2" d="m39.2 63.3c0 0.8 0.6 1.5 1.5 1.5h0.6q-0.1 0.2-0.2 0.3-0.2 0.2-0.5 0.2c-0.2 0-0.4 0-0.6-0.2l-0.2-0.1 0.1 0.6c0.1 0.1 0.4 0.2 0.7 0.2q0 0 0.1 0 0.5 0 0.8-0.3 0.3-0.3 0.3-0.8v-2.9h-1.1c-1 0-1.5 0.8-1.5 1.5zm1.5-0.9h0.6v1.8h-0.6c-0.6 0-0.9-0.5-0.9-0.9 0-0.4 0.3-0.9 0.9-0.9z"/>
				<path fill-rule="evenodd" class="s2" d="m44.8 60.8h0.6v0.6h-0.6z"/>
				<path fill-rule="evenodd" class="s2" d="m44 60.8h0.6v0.6h-0.6z"/>
				<path class="s2" d="m47.7 63.6q0 0.6-0.6 0.6h-0.8q-0.6 0-0.6-0.6v-2l-0.6 0.1v0.3q-0.9-0.1-1.4 0.4-0.4 0.3-0.4 0.9c0 0.3 0.1 0.6 0.3 0.8 0.2 0.2 0.5 0.3 0.8 0.3 0.4 0 0.7-0.2 0.8-0.3q0.2 0.7 1 0.7h1c0.7 0 1.1-0.5 1.1-1.3v-1.7h-0.6zm-3.3 0.4q-0.2 0-0.3-0.2c-0.2-0.1-0.2-0.4-0.2-0.5 0-0.7 0.5-0.8 1.1-0.8q0.1 0 0.1 0c0 0.5 0 1-0.2 1.3q-0.2 0.2-0.5 0.2z"/>
				<path fill-rule="evenodd" class="s2" d="m46.5 65.2h0.6v0.6h-0.6z"/>
				<path fill-rule="evenodd" class="s2" d="m47.3 65.2h0.6v0.6h-0.6z"/>
				<path fill-rule="evenodd" class="s2" d="m1.6 66.2h0.6v0.7h-0.6z"/>
				<path fill-rule="evenodd" class="s2" d="m2.4 66.2h0.6v0.7h-0.6z"/>
				<path class="s2" d="m54.7 61.7c-0.9 0-1.4 0.8-1.4 1.5v0.4c0 0.4-0.2 0.6-0.6 0.6h-1.2v-2.4h-1.2c-1 0-1.5 0.8-1.5 1.5 0 0.8 0.7 1.5 1.5 1.5h0.6q0 0.2-0.2 0.3-0.2 0.2-0.5 0.2c-0.1 0-0.3 0-0.5-0.2l-0.3-0.1 0.1 0.6h0.1c0 0.1 0.4 0.2 0.6 0.2q0.1 0 0.1 0 0.5 0 0.8-0.3 0.3-0.3 0.4-0.7h1.3q0.6 0 0.9-0.5 0.4 0.5 1 0.5c0.9 0 1.4-0.8 1.4-1.6 0-0.7-0.5-1.5-1.4-1.5zm0 2.6c-0.6 0-0.8-0.6-0.8-1.1 0-0.3 0.2-1 0.8-1 0.7 0 0.8 0.7 0.8 1 0 0.5-0.2 1.1-0.8 1.1zm-4.4-2h0.6v1.9h-0.6c-0.6 0-0.9-0.5-0.9-0.9 0-0.4 0.3-1 0.9-1z"/>
				<path class="s2" d="m60.8 63.6q0 0.6-0.6 0.6h-1.3v-1.4c0-0.6-0.3-1-1.1-1-0.6 0-1 0.3-1.1 0.9v0.1h0.5v-0.1c0.1-0.1 0.2-0.4 0.7-0.4 0.3 0 0.4 0.2 0.5 0.5v1.4h-1.7v0.6h3.6c0.7 0 1.1-0.5 1.1-1.2v-3h-0.6c0 0 0 3 0 3z"/>
				<path fill-rule="evenodd" class="s2" d="m62 60.6h0.6v4.2h-0.6z"/>
				<path fill-rule="evenodd" class="s2" d="m64.7 60.8h0.6v0.6h-0.6z"/>
				<path fill-rule="evenodd" class="s2" d="m65.5 60.8h0.6v0.6h-0.6z"/>
				<path fill-rule="evenodd" class="s2" d="m68.4 65.2h0.6v0.6h-0.6z"/>
				<path fill-rule="evenodd" class="s2" d="m67.5 65.2h0.7v0.6h-0.7z"/>
				<path class="s2" d="m71 63.4c0-0.5 0.2-1 0.7-1 0.2 0 0.6 0 0.6 0.5v0.1h0.6v-0.1c-0.1-0.7-0.5-1.1-1.2-1.1-0.9 0-1.3 0.8-1.3 1.6v0.8h-0.7c-0.6 0-0.7-0.5-0.7-0.8v-1.4h-0.6v1.6q0 0.6-0.6 0.6h-0.8q-0.5 0-0.6-0.6v-2l-0.5 0.1v0.3q-1-0.1-1.5 0.3-0.3 0.4-0.4 1c0 0.3 0.2 0.6 0.4 0.8 0.2 0.2 0.4 0.3 0.7 0.3 0.4 0 0.7-0.2 0.8-0.3q0.3 0.6 1 0.6h1c0.5 0 0.8-0.2 0.9-0.4 0.2 0.2 0.5 0.4 0.9 0.4h3.3v-0.5h-2v-0.8zm-5.8 0.5q-0.2 0-0.4-0.1c-0.1-0.2-0.2-0.4-0.2-0.5 0.1-0.7 0.6-0.8 1.1-0.8q0.1 0 0.2 0c0 0.4 0 1-0.3 1.2q-0.1 0.2-0.4 0.2z"/>
				<path class="s2" d="m73.5 63.3c0 0.8 0.7 1.5 1.5 1.5h0.6q0 0.2-0.2 0.3-0.1 0.2-0.5 0.2c-0.1 0-0.3 0-0.5-0.2l-0.2-0.1v0.6h0.1c0.1 0.1 0.4 0.2 0.6 0.2q0.1 0 0.1 0 0.5 0 0.8-0.3 0.4-0.3 0.4-0.8v-2.9h-1.2c-0.9 0-1.4 0.8-1.4 1.5zm1.4-0.9h0.6v1.8h-0.6c-0.5 0-0.8-0.5-0.8-0.9 0-0.4 0.3-0.9 0.8-0.9z"/>
				<path class="s2" d="m78.1 63.6c0 0.2-0.1 0.4-0.2 0.5l-0.9-3.4h-0.5l0.8 3.5h-0.5l-0.3 0.6h1.1c0.6 0 1-0.5 1-1.3v-2.9h-0.5c0 0 0 3 0 3z"/>
				<path class="s2" d="m77.6 60.4h0.1l-0.3-0.3h0.2v-0.1c0-0.3-0.3-0.5-0.5-0.5-0.3 0-0.5 0.2-0.5 0.6v0.1h-0.1l-0.2 0.4h0.9c0.1 0 0.3 0 0.4-0.2zm-0.3-0.2q0 0-0.1 0h-0.2v-0.1c0-0.1 0-0.2 0.1-0.2 0 0 0 0 0 0.1v0.1h0.2z"/>
				<path fill-rule="evenodd" class="s2" d="m79.3 60.6h0.6v4.2h-0.6z"/>
			</g>
		</g>
	</g>
</svg>