<svg version="1.2" xmlns="http://www.w3.org/2000/svg" viewBox="0 0 454 637" width="454" height="637">
	<title>42</title>
	<style>
		.s0 { fill: #85c06c } 
		.s1 { fill: #3a1912 } 
		.s2 { fill: #3a1912;stroke: #3a1912;stroke-linecap: round;stroke-linejoin: round;stroke-width: 2.2 } 
	</style>
	<g id="Layer_1-2">
		<g id="Layer_1-2">
			<path class="s0" d="m48.9 322.3c0 0.8 0 1.7 0.1 2.6 0.3 0.6-0.1 1.3 0.2 2 0 0.6 0.1 1.3 0.1 1.9 0.3 0.5 0 1.2 0.3 1.7 0.1 1.3-0.2 2.6 0.4 3.9 0.3 0.6-0.1 1.2 0.2 1.7 0.6 6.6 2 13.1 3.4 19.6 2.7 11.8 6.5 23.3 11.4 34.4q6.6 15 15.5 28.9c9.4 14.7 20.6 27.9 33.4 39.8q15.3 14.2 33.4 24.9c7.8 4.6 15.8 8.8 24.2 12.4 11.1 4.6 22.4 8.5 34.2 11 4.2 0.9 8.3 2 12.5 2.4 0.6 0.3 1.2-0.1 1.7 0.2q1.5 0.2 2.9 0.4c0.6 0.3 1.2 0 1.7 0.3q0.4 0 0.6 0c0.7 0.4 1.4-0.1 2.1 0.3q0.4 0 0.9 0.1c0.7 0.3 1.4-0.1 2.1 0.2q0.4 0 0.9 0c0.9 0.4 1.8 0 2.7 0.3 0.3 0 0.7 0 1 0.1 0.7 0.3 1.6-0.1 2.3 0.3q1.5 0 2.9 0c1.3 0.3 2.5 0.1 3.8 0.2 1 0 2.1-0.2 3.2 0.1 1.2 0 2.4 0.1 3.6 0.1 0.3 0.4 0.1 0.8 0.1 1.2v47.1c-1.7 0.5-3.5 0-5.3 0.2-1 0-2 0.1-3.1-0.1-0.7 0-1.5-0.1-2.2-0.1-0.8-0.3-1.5 0-2.2-0.1-0.8-0.1-1.6 0.1-2.4-0.1-0.9 0-1.8-0.1-2.6-0.1-0.8-0.3-1.6 0.1-2.4-0.3-0.6 0-1.3 0-1.9-0.1-0.5-0.2-1.1 0-1.7-0.2-0.3 0-0.7 0-1-0.1-0.5-0.3-1.1 0-1.6-0.2-7-0.5-13.9-1.7-20.8-3-8.4-1.5-16.8-3.7-25-6-5.1-1.5-10-3.3-14.9-5.2-6.9-2.6-13.7-5.3-20.3-8.5-6.2-2.9-12.2-6.2-18.1-9.5-11-6.4-21.4-13.5-31.2-21.4-10.6-8.5-20.5-17.8-29.6-27.9-8.5-9.4-16.3-19.5-23.2-30.1-9.8-15-18-30.8-24.5-47.5q-6.6-17.1-10.6-34.8c-1.5-6.4-2.6-12.9-3.5-19.4-0.5-3.7-1.1-7.4-1.3-11.2-0.4-0.5 0-1.1-0.3-1.7 0-0.6 0-1.3-0.1-1.9-0.3-0.7 0.1-1.4-0.2-2.1l-0.1-2.2c-0.3-0.9 0.2-1.8-0.2-2.7 0-1.1-0.1-2.2-0.1-3.3-0.3-1.4-0.1-3-0.2-4.5-0.1-1.9 0.2-4-0.1-6v-1.3c0.3-2 0-4 0.1-6 0.1-1.5-0.1-3 0.2-4.6 0-0.5 0-1.1 0.1-1.6 0.2-0.6 0-1.2 0.1-1.9 0-0.7-0.1-1.6 0.1-2.4q0-1.1 0.1-2.3c0.3-0.6 0-1.3 0.2-2 0-0.7 0-1.3 0.1-1.9 0.3-0.6 0-1.2 0.2-1.7 0.6-7 1.7-13.9 2.9-20.8 1.3-6.9 2.9-13.8 4.7-20.6 1.8-6.5 3.9-13 6.2-19.3 3.7-10.3 8.2-20.3 13.3-30.1 4.8-9.3 10.3-18.3 16.3-26.9 6.3-9.3 13.3-17.9 20.8-26.2 5.7-6.4 11.8-12.3 18.2-18.1 9.9-8.8 20.3-16.7 31.4-23.9 14.7-9.6 30.4-17.5 46.8-23.7 11-4.2 22.2-7.6 33.6-10.2 6.5-1.4 13-2.7 19.6-3.4 3.2-0.4 6.4-0.8 9.6-1.3 0.6-0.3 1.2 0 1.8-0.2q0.8 0 1.6-0.1c0.6-0.3 1.3 0 2-0.2q1.4-0.1 2.9-0.1c0.9-0.4 1.8 0 2.6-0.3 0.6 0 1.1 0 1.7-0.1 1-0.2 2.1 0 3.1-0.1 0.9-0.1 1.9 0.1 2.8-0.1q1.6-0.1 3.3-0.1c1.5-0.2 2.9-0.3 4.4 0.1 0.1 1.8 0 3.6 0 5.4v42.8c-0.5 0.6-1.2 0.2-1.8 0.3-2.2 0.1-4.4-0.2-6.6 0.1-0.7 0-1.3 0.1-2 0.1-0.5 0.2-1 0-1.5 0.1-0.8 0-1.6-0.1-2.4 0.1-0.8 0.1-1.5 0.2-2.3 0.3-0.7-0.2-1.3-0.2-2 0-0.5 0.1-1.1 0.2-1.6 0.3-0.6-0.1-1.1-0.2-1.7 0q-0.3 0-0.6 0.1c-0.6 0.3-1.4-0.1-2.1 0.2l-0.9 0.1c-0.5 0.3-1.1-0.1-1.7 0.3q-1.4 0.2-2.9 0.4c-0.6 0.3-1.2-0.1-1.7 0.2-12.4 2.1-24.6 5.1-36.4 9.3q-10.6 3.8-20.6 8.7c-11.6 5.6-22.5 12.3-32.7 20.1-11.7 8.8-22.4 18.9-32 30-7.8 9.1-14.8 18.7-20.9 29q-9.2 15.7-15.5 32.8c-3.2 8.6-5.7 17.3-7.7 26.1-0.9 4.2-1.9 8.5-2.2 12.7-0.4 0.6 0 1.2-0.3 1.7v0.6c-0.4 0.6 0 1.2-0.3 1.7q0 0.4-0.1 0.6c-0.3 0.7 0.1 1.4-0.2 2q0 0.4-0.1 0.6c-0.3 0.7 0 1.4-0.2 2.1 0 0.4-0.1 0.8-0.1 1.3-0.4 0.7 0 1.5-0.3 2.3q0 0.4-0.1 1c-0.3 0.6 0.1 1.3-0.2 2 0 0.9-0.1 1.7-0.1 2.6-0.3 1 0 2-0.1 3 0 0.7 0.1 1.3-0.1 1.9 0 0.9-0.1 1.8-0.1 2.6q-0.3 5 0 9.9 0 1.3 0.1 2.7c0.2 0.6 0 1.2 0.1 1.9 0 1-0.1 2 0.1 3"/>
			<path class="s0" d="m449.9 26.9c-0.4 1.4-0.4 3-1 4.3-2.5 5.8-6.9 9.2-13.2 10q-1.6 0.3-3.3 0c-6.1-0.3-12.2-5.7-13.8-12-1.4-6.1 1-12.7 6-16.4 4.7-3.4 7-6.5 9.4-12.8 0.7 0.5 0.7 1.4 1 2.1 2.1 4.7 5.2 8.3 9.3 11.3 3.6 2.6 5 6.5 5.7 10.7 0.1 0.9 0.2 1.9 0 2.9"/>
			<path class="s1" d="m367.6 540c-0.1-1.7-0.4-3.3-0.8-4.9q-1.5-7.1-7.2-11.5c-4-3-8.6-3.9-13.4-4-0.6-0.3-1.2 0-1.7-0.3h-12.8c-0.4 0.4-0.2 0.9-0.2 1.3v40.2c0 0.4-0.2 0.9 0.2 1.3 6.2-0.2 12.4 0.3 18.6-0.3 4.5-0.4 8.5-2 11.6-5.2 3.7-3.8 5.5-8.6 5.7-13.9 0.2-0.9 0.2-1.8 0-2.7m-4.4 2.6c-0.4 0.6-0.3 1.1-0.3 1.7-0.7 5.1-3.3 8.9-7.7 11.4-1.8 1.1-4 1.6-6.1 1.7-1.4 0.1-2.6 0.4-4 0.3q-2.3-0.6-4.6 0h-4.6v-34.1h2.6c1.6 0.5 3.1 0.1 4.7 0.2h1.6c4.2 0.4 8.3 0.7 11.9 3.3 3.7 2.9 5.8 6.6 6.3 11.3 0.1 1.4 0.5 2.8 0.3 4.2"/>
			<path class="s1" d="m423.6 558.8c4.9-0.7 8.9-2.9 12.2-6.4 0.7-0.8 1.1-0.7 1.8-0.1q2.5 2 0.2 4.3c-3.6 3.4-7.8 5.5-12.7 6.2-6.7 0.9-12.9 0.1-18.3-4-4.3-3.3-7-7.6-8.3-12.9-0.2-1.2-0.3-2.4-0.4-3.6-0.2-1.2-0.2-2.4 0-3.6 0.1-9.3 8.1-18.2 17.5-19.9 7.4-1.3 14.2-0.1 20.3 4.2 1.3 0.9 2.3 2.2 3.5 3.3 0.1 0.1 0.2 0.3 0.2 0.4 0.1 1.6-1.7 1.6-2.4 2.6-0.4 0.6-0.9 0.3-1.4-0.2-2.1-2.5-4.7-4.3-7.9-5.3-1.3-0.4-2.6-0.9-4-0.9-1.5-0.3-3.1-0.3-4.7 0-8.2 0.3-16.1 7.2-16.5 16.1-0.1 1.3-0.1 2.5 0 3.7 0.5 5.8 3.4 10 8.1 13.2 2.5 1.7 5.4 2.6 8.4 2.9 1.5-0.2 2.9-0.2 4.4 0"/>
			<path class="s1" d="m289.6 538.1c-2.8-5.9-5.6-11.8-8.3-17.7-0.3-0.5-0.2-1.1-1.1-1.1-0.8 0-0.8 0.6-1 1-1.8 3.7-3.5 7.4-5.2 11-4.3 9.1-8.6 18.2-12.9 27.2-0.6 1.2-1 2.4-1.6 3.7h4c0.5 0 0.9-0.1 1.2-0.7 1.8-4.1 3.7-8.2 5.6-12.3 0.3-0.5 0.6-0.9 1.4-0.9 5.6 0 11.2 0 16.8 0 0.6 0 1.1 0.1 1.4 0.8 1.4 3.3 3.1 6.4 4.5 9.7 1.4 3.3 1.3 3.3 4.9 3.3h1.5c-3.8-8.2-7.5-16.1-11.2-24m-15.6 5.9c-0.8 0-1.1-0.2-0.7-1 2.3-4.7 4.5-9.4 7-14.5 2.4 5.3 4.8 10.4 7.2 15.5 0 0-13.5 0-13.5 0z"/>
			<path class="s2" d="m301 580.9h2.9c0.3 0.4 0.2 0.8 0.2 1.1v29.8c0 0.3 0.1 0.8-0.2 1.1h-2.9c-0.4-0.5-0.2-1.1-0.2-1.6v-12.6c0-0.5 0.2-1.1-0.2-1.6q-7.8 0-15.6 0c-0.9 0-1.2 0.2-1.2 1.2 0.1 4.2 0 8.4 0.1 12.6 0 1.6-0.3 2.4-2 2.1-0.3-0.1-0.7 0-1-0.1-0.3-0.3-0.2-0.7-0.2-1.1v-29.7c0-0.3-0.1-0.7 0.2-1.1q2.9-0.1 2.9 2.8v9.6c0 0.9 0.3 1.1 1.2 1.1q7.8 0 15.6 0c0.5-0.9 0.2-1.8 0.2-2.7v-9.2c0-0.5-0.2-1.1 0.2-1.5"/>
			<path class="s2" d="m120.5 580.9q2.9-0.1 2.9 2.8v11.4c2.5-2.2 4.3-4.6 6.4-6.8 2.3-2.3 4.2-4.8 6.5-7 1.1-1.1 2.7-0.1 4.4-0.6-3 3.3-5.6 6.2-8.3 9.2q-2.6 2.8-5.3 5.5c-0.6 0.6-0.6 1 0 1.6q6.3 7 12.6 13.9c0.5 0.6 0.9 1.2 1.3 1.8-3.1 0.9-4.8-0.7-6.6-2.9-2-2.6-4.3-5-6.6-7.5q-1.6-1.7-3.2-3.5c-0.2-0.2-0.5-0.6-0.9-0.4-0.7 0.1-0.4 0.7-0.4 1.1 0 3.8-0.1 7.6 0 11.5 0 1.4-0.2 2.1-1.8 1.8-0.3-0.1-0.7 0-1.1 0-0.4-0.3-0.2-0.7-0.2-1.1v-29.7c0-0.4-0.1-0.8 0.2-1.1"/>
			<path class="s2" d="m417.7 578.8c0-0.4 0.1-0.8-0.1-1.1h-2.6c-0.4 0.5-0.2 1-0.2 1.6v13.3c0 0.8 0.2 1.7-0.2 2.5-1.9-2-4.2-3.2-7-3.3-5.5-0.1-9.2 4-9.5 9.5q-0.3 1 0 2c0 2.4 0.9 4.5 2.3 6.5 3.3 4.7 10.9 4.4 13.9 0 0.6-0.1 0.5 0.4 0.5 0.7 0.1 0.7-0.2 1.6 0.2 2.3h2.6c0.3-0.4 0.2-0.8 0.2-1.1v-33l-0.1 0.1zm-5.4 30c-1 1-2.1 1.3-3.3 1.7-0.7-0.4-1.5-0.4-2.3 0-4.1-1.1-5.4-4.3-5.9-8-0.4-3.4 2.3-7.2 5.5-7.8h2.7c3.1 0.6 5.1 2.9 5.6 6 0.5 3.1-0.1 5.9-2.4 8.1"/>
			<path class="s2" d="m348.4 612.8h-2.6c0 0-0.1-0.1-0.1-0.1-0.2-6.7-0.2-13.4 0-20q0-0.1 0.1-0.1h2.6c0.3 0.3 0.1 0.7 0.2 1.1 0 0.3 0 0.6 0.4 0.4 0.9-1.7 3.5-2.7 5.6-2.2 1.7 0.5 3.2 1 4.1 2.7 0.3 0.6 0.6 0.7 1.1 0 1.7-2.4 4.2-3.2 7.2-2.4 2.6 0.7 3.6 1.9 4.2 5.3 0.3 3.5 0.1 7 0.1 10.6 0 1.6 0.2 3.2-0.2 4.8h-2.5c-0.4-0.9-0.2-1.9-0.2-2.9-0.1-3.6 0.1-7.3-0.2-10.9-0.3-1.8-0.2-3.8-2.6-4.3-0.9-0.3-1.8-0.2-2.7 0-1.8 0.7-2.9 2.4-2.9 4.6 0 3.9-0.1 7.8 0 11.7 0.1 1.7-0.5 2.1-1.9 1.9-0.4-0.1-0.7 0-1 0-0.5-0.9-0.2-1.8-0.2-2.6-0.1-3.7 0.2-7.3-0.1-10.9-0.1-3.2-0.7-4.1-2.9-4.6-2.5-0.6-3.9 0.2-4.8 2.7-0.3 0.8-0.4 1.6-0.3 2.5-0.3 3.7 0 7.4-0.1 11.1 0 0.6 0.1 1.2-0.2 1.8"/>
			<path class="s2" d="m197.8 594.7c-1.8 0.7-2.9 2.4-2.9 4.6 0 3.9-0.1 7.8 0 11.7 0.1 1.7-0.4 2.1-1.9 1.9-0.3-0.1-0.7 0-1 0-0.4-0.9-0.2-1.7-0.2-2.6-0.1-3.6 0.2-7.3-0.1-11-0.1-3.1-0.7-4-2.9-4.6-2.5-0.5-3.9 0.3-4.7 2.7-0.4 0.9-0.5 1.7-0.4 2.6-0.2 3.7 0 7.4-0.1 11.1 0 0.6 0.2 1.2-0.2 1.8h-2.6c0 0-0.1-0.1-0.1-0.2-0.1-6.6-0.1-13.3 0-20q0.1 0 0.1-0.1h2.6c0.4 0.3 0.2 0.8 0.3 1.2 0 0.2 0 0.5 0.4 0.3 0.9-1.6 3.5-2.7 5.6-2.1 1.6 0.4 3.2 1 4.1 2.7 0.3 0.5 0.5 0.7 1.1 0 1.7-2.5 4.1-3.3 7.1-2.5 2.6 0.7 3.7 2 4.2 5.3 0.4 3.6 0.1 7.1 0.2 10.6 0 1.6 0.2 3.3-0.2 4.9h-2.6c-0.4-1-0.2-2-0.2-2.9 0-3.7 0.2-7.3-0.1-11-0.3-1.8-0.2-3.8-2.6-4.3-0.9-0.2-1.8-0.2-2.7 0"/>
			<path class="s2" d="m25.9 588.4c-0.1-3.3-2-5.8-5.2-6.8-3.5-1.2-7.1-0.6-10.6-0.7-0.3 0.4-0.2 0.8-0.2 1.1v29.7c0 0.4-0.1 0.8 0.2 1.1q0.6 0 1.1 0.1c1.6 0.3 1.9-0.4 1.8-1.9-0.1-2.5 0-5 0-7.5 0-1.7-0.7-4 0.3-4.9 1-0.8 3.2-0.2 4.8-0.2 3.9-0.2 7.8-3.2 7.8-7.6q0.3-1.2 0-2.4m-3.1 2.3c-0.3 3-2.3 4.3-4.8 5-0.6-0.4-1.1-0.4-1.7 0q-3.3 0.2-3.3-3.1c0-2.4 0.1-4.7 0-7.1-0.1-1.3 0.3-1.9 1.7-1.7 0.5 0.1 1.1 0 1.6 0.1 0.5 0.5 1.1 0.2 1.7 0.2 3.9 0.4 5.1 3.4 4.8 6.6"/>
			<path class="s2" d="m448.6 594.3c0-1.5-0.3-1.9-1.8-1.9-1.8 0-1 1.1-1.2 1.9 0 0.2 0.2 0.7-0.3 0.8-0.2-0.1-0.5-0.3-0.6-0.5-1.6-2-3.7-2.6-6-2.8-5.2-0.4-9.4 4-9.8 9.2q0.3 1.3 0 2.6c0.3 3.7 1.8 6.7 5 8.5 4.4 2.4 8.3 1.2 11.8-2.6 0 0.8 0 1.5 0 2-0.3 1.4 0.5 1.4 1.5 1.4 1 0 1.5-0.2 1.5-1.4q-0.2-8.6 0-17.3m-3.7 11.6c-0.8 2.5-2.6 3.9-5 4.7-0.9-0.4-1.7-0.4-2.6 0-6.5-1.8-7.3-10.7-3.1-14.5 0.9-0.7 1.8-1.3 3-1.3h2.8c2.8 0.5 4.4 2.4 5.2 5.1 0.1 0.5 0.4 1 0.4 1.5v2c-0.6 0.7-0.3 1.6-0.6 2.4"/>
			<path class="s2" d="m168.2 594.3c0-1.5-0.3-1.9-1.8-1.9-1.7 0-1 1.1-1.2 1.9 0 0.2 0.2 0.7-0.3 0.8-0.2-0.1-0.5-0.3-0.6-0.5-1.5-2-3.7-2.6-6-2.8-5.2-0.4-9.4 4-9.8 9.2q0.3 1.3 0 2.6c0.3 3.7 1.9 6.7 5 8.5 4.5 2.4 8.3 1.2 11.8-2.6 0 0.8 0.1 1.5 0 2-0.3 1.4 0.5 1.4 1.5 1.4 1 0 1.5-0.2 1.5-1.4q-0.2-8.6 0-17.3m-3.6 11.6c-0.9 2.5-2.7 3.9-5.1 4.7-0.9-0.4-1.7-0.4-2.6 0-6.5-1.8-7.3-10.7-3.1-14.5 0.9-0.7 1.8-1.3 3-1.3h2.8c2.8 0.5 4.4 2.4 5.2 5.1 0.1 0.5 0.4 1 0.4 1.5v2c-0.6 0.7-0.4 1.6-0.7 2.4"/>
			<path class="s2" d="m319.7 603.3c3.9 0.1 7.8 0 11.7 0 3.4 0 3.4 0 2.9-3.5-0.9-5.3-4.2-7.7-9.1-8-5.3-0.3-9.3 3.8-9.8 9.2-0.2 1-0.2 1.9 0 3 0.3 4.4 3.6 8.7 7.5 9.1 4.9 0.6 8.8-0.7 11.4-6-1.2-0.4-2.4-1.2-3.3 0.4-0.9 1.5-2.4 2.2-4 2.8-1.1 0.2-2.2 0.2-3.3 0-3-0.7-4.5-2.5-5.3-5.4-0.5-1.6 0-1.6 1.3-1.6m-1.2-3.6c0.7-2.3 2-4.5 5.2-5h2.7c2.7 0.5 5.1 3.1 5.2 5.7 0 0.6-0.3 0.6-0.7 0.6h-11.7c-1.2 0-0.8-0.9-0.7-1.3"/>
			<path class="s2" d="m221.2 603.3c3.9 0.1 7.8 0 11.7 0 3.4 0 3.4 0 2.9-3.5-0.9-5.3-4.2-7.7-9.1-8-5.3-0.3-9.3 3.8-9.8 9.2-0.1 1-0.1 1.9 0 3 0.3 4.4 3.7 8.7 7.5 9.1 4.9 0.6 8.8-0.7 11.4-6.1-1.1-0.2-2.4-1.1-3.2 0.5-0.9 1.5-2.4 2.2-4 2.8-1.1 0.2-2.2 0.2-3.3 0-3-0.7-4.5-2.6-5.3-5.4-0.5-1.6 0-1.7 1.3-1.7m-1.3-3.5c0.7-2.3 2-4.5 5.1-5h2.8c2.6 0.5 5.1 3.1 5.2 5.7 0 0.6-0.3 0.6-0.7 0.6h-11.7c-1.2 0-0.9-0.9-0.7-1.3"/>
			<path class="s2" d="m74 601.3c-0.3-6.9-6.9-11.1-13.8-8.9-4 1.3-6.4 5.3-6.7 9.5-0.3 5.8 3.8 11.7 10.7 11.4 5-0.3 9.6-4.4 9.8-9.6q0.3-1.2 0-2.4zm-3.3 4.5c-1 2.6-3 4-5.6 4.7q-1.3-0.6-2.7 0c-5.6-1.2-7.6-8.6-4.2-13.2 1.1-1.5 2.6-2.4 4.6-2.6h2.3c2.9 0.3 5.7 2.9 5.9 5.7 0.1 1.8 0.3 3.6-0.3 5.4z"/>
			<path class="s2" d="m83.2 592.5c0.7 0 1.3 0 1.9-0.1 0.5-1.9 0.1-3.9 0.3-5.8 0-1.4-0.2-2.7 0.1-4.1 0.3-4 2.9-5.7 7.6-4.9 0.1 0.9 0.7 1.9-0.3 2.7-0.1 0-0.2-0.1-0.3-0.1-0.8-0.2-1.6-0.2-2.4 0-1.1 0.7-1.7 1.7-1.7 3-0.1 3.1-0.3 6.1 0.1 9.2 1.5 0 3.1 0 4.6 0.1 0.3 0.8 0.3 1.7 0 2.5q-2.3 0-4.6 0.1c-0.4 0.5-0.2 1-0.2 1.6v14.5c0 0.5 0.2 1.1-0.2 1.6h-2.5c-0.4-0.5-0.2-1.1-0.2-1.6v-14.5c0-0.6 0.2-1.1-0.2-1.6-0.6 0-1.3 0-1.9-0.1-0.3-0.9-0.3-1.7 0-2.6"/>
			<path class="s2" d="m250.2 612.8h-2.6c-0.3-0.3-0.2-0.7-0.2-1.1v-33c0-0.3 0-0.7 0.2-1.1h2.6c0.3 0.3 0.2 0.8 0.2 1.1v33c0 0.4 0.1 0.8-0.2 1.1z"/>
			<path class="s2" d="m39.3 612.9q-2.9 0.1-2.9-2.9c0-5.2 0.1-10.4 0-15.5-0.1-1.8 0.5-2.3 2.1-2.1 0.3 0.1 0.5 0 0.9 0 0.5 0.5-0.1 1.2 0.4 1.7 1.1-1.7 2.7-2.5 4.7-2.3 0.6 0 1.7 0.3 1.4 1-0.3 0.7 0.5 2.5-1.5 2.2-0.7-0.2-1.3-0.2-2 0-2.7 1.3-2.7 3.9-2.9 6.3 0.1 3.9 0.3 7.7-0.1 11.5"/>
			<path class="s2" d="m384 592.5h2.6c0.3 0.3 0.2 0.6 0.2 0.9v18.5c0 0.3 0 0.7-0.2 0.9h-2.6c-0.2-0.2-0.1-0.6-0.1-0.9v-18.5c0-0.3-0.1-0.6 0.1-0.9z"/>
			<path class="s2" d="m99 634.9h-1c-0.4-1.3-0.1-2.7-0.1-4 0-3.5-0.3-6.9 0.1-10.4 2.3 1.6 3.6 4.1 5.4 6 1.6 1.7 3 3.5 4.5 5.3 0.9-0.2 0.5-0.9 0.5-1.3v-8.4c0-0.5-0.2-1.1 0.1-1.6h1c0.4 0.9 0.2 1.8 0.2 2.8v10.4c0 0.6 0.1 1.1-0.2 1.6-1.8-0.4-2.4-2.1-3.4-3.3-2.3-2.5-4.4-5.2-6.5-7.8-0.9 0.1-0.4 0.8-0.4 1.3-0.1 2.6 0 5.3 0 8 0 0.5 0.1 1.1-0.2 1.5"/>
			<path class="s2" d="m386 620.5c2.2 1.6 3.5 4 5.4 6 1.5 1.6 2.9 3.4 4.4 5.2 0.9-0.1 0.5-0.8 0.5-1.3v-8.3c0-0.5-0.2-1.1 0.2-1.6h0.9c0.4 0.9 0.2 1.8 0.2 2.7v10.5c0 0.5 0.2 1.1-0.2 1.6-1.7-0.4-2.3-2.2-3.4-3.3-2.3-2.5-4.4-5.2-6.5-7.9-0.9 0.2-0.4 0.9-0.4 1.3 0 2.7 0 5.3 0 8 0 0.5 0.2 1.1-0.2 1.6h-0.9c-0.4-1.5-0.2-3-0.2-4.4 0-3.4-0.3-6.7 0.2-10"/>
			<path class="s2" d="m257.9 627.1c1.2-0.5 1.7-1.3 1.9-2.3 0.2-0.6 0.2-1.1 0-1.7-0.5-1.4-1.6-2.1-3-2.5-1.3-0.3-2.6-0.1-3.9-0.1-0.4 3.5-0.1 6.9-0.2 10.3 0 1.4-0.2 2.8 0.2 4.1 1.2 0 2.4 0.1 3.6 0 2.5-0.1 3.7-1.2 4-3.7 0.3-2-0.4-3.5-2.6-4.2m-1.1-5c1.2 0.5 1.8 1.1 1.7 2.4-0.2 1.4-1 2.1-2.3 2.3-0.6 0.1-1.3 0-2 0v-4.9c0.8 0 1.7-0.1 2.6 0.2zm2.3 9.3c-0.1 1.5-1.2 2.3-2.9 2.3h-2v-5.5c0.7 0 1.5-0.1 2.1 0 2 0.4 3 0.7 2.8 3.3"/>
			<path class="s2" d="m208.3 621.7c-2.1-1.4-4.4-1.3-6.8-1.2-0.4 3.4-0.2 6.9-0.2 10.3 0 1.4-0.2 2.8 0.2 4.1 1.1 0 2.2 0.1 3.2 0 3.3-0.3 5.2-1.9 6.3-5 1-3.1-0.3-6.5-2.7-8.2m-5.5 11.9v-11.8c4.1-0.4 6.6 2 6.9 4.7 0.6 5.1-2.7 7.7-6.9 7.1z"/>
			<path class="s2" d="m127.3 621.7c-2.2-1.4-4.5-1.3-6.9-1.2-0.4 3-0.1 6-0.2 9 0 1.8-0.2 3.6 0.2 5.4 1.1 0 2.2 0.1 3.3 0 3.2-0.3 5.2-1.9 6.2-5 1.1-3.1-0.2-6.5-2.7-8.2m-5.4 11.9v-11.8c4.1-0.4 6.6 2 6.9 4.7 0.5 5.1-2.7 7.7-6.9 7.1z"/>
			<path class="s2" d="m241.1 628.8c-1-2.6-2-5.2-3-7.8-0.1-0.4-0.3-0.8-0.7-0.8-0.5-0.1-0.4 0.5-0.6 0.7-0.2 0.3-0.2 0.6-0.4 0.9q-2.4 6.5-4.9 13c1.3 0.4 1.6-0.4 1.9-1.4q1-2.8 3.7-2.8 3 0 4.2 3c0.3 0.8 0.7 1.7 2 1.1-0.7-2-1.5-4-2.3-6m-5.9 0.5c0.7-1.9 1.4-3.8 2.3-6.2 0.9 2.3 1.6 4.2 2.4 6.2z"/>
			<path class="s2" d="m179 633.8c-0.5-1.6-1-3.1-1.7-4.6q-1.5-4-3-8.1c-0.2-0.4-0.3-0.9-0.8-0.9-0.6-0.1-0.5 0.6-0.7 0.9-0.2 0.2-0.2 0.6-0.4 0.9-1.6 4.2-3.2 8.5-4.9 12.8 1.1 0.4 1.5 0 1.9-0.8 1.3-3.3 1.3-3.3 4.8-3.3h0.6c1.1-0.1 1.9 0 2.1 1.4 0 0.8 0.6 1.4 0.9 2.2 0.2 0.9 0.9 0.9 1.4 0.7 0.7-0.3 0-0.8-0.1-1.1m-8-4.6c0.7-2 1.5-4 2.4-6.3 0.8 2.3 1.6 4.3 2.3 6.3z"/>
			<path class="s2" d="m83.6 622c-0.2-0.7-0.2-1.8-1.1-1.8-0.5 0-0.7 1.1-1 1.8-1.6 4.3-3.2 8.5-4.9 12.8 1.3 0.6 1.6-0.3 2-1.2q0.9-2.9 3.9-2.9 2.9 0 4 2.9c0.3 0.9 0.7 1.8 2 1.2-1.6-4.3-3.2-8.5-4.9-12.8zm-3.4 7.2c0.7-1.9 1.4-3.9 2.3-6.2 0.9 2.3 1.6 4.2 2.4 6.2z"/>
			<path class="s2" d="m13.6 621.4c-0.1-0.5-0.2-1.3-0.9-1.2-0.7 0-0.7 0.9-0.9 1.4-1.7 4.4-3.3 8.8-5 13.2 1.3 0.5 1.6-0.3 1.9-1.3q1-2.9 4-2.9 2.9 0 4 2.9c0.3 0.9 0.7 1.8 2 1.2-1.7-4.4-3.3-8.9-5-13.4m-3.4 8c0.8-2 1.5-3.9 2.4-6.2 0.8 2.2 1.6 4.1 2.4 6.2 0 0-4.8 0-4.8 0z"/>
			<path class="s2" d="m445.2 629.2c-0.6-0.8-0.3-1 0.4-1.2 1.5-0.3 2.3-1.2 2.7-2.6q0.2-1 0-2c-0.5-1.5-1.4-2.4-3-2.7-1.3-0.2-2.5-0.2-3.7-0.2-0.4 3.3-0.1 6.7-0.2 10 0 1.5-0.2 3 0.2 4.4h0.9c0.4-0.6 0.2-1.3 0.2-2 0.1-1.5-0.2-3 0.2-4.5 1.3 1.9 2.6 3.7 3.7 5.6 0.6 0.9 1.2 1.1 2.2 0.8-1.2-1.9-2.4-3.8-3.7-5.6m-2.1-2.2v-5.2q4.2-0.1 3.9 2.9c-0.1 1.7-1.2 2.4-3.9 2.3z"/>
			<path class="s2" d="m143.7 629.2c-0.6-0.8-0.3-1 0.4-1.2 1.5-0.3 2.3-1.2 2.7-2.6q0.2-1 0-2c-0.5-1.5-1.3-2.4-3-2.7-1.2-0.2-2.4-0.2-3.6-0.2-0.4 3.3-0.2 6.7-0.2 10 0 1.5-0.2 3 0.2 4.4h0.9c0.4-0.6 0.1-1.3 0.2-2 0.1-1.5-0.3-3 0.2-4.5 1.2 1.9 2.6 3.7 3.7 5.6 0.5 0.9 1.1 1.1 2.2 0.8-1.3-1.9-2.4-3.8-3.7-5.6m-2.2-2.2v-5.2c2.9-0.1 4.1 0.9 4 2.9-0.2 1.7-1.3 2.4-4 2.2"/>
			<path class="s2" d="m59.1 620.6c1-0.3 1.6-0.1 2 0.9 0.7 1.5 1.6 3 2.4 4.6 1.5-1.7 1.7-4.2 3.4-5.6 0.2-0.2 0.8-0.2 1.2 0.2-1 1.7-1.9 3.3-2.9 5-0.6 1-1 2-0.2 3.3 1.2 1.9 2.1 3.9 3.2 5.8-1.1 0.5-1.7 0-2.1-1-0.8-1.6-1.6-3.1-2.4-4.7-2.1 1.6-1.8 5-4.9 5.7 1.2-2.2 2.3-4.4 3.6-6.6 0.3-0.5 0.3-0.9 0-1.4q-1.7-3.1-3.4-6.3"/>
			<path class="s1" d="m311.4 558.1c0.2-1.5 1.3-2.3 2.6-2.5 1.7-0.4 3.1 0.3 4.1 1.8 0.1 0.3 0.2 0.5 0.3 0.7q0.3 1 0 2c-1.5 3.3-4.8 3.4-6.6 1.2-0.3-0.4-0.3-0.7-0.4-1.2-0.1-0.6-0.1-1.3 0-2"/>
			<path class="s1" d="m380 558.1c0.2-1.5 1.2-2.3 2.5-2.5 1.7-0.4 3.1 0.3 4.1 1.8 0.1 0.3 0.3 0.5 0.4 0.7q0.2 1 0 2c-1.6 3.3-4.9 3.4-6.6 1.2-0.3-0.4-0.4-0.7-0.4-1.2-0.2-0.6-0.2-1.3 0-2"/>
			<path class="s2" d="m358.7 633.7c-3.6 2.9-7.6 1.7-9.8-1.1-1.9-2.3-2.2-6.9 0.2-9.7 2.6-2.9 5.8-3.2 9.6-0.8 0.2 0.5 0.3 1 0 1.4-1.1-0.2-1.6-1.2-2.8-1.4-3.5-0.7-6 0.8-6.8 4.3-0.2 0.9-0.2 1.8 0 2.7 0.5 4.3 4.9 6.3 8.5 3.9 0.3-0.2 0.7-0.4 1.1-0.6 0.2 0.4 0.2 0.9 0 1.3"/>
			<path class="s2" d="m326.7 630.3c-0.1-1.1-1.1-1.5-1.8-1.9-1.1-0.6-2.3-0.9-3.1-1.9-1.7-1.7-1.5-3.8 0.5-5.4 1.3-1.1 4.2-0.7 5.3 0.7 0.4 0.4 0.2 0.7 0 1-0.2 0.4-0.7 0.4-0.9 0.1-0.4-0.7-1.1-0.9-1.8-1.1-1.1-0.2-2.1-0.2-2.5 1.2-0.3 0.6-0.2 1.2 0 1.7 0.1 1.1 1 1.3 1.7 1.7 1 0.6 2.1 0.8 2.9 1.7 1.3 1.4 1.7 2.9 0.9 4.6-0.7 1.7-2.2 2.4-3.9 2.5-1.9 0.1-3-1-3.9-2.4-0.4-0.5-0.1-0.8 0.3-0.9 0.5-0.3 0.7 0.2 0.9 0.5 1.7 2.3 4.2 2.1 5.4-0.5q0.3-0.8 0-1.7"/>
			<path class="s2" d="m370.5 633.6h4.1c0.5 0 0.8 0 0.8 0.7 0 0.6-0.4 0.6-0.8 0.6q-2.7 0-5.4 0c-0.4-1.3-0.2-2.8-0.2-4.1 0-3.4-0.3-6.9 0.2-10.3 1.7 0 3.5 0 5.2 0 0.5 0 1-0.2 1 0.6 0 0.9-0.5 0.7-0.9 0.7-1.4 0-2.6 0-4 0-0.3 1.6-0.3 3.2 0 4.9h4.1c0.5 0 0.9 0 0.9 0.6 0 0.7-0.4 0.7-0.9 0.7h-4.1c-0.3 1.8-0.3 3.6 0 5.5"/>
			<path class="s2" d="m305.3 626.7h4.1c0.5 0 0.8 0 0.8 0.6 0 0.7-0.3 0.7-0.8 0.7h-4.1c-0.4 1.8-0.4 3.7 0 5.5h4.1c0.5 0 0.8 0 0.8 0.7 0 0.6-0.4 0.6-0.8 0.6q-2.7 0-5.5 0c-0.4-1.3-0.1-2.7-0.1-4.1 0-3.4-0.3-6.9 0.1-10.3h5.3c0.4 0 1-0.2 1 0.7 0 0.8-0.5 0.6-1 0.6-1.3 0-2.6 0-3.9 0.1-0.4 1.6-0.4 3.2 0 4.8"/>
			<path class="s2" d="m44.7 633.6h4.1c0.5 0 0.8 0 0.8 0.7 0 0.6-0.4 0.6-0.8 0.6q-2.7 0-5.5 0c-0.3-1.3-0.1-2.8-0.1-4.1 0-3.4-0.3-6.9 0.1-10.3 1.8 0 3.5 0 5.3 0 0.4 0 1-0.3 1 0.6 0 0.9-0.5 0.7-1 0.7-1.3 0-2.6 0-3.9 0-0.3 1.6-0.3 3.2 0 4.9h4.1c0.5 0 0.9 0 0.9 0.6 0 0.7-0.4 0.7-0.9 0.7h-4.1c-0.3 1.8-0.3 3.6 0 5.5"/>
			<path class="s2" d="m426.2 633.6h4.1c0.5 0 0.8 0 0.8 0.7 0 0.6-0.3 0.6-0.8 0.6q-2.7 0-5.4 0c-0.4-1.3-0.2-2.8-0.2-4.1 0-3.4-0.3-6.9 0.2-10.3 1.7 0 3.5 0 5.2 0 0.5 0 1-0.2 1 0.6 0 0.9-0.5 0.7-0.9 0.7-1.4 0-2.6 0-4 0-0.3 1.6-0.3 3.2 0 4.9h4.1c0.5 0 0.9 0 0.9 0.6 0 0.7-0.4 0.7-0.9 0.7h-4.1c-0.3 1.8-0.3 3.6 0 5.5"/>
			<path class="s2" d="m272.3 633.6h4.1c0.5 0 0.9 0 0.9 0.7 0 0.6-0.4 0.6-0.9 0.6q-2.7 0-5.4 0c-0.4-1.3-0.2-2.8-0.2-4.1 0.1-3.4-0.2-6.9 0.2-10.3 1.7 0 3.5 0 5.2 0 0.5 0 1-0.3 1 0.6 0 0.9-0.5 0.7-0.9 0.7-1.3 0-2.6 0-4 0-0.3 1.6-0.3 3.2 0 4.9h4.1c0.5 0 0.9 0 0.9 0.6 0 0.7-0.4 0.7-0.9 0.7h-4.1c-0.3 1.8-0.3 3.6 0 5.5"/>
			<path class="s2" d="m291 634.9h-1.2c-0.4-0.9-0.2-1.9-0.2-2.8-0.1-3.4 0.2-6.9-0.2-10.3-0.9 0-1.7 0-2.6 0-0.5 0-0.7-0.2-0.7-0.7 0-0.5 0.2-0.6 0.7-0.6h6.9c0.5 0 0.7 0.1 0.7 0.6 0 0.5-0.2 0.7-0.7 0.7-0.8 0-1.6 0-2.3 0-0.4 3 0 6-0.2 8.9 0 1.4 0.2 2.9-0.2 4.2"/>
			<path class="s2" d="m410 621.8c-0.9 0-1.7 0-2.6 0-0.5 0-0.7-0.2-0.7-0.7 0-0.5 0.2-0.6 0.7-0.6h6.9c0.5 0 0.7 0.1 0.7 0.6 0 0.5-0.2 0.7-0.7 0.7-0.8 0-1.6 0-2.3 0-0.4 3 0 6-0.2 8.9 0 1.5 0.2 2.9-0.2 4.2h-1.2c-0.4-0.9-0.2-1.9-0.2-2.8-0.1-3.4 0.2-6.9-0.2-10.3"/>
			<path class="s2" d="m28.2 620.5h0.9c0.5 2.3 0 4.6 0.2 7 0.2 2-0.2 4.1 0.2 6.1h3.2c0.5 0 0.8 0 0.8 0.7 0 0.6-0.4 0.6-0.8 0.6-1.5 0-3 0-4.4 0-0.4-1.3-0.2-2.8-0.2-4.1 0-3.4-0.3-6.9 0.2-10.3"/>
			<path class="s2" d="m157.3 620.5h1c0.4 0.8 0.1 1.6 0.1 2.4v10.4c0 0.6 0.2 1.1-0.1 1.6h-1c-0.4-1.3-0.2-2.7-0.2-4 0.1-3.5-0.2-6.9 0.2-10.4"/>
			<path class="s2" d="m222.2 634.9h-1c-0.4-1.3-0.1-2.7-0.1-4 0-3.5-0.3-6.9 0.1-10.4h1c0.4 0.8 0.2 1.6 0.2 2.4v10.5c0 0.5 0.1 1.1-0.2 1.6"/>
			<path class="s2" d="m102.2 610.5c0.2-0.9 0.9-1.3 1.8-1.2 1.2 0.1 1.7 1.2 1.8 2.2 0.1 0.6-0.1 1.5-1.1 1.9-1.1 0.4-1.8 0.2-2.5-0.8-0.2-0.7-0.1-1.4 0-2.1z"/>
			<path class="s2" d="m386.9 586.1c-0.1 0.6-0.6 1.5-1.8 1.4-1.2-0.1-1.8-0.9-1.8-2.1 0.1-1.2 0.7-1.8 1.8-1.9 1.3 0 1.9 0.8 1.8 2.6z"/>
			<path class="s2" d="m417.6 612.8v-35.1c0.6 0.2 0.3 0.7 0.3 1.1v32.9c0 0.4 0.3 0.9-0.3 1.1z"/>
			<path class="s2" d="m345.8 592.5v20.3c-0.6-0.1-0.4-0.6-0.4-0.9v-18.4c0-0.3-0.2-0.8 0.4-1"/>
			<path class="s2" d="m180.7 592.5v20.3c-0.6-0.1-0.3-0.6-0.3-0.9v-18.4c0-0.3-0.3-0.8 0.3-1"/>
			<path class="s2" d="m88.1 612.8v-16c0-0.6-0.3-1.3 0.4-1.7 0 5.4 0 10.8-0.1 16.2 0 0.5 0.4 1.2-0.3 1.6"/>
			<path class="s2" d="m371.1 612.8v-15.4c0.4 0.3 0.3 0.8 0.3 1.2v13.5c0 0.2 0.2 0.6-0.3 0.7"/>
			<path class="s2" d="m206.1 612.8v-15.4c0.3 0.3 0.3 0.8 0.3 1.2v13.5c0 0.2 0.1 0.6-0.4 0.7"/>
			<path class="s2" d="m109.5 635.2v-14.7c0.5 0.1 0.4 0.5 0.4 0.8v13.1c0 0.3 0.1 0.7-0.4 0.8"/>
			<path class="s2" d="m397.4 635.2l0.1-14.7c0.4 0.1 0.3 0.5 0.3 0.8v13.1c0 0.3 0.1 0.7-0.3 0.8"/>
			<path class="s2" d="m157.3 620.5v14.4c-0.5-0.1-0.3-0.5-0.3-0.8v-12.8c0-0.4-0.1-0.8 0.3-0.8"/>
			<path class="s2" d="m140.2 620.5v14.4c-0.5-0.1-0.3-0.5-0.3-0.8v-12.8c0-0.4-0.2-0.8 0.3-0.8"/>
			<path class="s2" d="m98 620.5v14.4c-0.4-0.1-0.3-0.5-0.3-0.8v-12.8c0-0.4-0.1-0.8 0.3-0.8"/>
			<path class="s2" d="m120.4 620.5v14.4c-0.5-0.1-0.3-0.5-0.3-0.8v-12.8c0-0.4-0.2-0.8 0.3-0.8"/>
			<path class="s2" d="m43.4 620.5v14.4c-0.5-0.1-0.4-0.5-0.4-0.8v-12.8c0-0.3-0.1-0.8 0.4-0.8"/>
			<path class="s2" d="m28.2 620.5v14.4c-0.5-0.1-0.4-0.5-0.4-0.8v-12.8c0-0.3-0.1-0.8 0.4-0.8"/>
			<path class="s2" d="m441.7 620.5v14.4c-0.5-0.1-0.4-0.5-0.4-0.8v-12.8c0-0.4-0.1-0.8 0.4-0.8"/>
			<path class="s2" d="m424.9 620.5v14.4c-0.5-0.1-0.4-0.5-0.4-0.8v-12.8c0-0.4-0.1-0.8 0.4-0.8"/>
			<path class="s2" d="m386 620.5v14.4c-0.5-0.1-0.4-0.5-0.4-0.8v-12.8c0-0.4-0.1-0.8 0.4-0.8"/>
			<path class="s2" d="m369.2 620.5v14.4c-0.5-0.1-0.4-0.5-0.4-0.8v-12.8c0-0.4-0.1-0.8 0.4-0.8"/>
			<path class="s2" d="m201.5 620.5v14.4c-0.5-0.1-0.4-0.5-0.4-0.8v-12.8c0-0.4-0.1-0.8 0.4-0.8"/>
			<path class="s2" d="m303.9 620.5v14.4c-0.4-0.1-0.3-0.5-0.3-0.8v-12.8c0-0.4-0.1-0.8 0.3-0.8"/>
			<path class="s2" d="m271 620.5v14.4c-0.5-0.1-0.4-0.5-0.4-0.8v-12.8c0-0.4-0.1-0.8 0.4-0.8"/>
			<path class="s2" d="m252.9 620.5v14.4c-0.5-0.1-0.4-0.5-0.4-0.8v-12.8c0-0.4-0.1-0.8 0.4-0.8"/>
			<path class="s2" d="m221.2 620.5v14.4c-0.4-0.1-0.3-0.5-0.3-0.8v-12.8c0-0.4-0.1-0.8 0.3-0.8"/>
			<path class="s2" d="m108.6 620.5c0 3.5 0 6.9 0 10.4 0 0.3 0.4 1.3-0.7 0.8 0.6-0.4 0.3-1 0.3-1.5v-8.3c0-0.4-0.3-1.1 0.4-1.4"/>
			<path class="s2" d="m396.5 620.5c0 3.5 0 6.9 0 10.4 0 0.3 0.4 1.3-0.7 0.8 0.6-0.4 0.4-1 0.4-1.5v-8.3c0-0.4-0.4-1.1 0.3-1.4"/>
			<path class="s2" d="m88.5 592.4c-0.5-0.2-0.4-0.6-0.4-1 0.2-2.7-0.3-5.5 0.3-8.2 0 3.1 0 6.2 0.1 9.3"/>
			<path class="s1" d="m402.8 542.7c-0.5-1.2-0.5-2.4-0.1-3.7z"/>
			<path class="s2" d="m148.5 601c0.4 0.9 0.4 1.8 0 2.7z"/>
			<path class="s2" d="m428.9 601c0.4 0.9 0.4 1.8 0 2.7z"/>
			<path class="s2" d="m74 603.7v-2.4q0.7 1.2 0 2.4z"/>
			<path class="s2" d="m25.9 590.8v-2.4q0.7 1.2 0 2.4z"/>
			<path class="s2" d="m102.2 610.5v2.1c-0.5-0.6-0.4-1.4 0-2.1z"/>
			<path class="s2" d="m358.6 623.5c0-0.5 0-1 0.1-1.4 0.4 0.4 0.3 1 0.1 1.5h-0.1c0 0 0-0.1-0.1-0.1z"/>
			<path class="s0" d="m406.4 302.1c0-0.8 0.3-1.8-0.2-2.6-0.1-1 0-2-0.4-2.9 0.5-0.7 0.4-1.3 0-2q0-0.5 0-1c0-0.5 0.1-1.2-0.3-1.7-0.3-2.8-0.5-5.6-1.1-8.5-1.7-8.7-3.8-17.3-6.8-25.6-4.9-13.8-11.5-26.5-20-38.4q-10.3-14.4-23.5-26.2c-9.6-8.5-20-15.7-31.4-21.6-9.4-5-19.2-8.8-29.5-11.8-11.3-3.2-22.9-4.9-34.7-5.6-0.6-0.5-1.3-0.2-2-0.3h-2.9v0.2h-5.6v-0.2h-2.9c-0.7 0.1-1.4-0.2-2.1 0.3-1.4 0.1-2.8 0.3-4.2 0.3-3.7 0.2-7.3 0.6-10.8 1.1-9.9 1.5-19.6 3.8-29 7.2-13.8 4.9-26.7 11.5-38.6 20q-16.1 11.6-28.9 26.8-13.1 15.6-21.8 33.9c-4.6 9.8-8.2 20-10.7 30.7-2.2 10.1-3.9 20.3-3.9 30.6-0.5 0.5-0.3 1.3-0.3 1.9 0.1 2.6-0.3 5.3 0.3 7.9 0 1.2 0 2.5 0.1 3.7v1.9c0.1 2.5 0.3 4.9 0.6 7.3 0.8 5.8 1.6 11.5 3 17.1 4 16.9 10.4 32.9 19.7 47.5 7.6 12.3 16.8 23.2 27.4 32.9 11.8 10.7 24.7 19.4 39.1 26.1 11 5 22.3 8.9 34.2 11.3 7.5 1.5 15.1 2.5 22.8 3.1 0.8-0.2 1.5-0.2 2.3 0h12.9c0.6-0.2 1.3-0.2 2 0 2.9-0.4 5.8-0.5 8.6-0.9 5.8-0.6 11.6-1.5 17.2-2.8 9.2-2.1 18.1-5 26.8-8.7 11.9-5.1 23-11.6 33.4-19.4 4.9-3.7 9.5-7.9 14.1-12v58.6c0.1 0 0.2 0 0.3 0 10.2-6.3 19.6-13.7 28.4-21.9 3.6-3.3 7.1-6.7 10.4-10.4 2.9-3.1 5.7-6.1 8.3-9.5 0-0.1 0-0.2 0-0.3v-134.1c0-0.6 0.3-1.4-0.3-2m-47.1 14.5c-0.6 0.7-0.3 1.5-0.3 2.3q0 1.2-0.1 2.3c-0.4 0.5-0.3 1.1-0.2 1.7-0.6 3.1-1 6.3-1.7 9.4-2.8 13.6-8.1 26.2-15.8 37.7-9.7 14.5-22.1 26-37.2 34.6-11.3 6.3-23.3 10.5-36.1 12.5-1.9 0.3-3.8 0.6-5.8 0.7-0.6 0-1.2-0.2-1.7 0.3-0.7 0-1.5 0.1-2.3 0.3-1-0.5-1.9-0.4-3 0q-1.3 0-2.6 0.1h-3.6q-1.4 0-2.6-0.1c-1.1-0.5-2.2-0.5-3.3 0-0.8 0.2-1.3-0.4-2-0.3-0.5-0.5-1.1-0.4-1.7-0.3-10.4-0.8-20.3-3.4-29.9-7.4-14.5-6-27.2-14.7-37.9-26.2q-14.1-14.9-21.8-34.1c-2.8-6.9-4.8-14-6.2-21.3-0.5-3.1-1.2-6.1-1.1-9.2 0-0.8 0.2-1.5-0.3-2.1 0-0.9 0-1.7 0-2.6v-10.2c0-0.5 0-1.1 0.1-1.6 0.5-0.8 0.2-1.6 0.2-2.4 0.4-8.9 2.5-17.5 5.3-25.9q4.9-14.8 13.9-27.5c6-8.6 13.2-16.1 21.3-22.7 8.4-6.7 17.5-12 27.4-16 7.3-2.9 14.8-5.1 22.6-6.1 1.2-0.2 2.5-0.5 3.8-0.7 0.6 0 1.2 0.2 1.7-0.3 0.4 0 0.8 0 1.3-0.1 0.5 0 1.1 0.2 1.7-0.2q1.1 0 2.2-0.1h14.2q1.1 0 2.3 0.1c0.5 0.4 1.1 0.3 1.7 0.2 0.4 0 0.8 0.1 1.3 0.1 0.5 0.4 1.1 0.3 1.7 0.3 2.4 0.6 4.9 0.8 7.3 1.3 3.6 0.7 7.1 1.6 10.6 2.7q16.3 4.9 30.2 14.7c12.1 8.5 22.1 19 30 31.6q6.8 11 10.9 23.2c2.2 6.5 3.8 13.1 4.5 19.9 0.2 1.5 0 3.1 0.7 4.5 0 0.7-0.3 1.4 0.2 2.1 0 0.8 0.1 1.7 0.1 2.6v10.8q0 0.7-0.1 1.4"/>
			<path class="s0" d="m452.8 317.6c-0.5 0.6-0.2 1.3-0.2 2q0.1 0 0.2-0.1z"/>
			<path class="s1" d="m453 69.6c0-0.6 0.1-1.2-0.1-1.8-6.1-5.3-12.5-10.2-19.1-14.8-0.4 0.6-0.2 1.2-0.2 1.8v55.2c0 0.7 0.2 1.4-0.1 2-3.1 0.3-6.2 0.1-9.3 0.1-1.5 0-3.1 0.2-4.6-0.2v-67.6c0-0.4 0.3-0.9-0.3-1.2-4.8-2.9-9.6-5.8-14.4-8.7-1.1 0.4-0.5 1.3-0.5 1.9v140.7c0 0.4-0.2 0.6-0.5 0.5-2.7-2.9-5.3-5.9-8-8.7-4.8-5-9.9-9.6-15.3-14.1-4.5-3.8-9.1-7.4-14-10.8-5.9-4-11.9-7.8-18.2-11.3-9.3-5-18.9-9.5-28.9-13.1-13.1-4.7-26.5-8.1-40.3-9.9-5.4-0.7-10.9-1.4-16.3-1.7-0.5-0.5-1.1-0.2-1.7-0.2-0.6 0-1.3-0.1-1.9-0.2-0.8-0.2-1.6 0-2.4 0h-4.2v-0.2q-0.8 0-1.6-0.1h-0.7q-0.6-0.1-1.3-0.1h-6.4c-0.6 0-1.4 0-2 0.2-0.6 0.2-1.3 0.2-1.9 0.2h-2.2c-0.8 0-1.6 0.1-2.4 0.3-0.6 0.1-1.2 0-1.9 0-0.6 0-1.1 0.2-1.7 0.3-0.5 0-1 0-1.5 0.1q-0.4 0-0.8 0.1c-0.6 0.2-1.3 0.2-1.9 0.2-0.4 0-0.7 0-1 0.1-0.6 0.2-1.2 0.2-1.7 0.2-1 0-1.9 0.2-2.8 0.5-0.6 0.2-1.2 0.2-1.7 0.2-14.3 2.2-28.2 5.9-41.6 11.1-11.7 4.5-22.8 10.1-33.4 16.7-11.9 7.4-22.9 15.9-33.1 25.5-5.8 5.6-11.2 11.5-16.3 17.6-13.3 16-23.7 33.6-31.7 52.8-4.4 10.6-7.7 21.6-10.2 32.8-1 4.2-1.9 8.3-2.2 12.6 0 0.6 0 1.1-0.2 1.7 0 0.2-0.1 0.5-0.1 0.7 0 0.6 0 1.1-0.3 1.7 0 0.2 0 0.4-0.1 0.7 0 0.6 0 1.2-0.2 1.9q-0.1 0.3-0.1 0.7c0 0.7 0 1.3-0.3 2 0 0.4-0.1 0.8-0.1 1.3 0 0.7 0.1 1.5-0.2 2.3q-0.1 0.5-0.1 1c0 0.7 0 1.4-0.2 2.1-0.1 0.9-0.1 1.7-0.1 2.6v2.8c0 0.7 0 1.5-0.3 2.2q-0.2 1.3-0.1 2.7v9.5c0 0.9 0 1.8 0.1 2.6 0.3 0.8 0.3 1.5 0.3 2.3v2.8c0 0.9 0 1.7 0.1 2.5 0.2 0.7 0.2 1.4 0.2 2.1 0 0.7 0 1.3 0.1 1.9 0.3 0.7 0.3 1.2 0.2 1.9 0 1.3 0 2.5 0.5 3.7 0.2 0.6 0.2 1.2 0.2 1.7 0 0.8 0 1.6 0.1 2.3 2.4 16.1 6.5 31.7 12.5 46.8 4.6 11.3 10.2 22 16.6 32.3 6.8 10.9 14.6 21 23.3 30.4 6.2 6.6 12.8 12.8 19.8 18.6 13.5 11.1 28.2 20.3 44 27.7 12.8 5.9 26 10.5 39.9 13.5 4 0.9 8.1 2 12.3 2.2 0.5 0 1.1 0 1.7 0.2 0.9 0.4 1.8 0.5 2.8 0.5 0.5 0 1.1 0 1.7 0.2q0.4 0 0.7 0.1c0.7 0 1.4 0 2 0.2q0.5 0.1 1 0.1c0.6 0 1.3 0 2 0.3 0.3 0.1 0.6 0.1 1 0.1 0.8 0 1.7-0.1 2.5 0.2q0.6 0.1 1.1 0.1c0.8 0 1.6 0 2.4 0.3 1 0.2 1.9 0.1 2.9 0.1h3.5c1.1 0 2.3-0.1 3.4 0.3 1.1 0.1 2.3 0.2 3.4 0q0.3-0.2 0.5-0.3c1.2 0 2.4-0.1 3.6-0.1h3.3v-0.1h0.1c1.2-0.1 2.4 0.1 3.5-0.2q3.5-0.2 6.9-0.4c0.7-0.3 1.4 0.1 2.1-0.2 2.9-0.1 5.7-0.6 8.6-1 3.7-0.6 7.3-1 10.9-1.8 6.7-1.4 13.3-3.1 19.8-5q13.2-4 25.6-9.8c8.3-3.8 16.3-8.1 24-13.2 0.7-0.7 0.5-1.7 0.5-2.6v-53.3c0-0.7 0-1.4-0.1-2.1-0.6-1.2-1.2-0.4-1.7 0q-2.1 2-4.2 3.9c-12.3 10.8-25.8 19.4-40.7 26-11.2 4.9-22.8 8.4-34.8 10.5-6.4 1.2-12.8 1.9-19.4 2.4q-1 0-1.9 0h-12.4c-0.7 0.1-1.5 0-2.2 0-0.8 0-1.5-0.2-2.2-0.2-7.6-0.4-15.1-1.6-22.6-3.2-14.8-3.3-28.8-8.5-42.1-15.9q-24.8-13.8-43.2-35.5c-15.6-18.4-26.3-39.3-32.2-62.6-2.4-9.1-3.6-18.3-4.5-27.6v-2c0-1.1 0-2.3-0.1-3.5-0.4-3.1-0.3-6.3-0.1-9.5q0.2-1 0.2-2c-0.2-4.6 0.5-9.2 1.1-13.8 0.9-6.2 2-12.4 3.6-18.5 4.3-16.5 11.1-31.9 20.4-46.1 6.7-10.2 14.5-19.7 23.5-28 4.5-4.1 9-8.1 13.8-11.7 9.4-7.1 19.5-13 30.3-17.7 10.8-4.7 22-8.2 33.6-10.3 7-1.4 14.1-2 21.2-2.6 0.7-0.2 1.4-0.2 2.1-0.2h11.2c0.7 0 1.4 0 2.1 0.2 1.3 0.2 2.7 0.3 4.1 0.4 6.5 0.4 12.9 1.4 19.2 2.6 19.9 4 38.4 11.7 55.3 23.1 9.8 6.5 18.8 14 26.8 22.7 3.6 3.9 7.1 7.9 10.4 12.1 7.8 10.1 14.1 21.2 19.2 32.9 4.5 10.2 7.7 20.8 9.8 31.8 0.8 3.9 1 7.9 1.9 11.8 0.2 0.6 0.2 1.1 0.2 1.7 0 0.3 0 0.7 0.1 1 0.3 0.7 0.2 1.4 0 2.1 0 1 0.2 1.9 0.3 2.9 0.3 0.8 0.2 1.8 0.3 2.6 0 0.2 0.1 0.4 0.2 0.6 0.1 0.8 0 1.6 0 2.3v130.3c0 1-0.3 2 0.5 2.8 0.1-0.1 0.4-0.2 0.5-0.3 4-5.2 8-10.4 11.6-15.9 5.2-7.8 9.8-15.9 13.9-24.3 3.3-6.7 6.1-13.5 8.6-20.5 4.2-11.8 7.2-23.9 9.1-36.3 1-6.1 1.5-12.2 2.1-18.3 0.3-1 0.1-1.9 0.1-2.8 0.1-0.8-0.1-1.5 0.2-2.2 0-0.9 0.1-1.8 0.1-2.6 0.2-0.6 0.1-1.2 0.1-1.8v-243.6"/>
			<path class="s2" d="m445.7 603.4v-2c0.4 0.6 0.4 1.3 0 2z"/>
			<path class="s2" d="m165.3 603.4v-2c0.4 0.6 0.4 1.3 0 2z"/>
		</g>
	</g>
</svg>