<svg version="1.2" xmlns="http://www.w3.org/2000/svg" viewBox="0 0 78 69" width="78" height="69">
	<title>43</title>
	<style>
		.s0 { fill: #ee507c } 
		.s1 { fill: #ef5e83 } 
	</style>
	<g id="Layer_1-2">
		<g>
			<path class="s0" d="m53.3 0c0.1 0.1 0.2 0.1 0.3 0.2q1.2 0.4 2.1 1.4 0.8 0.9 1.2 2 0.2 0.8 0 1.5-0.2 0.8-0.7 1.4c-0.1 0.1-0.1 0.1-0.2 0.1q0-0.2 0-0.3c-0.1-1.7-0.6-3.1-1.6-4.3-0.6-0.7-1.2-1.3-2-1.8-0.1-0.1-0.2-0.1-0.2-0.2 0 0 1.1 0 1.1 0z"/>
			<path class="s1" d="m0 68.9c0.1-0.1 0.3 0 0.5-0.1 0 0.1 0.1 0.1 0.2 0.1q1.4 0 2.9 0 0 0 0 0h-3.6z"/>
			<path class="s1" d="m77.6 40.5c0 0 0 0 0 0v3.5c0 0 0 0 0 0q0-1.8 0-3.5z"/>
			<path class="s0" d="m37.7 39.9c-0.3-0.1-0.4-0.3-0.6-0.4-0.8-0.6-1.6-1.3-2.2-2.1q-1.3-1.8-1.8-4c-0.3-1.4-0.4-2.8-0.2-4.3q0.2-2.3 0.8-4.5c0.3-1 0.8-2 1.3-2.9 0.6-1.2 1.3-2.3 2.1-3.3q0.9-1.1 2-2c1.2-0.9 2.4-1.8 3.6-2.7 1.5-1.2 2.9-2.4 4.2-3.9 1.1-1.2 2.1-2.6 2.8-4.1q1.1-2 1.3-4.4c0.1-0.2 0.1-0.4 0.1-0.7 0.2 0 0.3 0.1 0.4 0.2q3 1.5 3.7 4.8 0.3 1.4 0 2.8-0.2 0.9-0.8 1.5-0.4 0.4-0.7 0.8c-0.2 0.3-0.2 0.4 0.2 0.5q0.6 0.2 1.1 0.6 0.1 0 0.1 0.1c-0.6 0-1.1-0.2-1.7-0.3q0 0.4 0.1 0.8 0.1 0.8 0.3 1.5 0.4 1 0 1.9c-0.5 1.8-1.4 3.4-2.4 5q-1.3 2-2.9 3.7-0.3 0.3-0.6 0.7c-0.4 0.5-0.9 0.7-1.6 0.7-0.6 0-1.3-0.1-1.9-0.4-1.4-0.5-2.6-1.2-3.7-2.2-0.6-0.5-1.3-1.1-1.9-1.7-0.1 0-0.1-0.1-0.3-0.2 0 0.2 0.2 0.4 0.3 0.5q0.1 0.3 0.3 0.5 0.1 0.3 0.3 0.5 0.2 0.2 0.4 0.5 0.2 0.2 0.4 0.4c-0.1 0.1-0.1 0.1-0.2 0.2-0.8 0.6-1.6 1.2-2.3 1.8-1.1 1.1-2.1 2.4-2.8 3.8-0.5 1.2-0.8 2.4-0.7 3.8q0.2 1.6 1.1 3c0.7 1.1 1.5 2.2 2.3 3.3 0 0 0.1 0.1 0.1 0.2q0 0 0 0zm0.8-18.5q0 0 0 0 0 0 0 0 0 0 0 0 0-0.1 0-0.1h-0.1q0 0.1 0.1 0.1zm6.7-0.5q0 0.2 0.1 0.3 0.2 0.1 0.3 0.2 0.6 0.6 1.2 1c0.6 0.3 1.2 0.3 1.7-0.2 0.3-0.3 0.5-0.7 0.7-1q0-0.2 0-0.2-0.3-0.3-0.5-0.6-0.1-0.1-0.3 0-0.1 0.1-0.3 0.2-0.2 0.1-0.3 0-0.1-0.1-0.2-0.2c-0.2-0.2-0.4-0.2-0.7-0.1q-0.8 0.3-1.7 0.6zm7.9-9.4q-0.5-0.1-0.8-0.1-0.8-0.1-1.5 0.1c-0.2 0.1-0.2 0.1-0.1 0.3 0.3 0.4 1.1 0.7 1.7 0.3 0.2-0.1 0.4-0.3 0.7-0.6z"/>
			<path class="s0" d="m26.8 14.7c0.3 0.5 0.4 1 0.5 1.6 0.4 1.7 0.1 3.4-0.4 5-0.6 1.5-1.5 2.9-2.5 4.2-1 1.2-2.1 2.2-3.3 3.2-1.9 1.5-3.9 3-6 4.4-0.7 0.4-1.3 0.8-2 1.2q-1.6 1.2-3 2.8-1.6 1.7-2.9 3.8c-1.4 2.2-2.5 4.6-3.1 7.2q-0.5 2.1-0.4 4.3c0.1 1.6 0.5 3.2 1.2 4.7 0.7 1.4 1.8 2.2 3.3 2.5 1.2 0.2 2.3 0.1 3.4-0.3 1.1-0.3 2.2-0.8 3.3-1.4q2.2-1.2 4.1-2.7c1.1-0.8 2.1-1.8 3-2.9q0.6-0.9 0.9-1.9 0.1-0.2-0.1-0.4c-0.1-0.3-0.3-0.5-0.6-0.6-0.4-0.2-0.8-0.3-1.2-0.5-0.8-0.2-1.5-0.5-2.1-0.9-1-0.8-1.6-1.8-1.9-3.1q-0.3-1.4-0.2-2.8c0-1.5 0.3-3 0.7-4.4 0.4-1.1 0.8-2.1 1.6-3 0.5-0.7 1.1-1.3 1.9-1.6 0.8-0.4 1.7-0.4 2.5-0.2 0.2 0 0.2 0 0.2 0.2q-0.9 2.6-1.7 5.1 0 0.1-0.1 0.1c-0.1 0-0.1-0.1-0.2-0.2-0.4-0.1-0.7-0.3-1.1-0.4-0.8-0.1-1.5 0.2-1.9 0.8-0.5 0.6-0.7 1.2-0.9 1.9q-0.1 0.5-0.2 1c-0.1 0.3 0 0.6 0.1 0.9 0.3 0.6 0.7 1.1 1.3 1.4 0.6 0.5 1.2 0.8 1.9 1 0.7 0.2 1.4 0.5 2 0.9q0.4 0.2 0.6 0.5c0.3 0.2 0.4 0.5 0.4 0.9 0 0.2 0.1 0.4 0.1 0.7q0.2 1.3 0 2.7-0.2 1.6-0.7 3.1-0.9 2.4-2.6 4.3c-1.4 1.5-3.1 2.6-4.9 3.5-1.6 0.8-3.1 1.4-4.8 1.7-0.8 0.2-1.7 0.3-2.5 0.3q-3.1-0.3-4.7-3c-0.5-0.9-0.8-1.9-1.1-3q-0.3-1.6-0.4-3.1-0.1-1.3 0-2.5 0.1-2.7 0.6-5.3c0.3-1.1 0.7-2.2 1.1-3.2 0.9-2.5 2.1-4.8 3.7-7q1.1-1.6 2.5-3c0.6-0.7 1.4-1.2 2.1-1.8 1.3-0.9 2.7-1.7 4.1-2.6 1.5-0.9 3-1.9 4.4-2.9 1.2-0.9 2.4-1.9 3.4-3.1 1.1-1.3 1.9-2.7 2.3-4.4q0.4-1.6 0.3-3.3 0-0.2 0-0.4z"/>
			<path class="s0" d="m77.6 40.5q0 1.7 0 3.5c0 0.6-0.1 1.2-0.1 1.8q-0.2 1.5-0.5 3-0.7 2.9-2 5.6c-0.4 0.8-0.7 1.5-1.1 2.3-0.9 1.8-1.9 3.6-3.2 5.1-1.4 1.7-3 3.2-4.9 4.3q-1.3 0.6-2.7 1c-1.1 0.4-2.2 0.7-3.3 0.9q-1.6 0.3-3.2 0.5-2.2 0.2-4.3 0.3-2.8 0.1-5.7 0.1-1.3-0.1-2.5-0.1-0.5 0-1-0.1 0.6 0 1.3-0.1 1.5-0.2 3.1-0.4 2.2-0.4 4.3-0.8c2.5-0.5 5.1-1.1 7.6-2.1 1.3-0.4 2.6-1 3.8-1.8q1.2-0.8 2.3-1.9 2.5-2.2 4.4-4.8c2.2-2.9 3.8-6 4.9-9.5q0.7-2.4 1-4.8 0.2-2 0.2-4.1-0.1-0.5-0.1-1.1c0-0.3-0.1-0.6-0.2-0.9-0.5-1.5-1.3-2.7-2.2-3.9-0.9-1.1-1.9-2.1-2.9-3-1.7-1.4-3.2-2.9-4.7-4.5q-1.8-1.8-3.5-3.7c-0.5-0.5-0.8-1.1-1.2-1.7-0.6-1.1-1.1-2.2-1.4-3.4-0.3-1.5-0.3-2.9 0.1-4.3q0.2-0.5 0.5-1.1 0 0.2 0 0.4c-0.1 1 0 1.9 0.3 2.8 0.4 1.4 1.1 2.7 2 3.8 0.8 1 1.7 1.9 2.7 2.8 1.4 1.3 2.9 2.6 4.4 3.9 0.9 0.9 1.9 1.7 2.7 2.7 1.2 1.2 2.2 2.4 3 3.8 0.9 1.6 1.6 3.3 1.8 5.1q0.1 0.6 0.1 1.1c0.1 1 0.2 2 0.2 2.9q0 0.2 0 0.4z"/>
			<path class="s0" d="m37.9 68.6q1.2-0.4 2.4-0.8c3.3-1.3 6.4-3 9.2-5.1 2-1.6 3.7-3.3 5.1-5.4q0.8-1.3 1.4-2.7c0.2-0.4 0.3-0.8 0.4-1.2q0.5-2 0.8-4 0.2-1.5 0.2-3c0-0.5-0.1-1.1-0.2-1.6-0.1-1.2-0.2-2.4-0.1-3.6 0-0.6 0.1-1.2 0.3-1.7q0.3-1.1 1.2-1.8c1.1-0.9 2.1-1.9 3-3q0.5-0.7 1-1.3 0.1-0.1 0.1-0.2c0.1 0.1 0.1 0.1 0.1 0.2q1 3.5 1.9 7.1 0.1 0.4 0.3 0.7 0.5 0.6 1.3 0.5c0.5-0.1 0.9-0.4 1.4-0.7 0.1-0.1 0-0.2 0-0.3q-0.1-0.6-0.2-1.1-0.2-0.7 0-1.3 0.2-0.8 0.9-1.2 0.5-0.2 1-0.5 0.9-0.4 1.8-0.9 0.5-0.3 0.9-0.7 0.2-0.3 0.4-0.5 0 0.1 0 0.3 0.1 1.5 0.2 2.9 0 1.4 0.1 2.7c0 0.2 0 0.3-0.1 0.4q-0.7 0.5-1.3 1.1c-1.5 1.1-3 2.2-4.4 3.3-0.4 0.3-0.8 0.4-1.2 0.4q-1.2 0.1-1.7-1-0.2-0.4-0.3-0.9-0.6-2.9-1.3-5.7 0-0.1-0.1-0.3c-0.1 0-0.1 0.1-0.1 0.1q-1.6 1.5-3.2 3.1-0.1 0.1-0.2 0.3c-0.2 0.7-0.3 1.5-0.2 2.2 0 0.9 0.3 1.8 0.5 2.7q0.4 1.7 0.5 3.5 0.1 1.8-0.1 3.6c-0.3 2.9-1.3 5.5-3 7.8-1.2 1.5-2.6 2.7-4.2 3.7-1.9 1.1-3.8 1.9-5.9 2.5-1 0.3-2 0.6-2.9 0.7q-1.3 0.2-2.6 0.4-1 0.1-2.1 0.2-0.5 0.1-0.9 0.1 0 0 0 0z"/>
			<path class="s0" d="m3.6 68.9q-1.5 0-2.9 0c-0.1 0-0.2 0-0.2-0.1q1.8-0.2 3.6-0.5 3.1-0.5 6.2-1.3c2.2-0.6 4.5-1.4 6.7-2.3 2.2-0.9 4.3-2 6.3-3.3 1.2-0.9 2.4-1.8 3.5-2.9 1.5-1.6 2.7-3.3 3.4-5.3q0.8-1.9 1-3.9c0-0.1 0-0.2 0-0.3-0.2 0-0.4 0.1-0.5 0.1-0.6 0.1-1.1 0.1-1.7-0.1q-0.9-0.3-1.4-1.2-0.3-0.6-0.4-1.3-0.1-1.6 0.4-3.2c0.2-0.8 0.5-1.4 1.1-2q1.1-1 2.5-0.5 0.2 0.1 0.3 0.2c0.4 0.4 0.6 0.8 0.8 1.3 0.2 0.6 0.3 1.2 0.4 1.8 0.1 1.2 0.1 2.5 0.1 3.7-0.1 2.9-0.4 5.6-1.3 8.3-0.6 1.8-1.4 3.5-2.6 5.1-1.1 1.4-2.4 2.6-4 3.4-1.7 0.9-3.4 1.6-5.2 2.1-2.1 0.6-4.2 1.1-6.3 1.4q-2.2 0.3-4.4 0.5-1.5 0.1-3 0.2-1.2 0.1-2.4 0.1z"/>
			<path class="s0" d="m41.7 37.4q0.2 0.4 0.4 0.7c0.9 1.7 1.7 3.5 2.2 5.4 0.3 0.9 0.6 1.9 0.7 3q0.2 1.5 0 3c-0.2 0.8-0.3 1.6-0.7 2.4-0.5 1.1-1.2 2.1-2.2 2.8q-0.4 0.3-0.9 0.5c-0.5 0.2-1 0.2-1.4-0.1-0.4-0.2-0.7-0.5-0.9-0.9q-0.4-0.5-0.6-1.2-0.1-0.6-0.4-1.1c-0.1-0.2-0.2-0.4-0.4-0.5q-0.3-0.3-0.6 0-0.1 0.2-0.1 0.5c0 0.3 0 0.6 0 0.9q0.2 1.4 0.3 2.8 0.1 0.6 0.2 1.2 0.2 1.5 0 3-0.1 1.5-0.6 2.9c-0.9 2.7-2.8 4.5-5.6 5.3-1 0.3-2.1 0.4-3.2 0.4-1.2 0.1-2.5 0-3.7-0.2q0 0-0.1 0 0.8-0.1 1.5-0.2c1.9-0.4 3.7-1.1 5.4-2.2q3.4-2.4 4.2-6.5 0.3-1.4 0.2-2.9 0-1-0.2-2.1c-0.1-1.2-0.1-2.5-0.1-3.7q0.1-0.9 0.3-1.8 0.2-0.5 0.6-1c0.2-0.2 0.3-0.2 0.5-0.1q0.2 0.1 0.4 0.3c0.5 0.5 0.9 1.1 1.2 1.8q0.6 1.1 1.1 2.2c0.2 0.2 0.4 0.4 0.6 0.6q0.3 0.2 0.6 0.1 0.4-0.2 0.8-0.6 0.3-0.3 0.7-0.7c0.4-0.4 0.8-0.8 1.1-1.3 0.5-0.7 0.9-1.4 1-2.2q0-0.4 0-0.7c0-0.1 0-0.2-0.1-0.3q-1.4-2.9-2.8-5.9-0.1-0.3-0.1-0.5c0.2-1 0.4-1.9 0.6-2.8 0-0.1 0.1-0.2 0.1-0.3z"/>
			<path class="s0" d="m46.6 49.3c0-1.5 0.1-2.9 0.5-4.2 0.2-0.9 0.6-1.8 1.2-2.5q0.3-0.4 0.6-0.7c0.9-0.7 2.1-0.8 3.1-0.1 0.8 0.5 1.2 1.1 1.6 2 0.2 0.6 0.4 1.3 0.4 2q0.3 2.3-0.5 4.5-0.4 1-1 1.8c-0.5 0.7-1.2 1.1-1.9 1.4-0.4 0.3-0.9 0.4-1.4 0.4q-1.1 0-1.7-0.8-0.7-1-0.8-2.1c-0.1-0.6-0.1-1.2-0.1-1.7zm1.5-0.8c0 0.3 0.1 0.7 0.1 1.1q0 0.2 0.2 0.3 0.4 0.6 1.1 0.4 1-0.2 1.9-0.8 1-0.5 1.5-1.5 0.1-0.2 0-0.3c-0.6-1-1.2-1.9-1.8-2.8-0.3-0.3-0.5-0.6-0.7-0.8-0.2-0.1-0.3-0.1-0.4 0q-0.3 0.2-0.5 0.4c-0.9 1.1-1.4 2.4-1.4 4z"/>
			<path class="s0" d="m49.5 3.2c-0.9 2.5-2.4 4.4-4.3 6.1q-1.8 1.7-3.9 3.3c-1.1 0.9-2.4 1.7-3.6 2.6-1.8 1.2-3.5 2.7-4.8 4.4q-1.3 1.7-2 3.6-0.1 0.2-0.2 0.5c0-0.3 0-0.7 0.1-1 0.2-0.9 0.5-1.8 0.9-2.6 0.7-1.5 1.7-2.6 2.8-3.6 1.7-1.5 3.4-2.8 5.2-4.1 1.5-1.1 3.1-2.1 4.6-3.2 2-1.6 3.7-3.6 5-5.8 0-0.1 0-0.2 0.1-0.2q0 0 0 0z"/>
			<path class="s0" d="m54.8 28.6q0-0.2 0-0.4c0.1-0.5 0.3-0.9 0.5-1.4q0.2-0.5 0.5-1.1-0.3 0-0.5-0.1c-0.3 0-0.5-0.2-0.5-0.6-0.1-0.4 0-0.8 0.1-1.2q0.2-1.1 0.7-2.1c0.3-0.6 0.6-1.1 1.2-1.5q0.2-0.2 0.5-0.3c0.6-0.1 1.1 0.3 1 0.9q0 0.2-0.1 0.4-0.2 0.8-0.5 1.5c0 0.1 0 0.1-0.1 0.1q0-0.1 0-0.3-0.1-0.4-0.6-0.5-0.4 0-0.7 0.2c-0.3 0.2-0.6 0.4-0.8 0.7q-0.1 0.1 0 0.2 0 0.4 0.5 0.4 0.6 0.1 1.2-0.2 0.7-0.4 1.4-1.1c0.4-0.4 0.9-0.9 1.4-1.5 0 0 0-0.1 0.1-0.1 0 0.2 0 0.4-0.1 0.5 0 0.2-0.1 0.4-0.1 0.6-0.2 0.6-0.4 1.1-0.8 1.5q-0.6 0.6-1.3 1.3c-0.6 0.5-1.2 1.1-1.7 1.8q-0.2 0.2-0.4 0.5c-0.2 0.6-0.5 1.1-0.8 1.7 0 0 0 0.1-0.1 0.1z"/>
			<path class="s0" d="m65.7 48.2q0 0.1 0 0.1-0.6 1.5-1.1 2.9c-0.1 0.2-0.1 0.2-0.3 0.1q-1.3-0.6-2.6-1.2c-0.2-0.1-0.2-0.1-0.1-0.3q0.5-1.4 1.1-2.9 0-0.1 0-0.1 0.1-0.1 0.2-0.1 0 0.1 0.1 0.1 1.3 0.6 2.6 1.2 0 0.1 0.1 0.1 0.1 0 0 0.1z"/>
			<path class="s0" d="m66.1 56.2q-1.2-0.5-2.3-1.1-0.3-0.1-0.6-0.3-0.1 0-0.1-0.2 0.6-1.5 1.2-3.1 0 0 0-0.1 0.6 0.3 1.2 0.6 0.9 0.4 1.7 0.8c0.1 0.1 0.1 0.1 0.1 0.2q-0.6 1.6-1.2 3.1 0 0 0 0.1z"/>
			<path class="s0" d="m52.1 39.8q-0.9-0.6-1.8-1.3-0.4-0.2-0.8-0.5c0-0.1-0.1-0.1 0-0.2q0.7-1.5 1.4-2.9 0.1-0.1 0.1-0.1 0.5 0.3 0.9 0.6 0.8 0.6 1.7 1.1c0.1 0.2 0.1 0.2 0 0.3q-0.7 1.4-1.4 2.8 0 0.1-0.1 0.2z"/>
			<path class="s0" d="m47.8 40.8c0 0 0 0-0.1 0q-1.2-0.9-2.4-1.7-0.2-0.1-0.1-0.3 0.7-1.4 1.4-2.8c0.1-0.2 0.1-0.2 0.3-0.1q1.1 0.8 2.2 1.6 0.3 0.2 0.2 0.6-0.7 1.3-1.3 2.6c-0.1 0-0.1 0.1-0.2 0.1z"/>
			<path class="s0" d="m43.2 55.6q0.5 0.2 1 0.4 0.7 0.2 1.4 0.5c0.2 0 0.2 0 0.2 0.2q-0.1 1.1-0.2 2.2 0 0 0 0.1c0 0.2 0 0.2-0.2 0.1q-1-0.2-2.1-0.5c-0.1 0-0.2-0.1-0.2-0.2q0.1-1.4 0.1-2.7 0 0 0-0.1z"/>
			<path class="s1" d="m44.5 3.9c0 0 0-0.1 0.1-0.1 0 0 0.1-0.1 0.2 0q0.1 0.1 0 0.2-0.1 0.1-0.2 0.1-0.1-0.1-0.1-0.1-0.6 1.2-0.1 2.4c0.2-0.1 0.2-0.2 0.2-0.3q0.1-0.4 0-0.7 0-0.3 0-0.6 0-0.2 0-0.3c0.1-0.1 0-0.2 0.2-0.2 0.1 0 0.1 0.1 0.1 0.2q0.1 0.5 0.2 0.9c0 0.1 0 0.1 0.1 0.2 0.1-0.1 0.1-0.3 0.1-0.4q0-0.6 0-1.2 0-0.1 0-0.3c0-0.2 0.1-0.3 0.3-0.3q0.1 0 0.1-0.1 0-0.2 0.1-0.3c0.1-0.2 0.3-0.2 0.4 0 0.1 0.1 0.1 0.2 0.1 0.3 0.1 0.2 0.1 0.4 0.2 0.7 0.1-0.1 0.1-0.3 0.1-0.4q0-0.4 0-0.9-0.1-0.2-0.1-0.5 0-0.1 0.1-0.2c0-0.1 0.1-0.1 0.2 0q0 0.1 0 0.2 0.1 0.4 0.2 0.7c0.1 0.1 0.1 0.3 0.2 0.3 0.1-0.1 0.1-0.2 0.1-0.4q-0.1-0.4-0.1-0.8-0.1-0.3-0.1-0.6 0-0.2 0.2-0.5 0.1-0.1 0.3-0.1 0.1 0 0.1 0.2 0 0.1-0.1 0.1c-0.2 0-0.2 0.2-0.1 0.3q0 0.2 0.1 0.5 0 0.1 0.1 0.3c0 0 0.1 0.1 0.2 0.1 0.1 0 0.1-0.1 0.1-0.2q0.1-0.2 0-0.4 0-0.3-0.1-0.6c0-0.1 0-0.2 0.1-0.2 0.1-0.1 0.1 0.1 0.1 0.2 0.1 0.3 0.2 0.7 0.1 1q0 0.2-0.1 0.3-0.1 0.3-0.4 0.2-0.1-0.1-0.2-0.1 0 0.3 0 0.5 0 0.1-0.1 0.3c0 0.2-0.1 0.2-0.3 0.2-0.2 0-0.2 0-0.2 0.1q-0.1 0.2-0.1 0.3 0 0.1-0.1 0.2c0 0.1-0.1 0.2-0.3 0.2-0.1 0-0.2-0.1-0.2-0.2q-0.1-0.3-0.2-0.6c0 0 0-0.1-0.1-0.2 0 0.2 0 0.3 0 0.4q0.1 0.4 0.1 0.9 0.1 0.2 0 0.3c0 0.1 0 0.2-0.1 0.2-0.1 0-0.1-0.1-0.1-0.2q-0.1-0.3-0.2-0.7c0-0.1 0-0.3-0.1-0.4q0 0.2 0 0.4 0 0.5 0 1.1 0 0.2-0.1 0.4c-0.1 0.1-0.2 0.2-0.4 0.1 0 0-0.1 0-0.1 0q-0.1 0.1-0.1 0.3 0 0.2-0.1 0.3c-0.2 0.3-0.4 0.3-0.6 0-0.2-0.3-0.2-0.6-0.3-1q0-0.8-0.1-1.6c0-0.3 0.1-0.6 0.1-0.9 0.1-0.2 0.2-0.4 0.3-0.4 0.2 0.1 0.3 0.2 0.3 0.3 0.1 0.3 0.1 0.6 0.1 0.8q0 0.1 0 0.2-0.1 0 0 0.1 0 0 0-0.1zm-0.4 0.6q0 0 0 0c0.2-0.4 0.2-0.9 0.2-1.3q0-0.1-0.1-0.2 0-0.1-0.1-0.1 0 0 0 0.1 0 0-0.1 0.1c0 0.3 0 0.6 0 0.9q0 0.2 0.1 0.5z"/>
			<path class="s1" d="m36.5 8.2c-0.1 0.1 0 0.2 0 0.2q0 0.6-0.3 1.2c0 0-0.1 0.1 0 0.2q0 0 0 0.1c0 0.4 0 0.9 0 1.3q-0.1 0.9-0.9 1.4-0.3 0.2-0.6 0.2c-0.4 0-0.7-0.2-0.7-0.5-0.1-0.3 0.1-0.7 0.4-0.8 0.2-0.2 0.5-0.1 0.6 0 0.1 0.2 0.1 0.5 0 0.7q-0.1 0.1-0.2 0.2-0.1 0.1-0.3 0.2c0.2 0 0.4 0 0.6 0 0.2-0.2 0.4-0.4 0.6-0.7 0.1-0.3 0.1-0.6 0.1-1-0.1 0-0.1 0.1-0.1 0.1q-0.1 0.1-0.2 0.2c-0.2 0.2-0.4 0.2-0.6 0.1-0.2-0.1-0.2-0.1-0.4-0.1-0.4 0.4-1 0.1-1.1-0.5 0-0.5 0.1-1.2 0.8-1.5q0 0 0.1 0.1c-0.1 0.1-0.2 0.2-0.2 0.2-0.3 0.4-0.4 0.7-0.4 1.2q0.1 0.3 0.4 0.5c0.2 0 0.5-0.2 0.5-0.4-0.1-1 0.1-1.8 0.7-2.6q0.1-0.2 0.4-0.4 0.2-0.1 0.5 0 0.2 0.2 0.3 0.2 0.4 0.2 0.4 0.5 0 0.4-0.2 0.7c0 0 0 0.1-0.1 0.1-0.1 0-0.1-0.1 0-0.2q0-0.1 0-0.2 0.1-0.2 0-0.4c0-0.1 0-0.2-0.1-0.2zm-0.4 1.5c-0.3 0.1-0.3 0.1-0.5 0q-0.1-0.1-0.2 0-0.2 0.5-0.4 1 0 0 0 0.1c0 0.1 0 0.2 0.2 0.3q0.1 0 0.2-0.1 0.1-0.1 0.1-0.2c0.3-0.3 0.4-0.7 0.6-1.1zm-1.1 0.6q0.1-0.1 0.1-0.2 0.2-0.6 0.4-1.2c0.1-0.3 0.2-0.6 0.5-0.8 0.1-0.1 0.1-0.1 0.1-0.2q-0.1 0-0.2 0-0.1 0-0.2 0.1-0.2 0.2-0.3 0.4c-0.3 0.6-0.4 1.2-0.5 1.8 0 0 0 0.1 0.1 0.1zm1.3-1.8c0 0 0-0.1 0-0.1 0-0.1 0-0.2-0.1-0.2-0.1 0-0.1 0.1-0.2 0.1q-0.4 0.4-0.4 0.9c0 0.2 0 0.3 0.2 0.4 0.1 0 0.2-0.1 0.3-0.2 0.1-0.3 0.2-0.6 0.2-0.9zm-1.5 3.4c0-0.3-0.1-0.4-0.3-0.3-0.4 0.2-0.4 0.5-0.2 0.8q0.1 0.1 0.2 0 0.3-0.3 0.3-0.5z"/>
			<path class="s1" d="m30.1 17.1c0.3 0.1 0.4 0 0.4-0.3q0-0.4-0.3-0.5-0.3-0.1-0.4-0.4c0-0.2-0.1-0.3-0.1-0.5q-0.1 0-0.1-0.2c0.1-0.1 0.2-0.2 0.3-0.1q0.2 0.1 0.3 0.3 0.1 0.3 0.3 0.6 0 0 0.1 0.1c0 0.1 0.1 0.1 0.1 0.1 0.1-0.1 0.1-0.2 0.1-0.2q0-0.1-0.1-0.1-0.2-0.6-0.5-1.1-0.2-0.3-0.4-0.5-0.3-0.3-0.5 0.2c0 0 0 0.1-0.1 0.2q-0.2-0.2-0.1-0.3c0.1-0.2 0.2-0.3 0.4-0.4q0.2 0 0.4 0.2 0.4 0.4 0.7 0.9 0.1 0.3 0.3 0.6c0.1-0.2 0.1-0.3 0-0.5q-0.2-0.4-0.4-0.8c-0.1-0.1-0.2-0.2-0.1-0.3 0.1 0 0.2 0.1 0.2 0.2q0.2 0.2 0.3 0.4c0.1 0 0-0.1 0-0.2-0.1-0.4-0.2-0.8-0.3-1.3q0-0.3 0-0.6 0-0.1 0-0.2 0-0.1 0.2-0.2c0.1 0 0.2 0 0.2 0.1q0.2 0.2 0.2 0.4 0.1 0.3 0.2 0.7 0 0.5 0 1 0.2-0.1 0.5 0.2c0.1 0 0-0.1 0-0.2q0-0.1 0-0.2 0 0 0.1 0 0.1-0.1 0.1 0 0 0 0 0.1c0.1 0.1 0.1 0.3 0 0.4-0.1 0.3-0.1 0.7 0 1q0 0.1 0 0.2c0 0.1-0.1 0.3-0.2 0.3-0.2 0-0.3-0.1-0.3-0.1q-0.1-0.2-0.2-0.3-0.1-0.2-0.2-0.4c-0.1 0.1 0 0.2 0 0.2 0 0.1 0 0.2 0 0.2-0.2 0.3-0.1 0.5 0 0.8 0.1 0.4 0.1 0.9-0.1 1.3q-0.3 0.4-0.7 0.4c-0.2 0-0.2 0-0.2-0.3q0.1 0 0.1 0.1 0.3 0.1 0.5-0.2 0.1-0.1 0.2-0.4 0.1-0.5-0.1-1c0 0 0-0.1-0.1-0.1-0.1 0-0.1 0.1-0.1 0.2 0 0.1 0 0.3 0 0.5q-0.1 0.2-0.3 0.3-0.2 0.1-0.3-0.2 0-0.1 0-0.1zm1-3c0.1-0.5 0-1-0.1-1.4 0-0.1-0.1-0.2-0.2-0.3-0.1 0.4 0.1 1.3 0.3 1.7zm0.3 0.7c0 0.4 0.3 0.9 0.5 1 0-0.6-0.1-0.7-0.5-1zm-1.6 0.5c0 0.3 0.2 0.6 0.5 0.7-0.1-0.3-0.3-0.6-0.5-0.7zm1.6-0.6q0 0-0.1 0 0 0 0 0 0 0 0 0.1 0 0 0.1-0.1z"/>
			<path class="s1" d="m41.2 4.7c0 0.2-0.1 0.3-0.2 0.5-0.1 0.3-0.1 0.5-0.1 0.8q0 0.3 0.1 0.6 0.1 0.2 0.4 0.2 0.2 0.1 0.2-0.1 0-0.1 0-0.3 0-0.7 0.1-1.4 0.2-0.8 0.7-1.5c0.2-0.2 0.4-0.3 0.6-0.3 0.3 0.1 0.4 0.3 0.4 0.5 0.2 0.6 0.1 1.1-0.3 1.6q-0.2 0.1-0.3 0.3-0.3 0.6-0.7 1-0.1 0.2 0 0.5 0 0.3 0.2 0.5c0.1 0.3 0.4 0.3 0.6 0.2q0.2-0.1 0.1-0.2-0.1-0.1-0.1-0.2-0.5-0.7-0.2-1.4 0.1-0.1 0.1-0.1c0.1-0.2 0.3-0.4 0.5-0.3 0.3 0 0.3 0.2 0.4 0.4 0.1 0.4 0 0.8-0.1 1.1q-0.1 0.4-0.4 0.7c-0.4 0.4-0.9 0.4-1.2-0.1q-0.1-0.2-0.2-0.4c-0.1-0.2-0.2-0.3-0.4-0.3-0.3 0.1-0.6-0.2-0.7-0.5-0.3-0.6-0.1-1.2 0.3-1.7 0 0 0.1-0.1 0.2-0.1zm0.8 1.8c0.3-0.2 0.4-0.5 0.5-0.7 0.1-0.2 0.1-0.3-0.1-0.5-0.1-0.1-0.1-0.4 0-0.5 0.1-0.2 0.3-0.2 0.4 0q0.1 0.2 0.1 0.3c0.1 0 0.1 0 0.1-0.1q0.5-0.6 0.2-1.3 0-0.1 0-0.1-0.2-0.3-0.5-0.1-0.2 0.2-0.4 0.6c-0.2 0.7-0.4 1.5-0.3 2.4zm1.1 1.1q0.1 0 0.1-0.1c0.3-0.5 0.4-0.9 0.3-1.4q0-0.1-0.1-0.2-0.1-0.3-0.3-0.1c-0.1 0.2-0.2 0.4-0.2 0.6 0 0.4 0.1 0.8 0.2 1.2z"/>
			<path class="s1" d="m37.9 10.8c0.1 0 0.1-0.1 0.1-0.2 0.2-0.3 0.3-0.7 0.5-1.1q0-0.1 0-0.1c0.2-0.4 0.2-0.4 0.6-0.3 0.1-0.1 0.1-0.2 0.2-0.3 0-0.1 0.1-0.1 0.2-0.1q0.2 0.1 0.2 0.3 0 0.2 0 0.5 0 0.2 0 0.5c0.1-0.1 0.1-0.2 0.2-0.3q0.1-0.3 0.2-0.7c0-0.1 0-0.1 0.2-0.2q0 0.1 0 0.2-0.1 0.5-0.3 0.9-0.1 0.2-0.2 0.3c-0.2 0.2-0.4 0.1-0.4-0.1q-0.1-0.2-0.1-0.4 0.1-0.2 0.1-0.4 0-0.1 0-0.2c-0.1 0.1-0.1 0.1-0.1 0.2q-0.2 0.5-0.3 1.1 0 0.1-0.1 0.3-0.1 0.1-0.2 0.1c-0.1 0-0.1-0.1-0.1-0.1q0-0.1 0-0.2 0.1-0.4 0.1-0.7 0.1-0.1 0-0.3c-0.1 0.1-0.1 0.2-0.1 0.3-0.2 0.5-0.4 1-0.8 1.4q-0.1 0.2-0.1 0.4-0.2 0.4-0.3 0.9-0.1 0.3-0.3 0.6-0.1 0.1-0.2 0.2c-0.1 0.1-0.2 0.1-0.3 0q-0.2-0.1-0.2-0.3 0-0.1 0.1-0.2c0.1-0.4 0.3-0.8 0.6-1.2q0.1 0 0.1-0.1-0.1 0-0.1 0c-0.3 0.1-0.4-0.1-0.3-0.4 0-0.2 0.1-0.4 0.1-0.6-0.2 0-0.1 0.2-0.2 0.2 0 0.1-0.1 0.1-0.1 0.1-0.1 0-0.1-0.1-0.1-0.1 0.1-0.3 0.2-0.5 0.4-0.7 0.1-0.1 0.3-0.1 0.4 0.1q0 0.1 0 0.3c-0.1 0.3-0.2 0.5-0.2 0.8 0.2 0 0.2-0.1 0.2-0.2q0.2-0.5 0.3-1 0.1-0.2 0.2-0.4c0-0.1 0.1-0.1 0.2-0.1 0.1 0.1 0.1 0.2 0.1 0.2q-0.1 0.5-0.2 0.9c-0.1 0.1-0.1 0.2-0.1 0.2zm-0.6 1.1c-0.3 0.3-0.5 0.6-0.5 1q0 0.1 0 0.1-0.1 0.1 0 0.1 0.1 0 0.2 0 0-0.1 0-0.2 0.1-0.3 0.2-0.5c0-0.2 0.1-0.3 0.1-0.5zm-0.3-1.5q0 0 0 0 0 0 0 0 0 0 0 0 0 0 0 0z"/>
			<path class="s1" d="m32.9 15.5c-0.2-0.1-0.2-0.2-0.2-0.3q-0.5-1.9-0.9-3.7c0-0.1-0.1-0.3 0-0.3 0.1 0 0.2 0.1 0.2 0.2q0.5 1.9 0.9 3.8 0.1 0.1 0 0.3z"/>
			<path class="s1" d="m46.7 1.7q0 0.1-0.2 0.1c0 0-0.2-0.1-0.2-0.1 0-0.1 0.2-0.2 0.2-0.2 0.1 0 0.2 0.1 0.2 0.2z"/>
			<path class="s1" d="m49.5 3.2c0 0-0.1 0-0.1 0q0.1-0.3 0.2-0.5c0 0.2 0 0.4-0.1 0.5z"/>
			<path class="s1" d="m37.9 68.6q0 0 0 0.1-0.1 0-0.4 0 0.2-0.1 0.4-0.1z"/>
			<path class="s0" d="m37.7 39.9c0 0 0 0 0 0q0 0 0 0 0 0 0 0z"/>
			<path class="s0" d="m37.7 40c0 0 0.1 0 0.1 0q0 0-0.1 0 0 0 0 0z"/>
			<path class="s1" d="m45.5 21q1.7 0.4 3.4 0.1c-0.5 0.5-2.7 0.4-3.4-0.1z"/>
		</g>
	</g>
</svg>