<svg version="1.2" xmlns="http://www.w3.org/2000/svg" viewBox="0 0 823 447" width="823" height="447">
	<title>70</title>
	<defs>
		<linearGradient id="g1" x2="1" gradientUnits="userSpaceOnUse" gradientTransform="matrix(-612.6,203.18,-266.973,-804.939,659,7.66)">
			<stop offset="0" stop-color="#d6b38b"/>
			<stop offset="1" stop-color="#bb9571"/>
		</linearGradient>
		<linearGradient id="g2" x2="1" gradientUnits="userSpaceOnUse" gradientTransform="matrix(-612.61,203.18,-101.26,-305.309,710.23,162.12)">
			<stop offset="0" stop-color="#d6b38b"/>
			<stop offset="1" stop-color="#bb9571"/>
		</linearGradient>
	</defs>
	<style>
		.s0 { fill: url(#g1) } 
		.s1 { fill: url(#g2) } 
		.s2 { fill: #343845 } 
	</style>
	<g id="Layer_1-2">
		<g>
			<g>
				<path class="s0" d="m263.4 311.6c-4.8 0.6-10.5-4.4-14-7.5-17.4-15.5-27.2-47.5-29.9-70.1-0.7-6-2.2-16.2-1.1-21.8 1.4-7.5 18-2.3 17.8-16.1-0.1-6.2-4.7-8.8-10.3-9.4-10.2-1.2-35.8-1.2-46 0-15.1 1.7-15.9 17.5-5.8 19.7 11.7 2.6 16.9-4 18.2 13.9 2.5 34.8-27.2 77.8-60.3 88.3-9.7 3.1-17.1 5.4-23.4-4.7-4.3-7-1.6-13.7-3.6-18.3-1.7-3.6-9.4-4.6-11.4-7.6-2.8-4.3 1-6.9 0.8-10.8-0.2-5.7-3.8-5.3-6.9-8.1-10.2-9 3.5-13.2-1.6-21.4-2.7-4.4-13.2-5-18.3-7.7-16.6-8.6 0.1-22.3 5.1-33.7 19.1-44-15-54.1-10.1-91 0.3-2.1 3.6-14.7 6.4-10.5 3.1 11.9 8.9 23.5 17 32.9 12.6 14.7 29.8 19.5 38.3 38.6 0.8 1.8 2.7 9.4 3.6 9.4 19.4-22.1 10.2-60.2 3.3-86.2-3.6-13-17.6-43.9-13-55.4 2.6-6.4 15.9-10.5 22.2-11.8 20.9-4.3 41.3-1.6 62.4-1.5 11.1-3.7 5.9-13-3-15.9-19.5-6.6-50.3-6-70.2-1.4-136.1 31.8-178.6 233.1-61.4 313.9 51.7 35.6 136.5 30.4 189.9 0.4 2.5-1.5 6-2.9 5.3-6.2z"/>
				<path class="s1" d="m743 231.7c-12.5 6.9-26.9 14.1-40.8 17.7-12.7 3.2-19.2 2-24.4-11.1-7.4-18.8-1.3-41.8-7.8-62-3.9-11.9-12.5-14.3-24.2-12.4-19.1 3.2-59.2 49.8-75.7 64.3-5.5 4.9-24.9 22.3-26.9 6.9-2.4-18.9 20.5-48.2 27.8-66 5.2-12.9 6.4-20.3-10.4-18.4-17.8 2.1-50.4 36.9-60.1 51.8-5.8 9.1-9.3 19.1-15.3 27.7l-70.5 43.4-1.5-0.5c6-9.9 12.8-19.3 18.8-29.2 12.8-21 32.6-53.3 29.1-78.6-1.4-10.3-8.9-14-18.6-10.8-9.3 3-29.6 28.3-37.3 36.2-5.6 5.7-11.3 11.3-17 17-6.4 6.5-14.2 15.1-20.9 20.9-19.5 16.9-49.2 30.4-66.4 3-17-27.1 21.1-39.4 34.4-56.4 15.4-19.8-2-31.6-21.9-19.9-22.9 13.4-61.6 71-63.1 97.8-0.9 17.3 10.8 40.5 30.4 40.4 27.6-0.2 63.5-46.5 86.6-61.3 6.8-4.3 14.5-6.9 21.9-2.6 14.1 15.8 6.4 39.5 0.9 57.4-31.7 22.4-64.6 43.3-93.8 69-17.3 15.2-40.4 39.4-45.5 62.5-4.5 20.7 8.2 33 28.8 25.7 21.6-7.6 58.1-53.5 72.1-72.8 12.6-17.5 23.1-36.2 34-54.8l97-75.9c1.6-0.2 1.6-0.2 1.4 1.4-1.6 12.9-4 23.5-3 37 1.9 24.6 13.7 25.2 31 11.5 12.2-9.6 29.8-28.2 40.5-40 1.2-1.2 2.5-2 2.5-4 10.5-9.9 36.7-37.8 48.7-41.7 18.4-6 20.2 13.5 22.1 26.4 2.3 15.5 2.2 33.2 5.6 48.3 2.6 11.7 8.4 17.9 21.1 17 19.8-1.3 68.9-42.8 84.4-57.5 0.9-0.9 7-6.4 5.9-7.5z"/>
			</g>
			<g>
				<path class="s2" d="m542.1 56.3l-8-19.5c1.2-1.2 12 9.4 15.9 6.9l3.1-15.9c2.6-0.4 1.6 0.4 2.1 1.4 2.7 5.4 4.9 12.8 6.9 18.6 1.7 0 3.8-0.7 4.4-2.3 0.9-2.6-10.6-24.2-11.4-28.7-5.1-3.7-8.1 17.9-8 21-1.7 1.9-17.4-13.8-22-9l12.7 28.9 4.3-1.4z"/>
				<path class="s2" d="m734 41.8l-12 20c-1.7-1.2-2.6-27.2-5.3-30.7-0.5-0.6-3-2.6-4.2-1.3-1.7 2-15.8 24.9-15.4 26.4 0.2 1.1 3.4 3.2 4.4 1.7l11.5-19.1c2.8 7.7 1.9 23.6 5 30.2 0.5 1 4.3 3.3 5 2.8l15-27.3c0 0-4-2.7-4-2.7z"/>
				<path class="s2" d="m623.9 37.2l1.6-21.4c5.7 5.6 11 17.7 16.5 22.5 1.8 1.6 4 1.6 6 2.5l3-30.4c-0.7-2.1-4.1-1.6-6-1.6 0 3.3 0.1 6.7 0 10-2.2 3.4-0.4 8.9-1 13-6.1-5.1-12.3-17.4-17.4-24-1.1-1.1-3.6-1.4-5-1-2.3 0.6-1.7 26.6-3.6 30.5 0 0.6 5.7 2.4 5.9-0.1z"/>
				<path class="s2" d="m523.1 67.2c0.2-1.4-2-3.5-3.3-3.3l-13 9.8-4.7-7.3 11-7.6-3.5-5-12.4 9-3-6.4 12.5-9.6-2.1-3.9-18.4 13.4 19.6 24.4c1 0.2 17.1-12.5 17.3-13.6z"/>
				<path class="s2" d="m757.5 61.8l-21.4 21.3c0.3 2.1 13.8 15.9 15.2 15.6 0.8-0.1 2.7-2.1 2.6-3.3l-11.9-13.6 7.3-3.9 10.2 9.9c6.7-4.9-3.8-9.2-6.5-13.7l4.6-5.2c2.8-0.5 11.8 14.7 15.3 9.9 0.7-0.9-0.3-2.7-0.9-3.6-1.1-1.6-13.5-13.4-14.5-13.4z"/>
				<path class="s2" d="m474.3 96.5c1.8-4.6 8.8-7.5 7.4-12.8-3-4.7-10.3 10-12 10l-6.5-5.4 11-13-5-3.5-13 17.4c3 2.3 22.5 19.5 24 19.1 9-2-6.3-9-5.9-11.9z"/>
				<path class="s2" d="m588.1 36.4c-1.2 0.8-3.5 0.3-5 0.4l0.1 3.4c0.2 0.7 0.8 1.3 1.5 1.5 1.4 0.4 15.8-2.1 16.3-3.5l0.1-3.4h-7l-2.9-20.9 5.9-1.1c0.1-2.5 0.4-4.6-2.5-5-0.7-0.1-12.9 1.9-13.9 2.2-0.8 0.2-1.3 0.6-1.5 1.5l-0.1 3.3 6.9 0.1c-0.3 3.6 4.4 20 2.1 21.5z"/>
				<path class="s2" d="m682 44.8l-4.9-1.1 5.9-20.9 6.9 0.9 1.1-3.9c-3.4-0.1-14.8-6.1-17-4.5-4.4 3.1 3 4.7 3.6 5.5 1.5 2-5.2 16.5-5.7 19.9l-6.9-0.9-0.5 4 16.5 6 1-5z"/>
				<path class="s2" d="m442.9 405.9c-6.8-4.8-14.9-2.3-20.4 2.9-1.9 1.7-3.4 3.6-4.5 5.8-2.5 4.5-3.2 9.8-2.8 14.9 0-0.7 0.5-1.9 0.7-2.5q0.4-1.5 0.9-3c1.1-4.1 2.3-8.6 4.7-12.1 1.6-2.4 4.1-4.3 7-4.4 3-0.1 5.8 1.2 7.6 3.7 13.2 18.9-26 47.1-31.4 21.3-1.3-6.3-1-12.8 0.6-19.1 1.6-6.5 4.4-12.6 7.9-18.2 3.6-5.7 8-10.9 12.9-15.4 5.2-4.7 10.8-8.5 17.7-10.4 3.3-1 6.9-1.6 10.4-1.7 2-0.1 4.2-0.1 5.8 1.3 1.5 1.3 2.1 3.6 2 5.6-0.1 3.4-1.5 6.6-3.2 9.5-1.4 2.4-3 4.7-5.1 6.5-2.1 1.8-4.8 3-7.6 3.1-2.7 0.1-5.6-1.1-7.2-3.4-1.3-2-1.6-4.5-1.2-6.9 0.4-2.4 1.4-4.6 2.5-6.8-2.7 1.4-4 4.6-4.2 7.6-0.2 2 0.1 4 1 5.8 1.4 2.8 4.2 4.6 7.2 5.4 3 0.7 6.1 0.4 9.1-0.2 4.6-1.1 9-3 12.3-6.3 3.2-3.3 5.1-9.2 4.4-13.8-1.3-8-10.3-10.2-17.1-10.2-7.2 0-14.3 1.7-20.8 4.5q-3.8 1.7-7.3 3.7c-4.5 2.6-8.7 5.7-12.8 8.9-9.4 7.5-18.2 17.1-22.1 28.7-1 3-1.6 6.1-1.7 9.3-1.3 34.1 42.4 30.7 56.8 8.8 4.8-7.2 5.7-17.4-2.1-22.9z"/>
				<path fill-rule="evenodd" class="s2" d="m604.8 395.5c-4.2 1-8.4-1.5-9.4-5.7-1-4.2 1.6-8.4 5.8-9.4 4.2-0.9 8.3 1.6 9.3 5.8 1 4.2-1.6 8.4-5.7 9.3z"/>
				<path fill-rule="evenodd" class="s2" d="m515 395.7c-4.3 0-7.7-3.5-7.7-7.7 0-4.3 3.4-7.8 7.7-7.8 4.3 0 7.8 3.5 7.8 7.8 0 4.2-3.5 7.7-7.8 7.7z"/>
				<path class="s2" d="m702.5 415.5c-1.1 0.5-10.5 12.8-13.5 15.5-4.2 3.7-8.7 6.6-14 8.5 9.3-13.4-7.3-18.8-7.4-31 3.7-5.4 10.1-4.4 10.5 2.5 0.1 2.6-2.2 6.5 0.6 7.4 10.4 3.2 15.7-13.5-2.2-14.9-11.9-0.9-21.1 4-21.3 16.9 2.8 1.5 9.2 9.8 9.7 12.8 1.8 11-18.4 15.5-15.9 1.3 8.4 1.1 7.9-6.2 3.5-11-10.1 0.2-8.7 7.7-13.4 12-3.2 2.8-7.6 3.7-11 6-2.1-0.1-3.9 0.2-6.1-0.5-13.1-4.2-0.5-32.7 9.7-35.3 6.2 0.7 1.5 11.4 4.3 13.4 12.7 1.8 18.3-13.9 2.4-15.5-11.8-1.2-26.5 6-32.6 16.1-2 3.5-2.7 8-4.7 10.8-2.9 4-10 7.9-14 11-1.4-0.2-3.5 0.5-4.6-1-2.2-6.8 19.6-33.7 17.6-36-4 2.2-11.8-0.3-15 1.5-2 1.1-11.5 20.3-15 24.5-3.2 3.7-8.9 7.9-13 11-2.5-0.4-5.7 0.6-4.4-3.5 2.7-8.9 15.9-16.9 13.9-28-1.7-9.3-14.4-7.1-20.4-2.9-3.3 2.2-5.6 6.8-9.5 8.4l4.5-9 0.9-2-14.9 1c-6.5 8.1-10.9 21.9-18 29-1.5 1.5-3.3 2.6-5.1 3.7-1.3 0.7-2.5 1.7-3.8 2.4-1.2 0.6-2.5 1-3.8 0.8-0.7-0.1-1.4-0.3-1.8-0.8-0.7-0.8-0.4-2.1 0-3.1 4.1-11.8 12.9-21.4 17.7-32.9-3.9 1.5-8.3 0.5-12.5 0.8-1 0-2 0.2-2.8 0.7-0.9 0.6-1.5 1.5-2 2.5-3.4 5.8-6.3 11.8-10 17.4-3.7 5.6-8.2 10.7-14.1 14-1.2 0.7-2.6 1.3-4 1.6-0.3 0.1-0.7 0.2-1.1 0-1-0.3-1.1-1.7-0.9-2.7 1.1-6.2 3.9-11.8 7-17.3 10.3-18.4 22.7-35.6 33.2-54.1q-7 0.5-13.9 0.9c-0.9 0.1-1.8 0.1-2.6 0.6-0.7 0.4-1.2 1.2-1.6 2q-12.9 22.3-25.9 44.7c-3 5.2-6 10.4-7.7 16.1-1 3.5-1.4 7.8 1.1 10.5 2 2.2 5.3 2.7 8.3 2.3 8-0.9 14.4-6.7 20.3-12.2-0.1 3.9 0.1 8.3 3.1 10.7 1.4 1.2 3.2 1.6 5 1.7 1.9 0.1 3.8 0.1 5.6-0.5 1.3-0.5 2.5-1.3 3.8-2q2.1-1.1 4.1-2.3c0.3-0.1 0.7-0.3 1-0.2 0.7 0.1 0.5 0.9 0.4 1.4-0.1 0.5-1.2 0.5-0.8 1.1 0.1 0.2 0.3 0.3 0.5 0.4 0.5 0.3 1.2 0.4 1.8 0.6 1.8 0.3 3.6 0.4 5.4 0.3 1.4 0 2.8-0.1 4.1-0.3 0.7-0.1 2-0.2 2.5-0.8 0.8-0.5 9.2-13.5 10.5-15.5 2.7-4.3 5.7-8.3 9.9-12 2.5-2.2 10.9-10.4 13.6-6.6 3 4.2-9.4 15-11.3 19.8-4.2 10.6 0.5 18 12.2 16.2 2.3-0.4 2.5-1.5 3.5-2 5.9-2.6 8.2-6 13-9.9-0.2 10 2.9 13.6 13.5 11.9 2.3-0.4 2.5-1.5 3.5-2 6.3-2.8 8.8-6.7 14-10.9 0 0.3-0.1 0.7 0 1 0.3 1.3 0.5 1.7 1 3 0.3 0.8-0.1 1.9 0.9 3.5 5.3 7.9 18.3 6.1 26.1 3.4 3.6-1.2 7.5-2.6 9.9-5.9 4.1 1.8 3.6 4 6.5 6 4.8 3.2 18.8 2.3 24.5 0.9 13.8-3.3 24.9-16.7 33-27.4 0.2-0.8-1.1-0.7-1.5-0.5z"/>
				<path class="s2" d="m791.9 212.7l-1 5c3.4 1.1 7.2 0.5 10.5 1 1.5 0.2 1.7-0.6 1.5 1.5-0.1 1-1 7-1.2 7.3-0.5 0.8-10.8 4.4-11.6 5.4-0.6 1-0.3 3.9-1.2 5.2 0.7 0.8 0.8 1.5 2.1 1.1 2.5-0.6 8-6.1 11.3-5.6 0.5 0.1 3 5.9 8.6 6.6 12.8 1.7 11.7-16.4 12-24.5zm24.8 18.3c-0.8 2.6-4.5 4.5-7.1 3.5-5.3-1.6-1.5-10.9-1.7-14.8 2.4 0.2 9.1-1.1 9.9 1.6 0.1 0.5-0.9 8.8-1.1 9.6z"/>
				<path class="s2" d="m779 276.6c0.1 0.1 3.8 0.8 4 0.6 4.7-7.4 1.8-19.9 13.9-13.6 1.3 1.7-9.8 18.4 0.5 15.1l4.5-12.7 7 1.7-5 16.3 5 1.6 5.9-20.9-29.9-10.1c1.1 3.9-7.6 20.1-5.9 21.9z"/>
				<path class="s2" d="m795.5 174.6c0.4 0.7 2.8 14.4 2.4 15-0.9 1.2-10.2 1.6-6.5 8.1 1.2 1.6 1.6 0.4 2.8-0.2 4-2.1 22.2-12.9 24.6-15.4 2-2 2.5-3.7 0.8-6.2l-32.7-8.2c-1.9 6.9 7.1 4.7 8.6 6.9zm18.4 4.1l-12 7-1-10c0 0 13 3 13 3z"/>
				<path class="s2" d="m788.9 152.2c0.8-2.6-4.9-4.8-6.2-8.7-4.7-14.4 10.9-22 18.6-11.7 4.4 5.8 1.2 12.3 1.6 12.9 0.1 0.1 2.9 0.9 3.4 0.8 6.6-1.1 1.5-21-10-22.6-15.3-2.3-24.4 9-18.1 23.1 1.3 2.9 9.1 11.8 10.7 6.2z"/>
			</g>
		</g>
	</g>
</svg>