<svg version="1.2" xmlns="http://www.w3.org/2000/svg" viewBox="0 0 251 89" width="251" height="89">
	<title>33</title>
	<style>
		.s0 { fill: #0c3152 } 
		.s1 { fill: #2a9167 } 
		.s2 { fill: #3ca877 } 
	</style>
	<g id="Layer_1-2">
		<g>
			<path class="s0" d="m50 39.5v22.8h-15.9c-10-0.1-18-8.3-18-18.5 0-10.2 8-18.5 18-18.5h8.7l0.3 0.4c0.1 0.1 3.7 4.6 5.7 8.1h-14.7c-5.4 0.1-9.7 4.5-9.7 10 0 5.4 4.3 9.9 9.7 9.9h7.6v-5.6h-8v-8.6z"/>
			<path class="s1" d="m57 35.3q-0.3-0.7-0.5-1.4c-0.6-1.6-1.3-3.2-1.9-4.7q-0.5-1-0.9-1.8c-0.9-2.1-1.7-3.6-1.7-3.6q-1-1.6-1.9-3.3-1-1.5-2-3-2.5-3.6-5.4-6.8c-17.5-19-37.8-11.7-40.1 14.3q-0.3 3.7-0.2 7.4 0.1 1.2 0.1 2.4c0.5 7.3 2.1 14.4 4.7 21.2q2.4 6.2 5.8 11.9c2.3 3.7 4.9 7.2 7.8 10.3 6.4 6.9 16 12.8 25.5 9.6 5.7-2.2 9.3-6.9 11.6-12.4 1.4-3.6 2.3-7.6 2.7-11.3q0.1-1.2 0.1-2.4c0.4-8.9-0.9-17.9-3.7-26.4zm1.3 28c0 4.5-0.7 8.8-2.2 12.7q-0.3 0.8-0.6 1.4c-1.6 3.4-4 6.4-7.2 8.3-0.5 0.3-1.8 0.9-2.3 1.1-0.6 0.2-2 0.5-2.5 0.6-3.7 0.6-7.4-0.3-10.7-1.9-5.5-2.9-10-7.6-13.6-13.4-2.1-3.3-3.8-6.9-5.1-10.6-4.6-12.4-5.6-26.8-2.6-38.2q0.2-0.9 0.5-1.7 1-3.4 2.5-6.3c1-1.5 2.1-2.9 3.4-4 0.4-0.2 0.7-0.4 1.1-0.7 0.3-0.1 0.7-0.3 1.1-0.4 0.3-0.1 0.7-0.2 1.1-0.4q0.6 0 1.2-0.1 2.6 0.1 5.1 1c2.6 1.2 5.1 2.7 7.5 4.6q1 0.8 2 1.6c2.3 2.1 4.5 4.4 6.6 6.9q0.5 0.8 1 1.5 0.7 1.1 1.4 2 0 0.1 0.1 0.1c3.2 4.8 5 7.9 5 7.9q0.7 1.4 1.3 2.8l1 2.2c3.1 7.4 5 15.3 5 22.7v0.3z"/>
			<path class="s2" d="m71.6 34.8c-5.3-8.3-13.8-14.3-23.5-17.3-4.2-1.3-8.6-2.1-13.1-2.2-3.7-0.1-7.4 0.3-11 1.1-4.3 1-8.4 2.7-12 5.2q-0.3 0.8-0.5 1.7c7.1-5.4 16.5-7.3 25.5-6.4 4.6 0.5 9 1.7 13.1 3.6 3.7 1.8 7.1 4.2 9.7 7.1 11.9 12.6 11.1 26.3 0.9 34.1q-1.1 0.8-2.4 1.6c-4.4 2.6-10.2 4.3-17.1 4.6-9.2 0.7-19.4-1.7-27.2-6.4-2.5-1.6-4.9-3.4-6.8-5.5-5.1-5.6-7.5-12.7-4.7-21.2q-0.1-1.2-0.1-2.4-0.1 0.2-0.1 0.3c-4 8.5-2.5 18.3 2.2 25.7 2.3 3.6 5.2 6.8 8.5 9.5q2.9 2.3 6.2 4.2c9.6 5.4 21.5 7.5 32.8 5q2.1-0.4 4.1-1 0.9-0.4 1.8-0.7c17.1-6.7 23.9-24.9 13.7-40.6zm-36.6-19.5c-3.7-0.1-7.4 0.3-11 1.1-4.3 1-8.4 2.7-12 5.2q-0.3 0.8-0.5 1.7c7.1-5.4 16.5-7.3 25.5-6.4q-1-0.8-2-1.6z"/>
			<path class="s0" d="m106.3 50q-0.3 0-0.7-0.1c-2.7-7.8-5.5-15.6-8.3-23.3h-11.8v37.5h7.9v-24q0.3-0.1 0.7-0.2c2.9 8.1 5.8 16.3 8.7 24.3h6.7c2.9-8.2 5.8-16.3 8.7-24.4q0.5 0.1 0.9 0.2v24h7.6v-37.5h-11.8c-2.9 7.9-5.3 15.9-8.6 23.5z"/>
			<path class="s0" d="m195.3 36c-3.9-9.7-14.6-9.9-14.6-9.9h-17.6v38.1c1.3 0 2.3 0.1 3.3 0.1 5.4-0.1 10.9 0 16.3-0.5 7.5-0.7 12.9-6 13.8-13.4 0.4-3.2 0.4-6.5 0-9.7q-0.3-2.6-1.3-4.7m-7.4 15.2c-0.5 3.6-3.2 5.7-6.8 6.1-3 0.3-6.1 0-9.4 0v-23.8c3 0 6-0.2 8.9 0.1 4.2 0.4 7.1 2.8 7.6 7 0.3 3.5 0.3 7.2-0.3 10.6z"/>
			<path fill-rule="evenodd" class="s0" d="m131.3 64.1h27.4v-6.9h-19.2v-8.8h17.5v-6.6h-17.5v-8.3h19.2v-6.9h-27.4v37.5z"/>
			<path class="s0" d="m237.9 45c4.3-6.3 8.4-12.3 12.7-18.6h-9.6c-2.8 4-5.5 7.9-8.5 12.1-3-4.4-5.7-8.3-8.3-12h-9.7c4.4 6.4 8.6 12.4 12.7 18.5-4.4 6.4-8.6 12.6-13.1 19.1h9.5c2.9-4 5.8-8.1 8.9-12.6 3.2 4.5 6.1 8.6 8.9 12.6h9.5c-4.5-6.7-8.8-12.9-13-19.1"/>
			<path class="s0" d="m208.8 38.4c-1.1-1.5-2.6-2.2-4.5-1.6-2 0.6-3 2.1-3 4.2 0 7.8 0 13.4 0 21.2 0 0.7 0 1.3 0 1.9h8.2c0-8.8 0-15.1 0-23.5 0-0.8-0.3-1.6-0.8-2.2"/>
			<path class="s1" d="m205.5 35.1c2.2 0 4.1-2 4.1-4.2-0.1-2.2-2-4.2-4.1-4.3-2.2-0.1-4.4 2.2-4.3 4.4 0.1 2.2 2.2 4.2 4.3 4.1z"/>
		</g>
	</g>
</svg>