<svg version="1.2" xmlns="http://www.w3.org/2000/svg" viewBox="0 0 499 517" width="499" height="517">
	<title>56</title>
	<style>
		.s0 { fill: #808080 } 
		.s1 { fill: #a0a0a0 } 
		.s2 { fill: #a86baf } 
		.s3 { fill: #8ac969 } 
	</style>
	<g id="Layer_1-2">
		<g>
			<g>
				<path class="s0" d="m71.8 406.2c0 11.8-3.5 20.6-10.6 26.4-6.8 5.8-17.2 8.7-31.1 8.7h-16.5v-2.4h2.4c1.3 0 2.2-0.3 2.8-0.8 0.5-0.5 0.8-1.3 0.8-2.4v-56.3c0-1-0.3-1.8-0.8-2.4-0.5-0.5-1.4-0.8-2.8-0.8h-2.4v-2.4h17.7c12.8 0 22.8 2.9 29.9 8.6 7.1 5.8 10.6 13.6 10.6 23.6zm-7.4 0.7c0-9.2-3-16.7-9-22.4-5.8-5.5-13.8-8.3-24-8.3-10.2 0-3.3 0.3-4.3 0.8q-1.2 0.8-1.2 2.4v56.3c0 1.1 0.4 1.8 1.2 2.4 0.8 0.5 1.8 0.8 3.1 0.8q16.5 0 25.2-7.5c6-5 9-13.1 9-24.4z"/>
				<path class="s0" d="m137.5 441.2h-11l-16.9-33.8h-14.2v28.3c0 1.1 0.3 1.8 0.8 2.4 0.8 0.5 1.7 0.8 2.8 0.8h2.4v2.4h-18.1v-2.4h2.4c1.3 0 2.2-0.3 2.8-0.8 0.5-0.5 0.8-1.3 0.8-2.4v-56.3c0-1-0.3-1.8-0.8-2.4-0.5-0.5-1.4-0.8-2.8-0.8h-2.4v-2.4h27.5q10.2 0 16.5 3.9c4.2 2.6 6.3 6.6 6.3 11.8 0 5.2-1.8 9.3-5.5 12.2-3.4 2.9-7.6 4.7-12.6 5.5l15.7 28.7c0.5 1.1 1 1.7 1.6 2 0.8 0.5 1.6 0.8 2.4 0.8h2.4v2.4zm-10.6-50.8c0-4.5-1.7-8-5.1-10.6-3.1-2.4-7.6-3.5-13.4-3.5h-9.4c-1 0-2 0.3-2.8 0.8-0.5 0.5-0.8 1.3-0.8 2.4v25.6h13.8c5.2 0 9.4-1.2 12.6-3.5 3.4-2.4 5.1-6 5.1-11z"/>
				<path class="s0" d="m153.7 442.4c-1.6 0-3-0.5-4.3-1.6-1-1-1.6-2.5-1.6-4.3 0-1.8 0.5-3.3 1.6-4.3 1.3-1 2.8-1.6 4.3-1.6 1.5 0 2.9 0.5 3.9 1.6 1.3 1.3 2 2.8 2 4.3 0 1.5-0.7 3.3-2 4.3-1 1.1-2.4 1.6-3.9 1.6z"/>
				<path class="s0" d="m263.4 406.2c0 11.8-3.5 20.6-10.6 26.4-6.8 5.8-17.2 8.7-31.1 8.7h-16.5v-2.4h2.4c1.3 0 2.2-0.3 2.8-0.8 0.5-0.5 0.8-1.3 0.8-2.4v-56.3c0-1-0.3-1.8-0.8-2.4-0.5-0.5-1.4-0.8-2.8-0.8h-2.4v-2.4h17.7c12.9 0 22.8 2.9 29.9 8.6 7.1 5.8 10.6 13.6 10.6 23.6zm-7.5 0.7c0-9.2-3-16.7-9-22.4-5.8-5.5-13.8-8.3-24-8.3-10.2 0-3.3 0.3-4.3 0.8q-1.2 0.8-1.2 2.4v56.3c0 1.1 0.4 1.8 1.2 2.4 0.8 0.5 1.8 0.8 3.1 0.8q16.5 0 25.2-7.5c6-5 9-13.1 9-24.4z"/>
				<path class="s0" d="m340.5 407.3q0 15.8-9 25.2c-6 6.3-13.6 9.4-22.8 9.4-9.2 0-16.5-3.2-22.8-9.4q-9-9-9-25.2c0-10.8 2.9-18.5 8.6-24.8 5.7-6.3 13.5-9.4 23.2-9.4 9.7 0 18.1 3.3 23.6 9.8 5.5 6.8 8.3 15 8.3 24.4zm-7.4 0q0-14.1-6.3-22.8c-4.2-5.8-10.2-8.7-18.1-8.7-7.9 0-12.3 2.6-17.3 7.9-4.7 5-7.1 12.9-7.1 23.6 0 10.7 2.5 19.4 7.5 24.4 5 5.2 10.6 7.9 16.9 7.9 6.3 0 12.6-2.5 17.3-7.5 4.7-4.7 7.1-13 7.1-24.8z"/>
				<path class="s0" d="m414.9 441.2h-18.1v-2.4h2.4c1.3 0 2.2-0.3 2.8-0.8 0.6-0.5 0.8-1.3 0.8-2.4v-28.7h-39v28.7c0 1.1 0.3 1.8 0.8 2.4 0.8 0.5 1.7 0.8 2.8 0.8h2.4v2.4h-18.1v-2.4h2.4c1.3 0 2.2-0.3 2.8-0.8 0.6-0.5 0.8-1.3 0.8-2.4v-56.3c0-1-0.3-1.8-0.8-2.4-0.5-0.5-1.4-0.8-2.8-0.8h-2.4v-2.4h18.1v2.4h-2.4c-1 0-2 0.3-2.8 0.8-0.5 0.5-0.8 1.3-0.8 2.4v25.2h39v-25.2c0-1-0.3-1.8-0.8-2.4-0.5-0.5-1.4-0.8-2.8-0.8h-2.4v-2.4h18.1v2.4h-2.4c-1 0-2 0.3-2.8 0.8-0.5 0.5-0.8 1.3-0.8 2.4v56.3c0 1.1 0.3 1.8 0.8 2.4 0.8 0.5 1.7 0.8 2.8 0.8h2.4z"/>
				<path class="s0" d="m485.7 441.2h-17.7v-2.4h1.6c1.6 0 2.5-0.5 2.8-1.6q0.7-1.6 0-3.9l-6.7-17.3h-29.1l-6.7 16.9c-0.8 1.8-0.8 3.3 0 4.3 1 1.1 2.5 1.6 4.3 1.6h1.2v2.4h-15v-2.4h0.8c1 0 2-0.4 2.8-1.2 1-0.5 1.8-1.6 2.4-3.2l24-60.2 5.9-2 23.6 62.2c0.5 1.6 1.2 2.6 2 3.2 0.8 0.8 1.7 1.2 2.8 1.2h1.2v2.4zm-20.9-27.6l-13.4-34.6h-0.4l-13.8 34.6h27.5z"/>
			</g>
			<g>
				<path class="s1" d="m107.7 494.8l-2.2 7.9h-24.7v-1.2h1.2c0.7 0 1.1-0.1 1.4-0.4 0.3-0.3 0.4-0.7 0.4-1.2v-28.9c0-0.5-0.1-0.9-0.4-1.2-0.3-0.3-0.7-0.4-1.4-0.4h-1.2v-1.2h24.1l2.2 6.9-1 0.4c-1.1-2.2-2.2-3.7-3.4-4.6-1.1-0.9-2.4-1.4-4-1.4h-9.7c-0.5 0-1 0.1-1.4 0.4-0.3 0.3-0.4 0.7-0.4 1.2v12.6h9.9c1.4 0 2.3-0.3 2.8-1 0.7-0.8 1-1.8 1-3v-1.2h1.2v11.9h-1.2v-0.8c0-1.4-0.3-2.5-1-3.4-0.5-0.8-1.5-1.2-2.8-1.2h-9.9v15.2c0 0.5 0.1 0.9 0.4 1.2 0.4 0.3 0.9 0.4 1.4 0.4h9.3q2.8 0 5.1-1.8c1.5-1.2 2.6-3 3.4-5.3l1 0.4z"/>
				<path class="s1" d="m139.3 494.8l-1.8 7.9h-24.9v-1.2h1.4c0.7 0 1.1-0.1 1.4-0.4 0.3-0.3 0.4-0.7 0.4-1.2v-28.9c0-0.5-0.1-0.9-0.4-1.2-0.3-0.3-0.7-0.4-1.4-0.4h-1.2v-1.2h9.5v1.2h-1.4c-0.5 0-1 0.1-1.4 0.4-0.3 0.3-0.4 0.7-0.4 1.2v28.9c0 0.5 0.1 0.9 0.4 1.2 0.4 0.3 0.9 0.4 1.4 0.4h9.5c1.8 0 3.4-0.6 4.9-1.8 1.4-1.2 2.4-3 3-5.3z"/>
				<path class="s1" d="m190.8 469.3h-1c-0.5 0-1 0.1-1.4 0.4-0.3 0.3-0.4 0.7-0.4 1.2v31.8h-1.2l-21.5-30.8h-0.4v27.9c0 0.5 0.1 0.9 0.4 1.2 0.4 0.3 0.9 0.4 1.4 0.4h1v1.2h-6.9v-1.2h1c0.7 0 1.1-0.1 1.4-0.4 0.3-0.3 0.4-0.7 0.4-1.2v-28.9c0-0.5-0.1-0.9-0.4-1.2-0.3-0.3-0.7-0.4-1.4-0.4h-1.2v-1.2h5.7l20 28.7h0.4v-25.9c0-0.5-0.1-0.9-0.4-1.2-0.3-0.3-0.7-0.4-1.4-0.4h-1v-1.2h6.9z"/>
				<path class="s1" d="m223.4 494.8l-2.2 7.9h-24.7v-1.2h1.2c0.7 0 1.1-0.1 1.4-0.4 0.3-0.3 0.4-0.7 0.4-1.2v-28.9c0-0.5-0.1-0.9-0.4-1.2-0.3-0.3-0.7-0.4-1.4-0.4h-1.2v-1.2h24.1l2.2 6.9-1 0.4c-1.1-2.2-2.2-3.7-3.4-4.6-1.1-0.9-2.4-1.4-4-1.4h-9.7c-0.5 0-1 0.1-1.4 0.4-0.3 0.3-0.4 0.7-0.4 1.2v12.6h9.9c1.4 0 2.3-0.3 2.8-1 0.7-0.8 1-1.8 1-3v-1.2h1.2v11.9h-1.2v-0.8c0-1.4-0.3-2.5-1-3.4-0.5-0.8-1.5-1.2-2.8-1.2h-9.9v15.2c0 0.5 0.1 0.9 0.4 1.2 0.4 0.3 0.9 0.4 1.4 0.4h9.3q2.9 0 5.1-1.8c1.5-1.2 2.6-3 3.4-5.3l1 0.4z"/>
				<path class="s1" d="m260.6 488.7h-1c-0.7 0-1.2 0.2-1.6 0.6-0.4 0.4-0.6 0.9-0.6 1.6v10.1c-0.3-0.1-0.5-0.3-0.8-0.4h-1.6q-0.6 0.2-1.2 0.6c-0.7 0.4-2 0.8-4 1.2-2 0.4-3.6 0.6-4.9 0.6-4 0-7.7-1.5-10.9-4.4-3.2-2.9-4.9-7.2-4.9-12.8 0-5.6 1.6-10.3 4.9-13.6 3.2-3.1 6.9-4.6 10.9-4.6 4 0 4 0.2 5.9 0.6 1.9 0.4 3 0.6 3.2 0.6 0.4 0 0.8-0.1 1.2-0.4 0.4-0.1 0.7-0.4 1-0.8l1.6 9.1-1.2 0.4q-1.2-4.5-4.2-6.3-2.9-1.8-7.5-1.8c-3.1 0-5.9 1.4-8.5 4.2q-3.6 4.1-3.6 12.6c0 5.7 1.4 9.2 4 11.7 2.8 2.7 5.8 4.1 8.9 4.1 3.1 0 3.3-0.3 5.5-1 2-0.7 3-1.6 3-2.6v-6.9q0-1.2-0.6-1.8-0.6-0.6-1.8-0.6h-1.2v-1.2h10.1v1.2z"/>
				<path class="s1" d="m300.1 485.3c0 5.4-1.5 9.7-4.6 12.9-3.1 3.2-7 4.9-11.7 4.9-4.7 0-8.5-1.6-11.7-4.9-3.1-3.1-4.6-7.4-4.6-12.9 0-5.5 1.5-9.5 4.5-12.8 3-3.3 7-4.9 11.9-4.9 4.9 0 9.3 1.7 12.1 5.1q4.2 5.3 4.2 12.6zm-3.8 0c0-4.9-1.1-8.8-3.2-11.7-2.1-2.9-5.3-4.4-9.3-4.4-4 0-6.3 1.4-8.9 4.1-2.4 2.6-3.6 6.6-3.6 12.1 0 5.5 1.3 10 3.8 12.6 2.6 2.7 5.5 4.1 8.7 4.1 3.2 0 6.5-1.3 8.9-3.8 2.4-2.4 3.6-6.7 3.6-12.8z"/>
				<path class="s1" d="m338.2 469.3h-1.2c-0.5 0-1 0.1-1.4 0.4-0.3 0.3-0.4 0.7-0.4 1.2v20.4q0 4.5-3.6 8.1c-2.4 2.4-5.4 3.6-8.9 3.6-3.5 0-7-1.1-9.3-3.2-2.3-2.2-3.4-4.9-3.4-8.3v-20.6c0-0.5-0.1-0.9-0.4-1.2-0.3-0.3-0.7-0.4-1.4-0.4h-1.2v-1.2h9.3v1.2h-1.2c-0.5 0-1 0.1-1.4 0.4-0.3 0.3-0.4 0.7-0.4 1.2v20.6c0 3.1 0.8 5.5 2.4 7.3 1.6 1.8 4.1 2.6 7.5 2.6 3.4 0 6.3-1.1 8.1-3.2 1.9-2.3 2.8-4.6 2.8-6.9v-20.4c0-0.5-0.1-0.9-0.4-1.2-0.3-0.3-0.7-0.4-1.4-0.4h-1.2v-1.2h7.3v1.2z"/>
				<path class="s1" d="m380.5 502.7h-9.5v-1.2h1.4c0.7 0 1.2-0.1 1.4-0.4 0.2-0.3 0.4-0.7 0.4-1.2v-27.1h-0.4l-12.5 29.9h-1.2l-11.9-28.7h-0.4v25.9c0 0.5 0.1 0.9 0.4 1.2 0.4 0.3 0.9 0.4 1.4 0.4h1v1.2h-6.9v-1.2h1c0.7 0 1.1-0.1 1.4-0.4 0.3-0.3 0.4-0.7 0.4-1.2v-28.9c0-0.5-0.1-0.9-0.4-1.2-0.3-0.3-0.7-0.4-1.4-0.4h-1.2v-1.2h5.7l12.3 29.5h0.4l12.3-29.5h6.3v1.2h-1.2c-0.5 0-1 0.1-1.4 0.4-0.3 0.3-0.4 0.7-0.4 1.2v28.9c0 0.5 0.1 0.9 0.4 1.2 0.4 0.3 0.9 0.4 1.4 0.4h1.2z"/>
				<path class="s1" d="m415.7 469.3h-0.6c-0.7 0-1.3 0.3-1.8 0.8-0.4 0.4-0.9 1.1-1.4 2l-10.3 16v11.7c0 0.5 0.1 0.9 0.4 1.2 0.4 0.3 0.9 0.4 1.4 0.4h1.8v1.2h-10.5v-1.2h1.8c0.7 0 1.2-0.1 1.4-0.4 0.2-0.3 0.4-0.7 0.4-1.2v-10.5l-10.9-17.8c-0.1-0.3-0.5-0.7-1-1.4-0.4-0.5-1-0.8-1.6-0.8h-0.4v-1.2h8.9v1.2h-1.2c-0.8 0-1.3 0.3-1.6 0.8-0.1 0.4 0 0.9 0.4 1.6l9.3 15.4h0.4l9.9-15.4c0.5-0.8 0.5-1.4-0.2-1.8-0.4-0.4-1.1-0.6-2-0.6h-0.4v-1.2h7.9v1.2z"/>
			</g>
		</g>
		<g>
			<path class="s2" d="m292.2 55.7c8.5 7.3 13.2 15.8 14 26.3 1 12-3.2 22.1-11.6 30.6-5.4 5.5-11 10.8-16.3 16.4-5 5.2-4.6 12.3 0.7 17.1 3.7 3.3 9.4 3.9 13.5 1.3 1.7-1 3.2-2.4 4.6-3.8 5.7-5.6 11.2-11.5 17.1-16.9 15.4-14.1 40.6-11.8 53.3 4.6-10.1 10.6-19.3 22.3-32.2 29.8-18.5 10.7-43.8 8-60.2-6-22.1-18.8-24.6-51-8.6-72.7 0.3-0.5 0.6-1 1-1.4 8.1-8.3 16.2-16.5 24.6-25.2z"/>
			<path class="s2" d="m207.1 56c4 4 7.9 7.7 11.6 11.6 4.7 4.8 9.7 9.4 13.7 14.7 23.6 31.6 5.9 78.5-34.9 84.6-17.7 2.7-33-2.5-45.8-15-6-5.9-11.9-11.9-17.9-17.9-0.8-0.8-1.5-1.7-2.4-2.7 6.3-7.4 13.9-12 23.3-13.4 12.6-1.9 23.4 1.6 32.4 10.7 5.2 5.3 10.5 10.5 15.8 15.7 2.5 2.5 5.2 4.5 8.9 4.5 5.2 0.1 9.3-2.2 11.5-6.7 2.1-4.6 1.5-9.2-2.2-13-5.4-5.5-10.9-11-16.3-16.4-5.8-5.8-9.9-12.6-11.3-20.7-2.2-12.7 1.8-26.6 13.7-36z"/>
			<path class="s2" d="m207 292.4c-8.5-7.2-13.1-15.7-14-26.2-1-11.8 3-21.9 11.5-30.2 5.2-5.1 10.4-10.3 15.5-15.5 3.2-3.3 5.3-7 4.2-11.9-2.1-9-12.7-12.5-19.4-6.1-5.7 5.4-11.1 11.1-16.7 16.6-6.3 6.2-13.6 10.3-22.5 11.4-13.7 1.7-24.8-3.2-33.8-13.2 0.2-0.5 0.2-0.9 0.3-1 7.7-7.7 14.9-15.9 23.1-22.9 26-21.9 63.2-14 79.8 12.5 12.8 20.3 10.2 49.2-7.9 66.6-6.7 6.4-13.1 13.1-20.1 20.1z"/>
			<path class="s2" d="m367.7 216.8c-13.4 16.7-38.9 19.7-56 2.8-5.7-5.6-11.3-11.4-17-16.9-4.5-4.3-10.9-4.5-15.6-0.7-4.5 3.7-5.7 10-2.6 15 1 1.7 2.4 3.2 3.8 4.6 5.4 5.5 11 10.8 16.3 16.4 14.5 15.3 12.7 40.4-4.1 53.9-0.8-0.6-1.7-1.2-2.5-1.9-6.5-6.4-13-12.8-19.4-19.4-19.2-20-19.1-53.2 0-73.1 11-11.4 24.5-17.2 40.3-16.9 13.6 0.3 25.7 5.2 35.6 14.7 6.6 6.3 13 12.9 19.4 19.4 6.4 6.5 1.1 1.3 1.8 2z"/>
			<path class="s3" d="m156.4 174.1c-21.4 22.4-58.2 19.2-74.9 0 17.3-19.6 53.9-21.9 74.9 0z"/>
			<path class="s3" d="m417.8 174.1c-20.3 22.1-58.3 19.6-74.6 0 17.7-19.8 54.4-21.4 74.6 0z"/>
			<path class="s3" d="m249.7 5.8c21.8 21.2 19.5 57.3 0 74.9-19.6-16.5-22.2-54.1 0-74.9z"/>
			<path class="s3" d="m249.5 267.4c19.4 17.5 22.2 53.7 0.5 74.8-18.5-14.6-23.6-52.3-0.5-74.8z"/>
		</g>
	</g>
</svg>