<svg version="1.2" xmlns="http://www.w3.org/2000/svg" viewBox="0 0 2697 877" width="2697" height="877">
	<title>Bassem Dental Clinics Dr</title>
	<defs>
		<linearGradient id="g1" x2="1" gradientUnits="userSpaceOnUse" gradientTransform="matrix(-452.79,-276.17,190.947,-313.064,1112.42,301.01)">
			<stop offset="0" stop-color="#e6b472"/>
			<stop offset="1" stop-color="#fbf0ea"/>
		</linearGradient>
		<linearGradient id="g2" x2="1" gradientUnits="userSpaceOnUse" gradientTransform="matrix(988.76,0,0,936.156,-284.2,400.92)">
			<stop offset="0" stop-color="#e6b472"/>
			<stop offset="1" stop-color="#fbf0ea"/>
		</linearGradient>
		<linearGradient id="g3" x2="1" gradientUnits="userSpaceOnUse" gradientTransform="matrix(-89.91,-218.37,267.728,-110.232,458.28,890.34)">
			<stop offset="0" stop-color="#e6b472"/>
			<stop offset="1" stop-color="#fbf0ea"/>
		</linearGradient>
	</defs>
	<style>
		.s0 { fill: #3b4d74 } 
		.s1 { fill: url(#g1) } 
		.s2 { fill: url(#g2) } 
		.s3 { fill: url(#g3) } 
	</style>
	<g id="Layer_1-2">
		<g>
			<path class="s0" d="m425 607.9q-3.8 0-6.3-2.5-2.4-2.4-2.4-6.3v-228.5q0-3.9 2.4-6.3 2.5-2.5 6.3-2.5h104.4q29.2 0 47.8 8.4 18.7 8.5 27.6 23.9 9 15.5 9 36.2 0 13.1-4.7 22.9-4.8 9.8-11.6 16.2-6.9 6.3-13.2 9.5 13.7 6.3 24.1 20.9 10.3 14.6 10.3 34.6 0 22.1-9.8 38.7-9.9 16.5-29.2 25.6-19.3 9.2-47.1 9.2h-107.5zm47.1-146.6h50.6q16.5 0 24.8-8.3 8.2-8.2 8.2-21.2 0-13-8.2-20.9-8.3-8-24.8-8h-50.6zm0 105.5h53.7q17.3 0 26.1-9.7 8.7-9.6 8.7-23c0-8.9-3-16.8-8.9-23q-9-9.3-25.9-9.3h-53.7c0 0 0 65 0 65z"/>
			<path class="s0" d="m689.4 611.4q-18.6 0-33.4-7.2-14.8-7.2-23.5-19.5-8.8-12.3-8.8-27.4 0-25 20.2-39.4 20.2-14.4 53.2-19.7l46.1-6.7v-6.3q0-13.7-6.3-21.1-6.4-7.4-22.2-7.4-11.6 0-18.6 4.6-7.1 4.6-10.9 11.9-2.8 4.6-8.1 4.6h-33.4q-3.9 0-6-2.3-2.1-2.3-1.7-5.4 0-6 4.5-14.1 4.6-8.1 14.1-16 9.5-7.9 24.2-13.2 14.8-5.2 36.3-5.2c14.3 0 27.4 1.7 37.9 5.2q15.8 5.3 25.3 14.8 9.5 9.5 14.1 21.9 4.6 12.5 4.6 26.9v108.6q0 3.9-2.5 6.4-2.5 2.4-6.3 2.4h-34.5q-3.5 0-6-2.4-2.4-2.5-2.4-6.4v-13q-4.6 6.7-12.3 12.5-7.7 5.8-18.5 9.4-10.7 3.5-25.1 3.5zm14.1-36.6q11.6 0 20.7-4.9 9.1-4.9 14.4-15.1 5.3-10.2 5.3-25.7v-6l-32.7 5.3q-19 3.2-27.8 9.5-8.8 6.3-8.8 15.5 0 6.6 4.1 11.6 4 4.9 10.7 7.4 6.7 2.4 14.1 2.4z"/>
			<path class="s0" d="m890.5 611.4q-21.8 0-37.5-5.1-15.6-5.1-25.3-12.5-9.7-7.4-14.4-14.9-4.7-7.6-5.1-12.9-0.4-3.8 2.5-6.3 2.8-2.4 5.6-2.5h34.1q1 0.1 2.1 0.4 1 0.4 2.1 1.8 4.5 3.1 9.5 7.2 4.9 4 11.4 6.8 6.5 2.8 16.4 2.8 11.6 0 19.6-4.7 8.1-4.8 8.1-13.5 0-6.4-3.7-10.6-3.7-4.2-13.8-7.7-10.2-3.5-30.3-7.8-19-4.2-32.3-11.2-13.4-7-20-17.8-6.7-10.7-6.7-25.8 0-13.7 8.6-26.4 8.6-12.6 25.5-20.9 16.8-8.3 42.2-8.3 19.3 0 33.9 4.8 14.6 4.7 24.4 11.9 9.8 7.3 14.9 14.8 5.1 7.6 5.5 13.2 0.3 3.5-2.1 6-2.5 2.4-5.6 2.4h-31.3q-1.8 0-3.2-0.5-1.4-0.5-2.4-1.6-4.3-2.8-8.7-6.5-4.4-3.7-10.3-6.5-6-2.8-15.5-2.8-11.6 0-17.7 5.1-6.2 5.1-6.2 12.8 0 5 3.2 9.2 3.1 4.2 13 7.7 9.8 3.5 29.9 7.4 23.8 4.2 37.9 12.7 14.1 8.4 20.2 19.5 6.2 11 6.2 23.7 0 16.5-9.9 29.4-9.8 12.8-28.6 20-18.8 7.2-46.2 7.2z"/>
			<path class="s0" d="m1059.9 611.4q-21.8 0-37.4-5.1-15.7-5.1-25.3-12.5-9.7-7.4-14.5-14.9-4.7-7.6-5.1-12.9-0.3-3.8 2.5-6.3 2.8-2.4 5.6-2.5h34.1q1.1 0.1 2.1 0.4 1.1 0.4 2.1 1.8 4.6 3.1 9.5 7.2 4.9 4 11.4 6.8 6.5 2.8 16.4 2.8 11.6 0 19.7-4.7 8.1-4.8 8.1-13.5 0-6.4-3.7-10.6-3.7-4.2-13.9-7.7-10.2-3.5-30.2-7.8-19-4.2-32.4-11.2-13.3-7-20-17.8-6.7-10.7-6.7-25.8 0-13.7 8.6-26.4 8.6-12.6 25.5-20.9 16.9-8.3 42.2-8.3 19.3 0 33.9 4.8 14.6 4.7 24.4 11.9 9.9 7.3 15 14.8 5.1 7.6 5.4 13.2 0.4 3.5-2.1 6-2.4 2.4-5.6 2.4h-31.3q-1.7 0-3.1-0.5-1.5-0.5-2.5-1.6-4.2-2.8-8.6-6.5-4.4-3.7-10.4-6.5-6-2.8-15.5-2.8-11.6 0-17.7 5.1-6.2 5.1-6.2 12.8 0 5 3.2 9.2 3.2 4.2 13 7.7 9.9 3.5 29.9 7.4 23.9 4.2 38 12.7 14 8.4 20.2 19.5 6.1 11 6.1 23.7 0 16.5-9.8 29.4-9.9 12.8-28.7 20-18.8 7.2-46.2 7.2z"/>
			<path class="s0" d="m1238.8 611.4q-40.4 0-64.1-22.5-23.8-22.5-25.2-65.4v-15.1q1.4-27.1 12.3-46.6 10.9-19.5 30.6-29.9 19.7-10.3 46.1-10.3 29.5 0 49.3 12.1 19.9 12.1 29.9 33 10 21 10 48v8.1q0 3.5-2.6 6-2.6 2.4-6.1 2.5h-115v2.8q0.4 11.2 4.4 20.5 4 9.3 11.6 15 7.6 5.6 18.1 5.6 8.8 0 14.4-2.5 5.6-2.4 9.3-6 3.7-3.5 5.5-5.9 3.1-3.6 5.1-4.4 1.9-0.9 6.1-0.9h36.6q3.5 0 5.8 1.9 2.3 2 1.9 5.5-0.3 5.6-5.8 13.9-5.4 8.2-16 16.1-10.5 7.9-26.2 13.2-15.6 5.3-36 5.3zm-34.8-112.1h68.9v-0.7q0-12.7-4-22-4.1-9.3-11.8-14.6-7.7-5.3-18.6-5.3-10.9 0-18.7 5.3-7.7 5.3-11.8 14.6-4 9.3-4 22z"/>
			<path class="s0" d="m1350.2 607.9q-3.5 0-5.9-2.5-2.5-2.4-2.5-6.3v-165.2q0-3.9 2.5-6.4 2.4-2.4 5.9-2.4h32.7q3.5 0 6.2 2.4 2.6 2.5 2.6 6.4v11.9q7-9.8 19.5-16.9 12.5-7 29.7-7.3 40.8-0.7 55.9 30.9 8.1-13.7 23.4-22.3 15.3-8.6 33.6-8.6 18.3 0 33 8.2 14.8 8.3 23.4 25.3 8.6 17.1 8.6 43.8v100.2q0 3.8-2.5 6.3-2.4 2.5-5.9 2.5h-34.8q-3.6 0-6-2.5-2.5-2.5-2.5-6.3v-97.4q0-14.4-4.2-22.7-4.2-8.2-11.1-11.8-6.8-3.5-15.3-3.5-7.4 0-14.2 3.5-6.9 3.6-11.3 11.8-4.3 8.3-4.3 22.7v97.4q0 3.8-2.5 6.3-2.5 2.5-6.3 2.5h-34.5q-3.9 0-6.3-2.5-2.5-2.5-2.5-6.3v-97.4q0-14.4-4.2-22.7-4.2-8.2-11.1-11.8-6.8-3.5-14.9-3.5-7.4 0-14.4 3.7-7 3.7-11.5 11.8-4.3 8.1-4.3 22.1v97.8q0 3.8-2.5 6.3-2.5 2.5-6 2.5h-35.5z"/>
			<path class="s0" d="m1709.5 607.9q-3.9 0-6.3-2.5-2.5-2.4-2.5-6.3v-228.5q0-3.9 2.5-6.3 2.4-2.5 6.3-2.5h88.2q35.2 0 58.7 11.1 23.6 11.1 36.1 32.3 12.4 21.3 13.1 52.6 0.4 15.4 0.4 27 0 11.6-0.4 26.8-1 32.6-13 54.1-11.9 21.4-35.1 31.8-23.2 10.4-58 10.4h-90zm47.1-45.4h41.1q17.6 0 28.8-5.2 11.3-5.3 16.7-16.7 5.5-11.5 5.8-29.7 0.4-10.2 0.6-18.3 0.1-8.1 0-16.2-0.2-8.1-0.6-17.9-0.7-26.4-13.5-38.9-12.8-12.4-39.6-12.5h-39.3c0 0 0 155.4 0 155.4z"/>
			<path class="s0" d="m2006.5 611.4q-40.4 0-64.1-22.5-23.8-22.5-25.2-65.4v-15.1q1.4-27.1 12.3-46.6 10.9-19.5 30.6-29.9 19.7-10.3 46.1-10.3 29.5 0 49.3 12.1 19.9 12.1 29.9 33 10 21 10 48v8.1q0.1 3.5-2.6 6-2.6 2.4-6.1 2.5h-115v2.8q0.4 11.2 4.4 20.5 4 9.3 11.6 15 7.6 5.6 18.1 5.6 8.8 0 14.4-2.5 5.6-2.4 9.3-6 3.7-3.5 5.5-5.9 3.2-3.6 5.1-4.4 1.9-0.9 6.1-0.9h36.6q3.5 0 5.8 1.9 2.3 2 1.9 5.5-0.3 5.6-5.8 13.9-5.4 8.2-16 16.1-10.5 7.9-26.2 13.2-15.6 5.3-36 5.3zm-34.8-112.1h68.9v-0.7q0-12.7-4-22-4.1-9.3-11.8-14.6-7.7-5.3-18.6-5.3-10.9 0-18.7 5.3-7.7 5.3-11.7 14.6-4.1 9.3-4.1 22z"/>
			<path class="s0" d="m2117.9 607.9q-3.5 0-5.9-2.5-2.5-2.4-2.5-6.3v-165.2q0-3.9 2.5-6.4 2.4-2.4 5.9-2.4h34.5q3.9 0 6.3 2.4 2.5 2.5 2.5 6.4v13.7q9.1-11.3 23.5-18.7 14.4-7.3 35.2-7.3 20.7 0 36.4 9.3 15.6 9.3 24.6 27 8.9 17.8 8.9 43.1v98.1q0 3.8-2.6 6.3-2.6 2.5-6.1 2.5h-37.3q-3.9 0-6.3-2.5-2.5-2.5-2.5-6.3v-96q0-18.6-9-29-8.9-10.4-26.1-10.4c-11.5 0-19.8 3.5-26.4 10.4q-9.8 10.4-9.8 29v96q0 3.8-2.5 6.3-2.5 2.5-6 2.5h-37.2z"/>
			<path class="s0" d="m2398.8 607.9q-21.8 0-37.2-7.2-15.5-7.2-23.4-22.4-7.9-15.1-7.9-37.9v-73.8h-27.4q-3.9 0-6.4-2.5-2.4-2.5-2.4-6.3v-23.9q0-3.9 2.4-6.4 2.5-2.4 6.4-2.4h27.4v-58q0-3.9 2.6-6.3 2.7-2.5 6.2-2.5h34.4q3.9 0 6.3 2.5 2.5 2.4 2.5 6.3v58h43.9q3.6 0 6 2.4 2.5 2.5 2.5 6.4v23.9q0 3.8-2.5 6.3-2.4 2.5-6 2.5h-43.9v69.6q0 13.3 4.8 20.9 4.7 7.5 16.6 7.5h25.7q3.5 0 6 2.5 2.4 2.5 2.4 6v26q0 3.9-2.4 6.3-2.5 2.5-6 2.5h-30.6z"/>
			<path class="s0" d="m2515.2 611.4q-18.7 0-33.4-7.2-14.8-7.2-23.6-19.5-8.8-12.3-8.8-27.4 0-25 20.2-39.4 20.3-14.4 53.3-19.7l46-6.7v-6.3q0-13.7-6.3-21.1-6.3-7.4-22.1-7.4-11.6 0-18.7 4.6-7 4.6-10.9 11.9-2.8 4.6-8 4.6h-33.4q-3.9 0-6-2.3-2.1-2.3-1.8-5.4 0-6 4.6-14.1 4.6-8.1 14.1-16 9.4-7.9 24.2-13.2 14.8-5.2 36.2-5.2c14.3 0 27.4 1.7 38 5.2q15.8 5.3 25.3 14.8 9.5 9.5 14.1 21.9 4.5 12.5 4.5 26.9v108.6q0 3.9-2.4 6.4-2.5 2.4-6.4 2.4h-34.4q-3.5 0-6-2.4-2.5-2.5-2.5-6.4v-13q-4.5 6.7-12.3 12.5-7.7 5.8-18.4 9.4-10.8 3.5-25.1 3.5zm14-36.6q11.6 0 20.8-4.9 9.1-4.9 14.4-15.1 5.2-10.2 5.2-25.7v-6l-32.6 5.3q-19 3.2-27.8 9.5-8.8 6.3-8.8 15.5 0 6.6 4 11.6 4.1 4.9 10.8 7.4 6.6 2.4 14 2.4z"/>
			<path class="s0" d="m2653 607.9q-3.9 0-6.4-2.5-2.4-2.4-2.4-6.3v-232q0-3.9 2.4-6.3 2.5-2.5 6.4-2.5h35.1q3.5 0 6 2.5 2.5 2.4 2.5 6.3v232q0 3.9-2.5 6.3-2.5 2.5-6 2.5z"/>
		</g>
		<g>
			<path class="s0" d="m1071.7 820.9q-15.5 0-25.3-6.1-9.9-6.1-14.6-16.5-4.8-10.4-5.3-23.7-0.2-7-0.2-15 0-8 0.2-15.4 0.5-13.3 5.3-23.8 4.7-10.5 14.6-16.4 9.8-6 25.3-6 12.1 0 20.7 3.4 8.5 3.4 13.9 9 5.3 5.5 8 11.9 2.6 6.4 3 12.6 0.1 1.5-1 2.4-1.1 1-2.6 1h-3.4q-1.4 0-2.4-0.8-1-0.8-1.4-2.8-3.2-15.2-12.2-20.8-8.9-5.7-22.6-5.7-15.5 0-24.7 8.8-9.1 8.8-9.8 28.1-0.5 14 0 28.7 0.7 19.3 9.8 28 9.2 8.8 24.7 8.8 13.7 0 22.6-5.6 9-5.6 12.2-20.8 0.4-2.1 1.4-2.8 1-0.8 2.4-0.8h3.4q1.5 0 2.6 0.9 1.1 1 1 2.5-0.4 6.1-3 12.5-2.7 6.5-8 12-5.4 5.5-13.9 9-8.6 3.4-20.7 3.4z"/>
			<path class="s0" d="m1214.4 819.1q-1.7 0-2.8-1-1-1-1-2.7v-112q0-1.7 1-2.7 1.1-1 2.8-1h3.2q1.7 0 2.8 1 1 1.1 1 2.7v105.5h58.9q1.8 0 2.9 1 1 1.1 1 2.9v2.6q0 1.7-1 2.7-1.1 1.1-2.9 1z"/>
			<path class="s0" d="m1376.2 819.1q-1.7 0-2.8-1-1-1-1-2.7v-112q0-1.7 1-2.7 1.1-1 2.8-1h3.2q1.7 0 2.8 1 1 1.1 1 2.7v112q0 1.7-1 2.7-1.1 1.1-2.8 1z"/>
			<path class="s0" d="m1487.3 819.1q-1.7 0-2.8-1-1-1-1-2.7v-111.8q0-1.9 1-2.9 1.1-1 2.8-1h3.5q1.8 0 2.6 0.9 0.9 0.8 1 1.2l63 96.2v-94.4q0-1.8 1-2.9 1-1 2.8-1h3q1.9 0 2.9 1 1.1 1.1 1 2.9v111.7q0.1 1.7-1 2.8-1 1.1-2.7 1.1h-3.8q-1.7 0-2.4-0.9-0.8-0.8-1.1-1.2l-62.8-95.9v94.2q0 1.7-1.1 2.7-1 1.1-2.9 1.1h-3z"/>
			<path class="s0" d="m1672.3 819.1q-1.7 0-2.8-1-1-1-1-2.7v-112q0-1.7 1-2.7 1.1-1 2.8-1h3.2q1.7 0 2.8 1 1 1.1 1 2.7v112q0 1.7-1 2.7-1.1 1.1-2.8 1z"/>
			<path class="s0" d="m1820.1 820.9q-15.6 0-25.4-6.1-9.8-6.1-14.6-16.5-4.8-10.4-5.3-23.7-0.1-7-0.1-15 0-8 0.1-15.4 0.5-13.3 5.3-23.8 4.8-10.5 14.6-16.4 9.8-6 25.4-6 12.1 0 20.6 3.4 8.5 3.4 13.9 9 5.4 5.5 8 11.9 2.7 6.4 3 12.6 0.2 1.5-0.9 2.4-1.1 1-2.6 1h-3.5q-1.3 0-2.4-0.8-1-0.8-1.3-2.8-3.3-15.2-12.2-20.8-9-5.7-22.6-5.7-15.6 0-24.7 8.8-9.1 8.8-9.8 28.1-0.5 14 0 28.7 0.7 19.3 9.8 28 9.1 8.8 24.7 8.8 13.6 0 22.6-5.6 8.9-5.6 12.2-20.8 0.3-2.1 1.3-2.8 1.1-0.8 2.4-0.8h3.5c1 0 1.9 0.3 2.6 0.9q1.1 1 0.9 2.5-0.3 6.1-3 12.5-2.6 6.5-8 12-5.4 5.5-13.9 9-8.5 3.4-20.6 3.4z"/>
			<path class="s0" d="m1994.8 820.9q-13.8 0-23.4-4.5-9.7-4.4-14.8-11.4-5.1-7-5.5-14.8 0-1.4 1.1-2.4 1-1.1 2.5-1.1h3.4q1.8 0 2.7 1.1 0.9 1 1.1 2.4 0.7 4.7 4.3 9.4 3.6 4.7 10.5 7.9 7 3.1 18.1 3.1 16.8 0 24.4-6 7.7-6.1 7.7-16.3 0-6.8-4-11-4-4.2-12.2-7.6-8.2-3.3-21-7.4-12.1-3.9-19.9-8.1-7.9-4.2-11.6-10.1-3.6-6-3.6-15.4 0-8.7 4.6-15.6 4.6-6.9 13.4-11 8.8-4.1 21.4-4.1 10.1 0 17.6 2.7 7.5 2.7 12.4 7.3 5 4.5 7.5 9.7 2.6 5.2 2.8 10.1 0 1.2-0.9 2.3-0.8 1.1-2.7 1.1h-3.4q-0.9 0-2.2-0.6-1.2-0.7-1.6-2.8-1-8.5-8.9-14-8-5.6-20.6-5.6-12.6 0-20.7 5-8 4.9-8 15.5 0 6.8 3.6 11.2 3.6 4.3 11.3 7.7 7.6 3.3 19.8 7.2 12.8 4.1 21.1 8.2 8.4 4.1 12.5 10 4.1 5.9 4.1 15.2 0 10.5-5.2 17.7-5.2 7.3-14.8 11.1-9.5 3.9-22.8 3.9z"/>
		</g>
		<g>
			<path class="s1" d="m585.8 148.4c14.2 12.5 39.8 20.7 58.1 24.8 22.1 4.9 45.8 1.1 65.3-10.5 17.8-10.5 31.4-26.5 43.1-43.2 27.5-39.1 47.4-87.1 92-110.3 15.5-8 33-11.5 50.2-7.7 26.6 6 48.8 25.4 65.1 46.4 31.6 40.6 42.9 90.7 40.2 141.5-1.2 22.4-4.7 44.6-9.8 66.4-4 17.6-9.1 34.8-15 51.8-5.8 17-13.3 32.8-20.7 49.1-1.1 2.4-2.2 4.8-2.8 7.3 5-18.6 10.4-36.7 14.1-55.7 8.9-46.6 14.8-95.3 7.7-142.5-5.8-39.1-24.9-83.8-68.1-91.5-49.2-8.7-88.7 28.6-122.1 58.8-12 10.9-24.2 21.7-37.7 30.8q-1 0.7-2 1.3c-37.1 24.2-81.5 27.8-121.3 8-13.2-6.6-25.3-15.1-36.3-24.8z"/>
			<path class="s2" d="m839.6 130c0 0-65.4 134.4-189.1 156.6-84.8 15.2-164.2-22.7-239.5-56.3-63.5-28.1-139.6-64.2-210.3-42.7-14.4 4.3-27.8 10.4-40.5 18.5-123.2 77.5-82.1 254.9-34.8 364.5 0 0 0.2 0.6 0.7 1.7 6.6 16.3 58.5 143.1 108.8 215.4 2 3.7 4.5 7.3 7.7 10.7-15.1-9-26.7-23.2-38-36.5-128.4-150.1-233-333.8-197.7-538.9 19.5-112.7 95.9-234 226.8-218.2 86.9 10.4 160.3 71.8 220.1 131.5 47.3 47 103.9 100 173.4 108 84.6 9.6 164.9-49.8 212.4-114.3z"/>
			<path class="s3" d="m220.2 689.3c1.4-0.6 12.2 36.9 48.2 81.2 20.5 25.4 66.6 75.2 103.5 66.3 20.6-4.9 32-18.5 37.3-28.1 11.8-21.1 7.3-45 8.4-68 1.6-32.1 15.6-66.1 42.9-84.4 10.8-7.3 23.1-12.4 35.7-15.4 1.4-0.3 14.9-3 17.9-1.9-14.9 1.4-29.8 8.7-31.9 9.7-20.6 10.2-32.7 28.5-35.8 50.9-5 36.5 4.1 72.9 3.3 109.4-0.6 28-20.9 56.4-47.7 65.2-40.7 13.2-83.4-25.2-101.9-42.3-57.8-53.6-82.1-141.6-79.9-142.6z"/>
		</g>
	</g>
</svg>