<svg version="1.2" xmlns="http://www.w3.org/2000/svg" viewBox="0 0 226 231" width="226" height="231">
	<title>82</title>
	<style>
		.s0 { fill: #374da1 } 
	</style>
	<g id="Layer_1-2">
		<g>
			<path class="s0" d="m0 188.6q4.4-4.2 10.3 0.3c0.2-13.1 6.9-21.1 18.6-25.4-1.4 2.7-1.7 5.5-1.7 8.4 0 4.1-3 5.8-6.9 4-0.7-0.3-1.2-2.2-2.1-0.4-1 1.9-3.4 3.2-2.8 5.8 0.3 1.4 1.8 0.9 2.8 0.9 4.1 0.1 8.1 0 12.1 0.1 2 0 2.7-0.7 2.7-2.7q-0.1-12.7 0-25.4c0-2-1.2-3.1-2.4-4.2q-4.8-4.2-9.7-8.5c7.5-8 7-7.5 15.1-0.7 6.1 5 10 12 10.9 19.9 0.5 4.5 0 9.1 0 13.6-0.1 4.5-0.1 9.2-0.1 13.8 0.1 2.6 0.7 6.5-3 6.5-14.6-0.1-29.2-0.1-43.8-0.2v-5.8z"/>
			<path class="s0" d="m224.8 193.5c-0.2 0.3-0.4 0.6-0.8 0.8-0.6 0.2-1.3 0.2-1.9 0.2-13.6 0-27.2 0-40.7 0.1-2.8 0.1-3.5-0.7-3.5-3.4 0.2-12.3 0.1-24.5 0.1-36.8 0-1.6 0.1-2.9 1.4-4.1q7.5-7.3 14.8-14.8c1.3-1.4 2.1-1.4 3.6 0 6.2 5.8 6.6 6.1 0 11.1-4.8 3.7-6.8 7.7-6.2 13.7 0.5 6.1 0.2 12.3 0 18.4 0 2.8 1.2 3.8 4 3.6 3.6-0.1 7.1-0.1 10.7 0 2.5 0 4.2-1.1 2.4-3.6-1.2-1.6-1.6-5.2-5.6-2.5-3 1.9-5.8-0.5-5.7-4.3 0-2.8-0.1-5.6-1.9-8 8.7-0.2 17.2 10.9 19 24.7 2.2-0.5 3.2-3.2 5.6-3.2 2.3 0 3 2.2 4.4 3.6 0.1 0.1 0.3 0.2 0.4 0.4 0.1 0.2 0.1 0.4 0.1 0.6 0 1 0.3 2.5-0.2 3.5z"/>
			<path class="s0" d="m111.6 47.6q-1.4 0-2.9 0.1c-13.7 0.6-27.4 4-38.9 11.6-13.4 8.9-21.9 21.2-21.4 38.1 0 0.9-0.2 1.8 0 2.5 2 7.8-3.3 12-8.1 16.4-0.6 0.6-1.1 1.4-2.1 0.5-2.4-2.1-4.9-4.1-7.3-6.2-1.5-1.2 0.1-1.9 0.8-2.5 1.6-1.6 2.9-3 2.7-5.7-1.5-30.4 14.9-48.6 41.2-60.1 12.5-5.5 25.2-8.7 38.9-8.1 22.6 0.9 44.5 9.5 60.6 25.5 10 9.9 15.1 22.1 14.9 36.3 0 4.6-1.4 9.6 3.6 12.9 0.9 0.5 0.7 1.4-0.1 2q-0.2 0.2-0.3 0.3c-2.7 2-5.5 6.4-7.7 5.7-3.5-1.3-6.1-5.1-8.7-8.2-0.8-1-0.4-3.2-0.3-4.9 0.1-8.5 0-16.9-4-24.8-11.3-22.3-37-31.6-60.9-31.4z"/>
			<path class="s0" d="m202.6 110.7c4.1-0.3 7.9 1.5 11.2 4.3 3.1 2.7 2.7 8.6-0.6 11.6-0.9 0.9-1.4 0.4-2-0.2-1.5-1.8-3.8-2.9-3.8-6 0-2.4-3.1-3.3-5.1-1.7-4.6 4-9.1 8.1-13.7 12.2-1 0.9-1.8 1.7-0.3 2.9 0.8 0.7 1.7 1.7 0.8 2.7-0.7 0.9-1.6 1.6-2.4 2.3-1.3 1.3-2.3 0.1-3.3-0.9q-7.1-6.8 0-13.3c2.5-2.4 5.3-4.7 7.7-7.2 2.3-2.4 4.8-4.7 8-5.9q1.7-0.6 3.4-0.8z"/>
			<path class="s0" d="m12.3 127.5c-4.5-6.4-4.8-9.1-1.3-12.6 4.7-4.6 13-5.8 17.5-2 6.2 5.3 12 11.1 18.1 16.6 1.4 1.2 1.1 1.9 0 3-1.5 1.4-2.8 3.1-4.5 4.3-1.2 0.9-1.8 4-4 2-1.5-1.3-5-2.7-1.3-5.6 1.1-0.9 0-1.7-0.7-2.3-4.5-4-8.9-8-13.4-11.9-2-1.8-5.7-1-5.6 1.3 0.3 4.1-3.1 4.8-4.7 7.2z"/>
			<path class="s0" d="m209.1 142.1c0.1-1.2-0.4-2.1-1.5-3-3.3-2.9-6.5-6.1-9.6-9.2-0.4-0.4-1-0.7-1.3-1.3-0.1-0.2-0.2-0.5-0.1-0.7 0.4-1 1.8-1.8 2.6-2.5 1-1 2.5-2 3.8-0.9 4.7 4.1 9.3 8.4 12.9 13.5 3.4 4.8 1.8 9.2-4.6 14.3-2.9 2.4-9.7 2-12.5-0.7-0.7-0.7-1-1.5-0.2-2 1.7-1.1 2-4 5.2-3.1 3.5 1 5.4-0.8 5.3-4.4z"/>
			<path class="s0" d="m169.4 96.7c0-8.9-3.1-16.3-9.2-22.6-21.4-22.3-61-26-86.3-8.2-12.6 8.9-19.4 20.1-18.9 36.2 0.7 29 0.2 58 0.1 87 0 3.4 0.7 4.5 4.3 4.5 17.7-0.2 35.4-0.1 53.1-0.1 17.5 0 35.1-0.2 52.7 0 3.5 0.1 4.3-1 4.3-4.4q-0.2-46.2-0.1-92.4zm-14.8 86.9c-14-0.2-28.1-0.1-42.2 0-14.6 0-29.2-0.1-43.8 0-2.8 0.1-3.4-0.8-3.4-3.5 0.1-27.5 0-55.1 0.1-82.7 0-8.4 4.5-14.4 10.6-19.4 21.6-17.9 52.2-17.7 73.6 0.4 6.7 5.7 10.2 12.8 10.2 21.8-0.2 26.2-0.2 52.4 0 78.6 0.1 4.2-1.2 4.9-5.1 4.8z"/>
			<g>
				<path class="s0" d="m32.1 58.1l-4.4 7.7-0.1 0.3q-0.4 0.9 0.6 1.4 0.4 0.3 0.9 0.2 0.5-0.1 0.8-0.5 0.3-0.6 0.4-1.3l0.2-1.3q0-0.7 0.5-1.5 0.2-0.4 0.6-0.6 0.3-0.1 0.8 0 0.2 0 0.4 0.1 0.3 0.2 0.5 0.5 0.4 0.5 0.1 1.1-0.2 0.3-0.7 0.4-0.5 0.1-0.8-0.1-0.2-0.1-0.3-0.2-0.3 0.5-0.4 1.2 0 0.7 0 1.2 0.1 1.4-0.6 2.6-0.6 1-1.7 1.2-1.2 0.3-2.3-0.3-0.7-0.4-1.2-1.1-0.4-0.6-0.6-1.4-0.3 0-0.9-0.1l-0.5-0.1-0.4-0.2-1.7-0.9q-0.6-0.3-1.1-0.2-0.5 0.1-0.6 0.4-0.7-0.3-1-0.7-0.3-0.4-0.4-0.9-0.2-0.9 0.2-1.5-0.8-0.6-1-1.3-0.3-0.7-0.4-1.6v-0.7l-0.1-0.8q-0.1-0.7-0.8-1.4-0.5-0.5-1.1-0.8l-0.4-0.3-0.3-0.1q1.6-0.7 2.5-0.2l0.2 0.1q0.4 0.3 0.7 0.5 0.3 0.2 0.7 0.5 0.5-0.8 1.8-1.1 1.3-0.2 2.3 0.4 0.7 0.4 1.1 1l-0.2-0.6-0.1-0.6q0-0.2 0-0.4 0-0.2 0-0.5 0.7-0.4 1.5-0.4 0.3 0 0.6 0.1 0.3 0.1 0.6 0.2-0.2 0.5 0 0.9 0.1 0.2 0.4 0.5l0.4 0.3 0.3 0.2 0.5 0.3q0.2 0.1 0.5 0.3 0.3 0.3 0.5 0.5l0.5 0.6 0.2 0.3 1.3-2.1 1.5 0.8zm-8.2 0.3q0.3 0.3 0.3 1-0.1 0.8-0.4 1.3-0.3 0.5-0.8 0.9l0.3-0.3q0.1-0.2 0.1-0.6 0.1-0.6-0.2-1.1-0.3-0.4-0.8-0.7-0.8-0.4-1.5-0.3-0.9 0.2-1.2 0.9-0.5 0.8-0.2 1.5 0.1 0.4 0.5 0.9 0.4 0.4 1 0.8l2.5 1.4 0.1 0.1q1 0.5 2 0.3 1-0.2 1.5-1.1 0.4-0.8 0.1-1.7-0.3-1-1.2-1.5-0.8-0.4-1.2-0.8-0.5-0.4-0.9-1z"/>
				<path class="s0" d="m23.9 40.1q0.6 0.4 0.7 1.1 0.1 0.7-0.3 1.3-0.4 0.4-1.1 0.5-0.8 0-1.3-0.4-0.6-0.5-0.7-1.2-0.1-0.7 0.3-1.2 0.4-0.5 1.2-0.6 0.7 0 1.2 0.5zm16.2 8.3l-8.5 10.3-1.3-1.1 5.9-7.2q-0.1-0.1-0.4-0.2-0.2-0.1-0.4-0.3l-0.7-0.6-2.4-1.9-0.8-0.5q-0.9-0.6-1.9-0.6-1 0-1.5 0.7-0.5 0.6-0.4 1.4 0.1 0.9 0.8 1.7l0.3 0.5 0.6 0.5q0.4 0.4 1 0.6 1 0.5 1.9 0.2 0.4-0.2 0.7-0.5 0.4-0.6 0.4-1.3-0.1-0.7-0.6-1.3 0.1 0.6-0.2 1.1-0.3 0.3-0.8 0.3-0.5 0-0.8-0.3-0.4-0.3-0.5-0.8-0.2-0.5 0.1-0.8l0.3-0.3c0 0 0-0.1 0.1-0.1q0 0 0.2-0.1 0.2-0.1 0.5-0.1 0.7 0 1.2 0.3l0.3 0.2 0.1 0.1 0.2 0.1 0.1 0.2q0.7 0.7 0.7 1.6 0.2 1.6-0.9 2.8-1 1.3-2.8 1.4-1.8 0.1-3.3-1.1-0.7-0.5-1.1-1.1-0.5-0.6-0.7-1.3-0.5-1.3-0.4-2.4 0.2-1.1 0.5-2.6 0.4-1.4-1.2-3.5 0.9 0.1 1.7 0.7l0.1 0.1 0.2 0.1 0.4 0.5q0.1 0.2 0.2 0.2 0 0 0.1 0.2 0.3 0.4 0.4 0.8 1-0.3 1.7-0.3-0.5-0.5-0.5-1.3-0.1-0.8 0.2-1.2l3-0.2q-0.1 0.6 0.2 1l0.3 0.3 0.4 0.3 4.3 3.6 0.3 0.2c0 0 0.1 0.1 0.2 0.2q0.2 0 0.3 0.1 0.3 0.2 0.8 0.4 0.7 0.4 1.4 0.3z"/>
				<path class="s0" d="m44.8 44l-3.3 3.2-12.2-12.7q-0.5-0.5-0.5-1.1-0.1-0.3 0-0.6 0-0.3 0.1-0.6l3.3 0.2q-0.2 0.6 0.2 1l10 10.4 1.2-1.1 1.2 1.3z"/>
				<path class="s0" d="m36.8 27.6q0.4 0.5 0.4 1.3 0 0.7-0.5 1.2-0.6 0.4-1.3 0.3-0.7-0.1-1.2-0.7-0.5-0.5-0.5-1.3 0-0.7 0.6-1.2 0.5-0.4 1.2-0.3 0.8 0.1 1.3 0.7zm11.8 13.1l-4.2 3.5-1.1-1.3 1.4-1.2q-0.6-0.4-1.2-1.1l-3.1-3.7-1.8-2q-0.3-0.5-0.3-1.1 0-0.6 0.2-1.1l3.2 0.4q-0.2 0.4 0.2 0.9l4.4 5.2q0.5 0.7 1 1 0.6 0.3 1.3 0.5z"/>
				<path class="s0" d="m52.9 16.6q0.4 0.7 0.2 1.4-0.1 0.7-0.7 1.1-0.6 0.3-1.3 0.1-0.7-0.2-1.1-0.9-0.4-0.7-0.3-1.4 0.2-0.7 0.8-1.1 0.6-0.3 1.3 0 0.7 0.2 1.1 0.8zm13.6 12.6l-0.5 0.3q-0.1 0.1-0.3 0.1h-0.2q-0.4 0-0.9-0.5l1.5 2.7 0.2 0.3 0.2 0.2 0.1 0.1q0.1 0.2 0.1 0.2 0.4 0.4 0.8 0.6l-5.2 2.9-0.6 0.3-0.5 0.3q-0.5 0.3-1.2 0.5-0.5 0.1-0.9 0.1-0.4 0.1-0.8 0-0.8 0-1.5-0.3-1.4-0.6-2.5-1.8l-0.4-0.6-0.4-0.6-0.4-0.7q-0.1-0.2-0.1-0.4l-0.2-0.4q-0.3-0.9-0.3-1.8 0-0.5 0-0.9 0-0.5 0.1-0.9 0.2-1.2 0.7-2.3 0.5-1.2 0.4-2.7 0-0.9-0.4-2.2-0.1-0.3-0.2-0.4-0.1-0.2-0.3-0.8-0.3-0.6-0.6-1.2 1.5 1.2 2.4 2.6 0.7 1.3 0.9 2.9 1.1 0.3 1.6 1.2l0.2 0.4-0.7 0.3q-0.8 0.4-1.2 1.1-0.8 0.9-0.9 2.1-0.2 1.1 0.2 2.4l0.1 0.4 0.3 0.4q0.2 0.4 0.4 0.7 0.3 0.3 0.6 0.6 1.1 1 2.8 1 0.5 0 1.1-0.1 0.5-0.1 1-0.5l2.6-1.4-0.3-0.4-0.3-0.4-0.5-0.9-5.1-8.9q-0.4-0.8-0.5-1.6 0-0.7 0.6-1.4l2.9 1q-0.3 0.6 0.1 1.2l2.6 4.5q0.4 0.8 1.1 1.2 0.7 0.4 1.4 0l0.9 1.5z"/>
				<path class="s0" d="m71.3 27.4l-4.7 2-0.7-1.6 1.4-0.6-0.3-0.5-0.4-0.9-2-4.4-0.9-2.2q-0.1-0.3-0.2-0.5 0-0.1 0-0.2-0.2-0.9 0.5-1.8l3.1 1.4-0.2 0.4q0 0.3 0.1 0.6l2.7 6.2 0.3 0.7q0.1 0.1 0.1 0.2 0.1 0.1 0.2 0.3 0.4 0.5 1 0.9zm0.3 2.6q0.2 0.5 0 1.1-0.2 0.6-0.7 0.8-0.4 0.2-1-0.1-0.5-0.2-0.7-0.7-0.3-0.6-0.1-1.2 0.1-0.5 0.7-0.7 0.4-0.2 1 0 0.5 0.2 0.8 0.8z"/>
				<path class="s0" d="m78.9 6q0.2 0.7-0.1 1.3-0.4 0.7-1 0.9-0.6 0.1-1.2-0.3-0.6-0.3-0.8-1.1-0.2-0.7 0.1-1.3 0.3-0.6 1-0.8 0.6-0.2 1.2 0.2 0.6 0.4 0.8 1.1zm11.3 15.5l-2.8 0.8q-0.8 0.2-1.6-0.5-0.6-0.6-0.9-1.5v-0.3l-0.1-0.2q0.1 1.2-0.4 2.2-0.6 1-1.5 1.5-0.5 0.3-1 0.4-1.1 0.3-2.2-0.2-0.7-0.3-1.3-0.9-0.6-0.7-1.1-1.6l-0.5-1.1-0.3-1.2q-0.2-0.7-0.2-1.2v-0.6q0-0.4 0.1-0.7 0.2-1.9 1.4-3.6l0.4-0.5 0.4-0.6q0.4-0.5 0.6-1.2 0.5-1.3 0.2-3.1 0.5 0.4 0.8 0.9 0.3 0.5 0.5 1v0.2l0.1 0.2v0.1q0.1 0.6 0.2 0.8 0 0.1 0 0.3 0 0.2 0 0.5 0.5 0 1 0.3 0.6 0.3 1 0.9-0.2-0.9 0-1.5 0.2-0.8 0.9-1.1l2.7 1.8q-0.3 0.1-0.3 0.5-0.1 0.1 0 0.3v0.2l1.6 6.1q0.2 0.7 0.7 0.9 0.5 0.2 1.2 0.1l0.4 1.6zm-7.8-16.4q0.2 0.7-0.1 1.4-0.4 0.6-1 0.7-0.7 0.2-1.2-0.2-0.6-0.3-0.8-1.1-0.2-0.7 0.1-1.3 0.3-0.7 1-0.8 0.6-0.2 1.2 0.2 0.6 0.4 0.8 1.1zm2.2 13.6l-0.8-3.1-0.2-0.5q-0.1-0.3-0.2-0.5-0.3-0.4-0.7-0.6-0.8-0.5-1.6-0.3h-0.2l-0.2 0.1q-0.8 0.4-1.2 1.4-0.3 0.9-0.1 2.2l0.1 0.4v0.3l0.2 0.5 0.1 0.5q0.3 0.9 0.8 1.4 0.9 1.1 1.8 0.9 0.5-0.2 0.8-0.4 0.3-0.2 0.5-0.6l0.1-0.5q0-0.2-0.1-0.4v-0.2q-0.1-0.4-0.5-0.9 0.1 0.8-0.4 1.1l-0.3 0.1q-0.4 0.1-0.8-0.1-0.5-0.3-0.6-0.8-0.1-0.5 0-1 0.3-0.6 0.8-0.7 0.4-0.1 0.9 0 1.2 0.1 1.8 1.6z"/>
				<path class="s0" d="m96.4 20.7h-0.2q-0.5 0-0.8-0.3l-0.4-0.3-0.3-0.4 0.2 1.2-4.7 0.8-0.2-1.7 1.6-0.3-1.5-9.1q-0.1-1.3 0.9-2l2.6 2.1q-0.3 0.2-0.2 0.8l0.8 5.3 0.1 0.4 0.1 0.2c0 0 0 0.1 0 0.1q0 0.1 0.1 0.2 0.1 0.3 0.4 0.7 0.5 0.7 1.2 0.6zm-1 2.7q0.1 0.6-0.2 1.1-0.4 0.5-0.9 0.6-0.5 0.1-1-0.3-0.4-0.3-0.6-0.9 0-0.6 0.3-1.1 0.3-0.5 0.8-0.6 0.5-0.1 1 0.3 0.5 0.3 0.6 0.9z"/>
				<path class="s0" d="m109.9 19.5h-0.4l-0.5-0.1q-0.5-0.1-0.8-0.6v0.9l-12.4 0.9-0.1-1.7 9.4-0.7-0.1-0.5-0.1-0.4-0.1-0.9-0.2-3.2-0.2-0.8q-0.2-1.1-0.9-1.8-0.7-0.7-1.5-0.6-0.8 0-1.3 0.7-0.6 0.7-0.7 1.7l-0.1 0.6v0.7q0 0.6 0.2 1.1 0.4 1.2 1.2 1.6 0.5 0.2 0.9 0.1 0.6 0 1.1-0.6 0.4-0.5 0.5-1.3-0.2 0.5-0.8 0.6-0.4 0-0.8-0.3-0.4-0.4-0.4-0.8 0-0.6 0.3-1 0.2-0.4 0.7-0.4h0.4q0.1-0.1 0.3 0 0.2 0.1 0.5 0.4 0.4 0.4 0.6 1.1v0.5 0.3q-0.1 1-0.7 1.7-1.1 1.2-2.6 1.3-1.7 0.1-3-1.1-1.3-1.3-1.5-3.1 0-0.9 0.1-1.6 0.1-0.8 0.4-1.4 0.6-1.3 1.5-1.9 0.5-0.4 1-0.7 0.5-0.4 1.2-0.7 1.3-0.7 1.7-3.4 0.6 0.7 0.7 1.8v0.1 0.2q0 1.2-0.4 2 0.3 0.1 0.8 0.4 0.3 0.3 0.6 0.6 0-0.7 0.6-1.3 0.5-0.6 1-0.6l2.1 2q-0.4 0.3-0.5 0.8v0.5 0.4l0.3 4.4 0.1 0.5q0 0.2 0 0.4 0.1 0.4 0.4 0.7 0.5 0.9 1.3 0.8l0.2 1.8zm-7.8-17.5q0 0.7-0.5 1.3-0.4 0.6-1.1 0.7-0.7 0-1.2-0.5-0.6-0.5-0.6-1.3-0.1-0.7 0.4-1.3 0.4-0.6 1.1-0.7 0.7 0 1.3 0.5 0.5 0.5 0.6 1.3zm4.3-0.3q0.1 0.4 0 0.7-0.1 0.3-0.4 0.6-0.4 0.6-1.1 0.6-0.7 0.1-1.2-0.4-0.6-0.5-0.6-1.3-0.1-0.8 0.4-1.3 0.4-0.6 1.1-0.7 0.4 0 0.7 0.1 0.3 0.1 0.5 0.4 0.6 0.5 0.6 1.3z"/>
				<path class="s0" d="m121.8 20.2l-12.2-0.7 0.1-1.7 2.2 0.1q-0.4-0.9-0.3-2.3l0.2-5q0-0.3-0.1-0.7-0.1-0.3-0.5-0.5l2.1-2.1q1 0 1.5 1.3 0-0.2 0.6-0.5l0.7-0.5q0.4-0.2 0.7-0.6 0.6-0.8 1-1.7 0.1-0.5 0.1-0.9 0-0.3-0.1-0.7 1.5 1 1.4 2.9 0 0.5-0.1 1.1 1 0.5 1.7 1.6 0.7 1.1 0.6 2.4-0.1 1.9-1.4 3.1-0.3 0.1-0.7 0.3-0.4 0.2-0.9 0.1-0.5 0-0.8-0.1-0.4-0.2-0.7-0.6-0.4-0.5-0.3-1.3v-0.2q0-0.5 0.4-0.8 0.3-0.3 0.8-0.3 0.4 0.1 0.8 0.4 0.3 0.4 0.3 0.9-0.1 0.8-0.7 1.1h0.2q0.3 0.1 0.8-0.3 0.6-0.5 0.7-1.7 0-1.1-0.7-1.9-0.7-0.9-1.7-0.9-1-0.1-1.8 0.7-0.8 0.7-0.8 1.9l-0.2 3.2q0 0.5 0.1 0.9 0 0.4 0.2 0.7 0.3 0.6 0.9 1 0.3 0.2 0.7 0.2l0.7 0.1 0.7 0.1q0.6 0 0.9-0.1 0.8-0.2 1.3-0.9 0.4 1.6 1.6 2.9z"/>
				<path class="s0" d="m146.7 25.6l-1.4-0.4-0.4-0.1-0.3-0.2q-0.3-0.1-0.3-0.2-0.2-0.1-0.4-0.4-0.8-1.1-0.4-2.6l0.5-2.1q0.2-0.7 0.9-1l-0.1-0.1h-0.1q-0.6-0.1-0.9-0.6-0.4-0.5-0.4-1.2h0.3q0.8 0.3 1.3-0.8l0.2-0.4q0.2-1-0.8-1.6-0.1 0-0.2-0.1l-0.2-0.1q-0.7-0.2-1.4 0.3l-0.2 0.2-0.3 0.3q-0.1 0.2-0.2 0.5l-0.3 1.1-1.2 4.3q0 0.2-0.1 0.4 0 0.2 0 0.3-0.1 1 0.5 1.1 0.6 0.2 1.3-0.7v0.8q0 0.3 0.1 0.8 0.2 0.7 0.5 1.5l-8.3-2.3h-0.2-0.1l-0.5-0.2q-0.3-0.1-0.4-0.2-0.3 0-0.6-0.2-0.2-0.1-0.3-0.2-0.1-0.1-0.3-0.2-1.4-1.2-1.6-3.3-0.1-1.1 0.1-2.1 0.3-0.9 0.9-1.8 0.2-0.3 0.4-0.6 0.2-0.2 0.4-0.4 0.4-0.4 1-0.7l0.7-0.4 0.9-0.4q0.6-0.4 1.4-0.9 0.3-0.2 0.6-0.5 0.4-0.3 0.6-0.6 0.6-0.7 0.8-1.6 0.1-0.4 0.2-0.9-0.5 0.2-0.7 0.1-0.4 0-0.6-0.6-0.1-0.3 0-0.7 0.1-0.4 0.6-0.7 0.4-0.1 0.7 0 0.2 0.1 0.2 0.1 0.1 0 0.2 0.1 0.5 0.4 0.5 1 0 0.6-0.1 1.4l-0.1 0.3-0.1 0.3q-0.2 1-0.8 2-0.7 1.2-1.6 1.9 0.4 0.4 0.4 1 0 0.6-0.1 1.2-0.5-0.4-1-0.5-0.8-0.2-1.7 0.2-1.3 0.6-1.6 2l-0.1 0.2v0.3q-0.2 0.8-0.1 1.5 0.2 0.7 0.7 1.3 0.2 0.2 0.4 0.4l0.5 0.3 0.5 0.3 0.6 0.2 2.3 0.6q-0.2-0.3-0.1-0.8l0.1-0.6v-0.5l1.5-5.5q0.1-0.5-0.4-1l2.7-1.8q0.8 0.7 0.9 1.3 1-0.7 2.1-0.8l0.5 0.1h0.4q0.5 0.2 1 0.5 0.8 0.6 1.2 1.6 0.2 0.2 0.2 0.5 0.1 0.2 0.1 0.6 0.1 0.5-0.1 1 0 0.3-0.1 0.6-0.1 0.1-0.2 0.3 0 0.2-0.3 0.6-0.4 0.6-1.1 1l0.3 0.1q0.9 0.2 1.1 1.4-0.8-0.1-1 0.7l-0.3 1.1q-0.2 0.7 0 1.3 0.3 0.7 1 0.8l0.2 0.1-0.5 1.7z"/>
				<path class="s0" d="m159.3 31.4l-0.4-0.2-0.3-0.3q-0.4-0.4-0.5-1l-0.3 0.8-11.4-5 0.7-1.6 8.6 3.8 0.1-0.4 0.1-0.4 0.4-0.9 1.3-2.9 0.3-0.8q0.3-1 0-2-0.3-0.9-1.1-1.3-0.7-0.3-1.5 0-0.8 0.4-1.4 1.2l-0.3 0.5-0.4 0.6q-0.2 0.6-0.3 1.1-0.2 1.2 0.3 1.9 0.3 0.4 0.7 0.6 0.6 0.3 1.3 0 0.3-0.1 0.6-0.3 0.2-0.2 0.5-0.6-0.5 0.3-1 0.1-0.5-0.2-0.6-0.7-0.2-0.4 0.1-0.9 0.1-0.4 0.6-0.7 0.5-0.2 0.9 0 0.3 0.1 0.6 0.3 0.2 0.2 0.3 0.6 0.1 0.6-0.1 1.2l-0.1 0.3-0.1 0.2-0.1 0.3q-0.6 0.9-1.4 1.1-1.5 0.6-3-0.1-1.5-0.7-2.1-2.4-0.5-1.7 0.2-3.4 0.4-0.8 0.8-1.4 0.4-0.6 1-1 1.2-0.8 2.3-1 1.1-0.2 2.6-0.2 1.5 0 3-2.1 0.3 0.9-0.1 1.8l-0.1 0.2-0.1 0.1q-0.6 1.1-1.3 1.6 0.2 0.3 0.5 0.8 0.2 0.3 0.2 0.8 0.4-0.7 1.2-0.9 0.7-0.3 1.1-0.1l1 2.8q-0.5 0.1-0.9 0.5-0.2 0.4-0.4 0.8l-1.8 4q-0.1 0.4-0.3 0.8-0.1 0.4 0 0.8 0 1 0.8 1.4l-0.7 1.6zm3.1-18q-0.3 0.6-0.9 0.9-0.4 0.2-0.7 0.2-0.3 0-0.6-0.2-0.6-0.2-0.8-0.9-0.2-0.7 0.1-1.4 0.3-0.6 0.9-0.9 0.6-0.3 1.3-0.1 0.6 0.3 0.8 1 0.2 0.7-0.1 1.4z"/>
				<path class="s0" d="m173.4 40.6q-0.6-0.4-0.9-0.7-0.3-0.4-0.3-1.1l-0.5 0.7-2.8-1.8-0.5-0.3q-0.2-0.2-0.4-0.4-0.3-0.5-0.3-1.2l-0.4 0.8-2.8-1.9-0.5-0.3-0.2-0.2-0.2-0.2q-0.3-0.5-0.2-1.1l-0.5 0.8-4.2-2.8 1-1.4 1.7 1.1 4.8-7.2q0.4-0.7 1-1 0.7-0.2 1.4 0l0.5 2.9q-0.6-0.1-1.1 0.7l-3 4.5q-0.5 0.8-0.3 1.6 0.1 0.4 0.3 0.7 0.3 0.3 0.7 0.6l4.6-7.1q0.3-0.4 0.6-0.7 0.2-0.2 0.6-0.4 0.6-0.2 1.4 0l0.4 2.9q-0.4 0-0.8 0.5l-3 4.6q-0.3 0.5-0.5 1-0.2 0.5 0 1 0 0.2 0.4 0.6l0.7 0.5 4.6-7q1.1-1.7 2.6-1.2l0.5 3q-0.3 0-0.5 0.1l-0.2 0.1-0.2 0.3-3.2 4.9q-0.8 1.2 0.1 2.2l0.6 0.4-1 1.5zm0.4-17.3q-0.3 0.5-0.9 0.7-0.3 0-0.6 0-0.2 0-0.5-0.2-0.5-0.3-0.6-0.9-0.1-0.6 0.3-1.1 0.3-0.5 0.9-0.7 0.6-0.2 1.1 0.1 0.5 0.4 0.6 1 0.1 0.6-0.3 1.1zm2.9 1.9q-0.3 0.5-0.9 0.6-0.6 0.2-1.1-0.1-0.4-0.3-0.6-0.9-0.1-0.6 0.3-1.2 0.3-0.4 0.9-0.6 0.6-0.2 1.1 0.1 0.5 0.3 0.6 0.9 0.1 0.7-0.3 1.2zm0.3-3.8q-0.3 0.6-0.9 0.7-0.6 0.2-1.1-0.2-0.5-0.3-0.6-0.9-0.1-0.6 0.3-1.1 0.3-0.5 0.9-0.7 0.6-0.1 1.1 0.2 0.5 0.3 0.6 0.9 0.1 0.6-0.3 1.1z"/>
				<path class="s0" d="m177.8 45l-0.2-0.2q-0.2-0.3-0.3-0.8l0.1-0.5 0.1-0.4-0.8 0.9-3.6-3.1 1.2-1.3 1.2 1 6.1-7q0.9-0.8 2.1-0.5l0.1 3.4q-0.4-0.2-0.8 0.3l-3.5 4-0.3 0.4q-0.1 0.1-0.2 0.2-0.1 0.1-0.2 0.3-0.1 0.1-0.2 0.6-0.2 0.9 0.3 1.4l-1.1 1.3zm8.4-12.2q-0.3 0.4-0.9 0.5-0.6 0-1-0.3-0.4-0.4-0.4-1 0-0.2 0-0.4 0.1-0.3 0.4-0.6 0.3-0.4 0.9-0.5 0.6-0.1 1 0.3 0.4 0.4 0.4 0.9 0 0.6-0.4 1.1zm2.3-2.6q-0.4 0.5-1 0.5-0.3 0-0.5 0-0.2-0.1-0.4-0.3-0.4-0.3-0.4-0.9-0.1-0.5 0.3-1 0.5-0.4 1-0.5 0.6-0.1 1 0.3 0.4 0.3 0.4 0.9 0 0.6-0.4 1z"/>
				<path class="s0" d="m188.9 57.1q-0.5-0.5-0.7-0.9-0.2-0.5 0-1.2l-0.7 0.6-2.2-2.5-0.3-0.4q-0.3-0.3-0.3-0.5-0.3-0.5 0-1.1l-0.7 0.5-2.2-2.5-0.4-0.5-0.1-0.1-0.1-0.3q-0.2-0.5 0-1.1l-0.7 0.6-3.2-3.7 1.3-1.2 1.3 1.5 6.5-5.7q0.6-0.5 1.3-0.6 0.7-0.1 1.3 0.3l-0.3 2.9q-0.5-0.3-1.2 0.4l-4.1 3.6q-0.7 0.6-0.7 1.5 0 0.4 0.1 0.7 0.2 0.4 0.5 0.8l6.3-5.6q0.5-0.4 0.8-0.6 0.3-0.1 0.7-0.2 0.6-0.1 1.3 0.4l-0.3 2.9q-0.4-0.2-0.9 0.3l-4.1 3.6q-0.5 0.4-0.8 0.8-0.3 0.4-0.3 1 0 0.2 0.3 0.6l0.5 0.7 6.3-5.5q1.5-1.3 2.8-0.5l-0.3 3q-0.3-0.1-0.5 0l-0.2 0.1-0.3 0.2-4.4 3.9q-1.1 0.9-0.4 2.1l0.4 0.6-1.3 1.1z"/>
				<path class="s0" d="m194.9 67.7l-3.1-5.4q-0.2-0.2-0.3-0.5 0-0.3 0-0.6 0.2-0.7 0.6-1.2l0.2-0.2 0.3-0.2q-0.9 0.2-1.7 0-0.9-0.2-1.5-1.2l-1-1.7 1.5-0.9 0.1 0.1q0.1 0.3 0.3 0.5 0.7 0.5 1.7 0.1 0.2-0.1 0.5-0.2l3.7-2.3q1.2-0.7 2.6-0.6 1.4 0.2 2.5 0.9 1.1 0.8 2.4 0.5l0.5-0.1 0.6-0.3q0.5-0.3 0.9-0.8-0.1 1.1-0.9 2.1l-0.4 0.2-0.4 0.3q-0.6 0.4-1.4 0.5 0.3 1.2-0.3 2.4 0.9-0.4 1.4-0.2 0.5 0.1 1 0.5l-1 3.1q-0.6-0.4-1.2-0.1l-4.7 2.8q-1 0.5-1.6 1.1-0.4 0.3-0.7 0.6-0.3 0.3-0.6 0.8zm-0.2-3.8q0.3-0.6 1-1.1l4-2.3q0.8-0.5 1-1.4 0.2-0.4 0.1-0.8 0-0.4-0.2-0.9-0.5-0.7-1.4-0.9-0.9-0.2-1.7 0.3l-4.1 2.4q0.6-0.2 1.2 0 0.1 0 0.2 0 0.1 0.1 0.3 0.2 0.2 0.2 0.3 0.4 0.2 0.3 0.1 0.8-0.1 0.4-0.5 0.6-0.3 0.2-0.8 0.2-0.4-0.1-0.6-0.5-0.2-0.3-0.1-0.7-0.3 0.3-0.4 0.6v0.2q0 0.1 0.1 0.3c0 0 1.5 2.6 1.5 2.6z"/>
			</g>
			<g>
				<path class="s0" d="m10.8 217.7c0 4.3-1.8 8.7-5.4 8.7-3.6 0-5.3-4.4-5.3-8.8 0-4.4 1.7-8.7 5.3-8.7 3.5 0 5.4 4.4 5.4 8.8zm-8.2-0.1c0 2.7 1 5.4 2.8 5.4 1.8 0 2.8-2.6 2.8-5.3 0-2.6-0.9-5.3-2.8-5.3-1.9 0-2.8 2.6-2.8 5.2z"/>
				<path class="s0" d="m16.4 210.4l0.1 7.3 3-3.6q0.3-0.4 0.8-0.4c0.7 0 1.3 0.8 1.3 1.7 0 0.6-0.2 0.9-0.6 1.3l-1.7 1.9c2.1 5.3 2.4 4.7 2.4 5.9 0 1-0.3 1.7-1.1 1.7-0.5 0-1-0.3-1.2-0.9l-2-4.7c0 0.1-0.9 1-1 1.2v2.7q0 1.7-1.2 1.7-1.2 0-1.1-1.7v-14.1c0-1.1 0.3-1.6 1.1-1.6q1.2 0 1.3 1.6z"/>
				<path class="s0" d="m27.6 210.2v5c0.7-1.3 1.4-1.7 2.3-1.7 1.6 0 3.2 2.2 3.2 6.4 0 3.5-1.8 6.5-3.6 6.5-0.8 0-1.7-0.7-2.1-2v0.7c0 0.9-0.7 1.3-1 1.3q-1.2 0-1.2-1.7v-14.5c0-1.1 0.4-1.7 1.2-1.7q1.2 0 1.2 1.7zm0 9.7c0 1.6 0.5 3.2 1.6 3.2 1.1 0 1.4-1.6 1.4-3.1 0-1.5-0.3-3.4-1.4-3.4-1.1 0-1.6 1.7-1.6 3.3z"/>
				<path class="s0" d="m43.9 218.2v6.5c0 0.8-0.4 1.6-1.2 1.6-0.2 0-0.9-0.2-0.9-1.1v-0.4c-0.8 1-1.7 1.5-2.6 1.5-1.8 0-2.8-1.7-2.8-3.5 0-1.9 1.2-3.9 3.2-3.9 0.8 0 1.7 0.3 2.2 0.9v-1.1c0-1.3-1-2-1.9-2-0.6 0-1.1 0.2-1.7 0.2-0.6 0-1.2-0.2-1.2-1.3 0-0.6 0.3-1.1 0.8-1.4 0.7-0.4 1.5-0.5 2.2-0.5 2 0 3.9 1.2 3.9 4.5zm-5.1 4.2c0 0.7 0.6 1.1 1.2 1.1 0.7 0 1.5-0.4 1.5-1.2 0-0.5-0.7-0.9-1.3-0.9-0.7 0-1.3 0.3-1.3 1z"/>
				<path class="s0" d="m57.1 209.4c1.5 0 3.8 1.3 3.8 4.5 0 1.1-0.8 2.9-1.4 2.9 1.2 0.3 2.3 2.5 2.3 4.3 0 3-1.8 5.1-3.8 5.1h-3.5c-0.4 0-0.8-0.1-1-0.3-0.3-0.3-0.5-0.9-0.5-1.7v-12.8q0-2 1.3-2c0 0 2.8 0 2.8 0zm-1.6 6.6h1.8c0.8 0 1.2-0.7 1.2-1.5 0-0.8-0.4-1.6-1.3-1.6h-1.7zm0 6.7h2.3c1 0 1.5-0.9 1.5-1.8 0-1.1-0.6-2.2-2-2.2h-1.8c0 0 0 4 0 4z"/>
				<path class="s0" d="m67.7 210.6c0 1.1-0.6 1.9-1.4 1.9-0.8 0-1.4-0.8-1.4-1.9 0-1.1 0.6-1.9 1.4-1.9 0.8 0 1.4 0.8 1.4 1.9zm-0.2 4.9v9q0 1.7-1.2 1.7-1.2 0-1.2-1.7v-9q0-1.7 1.2-1.7 1.2 0 1.2 1.7z"/>
				<path class="s0" d="m78.4 217.9v6.6q0 1.7-1.2 1.7-1.2 0-1.2-1.7v-6c0-1.3-0.6-1.9-1.2-1.9-0.6 0-1.2 0.6-1.2 1.9v6q0 1.7-1.2 1.7-1.2 0-1.2-1.7v-9.1c0-0.9 0.4-1.7 1.2-1.7 0.8 0 1.2 0.8 1.2 1.5 0.5-0.9 1.2-1.6 2.2-1.6 1.2 0 2.6 1.1 2.6 4.3z"/>
				<path class="s0" d="m89.8 210.5l4.3 8.8v-8.1q0-1.8 1.3-1.8 1.2 0 1.2 1.8v13.1q0 1.9-1.2 1.9-0.8 0-1.3-1l-4.4-8.8v8q0 1.8-1.2 1.8-1.3 0-1.2-1.8v-13.1c0-1.3 0.4-1.9 1.2-1.9q0.8 0 1.3 1.1z"/>
				<path class="s0" d="m107.5 218.2v6.5c0 0.8-0.4 1.6-1.2 1.6-0.2 0-0.9-0.2-0.9-1.1v-0.4c-0.8 1-1.7 1.5-2.6 1.5-1.8 0-2.8-1.7-2.8-3.5 0-1.9 1.2-3.9 3.2-3.9 0.8 0 1.7 0.3 2.2 0.9v-1.1c0-1.3-1-2-1.9-2-0.6 0-1.1 0.2-1.7 0.2-0.6 0-1.2-0.2-1.2-1.3 0-0.6 0.3-1.1 0.8-1.4 0.7-0.4 1.5-0.5 2.2-0.5 2 0 3.9 1.2 3.9 4.5zm-5 4.2c0 0.7 0.5 1.1 1.1 1.1 0.7 0 1.5-0.4 1.5-1.2 0-0.5-0.7-0.9-1.3-0.9-0.6 0-1.3 0.3-1.3 1z"/>
				<path class="s0" d="m116.5 210.4c0 1-0.7 1.3-1 1.3-0.6 0-0.9 0.7-0.9 1.4v0.7q0 0 0.1 0c0.8 0 1.3 0.4 1.3 1.5 0 1.1-0.4 1.5-1.3 1.5h-0.2v7.7q0 1.7-1.2 1.7-1.2 0-1.2-1.7v-7.7c-0.8 0-1.2-0.4-1.2-1.5 0-1.1 0.4-1.5 1.2-1.5v-1.4c0-2.4 1.6-3.7 3-3.7 0.9 0 1.4 0.6 1.4 1.7z"/>
				<path class="s0" d="m126.8 219c0 1.7-0.8 1.7-2 1.7h-3.5c0 1.9 1.4 2.6 2 2.6 1.2 0 1.7-1.4 2.6-1.4 0.5 0 0.9 0.5 0.9 1.4 0 0.5-0.1 0.7-0.3 1-0.8 1.4-1.9 2.1-3.4 2.1-2.7 0-4.3-3-4.3-6.6 0-3.3 1.5-6.4 4.1-6.4 2.6 0 3.9 2.3 3.9 5.6zm-5.4-0.6h2.9c0-1.4-0.7-2-1.4-2-0.7 0-1.5 0.7-1.5 2z"/>
				<path class="s0" d="m137.7 218.2v6.5c0 0.8-0.4 1.6-1.2 1.6-0.3 0-1-0.2-1-1.1v-0.4c-0.7 1-1.7 1.5-2.5 1.5-1.8 0-2.8-1.7-2.8-3.5 0-1.9 1.1-3.9 3.1-3.9 0.9 0 1.7 0.3 2.3 0.9v-1.1c0-1.3-1.1-2-1.9-2-0.7 0-1.2 0.2-1.8 0.2-0.6 0-1.1-0.2-1.1-1.3 0-0.6 0.3-1.1 0.8-1.4 0.7-0.4 1.4-0.5 2.1-0.5 2 0 4 1.2 4 4.5zm-5.1 4.2c0 0.7 0.6 1.1 1.2 1.1 0.7 0 1.4-0.4 1.4-1.2 0-0.5-0.7-0.9-1.3-0.9-0.6 0-1.3 0.3-1.3 1z"/>
				<path class="s0" d="m156.3 211.1v13.4q0 1.7-1.3 1.7-1.2 0-1.2-1.7v-5.1h-4.5v5.1q0 1.7-1.3 1.7-1.2 0-1.2-1.7v-13.4q0-1.7 1.2-1.7c0.8 0 1.3 0.6 1.3 1.7v4.8h4.5v-4.8q0-1.7 1.2-1.7 1.3 0 1.3 1.7z"/>
				<path class="s0" d="m167.8 219.9c0 3.4-1.4 6.5-4 6.5-2.7 0-4.1-3.2-4.1-6.6 0-3.3 1.4-6.3 4.1-6.3 2.6 0 4 3.2 4 6.4zm-5.6-0.2c0 1.5 0.4 3.6 1.6 3.6 1.1 0 1.5-1.7 1.5-3.2 0-1.6-0.4-3.5-1.5-3.5-1.1 0-1.6 1.6-1.6 3.1z"/>
				<path class="s0" d="m177.3 214.1c0.4 0.3 0.6 0.9 0.6 1.4 0 0.7-0.4 1.4-1.1 1.4-0.8 0-1.4-0.7-2.3-0.7-0.4 0-0.7 0.2-0.7 0.8 0 1.5 4.4 1.9 4.4 5.4 0 2.9-1.9 4-3.5 4-1.2 0-2.2-0.5-3-1.3-0.4-0.3-0.5-0.8-0.5-1.4 0-0.9 0.6-1.4 1.1-1.4 0.9 0 1.4 1.2 2.6 1.2 0.5 0 0.8-0.2 0.8-0.8 0-1.7-4.4-1.8-4.4-5.5 0-2.7 1.6-3.9 3.5-3.9 0.8 0 1.7 0.2 2.5 0.8z"/>
				<path class="s0" d="m189.1 219.9c0 3.5-1.8 6.5-3.6 6.5-0.8 0-1.7-0.7-2.1-1.8v4.7c0 0.9-0.7 1.3-1 1.3q-1.2 0-1.2-1.8v-13.6c0-1.1 0.3-1.7 1.2-1.7q1.2 0 1.2 1.7c0.6-1.3 1.4-1.7 2.3-1.7 1.6 0 3.2 2.2 3.2 6.4zm-5.5 0c0 1.6 0.5 3.2 1.6 3.2 1.1 0 1.4-1.6 1.4-3.1 0-1.5-0.3-3.4-1.4-3.4-1.1 0-1.6 1.7-1.6 3.3z"/>
				<path class="s0" d="m195.2 210.6c0 1.1-0.6 1.9-1.4 1.9-0.8 0-1.4-0.8-1.4-1.9 0-1.1 0.6-1.9 1.4-1.9 0.7 0 1.4 0.8 1.4 1.9zm-0.2 4.9v9q0 1.7-1.2 1.7-1.2 0-1.2-1.7v-9q0-1.7 1.2-1.7c0.8 0 1.2 0.5 1.2 1.7z"/>
				<path class="s0" d="m202 213v0.9h0.7c0.9 0 1.3 0.2 1.3 1.4 0 1.1-0.4 1.4-1.3 1.4h-0.6v5.1c0 0.9 0 1.3 0.3 1.3 0.8 0 1.3 0.5 1.3 1.7 0 1-0.5 1.5-1.3 1.5-2.2 0-2.8-1.7-2.8-4.5v-5.2c-0.6-0.1-1.1-0.4-1.1-1.4 0-0.9 0.5-1.2 1.1-1.3v-0.9q0-1.6 1.2-1.6 1.2 0 1.2 1.6z"/>
				<path class="s0" d="m214.7 218.2v6.5c0 0.8-0.4 1.6-1.2 1.6-0.3 0-1-0.2-1-1.1v-0.4c-0.7 1-1.7 1.5-2.5 1.5-1.8 0-2.8-1.7-2.8-3.5 0-1.9 1.2-3.9 3.1-3.9 0.9 0 1.7 0.3 2.3 0.9v-1.1c0-1.3-1.1-2-1.9-2-0.7 0-1.2 0.2-1.8 0.2-0.6 0-1.1-0.2-1.1-1.3 0-0.6 0.3-1.1 0.8-1.4 0.7-0.4 1.4-0.5 2.1-0.5 2 0 4 1.2 4 4.5zm-5.1 4.2c0 0.7 0.6 1.1 1.2 1.1 0.7 0 1.4-0.4 1.4-1.2 0-0.5-0.6-0.9-1.3-0.9-0.6 0-1.3 0.3-1.3 1z"/>
				<path class="s0" d="m220.3 210.4v14.1q0 1.7-1.2 1.7c-0.8 0-1.2-0.5-1.2-1.7v-14.1q0-1.7 1.2-1.7 1.2 0 1.2 1.7z"/>
			</g>
		</g>
	</g>
</svg>