<?xml version="1.0" encoding="UTF-8"?>
<svg id="Layer_1" xmlns="http://www.w3.org/2000/svg" version="1.1" xmlns:xlink="http://www.w3.org/1999/xlink" viewBox="0 0 106.2 67.3">
  <!-- Generator: Adobe Illustrator 29.4.0, SVG Export Plug-In . SVG Version: 2.1.0 Build 152)  -->
  <defs>
    <style>
      .st0 {
        fill: #585858;
      }

      .st1 {
        fill: #0498aa;
      }

      .st2 {
        fill: #0097a9;
      }

      .st3 {
        fill: #afe8f4;
      }

      .st4 {
        fill: #595959;
      }
    </style>
  </defs>
  <image width="464" height="475" transform="translate(-274.4 -1476.1) scale(2.3)" xlink:href="mg-1.png"/>
  <g>
    <g>
      <path class="st2" d="M9.7,53.9c0,.7-.2,1.4-.5,1.9-.3.6-.8,1-1.3,1.3-.6.3-1.3.5-2.1.5h-2.6v-7.4h2.6c.8,0,1.5.2,2.1.5.6.3,1,.7,1.3,1.3.3.6.5,1.2.5,1.9ZM5.7,56.3c.8,0,1.4-.2,1.8-.6.4-.4.7-1,.7-1.8s-.2-1.3-.7-1.8c-.4-.4-1.1-.6-1.8-.6h-1v4.8h1ZM14.6,57.6l-1.7-2.9h-.6v2.9h-1.5v-7.4h2.8c.9,0,1.5.2,2,.6.4.4.7,1,.7,1.7s-.2,1-.5,1.4c-.3.4-.8.6-1.3.8l1.8,2.9h-1.6ZM12.3,53.7h1.2c.8,0,1.3-.4,1.3-1.1s-.1-.6-.3-.8c-.2-.2-.5-.3-1-.3h-1.2v2.2h0ZM18.4,56.1v1.5h-1.6v-1.5h1.6ZM27.4,50.3v7.3h-1.5v-5.1l-1.9,5.1h-1.3l-1.9-5.1v5.1h-1.5v-7.3h1.8l2.2,5.5,2.2-5.5h1.8ZM32.2,50.1c.7,0,1.3.2,1.9.5.6.3,1,.8,1.3,1.3.3.6.5,1.2.5,1.9s-.2,1.4-.5,2c-.3.6-.8,1-1.3,1.3-.6.3-1.2.5-1.9.5s-1.3-.2-1.9-.5c-.6-.3-1-.8-1.3-1.3-.3-.6-.5-1.2-.5-2s.2-1.4.5-1.9c.3-.6.8-1,1.3-1.3.6-.3,1.2-.5,1.9-.5ZM32.2,51.5c-.4,0-.8,0-1.1.3-.3.2-.6.5-.8.8-.2.4-.3.8-.3,1.3s0,.9.3,1.3c.2.4.4.6.8.8.3.2.7.3,1.1.3s.8,0,1.1-.3c.3-.2.6-.5.8-.8.2-.4.3-.8.3-1.3s0-.9-.3-1.3c-.2-.4-.4-.6-.8-.8-.3-.2-.7-.3-1.1-.3ZM42,55.6c0,.4,0,.7-.3,1-.2.3-.5.6-.8.8-.4.2-.8.3-1.3.3s-1,0-1.4-.3c-.4-.2-.7-.4-1-.8-.2-.3-.4-.7-.4-1.2h1.6c0,.3.2.5.4.7.2.2.5.3.8.3s.5,0,.7-.2c.2-.2.2-.4.2-.6s0-.4-.2-.6c-.1-.1-.3-.3-.5-.4-.2,0-.5-.2-.8-.3-.5-.2-.8-.3-1.1-.5-.3-.1-.5-.4-.7-.7-.2-.3-.3-.7-.3-1.1s.2-1.1.7-1.5c.5-.4,1.1-.5,1.8-.5s1.4.2,1.9.6c.5.4.7.9.8,1.5h-1.6c0-.3-.2-.5-.3-.7-.2-.2-.4-.3-.7-.3s-.5,0-.7.2c-.2.1-.3.4-.3.6s0,.4.2.5c.1.1.3.3.5.4.2,0,.5.2.8.3.5.2.9.3,1.2.5.3.1.5.4.8.7.2.3.3.7.3,1.1h0ZM48.1,50.2v1.2h-2v6.2h-1.5v-6.2h-2v-1.2h5.5ZM53.4,56.1h-3l-.5,1.5h-1.6l2.7-7.3h1.7l2.7,7.3h-1.6l-.5-1.5h0ZM53,55l-1.1-3.1-1.1,3.1h2.2ZM60.9,50.2v1.2h-3.1v2h2.5v1.1h-2.5v3.1h-1.5v-7.4h4.6ZM66.4,56.1h-3l-.5,1.5h-1.6l2.7-7.3h1.7l2.7,7.3h-1.6l-.5-1.5h0ZM66,55l-1.1-3.1-1.1,3.1h2.2ZM74.9,50.2c.9,0,1.6.2,2.2.7s1,1,1.1,1.8h-1.5c-.1-.3-.4-.6-.7-.8-.3-.2-.7-.3-1.1-.3s-.8,0-1.1.3c-.3.2-.6.5-.8.8-.2.4-.3.8-.3,1.3,0,.8.2,1.4.6,1.8.4.4,1,.6,1.7.6s1-.2,1.4-.5c.4-.3.6-.7.7-1.3h-2.5v-1.1h3.7v1.4c-.1.5-.3.9-.6,1.3-.3.4-.7.7-1.2,1-.5.2-1.1.4-1.7.4s-1.4-.2-1.9-.5c-.6-.3-1-.8-1.3-1.3-.3-.6-.5-1.2-.5-1.9s.2-1.4.5-1.9c.3-.6.7-1,1.3-1.3.6-.3,1.2-.5,1.9-.5h0ZM84,56.1h-3l-.5,1.5h-1.6l2.7-7.3h1.7l2.7,7.3h-1.6l-.5-1.5h0ZM83.6,55l-1.1-3.1-1.1,3.1h2.2ZM88.4,56.5h2.5v1.1h-3.9v-7.4h1.5v6.2ZM96.2,56.1h-3l-.5,1.5h-1.6l2.7-7.3h1.7l2.7,7.3h-1.6l-.5-1.5h0ZM95.8,55l-1.1-3.1-1.1,3.1h2.2ZM100.5,56.5h2.5v1.1h-3.9v-7.4h1.5v6.2Z"/>
      <path class="st0" d="M4.5,59.9c.3,0,.5,0,.7.2.2.1.4.3.5.5.1.2.2.5.2.7s0,.5-.2.7c-.1.2-.3.4-.5.5-.2.1-.4.2-.7.2s-.5,0-.7-.2c-.2-.1-.4-.3-.5-.5-.1-.2-.2-.5-.2-.7s0-.5.2-.7c.1-.2.3-.4.5-.5.2-.1.4-.2.7-.2ZM4.5,60.4c-.2,0-.3,0-.5.1-.1,0-.3.2-.3.4,0,.2-.1.3-.1.5s0,.4.1.5c0,.2.2.3.3.4.1,0,.3.1.5.1s.3,0,.5-.1c.1,0,.2-.2.3-.4,0-.2.1-.3.1-.5s0-.4-.1-.5c0-.2-.2-.3-.3-.4-.1,0-.3-.1-.5-.1ZM8.6,62.8l-.7-1.1h-.3v1.1h-.5v-2.8h1c.3,0,.6,0,.7.2.2.2.2.4.2.6s0,.4-.2.5c-.1.1-.3.2-.5.3l.7,1.1h-.5ZM7.6,61.3h.5c.4,0,.6-.2.6-.5s0-.3-.1-.4c0,0-.2-.1-.4-.1h-.5v1ZM11.7,59.9c.3,0,.5,0,.7.2.2.1.4.3.5.5.1.2.2.5.2.7s0,.5-.2.7c-.1.2-.3.4-.5.5-.2.1-.4.2-.7.2s-.5,0-.7-.2c-.2-.1-.4-.3-.5-.5-.1-.2-.2-.5-.2-.7s0-.5.2-.7c.1-.2.3-.4.5-.5.2-.1.4-.2.7-.2ZM11.7,60.4c-.2,0-.3,0-.5.1-.1,0-.3.2-.3.4,0,.2-.1.3-.1.5s0,.4.1.5c0,.2.2.3.3.4.1,0,.3.1.5.1s.3,0,.5-.1.2-.2.3-.4c0-.2.1-.3.1-.5s0-.4-.1-.5c0-.2-.2-.3-.3-.4-.1,0-.3-.1-.5-.1ZM16,60v.4h-1.2v.9h1v.4h-1v1.2h-.5v-2.8h1.7ZM18.9,62.2h-1.2l-.2.6h-.5l1-2.8h.5l1,2.8h-.5l-.2-.6ZM18.7,61.8l-.5-1.3-.5,1.3h.9ZM22,60c.3,0,.6,0,.9.3.2.2.4.4.5.7h-.5c0-.2-.2-.3-.3-.4-.1,0-.3-.1-.5-.1s-.3,0-.4.1c-.1,0-.2.2-.3.4s-.1.3-.1.5,0,.4.1.5.2.3.3.4c.1,0,.3.1.4.1s.4,0,.5-.1c.1-.1.3-.2.3-.4h.5c0,.3-.2.5-.5.7-.2.2-.5.3-.9.3s-.5,0-.7-.2c-.2-.1-.4-.3-.5-.5-.1-.2-.2-.5-.2-.7s0-.5.2-.7c.1-.2.3-.4.5-.5.2-.1.4-.2.7-.2h0ZM25,60v2.8h-.5v-2.8h.5ZM28,62.2h-1.2l-.2.6h-.5l1-2.8h.5l1,2.8h-.5l-.2-.6h0ZM27.9,61.8l-.5-1.3-.5,1.3h.9ZM30.3,62.4h1v.4h-1.4v-2.8h.5v2.5ZM34.6,61.7v1.1h-.5v-2.8h1c.3,0,.6,0,.7.2.2.2.2.4.2.6s0,.5-.3.6c-.2.2-.4.2-.7.2h-.5ZM35.1,61.3c.4,0,.6-.2.6-.5s0-.3-.1-.4c0,0-.2-.1-.4-.1h-.5v1h.5ZM39,62.2h-1.2l-.2.6h-.5l1-2.8h.5l1,2.8h-.5l-.2-.6h0ZM38.9,61.8l-.5-1.3-.5,1.3h.9ZM41.3,60v2.8h-.5v-2.8h.5ZM44.9,62.8h-.5l-1.4-2.1v2.1h-.5v-2.8h.5l1.4,2.1v-2.1h.5v2.8ZM48.1,62c0,.1,0,.3,0,.4,0,.1-.2.2-.3.3-.1,0-.3.1-.5.1s-.4,0-.5-.1c-.2,0-.3-.2-.4-.3,0-.1-.1-.3-.2-.4h.5c0,.1,0,.2.2.3,0,0,.2.1.4.1s.2,0,.3-.1c0,0,.1-.2.1-.3s0-.2,0-.2-.1-.1-.2-.2c0,0-.2,0-.3-.1-.2,0-.3-.1-.4-.2s-.2-.1-.3-.2c0-.1-.1-.2-.1-.4s0-.3.1-.4c0-.1.2-.2.3-.3s.3,0,.5,0c.3,0,.5,0,.7.2.2.1.3.3.3.5h-.5c0-.1,0-.2-.1-.3,0,0-.2-.1-.3-.1s-.2,0-.3,0c0,0-.1.2-.1.3s0,.2,0,.2c0,0,.1.1.2.1,0,0,.2,0,.3.1.2,0,.3.1.4.2.1,0,.2.1.3.2,0,.1.1.3.1.4h0s0,0,0,0ZM52.8,62.2h-1.2l-.2.6h-.5l1-2.8h.5l1,2.8h-.5l-.2-.6h0ZM52.7,61.8l-.5-1.3-.5,1.3h.9ZM56.9,62.8h-.5l-1.4-2.1v2.1h-.5v-2.8h.5l1.4,2.1v-2.1h.5v2.8ZM60.7,61.4c0,.3,0,.5-.2.7-.1.2-.3.4-.5.5-.2.1-.5.2-.8.2h-.9v-2.8h.9c.3,0,.6,0,.8.2.2.1.4.3.5.5.1.2.2.5.2.7h0ZM59.2,62.4c.3,0,.6,0,.8-.3.2-.2.3-.4.3-.7s0-.6-.3-.7c-.2-.2-.4-.3-.8-.3h-.5v2h.5ZM65.5,60v.4h-.8v2.5h-.5v-2.5h-.8v-.4h2ZM69.6,60v2.8h-.5v-2.1l-.8,2.1h-.4l-.8-2.1v2.1h-.5v-2.8h.6l.9,2.2.9-2.2h.6ZM72.4,60v2c0,.3,0,.4-.2.6-.1.1-.3.2-.6.2s-.5,0-.6-.2c-.2-.2-.2-.4-.2-.7h.5c0,.2,0,.3,0,.4,0,0,.2.1.3.1s.2,0,.3-.1c0,0,0-.2,0-.3v-2h.5ZM77.3,62c0,.1,0,.3,0,.4,0,.1-.2.2-.3.3-.1,0-.3.1-.5.1s-.4,0-.5-.1c-.2,0-.3-.2-.4-.3,0-.1-.1-.3-.2-.4h.5c0,.1,0,.2.2.3,0,0,.2.1.4.1s.2,0,.3-.1c0,0,.1-.2.1-.3s0-.2,0-.2-.1-.1-.2-.2c0,0-.2,0-.3-.1-.2,0-.3-.1-.4-.2-.1,0-.2-.1-.3-.2,0-.1-.1-.2-.1-.4s0-.3.1-.4c0-.1.2-.2.3-.3.1,0,.3,0,.5,0,.3,0,.5,0,.7.2.2.1.3.3.3.5h-.5c0-.1,0-.2-.1-.3,0,0-.2-.1-.3-.1s-.2,0-.3,0c0,0-.1.2-.1.3s0,.2,0,.2c0,0,.1.1.2.1,0,0,.2,0,.3.1.2,0,.3.1.4.2.1,0,.2.1.3.2,0,.1.1.3.1.4h0ZM79,61.7v1.1h-.5v-2.8h1c.3,0,.6,0,.7.2.2.2.2.4.2.6s0,.5-.3.6c-.2.2-.4.2-.7.2h-.5ZM79.5,61.3c.4,0,.6-.2.6-.5s0-.3-.1-.4c0,0-.2-.1-.4-.1h-.5v1h.5ZM82.2,60.3v.9h1v.4h-1v.9h1.2v.4h-1.6v-2.8h1.6v.4h-1.2ZM85.8,60c.3,0,.6,0,.9.3.2.2.4.4.5.7h-.5c0-.2-.2-.3-.3-.4-.1,0-.3-.1-.5-.1s-.3,0-.4.1c-.1,0-.2.2-.3.4,0,.2-.1.3-.1.5s0,.4.1.5c0,.2.2.3.3.4.1,0,.3.1.4.1s.4,0,.5-.1c.1,0,.3-.2.3-.4h.5c0,.3-.2.5-.5.7-.2.2-.5.3-.9.3s-.5,0-.7-.2c-.2-.1-.4-.3-.5-.5-.1-.2-.2-.5-.2-.7s0-.5.2-.7c.1-.2.3-.4.5-.5.2-.1.4-.2.7-.2ZM88.9,60v2.8h-.5v-2.8h.5ZM91.9,62.2h-1.2l-.2.6h-.5l1-2.8h.5l1,2.8h-.5l-.2-.6h0ZM91.8,61.8l-.5-1.3-.5,1.3h.9ZM94.2,62.4h1v.4h-1.4v-2.8h.5v2.5h0ZM96.8,60v2.8h-.5v-2.8h.5ZM100,62c0,.1,0,.3,0,.4,0,.1-.2.2-.3.3-.1,0-.3.1-.5.1s-.4,0-.5-.1c-.2,0-.3-.2-.4-.3,0-.1-.1-.3-.2-.4h.5c0,.1,0,.2.2.3,0,0,.2.1.4.1s.2,0,.3-.1c0,0,.1-.2.1-.3s0-.2,0-.2c0,0-.1-.1-.2-.2,0,0-.2,0-.3-.1-.2,0-.3-.1-.4-.2-.1,0-.2-.1-.3-.2,0-.1-.1-.2-.1-.4s0-.3.1-.4c0-.1.2-.2.3-.3.1,0,.3,0,.5,0,.3,0,.5,0,.7.2.2.1.3.3.3.5h-.5c0-.1,0-.2-.1-.3,0,0-.2-.1-.3-.1s-.2,0-.3,0c0,0-.1.2-.1.3s0,.2,0,.2c0,0,.1.1.2.1,0,0,.2,0,.3.1.2,0,.3.1.4.2.1,0,.2.1.3.2,0,.1.1.3.1.4h0ZM103.1,60v.4h-.8v2.5h-.5v-2.5h-.8v-.4h2Z"/>
    </g>
    <g>
      <g>
        <path class="st3" d="M61.9,42.5c-1.8.9-3.3,1.4-5.3,1.7.4,0,.2-.4.4-.5.4-.3,1.7-.3,2.1-.6s.2-.5.4-.6c.8-1,1.5-.2,2.5,0Z"/>
        <path class="st1" d="M53.5,5.1c-4,.2-9.5,2.2-12.1,5.4-1.8,2.1-1.9,4.2-2,6.9,0,.7,0,1.3,0,2-.2,1.4-.8,2.7-1.6,3.9-.5.8-2,2.3-2.1,3.1-.3,1.9,1.4,2.6,3,2.5,0,.9-.8,1.5-.2,2.4.1.2.4.4.5.5,0,.2-.4.7,0,1.4.3.6.8.5,1,.8,0,.9,0,1.8,0,2.6.6,3.1,4.1,2,6.1,1.2,1.2-.5,2.7-1.7,3.5-.1l2.3,6.8c1.5.2,3,0,4.5-.2.4,0,.2-.4.4-.5.4-.3,1.7-.3,2.1-.6,0,0,.2-.5.4-.6.8-1,1.5-.2,2.5,0,.7-.3,1.3-.6,2-1,.2-.1.9-.5.9-.7-.4-2.1-1-4.2-1.2-6.4,0-.7,0-1.4,0-2.1.2-2,.7-4.4,1.7-6.2.8-1.4,1.9-2.6,2.4-4.3,2.6-8.7-5.5-17.1-14.1-16.7ZM40.7,32.1c0,.1,0,.3-.2.1,0-.4-.1-.8,0-1.2,0-.2,0-.1.2-.1,0,.4.1.8,0,1.2ZM41.1,32.6c-.1-.3-.2-.4-.2-.4v-1.5c.2-.3.4.9.4,1,0,.4,0,.2,0,.6.2.4.2.8.5,1.1-.3.2-.5-.6-.6-.8ZM55,35.5c-.3-1.1,2.1-.7,2.5-1.4,0-.1,0-.3.2-.4.8-1.2,1.6.2,2.6.3,0,.2-.2.2-.3.3-.2,0-1.7,0-1.7.1,0,0,0,.2,0,.3-.2.4-.9.7-1.3.8-.4.1-1.8.6-1.9,0ZM55.7,29.8c0,0-.3,0-.3-.1-.1-.4.5-.4.7-.5,1-.4,1.8-.9,2.8-1.4.3.3-.7.9-.9,1.1-.3.2-1.9.9-2.2.9ZM56,30.3c-.1,0-.3,0-.4,0,.5-.6,1.4-.6,2-1,.4.4-1.4.9-1.6.9ZM57.7,30c.3-.3.3-.8.6-1.1.9-.9,1.1.2,1.6.7.2.2.6.4.6.4,0,0,0,.3,0,.3l-1.7-.4c-.2,0-.2.4-.3.6-.3.4-2.7,1.4-3.2,1.3-.4,0-.2-.6,0-.8.3-.3,2-.6,2.5-1ZM57,31.9c-.5.4-1.2.4-1.8.4l2-.7c0,.2,0,.2-.2.3ZM55.2,32.9c.3-.3,1.8-.4,2.2-.7.2-.2.3-.6.5-.9.7-.9,1.2,0,1.9.5.2.1.6,0,.5.4h-1.8c-.3.7-.6,1-1.3,1.2-.4.1-1.6.5-2,.4-.4,0-.3-.7,0-.8ZM57.1,33.7v.3c-.7,0-1.2.4-1.9.3,0-.3,1.8-.7,1.9-.6ZM55.5,36.5c0-.2,0-.2.2-.3.1,0,1.5-.4,1.5-.4.4.3-1.6.7-1.7.7ZM55.4,37c.3-.3,2-.4,2.2-.8,0-.1,0-.4.2-.5.6-1,1.4,0,2,.2.2,0,.5,0,.7.2,0,.3-1.7,0-1.9.5,0,.1,0,.3-.1.4-.4.7-2.3,1.1-3.1,1-.1-.2-.2-.7,0-.9ZM57.6,37.9c0,.1,0,.2,0,.3-.1.1-1.6.5-1.7.4,0-.2,0-.2.2-.3.4-.2,1.1-.2,1.6-.4ZM55.6,39.8c-.3-1,1.6-1,2.1-1.3.4-.2.3-1.1.9-1.2.6-.1,1.3.5,1.9.7.3,0,.6,0,.9.1.1.1,0,.2-.1.2-.4,0-1.8.2-2.1.4-.2.1,0,.4-.2.6,0,.1-.7.4-.8.4-.3.1-1.6.4-1.9.4s-.6-.1-.7-.3ZM58.2,40.1c0,.2-.1.3-.3.3-.5.1-1.2.2-1.7.3,0-.2,0-.2.2-.2.5-.2,1.2-.4,1.8-.4ZM58,42.9c-.2,0-.3.2-.6.2-.2,0-.7-.1-.4-.3.3-.1.5,0,.8-.1.3,0,.6-.4,1-.2,0,.4-.6.3-.8.4ZM60,41c0,.2,0,.6,0,.7-.2.1-.6.3-.9.4-.4.1-2.2.7-2.5.6-.3,0-.6-.9-.4-1.2.3-.5,1.7-.5,2.2-.8.3-.2.5-1,.9-1.1.5,0,2.1.9,2.7.9v.2c-.3.2-1.9-.1-2.1.3ZM64.5,24.5c-1.9,1.1-4.3,2-6.3,3.1-.9.5-2.4,1.8-3.4,1.2-.5-.3,0-1.4,0-1.9,0-.3-.1-.7,0-1,0-.2.3-.4.3-.7,0-.5,0-.9-.4-1.1-.3-.2-.6-.2-.8-.4-.8.3-.3,1.4-1.3,1.4-.5-.5-1.4-1.2-2.2-.7-.6.4-.8,1.9-1.3,2.4-.5.5-1.9.7-2.6.6-.3,0-1.5-.3-1.8-.5-.4-.3-.2-.9-.2-1.3,0-.2,0-.2-.2-.1-.2.9-.3,1.5.6,1.9,1,.3,2,.5,3,.4l.4,1c0,.4-.8.2-1,.2-.2,0-.4.2-.6.3-.2,0-.4-.1-.7,0-.4,0-.6.5-1,.4,0,.2.2.2.3.4,0,.2.2.8,0,1h-.3c.4.4.4.8.4,1.3.6,0,1,0,1.5-.4,0,0,0-.2.2-.2.3-.2,1.3-.5,1.5-.8.7-.8-.2-2.2-.2-3.2.7-.5,1.1-.9,1.4-1.7h.1c.8.5,2,.9,2.6,0,.2-.3.4-.5.6-.8.2-.2.3-1,.6-1.1.3,0,.9.2,1,.5.2.7-.2,1.2-.6,1.7-1.3,2-.9,3.3-1,5.5-.2,3.6-2.9,3-5.4,3.8-.8.3-1.9.9-2.7,1.3-.9.4-1.2.9-2.2.7-1.1-.2-1.4-.9-1.2-1.9,0-.3.3-.5.3-.9,0-.4-.3-.9-.3-1.1,0-.3.8-.1,1-.5-.2-.5-.6-.9-.5-1.4-.7,0,0,.8.1,1.2,0,.4-.3.2-.5,0-.5-.6-.5-1.2-.5-1.9,0-.2,0-.8,0-.9.9-.2.8.9.8,1.5.8-.4.8.5.9,1.1,0,0,.7,0,.8,0s.1-.2.2-.2c-.2,0-.4,0-.5,0-.3,0-1-1.3-.1-1.3.8,0,.8.6.6,1.2.1,0,.5-.1.5-.2,0-.2-.1-.2-.2-.3,0-.2-.3-.8,0-.9.8.1,0-.2,0-.6,0-.3,0-.5,0-.8-.3,0-.6,0-.9.1-.4,0-1,.4-1.5.4-.2,0-.4-.1-.6,0-.2,0-.2.3-.3.3,0,0-.3-.1-.4,0,0,0,0,.4-.3.2-.2-.2,0-1.9,0-2.3,0-.3-.2-.6-.2-.9.6,0,1.2-.6,1.3-1.2.2-1-1.2-1.9-1.7-2.6.4-.7,1.4-2.2,1.4-2.9,0-.4-.5-.8-.7-1.2-.4-.9,0-1.4,0-2.3.3-5.1.5-6.5,5.3-8.9,5.8-2.9,12.2-3.3,17.3,1.1,3.6,3.1,6.5,12,1.5,15ZM47.3,30.2c-.8-1.3,1.4-1.5,1,0-.4-.1-.6,0-1,0ZM48.1,31c-.8.4-1.4.8-1.1-.5.3.2.5,0,.8,0l.2.6ZM45.9,30.7c-.2-.3-.3-.9,0-1.2.5-.5,1.3.4,1,1l-1,.2ZM46.8,31.7c-.2,0-.7.3-1,.2l-.2-.9c.4,0,.6,0,.9-.1.3.2.3.6.2.9ZM42.4,30.3c.8-.3,1.1,1.6.3,1.3-.2,0-.6-1.2-.3-1.3ZM43.4,30.1c.7-.3,1,1,.5,1.2-.5.1-.8-1.1-.5-1.2Z"/>
        <path class="st3" d="M63.1,9.5c-5.1-4.5-11.5-4-17.3-1.1-4.8,2.4-5,3.8-5.3,8.9,0,.9-.4,1.4,0,2.3.2.4.7.8.7,1.2,0,.8-1,2.2-1.4,2.9.6.7,2,1.6,1.7,2.6-.1.5-.7,1.1-1.3,1.2,0,.3.1.6.2.9,0,.4-.2,2.1,0,2.3.2.1.2-.2.3-.2.1,0,.3.1.4,0,0,0,0-.3.3-.3.2,0,.4,0,.6,0,.5,0,1-.3,1.5-.4.3,0,.6,0,.9-.1,0,.3-.1.5,0,.8.1.4.9.8,0,.6-.2.2,0,.7,0,.9,0,.1.3,0,.2.3,0,0-.4.2-.5.2,0,0,0,.1-.2.2s-.8.1-.8,0c0-.5-.1-1.4-.9-1.1,0-.6,0-1.6-.8-1.5-.1,0,0,.7,0,.9,0,.7,0,1.3.5,1.9.2.2.5.4.5,0,0-.4-.8-1.3-.1-1.2,0,.5.3.9.5,1.4-.2.3-1,.1-1,.5,0,.2.3.7.3,1.1,0,.4-.2.6-.3.9-.1,1,.1,1.7,1.2,1.9,1.1.2,1.4-.3,2.2-.7.8-.4,1.9-1,2.7-1.3,2.4-.8,5.2-.2,5.4-3.8.1-2.2-.3-3.6,1-5.5.3-.5.8-1,.6-1.7,0-.3-.7-.6-1-.5-.3,0-.4.8-.6,1.1-.2.3-.3.4-.6.8-.7,1-1.8.6-2.6,0h-.1c-.3.8-.7,1.3-1.4,1.7,0,.9.8,2.3.2,3.2-.2.2-1.2.6-1.5.8-.1,0-.1.2-.2.2-.5.3-.9.3-1.5.4,0-.5,0-.9-.4-1.2h.3c.2-.1,0-.8,0-1-.1-.2-.3-.1-.3-.4.4.1.7-.3,1-.4.3,0,.5,0,.7,0,.2,0,.4-.2.6-.3.3,0,1,.1,1-.2l-.4-1c-1,0-2.1-.1-3-.4-1-.3-.8-1-.6-1.9.2,0,.2,0,.2.1,0,.4-.2,1,.2,1.3.2.2,1.4.5,1.8.5.7,0,2.1-.2,2.6-.6.5-.5.7-2,1.3-2.4.8-.5,1.6.2,2.2.7,1,0,.6-1.1,1.3-1.4.1.3.5.2.8.4.4.3.5.6.4,1.1,0,.3-.3.5-.3.7,0,.2.1.6,0,1,0,.5-.5,1.6,0,1.9,1,.6,2.5-.7,3.4-1.2,2-1.1,4.3-2,6.3-3.1,5.1-3,2.2-11.9-1.5-15ZM42.9,33.2h0c0,0,0,0,0,0ZM43.7,35.6c-.3,0,0-.6.2-.4s0,.5-.2.4ZM50.2,18c.4,0,.5.4,1,.2v.8s-.5.7-.5.7l.2-1.1c0,0-1-.3-.7-.6ZM50.6,19.8h0c0,0,0,0,0,0ZM50.6,19.9c0,.5-.1.9-.5,1.2,0-.3.2-.4.2-.5,0-.2-.1-.7.3-.7ZM48.7,18.6c.1,0,.3,0,.4,0,.3-.1.6-.4,1-.3v.3c-.4-.1-.6.1-.9.3-.1,0-.3,0-.4,0-.3.1-.2.7-.7.5.2-.2.4-.7.6-.8ZM45.5,22.1c0,.6.1,1-.3,1.6-.3.4-.7.6-1.2.4-.9-.3-1.3-3.3-2.1-4,0-.2.2-.4.3-.6.2-.4.4-.9,1-1,.9-.2,2.3.8,2.5,1.6.2.8-.1,1.3-.2,2ZM53.3,22.3c-.7,0-1.7,0-2.3,0-1.2.2-1.7,1.6-3.1,1.3-.5,0-.8-.8-.8-1.3-.1-1.2.6-2.5-.5-3.5.3-.2.5.4.7.5,0,0,.2,0,.3,0,0,0,0,.2,0,.3,0,.2.1.3.2.4,0,.8-.8,3.1.8,3.1,1,0,1.5-.9,2.5-1.1.9-.2,2,0,3,.2,0,.4-.4,0-.5,0ZM55.4,25.1c-.1-.4.6.1.7.1.7.1,1-.4,1-1,0-.2-.3-.6,0-.6,0,.2.2.3.2.3.3,1.2-1,2.3-2,1.1ZM57.7,22.5c-.6,0-1.1-.3-1.8-.2l-1,.6c.7-1.3,2.1-.7,3.2-.6,0,.3-.2.2-.4.2ZM43.6,31.4c-.9,0-.2,1.3.1,1.3.1,0,.3-.1.5,0,.2-.6.2-1.2-.6-1.2Z"/>
        <path class="st3" d="M62.2,40.7c-.4.2-2.1-.1-2.2.3s0,.6,0,.7-.6.3-.9.4c-.4.1-2.3.7-2.5.6-.3,0-.6-.9-.4-1.2.3-.5,1.7-.5,2.2-.8s.5-1,.9-1.1,2.1.9,2.7.9l.2.2Z"/>
        <path class="st3" d="M61.4,38.1c.1.1,0,.2-.1.2-.4,0-1.8.2-2.1.4s0,.4-.2.6-.6.4-.8.4c-.3.1-1.6.4-1.9.4s-.6,0-.7-.3c-.3-1,1.6-1,2.1-1.3s.3-1.1.9-1.2,1.3.5,1.9.7.6,0,.9.1Z"/>
        <path class="st3" d="M55.4,37.9c-.1-.2-.2-.7,0-.9.3-.3,2-.4,2.2-.8s0-.4.2-.6c.6-1,1.4,0,2,.2s.5,0,.7.2c0,.3-1.6,0-1.8.5s0,.3-.1.4c-.4.7-2.3,1.1-3.1,1Z"/>
        <path class="st3" d="M60.5,30s0,.3,0,.3l-1.7-.3c-.2,0-.2.4-.3.6-.3.4-2.7,1.4-3.2,1.3s-.2-.6,0-.8c.3-.4,2-.6,2.5-1,.3-.3.3-.7.6-1.1.9-.9,1.1.2,1.6.7s.6.4.6.4Z"/>
        <path class="st3" d="M60.3,32.1h-1.8c-.3.7-.6,1-1.3,1.2s-1.6.5-2,.4-.3-.7,0-.8c.3-.3,1.8-.4,2.2-.7s.3-.6.5-.9c.7-.9,1.2,0,1.9.5s.6,0,.5.4Z"/>
        <path class="st3" d="M60.3,33.9c0,.2-.2.2-.3.3-.2,0-1.7,0-1.7.1s0,.2,0,.3c-.2.4-.9.7-1.3.8s-1.8.6-1.9,0c-.3-1.1,2.1-.7,2.5-1.4s0-.3.2-.4c.8-1.1,1.6.2,2.6.3Z"/>
        <path class="st3" d="M58.8,27.9c.3.3-.7.9-.9,1.1s-1.9.9-2.2.9-.3,0-.3-.1c-.1-.4.5-.4.7-.4,1-.4,1.8-.9,2.8-1.4Z"/>
        <path class="st3" d="M45.9,29.5c.5-.5,1.3.4,1,1l-.9.2c-.3-.3-.3-.9,0-1.2Z"/>
        <path class="st3" d="M46.8,31.7c-.3,0-.7.3-1,.1l-.2-.9c.4,0,.6-.1.9-.1.3.2.3.6.3.9Z"/>
        <path class="st3" d="M48.2,30.2c-.4-.1-.6,0-1,0-.8-1.3,1.4-1.5,1,0Z"/>
        <path class="st3" d="M42.4,30.3c.8-.3,1.1,1.6.3,1.3s-.6-1.2-.3-1.3Z"/>
        <path class="st3" d="M43.4,30.1c.7-.3,1,1,.5,1.2s-.8-1.1-.5-1.2Z"/>
        <path class="st3" d="M48.1,31c-.8.4-1.4.7-1.1-.5.3.2.5,0,.8,0l.2.6Z"/>
        <path class="st3" d="M40.8,30.7c.2-.3.4.9.4,1,0,.4,0,.2,0,.6s.2.8.5,1.1c-.3.2-.5-.6-.6-.8s-.2-.4-.2-.4v-1.5Z"/>
        <path class="st3" d="M57.6,29.4c.4.4-1.4.9-1.6.9s-.3,0-.4,0c.5-.6,1.4-.6,2-1Z"/>
        <path class="st3" d="M57.6,37.9c0,.1,0,.2,0,.3s-1.6.5-1.7.4c0-.2,0-.2.2-.3.4-.2,1.1-.2,1.6-.4Z"/>
        <path class="st3" d="M58.2,40.1c0,.2-.1.3-.3.3-.4.2-1.2.2-1.7.3,0-.2,0-.2.2-.2.5-.2,1.2-.4,1.8-.4Z"/>
        <path class="st3" d="M57.2,35.8c.3.3-1.6.7-1.7.7,0-.2,0-.2.1-.3s1.5-.4,1.5-.4Z"/>
        <path class="st3" d="M58.8,42.6c0,.4-.5.3-.8.4s-.3.2-.6.2-.7-.1-.4-.3.5,0,.8,0,.6-.4,1-.2Z"/>
        <path class="st3" d="M57.1,33.7v.3c-.7,0-1.2.4-1.9.3,0-.3,1.8-.7,1.9-.6Z"/>
        <path class="st3" d="M57.2,31.6c0,.2,0,.2-.2.3-.5.4-1.2.4-1.8.4l2-.7Z"/>
        <path class="st3" d="M40.6,30.9c0,.4.1.8,0,1.2s0,.3-.2.1c0-.4-.1-.8,0-1.2s0-.1.2-.1Z"/>
        <path class="st1" d="M43.2,18.5c.9-.2,2.3.8,2.5,1.6s-.1,1.3-.2,1.9.1,1-.3,1.6-.7.6-1.2.4c-.9-.3-1.3-3.3-2.1-4,0-.2.2-.4.3-.6.2-.4.4-.9,1-1Z"/>
        <path class="st1" d="M51,22.3c-1.2.2-1.7,1.6-3.1,1.3s-.8-.8-.8-1.3c-.1-1.2.6-2.5-.5-3.6.3-.2.5.4.7.5s.2,0,.3,0c0,0,0,.2,0,.3,0,.2.1.3.2.4,0,.8-.8,3.1.8,3.1s1.5-.9,2.5-1.1,2,0,3,.2c0,.4-.4,0-.5,0-.7,0-1.7,0-2.3,0Z"/>
        <path class="st1" d="M57.2,23.6c0,.2.2.3.2.3.3,1.2-1,2.3-2,1.1-.1-.4.6.1.7.1.7.1,1-.4,1-1s-.3-.6,0-.6Z"/>
        <path class="st1" d="M58.1,22.3c0,.3-.2.2-.4.2-.6,0-1.2-.3-1.8-.2l-1,.6c.7-1.3,2.1-.7,3.2-.6Z"/>
        <path class="st1" d="M51.2,18.2v.8s-.4.7-.4.7l.2-1.1c0,0-1-.3-.7-.6.4,0,.5.4,1,.2Z"/>
        <path class="st1" d="M50.1,18.2v.3c-.4,0-.6.1-.9.3s-.3,0-.4.1c-.3.1-.2.7-.7.5.2-.2.4-.7.6-.8s.3,0,.4,0c.3-.1.6-.4,1-.3Z"/>
        <path class="st1" d="M50.6,19.9c0,.5-.1.9-.5,1.2,0-.3.2-.4.2-.5,0-.2-.1-.7.3-.6Z"/>
        <path class="st1" d="M44,35.2c0,0,0,.5-.2.4-.3,0,0-.6.2-.4Z"/>
        <path class="st1" d="M42.9,33.1c0,0,0,0,0,0h0Z"/>
        <path class="st1" d="M50.6,19.8c0,0,0,0,0,0h0Z"/>
      </g>
      <path class="st4" d="M71.3,32.6c-1.3,2.9-3.4,5.8-6,7.6-.3-1.7-.9-3.3-1.1-5-.3-2.3.2-5.6,1.1-7.8.8-2,2.5-3.6,3-5.6,1.3-5.3-.2-9.8-4.1-13.4-1.3-1.2-5.7-4.3-13.6-3.6-3.1.7-6.1,1.8-8.5,4.1-2.8,2.6-3.2,4.8-3.3,8.5,0,.5,0,1.1,0,1.5-.1,2.1-1.3,3.7-2.5,5.3-.8,1-1.6,1.4-1.4,2.9,0,.8,1.1,2,1.9,2.2.3,0,1,0,1.1.2-.1.6-.3,1.6,0,2.1,0,.1.3.3.4.4,0,.1,0,.5,0,.7,0,.6.3,1.1.8,1.5.2.1.3.1.4.2,0,.7,0,1.5,0,2.2,0,.1,0,.2,0,.2.2,1.1,1.1,2.3,2.3,2.4.5,0,1.2,0,1.7,0,1.7-.1,3.3-1,4.9-1.7.4,0,.7.2.8.5.5,2,1.5,4.1,2,6.1,0,.1,0,.3,0,.4-3.1-.4-6-1.3-8.7-3-12.2-7.7-12.4-25.9-.4-33.7,2.8-1.9,6.1-3,9.5-3.3,0,0,8.9-.4,13.1,3.7h0c7.7,5.4,10.6,15.9,6.7,24.5Z"/>
    </g>
  </g>
</svg>