<svg version="1.2" xmlns="http://www.w3.org/2000/svg" viewBox="0 0 136 130" width="136" height="130">
	<title>68</title>
	<defs>
		<linearGradient id="g1" x2="1" gradientUnits="userSpaceOnUse" gradientTransform="matrix(0,56.1,-106.223,0,59.2,16.6)">
			<stop offset="0" stop-color="#304998"/>
			<stop offset=".5" stop-color="#78bfc6"/>
			<stop offset="1" stop-color="#9fc668"/>
		</linearGradient>
		<linearGradient id="g2" x2="1" gradientUnits="userSpaceOnUse" gradientTransform="matrix(NaN,NaN,NaN,NaN,NaN,NaN)">
			<stop offset="0" stop-color="#304998"/>
			<stop offset=".5" stop-color="#78bfc6"/>
			<stop offset="1" stop-color="#9fc668"/>
		</linearGradient>
		<linearGradient id="g3" x2="1" gradientUnits="userSpaceOnUse" gradientTransform="matrix(0,56.1,-74.994,0,67.6,16.6)">
			<stop offset="0" stop-color="#304998"/>
			<stop offset=".5" stop-color="#78bfc6"/>
			<stop offset="1" stop-color="#9fc668"/>
		</linearGradient>
		<linearGradient id="g4" x2="1" gradientUnits="userSpaceOnUse" gradientTransform="matrix(0,19,-14.529,0,54.8,11.3)">
			<stop offset="0" stop-color="#304998"/>
			<stop offset=".5" stop-color="#78bfc6"/>
			<stop offset="1" stop-color="#9fc668"/>
		</linearGradient>
		<linearGradient id="g5" x2="1" gradientUnits="userSpaceOnUse" gradientTransform="matrix(0,19,-19,0,56.6,11.3)">
			<stop offset="0" stop-color="#304998"/>
			<stop offset=".5" stop-color="#78bfc6"/>
			<stop offset="1" stop-color="#9fc668"/>
		</linearGradient>
	</defs>
	<style>
		.s0 { fill: url(#g1) } 
		.s1 { fill: url(#g2) } 
		.s2 { fill: url(#g3) } 
		.s3 { fill: url(#g4) } 
		.s4 { fill: url(#g5) } 
		.s5 { fill: #36539c } 
		.s6 { fill: #77b552 } 
	</style>
	<g id="Layer_1-2">
		<g>
			<g>
				<g>
					<path class="s0" d="m45.6 28.5c0 0 0 0-0.1 0-0.4 0.3-0.8 0.5-1.2 0.8-0.1 0.1-0.3 0.2-0.4 0.3 0.3 1.2 1 3 2.3 5 0 0 0.1-0.2 0.2-0.2 0 0 0.1-0.1 0.2-0.2 0.1-0.2 0.3-0.3 0.5-0.5 0.5-0.5 1-1 1.5-1.4 0.1-0.1 0.3-0.2 0.4-0.3 1-0.7 2.2-1.3 3.4-1.6 1.4-0.3 2.8-0.4 4.2-0.4h0.2c0 0 0.2 0 0.3 0 1.2 0.1 2.5 0.3 3.7 0.7 0.2 0 0.3 0.1 0.5 0.2h0.2c0 0 0.2 0 0.3 0h0.2c0 0 0.1 0 0.2 0 0.1 0 0.3 0.1 0.4 0.2 0 0 0 0 0.2 0 0 0 0.2 0 0.3 0.1 0.2 0 0.4 0.2 0.6 0.3 0 0 0.1 0 0.2 0 0 0 0 0 0.1 0 2.6 1.4 4.9 3.3 6.8 5.4 0.3 0.3 0.6 0.7 0.9 1 0.6 0.7 1.2 1.4 1.8 2.2l0.2 0.4c0.2 0.3 0.4 0.6 0.5 0.9 0-0.2-0.2-0.4-0.2-0.6 0 0.1 0.2 0.2 0.3 0.4 0-0.2-0.2-0.4-0.3-0.6q-0.3-0.6-0.6-1.2c-0.1-0.3-0.3-0.5-0.4-0.8q-0.3-0.6-0.6-1.2c-0.3-0.6-0.7-1.2-1.1-1.8q-0.3-0.5-0.6-0.9-0.3-0.5-0.6-0.9c-0.2-0.3-0.5-0.6-0.7-0.9-0.2-0.3-0.5-0.6-0.8-0.9 0 0-0.1-0.1-0.2-0.2 0 0-0.2-0.1-0.2-0.2-1.9-2-3.4-3.2-4.2-3.7-0.2-0.1-0.3-0.2-0.5-0.3-1.1-0.7-2.3-1.2-3.6-1.6-4.5-1.2-9.5-0.8-13.6 1.6-0.2 0.1-0.4 0.2-0.5 0.3z"/>
					<path class="s1" d="m74.9 70.1z"/>
					<path class="s2" d="m113.9 58.7c-0.3-1.1-0.7-2.2-1-3.3 0 0 0 0 0-0.1q0.6-0.8 1.2-1.5 0.5-0.6 0.6-1.2c0-0.3 0.1-0.6 0-0.9 0-0.4-0.3-0.6-0.8-0.7-0.2 0-0.3 0-0.5 0-0.5 0.1-0.9 0.4-1.2 0.7-0.6 0.5-1.1 1.1-1.6 1.7-0.9-0.1-1.7-0.2-2.6-0.4-1.3-0.2-2.7-0.4-4-0.6q-0.1 0-0.3 0c-0.2 0.2-0.4 0.5-0.6 0.7-0.1 0.2 0 0.3 0 0.4 0 0 0.1 0 0.2 0l1.6 0.8c1.1 0.5 2.3 1.1 3.4 1.6-0.2 0.3-0.4 0.5-0.6 0.8-0.5 0.7-1.1 1.3-1.6 2 0 0 0 0-0.2 0-0.7 0-1.4 0.1-2.2 0.2h-0.2c-0.1 0.1-0.2 0.3-0.4 0.4-0.1 0.2 0 0.4 0.1 0.4 0.6 0.2 1.1 0.3 1.7 0.5h0.2c0 0 0 0.1 0 0.2 0 0.2 0 0.4 0 0.5 0 0 0 0.1-0.2 0.2-1.7 1.5-3.6 3-5.5 4.2-0.7 0.4-1.3 0.8-2 1.2-6 3.4-12.5 5.3-19.5 5.3-7 0-14.9-1.9-21.4-5.5-2-1.1-4-2.4-5.9-3.8-3-2.4-5.3-5.5-6.9-9-1-1.9-1.7-4.1-2-6.4q-0.2-1.5 0 0c0-0.6-0.1-1.2-0.1-1.9 0-1.6 0.2-3.2 0.6-4.7 0-0.2 0.1-0.4 0.2-0.7 0-0.1 0-0.2 0.1-0.3q0.3 0.6 0.6 1.2c0.7 1.4 1.5 2.7 2.3 4 0.6 0.9 1.2 1.7 1.8 2.5 1.4 1.9 2.9 3.6 4.6 5.2 5.1 5 11.7 8.8 18.7 10.3 2.8 0.6 5.9 0.8 8.8 0.6 3.1-0.3 5.8-1.3 8.3-3.1 2.6-1.8 4.7-4.2 6.3-6.9 2-3.3 2.9-7.1 2.9-11 0-1.2 0-2.3-0.2-3.4 0-0.4-0.1-0.9-0.2-1.3-0.9-6-3.7-11.3-7.7-15.4-0.9-1-1.9-1.9-3-2.8-2-1.6-4.2-2.8-6.7-3.4h-0.2c-3-0.6-5.2 0-5.2 0-0.9 0.2-1.8 0.6-2.6 1.1-1.1 0.7-2 1.5-2.8 2.5-1 1.2-1.8 2.7-2.3 4.3-0.2 0.8-0.4 1.6-0.5 2.4q0 0.3 0 0.6c0.7 0.6 1.4 1.2 2 1.8 0-1.1 0.1-1.9 0.3-2.8 0 0 0-0.1 0-0.2 0 0 0-0.1 0-0.2v-0.1c0-0.1 0-0.2 0.1-0.4 0 0 0 0 0-0.1 0-0.1 0-0.2 0.1-0.3v-0.1c0 0 0-0.1 0-0.2v-0.2c0.2-0.1 0.2-0.2 0.3-0.4 1.1-1.8 2.7-3 4.6-3.5q0.1 0 0.3 0c1.6-0.3 3.1 0 4.6 0.5 1.2 0.5 2.2 1.2 3.2 1.9 2.3 1.8 4.4 4.2 5.9 6.6 0.3 0.4 0.5 0.9 0.8 1.3 0 0 0 0 0 0.1q0.9 1.7 1.5 3.3c0.6 1.6 1 3.2 1.3 4.8 0 0 0 0.1 0 0.2 0 0.2 0 0.3 0 0.5 0 0 0 0.2 0 0.3 0.4 2.9 0.2 5.8-0.9 8.5-0.4 1.1-0.9 2-1.6 3-2.5 3.6-6.6 5.7-10.8 6.2q-2.3 0.3-4.5 0c-2.5-0.3-4.9-1.1-7.2-2.1-0.9-0.4-1.7-0.7-2.5-1.2-1.4-0.7-2.8-1.5-4.2-2.3-2.1-1.3-4-2.8-5.8-4.4-0.6-0.5-1.1-1.1-1.6-1.6-0.7-0.7-1.4-1.5-2-2.2-0.4-0.4-0.7-0.8-1.1-1.3-1-1.1-1.8-2.3-2.7-3.5-0.6-0.9-1.2-1.8-1.7-2.8-1.7-2.6-2.5-4.9-2.9-6.2-0.2-0.5-0.4-1-0.5-1.5-0.2-0.6-0.4-1.1-0.5-1.7 0-0.2-0.1-0.5-0.2-0.8 0.7-0.3 1.4-0.6 2-1 2.8-1.9 4.9-4.7 6-7.9 0.3-1 0.6-2 0.7-3 0-0.2 0-0.5 0.1-0.6 1.1-0.7 1.9-1.8 1.9-3.2 0.1-1.8-0.9-3.4-2.5-4.1-0.4-0.2-0.8-0.3-1.3-0.3-1.1 0-2.2 0.3-3 1-0.4 0.4-0.7 0.8-1 1.3-0.2 0.5-0.4 1-0.4 1.5-0.1 2 1.2 3.8 3.2 4.3 0.3 0-0.7 3-0.8 3.2-0.4 0.9-0.9 1.7-1.5 2.5-1.5 1.8-3.6 3.1-5.9 3.6-4.4 0.9-9.1-1.1-11.3-5.1 0.7-0.7 1.2-1.6 1.3-2.7 0-1.2-0.4-2.3-1.2-3.2-0.4-0.4-0.9-0.7-1.4-0.9-0.4-0.2-0.8-0.2-1.2-0.3-1 0-2 0.3-2.8 0.9-0.9 0.7-1.5 1.7-1.6 2.9-0.2 2.2 1.5 4.2 3.8 4.4 0.2 0 0.3 0 0.5 0 0 0.1 0.2 0.2 0.2 0.3 0.9 1.3 1.7 2.5 3 3.5 3.1 2.5 7.4 4.2 11.4 3.4 0 0.3 0 0.5 0 0.7 0.2 1.2 0.4 2.4 0.7 3.6q0 0.2 0 0.3c0.1 0.6 0.3 1.1 0.4 1.6-0.2 0.3-0.3 0.6-0.5 0.9 0 0.1 0 0.2-0.1 0.3-2.1 4.6-3.2 9.7-2.5 14.8 0.2 1.8 0.7 3.7 1.2 5.4 0.7 2.1 1.6 4.1 2.8 5.9 0.9 1.5 2 3 3.1 4.3 2.1 2.4 4.5 4.4 7.1 6.2 5.6 3.8 12 6.3 18.7 6.9 4.6 0.4 9.4-0.1 13.9-1.4 5.3-1.5 10.2-4.2 14.5-7.7 1-0.8 2-1.7 2.9-2.6 1.1-1.1 2.2-2.2 3.2-3.4 0 0-0.1 0-0.2 0.1 0.3-0.3 0.6-0.6 0.8-1 0 0 0 0 0.1-0.2 0 0.2 0.2 0.3 0.4 0.3q0.3 0 0.6 0c0.3 0.6 0.5 1.2 0.8 1.7 0 0.2 0.3 0.2 0.4 0 0-0.1 0.2-0.2 0.3-0.3 0.1-0.1 0.2-0.3 0.2-0.4 0-0.7 0-1.4-0.1-2.1 0 0 0 0 0-0.1 0.2-0.2 0.3-0.4 0.5-0.5 0.6-0.6 1.1-1.2 1.7-1.8 0 0 0.2-0.2 0.3-0.3 0.5 0.8 1 1.5 1.6 2.3 0.6 0.8 1.1 1.6 1.6 2.4 0.1 0.2 0.3 0.2 0.4 0 0.2-0.2 0.4-0.5 0.6-0.7 0 0 0-0.2 0-0.3q-0.4-1.5-0.9-3z"/>
				</g>
				<g>
					<path class="s3" d="m54.9 12.3v1.5h-0.2v-1.5h-0.5v-0.2h1.3v0.2h-0.5z"/>
					<path class="s4" d="m57.5 13.8h-0.2v-1.2l-0.7 1.1-0.7-1.1v1.2h-0.2v-1.8l0.8 1.4 0.8-1.4v1.8z"/>
				</g>
			</g>
			<g>
				<path class="s5" d="m2.6 101.9c0-1.6 0.3-3.1 0.8-4.4 0.6-1.4 1.3-2.5 2.3-3.5 1-1 2.1-1.8 3.5-2.3 1.4-0.5 2.7-0.8 4.2-0.8 1.5 0 2.9 0.3 4.2 0.8 1.3 0.5 2.3 1.3 3.2 2.2 0.9 0.9 1.6 2 2 3.3 0.5 1.2 0.7 2.5 0.7 3.9 0 1.4 0 1 0 1.4 0 0.4-0.2 0.8-0.3 1.2h-15.8c0.2 0.8 0.4 1.5 0.8 2.2 0.4 0.7 0.8 1.2 1.4 1.7 0.6 0.5 1.2 0.8 1.8 1.1 0.7 0.2 1.4 0.4 2.2 0.4 0.8 0 1.7-0.2 2.6-0.5 0.9-0.3 1.7-0.9 2.4-1.6l3.6 2.3c-0.6 0.7-1.2 1.3-1.9 1.8-0.7 0.5-1.5 0.9-2.2 1.2-0.7 0.3-1.5 0.5-2.3 0.7-0.8 0.2-1.5 0.2-2.2 0.2-1.5 0-3-0.3-4.3-0.8-1.3-0.6-2.5-1.3-3.5-2.3-1-1-1.8-2.2-2.3-3.5-0.5-1.3-0.8-2.8-0.8-4.4zm16.3-1.4c0-0.8-0.2-1.5-0.5-2.2-0.3-0.7-0.6-1.3-1.1-1.8-0.5-0.5-1-0.9-1.7-1.2-0.7-0.3-1.4-0.5-2.2-0.5-0.8 0-1.6 0.1-2.3 0.4q-1.1 0.5-1.8 1.2c-0.5 0.5-1 1.1-1.3 1.8-0.3 0.7-0.6 1.4-0.7 2.2h11.6z"/>
				<path class="s5" d="m33.9 113c-0.9 0-1.8 0-2.6-0.3-0.8-0.2-1.6-0.5-2.3-0.9-0.7-0.4-1.3-0.8-1.8-1.3-0.5-0.5-0.9-1-1.2-1.6l2.3-3c0.3 0.4 0.6 0.8 1.1 1.2q0.6 0.6 1.5 0.9c0.6 0.2 1.1 0.5 1.7 0.6 0.6 0.1 1.2 0.2 1.8 0.2 0.6 0 0.8 0 1.2-0.2 0.4 0 0.8-0.2 1.1-0.4 0.3-0.2 0.6-0.4 0.8-0.7 0.2-0.3 0.3-0.6 0.3-1 0-0.4-0.1-0.8-0.4-1.1-0.3-0.3-0.7-0.6-1.1-0.8-0.4-0.2-1-0.5-1.6-0.7-0.6-0.2-1.2-0.5-1.8-0.7-0.7-0.2-1.4-0.5-2.2-0.9-0.7-0.4-1.4-0.8-1.9-1.3-0.6-0.5-1-1.1-1.4-1.7-0.4-0.6-0.5-1.4-0.5-2.2 0-0.8 0.2-1.9 0.6-2.6 0.4-0.8 1-1.5 1.7-2 0.7-0.5 1.5-1 2.5-1.3 0.9-0.3 1.9-0.4 3-0.4 1.1 0 1.5 0 2.3 0.3 0.7 0.2 1.4 0.4 2.1 0.7 0.6 0.3 1.2 0.7 1.7 1.1 0.5 0.4 0.8 0.9 1.1 1.4l-2.6 2.7c-0.2-0.4-0.6-0.7-0.9-1-0.3-0.3-0.7-0.5-1.1-0.7-0.4-0.2-0.8-0.3-1.3-0.4-0.4 0-0.9-0.1-1.3-0.1-0.4 0-0.8 0-1.2 0.1-0.4 0.1-0.7 0.2-0.9 0.4-0.2 0.2-0.5 0.4-0.6 0.6-0.1 0.2-0.2 0.5-0.2 0.8 0 0.3 0.1 0.7 0.3 1 0.2 0.3 0.5 0.5 1 0.8 0.5 0.3 0.9 0.5 1.5 0.7 0.6 0.2 1.3 0.5 2.1 0.8 0.8 0.3 1.6 0.7 2.4 1 0.8 0.4 1.4 0.8 2 1.3 0.6 0.5 1 1 1.4 1.7 0.4 0.7 0.5 1.4 0.5 2.2 0 0.8-0.2 2-0.7 2.8q-0.8 1.2-1.8 2.1c-0.8 0.6-1.7 1-2.8 1.3-1.1 0.3-2.2 0.5-3.4 0.5z"/>
				<path class="s5" d="m57.8 90.9c1 0 2 0.2 2.9 0.5 0.9 0.3 1.8 0.9 2.5 1.6 0.7 0.8 1.3 1.8 1.7 3.1 0.4 1.3 0.6 3 0.6 5v11.3h-4.9v-11.3c0-1-0.1-1.9-0.3-2.6q-0.3-1-0.9-1.8c-0.4-0.5-0.9-0.8-1.4-1-0.6-0.2-1.2-0.3-1.9-0.3-0.7 0-1.4 0.1-2 0.4-0.6 0.2-1.1 0.6-1.5 1.1-0.4 0.5-0.8 1.1-1 1.8-0.2 0.7-0.4 1.6-0.4 2.5v11.3h-4.9v-28.7h4.9v10.3c0.8-1 1.7-1.8 2.8-2.3 1.1-0.5 2.4-0.8 3.8-0.8z"/>
				<path class="s5" d="m79.6 87.1c-0.6 0-1.1 0.1-1.4 0.3-0.3 0.2-0.7 0.5-0.9 0.8-0.2 0.3-0.4 0.7-0.4 1.1 0 0.4-0.1 0.8-0.1 1.2v0.9h5.2v4.4h-5.2v16.5h-4.9v-16.5h-3.1v-4.4h3.1v-0.9c0-1.1 0.1-2.1 0.4-3 0.2-0.9 0.6-1.7 1.1-2.4 0.5-0.7 1.1-1.2 1.9-1.6q1.2-0.6 2.7-0.6c1 0 1.3 0 2 0.2 0.7 0.1 1.4 0.3 2 0.5v3.9c-0.4-0.1-0.8-0.3-1.2-0.4-0.4 0-0.8-0.1-1.2-0.1z"/>
				<path class="s5" d="m84.1 101.9c0-1.6 0.3-3.1 0.8-4.4 0.5-1.4 1.3-2.5 2.2-3.5 0.9-1 2-1.8 3.3-2.3 1.3-0.6 2.6-0.8 4.1-0.8 1.5 0 2.9 0.3 4.1 0.9 1.2 0.6 2.3 1.5 3.1 2.6l0.2-2.9h4.5v20.9h-4.5l-0.2-2.8c-0.8 1.1-1.8 2-3.1 2.6-1.2 0.6-2.6 0.9-4.1 0.9-1.5 0-2.8-0.3-4.1-0.8-1.3-0.5-2.4-1.3-3.3-2.3-0.9-1-1.7-2.2-2.2-3.5-0.5-1.3-0.8-2.8-0.8-4.4zm4.8 0c0 1 0.2 1.8 0.5 2.6 0.3 0.8 0.8 1.5 1.4 2.1 0.6 0.6 1.3 1 2.1 1.4 0.8 0.3 1.6 0.5 2.6 0.5 1 0 1.6-0.1 2.3-0.4 0.7-0.3 1.4-0.6 1.9-1.2 0.5-0.6 1-1.2 1.3-2.1 0.3-0.9 0.5-1.9 0.5-3 0-1.1-0.2-2.1-0.5-3-0.3-0.9-0.8-1.5-1.4-2-0.6-0.5-1.2-0.9-1.9-1.2-0.7-0.2-1.5-0.4-2.2-0.4-0.7 0-1.7 0.2-2.5 0.5-0.8 0.3-1.5 0.8-2.1 1.4-0.6 0.6-1.1 1.3-1.4 2.1-0.4 0.8-0.5 1.7-0.5 2.7z"/>
				<path class="s5" d="m110.2 101.9c0-1.6 0.3-3.1 0.8-4.4 0.5-1.3 1.3-2.5 2.2-3.5 0.9-1 2-1.8 3.3-2.3 1.3-0.6 2.6-0.8 4.1-0.8 1.5 0 2.9 0.3 4.1 0.9 1.2 0.6 2.3 1.5 3.1 2.6l0.2-2.9h4.5v20.9h-4.5l-0.2-2.8c-0.8 1.1-1.8 2-3.1 2.6-1.2 0.6-2.6 0.9-4.1 0.9-1.5 0-2.8-0.3-4.1-0.8-1.3-0.5-2.4-1.3-3.3-2.3-0.9-1-1.7-2.2-2.2-3.5-0.5-1.3-0.8-2.8-0.8-4.4zm4.9 0c0 1 0.2 1.8 0.5 2.6 0.3 0.8 0.8 1.5 1.4 2.1 0.6 0.6 1.3 1 2.1 1.4 0.8 0.4 1.6 0.5 2.6 0.5 1 0 1.6-0.1 2.3-0.4 0.7-0.3 1.4-0.6 1.9-1.2 0.5-0.6 1-1.2 1.3-2.1 0.3-0.9 0.5-1.9 0.5-3 0-1.1-0.2-2.1-0.5-3-0.3-0.9-0.8-1.5-1.4-2-0.6-0.5-1.2-0.9-1.9-1.2-0.7-0.3-1.5-0.4-2.2-0.4-0.7 0-1.7 0.2-2.5 0.5-0.8 0.3-1.5 0.8-2.1 1.4-0.6 0.6-1.1 1.3-1.4 2.1-0.4 0.8-0.5 1.7-0.5 2.7z"/>
			</g>
			<g>
				<path class="s6" d="m18.6 120.9l-1.7-2.7h0.7l1.3 2.1 1.3-2.1h0.7l-1.7 2.7v2h-0.6z"/>
				<path class="s6" d="m20.9 121c0-1.1 0.9-2 2.1-2 1.2 0 2.1 0.9 2.1 2 0 1.1-0.9 2-2.1 2-1.2 0-2.1-0.9-2.1-2zm2.1 1.5c0.8 0 1.4-0.6 1.4-1.4 0-0.8-0.6-1.4-1.4-1.4-0.8 0-1.4 0.7-1.4 1.4 0 0.7 0.6 1.4 1.4 1.4z"/>
				<path class="s6" d="m26.1 121.4v-2.2h0.6v2.2c0 0.7 0.5 1.1 1 1.1 0.5 0 1-0.4 1-1.1v-2.2h0.6v2.2c0 1-0.7 1.7-1.6 1.7-0.9 0-1.6-0.7-1.6-1.7z"/>
				<path class="s6" d="m30.6 119.1h0.6v0.8c0.3-0.7 1-0.9 1.6-0.9v0.6c-0.4 0-1.5 0-1.5 1.6v1.7h-0.6v-3.8z"/>
				<path class="s6" d="m35 118.2h0.6v2.1h2.4v-2.1h0.6v4.8h-0.6v-2.1h-2.3v2.1h-0.6c0 0 0-4.8 0-4.7z"/>
				<path class="s6" d="m39.7 121c0-1.2 0.9-2 1.9-2 1 0 1.8 0.8 1.8 1.9 0 1.1 0 0.3 0 0.4h-3.1c0.1 0.8 0.7 1.3 1.3 1.3 0.6 0 0.8-0.2 1.1-0.4l0.4 0.3c-0.4 0.4-1 0.7-1.5 0.7-1.1 0-2-0.9-2-2zm3.2-0.1c0-0.7-0.4-1.3-1.2-1.3-0.8 0-1.3 0.5-1.3 1.3h2.6z"/>
				<path class="s6" d="m44.2 121.1c0-1.2 0.9-2 1.9-2 1 0 1.1 0.3 1.4 0.7v-0.6h0.6v3.8h-0.6v-0.6c-0.3 0.5-0.8 0.7-1.4 0.7-1 0-1.9-0.8-1.9-2zm2.1 1.4c0.6 0 1.3-0.3 1.3-1.4 0-1.1-0.6-1.4-1.3-1.4-0.7 0-1.4 0.6-1.4 1.4 0 0.8 0.7 1.4 1.4 1.4z"/>
				<path class="s6" d="m49.5 118.1h0.6v4.9h-0.6z"/>
				<path class="s6" d="m51.4 122v-2.3h-0.5v-0.5c0.4 0 0.6-0.2 0.6-0.8h0.4v0.7h1v0.5h-1v2.3c0 0.4 0.2 0.7 0.6 0.7 0.4 0 0.3 0 0.4 0v0.5q-0.3 0-0.6 0c-0.6 0-1-0.5-1-1.1z"/>
				<path class="s6" d="m54 118.2h0.6v1.5c0.3-0.5 0.7-0.7 1.3-0.7 0.8 0 1.4 0.5 1.4 1.9v2.1h-0.6v-2.1c0-0.9-0.4-1.3-1-1.3-0.6 0-1.1 0.4-1.1 1.3v2.1h-0.6z"/>
				<path class="s6" d="m58.3 121c0-1.2 1-2 2-2 1 0 1 0.2 1.3 0.4l-0.3 0.5c-0.2-0.2-0.6-0.3-1-0.3-0.7 0-1.4 0.6-1.4 1.5 0 0.9 0.7 1.5 1.4 1.5 0.7 0 0.8-0.2 1-0.4l0.3 0.4c-0.4 0.3-0.9 0.5-1.4 0.5-1 0-2-0.8-2-2z"/>
				<path class="s6" d="m62.4 121.1c0-1.2 0.9-2 1.9-2 1 0 1.1 0.3 1.4 0.7v-0.6h0.6v3.8h-0.6v-0.6c-0.3 0.5-0.8 0.7-1.4 0.7-1 0-1.9-0.8-1.9-2zm2 1.4c0.6 0 1.3-0.3 1.3-1.4 0-1.1-0.6-1.4-1.3-1.4-0.7 0-1.4 0.6-1.4 1.4 0 0.8 0.7 1.4 1.4 1.4z"/>
				<path class="s6" d="m67.6 119.1h0.6v0.8c0.4-0.7 1-0.9 1.6-0.9v0.6c-0.4 0-1.5 0-1.5 1.6v1.7h-0.6v-3.8z"/>
				<path class="s6" d="m70.2 121c0-1.2 0.9-2 1.9-2 1 0 1.8 0.8 1.8 1.9 0 1.1 0 0.3 0 0.4h-3.1c0.1 0.8 0.7 1.3 1.3 1.3 0.6 0 0.8-0.2 1.1-0.4l0.4 0.3c-0.4 0.4-1 0.7-1.5 0.7-1.1 0-2-0.9-2-2zm3.2-0.1c0-0.7-0.4-1.3-1.2-1.3-0.8 0-1.3 0.5-1.3 1.3h2.6z"/>
				<path class="s6" d="m76.2 120.6c0-1.4 1.1-2.5 2.5-2.5 1.4 0 1.3 0.3 1.7 0.7l-0.4 0.5c-0.3-0.3-0.8-0.6-1.4-0.6-1 0-1.9 0.8-1.9 1.9 0 1.1 0.9 1.9 1.9 1.9 1 0 1-0.2 1.4-0.6l0.4 0.5c-0.4 0.4-1 0.7-1.7 0.7-1.3 0-2.5-1-2.5-2.5z"/>
				<path class="s6" d="m81.2 121c0-1.1 0.9-2 2.1-2 1.2 0 2.1 0.9 2.1 2 0 1.1-0.9 2-2.1 2-1.2 0-2.1-0.9-2.1-2zm2.1 1.5c0.8 0 1.4-0.6 1.4-1.4 0-0.8-0.6-1.4-1.4-1.4-0.8 0-1.4 0.7-1.4 1.4 0 0.7 0.6 1.4 1.4 1.4z"/>
				<path class="s6" d="m86.4 119.1h0.6v0.6c0.2-0.4 0.6-0.7 1.2-0.7 0.6 0 1 0.2 1.2 0.9 0.2-0.6 0.7-0.9 1.3-0.9 0.6 0 1.3 0.5 1.3 1.9v2h-0.6v-2c0-1-0.4-1.3-0.9-1.3-0.5 0-1 0.4-1 1.2v2.1h-0.6v-2.1c0-0.9-0.4-1.2-0.9-1.2-0.5 0-1 0.4-1 1.3v2h-0.6z"/>
				<path class="s6" d="m93.2 119.1h0.6v0.6c0.3-0.5 0.8-0.7 1.4-0.7 1 0 1.9 0.8 1.9 2 0 1.2-0.9 2-1.9 2-1 0-1.1-0.3-1.4-0.7v1.6h-0.6zm2 3.4c0.7 0 1.4-0.6 1.4-1.5 0-0.9-0.7-1.4-1.4-1.4-0.7 0-1.3 0.4-1.3 1.4 0 1 0.7 1.5 1.3 1.5z"/>
				<path class="s6" d="m98 121.1c0-1.2 0.9-2 1.9-2 1 0 1.1 0.3 1.4 0.7v-0.6h0.6v3.8h-0.6v-0.6c-0.3 0.5-0.8 0.7-1.4 0.7-1 0-1.9-0.8-1.9-2zm2 1.4c0.6 0 1.3-0.3 1.3-1.4 0-1.1-0.6-1.4-1.3-1.4-0.7 0-1.4 0.6-1.4 1.4 0 0.8 0.7 1.4 1.4 1.4z"/>
				<path class="s6" d="m103.2 119.1h0.6v0.6c0.3-0.5 0.7-0.7 1.3-0.7 0.6 0 1.4 0.5 1.4 1.9v2.1h-0.6v-2.1c0-0.9-0.4-1.3-1-1.3-0.6 0-1.1 0.4-1.1 1.3v2.1h-0.6v-3.8z"/>
				<path class="s6" d="m108.2 117.9c0.2 0 0.4 0.2 0.4 0.4 0 0.2-0.2 0.4-0.4 0.4-0.2 0-0.4-0.2-0.4-0.4 0-0.2 0.2-0.4 0.4-0.4zm-0.3 1.2h0.6v3.8h-0.6z"/>
				<path class="s6" d="m109.7 121c0-1.1 0.9-2 2.1-2 1.2 0 2.1 0.9 2.1 2 0 1.1-0.9 2-2.1 2-1.2 0-2.1-0.9-2.1-2zm2.1 1.5c0.8 0 1.4-0.6 1.4-1.4 0-0.8-0.6-1.4-1.4-1.4-0.8 0-1.4 0.7-1.4 1.4 0 0.7 0.6 1.4 1.4 1.4z"/>
				<path class="s6" d="m114.9 119.1h0.6v0.6c0.3-0.5 0.7-0.7 1.3-0.7 0.6 0 1.4 0.5 1.4 1.9v2.1h-0.6v-2.1c0-0.9-0.4-1.3-1-1.3-0.6 0-1.1 0.4-1.1 1.3v2.1h-0.6v-3.8z"/>
			</g>
		</g>
	</g>
</svg>