<svg version="1.2" xmlns="http://www.w3.org/2000/svg" viewBox="0 0 89 78" width="89" height="78">
	<title>75</title>
	<defs>
		<linearGradient id="g1" x2="1" gradientUnits="userSpaceOnUse" gradientTransform="matrix(-39.3,71.15,-85.746,-47.362,63.1,-6.69)">
			<stop offset="0" stop-color="#b75b9b"/>
			<stop offset=".33" stop-color="#b75b9b"/>
			<stop offset=".54" stop-color="#8b3781"/>
			<stop offset=".79" stop-color="#3c1b47"/>
			<stop offset="1" stop-color="#3c1b47"/>
		</linearGradient>
	</defs>
	<style>
		.s0 { fill: url(#g1) } 
		.s1 { fill: #f38041 } 
		.s2 { fill: #f0b598 } 
		.s3 { fill: none;stroke: #f38041;stroke-miterlimit:10 } 
		.s4 { fill: #4e1a54 } 
	</style>
	<g id="Layer_1-2">
		<g>
			<g>
				<path class="s0" d="m70.8 38.9c-1.9 3.2-5.2 5.5-8.8 6.9-5.9 2.3-12.6 2.8-18.8 2.4-5.8-0.4-11.5-2.1-16.3-5.3-9.4-6.2-13.2-17.4-8.6-27.8 2.6-5.8 7.2-10.6 12.9-13.1q2.6-1.1 5.3-1.6 2.3-0.4 4.5-0.4c11.6 0 21.9 8.2 27.6 18.1 1.9 3.2 3.4 6.6 3.9 10.2q0.2 0.9 0.2 1.8c0.2 3-0.4 6.1-1.9 8.8z"/>
				<path class="s1" d="m22.2 32.6q-0.7-1.3-1.2-2.6-0.5-1.4-0.8-2.9c-0.4-1.9-0.4-3.9-0.1-5.9q0.2-1.4 0.7-2.9 0.4-1.4 1.1-2.7l0.1-0.2v-0.2l0.2-0.3q0.2-0.3 0.4-0.6l0.3-0.7 0.4-0.6q0.1-0.2 0.2-0.3l0.2-0.3 0.2-0.3q0.1-0.2 0.3-0.3l0.4-0.6q0.1-0.2 0.3-0.3l0.2-0.3 0.2-0.3q0.2-0.1 0.3-0.2 0.2-0.3 0.5-0.6 0.5-0.5 1.1-1c0.3-0.3 0.7-0.6 1.1-1q0.3-0.2 0.6-0.4 0.2-0.1 0.3-0.2l0.3-0.2 0.3-0.2q0.2-0.1 0.3-0.2l0.7-0.4q0.1-0.1 0.3-0.2l0.3-0.2 0.4-0.2 0.3-0.1q1.4-0.7 2.8-1.1 1.4-0.5 2.9-0.7 1.5-0.2 3-0.3 1.5 0 2.9 0.2 1.5 0.2 3 0.5 2.9 0.8 5.5 2.2 1.3 0.7 2.6 1.5 1.2 0.8 2.4 1.8 0.3 0.2 0.5 0.4l0.6 0.5q0.5 0.5 1.1 1 0.5 0.5 1 1.1 0.5 0.5 1 1.1 0.5 0.5 1 1.1c0.3 0.4 0.6 0.8 0.9 1.2q0.4 0.5 0.9 1.2 0.4 0.6 0.8 1.2 0.8 1.2 1.4 2.6 0.7 1.3 1.3 2.6c0.8 1.9 1.3 3.8 1.5 5.7q0.2 1.5 0 3 0 0.7-0.2 1.5-0.1 0.3-0.1 0.7-0.2 0.3-0.3 0.7-0.2 0.7-0.5 1.3l-0.2 0.4q-0.1 0.1-0.2 0.3-0.2 0.3-0.4 0.6-0.8 1.2-2 2.2 1.1-1 1.9-2.3 0.2-0.3 0.4-0.6 0.1-0.1 0.2-0.3l0.1-0.3q0.3-0.7 0.5-1.4c0.6-1.9 0.7-3.8 0.5-5.7-0.3-2-0.9-3.8-1.7-5.6q-1.1-2.7-2.7-5.1-0.4-0.6-0.8-1.2-0.5-0.6-0.9-1.2-0.5-0.6-0.9-1.1-0.5-0.6-1-1.1-0.4-0.6-0.9-1.1-0.6-0.5-1.1-1-0.5-0.5-1-1l-0.6-0.5q-0.3-0.2-0.6-0.4-1.1-0.9-2.3-1.7-1.2-0.8-2.5-1.5-2.6-1.3-5.4-2.1-1.4-0.3-2.8-0.5-1.4-0.2-2.9-0.2c-1.9 0.1-3.8 0.4-5.6 0.9q-1.4 0.4-2.7 1.1l-0.3 0.1-0.4 0.2-0.3 0.1q-0.1 0.1-0.3 0.2l-0.6 0.4q-0.2 0.1-0.3 0.2l-0.3 0.2-0.3 0.2q-0.2 0.1-0.3 0.2-0.3 0.2-0.6 0.4-0.6 0.5-1.1 0.9-0.6 0.5-1.1 1-0.2 0.3-0.5 0.5-0.1 0.2-0.2 0.3l-0.3 0.3-0.2 0.2q-0.1 0.2-0.2 0.3l-0.5 0.6q-0.1 0.1-0.2 0.3l-0.2 0.3-0.2 0.3q-0.1 0.1-0.2 0.3l-0.4 0.6-0.4 0.6q-0.2 0.3-0.3 0.6l-0.2 0.3-0.1 0.2-0.1 0.1q-0.6 1.3-1.1 2.7-0.5 1.4-0.7 2.8c-0.3 1.9-0.4 3.9-0.1 5.8 0.3 1.9 0.9 3.8 1.8 5.6z"/>
				<path class="s1" d="m24.4 22.9q-0.2-0.8-0.2-1.6 0-0.2 0-0.4 0-0.2 0.1-0.4v-0.4-0.4q0.1-0.8 0.4-1.6v-0.2q0.1-0.1 0.1-0.2 0.1-0.2 0.1-0.4 0.2-0.4 0.3-0.8 0.2-0.3 0.4-0.7 0.1-0.2 0.2-0.4 0.1-0.2 0.2-0.3l0.2-0.4q0.1-0.1 0.2-0.3l0.1-0.2q0.1-0.1 0.1-0.1l0.3-0.4q0.2-0.3 0.5-0.6l0.3-0.3q0.1-0.2 0.3-0.3 0.2-0.3 0.6-0.6l0.3-0.3q0.1-0.1 0.3-0.2 1.2-1.1 2.7-1.8 0.4-0.2 0.7-0.4l0.4-0.1 0.4-0.2q0.4-0.1 0.8-0.2 0.2-0.1 0.4-0.1l0.4-0.1q0.4-0.1 0.8-0.2 0.4-0.1 0.8-0.1 0.8-0.1 1.6-0.1 1.6 0 3.2 0.5-1.6-0.3-3.2-0.2-1.6 0.1-3.1 0.5-1.5 0.5-2.9 1.2-1.4 0.7-2.7 1.7-1.2 1-2.2 2.3-1 1.2-1.7 2.6-0.1 0.4-0.3 0.8l-0.1 0.3-0.1 0.2-0.1 0.2q-0.2 0.7-0.4 1.5-0.1 0.8-0.2 1.6v0.4q0 0.2 0 0.4-0.1 0.4 0 0.8z"/>
				<path class="s1" d="m28 21.4q-0.1-0.6-0.1-1.1 0-0.2 0-0.3 0-0.1 0-0.3v-0.2l0.1-0.3q0.1-1.1 0.6-2.2 0.4-1 1.1-1.9 0.7-0.9 1.5-1.6c1.2-0.9 2.5-1.6 4-1.9q0.2-0.1 0.5-0.2 0.3 0 0.6 0 0.5-0.1 1.1-0.1 1.1 0.1 2.1 0.4-1.1-0.1-2.1-0.1-0.6 0.1-1.1 0.2-0.3 0-0.5 0.1-0.3 0-0.5 0.1c-1.4 0.4-2.6 1.1-3.7 2-1.1 0.9-2 2-2.6 3.3q-0.1 0.2-0.3 0.4l-0.1 0.3v0.1 0.1q-0.2 0.5-0.3 1-0.2 0.6-0.2 1.1v0.3q0 0.1-0.1 0.2 0 0.3 0 0.6z"/>
				<path class="s2" d="m58.5 19.1c-1.4-0.8-5.7-3.2-9.5 1.4-0.8 1-1.2 2-1.4 2.9q-1-0.4-1.9-0.5c0.9-1.1 1.6-2.8 1-4.9-0.5 0.1-1 0-1.4-0.2q0 0 0 0c1.2 2.8-0.8 4.7-1.4 5.2q-0.6 0.1-1 0.2 0.2-0.9 0-1.8c-0.2-0.7-0.8-1.6-2.6-2.3-0.8-0.3-1.5-0.3-2.2-0.3q0.1-0.3 0.1-0.6c0-0.8-0.4-1.5-1-1.7q-1.5-0.7-3.9 1.2-2 1.6-1.8 3.4c0.2 1.8 2.3 3 2.9 3.3-1.5 1.6-2.2 3.6-1.7 5.7 0.4 1.8 2 3.6 4.5 5 2.3 1.3 5.4 2.1 9 2.1 6.4-0.1 8-3 8.8-4.4q0.1-0.3 0.2-0.5c0.1 0 0.5-0.1 0.8-0.2 1.1-0.3 3.1-0.7 4.8-3.7 2.3-4.2 0.5-7.8-2.3-9.3zm1.2 8.7c-1.4 2.5-2.9 2.8-4 3.1-0.6 0.1-1.1 0.2-1.5 0.7q-0.1 0.2-0.4 0.6c-0.6 1.3-1.9 3.7-7.7 3.7-6.4 0.1-11.5-3.1-12.2-6.1-0.3-1.5 0-3.5 2-5.1q0 0 0 0 0.6-0.5 1.4-1c0.4-0.1 0.5-0.5 0.3-0.8-0.1-0.3-0.5-0.4-0.8-0.3q-0.8 0.4-1.4 0.9l-0.4-0.2c-0.6-0.3-2.1-1.2-2.3-2.4q-0.1-1 1.4-2.2c1.3-1.1 2.2-1.3 2.5-1.1 0.3 0.1 0.3 0.5 0.3 0.6 0 0.5-0.2 0.8-0.3 0.9q-0.1 0-0.1 0.1c-0.5 0.2-0.8 0.4-0.8 0.4-0.3 0.1-0.5 0.5-0.3 0.8 0.3 0.6 0.5 0.5 1.6-0.1 0.6-0.2 1.6-0.4 2.9 0 0.7 0.3 1.6 0.7 1.8 1.5q0.3 1-0.7 2.3 0 0 0 0.1-0.1 0.1-0.2 0.2 0 0 0 0.1-0.2 0.2-0.4 0.5c-0.9 1.4-2 2-2.1 2-0.3 0.1-0.4 0.5-0.2 0.8q0.1 0.2 0.2 0.3c0.2 0.1 0.4 0.1 0.6 0 0.1 0 0.7-0.4 1.4-1q0 0.1 0.1 0.2c0.5 1.3 1.8 2.6 3.7 3.6 1.2 0.7 2.6 1.3 4.1 1.6 0.3 0 0.7-0.2 0.7-0.5 0.1-0.3-0.1-0.7-0.4-0.7-3.3-0.7-6.3-2.6-6.9-4.5q-0.3-0.6 0-1.2 0.1-0.2 0.2-0.4 0.1-0.1 0.2-0.2c0.4-0.3 2.8-1.5 5.5-0.3q0 0.9 0.3 1.6c-1.1-0.2-2.3-0.2-2.4-0.2-0.4 0-0.7 0.3-0.6 0.7 0 0.3 0.3 0.6 0.6 0.6 1.1-0.1 2.8 0.1 3.3 0.6 0.3 0.3 0.7 0.3 0.9 0 0.3-0.2 0.3-0.6 0-0.8 0-0.1-1-1.1-0.9-2.8q0 0 0-0.1c0.1-0.9 0.4-1.9 1.3-3 2.8-3.3 5.6-2.4 8-1.1 2.2 1.2 3.6 4.1 1.7 7.6z"/>
				<path class="s2" d="m56.6 25.9c-0.3-0.2-0.7-0.2-0.9 0.1 0 0-0.4 0.4-1 0.2-0.3-0.2-0.7-0.1-0.9 0.2-0.1 0.3 0 0.7 0.3 0.9q0 0 0 0c1.2 0.5 2.1-0.1 2.5-0.5 0.2-0.2 0.2-0.6-0.1-0.9z"/>
				<path class="s1" d="m61.6 37.9q0.8 1.6 1.7 3.2-0.4 0.3-0.7 0.4c-0.1 0.1-0.3 0-0.4 0q-0.7-0.4-1.5-0.9-0.4-0.2-0.7-0.4c-0.1-0.1-0.2-0.1-0.3-0.1 0.3 0.8 0.7 1.6 1 2.4q-0.2 0.1-0.5 0.3c-0.2 0-0.2 0-0.3-0.2q-0.3-0.7-0.6-1.4-0.2-0.7-0.5-1.4c-0.1-0.1-0.1-0.2-0.1-0.3 0.2-0.1 0.4-0.3 0.6-0.3 0.1-0.1 0.2 0 0.3 0 0.3 0.2 0.6 0.4 1 0.6q0.7 0.4 1.3 0.8c0.1 0 0.1 0 0.2 0q-0.6-1.2-1.1-2.3 0.3-0.2 0.6-0.4z"/>
				<path class="s1" d="m36.2 39.9c0.9 0.3 1.8 0.6 2.7 1-0.1 0.2-0.1 0.3-0.2 0.5-0.7-0.2-1.3-0.4-2-0.6-0.1 0.2-0.2 0.5-0.3 0.7 0.6 0.3 1.3 0.5 1.9 0.7q-0.1 0.3-0.1 0.6c-0.7-0.2-1.3-0.5-1.9-0.7-0.2 0.3-0.3 0.6-0.4 0.9q0.1 0.1 0.3 0.2 0.8 0.3 1.7 0.6c0 0 0.2 0.1 0.2 0.1q-0.1 0.3-0.2 0.5c0 0-0.1 0-0.2-0.1q-0.9-0.3-1.8-0.6-0.4-0.1-0.7-0.3-0.2 0-0.3-0.1 0.6-1.7 1.3-3.4z"/>
				<path class="s1" d="m43 44.4q0.3 0 0.6 0c0 0 0.1 0.1 0.1 0.2 0.1 0.3 0.3 0.4 0.6 0.5q0.4 0.1 0.9 0c0.2-0.1 0.3-0.2 0.3-0.4 0.1-0.2-0.1-0.3-0.3-0.4q-0.3-0.1-0.7-0.2-0.4-0.2-0.8-0.3c-0.6-0.3-0.7-1.2-0.1-1.7 0.6-0.4 1.8-0.3 2.3 0.2q0.3 0.2 0.4 0.6-0.1 0-0.1 0.1-0.3 0-0.7 0c-0.1-0.4-0.5-0.6-0.9-0.6q-0.2 0-0.4 0.1-0.2 0.1-0.3 0.4c0 0.2 0.1 0.3 0.3 0.3q0.5 0.2 1 0.4 0.3 0.1 0.6 0.2c0.7 0.3 0.6 1.3 0.2 1.6q-0.3 0.2-0.5 0.3-1 0.2-1.8-0.2c-0.5-0.2-0.7-0.5-0.8-0.9q0-0.1 0-0.1 0-0.1 0.1-0.1z"/>
				<path class="s1" d="m58 43.7q-0.4 0.1-0.7 0.2-0.2 0.1-0.3 0-0.1-0.2-0.3-0.4-0.1-0.1-0.2-0.1-0.7 0.3-1.3 0.4-0.2 0.1-0.3 0.3 0 0.2 0 0.4 0 0.2-0.3 0.2-0.2 0.1-0.6 0.2 0.1-0.7 0.2-1.3 0.2-1.2 0.4-2.3c0-0.3 0.1-0.4 0.3-0.4 0.6-0.2 0.6-0.2 1 0.3q1 1.2 2 2.3c0 0.1 0 0.1 0.1 0.2zm-1.7-0.8c-0.4-0.4-0.7-0.9-1-1.3-0.1 0.4-0.2 1.4-0.1 1.6 0.3-0.1 0.7-0.2 1.1-0.3z"/>
				<path class="s1" d="m51.8 42.8q-0.2 0-0.4 0.1c-0.2 0-0.4 0-0.5-0.2-0.1-0.1-0.2-0.2-0.3-0.2-0.7-0.3-1.4 0-1.5 0.8q-0.1 0.5 0 1c0.2 0.4 0.5 0.7 0.9 0.7 0.4 0 1-0.2 1.1-0.6q0.1-0.3 0.3-0.3 0.3 0 0.5 0c0.1 0.2 0 0.5-0.1 0.7-0.2 0.2-0.3 0.4-0.5 0.5-0.6 0.4-1.2 0.4-1.9 0.3q-0.7-0.2-1-0.9c-0.3-0.9-0.2-1.7 0.3-2.4q0.3-0.3 0.6-0.4 0.8-0.3 1.5-0.1 0.7 0.2 1 1z"/>
				<path class="s1" d="m33.8 38.7c0.3 0.2 0.5 0.3 0.7 0.4q-0.1 0.1-0.2 0.2-1.2 1.1-2.5 2.3c-0.2 0.1-0.2 0.1-0.4 0-0.5-0.3-0.5-0.2-0.4-0.9q0.2-1 0.3-2.1 0.1-0.6 0.3-1.2c0.2 0.1 0.4 0.2 0.5 0.3 0.2 0.1 0.1 0.3 0.1 0.4q-0.1 0.6-0.3 1.1-0.1 0.7-0.2 1.3c0 0.1 0 0.2 0 0.3 0.8-0.7 1.4-1.4 2.1-2.1z"/>
				<path class="s1" d="m23.4 35q1.3-1.2 2.6-2.5c0.2 0.2 0.3 0.4 0.5 0.6q-1 1.1-2.1 2.2 0.2 0.2 0.4 0.4 0.5 0.5 1 1c0.2 0.2 0.2 0.2 0 0.5q-0.1 0-0.2 0.1c-0.8-0.7-1.5-1.4-2.2-2.3z"/>
				<path class="s1" d="m29.5 35.8c0.2 0.2 0.4 0.3 0.6 0.5q-1.1 1.5-2.1 3-0.3-0.2-0.5-0.4c-0.2-0.1-0.2-0.2-0.1-0.4q0.1-0.1 0.2-0.2 0.8-1.1 1.6-2.2 0.1-0.1 0.3-0.3z"/>
				<path class="s1" d="m45.7 22.9c1-1.3 1.8-3.3 0.7-5.6-0.8-1.9-2.9-5.2-1.9-7.5 0.9-2.4 5.2-4.1 5.2-4.1 0.2-0.3 0.1-0.7-0.2-0.9-0.3-0.2-0.7-0.1-0.9 0.2 0 0.1-4.3 1.8-5.3 4.3-1 2.6 0.9 6.2 2 8.5 1.2 2.8-0.8 4.7-1.4 5.2l1.8-0.1z"/>
				<path class="s3" d="m45.7 22.9c1-1.3 1.8-3.3 0.7-5.6-0.8-1.9-2.9-5.2-1.9-7.5 0.9-2.4 5.2-4.1 5.2-4.1 0.2-0.3 0.1-0.7-0.2-0.9-0.3-0.2-0.7-0.1-0.9 0.2 0 0.1-4.3 1.8-5.3 4.3-1 2.6 0.9 6.2 2 8.5 1.2 2.8-0.8 4.7-1.4 5.2"/>
			</g>
			<g>
				<path class="s4" d="m9.4 55.4h-1.5q-0.2 0-0.2 0.3v8.3q0 1.6-1.3 2.4-0.3 0.2-0.7 0.4-0.2 0.1-0.5 0.1h-0.5q-2.3 0-2.8-3 0-0.2 0.1-6h-2q0 5.9 0 6.1 0 0.9 0.3 1.7 0 0.1 0 0.2 0.1 0 0.1 0.1 0.8 1.9 3.2 2.7 0.1 0 0.1 0 0.5 0.1 0.9 0.1h0.4q3.1 0 4.5-3.6 0 0 0-0.1 0-0.1 0-0.1l0.1-0.9v-0.1q0-0.5 0-1.7 0-1.2 0-3v-3.7c0 0 0-0.1 0-0.1q-0.1-0.1-0.2-0.1z"/>
				<path class="s4" d="m45 60.5v-4.8q0-0.2-0.2-0.2h-1.5q-0.2 0-0.2 0.2v3.7q0 3.6-3.3 3.7v-7.4q0-0.2-0.2-0.2h-1.5q-0.2 0-0.2 0.2v7.4h-0.9q-0.1 0-0.2 0-2.9-0.2-2.9-3.7v-3.7q0-0.2-0.2-0.2h-1.5q-0.2 0-0.2 0.2v3.7q0 3.6-3.1 3.7h-1q0.1-0.3 0.2-0.7v-3.1q0-2.1-2.7-2.7h-3.3q2.1-1.2 2.1-3.7v-0.9q0-0.1-0.2-0.2h-1.5q-0.1 0-0.2 0.2v0.6q0 1.7-1.5 2.8l-2.4 0.9-0.3 2.3h6.9q1.2 0.1 1.2 2.4 0 2.1-1.2 2.1h-8.3q-0.2 0-0.4 0-2.9-0.2-2.9-3.3v-7.9q0-0.2-0.2-0.3 0 0 0 0h-1.5q-0.2 0.1-0.2 0.3v8.3q0 3.6 3.8 4.7 0.4 0.1 1 0.2h9.1q0.2 0 0.4-0.1v0.1h3.6q0.4-0.1 0.8-0.2 1.8-0.6 2.8-1.7 0.9 1.1 2.8 1.7 0.2 0.1 0.5 0.1v0.1h4q0.5-0.1 1-0.2 3.8-1.3 3.8-4.4z"/>
				<path class="s4" d="m76.2 66q-0.5 0-0.8 0.3-0.4 0.4-0.4 0.8 0 0.5 0.4 0.8 0.3 0.4 0.8 0.4 0.5 0 0.8-0.4 0.4-0.3 0.4-0.8 0-0.5-0.4-0.8-0.3-0.3-0.8-0.3z"/>
				<path class="s4" d="m88.7 51.6h-1.5q-0.2 0-0.2 0.2v8q0 3.3-3.3 3.3h-4.4v1.9h4.8q0.6 0 1-0.1 3.8-1.1 3.8-4.8v-8.3q0-0.2-0.2-0.2z"/>
				<path class="s4" d="m72.8 66q-0.5 0-0.8 0.3-0.4 0.4-0.4 0.8 0 0.5 0.4 0.8 0.3 0.4 0.8 0.4 0.5 0 0.8-0.4 0.4-0.3 0.4-0.8 0-0.5-0.4-0.8-0.3-0.3-0.8-0.3z"/>
				<path class="s4" d="m77.3 55.4h-1.5q-0.2 0-0.2 0.3v3.7q0 3.6-3.1 3.7h-0.1-2.4q1-1.1 1-2.8 0-0.5-0.1-1.1-1.3-3.8-4.4-3.8h-1q-0.2 0-0.9 0.2-3.2 1.4-3.2 4.5v3h-4.6q-3.1-0.1-3.1-3.7v-3.2q-0.1-0.2-0.2-0.2h-1.5q-0.2 0-0.2 0.2v4.2q0 3.2 3.7 4.5 0.6 0.1 1.1 0.1h9.8q0.2 0 0.4 0h5.9q0.5 0 1-0.1 3.8-1.3 3.8-4.5v-4.8q0-0.1-0.2-0.2zm-14 4.6q0-2.1 2.7-2.6h0.1q3 0.3 3 2.8 0 2.6-3.1 2.9h-2.7v-3.1z"/>
				<path class="s4" d="m3.9 54.2q0 0 0 0 0 0 0.1 0.1 0.1 0 0.3 0 0.5 0 0.8-0.3 0.1-0.1 0.2-0.2 0 0 0 0 0.2-0.3 0.2-0.7 0-0.3-0.2-0.6 0 0 0 0-0.1-0.1-0.2-0.2 0 0 0 0-0.2-0.2-0.4-0.3-0.2 0-0.4-0.1-0.2 0.1-0.3 0.1-0.3 0.1-0.5 0.3-0.4 0.3-0.4 0.8 0 0.5 0.4 0.8 0.1 0.2 0.4 0.3z"/>
				<path class="s4" d="m66.2 54.3q0.5 0 0.8-0.4 0.4-0.3 0.4-0.8 0-0.4-0.4-0.8-0.3-0.3-0.8-0.3-0.5 0-0.8 0.3-0.4 0.4-0.4 0.8 0 0.5 0.4 0.9 0.3 0.3 0.8 0.3z"/>
				<path class="s4" d="m81.5 62h1.5q0.2 0 0.2-0.2v-10q0-0.2-0.2-0.2h-1.5q-0.2 0-0.2 0.2v10q0 0.2 0.2 0.2z"/>
				<path class="s4" d="m28.1 72.9q1.5-0.2 1.5-1.5v-1.1q0-1.6-2-1.6h-4.5q-2.5 0-2.5 1.7v0.6h1.9v-0.9h4.3q0.9 0 0.9 0.4v1q0 0.6-0.9 0.6h-3.7v1.5h3.7q0.5 0 0.7 0.1 0.3 0.2 0.3 0.7v0.8q0 0.3-0.3 0.4-0.2 0.2-0.7 0.2h-4.3v-0.7h-1.9v0.7q0 1.6 2.4 1.6h4q2.7-0.1 2.7-1.8v-1.1q0-1.4-1.6-1.6z"/>
				<path class="s4" d="m37.7 69.1h-6.5v8h6.1q2.4-0.8 3-4.5 0-3.5-2.6-3.5zm0.9 4q-0.5 2.4-2.3 2.5h-3.3v-5h3.8q2.2 0 1.8 2.5z"/>
				<path class="s4" d="m56.8 68.7h-1.8l-6.2 5.2v1.6h6.2v2h1.8v-2h2v-1.6h-2zm-1.8 5.2h-4l4-3.2z"/>
				<path class="s4" d="m66.3 69.1h-6.5v8h6.2q2.4-0.8 3-4.5 0-3.5-2.7-3.5zm0.9 4q-0.5 2.4-2.2 2.5h-3.3v-5h3.8q2.1 0 1.7 2.5z"/>
				<path fill-rule="evenodd" class="s4" d="m42.3 73.9h4v1.6h-4z"/>
			</g>
		</g>
	</g>
</svg>