<svg version="1.2" xmlns="http://www.w3.org/2000/svg" viewBox="0 0 112 29" width="112" height="29">
	<title>85</title>
	<style>
		.s0 { fill: #ee7d38 } 
	</style>
	<g id="Layer_1-2">
		<g>
			<path fill-rule="evenodd" class="s0" d="m109.2 13.5c-0.8 1.4-0.8 1.4-0.3 6.6 0.1 1-0.2 6.3-2.7 7.8-2.5 1.7-2.3-0.7-2.5-4.1-0.4-3.1-2.1-5.9-5.9-6.4 1.4 0.6 2 1.2 2 1.2 0 0-3.7 1.5-4 5.9-0.1 2.5-0.6 3-1.1 3-0.5 0-2.7-1.6-2.8-4.8 0-3.6 0.2-7.6 0.2-8.1-0.1-0.7-0.2-2.9-0.6-3.4-0.3-0.5-2.9-2.2-2.7-6.6 0.2-2.4 2-3.2 3.4-3.6 2.9-0.9 5.8 1.6 8.3 1.8-3.3 1-3.5 1.1-4.7 1.4 0 0 3.4 0.5 6.3-1.3 5.6-3.5 9.9-1.3 9.9 2.6 0 2.2-2.6 7.5-2.8 8zm-7.1 2.7c-0.9 0.2-2.1 0.1-3.5-0.5 1.1 1 3.3 0.8 3.3 0.8zm3.5-1.8c-0.1-0.2-0.2-0.3-0.4-0.3-0.1 0-0.2 0.2-0.2 0.3-0.5 0.1-2.4 0.2-4.6-0.2-1.5-0.2-2.9-1.3-3.9-2.2 0.4-0.6 0.2-0.4 0.4-1.3-0.4 1-1.4 2-1.8 2.2 0.8-0.4 1-0.4 1.2-0.4 0.4 0.3 1.7 1.6 4 2 1.6 0.4 2.9 0.2 4.7 0.1q0.1 0.1 0.3 0.1c0.1 0 0.3-0.1 0.3-0.3zm-10.6-1.5q0 0 0.1 0 0 0-0.1 0z"/>
			<g>
				<g>
					<path class="s0" d="m34.9 1.1q-0.9-0.5-2.2-0.8-1.4-0.2-3.2-0.2h-4.1q-7 0-7 4.4v7.2q0 1.1 0.4 1.9 0.5 0.8 1.4 1.4 0.9 0.5 2.2 0.8 1.3 0.3 3 0.3h4.1q7 0 7-4.4v-7.2q0-1.1-0.4-2-0.4-0.8-1.2-1.4zm-1.7 10.6q0 1.4-3.6 1.4h-4.2q-3.7 0-3.7-1.4v-7.1q0-1.5 3.7-1.5h4.1q3.7 0 3.7 1.5z"/>
					<path class="s0" d="m63.2 0q-1.2 0-1.9 1.1l-9.9 15.1h3.9l2.7-4.4h10.3l2.7 4.4h3.8l-9.7-15.1q-0.8-1.1-1.9-1.1zm-3.3 8.8l3.2-4.8 3.2 4.8c0 0-6.4 0-6.4 0z"/>
					<path class="s0" d="m84 13.1h-1.1q-1.2 0-2 0-0.8-0.1-1.3-0.3-0.5-0.1-0.7-0.4-0.2-0.2-0.2-0.6v-8.1c-3.1-3.5-3.3-3.6-3.3-3.6v11.7q0 1.1 0.4 1.9 0.4 0.9 1.3 1.4c0.6 0.4 1.5 0.7 2.3 0.9 0.6 0.1 6 0.2 7.5 0.2l-2.9-3.1z"/>
					<path class="s0" d="m52 0.1l-6 6.1c-1.3-1.9-4.4-5.1-9.9-6 3.2 1.9 6.1 5.4 7.6 8.6v7.3h3.3v-6.6l9.4-9.4c0 0-4.4 0-4.4 0z"/>
					<path class="s0" d="m14.6 1.1q-0.9-0.5-2.2-0.8-1.4-0.2-3.2-0.2h-7c-1.2 1.9-0.9 1.5-2.2 3.4h9.2q3.7 0 3.7 1.6v5.8q0 1.4-3.6 1.4c0 0-2.6-0.1-3 0q-0.9-0.8-1.6-1.1l-1.9 2.9c3.3 1.2 8.4 5.9 10.9 10-0.8-3.6-2.6-6.6-4.5-8.8h1.8q5.2-0.6 5.2-4.4v-6.4q0-1.1-0.4-2-0.4-0.8-1.2-1.4z"/>
				</g>
				<g>
					<path class="s0" d="m19.4 20.1h1.1v2.3c0 1.7-1.2 2.7-2.7 2.7-1.4 0-2.5-1.2-2.5-2.7 0-0.5 0-0.8 0.2-1.2h1.1c0 0-0.3 0.4-0.3 1.2 0 0.9 0.8 1.6 1.6 1.6 0.8 0 1.5-0.6 1.5-1.6v-2.3zm-0.9 0.7v0.9h-1.1v-0.9z"/>
					<path class="s0" d="m23 23.7c-1.3 0-1.4-1.1-1.4-1.6v-3.6h1.1v3.7c0 0.3 0.1 0.4 0.4 0.4h0.7v1.1h-0.7z"/>
					<path class="s0" d="m23.8 23.7l-0.1-1.1h0.8c0.5 0 0.7-0.1 0.7-0.6v-1.6h1.1v1.5c0 0.4 0.2 0.7 0.7 0.7h0.6v1.1h-0.5c-0.6 0-0.9-0.3-1.2-0.5-0.1 0.3-0.6 0.5-1.1 0.5 0 0-1 0-1.1 0zm2.5-5.2v0.9h-1v-0.9z"/>
					<path class="s0" d="m27.5 23.7v-1.1h1q0.4 0 0.4-0.4v-1.8h1.1v1.9c0 0.5 0.3 0.8 0.6 0.8 0.6 0 0.7-0.4 0.7-0.8v-1.9h1.1v1.9c0 0.5 0.3 0.8 0.6 0.8 0.5 0 0.7-0.4 0.7-0.8v-2.2h1v2.2c0 0.8-0.3 1.6-1.2 1.6-0.6 0-0.9-0.2-1.2-0.7-0.2 0.4-0.8 0.7-1.2 0.7-0.5 0-1-0.1-1.3-0.8-0.2 0.3-0.6 0.6-1.2 0.6h-1.1z"/>
					<path class="s0" d="m35.3 18.2l0.1-0.4h0.3v-0.2c0-0.3 0.1-0.6 0.5-0.6q0.5 0 0.5 0.5h-0.4c0-0.1-0.1-0.1-0.1-0.1-0.1 0-0.2 0.1-0.2 0.2v0.2h0.4c0 0 0.1 0 0.1-0.1l0.3 0.2c-0.1 0.2-0.3 0.3-0.5 0.3h-1zm1 4.4h-0.5l-0.4 1.1h1.9c0.6 0 1-0.2 1.2-0.5 0.2 0.3 0.6 0.5 1.1 0.5h0.5v-1.1h-0.5c-0.5 0-0.8-0.3-0.8-0.7v-3.4h-1.1v3.7c0 0.2-0.1 0.4-0.3 0.5l-0.9-4.1h-1.1l0.9 4.1z"/>
					<path class="s0" d="m40.1 23.7v-1.1h0.9q0.4 0 0.5-0.4v-3.7h1v3.6c0 0.5-0.1 1.6-1.4 1.6z"/>
					<path class="s0" d="m49.2 18.5h1v3.9c0 1.7-1.1 2.7-2.6 2.7-1.4 0-2.5-1.2-2.5-2.7 0-0.5 0-0.8 0.1-1.2h1.2c0 0-0.3 0.4-0.3 1.2 0 0.9 0.8 1.6 1.5 1.6 0.9 0 1.6-0.6 1.6-1.6 0 0 0-3.9 0-3.9z"/>
					<path class="s0" d="m52.8 23.7c-1.3 0-1.4-1.1-1.4-1.6v-3.6h1.1v3.7c0 0.3 0.2 0.4 0.4 0.4h0.7v1.1c0 0-0.7 0-0.8 0z"/>
					<path class="s0" d="m54.5 24.2v0.9h-1.1v-0.9zm-0.9-0.5v-1.1h0.9q0.5 0 0.5-0.4v-2.1h1.1v2c0 0.5-0.1 1.6-1.5 1.6zm2.5 0.5v0.9h-1.1v-0.9z"/>
					<path class="s0" d="m57.9 24.1c0.2 0 0.4 0.1 0.7 0.1 0.2 0 0.8 0 0.9-0.5h-0.6c-1 0-1.8-0.8-1.8-1.8 0-1.1 0.7-1.8 1.8-1.8h1.8v3.3c0 1.3-1.1 1.7-1.9 1.7-0.2 0-0.5 0-0.6-0.1l-0.3-1zm1.7-2.9h-0.7c-0.5 0-0.7 0.4-0.7 0.8 0 0.4 0.2 0.7 0.7 0.7h0.7c0 0 0-1.5 0-1.5z"/>
					<path class="s0" d="m62.9 20.1h1.1v3.1c0 1.3-0.9 2-1.9 1.9-0.5 0-0.9-0.2-0.9-0.2l-0.2-0.9c0 0 0.5 0.2 1 0.2 0.3 0 0.9-0.3 0.9-1z"/>
					<path class="s0" d="m67.6 25.1c-0.5 0-0.9-0.2-0.9-0.2l-0.1-0.9c0 0 0.4 0.2 0.9 0.2 0.3 0 1-0.3 1-1v-2.8h1.1v1.5c0 0.4 0.2 0.7 0.7 0.7h0.6v1.1h-0.5c-0.4 0-0.7-0.1-0.9-0.2-0.1 1.1-1 1.7-1.9 1.6zm1.9-6.4v1h-1.1v-1z"/>
					<path class="s0" d="m77.2 21.9c0 1-0.8 1.8-1.9 1.8h-4.5v-1.1l4.5 0.1c0.4 0 0.8-0.4 0.8-0.8 0-0.4-0.3-0.8-0.8-0.8h-3.7c0-1.6 1.1-2.6 2.5-2.6h1.2v1h-1.2c-0.6 0-0.9 0.2-1.1 0.5h2.3c1.2 0 1.9 0.9 1.9 1.9z"/>
					<path class="s0" d="m78.6 25.1c-0.5 0-0.8-0.2-0.8-0.2l-0.2-0.9c0 0 0.4 0.2 0.9 0.2 0.4 0 1-0.3 1-1v-2.8h1.1v1.5c0 0.4 0.3 0.7 0.7 0.7h0.6v1.1h-0.5c-0.4 0-0.7-0.1-0.8-0.2-0.2 1.1-1.1 1.7-2 1.6z"/>
					<path class="s0" d="m81.8 23.7v-1.1h0.9c0.3 0 0.5-0.1 0.5-0.5v-0.3c0-1 0.6-2 1.9-2 1.2 0 1.8 1 1.8 2 0 0.9-0.6 2-1.8 2-0.7 0-1.1-0.2-1.4-0.5-0.1 0.2-0.4 0.4-0.9 0.4 0 0-1 0-1 0zm3.3-3c-0.6 0-0.8 0.6-0.8 1.1 0 0.5 0.2 1.1 0.8 1.1 0.5 0 0.7-0.5 0.7-1.1 0-0.6-0.2-1.1-0.7-1.1z"/>
				</g>
			</g>
			<g>
				<path class="s0" d="m83.6 1c1.3 0 2.4 1 2.4 2.4 0 1.3-1.1 2.4-2.4 2.4-1.4 0-2.5-1.1-2.5-2.4 0-1.4 1.1-2.4 2.5-2.4zm0 4.4c1.1 0 2-0.9 2-2 0-1.1-0.9-2-2-2-1.1 0-2.1 0.9-2.1 2 0 1.1 1 2 2.1 2z"/>
				<path class="s0" d="m83.1 3.5q0 0.3 0 0.6 0 0.3 0 0.6h-0.5v-2.7c0.5 0 1-0.1 1.4 0 0.5 0.2 0.7 0.5 0.6 1q-0.1 0.3-0.4 0.4-0.1 0-0.2 0c0.4 0.4 0.6 0.9 0.9 1.3q-0.3 0-0.6 0c0 0 0 0 0-0.1q-0.3-0.4-0.5-0.7-0.3-0.5-0.8-0.3zm0.1-0.4q0.3 0 0.7 0 0.3-0.1 0.3-0.4 0-0.4-0.3-0.5-0.4 0-0.8 0v0.9z"/>
			</g>
		</g>
	</g>
</svg>