<svg version="1.2" xmlns="http://www.w3.org/2000/svg" viewBox="0 0 120 30" width="120" height="30">
	<title>83</title>
	<style>
		.s0 { opacity: .6;mix-blend-mode: multiply;fill: #655a5e } 
		.s1 { mix-blend-mode: multiply;fill: #655a5e } 
		.s2 { fill: #655a5e } 
	</style>
	<g>
		<g id="Layer_2">
			<g id="Layer_1-2">
				<g>
					<g>
						<path fill-rule="evenodd" class="s0" d="m19.7 7.7c0 0 0 0.7-2.3-0.9-2.4-1.6-4.5-4.3-4.5-4.3 0-0.1 3.7 2.5 4.4 2.4 0.7 0 1.8 0.8 2.4 2.8z"/>
						<path fill-rule="evenodd" class="s0" d="m10.8 2.2c0 0-0.7 1 1.7 2.5 2.3 1.5 1.5 1.4 1.5 1.4 0 0-1.1-2.6-1.2-3.3-0.1-0.6-0.1-1.1-2-0.6z"/>
						<path fill-rule="evenodd" class="s0" d="m14.1 1.2c0 0-0.7 0.9 1.5 2.3 2.1 1.4 0.9 0 0.9 0 0 0-0.5-1.1-0.6-1.7-0.1-0.6-0.1-1.1-1.8-0.6z"/>
						<path fill-rule="evenodd" class="s0" d="m1.8 3c-0.2 0.6 0 1 2.1 2.3 2.2 1.4 3.8 1.2 3.8 1.2 0 0-3.4-2.7-3.5-3.3-0.1-0.6-2-1-2.4-0.2z"/>
						<path fill-rule="evenodd" class="s0" d="m19 11.5c0 0-0.5 0.8-2.3-1-1.9-1.7-5-4.9-5-4.9 0 0 5.6 3.8 6.2 3.8 0.6-0.1 1.2 0.3 1.1 2.1z"/>
						<path fill-rule="evenodd" class="s0" d="m17.2 13.9c-0.1-0.5-0.1-0.9 0.1-1.3q0.1-0.2 0.1-0.3-0.1-0.4-0.5-0.3c-0.6 0-11.6-5-11.6-5 0 0 5.8 4.1 8 5.7 2.7 1.9 3.9 2 4.3 2q-0.3-0.4-0.4-0.8z"/>
						<path fill-rule="evenodd" class="s0" d="m17.1 18.4c0 0 0.3 0.9-3.1-1.1-2.3-1.4-8.1-5.8-8.1-5.8 0 0 10.6 5.1 11.3 5 0.6 0 0 0.1-0.1 1.9z"/>
						<path fill-rule="evenodd" class="s0" d="m0.1 6.4c0 0-0.6 0.9 1.5 2.3 2.1 1.3 3.5 1.2 3.5 1.2 0 0-2.7-2.5-3.1-3.1-0.2-0.3-0.6-0.9-1.2-0.9-0.2 0-0.5 0.3-0.7 0.5z"/>
						<path fill-rule="evenodd" class="s0" d="m0.1 9.7c0 0-0.6 0.9 1.5 2.3 2.1 1.3 4.2 2.1 4.2 2.1 0 0-4.7-3.7-4.8-4.3-0.1-0.6 0.8-0.6-0.9-0.1z"/>
						<path fill-rule="evenodd" class="s0" d="m16.9 21.2c0.1 0 0 2.1-3.3-0.3-2.2-1.6-8-5.7-8-5.7 0 0 10.2 5 10.8 4.9 0.6 0 0.5 0.3 0.5 1.1z"/>
						<path fill-rule="evenodd" class="s0" d="m16.5 24c0 0-0.2 1.2-3.4-1.2-2.3-1.6-7.8-5.2-7.8-5.2 0 0 10.2 4.9 10.8 4.9 0.6-0.1 0.5-0.3 0.4 1.5z"/>
						<path fill-rule="evenodd" class="s0" d="m2.2 13.3c0 0-0.6 1 1.5 2.3 2.1 1.4 4.2 2.2 4.2 2.2 0 0-4.7-3.8-4.8-4.4-0.1-0.6 0.8-0.6-0.9 0z"/>
						<path fill-rule="evenodd" class="s0" d="m2.9 17.6c0 0-0.6 1 1.6 2.3 2.1 1.4 3.5 1 3.5 1 0 0-3.9-2.4-4.1-3.2-0.2-0.6 0.3-1-1 0z"/>
						<path fill-rule="evenodd" class="s1" d="m12.6 24.4c0 0-0.1 1.4 1.5 2.9 0.2 0.3 0.3-0.1 0.3-0.1 0 0-0.8-2.1-0.8-2.7-0.1-0.6 0.7-0.6-1-0.1z"/>
						<path fill-rule="evenodd" class="s0" d="m3.2 21c0 0-0.6 0.9 1.5 2.3 2.2 1.3 2.1 0.6 2.1 0.6 0 0-2.6-2.5-2.6-3.1-0.1-0.7 0.3-0.9-1 0.2z"/>
						<path fill-rule="evenodd" class="s0" d="m3.9 23.7c0 0-0.5 1 1.5 2.5 2 1.5 0.8-0.2 0.8-0.2 0 0-1.3-1.7-1.4-2.3 0-0.6 0.8-0.6-0.9 0z"/>
						<g>
							<path fill-rule="evenodd" class="s2" d="m18.3 2.5c0.2 0.2 0.5 0.1 0.9 0q-0.4-0.6-0.9-1c-0.1 0.5-0.2 0.9 0 1z"/>
							<path fill-rule="evenodd" class="s2" d="m16.8 1.6c0.2 0.1 0.6-0.1 0.9-0.4q-0.6-0.3-1.2-0.4c0 0.3 0.1 0.6 0.3 0.8z"/>
							<path fill-rule="evenodd" class="s2" d="m19.3 3.8q0.2 0.2 0.5 0.3-0.2-0.6-0.4-1c-0.2 0.3-0.3 0.6-0.1 0.7z"/>
							<path fill-rule="evenodd" class="s2" d="m15.2 1.1c0.3 0.1 0.5-0.1 0.7-0.3-0.4-0.1-0.8 0-1.1 0q0.2 0.2 0.4 0.3z"/>
							<path fill-rule="evenodd" class="s2" d="m14.2 1.2q0 0 0 0v-0.1z"/>
						</g>
						<path fill-rule="evenodd" class="s2" d="m10.7 2.3c0 0 1.3-0.7 1.9-0.8 0.5-0.1 0.6-0.1 0.9 0 3.5 1.5 6 4 6 4.4 0.3 1.4 0.2 1.8 0.2 1.8 0 0-2.7-3.2-7.4-5.3-0.3-0.2-1-0.4-1.6-0.1z"/>
						<path fill-rule="evenodd" class="s2" d="m1.8 3.3c0.6-0.6 1.7-0.5 2.4-0.4 2 0.3 3.2 0.8 5 1.6 1.4 0.7 3.4 1.8 4.8 2.6q1.5 0.9 2.8 2 0.8 0.7 1.4 1.4 0.2 0.2 0.4 0.5c0.1 0.1 0.2 0.3 0.3 0.4 0 0 0 0.1 0.1 0.1 0.5-0.4 0.7-1.1 0.7-1.8 0.1-1.3-1.2-2-2.2-2.8q-1.6-1.2-3.4-2.3-2.5-1.5-5.2-2.6c-1.5-0.7-3.6-1.7-5.2-1.1-1 0.4-1.5 1.5-1.9 2.4z"/>
						<path fill-rule="evenodd" class="s2" d="m16.3 21.8c0.3 0.3 0.4 0.6 0.4 1.1-0.1 0.5 0 1.3-0.2 1.2-5.6-3.9-8.4-5.4-9.5-6-0.7-0.4-1.6-0.8-2.4-0.9-0.4 0-0.8 0.1-1.1 0.3-0.2 0.1-0.7 0.6-0.6 0.9 0 0-0.3-1.2-0.1-2 0.2-0.8 0.3-0.9 0.8-1.2 1.1-0.8 2.3-0.2 3.5 0.5 2.5 1.3 9 5.9 9.2 6.1z"/>
						<path fill-rule="evenodd" class="s2" d="m3.1 21.6c0.1-1.3 2.1-1.2 3.5-0.6 0.9 0.5 1.6 1.1 1.6 1.1 0 0 0.2-1.2 0.2-1.5 0-0.2-4.5-3.4-5.4-0.9-0.2 0.6 0 1.3 0.1 1.9z"/>
						<path fill-rule="evenodd" class="s2" d="m4 24.6c0 0 1-0.8 3.5 0.7 0 0 0-0.1 0.3-1 0.2-0.5 0.3-0.9 0.3-0.9 0 0-0.9-0.7-2.9-1.5-1.2-0.5-1.6 0.5-1.6 0.8-0.1 0.4 0 0.7 0.1 1.2 0.2 0.5 0.3 0.7 0.3 0.7z"/>
						<path fill-rule="evenodd" class="s2" d="m4.3 25.7c0.1 0.5 0.6 2 1.7 2 0.9 0 1.2-1.2 1.2-1.7-0.6-0.2-2.4-1.4-2.9-0.3z"/>
						<path fill-rule="evenodd" class="s2" d="m13.1 26c0.1 0.6 0.4 2.6 1.5 2.7 1 0.1 1.1-0.8 1.2-1.2-1.6-1.1-1.9-1.1-2.7-1.5z"/>
						<path fill-rule="evenodd" class="s2" d="m16.3 24.9c-2.3-1.6-3.9-2.3-3.9-2.3l0.2 2.3c0 0 2.1 0.9 3.1 1.6 0.3 0.2 0.6-1.6 0.6-1.6z"/>
						<path class="s2" d="m20.6 4c-0.1 0-0.2 0-0.3 0.1q0 0.1 0 0.1c-0.3 0-0.9 0-1.2-0.3-0.3-0.3 0.2-1 0.5-1.3q0 0 0 0c0.1 0.1 0.3 0.1 0.3 0 0.1-0.1 0.1-0.3 0-0.3-0.1-0.1-0.3-0.1-0.3 0q-0.1 0.1 0 0.2c-0.4 0.2-1.2 0.5-1.5 0.3-0.4-0.2 0.1-1.4 0.3-1.9 0.1 0 0.2 0 0.3-0.1 0.1-0.1 0-0.3-0.1-0.4-0.1-0.1-0.3 0-0.4 0.1 0 0.1 0 0.2 0.1 0.3-0.4 0.4-1.3 1.3-1.6 1.1-0.3-0.2-0.4-1.1-0.4-1.5q0.1 0 0.1-0.1c0.1-0.1 0.1-0.2 0-0.3-0.1 0-0.2 0-0.3 0.1-0.1 0.1-0.1 0.2 0 0.3q0.1 0 0.1 0c-0.2 0.4-0.6 1.2-1 1-0.4-0.1-0.7-0.7-0.8-1q0.1 0 0.1-0.1c0.1 0 0-0.1 0-0.2-0.1 0-0.2 0-0.3 0.1 0 0 0 0.1 0.1 0.2q0 0 0.1 0c-0.1 0.2-0.3 0.6-0.4 0.8 0 0-0.1 0.1 0 0.1 2.7 0.6 5.8 3.6 5.8 3.6 0.1-0.2 0.3-0.5 0.5-0.6q0.1 0 0.1 0c0.1 0.1 0.2 0.1 0.2 0 0.1-0.1 0.1-0.2 0-0.3z"/>
						<path fill-rule="evenodd" class="s2" d="m17.3 13.9c-0.1-0.5-0.1-0.9 0.1-1.3q0.2-0.4 0.5-0.6-0.2-0.2-0.4-0.3c-2.6-2.6-5.8-4.6-9.1-6.1q-1.5-0.7-3-1.2c-1.3-0.4-3.1-1-4.2 0-0.7 0.5-0.9 1.4-1.2 2.2 0-0.1 0.7-0.3 1.6-0.4 0.5 0 1.3 0.1 1.9 0.3 1.3 0.2 2.5 0.7 3.7 1.2 3.1 1.2 6 2.9 8.5 5.1q1 0.8 1.9 1.8-0.2-0.3-0.3-0.7z"/>
						<path fill-rule="evenodd" class="s2" d="m17 19.2c-0.1-0.2-0.3-0.6-1.9-1.9-4.4-3.8-11.3-6.7-13-6.1-1.9 0.6 0.2 3.1 0.2 3.1 0.1-0.8 1.4-1.1 3.5-0.2 2.8 1.2 4 1.8 6.6 3.7 2.6 1.8 4.2 3.1 4.4 4 0 0 0.1-0.3 0.3-1.1 0 0.1 0-0.3 0-0.7 0-0.3 0-0.6-0.1-0.8z"/>
						<path fill-rule="evenodd" class="s2" d="m17.6 15.8c-0.1-0.1-0.1-0.2-0.6-0.6-0.7-0.8-2.6-2.3-5.2-3.9-4.9-2.8-9.2-3.9-10.1-3.8-2 0.1-1.7 2.7-1.7 2.7 0.5-1.6 11.3 2.2 16.2 6.8 0 0 0.1 0.1 0.1 0.1 0 0 1 0.9 0.7 1.4 0 0 0.5-0.1 0.8-1 0 0 0.1-0.2 0.1-0.7 0-0.3-0.1-0.8-0.3-1z"/>
					</g>
					<g>
						<g>
							<path fill-rule="evenodd" class="s2" d="m19 17.7h-0.2l0.5-2.7 0.3-0.1-0.6 2.8z"/>
							<path class="s2" d="m18.9 17.7c-0.4-0.1-0.8 0.2-0.9 0.6l-1.8 9.4c-0.1 0.4 0.2 0.8 0.6 0.9 0.4 0 0.8-0.2 0.8-0.6l1.9-9.5c0.1-0.4-0.2-0.7-0.6-0.8zm0 0.1c0.3 0.1 0.6 0.4 0.5 0.7l-1.9 9.5c0 0.3-0.4 0.5-0.7 0.5-0.4-0.1-0.6-0.4-0.5-0.8l1.8-9.4c0.1-0.4 0.4-0.6 0.8-0.5z"/>
							<path class="s2" d="m19.1 16.8c-0.3-0.1-0.8 0.5-1 1.3q0 0 0 0.1 0 0 0 0.1l-1.9 9.4c0 0.4 0.2 0.7 0.6 0.8 0.3 0.1 0.7-0.2 0.8-0.5l1.8-9.5c0 0 0 0 0-0.1q0 0 0.1 0c0.1-0.8-0.1-1.5-0.4-1.6z"/>
							<path class="s2" d="m19.1 16.8q-0.2 0-0.4 0.2l-0.3 1.3-1.9 10q0.1 0.1 0.3 0.2c0.4 0 0.7-0.2 0.8-0.5l1.8-9.5c0 0 0 0 0-0.1q0 0 0.1 0c0.1-0.8-0.1-1.5-0.4-1.6z"/>
							<path class="s2" d="m19.1 16.8l-0.2 0.9-2.1 10.8c0.4 0 0.7-0.2 0.8-0.5l1.8-9.5c0 0 0 0 0-0.1q0 0 0.1 0c0.1-0.8-0.1-1.5-0.4-1.6z"/>
							<path class="s2" d="m19.4 17.1l-0.3 1.4-1.9 9.9c0.2-0.1 0.3-0.2 0.4-0.4l1.8-9.5c0 0 0-0.1 0-0.1h0.1c0-0.5 0-0.9-0.1-1.3z"/>
							<path class="s2" d="m19.1 16.8c-0.4-0.1-0.8 0.5-1 1.4 0 0 0.1 0.2 0.6 0.3 0.6 0.1 0.8-0.1 0.8-0.1 0.1-0.8-0.1-1.6-0.4-1.7zm0 0.1c0.1 0.1 0.2 0.2 0.3 0.5q0.1 0.5 0 1.1c-0.1 0-0.3 0-0.6 0-0.4-0.1-0.6-0.2-0.6-0.3q0.1-0.6 0.4-0.9 0.3-0.4 0.5-0.3z"/>
							<path class="s2" d="m20.1 14.2c0.1-0.4 0.1-0.8 0-1.3-0.2-0.8-0.8-1.4-1.4-1.3q-0.1 0-0.2 0c-0.3 0.1-0.6 0.3-0.8 0.7-0.1 0.4-0.1 0.8 0 1.3 0.2 0.8 0.8 1.4 1.4 1.3q0.1 0 0.2 0c0.3-0.1 0.6-0.3 0.7-0.7z"/>
							<path class="s2" d="m20.6 12.8c-0.2-0.7-0.8-1.2-1.4-1.3q-0.2 0-0.4 0c0.6 0 1.2 0.6 1.4 1.4 0.2 0.8 0 1.6-0.6 1.9 0.4-0.1 0.7-0.3 0.9-0.7 0.1-0.4 0.2-0.8 0-1.3z"/>
						</g>
						<g>
							<path class="s2" d="m19.9 20.9q0.1-0.2 0.1-0.4 0.1-0.1 0.2-0.3l0.1-0.4 0.1-0.3q0.1-0.4 0.2-0.7 0.1-0.4 0.2-0.7v-0.1q0-0.1-0.1-0.2 0-0.1 0-0.1l-0.1-0.1q0-0.1-0.1-0.2l-0.1-0.2q-0.1-0.2-0.2-0.4l-0.3-0.4v0.1l0.4-0.2q0.2-0.1 0.3-0.2l0.4-0.2q0.2-0.1 0.4-0.3-0.2 0.1-0.4 0.2l-0.4 0.2q-0.2 0.1-0.4 0.2l-0.4 0.2h-0.1v0.1l0.3 0.4q0.1 0.2 0.2 0.4l0.1 0.2q0 0.1 0.1 0.2v0.1c0 0 0 0.1 0.1 0.1q0 0.1 0.1 0.2v-0.1q-0.1 0.3-0.2 0.7-0.1 0.4-0.2 0.7l-0.1 0.4-0.1 0.4q0 0.1-0.1 0.3 0 0.2 0 0.4z"/>
							<path class="s2" d="m20.5 18.8c-0.4-0.2-0.8 0.1-0.9 0.4l-2.6 8.9c-0.1 0.4 0.1 0.8 0.5 0.9 0.4 0.1 0.8-0.1 0.9-0.5l2.5-8.9c0.2-0.4-0.1-0.8-0.4-0.9zm-0.2 0.7c0.3 0.1 0.4 0.4 0.3 0.7l-2.2 7.8c-0.1 0.3-0.4 0.5-0.7 0.4-0.3-0.1-0.4-0.4-0.4-0.7l2.3-7.8c0.1-0.3 0.4-0.5 0.7-0.4z"/>
							<path class="s2" d="m20.5 18.9c-0.3-0.1-0.7 0.4-0.9 1.1q0 0 0 0-0.1 0-0.1 0.1l-2.3 7.8c0 0.3 0.1 0.6 0.4 0.7 0.3 0.1 0.7-0.1 0.8-0.4l2.2-7.8c0 0 0-0.1 0-0.1 0.2-0.7 0.1-1.3-0.2-1.4z"/>
							<path class="s2" d="m20.7 19.2q-0.1-0.2-0.2-0.3c-0.3-0.1-0.7 0.4-0.9 1.1q0 0 0 0-0.1 0-0.1 0.1l-2.3 7.8c0 0.3 0.1 0.6 0.4 0.7q0.2 0.1 0.3 0l2.6-8.7c0 0 0.2-0.7 0.2-0.7z"/>
							<path class="s2" d="m20.4 18.9c-0.2 0-0.6 0.4-0.8 1.1q0 0 0 0-0.1 0-0.1 0.1l-2.3 7.8c0 0.3 0.1 0.6 0.4 0.7l2.6-8.9 0.2-0.8z"/>
							<path class="s2" d="m20.1 19.1c-0.2 0.1-0.4 0.5-0.5 0.9q-0.1 0-0.1 0.1l-2.2 7.8c-0.1 0.2 0 0.4 0.1 0.5l2.4-8.3 0.3-1z"/>
							<path class="s2" d="m20.5 18.9c-0.3-0.1-0.8 0.4-1 1.1 0 0 0.1 0.2 0.6 0.3 0.4 0.1 0.6 0 0.6 0 0.2-0.7 0.1-1.4-0.2-1.5zm0 0.1q0.1 0.1 0.2 0.5 0 0.3-0.1 0.9c0 0-0.2 0-0.5-0.1-0.3-0.1-0.4-0.2-0.5-0.2q0.2-0.5 0.4-0.8 0.3-0.3 0.5-0.3z"/>
						</g>
					</g>
					<g>
						<path class="s2" d="m30.9 5q0 1.7-1.1 3-1 1.1-2.8 1.2-0.4 0-1.9 0-0.3 0-0.9 0-0.6 0-0.9 0-0.2 0-0.1-0.2 0-0.6 0-1.9 0-1.4 0.1-2c0-0.4-0.1-1.1-0.1-2.1q0-1.3 0-2 0-0.1 0.1-0.1 0.4-0.1 1.4-0.1 1.8 0 2.4 0.1 1.4 0.1 2.2 0.7 0.7 0.5 1.2 1.5 0.4 0.9 0.4 1.8zm-2.3 0q0-1-0.6-1.6-0.6-0.7-1.6-0.7-0.9 0-0.9 0.3 0 0.3 0 1 0 0.7 0 1.1 0 0.4 0 1 0 0.7 0 1.1 0 0.2 0.9 0.2 1.1 0 1.7-0.6 0.5-0.7 0.5-1.8z"/>
						<path class="s2" d="m38.9 9.1c0 0 0 0.1-0.1 0.1q-0.2 0-1.2 0-0.7 0-1 0-0.2 0-0.2-0.1 0 0 0-0.1-0.1-0.2-0.3-0.7-0.2-0.6-0.7-1.7-0.1-0.2-0.5-0.3 0.2 0-0.6 0-0.1 0-0.1 0.3 0 0.4 0 1.2 0.1 0.8 0.1 1.3 0 0.1 0 0.1-0.1 0-0.2 0-0.4 0-1.1 0-0.9 0-1 0-0.2-0.1-0.2-0.2 0-0.7 0.1-2 0-1.3 0-2 0-2.5-0.1-3.9v-0.1q0-0.1 0.2-0.1 0.2 0 1.8-0.1 1.1 0 1.8 0 1.3 0 2.2 0.6 1 0.7 0.9 2 0.1 0.9-0.2 1.4-0.3 0.5-0.9 1-0.2 0.1-0.2 0.2 0 0 0.8 1.5 0.7 1.5 0.7 1.6zm-2.5-5.3q0-0.7-0.5-1-0.4-0.2-1.1-0.2-0.6 0-0.6 0.1-0.1 0.2-0.1 1.2 0 0.1 0 0.4 0 0.3 0 0.4 0 0 0.2 0.1 0.4 0 0.8 0 1.3 0 1.3-1z"/>
						<path class="s2" d="m42.1 7.9q0 0.6-0.4 1-0.4 0.4-1 0.4-0.6 0-1-0.4-0.4-0.4-0.4-1 0-0.6 0.4-1 0.4-0.4 1-0.4 0.6 0 1 0.4 0.4 0.4 0.4 1z"/>
						<path class="s2" d="m32 20.1q0 0.2-0.2 0.2h-2.1q-0.2 0-0.2-0.3 0-0.6 0.1-1.8 0-1.2 0-1.8 0-0.1 0-0.1-0.1 0-0.8 1.8-0.5 1.1-0.9 2.1 0 0.2-0.1 0.2-0.1 0-0.3 0-0.3 0-0.3-0.1-0.4-0.7-0.9-1.9-0.5-1.4-0.8-2 0 0-0.1 0 0 0 0 0.1 0 0.6 0 1.8 0 1.2 0 1.7 0 0.3-0.1 0.3h-2q-0.1 0-0.2-0.1 0 0 0-0.1 0-0.7 0.1-2 0-1.3 0-1.9 0-0.7 0-2.6 0-0.5-0.1-1.5v-0.1q0-0.1 0.3-0.1 0.3 0 0.9 0 0.7 0 1 0 0.1 0 0.2 0.2l1.7 3.8q0.2 0.4 0.3 0.4 0.1 0 0.3-0.4 0.6-1.3 1.8-3.8 0.1-0.2 0.2-0.2 0.2 0 0.5 0 0.4 0 0.6 0 0.1 0 0.4 0 0.3 0 0.5 0 0.2 0 0.2 0.1 0 0.7-0.1 2.1 0 1.4 0 2.1 0 0.6 0 1.9 0.1 1.3 0.1 2z"/>
						<path class="s2" d="m41 16.1q0.1 1.9-1.1 3.1-1.2 1.3-3.1 1.3-1.8 0-3-1.3-1.2-1.3-1.2-3.1 0-1.8 1.2-3.1 1.2-1.3 3-1.3 1.8 0 3 1.3 1.2 1.3 1.2 3.1zm-2.2 0q0-0.9-0.6-1.5-0.5-0.7-1.4-0.7c-0.6 0-1 0.2-1.4 0.7q-0.6 0.7-0.6 1.5 0 0.9 0.6 1.5 0.5 0.7 1.4 0.7 0.9 0 1.4-0.7 0.6-0.7 0.6-1.5z"/>
						<path class="s2" d="m49.6 20.1q0 0.1 0 0.1-0.1 0-0.2 0.1-0.4 0-1 0-1 0-1.1 0-0.2-0.1-0.2-0.2 0-0.5 0-1.4 0.1-1 0.1-1.4 0-0.2-0.1-0.3-0.2 0-1.5 0-1.2 0-1.4 0-0.2 0-0.2 0.3 0 0.4 0.1 1.4 0 0.9 0 1.4 0 0.1-0.2 0.2-0.2 0-1.1 0-0.8 0-1 0-0.2-0.1-0.2-0.2 0-0.6 0.1-2 0-1.2 0-1.9 0-0.7 0-2.1-0.1-1.3-0.1-2 0-0.2 0.1-0.2 0.2 0 0.6 0.1 0.4 0 0.6 0 0.2 0 0.5 0 0.4-0.1 0.6-0.1 0.1 0 0.1 0.1 0 0.5-0.1 1.4 0 0.9 0 1.3 0 0.2 0.1 0.2 0.1 0.1 1.5 0.1 1.3 0 1.5-0.1 0.1 0 0.1-0.2 0-0.4 0-1.3-0.1-0.8-0.1-1.3 0-0.2 0.2-0.2 0.2 0 0.5 0.1 0.4 0 0.5 0 0.2 0 0.6 0 0.3-0.1 0.5-0.1 0.2 0 0.2 0.2 0 0.7-0.1 2 0 1.4 0 2.1 0 0.7 0 1.9 0.1 1.3 0.1 2z"/>
						<path class="s2" d="m58.2 20.1q0 0.1-0.1 0.2-0.2 0-1.1 0-0.9 0-1.1 0-0.2-0.1-0.3-0.3-0.2-0.9-0.3-0.9-0.1-0.1-1.6-0.1-1 0-1.1 0.1-0.1 0.1-0.2 0.6-0.1 0.5-0.3 0.6-0.2 0-1.3 0-0.9 0-0.9-0.2 0-0.1 1.3-3.8 1.5-3.9 1.6-4.3 0.1-0.2 0.2-0.2 0.1 0 0.5 0 0.3 0 0.5 0 0.1 0.1 0.4 0 0.4 0 0.5 0 0.1 0 0.2 0.2 0.3 0.6 1.7 4.3 1.4 3.7 1.4 3.8zm-4.2-5.4q-0.1 0.3-0.4 1.1-0.3 1-0.3 1.1 0 0.1 0.3 0.1 0.2 0.1 0.7 0.1 0.4 0 0.4-0.1 0-0.1 0-0.1 0-0.2-0.3-1.1-0.2-0.8-0.4-1.1z"/>
						<path class="s2" d="m67.4 20.1q0 0.2-0.2 0.2h-2.1q-0.1 0-0.1-0.3 0-0.6 0-1.8 0.1-1.2 0.1-1.8-0.1-0.1-0.1-0.1-0.1 0-0.8 1.8-0.4 1.1-0.9 2.1 0 0.2-0.1 0.2 0 0-0.2 0-0.4 0-0.4-0.1-0.3-0.7-0.9-1.9-0.5-1.4-0.8-2 0 0 0 0-0.1 0-0.1 0.1 0 0.6 0 1.8 0.1 1.2 0.1 1.7 0 0.3-0.2 0.3h-2q-0.1 0-0.1-0.1-0.1 0-0.1-0.1 0-0.7 0.1-2 0.1-1.3 0.1-1.9 0-0.7-0.1-2.6 0-0.5-0.1-1.5v-0.1q0-0.1 0.3-0.1 0.3 0 1 0 0.6 0 0.9 0 0.1 0 0.2 0.2l1.8 3.8q0.1 0.4 0.3 0.4 0 0 0.3-0.4 0.5-1.3 1.7-3.8 0.1-0.2 0.3-0.2 0.1 0 0.5 0 0.3 0 0.5 0 0.2 0 0.5 0 0.3 0 0.4 0 0.2 0 0.2 0.1 0 0.7-0.1 2.1 0 1.4 0 2.1 0 0.6 0 1.9 0.1 1.3 0.1 2z"/>
						<path class="s2" d="m74.3 18.4q0 0.3-0.1 1-0.1 0.7-0.2 0.9-0.1 0.1-0.2 0.1 0 0-0.2-0.1-0.4 0-2.5 0-0.5 0-1.4 0-0.9 0-1.3 0-0.2 0-0.2-0.2 0-0.7 0-2 0.1-1.3 0.1-2 0-0.7-0.1-2.5 0-0.5 0-1.4v-0.1q0-0.2 0.1-0.2 0.5 0 1.3 0.1 0.9 0 1.4 0 0.4 0 1.3 0 0.8-0.1 1.3-0.1 0.3 0 0.3 0.3 0.1 0.1 0.1 0.8 0.1 0.7 0.1 0.8 0 0.2-0.1 0.2-0.1 0-0.2 0-1.5-0.2-2.8-0.2-0.3 0-0.4 0.2 0 0.1 0 0.4 0 0.4 0.1 0.6 0.1 0.1 0.4 0.1 0.1 0 0.2 0 0.2 0 0.3 0 0.8 0 1.5 0 0.1 0 0.4-0.1 0.2 0 0.3 0 0.1 0 0.1 0.1 0-0.1-0.1 1 0 0.4 0 0.9 0 0.1-0.2 0.1h-0.5q-0.4-0.1-1.6-0.1h-0.6q-0.3 0-0.3 0.1 0 0.1 0 0.4 0 0.5 0 0.6 0.2 0.2 0.8 0.3 0 0 0.9 0 0.3 0 0.9-0.1 0.6-0.1 0.9-0.1 0.2 0 0.2 0.3z"/>
						<path class="s2" d="m82.5 16.1q0 1.7-1.1 3-1 1.1-2.8 1.2-0.3 0-1.9 0-0.3 0-0.9 0-0.5 0-0.8 0-0.2 0-0.2-0.2 0-0.6 0-1.9 0.1-1.4 0.1-2c0-0.4 0-1.1-0.1-2.1q0-1.3 0-2 0-0.1 0.2-0.1 0.4-0.1 1.4-0.1 1.8 0 2.3 0.1 1.4 0.1 2.2 0.7 0.8 0.5 1.2 1.5 0.4 0.9 0.4 1.8zm-2.2 0q0-1-0.6-1.6-0.6-0.7-1.6-0.7-0.9 0-0.9 0.3 0 0.3-0.1 1 0 0.7 0 1.1 0 0.3 0 1 0 0.7 0.1 1.1 0 0.2 0.9 0.2 1 0 1.6-0.6 0.6-0.7 0.6-1.8z"/>
						<path class="s2" d="m93.7 20.1q0 0.1-0.1 0.2-0.2 0-1.1 0-0.9 0-1.1 0-0.2-0.1-0.3-0.3-0.2-0.9-0.3-0.9-0.1-0.1-1.6-0.1-1 0-1.1 0.1-0.1 0.1-0.2 0.6-0.1 0.5-0.3 0.6-0.2 0-1.3 0-0.9 0-0.9-0.2 0-0.1 1.3-3.8 1.5-3.9 1.6-4.3 0.1-0.2 0.2-0.2 0.1 0 0.5 0 0.3 0 0.5 0 0.1 0.1 0.4 0 0.3 0 0.5 0 0.1 0 0.2 0.2 0.3 0.6 1.7 4.3 1.4 3.7 1.4 3.8zm-4.2-5.4q-0.1 0.3-0.4 1.1-0.3 1-0.3 1.1 0 0.1 0.4 0.1 0.1 0.1 0.6 0.1 0.4 0 0.4-0.1 0-0.1 0-0.1 0-0.2-0.3-1.1-0.2-0.8-0.4-1.1z"/>
						<path class="s2" d="m98.1 17.5q0 1.2-1 2.1-0.9 0.8-2.2 1 0 0-0.1 0-0.1 0-0.6-0.9-0.5-0.8-0.4-1 0-0.1 0-0.1 0.9-0.2 1.2-0.3 0.6-0.3 0.6-0.9 0-0.4-0.4-0.9-0.7-0.8-0.8-0.9-0.4-0.6-0.4-1.3 0-1.1 1-1.9 0.9-0.6 2.1-0.7 0 0 0 0 0.1 0 0.2 0.1 0.1 0.4 0.7 1.6 0 0 0 0 0 0.1-0.1 0.1 0 0-0.1 0-0.2 0-0.2 0-0.4 0-0.8 0.2-0.4 0.2-0.4 0.6 0 0.4 0.5 0.9 0.7 1 0.8 1 0.4 0.7 0.4 1.3z"/>
						<path class="s2" d="m102.8 17.5q0 1.2-1 2.1-0.9 0.8-2.2 1 0 0 0 0-0.2 0-0.6-0.9-0.5-0.8-0.5-1 0-0.1 0.1-0.1 0.8-0.2 1.1-0.3 0.6-0.3 0.6-0.9 0-0.4-0.4-0.9-0.7-0.8-0.7-0.9-0.4-0.6-0.4-1.3 0-1.1 1-1.9 0.8-0.6 2-0.7 0 0 0.1 0 0.1 0 0.1 0.1 0.2 0.4 0.7 1.6 0.1 0 0.1 0 0 0.1-0.2 0.1 0 0-0.1 0-0.1 0-0.2 0-0.4 0-0.7 0.2-0.4 0.2-0.4 0.6 0 0.4 0.4 0.9 0.8 1 0.8 1 0.4 0.7 0.4 1.3z"/>
						<path class="s2" d="m109.6 18.4q0 0.3-0.1 1-0.1 0.7-0.2 0.9-0.1 0.1-0.2 0.1 0 0-0.2-0.1-0.4 0-2.5 0-0.5 0-1.4 0-0.9 0-1.3 0-0.2 0-0.2-0.2 0-0.7 0-2 0.1-1.3 0.1-2 0-0.7-0.1-2.5 0-0.5 0-1.4v-0.1q0-0.2 0.1-0.2 0.5 0 1.3 0.1 0.9 0 1.4 0 0.4 0 1.3 0 0.8-0.1 1.3-0.1 0.3 0 0.3 0.3 0.1 0.1 0.1 0.8 0.1 0.7 0.1 0.8 0 0.2-0.1 0.2-0.1 0-0.2 0-1.5-0.2-2.8-0.2-0.3 0-0.4 0.2 0 0.1 0 0.4 0 0.4 0.1 0.6 0.1 0.1 0.4 0.1 0.1 0 0.2 0 0.2 0 0.3 0 0.8 0 1.5 0 0.1 0 0.4-0.1 0.2 0 0.3 0 0.1 0 0.1 0.1 0-0.1-0.1 1 0 0.4 0 0.9 0 0.1-0.2 0.1h-0.5q-0.4-0.1-1.6-0.1h-0.6q-0.3 0-0.3 0.1 0 0.1 0 0.4 0 0.5 0 0.6 0.2 0.2 0.8 0.3 0 0 0.9 0 0.3 0 0.9-0.1 0.6-0.1 0.9-0.1 0.2 0 0.2 0.3z"/>
						<path class="s2" d="m119 20.1q-0.1 0.2-0.2 0.2h-2.1q-0.2 0-0.2-0.3 0-0.6 0.1-1.8 0-1.2 0-1.8 0-0.1-0.1-0.1 0 0-0.8 1.8-0.4 1.1-0.8 2.1-0.1 0.2-0.2 0.2 0 0-0.2 0-0.3 0-0.4-0.1-0.3-0.7-0.8-1.9-0.6-1.4-0.9-2 0 0 0 0-0.1 0 0 0.1-0.1 0.6 0 1.8 0 1.2 0 1.7 0 0.3-0.2 0.3h-1.9q-0.2 0-0.2-0.1 0 0 0-0.1 0-0.7 0-2 0.1-1.3 0.1-1.9 0-0.7-0.1-2.6 0-0.5 0-1.5v-0.1q0-0.1 0.2-0.1 0.4 0 1 0 0.7 0 1 0 0 0 0.2 0.2l1.7 3.8q0.2 0.4 0.3 0.4 0.1 0 0.3-0.4 0.6-1.3 1.8-3.8 0.1-0.2 0.2-0.2 0.2 0 0.5 0 0.4 0 0.5 0 0.2 0 0.5 0 0.3 0 0.4 0 0.2 0 0.2 0.1 0 0.7 0 2.1-0.1 1.4-0.1 2.1 0 0.6 0.1 1.9 0 1.3 0 2z"/>
					</g>
					<g>
						<path class="s2" d="m27.3 23.7q0 0.1-0.1 0.1-0.1 0-1.3-0.1-0.1 1.2-0.1 1.9 0 0.4 0.1 1.2 0 0.9 0 1.3 0 0.1-0.1 0.1-0.1 0-0.2 0-0.2 0-0.2 0-0.1 0-0.2 0-0.2 0-0.2 0-0.1 0-0.1-0.1 0-0.4 0-1.3 0-0.8 0.1-1.2 0-0.7-0.1-1.9-1 0.1-1.4 0.1 0 0 0 0 0-0.1 0-0.2 0-0.2 0.1-0.2 0-0.2 0-0.4 0 0 0.1 0 1.3 0 1.7 0 0.4 0 1.2 0 0.6-0.1 0.5-0.1 0.1 0 0.1 0.1 0 0 0 0.4 0 0 0 0.1 0.1 0.1 0 0.2z"/>
						<path class="s2" d="m32.5 28.1q0 0.1-0.1 0.1-0.1 0-0.2 0-0.2 0-0.2 0-0.1 0-0.2 0-0.2 0-0.2 0-0.1 0-0.1-0.1 0-0.3 0-1 0-0.7 0-1 0-0.1-0.1-0.2-0.1 0-1.3 0-1.2 0-1.3 0 0 0 0 0.2-0.1 0.3 0 1 0 0.6 0 1 0 0.1-0.1 0.1-0.1 0-0.2 0-0.2 0-0.2 0-0.1 0-0.2 0-0.1 0-0.2 0-0.1 0-0.1-0.1 0-0.4 0-1.2 0.1-0.9 0.1-1.3 0-0.4-0.1-1.3 0-0.8 0-1.2 0-0.1 0.1-0.1 0 0 0.2 0 0.1 0 0.2 0 0.1 0 0.2 0 0.1 0 0.2 0 0.1 0 0.1 0 0 0.4 0 1-0.1 0.6-0.1 1 0 0.1 0.1 0.1 0.1 0 1.3 0 1.2 0 1.3 0 0.1 0 0.1-0.2 0-0.3 0-0.9 0-0.6 0-0.9 0-0.1 0.1-0.1 0 0 0.2 0 0.1 0 0.2 0 0.1 0 0.2 0 0.1 0 0.2 0 0.1 0 0.1 0.1 0 0.4 0 1.3-0.1 0.8-0.1 1.2 0 0.4 0.1 1.3 0 0.8 0 1.2z"/>
						<path class="s2" d="m36.8 27.4c0 0 0 0.1 0 0.2q0 0.1 0 0.2 0 0.1-0.1 0.4 0 0-0.1 0 0 0-0.1 0-0.5 0-1.4 0-0.3 0-0.9 0-0.5 0-0.8 0-0.1 0-0.1-0.1 0-0.4 0-1.3 0.1-0.8 0.1-1.2 0-0.4-0.1-1.6 0-0.3 0-0.9 0-0.1 0.1-0.1 0.3 0 0.8 0 0.5 0 0.8 0 0.2 0 0.7 0 0.5 0 0.7 0 0.2 0 0.2 0.1 0.1 0.5 0.1 0.6 0 0.1-0.1 0.1-0.3 0-0.9-0.1-0.7 0-1 0-0.3 0-0.4 0.1 0 0.1 0 0.4v0.5q-0.1 0.3 0 0.3 0 0.1 0.1 0.1 0.1 0 0.2 0h0.1q0.7 0 1.3 0 0.2 0 0.6-0.1 0 0 0 0.1 0 0.1 0 0.4 0 0.2 0 0.3 0 0.1-0.1 0.1-0.1 0-0.4 0-0.2 0-0.9 0-0.6 0-0.8 0-0.1 0-0.2 0.1 0 0 0 0.3v0.6q0 0.4 0.2 0.5 0.1 0 0.4 0h0.4q0.3 0 1.5 0h0.1c0 0 0 0 0 0z"/>
						<path class="s2" d="m43.7 24.9q0 0.9-0.5 1.4-0.5 0.5-1.3 0.5-0.2 0-0.7 0-0.4 0-0.6 0-0.1 0-0.1 0.1 0 0.2 0 0.6 0 0.4 0 0.6 0 0.1-0.1 0.1 0 0-0.2 0-0.2 0-0.2-0.1-0.1 0-0.2 0.1-0.2 0-0.2 0-0.1 0-0.1-0.2 0-0.4 0-1.2 0.1-0.8 0.1-1.2 0-1.2-0.1-2.5 0-0.1 0.1-0.1 0.2 0 0.6 0 0.4 0 0.6 0 0.1 0 0.5 0 0.3-0.1 0.5-0.1 0.8 0 1.4 0.6 0.5 0.5 0.5 1.4zm-1 0q0-0.5-0.3-0.9-0.3-0.3-0.8-0.3-0.2 0-0.6 0-0.5 0-0.5 0.1-0.1 0-0.1 1.3 0 0.1 0 0.4 0 0.3 0 0.5 0 0 0.1 0 0.2 0.1 1.1 0.1 0.6 0 0.8-0.3 0.3-0.4 0.3-0.9z"/>
						<path class="s2" d="m47.8 27.4c0 0 0 0.1 0 0.2q0 0.1 0 0.2 0 0.1-0.1 0.4 0 0-0.1 0 0 0-0.1 0-0.5 0-1.4 0-0.3 0-0.9 0-0.5 0-0.8 0-0.1 0-0.1-0.1 0-0.4 0-1.3 0.1-0.8 0.1-1.2 0-0.4-0.1-1.6 0-0.3 0-0.9 0-0.1 0.1-0.1 0.3 0 0.8 0 0.5 0 0.8 0 0.2 0 0.7 0 0.5 0 0.7 0 0.2 0 0.2 0.1 0.1 0.5 0.1 0.6 0 0.1-0.1 0.1-0.3 0-0.9-0.1-0.7 0-1 0-0.3 0-0.4 0.1 0 0.1 0 0.4v0.5q-0.1 0.3 0 0.3 0 0.1 0.1 0.1 0.1 0 0.2 0h0.1q0.7 0 1.3 0 0.2 0 0.6-0.1 0 0 0 0.1 0 0.1 0 0.4 0 0.2 0 0.3 0 0.1-0.1 0.1-0.1 0-0.4 0-0.2 0-0.9 0-0.6 0-0.8 0-0.1 0-0.2 0.1 0 0 0 0.3v0.6q0 0.4 0.2 0.5 0.1 0 0.4 0h0.4q0.3 0 1.5 0h0.1c0 0 0 0 0 0z"/>
						<path class="s2" d="m52.5 28.1q0 0.1-0.1 0.1 0 0-0.2 0-0.1 0-0.2 0-0.1 0-0.2 0-0.2 0-0.2 0-0.1 0-0.2-0.1-0.1-0.3-0.6-1.6-0.1-0.1-0.3-0.1-0.1 0-0.4 0-0.5 0-0.6 0 0 0-0.1 0.2 0 0.2 0.1 0.8 0 0.5 0 0.7 0 0.1-0.1 0.1-0.1 0-0.2 0-0.2 0-0.2 0-0.1 0-0.2 0-0.2 0-0.2 0-0.1 0-0.1-0.1 0-0.4 0-1.2 0.1-0.9 0.1-1.3 0-1.2-0.1-2.5c0 0 0-0.1 0.1-0.1q0.4 0 1 0 0.6 0 1 0 0.8 0 1.3 0.3 0.5 0.5 0.5 1.3 0 0.5-0.1 0.8-0.2 0.4-0.6 0.7-0.1 0-0.1 0.1 0 0 0.5 1 0.4 0.9 0.4 1zm-1-3.4q0-0.7-0.4-0.9-0.3-0.2-1-0.2-0.6 0-0.6 0.1-0.1 0.2-0.1 1.1v0.7q0 0 0.1 0 0 0 0.2 0 0.3 0 0.7 0.1 1.1 0 1.1-0.9z"/>
						<path class="s2" d="m56.7 23.7c0 0-0.1 0.1-0.1 0.1q-0.3 0-1 0-0.6-0.1-0.9 0h-0.3q-0.2-0.1-0.3 0 0 0 0 0.2v0.9q0 0.2 0.1 0.2 0.3 0 1.1 0 0.7 0 1.1 0 0 0 0 0 0 0.1 0 0.2 0 0.2 0 0.2 0 0.1 0 0.2 0 0.2 0 0.2 0 0.1 0 0.1-0.3 0-0.8-0.1-0.5 0-0.8 0-0.5 0-0.5 0-0.2 0-0.2 0.2 0 0.3 0 1 0 0.6 0 1 0 0.1-0.1 0.1 0 0-0.2 0-0.1-0.1-0.2-0.1-0.1 0-0.2 0-0.1 0.1-0.2 0.1-0.1 0-0.1-0.1 0-0.4 0.1-1.3 0-0.8 0-1.2 0-0.4-0.1-2.5 0-0.1 0.1-0.1 0.1 0 0.5 0 0.6 0 1.1 0 0.6 0 1.7-0.1 0.1 0 0.1 0.1 0 0.1 0 0.3 0.1 0.3 0.1 0.4z"/>
						<path class="s2" d="m60.8 27.4c0 0 0 0.1-0.1 0.2q0 0.1 0 0.2 0 0.1-0.1 0.4 0 0-0.1 0 0 0-0.1 0-0.5 0-1.4 0-0.3 0-0.8 0-0.6 0-0.9 0-0.1 0-0.1-0.1 0-0.4 0.1-1.3 0-0.8 0-1.2 0-0.4 0-1.6 0-0.3-0.1-0.9 0-0.1 0.1-0.1 0.3 0 0.8 0 0.5 0 0.8 0 0.2 0 0.7 0 0.5 0 0.8 0 0.1 0 0.2 0.1 0 0.5 0 0.6 0 0.1 0 0.1-0.4 0-1-0.1-0.7 0-1 0-0.3 0-0.3 0.1-0.1 0.1-0.1 0.4v0.5q0 0.3 0 0.3 0 0.1 0.2 0.1 0 0 0.1 0h0.1q0.8 0 1.3 0 0.3 0 0.6-0.1 0 0 0.1 0.1 0 0.1-0.1 0.4 0 0.2 0 0.3 0 0.1-0.1 0.1-0.1 0-0.3 0-0.3 0-1 0-0.6 0-0.8 0-0.1 0-0.1 0.1 0 0 0 0.3v0.6q0 0.4 0.1 0.5 0.1 0 0.4 0h0.5q0.2 0 1.4 0h0.1c0 0 0 0 0.1 0z"/>
						<path class="s2" d="m65.5 27.3c0 0 0 0.1-0.1 0.2q-0.7 0.8-1.7 0.8c-0.8 0-1.4-0.3-1.8-0.8q-0.7-0.8-0.6-1.9-0.1-1.1 0.6-1.9 0.7-0.8 1.8-0.8 1.1 0 1.7 0.7 0.1 0.1 0.1 0.2 0 0-0.2 0.3-0.2 0.4-0.3 0.3 0 0-0.2-0.1-0.2-0.3-0.4-0.4-0.3-0.1-0.7-0.1-0.7 0-1.1 0.5-0.4 0.5-0.4 1.3 0 0.7 0.4 1.3 0.4 0.5 1.1 0.5 0.4 0 0.7-0.2 0.2-0.1 0.4-0.3 0.2-0.2 0.3-0.2 0 0 0.2 0.3 0.2 0.3 0.2 0.4z"/>
						<path class="s2" d="m69.5 23.7q0 0.1-0.1 0.1-0.1 0-1.3-0.1-0.1 1.2-0.1 1.9 0 0.4 0.1 1.2 0 0.9 0 1.3 0 0.1-0.1 0.1-0.1 0-0.2 0-0.1 0-0.2 0-0.1 0-0.2 0-0.2 0-0.2 0-0.1 0-0.1-0.1 0-0.4 0-1.3 0.1-0.8 0.1-1.2 0-0.7-0.1-1.9-0.9 0.1-1.4 0.1 0 0 0 0 0-0.1 0-0.2 0.1-0.2 0.1-0.2 0-0.2 0-0.4 0 0 0.1 0 1.3 0 1.7 0 0.4 0 1.2 0 0.6-0.1 0.5-0.1 0.1 0 0.1 0.1 0 0 0 0.4 0 0 0.1 0.1 0 0.1 0 0.2z"/>
						<path class="s2" d="m76.5 25.6q0 1-0.5 1.8-0.7 0.8-1.7 0.8-0.2 0-0.6 0-0.4 0-0.6 0-0.1 0-0.5 0-0.3 0-0.5 0-0.1 0-0.1-0.1 0-0.4 0-1.2 0-0.8 0-1.3 0-0.4 0-1.3 0-0.8 0-1.3 0 0 0.1 0 0.1 0 0.4 0 0.3 0 0.4 0 0.1 0 0.4 0 0.3 0 0.4 0 1.3 0 1.9 0.5 0.5 0.3 0.7 0.9 0.2 0.6 0.2 1.1zm-0.9 0q0-0.7-0.4-1.3-0.5-0.5-1.3-0.5-0.7 0-0.5 0-0.5 0-0.5 0.2 0 0.3 0 0.8 0 0.6 0 0.9 0 0.3 0 0.8 0 0.6 0 0.9 0 0.1 0.5 0.2-0.1 0 0.5 0 0.4 0 0.7-0.1 0.3-0.1 0.6-0.4 0.4-0.6 0.4-1.4z"/>
						<path class="s2" d="m80.8 27.4c0 0 0 0.1-0.1 0.2q0 0.1 0 0.2 0 0.1-0.1 0.4 0 0-0.1 0 0 0-0.1 0-0.5 0-1.4 0-0.3 0-0.8 0-0.6 0-0.9 0-0.1 0-0.1-0.1 0-0.4 0.1-1.3 0-0.8 0-1.2 0-0.4 0-1.6 0-0.3-0.1-0.9 0-0.1 0.1-0.1 0.3 0 0.8 0 0.5 0 0.8 0 0.2 0 0.7 0 0.5 0 0.8 0 0.1 0 0.2 0.1 0 0.5 0 0.6 0 0.1 0 0.1-0.4 0-1-0.1-0.6 0-1 0-0.3 0-0.3 0.1-0.1 0.1-0.1 0.4v0.5q0 0.3 0 0.3 0 0.1 0.2 0.1 0 0 0.1 0h0.1q0.8 0 1.4 0 0.2 0 0.5-0.1 0.1 0 0.1 0.1 0 0.1-0.1 0.4 0 0.2 0 0.3 0 0.1-0.1 0.1-0.1 0-0.3 0-0.2 0-1 0-0.6 0-0.8 0-0.1 0-0.1 0.1 0 0 0 0.3v0.6q0 0.4 0.1 0.5 0.1 0 0.5 0h0.4q0.2 0 1.4 0h0.1c0 0 0 0 0 0z"/>
						<path class="s2" d="m86.1 23.1q0 0.4 0 1.2-0.1 0.9-0.1 1.3 0 0.4 0 1.2 0 0.8 0 1.2 0 0.2-0.1 0.2 0 0-0.1 0-0.1 0-0.2-0.1-0.1 0-0.2 0.1-0.1 0-0.2 0 0 0-0.1-0.2-0.8-1-2.5-3.2-0.2-0.3-0.2-0.3-0.1 0-0.1 0.1 0 0.6 0 1.7 0.1 1.2 0.1 1.8 0 0.1-0.1 0.1-0.1 0-0.2 0-0.1 0-0.2 0-0.1 0-0.2 0-0.1 0-0.2 0-0.1 0-0.1-0.1 0-0.4 0.1-1.2 0-0.8 0-1.3 0-0.4 0-1.6 0-0.3-0.1-0.9c0 0 0-0.1 0.1-0.1q0.3 0 0.4 0 0 0 0.2-0.1 0.1 0 0.2 0 0 0 0.1 0.1 0.9 1.2 2.6 3.5 0.1 0.1 0.2 0.2 0-0.2 0-0.7 0-0.5 0-1.5-0.1-0.9-0.1-1.4 0-0.1 0.1-0.1 0.1 0 0.2 0 0.1 0 0.2 0 0.1 0 0.2 0 0.2 0 0.2 0 0.1 0 0.1 0z"/>
						<path class="s2" d="m90.4 23.7q0 0.1 0 0.1-0.2 0-1.4-0.1 0 1.2 0 1.9 0 0.4 0 1.2 0.1 0.9 0.1 1.3 0 0.1-0.1 0.1-0.1 0-0.2 0-0.2 0-0.3 0 0 0-0.2 0-0.1 0-0.2 0 0 0 0-0.1 0-0.4 0-1.3 0-0.8 0-1.2 0-0.7 0-1.9-1 0.1-1.4 0.1-0.1 0-0.1 0 0-0.1 0.1-0.2 0-0.2 0-0.2 0-0.2 0.1-0.4 0 0 0 0h0.1q1.3 0 1.7 0 0.4 0 1.2 0 0.6-0.1 0.5-0.1 0.1 0 0.1 0.1 0 0 0 0.4 0 0 0 0.1 0 0.1 0 0.2z"/>
						<path class="s2" d="m95.5 28.1c0 0 0 0.1 0 0.1q-0.1 0-0.3 0-0.1 0-0.2 0 0 0-0.2 0-0.1 0-0.2 0-0.1 0-0.2-0.6-0.2-0.6-0.4-0.6-0.1 0.1-0.7 0h-0.6q-0.6 0.1-0.7 0-0.1 0.1-0.3 0.6-0.1 0.6-0.2 0.6h-0.8c0 0-0.1 0-0.1-0.1q0 0 0-0.1l1-2.5q0.1-0.3 0.7-1.8 0.1-0.2 0.2-0.7 0.1-0.1 0.1-0.1 0.1 0 0.2 0 0.2 0 0.2 0 0.1 0 0.3 0 0.1 0 0.2 0 0 0 0 0.1 0.1 0.2 0.9 2.3 1.1 2.8 1.1 2.8zm-1.7-2q0-0.1-0.3-1-0.3-0.8-0.5-1.1-0.7 2-0.7 2.1 0 0.1 0.2 0.1 0 0 0.4 0h0.4q0.5 0 0.5-0.1z"/>
						<path class="s2" d="m99.5 27.4q0 0.5 0 0.7 0 0.1-0.1 0.1-0.3 0-0.9 0-0.5 0-0.8 0-0.2 0-0.8 0-0.5 0-0.7 0-0.1 0-0.1-0.1 0-0.4 0-1.2 0-0.8 0-1.3 0-0.4 0-1.2-0.1-0.9-0.1-1.3 0-0.1 0.1-0.1 0.1 0 0.2 0 0.2 0 0.2 0 0.1 0 0.2 0 0.2 0 0.3 0 0 0 0 0.1 0.1 0.4 0 1.2 0 0.7 0 1.1v0.6q0 0.4 0 0.6 0 0.8 0.1 0.8 1.3 0 2 0 0.1 0 0.2-0.1 0.1 0 0.2 0 0 0 0 0.1z"/>
						<path class="s2" d="m106.2 27.3c0 0-0.1 0.1-0.1 0.2q-0.7 0.8-1.8 0.8c-0.7 0-1.3-0.3-1.8-0.8q-0.6-0.8-0.6-1.9 0-1.1 0.6-1.9 0.7-0.8 1.8-0.8 1.1 0 1.8 0.7 0 0.1 0 0.2 0 0-0.2 0.3-0.2 0.4-0.2 0.3-0.1 0-0.2-0.1-0.3-0.3-0.5-0.4-0.3-0.1-0.7-0.1-0.7 0-1.1 0.5-0.4 0.5-0.4 1.3 0 0.7 0.4 1.3 0.4 0.5 1.1 0.5 0.4 0 0.7-0.2 0.3-0.1 0.5-0.3 0.2-0.2 0.2-0.2 0 0 0.2 0.3 0.3 0.3 0.3 0.4z"/>
						<path class="s2" d="m111.2 28.1c0 0 0 0.1-0.1 0.1q0 0-0.2 0-0.1 0-0.2 0 0 0-0.2 0-0.1 0-0.2 0-0.1 0-0.3-0.6-0.1-0.6-0.3-0.6-0.1 0.1-0.7 0h-0.6q-0.6 0.1-0.7 0-0.1 0.1-0.3 0.6-0.1 0.6-0.2 0.6h-0.8c0 0-0.1 0-0.1-0.1q0 0 0-0.1l0.9-2.5q0.2-0.3 0.7-1.8 0.1-0.2 0.3-0.7 0.1-0.1 0.1-0.1 0.1 0 0.2 0 0.2 0 0.2 0 0.1 0 0.2 0 0.2 0 0.2 0 0.1 0 0.1 0.1 0.1 0.2 0.9 2.3 1.1 2.8 1.1 2.8zm-1.7-2q0-0.1-0.3-1-0.3-0.8-0.5-1.1-0.7 2-0.7 2.1-0.1 0.1 0.2 0.1 0 0 0.4 0h0.4q0.5 0 0.5-0.1z"/>
						<path class="s2" d="m115.8 28.1q0 0.1-0.1 0.1-0.1 0-0.2 0-0.2 0-0.2 0-0.1 0-0.3 0-0.1 0-0.2 0-0.1 0-0.1-0.1-0.1-0.3-0.7-1.6-0.1-0.1-0.3-0.1 0 0-0.3 0-0.5 0-0.6 0-0.1 0-0.1 0.2 0 0.2 0 0.8 0 0.5 0 0.7 0 0.1 0 0.1-0.1 0-0.2 0-0.2 0-0.3 0 0 0-0.2 0-0.1 0-0.2 0 0 0 0-0.1-0.1-0.4 0-1.2 0-0.9 0-1.3 0-1.2-0.1-2.5c0 0 0.1-0.1 0.2-0.1q0.3 0 1 0 0.6 0 0.9 0 0.8 0 1.3 0.3 0.6 0.5 0.6 1.3 0 0.5-0.2 0.8-0.1 0.4-0.6 0.7 0 0 0 0.1 0 0 0.4 1 0.4 0.9 0.5 1zm-1.1-3.4q0-0.7-0.4-0.9-0.2-0.2-1-0.2-0.6 0-0.6 0.1 0 0.2 0 1.1v0.7q0 0 0 0 0.1 0 0.2 0 0.4 0 0.8 0.1 1 0 1-0.9z"/>
						<path class="s2" d="m119.9 27.4c0 0 0 0.1-0.1 0.2q0 0.1 0 0.2 0 0.1-0.1 0.4 0 0 0 0-0.1 0-0.2 0-0.4 0-1.4 0-0.3 0-0.8 0-0.6 0-0.8 0-0.2 0-0.2-0.1 0-0.4 0.1-1.3 0-0.8 0-1.2 0-0.4 0-1.6 0-0.3-0.1-0.9 0-0.1 0.1-0.1 0.3 0 0.8 0 0.5 0 0.8 0 0.2 0 0.7 0 0.5 0 0.8 0 0.2 0 0.2 0.1 0 0.5 0 0.6 0 0.1 0 0.1-0.3 0-1-0.1-0.6 0-1 0-0.3 0-0.3 0.1-0.1 0.1-0.1 0.4v0.5q0 0.3 0 0.3 0 0.1 0.2 0.1 0 0 0.1 0h0.1q0.8 0 1.4 0 0.2 0 0.5-0.1 0.1 0 0.1 0.1 0 0.1-0.1 0.4 0 0.2 0 0.3 0 0.1-0.1 0.1 0 0-0.3 0-0.2 0-1 0-0.6 0-0.8 0-0.1 0-0.1 0.1 0 0 0 0.3v0.6q0 0.4 0.1 0.5 0.1 0 0.5 0h0.4q0.2 0 1.4 0h0.1c0 0 0.1 0 0.1 0z"/>
					</g>
				</g>
			</g>
		</g>
	</g>
</svg>