<svg version="1.2" xmlns="http://www.w3.org/2000/svg" viewBox="0 0 89 81" width="89" height="81">
	<title>66</title>
	<defs>
		<linearGradient id="g1" x2="1" gradientUnits="userSpaceOnUse" gradientTransform="matrix(62.54,0,0,96.807,26.02,37.47)">
			<stop offset="0" stop-color="#02addf"/>
			<stop offset=".5" stop-color="#6bc7f1"/>
			<stop offset="1" stop-color="#209dd8"/>
		</linearGradient>
		<linearGradient id="g2" x2="1" gradientUnits="userSpaceOnUse" gradientTransform="matrix(86.92,0,0,96.431,0,54.27)">
			<stop offset="0" stop-color="#2d3481"/>
			<stop offset=".5" stop-color="#01618e"/>
			<stop offset="1" stop-color="#332f81"/>
		</linearGradient>
		<linearGradient id="g3" x2="1" gradientUnits="userSpaceOnUse" gradientTransform="matrix(375.38,0,0,374.48,-115.63,35.85)">
			<stop offset=".3" stop-color="#fdc90b"/>
			<stop offset="1" stop-color="#f6a81c"/>
		</linearGradient>
	</defs>
	<style>
		.s0 { fill: url(#g1) } 
		.s1 { fill: url(#g2) } 
		.s2 { fill: url(#g3) } 
		.s3 { fill: #e09c26 } 
		.s4 { fill: #ffffff } 
		.s5 { fill: #1d1d1b } 
	</style>
	<g id="Layer_1-2">
		<g>
			<path class="s0" d="m86.5 19.3c-2.3-3.5-6.1-5.6-9.9-7.4q-0.4-0.2-0.8-0.4 0.8 1.5 1.3 3.2c1.3 5.3-0.6 10.9-2.8 16-5.1 11.5-11.5 22.3-19.3 32.2 1.7 0.6 3.6 0.8 5.6 0.2 4.1-1.2 10.8-7.8 13.7-10.8 5.2-5.3 11.1-12.5 13.3-19.6 1.4-4.4 1.4-9.4-1.1-13.4z"/>
			<path class="s1" d="m45.2 70.5c-3.2 0.4-6.1-1.3-8.7-3.3q-0.7-0.5-1.4-1.1c-11.8-10.2-21-23.2-26.6-37.7q-0.8 0.4-1.7 0.8c-2.7 1.4-5.1 3.7-6.2 6.5-1.5 4.3 0.1 9.1 2 13.2 2.2 4.7 4.8 9.3 7.8 13.6q3.6 5.3 8 10.1c1.7 1.9 3.6 3.7 5.7 5.1 2.3 1.5 4.8 2.5 7.5 2.4q0.2 0 0.4-0.1c4.2-0.3 7.8-3.2 10.9-6.1q1.8-1.8 3.7-3.7-0.7 0.2-1.4 0.3z"/>
			<path class="s2" d="m77.2 15.8q-0.5-1.7-1.3-3.2c-1.6-3-4.3-5.6-7.4-7.3-13.9-8-33.2-5.5-48-1.9-5.1 1.2-10.6 3.2-13.2 7.8q-0.8 1.4-1.2 3c-1 4.2 0.2 8.8 1.7 13q0.4 1.2 0.9 2.4c5.6 14.4 14.8 27.5 26.5 37.6q0.7 0.6 1.5 1.2c2.5 2 5.4 3.6 8.6 3.3q0.7-0.1 1.4-0.3c3-0.9 5.4-3.5 7.4-6.1q0.5-0.6 1-1.3c7.8-9.9 14.3-20.7 19.3-32.2 2.2-5.1 4.2-10.7 2.8-16z"/>
			<g>
				<path class="s3" d="m25.6 38.3h-3.4v-1.5h3.2c0.4 0 0.8-0.2 0.9-0.4 0.3-0.2 0.5-0.6 0.5-1 0-0.4-0.2-0.7-0.5-1-0.2-0.1-0.5-0.3-1-0.3h-3.1v-1.4h3.4c0.5 0 0.8-0.2 1-0.3 0.3-0.3 0.4-0.6 0.4-1 0-0.5-0.1-0.8-0.4-1.1-0.2-0.1-0.5-0.3-1-0.3h-4.9q-0.6 0-1 0.4c-0.3 0.3-0.4 0.6-0.4 1v8.2c0 0.4 0.1 0.7 0.4 1q0.4 0.4 1 0.4h4.9c0.5 0 0.8-0.2 1-0.4 0.3-0.2 0.4-0.6 0.4-1 0-0.4-0.1-0.7-0.4-1-0.2-0.2-0.5-0.3-1-0.3z"/>
				<path class="s3" d="m35.3 35.7q-0.6-0.7-1.5-1-0.7-0.2-2-0.5c-0.7-0.2-1.1-0.4-1.3-0.5 0-0.1-0.1-0.1-0.1-0.3 0-0.3 0.1-0.4 0.2-0.5q0.4-0.3 1.2-0.3 0.6 0 1 0.2 0.4 0.1 0.9 0.6h0.1c0.7 0.5 1.4 0.4 1.8-0.2q0.3-0.4 0.3-0.9c0-0.3-0.1-0.7-0.5-1.1q-0.6-0.6-1.6-1-1-0.3-2-0.3-1.2 0-2.1 0.4-1 0.4-1.6 1.2-0.6 0.9-0.6 2 0 1.1 0.6 1.9 0.6 0.7 1.5 1 0.7 0.3 1.9 0.6 0.7 0.2 1.2 0.3 0.2 0.1 0.4 0.2 0 0 0 0.1c0 0.3-0.1 0.4-0.2 0.5-0.2 0.1-0.5 0.3-1.2 0.3-0.8 0-1.6-0.3-2.2-0.8-0.7-0.5-1.5-0.4-1.9 0.2q-0.3 0.4-0.3 0.9 0 0.6 0.5 1.1 0.7 0.6 1.7 1 1.1 0.3 2.2 0.3c0.7 0 1.5-0.1 2.1-0.4q1-0.4 1.6-1.2 0.6-0.8 0.6-1.9 0-1.2-0.7-1.9z"/>
				<path class="s3" d="m46.3 39.1l-3.8-8.3q-0.2-0.4-0.5-0.6-0.4-0.3-0.9-0.3-0.4 0-0.8 0.2-0.4 0.3-0.6 0.7l-3.7 8.3q-0.2 0.3-0.2 0.6c0 0.4 0.2 0.7 0.5 1q0.4 0.4 1 0.4c0.6 0 1.1-0.4 1.3-0.9l0.7-1.5h3.7l0.7 1.5c0.2 0.5 0.7 0.9 1.3 0.9q0.5 0 0.9-0.4c0.3-0.2 0.5-0.6 0.5-1q0-0.3-0.1-0.6zm-5.8-3.2l0.6-1.4 0.7 1.4z"/>
				<path class="s3" d="m55 41.1c0.2 0 0.6-0.1 0.8-0.3q0.4-0.2 0.6-0.7l3.5-8.3q0.1-0.3 0.1-0.5c0-0.4-0.2-0.8-0.5-1.1-0.5-0.3-1.2-0.4-1.7-0.1q-0.4 0.3-0.6 0.8l-2.2 4.9-1.7-4.8q-0.2-0.5-0.6-0.8-0.4-0.3-0.8-0.3v-0.1l-0.1 0.1q-0.4 0-0.8 0.3-0.4 0.3-0.5 0.7l-1.7 4.9-2.3-4.9q-0.1-0.5-0.5-0.8c-0.6-0.3-1.3-0.3-1.8 0.1-0.3 0.3-0.5 0.7-0.5 1.1q0 0.3 0.1 0.5l3.5 8.3q0.2 0.5 0.6 0.7 0.4 0.2 0.8 0.3h0.1q0.4-0.1 0.8-0.3 0.4-0.2 0.6-0.7l1.7-4.8 1.6 4.8q0.2 0.5 0.6 0.7c0.3 0.2 0.6 0.3 0.9 0.3z"/>
				<path class="s3" d="m69.3 30.3q-0.5-0.4-1-0.4c-0.5 0-0.8 0.2-1.1 0.6l-2.2 2.8-2.3-2.8c-0.3-0.4-0.7-0.6-1.1-0.6q-0.6 0-1 0.4-0.4 0.4-0.4 1.1 0 0.5 0.3 0.9l3 3.7v3.6c0 0.5 0.2 0.9 0.4 1.1 0.3 0.2 0.7 0.4 1 0.4 0.4 0 0.8-0.2 1.1-0.4 0.2-0.2 0.4-0.6 0.4-1.1v-3.6l2.9-3.7q0.4-0.4 0.4-0.9 0-0.6-0.4-1z"/>
			</g>
			<path class="s4" d="m10 62c2.4-2.3 5.6-3.3 8.5-2.3 3.6 1.2 5.7 5 5.6 10.3-0.2 4.9 0.5 7.3 1.1 8.4 0 0-1.9-1.1-2.2-1.5q-0.6-2.6-0.5-6.9c0.1-4.6-1.5-7.8-4.5-8.8-2.4-0.8-5.1 0.1-7 2.1l-1-1.3z"/>
			<g>
				<path class="s4" d="m25.2 38h-3.5v-1.5h3.2c0.5 0 0.8-0.2 1-0.4 0.3-0.2 0.4-0.6 0.4-1 0-0.4-0.1-0.7-0.4-1-0.2-0.1-0.5-0.3-1-0.3h-3.2v-1.4h3.4c0.5 0 0.9-0.2 1-0.3 0.3-0.3 0.5-0.7 0.5-1.1 0-0.4-0.2-0.7-0.5-1-0.1-0.1-0.5-0.3-1-0.3h-4.8q-0.6 0-1.1 0.4c-0.2 0.3-0.4 0.6-0.4 1v8.2c0 0.4 0.2 0.7 0.4 1q0.5 0.4 1.1 0.4h4.8c0.5 0 0.9-0.2 1-0.4 0.3-0.2 0.5-0.6 0.5-1 0-0.4-0.2-0.7-0.5-1-0.2-0.2-0.5-0.3-1-0.3z"/>
				<path class="s4" d="m34.8 35.4q-0.6-0.7-1.4-1-0.8-0.2-2-0.6c-0.8-0.1-1.2-0.3-1.3-0.4-0.1-0.1-0.1-0.1-0.1-0.3 0-0.3 0-0.4 0.2-0.5q0.3-0.3 1.1-0.3 0.6 0 1 0.2 0.4 0.1 0.9 0.6h0.1c0.8 0.5 1.5 0.4 1.9-0.2q0.3-0.4 0.3-0.9c0-0.3-0.1-0.7-0.5-1.1q-0.7-0.6-1.7-1-0.9-0.3-2-0.3-1.2 0-2.1 0.4-1 0.4-1.6 1.2-0.6 0.9-0.6 1.9 0 1.2 0.7 2 0.5 0.7 1.4 1 0.8 0.3 1.9 0.6 0.8 0.1 1.2 0.3 0.3 0.1 0.4 0.2 0 0 0 0.1c0 0.3-0.1 0.4-0.2 0.5-0.2 0.1-0.5 0.2-1.2 0.2-0.8 0-1.5-0.2-2.2-0.7-0.6-0.5-1.4-0.4-1.9 0.2q-0.3 0.3-0.3 0.8 0 0.7 0.5 1.2 0.7 0.6 1.8 1 1 0.3 2.1 0.3c0.8 0 1.5-0.1 2.1-0.4q1-0.4 1.6-1.2 0.6-0.8 0.6-1.9 0-1.2-0.7-1.9z"/>
				<path class="s4" d="m45.8 38.8l-3.7-8.3q-0.2-0.4-0.6-0.6-0.4-0.3-0.8-0.3-0.5 0-0.8 0.2-0.5 0.3-0.6 0.7l-3.8 8.3q-0.1 0.3-0.1 0.6c0 0.4 0.2 0.7 0.5 1q0.4 0.4 0.9 0.4c0.6 0 1.1-0.4 1.3-0.9l0.7-1.5h3.7l0.7 1.5c0.2 0.5 0.7 0.9 1.3 0.9q0.6 0 1-0.4c0.3-0.2 0.4-0.6 0.4-1q0-0.3-0.1-0.6zm-5.8-3.2l0.7-1.5 0.6 1.5z"/>
				<path class="s4" d="m54.5 40.8c0.3 0 0.6-0.1 0.9-0.3q0.4-0.2 0.6-0.7l3.4-8.3q0.1-0.3 0.1-0.5c0-0.4-0.1-0.8-0.5-1.1-0.4-0.3-1.2-0.4-1.7-0.1-0.3 0.2-0.4 0.5-0.5 0.8l-2.3 4.9-1.7-4.8q-0.1-0.5-0.5-0.8-0.4-0.3-0.8-0.3l-0.1-0.1v0.1q-0.5 0-0.8 0.3-0.4 0.3-0.6 0.7l-1.7 4.9-2.2-4.9q-0.2-0.5-0.6-0.8c-0.5-0.3-1.2-0.3-1.7 0.1-0.3 0.3-0.5 0.7-0.5 1.1q0 0.3 0.1 0.5l3.5 8.3q0.1 0.5 0.6 0.7 0.3 0.2 0.7 0.3h0.1 0.1q0.4-0.1 0.7-0.3 0.4-0.2 0.6-0.7l1.7-4.8 1.7 4.8q0.2 0.5 0.6 0.7c0.2 0.2 0.6 0.3 0.8 0.3z"/>
				<path class="s4" d="m68.8 30q-0.4-0.4-1-0.4c-0.4 0-0.8 0.2-1.1 0.6l-2.2 2.8-2.2-2.8c-0.3-0.4-0.7-0.6-1.1-0.6q-0.6 0-1 0.4c-0.3 0.3-0.5 0.7-0.5 1q0 0.6 0.4 1l2.9 3.7v3.6c0 0.5 0.3 0.9 0.5 1.1q0.4 0.4 1 0.4c0.4 0 0.7-0.2 1-0.4 0.2-0.2 0.4-0.6 0.4-1.1v-3.6l3-3.7q0.3-0.4 0.3-1 0-0.5-0.4-1z"/>
			</g>
			<g>
				<path class="s4" d="m41.3 22.2c1.2 2.4 1.5 5.2 1.3 8.1l0.4 0.6c0-1.2 0.9-1.5 1.2-1.6 0.1-2.8-0.3-5.5-1.5-7.8-2.3-4.4-5.4-7-9.3-7.7-7.1-1.3-14.6 4.4-16.8 6.3-4.2-4.7-10.3-5.6-10.5-5.6 0 0-0.1 0.5-0.2 0.7 0 0.2-0.1 0.9-0.1 0.9 0.1 0 6.3 0.8 10.1 5.6l0.6 0.7 0.6-0.6c0.1-0.1 8.5-7.7 16.1-6.4 3.3 0.6 6.1 2.9 8.1 6.8z"/>
				<path class="s4" d="m42.4 39.1h-1.7c-2 6.1-4.9 11-4.9 11.1l-0.2 0.2 0.1 0.3c0 0.2 3.6 16.8-3.9 29.4 0 0 1.3 0 2.1-0.4 6.6-12.1 3.9-26.6 3.4-29 0.7-1.2 3.3-5.9 5.1-11.6z"/>
			</g>
			<g>
				<path class="s5" d="m27.2 43.6h-1.1q-0.1 0-0.2 0.1-0.1 0.1-0.1 0.2v3.1q0 0.1 0.1 0.2 0.1 0.1 0.2 0.1h1.1q0.9 0 1.4-0.5 0.5-0.5 0.5-1.3 0-0.9-0.5-1.4-0.5-0.5-1.4-0.5zm-0.1 3.2h-0.6v-2.6h0.6q1.3 0 1.3 1.3 0 1.3-1.3 1.3z"/>
				<path class="s5" d="m32.5 45.9q0-0.4-0.1-0.6-0.2-0.3-0.4-0.5-0.3-0.1-0.7-0.1-0.3 0-0.6 0.2-0.3 0.1-0.4 0.4-0.2 0.3-0.2 0.7 0 0.6 0.4 1 0.3 0.4 0.9 0.4 0.2 0 0.5-0.1 0.2-0.1 0.4-0.2 0.2-0.1 0.2-0.2 0-0.1-0.1-0.2-0.1-0.1-0.1-0.1-0.1 0-0.3 0.1-0.1 0.1-0.2 0.1-0.2 0.1-0.3 0.1-0.4 0-0.6-0.2-0.1-0.2-0.2-0.5h1.6q0.2 0 0.2-0.3zm-1.8-0.1q0.1-0.3 0.2-0.5 0.2-0.1 0.5-0.1 0.2 0 0.4 0.1 0.1 0.2 0.1 0.5h-1.2z"/>
				<path class="s5" d="m35 44.7q-0.2 0-0.5 0.1-0.2 0.1-0.3 0.3v-0.1q0-0.1-0.1-0.2-0.1-0.1-0.2-0.1-0.2 0-0.3 0.1 0 0.1 0 0.2v2q0 0.2 0 0.3 0.1 0.1 0.3 0 0.1 0 0.2 0 0.1-0.1 0.1-0.3v-1.1q0-0.3 0.2-0.5 0.2-0.2 0.5-0.2 0.2 0 0.3 0.1 0.1 0.2 0.1 0.5v1.2q0 0.2 0.1 0.3 0.1 0.1 0.3 0.1 0.1 0 0.2-0.1 0.1-0.1 0.1-0.3v-1.3q0-0.5-0.2-0.7-0.3-0.3-0.7-0.3z"/>
				<path class="s5" d="m38.5 46.9h-0.1q-0.4-0.1-0.4-0.5v-1.2h0.5q0.1 0 0.2 0 0-0.1 0.1-0.2-0.1-0.1-0.1-0.2-0.1-0.1-0.2-0.1h-0.5v-0.4q0-0.2-0.1-0.3-0.1 0-0.2 0-0.2 0-0.3 0-0.1 0.1-0.1 0.3v0.4h-0.2q-0.2 0-0.2 0.1-0.1 0.1-0.1 0.2 0 0.1 0.1 0.2 0 0 0.2 0h0.2v1.2q0 0.9 0.9 0.9h0.2q0.1 0.1 0.2 0 0.2-0.1 0.1-0.2 0-0.2-0.2-0.2z"/>
				<path class="s5" d="m40.8 44.7q-0.3 0-0.5 0-0.3 0.1-0.5 0.2-0.1 0.1-0.1 0.1-0.1 0.1-0.1 0.2 0 0.1 0.1 0.1 0 0.1 0.1 0.1 0.1 0 0.2-0.1 0.3 0 0.4-0.1 0.2 0 0.3 0 0.3 0 0.4 0.1 0.1 0.1 0.1 0.4v0.1h-0.1q-0.6 0-0.9 0.1-0.4 0-0.5 0.2-0.2 0.2-0.1 0.5-0.1 0.2 0.1 0.4 0.1 0.2 0.3 0.3 0.2 0.1 0.5 0.1 0.2 0 0.4-0.2 0.2-0.1 0.3-0.3v0.1q0 0.2 0.1 0.3 0.1 0.1 0.2 0 0.2 0 0.2 0 0.1-0.1 0.1-0.3v-1.2q0-0.6-0.3-0.8-0.2-0.3-0.7-0.3zm0.4 1.6q0 0.2-0.2 0.4-0.2 0.2-0.4 0.2-0.2 0-0.3-0.1-0.1-0.1-0.1-0.3 0-0.1 0.1-0.2 0-0.1 0.2-0.1 0.2-0.1 0.6-0.1h0.1c0 0 0 0.2 0 0.2z"/>
				<path class="s5" d="m43.3 43.6q-0.1 0-0.2 0.1-0.1 0-0.1 0.2v3.1q0 0.2 0.1 0.3 0.1 0 0.2 0 0.2 0 0.3 0 0.1-0.1 0.1-0.3v-3.1q0-0.2-0.1-0.2-0.1-0.1-0.3-0.1z"/>
				<path class="s5" d="m48.6 44.1q0.2 0 0.4 0.1 0.2 0 0.4 0.2 0.1 0.1 0.2 0.1 0.1 0 0.2-0.1 0.1-0.1 0-0.2 0.1-0.1 0-0.1 0-0.1-0.1-0.1-0.2-0.2-0.5-0.3-0.3-0.1-0.7-0.1-0.5 0-0.9 0.2-0.4 0.2-0.6 0.6-0.2 0.5-0.2 1.1-0.1 0.5 0.2 1 0.2 0.4 0.6 0.6 0.4 0.3 0.9 0.3 0.4 0 0.7-0.1 0.3-0.1 0.5-0.3 0.1-0.1 0.1-0.2 0.1 0 0-0.1 0.1-0.1 0-0.2-0.1-0.1-0.2-0.1 0 0-0.1 0.1 0 0-0.1 0-0.2 0.2-0.4 0.2-0.2 0.1-0.4 0.1-0.6 0-0.9-0.3-0.2-0.4-0.2-1 0-0.7 0.2-1.1 0.3-0.3 0.9-0.3z"/>
				<path class="s5" d="m51.3 43.6q-0.2 0-0.3 0.1-0.1 0-0.1 0.2v3.1q0 0.2 0.1 0.3 0.1 0 0.3 0 0.1 0 0.2 0 0.1-0.1 0.1-0.3v-3.1q0-0.2-0.1-0.2-0.1-0.1-0.2-0.1z"/>
				<path class="s5" d="m53.1 43.5q-0.2 0-0.3 0.1-0.1 0.1-0.1 0.3 0 0.1 0.1 0.2 0.1 0.1 0.3 0.1 0.2 0 0.3-0.1 0.1-0.1 0.1-0.2 0-0.2-0.1-0.3-0.1-0.1-0.3-0.1z"/>
				<path class="s5" d="m53.1 44.7q-0.1 0-0.2 0.1-0.1 0-0.1 0.2v2q0 0.2 0.1 0.3 0.1 0 0.2 0 0.1 0 0.3 0 0-0.1 0.1-0.3v-2q0-0.2-0.1-0.2-0.1-0.1-0.3-0.1z"/>
				<path class="s5" d="m56.1 44.7q-0.2 0-0.5 0.1-0.2 0.1-0.3 0.3v-0.1q0-0.1-0.1-0.2-0.1-0.1-0.2-0.1-0.2 0-0.3 0.1-0.1 0.1-0.1 0.2v2q0 0.2 0.1 0.3 0.1 0.1 0.3 0 0.1 0 0.2 0 0.1-0.1 0.1-0.3v-1.1q0-0.3 0.2-0.5 0.2-0.2 0.4-0.2 0.3 0 0.4 0.1 0.1 0.2 0.1 0.5v1.2q0 0.2 0.1 0.3 0.1 0.1 0.2 0.1 0.2 0 0.3-0.1 0.1-0.1 0.1-0.3v-1.3q0-0.5-0.3-0.7-0.2-0.3-0.6-0.3z"/>
				<path class="s5" d="m58.6 43.5q-0.2 0-0.3 0.1-0.1 0.1-0.1 0.3 0 0.1 0.1 0.2 0.1 0.1 0.3 0.1 0.1 0 0.3-0.1 0.1-0.1 0.1-0.2 0-0.2-0.1-0.3-0.2-0.1-0.3-0.1z"/>
				<path class="s5" d="m58.6 44.7q-0.2 0-0.3 0.1 0 0 0 0.2v2q0 0.2 0 0.3 0.1 0 0.3 0 0.1 0 0.2 0 0.1-0.1 0.1-0.3v-2q0-0.2-0.1-0.2-0.1-0.1-0.2-0.1z"/>
				<path class="s5" d="m62.2 46.7c0 0-0.1-0.1-0.1-0.1q-0.1 0-0.2 0 0 0.1-0.1 0.1-0.1 0.1-0.2 0.1-0.1 0.1-0.3 0-0.3 0.1-0.5-0.2-0.1-0.2-0.1-0.6 0-0.4 0.1-0.6 0.2-0.2 0.5-0.2 0.2 0 0.3 0 0.1 0.1 0.2 0.2 0.1 0 0.1 0 0.1 0.1 0.2 0 0 0.1 0.1 0 0.1-0.1 0.1-0.2-0.1-0.2-0.2-0.3-0.2-0.1-0.4-0.1-0.2-0.1-0.4-0.1-0.4 0-0.7 0.2-0.3 0.1-0.5 0.4-0.1 0.3-0.1 0.8 0 0.4 0.1 0.7 0.2 0.2 0.5 0.4 0.3 0.2 0.7 0.2 0.2 0 0.4-0.1 0.2-0.1 0.4-0.2 0.1 0 0.1-0.1 0.1 0 0.1-0.1-0.1-0.2-0.1-0.2z"/>
			</g>
		</g>
	</g>
</svg>