<svg version="1.2" xmlns="http://www.w3.org/2000/svg" viewBox="0 0 116 50" width="116" height="50">
	<title>73</title>
	<style>
		.s0 { fill: #828282 } 
		.s1 { fill: #007b78 } 
	</style>
	<g id="Layer_1-2">
		<g>
			<path class="s0" d="m83.1 21.6c-0.4 0.3-0.8 0.6-1.2 1-0.5 0.4-0.5 0.8-0.1 1.3 0.3 0.3 0.3 0.6 0.1 0.9q-0.4 0.4-0.8 0.8c-0.3 0.2-0.3 0.2-0.1 0.5 0.2 0.3 0.4 0.6 0.5 0.9 0 0.2 0 0.3-0.1 0.5-0.1 0.2-0.2 0.3-0.3 0.4-0.3 0.3-0.4 0.7-0.3 1.1q0 0.1 0 0.2c0 0.3 0.2 0.8 0.3 1.1 0.1 0.3 0.2 0.6 0.3 0.9q0 0.4-0.2 0.8c-0.2 0.3-0.6 0.6-1 0.7q-0.2 0.1-0.5 0.1c-1.2 0.1-2.5 0-3.8 0h-0.7q-1.6 0.1-3.1 0.5 0 0-0.1 0-0.1 0.1-0.2 0.1-0.5 0.1-0.9 0.3-1.3 0.5-2.4 1.3-0.4 0.2-0.8 0.6-0.1 0-0.1 0.1c-1.3 1-2.4 2.2-3.2 3.6q-0.3 0.4-0.5 0.9-0.1 0.1-0.2 0.2-0.1 0.3-0.2 0.5-0.1 0.2-0.1 0.4-0.2 0.5-0.4 1-0.2 0.9-0.4 1.7 0 0.1 0 0.1 0 0 0 0c-0.5-1.4-0.9-3-0.9-4.7q0-0.8 0.1-1.6 0.1-0.3 0.1-0.8c0.5-2.4 1.4-4.7 3-6.5 0.5-0.5 1.1-1.1 1.8-1.5 1.2-0.8 2.7-1.2 4-1.9 1.1-0.6 2-1.4 2.9-2.3q0.1-0.1 0.2-0.2 0.4-0.4 0.7-0.9 0.1-0.1 0.2-0.2 0.1-0.1 0.1-0.2 0.2-0.2 0.3-0.4 0.5-0.7 0.8-1.4 0.1-0.2 0.2-0.4 0-0.1 0.1-0.1 0.1-0.2 0.2-0.5 0 0 0 0 0.1-0.3 0.2-0.5 0.1-0.3 0.2-0.6 0-0.2 0.1-0.4v-0.1q0-0.2 0.1-0.5 0.1-0.3 0.1-0.5 0.1-0.3 0.1-0.5 0.1-0.5 0.1-1.1 0-0.1 0-0.3 0-0.2 0-0.4c0-4.9-2.6-9.1-6.5-11.5q-0.1-0.1-0.3-0.2c-1.9-1.1-4.2-1.7-6.5-1.7-7.4 0-13.4 6-13.4 13.4q0 0.3 0 0.7c0.1 1.5 0.4 3.1 1 4.5q0.6 1.4 1.4 2.6-0.1 0.2-0.3 0.5-0.5-0.6-1-1.2-1.1-1.4-1.7-3-0.3-0.7-0.5-1.4-0.6-1.9-0.6-3.8 0-0.7 0.1-1.3 0-0.4 0.1-0.8 0.3-1.2 0.7-2.2 0.5-1.3 1.2-2.5 0.9-1.7 2.2-3 0.4-0.4 0.8-0.7 0.5-0.5 1.1-0.9 1.8-1.4 4-2.2c2-0.7 4.1-1 6.2-0.9q2.7 0.2 5.2 1.3 3.1 1.3 5.4 3.9 1.2 1.4 2.1 3c0 0 0.9 2 1.9 5.9q0.1 0.5 0.2 0.8c0.3 0.7 0.6 1.3 1 1.9q1.1 1.6 2.2 3.2c0.5 0.6 0.5 1-0.2 1.6z"/>
			<path class="s0" d="m55.6 13.3c-0.8-1-1.7-1.8-2.7-2.5q-0.1 0-0.2-0.1c0.4 0.4 0.8 0.7 1.2 1.1 0.9 0.9 1.7 1.9 2.2 3.1q0.5 1.4 0.4 2.8-0.1 1.4-0.6 2.7c-0.6 1.5-1.3 2.9-1.8 4.4-0.5 1.3-1.1 2.6-1.5 3.8q-0.6 1.6-0.5 3.2c0 1.2 0.4 2.2 1 3.2 0.9 1.3 2 2.2 3.3 3.1q-0.1-0.1-0.1-0.1-1.2-1-2.1-2.1c-0.5-0.6-0.9-1.2-1.2-1.9q0-0.1 0-0.2 0 0-0.1-0.1 0-0.1 0-0.2c-0.2-0.6-0.3-1.5-0.3-1.5q0 0 0 0c-0.1-1.2 0.2-2.3 0.6-3.3q0.9-2.4 1.9-4.7c0.5-1.3 1.1-2.7 1.5-4.1 0.3-1 0.5-2 0.4-3.1-0.1-1.3-0.6-2.5-1.4-3.5z"/>
			<path class="s0" d="m54.3 14.5l-2 0.2c-0.1 0-0.2 0.1-0.2 0.2 0 0.2 0.1 0.2 0.2 0.2l2-0.2c0.2 0 0.2-0.1 0.2-0.3 0-0.1-0.1-0.1-0.2-0.1z"/>
			<path class="s0" d="m55 15.8l-3.3 0.4c-0.1 0-0.2 0.1-0.2 0.2 0 0.1 0.1 0.2 0.2 0.2l3.4-0.5c0.1 0 0.2-0.1 0.2-0.2-0.1-0.1-0.2-0.2-0.3-0.1z"/>
			<path class="s0" d="m54.8 19.9l-2.4 0.2c-0.1 0-0.2 0.1-0.2 0.2 0 0.2 0.1 0.2 0.2 0.2l2.4-0.3c0.1 0 0.2-0.1 0.2-0.2 0-0.1-0.1-0.2-0.2-0.1z"/>
			<path class="s0" d="m55.3 18.4l-3.6 0.5c-0.2 0-0.2 0.1-0.2 0.2 0 0.1 0.1 0.2 0.2 0.2l3.6-0.5c0.1 0 0.2-0.1 0.2-0.2 0-0.1-0.1-0.2-0.2-0.1z"/>
			<path class="s0" d="m55.4 17.1l-3.8 0.4c-0.1 0-0.2 0.1-0.2 0.2 0 0.2 0.1 0.2 0.2 0.2l3.8-0.4c0.1 0 0.2-0.1 0.2-0.2 0-0.1-0.1-0.2-0.2-0.2z"/>
			<path class="s0" d="m56.2 28.4l-2 0.3c-0.1 0-0.2 0.1-0.2 0.2 0 0.1 0.1 0.2 0.2 0.2l2.1-0.3c0.1 0 0.2-0.1 0.1-0.2 0-0.1-0.1-0.2-0.2-0.2z"/>
			<path class="s0" d="m57 29.7l-3.4 0.5c-0.1 0-0.2 0.1-0.2 0.2 0 0.1 0.1 0.2 0.3 0.2l3.3-0.5c0.1 0 0.2-0.1 0.2-0.2 0-0.1-0.1-0.2-0.2-0.2z"/>
			<path class="s0" d="m56.7 33.8l-2.4 0.3c-0.1 0-0.2 0.1-0.2 0.2 0 0.1 0.1 0.2 0.3 0.2l2.3-0.3c0.1 0 0.2-0.1 0.2-0.2 0-0.1-0.1-0.2-0.2-0.2z"/>
			<path class="s0" d="m57.2 32.4l-3.6 0.5c-0.1 0-0.2 0.1-0.2 0.2 0 0.1 0.1 0.2 0.2 0.2l3.7-0.5c0.1 0 0.1-0.1 0.1-0.2 0-0.1-0.1-0.2-0.2-0.2z"/>
			<path class="s0" d="m57.3 31.1l-3.8 0.4c-0.1 0-0.2 0.1-0.2 0.2 0.1 0.1 0.2 0.2 0.3 0.2l3.8-0.4c0.1-0.1 0.2-0.2 0.1-0.3 0-0.1-0.1-0.2-0.2-0.1z"/>
			<path class="s0" d="m52.7 22.9c0 0 0.7 1 1.1 1.4l-0.2 0.3-0.9-0.7z"/>
			<path class="s1" d="m11.8 19.5v-17.1c0.8-0.7 2.1-0.9 2.1-0.9v-0.9h-13.9v0.9c0 0 1.4 0.2 2.1 0.9v33.8c-0.7 0.7-2.1 0.9-2.1 0.9v0.9h13.9v-0.9c0 0-1.3-0.2-2.1-0.9v-16.7z"/>
			<path class="s1" d="m45.5 27.7c0 3.5-1.5 10.3-13.1 10.3-6.9 0-9.9-1.7-11.2-3.1-0.5-0.5-1.4-0.3-1.6 0.4h-1.4l0.7-10.2h1.2c0 0 2.2 11.2 11.4 11.2 4.6 0 6.4-1.7 7.1-3.4 0.7-1.8 0.2-3.8-1.2-5.1-1.4-1.3-4-3.1-8.5-4.4-8-2.2-10-7.3-10-12 0-4.6 5.2-10.8 14.2-10.8 4.4 0 6.7 1.3 7.8 2.7 1 1 2.7 1 3.5-0.2h1.1l-2.3 9.9h-1.5v-2.5c0 0-0.5-8.2-8.2-8.2-7.8 0-7.8 5.8-7.8 5.8 0 0-0.9 5.4 8.8 7.3 9.6 1.8 11 8.8 11 12.3z"/>
			<path class="s1" d="m113.8 27.8c0 3.5-1.5 10.3-13.2 10.3-6.9 0-9.9-1.7-11.2-3-0.5-0.6-1.4-0.4-1.6 0.3h-1.4l0.7-10.2h1.1c0 0 2.3 11.2 11.5 11.2 4.6 0 6.5-1.7 7.2-3.4 0.7-1.7 0.1-3.8-1.3-5.1-1.4-1.3-4-3.1-8.5-4.4-8-2.2-10-7.3-10-12 0-4.7 5.2-10.9 14.3-10.9 4.4 0 6.6 1.3 7.8 2.7 0.9 1.1 2.7 1 3.5-0.1h1.1l-2.3 9.9h-1.5v-2.5c0 0-0.5-8.3-8.3-8.3-7.7 0-7.8 5.8-7.8 5.8 0 0-0.9 5.5 8.8 7.4 9.7 1.8 11.1 8.8 11.1 12.3z"/>
			<path class="s0" d="m58.6 31.4q0.1 0.7-0.1 1.5c0 0 0 0.3-0.2 0.9-0.3 0.8-0.9 2-1.9 3.3h-0.1l0.6-1.3 0.6-1.4q0-0.1 0.1-0.2v-0.1q0.5-1.3 0.6-2.8 0-1.5-0.7-2.8-0.2-0.4-0.4-0.7-0.3-0.5-0.6-0.9c-0.8-0.9-1.8-1.5-1.8-1.5l0.2-0.2q0.2 0.1 0.3 0.2c1.2 0.8 1.8 1.7 2.1 2.1q0 0 0.1 0.1c0.8 1.1 1.2 2.3 1.2 3.8z"/>
			<path fill-rule="evenodd" class="s0" d="m54.8 25.4l0.1-0.3 0.1 0.2v0.2l-0.2-0.1z"/>
			<path class="s0" d="m58.3 33.8c-0.3 0.8-0.8 2-1.9 3.3l0.5-1.3 0.7-1.6v-0.1c0.1-0.1 0.8-1.1 0.7-0.3z"/>
			<g>
				<path class="s1" d="m1 45.4v1.4h1.4v-1.4h0.8v3.7h-0.8v-1.5h-1.4v1.5h-0.8v-3.7z"/>
				<path class="s1" d="m6.4 47.6h-1.3v0.8h1.4v0.7h-2.2v-3.7h2.2v0.7h-1.4v0.8h1.3z"/>
				<path class="s1" d="m8.3 48.2l-0.2 0.9h-0.9l1.1-3.7h1.1l1.1 3.7h-0.9l-0.3-0.9c0 0-1 0-1 0zm0.9-0.7l-0.2-0.7c-0.1-0.3-0.1-0.5-0.2-0.7 0 0.2-0.1 0.4-0.2 0.7l-0.2 0.7c0 0 0.8 0 0.8 0z"/>
				<path class="s1" d="m11.3 45.4h0.8v3h1.5v0.7h-2.3c0 0 0-3.7 0-3.7z"/>
				<path class="s1" d="m14.6 46.1h-1v-0.7h2.8v0.7h-1v3h-0.8z"/>
				<path class="s1" d="m18 45.4v1.4h1.3v-1.4h0.8v3.7h-0.8v-1.5h-1.3v1.5h-0.8v-3.7z"/>
				<path class="s1" d="m23.8 49c-0.1 0.1-0.5 0.2-0.9 0.2-1.3 0-1.9-0.8-1.9-1.9 0-1.2 0.9-1.9 2-1.9 0.4 0 0.7 0.1 0.8 0.1l-0.1 0.7c-0.2-0.1-0.4-0.1-0.7-0.1-0.6 0-1.1 0.4-1.1 1.2 0 0.7 0.4 1.2 1.1 1.2 0.2 0 0.5-0.1 0.7-0.1l0.1 0.6z"/>
				<path class="s1" d="m25.6 48.2l-0.3 0.9h-0.8l1.1-3.7h1.1l1.1 3.7h-0.9l-0.3-0.9h-1zm0.9-0.7l-0.2-0.7c-0.1-0.3-0.1-0.5-0.2-0.7-0.1 0.2-0.1 0.4-0.2 0.7l-0.2 0.7c0 0 0.8 0 0.8 0z"/>
				<path class="s1" d="m28.6 45.5c0.3-0.1 0.7-0.1 1.1-0.1 0.5 0 0.9 0.1 1.2 0.3q0.3 0.3 0.3 0.8c0 0.4-0.3 0.8-0.6 0.9 0.2 0.1 0.4 0.3 0.4 0.7 0.2 0.4 0.3 0.9 0.3 1h-0.8q-0.1-0.2-0.2-0.8c-0.1-0.5-0.3-0.6-0.6-0.6h-0.3v1.4h-0.8v-3.6zm0.8 1.6h0.4c0.4 0 0.6-0.2 0.6-0.6 0-0.3-0.2-0.5-0.6-0.5q-0.3 0-0.3 0.1v1z"/>
				<path class="s1" d="m34.3 47.6h-1.3v0.8h1.4v0.7h-2.2v-3.7h2.2v0.7h-1.4v0.8h1.3z"/>
				<path class="s1" d="m39.8 47.7q0-0.7 0-1.5c-0.1 0.5-0.3 1-0.4 1.4l-0.4 1.5h-0.7l-0.4-1.5c-0.1-0.4-0.2-0.9-0.3-1.4 0 0.5 0 1.1 0 1.5l-0.1 1.4h-0.8l0.3-3.7h1l0.4 1.3c0.1 0.4 0.2 0.9 0.3 1.3 0.1-0.4 0.2-0.9 0.4-1.3l0.3-1.3h1.1l0.2 3.7h-0.8l-0.1-1.4z"/>
				<path class="s1" d="m42.5 48.2l-0.3 0.9h-0.8l1.1-3.7h1.1l1.1 3.7h-0.9l-0.3-0.9c0 0-1 0-1 0zm0.9-0.7l-0.2-0.7c-0.1-0.3-0.1-0.5-0.2-0.7-0.1 0.2-0.1 0.4-0.2 0.7l-0.2 0.7h0.8z"/>
				<path class="s1" d="m45.5 49.1v-3.7h1l0.7 1.4c0.2 0.4 0.4 0.8 0.6 1.2 0-0.4-0.1-0.9-0.1-1.5v-1.1h0.8v3.7h-0.9l-0.7-1.4c-0.3-0.4-0.5-0.9-0.7-1.3q0.1 0.7 0 1.6v1.1h-0.7z"/>
				<path class="s1" d="m50.4 48.2l-0.3 0.9h-0.8l1.1-3.7h1.1l1.1 3.7h-0.9l-0.3-0.9c0 0-1 0-1 0zm0.9-0.7l-0.2-0.7c-0.1-0.3-0.1-0.5-0.2-0.7-0.1 0.2-0.1 0.4-0.2 0.7l-0.2 0.7h0.8z"/>
				<path class="s1" d="m56.3 48.9c-0.3 0.1-0.7 0.3-1.2 0.3q-1-0.1-1.5-0.5c-0.3-0.4-0.5-0.8-0.5-1.4 0-1.2 0.9-1.9 2-1.9 0.5 0 0.9 0.1 1 0.2l-0.1 0.6c-0.2 0-0.5-0.1-0.9-0.1-0.6 0-1.1 0.4-1.1 1.2 0 0.8 0.4 1.2 1.1 1.2q0.3 0 0.4-0.1v-0.7h-0.6v-0.7h1.4c0 0 0 1.9 0 1.9z"/>
				<path class="s1" d="m59.4 47.6h-1.3v0.8h1.5v0.7h-2.3v-3.7h2.2v0.7h-1.4v0.8h1.3z"/>
				<path class="s1" d="m63.5 47.7q0-0.7 0-1.5c-0.1 0.5-0.3 1-0.4 1.4l-0.5 1.5h-0.6l-0.4-1.5c-0.1-0.4-0.2-0.9-0.3-1.4 0 0.5-0.1 1.1-0.1 1.5l-0.1 1.4h-0.7l0.2-3.7h1.1l0.4 1.3c0.1 0.4 0.2 0.9 0.3 1.3 0.1-0.4 0.2-0.9 0.3-1.3l0.4-1.3h1.1l0.1 3.7h-0.7l-0.1-1.4z"/>
				<path class="s1" d="m67.5 47.6h-1.3v0.8h1.4v0.7h-2.2v-3.7h2.2v0.7h-1.4v0.8h1.3z"/>
				<path class="s1" d="m68.6 49.1v-3.7h0.9l0.7 1.4c0.2 0.4 0.5 0.8 0.6 1.2 0-0.4 0-0.9 0-1.5v-1.1h0.7v3.7h-0.8l-0.8-1.4c-0.2-0.4-0.5-0.9-0.6-1.3q0 0.7 0 1.6v1.1c0 0-0.7 0-0.7 0z"/>
				<path class="s1" d="m73.3 46.1h-1v-0.7h2.8v0.7h-1v3h-0.8z"/>
				<path class="s0" d="m80 49c-0.2 0.1-0.5 0.2-1 0.2-1.2 0-1.8-0.8-1.8-1.9 0-1.2 0.8-1.9 1.9-1.9 0.4 0 0.8 0.1 0.9 0.1l-0.2 0.7c-0.1-0.1-0.4-0.1-0.7-0.1-0.6 0-1.1 0.4-1.1 1.2 0 0.7 0.4 1.2 1.1 1.2 0.3 0 0.6-0.1 0.7-0.1l0.1 0.6z"/>
				<path class="s0" d="m84 47.2c0 1.3-0.7 2-1.8 2-1 0-1.7-0.9-1.7-1.9 0-1 0.7-1.9 1.8-1.9 1 0 1.7 0.8 1.7 1.8zm-2.6 0.1c0 0.7 0.3 1.2 0.9 1.2 0.5 0 0.8-0.5 0.8-1.2 0-0.7-0.3-1.3-0.8-1.3-0.6 0-0.9 0.6-0.9 1.3z"/>
				<path class="s0" d="m84.9 49.1v-3.7h0.9l0.8 1.4c0.2 0.4 0.4 0.8 0.6 1.2-0.1-0.4-0.1-0.9-0.1-1.5v-1.1h0.7v3.7h-0.8l-0.8-1.4c-0.2-0.4-0.4-0.9-0.6-1.3q0 0.7 0 1.6v1.1c0 0-0.7 0-0.7 0z"/>
				<path class="s0" d="m89 48.3c0.2 0.1 0.5 0.2 0.9 0.2 0.3 0 0.5-0.2 0.5-0.4 0-0.2-0.2-0.4-0.6-0.5-0.6-0.2-1-0.6-1-1.1 0-0.7 0.5-1.1 1.4-1.1 0.4 0 0.7 0.1 0.9 0.2l-0.2 0.6c-0.1 0-0.4-0.1-0.7-0.1-0.4 0-0.6 0.1-0.6 0.3 0 0.2 0.2 0.4 0.7 0.5 0.6 0.3 0.9 0.6 0.9 1.1 0 0.7-0.4 1.2-1.4 1.2-0.4 0-0.8-0.1-1-0.2l0.1-0.7z"/>
				<path class="s0" d="m93 45.4v2.1c0 0.7 0.2 1 0.6 1 0.4 0 0.7-0.3 0.7-1v-2.1h0.8v2.1c0 1.1-0.6 1.7-1.5 1.7-0.9 0-1.4-0.5-1.4-1.7v-2.1z"/>
				<path class="s0" d="m96.2 45.4h0.8v3h1.4v0.7h-2.2c0 0 0-3.7 0-3.7z"/>
				<path class="s0" d="m99.4 46.1h-1v-0.7h2.8v0.7h-1v3h-0.8z"/>
				<path class="s0" d="m102.4 48.2l-0.2 0.9h-0.9l1.1-3.7h1.1l1.1 3.7h-0.9l-0.3-0.9h-1zm0.9-0.7l-0.2-0.7c-0.1-0.3-0.1-0.5-0.2-0.7 0 0.2-0.1 0.4-0.1 0.7l-0.3 0.7h0.8z"/>
				<path class="s0" d="m105.5 49.1v-3.7h0.9l0.7 1.4c0.2 0.4 0.5 0.8 0.6 1.2 0-0.4 0-0.9 0-1.5v-1.1h0.7v3.7h-0.8l-0.8-1.4c-0.2-0.4-0.5-0.9-0.6-1.3q0 0.7 0 1.6v1.1c0 0-0.7 0-0.7 0z"/>
				<path class="s0" d="m112.1 49c-0.1 0.1-0.5 0.2-0.9 0.2-1.2 0-1.9-0.8-1.9-1.9 0-1.2 0.9-1.9 2-1.9 0.4 0 0.7 0.1 0.9 0.1l-0.2 0.7c-0.2-0.1-0.4-0.1-0.7-0.1-0.6 0-1.1 0.4-1.1 1.2 0 0.7 0.4 1.2 1.1 1.2 0.3 0 0.5-0.1 0.7-0.1l0.1 0.6z"/>
				<path class="s0" d="m113.9 49.1v-1.5l-1.1-2.2h0.9l0.4 0.9c0.1 0.3 0.1 0.5 0.2 0.7 0.1-0.2 0.2-0.4 0.3-0.7l0.4-0.9h0.9l-1.2 2.2v1.5c0 0-0.8 0-0.8 0z"/>
			</g>
		</g>
	</g>
</svg>