<svg version="1.2" xmlns="http://www.w3.org/2000/svg" viewBox="0 0 100 82" width="100" height="82">
	<title>72</title>
	<style>
		.s0 { fill: #9a3467 } 
		.s1 { fill: #623329 } 
		.s2 { fill: #fae7ea } 
		.s3 { fill: #c7578d } 
		.s4 { fill: #df3e83 } 
		.s5 { fill: #ffffff } 
		.s6 { fill: #e39cad } 
		.s7 { fill: #e4425d } 
		.s8 { fill: #f1b5bd } 
	</style>
	<g id="Layer_1-2">
		<g>
			<g>
				<path class="s0" d="m39.1 39.8c1.4-3.1 2.3-6.1 2.2-9.2q0-2.3-0.8-4.6c-0.5-1.5-1.3-3-2.2-4.5 1.6 1.2 2.9 2.6 3.8 4.1 0.8 1.6 1.3 3.3 1.3 5 0.1 1.7-0.3 3.4-1 5-0.8 1.5-1.8 3-3.3 4.2z"/>
				<path class="s0" d="m59.2 39.7c-2.4-0.1-4.7-0.9-6.7-2-2-1-3.7-2.3-5.2-3.7-3.1-2.8-5.4-6.1-6.6-9.6 2.8 2.9 5.3 5.9 8.2 8.6q2.2 2 4.7 3.7c1.6 1.2 3.4 2.3 5.6 3z"/>
				<path fill-rule="evenodd" class="s1" d="m84.1 32.1z"/>
				<path class="s2" d="m69.7 31.4c11.7 0-1-8.4-1-8.4 12.9-1.5 1.5-6.3 1.5-6.3 14.2-2.7 1.3-10.1 1.3-10.1l2.6 0.5c3.7 0.4 7.1 1.6 6.8 4.7-0.4 3.2-3.6 4.5-3.5 5.1 0.2 0.6 5 3.7-0.9 6-3.4 1.3 6.5 1.4 1 8.3-2 2.6 3.9 3.3-0.3 5.5-3.7 1.9-8.1 0.3-11.1-0.5 13 1.1 3.6-4.8 3.6-4.8z"/>
				<g>
					<path class="s3" d="m44.5 19c0 0 21.9 17.3 25.1 16 3.1-1.3-4.1-5.5-25.1-16z"/>
					<path class="s4" d="m45.5 17.8c0 0 26.2 13.2 27.6 12.1 1.4-1.1 0.1-6.3-27.6-12.1z"/>
					<path class="s0" d="m46.1 16.3c0 0 20.6 6.1 24.7 4.8 4.2-1.2 2.9-5.5-24.7-4.8z"/>
					<path class="s5" d="m46.5 15.1c0 0 23.9 0.2 27.5-1.5 3.6-1.7 0.9-8.5-27.5 1.5z"/>
					<path class="s6" d="m71.8 9.9c-3.9-0.5-11.6 0.4-25.3 5.2 0 0 23.9 0.2 27.5-1.5 1.8-0.9 2-3.1-2.2-3.7zm-0.3 2q0.3 0.1 0.6 0.1c-1.8 0.4-5.8 0.7-10.5 0.9 5.4-1.2 8.4-1.2 9.9-1z"/>
				</g>
				<g>
					<path class="s7" d="m81.7 36.4c0-0.5 0.7-0.9 1.6-0.9 0.8 0 1.6 0.3 1.6 0.8 0 0.5-0.7 0.9-1.6 1-0.8 0-1.6-0.4-1.6-0.9z"/>
					<path class="s4" d="m87.7 29.4c0-0.5 0.7-0.9 1.6-0.9 0.9-0.1 1.6 0.3 1.7 0.8 0 0.5-0.7 1-1.6 1-0.9 0-1.7-0.4-1.7-0.9z"/>
					<path class="s4" d="m82.3 32c-0.1-0.3 0.5-0.6 1.1-0.6 0.7 0 1.2 0.2 1.3 0.6 0 0.4-0.6 0.7-1.2 0.7-0.7 0-1.2-0.3-1.2-0.7z"/>
					<path class="s8" d="m84.3 25.5c0-0.3 0.5-0.6 1.1-0.6 0.7 0 1.2 0.2 1.2 0.6 0 0.3-0.5 0.6-1.1 0.6-0.6 0-1.2-0.2-1.2-0.6z"/>
					<path class="s4" d="m88 21.8c0-0.5 0.7-1 1.7-1 0.9 0 1.8 0.4 1.8 1 0 0.5-0.7 0.9-1.7 1-1 0-1.8-0.5-1.8-1z"/>
					<path class="s2" d="m81.7 22.2c0-0.4 0.5-0.7 1.2-0.7 0.7 0 1.2 0.3 1.2 0.7 0.1 0.3-0.5 0.7-1.1 0.7-0.7 0-1.3-0.3-1.3-0.7z"/>
					<path class="s6" d="m81.8 17.9c-0.1-0.6 0.7-1 1.7-1 0.9-0.1 1.7 0.4 1.8 0.9 0 0.6-0.8 1-1.7 1-1 0-1.8-0.4-1.8-0.9z"/>
					<path class="s4" d="m84.2 13.7c0-0.4 0.5-0.7 1.2-0.7 0.6 0 1.2 0.3 1.2 0.7 0 0.4-0.5 0.7-1.2 0.7-0.7 0-1.2-0.3-1.2-0.7z"/>
				</g>
				<g>
					<g>
						<path class="s0" d="m38.4 2.8c-1 0.2-1.9 0.3-2.3 1.1-0.4 0.7-0.4-0.5-0.7 0.3-2.5 3.6-1.8 6.3-1.6 7.9 0.3 1.9 4 7.8 3.5 7 0.6 1.6 0.2-0.3 1.3 1.2-1.8-1-1.8 0.2-4.2-4-1-1.6-1.6-3.4-1.8-5.2-0.1-1.8 0.1-3.6 1-5.3 0.4-0.8 0.9-1.6 1.6-2.4 0.7-0.6 2-0.7 3.2-0.7z"/>
						<path class="s0" d="m39.1 3.2c0.4 0.8-0.1 1.6-1.1 1.9-1.1 0.3-2.2-0.1-2.5-0.9-0.4-0.8 0.1-1.6 1.1-1.9 1.1-0.3 2.2 0.1 2.5 0.9z"/>
					</g>
					<path class="s0" d="m0.8 17.9q1.7-5.1 7.7-7.5 2.2-0.8 4.8-1.3 2.6-0.5 5.9-0.6 0.6 0 0.6 0.5 0 0.5-0.5 0.5-3.1 0.1-5.8 0.5-2.6 0.5-4.6 1.3-5.6 2.3-7.2 7-0.7 1.9-0.6 3.7 0 1.8 0.3 3.5 0.2 1.6 0.7 2.8 0.5 1.2 0.8 1.9 1.1 1.8 2.7 3.4 1.7 1.6 3.7 2.7 2 1.1 4.3 1.5 2.3 0.3 4.6-0.4 2.1-0.7 4.6-2.4 2.4-1.6 4.8-3.8 2.4-2.2 4.7-5 2.4-2.7 4.5-5.7-2.5-1.5-5-2.9-2.6-1.3-5-2.2-2.4-0.9-4.5-1.2-2.1-0.3-3.8 0.2-2.9 1.1-3 3.3 0.1 2.1 2.3 3.3 0.3 0 0.4 0.2 0 0.2-0.2 0.4-0.1 0.5-0.6 0.1-2.8-1.3-2.8-4.1 0.1-2.9 3.5-4.1 1.8-0.6 4-0.3 2.3 0.3 4.8 1.2 2.6 0.9 5.2 2.3 2.6 1.4 5.2 3 2.1-2.6 4-5 1.9-2.5 3.9-4.8 2.1-2.2 4.6-4.1 2.5-1.9 5.7-3.3 6.4-2.6 12.5-2.5 6.1 0.1 11.3 2.3 5.3 2.2 9.5 5.9 4.3 3.7 6.9 8.4 5.5 9.6 3.3 15.8-1.8 5-9.3 7.7-10.2 3.6-23.3-2-5.8-2.4-11.4-5.9-5.6-3.5-10.8-7-0.7-0.4-1.4-0.8-0.7-0.5-1.2-0.9-4.3 5.3-8.1 9.8-3.8 4.6-8.6 6.3-6.5 2.4-12.9-0.2-6.4-2.5-10-8.8-1.6-2.8-1.9-6.2-0.4-3.5 0.7-6.5zm97.2 14.1q1.8-4.9-1.9-12.3-2.2-4-6-7.3-3.8-3.2-8.5-5-4.6-1.9-9.7-2.2-5.1-0.2-10.2 1.4-6.2 2.3-10.9 6.7-4.6 4.4-8.6 9.4 0.6 0.4 1.3 0.9 0.6 0.5 1.3 0.9 5.3 3.5 10.8 7 5.5 3.4 11.1 5.7 13 5.4 22.6 1.9 6.9-2.4 8.7-7.1z"/>
					<path class="s0" d="m20.1 20c0.4 0.8-0.1 1.7-1.2 2-1 0.2-2.1-0.2-2.5-0.9-0.3-0.8 0.2-1.7 1.2-2 1-0.3 2.2 0.1 2.5 0.9z"/>
				</g>
				<path class="s0" d="m37.3 19.6q-2.6-1.6-5.2-2.9-2.6-1.4-5.2-2.3-2.5-0.9-4.7-1.2-2.2-0.3-4.1 0.3-3.4 1.2-3.5 4 0 2.9 2.8 4.2 0.5 0.4 0.7-0.1 0.1-0.2 0.1-0.4 0-0.2-0.3-0.2-2.3-1.2-2.3-3.3 0-2.2 2.9-3.3 1.7-0.5 3.8-0.2 2.1 0.3 4.5 1.2 2.4 0.9 5 2.2 2.5 1.3 5 2.9c0 0 0.5-0.9 0.5-0.9z"/>
			</g>
			<g>
				<g>
					<path class="s0" d="m6.2 48.9v0.2c-0.9 0-1.3 0.3-1.3 1.5v10.3c0 1.3 0.4 1.7 1.3 1.7v0.2h-4.1v-0.2c0.8 0 1.2-0.4 1.2-1.7v-10.3c0-1.2-0.4-1.5-1.2-1.5v-0.2z"/>
					<path class="s0" d="m10.2 62.6v0.2h-2.9v-0.2c0.7-0.2 0.8-0.3 0.8-1.3v-6c0-0.7-0.2-1-1-1.1v-0.2l2.3-0.5v7.8c0 1.1 0.1 1.1 0.8 1.3zm5.8 0v0.2h-2.9v-0.2c0.7-0.2 0.8-0.3 0.8-1.3v-4.5c0-1.5-0.8-2.5-2.3-2.5-0.5 0-0.9 0.2-1.3 0.5l-0.2-0.3c0.6-0.6 1.4-1 2.3-1 1.6 0 2.8 0.9 2.8 3.2v4.6c0 1.1 0.1 1.1 0.8 1.3z"/>
					<path class="s0" d="m25.4 62.6v0.2h-2.9v-0.2c0.7-0.2 0.8-0.3 0.8-1.3v-6.3c0-0.7-0.2-1.1-1-1.1h-2.8v7.5c0 1.1 0.3 1.1 1 1.2v0.2h-3.1v-0.2c0.7-0.1 0.7-0.2 0.7-1.2v-7.5h-1.2l-0.1-0.2h1.3v-0.1c0-4 1.3-5.3 3.5-5.5v0.3c-1 0.1-2.1 1-2.1 5.1v0.2h5.1v7.6c0 1.1 0.1 1.2 0.8 1.3zm-2.7-14.2v-0.3c0.9 0.2 1.8 0.7 1.8 1.8 0.1 0.3 0 0.7-0.2 1-0.4 0.3-1 0.3-1.3-0.1-0.3-0.3-0.3-0.9 0.1-1.2 0.1-0.2 0.4-0.3 0.6-0.2 0.4 0 0.1-0.8-1-1z"/>
					<path class="s0" d="m29.5 62.6v0.2h-2.9v-0.2c0.7-0.2 0.8-0.3 0.8-1.3v-6c0-0.7-0.2-1-1-1.1v-0.2l2.3-0.5v7.8c0 1.1 0.1 1.1 0.8 1.3zm5.8 0v0.2h-2.9v-0.2c0.7-0.2 0.7-0.3 0.7-1.3v-4.5c0-1.5-0.7-2.5-2.2-2.5-0.5 0-0.9 0.2-1.3 0.5l-0.2-0.3c0.6-0.6 1.4-1 2.2-1 1.7 0 2.9 0.9 2.9 3.2v4.6c0 1.1 0.1 1.1 0.8 1.3z"/>
					<path class="s0" d="m39.5 62.8h-3v-0.2c0.8-0.2 0.8-0.3 0.8-1.3v-6.1c0-0.6-0.1-0.9-1-1v-0.2l2.4-0.5v7.8c0 1.1 0.1 1.1 0.8 1.3z"/>
					<path class="s4" d="m37 51c0-0.5 0.3-0.8 0.8-0.8 0.5 0 0.8 0.3 0.8 0.8 0 0.5-0.3 0.8-0.8 0.8-0.5 0-0.8-0.3-0.8-0.8z"/>
					<path class="s0" d="m45.8 61.4c-0.2 0.9-0.9 1.6-2 1.6-1.3 0-2.2-0.6-2.2-3v-6.1h-1v-0.2h1v-2.9l1.4-0.2v3.1h2.3v0.2h-2.3v6c0 1.8 0.6 2.3 1.5 2.3 0.6 0 1-0.4 1.2-0.9z"/>
					<path class="s0" d="m49.8 61.1h-0.1c-2.6-4.5-3.7-6.4-3.7-6.4-0.5-0.7-1.2-0.8-1.5-0.8v-0.2h3.8v0.2c-1.4 0-0.6 1.2-0.6 1.2l2.7 4.7zm-1.1 2.1c-0.3 0.5-0.7 0.8-0.8 0.6 0-0.2-0.2-0.4-0.4-0.5-0.4-0.1-1 0-1.2 0.4-0.2 0.3 0 0.7 0.5 0.9 0.3 0.1 0.7 0.1 1-0.1 0.2-0.1 0.7-0.5 1.1-1.3zm5.7-9.5v0.2c-0.8 0-1.4 0.2-2.5 2.5l-0.1-0.1c0.1-0.4 0.9-2.4-1.2-2.4v-0.2h3.8z"/>
				</g>
				<path class="s0" d="m61 52.4v0.1c-1.9 0.3-4 1.3-4 5.8 0 4.6 2.1 5.7 4 5.8v0.2c-3.6-0.3-6-2.3-6-6 0-3.6 2.4-5.7 6-5.9zm1.7 0.1v-0.1c1.5 0 2.6 0.2 3.7 1l-0.2 2.5h-0.3c-0.2-2.4-1.8-3.2-3.3-3.4zm3.3 8.3h0.3l0.2 2.5c-1.3 0.7-2.2 1-3.7 1v-0.2c1.4-0.1 3.1-1.1 3.3-3.3z"/>
				<path class="s0" d="m70.9 64.2h-3v-0.3c0.8-0.2 0.8-0.3 0.8-1.3v-11.2c0-0.7-0.1-1-1-1.1v-0.2l2.4-0.4v12.9c0 1.1 0.1 1.2 0.8 1.4z"/>
				<path class="s0" d="m75.2 64.2h-3v-0.3c0.8-0.2 0.8-0.3 0.8-1.3v-6c0-0.7-0.2-1-1-1.1v-0.2l2.3-0.4v7.7c0 1.1 0.1 1.2 0.9 1.3z"/>
				<path class="s4" d="m72.6 52.4c0-0.5 0.4-0.9 0.9-0.9 0.4 0 0.8 0.4 0.8 0.9 0 0.4-0.4 0.8-0.8 0.8-0.5 0-0.9-0.4-0.9-0.8z"/>
				<path class="s0" d="m79.3 64v0.2h-3v-0.2c0.8-0.3 0.8-0.4 0.8-1.4v-6c0-0.7-0.2-1-1-1.1v-0.2l2.3-0.4v7.7c0 1.1 0.2 1.2 0.9 1.4zm5.7 0v0.2h-2.9v-0.2c0.7-0.3 0.8-0.4 0.8-1.4v-4.4c0-1.6-0.8-2.6-2.3-2.6-0.5 0-0.9 0.2-1.2 0.5l-0.3-0.2c0.6-0.6 1.5-1 2.3-1 1.6 0 2.8 0.8 2.8 3.2v4.5c0 1.1 0.1 1.2 0.8 1.4z"/>
				<path class="s0" d="m89.2 64.2h-2.9v-0.3c0.7-0.2 0.8-0.3 0.8-1.3v-6c0-0.7-0.2-1-1-1.1v-0.2l2.3-0.4v7.7c0 1.1 0.1 1.2 0.8 1.3z"/>
				<path class="s4" d="m86.7 52.4c0-0.5 0.4-0.9 0.8-0.9 0.5 0 0.9 0.4 0.9 0.9 0 0.4-0.4 0.8-0.9 0.8-0.4 0-0.8-0.4-0.8-0.8z"/>
				<path class="s0" d="m98.6 61.7c-0.2 1-1.1 2.6-3.5 2.6-2 0-4.3-1.5-4.3-4.7 0-2.3 1.6-4.4 4.1-4.7v0.2c-1 0.3-2.5 1.2-2.5 4.4 0 2.9 1.6 4 3 4.1 1.7 0.1 2.7-1.1 3-1.9zm-2.5-6.6v-0.3c1.7 0.2 2.1 1.1 2.2 1.4 0 0.2 0 0.5-0.2 0.8-0.3 0.2-0.8 0.3-1.1 0-0.3-0.3-0.3-0.8 0-1.1 0.1-0.1 0.3-0.2 0.5-0.2 0.1 0-0.3-0.5-1.4-0.6z"/>
			</g>
			<g>
				<path class="s3" d="m9.9 73.6q0.3-0.4 0.6-0.6 0.5-0.3 1.1-0.5 0.5-0.1 1.1-0.1h1.7q0.2 0 0.2 0.2v4.1q0 0.6 0.2 0.9 0.2 0.3 0.9 0.3h0.7q0.4 0 0.5 0.1 0.2 0 0.2 0.3 0 0.3-0.2 0.4-0.1 0-0.5 0h-0.8q-1 0-1.4-0.5-0.5-0.5-0.5-1.2v-3.6h-1.3q-1.1 0-1.5 0.6-0.4 0.3-0.5 0.9v1.2q0 0.7-0.1 1.3-0.1 0.5-0.3 0.8-0.2 0.2-0.5 0.3v0.1-0.1q-0.1 0.1-0.2 0.1-0.5 0.1-1.1 0.1h-3.6q-1 0-1.5-0.4-0.4-0.3-0.4-1.3v-3.4q0-0.2 0.1-0.2h0.6q0.2 0 0.2 0.2v3.4q0 0.5 0.2 0.7 0.1 0.2 0.5 0.2h3.7q0.5 0 0.8-0.1 0.3-0.1 0.4-0.3 0.2-0.2 0.2-0.5 0.1-0.3 0.1-0.7v-1.3q0-0.8 0.3-1.2 0.1-0.2 0.1-0.2zm-4.7 7.7q-0.2 0-0.2-0.2v-0.9q0-0.2 0.2-0.2h0.8q0.2 0 0.2 0.2v0.9q0 0.2-0.2 0.2zm2.1 0q-0.2 0-0.2-0.2v-0.9q0-0.2 0.2-0.2h0.8q0.2 0 0.2 0.2v0.9q0 0.2-0.2 0.2z"/>
				<path class="s3" d="m16.4 78.7q-0.3 0-0.4-0.1-0.1-0.1-0.1-0.3 0-0.3 0.1-0.4 0.1 0 0.4 0h1.6q0.4 0 0.5 0 0.2 0.1 0.2 0.3 0 0.3-0.2 0.4-0.1 0.1-0.5 0.1c0 0-1.6 0-1.6 0z"/>
				<path class="s3" d="m18 78.7q-0.3 0-0.4-0.1-0.1-0.1-0.1-0.3 0-0.3 0.1-0.4 0 0 0.4 0h1.6q0.3 0 0.5 0 0.2 0.1 0.2 0.3 0 0.3-0.2 0.4-0.1 0.1-0.5 0.1c0 0-1.6 0-1.6 0z"/>
				<path class="s3" d="m22.6 76.7q-0.1 0.6 0.4 0.9 0.4 0.2 1.1 0.3h0.1q0.3 0 0.5 0 0.2 0.1 0.2 0.4 0 0.2-0.2 0.3-0.1 0.1-0.5 0.1-0.7 0-1.1-0.1-0.5-0.2-0.8-0.7-0.1 0.4-0.5 0.6-0.3 0.2-0.9 0.2h-1.3q-0.3 0-0.4-0.1-0.2 0-0.2-0.3 0-0.3 0.1-0.4 0.2-0.1 0.5-0.1h1.2q0.3 0 0.5 0 0.2-0.1 0.2-0.3 0.1-0.1 0.2-0.4 0-0.2 0-0.6v-3.9q0-0.2 0.1-0.2h0.6q0.2 0 0.1 0.2zm-1.9-5.8q-0.2 0-0.2-0.2v-0.9q0-0.2 0.2-0.2h0.8q0.2 0 0.2 0.2v0.9q0 0.2-0.2 0.2zm2.1 0q-0.2 0-0.2-0.2v-0.9q0-0.2 0.2-0.2h0.8q0.2 0 0.2 0.2v0.9q0 0.2-0.2 0.2z"/>
				<path class="s3" d="m24.2 78.7q-0.3 0-0.4-0.1-0.1-0.1-0.1-0.3 0-0.3 0.1-0.4 0 0 0.4 0h1.6q0.3 0 0.5 0 0.2 0.1 0.2 0.3 0 0.3-0.2 0.4-0.1 0.1-0.5 0.1c0 0-1.6 0-1.6 0z"/>
				<path class="s3" d="m25.8 78.7q-0.3 0-0.5-0.1 0-0.1-0.1-0.3 0-0.3 0.1-0.4 0.1 0 0.5 0h1.6q0.3 0 0.5 0 0.1 0.1 0.1 0.3 0 0.3-0.1 0.4-0.2 0.1-0.5 0.1c0 0-1.6 0-1.6 0z"/>
				<path class="s3" d="m30.3 76.7q0 0.6 0.4 0.9 0.4 0.2 1.1 0.3h0.1q0.4 0 0.5 0 0.2 0.1 0.2 0.4 0 0.2-0.2 0.3-0.1 0.1-0.5 0.1-0.6 0-1.1-0.1-0.5-0.2-0.7-0.7-0.2 0.4-0.6 0.6-0.3 0.2-0.9 0.2h-1.2q-0.3 0-0.5-0.1-0.2 0-0.2-0.3 0-0.3 0.2-0.4 0.1-0.1 0.5-0.1h1.1q0.3 0 0.5 0 0.2-0.1 0.2-0.3 0.1-0.1 0.1-0.4 0.1-0.2 0.1-0.6v-3.9q0-0.2 0.1-0.2h0.6q0.1 0 0.1 0.2v4.1zm-0.7-5.8q-0.2 0-0.2-0.2v-0.9q0-0.2 0.2-0.2h0.6q0.2 0 0.2 0.2v0.9q0 0.2-0.2 0.2z"/>
				<path class="s3" d="m31.9 78.7q-0.3 0-0.4-0.1-0.1-0.1-0.1-0.3 0-0.3 0.1-0.4 0.1 0 0.4 0h1.6q0.4 0 0.5 0 0.2 0.1 0.2 0.3 0 0.3-0.2 0.4-0.1 0.1-0.5 0.1c0 0-1.6 0-1.6 0z"/>
				<path class="s3" d="m33.5 78.7q-0.3 0-0.4-0.1-0.1-0.1-0.1-0.3 0-0.3 0.1-0.4 0 0 0.4 0h1.6q0.3 0 0.5 0 0.2 0.1 0.2 0.3 0 0.3-0.2 0.4-0.1 0.1-0.5 0.1c0 0-1.6 0-1.6 0z"/>
				<path class="s3" d="m38 76.7q0 0.6 0.5 0.9 0.4 0.2 1.1 0.3h0.1q0.3 0 0.5 0 0.2 0.1 0.1 0.4 0 0.2-0.1 0.3-0.1 0.1-0.5 0.1-0.7 0-1.2-0.1-0.4-0.2-0.7-0.7-0.2 0.4-0.5 0.6-0.3 0.2-0.9 0.2h-1.3q-0.3 0-0.5-0.1-0.1 0-0.1-0.3 0-0.3 0.1-0.4 0.2-0.1 0.5-0.1h1.2q0.3 0 0.5 0 0.2-0.1 0.2-0.3 0.1-0.1 0.1-0.4 0.1-0.2 0.1-0.6v-3.9q0-0.2 0.1-0.2h0.6q0.1 0 0.1 0.2zm-2.1 4.6q-0.2 0-0.2-0.2v-0.9q0-0.2 0.2-0.2h0.8q0.2 0 0.2 0.2v0.9q0 0.2-0.2 0.2zm2.1 0q-0.2 0-0.2-0.2v-0.9q0-0.2 0.2-0.2h0.8q0.2 0 0.2 0.2v0.9q0 0.2-0.2 0.2z"/>
				<path class="s3" d="m39.7 78.7q-0.3 0-0.4-0.1-0.1-0.1-0.1-0.3 0-0.3 0.1-0.4 0 0 0.4 0h1.6q0.3 0 0.5 0 0.2 0.1 0.2 0.3 0 0.3-0.2 0.4-0.1 0.1-0.5 0.1c0 0-1.6 0-1.6 0z"/>
				<path class="s3" d="m41.3 78.7q-0.4 0-0.5-0.1-0.1-0.1-0.1-0.3 0-0.3 0.1-0.4 0.1 0 0.5 0h1.6q0.3 0 0.5 0 0.1 0.1 0.1 0.3 0 0.3-0.1 0.4-0.2 0.1-0.5 0.1c0 0-1.6 0-1.6 0z"/>
				<path class="s3" d="m46.8 72.1q0.7 0 1.3 0.3 0.6 0.2 1 0.6 0.3 0.4 0.5 0.9 0.2 0.5 0.2 1.1 0 0.5-0.1 0.9-0.1 0.4-0.3 0.8-0.3 0.4-0.6 0.7-0.3 0.3-0.6 0.5h2.8q0.3 0 0.4 0 0.2 0.1 0.2 0.4 0 0.2-0.2 0.3-0.1 0.1-0.4 0.1h-2.1q-0.6 0-1.1 0-0.5-0.1-1-0.4-0.5 0.3-1.1 0.4-0.7 0-1.1 0h-1.8q-0.6 0-0.6-0.4 0-0.3 0.1-0.4 0.2-0.1 0.5-0.1h2.6q-0.7-0.4-1.2-1.1-0.4-0.7-0.4-1.6 0-0.6 0.2-1.2 0.2-0.5 0.6-0.9 0.3-0.4 0.9-0.6 0.6-0.3 1.3-0.3zm0 0.9q-0.5 0.1-0.8 0.2-0.4 0.1-0.7 0.4-0.3 0.3-0.4 0.6-0.2 0.4-0.2 0.9 0 0.4 0.2 0.8 0.1 0.4 0.4 0.8 0.3 0.3 0.7 0.5 0.4 0.3 0.8 0.4 0.4-0.1 0.8-0.4 0.4-0.2 0.7-0.5 0.2-0.3 0.4-0.8 0.2-0.4 0.2-0.8 0-1-0.6-1.5-0.6-0.5-1.5-0.6zm-0.4-2.1q-0.1 0-0.1-0.2v-0.9q0-0.2 0.1-0.2h0.7q0.1 0 0.1 0.2v0.9q0 0.2-0.1 0.2z"/>
				<path class="s3" d="m51 78.7q-0.4 0-0.5-0.1-0.1-0.1-0.1-0.3 0-0.3 0.1-0.4 0.1 0 0.5 0h1.6q0.3 0 0.5 0 0.1 0.1 0.1 0.3 0 0.3-0.1 0.4-0.2 0.1-0.5 0.1c0 0-1.6 0-1.6 0z"/>
				<path class="s3" d="m52.5 78.7q-0.3 0-0.4-0.1-0.1-0.1-0.1-0.3 0-0.3 0.1-0.4 0.1 0 0.4 0h1.7q0.3 0 0.4 0 0.2 0.1 0.2 0.3 0 0.3-0.1 0.4-0.2 0.1-0.5 0.1c0 0-1.7 0-1.7 0z"/>
				<path class="s3" d="m57 73.3v3.5q0 1-0.5 1.4-0.4 0.5-1.4 0.5h-1q-0.3 0-0.4 0-0.2-0.1-0.2-0.4 0-0.3 0.1-0.4 0.2-0.1 0.5-0.1h1.2q0.4 0 0.6-0.1 0.2-0.2 0.2-0.7v-4.4q0-0.2 0.1-0.2h0.6c0 0 0.1 0 0.1 0h1v0.9h-0.9zm-0.7-2.4q-0.2 0-0.2-0.2v-0.9q0-0.2 0.2-0.2h0.6q0.2 0 0.2 0.2v0.9q0 0.2-0.2 0.2z"/>
				<path class="s3" d="m60.5 78.6q0 0.1-0.2 0.1h-0.6q-0.1 0-0.1-0.1v-10.4q0-0.1 0.1-0.1h0.6q0.2 0 0.2 0.1z"/>
				<path class="s3" d="m68.4 76.7q0 0.6 0.4 0.9 0.4 0.2 1.2 0.3 0.4 0 0.5 0 0.2 0.1 0.2 0.4 0 0.3-0.2 0.4-0.1 0-0.5 0-0.5 0-0.9 0-0.4-0.1-0.7-0.5v1.3q0 1.1-0.6 1.7-0.5 0.6-1.7 0.6h-0.3q-0.2 0-0.2-0.2v-0.5q0-0.2 0.2-0.2h0.4q0.6 0 1-0.3 0.3-0.3 0.3-1v-7q0-0.2 0.2-0.2h0.6q0.1 0 0.1 0.2v4.1zm-0.8-5.8q-0.1 0-0.1-0.2v-0.9q0-0.2 0.1-0.2h0.7q0.1 0 0.1 0.2v0.9q0 0.2-0.1 0.2z"/>
				<path class="s3" d="m70 78.7q-0.3 0-0.4-0.1-0.1-0.1-0.1-0.3 0-0.3 0.1-0.4 0.1 0 0.4 0h1.6q0.4 0 0.5 0 0.2 0.1 0.2 0.3 0 0.3-0.2 0.4-0.1 0.1-0.5 0.1c0 0-1.6 0-1.6 0z"/>
				<path class="s3" d="m71.6 78.7q-0.3 0-0.4-0.1-0.1-0.1-0.1-0.3 0-0.3 0.1-0.4 0 0 0.4 0h1.6q0.3 0 0.5 0 0.2 0.1 0.2 0.3 0 0.3-0.2 0.4-0.1 0.1-0.5 0.1c0 0-1.6 0-1.6 0z"/>
				<path class="s3" d="m74.5 73.3q-0.2 0-0.2-0.2v-0.5q0-0.2 0.1-0.2l3.6-4.1q0.1-0.1 0.2 0l0.4 0.4q0.2 0.1 0.1 0.2l-3.1 3.5h1.9q0.6 0 1.1 0.2 0.5 0.1 0.8 0.5 0.4 0.3 0.6 0.8 0.2 0.5 0.2 1.2v0.9q0 0.8-0.1 1.3-0.1 0.6-0.4 0.9-0.3 0.3-0.7 0.4-0.4 0.1-1.1 0.1h-4.7q-0.3 0-0.5-0.1-0.2 0-0.2-0.3 0-0.3 0.2-0.4 0.2 0 0.5-0.1h4.5q0.5 0 0.8 0 0.3-0.1 0.5-0.3 0.1-0.2 0.2-0.5 0-0.3 0-0.7v-1.3q0-0.9-0.5-1.3-0.5-0.4-1.5-0.4h-2.7z"/>
				<path class="s3" d="m83.9 76.7q0 0.6 0.4 0.9 0.4 0.2 1.1 0.3h0.1q0.3 0 0.5 0 0.2 0.1 0.1 0.4 0 0.3-0.1 0.4-0.2 0-0.5 0-0.5 0-0.9 0-0.4-0.1-0.7-0.5v1.3q0 1.1-0.6 1.7-0.6 0.6-1.8 0.6h-0.2q-0.2 0-0.2-0.2v-0.5q0-0.2 0.2-0.2h0.3q0.7 0 1.1-0.3 0.3-0.3 0.3-1v-7q0-0.2 0.2-0.2h0.5q0.2 0 0.2 0.2v4.1z"/>
				<path class="s3" d="m85.5 78.7q-0.3 0-0.4-0.1-0.1-0.1-0.1-0.3 0-0.3 0.1-0.4 0 0 0.4 0h1.6q0.3 0 0.5 0 0.2 0.1 0.2 0.3 0 0.3-0.2 0.4-0.1 0.1-0.5 0.1c0 0-1.6 0-1.6 0z"/>
				<path class="s3" d="m87.1 78.7q-0.3 0-0.5-0.1 0-0.1 0-0.3 0-0.3 0-0.4 0.1 0 0.5 0h1.6q0.3 0 0.5 0 0.1 0.1 0.1 0.3 0 0.3-0.1 0.4-0.2 0.1-0.5 0.1c0 0-1.6 0-1.6 0z"/>
				<path class="s3" d="m93.4 78.8q-0.7 0-1.3-0.2-0.6-0.2-1-0.6-0.3 0.5-0.6 0.6-0.4 0.1-0.9 0.1h-0.9q-0.4 0-0.5-0.1-0.2 0-0.2-0.3 0-0.3 0.2-0.4 0.1 0 0.5 0h0.9q0.1 0 0.3-0.1 0.2-0.1 0.3-0.2 0.2-0.2 0.3-0.5 0.1-0.2 0.1-0.6 0-0.2-0.1-0.4 0-0.2 0-0.5 0-3.5 2.9-3.5 1.4 0.1 2.1 0.9 0.7 0.8 0.7 2.5c0 1.1-0.2 2-0.7 2.5q-0.7 0.8-2.1 0.8zm0-5.8q-1 0-1.5 0.7-0.4 0.7-0.4 1.8 0 1.3 0.4 1.9 0.5 0.6 1.5 0.6 1 0 1.4-0.6 0.5-0.6 0.5-1.9 0-1.1-0.5-1.8-0.4-0.7-1.4-0.7z"/>
			</g>
		</g>
	</g>
</svg>