<svg version="1.2" xmlns="http://www.w3.org/2000/svg" viewBox="0 0 78 85" width="78" height="85">
	<title>77</title>
	<style>
		.s0 { fill: #c558a0 } 
		.s1 { fill: #10afbd } 
		.s2 { fill: #808184 } 
	</style>
	<g id="Layer_1-2">
		<g>
			<path class="s0" d="m77.5 81.1q0 0.3-0.1 0.6c-0.4 1.6-1.8 2.8-3.4 3-0.9 0-1.8 0.1-2.8-0.1-1.5-0.4-2.7-1.8-2.9-3.4q-0.1-0.5 0-0.9c0.1-0.7 0.8-1.2 1.6-1.1 0.7 0 1.3 0.7 1.3 1.4 0 0.3 0 0.6 0 0.9 0.2 0.9 1 1.4 1.9 1.4 0.8-0.1 1.5-0.8 1.5-1.7q0-0.6 0-1.2c0-0.9-0.7-1.6-1.6-1.6-0.8 0-1.6-0.2-2.3-0.6-1.4-0.8-2.2-1.9-2.4-3.5-0.1-0.6 0-1.1 0-1.6q0-1.6 0-3.2c0-0.7 0.5-1.4 1.2-1.4 0.9-0.1 1.5 0.4 1.7 1.2q0 0.1 0 0.2 0 2.7 0 5.4c0 0.9 0.8 1.6 1.7 1.6 1 0 1.7-0.7 1.7-1.7q0-2.6 0-5.2c0-0.8 0.5-1.4 1.2-1.5 0.8-0.1 1.5 0.3 1.7 1 0 0 0 0.1 0 0.1v5c0 0 0 0 0 0.1q-0.1 1.1-0.7 2-0.4 0.5-0.9 1 1 0.8 1.4 1.9c0.1 0.3 0.2 0.7 0.2 1v0.9z"/>
			<path class="s0" d="m29.5 74.2q0 1.4 0 2.7c0 0.8-0.4 1.3-1.1 1.4-0.7 0.2-1.3-0.1-1.6-0.8-0.2-0.2-0.2-0.5-0.2-0.7q0-2.6 0-5.1c0-1-0.6-1.8-1.6-1.8-1.1-0.1-1.8 0.8-1.8 1.7q0 1.6 0 3.2 0 1 0 2c0 0.9-0.5 1.5-1.3 1.6-0.8 0.1-1.6-0.6-1.6-1.4q0-2.4 0-4.7c0-1.9 1.5-3.7 3.4-4.1 1.6-0.4 3-0.1 4.2 1 0.1 0.1 0.2 0.1 0.3 0 1.8-1.6 4.7-1.5 6.4 0.3q1.3 1.3 1.3 3.1 0 2.2 0 4.3c0 0.8-0.7 1.5-1.5 1.5-0.8 0-1.4-0.7-1.4-1.5q0-2.6 0-5.3c0-0.7-0.5-1.4-1.2-1.6-0.8-0.2-1.6 0-2 0.7-0.2 0.3-0.3 0.6-0.3 1q0 1.3 0 2.5z"/>
			<path class="s1" d="m31.5 34.7c0.4-0.1 0.8 0 1.2 0 0.6 0 0.9-0.1 1.2-0.7 0.2-0.5 0.2-1.1 0.4-1.6 0.1-0.6 0.2-1.2 0.5-1.7 0.5-0.7 1.2-0.9 1.9-0.8 0.6 0 1.1 0.3 1.6 0.5 0.5 0.2 0.9 0.3 1.4 0.4q0.5 0 0.9-0.1c0.3 0 0.6-0.3 0.7-0.6q0.2-0.5 0.3-1.1 0.2-0.8 0.8-1.5c0.1-0.2 0.2-0.4 0.4-0.5 0.1-0.3 0.1-0.6 0.1-0.9-0.2-1.7 0.6-2.9 2-3.5 0.9-0.4 1.8-0.7 2.7-0.8q1.1-0.1 2.2 0c0.5 0 1 0.2 1.4 0.4 0.7 0.4 0.9 1.1 0.8 1.9-0.2 0.9-0.6 1.6-1.1 2.3-0.7 1-1.5 1.8-2.6 2.4-1.1 0.7-2.3 0.7-3.4 0.1-0.6-0.3-0.9-0.1-1.2 0.4-0.2 0.6-0.4 1.2-0.7 1.7-0.4 0.6-0.8 1.1-1.5 1.4-0.7 0.3-1.4 0.2-2.1 0-0.8-0.2-1.4-0.6-2.1-1q-0.2-0.2-0.5-0.3c-0.5-0.1-0.8 0-1.1 0.4-0.3 0.4-0.4 0.7-0.6 1.1q-0.1 0.5-0.3 1.1-0.2 0.4-0.5 0.8-0.6 0.6-1.4 0.5-0.7-0.1-1.4-0.4z"/>
			<path class="s0" d="m67.1 70.2q0 1.8 0 3.5c0 2.4-1.6 4.3-4 4.6-2.7 0.4-4.7-1.4-5.2-3.5q-0.1-0.5-0.1-1c0.1-0.7 0-1.5 0.2-2.2 0.3-1.8 1.9-3.3 3.8-3.5 0.7-0.1 1.5-0.1 2.2 0.2 0.2 0.1 0.2 0 0.2-0.1q0-0.9 0-1.9c0-0.6 0.4-1.1 1-1.4 0.5-0.2 1.2 0 1.6 0.5q0.3 0.4 0.3 0.9 0 1.9 0 3.9zm-2.9 3q0-0.8 0-1.6c0-1-0.8-1.7-1.7-1.7-1 0-1.7 0.7-1.7 1.7q0 1.6 0 3.2c0 1 0.7 1.7 1.7 1.7 0.9 0 1.7-0.7 1.7-1.7q0-0.8 0-1.6z"/>
			<path class="s0" d="m47.5 71.6q0-2.6 0-5.3c0-0.7 0.5-1.3 1.2-1.4 0.7-0.1 1.4 0.3 1.6 1q0.1 0.2 0.1 0.5 0 0.9 0 1.7c0 0.3 0 0.3 0.2 0.2 1.5-0.5 3-0.3 4.3 0.7q1.8 1.3 1.8 3.6 0 2.2 0 4.4c0 0.7-0.5 1.3-1.3 1.4-0.7 0.1-1.4-0.4-1.5-1.1q-0.1-0.2-0.1-0.5 0-2.6 0-5.2c0-0.7-0.5-1.6-1.6-1.7-0.9 0-1.6 0.5-1.8 1.3q0 0.2 0 0.4 0 2.7 0 5.3c0 0.8-0.5 1.4-1.3 1.5-0.9 0.1-1.6-0.6-1.6-1.4q0-2.7 0-5.4z"/>
			<path class="s0" d="m46.3 74.7q0 1.1 0 2.3c0 0.6-0.3 1-0.9 1.2-0.5 0.3-1.1 0.2-1.5-0.2-0.1-0.1-0.2-0.1-0.3 0-1.7 0.6-3.2 0.5-4.7-0.5q-1.7-1.3-1.8-3.4c-0.1-0.8-0.1-1.6 0-2.4 0.4-1.9 2-3.4 3.9-3.6q2.9-0.3 4.6 2.1 0.7 1 0.7 2.3 0 1.1 0 2.2zm-6.3-1.5q0 0.8 0 1.6-0.1 0.5 0.2 0.9c0.4 0.6 1.2 1 1.9 0.8 0.8-0.2 1.3-0.9 1.3-1.7q0-1.6 0-3.2 0-0.2-0.1-0.4c-0.2-0.8-1-1.4-1.8-1.3-0.9 0.1-1.5 0.8-1.5 1.7q0 0.8 0 1.6z"/>
			<path class="s0" d="m11.6 74.1q-1.2 0-2.4 0c-0.2 0-0.2 0.1-0.2 0.2q0 0.3 0 0.5c0 0.8 0.5 1.5 1.2 1.7 0.8 0.2 1.6-0.2 2-0.9 0.2-0.3 0.4-0.5 0.7-0.5q0.9 0 1.7 0c0.1 0 0.2 0 0.3 0.2q0.1 0.1-0.1 0.3c-0.5 0.8-1.1 1.6-1.9 2.1-1.6 1.1-4 0.8-5.4-0.5q-1.5-1.5-1.4-3.5c0-0.6-0.1-1.3 0-1.9 0.4-1.8 1.8-3.3 3.5-3.6 2.1-0.5 4.1 0.4 5.1 2.2 0.3 0.5 0.5 1.1 0.6 1.8q0 0.4 0 0.8c-0.1 0.6-0.7 1.1-1.4 1.1q-1.2 0-2.3 0zm-0.9-1.8q0.7 0 1.5 0c0.1 0 0.2 0 0.2-0.2q0-0.3 0-0.5c0-0.9-0.7-1.6-1.6-1.7-0.8-0.1-1.6 0.5-1.8 1.3-0.1 0.3 0 0.6 0 0.9-0.1 0.2 0 0.2 0.2 0.2q0.7 0 1.5 0z"/>
			<path class="s0" d="m16 71.6q0-2.6 0-5.3c0-0.6 0.3-1 0.9-1.3q0.8-0.3 1.5 0.3 0.5 0.4 0.5 1 0 5.3 0 10.6c0 0.8-0.7 1.5-1.4 1.5-0.8 0-1.5-0.7-1.5-1.5q0-2.6 0-5.3z"/>
			<path class="s1" d="m15.4 33.9c0-1.2 0.4-2.3 1.2-3.4 0.5-0.6 1.4-0.8 2.1-0.3 0.7 0.5 0.8 1.4 0.3 2.2-0.3 0.4-0.5 1-0.5 1.6 0 1 0.6 2 1.6 2.4 1 0.4 1.3 1.6 0.7 2.4-0.5 0.5-1.2 0.7-1.8 0.4q-2.2-0.9-3.2-3.1-0.4-1-0.4-2.3z"/>
			<path class="s0" d="m29.7 37.8c-0.1 1.7 1.3 3 3 2.7 0.8-0.1 1.6 0.5 1.7 1.4 0.1 0.7-0.5 1.5-1.2 1.6-2 0.3-3.6-0.2-5-1.6-1.3-1.3-1.8-2.9-1.6-4.7 0.1-0.8 0.9-1.4 1.6-1.3 0.9 0 1.5 0.7 1.5 1.5q0 0.2 0 0.3z"/>
			<path class="s1" d="m21 43.5c0-0.4 0-0.9 0.2-1.3 0.4-0.6 1.1-0.8 1.7-0.6 0.7 0.2 1.2 0.8 1.2 1.5 0 0.3-0.1 0.7 0 1 0.3 1.4 1.6 2.3 3 2 0.8-0.1 1.6 0.5 1.7 1.4 0.1 0.8-0.5 1.5-1.3 1.7-2.9 0.5-5.8-1.5-6.4-4.4q-0.1-0.6-0.1-1.3z"/>
			<path class="s0" d="m57.9 23.5c0.2 0 0.5 0.1 0.8 0.4 1.4 1.1 2.2 2.5 2.3 4.3q0 2.9-2.2 4.7c-0.7 0.5-1.6 0.4-2.2-0.2-0.5-0.7-0.4-1.7 0.3-2.2q0.6-0.5 0.8-1.2c0.5-1 0.1-2.2-0.7-2.9-0.4-0.3-0.7-0.6-0.8-1.1-0.1-0.9 0.6-1.8 1.7-1.8z"/>
			<path class="s1" d="m36.3 54.8c-2.4 0-4.4-1.4-5.3-3.5-0.3-0.8 0.1-1.7 0.8-2 0.8-0.3 1.7 0 2 0.8 0.5 1.1 1.4 1.7 2.6 1.6 0.5 0 1.1-0.2 1.5-0.6 0.5-0.4 1.1-0.4 1.7-0.1 0.9 0.5 1.1 1.9 0.2 2.6q-1.4 1.1-3.2 1.2c-0.1 0-0.3 0-0.3 0z"/>
			<path class="s1" d="m62.6 13.2q0 0.5-0.1 0.9c-0.1 0.8-0.9 1.3-1.6 1.2-0.8-0.1-1.4-0.7-1.4-1.5 0-0.5 0.1-0.9-0.1-1.3-0.3-1.2-1.6-2-2.8-1.8-0.9 0.1-1.7-0.5-1.8-1.4-0.1-0.7 0.5-1.5 1.3-1.6q2.8-0.4 4.8 1.5 1.5 1.4 1.7 3.4 0 0.2 0 0.3 0 0.2 0 0.4z"/>
			<path class="s0" d="m57 37.9c0 2.9-2 5.2-4.9 5.7q-0.8 0.1-1.6 0c-0.8-0.2-1.3-1-1.2-1.8 0.1-0.8 0.9-1.4 1.7-1.3 1.4 0.2 2.8-0.8 2.9-2.2q0.1-0.4 0-0.8c-0.1-0.9 0.5-1.6 1.3-1.7 0.9-0.1 1.7 0.5 1.8 1.4q0 0.4 0 0.7z"/>
			<path class="s0" d="m53.9 19.1c0.1-1.7-1.3-3.1-3-2.8-0.8 0.1-1.6-0.5-1.7-1.4-0.1-0.8 0.5-1.5 1.3-1.7 3-0.4 5.7 1.5 6.4 4.4 0.1 0.7 0.2 1.4 0 2.1-0.1 0.8-0.8 1.3-1.6 1.2-0.8 0-1.4-0.7-1.4-1.5q0-0.1 0-0.3z"/>
			<path class="s1" d="m15.4 22.6c0.1-2.1 1.2-3.9 3.4-4.9 0.9-0.4 1.8-0.1 2.1 0.8 0.3 0.8 0 1.6-0.8 1.9-0.5 0.3-0.9 0.5-1.1 0.9-0.7 1-0.7 2.2 0 3.1 0.6 0.8 0.5 1.7-0.2 2.2-0.6 0.6-1.6 0.5-2.2-0.2-0.8-1.1-1.2-2.2-1.2-3.8z"/>
			<path class="s1" d="m68.2 34c0 2.2-1.4 4.3-3.5 5.2-0.8 0.3-1.7 0-2-0.8-0.4-0.8 0-1.7 0.8-2 1.1-0.5 1.6-1.4 1.6-2.6 0-0.6-0.2-1.1-0.6-1.5-0.7-0.9-0.2-2.3 1-2.5 0.6-0.1 1 0.1 1.4 0.6 0.8 1 1.3 2.3 1.3 3.6z"/>
			<path class="s0" d="m41.9 9.2c1.7 0.1 3.2 0.8 4.4 2.2q0.5 0.8 0.2 1.6c-0.3 0.6-0.8 0.9-1.4 0.9-0.5 0.1-0.9-0.1-1.2-0.5-0.4-0.6-1-0.9-1.7-1q-1.5-0.3-2.4 0.9c-0.4 0.4-0.8 0.7-1.4 0.7q-0.9 0-1.3-0.8c-0.3-0.5-0.3-1.1 0.1-1.6q1-1.4 2.6-2c0.6-0.2 1.3-0.3 2.1-0.3z"/>
			<path class="s1" d="m36.2 2q1.9 0 3.5 1.2c0.6 0.5 0.8 1.4 0.3 2.1-0.5 0.7-1.5 0.9-2.2 0.3-1.1-0.8-2.5-0.7-3.4 0.3q-0.4 0.4-0.6 0.9c-0.3 0.7-1 1.1-1.7 0.9-0.8-0.1-1.3-0.8-1.3-1.6q0.1-0.2 0.2-0.4 1.2-3.2 4.6-3.6 0.3-0.1 0.6-0.1z"/>
			<path class="s1" d="m68.2 22.8c0 1.3-0.4 2.5-1.2 3.5-0.4 0.5-1.1 0.7-1.7 0.5-0.6-0.2-1.1-0.8-1-1.5q0-0.5 0.3-0.9c1-1.4 0.5-3.3-1.2-4-0.6-0.3-1-0.9-0.9-1.5 0-0.7 0.5-1.3 1.2-1.4q0.4-0.1 0.9 0.1 3 1.2 3.5 4.4c0.1 0.3 0.1 0.6 0.1 0.8z"/>
			<path class="s0" d="m41.8 47.6c-1.8 0-3.3-0.8-4.5-2.2-0.5-0.7-0.4-1.6 0.3-2.2 0.7-0.5 1.6-0.4 2.2 0.3q0.5 0.7 1.4 1c1.1 0.2 2-0.2 2.7-1 0.5-0.7 1.4-0.9 2.1-0.4 0.7 0.5 0.9 1.4 0.4 2.1q-1.3 1.9-3.6 2.3-0.5 0.1-1 0.1z"/>
			<path class="s1" d="m47.4 54.8q-2 0-3.5-1.2-0.8-0.6-0.6-1.5c0.2-0.7 0.6-1.1 1.2-1.2q0.7-0.1 1.2 0.3c1.5 1.1 3.5 0.4 4.1-1.2 0.3-0.8 1.2-1.1 2-0.8 0.7 0.3 1.2 1.2 0.8 2q-1.2 3-4.5 3.5-0.1 0.1-0.3 0.1-0.2 0-0.5 0z"/>
			<path class="s1" d="m62.6 43.5c0 2.9-2 5.3-4.8 5.7q-0.8 0.1-1.6 0c-0.9-0.2-1.4-0.9-1.3-1.8 0.1-0.8 0.9-1.3 1.7-1.2 1.6 0.2 3-1.1 3-2.7q-0.1-0.3-0.1-0.5c0-0.7 0.5-1.5 1.4-1.6 0.9-0.1 1.6 0.5 1.7 1.4 0 0.2 0 0.5 0 0.7z"/>
			<path class="s1" d="m51 7.7c-0.5-0.1-1-0.4-1.2-1q-0.7-1.5-2.4-1.6-0.9 0-1.7 0.6c-0.4 0.3-0.9 0.4-1.5 0.2q-0.9-0.3-1-1.3-0.1-0.8 0.6-1.3c1.2-1 2.6-1.4 4.2-1.2 2.1 0.3 3.7 1.4 4.6 3.4 0.4 1-0.3 2.2-1.6 2.2z"/>
			<path class="s0" d="m25.8 23.6c0.6 0 1.2 0.4 1.4 1 0.2 0.5 0.1 1.2-0.3 1.6-0.3 0.3-0.7 0.5-0.8 0.9-0.7 1.1-0.4 2.6 0.6 3.4q0.8 0.6 0.7 1.5-0.2 0.9-1.1 1.2-0.7 0.2-1.4-0.2c-1.4-1.1-2.2-2.5-2.3-4.3-0.1-2 0.7-3.6 2.2-4.8q0.4-0.3 1-0.3z"/>
			<path class="s0" d="m32.1 13.2c0.4 0 0.6 0 0.9 0 0.8 0.1 1.4 0.9 1.3 1.8-0.1 0.8-0.9 1.4-1.7 1.3-1.5-0.2-2.8 0.8-3 2.3q0 0.4 0.1 0.7c0.1 1-0.6 1.6-1.3 1.7-0.8 0.1-1.6-0.3-1.8-1.3-0.4-2.7 1.3-5.4 3.9-6.2 0.6-0.2 1.2-0.3 1.6-0.3z"/>
			<path class="s1" d="m21 13.3c0-2.8 2-5.2 4.7-5.7q0.9-0.1 1.7 0c0.8 0.2 1.4 0.9 1.3 1.8-0.1 0.8-0.9 1.4-1.7 1.3-1.4-0.2-2.8 0.8-2.9 2.2q-0.1 0.3 0 0.7c0.1 0.9-0.4 1.6-1.2 1.8-0.9 0.2-1.7-0.4-1.9-1.3q0-0.4 0-0.8z"/>
			<g>
				<path class="s2" d="m18.5 6q-0.2-0.7-0.6-1.3-0.3-0.4-0.7-0.7c-0.6-0.5-1.2-0.5-1.8-0.3-0.4 0.1-0.5 0-0.6-0.3q0-0.2 0-0.4c-0.1-0.2-0.1-0.5-0.2-0.7-0.4-0.7-0.9-0.8-1.6-0.6-0.5 0-0.9 0.2-1.4 0.4q-0.6 0.3-0.8-0.4 0-0.4-0.1-0.7c0-0.4-0.1-0.8-0.5-1h-0.8c-0.1 0.1-0.2 0-0.3 0.1q0.2 0 0.4 0 0.2 0 0.3 0.1c0.3 0 0.5 0.1 0.5 0.5q0 0.1 0 0.2 0 0.5 0 1c0 0.5 0.3 0.9 0.9 0.9 0.3 0 0.6-0.1 0.9-0.2 0.4-0.1 0.8-0.1 1.2 0q0.4 0.1 0.4 0.4 0 0.3 0 0.7c0 0.1 0 0.3 0.1 0.5 0.2 0.3 0.2 0.6 0.1 1-0.3 0.6-0.1 1.1 0.4 1.5 1 0.7 2 1 3.2 0.8 0.8-0.1 1.1-0.7 1-1.4z"/>
				<path class="s2" d="m17.3 11.2c-0.3-0.5-0.7-0.9-1.1-1.2-0.9-0.6-1.7-0.6-2.7-0.3-0.4 0.1-0.6 0-0.7-0.4 0-0.4-0.1-0.8-0.2-1.2q-0.4-1.7-2.2-1.5c-0.6 0-1.1 0.2-1.6 0.4-0.3 0.1-0.5 0.2-0.8 0.3q-0.7 0.1-0.9-0.5-0.1-0.3-0.1-0.5c-0.1-0.5-0.1-0.9-0.2-1.3-0.1-0.4-0.3-0.7-0.6-0.8-0.5-0.2-1.1 0-1.6 0q0.2 0.1 0.4 0.1 0.4 0 0.7 0.1c0.4 0 0.5 0.2 0.6 0.5q0 0.4 0 0.8c0 0.4-0.1 0.8-0.1 1.2 0.1 0.8 0.5 1.2 1.2 1.3 0.4 0.1 0.9-0.1 1.3-0.2 0.5-0.1 1.1-0.2 1.6-0.1q0.8 0 0.8 0.6 0.1 0.4 0 0.8 0 0.6 0.3 1.1c0.2 0.4 0.3 0.8 0.1 1.2q-0.1 0-0.1 0.1c-0.4 1-0.1 1.9 0.8 2.5 1.3 0.9 2.7 1.3 4.3 1.2 1.2-0.1 1.8-1 1.6-2.1q-0.2-1.2-0.8-2.1z"/>
				<path class="s2" d="m8.3 10.8c-0.6-0.9-1.3-1.1-2.3-0.8-0.3 0.1-0.4 0-0.4-0.3-0.1-0.3-0.1-0.6-0.2-0.9-0.2-0.6-0.5-1-1.4-1-0.5 0.1-1 0.3-1.5 0.5q-0.8 0.3-0.9-0.6 0 0 0-0.1-0.1-0.4-0.1-0.8c-0.1-0.3-0.2-0.6-0.5-0.6q-0.5-0.1-1 0 0.3 0.1 0.7 0.1 0.4 0 0.4 0.4c0 0.4 0 0.8-0.1 1.2 0 0.6 0.3 1.1 1 1.1 0.3 0 0.6-0.1 0.9-0.2 0.4 0 0.7-0.1 1.1 0 0.3 0.1 0.4 0.2 0.4 0.5q0 0.2 0 0.5-0.1 0.3 0.1 0.6c0.2 0.4 0.2 0.7 0 1.1-0.2 0.6-0.1 1.2 0.5 1.6 0.9 0.7 1.9 0.9 3 0.8 0.8-0.1 1.2-0.6 1.1-1.5q-0.2-0.9-0.8-1.7z"/>
			</g>
			<path class="s1" d="m41.4 60.9c-0.1 0.8-0.1 1.5-0.1 2.3q0 0.2-0.2 0.1-0.2 0-0.5 0c-0.1 0-0.1 0-0.1-0.1q0-0.9 0.1-1.8 0-0.8 0.1-1.6c0-0.2 0.1-0.2 0.3-0.2 0.6 0 0.6 0 0.9 0.6q0.3 0.7 0.7 1.6 0.2-0.5 0.4-0.9 0.3-0.6 0.5-1.2 0.1-0.2 0.3-0.1 0.1 0 0.2 0c0.4 0 0.4 0 0.4 0.4q0.2 1.4 0.3 2.8 0 0.1 0 0.2 0 0.3-0.4 0.3c-0.5 0-0.4 0-0.5-0.4q0-0.9-0.1-1.8 0-0.1 0-0.2-0.3 0.7-0.5 1.3-0.2 0.3-0.3 0.5 0 0.2-0.2 0.2c-0.4 0-0.4 0-0.6-0.5q-0.3-0.7-0.6-1.4 0 0-0.1-0.1z"/>
			<path class="s1" d="m32 61.5q0-0.9 0-1.7 0-0.2 0.1-0.2c0.6-0.1 1.3-0.1 1.9 0 0.7 0.2 1.2 0.8 1.3 1.6 0 0.4 0 0.9-0.3 1.3-0.2 0.5-0.7 0.8-1.3 0.9-0.5 0.1-1 0-1.6-0.1-0.1 0-0.1 0-0.1-0.2q0-0.8 0-1.6zm0.8 0q0 0.3 0 0.7c0 0.5 0 0.5 0.5 0.4 0.5 0 0.9-0.2 1-0.7q0.2-0.4 0-0.9c-0.1-0.4-0.3-0.6-0.7-0.7q-0.3-0.1-0.6 0c-0.1 0-0.2 0-0.2 0.1q0 0.5 0 1.1z"/>
			<path class="s1" d="m54.9 61.9q0-0.6 0-1.2c0-0.1 0-0.1 0.1-0.2q0.6-0.1 1.1-0.1 0.4 0 0.7 0.2 0.1 0.1 0.2 0 0.5-0.2 1-0.1c0.5 0 0.8 0.4 0.8 0.9 0 0.6 0 1.2 0 1.8q0 0.2-0.2 0.2-0.2 0-0.5 0c-0.1 0-0.1-0.1-0.1-0.2q0-0.7 0-1.4 0-0.2-0.1-0.4-0.1-0.2-0.3-0.3c-0.3 0-0.4 0.1-0.4 0.4 0.1 0.6 0 1.2 0 1.8q0 0.1-0.1 0.1-0.3 0-0.6 0c-0.1 0-0.1-0.1-0.1-0.2q0-0.6 0-1.3 0-0.1 0-0.3-0.1-0.5-0.6-0.4c-0.1 0-0.1 0-0.1 0.1q0 1 0 1.9c0 0.1-0.1 0.2-0.2 0.2q-0.3 0-0.5 0c-0.1 0-0.2-0.1-0.2-0.2q0-0.6 0-1.2z"/>
			<path class="s1" d="m64.4 60.5q0-0.5 0-1.1c0-0.1 0-0.2 0.2-0.2q0.2 0 0.5-0.1c0.1 0 0.1 0.1 0.1 0.2q0 1.9 0 3.8 0 0.2-0.1 0.2c-0.5 0.1-1 0.2-1.5 0.1-0.8-0.2-1.1-0.8-1-1.6q0-0.2 0-0.5c0.3-0.7 0.9-1 1.6-0.8q0.1 0 0.2 0zm0 1.4q0-0.3 0-0.6 0 0 0-0.1c-0.4-0.2-0.9-0.1-1 0.3q0 0.2 0 0.4 0 0.9 0.9 0.8 0.1 0 0.1-0.2 0-0.3 0-0.6z"/>
			<path class="s1" d="m18.4 61.5q0-0.9 0-1.7c0-0.1 0-0.2 0.1-0.2 0.6-0.1 1.2-0.1 1.8 0 0.5 0.1 0.8 0.4 0.9 0.9 0.1 0.4 0.1 0.9-0.3 1.2-0.3 0.3-0.7 0.4-1.1 0.4-0.2 0-0.4-0.1-0.5 0-0.1 0.1-0.1 0.4-0.1 0.5q0 0.3 0 0.6 0 0.2-0.1 0.2-0.3 0-0.6 0c-0.1 0-0.1-0.1-0.1-0.2q0-0.9 0-1.7zm0.8-0.7q0 0.2 0 0.4c0 0.1 0 0.2 0.1 0.2 0.3 0 0.5 0 0.7-0.1q0.4-0.1 0.4-0.5 0-0.3-0.3-0.4-0.2-0.1-0.4-0.1-0.5 0-0.5 0.4c0 0 0 0.1 0 0.1z"/>
			<path class="s1" d="m48.7 61.3q0-0.9 0-1.9c0-0.1 0-0.2 0.1-0.2q0.3 0 0.5-0.1 0.2 0 0.2 0.2 0 0.5 0 1c0 0.1 0 0.2 0.1 0.1q0.3 0 0.6 0c0.5 0.1 0.9 0.4 0.9 1 0.1 0.6 0 1.2 0 1.8q0.1 0.2-0.1 0.2-0.3 0-0.5 0c-0.2 0-0.2-0.1-0.2-0.2q0-0.7 0-1.4 0-0.2 0-0.3c-0.1-0.3-0.5-0.5-0.8-0.3 0 0 0 0.1 0 0.2q0 0.9 0 1.7c0 0.2-0.1 0.3-0.2 0.3q-0.2-0.1-0.4 0c-0.2 0-0.2-0.1-0.2-0.2q0-1 0-1.9z"/>
			<path class="s1" d="m61.2 62.2q-0.4 0-0.8 0c-0.2 0-0.2 0-0.1 0.2 0.1 0.2 0.3 0.3 0.6 0.3q0.4 0 0.8-0.1 0.1 0 0.1 0.1 0 0.1 0 0.1c0.1 0.5 0.1 0.5-0.3 0.6-0.6 0.1-1.1 0.1-1.5-0.2q-0.2-0.2-0.4-0.4c-0.3-0.6-0.3-1.5 0.2-2 0.3-0.4 0.9-0.5 1.5-0.3 0.6 0.2 0.7 0.7 0.8 1.2 0 0.5 0 0.5-0.4 0.5q-0.3 0-0.6 0zm-0.3-0.6q0.1 0 0.3 0c0.2 0 0.2-0.1 0.2-0.2-0.1-0.2-0.3-0.3-0.5-0.3-0.3 0-0.5 0.1-0.5 0.3-0.1 0.1-0.1 0.2 0.1 0.2q0.2 0 0.4 0z"/>
			<path class="s1" d="m48.1 61.9c0 0.8-0.5 1.4-1.1 1.5-1.1 0.2-1.9-0.6-1.8-1.7q0.2-1.1 1.3-1.3c0.7-0.1 1.4 0.4 1.5 1.2q0.1 0.2 0.1 0.3zm-2-0.1q0 0.5 0.1 0.7c0.2 0.3 0.7 0.3 0.9 0q0.3-0.6 0-1.1c-0.2-0.4-0.7-0.4-0.9 0-0.1 0.1-0.1 0.3-0.1 0.4z"/>
			<path class="s1" d="m26.7 61.9c0 0.6-0.2 1.1-0.7 1.4q-0.8 0.3-1.5-0.1c-0.5-0.3-0.7-1.1-0.5-1.7 0.1-0.8 0.8-1.1 1.4-1.1 0.8 0.1 1.3 0.6 1.3 1.4q0 0 0 0.1zm-2 0q0 0.3 0.1 0.5 0.2 0.3 0.5 0.3 0.4 0 0.5-0.3 0.2-0.5 0-1-0.2-0.3-0.5-0.3-0.3 0-0.5 0.3-0.1 0.2-0.1 0.5z"/>
			<path class="s1" d="m54.1 62.3q0 0.4 0 0.8c0 0.1 0 0.2-0.1 0.2-0.5 0.1-1.1 0.1-1.6 0q-0.7-0.1-0.7-0.8c-0.1-0.4 0.2-0.7 0.6-0.9q0.5-0.1 0.9 0 0.2 0 0.1-0.1c0-0.3-0.2-0.4-0.5-0.4-0.2 0-0.4 0-0.6 0.1-0.2 0-0.2 0-0.2-0.1q0-0.2 0-0.3c-0.1-0.2 0-0.3 0.1-0.3 0.4-0.1 0.8-0.1 1.1-0.1 0.6 0.1 0.9 0.4 0.9 1q0 0.4 0 0.9zm-0.8 0.1c0-0.1 0.1-0.2 0-0.3-0.2 0-0.4 0-0.6 0.1q-0.2 0-0.2 0.3 0 0.2 0.2 0.2 0.1 0.1 0.3 0.1c0.3 0 0.3 0 0.3-0.4z"/>
			<path class="s1" d="m27.3 61.7q0-0.6 0-1.3c0-0.9 0.6-1.4 1.5-1.3 0.5 0.1 0.5 0.1 0.4 0.6 0 0.1-0.1 0.2-0.3 0.1q-0.2 0-0.4 0c-0.2 0-0.4 0.3-0.3 0.6 0 0.1 0 0.1 0.1 0.1q0.4 0 0.7 0c0.1 0 0.2 0 0.2 0.1 0 0.6 0 0.6-0.6 0.6q-0.4 0-0.4 0.4 0 0.8 0 1.6c0 0.1-0.1 0.1-0.2 0.1q-0.2 0-0.5 0c-0.1 0-0.2 0-0.2-0.1q0-0.8 0-1.5z"/>
			<path class="s1" d="m21.8 62q0-0.6 0-1.2c0-0.1 0.1-0.2 0.2-0.2q0.7-0.3 1.4-0.1c0.2 0 0.3 0 0.2 0.2q0 0.2 0 0.3c0 0.2-0.1 0.2-0.2 0.2-0.2-0.1-0.4-0.1-0.6-0.1-0.1 0-0.2 0.1-0.2 0.3q0 0.8 0 1.7c0 0.2 0 0.3-0.2 0.2q-0.2 0-0.4 0-0.2 0.1-0.2-0.1 0-0.6 0-1.2z"/>
			<path class="s1" d="m35.9 62q0-0.6 0-1.2c0-0.1 0.1-0.2 0.2-0.2q0.7-0.3 1.5-0.1c0.1 0 0.2 0 0.1 0.2 0 0.2 0 0.4-0.1 0.5-0.1 0.1-0.2-0.1-0.4-0.1q0 0 0 0c-0.4 0-0.5 0-0.5 0.4q0 0.8 0 1.7c0 0.1 0 0.2-0.1 0.1-0.2 0-0.5 0.1-0.6 0-0.2-0.1-0.1-0.4-0.1-0.6q0-0.4 0-0.7z"/>
			<path class="s1" d="m29.6 63.4c-0.3 0-0.5-0.2-0.5-0.5 0-0.3 0.2-0.5 0.5-0.5 0.3 0 0.5 0.2 0.5 0.5 0 0.3-0.2 0.5-0.5 0.5z"/>
			<path class="s1" d="m37.7 62.9c0-0.3 0.2-0.5 0.5-0.5 0.3 0 0.5 0.2 0.5 0.5 0 0.3-0.2 0.5-0.5 0.5-0.3 0-0.5-0.2-0.5-0.5z"/>
			<g>
				<path class="s2" d="m12 80.1q-0.3 0.1-0.6 0c-0.1 0-0.1 0.1-0.1 0.2q-0.2 0.9-0.4 1.7c0 0.3-0.1 0.5-0.2 0.7-0.1-0.5-0.3-1.1-0.4-1.6-0.2-0.6-0.2-0.6-0.8-0.6q-0.1 0-0.2 0.2-0.1 0.4-0.2 0.8c-0.1 0.4-0.2 0.8-0.4 1.2-0.1-0.1-0.1-0.2-0.1-0.3q-0.2-1-0.4-2c0-0.2-0.1-0.3-0.3-0.3q-0.2 0.1-0.5 0c-0.1 0-0.2 0.1-0.1 0.2q0.3 1.6 0.8 3.1c0.1 0.5 0.1 0.5 0.6 0.5 0.2 0 0.3 0 0.4-0.3q0.3-0.9 0.6-1.8c0.1 0 0.1 0.1 0.1 0.1q0.2 0.9 0.5 1.8c0.1 0.2 0.2 0.2 0.4 0.2 0.5 0 0.5 0 0.7-0.5q0.4-1.5 0.7-3.1c0.1-0.1 0.1-0.2-0.1-0.2z"/>
				<path class="s2" d="m19.4 81.1q-0.7-0.2-1.2 0.1c-0.1 0-0.2 0-0.3 0-0.2-0.2-0.4-0.2-0.6-0.2q-0.6 0-1.1 0.1c-0.2 0-0.2 0.1-0.2 0.2q0 0.6 0 1.2 0 0.6 0 1.2c0 0.2 0.1 0.2 0.3 0.2q0.1 0 0.3 0c0.2 0 0.3 0 0.3-0.2-0.1-0.6 0-1.2-0.1-1.8 0-0.1 0.1-0.2 0.3-0.2 0.3 0 0.4 0.1 0.5 0.4q0 0.2 0 0.4 0 0.6 0 1.2c0 0.2 0 0.2 0.2 0.2q0.2 0 0.5 0 0.1 0 0.1-0.1c0-0.6 0-1.3 0-1.9 0-0.1 0-0.1 0.1-0.2 0.3-0.1 0.6 0 0.7 0.4 0 0.4 0 0.8 0 1.2 0 0.2-0.1 0.5 0 0.6 0.1 0.1 0.4 0 0.6 0q0.1 0 0.1 0 0.1 0 0.1-0.1 0-0.9 0-1.7c0-0.5-0.2-0.9-0.6-1z"/>
				<path class="s2" d="m35.7 80.1q-0.3 0-0.6 0c-0.1 0-0.2 0.1-0.2 0.2q0 0.6 0 1.1 0 0.2-0.1 0.2-0.6 0-1.1 0c-0.1 0-0.2 0-0.2-0.2q0-0.5 0-1.1 0-0.2-0.1-0.2-0.3 0-0.6 0c-0.1 0-0.1 0.1-0.1 0.2q0 0.9 0 1.8 0 0.8 0 1.7c0 0.1 0 0.1 0.1 0.1q0.3 0 0.5 0c0.2 0 0.2 0 0.2-0.2q0-0.6 0-1.2c0-0.1 0.1-0.2 0.2-0.2q0.5 0 1.1 0c0.1 0 0.1 0.1 0.1 0.2q0 0.6 0 1.3c0 0.1 0.1 0.1 0.2 0.1q0.3 0 0.6 0c0.1 0 0.1 0 0.1-0.1q0-1.8 0-3.5 0-0.2-0.1-0.2z"/>
				<path class="s2" d="m48.7 81c0 0-0.1 0-0.1 0-0.2 0.1-0.2 0-0.2-0.2q0-0.3 0-0.6c0-0.2 0-0.4-0.1-0.5 0-0.1-0.2 0.1-0.4 0.1 0 0-0.1 0-0.2 0-0.1 0-0.2 0.1-0.2 0.2q0 0.9 0 1.9 0 0.9 0 1.8c0 0.2 0.1 0.2 0.3 0.2q0.2 0 0.4 0c0.2 0 0.2 0 0.2-0.2q0-0.9 0-1.8c0-0.1 0-0.2 0.1-0.2q0.6-0.2 0.7 0.4 0 0.2 0 0.3 0 0.7 0 1.3 0 0.2 0.2 0.2 0.2 0 0.5 0 0.2 0 0.1-0.1 0.1-0.8 0-1.6c0-0.9-0.4-1.3-1.2-1.2z"/>
				<path class="s2" d="m55.2 83.2c-0.1-0.1-0.1-0.2-0.2-0.1-0.2 0.1-0.4 0.1-0.5 0.1-0.4 0-0.8 0-1.1-0.3-0.4-0.4-0.4-1.4 0-1.8 0.3-0.3 0.8-0.3 1.2-0.2 0.2 0 0.4 0.2 0.5 0.1 0.1-0.1 0.1-0.3 0.2-0.5q0-0.2-0.1-0.2-0.4-0.2-0.8-0.2c-0.6-0.1-1.1 0-1.6 0.4-0.7 0.7-0.7 2.1-0.3 2.7 0.4 0.6 1 0.8 1.6 0.8q0.5 0 0.9-0.1c0.4-0.2 0.4-0.2 0.3-0.5q-0.1-0.1-0.1-0.2z"/>
				<path class="s2" d="m21.8 81c-0.7 0.1-1 0.6-1.1 1.3-0.1 0.8 0.3 1.5 1.2 1.7q0.5 0 0.9-0.1c0.4 0 0.4 0 0.4-0.4 0-0.1-0.1-0.2-0.1-0.2 0-0.1 0-0.1-0.1-0.1q-0.4 0.1-0.9 0.1c-0.2 0-0.4-0.1-0.5-0.4q-0.1-0.1 0.1-0.1 0.4 0 0.8 0 0.2 0 0.3 0 0.6 0 0.6-0.6c-0.1-0.9-0.8-1.4-1.6-1.2zm0.7 1.2q-0.2 0-0.4 0-0.2 0-0.4 0c-0.2 0-0.2-0.1-0.1-0.2 0.1-0.2 0.3-0.4 0.5-0.3 0.2 0 0.4 0.1 0.5 0.4q0 0.1-0.1 0.1z"/>
				<path class="s2" d="m38.5 81.1c-0.6-0.2-1.2-0.1-1.5 0.3-0.4 0.5-0.5 1-0.4 1.5 0.1 0.6 0.5 0.9 1.1 1.1 0.4 0.1 0.8 0 1.2-0.1 0.2 0 0.2-0.1 0.2-0.3q0-0.1 0-0.3-0.1-0.2-0.2-0.1c-0.3 0.1-0.6 0.1-0.9 0.1q-0.3 0-0.5-0.3c-0.1-0.2 0-0.2 0.1-0.2q0.4 0 0.8 0 0.2 0 0.5 0 0.4 0 0.4-0.5c0-0.6-0.3-1-0.8-1.2zm-0.1 1.1q-0.2 0-0.4 0-0.2 0-0.4 0c-0.1 0-0.1 0-0.1-0.1 0-0.3 0.3-0.4 0.5-0.4 0.2 0 0.4 0.1 0.5 0.4 0 0.1 0 0.1-0.1 0.1z"/>
				<path class="s2" d="m14.6 81.1q-0.8-0.4-1.5 0.1c-0.5 0.4-0.6 0.9-0.6 1.5 0 0.9 0.8 1.4 1.7 1.3 0.7-0.2 1.1-0.7 1.1-1.7 0-0.4-0.2-0.9-0.7-1.2zm-0.2 1.7c-0.1 0.3-0.2 0.5-0.5 0.5q-0.4 0-0.5-0.5-0.2-0.3 0-0.7 0.1-0.4 0.5-0.4 0.3 0 0.5 0.4 0 0.2 0 0.4c0 0.1 0 0.2 0 0.3z"/>
				<path class="s2" d="m42.3 82.8q0-0.4 0-0.9 0-0.7-0.8-0.9c-0.3-0.1-0.7 0-1.1 0-0.2 0.1-0.3 0.2-0.2 0.4q0 0.1 0 0.2 0 0.2 0.1 0.1 0.4-0.1 0.8 0 0.3 0 0.4 0.3c0 0.1 0 0.2-0.1 0.2-0.4-0.1-0.8-0.1-1.1 0.1q-0.4 0.2-0.4 0.5c-0.2 0.7 0.2 1.1 0.8 1.2 0.5 0 1 0 1.5-0.1q0.1 0 0.1-0.2 0-0.4 0-0.9zm-0.8 0.2q0 0.4-0.3 0.4-0.2 0-0.3-0.1-0.2 0-0.2-0.2-0.1-0.3 0.1-0.3c0.2-0.1 0.4-0.1 0.6-0.1q0.1 0 0.1 0.1 0 0.1 0 0.3z"/>
				<path class="s2" d="m61.1 81c-0.5-0.1-1 0-1.5 0.1-0.1 0-0.1 0.1-0.1 0.2q0 0.6 0 1.2 0 0.4 0 0.8c0 0.2-0.1 0.5 0.1 0.6 0.1 0.1 0.3 0 0.5 0q0.3 0 0.2-0.2 0-0.9 0-1.8c0-0.1 0-0.2 0.1-0.2 0.4-0.1 0.7 0 0.8 0.5q0 0.1 0 0.2 0 0.7 0 1.3c0 0.2 0 0.2 0.1 0.2q0.3 0 0.5 0c0.1 0 0.2 0 0.2-0.2q0-0.7 0-1.5 0-1-0.9-1.2z"/>
				<path class="s2" d="m25.6 81c-0.4-0.1-0.9 0-1.4 0.1-0.1 0-0.1 0.1-0.1 0.2q0 0.6 0 1.2 0 0.6 0 1.2c0 0.2 0.1 0.2 0.2 0.2q0.2 0 0.5 0 0.2 0 0.2-0.2 0-0.9 0-1.8c0-0.1-0.1-0.2 0-0.2 0.4-0.1 0.8 0 0.8 0.5 0 0.5 0 1 0 1.5 0 0.2 0 0.2 0.2 0.2q0.2 0 0.5 0c0.1 0 0.1 0 0.1-0.1q0-0.8 0-1.6c0-0.7-0.3-1.1-0.9-1.2z"/>
				<path class="s2" d="m30 82.3q-0.3-0.1-0.7-0.2c-0.1-0.1-0.2-0.2-0.2-0.3 0.1-0.1 0.2-0.2 0.3-0.2q0.3 0 0.7 0.1c0 0 0 0.1 0.1 0 0 0 0.1-0.5 0.1-0.6q-0.1 0-0.1 0-0.4-0.1-0.7-0.1-0.2 0-0.3 0c-0.6 0-0.9 0.4-0.9 0.9 0.1 0.4 0.3 0.6 0.6 0.8q0.3 0.1 0.6 0.3 0.1 0 0.1 0.2c0 0.1-0.1 0.1-0.2 0.1q-0.3 0-0.6 0c-0.1 0-0.3-0.2-0.4-0.1-0.1 0.1-0.1 0.3-0.1 0.5q-0.1 0.1 0 0.2c0.5 0.1 1 0.2 1.5 0q0.6-0.1 0.6-0.7 0.1-0.6-0.4-0.8z"/>
				<path class="s2" d="m46.5 83.3q-0.1 0-0.2 0c-0.3 0-0.4-0.1-0.5-0.4 0-0.3 0-0.7 0-1q0-0.2 0.1-0.1 0.3-0.1 0.6 0c0.2 0 0.3-0.1 0.3-0.3 0-0.4 0-0.4-0.5-0.4q-0.5 0-0.5-0.6c0-0.3 0-0.3-0.3-0.2q-0.2 0-0.4 0-0.1 0-0.1 0.2 0 0.6 0 1.2 0 0.6 0 1.2c0 0.6 0.3 1 0.8 1.1q0.4 0 0.7 0c0.4-0.1 0.4-0.1 0.3-0.5 0-0.3 0-0.3-0.3-0.2z"/>
				<path class="s2" d="m66.7 83.6q0-0.1-0.1-0.3 0.1-0.2-0.1-0.1-0.3 0.1-0.7 0.1-0.3-0.1-0.5-0.4-0.1-0.3 0-0.7c0.1-0.4 0.4-0.6 0.8-0.5 0.1 0 0.3 0.1 0.4 0 0.1-0.1 0.1-0.3 0.1-0.4q0 0 0.1-0.1 0-0.1-0.1-0.1-0.4-0.1-0.7-0.1c-0.8 0-1.4 0.5-1.5 1.4 0 0.7 0.3 1.3 1 1.5q0.5 0.2 1.1 0c0.2 0 0.2 0 0.2-0.3z"/>
				<path class="s2" d="m44.3 83.3c-0.2-0.1-0.3-0.2-0.3-0.4q0-0.5 0-0.9 0-1.1 0-2.1c0-0.2 0-0.2-0.2-0.2q-0.2 0.1-0.5 0.1-0.2 0-0.1 0.2 0 0.8 0 1.6 0 0.7 0 1.5c0 0.3 0.1 0.6 0.4 0.8q0.3 0.1 0.6 0.1c0.1 0 0.1 0 0.1-0.1q0-0.2 0.1-0.5 0-0.1-0.1-0.1z"/>
				<path class="s2" d="m57.2 83.3c-0.4-0.2-0.4-0.2-0.4-0.6q0-1.4 0-2.8c0-0.2 0-0.2-0.2-0.2q-0.2 0.1-0.5 0.1c-0.1 0-0.1 0.1-0.1 0.2q0 0.8 0 1.5 0 0.8 0 1.5c0 0.6 0.2 0.9 0.8 1q0.3 0 0.4-0.3 0-0.2 0-0.3 0-0.1 0-0.1z"/>
				<path class="s2" d="m58.5 81.1q-0.3 0-0.5 0c-0.1 0-0.2 0-0.2 0.1q0 0.7 0 1.3 0 0.6 0 1.2c0 0.2 0.1 0.2 0.2 0.2q0.2 0 0.5 0c0.1 0 0.2 0 0.1-0.2q0-1.2 0-2.4c0-0.2 0-0.2-0.1-0.2z"/>
				<path class="s2" d="m63.6 81.1c-0.1-0.1-0.4 0-0.6 0-0.1-0.1-0.1 0-0.1 0.1q0 1.1 0 2.1c0 0.2-0.1 0.5 0 0.6 0.1 0.1 0.4 0 0.6 0 0.1 0 0.2 0 0.2-0.1q0-0.7 0-1.3 0-0.4 0-0.8c0-0.2 0.1-0.5-0.1-0.6z"/>
				<path class="s2" d="m27.7 79.7q-0.1 0-0.2 0-0.2 0-0.2 0.3c0 0.2 0 0.5-0.1 0.8-0.1 0.4-0.1 0.3 0.3 0.4q0.2 0.1 0.3-0.1c0.2-0.3 0.3-0.6 0.3-0.9 0-0.6 0-0.4-0.4-0.5z"/>
				<path class="s2" d="m63.3 79.8q-0.5 0-0.5 0.4 0 0.5 0.5 0.5c0.3 0 0.5-0.2 0.5-0.5 0-0.2-0.3-0.4-0.5-0.4z"/>
				<path class="s2" d="m58.2 79.8c-0.3 0-0.5 0.1-0.5 0.4 0 0.3 0.2 0.5 0.5 0.5 0.3 0 0.5-0.2 0.5-0.5 0-0.2-0.2-0.4-0.5-0.4z"/>
			</g>
		</g>
	</g>
</svg>