<svg version="1.2" xmlns="http://www.w3.org/2000/svg" viewBox="0 0 95 21" width="95" height="21">
	<title>Healthylife</title>
	<defs>
		<clipPath clipPathUnits="userSpaceOnUse" id="cp1">
			<path d="m0 0h95v21h-95z"/>
		</clipPath>
	</defs>
	<style>
		.s0 { fill: #737476 } 
	</style>
	<g id="Clip-Path" clip-path="url(#cp1)">
		<g>
			<path class="s0" d="m3.2 6.3v3.4q-0.1 1.1 0 1.8 0 0.2 0.2 0.3l1 0.3v0.4q-1-0.1-2.1-0.1-1.1 0-2.3 0.1v-0.4l1.1-0.3q0.3-0.1 0.3-0.3 0-0.7 0-1.8v-7.1q0-0.9 0-1.5 0-0.2-0.3-0.3l-1.1-0.4v-0.3q1.2 0 2.2 0 1.1 0 2.2 0v0.3l-1 0.4q-0.2 0-0.2 0.2-0.1 0.7 0 1.5v3h6.5v-3q0.1-0.8 0-1.5 0-0.2-0.2-0.2l-1-0.4v-0.3q1.1 0 2.2 0 1 0 2.2 0v0.3l-1.1 0.4q-0.2 0.1-0.2 0.3-0.1 0.6-0.1 1.5v7.1q0 1.1 0.1 1.8 0 0.2 0.2 0.2l1.1 0.4v0.4q-1.2-0.1-2.3-0.1-1.1 0-2.1 0.1v-0.4l1-0.3q0.2-0.1 0.2-0.3 0.1-0.7 0-1.8v-3.4c0 0-6.5 0-6.5 0z"/>
			<path class="s0" d="m16.2 3.9h1.5q1.4 0 3 0v0.1l-0.3 1.8-0.3 0.1-0.4-1.4h-2.8v3.3h0.5q0.7 0 1.5 0 0.1 0 0.2-0.1l0.2-0.9h0.3q0 0.9 0 1.3 0 0.4 0 1.2h-0.3l-0.2-0.8q-0.1-0.2-0.2-0.2-0.8 0-1.5 0h-0.5v2.2q0 0.7 0 1.4h3l0.7-1.6h0.3l-0.1 2.1h-0.1q-1.6 0-2.9 0h-1.5q-0.8 0-1.6 0v-0.2l0.8-0.3q0.1 0 0.1-0.2 0-0.2 0-0.5 0-0.3 0-0.7v-4.9q0-0.3 0-0.5 0.1-0.3 0-0.5 0-0.2-0.1-0.2l-0.8-0.2v-0.3q0.8 0 1.5 0z"/>
			<path class="s0" d="m26.4 3.8l2.7 7.4q0.2 0.4 0.3 0.6 0.1 0.1 0.4 0.2l0.6 0.2v0.2q-0.8 0-1.5 0-0.8 0-1.7 0v-0.2l0.5-0.2q0.2 0 0.2-0.1 0.1 0 0.1-0.1 0-0.2-0.1-0.4 0-0.2-0.2-0.5l-0.6-1.6h-3l-0.6 1.6q-0.1 0.3-0.2 0.5-0.1 0.2-0.1 0.4 0 0.1 0.1 0.1 0 0.1 0.1 0.1l0.6 0.2v0.2q-0.8 0-1.4 0-0.6 0-1.3 0v-0.2l0.6-0.2q0.3-0.1 0.4-0.2 0.1-0.2 0.2-0.5l3.2-7.4 0.7-0.1zm-2 4.9h2.5l-1.2-3.3z"/>
			<path class="s0" d="m33.2 5.6v4.9q0 0.7 0 1.4h3.1l0.8-1.6 0.3-0.1-0.2 2.2q-1.6 0-3 0h-1.6q-0.7 0-1.5 0v-0.2l0.7-0.3q0.2 0 0.2-0.1 0-0.3 0-0.6 0-0.3 0-0.6v-5q0-0.3 0-0.5 0-0.3 0-0.5 0-0.1-0.1-0.2l-0.8-0.2v-0.3q0.8 0 1.5 0 0.7 0 1.5 0l0.1 0.3-0.8 0.2q-0.2 0-0.2 0.2 0 0.2 0 0.6 0 0.4 0 0.4z"/>
			<path class="s0" d="m40.8 12.4q-0.8 0-1.7 0v-0.2l0.9-0.3q0.1 0 0.1-0.2 0.1-0.4 0.1-1.2v-6h-2.2l-0.6 1.6h-0.2l-0.2-2.1v-0.1q1.6 0 3 0h1.6q1.4 0 3 0v0.1l-0.4 2.1h-0.2l-0.4-1.6h-2.2v6q0 0.8 0 1.2 0 0.2 0.2 0.2l0.9 0.3v0.2q-1 0-1.7 0z"/>
			<path class="s0" d="m47.7 8.2v2.4q-0.1 0.7 0 1.2 0 0.1 0.1 0.2l0.7 0.2v0.2q-0.7 0-1.4 0-0.8 0-1.6 0v-0.2l0.8-0.2q0.1-0.1 0.1-0.2 0-0.5 0-1.2v-5q0-0.6 0-1 0-0.1-0.1-0.2l-0.8-0.2v-0.3q0.8 0 1.5 0 0.8 0 1.5 0v0.3l-0.7 0.2q-0.1 0-0.1 0.2-0.1 0.4-0.1 1v2.1h4.6v-2.1q0-0.6 0-1 0-0.2-0.2-0.2l-0.7-0.2v-0.3q0.7 0 1.5 0 0.7 0 1.5 0v0.3l-0.7 0.2q-0.2 0.1-0.2 0.2 0 0.4 0 1v5q0 0.7 0 1.2 0 0.1 0.2 0.2l0.7 0.2v0.2q-0.8 0-1.5 0-0.8 0-1.5 0v-0.2l0.7-0.2q0.1-0.1 0.1-0.2 0.1-0.5 0.1-1.2v-2.4h-4.6z"/>
			<path class="s0" d="m59.3 8.1l1.5-2.6q0.1-0.3 0.2-0.5 0.1-0.3 0.1-0.4 0-0.2-0.2-0.3l-0.6-0.1v-0.3q0.7 0 1.4 0 0.6 0 1.3 0v0.3l-0.6 0.2q-0.3 0-0.4 0.2-0.1 0.1-0.2 0.3l-2.2 3.8v1.8q0 0.4 0 0.7 0 0.3 0 0.5 0 0.2 0.2 0.2l0.8 0.3v0.2q-0.8 0-1.6 0-0.7 0-1.6 0v-0.2l0.8-0.3q0.2 0 0.2-0.2 0-0.2 0-0.5 0-0.3 0-0.7v-1.7l-2.2-3.7q-0.2-0.4-0.4-0.5-0.1-0.2-0.4-0.3l-0.5-0.1v-0.3q0.5 0 1.5 0 0.8 0 1.7 0l0.1 0.3-0.6 0.1q-0.2 0.1-0.2 0.1-0.1 0.1-0.1 0.2 0 0.1 0.1 0.3 0.1 0.2 0.3 0.4l1.6 2.8z"/>
			<path class="s0" d="m70 2.5v7.2q0 1 0.1 1.9h4.4l1.1-2.3 0.4-0.1-0.2 3.2q-2.4 0-4.4 0h-2.2q-1.1 0-2.3 0v-0.3l1.1-0.4q0.2 0 0.3-0.2 0-0.4 0-0.8 0-0.5 0-1v-7.1q0-0.5 0-0.9 0-0.3 0-0.6-0.1-0.2-0.3-0.3l-1.1-0.4v-0.3q1.2 0 2.2 0 1.1 0 2.3 0v0.3l-1.1 0.4q-0.2 0-0.2 0.2 0 0.4-0.1 1 0 0.5 0 0.5z"/>
			<path class="s0" d="m79.4 10.6q0 0.3 0 0.6 0 0.3 0 0.6 0 0.1 0.2 0.2l0.7 0.2v0.2q-0.8 0-1.5 0-0.8 0-1.6 0v-0.2l0.8-0.2q0.1-0.1 0.1-0.2 0-0.3 0-0.6 0-0.3 0-0.6v-5q0-0.3 0-0.5 0-0.3 0-0.5 0-0.1-0.1-0.2l-0.8-0.2v-0.3q0.8 0 1.5 0 0.8 0 1.6 0v0.3l-0.8 0.2q-0.1 0-0.1 0.2 0 0.2 0 0.5 0 0.2 0 0.5c0 0 0 5 0 5z"/>
			<path class="s0" d="m83.9 10.6q0 0.7 0 1.1 0 0.2 0.2 0.2l0.8 0.3v0.2q-0.9 0-1.6 0-0.7 0-1.5 0l-0.1-0.2 0.8-0.2q0.2-0.1 0.2-0.2 0-0.5 0-1.2v-5q0-0.3 0-0.5 0-0.3 0-0.5 0-0.1-0.2-0.2l-0.8-0.2v-0.3q0.8 0 1.6 0h1.5q1.4 0 2.9 0l0.1 0.1-0.4 1.8-0.2 0.1-0.4-1.4h-2.9v3.4h0.6q0.7 0 1.5 0 0.1 0 0.2-0.1l0.2-0.8 0.3-0.1q0 0.9 0 1.3 0 0.4 0 1.2h-0.3l-0.2-0.8q-0.1-0.1-0.2-0.1-0.8-0.1-1.5-0.1h-0.6v2.1z"/>
			<path class="s0" d="m90.3 3.9h1.6q1.3 0 2.9 0v0.1l-0.3 1.8-0.3 0.1-0.3-1.4h-2.9v3.3h0.5q0.7 0 1.5 0 0.1 0 0.2-0.1l0.2-0.9h0.4q-0.1 0.9-0.1 1.3 0 0.4 0.1 1.2h-0.4l-0.2-0.8q-0.1-0.2-0.2-0.2-0.8 0-1.5 0h-0.5v2.2q0 0.7 0 1.4h3l0.7-1.6h0.3l-0.1 2.1h-0.1q-1.6 0-2.9 0h-1.5q-0.8 0-1.6 0v-0.2l0.8-0.3q0.1 0 0.2-0.2 0-0.2 0-0.5 0-0.3 0-0.7v-4.9q0-0.3 0-0.5 0-0.3 0-0.5 0-0.2-0.2-0.2l-0.8-0.2v-0.3q0.8 0 1.6 0z"/>
			<path class="s0" d="m6.2 20.8v-4.3h1.5q0.5 0 0.8 0 0.4 0.1 0.7 0.3 0.3 0.3 0.5 0.8 0.2 0.4 0.2 1 0 0.5-0.1 0.9-0.2 0.4-0.3 0.6-0.2 0.3-0.5 0.4-0.2 0.2-0.5 0.3-0.3 0-0.7 0zm0.6-0.5h0.9q0.5 0 0.7-0.1 0.3 0 0.4-0.2 0.2-0.2 0.4-0.5 0.1-0.4 0.1-0.9 0-0.7-0.2-1-0.3-0.4-0.6-0.5-0.2-0.1-0.8-0.1h-0.9v3.3z"/>
			<path class="s0" d="m11.1 20.8v-4.3h0.5v4.3z"/>
			<path class="s0" d="m13 20.8v-4.3h3.2v0.5h-2.7v1.3h2.5v0.5h-2.5v1.5h2.8v0.5z"/>
			<path class="s0" d="m18.5 20.8v-3.8h-1.5v-0.5h3.6v0.5h-1.5v3.8z"/>
			<path class="s0" d="m25.8 20.3q-0.3 0.3-0.6 0.5-0.3 0.1-0.7 0.1-0.7 0-1.1-0.4-0.3-0.4-0.3-0.9 0-0.4 0.3-0.7 0.2-0.3 0.8-0.6-0.3-0.3-0.5-0.5-0.1-0.2-0.1-0.4 0-0.4 0.4-0.7 0.3-0.3 0.8-0.3 0.4 0 0.7 0.3 0.3 0.2 0.3 0.6 0 0.7-0.8 1.1l0.8 1q0.1-0.3 0.2-0.6l0.6 0.1q-0.2 0.6-0.4 0.9 0.3 0.4 0.7 0.7l-0.4 0.4q-0.3-0.2-0.7-0.6zm-0.3-0.4l-1-1.2q-0.5 0.2-0.6 0.5-0.2 0.2-0.2 0.4 0 0.3 0.2 0.6 0.2 0.2 0.6 0.2 0.3 0 0.5-0.1 0.3-0.2 0.5-0.4zm-0.8-1.9q0.3-0.2 0.5-0.3 0.1-0.2 0.1-0.4 0-0.2-0.2-0.3-0.1-0.2-0.3-0.2-0.3 0-0.4 0.2-0.2 0.1-0.2 0.3 0 0.1 0.1 0.2 0 0.1 0.1 0.3c0 0 0.3 0.2 0.3 0.2z"/>
			<path class="s0" d="m30.5 20.8l-1.2-4.3h0.6l0.7 2.8q0.1 0.5 0.2 0.9 0.2-0.7 0.2-0.8l0.8-2.9h0.8l0.6 2.2q0.2 0.8 0.4 1.5 0-0.4 0.2-0.9l0.7-2.8h0.6l-1.3 4.3h-0.5l-1-3.3q-0.1-0.4-0.1-0.5-0.1 0.3-0.1 0.5l-1 3.3c0 0-0.6 0-0.6 0z"/>
			<path class="s0" d="m35.9 20.8v-4.3h3.2v0.5h-2.6v1.3h2.5v0.5h-2.5v1.5h2.7v0.5z"/>
			<path class="s0" d="m40.3 20.8v-4.3h0.6v3.8h2.2v0.5z"/>
			<path class="s0" d="m44 20.8v-4.3h0.6v3.8h2.2v0.5z"/>
			<path class="s0" d="m47.8 20.8v-4.3h0.6l2.3 3.4v-3.4h0.6v4.3h-0.6l-2.4-3.4v3.4z"/>
			<path class="s0" d="m52.5 20.8v-4.3h3.3v0.5h-2.7v1.3h2.5v0.5h-2.5v1.5h2.8v0.5z"/>
			<path class="s0" d="m56.7 19.4h0.6q0 0.3 0.2 0.5 0.1 0.2 0.4 0.4 0.3 0.1 0.7 0.1 0.4 0 0.6-0.1 0.3-0.1 0.4-0.3 0.1-0.2 0.1-0.4 0-0.2-0.1-0.3-0.1-0.2-0.4-0.3-0.2 0-0.8-0.2-0.6-0.1-0.9-0.2-0.3-0.2-0.4-0.5-0.2-0.2-0.2-0.5 0-0.3 0.2-0.6 0.2-0.3 0.6-0.4 0.3-0.2 0.8-0.2 0.5 0 0.9 0.2 0.3 0.1 0.5 0.4 0.2 0.3 0.3 0.7h-0.6q-0.1-0.4-0.3-0.6-0.3-0.2-0.8-0.2-0.5 0-0.8 0.2-0.2 0.2-0.2 0.5 0 0.2 0.1 0.4 0.2 0.1 0.9 0.3 0.8 0.1 1 0.2 0.4 0.2 0.6 0.5 0.2 0.3 0.2 0.6 0 0.4-0.2 0.7-0.2 0.3-0.6 0.4-0.4 0.2-0.9 0.2-0.6 0-1-0.2-0.4-0.1-0.6-0.5-0.3-0.3-0.3-0.8z"/>
			<path class="s0" d="m61.2 19.4h0.5q0.1 0.3 0.2 0.5 0.2 0.2 0.5 0.4 0.3 0.1 0.6 0.1 0.4 0 0.6-0.1 0.3-0.1 0.4-0.3 0.2-0.2 0.2-0.4 0-0.2-0.2-0.3-0.1-0.2-0.4-0.3-0.1 0-0.8-0.2-0.6-0.1-0.8-0.2-0.4-0.2-0.5-0.5-0.2-0.2-0.2-0.5 0-0.3 0.2-0.6 0.2-0.3 0.6-0.4 0.3-0.2 0.8-0.2 0.5 0 0.9 0.2 0.4 0.1 0.6 0.4 0.2 0.3 0.2 0.7h-0.6q0-0.4-0.3-0.6-0.3-0.2-0.8-0.2-0.5 0-0.8 0.2-0.2 0.2-0.2 0.5 0 0.2 0.2 0.4 0.1 0.1 0.9 0.3 0.7 0.1 1 0.2 0.4 0.2 0.5 0.5 0.2 0.3 0.2 0.6 0 0.4-0.2 0.7-0.2 0.3-0.6 0.4-0.4 0.2-0.8 0.2-0.7 0-1.1-0.2-0.4-0.1-0.6-0.5-0.3-0.3-0.3-0.8z"/>
			<path class="s0" d="m71 19.3l0.6 0.1q-0.2 0.8-0.7 1.1-0.5 0.4-1.2 0.4c-0.4 0-0.9-0.1-1.2-0.3q-0.4-0.3-0.6-0.8-0.3-0.6-0.3-1.2 0-0.7 0.3-1.2 0.2-0.5 0.7-0.7 0.5-0.3 1.1-0.3 0.7 0 1.2 0.3 0.4 0.4 0.6 1l-0.6 0.1q-0.1-0.5-0.4-0.7-0.3-0.2-0.8-0.2-0.5 0-0.8 0.2-0.4 0.3-0.5 0.7-0.2 0.4-0.2 0.8 0 0.6 0.2 1 0.2 0.4 0.5 0.6 0.4 0.2 0.8 0.2 0.5 0 0.8-0.3 0.4-0.3 0.5-0.8z"/>
			<path class="s0" d="m72.5 20.8v-4.3h0.6v3.8h2.2v0.5z"/>
			<path class="s0" d="m76.4 20.8v-4.3h0.6v4.3z"/>
			<path class="s0" d="m78.3 20.8v-4.3h0.6l2.3 3.4v-3.4h0.6v4.3h-0.6l-2.4-3.4v3.4z"/>
			<path class="s0" d="m83.1 20.8v-4.3h0.6v4.3z"/>
			<path class="s0" d="m88.2 19.3l0.6 0.1q-0.2 0.8-0.7 1.1-0.4 0.4-1.1 0.4c-0.5 0-0.9-0.1-1.2-0.3q-0.5-0.3-0.7-0.8-0.2-0.6-0.2-1.2 0-0.7 0.2-1.2 0.3-0.5 0.8-0.7 0.5-0.3 1.1-0.3 0.6 0 1.1 0.3 0.5 0.4 0.6 1l-0.5 0.1q-0.2-0.5-0.5-0.7-0.3-0.2-0.7-0.2-0.5 0-0.9 0.2-0.3 0.3-0.5 0.7-0.1 0.4-0.1 0.8 0 0.6 0.1 1 0.2 0.4 0.6 0.6 0.3 0.2 0.7 0.2 0.5 0 0.9-0.3 0.3-0.3 0.4-0.8z"/>
		</g>
	</g>
</svg>