<svg version="1.2" xmlns="http://www.w3.org/2000/svg" viewBox="0 0 293 436" width="293" height="436">
	<title>81 - Copy</title>
	<defs>
		<linearGradient id="g1" x2="1" gradientUnits="userSpaceOnUse" gradientTransform="matrix(343.06,129.81,-147.197,389.01,-25.96,297.09)">
			<stop offset="0" stop-color="#fcdbac"/>
			<stop offset=".29" stop-color="#af8756"/>
			<stop offset=".73" stop-color="#fcdbac"/>
			<stop offset="1" stop-color="#af8756"/>
		</linearGradient>
		<linearGradient id="g2" x2="1" gradientUnits="userSpaceOnUse" gradientTransform="matrix(343.07,129.8,-210.27,555.756,-21.09,284.22)">
			<stop offset="0" stop-color="#fcdbac"/>
			<stop offset=".29" stop-color="#af8756"/>
			<stop offset=".73" stop-color="#fcdbac"/>
			<stop offset="1" stop-color="#af8756"/>
		</linearGradient>
		<linearGradient id="g3" x2="1" gradientUnits="userSpaceOnUse" gradientTransform="matrix(343.07,129.81,-127.863,337.924,-20.37,282.32)">
			<stop offset="0" stop-color="#fcdbac"/>
			<stop offset=".29" stop-color="#af8756"/>
			<stop offset=".73" stop-color="#fcdbac"/>
			<stop offset="1" stop-color="#af8756"/>
		</linearGradient>
		<linearGradient id="g4" x2="1" gradientUnits="userSpaceOnUse" gradientTransform="matrix(343.06,129.81,-201.495,532.509,-15.36,269.08)">
			<stop offset="0" stop-color="#fcdbac"/>
			<stop offset=".29" stop-color="#af8756"/>
			<stop offset=".73" stop-color="#fcdbac"/>
			<stop offset="1" stop-color="#af8756"/>
		</linearGradient>
		<linearGradient id="g5" x2="1" gradientUnits="userSpaceOnUse" gradientTransform="matrix(343.06,129.81,-121.128,320.114,-8.96,252.17)">
			<stop offset="0" stop-color="#fcdbac"/>
			<stop offset=".29" stop-color="#af8756"/>
			<stop offset=".73" stop-color="#fcdbac"/>
			<stop offset="1" stop-color="#af8756"/>
		</linearGradient>
		<linearGradient id="g6" x2="1" gradientUnits="userSpaceOnUse" gradientTransform="matrix(343.07,129.81,-114.807,303.419,-3.6,237.99)">
			<stop offset="0" stop-color="#fcdbac"/>
			<stop offset=".29" stop-color="#af8756"/>
			<stop offset=".73" stop-color="#fcdbac"/>
			<stop offset="1" stop-color="#af8756"/>
		</linearGradient>
		<linearGradient id="g7" x2="1" gradientUnits="userSpaceOnUse" gradientTransform="matrix(343.06,129.81,-192.66,509.159,4.04,217.81)">
			<stop offset="0" stop-color="#fcdbac"/>
			<stop offset=".29" stop-color="#af8756"/>
			<stop offset=".73" stop-color="#fcdbac"/>
			<stop offset="1" stop-color="#af8756"/>
		</linearGradient>
		<linearGradient id="g8" x2="1" gradientUnits="userSpaceOnUse" gradientTransform="matrix(343.06,129.81,-111.341,294.25,55.7,81.28)">
			<stop offset="0" stop-color="#fcdbac"/>
			<stop offset=".29" stop-color="#af8756"/>
			<stop offset=".73" stop-color="#fcdbac"/>
			<stop offset="1" stop-color="#af8756"/>
		</linearGradient>
		<linearGradient id="g9" x2="1" gradientUnits="userSpaceOnUse" gradientTransform="matrix(343.06,129.81,-305.948,808.556,63.34,61.09)">
			<stop offset="0" stop-color="#fcdbac"/>
			<stop offset=".29" stop-color="#af8756"/>
			<stop offset=".73" stop-color="#fcdbac"/>
			<stop offset="1" stop-color="#af8756"/>
		</linearGradient>
		<linearGradient id="g10" x2="1" gradientUnits="userSpaceOnUse" gradientTransform="matrix(343.06,129.81,-68.534,181.12,43.47,113.61)">
			<stop offset="0" stop-color="#fcdbac"/>
			<stop offset=".29" stop-color="#af8756"/>
			<stop offset=".73" stop-color="#fcdbac"/>
			<stop offset="1" stop-color="#af8756"/>
		</linearGradient>
		<linearGradient id="g11" x2="1" gradientUnits="userSpaceOnUse" gradientTransform="matrix(343.07,129.81,-77.546,204.945,20.76,173.61)">
			<stop offset="0" stop-color="#fcdbac"/>
			<stop offset=".29" stop-color="#af8756"/>
			<stop offset=".73" stop-color="#fcdbac"/>
			<stop offset="1" stop-color="#af8756"/>
		</linearGradient>
		<linearGradient id="g12" x2="1" gradientUnits="userSpaceOnUse" gradientTransform="matrix(122.42,0,0,47.031,170.3,190.71)">
			<stop offset="0" stop-color="#feca7f"/>
			<stop offset="1" stop-color="#bc9769"/>
		</linearGradient>
	</defs>
	<style>
		.s0 { fill: url(#g1) } 
		.s1 { fill: url(#g2) } 
		.s2 { fill: url(#g3) } 
		.s3 { fill: url(#g4) } 
		.s4 { fill: url(#g5) } 
		.s5 { fill: url(#g6) } 
		.s6 { fill: url(#g7) } 
		.s7 { fill: #811747 } 
		.s8 { fill: url(#g8) } 
		.s9 { fill: url(#g9) } 
		.s10 { fill: url(#g10) } 
		.s11 { fill: url(#g11) } 
		.s12 { fill: url(#g12) } 
	</style>
	<g id="Layer_1-2">
		<g>
			<path class="s0" d="m1.2 350.4v-0.9c3.2-0.9 5.2-3.9 5.2-7.2v-51.7c0-3.3-2-6.3-5.2-7.2v-0.9h48.1l2.2 18.4h-1.3c-3.4-9.5-10.5-16.2-21-16.2h-2.5c-5.4 0-6.1 0.9-6.1 5.9v23.3l22.5-3.6v7.6l-22.5-2.2v26.6c0 5 0.7 5.9 6.1 5.9h4.6c10.6 0 17.6-6.7 21-16.2h1.3l-2.2 18.4h-50.2z"/>
			<path class="s1" d="m60.5 342.3v-45.2c0-3-0.9-6.4-4.1-7.1v-1.4c3.7-0.1 14-3.9 16.2-6l1.4 0.5v59.2c0 4.2 2 6.1 4.8 7.3v0.8h-23.1v-0.8c2.9-1.2 4.8-3.1 4.8-7.3z"/>
			<path class="s2" d="m104.1 307.2c12.5 0 18.8 8.6 18.8 19l-28 2.3c0.8 8.2 5 14.5 13.5 14.5 7.1 0 12.8-3.6 16.7-9.4l1 0.4c-4.1 10.4-11.9 17-22.7 17-13.7 0-21.9-8.3-21.9-22 0-13.7 9.2-21.8 22.6-21.8zm-9.3 19l15.2-1.8c1.1-7.3-1-15.1-6.1-15.1-7.1 0-9.2 9.9-9.1 16.9z"/>
			<path class="s3" d="m135.8 358.4c2.7 0 6 1 6.3 4.2 0.2 1.7 1.4 3.8 3.1 5.5 1.9 2 5.1 2.9 9.7 2.9 4.1 0 8.2-1.2 10.3-2.9 1.5-1.4 2.3-2.9 2.3-4.2 0-2.2-1.6-3.8-8-3.8-6.3 0-20.3-0.5-25.4-3.5-2.6-1.5-4.1-3.8-4-7.6 0.1-4.6 3-7.4 6.9-8.7-4.3-3.2-6.9-8-6.9-14.2 0-11.8 9.4-18.9 21.9-18.9 3.1 0 6.1 0.5 8.8 1.4 0.6-6.5 4.2-13.2 11.4-13.2 8.9 0 8.5 11.7 2.7 12-1.5 0-2.9-1.2-5.2-1.2-2.5 0-4.7 1.3-5.9 3.6 6.1 3 10 8.7 10 16.3 0 11.7-9.3 18.5-21.8 18.5-4.9 0-9.3-1.1-12.9-3-1.3 0.8-2.1 1.8-1.6 3.2 0.8 2.3 7.9 2 15.7 2.2 8.1 0.2 20.8 0.2 20.6 11.6-0.2 11.1-12.2 14.8-23.2 14.8-5.4 0-13.6-0.3-18-3.7-5.2-4.3-2.4-11.4 3.1-11.4zm16.2-15.9c6.3 0 7.8-10 7.8-16.3 0-6.3-1.4-16.8-7.8-16.8-6.3 0-7.7 10.6-7.7 16.8 0 6.2 1.5 16.3 7.7 16.3z"/>
			<path class="s4" d="m176.6 340.1c0-9 7.9-12.6 15.6-13.9 5.4-0.9 9.7-3.1 9.7-9.3 0-3.6-1.6-7.5-5.7-7.5-3.4 0-6 1.8-6 5.5 0 1.7 0.9 3.2 0.9 4.9 0 3.1-3.4 4.6-6.1 4.6-3.4 0-6.3-2.3-6.3-5.9 0-8.6 12.2-11.3 18.9-11.3 9.2 0 17.7 3.3 17.7 13.8v17.7c0 2.1 0.9 4.8 3.3 4.8 1.5 0 2.7-1 3.4-2.1l1.1 0.6c-1.8 5.7-6.6 8.4-12.4 8.4-3.4 0-7-1-8.5-4.5-3.9 2.1-8.2 5.1-12.9 5.1-7 0-12.7-3.2-12.7-10.9zm14.2-2.3c0 4 2 7.4 6.3 7.4 1.8 0 3.4-0.9 4.8-1.9v-18.1c-6.2 1.8-11.1 5.7-11.1 12.6z"/>
			<path class="s5" d="m218.4 350.4v-0.9c2.8-1.1 4.8-3 4.8-7.2v-20.6c0-2.9-1-6.3-4.2-7v-1.4c3.7-0.1 14-3.9 16.2-6.1l1.4 0.6v6.9c2.1-3.1 7.7-7.5 14.5-7.5 6.8 0 13.3 3.5 13.3 12.1v23c0 4.2 1.9 6.1 4.8 7.3v0.8h-23.1v-0.8c2.8-1.2 4.8-3.1 4.8-7.3v-20.8c0-5.6-2.3-8.4-5.7-8.4-4.1 0-7.1 2.8-8.6 6.5v22.7c0 4.2 2 6.1 4.8 7.3v0.8h-23z"/>
			<path class="s6" d="m265.3 307.8c4.1-1 15.5-9 17.3-13.3h1.4v13.3h7.1v2.3h-7.1l-0.1 28.6c0 3.2 1.7 4.8 3.4 4.8 1.2 0 2.5-0.7 3.4-2.1l1.1 0.6c-1.3 4.2-5 8.4-12.5 8.4-3.5 0-8.7-1.5-8.7-7.8v-32.5h-5.3v-2.3z"/>
			<g>
				<path class="s7" d="m19.5 401.5c0-20.2 12.1-34.6 32.9-34.6 9.7 0 25.1 3.2 25.1 15.5 0 4.3-3.3 7.3-7.4 7.3-3.6 0-6.5-2.4-6.5-6.1 0-1.2 0.4-2.3 0.4-3.5 0-6.9-3.6-11.1-10.6-11.1-14.1 0-19.8 17.5-19.8 29 0 15.7 8.5 28.1 25.3 28.1 8.9 0 17-6 21.8-13.1l0.8 0.5c-4.8 13.6-14.2 22.3-29.1 22.3-21.2 0-32.9-13.6-32.9-34.3z"/>
				<path class="s7" d="m88.5 427.2v-45.3c0-2.9-1-6.3-4.2-7v-1.4c3.7-0.1 14-3.9 16.2-6.1l1.4 0.6v59.2c0 4.2 2 6.1 4.8 7.2v0.9h-23.1v-0.9c2.9-1.1 4.9-3 4.9-7.2z"/>
				<path class="s7" d="m108.5 401.3v-1.5c4.3-0.4 15.5-5.8 17-7.7l1.4 0.6v34.5c0 4.2 2 6.1 4.8 7.2l0.1 0.9h-23.1v-0.9c2.8-1.1 4.8-3 4.8-7.2v-19.9c0-3-1.8-5.1-5-6.1zm2.1-21.5c0-5.5 4.1-8.3 8.1-8.3 4.1 0 8.2 2.8 8.2 8.3 0 5.5-4 8.2-8.2 8.2-4.2 0-8.1-2.8-8.1-8.2z"/>
				<path class="s7" d="m133.6 435.3v-0.9c2.8-1.1 4.8-3 4.8-7.2v-20.6c0-2.9-1-6.3-4.2-7v-1.5c3.7 0 14-3.8 16.2-6l1.4 0.6v6.9c2.1-3.1 7.8-7.5 14.5-7.5 6.8 0 13.3 3.5 13.3 12.1v23c0 4.2 1.9 6.1 4.8 7.2v0.9h-23.1v-0.9c2.9-1.1 4.8-3 4.8-7.2v-20.8c0-5.6-2.3-8.4-5.7-8.4-4.1 0-7.1 2.8-8.6 6.5v22.7c0 4.2 2 6.1 4.9 7.2v0.9h-23.1z"/>
				<path class="s7" d="m186.2 401.3v-1.5c4.3-0.4 15.5-5.8 17-7.7l1.4 0.6v34.5c0 4.2 2 6.1 4.8 7.2v0.9h-23v-0.9c2.8-1.1 4.8-3 4.8-7.2v-19.9c0-3-1.9-5.1-5-6.1zm2.1-21.5c0-5.5 4.1-8.3 8.1-8.3 4.1 0 8.2 2.8 8.2 8.3 0 5.5-4 8.2-8.2 8.2-4.2 0-8.1-2.8-8.1-8.2z"/>
				<path class="s7" d="m234.8 392.1c7.9 0 17.4 2.1 17.4 11.8 0 3.4-2.5 5.7-5.8 5.7-4.9 0-6.3-3.8-6.3-7.9 0-4.2-0.9-7.5-5.6-7.5-7.4 0-9.1 10.9-9.1 16.4 0 8.8 3.7 17.3 13.7 17.3 7 0 12.7-3.7 16.6-9.4l1 0.4c-4 9.9-11.6 16.9-22.7 16.9-13.7 0-21.9-8.2-21.9-21.9 0-13.7 9.3-21.8 22.6-21.8z"/>
			</g>
			<path class="s8" d="m34.3 0.6c0.1 0.8 0.8 2.4 2.1 5 3.2 6.6 5.5 12.6 7.4 19.5 3.6 12.3 5.5 17.3 9.4 24.6 4 7.6 9.4 14.7 14.6 19.4 3.3 3 7.4 5.9 10.7 7.8 5.2 2.8 11.2 5.1 16.7 6.2 1.9 0.4 3.8 0.7 3.8 0.6 0 0-0.5-0.4-1.2-0.7-2.3-1.2-5.9-3.5-9-5.9-3.4-2.5-6.1-4.8-9.3-7.9-4.1-3.9-6.7-7-9.7-11.4-1.8-2.5-4.5-7.5-5.9-10.5-0.3-0.7-0.6-1.5-0.8-1.7-0.9-2-2.8-7.6-3.7-10.7-0.7-2.4-1.3-4.6-1.2-4.7 0.1-0.1 0.8 0.4 1.8 1 0.9 0.7 3.4 2.3 5.5 3.6 13 8.4 19.6 13.3 27.5 20.3 9.9 8.8 19.2 20.4 26.5 33 0.7 1.2 1.4 2.6 1.7 3 0.9 1.6 3.4 6.6 4.5 9q4.4 9.6 6.8 18.2c1.3 4.8 1.9 8 2.6 13.5 0.3 2.7 0.5 3.7 0.6 5.4 0.6 8.5 0.6 13 0 27.7-0.1 2.8-0.2 8-0.3 11.6-0.1 3.7-0.3 7-0.3 7.4 0 0.4 0 0.7 0.1 0.7 0.2 0 2.5-6.6 3.6-10.5 2.7-9.3 4.7-20.7 5.4-30.2 0.2-3.2 0.2-13.4 0-16.6-0.2-2.3-0.6-6.3-0.8-8.2-0.7-5.2-1.1-7.5-2.1-12.2-1.8-8.2-4.7-16.9-8.2-25-1.1-2.6-4.3-9.2-5.6-11.4-0.3-0.6-0.8-1.6-1.1-2.2-4.1-7.5-8.8-14.3-14.8-21.5-1.6-1.9-3.2-3.6-6.1-6.5-11.5-11.7-23.1-19.9-36.1-25.8-5-2.2-9.8-3.9-17.1-6.1-5.8-1.7-10.6-3.4-13.1-4.7-2.1-1-4-2.5-4.5-3.4-0.3-0.5-0.5-0.4-0.4 0.3z"/>
			<path fill-rule="evenodd" class="s7" d="m152.3 66.9c-11 0-19.9-8.9-19.9-19.9 0-11 8.9-19.9 19.9-19.9 11 0 19.9 8.9 19.9 19.9 0 11-8.9 19.9-19.9 19.9z"/>
			<path class="s9" d="m264 75.5c-4.9 3.4-8.6 5-15.4 6.8-2.3 0.7-7.8 2.2-9.5 2.8-8.1 2.7-15.1 6.6-20.6 11.6-5.8 5.3-10.3 11.4-13.6 18.5-1.2 2.7-2.1 5.1-3.4 9.4-0.4 1.2-0.7 2.3-0.8 2.5-0.2 0.5 0.2 0.1 1.3-1.2 1.4-1.8 5.6-6 7.8-7.8 4-3.3 8-5.9 12.7-8.3 2.2-1.1 7.3-3.3 7.4-3.2 0 0-2.9 4.2-6.9 9.9-5.3 7.4-10.7 14.4-15 19.5-8.2 9.5-19.9 21.5-28.8 29.3-2 1.8-2.4 2.2-2.3 2.3 0 0 0.4 0 0.8-0.1 0.4 0 1.8-0.2 3-0.3 4.2-0.5 9.8-1.4 13.8-2.2 9.9-2 17.8-5.1 24.3-9.4 8.1-5.4 13.8-12 19.7-22.7 1.5-2.9 3.9-8.3 5.1-11.4 0.1-0.4 0.5-1.3 0.7-1.8 0.8-2.1 1.8-5.1 4.1-11.9 2.5-7.4 3.8-10.9 5.6-15.5 4-9.9 6.3-13.6 10.7-16.9 1.2-0.9 1.5-1.2 1.3-1.2-0.1 0-1 0.6-2 1.3z"/>
			<path class="s10" d="m29.7 77.5c0 0 0.1 0.2 0.2 0.3 0.2 0.3 2.2 3.6 3.1 5.1 3 5 5.6 10.5 8.1 16.8 1.3 2.9 1.9 4.7 4 10.6 0.3 0.9 0.8 2.1 1 2.6 0.2 0.6 0.6 1.7 0.9 2.6 3.1 8.7 6.8 16.6 10.8 22.7 5 7.8 10.3 13.4 16.6 17.6 6.2 4.2 13.3 7.1 22.3 9 2.1 0.5 3.6 0.8 8.5 1.6 4.8 0.8 7.8 1.4 10.1 2 0.6 0.2 1.2 0.3 1.2 0.3 0-0.1-0.9-1-2.1-2.1-5.2-4.8-8.5-8.1-14.8-14.6-1.7-1.8-7.6-8.2-8.7-9.5-0.5-0.6-2.6-3-3.5-4-1.7-1.9-5.1-6-7-8.5-2.8-3.5-10.1-13.4-13.2-17.6-4.1-5.9-6-8.5-6.4-8.9-0.4-0.4-0.2-0.5 0.4-0.2 0.2 0.2 1.5 0.9 2.7 1.5 9.2 4.8 15.9 9.1 21.5 13.9 3 2.5 5.6 5.1 6.6 6.7 0.3 0.4 0.5 0.7 0.6 0.7 0-0.1-0.8-2.8-1.6-5.2-2.1-5.9-4.4-10.4-7.8-14.9-1.7-2.3-3.1-3.9-5.4-6.2-6.2-6.2-13.5-10.6-22.5-13.7-2.2-0.8-3.2-1.1-7-2.1-1.8-0.5-3.6-1-4.2-1.1-4.3-1.1-10.1-3.4-13.3-5-0.6-0.3-1.2-0.5-1.2-0.5z"/>
			<path class="s7" d="m158.4 79.1c0 0.1 0.1 0.4 0.3 0.8 0.5 1.3 1.6 4.7 2.2 6.6 1.7 6 2.8 12.1 3.7 20.4 0.3 3.5 0.3 14.2 0 18-0.9 8.9-1.8 14.7-3.6 22.1-6.2 25.5-16.3 43.1-35.3 61.9-6.2 6-13.5 12.1-22.8 18.7-5.7 4.1-16.8 11.3-17 11-0.1-0.1 1.6-5.4 2.6-8.1 2.9-7.6 6.1-13.9 10.3-20.2 2.7-4.1 4.7-6.7 8-10.2 5.9-6.4 12.6-11 20.9-14.2 0.5-0.2-0.2-0.2-1.2 0-0.6 0.1-1.5 0.3-2.2 0.4-8.6 1.6-17.7 5.7-25.1 11.2-6.8 5.2-12.9 12.2-18.3 20.8-7.6 12.3-12.2 26.4-14.6 44.1-0.1 1.1-0.3 2.4-0.4 2.9 0 0.6-0.1 1 0 1.1 0 0 0.3-0.1 0.5-0.2 0.5-0.2 4.5-1.7 7.2-2.7 0.9-0.3 4.1-1.4 7-2.4 6.4-2.2 8-2.8 11.2-4 9.6-3.8 16.5-7.6 25.5-14.2 8.1-5.8 17.7-14.8 24.8-23.2 0.8-0.9 2.2-2.6 3.1-3.8 1.7-2.1 2.1-2.6 2-1.9-0.3 1-0.4 3.1-0.3 5.6 0 2.4 0.1 3 0.4 4.8 2 10 7.6 18.7 15.7 24.4 6 4.3 13.7 7.7 23.5 10.5 2.8 0.7 4.1 1 8.4 2 5.6 1.3 8.5 2 11.3 2.9 2.4 0.8 5.2 2 5.8 2.5 0.1 0.1 0.3 0.2 0.3 0.2 0.2-0.2-0.4-6.4-0.9-10.4-1.3-9-4.9-21-9-29.9-5.9-12.9-14.3-23.4-23.9-30.1-5.1-3.6-9.2-5.4-14.6-6.3-0.9-0.1-1.7-0.2-1.8-0.2 0 0.1 0.7 0.8 1.6 1.7 0.9 0.8 2.7 2.5 3.9 3.8 8.9 8.9 14.4 17.2 18.7 28 1.9 4.6 4.4 12.8 4 13.2-0.1 0.1-0.2 0-4-1.1-7.2-2.2-15.8-5.7-21.1-8.7-1.9-1-5.1-3.2-6.6-4.3-3.7-2.9-7.3-7.2-8.9-10.5-0.4-0.8-0.5-1.3-0.5-1.4 4.2-6.1 7.2-11.3 10.1-17.7 4.3-9.5 8-21.2 9.7-30.7 0.1-0.6 0.3-1.6 0.4-2.1 0.2-1.4 0.6-4.2 0.9-6.2 0.1-0.9 0.2-2.1 0.3-2.7 0.6-4.9 0.9-10.2 0.9-16.5 0-8.3-0.5-14-1.8-22-1.4-8.9-4.5-19.6-7.8-26.9-1.3-2.9-3.5-7.2-3.5-6.8z"/>
			<path class="s11" d="m74.5 167.3c-11.2 0.5-20.4 2-28.4 4.7-9.9 3.3-17.2 6.9-29.8 14.8-6.5 4.1-12.2 7.4-15.5 9.1l-0.8 0.4 0.5 0.4c1.5 1.3 6.2 4.5 9.9 6.6 9.2 5.3 19.6 8.7 30.2 9.8 2.8 0.3 10.4 0.4 12.9 0.1 11.5-1.2 21.1-4.5 30.7-10.6 0.9-0.6 1.9-1.2 2.3-1.5 0.4-0.2 0.7-0.4 0.7-0.5-0.1 0-0.4 0.1-0.9 0.3-4.4 1.8-13.4 2.8-21.4 2.5-9.4-0.3-20.6-2.5-27.4-5.3-0.9-0.4-1.7-0.8-1.7-0.8 0-0.2 2.4-2.1 4.6-3.7 2-1.5 5.7-4 7.7-5.3 9.6-5.8 22.5-10.6 33.3-12.3 4.1-0.6 4.9-0.7 10.1-0.7 4 0 5.5 0 7.1 0.2 7.5 0.9 14.7 2.6 21.7 5.1 0.8 0.3 1.5 0.5 1.5 0.5 0.1-0.2-2.5-2.4-4.8-4.1-7.1-5.3-17-8.5-29.1-9.5-2.8-0.3-10.3-0.4-13.4-0.2z"/>
			<path class="s12" d="m209.8 167.2c-0.3 0.1-1.5 0.1-2.6 0.2-2.3 0.2-5.7 0.6-8.3 0.9-10.7 1.6-19.5 5-26.8 10.5-1 0.7-1.8 1.4-1.8 1.5 0 0 0.4-0.1 1-0.4 2.6-1.1 8.3-2.7 11.9-3.5 5.4-1.1 9.3-1.5 14.4-1.5 5.8 0 10 0.5 16.6 1.8q8.7 1.8 16.4 4.9c8.2 3.3 17 8.5 24.3 14.3 0.7 0.5 1.1 1 1.1 1-0.2 0.2-3.9 1.6-6.2 2.3-6.6 2.2-13 3.7-18.5 4.5-2.6 0.3-3 0.3-7.7 0.3-5 0-5 0-7.8-0.4-2.9-0.4-6.2-1.1-7.1-1.5-0.2-0.1-0.4-0.1-0.4-0.1 0 0.2 1.8 1.6 3.6 2.8 6.2 4.3 15.3 7.8 23.6 9 4.5 0.6 10.4 0.6 15.5 0 6.3-0.7 13.3-2.5 19.2-4.8 3.6-1.4 7.7-3.4 10.6-5.1 2.7-1.6 11.9-7.5 11.9-7.7 0 0-2.1-1.3-4.7-2.9-6.5-3.9-10.8-6.3-14.5-8.4-11.3-6.2-18.8-9.7-27.5-12.5-8.5-2.9-14.6-4.1-23.2-4.9-2-0.2-11.5-0.4-13-0.2z"/>
		</g>
	</g>
</svg>