<svg version="1.2" xmlns="http://www.w3.org/2000/svg" viewBox="0 0 93 97" width="93" height="97">
	<title>95</title>
	<defs>
		<linearGradient id="g1" x2="1" gradientUnits="userSpaceOnUse" gradientTransform="matrix(123.3,-20.96,19.981,117.539,-15.1,98.27)">
			<stop offset="0" stop-color="#76caba"/>
			<stop offset=".47" stop-color="#5dc6ca"/>
			<stop offset="1" stop-color="#43b8db"/>
		</linearGradient>
		<linearGradient id="g2" x2="1" gradientUnits="userSpaceOnUse" gradientTransform="matrix(123.3,-20.96,26.35,155.009,-14.85,99.75)">
			<stop offset="0" stop-color="#76caba"/>
			<stop offset=".47" stop-color="#5dc6ca"/>
			<stop offset="1" stop-color="#43b8db"/>
		</linearGradient>
		<linearGradient id="g3" x2="1" gradientUnits="userSpaceOnUse" gradientTransform="matrix(123.3,-20.95,24.808,146.005,-15.33,96.92)">
			<stop offset="0" stop-color="#76caba"/>
			<stop offset=".47" stop-color="#5dc6ca"/>
			<stop offset="1" stop-color="#43b8db"/>
		</linearGradient>
		<linearGradient id="g4" x2="1" gradientUnits="userSpaceOnUse" gradientTransform="matrix(123.3,-20.96,31.26,183.893,-13.36,108.52)">
			<stop offset="0" stop-color="#76caba"/>
			<stop offset=".47" stop-color="#5dc6ca"/>
			<stop offset="1" stop-color="#43b8db"/>
		</linearGradient>
		<linearGradient id="g5" x2="1" gradientUnits="userSpaceOnUse" gradientTransform="matrix(123.3,-20.95,27.67,162.851,-14.39,102.45)">
			<stop offset="0" stop-color="#76caba"/>
			<stop offset=".47" stop-color="#5dc6ca"/>
			<stop offset="1" stop-color="#43b8db"/>
		</linearGradient>
		<linearGradient id="g6" x2="1" gradientUnits="userSpaceOnUse" gradientTransform="matrix(123.31,-20.96,27.682,162.855,-13.58,107.25)">
			<stop offset="0" stop-color="#76caba"/>
			<stop offset=".47" stop-color="#5dc6ca"/>
			<stop offset="1" stop-color="#43b8db"/>
		</linearGradient>
		<linearGradient id="g7" x2="1" gradientUnits="userSpaceOnUse" gradientTransform="matrix(123.3,-20.95,26.586,156.471,-13.81,105.86)">
			<stop offset="0" stop-color="#76caba"/>
			<stop offset=".47" stop-color="#5dc6ca"/>
			<stop offset="1" stop-color="#43b8db"/>
		</linearGradient>
		<linearGradient id="g8" x2="1" gradientUnits="userSpaceOnUse" gradientTransform="matrix(123.3,-20.96,33.013,194.204,-15.07,98.45)">
			<stop offset="0" stop-color="#76caba"/>
			<stop offset=".47" stop-color="#5dc6ca"/>
			<stop offset="1" stop-color="#43b8db"/>
		</linearGradient>
		<linearGradient id="g9" x2="1" gradientUnits="userSpaceOnUse" gradientTransform="matrix(123.3,-20.96,33.013,194.204,-13.15,109.77)">
			<stop offset="0" stop-color="#76caba"/>
			<stop offset=".47" stop-color="#5dc6ca"/>
			<stop offset="1" stop-color="#43b8db"/>
		</linearGradient>
		<linearGradient id="g10" x2="1" gradientUnits="userSpaceOnUse" gradientTransform="matrix(123.31,-20.96,30.284,178.166,-14.65,100.96)">
			<stop offset="0" stop-color="#76caba"/>
			<stop offset=".47" stop-color="#5dc6ca"/>
			<stop offset="1" stop-color="#43b8db"/>
		</linearGradient>
		<linearGradient id="g11" x2="1" gradientUnits="userSpaceOnUse" gradientTransform="matrix(123.31,-20.96,41.683,245.223,-14.19,103.67)">
			<stop offset="0" stop-color="#76caba"/>
			<stop offset=".47" stop-color="#5dc6ca"/>
			<stop offset="1" stop-color="#43b8db"/>
		</linearGradient>
		<linearGradient id="g12" x2="1" gradientUnits="userSpaceOnUse" gradientTransform="matrix(123.3,-20.96,18.358,107.995,-15.43,96.32)">
			<stop offset="0" stop-color="#76caba"/>
			<stop offset=".47" stop-color="#5dc6ca"/>
			<stop offset="1" stop-color="#43b8db"/>
		</linearGradient>
		<linearGradient id="g13" x2="1" gradientUnits="userSpaceOnUse" gradientTransform="matrix(123.3,-20.96,21.437,126.104,-15.83,93.98)">
			<stop offset="0" stop-color="#76caba"/>
			<stop offset=".47" stop-color="#5dc6ca"/>
			<stop offset="1" stop-color="#43b8db"/>
		</linearGradient>
		<linearGradient id="g14" x2="1" gradientUnits="userSpaceOnUse" gradientTransform="matrix(123.3,-20.96,18.843,110.844,-17.34,85.11)">
			<stop offset="0" stop-color="#76caba"/>
			<stop offset=".47" stop-color="#5dc6ca"/>
			<stop offset="1" stop-color="#43b8db"/>
		</linearGradient>
		<linearGradient id="g15" x2="1" gradientUnits="userSpaceOnUse" gradientTransform="matrix(123.3,-20.96,18.774,110.439,-16.29,91.31)">
			<stop offset="0" stop-color="#76caba"/>
			<stop offset=".47" stop-color="#5dc6ca"/>
			<stop offset="1" stop-color="#43b8db"/>
		</linearGradient>
		<linearGradient id="g16" x2="1" gradientUnits="userSpaceOnUse" gradientTransform="matrix(123.3,-20.95,20.947,123.283,-16.7,88.84)">
			<stop offset="0" stop-color="#76caba"/>
			<stop offset=".47" stop-color="#5dc6ca"/>
			<stop offset="1" stop-color="#43b8db"/>
		</linearGradient>
		<linearGradient id="g17" x2="1" gradientUnits="userSpaceOnUse" gradientTransform="matrix(123.31,-20.96,53.826,316.666,-17.02,87.01)">
			<stop offset="0" stop-color="#76caba"/>
			<stop offset=".47" stop-color="#5dc6ca"/>
			<stop offset="1" stop-color="#43b8db"/>
		</linearGradient>
		<linearGradient id="g18" x2="1" gradientUnits="userSpaceOnUse" gradientTransform="matrix(123.3,-20.96,55.207,324.764,-16.5,90.03)">
			<stop offset="0" stop-color="#76caba"/>
			<stop offset=".47" stop-color="#5dc6ca"/>
			<stop offset="1" stop-color="#43b8db"/>
		</linearGradient>
		<linearGradient id="g19" x2="1" gradientUnits="userSpaceOnUse" gradientTransform="matrix(90.33,-57.46,87.506,137.564,-7.15,59.37)">
			<stop offset="0" stop-color="#76caba"/>
			<stop offset=".47" stop-color="#5dc6ca"/>
			<stop offset="1" stop-color="#43b8db"/>
		</linearGradient>
		<linearGradient id="g20" x2="1" gradientUnits="userSpaceOnUse" gradientTransform="matrix(90.33,-57.46,37.102,58.327,-15.02,47)">
			<stop offset="0" stop-color="#76caba"/>
			<stop offset=".47" stop-color="#5dc6ca"/>
			<stop offset="1" stop-color="#43b8db"/>
		</linearGradient>
		<linearGradient id="g21" x2="1" gradientUnits="userSpaceOnUse" gradientTransform="matrix(90.34,-57.45,108.566,170.719,2.91,75.19)">
			<stop offset="0" stop-color="#76caba"/>
			<stop offset=".47" stop-color="#5dc6ca"/>
			<stop offset="1" stop-color="#43b8db"/>
		</linearGradient>
		<linearGradient id="g22" x2="1" gradientUnits="userSpaceOnUse" gradientTransform="matrix(90.34,-57.45,89.414,140.603,-1.51,68.24)">
			<stop offset="0" stop-color="#76caba"/>
			<stop offset=".47" stop-color="#5dc6ca"/>
			<stop offset="1" stop-color="#43b8db"/>
		</linearGradient>
		<linearGradient id="g23" x2="1" gradientUnits="userSpaceOnUse" gradientTransform="matrix(90.33,-57.46,56.244,88.419,-4.96,62.81)">
			<stop offset="0" stop-color="#76caba"/>
			<stop offset=".47" stop-color="#5dc6ca"/>
			<stop offset="1" stop-color="#43b8db"/>
		</linearGradient>
		<linearGradient id="g24" x2="1" gradientUnits="userSpaceOnUse" gradientTransform="matrix(90.33,-57.45,41.938,65.94,-3.14,65.67)">
			<stop offset="0" stop-color="#76caba"/>
			<stop offset=".47" stop-color="#5dc6ca"/>
			<stop offset="1" stop-color="#43b8db"/>
		</linearGradient>
		<linearGradient id="g25" x2="1" gradientUnits="userSpaceOnUse" gradientTransform="matrix(90.33,-57.45,57.321,90.127,-5.67,61.69)">
			<stop offset="0" stop-color="#76caba"/>
			<stop offset=".47" stop-color="#5dc6ca"/>
			<stop offset="1" stop-color="#43b8db"/>
		</linearGradient>
		<linearGradient id="g26" x2="1" gradientUnits="userSpaceOnUse" gradientTransform="matrix(90.34,-57.46,40.245,63.274,-15.66,46)">
			<stop offset="0" stop-color="#76caba"/>
			<stop offset=".47" stop-color="#5dc6ca"/>
			<stop offset="1" stop-color="#43b8db"/>
		</linearGradient>
		<linearGradient id="g27" x2="1" gradientUnits="userSpaceOnUse" gradientTransform="matrix(90.34,-57.46,88.157,138.603,1.15,72.43)">
			<stop offset="0" stop-color="#76caba"/>
			<stop offset=".47" stop-color="#5dc6ca"/>
			<stop offset="1" stop-color="#43b8db"/>
		</linearGradient>
		<linearGradient id="g28" x2="1" gradientUnits="userSpaceOnUse" gradientTransform="matrix(90.33,-57.46,56.83,89.34,-22.45,35.32)">
			<stop offset="0" stop-color="#76caba"/>
			<stop offset=".47" stop-color="#5dc6ca"/>
			<stop offset="1" stop-color="#43b8db"/>
		</linearGradient>
		<linearGradient id="g29" x2="1" gradientUnits="userSpaceOnUse" gradientTransform="matrix(90.33,-57.46,57.852,90.947,2.77,74.97)">
			<stop offset="0" stop-color="#76caba"/>
			<stop offset=".47" stop-color="#5dc6ca"/>
			<stop offset="1" stop-color="#43b8db"/>
		</linearGradient>
		<linearGradient id="g30" x2="1" gradientUnits="userSpaceOnUse" gradientTransform="matrix(90.33,-57.46,56.889,89.433,6.35,80.6)">
			<stop offset="0" stop-color="#76caba"/>
			<stop offset=".47" stop-color="#5dc6ca"/>
			<stop offset="1" stop-color="#43b8db"/>
		</linearGradient>
		<linearGradient id="g31" x2="1" gradientUnits="userSpaceOnUse" gradientTransform="matrix(90.33,-57.46,57.366,90.183,.58,71.53)">
			<stop offset="0" stop-color="#76caba"/>
			<stop offset=".47" stop-color="#5dc6ca"/>
			<stop offset="1" stop-color="#43b8db"/>
		</linearGradient>
		<linearGradient id="g32" x2="1" gradientUnits="userSpaceOnUse" gradientTransform="matrix(90.33,-57.46,57.866,90.968,-13.72,49.04)">
			<stop offset="0" stop-color="#76caba"/>
			<stop offset=".47" stop-color="#5dc6ca"/>
			<stop offset="1" stop-color="#43b8db"/>
		</linearGradient>
		<linearGradient id="g33" x2="1" gradientUnits="userSpaceOnUse" gradientTransform="matrix(90.34,-57.46,38.013,59.765,9.33,85.29)">
			<stop offset="0" stop-color="#76caba"/>
			<stop offset=".47" stop-color="#5dc6ca"/>
			<stop offset="1" stop-color="#43b8db"/>
		</linearGradient>
		<linearGradient id="g34" x2="1" gradientUnits="userSpaceOnUse" gradientTransform="matrix(90.34,-57.46,87.224,137.136,13.06,91.15)">
			<stop offset="0" stop-color="#76caba"/>
			<stop offset=".47" stop-color="#5dc6ca"/>
			<stop offset="1" stop-color="#43b8db"/>
		</linearGradient>
		<linearGradient id="g35" x2="1" gradientUnits="userSpaceOnUse" gradientTransform="matrix(90.34,-57.46,87.429,137.458,-8.54,57.19)">
			<stop offset="0" stop-color="#76caba"/>
			<stop offset=".47" stop-color="#5dc6ca"/>
			<stop offset="1" stop-color="#43b8db"/>
		</linearGradient>
		<linearGradient id="g36" x2="1" gradientUnits="userSpaceOnUse" gradientTransform="matrix(90.34,-57.46,56.316,88.542,5.33,79)">
			<stop offset="0" stop-color="#76caba"/>
			<stop offset=".47" stop-color="#5dc6ca"/>
			<stop offset="1" stop-color="#43b8db"/>
		</linearGradient>
		<linearGradient id="g37" x2="1" gradientUnits="userSpaceOnUse" gradientTransform="matrix(90.33,-57.46,56.766,89.239,-2.38,66.87)">
			<stop offset="0" stop-color="#76caba"/>
			<stop offset=".47" stop-color="#5dc6ca"/>
			<stop offset="1" stop-color="#43b8db"/>
		</linearGradient>
		<linearGradient id="g38" x2="1" gradientUnits="userSpaceOnUse" gradientTransform="matrix(90.34,-57.46,57.34,90.151,12.71,90.6)">
			<stop offset="0" stop-color="#76caba"/>
			<stop offset=".47" stop-color="#5dc6ca"/>
			<stop offset="1" stop-color="#43b8db"/>
		</linearGradient>
		<linearGradient id="g39" x2="1" gradientUnits="userSpaceOnUse" gradientTransform="matrix(90.33,-57.46,57.605,90.559,-6.73,60.03)">
			<stop offset="0" stop-color="#76caba"/>
			<stop offset=".47" stop-color="#5dc6ca"/>
			<stop offset="1" stop-color="#43b8db"/>
		</linearGradient>
		<linearGradient id="g40" x2="1" gradientUnits="userSpaceOnUse" gradientTransform="matrix(90.33,-57.45,56.353,88.605,-6,61.17)">
			<stop offset="0" stop-color="#76caba"/>
			<stop offset=".47" stop-color="#5dc6ca"/>
			<stop offset="1" stop-color="#43b8db"/>
		</linearGradient>
		<linearGradient id="g41" x2="1" gradientUnits="userSpaceOnUse" gradientTransform="matrix(90.33,-57.46,61.209,96.223,-13.4,49.54)">
			<stop offset="0" stop-color="#76caba"/>
			<stop offset=".47" stop-color="#5dc6ca"/>
			<stop offset="1" stop-color="#43b8db"/>
		</linearGradient>
		<linearGradient id="g42" x2="1" gradientUnits="userSpaceOnUse" gradientTransform="matrix(90.34,-57.46,57.661,90.656,.68,71.69)">
			<stop offset="0" stop-color="#76caba"/>
			<stop offset=".47" stop-color="#5dc6ca"/>
			<stop offset="1" stop-color="#43b8db"/>
		</linearGradient>
		<linearGradient id="g43" x2="1" gradientUnits="userSpaceOnUse" gradientTransform="matrix(90.34,-57.46,57.758,90.808,9.6,85.71)">
			<stop offset="0" stop-color="#76caba"/>
			<stop offset=".47" stop-color="#5dc6ca"/>
			<stop offset="1" stop-color="#43b8db"/>
		</linearGradient>
		<linearGradient id="g44" x2="1" gradientUnits="userSpaceOnUse" gradientTransform="matrix(90.33,-57.46,53.166,83.579,-12.73,50.6)">
			<stop offset="0" stop-color="#76caba"/>
			<stop offset=".47" stop-color="#5dc6ca"/>
			<stop offset="1" stop-color="#43b8db"/>
		</linearGradient>
		<linearGradient id="g45" x2="1" gradientUnits="userSpaceOnUse" gradientTransform="matrix(90.34,-57.46,61.539,96.754,4.35,77.46)">
			<stop offset="0" stop-color="#76caba"/>
			<stop offset=".47" stop-color="#5dc6ca"/>
			<stop offset="1" stop-color="#43b8db"/>
		</linearGradient>
		<linearGradient id="g46" x2="1" gradientUnits="userSpaceOnUse" gradientTransform="matrix(90.34,-57.45,52.741,82.934,2.34,74.29)">
			<stop offset="0" stop-color="#76caba"/>
			<stop offset=".47" stop-color="#5dc6ca"/>
			<stop offset="1" stop-color="#43b8db"/>
		</linearGradient>
		<linearGradient id="g47" x2="1" gradientUnits="userSpaceOnUse" gradientTransform="matrix(90.34,-57.45,62.37,98.076,.43,71.29)">
			<stop offset="0" stop-color="#76caba"/>
			<stop offset=".47" stop-color="#5dc6ca"/>
			<stop offset="1" stop-color="#43b8db"/>
		</linearGradient>
		<linearGradient id="g48" x2="1" gradientUnits="userSpaceOnUse" gradientTransform="matrix(90.33,-57.45,55.889,87.875,4,76.9)">
			<stop offset="0" stop-color="#76caba"/>
			<stop offset=".47" stop-color="#5dc6ca"/>
			<stop offset="1" stop-color="#43b8db"/>
		</linearGradient>
		<linearGradient id="g49" x2="1" gradientUnits="userSpaceOnUse" gradientTransform="matrix(90.33,-57.46,56.677,89.099,-7.46,58.88)">
			<stop offset="0" stop-color="#76caba"/>
			<stop offset=".47" stop-color="#5dc6ca"/>
			<stop offset="1" stop-color="#43b8db"/>
		</linearGradient>
		<linearGradient id="g50" x2="1" gradientUnits="userSpaceOnUse" gradientTransform="matrix(90.34,-57.46,52.618,82.727,11.09,88.06)">
			<stop offset="0" stop-color="#76caba"/>
			<stop offset=".47" stop-color="#5dc6ca"/>
			<stop offset="1" stop-color="#43b8db"/>
		</linearGradient>
	</defs>
	<style>
		.s0 { fill: url(#g1) } 
		.s1 { fill: url(#g2) } 
		.s2 { fill: url(#g3) } 
		.s3 { fill: url(#g4) } 
		.s4 { fill: url(#g5) } 
		.s5 { fill: url(#g6) } 
		.s6 { fill: url(#g7) } 
		.s7 { fill: url(#g8) } 
		.s8 { fill: url(#g9) } 
		.s9 { fill: url(#g10) } 
		.s10 { fill: url(#g11) } 
		.s11 { fill: url(#g12) } 
		.s12 { fill: url(#g13) } 
		.s13 { fill: url(#g14) } 
		.s14 { fill: url(#g15) } 
		.s15 { fill: url(#g16) } 
		.s16 { fill: url(#g17) } 
		.s17 { fill: url(#g18) } 
		.s18 { fill: url(#g19) } 
		.s19 { fill: url(#g20) } 
		.s20 { fill: url(#g21) } 
		.s21 { fill: url(#g22) } 
		.s22 { fill: url(#g23) } 
		.s23 { fill: url(#g24) } 
		.s24 { fill: url(#g25) } 
		.s25 { fill: url(#g26) } 
		.s26 { fill: url(#g27) } 
		.s27 { fill: url(#g28) } 
		.s28 { fill: url(#g29) } 
		.s29 { fill: url(#g30) } 
		.s30 { fill: url(#g31) } 
		.s31 { fill: url(#g32) } 
		.s32 { fill: url(#g33) } 
		.s33 { fill: url(#g34) } 
		.s34 { fill: url(#g35) } 
		.s35 { fill: url(#g36) } 
		.s36 { fill: url(#g37) } 
		.s37 { fill: url(#g38) } 
		.s38 { fill: url(#g39) } 
		.s39 { fill: url(#g40) } 
		.s40 { fill: url(#g41) } 
		.s41 { fill: url(#g42) } 
		.s42 { fill: url(#g43) } 
		.s43 { fill: url(#g44) } 
		.s44 { fill: url(#g45) } 
		.s45 { fill: url(#g46) } 
		.s46 { fill: url(#g47) } 
		.s47 { fill: url(#g48) } 
		.s48 { fill: url(#g49) } 
		.s49 { fill: url(#g50) } 
	</style>
	<g id="Layer_1-2">
		<g>
			<g>
				<path class="s0" d="m91.6 75.9q-5.4 0-10.8 0c-0.6 0-0.9 0.3-0.9 0.9q0 0.4 0 0.9c-0.1 0.6 0.2 0.9 0.9 0.9 1-0.1 2 0 3.1-0.1 0.6 0 0.9 0.3 0.9 1q0 2.9 0 5.8c0 1.9-0.2 1.7 1.7 1.8 0.9 0 1.1-0.3 1.1-1.1 0-2.1 0-4.1 0-6.2 0-1.2 0-1.2 1.2-1.3 1.2 0 2.4 0.3 3.6-0.1v-2.1c-0.2-0.3-0.5-0.4-0.8-0.4z"/>
				<path class="s1" d="m20.8 91.2c-0.5-0.1-0.4 0.3-0.4 0.6 0 1.1 0 2.3 0 3.7-0.9-1.5-1.6-2.7-2.4-3.9-0.1-0.3-0.3-0.6-0.7-0.5-0.5 0.1-0.3 0.5-0.3 0.7q0 2.5 0 5h0.7c-0.1-1.5 0.1-3 0-4.5q1.3 2.2 2.7 4.5h0.7q0-2.5 0-5.1c0-0.2 0.1-0.5-0.3-0.6z"/>
				<path class="s2" d="m2.1 91.1c-0.2 0-0.5 0.1-0.7 0-0.6 0-0.8 0.2-0.8 0.8 0.1 1.6 0.1 3.3 0.1 4.9h2.3c0 0 0-0.1 0.1-0.1 1.6-0.6 2.3-1.9 2-3.6-0.3-1.3-1.3-2-3-2zm-0.2 5.1c-0.4 0-0.5-0.1-0.5-0.5q0-0.9 0-1.8c0-0.5 0-1 0-1.5-0.1-0.6 0.2-0.8 0.8-0.7 1.5 0 2.3 0.9 2.2 2.4-0.1 1.4-1.2 2.3-2.5 2.1z"/>
				<path class="s3" d="m73.2 93.7c0.9-0.8 0.5-2.1-0.6-2.5-0.6-0.1-1.2 0-1.7-0.1-0.5 0-0.7 0.3-0.7 0.8q0.1 2.4 0.1 4.9h0.7c0-0.5-0.1-1.1 0-1.6 0-0.3-0.2-0.8 0.3-0.8 0.5-0.1 1.1 0 1.2 0.5 0.3 0.7 0.4 1.3 0.6 1.9h0.7c-0.2-0.8-0.2-1.7-0.7-2.3-0.3-0.4-0.2-0.5 0.1-0.8zm-1.6 0.1c-1 0.1-0.5-0.7-0.7-1 0.1-0.5-0.2-1.2 0.7-1.1 0.8 0 1.3 0.4 1.3 1.1 0 0.8-0.6 0.9-1.3 1z"/>
				<path class="s4" d="m34.4 91.1c-0.3 0-0.4 0.3-0.5 0.5q-0.8 2.6-1.7 5.2h0.9c-0.1-0.5 0.1-1 0.4-1.4 0.3-0.7 0.9-0.3 1.4-0.4 0.4 0 0.7 0 0.8 0.5q0.2 0.6 0.4 1.3h0.7c-0.3-1.9-1.2-3.6-1.7-5.4-0.1-0.3-0.4-0.3-0.6-0.3zm0.7 3.3q-0.6 0.1-1.2 0c-0.3 0-0.2-0.3-0.1-0.4 0.1-0.6 0.4-1.2 0.6-2.1 0.3 0.8 0.5 1.5 0.7 2.1 0.1 0.2 0.2 0.4 0 0.5z"/>
				<path class="s5" d="m63.5 91.1c-0.4 0-0.4 0.3-0.5 0.5q-0.9 2.6-1.8 5.2h0.9c0-0.5 0.2-1 0.4-1.4 0.3-0.7 1-0.3 1.5-0.4 0.3 0 0.6 0 0.7 0.5q0.2 0.6 0.4 1.3h0.7c-0.3-1.9-1.1-3.6-1.7-5.4-0.1-0.3-0.4-0.3-0.6-0.3zm0 3.4c-0.6 0-0.8-0.1-0.6-0.7 0.3-0.6 0.4-1.1 0.7-1.9 0.2 0.7 0.3 1.2 0.5 1.7 0.4 0.8 0.2 0.9-0.6 0.9z"/>
				<path class="s6" d="m56.7 96.1q-0.2 0-0.5 0c-1.4 0-2.2-0.8-2.2-2.1 0-1.4 0.8-2.2 2.2-2.2q0.4 0 0.8 0c0.2 0.1 0.4 0 0.4-0.3 0-0.2-0.2-0.2-0.3-0.3-1.8-0.6-3.7 0.7-3.9 2.6-0.1 1.4 0.7 2.3 1.8 3h2c0.1-0.2 0.5-0.1 0.4-0.5-0.1-0.3-0.4-0.2-0.7-0.2z"/>
				<path class="s7" d="m12.2 96.2q-0.7 0-1.4 0c-0.2 0-0.5 0.1-0.5-0.2-0.1-0.5-0.1-1.1 0-1.6 0.1-0.5 0.7-0.2 1-0.3 0.4-0.1 1 0.3 1-0.3 0-0.4-0.6-0.2-1-0.2-0.6 0-1.1 0.1-1.1-0.9 0-0.8 0.2-1.1 1-1q0.4 0 0.7 0c0.3 0 0.6 0.1 0.6-0.3 0-0.4-0.3-0.2-0.6-0.3-0.5 0-1.1 0.1-1.7 0-0.6 0-0.7 0.2-0.7 0.8q0 2.4 0 4.9h3.2c0-0.4-0.1-0.6-0.6-0.6z"/>
				<path class="s8" d="m80.7 96.2q-0.7 0-1.3 0c-0.2 0-0.5 0.1-0.6-0.2 0-0.5-0.1-1.1 0-1.6 0.2-0.5 0.7-0.2 1-0.3 0.4-0.1 1 0.3 1-0.3 0-0.4-0.6-0.2-0.9-0.2-0.7 0-1.2 0.1-1.2-0.9 0.1-0.8 0.3-1.1 1-1q0.4 0 0.8 0c0.2 0 0.6 0.1 0.5-0.3 0-0.4-0.3-0.2-0.5-0.3-0.6 0-1.2 0.1-1.8 0-0.6 0-0.7 0.2-0.7 0.8q0.1 2.4 0.1 4.9h3.2c0-0.4-0.2-0.6-0.6-0.6z"/>
				<path class="s9" d="m28.9 91.1q-1.7 0-3.4 0c-0.2 0-0.3 0.1-0.3 0.3-0.1 0.2 0 0.3 0.2 0.4q0.4 0 0.7 0c0.6-0.1 0.8 0.2 0.8 0.7q0 2.2 0 4.3h0.7q0-1.6 0-3.3c0-0.5-0.1-1.1 0.1-1.5 0.2-0.4 0.8-0.1 1.2-0.2 0.3-0.1 0.4-0.1 0.4-0.4 0-0.2-0.2-0.3-0.4-0.3z"/>
				<path class="s10" d="m43.9 96.2q-0.3 0-0.6 0-1.4 0-1.4-1.3 0-1.6 0-3.1c0-0.3 0.1-0.6-0.3-0.6-0.5-0.1-0.4 0.3-0.4 0.6q0 2.5 0 5h3.1c0-0.3 0-0.5-0.4-0.6z"/>
				<path class="s11" d="m78.7 85.1q0-3.9 0-7.8c0-1.5 0-1.5-1.5-1.5q-0.2 0-0.3 0c-0.8-0.1-1.2 0.2-1.2 1.1 0.1 1.9 0.1 3.7 0.1 5.8-0.4-0.3-0.6-0.4-0.8-0.6q-3.4-2.8-6.9-5.8c-0.6-0.4-1.2-0.8-2-0.4-0.8 0.4-0.9 1-0.9 1.8q0 3.7 0 7.4c0 2 0 2 2 2 0.7 0 1-0.3 1-1q-0.1-2.5 0-5c0-0.3-0.2-0.6 0.1-0.7 0.2-0.1 0.4 0.2 0.5 0.3q3.5 2.9 6.9 5.8c0.7 0.6 1.3 1 2.2 0.5 0.8-0.4 0.8-1.1 0.8-1.9z"/>
				<path class="s12" d="m63.2 86.3c0-0.3-0.1-0.6 0-0.9 0.1-0.8-0.3-1-1-1-2 0-4.1 0-6.1 0-0.7 0-0.9-0.3-0.9-1-0.1-0.8 0.4-0.8 0.9-0.8 1.9 0 3.7 0 5.6 0 1 0.1 1-0.6 1-1.3 0-0.7 0-1.2-1-1.2-1.8 0.1-3.7 0.1-5.5 0.1-0.6 0-1 0.1-1-0.8 0-0.7 0.3-0.9 0.9-0.8 2 0 4-0.1 6.1 0 0.7 0 1-0.3 1-1.1q-0.1-0.3 0-0.6c0-0.7-0.3-1.1-1-1-1.5 0-2.9 0-4.4 0q-2.3 0-4.6 0c-0.5 0-0.9 0.1-0.9 0.7q0.1 4.9 0 9.7c0 0.5 0.2 0.8 0.7 0.8q4.7-0.1 9.4 0c0.5 0 0.8-0.3 0.8-0.8z"/>
				<path class="s13" d="m7.2 75.9c-2.1 0-4.1 0-6.1 0-0.9 0-1.1 0.3-1.1 1.1 0 1.4 0 2.9 0 4.4q0 2.3 0 4.7c0 0.6 0.2 1 0.9 0.9 2.1 0 4.3 0.1 6.5 0 3.3-0.1 5.6-2.9 5.4-5.9-0.2-3-2.4-5.2-5.6-5.2zm0.3 8.4c-1.4 0.2-2.8 0-4.1 0.1-0.5 0-0.6-0.3-0.6-0.7q0-1.1 0-2.2 0-1.1 0-2.2c0-0.5 0.2-0.8 0.8-0.8 1.1 0.1 2.3 0 3.5 0 1.6 0.1 2.7 1.2 2.8 2.7 0.1 1.6-0.8 2.7-2.5 3z"/>
				<path class="s14" d="m45 75.9c-2.1 0-4.2 0-6.3 0-0.7 0-1 0.2-1 1 0 1.5 0 3 0 4.6q0 2.3 0 4.6c0 0.5 0.1 1 0.7 1 2.4-0.1 4.9 0.2 7.3-0.2 3.1-0.5 4.9-2.9 4.7-6-0.2-2.8-2.5-4.9-5.5-5zm0.1 8.4c-1.3 0.2-2.6 0.1-3.9 0.1-0.5 0-0.6-0.3-0.6-0.7q0-1.1 0-2.2c0-0.7 0-1.4 0-2.1 0-0.7 0.2-0.9 0.8-0.8 1.1 0 2.2 0 3.3 0 1.7 0 2.9 1.1 3 2.6 0.1 1.7-0.8 2.8-2.6 3.1z"/>
				<path class="s15" d="m30.2 81.1c-0.7-0.2-1.4-0.2-2.1 0-0.5 0.2-0.3 0.8-0.3 1.2q-0.1 0.6 0 1.3c0 0.6-0.3 0.8-0.8 0.8-0.9 0-1.8 0-2.7 0-1.9 0-3.1-1.2-3.1-3 0-1.7 1.3-2.8 3.1-2.8q2.3 0 4.7 0c0.6 0 0.9-0.3 0.9-0.9q0-0.4 0-0.8c0-0.8-0.3-1-1-1-1.7 0-3.4 0-5 0-2.8 0-5.1 2.1-5.3 4.7-0.3 3.2 1.5 5.7 4.4 6.3 1.2 0.2 2.4 0.1 3.6 0.1 1.1 0 2.1 0 3.1 0 0.5 0 0.8-0.1 0.7-0.7q0-2.3 0-4.7c0-0.2 0-0.4-0.2-0.5z"/>
				<path class="s16" d="m17 77.6c0-1.7 0-1.7-1.8-1.7-0.8 0-1.1 0.3-1.1 1.1 0.1 1.5 0 3 0 4.5q0 1.9 0 3.8c0 1.8 0 1.7 1.8 1.8 0.8 0 1.1-0.3 1.1-1.1-0.1-2.8 0-5.6 0-8.4z"/>
				<path class="s17" d="m34.4 87.1c0.6 0 0.8-0.3 0.8-0.9q0-2.4 0-4.7 0-1 0-2 0-0.9 0-1.9 0-1.7-1.7-1.7c-1 0-1.1 0.1-1.1 1.2q0 4 0 8.1c0 1.9 0 1.9 2 1.9z"/>
			</g>
			<g>
				<path class="s18" d="m41.5 34.8q-1.6-0.1-3.1 0c-1.1 0.1-1.2-0.1-1.2-1.1q-0.1-0.2-0.1-0.5c0-2.2 0.1-4.5 0-6.8 0-1.6-1-2.5-2.7-2.5-2.5-0.1-5 0-7.4 0-0.5 0-1 0-1.4 0.3-1 0.4-1.4 1.2-1.4 2.2 0 2.5-0.1 5.1 0 7.6 0.1 1.9 1 2.8 2.8 2.8 2.5 0 4.9 0 7.4 0 0.7 0 0.9 0.2 0.9 0.9q-0.1 1.5 0 3c0 1.3 0.4 1.7 1.7 1.8q2.3 0.3 4.5 0c1.1-0.1 1.5-0.5 1.5-1.6q0-2.2 0-4.5c0-1.1-0.4-1.5-1.5-1.6z"/>
				<path class="s19" d="m30.1 20.7c0-1.8 0-3.6 0-5.4q0-0.3 0-0.7c0-1.2 0-1.2 1.2-1.2 1.9 0 3.8 0 5.8 0 0.7 0 0.9 0.2 0.9 1-0.1 2.4-0.1 4.9-0.1 7.3 0.1 1.7 1 2.7 2.5 2.7 2.7 0 5.4 0 8.1 0q1.1 0 1.8-0.8c0.7-0.8 0.7-1.7 0.6-2.6 0.1-2.4 0.2-4.8 0-7.3-0.1-0.5 0.1-0.7 0.7-0.7q1.6 0 3.2 0 1.2 0 1.2 1.2 0 2.6 2.6 2.6 2.5 0 2.6-2.7 0-1.3 1.3-1.3c2.7 0 2.8-0.1 2.8-2.7 0-2.6 0-2.6-2.6-2.6q-2.6 0-2.7 2.7c0 1.2-0.2 1.4-1.4 1.4q-0.3 0-0.6 0c-0.7 0-0.9-0.3-0.9-0.9q0.1-1.9 0-3.8c0-0.5 0.1-0.8 0.7-0.8 0.4 0 0.6-0.2 0.8-0.6 0.4-1.4-0.5-2.3-2-2-0.4 0.1-0.8 0.3-0.7 0.8 0.1 0.8-0.3 0.9-0.9 0.9q-2 0-3.9 0c-1.2 0-1.7 0.5-1.7 1.8q-0.1 1.9 0 3.9c0 0.5-0.2 0.7-0.7 0.7-2.4-0.3-4.7-0.1-7.1-0.1-0.8 0-1-0.3-0.9-1q0-3.5 0-7.1c-0.1-2-1-2.9-3-3q-3.7 0-7.3 0c-1.7 0-2.8 1.2-2.6 2.7-0.2 0.3-0.2 0.7-0.2 1.1 0 1.7 0 3.4 0 5.2 0.1 0.7-0.2 1-1 1-0.9-0.1-1.8 0-2.7 0-1.3 0-2.7 0-4 0-1.7 0-2.7 1-2.8 2.7q0 3.8 0 7.5c0.1 1.7 1.1 2.7 2.7 2.7q3.8 0 7.6 0c1.6 0 2.6-1 2.7-2.6z"/>
				<path class="s20" d="m57.5 42.1c0 0.5 0 1 0 1.4 0.1 1 0.4 1.4 1.4 1.4q1.1 0.1 2.2 0c0.8 0 1.1 0.3 1 1 0 0.7 0.2 1.1 0.9 1.1 0.7 0 1.5 0.2 1.8-0.8 0.2-0.9-0.2-1.7-1.2-1.8-0.8-0.1-1-0.4-0.9-1.2 0.1-0.8 0.1-1.7 0-2.6q-0.2-0.8-1-0.8c-0.6 0-1.3-0.1-1.9 0-0.8 0-1.1-0.3-1.1-1.1q0.1-1.8 0-3.6c0-1.4-0.5-1.9-1.9-1.9q-1 0-2 0-0.6 0-1.1 0-0.6 0-1.2 0c-0.9 0-1.4 0.4-1.5 1.4-0.3 1.6-0.3 3.2-0.1 4.8 0.2 1.1 0.8 1.6 1.9 1.6q1.8 0 3.6 0c1 0 1.2 0.2 1.2 1.1z"/>
				<path class="s21" d="m35.3 45.9c-1.1-0.2-2.1 0-3.2 0.1-0.5 0-1-0.1-1.2-0.6-0.3-0.9-0.1-1.8 0-2.8 0-0.2 0.4-0.3 0.6-0.3 1-0.2 1.2-0.6 1.2-1.6-0.1-0.7-0.4-1.1-1.3-1.1-1.2 0-1.4 0.1-1.5 1.1 0 0.6-0.3 0.8-0.9 0.8q-1.1 0-2.2 0c-0.7 0-1.2 0.4-1.2 1.2q0 0.8 0 1.6c0.1 2.1 0 2.5 2.4 2.4 0.7 0 0.9 0.3 0.9 1-0.1 1.3-0.1 2.6-0.1 3.9 0.1 1.5 0.5 2 2 2q1 0 2 0 1.2 0 2.4 0c0.7 0 1.3-0.4 1.4-1.2 0.1-1.8 0.1-3.6-0.1-5.4-0.1-0.6-0.5-0.9-1.2-1.1z"/>
				<path class="s22" d="m45 35.8c0 0.9 0.3 1.3 1.2 1.3q1.3 0.1 2.7 0c0.9 0 1.3-0.5 1.3-1.4 0.1-0.8 0-1.5 0.1-2.3 0-0.3-0.1-0.6 0.3-0.8q1.3 0 2.5-0.1c0.8 0 1.2-0.3 1.2-1.1q0-1.5 0-2.9c0-0.7-0.4-1.1-1.1-1.1q-1.4 0-2.9 0c-0.7 0-1.1 0.5-1.1 1.2q0 1.3 0 2.7c-0.3 0.6-0.8 0.6-1.4 0.5q-1.3 0-1.3-1.2 0.1-1.8 0-3.6c0-1-0.4-1.5-1.5-1.5q-2.2-0.1-4.6 0c-1.1 0-1.6 0.5-1.6 1.6q-0.1 2.2 0 4.4c0 1.2 0.6 1.7 1.9 1.7q1.6 0 3.3 0c0.7 0 1 0.3 0.9 1q0 0.8 0 1.6z"/>
				<path class="s23" d="m74.5 20.2c0.1-0.7-0.3-0.8-0.9-0.8-0.7 0.1-0.9-0.3-0.9-1q0.1-1.1 0-2.3c0-0.9-0.3-1.2-1.3-1.3q-1.2 0-2.5 0c-1 0.1-1.3 0.4-1.4 1.3-0.1 0.7 0 1.4 0 2.1 0 1-0.1 1.1-1.1 1.1q-0.3 0-0.6 0c-2.6-0.1-2.7 0-2.6 2.6q0 0.6 0 1.3c0 1 0.4 1.3 1.3 1.4q1.1 0 2.1 0c1.5-0.1 1.8-0.4 1.9-1.9q0-2.6 2.5-2.6 0.1 0 0.2 0c0.5 0 0.7 0.2 0.7 0.7 0.1 1.2 0.7 1.6 1.8 1.3 1.1-0.3 0.8-1.2 0.8-1.9z"/>
				<path class="s24" d="m61.6 23.7c0-0.8 0-1.5 0-2.3 0-0.8 0-1.6 0-2.4-0.1-0.7-0.4-1.3-1.2-1.4-1.8-0.3-3.5-0.2-5.3 0-0.8 0-1.3 0.6-1.3 1.5q0 2.3 0 4.6c0 1 0.6 1.5 1.6 1.6q2.3 0 4.6 0c1-0.1 1.5-0.6 1.5-1.6z"/>
				<path class="s25" d="m42 8.8c0 1.2 0.3 1.5 1.5 1.6q1.1 0 2.3 0c0.8 0 1.2-0.4 1.3-1.2 0.2-1 0-2 0.1-2.9 0-0.4 0-0.7 0.5-0.7 1 0.1 1.2-0.5 1.1-1.4 0-1.1-0.1-1.2-1.1-1.3-1.4 0-1.5 0.1-1.5 1.3 0 0.6-0.3 0.9-0.9 0.9q-0.4 0-0.8 0c-2.5 0-2.6 0-2.6 2.6q0 0.6 0 1.1z"/>
				<path class="s26" d="m51 43.5c-0.9 0.1-1.2-0.4-1.1-1.2 0-0.3 0-0.6 0-0.9q0-2.5-2.5-2.5-0.6 0-1.3 0c-1 0-1.3 0.3-1.4 1.3q0 1.3 0 2.6c0 0.9 0.5 1.2 1.3 1.2 0.7 0.1 1.4 0.1 2.1 0 0.8 0 1.2 0.3 1.1 1-0.1 0.9 0.4 1.1 1.1 1.2 1 0.1 1.6-0.7 1.5-2 0-0.4-0.2-0.8-0.8-0.7z"/>
				<path class="s27" d="m20.3 7.6c0.1 1.1 0.3 1.4 1.4 1.5 0.8 0 1.7 0 2.6 0 0.9-0.1 1.3-0.6 1.3-1.4 0-0.8 0.1-1.6 0-2.5-0.1-1.1-0.3-1.3-1.5-1.3q-0.6-0.1-1.2-0.1c-2.6 0-2.6 0.1-2.6 2.6q0 0.6 0 1.2z"/>
				<path class="s28" d="m29.9 55c-2.5 0-2.6 0.2-2.6 2.6 0 2.6 0 2.7 2.7 2.7 2.5 0 2.6 0 2.5-2.6 0-2.7 0-2.6-2.6-2.7z"/>
				<path class="s29" d="m59.8 48.1c0-2.3-0.2-2.5-2.5-2.4-3.1 0-2.7 0.3-2.8 2.7 0 2.5 0 2.5 2.5 2.5 2.7 0 2.8-0.1 2.8-2.8z"/>
				<path class="s30" d="m66.2 31.5c0-2.7 0-2.7-2.7-2.7-2.8 0-2.5 0.3-2.5 2.6 0 2.5-0.2 2.7 2.6 2.7 2.5 0 2.6-0.1 2.6-2.6z"/>
				<path class="s31" d="m31.3 18.6c0 2.5 0.2 2.7 2.7 2.7 2.5 0 2.6-0.1 2.6-2.6 0-2.5-0.1-2.6-2.7-2.6-2.4 0-2.6 0.1-2.6 2.5z"/>
				<path class="s32" d="m64.1 48.6c-1 0-1.2 0.1-1.2 1.2 0 0.6 0 1.1-0.8 1-0.5 0-1 0-1 0.7-0.1 0.7-0.4 1.5 0.5 2 0.7 0.3 1.3 0.1 1.8-0.5q0.3-0.3 0.3-0.8c0.1-0.7 0.3-1 1-0.9 0.6 0 0.9-0.3 1-0.8 0.3-1.1-0.4-1.8-1.6-1.9z"/>
				<path class="s33" d="m60.9 60.9c-0.3-0.1-0.5-0.2-0.6-0.5-0.2-1.3-0.2-1.3-1.5-1.3-0.6 0-1.1 0.1-1.1 1-0.1 1.3 0 1.5 1 1.6 0.4 0.1 0.7 0.2 0.8 0.7 0.1 1.1 0.4 1.3 1.5 1.2 0.9 0 1.1-0.3 1.1-1.4 0-1.1 0-1.2-1.2-1.3z"/>
				<path class="s34" d="m70.4 6.7c0.5 0 0.8 0.1 0.8 0.6-0.1 1 0.4 1.3 1.3 1.2 0.6-0.1 1.3 0.2 1.3-0.8 0.1-1.5 0.1-1.6-1.1-1.8-0.5 0-0.8-0.2-0.8-0.7 0-1.1-0.6-1.2-1.4-1.2-1.1 0.1-1.3 0.2-1.3 1.2-0.1 1.2 0.1 1.4 1.2 1.5z"/>
				<path class="s35" d="m31 61.4c-1.3 0-1.4 0.1-1.4 1.3 0 1.2 0 1.3 1.3 1.3 1.3 0 1.4-0.1 1.4-1.3 0-1.2-0.1-1.3-1.3-1.3z"/>
				<path class="s36" d="m56.4 28.1c-1.1 0-1.3 0.2-1.3 1.2 0 1.3 0.2 1.4 1.5 1.4 1.2 0 1.3-0.1 1.3-1.4 0-1.1-0.1-1.2-1.5-1.2z"/>
				<path class="s37" d="m64 56.6c-1.1 0-1.2 0-1.2 1.3 0 1.2 0.1 1.3 1.4 1.3 1.2 0 1.3-0.1 1.3-1.4 0-1.2-0.1-1.2-1.5-1.2z"/>
				<path class="s38" d="m27.4 39.3c0-1.4-0.1-1.4-1.4-1.4-1.2 0-1.3 0-1.3 1.3 0 1.3 0.1 1.3 1.4 1.3 1.2 0 1.3-0.1 1.3-1.2z"/>
				<path class="s39" d="m63 16.3c0 1.4 0.1 1.5 1.3 1.5 1.2 0 1.3-0.2 1.3-1.4q0.1-1.2-1.2-1.2-1.2 0-1.4 1.1z"/>
				<path class="s40" d="m21.5 26c-1.2 0-1.3 0.1-1.4 1.3q0 1.3 1.3 1.3c1.4 0 1.4 0 1.4-1.2 0-1.3-0.1-1.4-1.3-1.4z"/>
				<path class="s41" d="m70.9 25.7c-1.2 0-1.3 0.2-1.4 1.3 0 1.2 0.2 1.4 1.4 1.4 1.2 0 1.3-0.2 1.3-1.4 0-1.2-0.2-1.3-1.3-1.3z"/>
				<path class="s42" d="m58.4 55.5c0-1.3 0-1.4-1.3-1.4-1.1 0-1.3 0.2-1.3 1.3 0 1.2 0.1 1.4 1.5 1.3 1.1 0 1.1 0 1.1-1.3z"/>
				<path class="s43" d="m64.7 2.6q1.3 0 1.3-1.3c0-1.2 0-1.3-1.2-1.3-1.3 0-1.4 0.1-1.4 1.3 0 1.2 0.1 1.3 1.3 1.3z"/>
				<path class="s44" d="m66.2 36.8c-1.2 0-1.3 0.1-1.3 1.3q0 1.3 1.3 1.3c1.2 0 1.4-0.1 1.4-1.3 0-1.1-0.2-1.3-1.4-1.3z"/>
				<path class="s45" d="m61.4 38.1c1.1 0 1.3-0.1 1.3-1.4 0-1.2 0-1.2-1.3-1.2q-1.4 0-1.4 1.3c0 1.2 0.2 1.4 1.4 1.4z"/>
				<path class="s46" d="m40.7 44.4c-1.2 0-1.4 0.1-1.4 1.1 0 1.4 0.2 1.5 1.4 1.5 1.2 0 1.3-0.1 1.3-1.3q0-1.3-1.3-1.3z"/>
				<path class="s47" d="m35.2 55.9c-1.4 0-1.4 0-1.4 1 0 1.4 0 1.5 1.2 1.5 1.4 0 1.6-0.2 1.6-1.4 0-1-0.2-1.1-1.4-1.1z"/>
				<path class="s48" d="m69 11.6c1.1 0 1.3-0.2 1.3-1.4 0-1.2 0-1.3-1.3-1.3-1.2 0-1.4 0.2-1.4 1.4 0 1.1 0.3 1.3 1.4 1.3z"/>
				<path class="s49" d="m59.2 56.6c0 1.2 0 1.3 1.3 1.3q1.3 0 1.3-1.3c0-1.3 0-1.3-1.2-1.3-1.3 0-1.5 0.2-1.4 1.3z"/>
			</g>
		</g>
	</g>
</svg>