<svg version="1.2" xmlns="http://www.w3.org/2000/svg" viewBox="0 0 72 90" width="72" height="90">
	<title>93</title>
	<style>
		.s0 { fill: #f0578e } 
		.s1 { fill: #ffffff } 
		.s2 { fill: #41afc9 } 
	</style>
	<g id="Layer_1-2">
		<g>
			<g>
				<path class="s0" d="m5.3 30.6c0-16.8 13.7-30.6 30.7-30.6 17 0 30.8 13.7 30.7 30.8-0.1 17-13.8 30.6-30.7 30.5-17.1 0-30.7-13.9-30.7-30.7z"/>
				<path class="s1" d="m46.9 20.3c0 1.3-0.1 2.3-0.4 3.4-0.1 0.8-0.1 0.8 0.7 0.9 1.7 0.3 3.2 1 4.4 2.3 1.3 1.3 1.9 2.9 2.2 4.7 0.3 2.2 0.1 4.3-0.9 6.2-0.7 1.2-1.6 2.2-2.5 3.3-2.6 3.2-5.8 5.7-9.1 8.2-1.6 1.3-3.2 2.6-4.8 3.9-0.4 0.3-0.6 0.2-0.9 0-2.2-2-4.3-4.1-6.5-6q-2.7-2.5-5.2-5.1c-3.1-3.3-5.2-7.2-5.8-11.7-0.5-4.4-0.1-8.7 2-12.7 1.9-3.4 4.5-6.1 8.2-7.5q2.4-0.9 4.9-1c2.4-0.2 4.7 0.2 6.9 1.2 3.6 1.6 6 4.3 6.7 8.3 0.1 0.6 0.2 1.2 0.1 1.6z"/>
				<path class="s0" d="m31.1 34c0 2.7 1.8 5.1 4.3 5.7 0.8 0.2 1.7 0.2 2.5 0q0.5-0.1 0.9-0.4c0.2-0.2 0.3-0.4 0.1-0.7-0.8-0.8-0.7-1.7-0.3-2.7q0.5-0.8 0.6-1.8c0-0.2 0.1-0.4 0.4-0.3 0.5 0.1 1-0.2 1.3-0.6q0.3-0.2 0.5-0.5c0.8-1.5 2.2-1.9 3.8-1.6 2 0.5 3.6 1.6 4.7 3.5 1.1 2.2-0.7 6.1-3.5 6.3-0.9 0-1.9 0.2-2.8 0.4-1 0.1-1.2 0.4-1.5 1.4-0.3 1.5-0.9 2.9-2.1 3.8-1.8 1.5-3.8 1.6-5.9 0.8-3.6-1.5-5.6-4.2-6.1-8-0.3-2.7 0.4-5.2 1.6-7.6 1.4-2.9 3.6-5.3 5.9-7.6 2.6-2.4 5.4-4.4 8.3-6.3 0.4-0.2 0.6-0.2 0.8 0.2 0.3 0.6 0.3 1.3 0.3 2-0.2 1.1-0.4 2.2-1.2 3.1-1.1 1.3-1.5 2.8-1.3 4.4q0.1 0.2 0.1 0.4c0 0.7 0 0.7-0.7 0.8q-0.7 0-0.9 0.5-0.7 1.3-1.9 2.1c-0.3 0.2-0.5 0.6-0.8 0.9-0.4 0.7-0.8 0.8-1.6 0.5-0.7-0.4-1.3-0.8-2-1.3-0.2-0.2-0.5-0.3-0.8-0.5-1-0.5-1.9-0.2-2.3 1q-0.2 0.3-0.2 0.7c-0.2 0.4-0.2 0.9-0.2 1.4z"/>
			</g>
			<g>
				<path class="s2" d="m8.8 76.3q0.4 0 0.6-0.2 0.3-0.3 0.2-0.6 0.1-0.4-0.2-0.6-0.2-0.2-0.6-0.2-0.4 0-0.6 0.2-0.2 0.2-0.2 0.6 0 0.3 0.2 0.6 0.2 0.2 0.6 0.2z"/>
				<path class="s2" d="m6.6 76.3q0.4 0 0.6-0.2 0.2-0.3 0.2-0.6 0-0.4-0.2-0.6-0.2-0.2-0.6-0.2-0.4 0-0.6 0.2-0.3 0.2-0.3 0.6 0 0.3 0.3 0.6 0.2 0.2 0.6 0.2z"/>
				<path class="s2" d="m17.9 78.1q-0.4-0.4-0.9-0.6-0.5-0.3-1.2-0.3-0.7 0-1.2 0.3-0.5 0.2-0.9 0.6-0.4 0.4-0.6 1-0.3 0.6-0.3 1.3 0 1.3-0.8 1.3h-1.5v-1.7q0-0.6-0.2-1.1-0.2-0.6-0.6-0.9-0.3-0.4-0.8-0.6-0.5-0.2-1.2-0.2-0.6 0-1.2 0.2-0.5 0.3-0.9 0.8-0.4 0.4-0.7 1-0.2 0.6-0.2 1.3 0 0.5 0.2 1 0.2 0.5 0.5 0.9 0.4 0.4 1 0.7 0.6 0.2 1.5 0.2h4.1q0.5 0 0.8-0.2 0.4-0.2 0.6-0.7 0.3 0.3 0.5 0.5 0.3 0.2 0.6 0.3 0.3 0.1 0.6 0.1 0.3 0 0.7 0.1 0.7 0 1.3-0.3 0.5-0.2 0.8-0.6 0.4-0.4 0.5-1 0.2-0.5 0.2-1 0-0.8-0.2-1.4-0.2-0.6-0.5-1zm-9.1 3.6h-1q-0.3 0-0.6-0.1-0.2-0.1-0.4-0.2-0.3-0.2-0.4-0.5-0.1-0.3-0.1-0.7 0-0.3 0.1-0.6 0.1-0.3 0.3-0.5 0.2-0.2 0.4-0.3 0.3-0.1 0.5-0.1 0.6 0 0.9 0.5 0.3 0.4 0.3 1.2v1.3zm7.9-0.3q-0.3 0.4-1 0.4-0.7 0-1-0.5-0.3-0.4-0.3-0.9 0-0.4 0.1-0.7 0.1-0.3 0.3-0.5 0.1-0.2 0.4-0.4 0.2-0.1 0.5-0.1 0.3 0 0.5 0.1 0.2 0.2 0.4 0.4 0.2 0.2 0.3 0.5 0.1 0.3 0.1 0.7 0 0.5-0.3 1z"/>
				<path class="s2" d="m33.8 78.1q-0.4-0.4-0.9-0.6-0.5-0.3-1.2-0.3-0.7 0-1.2 0.3-0.5 0.2-0.9 0.6-0.4 0.4-0.7 1-0.2 0.6-0.2 1.3 0 1.3-0.9 1.3h-1.8v-1.7q0-0.6-0.2-1.1-0.2-0.6-0.6-0.9-0.3-0.4-0.8-0.6-0.5-0.2-1.2-0.2c-0.4 0-0.8 0.1-1.2 0.2q-0.5 0.3-0.9 0.8-0.4 0.4-0.6 1-0.3 0.6-0.3 1.3 0 0.5 0.2 1 0.2 0.5 0.6 0.9 0.3 0.4 0.9 0.7 0.6 0.2 1.5 0.2h1q0 0.5-0.2 0.8-0.2 0.3-0.4 0.5-0.3 0.1-0.7 0.2-0.3 0.1-0.7 0.1-0.3 0-0.7-0.1-0.3 0-0.7-0.1l-0.2 1.6q0.5 0.1 0.8 0.1 0.4 0 0.7 0 0.8 0 1.4-0.1 0.7-0.2 1.2-0.6 0.5-0.4 0.8-0.9 0.2-0.6 0.3-1.5h2q0.4 0 0.8-0.2 0.3-0.2 0.6-0.7 0.2 0.3 0.5 0.5 0.2 0.2 0.5 0.3 0.3 0.1 0.7 0.1 0.3 0 0.6 0 0.8 0 1.3-0.2 0.5-0.2 0.9-0.6 0.3-0.5 0.4-1 0.2-0.5 0.2-1.1 0-0.7-0.2-1.3-0.1-0.6-0.5-1zm-9.4 3.6h-1q-0.3 0-0.6-0.1-0.3-0.1-0.5-0.3-0.2-0.1-0.3-0.4-0.2-0.3-0.2-0.7 0-0.3 0.1-0.6 0.2-0.3 0.3-0.5 0.2-0.2 0.5-0.3 0.2-0.1 0.5-0.1 0.5 0 0.8 0.5 0.4 0.4 0.4 1.2v1.3zm8.2-0.4q-0.3 0.5-1 0.5-0.7 0-1-0.5-0.3-0.4-0.3-1 0-0.3 0.1-0.6 0.1-0.3 0.3-0.5 0.2-0.2 0.4-0.4 0.3-0.1 0.5-0.1 0.3 0 0.5 0.1 0.3 0.2 0.4 0.4 0.2 0.2 0.3 0.5 0.1 0.3 0.1 0.6 0 0.6-0.3 1z"/>
				<path class="s2" d="m40.6 73.2h-0.4q-0.5 0-0.6-0.2-0.2-0.2-0.2-0.4 0-0.3 0.1-0.4 0.1-0.1 0.4-0.1 0.2 0 0.5 0.1l0.1-0.7q-0.1-0.1-0.3-0.1-0.2 0-0.4 0-0.6 0-0.9 0.3-0.4 0.3-0.4 0.7 0 0.2 0.1 0.4 0.1 0.2 0.3 0.4h-0.7v0.7h2.4c0 0 0-0.7 0-0.7z"/>
				<path fill-rule="evenodd" class="s2" d="m42.1 81.7h-1.9v-5.9h-1.6v5.9h-2.9v1.7h8v-10.2h-1.6v8.5z"/>
				<path fill-rule="evenodd" class="s2" d="m46 73.2h1.6v10.2h-1.6z"/>
				<path class="s2" d="m54.3 83q0 0.8-0.2 1.2-0.2 0.4-0.8 0.4-0.2 0-0.4 0-0.1-0.1-0.3-0.1l-0.4-0.1-0.2 1.6q0.1 0.1 0.2 0.1 0.1 0 0.2 0 0.2 0 0.4 0.1 0.2 0 0.5 0 0.6 0 1.1-0.2 0.5-0.3 0.9-0.7 0.3-0.4 0.5-1 0.2-0.5 0.2-1.2v-5.4h-1.7c0 0 0 5.3 0 5.3z"/>
				<path fill-rule="evenodd" class="s2" d="m58.1 73.2h1.6v10.2h-1.6z"/>
				<path class="s2" d="m66.5 78.6q-0.2-0.6-0.6-0.9-0.4-0.3-1-0.4-0.5-0.1-1.1-0.1h-1.7v1.5h1.3q0.4 0 0.8 0.1 0.3 0.1 0.5 0.2 0.2 0.2 0.3 0.5 0.1 0.3 0.2 0.8v1.4h-3.9v1.7h5.5v-3.2q0-1-0.3-1.6z"/>
			</g>
			<g>
				<path class="s2" d="m28.4 65.8q0.2 0 0.3-0.2 0.2-0.1 0.2-0.3 0-0.2-0.2-0.3-0.1-0.1-0.3-0.1-0.2 0-0.3 0.1-0.2 0.2-0.2 0.3 0 0.2 0.2 0.3 0.1 0.2 0.3 0.2z"/>
				<path class="s2" d="m35 65.3q0 0.2 0.2 0.3 0.1 0.2 0.3 0.2 0.2 0 0.4-0.2 0.1-0.1 0.1-0.3 0-0.2-0.1-0.3-0.2-0.1-0.4-0.1-0.2 0-0.3 0.1-0.2 0.1-0.2 0.3z"/>
				<path class="s2" d="m34.9 64.8q0.2 0 0.4-0.1 0.1-0.2 0.1-0.4 0-0.2-0.1-0.3-0.2-0.1-0.4-0.1-0.2 0-0.3 0.1-0.2 0.2-0.2 0.3 0 0.2 0.2 0.4 0.1 0.1 0.3 0.1z"/>
				<path class="s2" d="m34.3 65.8q0.2 0 0.3-0.2 0.2-0.1 0.2-0.3 0-0.2-0.2-0.3-0.1-0.1-0.3-0.1-0.2 0-0.4 0.1-0.1 0.2-0.1 0.3 0 0.2 0.1 0.3 0.2 0.2 0.4 0.2z"/>
				<path class="s2" d="m39.3 65.8q0.2 0 0.4-0.2 0.1-0.1 0.1-0.3 0-0.2-0.1-0.3-0.2-0.1-0.4-0.1-0.2 0-0.3 0.1-0.1 0.2-0.1 0.3 0 0.2 0.1 0.3 0.1 0.2 0.3 0.2z"/>
				<path class="s2" d="m40.6 65.8q0.2 0 0.3-0.2 0.1-0.1 0.1-0.3 0-0.2-0.1-0.3-0.1-0.1-0.3-0.1-0.2 0-0.4 0.1-0.1 0.2-0.1 0.3 0 0.2 0.1 0.3 0.2 0.2 0.4 0.2z"/>
				<path class="s2" d="m52.8 67.3q-0.1-0.3-0.3-0.5-0.2-0.3-0.5-0.4-0.3-0.1-0.7-0.1-0.3 0-0.6 0.1-0.3 0.1-0.5 0.3-0.3 0.3-0.4 0.6-0.1 0.3-0.1 0.7 0 0.7-0.5 0.7h-0.6q-0.4 0-0.5-0.2-0.2-0.2-0.2-0.5v-1.5h-0.9v1.8q0 0.2 0 0.3-0.1 0.1-0.3 0.1h-0.2q-0.4 0-0.5-0.2-0.2-0.2-0.2-0.5v-1.1h-0.9v1.4q0 0.2 0 0.3-0.1 0.1-0.3 0.1h-0.1q-0.4 0-0.6-0.2-0.1-0.2-0.1-0.5v-0.8h-0.9v1.1q0 0.2-0.1 0.3 0 0.1-0.2 0.1h-1.6q-0.4 0-0.6-0.2-0.1-0.2-0.1-0.5v-1.5h-0.9v1.8q0 0.1-0.1 0.2 0 0.1-0.2 0.2h-1q-0.4-0.1-0.6-0.2-0.1-0.2-0.1-0.6v-1.4h-0.9v1.7q0 0.2-0.1 0.3 0 0.1-0.2 0.1h-0.2q-0.4 0-0.5-0.2-0.2-0.2-0.2-0.5v-1h-0.9v1.3q0 0.2-0.1 0.3 0 0.1-0.2 0.1h-0.1q-0.5 0-0.6-0.2-0.1-0.2-0.1-0.5v-0.7h-0.9v1.1q0 0.2-0.1 0.2 0 0.1-0.2 0.1h-2.1v-0.9q0-0.3-0.1-0.6-0.1-0.3-0.3-0.5-0.2-0.2-0.5-0.3-0.3-0.1-0.6-0.1-0.4 0-0.7 0.1-0.3 0.2-0.6 0.4-0.2 0.2-0.3 0.5-0.2 0.3-0.2 0.7 0 0.3 0.1 0.5 0.1 0.1 0.1 0.2h-1.4v-0.6q0-0.8-0.4-1.1-0.4-0.4-1.2-0.4h-1.1v2.6q0 0.3-0.2 0.5-0.1 0.2-0.3 0.4-0.3 0.1-0.6 0.2-0.3 0-0.7 0-0.4 0-0.6-0.1-0.3 0-0.5-0.2-0.2-0.1-0.3-0.4-0.1-0.2-0.1-0.4 0-0.2 0-0.5 0.1-0.2 0.3-0.5l-0.7-0.4q-0.3 0.3-0.4 0.7-0.2 0.3-0.2 0.7 0 0.4 0.2 0.8 0.1 0.3 0.4 0.6 0.3 0.3 0.8 0.5 0.4 0.2 1.1 0.2 0.7 0 1.2-0.2 0.5-0.2 0.8-0.5 0.3-0.3 0.5-0.7 0.2-0.4 0.2-0.9v-1.6q0.3 0 0.4 0.1 0.2 0 0.3 0.1 0.1 0.1 0.1 0.2 0.1 0.2 0.1 0.4v1.4h7.5q0.3 0 0.6-0.1 0.2-0.1 0.4-0.4 0.1 0.2 0.3 0.4 0.2 0.1 0.5 0.1h0.2q0.3 0 0.6-0.1 0.2-0.1 0.4-0.4 0.1 0.2 0.3 0.3 0.2 0.2 0.5 0.2h0.3q0.3 0 0.6-0.1 0.2-0.2 0.4-0.4 0.1 0.2 0.3 0.3 0.2 0.2 0.5 0.2h1.1q0.3 0 0.6-0.2 0.2-0.1 0.4-0.3 0.1 0.2 0.3 0.3 0.2 0.2 0.5 0.2h1.7q0.3 0 0.6-0.1 0.2-0.2 0.4-0.4 0.1 0.2 0.3 0.3 0.2 0.2 0.6 0.2h0.2q0.2 0 0.5-0.2 0.3-0.1 0.4-0.3 0.1 0.2 0.3 0.3 0.2 0.2 0.6 0.2h0.2q0.3 0 0.6-0.2 0.2-0.1 0.4-0.4 0.1 0.2 0.3 0.4 0.2 0.1 0.6 0.1h0.6q0.2 0 0.5-0.1 0.2-0.1 0.3-0.4 0.1 0.2 0.3 0.3 0.1 0.1 0.3 0.1 0.2 0.1 0.3 0.1 0.2 0 0.4 0 0.4 0 0.7-0.1 0.3-0.1 0.5-0.3 0.2-0.3 0.3-0.5 0-0.3 0-0.6 0-0.4 0-0.7zm-23.8 1.4h-0.7q-0.2-0.1-0.3-0.2-0.2 0-0.3-0.2-0.1-0.2-0.1-0.4 0-0.2 0.1-0.4 0-0.1 0.1-0.2 0.1-0.1 0.3-0.2 0.1 0 0.3 0 0.1 0 0.3 0 0.1 0.1 0.2 0.2 0 0 0.1 0.2 0 0.1 0 0.2v1zm22.8-0.2q-0.2 0.2-0.5 0.2-0.4 0-0.6-0.2-0.2-0.3-0.2-0.6 0-0.2 0.1-0.3 0-0.2 0.2-0.3 0.1-0.1 0.2-0.2 0.1 0 0.3 0 0.1 0 0.2 0 0.2 0.1 0.3 0.2 0.1 0.1 0.1 0.3 0.1 0.1 0.1 0.3 0 0.3-0.2 0.6z"/>
			</g>
			<path class="s2" d="m66.5 67.5h-11.8v0.8h11.8c2.5 0 4.5 2.1 4.5 4.6v11.3c0 2.5-2 4.6-4.5 4.6h-61.1c-2.5 0-4.6-2-4.6-4.5v-11.4c0-2.5 2.1-4.6 4.6-4.6h11.8v-0.8h-11.8c-3 0-5.4 2.4-5.4 5.4v11.3c0 3 2.4 5.4 5.4 5.4h61.1c3 0 5.4-2.4 5.4-5.4v-11.3c0-3-2.4-5.4-5.4-5.4z"/>
		</g>
	</g>
</svg>