<svg version="1.2" xmlns="http://www.w3.org/2000/svg" viewBox="0 0 120 60" width="120" height="60">
	<title>92</title>
	<style>
		.s0 { fill: #193965 } 
		.s1 { fill: #c04157 } 
	</style>
	<g id="Layer_1-2">
		<g id="Layer_2-2">
			<g id="Layer_1-2">
				<path class="s0" d="m44.6 23q-1.1-3.7-2.1-7.1-0.6-2-1.2-3.7c-0.5 0.5-1.3 0.5-1.8 0q-0.2-0.2-0.5-0.5l-1.5-1.6q-0.1-0.1-0.3-0.3-0.2-0.3-0.2-0.6-0.1 0.2-0.3 0.3v0.1q-0.1 0.1-0.2 0.3 0.1 0.1 0.3 0.2c0.2 0.3 0.3 0.7 0.3 1q0 0.3 0 0.5c0 0.6-0.3 1-0.8 1.2q0.1 0.2 0.2 0.4 0.1 0.4 0.2 0.8c3.5 2 4.8 6.6 2.8 10.4-0.9 1.7-2.5 3.1-4.4 3.7h-0.1c-1.5 0.5-3 0.6-4.5 0.1h-0.1q0 0 0 0c0.2-0.1 0.3-0.3 0.5-0.4 0.2-0.2 0.5-0.3 0.6-0.4q0.4-0.3 0.8-0.6c0.9-0.8 1.7-1.8 1.2-2.4q0 0-0.1-0.1 0-0.1-0.1-0.1-0.1-0.2-0.2-0.3c-0.3-0.2-0.6-0.4-0.8-0.7q0-0.2 0-0.3 0-0.2-0.1-0.3 0.1-0.4-0.1-0.7-0.1 0-0.1-0.1-0.1 0-0.1 0 0 0.1-0.2 0.2c0 0-0.1 0.1-0.1 0 0 0 0.1-0.2 0.1-0.2q0.1-0.1 0.1-0.2 0-0.1 0-0.2-0.1-0.2-0.3-0.2-0.1-0.1-0.1-0.1-0.2-0.1-0.3-0.1-0.3-0.2-0.4-0.5-0.1-0.3 0.1-0.6 0.1-0.2 0.3-0.4 0.2-0.3 0.2-0.5 0-0.2 0-0.4 0-0.1-0.2-0.2 0 0-0.1-0.1-0.3-0.1-0.7-0.2h-0.1c-0.7-0.1-1.4-0.3-2.1-0.6q-0.2-0.2-0.4-0.3l-0.1-0.1q0 0 0 0c-0.4-0.3-0.6-0.7-0.7-1.1q0-0.1 0-0.1 0-0.1 0.1-0.3c0 0 0-0.1 0-0.1q0.2-0.2 0.3-0.3 0.1-0.1 0.1-0.1 0.9-1 2.1-1.5c0.9-0.5 2-0.7 3-0.7h0.3c0 0 0.1-0.1 0.1-0.1-0.7-0.1-1.1-0.6-1.1-1.3q0-0.2 0-0.4v-0.1q0-0.4 0.2-0.7l0.5-0.6q-0.1-0.1-0.2-0.2-0.3-0.4-0.3-0.9 0-0.3 0-0.7c0-0.4 0.3-0.9 0.8-1.1q-1.4 0.1-2.7 0.4-1.7 0.5-2.6 1-0.3 0.9-0.9 2.6-0.7 1.7-1.4 3.9-0.8 2.1-1.6 4.6-0.9 2.5-1.6 4.8-0.8 2.3-1.4 4.3-0.6 2-1 3.3-0.2 1-0.4 1.7-0.2 0.7-0.2 1.4c-0.1 1 0.4 1.9 1.2 2.4q1.2 0.9 3.8 0.9 0.9 0 1.9-0.2 0.7-0.1 1.4-0.4 0.4-1.5 0.8-3.1 0.4-1.6 0.8-3.1h9.1l0.9 3.5q0.2 0.7 0.5 1.5 0.4 0.6 0.9 1 0.6 0.4 1.3 0.6 1.1 0.2 2.1 0.2 1.4 0 2.8-0.4 1.2-0.5 1.8-1.1-0.7-2.8-1.7-6.4-1-3.6-2.1-7.2z"/>
				<path class="s0" d="m97.9 24.1c-1.1-1.2-2.5-2.1-4.2-2.6q2.2-0.7 3.5-2.3 1.4-1.7 1.3-3.9 0-3.4-1.9-5.5-0.7-0.7-1.5-1.2-3.4-2.1-9.9-2.1-2.6 0-5.2 0.3-2.5 0.2-4.3 0.8-0.8 0.3-1.5 1c-0.4 0.3-0.6 0.7-0.6 1.2q0 0.2 0 0.4v23.3q0 2.6 2.7 3.7 1.1 0.4 2.2 0.6 1.2 0.2 2.5 0.4 1.2 0.1 2.4 0.2 1.1 0 2 0 6.9 0 10.5-2.3 3.7-2.4 3.7-7.4 0-2.8-1.7-4.6zm-8-8.1q0 1.6-1 2.4-1 0.8-3.2 0.8h-3.6v-5.9q0.8-0.1 1.5-0.2 1 0 1.8 0 2.2 0 3.3 0.8c0.8 0.4 1.2 1.3 1.2 2.1zm-0.6 14.9q-1.3 0.8-3.3 0.8-1 0-2.1 0-0.9-0.1-1.8-0.3v-6.1h4.1q2.3 0 3.3 0.7 1.1 0.7 1.2 2.3 0 1.8-1.4 2.6z"/>
				<path class="s0" d="m33.1 17.5q-0.2 0-0.3 0c-0.4 0-0.8 0.3-0.8 0.7 0 0.4 0.4 0.7 0.7 0.7 0.4 0 0.8-0.3 0.8-0.7q0-0.1-0.1-0.3-0.1-0.3-0.3-0.4z"/>
				<path class="s0" d="m33.9 17.5c0.5 0.2 1 0 1.3-0.5q0.1-0.3 0-0.7c-0.1-0.2-0.3-0.4-0.5-0.5q-0.2-0.1-0.4-0.1c-0.3 0-0.7 0.2-0.8 0.6q-0.2 0.3 0 0.7c0.1 0.2 0.2 0.4 0.4 0.5z"/>
				<path class="s0" d="m35.7 14.4c0.2-0.6-0.1-1.2-0.7-1.4q-0.2-0.1-0.4-0.1c-0.5 0-1 0.3-1.1 0.8-0.2 0.6 0.1 1.2 0.7 1.4q0.2 0.1 0.4 0.1c0.5 0 0.9-0.3 1.1-0.8z"/>
				<path class="s0" d="m32.8 10.9q-0.1 0.1-0.1 0.2 0 0.2 0 0.4c0 0.2 0.2 0.4 0.4 0.4l1.8 0.1q0.4 0 0.9 0c0.2 0 0.3-0.1 0.4-0.4q0 0 0 0 0-0.3 0-0.5c0-0.2-0.1-0.5-0.3-0.5q-0.1 0-0.2 0-0.2 0-0.5 0h-0.4l0.1-0.2 0.3-0.3q0.4-0.5 0.8-1.1 0 0 0-0.1 0.2-0.1 0.2-0.3 0-0.2 0-0.4c0.1-0.2-0.1-0.4-0.3-0.5q-0.1 0-0.1 0h-0.3-2.2c-0.2 0-0.3 0.1-0.3 0.3q-0.1 0.3-0.1 0.7c0 0.1 0.2 0.3 0.4 0.3h0.8q0 0.2-0.1 0.3l-1.2 1.6z"/>
				<path class="s0" d="m34.3 5.3l3.4 1.4q0.1 0.1 0.2 0.1c0.2 0 0.4-0.2 0.4-0.3l0.2-0.3q0.1-0.3 0.2-0.5 0.1-0.2 0-0.4-0.1-0.1-0.3-0.2-0.5-0.2-1-0.5l-0.3-0.1 0.6-0.4q0.9-0.6 1.9-1.2 0.3-0.2 0.5-0.5 0-0.1 0.1-0.2v-0.1c0.1-0.2 0-0.5-0.2-0.7q0 0-0.1 0l-3.1-1.3q-0.1-0.1-0.2-0.1c-0.2 0-0.4 0.1-0.4 0.3-0.1 0.2-0.3 0.7-0.3 0.7-0.2 0.4-0.1 0.6 0.3 0.7l1 0.5-0.3 0.2q-0.9 0.6-1.9 1.2c-0.7 0.4-0.7 0.4-0.9 1-0.2 0.2-0.1 0.5 0.1 0.6q0.1 0 0.1 0.1z"/>
				<path class="s0" d="m40.8 7.5l0.2 0.1 0.2 0.3-2.4 0.3q-0.3 0-0.6 0.2 0 0.1-0.1 0.2l-0.1 0.1c-0.2 0.1-0.2 0.4 0 0.5q0.1 0.2 0.2 0.3l1.4 1.5q0.3 0.3 0.5 0.5 0.1 0.2 0.3 0.2 0.2 0 0.3-0.1l0.5-0.5c0.2-0.2 0.2-0.4 0.1-0.6q-0.1 0-0.1 0c0 0-0.5-0.6-0.8-0.9q1.2-0.2 2.4-0.3h0.1q0.2-0.1 0.4-0.2l0.1-0.1q0.1-0.1 0.2-0.3c0.2-0.1 0.2-0.3 0-0.5q0 0 0 0c0 0-1.9-2.1-1.9-2.1q-0.2-0.2-0.4-0.2-0.1 0-0.3 0.2-0.2 0.2-0.5 0.4c-0.1 0.1-0.2 0.4-0.1 0.6q0.1 0 0.1 0 0.2 0.2 0.3 0.4z"/>
				<path class="s0" d="m71.3 8.1q-1.3-0.9-3-0.9-1.1 0-2.1 0.2-1 0.3-2 0.7-0.4 0.9-0.7 1.7-0.3 0.8-0.6 1.5-0.5 1.4-1 2.7-0.5 1.2-1 2.5-0.6 1.3-1.3 2.8h-0.3l-4.1-8.3q-0.3-0.7-0.7-1.2-0.8-1.2-1.6-1.8-1.3-0.8-3.2-0.8-1.7 0-2.8 0.7c-0.7 0.5-1.3 1-1.8 1.6q0.9 2.2 2 4.3 1.2 2.2 2.6 4.6 1.4 2.3 2.8 4.6 1.5 2.2 2.7 4.1v6.7q0 2.5 1.2 3.3 1.1 0.8 3.4 0.8 1.2 0 2.3-0.2 0.8-0.1 1.7-0.3v-10.1q2.9-4.8 4.7-7.7 1.7-3 2.6-4.7 0.9-1.7 1.1-2.6 0.3-0.7 0.3-1.4 0-0.5-0.1-1.1c-0.2-0.6-0.6-1.3-1.1-1.7z"/>
				<path class="s1" d="m1.9 41.7q0.3-0.1 0.6-0.2 0.4-0.1 0.8-0.1 0.5 0 1 0.2c0.2 0 0.5 0.2 0.5 0.5q0.3 0.6 0.5 1.3 0.2 0.8 0.5 1.6 0.2 0.9 0.4 1.7 0.3 0.8 0.4 1.4-0.1 0.2-0.4 0.2-0.3 0.1-0.6 0.1-0.3 0-0.5 0-0.1 0-0.3-0.1-0.1-0.1-0.2-0.3-0.1-0.1-0.1-0.3l-0.2-0.8h-2.1q0 0.3-0.1 0.7-0.1 0.4-0.2 0.7-0.2 0.1-0.3 0.1-0.3 0-0.5 0-0.4 0.1-0.8-0.2c-0.2-0.1-0.3-0.3-0.3-0.5q0-0.2 0-0.3 0.1-0.2 0.1-0.4 0.1-0.3 0.3-0.7 0.1-0.5 0.3-1 0.1-0.5 0.3-1.1l0.4-1q0.2-0.5 0.3-0.9 0.2-0.4 0.2-0.6zm1.4 1.5q-0.2 0.5-0.4 1-0.2 0.6-0.3 1.2h1.4q-0.2-0.6-0.4-1.2-0.1-0.6-0.3-1z"/>
				<path class="s1" d="m13.6 48.3q-0.2 0-0.4 0.1-0.2 0-0.5 0-0.2 0-0.4 0-0.2-0.1-0.4-0.2-0.1-0.1-0.2-0.3 0-0.2 0-0.4v-1.8h-2.2v2.6q-0.2 0-0.4 0.1-0.2 0-0.5 0-0.2 0-0.5 0-0.1-0.1-0.3-0.2-0.1-0.1-0.2-0.3-0.1-0.2-0.1-0.4v-6q0.2 0 0.4 0 0.3-0.1 0.5-0.1 0.3 0 0.5 0.1 0.2 0 0.3 0.1 0.2 0.1 0.2 0.3 0.1 0.2 0.1 0.5v1.8h2.2v-2.7q0.1 0 0.3 0 0.3-0.1 0.6-0.1 0.2 0 0.4 0.1 0.2 0 0.4 0.1 0.1 0.1 0.2 0.3 0 0.2 0 0.5c0 0 0 5.9 0 5.9z"/>
				<path class="s1" d="m19.8 46.6q-0.2 0.2-0.4 0.3-0.2 0-0.5 0-0.4 0-0.7-0.1c-0.1 0-0.3-0.2-0.3-0.3q-0.3-1-0.5-1.6-0.2-0.6-0.4-1.1-0.1 0.7-0.1 1.2 0 0.5 0 1.1 0 0.5 0 1 0 0.5-0.1 1.2-0.1 0-0.3 0.1-0.3 0-0.5 0-0.4 0-0.8-0.1c-0.2-0.2-0.3-0.4-0.3-0.6l0.4-5.7q0.1-0.3 0.4-0.4 0.4-0.2 0.8-0.1 0.5-0.1 0.9 0.1c0.3 0.2 0.5 0.4 0.5 0.6q0.1 0.3 0.2 0.7 0.2 0.3 0.3 0.7 0.1 0.4 0.2 0.7 0.1 0.4 0.2 0.7h0.1q0.2-1 0.5-1.8 0.3-0.9 0.5-1.5 0.2-0.1 0.4-0.2 0.3 0 0.6 0 0.5-0.1 0.9 0.1 0.4 0.1 0.4 0.5 0.1 0.2 0.1 0.7 0.1 0.4 0.2 1 0 0.6 0.1 1.3 0 0.6 0.1 1.2 0 0.6 0.1 1.1 0 0.5 0 0.8-0.2 0.1-0.4 0.2-0.3 0-0.5 0-0.4 0-0.8-0.1-0.2-0.2-0.3-0.6 0-1.2-0.1-2.2 0-1 0-1.7h-0.1q-0.1 0.5-0.3 1.1-0.2 0.7-0.5 1.8z"/>
				<path class="s1" d="m24.1 42.6c-0.1-0.6 0.3-1 0.8-1.1q0.1 0 0.2 0h3.7q0.1 0.2 0.2 0.3 0 0.2 0 0.5 0.1 0.3-0.2 0.6-0.2 0.2-0.5 0.2h-2.3v1h2.5q0.1 0.2 0.1 0.3 0.1 0.2 0.1 0.5 0 0.3-0.2 0.6-0.2 0.1-0.5 0.1h-2v1.2h2.9q0.1 0.2 0.1 0.3 0.1 0.3 0.1 0.5 0 0.3-0.2 0.6-0.2 0.2-0.5 0.2h-3.3c-0.5 0-1-0.4-1.1-0.9q0-0.1 0-0.2v-4.7z"/>
				<path class="s1" d="m32.8 48.5q-0.2 0-0.4 0-0.3 0-0.5 0-0.3-0.1-0.6-0.1-0.2-0.1-0.4-0.2-0.7-0.2-0.7-0.8v-5.2q0-0.2 0.2-0.4 0.1-0.2 0.3-0.2 0.5-0.2 1-0.2 0.6-0.1 1-0.1 0.8 0 1.6 0.2 0.7 0.2 1.2 0.7 0.5 0.5 0.8 1.1 0.3 0.8 0.3 1.6 0 0.8-0.3 1.6-0.2 0.6-0.8 1.1-0.5 0.5-1.2 0.7-0.7 0.2-1.5 0.2zm-0.6-1.6q0.1 0 0.3 0 0.2 0 0.3 0 0.4 0 0.7-0.1 0.3-0.1 0.6-0.3 0.2-0.3 0.3-0.6 0.2-0.5 0.2-1 0-1-0.5-1.5c-0.3-0.3-0.8-0.5-1.3-0.5q-0.2 0-0.3 0-0.2 0-0.3 0v4z"/>
				<path class="s1" d="m43.6 48.3q-0.2 0-0.4 0.1-0.3 0-0.5 0-0.4 0-0.8-0.2-0.3-0.2-0.3-0.7v-1.5q-0.3-0.5-0.6-1-0.3-0.5-0.6-1-0.3-0.5-0.6-1-0.2-0.5-0.4-1 0.1-0.2 0.4-0.3 0.2-0.2 0.6-0.2 0.4 0 0.7 0.2 0.3 0.2 0.5 0.6l0.9 1.9h0.1q0.2-0.3 0.3-0.6 0.1-0.3 0.2-0.6 0.1-0.3 0.3-0.6 0.1-0.3 0.2-0.7 0.3-0.1 0.5-0.2 0.2 0 0.5 0 0.3 0 0.6 0.2c0.2 0.1 0.3 0.4 0.3 0.6q0 0.2 0 0.3-0.1 0.3-0.3 0.6-0.2 0.4-0.6 1-0.4 0.7-1 1.8v2.3z"/>
				<path class="s1" d="m47.5 41.7q0.3-0.1 0.6-0.2 0.4-0.1 0.8-0.1 0.5 0 1 0.2c0.2 0 0.4 0.2 0.5 0.5q0.2 0.6 0.5 1.3 0.2 0.8 0.4 1.6 0.3 0.9 0.5 1.7 0.2 0.8 0.4 1.4-0.2 0.2-0.4 0.2-0.6 0.2-1.1 0.1-0.2 0-0.3-0.1-0.1-0.1-0.2-0.3-0.1-0.1-0.1-0.3l-0.2-0.8h-2.1q-0.1 0.3-0.2 0.7-0.1 0.4-0.1 0.7-0.2 0.1-0.4 0.1-0.2 0-0.4 0-0.4 0.1-0.8-0.2c-0.2-0.1-0.3-0.3-0.3-0.5q0-0.2 0-0.3 0.1-0.2 0.1-0.4 0.1-0.3 0.2-0.7 0.2-0.5 0.4-1 0.1-0.5 0.3-1.1l0.4-1q0.1-0.5 0.3-0.9 0.1-0.4 0.2-0.6zm1.4 1.5q-0.2 0.5-0.4 1-0.2 0.6-0.4 1.2h1.4q-0.1-0.6-0.3-1.2-0.1-0.6-0.3-1c0 0 0 0 0 0z"/>
				<path class="s1" d="m55.1 45.6q-0.5-0.1-0.9-0.3-0.4-0.2-0.7-0.4-0.3-0.3-0.5-0.6-0.1-0.4-0.1-0.9c-0.1-0.6 0.2-1.1 0.7-1.5q0.7-0.6 2.1-0.6 0.4 0 0.9 0.1 0.3 0.1 0.7 0.2 0.3 0.1 0.5 0.4 0.1 0.2 0.1 0.5 0 0.3-0.1 0.5-0.2 0.2-0.3 0.3-0.4-0.2-0.7-0.3-0.5-0.1-0.9-0.1-0.4 0-0.8 0.2c-0.1 0-0.2 0.2-0.2 0.3q0 0.2 0.2 0.3 0.1 0.1 0.4 0.2l0.6 0.2q0.9 0.2 1.6 0.8c0.4 0.4 0.6 0.9 0.6 1.5 0 0.6-0.3 1.2-0.8 1.5q-0.7 0.6-2.2 0.6-0.5 0-0.9-0.1-0.4 0-0.8-0.2-0.3-0.1-0.5-0.4-0.2-0.3-0.2-0.6 0-0.3 0.2-0.5 0.1-0.3 0.4-0.4 0.3 0.3 0.8 0.4 0.4 0.2 1 0.2 0.5 0 0.7-0.2 0.2-0.1 0.3-0.3 0-0.3-0.2-0.4-0.3-0.1-0.5-0.2c0 0-0.5-0.2-0.5-0.2z"/>
				<path class="s1" d="m61.3 45.6q-0.5-0.1-0.9-0.3-0.4-0.2-0.7-0.4-0.3-0.3-0.5-0.6-0.1-0.4-0.1-0.9c-0.1-0.6 0.2-1.1 0.7-1.5q0.7-0.6 2.1-0.6 0.4 0 0.9 0.1 0.3 0.1 0.7 0.2 0.3 0.1 0.5 0.4 0.1 0.2 0.1 0.5 0 0.3-0.1 0.5-0.1 0.2-0.3 0.3-0.4-0.2-0.7-0.3-0.4-0.1-0.9-0.1-0.4 0-0.7 0.2c-0.2 0-0.3 0.2-0.3 0.3q0 0.2 0.2 0.3 0.2 0.1 0.4 0.2l0.6 0.2q0.9 0.2 1.6 0.8c0.4 0.4 0.6 0.9 0.6 1.5 0 0.6-0.3 1.2-0.7 1.5q-0.8 0.6-2.3 0.6-0.4 0-0.9-0.1-0.4 0-0.8-0.2-0.3-0.1-0.5-0.4-0.2-0.3-0.2-0.6 0-0.3 0.2-0.5 0.1-0.3 0.4-0.4 0.4 0.3 0.8 0.4 0.4 0.2 1 0.2 0.5 0 0.7-0.2 0.3-0.1 0.3-0.3 0-0.3-0.2-0.4-0.3-0.1-0.5-0.2c0 0-0.5-0.2-0.5-0.2z"/>
				<path class="s1" d="m67.5 48.3q-0.2 0-0.4 0.1-0.2 0-0.5 0-0.2 0-0.4 0-0.2-0.1-0.4-0.2-0.1-0.1-0.2-0.3-0.1-0.2 0-0.4v-6q0.1 0 0.3 0 0.3-0.1 0.6-0.1 0.2 0 0.4 0.1 0.2 0 0.3 0.1 0.2 0.1 0.2 0.3 0.1 0.2 0.1 0.5c0 0 0 5.9 0 5.9z"/>
				<path class="s1" d="m75.2 48.1q-0.2 0.2-0.5 0.2-0.3 0.1-0.7 0.1-0.4 0-0.8-0.1-0.4-0.2-0.6-0.6l-1.1-2.3q-0.2-0.3-0.3-0.6-0.1-0.4-0.3-0.7h-0.1q0.1 0.6 0.1 1.2 0 0.6 0 1.2v1.8q-0.2 0-0.4 0.1-0.2 0-0.5 0-0.2 0-0.4 0-0.2-0.1-0.4-0.2-0.1-0.1-0.1-0.3-0.1-0.2-0.1-0.4v-5.7q0.2-0.2 0.5-0.3 0.3-0.1 0.7-0.1 0.4 0 0.8 0.1c0.2 0.1 0.4 0.3 0.6 0.6l1.1 2.3q0.1 0.3 0.3 0.7 0.1 0.3 0.3 0.7 0-0.7 0-1.3 0-0.6 0-1.2v-1.8q0.1 0 0.3-0.1 0.3 0 0.5 0 0.4 0 0.8 0.2 0.2 0.1 0.3 0.7v5.8z"/>
				<path class="s1" d="m81.5 48.5q-0.2 0-0.4 0-0.3 0-0.6 0-0.2-0.1-0.5-0.1-0.3-0.1-0.5-0.2-0.6-0.2-0.6-0.8v-5.2q0-0.2 0.1-0.4 0.2-0.2 0.4-0.2 0.4-0.2 0.9-0.2 0.6-0.1 1.2-0.1 1.4 0 2.2 0.5 0.8 0.5 0.8 1.5 0 0.5-0.3 0.9-0.3 0.4-0.8 0.5 0.6 0.2 1 0.6c0.2 0.3 0.3 0.6 0.3 1q0 1.1-0.8 1.7-0.8 0.5-2.4 0.5zm-0.7-4.3h0.8q0.4 0 0.7-0.2c0.2-0.1 0.2-0.3 0.2-0.5 0-0.2-0.1-0.4-0.2-0.5q-0.4-0.2-0.8-0.2-0.1 0-0.4 0-0.1 0-0.3 0.1zm0 2.7q0.2 0 0.4 0.1 0.2 0 0.5 0 0.4 0 0.7-0.2c0.2-0.1 0.3-0.4 0.3-0.6 0-0.2-0.1-0.4-0.2-0.5q-0.4-0.2-0.8-0.2h-0.9c0 0 0 1.4 0 1.4z"/>
				<path class="s1" d="m87.3 41.7q0.3-0.1 0.6-0.2 0.4-0.1 0.8-0.1 0.5 0 1 0.2c0.2 0 0.4 0.2 0.5 0.5q0.2 0.6 0.5 1.3 0.2 0.8 0.4 1.6 0.3 0.9 0.5 1.7 0.2 0.8 0.4 1.4-0.2 0.2-0.4 0.2-0.6 0.2-1.1 0.1-0.2 0-0.3-0.1-0.1-0.1-0.2-0.3-0.1-0.1-0.1-0.3l-0.2-0.8h-2.1q-0.1 0.3-0.2 0.7-0.1 0.4-0.1 0.7-0.2 0.1-0.4 0.1-0.2 0-0.4 0-0.4 0.1-0.8-0.2c-0.2-0.1-0.3-0.3-0.3-0.5q0-0.2 0-0.3 0.1-0.2 0.1-0.4 0.1-0.3 0.2-0.7 0.2-0.5 0.4-1 0.1-0.5 0.3-1.1 0.2-0.5 0.4-1 0.1-0.5 0.3-0.9 0.1-0.4 0.2-0.6zm1.4 1.5q-0.2 0.5-0.4 1-0.2 0.6-0.3 1.2h1.4q-0.2-0.6-0.4-1.2-0.1-0.6-0.3-1z"/>
				<path class="s1" d="m109 41.7q0.2-0.1 0.5-0.2 0.4-0.1 0.8-0.1 0.5 0 1 0.2c0.3 0 0.5 0.2 0.6 0.5q0.2 0.6 0.4 1.3 0.3 0.8 0.5 1.6 0.2 0.9 0.5 1.7 0.2 0.8 0.3 1.4-0.1 0.2-0.4 0.2-0.5 0.2-1.1 0.1-0.1 0-0.3-0.1-0.1-0.1-0.1-0.3-0.1-0.1-0.2-0.3l-0.2-0.8h-2q-0.1 0.3-0.2 0.7-0.1 0.4-0.2 0.7-0.1 0.1-0.3 0.1-0.2 0-0.4 0-0.5 0.1-0.9-0.2c-0.2-0.1-0.3-0.3-0.3-0.5q0-0.2 0.1-0.3 0-0.2 0.1-0.4 0.1-0.3 0.2-0.7 0.1-0.5 0.3-1 0.2-0.5 0.4-1.1 0.2-0.5 0.3-1 0.2-0.5 0.3-0.9 0.2-0.4 0.3-0.6zm1.3 1.5q-0.1 0.5-0.3 1-0.2 0.6-0.4 1.2h1.4q-0.1-0.6-0.3-1.2-0.2-0.6-0.3-1h-0.1z"/>
				<path class="s1" d="m99 48.3q-0.2 0-0.4 0.1-0.2 0-0.5 0-0.2 0-0.5 0-0.1-0.1-0.3-0.2-0.1-0.1-0.2-0.3-0.1-0.2-0.1-0.4v-1.8h-2.1v2.6q-0.2 0-0.4 0.1-0.3 0-0.5 0-0.3 0-0.5 0-0.2-0.1-0.3-0.2-0.2-0.1-0.2-0.3-0.1-0.2-0.1-0.4v-6q0.1 0 0.4 0 0.3-0.1 0.5-0.1 0.2 0 0.5 0.1 0.2 0 0.3 0.1 0.1 0.1 0.2 0.3 0.1 0.2 0.1 0.5v1.8h2.1v-2.7q0.2 0 0.4 0 0.3-0.1 0.5-0.1 0.3 0 0.5 0.1 0.2 0 0.3 0.1 0.2 0.1 0.2 0.3 0.1 0.2 0.1 0.5v5.9z"/>
				<path class="s1" d="m106.5 47.2q0 0.3-0.1 0.5-0.2 0.2-0.4 0.4-0.2 0.1-0.4 0.1-0.2 0.1-0.5 0.2-0.3 0-0.6 0.1-0.3 0-0.6 0-0.8 0-1.5-0.2-0.7-0.2-1.3-0.7-0.5-0.4-0.8-1.1c-0.4-1-0.4-2.1 0-3.1q0.4-0.7 0.9-1.2 0.6-0.4 1.3-0.6 0.7-0.3 1.4-0.3 1.1 0 1.7 0.4 0.6 0.3 0.6 0.9 0 0.2-0.1 0.5-0.2 0.2-0.4 0.3-0.3-0.2-0.7-0.3-0.4-0.2-0.9-0.2-1 0-1.5 0.6-0.6 0.5-0.6 1.5 0 0.4 0.2 0.9c0.2 0.4 0.5 0.8 1 0.9q0.3 0.1 0.7 0.2 0.2 0 0.5-0.1 0.1 0 0.2-0.1v-1.1h-1.2q0-0.1-0.1-0.3 0-0.2 0-0.4-0.1-0.3 0.1-0.6 0.3-0.2 0.5-0.2h1.9c0.4 0 0.7 0.2 0.7 0.6q0 0.1 0 0.1v2.3z"/>
				<path class="s1" d="m114.4 43.1q-0.1-0.2-0.2-0.4-0.1-0.2 0-0.4-0.1-0.4 0.2-0.6 0.2-0.2 0.5-0.2h4.9q0.1 0.1 0.1 0.3 0.1 0.3 0.1 0.5 0 0.3-0.2 0.6-0.2 0.2-0.5 0.2h-1.3v5.2q-0.2 0-0.4 0.1-0.2 0-0.5 0-0.2 0-0.5 0-0.1-0.1-0.3-0.2-0.1-0.1-0.2-0.3-0.1-0.2 0-0.4v-4.4h-1.7z"/>
				<path class="s0" d="m7.3 55.8q-0.3-0.1-0.5-0.2-0.3-0.1-0.5-0.3-0.1-0.1-0.3-0.3-0.1-0.3 0-0.5c-0.1-0.4 0.1-0.8 0.4-1q0.4-0.3 1.3-0.3 0.2 0 0.5 0 0.2 0 0.5 0.1 0.1 0.1 0.2 0.3 0.2 0.1 0.1 0.3 0 0.1 0 0.3-0.1 0.1-0.2 0.2-0.2-0.1-0.4-0.2-0.3 0-0.6 0-0.2 0-0.5 0.1-0.1 0-0.1 0.2 0 0.1 0.1 0.2 0.1 0 0.3 0.1l0.3 0.1q0.6 0.1 1 0.5c0.3 0.3 0.4 0.6 0.4 0.9 0 0.4-0.2 0.7-0.5 0.9q-0.4 0.4-1.3 0.4-0.3 0-0.6 0-0.3-0.1-0.5-0.2-0.2-0.1-0.3-0.3-0.1-0.1-0.1-0.3 0-0.2 0.1-0.3 0.1-0.2 0.2-0.3 0.3 0.2 0.5 0.3 0.3 0.1 0.6 0.1 0.3 0 0.5-0.1 0.1-0.1 0.2-0.2 0-0.2-0.2-0.2-0.1-0.1-0.3-0.2l-0.3-0.1z"/>
				<path class="s0" d="m13.7 57.3q-0.1 0.1-0.3 0.2-0.2 0-0.4 0-0.2 0-0.5-0.1-0.2-0.1-0.4-0.3l-0.6-1.4q-0.1-0.2-0.2-0.4-0.1-0.2-0.2-0.4 0 0.3 0 0.7 0 0.4 0 0.8v1.1q-0.1 0-0.2 0-0.2 0-0.4 0-0.1 0-0.2 0c-0.2 0-0.3-0.1-0.3-0.3q-0.1-0.1-0.1-0.2v-3.5q0.1-0.1 0.3-0.2 0.2-0.1 0.4-0.1 0.3 0 0.5 0.1 0.3 0.1 0.4 0.4l0.7 1.4q0.1 0.2 0.2 0.4 0.1 0.1 0.2 0.4 0-0.4 0-0.8 0-0.3 0-0.7v-1.1q0.1 0 0.2-0.1 0.1 0 0.3 0 0.3 0 0.5 0.1 0.1 0.1 0.1 0.5v3.5z"/>
				<path class="s0" d="m14.4 55.4q0-0.5 0.2-1c0.2-0.5 0.6-0.9 1.1-1.1 0.6-0.2 1.2-0.2 1.7 0q0.4 0.1 0.7 0.4 0.3 0.3 0.5 0.7 0.2 0.5 0.2 1 0 0.4-0.2 0.9-0.1 0.4-0.4 0.7-0.3 0.3-0.7 0.4-0.5 0.2-0.9 0.2-0.5 0-0.9-0.2-0.4-0.1-0.7-0.4-0.3-0.3-0.4-0.7-0.2-0.5-0.2-1zm1.3 0q0 0.7 0.2 1c0.3 0.4 0.9 0.4 1.3 0.1q0-0.1 0.1-0.1 0.2-0.3 0.2-1 0-0.6-0.2-0.9c-0.2-0.2-0.4-0.3-0.7-0.3-0.3 0-0.5 0.1-0.7 0.3q-0.2 0.3-0.2 0.9z"/>
				<path class="s0" d="m20.7 56.1v1.3q-0.2 0.1-0.3 0.1-0.1 0-0.3 0-0.1 0-0.3 0-0.1 0-0.2-0.1-0.1-0.1-0.1-0.2 0-0.1 0-0.3v-3.2q0-0.2 0-0.3 0.1 0 0.3-0.1 0.2-0.1 0.5-0.1 0.3 0 0.7 0 0.9 0 1.4 0.4c0.3 0.2 0.5 0.6 0.5 1q0 0.4-0.2 0.8-0.3 0.3-0.6 0.4 0.3 0.4 0.5 0.7 0.2 0.2 0.4 0.5-0.1 0.2-0.2 0.4-0.2 0.1-0.5 0.1-0.1 0-0.2 0-0.1 0-0.2-0.1-0.1-0.1-0.2-0.2 0-0.1-0.1-0.2l-0.6-0.9c0 0-0.3 0-0.3 0zm0.4-0.9q0.2 0 0.4-0.1 0.2-0.2 0.2-0.4 0-0.3-0.2-0.4-0.2-0.2-0.5-0.2-0.1 0-0.2 0-0.1 0-0.1 0v1.1h0.4z"/>
				<path class="s0" d="m24.9 57.4q-0.1 0.1-0.3 0.1-0.1 0-0.3 0-0.1 0-0.3 0-0.1 0-0.2-0.1-0.1-0.1-0.1-0.2 0-0.1 0-0.3v-3.6l0.2-0.1q0.2 0 0.3 0 0.2 0 0.3 0 0.1 0.1 0.2 0.1 0.1 0.1 0.1 0.2 0.1 0.1 0.1 0.3c0 0 0 3.6 0 3.6z"/>
				<path class="s0" d="m29.6 57.3q-0.2 0.1-0.3 0.2-0.2 0-0.5 0-0.2 0-0.5-0.1-0.2-0.1-0.3-0.3l-0.7-1.4q-0.1-0.2-0.2-0.4-0.1-0.2-0.2-0.4 0 0.3 0 0.7 0 0.4 0 0.8v1.1q-0.1 0-0.2 0-0.2 0-0.3 0-0.2 0-0.3 0-0.1 0-0.2-0.1-0.1-0.1-0.1-0.2 0-0.1 0-0.2v-3.5q0.1-0.1 0.3-0.2 0.2-0.1 0.4-0.1 0.2 0 0.5 0.1 0.2 0.1 0.3 0.4l0.7 1.4q0.1 0.2 0.2 0.4 0.1 0.1 0.2 0.4 0-0.4 0-0.8 0-0.3 0-0.7v-1.1q0.1 0 0.2-0.1 0.2 0 0.3 0 0.3 0 0.5 0.1 0.2 0.1 0.2 0.5v3.5z"/>
				<path class="s0" d="m34.2 56.8q0 0.1 0 0.3-0.1 0.1-0.3 0.2-0.1 0.1-0.2 0.1-0.2 0.1-0.3 0.1-0.2 0-0.4 0.1-0.2 0-0.4 0-0.5 0-0.9-0.1-0.4-0.2-0.8-0.5-0.3-0.2-0.5-0.6-0.2-0.5-0.2-1 0-0.5 0.2-1 0.2-0.4 0.6-0.7 0.3-0.3 0.7-0.4 0.5-0.1 0.9-0.1 0.6-0.1 1.1 0.2c0.2 0.1 0.3 0.3 0.3 0.5q0 0.2 0 0.3-0.1 0.2-0.3 0.3-0.2-0.2-0.4-0.2-0.3-0.2-0.6-0.1c-0.3-0.1-0.6 0.1-0.9 0.3-0.2 0.2-0.3 0.6-0.3 0.9q0 0.3 0.1 0.5 0.1 0.3 0.2 0.4 0.2 0.2 0.4 0.2 0.2 0.1 0.4 0.1 0.2 0 0.3 0 0.1 0 0.2-0.1v-0.6h-0.8q0-0.1-0.1-0.2 0-0.1 0-0.3 0-0.2 0.1-0.3 0.1-0.1 0.3-0.2h1.2c0.2 0 0.4 0.2 0.4 0.4q0 0 0 0.1v1.4z"/>
				<path class="s0" d="m40.2 54.9q0.1-0.1 0.2-0.1 0.2-0.1 0.3 0 0.1-0.1 0.2 0 0.1 0 0.2 0.1 0.1 0.1 0.1 0.2 0 0.2 0 0.3 0 0.6-0.3 1.1l0.5 0.5q0 0.2-0.1 0.4-0.2 0.2-0.4 0.2-0.3-0.1-0.6-0.3l-0.1-0.1q-0.3 0.2-0.6 0.3-0.3 0.1-0.7 0.1-0.4 0-0.7-0.1-0.3-0.1-0.5-0.3-0.2-0.2-0.4-0.5-0.1-0.2-0.1-0.5 0-0.5 0.3-0.8 0.1-0.2 0.3-0.3 0.1-0.1 0.3-0.1-0.1-0.2-0.2-0.4-0.1-0.2-0.1-0.3 0-0.3 0.1-0.4 0.1-0.2 0.3-0.4 0.2-0.1 0.4-0.2 0.3-0.1 0.5-0.1 0.4 0 0.6 0.2 0.2 0.2 0.2 0.4 0 0.1 0 0.2-0.1 0.1-0.2 0.2-0.1 0-0.1 0-0.1 0-0.3-0.1-0.1 0-0.3 0.1-0.1 0.1-0.1 0.2 0 0.1 0.1 0.2 0.1 0.1 0.2 0.3l0.9 0.8q0.1-0.2 0.1-0.3 0-0.3 0-0.5zm-1.9 1.2q0 0.3 0.2 0.4 0.2 0.2 0.4 0.2 0.2 0 0.3-0.1 0.2 0 0.3-0.1l-0.9-0.9q-0.1 0.1-0.2 0.2-0.1 0.2-0.1 0.3z"/>
				<path class="s0" d="m44.4 55.8q-0.3-0.1-0.5-0.2-0.2-0.1-0.4-0.3-0.2-0.1-0.3-0.3-0.1-0.3-0.1-0.5c0-0.4 0.1-0.8 0.4-1q0.5-0.3 1.3-0.3 0.3 0 0.5 0 0.3 0 0.5 0.1 0.1 0.1 0.3 0.3 0.1 0.1 0.1 0.3 0 0.1-0.1 0.3-0.1 0.1-0.2 0.2-0.2-0.1-0.4-0.2-0.3 0-0.6 0-0.2 0-0.4 0.1-0.2 0-0.2 0.2 0 0.1 0.1 0.2 0.1 0 0.3 0.1l0.4 0.1q0.5 0.1 1 0.5c0.2 0.3 0.3 0.6 0.3 0.9 0 0.4-0.2 0.7-0.5 0.9q-0.4 0.4-1.3 0.4-0.3 0-0.6 0-0.2-0.1-0.5-0.2-0.2-0.1-0.3-0.3-0.1-0.1-0.1-0.3 0-0.2 0.1-0.3 0.1-0.2 0.3-0.3 0.2 0.2 0.4 0.3 0.3 0.1 0.6 0.1 0.3 0 0.5-0.1 0.2-0.1 0.2-0.2 0-0.2-0.1-0.2-0.2-0.1-0.4-0.2l-0.3-0.1z"/>
				<path class="s0" d="m47.7 57.5c-0.3 0-0.6-0.2-0.7-0.6q0 0 0-0.1v-3.5l0.3-0.1q0.1 0 0.3 0 0.1 0 0.3 0 0.1 0 0.2 0.1 0.1 0.1 0.1 0.2 0.1 0.1 0 0.3v2.7h1.6q0.1 0.1 0.1 0.2 0.1 0.1 0.1 0.3 0 0.2-0.2 0.4-0.1 0.1-0.3 0.1h-1.8z"/>
				<path class="s0" d="m50.6 53.9c0-0.3 0.2-0.6 0.5-0.6q0.1 0 0.1 0h2.3q0.1 0.1 0.1 0.2 0.1 0.1 0.1 0.2 0 0.2-0.2 0.4-0.1 0.1-0.3 0.1h-1.4v0.7h1.5q0.1 0.1 0.1 0.2 0.1 0.1 0.1 0.2 0 0.2-0.1 0.4-0.2 0.1-0.3 0.1h-1.3v0.7h1.8q0 0.1 0.1 0.2 0 0.2 0 0.3 0 0.2-0.1 0.4-0.1 0.1-0.3 0.1h-2c-0.4 0-0.7-0.2-0.7-0.6q0 0 0-0.1v-2.9z"/>
				<path class="s0" d="m54.4 53.9c-0.1-0.3 0.2-0.6 0.5-0.6q0.1 0 0.1 0h2.3q0.1 0.1 0.1 0.2 0 0.1 0 0.2 0 0.2-0.1 0.4-0.1 0.1-0.3 0.1h-1.4v0.7h1.5q0.1 0.1 0.1 0.2 0 0.1 0 0.2 0 0.2-0.1 0.4-0.1 0.1-0.3 0.1h-1.2v0.7h1.7q0.1 0.1 0.1 0.2 0.1 0.2 0.1 0.3 0 0.2-0.2 0.4-0.1 0.1-0.3 0.1h-2c-0.3 0-0.6-0.2-0.6-0.6q0 0 0-0.1v-2.9z"/>
				<path class="s0" d="m59.4 57.4q-0.2 0.1-0.3 0.1-0.1 0-0.3 0-0.1 0-0.3 0-0.1 0-0.2-0.1-0.1-0.1-0.1-0.2 0-0.1 0-0.3v-3.2q0-0.2 0-0.3 0.1 0 0.3-0.1 0.2-0.1 0.5-0.1 0.3 0 0.6 0 0.9 0 1.5 0.4c0.3 0.2 0.5 0.6 0.5 1.1q0 0.3-0.2 0.6-0.1 0.3-0.3 0.5-0.2 0.2-0.5 0.3-0.4 0.1-0.7 0.1h-0.5v1.2zm0.3-2.2q0.3 0 0.5-0.1 0.1-0.2 0.1-0.4 0-0.2-0.1-0.4-0.2-0.2-0.5-0.2h-0.2c0 0-0.1 0-0.1 0.1v1h0.3z"/>
				<path class="s0" d="m66.7 55.8q-0.3-0.1-0.6-0.2-0.2-0.1-0.4-0.3-0.2-0.1-0.3-0.3-0.1-0.3-0.1-0.5c0-0.4 0.2-0.8 0.5-1q0.4-0.3 1.2-0.3 0.3 0 0.6 0 0.2 0 0.4 0.1 0.2 0.1 0.3 0.3 0.1 0.1 0.1 0.3 0 0.2-0.1 0.3 0 0.1-0.2 0.2-0.1-0.1-0.4-0.2-0.2 0-0.5 0-0.3 0-0.5 0.1-0.1 0-0.1 0.2 0 0.1 0.1 0.2 0.1 0 0.2 0.1l0.4 0.1q0.6 0.1 1 0.5c0.2 0.3 0.4 0.6 0.4 0.9 0 0.4-0.2 0.7-0.5 0.9q-0.5 0.4-1.4 0.4-0.3 0-0.6 0-0.2-0.1-0.4-0.2-0.2-0.1-0.4-0.3-0.1-0.1-0.1-0.3 0-0.2 0.2-0.3 0.1-0.2 0.2-0.3 0.2 0.2 0.5 0.3 0.3 0.1 0.6 0.1 0.3 0 0.5-0.1 0.1-0.1 0.1-0.2 0-0.2-0.1-0.2-0.1-0.1-0.3-0.2l-0.3-0.1z"/>
				<path class="s0" d="m73 55.9q0 0.4-0.1 0.7-0.2 0.3-0.4 0.5-0.3 0.2-0.6 0.4-0.8 0.2-1.6 0-0.3-0.2-0.5-0.4-0.3-0.2-0.4-0.5-0.1-0.3-0.1-0.7v-2.6l0.2-0.1q0.2 0 0.3 0 0.2 0 0.3 0 0.1 0.1 0.2 0.1 0.1 0.1 0.1 0.2 0.1 0.1 0.1 0.3v2.1q0 0.3 0.1 0.5c0.3 0.3 0.7 0.3 1 0q0.2-0.2 0.2-0.5v-2.6l0.2-0.1q0.2 0 0.3 0 0.2 0 0.3 0 0.1 0.1 0.2 0.1 0.1 0.1 0.1 0.2 0.1 0.1 0.1 0.3v2.1z"/>
				<path class="s0" d="m75.1 56.1v1.3q-0.1 0.1-0.3 0.1-0.1 0-0.3 0-0.1 0-0.3 0-0.1 0-0.2-0.1 0-0.1-0.1-0.2 0-0.1 0-0.3v-3.2q0-0.2 0.1-0.3 0.1 0 0.2-0.1 0.2-0.1 0.5-0.1 0.4 0 0.7 0 0.9 0 1.4 0.4c0.3 0.2 0.5 0.6 0.5 1q0 0.4-0.2 0.8-0.2 0.3-0.5 0.4 0.2 0.4 0.5 0.7 0.2 0.2 0.3 0.5 0 0.2-0.2 0.4-0.2 0.1-0.4 0.1-0.2 0-0.3 0-0.1 0-0.2-0.1-0.1-0.1-0.1-0.2-0.1-0.1-0.2-0.2l-0.5-0.9h-0.4zm0.4-0.9q0.3 0 0.4-0.1 0.2-0.2 0.2-0.4 0-0.3-0.2-0.4-0.2-0.2-0.5-0.2-0.1 0-0.2 0 0 0-0.1 0v1.1h0.4z"/>
				<path class="s0" d="m81.8 56.8q0 0.1-0.1 0.3-0.1 0.1-0.2 0.2-0.1 0.1-0.2 0.1-0.2 0.1-0.4 0.1-0.1 0-0.3 0.1-0.2 0-0.4 0-0.5 0-0.9-0.1-0.5-0.2-0.8-0.5-0.3-0.2-0.5-0.6c-0.3-0.7-0.3-1.4 0-2q0.2-0.4 0.6-0.7 0.3-0.3 0.7-0.4 0.5-0.1 0.9-0.1 0.6-0.1 1.1 0.2c0.2 0.1 0.3 0.3 0.3 0.5q0 0.2-0.1 0.4 0 0.1-0.2 0.2-0.2-0.2-0.4-0.2-0.3-0.1-0.6-0.1c-0.3-0.1-0.6 0.1-0.9 0.3-0.2 0.2-0.4 0.6-0.3 0.9q0 0.3 0.1 0.6c0.1 0.2 0.3 0.5 0.6 0.6q0.2 0 0.4 0 0.1 0 0.3 0 0.1 0 0.2-0.1v-0.6h-0.8q0-0.1-0.1-0.2 0-0.1 0-0.3 0-0.2 0.1-0.3 0.1-0.1 0.3-0.1h1.2c0.2-0.1 0.4 0.1 0.4 0.3q0 0 0 0.1v1.4z"/>
				<path class="s0" d="m82.6 53.9c0-0.3 0.2-0.6 0.5-0.6q0.1 0 0.1 0h2.3q0.1 0.1 0.1 0.2 0.1 0.1 0.1 0.2 0 0.2-0.2 0.4-0.1 0.1-0.3 0.1h-1.4v0.7h1.5q0.2 0.2 0.2 0.4 0 0.2-0.2 0.4-0.1 0.1-0.3 0.1h-1.2v0.7h1.7q0.1 0.1 0.1 0.2 0.1 0.1 0.1 0.3 0 0.2-0.1 0.4-0.2 0.1-0.3 0.1h-2c-0.4 0-0.7-0.3-0.7-0.6q0 0 0-0.1v-2.9z"/>
				<path class="s0" d="m87.6 56.1v1.3q-0.1 0.1-0.2 0.1-0.2 0-0.4 0-0.1 0-0.2 0-0.2 0-0.2-0.1-0.1-0.1-0.2-0.2 0-0.1 0-0.3v-3.2q0-0.2 0.1-0.3 0.1 0 0.2-0.1 0.3-0.1 0.5-0.1 0.4 0 0.7 0 0.9 0 1.4 0.4c0.3 0.2 0.5 0.6 0.5 1q0 0.4-0.2 0.8-0.2 0.3-0.5 0.4 0.2 0.4 0.5 0.7 0.2 0.2 0.3 0.5 0 0.2-0.2 0.4-0.2 0.1-0.4 0.1-0.2 0-0.3 0-0.1 0-0.2-0.1-0.1-0.1-0.1-0.2-0.1-0.1-0.2-0.2l-0.5-0.9h-0.4zm0.4-0.9q0.3 0 0.4-0.1 0.2-0.2 0.2-0.4 0-0.3-0.2-0.4-0.2-0.2-0.5-0.2-0.1 0-0.2 0 0 0-0.1 0v1.1c0 0 0.4 0 0.4 0z"/>
				<path class="s0" d="m92.6 57.4q-0.1 0.1-0.2 0.1-0.2 0-0.3 0-0.3 0-0.5-0.1-0.2-0.1-0.2-0.5v-0.9q-0.2-0.3-0.4-0.6-0.2-0.3-0.4-0.6-0.1-0.3-0.3-0.6-0.2-0.3-0.3-0.6 0.1-0.1 0.3-0.2 0.1-0.1 0.3-0.1 0.3 0 0.5 0.1 0.2 0.1 0.3 0.4l0.6 1.1q0.1-0.2 0.2-0.4 0.1-0.1 0.1-0.3 0.1-0.2 0.2-0.4 0.1-0.2 0.2-0.4 0.1-0.1 0.2-0.1 0.2-0.1 0.3-0.1 0.3 0 0.4 0.2c0.2 0.1 0.2 0.2 0.2 0.4q0 0.1 0 0.2-0.1 0.1-0.2 0.3-0.1 0.3-0.3 0.7-0.3 0.4-0.7 1v1.4z"/>
				<path class="s0" d="m97.9 54.1c-0.3 0-0.6 0.1-0.8 0.3-0.2 0.3-0.3 0.6-0.3 1q0 0.5 0.3 0.9c0.2 0.2 0.5 0.3 0.9 0.3q0.2 0 0.4-0.1 0.2 0 0.4-0.1 0.1 0.1 0.2 0.2 0.1 0.1 0.1 0.3c0 0.2-0.2 0.4-0.4 0.5q-0.4 0.2-0.9 0.2-0.4 0-0.9-0.1-0.4-0.2-0.7-0.4-0.3-0.3-0.5-0.7-0.1-0.5-0.1-1 0-0.5 0.1-1 0.2-0.4 0.5-0.7 0.3-0.3 0.7-0.4 0.4-0.2 0.8-0.2 0.5 0 1 0.3c0.2 0.1 0.3 0.3 0.3 0.5q0 0.2 0 0.3-0.1 0.1-0.3 0.2-0.1-0.1-0.3-0.2-0.3-0.1-0.5-0.1z"/>
				<path class="s0" d="m100.3 57.5c-0.3 0-0.6-0.3-0.6-0.6q0 0 0-0.1v-3.5l0.2-0.1q0.2 0 0.4 0 0.1 0 0.2 0 0.1 0 0.2 0.1 0.1 0.1 0.2 0.2 0 0.1 0 0.3v2.7h1.6q0 0.1 0.1 0.2 0 0.1 0 0.3 0 0.2-0.1 0.4-0.1 0.1-0.3 0.1z"/>
				<path class="s0" d="m104.4 57.4q-0.1 0.1-0.2 0.1-0.2 0-0.3 0-0.2 0-0.3 0-0.1 0-0.2-0.1-0.1-0.1-0.1-0.2-0.1-0.1-0.1-0.3v-3.6l0.3-0.1q0.1 0 0.3 0 0.1 0 0.3 0 0.1 0.1 0.2 0.1 0.1 0.1 0.1 0.2 0 0.1 0 0.3z"/>
				<path class="s0" d="m109.1 57.3q-0.1 0.1-0.3 0.2-0.2 0-0.4 0-0.2 0-0.5-0.1-0.2-0.1-0.3-0.3l-0.7-1.4q-0.1-0.2-0.2-0.4-0.1-0.2-0.2-0.4 0 0.3 0 0.7 0 0.4 0 0.8v1.1q-0.1 0-0.2 0-0.2 0-0.4 0-0.1 0-0.2 0-0.1 0-0.2-0.1-0.1-0.1-0.1-0.2-0.1-0.1-0.1-0.2v-3.5q0.1-0.1 0.3-0.2 0.2-0.1 0.5-0.1 0.2 0 0.4 0.1c0.2 0.1 0.3 0.2 0.4 0.4l0.7 1.4q0.1 0.2 0.2 0.4 0.1 0.1 0.2 0.4 0-0.4 0-0.8 0-0.3 0-0.7v-1.1q0.1 0 0.2-0.1 0.2 0 0.3 0 0.3 0 0.5 0.1 0.1 0.1 0.1 0.5v3.5z"/>
				<path class="s0" d="m111.2 57.4q-0.1 0.1-0.2 0.1-0.2 0-0.3 0-0.2 0-0.3 0-0.1 0-0.2-0.1-0.1-0.1-0.1-0.2-0.1-0.1-0.1-0.3v-3.6c0 0 0.2 0 0.3-0.1q0.1 0 0.3 0 0.1 0 0.3 0 0.1 0.1 0.2 0.1 0.1 0.1 0.1 0.2 0 0.1 0 0.3c0 0 0 3.6 0 3.6z"/>
				<path class="s0" d="m114.3 54.1c-0.3 0-0.6 0.1-0.8 0.3-0.2 0.3-0.3 0.6-0.3 1q-0.1 0.5 0.3 0.9c0.2 0.2 0.5 0.3 0.8 0.3q0.3 0 0.5-0.1 0.2 0 0.4-0.1 0.1 0.1 0.2 0.2 0 0.1 0 0.3c0 0.2-0.1 0.4-0.3 0.5q-0.4 0.2-0.9 0.2-0.5 0-0.9-0.1-0.4-0.2-0.7-0.4-0.3-0.3-0.5-0.7-0.2-0.5-0.2-1 0-0.5 0.2-1 0.1-0.4 0.4-0.7 0.3-0.3 0.7-0.4 0.5-0.2 0.9-0.2 0.5 0 1 0.3c0.2 0.1 0.3 0.3 0.3 0.5q0 0.2-0.1 0.3-0.1 0.1-0.2 0.2-0.2-0.1-0.4-0.2-0.2-0.1-0.4-0.1z"/>
				<path class="s0" d="m63.9 59.6h-59.7v-8.8h59.7zm-59.5-0.2h59.3v-8.4h-59.3z"/>
			</g>
		</g>
	</g>
</svg>