<svg version="1.2" xmlns="http://www.w3.org/2000/svg" viewBox="0 0 118 70" width="118" height="70">
	<title>106</title>
	<style>
		.s0 { fill: #1db7a5 } 
		.s1 { fill: #ef622f } 
	</style>
	<g id="Layer_1-2">
		<g id="Layer_2-2">
			<g id="Layer_1-2">
				<path fill-rule="evenodd" class="s0" d="m115.1 26.6h0.5v1.3h0.2v-1.3h0.4v-0.2h-1.1v0.2z"/>
				<path fill-rule="evenodd" class="s0" d="m117.5 26.4l-0.4 1-0.5-0.9h-0.2v1.4h0.2v-1l0.4 0.8h0.2l0.3-0.8v1h0.2v-1.4h-0.2z"/>
				<path fill-rule="evenodd" class="s1" d="m13.5 27h3.2c0.3 0 0.5 0.3 0.5 0.5v3.3c0 0.3-0.2 0.5-0.5 0.5h-3.2c-0.3 0-0.5-0.2-0.5-0.5v-3.3c0-0.2 0.2-0.5 0.5-0.5z"/>
				<path fill-rule="evenodd" class="s1" d="m18.7 27h3.2c0.3 0 0.5 0.3 0.5 0.5v3.3c0 0.3-0.2 0.5-0.5 0.5h-3.2c-0.3 0-0.5-0.2-0.5-0.5v-3.3c0-0.2 0.2-0.5 0.5-0.5z"/>
				<path fill-rule="evenodd" class="s1" d="m13.5 32.2h3.2c0.3 0 0.5 0.3 0.5 0.5v3.3c0 0.3-0.2 0.5-0.5 0.5h-3.2c-0.3 0-0.5-0.2-0.5-0.5v-3.3c0-0.2 0.2-0.5 0.5-0.5z"/>
				<path fill-rule="evenodd" class="s1" d="m18.7 32.2h3.2c0.3 0 0.5 0.3 0.5 0.5v3.3c0 0.3-0.2 0.5-0.5 0.5h-3.2c-0.3 0-0.5-0.2-0.5-0.5v-3.3c0-0.2 0.2-0.5 0.5-0.5z"/>
				<path class="s0" d="m63.3 17.6l-2.6 2.6c-3 2.9-7.3 4.2-11.3 3.3h-0.1c-3.4-0.5-5.6-2.9-7.9-5.2l-5.6-5.6-3-3.1c-3.9-3.8-10.2-3.8-14.1 0l-13.8 13.8c-3.5 3.6-3.8 9.1-0.8 13.1q0.4 0.5 0.8 1l1.2 1.1v13.7c0 3.5 2.8 6.3 6.2 6.3h26.9c3.3 0 5.9-1.9 6.3-5q0.5 0.2 1 0.2 0.5 0 1-0.1c-0.4 4.1-4 6.9-8.3 6.9h-26.9c-4.5 0-8.2-3.7-8.2-8.3v-12.8l-0.6-0.5c-4.7-4.7-4.7-12.3 0-16.9q0 0 0 0l13.8-13.9c4.7-4.6 12.2-4.7 16.9 0q0 0 0 0l10.1 10.1 0.7 0.7q0.3 0.3 0.7 0.6c3.7 2.8 8.8 2.8 12.4 0q0.6-0.4 1.1-0.9l1.2-1.1h2.9z"/>
				<path class="s0" d="m69.9 6.2v3.4c0 4.8-3.9 8.6-8.7 8.6-4.8 0-8.6-3.8-8.6-8.6v-3.5q0.5 0.2 1.2 0.2 0.4 0 0.9-0.1v3.4c0 3.6 2.9 6.5 6.6 6.5 3.6 0 6.5-2.9 6.5-6.5v-3.4q0.5 0.1 1.1 0.1 0.5 0 1-0.2z"/>
				<path fill-rule="evenodd" class="s0" d="m68.8 5.7c-1.5 0-2.8-1.3-2.8-2.8 0-1.6 1.3-2.9 2.8-2.9 1.6 0 2.9 1.3 2.9 2.9 0 1.5-1.3 2.8-2.9 2.8z"/>
				<path fill-rule="evenodd" class="s0" d="m46.4 56.8c-1.3 0-2.3-1.1-2.3-2.4 0-1.3 1-2.4 2.3-2.4 1.4 0 2.4 1.1 2.4 2.4 0 1.3-1 2.4-2.4 2.4z"/>
				<path fill-rule="evenodd" class="s0" d="m53.7 5.7c-1.6 0-2.9-1.3-2.9-2.8 0-1.6 1.3-2.9 2.9-2.9 1.6 0 2.9 1.3 2.9 2.9 0 1.5-1.3 2.8-2.9 2.8z"/>
				<path class="s0" d="m39.3 39.8v0.4c-0.5 0.4-1 0.7-1.6 0.8-0.1 0-0.4 0-0.4-0.1-0.2-0.5-0.8-0.8-1.4-0.7-0.4 0-0.7 0.2-0.8 0.6q-0.3 0.9-0.7 1.8c-0.1 0.2-0.3 0.3-0.5 0.4-0.1 0.2-0.3 0.4-0.2 0.7q0.3 0.6 0.4 1.2c0.4 0.4 0.4 0.4 0 1 0.8 0.4 0.5 1.2 0.8 1.9 0.2 0.5 0.1 1.1-0.1 1.7q-0.1 0.3 0 0.6c0 0.5-0.1 1-0.4 1.4q-0.5 0.7-0.6 1.5-0.1 0.7-0.4 1.4c-0.2 0.5-0.4 1.1-1.1 1.3q-0.3 0.1-0.4 0.4c-0.1 0.1 0.1 0.4 0 0.6 0 0.9 0.7 0.9 1.3 0.9q0.5 0.1 0.9 0.4l0.1 0.1c0 0 0 0 0.1 0v0.1q0 0.1 0.1 0.2 0 0 0 0.1c0 0.4-0.9 0.6-0.9 0.6-4.3 0.9-5 0.2-5.1 0-0.1-0.1 0-0.3 0.1-0.4 0.5-0.5 0.4-1.2 0.7-1.7 0.3-0.5 0.4-1.1 0.4-1.6 0-0.4 0.1-0.8 0.3-1.2 0.1-0.1 0.1-0.2 0.1-0.5-0.2 0.1-0.5 0.2-0.6 0.3-0.1 0.2-0.4 0.2-0.6 0.3q-0.7 0.2-1.4 0.4c-0.2 0.1-0.3 0.3-0.5 0.3-0.5 0.3-0.8 0.7-0.9 1.1q-0.1 0.6-0.3 1.1-0.1 0.5-0.1 1.1 0 0.3-0.2 0.5c-0.2 0.2-0.5-0.1-0.5-0.1q-0.1-0.2-0.2-0.3-0.5-1.3-0.6-2.7-0.2-1.1-0.5-2c-0.1-0.5 0.1-0.8 0.5-0.8 0.6 0.1 1.3-0.2 1.9-0.6 0.4 0.4 1.1 0.3 1.5-0.2q0-0.1 0.1-0.2c0.2-0.7 0.8-0.6 1.2-0.8 0.2-0.1 0.5-0.2 0.7-0.3 0.2-0.2 0.5-0.4 0.8-0.6l0.3-0.2q-0.2-0.6-0.5-1.2-1.1-2.4-2.2-4.7-0.2-0.6-0.3-1.2-0.1-0.5-0.1-0.9 0-1.2 0.3-2.3 0-0.2 0.1-0.3c0.1-0.2 0.6-1.5 0.6-1.5l-0.1-1c0-0.1 0.1-0.2 0-0.3-0.3-0.4-0.4-0.9-0.2-1.4 0.1-0.7-0.4-1.1-0.7-1.5-0.2-0.3-0.3-0.4 0-0.7q0.9-0.8 1.9-1.7 0.4-0.4 0.8-0.8c0.5-0.2 0.7-0.7 0.5-1.2q-0.1-0.1-0.2-0.2-0.6-1-0.9-2.2c-0.4-1.1 0.1-2.4 1.2-3 0.8-0.3 1.7-0.4 2.6-0.3 0.7 0.2 1.8 0.8 1.8 1.8 0.1 0.9 0.1 1.9 0.1 2.9q0 0.5-0.2 1c-0.4 0.6-0.6 1.4-1.5 1.6q-0.3 0-0.3 0.3c0 0.1 0.1 0.2 0.2 0.3 0.2 0.1 0.4 0.2 0.5 0.4 0.8 0.9 1.2 2 1.4 3.1q0 1-0.1 2c-0.1 0.4 0.1 0.7 0.6 0.8 0.1 0 0.3 0 0.4 0.1 0.5 0.6 1.3 0.4 2 0.6 0.2 0 0.5-0.2 0.7-0.3l0.1 0.1-0.6 0.8 0.7 0.7z"/>
				<path class="s1" d="m47.8 29.9h2.5v2.6l1.9-2.6h2l-2.1 3 2.3 5.5h-2l-1.8-4.4-0.3-0.5v4.9h-2.5c0 0 0-8.5 0-8.5z"/>
				<path class="s1" d="m56.2 29.9h2.6v8.5h-2.6z"/>
				<path class="s1" d="m61.1 29.9h3.2c2.4 0 4.3 1.9 4.3 4.2 0 2.4-1.9 4.3-4.3 4.3h-3.2c0 0 0-8.5 0-8.5zm3 7.8c1.4 0 2.2-1.8 2.2-3.5 0-1.8-0.8-3.6-2.4-3.6h-0.2v7.1z"/>
				<path class="s1" d="m70.1 37.2l0.9-1.4c0.6 0.8 1.6 1.3 2.7 1.4 0.4 0 0.8-0.2 0.8-0.6 0-0.5-0.7-0.9-1.5-1.3-1.2-0.6-2.7-1.4-2.7-3 0-1.5 1.6-2.7 3.4-2.7 0.9 0 1.9 0.3 2.7 0.9l-0.6 1.2c-0.7-0.6-1.5-0.9-2.3-0.9-0.6 0-1.1 0.2-1.1 0.8 0 0.7 0.8 1.1 1.8 1.6 1.2 0.6 2.4 1.2 2.4 2.7 0 1.6-1.7 2.6-3.4 2.6-1.2 0.1-2.3-0.4-3.1-1.3z"/>
				<path class="s1" d="m82.3 29.9h2.6v3.1h1.9v-3.1h2.6v8.5h-2.6v-3.9h-1.9v3.9h-2.6z"/>
				<path class="s1" d="m91.2 34.1c-0.1-2.4 1.7-4.4 4.1-4.5q0.1 0 0.2 0c2.3-0.1 4.3 1.7 4.4 4q0 0.2 0 0.4c0.1 2.4-1.7 4.4-4.1 4.5q-0.1 0-0.3 0c-2.2 0.1-4.2-1.6-4.3-3.9q0-0.3 0-0.5zm5.9-0.1c0-1.8-0.6-3.8-1.6-3.8-1 0-1.5 1.9-1.5 3.8 0 2 0.5 3.9 1.5 3.9 1 0 1.6-1.9 1.6-3.8z"/>
				<path class="s1" d="m101.2 29.9h2.5l2 5.8 2-5.8h2.5v8.5h-2.5v-5.8l-1.5 4.3h-1l-1.5-4.2v5.7h-2.5c0 0 0-8.5 0-8.5z"/>
				<path class="s1" d="m112 29.9h5.7v0.8h-3.1v2.2h2.1v1.5h-2.1v3h3.1v1h-5.7v-8.5z"/>
				<path class="s0" d="m47.7 39.7h1l2.2 4.4v-4.4h0.9v5.2h-1.1l-2.1-4.4v4.4h-0.9v-5.2z"/>
				<path class="s0" d="m52.7 42.3c-0.1-1.4 0.9-2.6 2.3-2.8q0.1 0 0.2 0c1.4 0 2.6 1.1 2.6 2.5q0 0.1 0 0.2c0.1 1.5-0.9 2.7-2.4 2.8q-0.1 0-0.2 0c-1.3 0-2.5-1-2.5-2.4q0-0.2 0-0.3zm4.1 0c0-1.2-0.5-2.5-1.6-2.5-1.1 0-1.6 1.2-1.6 2.5 0 1.2 0.5 2.4 1.6 2.4 1.1 0 1.6-1.2 1.6-2.4z"/>
				<path class="s0" d="m59.6 40h-1.8v-0.3h4.5v0.3h-1.8v4.9h-0.9c0 0 0-4.9 0-4.9z"/>
				<path class="s0" d="m65.2 43.6h0.7c0 0.5 0.4 1 0.9 1q0 0 0.1 0c0.6 0 1-0.5 1-1q0-0.1 0-0.1v-3.8h0.9v3.7c0 1.1-1 1.6-1.9 1.6-0.9 0-1.7-0.4-1.7-1.3z"/>
				<path class="s0" d="m70 43.2v-3.5h0.8v3.8c0 0.7 0.6 1.3 1.3 1.3 0.7 0 1.3-0.6 1.3-1.3v-3.8h0.8v3.5c0 1.1-0.8 1.8-2.1 1.8-1.3 0-2.2-0.6-2.2-1.8z"/>
				<path class="s0" d="m74.9 44.4l0.3-0.5c0.5 0.4 1.1 0.6 1.7 0.6 0.6 0 1.1-0.2 1.1-0.8 0-0.5-0.6-0.8-1.3-1.1-0.8-0.4-1.7-0.8-1.7-1.6 0-0.8 0.9-1.5 2-1.5 0.5 0 1.1 0.2 1.6 0.4l-0.2 0.5c-0.5-0.3-0.9-0.4-1.4-0.4-0.7 0-1.3 0.3-1.3 0.7 0 0.5 0.7 0.9 1.4 1.2 0.7 0.4 1.6 0.8 1.6 1.6 0 0.9-1 1.5-2 1.5-0.7 0-1.3-0.2-1.8-0.7z"/>
				<path class="s0" d="m80.8 40h-1.8v-0.3h4.5v0.3h-1.8v4.9h-0.8l-0.1-4.9z"/>
				<path class="s0" d="m88.2 39.7h1.2l1.5 5.2h-0.8l-0.5-1.6h-1.8l-0.5 1.6h-0.7c0 0 1.6-5.2 1.6-5.2zm1.3 3.2l-0.8-2.7-0.9 2.7h1.7z"/>
				<path class="s0" d="m94.1 42.3c-0.1-1.4 1-2.7 2.4-2.8q0.1 0 0.1 0c1-0.1 1.9 0.6 2.1 1.5l-0.7 0.2c-0.1-0.7-0.7-1.2-1.4-1.3-1 0-1.6 1.2-1.6 2.3 0 1.4 0.8 2.3 1.8 2.3 0.6-0.1 1.2-0.4 1.6-1l0.4 0.3c-0.5 0.8-1.3 1.3-2.2 1.3-1.4 0-2.5-1.2-2.5-2.5q0-0.2 0-0.3z"/>
				<path class="s0" d="m99.6 39.7h0.9v4.8h2v0.4h-2.9v-5.2z"/>
				<path class="s0" d="m103.4 39.7h0.8v5.2h-0.8z"/>
				<path class="s0" d="m105.7 39.7h1l2.2 4.4v-4.4h0.9v5.2h-1.1l-2.2-4.4v4.4h-0.8z"/>
				<path class="s0" d="m111.1 39.7h0.8v5.2h-0.8z"/>
				<path class="s0" d="m113.1 42.3c-0.1-1.4 1-2.7 2.4-2.8q0.1 0 0.2 0c0.9-0.1 1.8 0.6 2 1.5l-0.7 0.2c-0.1-0.7-0.7-1.2-1.4-1.3-1 0-1.5 1.2-1.5 2.3 0 1.4 0.8 2.3 1.7 2.3 0.6-0.1 1.2-0.4 1.6-1l0.4 0.3c-0.5 0.8-1.3 1.3-2.2 1.3-1.4 0-2.5-1.2-2.5-2.5q0-0.2 0-0.3z"/>
				<g>
					<path class="s1" d="m6.5 66q0.6 0.1 1.1 0.3 0.5 0.3 0.8 0.7 0.2 0.4 0.2 0.9 0 0.5-0.2 0.9-0.3 0.4-0.8 0.7-0.5 0.3-1.1 0.3h-1.5v-3.8zm0.4 3.2q0.2-0.2 0.3-0.5 0.2-0.4 0.2-0.8 0-0.4-0.2-0.7-0.1-0.4-0.3-0.6-0.3-0.2-0.6-0.2h-0.1v3.1h0.1q0.4 0 0.6-0.3z"/>
					<path class="s1" d="m11.1 66q0.4 0 0.7 0.2 0.3 0.1 0.4 0.4 0.2 0.2 0.2 0.5 0 0.3-0.2 0.6-0.2 0.3-0.6 0.4l0.9 1.7h-1.3l-0.6-1.7h-0.3v1.7h-1.2v-3.8c0 0 2 0 2 0zm-0.1 1.4q0.2-0.2 0.2-0.4 0-0.2-0.1-0.4-0.2-0.2-0.5-0.2h-0.3v1.2h0.3q0.2 0 0.4-0.2z"/>
					<path class="s1" d="m13 69.7q-0.1-0.1-0.1-0.3 0-0.2 0.1-0.3 0.1-0.2 0.3-0.2 0.2 0 0.4 0.2 0.1 0.1 0.1 0.3 0 0.2-0.1 0.3-0.1 0.2-0.4 0.2-0.2 0-0.3-0.2z"/>
					<path class="s1" d="m16.1 66h1.2l0.9 2.6 0.9-2.6h1.2v3.8h-1.2v-2.5l-0.7 1.8h-0.5l-0.6-1.8v2.5h-1.2c0 0 0-3.8 0-3.8z"/>
					<path class="s1" d="m21.7 69.6q-0.4-0.3-0.7-0.7-0.2-0.5-0.2-1 0-0.5 0.2-0.9 0.3-0.5 0.7-0.8 0.5-0.3 1.1-0.2 0.7 0 1.1 0.2 0.5 0.3 0.7 0.7 0.2 0.5 0.2 1 0.1 0.5-0.2 0.9-0.2 0.5-0.7 0.8-0.4 0.2-1.1 0.2-0.6 0-1.1-0.2zm1.5-0.3q0.2-0.2 0.3-0.6 0.1-0.4 0.1-0.8 0-0.4-0.1-0.8-0.1-0.4-0.3-0.6-0.1-0.3-0.4-0.3-0.2 0-0.4 0.3-0.1 0.2-0.2 0.6-0.1 0.4-0.1 0.8 0 0.4 0.1 0.8 0.1 0.4 0.2 0.6 0.2 0.3 0.4 0.3 0.3 0 0.4-0.3z"/>
					<path class="s1" d="m25.2 66h1.2v1.4h0.9v-1.4h1.2v3.8h-1.2v-1.7h-0.9v1.7h-1.2z"/>
					<path class="s1" d="m30.3 66h1.5l1.1 3.8h-1.3l-0.2-1.1h-1.1l-0.3 1.1h-0.8l1.1-3.8zm1 2.3l-0.5-1.6-0.4 1.6z"/>
					<path class="s1" d="m33.4 66h1.2l0.9 2.6 0.9-2.6h1.2v3.8h-1.2v-2.5l-0.7 1.8h-0.4l-0.7-1.8v2.5h-1.2c0 0 0-3.8 0-3.8z"/>
					<path class="s1" d="m38.3 66h2.6v0.4h-1.5v1h1v0.6h-1v1.4h1.5v0.4h-2.6v-3.8z"/>
					<path class="s1" d="m42.9 66q0.6 0.1 1.1 0.3 0.5 0.3 0.7 0.7 0.3 0.4 0.3 0.9 0 0.5-0.3 0.9-0.2 0.4-0.7 0.7-0.5 0.3-1.1 0.3h-1.5v-3.8zm0.4 3.2q0.2-0.2 0.3-0.5 0.2-0.4 0.2-0.8 0-0.4-0.2-0.7-0.1-0.4-0.3-0.6-0.3-0.2-0.6-0.2h-0.1v3.1h0.1q0.4 0 0.6-0.3z"/>
					<path class="s1" d="m48.2 66h1.5l1.1 3.8h-1.2l-0.3-1.1h-1.1l-0.3 1.1h-0.7l1.1-3.8zm0.9 2.3l-0.4-1.6-0.5 1.6z"/>
					<path class="s1" d="m53.2 66q0.4 0 0.6 0.2 0.3 0.1 0.4 0.4 0.1 0.2 0.1 0.5 0.1 0.2-0.1 0.4-0.1 0.2-0.4 0.3 0.4 0.1 0.6 0.4 0.1 0.2 0.1 0.5 0.1 0.3-0.1 0.5-0.1 0.3-0.4 0.4-0.2 0.2-0.5 0.2h-2.2v-3.7zm0 1.4q0.2-0.2 0.2-0.4 0-0.3-0.2-0.5-0.1-0.2-0.5-0.2h-0.1v1.3h0.2q0.3 0 0.4-0.2zm0.2 1.7q0.1-0.2 0.1-0.4 0-0.3-0.2-0.5-0.1-0.2-0.5-0.2h-0.2v1.3h0.3q0.3 0 0.5-0.2z"/>
					<path class="s1" d="m56.6 66q0.6 0.1 1.1 0.3 0.5 0.3 0.7 0.7 0.3 0.4 0.3 0.9 0 0.5-0.3 0.9-0.2 0.4-0.7 0.7-0.5 0.3-1.1 0.3h-1.5v-3.8zm0.4 3.2q0.2-0.2 0.3-0.5 0.2-0.4 0.2-0.8 0-0.4-0.2-0.7-0.1-0.4-0.3-0.6-0.3-0.2-0.6-0.2h-0.1v3.1h0.1q0.4 0 0.6-0.3z"/>
					<path class="s1" d="m59.2 67.9h1.3v0.4h-1.3z"/>
					<path class="s1" d="m61.1 66h2.7v0.4h-1.5v1h1v0.6h-1v1.4h1.5v0.4h-2.7v-3.8z"/>
					<path class="s1" d="m64.3 66h1.2v3.3h1.2v0.5h-2.4z"/>
					<path class="s1" d="m69.2 66q0.4 0 0.7 0.2 0.3 0.1 0.4 0.4 0.2 0.2 0.2 0.5 0 0.3-0.2 0.6-0.2 0.3-0.6 0.4l0.9 1.7h-1.3l-0.6-1.7h-0.3v1.7h-1.2v-3.8h2zm0 1.4q0.2-0.2 0.2-0.4 0-0.2-0.2-0.4-0.2-0.2-0.5-0.2h-0.3v1.2h0.3q0.3 0 0.5-0.2z"/>
					<path class="s1" d="m72.1 66h1.5l1.1 3.8h-1.3l-0.2-1.1h-1.1l-0.3 1.1h-0.8l1.1-3.8zm1 2.3l-0.5-1.6-0.4 1.6z"/>
					<path class="s1" d="m75.2 66h1.2v1.4h0.9v-1.4h1.2v3.8h-1.2v-1.7h-0.9v1.7h-1.2z"/>
					<path class="s1" d="m79.3 66h1.2l0.9 2.6 0.9-2.6h1.2v3.8h-1.2v-2.5l-0.7 1.8h-0.4l-0.7-1.8v2.5h-1.2c0 0 0-3.8 0-3.8z"/>
					<path class="s1" d="m85 66h1.5l1.1 3.8h-1.2l-0.3-1.1h-1.1l-0.3 1.1h-0.7l1.1-3.8zm0.9 2.3l-0.4-1.6-0.5 1.6z"/>
					<path class="s1" d="m88.2 66h1.1l1 2.5v-2.5h1.2v3.8h-1.2l-1-2.4v2.4h-1.2v-3.8z"/>
					<path class="s1" d="m94 66h1.2v1.2l0.9-1.2h0.9l-1 1.4 1.1 2.4h-1l-0.8-1.9-0.1-0.3v2.2h-1.2c0 0 0-3.8 0-3.8z"/>
					<path class="s1" d="m97.7 66h1.2v1.4h0.9v-1.4h1.2v3.8h-1.2v-1.7h-0.9v1.7h-1.2z"/>
					<path class="s1" d="m102.7 66h1.5l1.1 3.8h-1.2l-0.3-1.1h-1.1l-0.3 1.1h-0.7l1.1-3.8zm0.9 2.3l-0.4-1.6-0.5 1.6z"/>
					<path class="s1" d="m105.8 66h1.3v3.3h1.2v0.5h-2.5z"/>
					<path class="s1" d="m108.9 66h1.2v3.8h-1.2z"/>
					<path class="s1" d="m110.9 66h2.7v0.4h-1.5v1h1v0.6h-1v1.8h-1.2c0 0 0-3.8 0-3.8z"/>
					<path class="s1" d="m114.6 66h1.5l1.1 3.8h-1.2l-0.3-1.1h-1.1l-0.3 1.1h-0.7l1-3.8zm1 2.3l-0.5-1.6-0.4 1.6z"/>
				</g>
			</g>
		</g>
	</g>
</svg>