<svg version="1.2" xmlns="http://www.w3.org/2000/svg" viewBox="0 0 103 81" width="103" height="81">
	<title>Asset 357</title>
	<style>
		tspan { white-space:pre } 
		.s0 { fill: #606161 } 
		.t1 { font-size: 4px;fill: #606161;font-weight: 800;font-family: "Blacker Sans Trial" } 
	</style>
	<g id="Layer_1-2">
		<g>
			<g>
				<path class="s0" d="m97 23.3q-0.4-1.5-1-3.1-0.2-0.6-0.3-0.8-0.1-0.1-0.1-0.1 0-0.1 0-0.2-0.3-0.5-0.6-1 0-0.1-0.1-0.2-0.3-0.6-0.8-1.1c-1.6-2-4-3.2-6.8-3.3h-0.2-0.2c0 0-0.1 0-0.1 0q-0.1 0-0.2 0 0 0 0 0-0.4 0-0.7 0-0.1 0-0.1 0.1c-1.5 0.1-2.8 0.6-3.9 1.1q-0.1 0-0.2 0.1c-0.7 0.3-1.3 0.8-1.9 1.2q-0.1 0-0.1 0.1c-1.8 1.3-2.8 2.7-2.9 3q-0.1 0-0.1 0 0 0 0 0-0.2 0.3-0.4 0.6 0 0 0-0.1 0 0.1-0.1 0.2-0.1 0.2-0.3 0.5-0.1 0.2-0.3 0.5c0 0-2.3 3.9-5.6 5.9-2.2 1.2-4.7 1.9-7.3 1.9-4.1 0-7.8-1.7-10.5-4.4q-0.2-0.2-0.4-0.4 0.1 0.1 0.1 0.2 0-0.1-0.1-0.2 0.1 0.3 0.2 0.5 1 2 2.7 3.7c2.4 2.4 5.5 3.9 8.9 4.2q0.8 0.1 1.5 0.1 0.1 0 0.2 0c0.5 0 4.3-0.3 8.5-2.2q0 0 0 0c0.4-0.2 3.3-1.8 5.6-3.9q0.1 0 0.2-0.1 0.1-0.1 0.2-0.2 0.1 0 0.1-0.1 0 0 0 0 0.1-0.1 0.2-0.1 0-0.1 0-0.1c0.6-0.5 1.1-0.9 1.5-1.2q0.1-0.1 0.2-0.2 0 0 0 0 0.1 0 0.1-0.1 0.2-0.1 0.3-0.2 0.1 0 0.1-0.1 0.1 0 0.2-0.1 0.2 0 0.3-0.1 0.1-0.1 0.3-0.1 1-0.4 2.1-0.4c0.7 0 1.4 0.1 2.1 0.4q0 0 0.1 0.1 0.2 0 0.4 0.1 0.1 0.1 0.2 0.1 0.1 0.1 0.2 0.2 0 0 0 0c1 0.6 1.8 1.6 2.2 2.7q0 0 0 0 0.2 0.4 0.3 0.9 0 0 0 0 0.1 0.5 0.3 1 0.2 1.1 0.3 2.1 0 0.1 0 0.2c0 0 1.2 7.9 0.6 14.2q-0.2 1.5-0.4 2.9 0 0.1 0 0.2c-1.3 8-4.2 15.6-8.4 22.3q0 0 0 0-0.1 0.1-0.1 0.2-0.1 0.1-0.1 0.1-0.1 0.2-0.2 0.3 0 0 0 0c-0.2 0.3-0.6 0.5-1 0.5q-0.3 0-0.6-0.1c0 0-0.1-0.1-0.1-0.1q0 0 0 0c-0.3-0.2-0.6-0.5-0.6-0.9q0-0.1 0-0.1-0.1-0.2-0.1-0.4 0 0 0 0-0.5-2.5-1.5-4.9-0.4-1-0.9-2 0 0 0 0.1l-0.2-0.4q-0.2-0.4-0.4-0.7 0 0 0 0-0.1-0.1-0.1-0.2 0 0 0 0.1 0 0 0-0.1-1.4-2.3-3.4-4.3-0.4-0.4-0.9-0.8 0 0-0.1-0.1-2.9-2.6-6.5-4.1-0.8-0.4-1.5-0.6c0 0-0.1-0.1-0.1-0.1q-0.3-0.1-0.7-0.2 0.1 0 0.1 0.1-0.1-0.1-0.1-0.1 0.3 0.2 0.6 0.4 0 0 0.1 0c1.9 1.2 3.7 2.7 5.2 4.4q0 0 0 0.1c0.1 0.1 0.3 0.2 0.4 0.4q0.1 0.1 0.1 0.2 0.3 0.2 0.5 0.5 1 1.4 1.9 2.9c0.6 1.1 2.4 5 2.9 10.8q0 0.1 0 0.2 0.1 0.6 0.1 1.1 0 0.2 0.1 0.3 0 0 0 0.1 0.2 1.7 0.7 3.5 0 0 0 0.1 0.1 0.5 0.4 0.9 0 0 0 0 0 0.1 0.1 0.1 0.1 0.2 0.3 0.4c0 0 0.1 0.1 0.1 0.1 0.6 0.6 1.4 1 2.4 1q0 0 0 0 0.1 0 0.1 0h0.1q0.9 0 1.7-0.4 0 0 0 0 0.1 0 0.1-0.1 0.3-0.1 0.6-0.4 0 0 0 0 0 0 0.1-0.1c0 0 6.9-5.4 11.6-18.6q2.5-6.2 3.5-12.8 0-0.1 0-0.2 0.6-3.9 0.7-7.9 0-0.1 0-0.2c0 0 0-0.1 0-0.1q0-0.4 0-0.9 0-0.8 0-1.5 0-0.2 0-0.4c0.2-4.8-0.7-9.3-1.5-12.4z"/>
				<path class="s0" d="m72.4 69.6q0 0.3 0 0.5-0.1 1.8-0.9 3.3 0 0.1-0.1 0.2-0.6 1.2-1.4 2.1-0.1 0.1-0.2 0.2-0.1 0.2-0.3 0.3-0.1 0.1-0.1 0.1-0.4 0.3-0.6 0.5-0.2 0.1-0.3 0.1c-0.4 0.2-1.4 0.6-2.6 0-0.5-0.3-0.9-0.7-1.1-0.9q0 0 0 0-0.1-0.1-0.1-0.1c-0.9-1.1-1.5-2.4-1.8-3.8q0-0.2-0.1-0.3-0.1-0.8-0.1-1.7c0-1.6 0.4-3.1 1.1-4.5q-0.4 0.8-0.5 1.8c0 0-0.3 1.5 0.4 3 0.4 0.9 0.9 1.7 1.7 2.3q0.2 0.2 0.4 0.3c1.8 1.2 3.7 0.1 4.4-0.4q0.1 0 0.1-0.1 0 0 0.1 0c0.8-0.6 1.5-1.4 1.8-2.4q0.1-0.2 0.2-0.5z"/>
			</g>
			<path fill-rule="evenodd" class="s0" d="m7.6 71.7v-26.8h-7.3v-3.8h18.8v3.8h-7.3v26.8h-4.2z"/>
			<path class="s0" d="m36.3 71.7v-21.2q0-1.1-0.4-2-0.4-0.9-1.1-1.6-0.7-0.8-1.7-1.2-0.9-0.4-2-0.4-1 0-2 0.4-0.9 0.5-1.7 1.2-0.7 0.7-1.1 1.6-0.4 1-0.4 2v21.2h-4.2v-21.2q0-1.9 0.7-3.6 0.7-1.7 2-3 1.3-1.3 3-2 1.7-0.8 3.7-0.8 2 0 3.7 0.8 1.7 0.7 3 2 1.2 1.3 2 3 0.7 1.7 0.7 3.6v21.2h-4.2z"/>
			<path fill-rule="evenodd" class="s0" d="m31.1 68.9c-2.1 0-3.8-1.7-3.8-3.7 0-2.1 1.7-3.8 3.8-3.8 2 0 3.7 1.7 3.7 3.8 0 2-1.7 3.7-3.7 3.7z"/>
			<path class="s0" d="m43.9 67.5q0.8-0.1 1.6-0.4 0.9-0.4 1.6-1.1 0.7-0.7 1.1-1.7 0.4-0.9 0.4-2v-11l-0.3-0.1c-1.8-0.9-3-2.7-3-4.8 0-2.9 2.4-5.3 5.3-5.3 2.9 0 5.3 2.4 5.3 5.3 0 2-1.1 3.7-2.8 4.7l-0.3 0.1v11.1q0 1.9-0.7 3.6-0.7 1.8-2 3-1.3 1.3-3 2-1.5 0.7-3.2 0.8v-4.3zm6.8-22.9c-1 0-1.9 0.9-1.9 1.9 0 1 0.9 1.8 1.9 1.8 1 0 1.9-0.8 1.9-1.8 0-1-0.9-1.9-1.9-1.9z"/>
			<g>
				<path class="s0" d="m31.4 1.3q-0.6-0.9-2.3-1.2-0.8-0.2-2.2 0-1.4 0.1-2.5 0.4-1.2 0.4-2.5 1.1-1.4 0.7-2.3 1.4-1.2 1-2.3 2.6-1.2 1.6-1.8 3.1-0.1 0.3-0.2 0.4-0.1 0.2-0.3 0.3-0.2 0-0.8 0.1-7.8 1.5-11.3 5.1-1 1-1.7 2.1-0.8 1.1-1.1 1.9-0.3 0.9 0.1 1 0.2 0 0.2-0.3 0-0.9 1.1-2.5 1.2-1.7 2.6-2.9 2.2-1.7 5-2.8 0.5-0.1 1.5-0.4 0.9-0.3 2-0.5 1-0.3 1.8-0.5 0.7-0.2 0.8-0.2 0 0.1 0 0.2 0 0.2-0.1 0.4-0.1 0.7 0 1.5 0.1 0.7 0.4 1.3 0.5 1 1.9 2.1l0.7 0.5-0.7-0.1q-3.9-0.3-8.7 2.7-3.9 2.5-5 7.5-0.2 1-0.2 2.2 0.1 1.3 0.3 2.3 0.8 2.5 3 4.2 2.2 1.7 5 2.2 0.7 0 1.8 0 1.1-0.1 1.8-0.3 2.1-0.6 4.3-2.2 0.3-0.2 0.6-0.5 0.2-0.2 0.4-0.3l-0.2-0.5q-0.1 0.1-0.2 0.2-5.3 4.2-9.3 2.8-3.5-1.5-4.6-4.9-1.1-3.3 0.7-7.5 0.7-1.8 1.8-3.1 1.2-1.2 3-2.4 4.3-2.5 7.1-1.8 0.2 0 0.1-0.2-0.2-0.2-0.8-0.8-0.9-0.8-1.2-1.4-0.3-0.6-0.4-1.4 0-0.6 0.2-1.4 0.2-0.8 0.5-1.3 0.1-0.2 0.2-0.3 0.1-0.1 0.4-0.2 0.2 0 0.7-0.1 2.6-0.5 5.3-1.5 2.8-0.9 4.3-1.7 2.2-1.3 3-2.5 0.8-1 0.2-1.9zm-0.2 1q-0.1 0.4-0.5 0.9-1.1 1.5-4 2.9-2.9 1.3-7 2.3-0.5 0.1-1 0.2-0.4 0.1-0.7 0.2-0.1 0-0.1 0-0.1 0-0.1 0-0.1 0-0.2 0 0 0 0-0.1 0.1-0.1 0.2-0.4 0.2-0.2 0.5-0.7 0-0.1 0.1-0.2 0.6-1 1.7-2.1 1-1.2 1.8-1.9 1.6-1.2 3.4-1.9 1.8-0.7 3.3-0.8 1.1 0 1.6 0.2 0.6 0.1 0.8 0.6 0.2 0.5 0.1 0.8z"/>
				<path class="s0" d="m32.5 16.2q0-0.1-0.4-0.2-0.2-0.1-0.5-0.1-0.8 0-1.8 0.7-0.7 0.6-2.1 2.1-1.4 1.5-2.3 2.8-2.1 3-3.4 6-1.3 3-1.5 4.6-0.1 0.4-0.2 0.7 0 0.4 0 0.7-0.1 0.5-0.1 0.8 0.1 1.3 0.6 1.9 0.3 0.3 0.5 0.4 0.2 0.1 0.7 0.1 0.6 0 1.3-0.4 0.7-0.4 1.5-1.2 0.7-0.7 1.3-1.5 0.2-0.4 0.4-0.7 0.2-0.4 0.2-0.5 0 0-0.1 0.2-0.1 0.1-0.2 0.3-1.5 2.1-3.8 3.3-0.2 0.1-0.3 0.1-0.2 0-0.3-0.1-0.3-0.3-0.3-1.1-0.1-1.9 1.1-5.3 0.4-1.2 0.7-1.4 0.1-0.2 0.4-0.3 1.6-1.1 3.7-3.2 2.1-2.2 3.4-4.1 1.7-2.9 1.6-4.2 0-0.2 0-0.3zm-0.8 2.4q-0.9 1.8-2.7 4.1-1.7 2.2-3.8 3.8-0.2 0.1-0.9 0.7-0.5 0.5-0.7 0.5 0 0 0-0.1 0-0.1 0.5-1.2 0.6-1 1.3-2.3 0.7-1.2 1.2-2.1 3.8-5.9 5.2-5.9 0.5 0 0.5 0.7 0 0.6-0.6 1.8z"/>
				<path class="s0" d="m33 32.5q-0.1 0-0.5 0.4-0.3 0.3-1 1-2 2.2-2.9 2.2-0.5 0-0.5-0.9 0-0.4 0-0.9 0.2-1.6 2.1-4.9 1-1.8 1.1-2 0.1-0.2 0.1-0.3 0-0.1-0.1-0.2-0.3-0.3-0.8-0.3-0.4 0-0.7 0.3-0.7 0.5-2.2 3.3-0.7 1.3-1 2.3 0 0.2-0.1 0.4-0.2 0.8-0.2 1.4 0.1 1.8 1.5 2.2 0.4 0.1 0.8 0.1 0.6-0.1 1.2-0.4 1-0.7 2.6-2.8 0.2-0.2 0.4-0.4 0.3-0.4 0.2-0.4v-0.1zm-0.6-8.9q-0.4-0.2-0.6-0.2-0.4 0-0.8 1 0 0 0 0 0 0.1 0 0.1 0 0 0 0 0 0.1 0 0.1 0 0 0 0c-0.1 0.2-0.1 0.5 0.1 0.8q0.2 0.1 0.4 0.1 0.4 0 1-0.6 0.5-0.6 0.5-0.9 0-0.3-0.6-0.4z"/>
				<path class="s0" d="m45.9 23.2q-0.4 0-1.1 0.6-1.1 1-2.6 1-1.2 0-2.6-0.5-0.5-0.1-0.5-0.4 0-0.1 0.7-1.3 0.6-0.9 0.5-1.4c0-0.3-0.2-0.4-0.6-0.4q-0.1 0-0.3 0-0.1 0.1-0.6 0.5-0.4 0.4-0.8 0.8-0.4 0.5-0.5 0.8-0.1 0.1-0.2 0.1-0.2 0-1.3-0.8-2.3-1.5-3.7-1.4-0.6 0-1 0.3-0.3 0.2-0.3 0.4 0 0.2 0.4 0.4 0.3 0.2 0.4 0.1 0.1 0 0.5-0.4 0.4-0.4 0.8-0.5 0.8 0 2.8 1.3 0.2 0.1 0.9 0.7 0.3 0.2 0.3 0.3 0 0.1-0.1 0.2-0.1 0.1-0.9 1.5-2.7 4.8-3.5 7.8-0.1 0.3-0.1 0.5-0.2 0.8-0.2 1.5 0 1.6 0.7 2 0.3 0.1 0.7 0.1 1.8-0.1 4.1-3.3 0.2-0.3 0.4-0.5 0.4-0.7 0.4-0.9c0 0-0.1 0.1-0.2 0.2q-0.1 0.2-0.2 0.3-1.3 1.5-2 2.2-1.6 1.6-2.4 1.6-0.2 0-0.2-0.3-0.1-1.8 3.1-7.9l1-1.9 0.5-0.9q0.3-0.8 0.5-1 0.2-0.2 0.3-0.2 0.1 0 0.5 0.1 1.5 0.5 3 0.5 1.1-0.1 2.3-0.6 1.4-0.5 1.4-0.9 0-0.3-0.3-0.3z"/>
				<path class="s0" d="m45.9 33.4q-2.5 2.6-4.4 2.7-1.7 0-1.7-1.5-0.1-1.2 0.7-3.1 0.8-2.1 1.3-2.4 0.2-0.1 0.6-0.1 0.6-0.1 1.4-0.5 0.8-0.4 1.4-1 0.6-0.6 0.6-0.8 0.1-0.2 0.1-0.3 0-0.2-0.3-0.5-0.2-0.2-0.6-0.2h-0.3q-2.3 0.1-4.2 2.1-1.7 1.9-2.2 4.4-0.1 0.3-0.1 0.6-0.1 0.2-0.1 0.3 0 0.4 0 0.7 0.1 2 2 2.4 0.3 0.1 0.9 0.1 1.6-0.1 2.6-0.6 1.3-0.8 3-2.8 0.3-0.4 0.3-0.4-0.1 0-1.1 0.9zm-2.9-5.8q0.6-0.7 1.3-1.1 0.7-0.5 1-0.5 0.3 0 0.3 0.3 0 0.4-0.4 0.9-0.8 0.8-2 1.3-0.7 0.2-0.9 0.3-0.2 0-0.2-0.1 0-0.2 0.9-1.1z"/>
			</g>
			<text id="TM" style="transform: matrix(1,0,0,1,96.31,17.07)" >
				<tspan x="0" y="0" class="t1">TM
</tspan>
			</text>
			<g>
				<path class="s0" d="m1.4 80q-0.5-0.3-0.8-0.9-0.3-0.5-0.3-1.3 0-0.7 0.3-1.2 0.3-0.6 0.8-0.9 0.6-0.3 1.4-0.3 0.3 0 0.7 0.1 0.4 0.1 0.8 0.3l-0.4 0.9q-0.2-0.1-0.5-0.2-0.3-0.1-0.6-0.1-0.4 0-0.8 0.2-0.3 0.2-0.4 0.5-0.2 0.3-0.1 0.7-0.1 0.5 0.1 0.8 0.2 0.3 0.5 0.5 0.3 0.2 0.7 0.1 0.4 0 0.7-0.1 0.3-0.1 0.6-0.3l0.3 1q-0.4 0.2-0.8 0.3-0.4 0.2-0.8 0.2-0.8 0-1.4-0.3z"/>
				<path class="s0" d="m9.9 75.5h1.2v3.7h2v1h-3.2v-4.7z"/>
				<path class="s0" d="m18.6 75.5h1.1v4.7h-1.1z"/>
				<path class="s0" d="m26.7 77.2l0.1 0.4v2.6h-1.1v-4.7h1.1l2.3 3-0.1-0.4v-2.6h1.1v4.7h-1.1z"/>
				<path class="s0" d="m36.1 75.5h1.1v4.7h-1.1z"/>
				<path class="s0" d="m44.1 80q-0.6-0.3-0.9-0.9-0.3-0.5-0.3-1.3 0-0.7 0.3-1.2 0.3-0.6 0.9-0.9 0.5-0.3 1.3-0.3 0.4 0 0.8 0.1 0.4 0.1 0.7 0.3l-0.3 0.9q-0.3-0.1-0.5-0.2-0.3-0.1-0.6-0.1-0.5 0-0.8 0.2-0.3 0.2-0.4 0.5-0.2 0.3-0.2 0.7 0 0.5 0.2 0.8 0.1 0.3 0.4 0.5 0.3 0.2 0.8 0.1 0.3 0 0.6-0.1 0.4-0.1 0.6-0.3l0.3 1q-0.3 0.2-0.7 0.3-0.5 0.2-0.9 0.2-0.8 0-1.3-0.3z"/>
				<path class="s0" d="m53.2 80.2q-0.5-0.1-1-0.4l0.3-0.9q0.4 0.2 0.8 0.3 0.5 0.2 0.8 0.2 0.2 0 0.3-0.1 0.1 0 0.2-0.1 0.1-0.1 0.1-0.2 0-0.2-0.1-0.3-0.1-0.1-0.2-0.2-0.2-0.1-0.5-0.2l-0.2-0.1q-0.4-0.1-0.7-0.3-0.3-0.2-0.5-0.5-0.2-0.3-0.2-0.7 0-0.4 0.3-0.7 0.2-0.3 0.6-0.4 0.4-0.2 0.9-0.2 0.5 0 0.8 0.1 0.4 0.1 0.8 0.3l-0.3 0.9q-0.2-0.1-0.5-0.2-0.2-0.1-0.5-0.1-0.2-0.1-0.4-0.1-0.2 0-0.3 0.1-0.2 0.1-0.2 0.3 0 0.1 0.2 0.3 0.2 0.1 0.6 0.2l0.1 0.1q0.5 0.2 0.8 0.4 0.3 0.2 0.5 0.5 0.2 0.3 0.2 0.8 0 0.3-0.3 0.7-0.2 0.3-0.6 0.4-0.4 0.2-0.9 0.2-0.5 0-0.9-0.1z"/>
			</g>
		</g>
	</g>
</svg>