<svg width="167" height="133" viewBox="0 0 167 133" fill="none" xmlns="http://www.w3.org/2000/svg">
<g clip-path="url(#clip0_141_159)">
<path d="M165.846 86.8832C165.47 79.8965 166.196 72.7809 165.898 65.7812C165.145 48.2113 162.927 30.7832 163.485 13.123C163.576 10.3387 165.807 7.11602 161.423 6.45859C146.715 4.2543 129.932 4.16406 114.952 2.90078C105.782 2.14023 96.6255 0.709375 87.4299 0.103516C78.5455 5.6207 70.0373 12.066 61.7366 18.4727C56.6653 22.4043 50.2193 26.9547 45.5113 31.0152C44.8628 31.5695 43.7992 32.3687 43.5528 33.168C43.9419 37.2027 44.2532 41.2504 44.4866 45.298C45.6928 45.3883 46.899 45.4656 48.1052 45.5688C48.1831 42.823 48.2998 40.0902 48.4035 37.3961C49.0261 36.4938 63.2022 36.7387 65.4978 36.8547C77.7284 37.409 89.959 39.4457 102.073 40.8637C109.012 41.6758 116.041 41.7531 122.928 42.952L123.525 127.282L52.9819 120.386C52.528 120.064 52.3204 118.517 52.2556 117.872C52.1907 117.176 52.1259 116.467 52.087 115.771C50.5306 115.732 48.9742 115.694 47.4178 115.642C47.5994 117.602 47.8718 119.484 48.2609 121.262C48.3906 121.855 48.8445 122.758 49.2855 123.17C50.5954 124.434 63.254 125.852 66.1852 126.277C86.3663 129.164 106.82 130.724 127.17 132.104C128.544 131.833 136.223 123.196 138.194 121.379C147.636 112.639 158.09 104.853 166.935 95.507C167.285 92.5938 166.001 89.7449 165.846 86.8832ZM120.257 39.175C113.253 38.9559 104.602 36.9062 97.287 36.2617C84.9786 35.1918 72.5145 34.9211 60.2191 33.9156C58.8443 33.7996 51.3996 33.0777 51.0883 32.7426C50.2323 31.8016 51.5293 31.6727 51.8276 31.402C57.4695 26.5938 64.4213 22.7781 70.4523 18.3566C75.3938 14.7086 86.3534 4.24141 91.5802 3.60977C109.323 5.06641 127.247 6.20078 144.964 8.18594C146.702 8.3793 158.79 9.48789 158.79 10.8156C149.089 18.8336 139.647 27.4187 129.647 35.0758C126.093 37.7957 125.172 39.3426 120.257 39.175ZM161.475 97.1312C156.871 103.615 145.133 111.827 138.778 117.279C135.769 119.87 132.345 123.802 129.374 126.071C128.791 126.522 128.635 127.205 127.611 126.934C127.662 120.373 128.402 113.902 128.22 107.315C128.103 102.919 127.092 97.6855 126.988 93.3285C126.625 76.4676 127.105 59.5164 127.273 42.6555C127.585 41.3406 128.155 40.6703 129.05 39.7422C132.228 36.4422 137.999 32.0336 141.722 28.9398C147.506 24.1188 153.576 19.607 159.685 15.2113C160.541 15.7527 160.502 16.3328 160.593 17.2223C161.916 29.2492 160.113 44.5117 160.541 57.0543C160.904 67.341 162.655 77.7695 162.915 88.0434C163.005 91.2918 163.446 94.3598 161.475 97.1312Z" fill="#293EB0"/>
<path d="M33.8903 54.0251L37.8072 55.1465C39.3376 55.804 40.1028 56.268 40.0899 56.5258C40.2974 56.8997 40.4271 57.2735 40.4919 57.6473C40.2844 58.7688 39.7137 60.9602 38.7669 64.2215C37.6386 68.5141 37.0679 71.0278 37.0549 71.7497V72.3555C36.0822 73.3739 35.0965 74.534 34.1107 75.8489C33.6309 76.2485 32.5155 77.6922 30.7645 80.193C30.7126 80.193 30.4273 80.0126 29.9215 79.6516V79.7676C29.0655 79.4454 28.5467 79.1876 28.3781 79.0071L28.1835 79.0715L26.0954 78.7493C25.9527 78.7235 25.8879 78.6461 25.8879 78.5043C25.395 78.7106 24.526 78.8524 23.2809 78.9297C22.9956 78.8782 22.5027 80.0254 21.8023 82.3329C21.53 82.8743 21.3873 83.4415 21.3743 84.0215L21.4651 84.5629C21.4651 84.5629 21.3743 84.5758 21.3873 84.6532C21.5429 84.679 21.6986 85.3879 21.8672 86.793C22.5676 88.92 23.5662 90.0801 24.8373 90.2864C26.0176 90.454 28.5986 89.0489 32.5803 86.0583C33.5141 85.504 34.85 84.4856 36.5621 83.0161L37.9239 81.7786C38.6113 81.9204 38.9615 82.1008 38.9615 82.3458C38.9485 83.2739 38.9615 84.0344 39.0523 84.6403L38.8058 90.1961H38.6891L38.7929 90.4024C38.7929 90.6989 38.728 91.0211 38.5854 91.395L38.6761 92.0524V92.1426L38.5724 92.6454L38.6632 92.6711L38.4686 93.4575C38.5205 93.5864 38.5464 93.7282 38.5594 93.8829L38.4557 94.2825L38.5594 94.5016C38.4038 94.4758 38.3 95.6747 38.2222 98.0852L38.326 98.3043C38.1963 98.8071 37.5607 100.096 36.4194 102.172C35.291 104.389 34.3701 106.361 33.6698 108.063C32.2301 108.784 29.5583 109.532 25.6285 110.306L25.0189 110.202C25.0189 110.37 24.5649 110.512 23.67 110.628V110.718L23.4625 110.589L21.9061 110.86C21.9061 110.782 21.8802 110.744 21.8023 110.731C21.8023 110.873 21.3354 110.911 20.4535 110.847V110.731C20.2978 110.808 19.8569 110.847 19.1046 110.847L18.8841 110.692L18.3653 110.731V110.615L18.1578 110.692L16.4069 110.422L16.1864 110.267V110.383L15.9789 110.228H15.8881C15.6417 110.177 15.4731 110.19 15.3693 110.254L14.7467 110.035L13.9167 109.906L13.6054 109.648L12.6716 109.506L11.9323 109.3C11.9323 109.365 11.9063 109.39 11.8285 109.365C11.8285 109.248 11.0763 108.862 9.54582 108.191V108.075L9.3383 108.153C8.76763 107.934 7.45767 106.902 5.43437 105.046C4.39678 104.054 3.74829 103.19 3.48889 102.468C3.30731 102.146 2.76258 101.308 1.84172 99.9286L1.01165 97.2215L1.12838 97.2473C0.778191 96.3321 0.609583 95.7778 0.609583 95.5844L0.726311 95.6102L0.609583 95.3782C0.609583 95.3782 0.648492 95.2879 0.726311 95.3137C0.557703 94.3211 0.415035 93.8184 0.311276 93.7926V93.3672C0.077818 91.8977 -0.0129711 89.9126 0.0259385 87.4118C0.103758 85.027 0.453944 82.7583 1.05056 80.6055C1.11541 80.6055 1.25808 80.3864 1.46559 79.9481L1.3748 79.9223C1.3748 79.6387 1.66014 78.9555 2.23082 77.8856C2.23082 77.7567 2.99604 76.2098 4.53945 73.2579C5.66783 71.0665 7.10749 68.9653 8.84545 66.9801C9.92195 65.5364 11.1152 64.1313 12.4381 62.752C12.5159 62.7778 13.4498 61.9141 15.2396 60.1868C15.7324 59.7227 17.5093 58.4079 20.5702 56.2551C20.8555 56.2938 21.7634 55.9458 23.2939 55.2239C27.0811 54.27 30.6089 53.8446 33.9162 53.9477L33.8903 54.0251ZM23.3847 62.3524V62.2622C22.1785 62.4426 21.1798 62.7004 20.4146 63.0485C19.2213 63.2161 17.2888 64.0668 14.6041 65.5751C13.4627 66.4129 12.892 66.877 12.892 66.9672C12.7623 66.9672 12.3084 67.3411 11.5043 68.1145C9.93492 69.468 8.62496 71.0922 7.56143 73.0129C6.97779 73.6704 6.34226 74.9208 5.65486 76.777C5.46031 76.7512 5.00637 77.6793 4.26709 79.5614C4.26709 79.7032 4.07254 80.193 3.72235 81.0438L3.06089 82.6938C2.72367 83.9055 2.47724 85.6458 2.3216 87.9274C2.30863 90.325 2.581 92.8001 3.16465 95.3782L4.6043 99.3356C5.64189 101.385 6.54978 102.868 7.30203 103.783C7.98944 104.582 8.61199 105.098 9.18266 105.343C9.18266 105.549 10.0257 105.987 11.7248 106.67C11.7248 106.799 12.0749 106.915 12.7753 107.018L12.9828 107.057C12.9828 107.341 13.5535 107.573 14.6559 107.753C14.6689 107.895 14.7467 107.972 14.8635 107.998C15.0321 108.024 15.1747 107.998 15.2915 107.947C15.4212 108.037 15.5379 108.088 15.6027 108.101V108.011L15.7973 108.14C15.8751 108.14 15.914 108.114 15.914 108.05L16.1215 108.179L17.0683 108.32C17.0683 108.32 17.1591 108.32 17.1721 108.256L17.3926 108.385H17.4834C17.5742 108.411 17.6131 108.385 17.6001 108.32L17.8206 108.449H17.9114L18.1059 108.398C18.1059 108.462 18.1448 108.501 18.2097 108.501C18.2097 108.436 18.2356 108.411 18.3134 108.436V108.527L18.5469 108.462C18.6636 108.552 18.7804 108.591 18.8582 108.604C18.9879 108.565 19.0916 108.552 19.1695 108.565C19.1695 108.63 19.1954 108.668 19.2732 108.668C19.2732 108.514 19.7661 108.462 20.7518 108.488V108.604C22.1007 108.578 22.9437 108.488 23.2809 108.359L23.5014 108.514C24.0072 108.591 24.7465 108.423 25.7063 107.998C27.4572 107.573 29.1822 107.031 30.8942 106.361C31.5297 106.116 31.841 105.781 31.854 105.381V105.265C31.854 104.969 31.7891 104.698 31.6594 104.427H31.7502L31.6465 104.221V104.105C31.6465 104.105 31.6984 104.015 31.7632 104.015C31.7632 103.95 31.7243 103.912 31.6594 103.912C31.8799 102.971 31.9967 101.566 31.9967 99.6965H32.1134C32.1134 99.6321 32.0875 99.5934 32.0096 99.5805L32.1264 99.0778L32.1523 95.9711C32.1523 95.52 32.1912 94.8497 32.2561 93.9344L32.0485 93.8958C29.247 95.0688 27.7685 95.6489 27.5999 95.6231C25.7711 96.5899 24.2666 96.9766 23.0734 96.7962V96.7059L22.8659 96.7704L20.8555 96.4739L20.648 96.345V96.4352C18.2875 95.4297 16.5106 94.2567 15.3044 92.9032C13.9685 91.4079 13.1644 89.7579 12.918 87.9661C12.7623 86.6254 12.6586 85.9551 12.6197 85.9551L12.7105 85.7489V85.5426C12.7105 85.3879 12.6845 85.2461 12.6197 85.1172L12.9569 83.8024H12.8402C12.9569 83.2094 13.0996 82.9258 13.2682 82.9516C13.2682 82.8743 13.2293 82.8227 13.1644 82.8098C13.1644 82.6809 13.2552 82.4231 13.3979 82.0235H13.2811C14.5392 79.9868 15.4601 79.02 16.0308 79.1231C16.0308 78.9426 16.5625 78.5688 17.626 78.0145C17.9762 77.9372 18.3394 77.718 18.6896 77.3442C19.2343 76.9059 20.4016 76.4547 22.2044 76.0294V76.1196C22.4508 75.9262 23.1512 75.7844 24.3055 75.72C24.4352 75.8231 24.5779 75.8747 24.7335 75.9004L24.9411 75.9391C24.9411 75.9391 25.0318 75.9133 25.0318 75.836C25.1875 75.9262 25.5766 76.0551 26.1991 76.2227V76.1325C27.1848 76.4934 28.2354 76.9704 29.3638 77.5633L29.4546 77.5891V76.8672C29.6361 76.893 29.8566 75.7071 30.129 73.3094L30.7905 71.0536C30.7256 70.9118 30.6867 70.7958 30.6737 70.7184C30.8164 70.7442 30.9202 70.3059 30.998 69.4293C31.0758 69.4422 31.1017 69.4293 31.1017 69.3391L30.998 69.1071C31.426 68.0372 31.7502 66.8512 31.9837 65.5364C32.1134 65.5622 32.2171 65.2012 32.3079 64.4536C32.3728 64.4536 32.4117 64.4149 32.4117 64.3504V64.1571C32.4117 63.9895 31.9188 63.7059 30.9461 63.3063C29.5194 63.0743 28.5596 62.7907 28.0927 62.4297H27.976C27.8982 62.404 27.8722 62.4297 27.8722 62.5071L27.6777 62.3653L27.3534 62.3266C26.5753 62.4297 25.2394 62.4555 23.3458 62.4297L23.3847 62.3524ZM15.94 86.0196C15.94 86.1485 15.8751 86.3805 15.7324 86.7286C15.7324 86.9219 17.9244 89.5129 22.3211 94.4887L22.6194 94.5274L23.1382 94.5016V94.3856C20.9593 91.7817 18.5599 88.9844 15.927 86.0067L15.94 86.0196ZM16.5885 84.2407C16.368 84.4727 16.2642 84.6919 16.2772 84.9239C16.2772 85.027 17.1332 86.0196 18.8452 87.9145V87.4891L18.4431 86.2774L16.5885 84.2407ZM16.342 88.9844C16.5885 90.1188 17.2759 91.2918 18.3783 92.5036C18.949 93.2254 19.5456 93.6895 20.1422 93.9215V93.8313C20.4275 94.0118 20.6351 94.1149 20.7648 94.1407C20.7258 93.9989 19.2473 92.2715 16.355 88.9844H16.342ZM16.9127 83.2739L18.6636 85.1946C18.6636 84.8594 18.7025 84.5243 18.7804 84.1762L17.3537 82.6036C17.198 82.5778 17.0554 82.8098 16.9257 83.2739H16.9127ZM18.2875 81.1985C18.067 81.4176 17.9503 81.6368 17.9503 81.8688C17.9503 81.9719 18.3394 82.4102 19.0787 83.1836C19.0787 82.8743 19.1565 82.5778 19.2992 82.2813L18.2875 81.1985ZM21.0501 59.3102L20.5313 59.8645C20.6351 59.8645 20.8037 60.0708 21.0501 60.4575C21.6078 60.3801 21.8931 60.2899 21.8931 60.1739L21.0501 59.3102ZM22.3082 58.2532C21.945 58.4852 21.7634 58.627 21.7764 58.6915C21.7764 58.7946 22.1785 59.2715 23.0215 60.1352C23.0864 60.1352 23.3587 60.1094 23.8516 60.045C23.8516 59.9676 23.3328 59.3747 22.3082 58.2532ZM23.255 57.686V57.8922C23.255 57.9825 23.9035 58.7301 25.2134 60.1481C25.7192 60.2383 25.9916 60.1739 26.0305 59.9805L23.8775 57.5571C23.5922 57.6473 23.3847 57.6989 23.255 57.686ZM21.7245 91.1758V91.2661L24.1888 94.2438C24.8114 94.2567 25.1356 94.2051 25.1356 94.0762C25.0448 94.0762 24.3963 93.3028 23.1642 91.7817L22.9696 91.8848C22.8918 91.8719 22.8529 91.8204 22.8659 91.743L22.6454 91.8204C22.1655 91.5626 21.9191 91.3434 21.9191 91.2016L21.7116 91.1629L21.7245 91.1758ZM24.9021 57.3122C26.4715 59.2844 27.4053 60.2899 27.7036 60.3415C28.1835 60.4188 28.4948 60.5348 28.6375 60.6895L28.7283 60.7153C28.7283 60.6251 27.7036 59.4262 25.6674 57.1188L24.9021 57.3122ZM26.679 56.7708V56.861C29.1952 59.9418 30.6348 61.5145 30.998 61.579C31.3352 61.6305 31.7243 61.8239 32.1393 62.1719V62.0559L27.4053 56.6676C27.1978 56.7708 26.9514 56.7965 26.666 56.7708H26.679ZM24.7206 92.1555V92.2458C24.7206 92.3489 25.1745 92.8645 26.0824 93.8055C26.4974 93.6251 26.692 93.4962 26.692 93.393L25.4598 92.0524C25.2653 92.1684 25.0189 92.1942 24.7206 92.1555ZM29.1822 56.2036C29.1822 56.3325 29.0655 56.4227 28.8709 56.4743L28.6504 56.3454C28.5078 56.3454 28.4429 56.3969 28.4429 56.5258L33.4882 62.2879H33.6049C33.7735 62.1204 33.9162 62.043 34.02 62.0559V61.8497C34.02 61.7594 32.4117 59.8774 29.1822 56.2165V56.2036ZM26.4974 91.8075C26.4974 91.9106 26.8736 92.3489 27.6258 93.1223C27.6258 92.9805 27.8333 92.8774 28.2613 92.8001C28.2613 92.7098 27.9371 92.3489 27.3275 91.7172C26.8865 91.7817 26.6142 91.8075 26.4974 91.7946V91.8075ZM30.4143 56.1907C30.4662 56.3325 31.8799 57.9696 34.6555 61.1149L35.0705 60.4317C34.9797 60.4317 33.7476 58.9879 31.3611 56.1262C31.2444 56.1778 30.9202 56.2036 30.4143 56.1907ZM28.3781 91.5754C28.4818 91.6012 28.7153 91.8719 29.0914 92.4133C29.4027 92.2586 29.6361 92.1942 29.8177 92.2329V92.1168C29.8307 92.0266 29.5583 91.7043 29.0136 91.1629C28.5856 91.3305 28.3781 91.4723 28.391 91.5754H28.3781ZM29.8177 90.6602C29.8177 90.7504 30.142 91.1114 30.7516 91.743C30.998 91.6399 31.1796 91.4594 31.2703 91.1887C31.2314 91.1887 30.985 90.9438 30.5311 90.4668C30.2198 90.6215 29.9863 90.686 29.8048 90.6602H29.8177ZM32.5155 56.0876C32.5155 56.1907 33.579 57.4282 35.706 59.8129L36.1081 59.2458C36.0562 59.0911 35.1743 58.0469 33.4493 56.1391L32.5155 56.0876ZM33.3196 71.0536C33.2547 71.6594 33.2158 72.0075 33.2029 72.0977C33.5141 72.4071 33.6827 72.5747 33.7217 72.5747H33.8124C33.8124 72.4458 33.9551 72.2653 34.2404 72.0461L33.3066 71.0665L33.3196 71.0536ZM33.7476 69.0684C33.6568 69.5325 33.592 69.829 33.5271 69.945L34.7592 71.2856C34.9149 71.3114 35.0575 71.0793 35.1872 70.6153L33.7476 69.0555V69.0684ZM34.1626 67.0446L33.9811 67.7407C33.9811 67.9211 34.4609 68.5012 35.4077 69.5067L35.5245 69.0168V68.6172C35.5245 68.5141 35.0705 67.9985 34.1626 67.0575V67.0446ZM34.9019 56.3711C34.9019 56.4614 35.5115 57.1833 36.7696 58.5239H36.8604C36.8604 58.395 37.003 58.2016 37.2884 57.9696C36.588 57.0286 35.7968 56.5001 34.9019 56.3711ZM34.5128 64.9176C34.5128 65.227 34.448 65.5235 34.2923 65.82L35.8357 67.5086C35.9784 67.2122 36.0433 66.9157 36.0562 66.6063L34.5128 64.9176ZM35.4726 63.6157C35.4726 63.7575 35.3169 63.9379 35.0446 64.1571L36.3805 65.6266L36.575 64.7243L35.5634 63.6415L35.4726 63.6157ZM36.5102 62.2106C36.5102 62.3524 36.3675 62.5715 36.0822 62.868L36.9252 63.7317L37.016 62.7133C37.016 62.7133 36.8085 62.5458 36.5102 62.2235V62.2106ZM34.4998 91.3176C34.3053 91.6012 34.2015 91.859 34.1886 92.1168L36.4453 94.6434C36.4453 94.5532 36.4713 94.218 36.5491 93.6379L34.4869 91.3176H34.4998ZM34.1756 93.4704V93.5606C34.2534 93.9473 34.2794 94.1665 34.2794 94.218C34.2145 94.3083 34.1756 94.4372 34.1756 94.5919L36.3416 97.0153V95.984C36.3416 95.8809 35.6282 95.043 34.1756 93.4704ZM34.1626 95.9583V96.9895C34.1626 97.0797 34.6685 97.6856 35.6931 98.7942C35.9136 98.4848 36.0173 98.2141 36.0173 97.995L34.1626 95.9583ZM34.2275 98.5751V99.0907C34.2275 99.6321 34.435 100.045 34.85 100.315L34.9408 100.341C34.9408 100.341 35.0186 100.006 35.1483 99.529L34.2145 98.5622L34.2275 98.5751ZM35.4596 89.9383L35.0316 90.5958L36.6658 92.4133C36.6658 91.9622 36.7177 91.6141 36.7955 91.395L35.4596 89.9512V89.9383ZM36.3027 88.3915C36.3027 88.559 36.1989 88.7524 35.9784 88.9844V89.0747C35.9784 89.1649 36.2897 89.5258 36.9122 90.1575V90.0672H36.8214C36.8863 89.9254 36.9122 89.8223 36.9252 89.745L36.8214 89.5258C36.8863 89.4098 36.9122 89.3067 36.9252 89.2293C36.8085 88.8942 36.601 88.6106 36.3156 88.4044L36.3027 88.3915Z" fill="#293EB0"/>
<path d="M75.2641 53.1616C80.0241 53.8062 82.3846 54.2573 82.3716 54.5022C82.4365 54.5022 82.5791 54.8245 82.8256 55.4562C82.6699 56.6937 82.4884 57.8925 82.2549 59.0655C82.2938 59.3362 82.3198 59.5812 82.2938 59.8003H82.203C82.203 59.8003 82.229 59.8905 82.2938 59.8905C82.2938 59.9679 82.2549 60.071 82.1771 60.187C81.9047 62.8812 81.7231 64.905 81.6194 66.2714L81.5286 67.6249C81.5156 67.8183 81.0228 68.4628 80.0371 69.5843C79.4664 70.5124 78.8438 71.4019 78.1694 72.2526C78.1694 72.3815 77.3782 73.5288 75.8218 75.7073C75.7959 75.9909 75.6921 76.1198 75.4846 76.1069H75.2771C75.0696 76.0812 74.9788 76.0296 74.9788 75.9522L74.4341 76.0296C74.1098 76.0038 72.9944 75.6429 71.0749 74.9468L70.8544 75.0499L70.569 74.8179L69.1164 74.7147L68.4939 74.5601C67.9362 74.5987 67.6638 74.6503 67.6508 74.7147L67.4433 74.5987L67.132 74.573C66.3409 74.5214 65.5627 74.6632 64.7975 75.0241V74.9339C63.682 75.1272 63.0984 75.4882 63.0595 76.0554C62.8779 76.0554 62.398 76.9062 61.6198 78.6464V78.7624C61.6717 78.8913 61.6847 78.9944 61.6847 79.0718C61.5939 79.0718 61.3864 79.5487 61.0621 80.4769C60.9195 80.4769 60.8416 80.6058 60.8157 80.8765L60.9195 81.0956C60.6212 82.0366 60.4136 82.5394 60.2969 82.6038L60.3747 82.8229L60.1413 86.0327C60.1024 86.5999 60.2321 87.2702 60.5174 88.0308H60.6341L60.8676 84.7308C60.9065 84.1507 60.9195 83.519 60.8806 82.8616C60.9713 82.6425 61.0492 82.2042 61.0881 81.5339C61.1918 81.5339 61.5939 81.1858 62.2943 80.4769C62.6704 80.5026 63.7469 79.7163 65.4978 78.105C65.6275 78.105 66.3538 77.6538 67.6897 76.7128C68.2864 76.7515 69.3628 76.687 70.9322 76.5194C72.7739 76.571 75.4198 76.5839 78.8568 76.571C78.9865 76.6483 79.0903 76.687 79.1551 76.687C82.216 76.6226 84.4857 76.5452 85.9513 76.4421C86.7036 76.687 87.0797 76.8546 87.0667 76.9448C87.0667 76.9964 87.0148 77.1897 86.924 77.5507C86.924 77.7183 86.924 77.8601 86.9889 77.9761C86.8981 78.337 86.8462 78.6464 86.8203 78.9042L86.7684 79.6261C86.7684 79.6261 86.7295 79.7163 86.6517 79.7163C86.6517 79.7936 86.6776 79.8323 86.7554 79.8452L86.5868 80.5542L86.509 81.6886C86.4831 82.0495 86.4312 82.346 86.3404 82.6167C86.3404 84.7308 86.3793 86.0714 86.4701 86.6515C84.8359 88.5077 83.954 89.7194 83.8113 90.2995C82.8775 91.5112 82.3976 92.2331 82.3846 92.4909L81.2173 94.2827C80.6726 95.1206 80.3872 95.6233 80.3743 95.7651C80.1408 95.7522 79.8684 95.8425 79.5312 96.0358L79.1032 96.1003L79.0384 96.9124L78.9087 97.1187L79.1162 97.2476L78.9865 97.7503C78.9865 97.7503 79.0124 97.8534 79.0773 97.8534C78.9865 97.9565 78.8957 98.3046 78.7919 98.8847C78.8568 99.0136 78.8957 99.1167 78.8827 99.194H78.766L78.8698 99.4003C78.4807 100.341 78.2342 100.805 78.1305 100.805L78.2342 101.025V101.231C77.9748 101.476 77.6895 102.017 77.3782 102.829L76.4314 104.208C76.2239 104.312 75.0177 105.498 72.8258 107.792C72.7091 107.792 71.9049 108.411 70.4004 109.687C69.1553 110.538 68.2345 111.273 67.6249 111.878C67.1839 111.93 66.5354 112.188 65.6924 112.678L65.4849 112.562C65.4849 112.729 65.0828 112.832 64.3305 112.884V113L64.123 112.871L63.7858 113.051C63.7858 113.051 63.695 113.013 63.695 112.948L61.0621 113.18L60.8546 113.051C60.7379 113.116 60.5952 113.142 60.4396 113.142C59.9597 113.103 59.7133 113.026 59.7262 112.884L59.5058 112.961L58.6627 112.897C58.6627 112.897 58.5719 112.858 58.5719 112.794L58.3514 112.871L57.9364 112.845C57.4565 112.665 57.1971 112.587 57.1323 112.575L56.406 112.523C56.2503 112.42 55.7704 112.252 54.9793 112.02C54.8496 112.072 54.7069 112.098 54.5513 112.085C53.8768 111.646 53.1116 111.247 52.2426 110.886C49.7394 109.597 48.3517 108.566 48.0793 107.779C47.327 107.341 46.2246 106.258 44.759 104.531C44.4348 103.822 44.1883 103.461 44.0068 103.448L44.1235 103.242C43.488 102.507 42.6579 100.509 41.6333 97.2605H41.7241C41.5165 96.9511 41.2182 95.8167 40.8291 93.8831C40.8291 93.8187 40.8032 93.78 40.7254 93.78L40.8551 93.5737L40.5438 91.9882H40.6346C40.5827 91.8593 40.5568 91.7562 40.5568 91.6788C40.5568 91.6144 40.5957 91.5886 40.6605 91.5886L40.6087 91.0472L40.7773 88.7913C40.7773 88.6366 40.7643 88.4948 40.6865 88.3659C40.7773 88.2628 40.8162 88.121 40.8291 87.9792C40.8291 87.7987 40.7902 87.4894 40.6865 87.0382H40.7773L40.6994 86.8319C40.7773 86.7159 40.8162 86.5741 40.8291 86.4194H40.7384L40.8551 86.2132C40.8551 86.0585 40.8551 85.9167 40.7902 85.7878C41.0237 85.3624 41.1664 84.8855 41.2053 84.3698L41.2571 83.6479C41.2571 83.4933 41.322 83.3644 41.3998 83.2612C41.3998 83.1839 41.3739 83.1452 41.2961 83.1323L41.4517 82.6296L41.5295 81.5983C41.6852 81.4694 41.9316 80.7991 42.2947 79.5745H42.2039L42.3207 79.3683C42.3207 79.3038 42.2947 79.2651 42.2299 79.2651C42.3336 79.046 42.5282 78.337 42.8006 77.1253C43.034 76.7386 43.6825 75.398 44.759 73.1034C44.8887 73.0647 45.641 71.8788 46.9898 69.5456C48.5332 67.2769 50.2064 65.253 52.0221 63.4612C54.4734 61.1151 56.1336 59.7487 57.0026 59.3491C57.9494 58.4726 58.8313 57.8151 59.6614 57.364C59.6614 57.1964 60.3618 56.8354 61.7236 56.2683C62.411 55.83 62.839 55.6237 63.0206 55.6366C63.0206 55.7011 63.0465 55.7397 63.1243 55.7397C63.1503 55.4304 64.6029 54.9276 67.4952 54.1929C69.1942 53.6128 71.7493 53.2776 75.1993 53.1745L75.2641 53.1616ZM63.5523 60.8444L63.1373 60.7026C59.5317 62.1722 57.5473 63.139 57.1841 63.603L54.1103 65.7687C52.2556 67.6249 50.9067 69.0815 50.0377 70.1386C49.1688 71.5565 48.4295 72.6522 47.8199 73.4128C47.8199 73.5804 47.4567 74.1733 46.7434 75.2046H46.8601C46.043 76.7386 45.5372 77.9116 45.3427 78.7366C45.2778 78.7366 45.1611 78.8526 45.0054 79.1105H45.1222L43.9938 83.0808L43.8381 85.2464L43.4361 86.4839C43.475 86.8448 43.488 87.0511 43.488 87.1026C43.4101 87.3733 43.3583 87.6183 43.3453 87.8245L43.5528 87.9534L43.4231 88.1597V88.2499C43.4231 88.2499 43.4491 88.3401 43.5269 88.353L43.3972 88.5593V88.6753L43.488 88.8944H43.3712L43.475 89.0878C43.3842 89.2167 43.3453 89.3327 43.3323 89.3972H43.4491L43.3194 89.6034V89.6937C43.3194 89.6937 43.3453 89.7968 43.4231 89.7968C43.4231 89.8741 43.3712 89.9128 43.3064 89.8999L43.3842 90.4155L43.2156 91.1245C43.2804 91.2534 43.3064 91.3952 43.3064 91.5499H43.1897L43.4491 92.4909L43.3194 92.6972C43.6566 94.7983 43.9938 96.3452 44.3569 97.3378C44.5645 98.2917 44.8109 98.8331 45.0703 98.9362C45.0703 99.078 45.4205 99.7999 46.1598 101.089C46.1468 101.334 46.912 102.314 48.4684 104.041C48.4425 104.325 48.7667 104.685 49.4282 105.162L49.8951 105.807C50.4528 106.142 50.777 106.4 50.8938 106.606C51.218 106.632 51.5682 106.928 51.9573 107.521C52.0351 107.521 52.1389 107.56 52.2815 107.637C52.2815 107.573 52.3204 107.547 52.3853 107.547C52.4501 107.869 52.8781 108.217 53.6693 108.578C53.825 108.772 54.4605 109.081 55.5759 109.532C55.5759 109.468 55.6148 109.442 55.6796 109.442C55.6796 109.61 56.5227 109.906 58.2217 110.344C58.2217 110.512 58.7276 110.68 59.7652 110.873V110.963L59.9727 110.886L60.699 110.937C60.8546 110.937 60.9843 110.925 61.114 110.847L61.3215 110.976C62.6185 110.847 63.8896 110.667 65.1217 110.409C65.1217 110.254 65.42 110.074 65.9907 109.855C69.2461 107.612 71.1786 105.472 71.7752 103.409C72.1643 102.971 72.4237 101.953 72.5275 100.354L72.5534 100.045L72.4886 99.4132C72.5794 99.3101 72.6183 99.1425 72.6442 98.9104V98.7944C72.6702 98.5882 72.6442 98.4851 72.5534 98.4851L72.7091 97.9823L72.7999 96.6288L72.722 96.1132H72.8388L72.735 95.9069C72.735 95.8425 72.7869 95.8167 72.8517 95.8167L72.748 95.5976C72.748 95.5976 72.7999 95.5073 72.8647 95.5073L72.761 95.2882C72.7999 94.837 72.8128 94.1409 72.8128 93.2128L73.0333 93.1354H73.1241C73.1241 93.1354 73.2149 93.187 73.2149 93.2386L73.4354 93.1612H73.5521C73.5521 93.1612 73.6429 93.2128 73.6429 93.2772L73.8634 93.1999C73.8634 93.1999 73.9542 93.2386 73.9542 93.303C74.032 93.303 74.0709 93.2773 74.0709 93.2128L75.0955 93.3804L76.0294 93.4448C76.5222 93.6253 76.7946 93.7155 76.8594 93.7155L78.5066 93.8315L78.766 93.2128C79.0513 90.3253 79.2329 88.3917 79.2978 87.4507L79.5183 87.3733L79.4145 87.1542L79.4404 86.8319C79.4404 86.8319 79.4793 86.7417 79.5572 86.7417L79.4534 86.5226L79.5312 85.4913C79.5312 85.414 79.5831 85.3753 79.648 85.3882C79.5961 84.7694 79.5183 84.4601 79.3886 84.4601C77.0929 84.4987 74.7972 84.4214 72.5016 84.2151C70.2059 84.0089 67.2358 83.8284 63.6042 83.6479L63.28 83.6222C63.1373 83.6351 63.0595 83.6995 63.0595 83.8155C63.0336 84.112 63.0854 84.3827 63.2151 84.6405C63.2151 84.7179 63.1762 84.7565 63.1114 84.7437C63.1373 85.3624 63.1762 85.6589 63.254 85.6718L63.0854 86.4065L63.0206 87.3218C62.9817 87.8761 63.0206 88.8171 63.1503 90.1319C63.1503 90.2093 63.0984 90.2479 63.0336 90.2351L63.1373 90.4284L63.0076 92.2847C63.0076 92.3878 63.0984 92.4909 63.293 92.6069L64.3305 92.6843C64.4084 92.6843 64.4473 92.6585 64.4473 92.594L64.6289 92.6972L65.1736 92.6456V92.7358C65.1736 92.7358 65.2644 92.7101 65.2644 92.6456C66.1204 92.7745 66.6392 92.9034 66.8078 93.0581C66.9375 93.0065 67.0412 92.9808 67.1191 92.9808V93.071L67.3266 92.9936L68.455 93.071V93.1612C68.2864 93.7284 68.1177 94.1667 67.9491 94.4761C67.9491 94.5405 67.9751 94.5792 68.0399 94.5792C67.573 96.8351 67.145 97.9565 66.7689 97.9179C66.73 98.5237 65.8091 99.2198 64.0063 99.9933C62.839 100.251 61.9181 100.367 61.2697 100.316C60.0505 99.8257 59.0129 99.2585 58.1439 98.6397C57.5992 98.6011 57.0155 98.0726 56.393 97.0671C55.1479 95.7522 54.3048 94.3214 53.8768 92.7487C53.5266 91.8464 53.2932 90.4155 53.1505 88.4433C53.1765 88.1339 53.0986 87.6183 52.93 86.8835L53.0468 85.3237C53.0468 85.3237 53.0208 85.2206 52.956 85.2206L53.0727 85.0144C53.0727 84.937 53.0468 84.8983 52.9819 84.8983L53.0857 84.7179L53.2024 83.1581L53.3321 82.9519H53.2154L53.3451 82.7456L53.2413 82.5522L53.9936 80.9409L53.8898 80.7218C54.5383 79.7808 54.9793 79.0073 55.2127 78.4272C55.6278 78.0405 56.0039 77.5765 56.3541 77.0608C56.4578 77.0608 56.9507 76.5452 57.8326 75.5011C59.2853 74.3796 60.1672 73.6835 60.4785 73.3999C61.6977 72.7812 63.1633 72.3042 64.8623 71.9562C64.8623 71.8788 64.9142 71.8401 64.979 71.853L65.9129 71.9175L66.2371 71.7499H66.4446C66.4446 71.7499 66.5354 71.8015 66.5354 71.8659L66.7559 71.7886L68.9348 71.9433C69.0905 71.9433 69.2202 71.9948 69.3499 72.0722C69.4666 72.0206 69.6093 71.9948 69.7779 72.0077C70.2318 72.0464 70.9192 72.1882 71.8142 72.4589C71.8142 72.3815 71.866 72.3429 71.9309 72.3558V72.562H72.0087C72.4237 72.5878 73.1371 72.8198 74.1487 73.2452L74.1876 72.6136C74.3173 71.0925 74.447 70.3448 74.5638 70.3448C74.5638 70.2804 74.5378 70.2417 74.473 70.2417C74.5897 69.5585 74.6805 69.2233 74.7583 69.2362C74.6935 69.0944 74.6675 68.9784 74.6675 68.9011C74.914 67.4315 75.0566 66.4003 75.0955 65.8202V65.614C75.1215 65.4593 75.1604 65.3304 75.2382 65.2272C75.1863 65.0983 75.1604 64.9565 75.1734 64.8019L75.4198 64.4022C75.3549 64.2733 75.316 64.1702 75.329 64.0929C75.4068 64.0929 75.4457 64.0671 75.4457 64.0026H75.329C75.329 63.9253 75.3809 63.8866 75.4457 63.8866C75.3809 63.6417 75.3549 63.4999 75.3549 63.4612L75.5106 62.9585C75.4457 62.8425 75.4198 62.7007 75.4198 62.5331H75.5365L75.4328 62.3397C75.4328 62.2624 75.4846 62.2237 75.5495 62.2366C75.5884 61.605 75.1344 61.1925 74.1747 60.9991C73.2538 60.664 72.7739 60.4964 72.748 60.4964C72.6183 60.5479 72.4756 60.5737 72.32 60.5608H72.2292C72.0736 60.4319 71.451 60.2386 70.3875 60.0065C69.2721 60.0065 68.6106 60.0065 68.416 59.9808L68.001 59.839L63.5523 60.78V60.8444ZM55.6407 85.2722V85.4784C55.6148 85.5558 55.6407 85.6589 55.7056 85.7878L55.5629 86.4065L57.8715 88.9589C57.7937 87.9534 57.5603 87.2702 57.1971 86.9222L55.6407 85.2593V85.2722ZM56.0947 83.1323C56.0687 83.4417 55.9779 83.7382 55.8223 84.0476L57.5732 85.9296L57.5992 85.6202L57.5603 84.8983C57.5603 84.8983 57.664 84.8726 57.664 84.7952L56.1076 83.1323H56.0947ZM55.7445 88.0952V88.2886C55.7315 88.6495 55.7834 88.83 55.9001 88.83L55.7834 89.0362V89.2296C55.7575 89.3327 57.236 91.0343 60.2061 94.3214L60.258 93.5995C60.2839 93.2128 59.5836 92.2976 58.1439 90.8538C58.1439 90.7636 57.3398 89.8483 55.7315 88.1081L55.7445 88.0952ZM56.6653 81.0956C56.4967 81.5339 56.406 81.8304 56.393 82.0108L57.8586 83.5706V83.4804C57.8586 83.403 57.8326 83.3644 57.7548 83.3515L58.0272 82.5522L56.6653 81.0956ZM56.1595 91.2276V91.3179C56.406 92.2073 56.6394 92.839 56.8469 93.2386L60.9195 97.789L61.9571 97.8663C61.9571 97.7761 60.0375 95.5718 56.1725 91.2276H56.1595ZM57.7159 79.6261C57.4954 79.8968 57.3657 80.1675 57.3528 80.4253L58.3125 81.4308L58.4552 80.7218V80.5155C58.4811 80.4253 58.2217 80.1417 57.7029 79.639L57.7159 79.6261ZM61.7236 58.5241C61.7236 58.6272 61.8792 58.8206 62.2165 59.0913C62.5926 59.1171 62.839 59.0011 62.9687 58.7304L62.4629 58.2792H62.3721C62.0868 58.4597 61.8792 58.537 61.7236 58.537V58.5241ZM63.3578 57.7249C63.3578 57.8022 63.6042 58.0987 64.123 58.6015H64.3305L65.0698 58.5757L64.123 57.364C63.708 57.6218 63.4616 57.7378 63.3708 57.7249H63.3578ZM60.8935 95.0819C60.8935 95.1851 61.6847 96.1003 63.3059 97.8534L63.8636 97.2862L61.9181 95.1593L61.6069 95.1335L61.2697 95.314C61.2697 95.1722 61.2178 95.0948 61.0881 95.0948H60.8806L60.8935 95.0819ZM65.0828 57.003L66.2241 58.4339C66.7818 58.3308 67.0672 58.2147 67.0802 58.073C66.3798 57.2608 65.9647 56.8483 65.8221 56.8354C65.6146 56.9644 65.3552 57.0159 65.0828 56.9901V57.003ZM63.1762 95.0304C63.1762 95.1206 63.6561 95.6749 64.6289 96.6933L65.0828 95.9972L64.2268 95.0948L63.682 95.1722L63.1762 95.0175V95.0304ZM67.6379 56.1522C67.4822 56.4229 67.2617 56.5519 67.0023 56.5261C67.0023 56.6034 67.5082 57.1835 68.5457 58.2792L69.5833 58.3565C69.5833 58.2663 68.9478 57.5315 67.6508 56.1522H67.6379ZM66.9375 80.6702C67.6119 81.4437 68.0918 81.9335 68.3901 82.1269C68.455 82.0624 68.7403 82.0495 69.2202 82.0882C69.2202 81.9979 68.6495 81.3405 67.4952 80.0901C67.3914 80.0901 67.2099 80.2706 66.9375 80.6573V80.6702ZM68.8959 56.0362C70.167 57.6347 70.9452 58.4468 71.2435 58.4726C71.5677 58.4983 71.8012 58.5886 71.9568 58.7304L72.2681 58.7562L69.7779 55.7913L68.9089 56.0362H68.8959ZM68.1567 79.4198C69.8816 81.405 70.8544 82.3976 71.0749 82.4104L71.9179 82.4749C71.9179 82.3976 70.8544 81.1858 68.7273 78.8269H68.6365C68.3512 78.9429 68.1956 79.1362 68.1696 79.4198H68.1567ZM71.2565 55.3659C71.2565 55.5077 71.1008 55.5593 70.8155 55.5464C73.0463 58.2663 74.3044 59.6327 74.5897 59.6456C74.875 59.6585 75.2382 59.8003 75.7181 60.0452C75.6792 59.9034 74.3303 58.3437 71.6715 55.3917L71.2565 55.3659ZM69.8946 78.6077C72.0217 81.173 73.176 82.462 73.3835 82.4878C73.8764 82.5909 74.1876 82.6812 74.3044 82.7585L74.4211 82.5522C74.3303 82.5522 73.1371 81.1858 70.8544 78.4659C70.3226 78.569 69.9984 78.6206 69.9076 78.6077H69.8946ZM73.0204 55.3917C73.0204 55.4819 74.2655 56.9128 76.7816 59.7101H76.8983C76.9891 59.723 77.1707 59.5683 77.4561 59.246L73.9672 55.3659C73.591 55.4046 73.2798 55.4175 73.0204 55.3917ZM72.2032 78.569C74.5897 81.4308 75.8737 82.8745 76.0553 82.8874C76.1202 82.8101 76.4055 82.7972 76.8983 82.8358C74.6416 80.1159 73.4224 78.7495 73.2149 78.7366C72.9555 78.6593 72.6831 78.6077 72.3978 78.5819H72.1903L72.2032 78.569ZM75.2123 55.237V55.3272L78.1045 58.5499L78.5715 57.9569C77.3004 56.3585 76.5352 55.5464 76.2499 55.5206C76.1072 55.5206 76.0423 55.4304 76.0553 55.3015L75.8348 55.3788H75.6273L75.4198 55.2499C75.4198 55.3144 75.3809 55.3401 75.316 55.3401C75.316 55.2757 75.2901 55.237 75.2123 55.237ZM74.6935 78.5304L74.5767 78.7366L78.2342 82.8358H78.4418L79.181 82.8101C79.181 82.8745 79.207 82.9132 79.2718 82.9132V82.8229C79.194 82.8229 77.9748 81.4179 75.6273 78.6077L75.4068 78.7108L74.6935 78.5433V78.5304ZM76.613 69.2362L76.5482 70.1644C76.5482 70.2546 76.6389 70.3577 76.8465 70.4866H76.9373C76.9632 70.2159 77.067 70.087 77.2745 70.0999V69.8937C77.3004 69.8034 77.1059 69.5843 76.7168 69.2362H76.6H76.613ZM77.1059 66.9804C77.0151 67.1222 76.9243 67.4315 76.8335 67.8956L77.91 69.0042L78.351 68.4241C78.351 68.321 77.9489 67.844 77.1059 66.9804ZM77.3393 62.0175C77.4042 62.2366 77.4561 62.3526 77.5209 62.3526L77.4042 62.5589V62.7522C77.3912 62.8296 77.4042 62.8683 77.482 62.8683L77.3653 63.0745C77.3653 63.1647 78.1305 64.0413 79.6739 65.7171L79.7517 64.6858C79.7517 64.5827 78.9865 63.6933 77.4431 62.0175H77.3263H77.3393ZM77.1707 64.3894V64.5054C77.0929 65.4206 77.4042 66.0909 78.0786 66.5421L78.9216 67.6378C79.2848 67.5733 79.4793 67.3413 79.5053 66.9546L77.1707 64.4022V64.3894ZM77.91 55.6366C77.91 55.7397 78.3639 56.2554 79.2589 57.1835C79.5442 56.887 79.6998 56.655 79.7128 56.4874C79.2718 55.9331 78.766 55.6237 78.2213 55.5464C78.0786 55.6108 77.9748 55.6495 77.91 55.6366ZM78.4029 60.4448L77.9359 61.0249C77.9359 61.1151 78.5715 61.8499 79.8684 63.2421L79.8944 62.8296C79.8944 62.6749 79.8944 62.5331 79.8295 62.4042C79.9074 62.2882 79.9463 62.1851 79.9463 62.1077L78.3899 60.4448H78.4029ZM75.4457 97.2605C75.3679 98.2917 75.7959 99.1425 76.7168 99.8386L76.9891 98.9362L75.4328 97.2605H75.4457ZM76.8854 78.5948C76.8983 78.6979 78.0267 79.987 80.2575 82.462L80.8412 81.869C78.8827 79.6519 77.8581 78.5433 77.7414 78.5304C77.6765 78.5304 77.3912 78.5433 76.8983 78.5819L76.8854 78.5948ZM75.4717 99.9546L75.3938 100.999C75.3938 101.089 75.5495 101.269 75.8737 101.553L76.2109 101.063V100.857C76.2369 100.767 75.9775 100.47 75.4587 99.9675L75.4717 99.9546ZM75.8348 96.139C75.8348 96.2421 76.2888 96.7577 77.1837 97.6858L77.3782 96.6675C77.3782 96.6675 77.1188 96.4354 76.6908 95.9843C76.1591 96.0874 75.8737 96.139 75.8348 96.139ZM79.4404 59.0526C79.4275 59.2976 79.2978 59.5296 79.0773 59.7487L80.0371 60.7542H80.1278L80.1538 60.4577C80.1538 60.303 80.1538 60.1612 80.0889 60.0323C80.1668 59.9163 80.2057 59.8132 80.2057 59.7358C80.1797 59.7358 79.9592 59.5038 79.5183 59.0526H79.4275H79.4404ZM79.2848 78.6464C79.2848 78.7495 80.05 79.639 81.6064 81.3147C81.6972 81.3147 81.8788 81.1601 82.1641 80.8378L80.3224 78.6206C79.9592 78.6593 79.609 78.6722 79.2848 78.6464ZM81.6713 78.814L82.8256 80.0386C82.8256 80.0386 82.9812 79.8452 83.2795 79.5616V79.4456C83.2925 79.3683 83.0331 79.0718 82.5273 78.569C81.9696 78.569 81.6713 78.6464 81.6583 78.814H81.6713ZM81.8788 83.1839L81.5286 83.7897C81.5286 83.9702 82.2808 84.8854 83.8242 86.5483C83.8372 86.3034 84.0058 86.0714 84.2912 85.8522L81.8658 83.1839H81.8788ZM81.4248 88.0437C81.4248 88.0437 81.3729 88.1339 81.3081 88.1339L81.4119 88.353L81.1784 88.6366V88.8429C81.1525 88.946 81.347 89.1651 81.7491 89.5132C81.8788 89.5132 82.0214 89.294 82.203 88.8171L81.4378 88.0437H81.4248ZM81.6064 85.5558C81.5934 85.7749 81.5416 85.878 81.4637 85.8651L81.5675 86.0843C81.5675 86.0843 81.5156 86.1745 81.4508 86.1745L81.5545 86.3937L81.4248 86.5999L82.6959 87.9276L83.1628 87.3347C83.1628 87.2573 82.657 86.6644 81.6194 85.5687L81.6064 85.5558ZM83.1109 81.9335L82.644 82.5136C82.644 82.6038 83.1887 83.2355 84.2912 84.4085L84.369 83.3644C84.369 83.2741 83.954 82.7972 83.1109 81.9335ZM84.1615 80.4382L83.8113 81.044V81.1343C83.7983 81.2374 83.9799 81.4565 84.369 81.8046L84.4468 80.7733C84.4468 80.6702 84.356 80.5542 84.1615 80.4253V80.4382Z" fill="#293EB0"/>
<path d="M110.361 51.6017H110.451L111.684 51.795C111.658 54.1669 111.58 56.1263 111.476 57.6989L111.554 57.9181L111.437 58.1243C111.437 58.1243 111.463 58.2919 111.515 58.4337C111.515 58.511 111.476 58.6142 111.398 58.7302C111.385 60.9216 111.346 62.3653 111.294 63.0743C111.268 63.461 110.957 63.8606 110.361 64.2731C109.712 65.0079 108.804 66.4259 107.65 68.5271C107.287 68.8364 106.975 69.2231 106.742 69.7001C105.756 69.6356 105.095 69.7259 104.745 69.9837L102.968 69.8548C102.955 70.0997 101.995 70.306 100.114 70.4864C100.114 70.5509 99.9977 70.5767 99.7772 70.5638C99.7123 70.5638 99.6864 70.5251 99.6864 70.4606C98.545 70.4478 97.3907 70.5638 96.2234 70.8216C95.8862 70.7958 95.536 70.8216 95.1599 70.8603V70.9505H95.2637C96.833 70.9892 97.6372 70.9763 97.6631 70.9118C97.7669 70.9892 97.9095 71.0407 98.0781 71.0536C99.1546 71.131 99.8939 71.1181 100.27 71.002V71.0923L100.465 71.0149L101.204 71.1567V71.0665C101.36 71.131 101.8 71.2341 102.54 71.3759C103.318 71.3501 103.979 71.2985 104.537 71.1954C104.654 71.2856 104.797 71.3243 104.952 71.3372L105.263 71.363L105.484 71.2599V71.3759L105.691 71.2728H105.899C107.442 71.2599 108.234 71.247 108.298 71.247C108.376 71.247 108.48 71.2985 108.597 71.3759L108.817 71.2728C109.492 71.3243 109.842 71.8399 109.855 72.8196C109.803 76.4548 109.712 79.136 109.582 80.8763L109.634 81.8173L109.505 82.0235C109.505 82.0235 109.531 82.1267 109.608 82.1267L109.453 82.6552C109.44 82.8614 109.466 82.9645 109.543 82.9645C109.543 83.0419 109.492 83.145 109.401 83.261C109.375 84.8981 109.388 85.736 109.427 85.7618L109.31 85.9681C109.362 86.097 109.388 86.2001 109.388 86.2774L109.271 86.4837C109.323 86.6126 109.349 86.7157 109.349 86.7931L109.206 87.4118H109.297C109.219 87.5407 109.18 87.6438 109.18 87.7212C109.18 87.7856 109.206 87.8243 109.271 87.8243L109.141 88.327L109.115 88.6493C109.103 88.8556 109.115 88.9587 109.193 88.9587L109.064 89.4614C109.025 90.0802 109.025 90.4927 109.064 90.6989C108.96 91.3048 108.882 91.8204 108.856 92.2458L108.778 93.277C108.778 93.4317 108.713 93.5606 108.636 93.6895L108.739 93.9087C108.649 94.0247 108.61 94.1278 108.597 94.2052H108.713L108.584 94.4114C108.584 94.4501 108.584 94.9013 108.597 95.7649L108.467 95.9454L108.571 96.1645C108.48 96.2934 108.441 96.4095 108.428 96.4739H108.545L108.415 96.6802L108.376 97.1958L108.48 97.4149H108.363L108.467 97.6083L108.441 98.0208C108.441 98.1626 108.35 98.227 108.221 98.2142C108.247 98.4977 108.311 98.6395 108.402 98.6524L108.272 98.8587L108.221 99.5806C108.169 100.38 108.039 101.643 107.857 103.396H107.741L107.844 103.602L107.806 104.118C107.806 104.118 107.767 104.208 107.689 104.208L107.793 104.427L107.702 105.781C107.676 106.077 107.507 106.438 107.196 106.877C106.599 107.985 106.21 108.617 106.029 108.784C106.016 108.991 105.588 109.609 104.745 110.654C103.422 112.909 102.605 114.031 102.319 114.018L102.099 114.095L99.6086 113.915C99.5308 113.915 99.4918 113.941 99.4918 114.005L98.6877 113.76C98.1949 113.76 97.9484 113.812 97.9484 113.902L97.4167 113.773L97.1054 113.747L96.5866 113.812V113.722C96.4569 113.773 96.3531 113.799 96.2753 113.799L95.7695 113.67L95.2248 113.722L94.8357 113.593C94.693 113.593 94.6281 113.606 94.6152 113.67C93.9278 113.554 93.409 113.49 93.0588 113.464L86.3145 112.987C86.3145 112.987 86.094 112.729 85.8475 112.226H85.9383L85.8605 112.02L85.9772 111.814C85.9772 111.814 85.9513 111.711 85.8865 111.711C86.0421 110.77 86.1588 110.19 86.2237 109.958C86.1588 109.841 86.1329 109.7 86.1329 109.545V109.339C86.1588 109.261 86.2496 108.888 86.4442 108.217L86.3663 107.998C86.4442 107.882 86.4831 107.779 86.4831 107.702L86.4053 107.483C86.4831 107.379 86.522 107.238 86.535 107.07V106.98C86.535 106.902 86.522 106.864 86.4571 106.864C86.5609 106.322 86.6517 106.052 86.7295 106.065L86.6257 105.845L86.7295 104.402C86.7295 104.402 86.7036 104.299 86.6387 104.299L86.7554 104.092C86.7554 104.015 86.7295 103.976 86.6646 103.976C86.7684 103.358 86.8722 103.061 86.937 103.061L86.8333 102.868L86.8592 102.455C86.8592 102.378 86.9111 102.339 86.9889 102.352L86.8851 102.159L86.9111 101.746C86.9111 101.669 86.963 101.63 87.0408 101.643C86.9759 101.514 86.937 101.411 86.95 101.334C86.95 101.269 87.0019 101.243 87.0667 101.243L86.9759 100.818C86.9759 100.818 87.0537 100.328 87.1834 99.4774L87.1186 98.7427C87.1186 98.7427 87.1705 98.6524 87.2353 98.6524L87.1575 98.1368L87.2742 96.577C87.3002 96.2934 87.365 95.9196 87.4688 95.4427C87.4688 95.3782 87.4428 95.3395 87.365 95.3395L87.5077 94.927C87.5077 94.7981 87.5207 94.1794 87.5207 93.0579C87.5207 92.929 87.5725 92.8645 87.6504 92.8774L87.5855 92.1427L87.8579 88.4173C87.8579 88.4173 87.9098 88.327 87.9746 88.327L87.8708 88.1079L87.8968 87.7856C87.8968 87.7856 87.9487 87.6954 88.0135 87.6954C88.0135 87.6181 87.9876 87.5794 87.9098 87.5665C88.0784 86.3032 88.1821 85.388 88.221 84.8079V84.6017C88.2599 84.2923 88.3507 84.0216 88.5064 83.7767C88.4415 83.6606 88.4026 83.5188 88.4156 83.3642H88.5323L88.4286 83.1579C88.5842 82.9388 88.675 82.7325 88.6879 82.552L88.4934 82.2298L88.5582 81.3017L88.7269 80.5927H88.6101L88.7398 80.3864L88.7658 80.077C88.7658 79.9997 88.7398 79.961 88.662 79.9481C88.8176 79.7419 88.9084 79.5485 88.9214 79.3552L88.9733 78.6333C88.9733 78.4915 88.9214 78.4142 88.7787 78.4142L88.9084 78.2079C88.9344 77.9243 88.9084 77.5505 88.8695 77.0606C88.9992 76.9317 89.1419 76.3903 89.2975 75.4364C91.2819 73.8895 92.6438 72.3942 93.383 70.9505H93.2923L92.955 71.131L90.5686 70.9634C90.4259 70.9634 90.3611 70.8731 90.374 70.7442L90.4778 69.3005C90.4778 69.2231 90.5816 68.8622 90.7631 68.1919L90.7891 67.8696C90.8409 67.1864 90.9447 66.1552 91.1263 64.7759H91.2171L91.1392 64.5825C91.1522 64.3376 91.2041 64.17 91.269 64.054L91.2171 63.4353C91.2949 63.3063 91.3338 63.1903 91.3338 63.113C91.2689 63.113 91.243 63.0743 91.243 63.0099H91.3338L91.256 62.8036L91.3727 62.5974C91.2689 62.1462 91.2171 61.8239 91.23 61.6563C91.3727 61.6563 91.4505 61.6048 91.4505 61.4888C91.4505 61.4114 91.4246 61.3728 91.3597 61.3728L91.4765 61.1665V61.0763C91.4765 60.9989 91.4635 60.9603 91.3987 60.9603L91.5154 60.754C91.4116 60.522 91.3079 59.2329 91.1782 56.8868C92.2287 56.0103 92.8253 55.4688 92.968 55.2626C93.0847 55.2626 93.5257 54.8501 94.3039 53.9993C94.9654 53.0583 95.6787 52.1817 96.4699 51.3696C96.5477 51.2407 96.5866 51.1247 96.5866 51.0474C97.6372 51.0474 98.4024 51.086 98.8823 51.1118L99.6086 51.1634C99.6086 51.1634 99.6994 51.202 99.6994 51.2665L99.9199 51.1892H100.037C100.037 51.1892 100.127 51.2407 100.127 51.3052C100.503 51.2021 100.893 51.1634 101.282 51.202C102.216 51.331 102.877 51.4083 103.24 51.4341V51.3438C103.383 51.4212 103.487 51.4599 103.551 51.4599C104.031 51.4985 104.278 51.447 104.291 51.3052L104.822 51.4599L105.134 51.4856C105.289 51.4856 105.432 51.4728 105.562 51.3954L105.769 51.5243C106.145 51.4728 106.457 51.4599 106.69 51.4728C106.768 51.4728 106.872 51.5243 107.001 51.6145C107.715 51.5243 108.83 51.5372 110.348 51.6403L110.361 51.6017ZM96.9887 77.8212L96.7811 77.7052L95.6398 77.6278C95.4842 77.6278 95.3545 77.6278 95.2377 77.6923C95.1599 77.6923 95.121 77.6536 95.134 77.5892C95.0821 77.5892 94.8746 77.602 94.5114 77.6407C92.6308 77.4474 91.4894 77.3313 91.0744 77.3056L90.9577 77.5118C90.9317 77.9243 90.9058 78.7364 90.8799 79.9868C90.7631 80.7989 90.6853 81.379 90.6594 81.727L90.7112 82.3587L90.5945 82.5649L90.6334 83.2868C90.5945 83.9056 90.4518 84.8595 90.2184 86.1614C90.2832 86.2903 90.3092 86.4321 90.3092 86.5868C90.1535 86.806 90.0628 86.9993 90.0498 87.1798L89.7255 91.7173C89.7385 91.8591 89.8034 91.9364 89.9201 91.9364C89.7644 92.1556 89.6737 92.3618 89.6607 92.5423L89.6218 93.0579L89.6737 93.6895C89.6737 93.6895 89.6347 93.7798 89.5699 93.7798V95.0173V95.1333C89.4661 96.4997 89.3494 97.3892 89.1808 97.8017C89.2975 98.0079 89.3494 98.6009 89.3624 99.5677C89.2067 100.754 89.1159 101.437 89.103 101.63V103.293C89.0252 103.693 88.9344 103.886 88.8436 103.886L88.9214 104.105V104.221C88.8955 104.453 88.8566 104.621 88.7787 104.724L88.8306 105.356C88.8306 105.356 88.7917 105.446 88.7269 105.446L88.8047 105.665C88.7917 105.897 88.7398 106.065 88.675 106.168L88.7269 106.799C88.5842 107.006 88.5064 107.199 88.4934 107.392L88.2989 110.19C88.2989 110.344 88.234 110.473 88.1562 110.602C88.221 110.705 88.247 110.911 88.221 111.221L88.8306 111.259C89.0252 111.272 90.2314 111.285 92.4752 111.311L94.5633 111.453C94.7189 111.453 94.8486 111.517 94.9783 111.595C95.0432 111.595 95.0821 111.569 95.0821 111.492L95.5879 111.646H95.7046C95.8603 111.659 95.99 111.646 96.1197 111.569L96.3272 111.698C96.82 111.595 97.2351 111.556 97.5853 111.582H97.702C97.702 111.582 97.7928 111.633 97.7928 111.698C98.2078 111.582 98.6618 111.556 99.1676 111.582C99.7772 111.698 100.114 111.762 100.192 111.762C100.322 111.698 100.465 111.672 100.62 111.685C100.685 109.958 100.75 108.578 100.815 107.56V107.354C100.815 107.354 100.802 107.25 100.724 107.25L100.854 107.044L101.061 104.157C101.061 104.079 101.1 104.041 101.165 104.054L101.087 103.86L101.139 103.138C101.165 102.997 101.23 102.932 101.347 102.945C101.256 102.636 101.178 102.172 101.139 101.579L101.489 99.6321C101.437 99.5032 101.411 99.3614 101.424 99.2067L101.528 99.0005C101.489 98.7298 101.463 98.4849 101.489 98.2657C101.567 98.1497 101.606 98.0466 101.606 97.9692H101.515L101.619 97.763C101.567 97.6212 101.541 97.5181 101.541 97.4536H101.632L101.554 97.2474L101.71 96.3192L101.658 95.8036L101.762 95.5974L101.684 95.3782C101.762 95.2622 101.8 95.1591 101.8 95.0817H101.71C101.852 94.8368 101.943 94.5532 101.956 94.2567L102.203 90.8536L102.358 90.3509H102.241L102.371 90.1446L102.449 89.0103C102.449 88.8556 102.501 88.7267 102.579 88.5978C102.579 88.5333 102.553 88.4946 102.488 88.4946C102.631 87.3345 102.773 86.7544 102.916 86.7673C102.916 86.6899 102.89 86.6513 102.825 86.6513L102.955 86.1485V85.9423C102.981 85.736 102.955 85.6329 102.89 85.6329C103.033 84.4727 103.175 83.8927 103.318 83.9056C103.188 83.6735 103.136 83.4544 103.149 83.261L103.175 82.9517C103.175 82.9517 103.266 82.6165 103.448 82.1267L103.513 81.1985C103.513 81.1985 103.487 81.0954 103.422 81.0954C103.5 80.9021 103.577 80.7989 103.655 80.8118L103.551 80.5927C103.551 80.5153 103.603 80.4767 103.668 80.4895L103.564 80.2704V80.1802C103.577 80.0255 103.629 79.8966 103.72 79.7677L103.616 79.5485L103.746 79.3681C103.681 79.2263 103.655 79.1103 103.655 79.0329C103.655 78.9556 103.707 78.8653 103.798 78.7364L103.733 78.1048L101.554 77.9501L101.23 78.1435L100.387 78.079C100.387 78.079 100.296 78.0403 100.296 77.9759L100.075 78.0532L99.1417 77.9888C98.986 77.9888 98.8563 77.9372 98.7266 77.8599C98.6618 77.8599 98.6229 77.8856 98.6229 77.9501L97.287 77.6407C97.0795 77.7052 96.9757 77.7696 96.9627 77.8341L96.9887 77.8212ZM104.109 58.7173C103.979 58.6399 103.863 58.6013 103.785 58.6013V58.6915C103.72 58.6915 103.681 58.6528 103.694 58.5884C102.76 58.5884 102.06 58.5626 101.606 58.5368L101.204 58.511C101.035 58.511 100.906 58.4595 100.789 58.3821C100.088 58.4466 99.7383 58.5239 99.7383 58.6142C99.5178 58.4595 99.3103 58.3692 99.1287 58.3563C98.8952 58.4724 98.7136 58.5368 98.5969 58.5239C98.3635 58.511 98.1949 58.4595 98.0911 58.395C97.5982 58.4208 97.2221 58.4337 96.9368 58.4079L96.6255 58.3821L96.0029 58.2403C95.8732 58.2919 95.5231 58.3435 94.9524 58.3821L94.2391 58.2146C93.6035 58.4079 93.2793 58.5626 93.2663 58.6657L93.2015 59.5938C93.3182 60.0063 93.3571 60.8056 93.3312 61.9915L93.2015 62.404C93.2015 62.4813 93.2144 62.5845 93.2793 62.7134L93.1366 63.3321C93.1107 63.6802 93.1107 64.0927 93.1366 64.5696C92.981 65.8458 92.8642 67.0833 92.7735 68.2821L92.7345 68.7978C92.7345 68.9396 92.7994 69.0169 92.9161 69.0169C95.99 68.9138 97.5464 68.7462 97.5593 68.5013L97.9614 68.5271C99.2714 68.6173 101.191 68.5271 103.733 68.2048C104.641 68.2692 105.095 68.1661 105.121 67.8825C105.147 67.5474 105.186 67.3669 105.25 67.3798L105.186 66.8642L105.225 66.3485C105.225 66.3485 105.315 66.0134 105.497 65.5493V65.3431C105.523 65.2657 105.484 65.227 105.406 65.227L105.536 65.0208L105.704 62.7649C105.73 62.4169 105.666 62.2493 105.536 62.2364C105.691 62.0173 105.782 61.811 105.795 61.6306H105.678C105.769 61.5017 105.808 61.3985 105.821 61.3212C105.834 61.1149 105.964 60.2255 106.21 58.6528L106.029 58.5239L104.978 58.4466C104.667 58.627 104.394 58.7173 104.135 58.6915L104.109 58.7173ZM92.9421 74.6372L93.824 75.5395L94.3428 75.4622L94.8486 75.6169C94.8486 75.5138 94.4077 74.9981 93.4998 74.0571C93.396 74.0571 93.2144 74.2505 92.9421 74.6501V74.6372ZM95.7046 55.1337C95.4712 55.5333 95.3545 55.804 95.3415 55.9329L95.8214 56.3841L96.859 56.4614C96.859 56.3583 96.4828 55.92 95.7046 55.1337ZM94.3298 72.652L94.0964 73.2708L96.2105 75.604L97.2481 75.6813C97.2481 75.604 96.3921 74.6114 94.6541 72.6907L94.3298 72.6649V72.652ZM96.7552 53.6384C96.7552 53.6384 96.5996 53.8962 96.2883 54.2313C97.4167 55.7653 98.2338 56.5388 98.7266 56.5774H98.8174L99.0379 56.5001C99.1676 56.5774 99.2714 56.6161 99.3362 56.6161C99.3362 56.5259 98.4802 55.5333 96.7422 53.6255L96.7552 53.6384ZM96.0029 72.6778C97.7409 74.8692 98.8174 75.9907 99.2195 76.0165H99.414C99.4918 76.0294 99.5308 76.0165 99.5308 75.9392L99.7383 76.0552H99.9458C98.0392 73.722 96.9368 72.536 96.6514 72.5102C96.3661 72.6263 96.1456 72.6907 96.0029 72.6778ZM97.5204 52.9681C97.5204 53.0712 98.558 54.2571 100.607 56.513L101.645 56.5903C99.7123 54.2442 98.6488 53.0583 98.4672 53.0454C98.1819 53.0196 98.0522 52.981 98.0522 52.9165C97.9355 52.9681 97.7539 52.9938 97.5334 52.981L97.5204 52.9681ZM98.3116 72.6263C98.3116 72.7165 99.2714 73.8251 101.204 75.9392L102.241 76.0165C100.724 74.1345 99.7253 73.0259 99.2584 72.6907C99.1806 72.6907 99.1417 72.7165 99.1417 72.7938L98.6358 72.6392L98.3246 72.6134L98.3116 72.6263ZM100.011 53.1485C100.011 53.2388 100.97 54.3474 102.903 56.4614L103.941 56.5388C103.941 56.4614 102.955 55.3271 100.957 53.1228H100.75L100.011 53.1485ZM100.893 72.9228L103.577 76.1067C103.928 76.0681 104.109 76.0036 104.109 75.9392L104.317 76.0681C104.459 76.0681 104.537 76.0165 104.537 75.8747L101.839 72.8712H101.632L100.893 72.9228ZM102.605 53.329V53.445C102.592 53.5224 103.525 54.5923 105.406 56.6419L106.444 56.7192C106.444 56.6419 105.484 55.5333 103.551 53.4063L102.618 53.3419L102.605 53.329ZM104.887 53.3935C104.887 53.4837 105.653 54.3603 107.209 56.036C107.429 55.7524 107.559 55.4946 107.572 55.2368L105.938 53.4579L105.717 53.5353L105.095 53.3935H104.887ZM103.474 73.2063C103.474 73.2966 104.148 74.07 105.51 75.5267H105.601C105.834 75.1528 105.951 74.9208 105.964 74.8306L104.407 73.1677C104.031 73.2063 103.72 73.2192 103.461 73.1935L103.474 73.2063ZM103.876 96.6802L103.746 97.0927H103.837L103.733 97.286C103.707 97.6727 104.537 98.7427 106.21 100.483L106.249 99.8513L106.171 99.6579H106.262C106.288 99.3743 105.484 98.3817 103.863 96.6931L103.876 96.6802ZM103.811 99.2712C103.785 99.5935 103.707 99.8255 103.551 99.9802C103.538 100.174 104.369 101.153 106.042 102.945V102.752C106.119 101.914 105.821 101.269 105.16 100.818C105.16 100.715 104.719 100.199 103.811 99.2712ZM103.435 101.514V101.63H103.525L103.422 101.811L103.383 102.339L103.461 102.558C103.461 102.558 103.357 102.584 103.357 102.649L105.782 105.304L105.899 105.098L105.925 104.698C105.951 104.311 105.121 103.242 103.448 101.501L103.435 101.514ZM103.448 104.208C103.292 104.427 103.201 104.634 103.188 104.827V105.033C103.162 105.124 103.707 105.742 104.809 106.902C105.043 106.541 105.16 106.271 105.173 106.103L103.448 104.208ZM103.085 106.464L103.046 106.98C103.227 107.637 103.37 108.037 103.474 108.153L103.759 108.385C103.876 108.385 104.031 108.166 104.226 107.689L103.072 106.464H103.085ZM104.161 94.3083L103.966 95.3267L106.47 98.0981V97.8919L106.405 97.6728C106.483 97.5696 106.522 97.4278 106.534 97.286H106.444L106.56 97.0798C106.56 96.9767 105.769 96.0614 104.161 94.3083ZM104.343 91.8204L104.265 92.8645C104.265 92.9548 105.056 93.87 106.664 95.636C106.69 95.3138 106.742 95.1204 106.82 95.0173H106.612L106.729 94.7981V94.5919C106.755 94.5017 105.951 93.5864 104.356 91.8204H104.343ZM105.782 73.1548C105.782 73.245 106.029 73.5415 106.547 74.0442L107.014 73.3481L106.807 73.2192L105.769 73.1419L105.782 73.1548ZM104.602 89.4743L104.68 89.6677L104.654 89.9899C104.654 90.1446 104.602 90.2735 104.524 90.3767C104.511 90.57 105.276 91.4852 106.82 93.1352C106.82 93.0708 106.911 92.8001 107.092 92.336C107.053 92.1813 106.223 91.2274 104.589 89.4614L104.602 89.4743ZM105.069 87.3087C105.069 87.4505 105.017 87.5149 104.952 87.5149L105.03 87.7341C104.874 87.9532 104.797 88.1208 104.784 88.2368L107.118 90.7892L107.196 89.7579C107.196 89.6677 106.496 88.8556 105.069 87.3216V87.3087ZM105.769 77.5118C105.704 78.427 105.977 79.0716 106.573 79.4454C106.573 79.5485 106.95 79.9868 107.728 80.7731L107.754 80.4638C107.754 80.4638 107.728 80.3606 107.663 80.3606C107.741 80.2317 107.78 80.1157 107.78 80.0384C107.806 79.6517 107.17 78.8009 105.886 77.5118H105.769ZM105.419 82.4618L105.523 82.681L105.393 82.8872C105.354 83.4544 106.055 84.447 107.481 85.8392C107.585 85.3622 107.676 85.0528 107.754 84.9239L105.523 82.4747H105.406L105.419 82.4618ZM105.354 84.9497C105.354 85.027 105.302 85.0657 105.237 85.0528C105.237 85.1173 105.263 85.156 105.341 85.156L105.199 85.5685C105.173 85.9552 105.834 86.8317 107.196 88.1981L107.39 87.1798L105.354 84.9497ZM105.795 80.1028C105.795 80.1802 105.821 80.2833 105.886 80.4122C105.782 80.786 105.73 81.0567 105.717 81.2372L107.468 83.1192C107.468 82.9774 107.559 82.913 107.689 82.9259V82.7325C107.702 82.6552 107.676 82.6165 107.598 82.6036L107.728 82.3974V82.3071C107.741 82.2169 107.092 81.4821 105.795 80.0899V80.1028ZM107.87 58.3821C107.844 58.8204 107.78 59.1685 107.702 59.4005L109.531 61.3985V61.2825C109.608 60.3544 109.18 59.5423 108.259 58.8204C108.259 58.7044 108.143 58.5626 107.87 58.3692V58.3821ZM107.806 60.9731C107.793 61.1794 107.702 61.4114 107.546 61.6821C107.546 61.8626 107.909 62.3267 108.687 63.1001C108.687 63.0614 108.843 62.9067 109.141 62.6231V62.5329C109.154 62.4298 108.7 61.9142 107.806 60.986V60.9731ZM106.924 76.1454C106.924 76.2872 106.755 76.4806 106.457 76.7384L107.728 78.0661C107.754 77.6278 107.819 77.2798 107.896 77.0477L107.014 76.1454H106.924ZM108.636 56.6548C108.636 56.7708 108.532 57.0415 108.363 57.4798L109.518 58.7044L109.44 58.4853L109.492 57.7634L109.608 57.5571L108.726 56.6548H108.636Z" fill="#E0236B"/>
</g>
<defs>
<clipPath id="clip0_141_159">
<rect width="167" height="132" fill="white" transform="translate(0 0.103516)"/>
</clipPath>
</defs>
</svg>
