<svg width="146" height="153" viewBox="0 0 146 153" fill="none" xmlns="http://www.w3.org/2000/svg">
<path d="M82.4215 62.1278C72.4633 62.7271 63.5905 71.2903 62.6383 81.2185C61.6861 91.15 68.7644 101.241 78.4263 103.725C88.0881 106.209 99.1583 100.779 103.11 91.6195C105.168 86.8551 105.401 81.4315 104.415 76.3376C103.966 74.0104 103.257 71.7064 102.028 69.6788C98.0763 63.1699 89.6696 61.6916 82.4215 62.1278Z" fill="#E0236B"/>
<path d="M82.285 122.4C80.3473 122.4 78.4229 122.256 76.5318 121.963C69.1007 120.822 61.786 117.592 55.3803 112.625C52.0143 110.014 49.5006 107.377 47.6994 104.567C45.9115 101.777 44.5864 98.5013 43.4045 93.9467C40.3714 82.2806 41.7331 70.8342 47.2399 61.715C55.2704 48.4108 63.4873 42.0983 75.6029 39.9242C79.4051 39.2417 85.3148 38.6923 91.8636 39.9408C99.2749 41.3558 105.684 44.7252 110.914 49.9523C117.626 56.6643 121.978 64.8479 123.503 73.6209C124.974 82.0975 123.779 90.8071 120.047 98.801C116.441 106.522 110.042 113.121 102.028 117.379C95.8223 120.678 88.9837 122.396 82.2883 122.396L82.285 122.4ZM75.8926 41.5489C64.2964 43.6298 56.4057 49.7192 48.6483 62.5706C43.3745 71.3069 42.0794 82.3039 44.9993 93.5372C46.1379 97.9154 47.3998 101.045 49.0877 103.682C50.7857 106.332 53.1729 108.832 56.3891 111.326C62.5751 116.12 69.6267 119.237 76.7815 120.339C78.6027 120.618 80.4405 120.755 82.2717 120.755C97.2639 120.755 112.206 111.689 118.549 98.1085C126.046 82.0542 122.674 64.0522 109.746 51.1242C104.755 46.1335 98.6356 42.9173 91.5507 41.5656C85.2482 40.3637 79.5549 40.893 75.8893 41.5523L75.8926 41.5489Z" fill="#BCBEC0"/>
<path d="M12.681 21.1866C17.3488 24.799 29.8506 32.4399 34.0423 36.1521C34.2487 36.3353 32.9935 36.2221 35.4073 35.1334C33.7293 33.5186 32.0546 31.9039 30.4965 30.136C26.4879 27.529 22.8189 24.3928 19.6227 20.837C19.4762 20.6738 19.3198 20.504 19.11 20.4508C18.9569 20.4108 18.7937 20.4375 18.6372 20.4641C17.0591 20.7338 13.4567 20.8903 12.6843 21.1899L12.681 21.1866Z" fill="#BCBEC0"/>
<path d="M34.009 37.0475C33.9624 37.0475 33.9124 37.0442 33.8658 37.0375C33.5229 36.9842 33.2499 36.7612 33.1334 36.4549C30.643 34.3474 25.8487 31.1578 21.2042 28.0648C17.5951 25.6644 14.1892 23.3937 12.1782 21.8389C11.9418 21.6558 11.8253 21.3628 11.8686 21.0698C11.9119 20.7768 12.1083 20.5271 12.3847 20.4206C12.9107 20.2142 14.0327 20.1076 15.8172 19.9445C16.8194 19.8546 17.8582 19.7614 18.4974 19.6515C18.6938 19.6182 18.9935 19.5649 19.3231 19.6515C19.7759 19.7713 20.0622 20.0943 20.2353 20.2841C23.3883 23.7899 26.9906 26.8729 30.946 29.4432C31.0092 29.4832 31.0658 29.5331 31.1158 29.5897C32.6539 31.3343 34.3453 32.9624 35.98 34.5372C36.1764 34.7269 36.2663 34.9999 36.2197 35.2696C36.1731 35.5393 35.9966 35.769 35.7469 35.8789C35.3274 36.0687 35.0577 36.2118 34.8813 36.315C34.868 36.3916 34.8447 36.4715 34.8114 36.5448C34.6682 36.8544 34.3552 37.0442 34.009 37.0442V37.0475ZM14.7552 21.6991C16.7195 23.1041 19.3597 24.8586 22.1131 26.6931C26.6311 29.6996 31.2922 32.8025 33.9224 34.97C33.9491 34.9533 33.9724 34.9367 33.999 34.9234C32.6306 33.5983 31.2456 32.2299 29.9471 30.765C25.9086 28.1281 22.2263 24.9752 19.0035 21.3861C18.9735 21.3528 18.9202 21.2929 18.8803 21.2562C18.8437 21.2596 18.8004 21.2696 18.7704 21.2729C18.0646 21.3928 16.9958 21.4893 15.9604 21.5859C15.5842 21.6192 15.1614 21.6591 14.7552 21.6991Z" fill="#BCBEC0"/>
<path d="M60.2112 57.7263C59.8983 57.7263 59.582 57.6131 59.3356 57.3834C44.3534 43.5831 28.9916 29.7862 13.6798 16.3754C13.1404 15.9026 13.0871 15.0869 13.5599 14.5476C14.0327 14.0082 14.8484 13.955 15.3878 14.4277C30.7162 27.8551 46.0946 41.6654 61.0935 55.479C61.6195 55.9651 61.6528 56.7841 61.1701 57.3102C60.9137 57.5865 60.5675 57.7263 60.2179 57.7263H60.2112Z" fill="#293EB0"/>
<path d="M25.6791 40.5732C25.3894 40.5732 25.1031 40.4767 24.8667 40.2869C19.9259 36.3183 14.1495 32.6526 8.56275 29.1102C5.92588 27.4388 3.20244 25.7076 0.575562 23.9563C0.15606 23.6766 -0.0636791 23.1772 0.016226 22.6778C0.0928018 22.1784 0.455704 21.7722 0.938465 21.6324C2.94608 21.0597 5.79936 20.7201 8.81578 20.3639C12.295 19.9511 15.8774 19.5282 18.2546 18.7358C18.2046 16.0057 17.9916 7.39596 17.8384 1.42971C17.8251 0.903663 18.1314 0.420903 18.6142 0.211152C19.0969 0.0014011 19.6596 0.104612 20.0358 0.470844C27.1573 7.42592 35.1911 15.6195 39.5693 20.3972C39.8223 20.6735 39.9422 21.0464 39.9022 21.4193L38.3307 35.173C38.2741 35.6557 37.9545 36.0686 37.4984 36.2384L26.1319 40.49C25.9854 40.5466 25.8322 40.5732 25.6791 40.5732ZM4.62409 23.5202C6.39865 24.6721 8.19652 25.8108 9.9511 26.9261C15.3847 30.372 20.9947 33.9311 25.9122 37.8099L35.8504 34.0943L37.2653 21.719C33.3234 17.444 26.7612 10.7287 20.5119 4.56598C20.8881 19.435 20.8615 19.6747 20.8482 19.7813C20.7949 20.244 20.4986 20.6402 20.0691 20.8234C17.4089 21.9553 13.1972 22.4547 9.12208 22.9375C7.53397 23.1273 5.99247 23.3071 4.62742 23.5202H4.62409Z" fill="#293EB0"/>
<path d="M25.9885 26.1738C25.3326 26.1738 24.7699 25.6777 24.7034 25.0118C24.5435 23.4637 24.5602 21.1764 24.5835 18.5295C24.6101 15.1103 24.6434 11.2348 24.2972 7.91879C24.2239 7.2063 24.74 6.57039 25.4525 6.49714C26.165 6.42722 26.8009 6.93995 26.8741 7.65244C27.2337 11.115 27.2037 15.067 27.1738 18.5528C27.1538 21.1231 27.1338 23.3405 27.2803 24.7455C27.3535 25.458 26.8375 26.0939 26.125 26.1671C26.0784 26.1705 26.0351 26.1738 25.9885 26.1738Z" fill="#293EB0"/>
<path d="M31.5219 30.8083C30.8061 30.8083 30.2268 30.2289 30.2268 29.5131C30.2268 27.6686 30.4565 24.3326 30.6763 21.1064C30.8361 18.7626 31.0025 16.3388 31.0691 14.6241C31.0958 13.9083 31.6984 13.349 32.4142 13.3823C33.13 13.4089 33.686 14.0115 33.6561 14.7273C33.5861 16.4786 33.4197 18.9224 33.2599 21.2829C33.0435 24.4658 32.8171 27.7585 32.8171 29.5131C32.8171 30.2289 32.2378 30.8083 31.5219 30.8083Z" fill="#293EB0"/>
<path d="M18.2943 34.677C17.685 34.677 17.1423 34.2442 17.0225 33.6216C16.8893 32.9191 17.3521 32.2399 18.0546 32.1101L31.4121 29.5831C32.1146 29.4499 32.7904 29.9127 32.9236 30.6152C33.0568 31.3177 32.594 31.9935 31.8915 32.1267L18.534 34.6537C18.4541 34.6703 18.3709 34.677 18.291 34.677H18.2943Z" fill="#293EB0"/>
<path d="M9.23505 29.3001C8.62245 29.3001 8.07643 28.8639 7.96323 28.238C7.83338 27.5355 8.2995 26.8596 9.00533 26.7331C13.5466 25.9041 21.394 24.9852 25.5157 24.599C26.2282 24.5291 26.8608 25.0551 26.9274 25.7676C26.994 26.4801 26.4713 27.1127 25.7588 27.1792C21.8001 27.5521 13.8862 28.4744 9.47144 29.2834C9.39153 29.2967 9.31496 29.3034 9.23838 29.3034L9.23505 29.3001Z" fill="#293EB0"/>
<path d="M32.4275 106.292C39.9486 120.589 53.8221 131.389 69.5235 135.178C85.2282 138.967 102.498 135.681 114.67 126.278C108.191 129.295 101.459 131.872 94.4339 133.197C82.8177 135.388 70.5523 134.019 59.7018 129.325C48.8514 124.63 39.4592 116.63 32.4209 106.292H32.4275Z" fill="#BCBEC0"/>
<path d="M82.5447 137.538C78.1166 137.538 73.6686 137.029 69.3304 135.98C53.3993 132.135 39.3293 121.181 31.6984 106.675C31.4953 106.289 31.6285 105.809 32.0047 105.586C32.3809 105.36 32.8637 105.466 33.11 105.829C40.1117 116.114 49.4207 123.978 60.0348 128.569C70.7021 133.183 82.8643 134.538 94.2874 132.388C100.384 131.239 106.753 129.062 114.327 125.532C114.707 125.356 115.159 125.493 115.379 125.852C115.599 126.212 115.512 126.678 115.179 126.934C106.25 133.829 94.4872 137.538 82.548 137.538H82.5447ZM46.6473 122.596C53.3094 128.216 61.24 132.334 69.7166 134.379C81.456 137.212 94.0311 136 104.589 131.306C101.099 132.514 97.8099 133.4 94.5871 134.006C82.8477 136.22 70.3425 134.825 59.3755 130.08C54.8775 128.136 50.6093 125.619 46.644 122.593L46.6473 122.596Z" fill="#BCBEC0"/>
<path d="M81.1231 140.848C70.8353 140.848 54.9907 138.604 41.4735 125.436C32.9402 117.123 27.1837 107.977 24.3671 98.255C22.0865 90.381 21.7136 82.1108 23.2584 73.6742C25.7521 60.0703 32.4508 50.1354 34.4451 47.412C39.4758 40.5435 43.8506 37.1875 52.3672 31.8138C61.1667 26.2604 70.7853 23.2473 80.9499 22.8545C90.5385 22.4816 100.274 24.5691 109.1 28.8873C116.082 32.2999 122.118 36.8712 127.045 42.4745C131.743 47.8182 135.345 53.9909 137.753 60.8227C142.46 74.1869 142.27 89.3722 137.22 103.582C133.814 113.164 127.378 122.063 119.098 128.636C110.575 135.401 100.667 139.439 90.4487 140.315C90.1723 140.338 89.8594 140.368 89.5098 140.402C87.6054 140.578 84.6988 140.851 81.1197 140.851L81.1231 140.848ZM83.1307 25.4015C82.4348 25.4015 81.7423 25.4148 81.0498 25.4414C71.3447 25.8176 62.1589 28.6975 53.7489 34.0046C45.1424 39.4348 41.2471 42.5078 36.5327 48.9435C34.6216 51.5537 28.1992 61.0791 25.8021 74.1403C24.3271 82.1807 24.6801 90.0514 26.8508 97.5325C29.5443 106.821 35.0711 115.584 43.278 123.582C60.6374 140.495 82.1885 138.481 89.2701 137.821C89.6263 137.788 89.9459 137.758 90.2289 137.735C99.9374 136.902 109.363 133.057 117.487 126.608C125.391 120.332 131.533 111.849 134.776 102.716C139.627 89.0626 139.817 74.4899 135.305 61.6851C130.548 48.1711 121.089 37.6369 107.958 31.2146C100.154 27.3991 91.6106 25.4048 83.1273 25.4048L83.1307 25.4015Z" fill="#293EB0"/>
<path d="M82.8743 107.328C78.5494 107.328 71.9539 106.335 66.3206 100.622C61.0602 95.2852 58.4633 89.0692 58.5965 82.1441C58.723 75.5153 61.3399 70.4779 62.4552 68.6201C65.8645 62.9535 71.6776 58.7285 78.0001 57.3202C81.5392 56.5312 89.1435 56.0151 95.183 59.0715C100.96 61.9947 105.065 66.6924 107.059 72.6553C108.927 78.2387 108.78 84.7243 106.646 90.9137C105.178 95.172 102.531 98.9708 98.9918 101.904C95.3895 104.887 91.1978 106.678 86.8762 107.081C86.7664 107.091 86.6398 107.104 86.5 107.118C85.681 107.201 84.4225 107.328 82.871 107.328H82.8743ZM84.1162 59.2945C81.8755 59.2945 79.9012 59.5509 78.5661 59.8505C72.9195 61.1057 67.729 64.8846 64.6759 69.9585C63.8868 71.2703 61.3066 76.0247 61.1867 82.1974C61.0669 88.3967 63.4141 93.9867 68.1651 98.8043C74.9504 105.686 83.4503 104.824 86.2437 104.541C86.3901 104.528 86.5233 104.514 86.6399 104.501C94.2974 103.788 101.516 97.8521 104.199 90.068C108.331 78.0822 104.239 66.5559 94.0144 61.3821C90.8748 59.7939 87.2358 59.2945 84.1128 59.2945H84.1162Z" fill="#293EB0"/>
<path d="M83.4237 94.7257C82.9276 94.7257 82.4715 94.4394 82.2584 93.9932C79.2286 87.6941 75.4065 81.7944 70.8985 76.4541C70.4357 75.9081 70.5057 75.089 71.0517 74.6296C71.5977 74.1668 72.4167 74.2367 72.8762 74.7827C76.9447 79.6003 80.4705 84.8607 83.3804 90.4508C86.5466 83.7188 90.0158 77.0567 93.7081 70.6143C94.0644 69.9951 94.8534 69.7787 95.476 70.1349C96.0953 70.4911 96.3117 71.2835 95.9555 71.9028C91.8537 79.0543 88.0349 86.4788 84.5989 93.9699C84.3892 94.4261 83.9364 94.7191 83.4337 94.7257H83.4203H83.4237Z" fill="#293EB0"/>
<path d="M46.9503 152.287C44.8095 152.287 42.6487 151.409 41.58 149.501C40.6411 147.826 40.8442 145.948 41.1106 144.324C41.9429 139.223 43.1614 134.146 44.7329 129.228C44.9493 128.546 45.6785 128.169 46.361 128.389C47.0435 128.606 47.4197 129.335 47.2 130.017C45.6685 134.815 44.4799 139.769 43.6675 144.743C43.4544 146.042 43.3079 147.287 43.8406 148.236C44.5731 149.544 47.0202 150.263 49.0744 149.228C51.0554 148.229 52.3106 146.121 53.3327 144.224C54.8442 141.414 56.2093 138.494 57.3946 135.541C57.6609 134.878 58.4133 134.555 59.0792 134.822C59.7418 135.088 60.0647 135.84 59.7984 136.506C58.5798 139.549 57.1715 142.559 55.6133 145.452C54.4048 147.696 52.8966 150.203 50.2397 151.542C49.2675 152.031 48.1122 152.291 46.9536 152.291L46.9503 152.287Z" fill="#293EB0"/>
<path d="M114.157 152.95C113.678 152.95 113.175 152.907 112.649 152.824C110.512 152.481 108.487 151.359 106.952 149.664C105.631 148.209 104.842 146.544 104.142 145.073C103.423 143.558 102.877 142.306 102.348 141.098C101.828 139.906 101.289 138.674 100.587 137.195C100.28 136.55 100.553 135.777 101.199 135.471C101.845 135.165 102.618 135.438 102.924 136.083C103.643 137.598 104.189 138.85 104.718 140.059C105.238 141.251 105.777 142.483 106.48 143.961C107.132 145.332 107.805 146.751 108.87 147.923C109.995 149.165 111.52 150.017 113.058 150.263C114.513 150.496 115.619 150.29 116.345 149.647C117.656 148.485 117.606 146.088 117.596 145.819C117.423 141.181 116.454 137.741 115.229 133.39C114.973 132.484 114.71 131.546 114.444 130.557C114.257 129.868 114.663 129.155 115.356 128.969C116.045 128.782 116.757 129.188 116.944 129.881C117.21 130.86 117.47 131.792 117.723 132.687C118.945 137.026 119.997 140.775 120.183 145.722C120.217 146.628 120.163 149.724 118.059 151.585C117.034 152.491 115.725 152.947 114.154 152.947L114.157 152.95Z" fill="#293EB0"/>
<path d="M57.4112 60.0435C56.7953 60.0435 56.2492 59.6007 56.1394 58.9748C56.0129 58.2723 56.4856 57.5998 57.1881 57.4732C59.2923 57.1004 61.1368 55.3091 61.5696 53.2183C61.7161 52.5191 62.4019 52.0663 63.1011 52.2128C63.8003 52.3593 64.2498 53.0452 64.1066 53.7443C63.454 56.8839 60.7972 59.4642 57.6409 60.0236C57.5644 60.0369 57.4878 60.0435 57.4145 60.0435H57.4112Z" fill="#293EB0"/>
<path d="M141.461 114.296C141.613 114.511 141.661 114.791 141.578 115.06C140.229 119.296 137.816 123.16 134.59 126.227C134.238 126.56 133.686 126.545 133.353 126.193C133.02 125.84 133.035 125.288 133.387 124.956C136.392 122.093 138.65 118.487 139.907 114.533C140.057 114.073 140.545 113.818 141.006 113.961C141.198 114.02 141.355 114.142 141.461 114.296Z" fill="#293EB0"/>
<path d="M145.171 117.209C145.249 117.327 145.304 117.461 145.324 117.611C145.603 120.131 145.252 122.714 144.312 125.069C144.131 125.519 143.621 125.736 143.17 125.562C142.721 125.381 142.503 124.871 142.678 124.42C143.509 122.33 143.82 120.036 143.576 117.801C143.521 117.319 143.867 116.886 144.355 116.832C144.687 116.797 144.993 116.951 145.172 117.203L145.171 117.209Z" fill="#293EB0"/>
<path d="M15.8145 77.6815C15.5823 77.56 15.411 77.3329 15.3622 77.0555C14.6286 72.671 15.0116 68.1311 16.482 63.9298C16.6435 63.473 17.1414 63.2342 17.5981 63.3957C18.0549 63.5571 18.2937 64.055 18.1323 64.5118C16.7657 68.4309 16.4026 72.6693 17.0892 76.7617C17.1666 77.2394 16.8481 77.6885 16.3726 77.7721C16.1744 77.807 15.9792 77.7706 15.8145 77.6815Z" fill="#293EB0"/>
<path d="M11.184 76.7834C11.0615 76.7144 10.951 76.6201 10.8652 76.4961C9.46634 74.3805 8.59914 71.9229 8.36044 69.3979C8.31644 68.9155 8.67089 68.4888 9.15116 68.4385C9.63364 68.3945 10.0603 68.749 10.1106 69.2293C10.3254 71.4681 11.0958 73.6512 12.3336 75.529C12.6021 75.9323 12.4924 76.476 12.0829 76.7467C11.8037 76.9294 11.4606 76.9313 11.1862 76.7896L11.184 76.7834Z" fill="#293EB0"/>
</svg>
