<svg width="157" height="103" viewBox="0 0 157 103" fill="none" xmlns="http://www.w3.org/2000/svg">
<path d="M90.6257 18.7083C85.1488 20.07 80.2946 23.456 76.8753 27.944C72.4239 33.7904 72.3074 39.1774 72.2408 44.5244C72.1643 50.5139 72.0211 62.6995 84.7493 68.6091C91.5979 71.7887 100.028 71.3259 106.131 66.8778C112.23 62.4298 115.373 54.8621 115.939 47.331C117.847 22.0044 100.601 16.2246 90.6257 18.705V18.7083Z" fill="#E0236B"/>
<path d="M104 82.6458C96.9982 82.6458 88.6115 82.6091 78.9297 82.5392C53.906 82.3561 28.5794 81.9932 28.3264 81.9899C28.1066 81.9899 27.8936 81.8933 27.7437 81.7335C27.5906 81.5737 27.5074 81.3606 27.5173 81.1375C28.0867 63.1422 28.383 35.5949 27.5173 12.2626C27.5107 12.0396 27.5939 11.8198 27.7504 11.66C27.9069 11.5002 28.12 11.4103 28.343 11.4103H28.3464L72.2043 11.6267C72.6604 11.6267 73.0267 11.9996 73.0233 12.4557C73.0233 12.9085 72.6538 13.2748 72.1976 13.2748H72.1943L29.1954 13.0617C30.0111 35.8913 29.7347 62.543 29.1887 80.3518C66.9073 80.8878 122.581 81.3639 128.814 80.5782C128.228 63.8381 128.384 36.6803 130.036 12.6788L114.438 12.6422C113.981 12.6422 113.615 12.2726 113.615 11.8165C113.615 11.3604 113.985 10.9941 114.441 10.9941L130.918 11.0308C131.148 11.0308 131.364 11.1273 131.521 11.2938C131.677 11.4603 131.754 11.6867 131.74 11.9131C130.016 36.3807 129.866 64.3242 130.485 81.1642C130.485 81.2075 130.485 81.2474 130.478 81.2907C130.385 82.0864 129.503 82.1663 128.567 82.2496C127.822 82.3162 126.72 82.3761 125.288 82.426C122.644 82.5159 118.766 82.5792 113.765 82.6125C110.892 82.6324 107.632 82.6424 104 82.6424V82.6458Z" fill="#BCBEC0"/>
<path d="M40.3887 44.095C39.9692 44.095 39.6097 43.7754 39.5697 43.3493C39.5264 42.8965 39.8594 42.4936 40.3122 42.4503C43.3252 42.164 46.2651 42.2106 49.3781 42.2605C50.5533 42.2805 51.7686 42.2972 52.9904 42.2972C53.4466 42.2972 53.8161 42.6667 53.8161 43.1229C53.8161 43.579 53.4466 43.9485 52.9904 43.9485C51.7552 43.9485 50.5334 43.9286 49.3514 43.9119C46.2851 43.862 43.3918 43.8187 40.4686 44.095C40.442 44.095 40.4154 44.0984 40.3887 44.0984V44.095Z" fill="#BCBEC0"/>
<path d="M40.139 52.8579C39.7029 52.8579 39.34 52.5183 39.3167 52.0788C39.2934 51.6227 39.6396 51.2365 40.0957 51.2098C44.91 50.9468 50.3536 51.0167 55.624 51.08C57.5151 51.1033 59.2996 51.1266 61.0176 51.1333C61.4737 51.1333 61.8399 51.5061 61.8399 51.9589C61.8399 52.4117 61.4704 52.7813 61.0142 52.7813C59.2863 52.7746 57.4984 52.7513 55.604 52.728C50.3635 52.6614 44.9466 52.5949 40.189 52.8545C40.1723 52.8545 40.159 52.8545 40.1424 52.8545L40.139 52.8579Z" fill="#BCBEC0"/>
<path d="M138.665 100.631C136.361 100.631 134.044 100.488 131.76 100.348C131.324 100.322 130.888 100.295 130.452 100.268C121.11 99.7157 111.584 99.7357 102.372 99.759L7.14484 99.9721C6.69204 99.9721 6.32248 99.6058 6.31915 99.1497C6.31915 98.6936 6.68539 98.324 7.14151 98.324L102.368 98.1076C111.604 98.0876 121.156 98.0643 130.548 98.6203C130.985 98.647 131.421 98.6736 131.86 98.7002C137.703 99.0598 143.743 99.4294 149.093 97.3252C149.516 97.1587 149.995 97.3685 150.162 97.7913C150.328 98.2142 150.118 98.6936 149.696 98.8601C146.166 100.248 142.431 100.628 138.665 100.628V100.631Z" fill="#BCBEC0"/>
<path d="M93.6656 61.2247C88.6249 61.2247 83.8107 58.8708 81.7797 55.3517C81.4235 54.7324 81.6366 53.94 82.2558 53.5838C82.8751 53.2275 83.6675 53.4406 84.0237 54.0599C85.6351 56.8532 90.0433 58.8142 94.2749 58.6244C98.4766 58.4347 102.492 56.1241 103.61 53.2475C104.683 50.4941 103.078 47.2379 99.7917 45.5067C97.8806 44.5012 95.5867 43.9851 93.1596 43.4391C92.497 43.2893 91.8078 43.1362 91.1386 42.9697C89.7736 42.6367 88.3386 42.2306 87.0834 41.5147C85.2689 40.4826 84.0604 38.8712 83.6808 36.9768C83.3179 35.1623 83.7807 33.2512 84.9526 31.7363C87.0368 29.0395 91.1985 27.2983 95.8097 27.1951C98.713 27.1385 101.736 28.3137 103.507 30.2148C104.799 31.5998 105.392 33.3012 105.219 35.129C105.152 35.8415 104.516 36.3675 103.807 36.2976C103.094 36.231 102.572 35.5984 102.638 34.8859C102.742 33.7972 102.395 32.8184 101.61 31.9794C100.358 30.6377 98.0005 29.7321 95.8663 29.782C92.0742 29.8686 88.5916 31.2569 86.9969 33.3178C86.2744 34.2534 85.9981 35.372 86.2145 36.4674C86.4442 37.6127 87.2066 38.6082 88.3586 39.2641C89.3341 39.8201 90.566 40.163 91.7479 40.4527C92.3971 40.6125 93.0697 40.7623 93.7222 40.9088C96.2093 41.4681 98.7795 42.0474 100.994 43.2127C105.465 45.5699 107.579 50.1845 106.018 54.1864C104.499 58.0817 99.7151 60.9683 94.3848 61.208C94.1417 61.218 93.902 61.2247 93.659 61.2247H93.6656Z" fill="#293EB0"/>
<path d="M95.3135 29.3823C94.5977 29.3823 94.0184 28.7996 94.0217 28.0838L94.0317 22.5704C94.0317 21.8545 94.611 21.2786 95.3269 21.2786C96.0427 21.2786 96.622 21.8612 96.6187 22.577L96.6087 28.0905C96.6087 28.8063 96.026 29.3823 95.3135 29.3823Z" fill="#293EB0"/>
<path d="M94.6777 67.9865C93.9619 67.9865 93.3826 67.4072 93.3826 66.6914V60.7817C93.3826 60.0659 93.9619 59.4866 94.6777 59.4866C95.3935 59.4866 95.9728 60.0659 95.9728 60.7817V66.6914C95.9728 67.4072 95.3935 67.9865 94.6777 67.9865Z" fill="#293EB0"/>
<path d="M136.262 88.6818C136.235 88.6818 136.205 88.6818 136.175 88.6818C135.463 88.6352 134.92 88.0192 134.966 87.3067C135.206 83.5911 135.373 75.9302 135.579 66.2284C135.952 48.7725 136.458 25.004 137.81 3.5395C135.279 3.50954 130.056 3.42963 124.972 3.35305C118.972 3.26316 113.306 3.1766 112.197 3.17327C111.481 3.17327 110.902 2.59063 110.905 1.87481C110.905 1.15899 111.488 0.583008 112.2 0.583008C113.329 0.583008 119.002 0.672901 125.008 0.762795C131.404 0.859347 138.02 0.95923 139.188 0.95923C139.548 0.95923 139.887 1.10905 140.134 1.36874C140.38 1.62843 140.503 1.98135 140.48 2.33759C139.068 24.0984 138.546 48.4795 138.166 66.2817C137.96 76.0135 137.793 83.701 137.55 87.4732C137.507 88.159 136.937 88.6851 136.258 88.6851L136.262 88.6818Z" fill="#293EB0"/>
<path d="M21.6543 89.3245H21.641C20.9252 89.3179 20.3525 88.7319 20.3592 88.0161C20.6389 59.2269 20.1994 32.5286 18.9342 1.45216C18.9209 1.09924 19.0507 0.756317 19.2938 0.503285C19.5368 0.250252 19.8764 0.10376 20.2293 0.10376C34.2128 0.10376 45.3262 0.233604 59.3995 0.393414C64.4968 0.453343 69.9304 0.516602 75.9599 0.576531C76.6757 0.58319 77.2483 1.16916 77.2417 1.88498C77.235 2.59414 76.6557 3.16679 75.9465 3.16679H75.9332C69.9037 3.10353 64.4702 3.0436 59.3696 2.98367C45.7624 2.82719 34.9186 2.70068 21.5777 2.69402C22.803 33.2411 23.2258 59.6231 22.9528 88.0394C22.9461 88.7485 22.3668 89.3212 21.6577 89.3212L21.6543 89.3245Z" fill="#293EB0"/>
<path d="M139.914 102.859C139.551 102.859 139.195 102.859 138.849 102.852L12.8448 101.913C12.7682 101.913 12.6917 101.906 12.6184 101.89C5.44359 100.561 0.376274 95.0546 5.34721e-05 88.1894C-0.0199228 87.8331 0.109923 87.4835 0.359627 87.2238C0.60933 86.9641 0.955586 86.8276 1.3085 86.8243C50.8131 87.397 107.612 87.9064 155.209 86.7344C155.589 86.7211 155.945 86.8776 156.198 87.1539C156.451 87.4303 156.571 87.8032 156.528 88.176C155.752 94.9147 151.733 100.382 146.286 102.103C144.182 102.769 141.958 102.855 139.911 102.855L139.914 102.859ZM12.978 99.3261L138.865 100.262C141.106 100.278 143.423 100.295 145.507 99.6358C149.589 98.344 152.705 94.392 153.721 89.3613C106.873 90.4733 51.3857 89.9872 2.74679 89.4312C3.51921 93.7161 6.8153 98.1376 12.9747 99.3261H12.978Z" fill="#293EB0"/>
</svg>
