<svg width="157" height="146" viewBox="0 0 157 146" fill="none" xmlns="http://www.w3.org/2000/svg">
<path d="M147.744 58.2663C147.437 55.5486 144.792 53.3846 141.695 53.3846V53.4211C139.452 52.7653 130.882 52.2553 97.8748 52.1096C94.0174 52.095 34.9141 51.8983 31.4658 53.3919C30.7206 53.4283 30.0046 53.5959 29.3471 53.8655C28.4704 53.9602 27.9809 54.0695 27.9809 54.1788C25.1975 54.1788 23.0277 56.1679 23.1592 58.6014C21.7199 58.6014 22.0779 80.2702 23.1446 101.159C17.7237 103.768 10.2792 102.012 6.84549 97.1739C3.77708 92.8387 3.22185 85.0572 4.54419 80.5689C7.99979 83.3668 13.3476 84.4378 17.2854 81.64C19.5794 80.0079 20.3392 77.6545 18.7903 75.2428C16.1457 71.1189 9.35866 71.4759 5.93227 74.9587C5.15787 75.7456 4.50766 76.649 3.97434 77.6618C1.4977 74.3248 0.927852 69.3775 2.45475 64.4012C4.11315 59.0022 7.8756 54.1642 12.785 51.1187C21.3474 45.8071 33.4748 45.574 39.9404 36.8234C41.6719 37.1513 43.4033 36.4372 44.3677 35.2132C44.8133 34.6522 45.091 34.0037 45.2955 33.3188C47.3557 33.3188 73.1011 33.2824 74.8252 32.3498C75.7312 32.0802 75.9503 30.725 76.0453 30.1129C76.206 29.0929 76.2864 27.6648 76.2864 25.8724C76.2864 25.6684 75.8261 7.78843 73.1449 4.11625C73.1157 3.73738 73.2253 3.91953 70.04 1.82843C68.7469 0.990528 67.3077 0.888524 65.8465 0.779233C53.098 -0.269961 2.62278 -0.109668 2.75428 1.34026C2.02371 1.34026 2.22096 4.76471 2.22096 5.16544C2.22096 9.29664 3.2876 25.6757 4.98983 29.071C5.50124 30.2149 5.82269 30.623 6.57518 31.4099C7.34228 32.2259 8.04363 32.8744 9.13218 32.5902C13.6763 33.2824 31.4 33.3042 37.0254 33.3261C37.0254 34.5356 37.3907 35.4172 38.4135 36.1749C32.2475 44.0803 20.4341 44.4738 11.9303 49.7562C6.69207 53.0058 2.68123 58.1789 0.91324 63.9421C-1.05931 70.3684 0.365311 76.088 3.25838 79.3449C1.46117 84.3868 2.02371 93.1665 5.53776 98.1211C9.23446 103.331 16.9274 105.575 23.2468 102.908C24.2477 121.706 25.7965 139.367 27.0896 139.367C27.2212 141.808 29.5663 143.79 32.3644 143.79C32.3644 143.827 32.6712 143.856 33.2118 143.885C34.0885 144.322 35.0821 144.592 36.1341 144.592V144.57C40.24 145.378 143.791 145.218 146.173 144.592C149.183 144.541 151.616 142.442 151.703 139.717C153.712 136.548 151.06 90.1793 150.797 85.9388C149.497 64.9913 148.547 59.6434 147.744 58.2736V58.2663ZM7.09388 76.0953C9.81161 73.3339 15.3786 72.9113 17.4388 76.1171C18.5127 77.7857 17.9575 79.1919 16.3575 80.3285C12.9823 82.7329 8.08016 81.6108 5.15056 78.9587C5.64735 77.8585 6.29756 76.904 7.09388 76.0953ZM8.67922 30.9508C8.67922 30.9508 8.61347 30.9071 8.58425 30.8853C7.33497 28.6557 5.49393 7.43141 6.32678 4.90315C6.36331 4.874 6.39984 4.84486 6.42906 4.81571C10.5203 3.49693 67.6145 3.51151 71.5669 4.83028C71.6692 4.93229 71.7934 5.00515 71.9322 5.04158C73.7367 7.03068 75.6143 28.4153 74.2116 30.8415C74.1312 30.8707 74.0508 30.9144 73.9851 30.9654C69.945 32.0292 12.617 32.0219 8.68653 30.9581L8.67922 30.9508ZM150.381 138.726C150.169 138.901 150.067 139.149 150.074 139.397C150.176 141.437 148.284 142.967 146.049 142.967C145.946 142.967 145.844 142.989 145.749 143.025C141.548 143.63 40.6052 143.623 36.4337 143.025C36.3387 142.989 36.2364 142.967 36.1341 142.967C33.7744 142.967 31.7726 141.335 31.6776 139.324C31.663 139.04 31.5023 138.792 31.2612 138.661C28.7115 134.165 25.2924 64.1316 27.3819 59.2936C27.623 59.1333 27.7618 58.8638 27.7472 58.5796C27.6449 56.5322 29.5444 55.0094 31.7726 55.0094C31.9626 55.0094 32.1525 54.9438 32.2986 54.82C37.6683 53.2899 135.901 53.2972 141.183 54.82C141.322 54.9366 141.505 55.0021 141.702 55.0021C144.062 55.0021 146.063 56.6342 146.158 58.6452C146.173 58.9075 146.312 59.1333 146.509 59.2718C148.759 63.8401 152.171 133.859 150.388 138.726H150.381Z" fill="#293EB0"/>
<path d="M39.6995 62.4558C39.6338 61.0569 38.421 59.9203 37.0037 59.9203C35.5864 59.9203 34.4832 61.0569 34.5563 62.4558C34.622 63.8547 35.8348 64.9914 37.2521 64.9914C38.6694 64.9914 39.7726 63.8547 39.6995 62.4558Z" fill="#293EB0"/>
<path d="M44.5067 64.9986C45.9313 64.9986 47.0272 63.862 46.9541 62.4631C46.8883 61.0642 45.6756 59.9275 44.2583 59.9275C42.841 59.9275 41.7378 61.0642 41.8109 62.4631C41.8766 63.862 43.0894 64.9986 44.5067 64.9986Z" fill="#293EB0"/>
<path d="M51.7686 64.9986C53.1932 64.9986 54.289 63.862 54.216 62.4631C54.1502 61.0642 52.9375 59.9275 51.5202 59.9275C50.1029 59.9275 48.9997 61.0642 49.0728 62.4631C49.1385 63.862 50.3513 64.9986 51.7686 64.9986Z" fill="#293EB0"/>
<path d="M37.8 70.5725C37.8 71.0169 38.1653 71.374 38.611 71.374C57.9638 71.374 97.4074 71.0534 133.914 70.3976C134.36 70.3903 134.718 70.0187 134.71 69.5743C134.703 69.1371 134.338 68.7801 133.9 68.7801C130.181 68.7801 95.1573 69.618 38.611 69.7564C38.1653 69.7564 37.8 70.1208 37.8073 70.5652L37.8 70.5725Z" fill="#293EB0"/>
<path d="M135.748 85.3341V79.6582H130.086V81.946L50.6362 82.2812V80.2338H44.9742V85.9097H46.8518L48.4226 124.533H46.6911V130.209H52.353V128.147L132.475 128.497V130.573H138.137V124.897H136.405L134.469 85.3341H135.748ZM52.3676 126.646V124.533H49.9421L48.3714 85.9097H50.6435V83.7821L130.093 83.447V85.3341H132.979L134.915 124.897H132.49V126.996L52.3676 126.646Z" fill="#E0236B"/>
<path d="M10.5789 17.2166L17.965 19.111L20.332 25.1439L23.8096 10.6519L23.3347 10.3896L10.5789 17.2166Z" fill="#E0236B"/>
<path d="M51.6517 18.397L58.6359 20.1893L60.8569 25.836C61.1418 26.5647 62.2158 26.4991 62.3984 25.7268L63.6988 20.2841C63.7792 20.2768 63.8595 20.2695 63.9399 20.2331C64.9919 19.7886 66.6869 20.4808 66.8184 22.0254C65.2184 21.581 64.0714 22.8342 64.5171 24.0291C64.8896 25.0346 66.2777 25.4936 67.3517 24.6484C67.6439 25.6466 66.8622 26.5064 65.9198 26.8925C65.0431 27.2495 63.9691 27.286 63.034 27.2714C61.9089 27.3005 61.982 28.867 63.0121 28.8889C64.2029 28.9035 65.4303 28.8452 66.5334 28.3935C68.9443 27.4098 69.7553 24.9253 68.3453 23.0892C69.0174 20.5318 66.7453 18.1711 64.1226 18.5427L65.8759 11.2348C65.9782 10.8122 65.7298 10.3459 65.2111 10.2511C64.97 9.98156 64.5609 9.90142 64.2248 10.0836L51.469 16.9106C50.8188 17.2531 50.9357 18.2221 51.6517 18.4043V18.397ZM64.0203 12.0217L61.4267 22.856L59.9948 19.2203C59.8998 18.9799 59.6953 18.7977 59.4396 18.7321L54.0626 17.3551L64.0203 12.0289V12.0217Z" fill="#E0236B"/>
<path d="M44.5797 12.0872L44.9231 13.8359C44.9962 14.2221 45.3395 14.4844 45.7194 14.4844C46.2381 14.4844 46.6107 14.018 46.5158 13.5226L46.0409 11.1255C45.9678 10.7466 45.6318 10.477 45.2446 10.477H31.6121C31.2176 10.477 30.8888 10.7539 30.8158 11.14L30.4651 13.0563C30.3847 13.4934 30.6769 13.916 31.1153 13.9962C31.5536 14.0836 31.9774 13.7849 32.0577 13.3477L32.2842 12.0945H37.179L37.2959 25.5956C37.2959 26.0401 37.6612 26.3971 38.1069 26.3971C38.5525 26.3971 38.9105 26.0255 38.9105 25.581L38.7936 12.0945H44.5724L44.5797 12.0872Z" fill="#E0236B"/>
<path d="M156.934 50.106C156.766 49.6907 156.299 49.4866 155.882 49.6542C153.946 50.4265 152.054 51.3446 150.25 52.3719C149.534 52.7799 149.826 53.8801 150.652 53.8801C151.265 53.8801 152.076 52.9184 156.481 51.1552C156.898 50.9876 157.095 50.5213 156.934 50.106Z" fill="#293EB0"/>
<path d="M149.936 48.4739L155.444 43.4174C155.773 43.1186 155.795 42.6013 155.488 42.2734C155.188 41.9456 154.677 41.9237 154.341 42.2297L148.832 47.2863C148.504 47.585 148.482 48.1023 148.789 48.4302C149.095 48.758 149.599 48.7799 149.936 48.4739Z" fill="#293EB0"/>
<path d="M145.895 47.2353C146.37 47.2863 146.743 46.9584 146.801 46.5358L147.517 40.9692C147.576 40.5248 147.262 40.1241 146.816 40.0658C146.37 40.022 145.969 40.3208 145.91 40.7652L145.194 46.3318C145.136 46.7762 145.45 47.177 145.895 47.2353Z" fill="#293EB0"/>
</svg>
