<svg width="139" height="147" viewBox="0 0 139 147" fill="none" xmlns="http://www.w3.org/2000/svg">
<path d="M101.676 131.884C102.026 134.484 102.395 137.145 103.534 139.472C104.672 141.799 106.753 143.773 109.2 143.956C112.783 144.226 115.613 140.784 117.377 137.434C126.72 119.705 123.53 97.0954 131.381 78.5574C131.381 78.5574 113.335 76.906 112.879 77.3022C111.055 94.9679 111.764 112.933 114.97 130.369C110.659 129.53 106.207 129.52 101.676 131.881V131.884Z" fill="#E0236B"/>
<path d="M103.537 65.8026C103.617 86.8809 103.694 107.959 103.773 129.034L101.14 129.321C98.6762 108.239 99.7549 86.6845 103.54 65.8026H103.537Z" fill="#BCBEC0"/>
<path d="M101.137 130.146C100.724 130.146 100.368 129.836 100.318 129.417C97.9371 109.051 98.7461 87.6 102.725 65.656C102.801 65.2365 103.184 64.9435 103.607 64.9835C104.03 65.0201 104.356 65.3763 104.359 65.8025L104.596 129.034C104.596 129.457 104.28 129.81 103.86 129.856L101.227 130.143C101.197 130.143 101.167 130.146 101.137 130.146ZM102.751 75.9538C100.268 93.9624 99.968 111.562 101.862 128.415L102.944 128.298L102.748 75.9571L102.751 75.9538Z" fill="#BCBEC0"/>
<path d="M16.6336 136.126C22.9994 140.171 30.9066 139.695 38.3012 139.275C57.9978 138.16 77.7544 138.353 97.4277 139.848C73.6459 134.335 48.882 139.279 24.6208 137.311C21.621 137.068 18.3083 136.545 16.6336 136.122V136.126Z" fill="#BCBEC0"/>
<path d="M97.4277 140.677C97.4077 140.677 97.3844 140.677 97.3644 140.677C77.7976 139.189 57.9412 138.996 38.3445 140.104L38.198 140.111C30.597 140.54 22.7363 140.986 16.1874 136.825C15.8445 136.608 15.7113 136.176 15.8712 135.803C16.031 135.43 16.4371 135.23 16.83 135.33C18.3582 135.716 21.5477 136.242 24.6807 136.495C34.2926 137.274 44.1609 136.958 53.7062 136.652C68.199 136.186 83.1879 135.706 97.6075 139.049C98.027 139.145 98.3 139.552 98.2367 139.978C98.1735 140.384 97.8272 140.677 97.4243 140.677H97.4277ZM23.7818 138.07C27.4641 138.836 31.3994 138.799 35.3281 138.613C31.7257 138.566 28.1266 138.426 24.5542 138.137C24.3011 138.117 24.0415 138.093 23.7818 138.07Z" fill="#BCBEC0"/>
<path d="M106.247 146.021C106.247 146.021 106.234 146.021 106.227 146.021C96.4821 145.871 86.5839 145.551 76.103 145.215C57.9778 144.632 39.2367 144.026 21.5045 144.383C18.4414 144.439 15.8745 143.42 13.8469 141.34C5.87302 133.153 5.60667 108.339 8.0238 55.8077C8.05377 55.1252 8.6131 54.5825 9.29895 54.5725L42.0168 54.0831C42.7126 54.0698 43.2819 54.6025 43.3286 55.2883L43.9678 64.6406C54.2389 64.2211 63.6511 64.4241 72.767 64.6173C82.2124 64.8203 91.9775 65.0268 102.658 64.5407C103.018 64.524 103.367 64.6572 103.624 64.9102C103.88 65.1633 104.02 65.5095 104.01 65.8691C103.843 72.0584 103.411 79.0235 102.954 86.3947C101.543 109.214 99.7849 137.614 107.083 143.73C107.502 144.083 107.656 144.662 107.466 145.175C107.276 145.681 106.793 146.017 106.254 146.017L106.247 146.021ZM32.6213 141.686C47.0042 141.686 61.79 142.162 76.1896 142.628C85.635 142.931 94.6077 143.221 103.417 143.384C97.4144 133.975 98.9159 109.744 100.371 86.2383C100.79 79.4363 101.19 72.984 101.38 67.1909C91.1585 67.6037 81.7862 67.4039 72.7104 67.2075C63.2649 67.0044 53.4998 66.798 42.8192 67.2841C42.11 67.3174 41.5174 66.7813 41.4674 66.0788L40.8249 56.69L10.5541 57.1428C8.27683 107.04 8.49657 132.14 15.698 139.532C17.2262 141.1 19.1106 141.839 21.4512 141.792C25.1368 141.719 28.8624 141.686 32.6179 141.686H32.6213Z" fill="#293EB0"/>
<path d="M107 146.2C106.837 146.2 106.673 146.2 106.51 146.19C105.794 146.167 105.235 145.568 105.262 144.852C105.285 144.136 105.888 143.577 106.6 143.604C106.723 143.607 106.846 143.61 106.97 143.61C118.995 143.61 122.318 123.128 125.531 103.311C126.909 94.8214 128.328 86.0652 130.458 79.1234L112.843 78.5974C112.127 78.5774 111.564 77.9781 111.588 77.2656C111.608 76.5498 112.207 75.9905 112.919 76.0104L132.26 76.5864C132.669 76.5997 133.052 76.8062 133.285 77.1424C133.518 77.4787 133.578 77.9082 133.448 78.2977C131.084 85.2628 129.629 94.2321 128.091 103.728C124.705 124.613 121.203 146.2 107.003 146.2H107Z" fill="#293EB0"/>
<path d="M101.639 131.774C101.063 131.774 100.541 131.388 100.387 130.805C100.208 130.113 100.621 129.407 101.313 129.224C103.943 128.535 109.34 128.312 113.102 128.794C110.342 119.173 109.38 103.172 110.246 81.1643C110.885 64.9036 112.476 45.6565 115.11 22.3475C107.609 21.7082 61.6535 22.0645 30.2008 22.494C27.9202 37.9823 27.6205 47.3944 27.4008 54.3062L27.3575 55.6546C27.3342 56.3704 26.7416 56.9264 26.0191 56.9065C25.3033 56.8832 24.744 56.2839 24.7673 55.568L24.8105 54.223C25.0369 47.0848 25.3466 37.3097 27.8003 21.0191C27.8935 20.3931 28.4296 19.927 29.0622 19.917C29.2819 19.917 51.1593 19.6141 72.7669 19.4775C85.4619 19.3976 95.5799 19.3877 102.845 19.4509C107.166 19.4875 110.515 19.5508 112.799 19.6407C114.065 19.6906 115 19.7439 115.659 19.8105C116.442 19.8871 117.75 20.0136 117.82 21.2421C117.823 21.3154 117.82 21.3886 117.813 21.4619C111.354 78.1712 110.815 114.705 116.212 130.046C116.372 130.506 116.265 131.015 115.929 131.368C115.596 131.721 115.093 131.857 114.627 131.721C111.667 130.859 104.766 130.999 101.966 131.731C101.856 131.761 101.746 131.774 101.636 131.774H101.639Z" fill="#293EB0"/>
<path d="M86.2809 30.1615C85.8315 30.1615 85.4652 29.7986 85.4586 29.3491C85.4519 28.893 85.8148 28.5201 86.2709 28.5135L107.103 28.2238C107.559 28.2238 107.932 28.5801 107.939 29.0362C107.945 29.4923 107.582 29.8652 107.126 29.8719L86.2942 30.1615H86.2809Z" fill="#BCBEC0"/>
<path d="M82.8816 37.4195C82.4488 37.4195 82.0859 37.0832 82.0593 36.6471C82.0326 36.1943 82.3789 35.8014 82.8317 35.7748C90.6724 35.2954 98.6296 35.1822 106.484 35.4285C106.94 35.4419 107.296 35.8247 107.283 36.2775C107.269 36.7337 106.886 37.0932 106.434 37.0766C98.6296 36.8302 90.7256 36.9467 82.9349 37.4195C82.9182 37.4195 82.9016 37.4195 82.8849 37.4195H82.8816Z" fill="#BCBEC0"/>
<path d="M66.4777 49.3587C60.2551 49.3587 54.0359 49.2988 47.8565 49.1823C47.4004 49.1723 47.0408 48.7994 47.0475 48.3433C47.0541 47.8871 47.437 47.5276 47.8865 47.5342C61.4171 47.7906 75.1375 47.764 88.6647 47.461C89.1142 47.4477 89.4971 47.8106 89.5071 48.2667C89.5171 48.7228 89.1575 49.099 88.7014 49.109C81.3301 49.2755 73.8989 49.3587 66.4744 49.3587H66.4777Z" fill="#BCBEC0"/>
<path d="M51.9117 59.1804C51.4689 59.1804 51.1027 58.8308 51.0893 58.3846C51.0727 57.9285 51.4289 57.549 51.8851 57.5323C62.5058 57.1628 73.283 57.0229 83.9171 57.1195C84.3732 57.1228 84.7361 57.4957 84.7327 57.9518C84.7294 58.4046 84.3599 58.7675 83.9104 58.7675H83.9037C73.2963 58.671 62.5424 58.8108 51.945 59.1804C51.935 59.1804 51.925 59.1804 51.915 59.1804H51.9117Z" fill="#BCBEC0"/>
<path d="M5.55011 143.91C5.20718 143.91 4.86425 143.773 4.61122 143.507C1.30515 140.024 -0.38951 135.004 0.0766034 130.073C0.143191 129.36 0.782432 128.838 1.48826 128.904C2.20075 128.971 2.72346 129.603 2.65687 130.316C2.26734 134.448 3.73559 138.819 6.49232 141.722C6.98507 142.242 6.96509 143.061 6.44571 143.553C6.19601 143.79 5.87306 143.91 5.55344 143.91H5.55011Z" fill="#293EB0"/>
<path d="M126.35 26.7253C126.184 26.7253 126.017 26.692 125.854 26.6254C125.195 26.3524 124.882 25.5933 125.155 24.9341C128.161 17.6894 128.065 9.08959 124.902 1.92476C124.612 1.2722 124.908 0.506445 125.564 0.216789C126.217 -0.0728671 126.983 0.223448 127.272 0.879336C130.718 8.68008 130.821 18.0423 127.549 25.9296C127.342 26.429 126.859 26.7287 126.353 26.7287L126.35 26.7253Z" fill="#293EB0"/>
<path d="M133.055 27.5244C132.802 27.5244 132.549 27.4511 132.323 27.298C131.734 26.8918 131.584 26.0861 131.987 25.4968C134.527 21.7945 135.979 17.22 136.072 12.6188C136.085 11.9029 136.674 11.3303 137.394 11.3503C138.109 11.3636 138.675 11.9562 138.662 12.672C138.559 17.7726 136.947 22.8466 134.124 26.9617C133.874 27.328 133.468 27.5244 133.055 27.5244Z" fill="#293EB0"/>
</svg>
