<svg width="118" height="161" viewBox="0 0 118 161" fill="none" xmlns="http://www.w3.org/2000/svg">
<path d="M51.1493 80.8227C49.1184 80.2167 47.8499 78.1558 47.5636 76.1116C47.2773 74.0673 47.7733 72.0031 48.2128 69.9855C49.6378 63.4366 50.4768 56.7679 50.7232 50.0791C47.4404 50.4753 44.2142 51.3044 41.1612 52.5362C46.385 44.559 52.5643 35.906 62.063 33.8484C62.9586 33.6553 63.9109 33.5288 64.7765 33.8218C65.9484 34.218 66.7275 35.3 67.2535 36.3921C68.7251 39.4418 68.8383 42.9176 68.9016 46.287C69.0714 55.253 69.078 64.219 68.9249 73.1851C68.8916 75.1461 68.8017 77.2536 67.5865 78.8217C66.4379 80.3099 64.5035 81.0024 62.639 81.412C58.747 82.2676 54.765 81.9014 51.1527 80.8293L51.1493 80.8227Z" fill="#E0236B"/>
<path d="M45.9421 17.5776C45.6025 17.5776 45.2829 17.3645 45.1631 17.0249L43.2786 11.6213C43.1288 11.1919 43.3552 10.7224 43.7847 10.5726C44.2142 10.4228 44.6836 10.6492 44.8334 11.0787L46.7179 16.4822C46.8677 16.9117 46.6413 17.3812 46.2118 17.531C46.1219 17.561 46.032 17.5776 45.9388 17.5776H45.9421Z" fill="#BCBEC0"/>
<path d="M67.2602 16.1326C67.2269 16.1326 67.1969 16.1326 67.1636 16.126C66.7108 16.0727 66.3879 15.6632 66.4411 15.2104L67.1436 9.20417C67.1969 8.75138 67.6064 8.43176 68.0592 8.4817C68.512 8.53497 68.835 8.94448 68.7817 9.39728L68.0792 15.4035C68.0292 15.823 67.673 16.1326 67.2602 16.1326Z" fill="#BCBEC0"/>
<path d="M85.0391 23.3907C84.8627 23.3907 84.6829 23.3341 84.5331 23.2176C84.1735 22.9379 84.1102 22.4219 84.3899 22.0623L87.3763 18.2235C87.656 17.864 88.1721 17.8007 88.5316 18.0804C88.8912 18.36 88.9545 18.8761 88.6748 19.2357L85.6883 23.0744C85.5252 23.2842 85.2822 23.3941 85.0358 23.3941L85.0391 23.3907Z" fill="#BCBEC0"/>
<path d="M97.3411 37.7704C97.0348 37.7704 96.7385 37.5973 96.5987 37.301C96.4023 36.8915 96.5754 36.3987 96.9849 36.2023C98.4365 35.5064 99.8415 34.6841 101.157 33.7585C101.529 33.4955 102.042 33.5854 102.305 33.9583C102.568 34.3312 102.478 34.8439 102.105 35.1069C100.714 36.0858 99.2322 36.9514 97.6974 37.6872C97.5808 37.7438 97.461 37.7671 97.3411 37.7671V37.7704Z" fill="#BCBEC0"/>
<path d="M101.686 57.0942C101.253 57.0942 100.89 56.7547 100.864 56.3185C100.837 55.8657 101.187 55.4762 101.639 55.4495L107.379 55.1233C107.835 55.0966 108.222 55.4462 108.248 55.899C108.275 56.3518 107.925 56.7413 107.472 56.768L101.733 57.0942C101.733 57.0942 101.699 57.0942 101.686 57.0942Z" fill="#BCBEC0"/>
<path d="M102.994 78.8281C102.861 78.8281 102.728 78.7948 102.605 78.7316L97.9238 76.2179C97.5243 76.0015 97.3711 75.5021 97.5876 75.1026C97.804 74.6997 98.3034 74.5499 98.7029 74.7663L103.384 77.28C103.784 77.4964 103.937 77.9958 103.72 78.3953C103.57 78.6716 103.287 78.8315 102.994 78.8315V78.8281Z" fill="#BCBEC0"/>
<path d="M88.2619 97.4995C88.0388 97.4995 87.8191 97.4097 87.6559 97.2332L83.8438 93.1014C83.5341 92.7685 83.5575 92.2458 83.8904 91.9361C84.2233 91.6265 84.746 91.6498 85.0557 91.9827L88.8678 96.1145C89.1775 96.4475 89.1541 96.9702 88.8212 97.2798C88.6614 97.4263 88.4616 97.4995 88.2619 97.4995Z" fill="#BCBEC0"/>
<path d="M66.4678 106.006C66.0583 106.006 65.7054 105.703 65.6521 105.287L65.0095 100.193C64.9529 99.7403 65.2726 99.3308 65.7253 99.2709C66.1781 99.2143 66.5877 99.5339 66.6476 99.9867L67.2902 105.081C67.3468 105.533 67.0271 105.943 66.5743 106.003C66.541 106.006 66.5044 106.01 66.4711 106.01L66.4678 106.006Z" fill="#BCBEC0"/>
<path d="M43.5983 104.964C43.5317 104.964 43.4618 104.957 43.3952 104.937C42.9557 104.824 42.6894 104.375 42.7992 103.935L44.2309 98.3284C44.3441 97.8889 44.7935 97.6226 45.233 97.7358C45.6725 97.849 45.9388 98.2984 45.8256 98.7379L44.394 104.345C44.2975 104.717 43.9645 104.964 43.595 104.964H43.5983Z" fill="#BCBEC0"/>
<path d="M22.6997 90.8274C22.4767 90.8274 22.2536 90.7375 22.0938 90.561C21.7875 90.2248 21.8075 89.7054 22.1437 89.3958L25.2101 86.5824C25.5464 86.2761 26.0657 86.2961 26.3754 86.6324C26.6817 86.9686 26.6617 87.488 26.3254 87.7977L23.2591 90.611C23.0993 90.7575 22.9028 90.8274 22.7031 90.8274H22.6997Z" fill="#BCBEC0"/>
<path d="M11.3299 71.5269C11.0236 71.5269 10.7273 71.3538 10.5841 71.0575C10.3877 70.648 10.5641 70.1552 10.9736 69.9588L16.1708 67.4817C16.5837 67.2853 17.0731 67.4618 17.2695 67.8713C17.4659 68.2808 17.2895 68.7735 16.88 68.97L11.6828 71.447C11.5696 71.5003 11.4464 71.5269 11.3299 71.5269Z" fill="#BCBEC0"/>
<path d="M16.5004 48.9971C16.4172 48.9971 16.334 48.9838 16.2507 48.9572L10.967 47.2692C10.5342 47.1293 10.2945 46.6665 10.4343 46.2337C10.5742 45.8009 11.0369 45.5612 11.4698 45.701L16.7535 47.389C17.1863 47.5289 17.426 47.9916 17.2862 48.4245C17.173 48.774 16.85 48.9971 16.5004 48.9971Z" fill="#BCBEC0"/>
<path d="M27.6039 29.7133C27.4142 29.7133 27.2244 29.65 27.0679 29.5168C25.7561 28.3948 24.2978 27.4526 22.7397 26.7135C22.3269 26.5204 22.1537 26.0276 22.3468 25.6148C22.5399 25.2019 23.0327 25.0288 23.4455 25.2219C25.1369 26.0243 26.7183 27.0464 28.14 28.265C28.4862 28.5613 28.5262 29.0807 28.2298 29.4269C28.0667 29.6167 27.837 29.7166 27.6039 29.7166V29.7133Z" fill="#BCBEC0"/>
<path d="M37.672 114.789C41.3643 117.406 46.4549 117.912 50.5933 116.074C52.1049 115.402 53.6297 114.416 55.2711 114.642C56.2999 114.786 57.1955 115.392 58.1011 115.898C61.4038 117.745 65.3591 118.391 69.0747 117.692C68.3389 129.092 68.4788 140.302 68.3323 151.728C69.8638 149.844 71.0624 148.369 73.0234 146.937C72.8602 138.328 72.8369 129.718 72.9568 121.108C72.9734 119.856 73.0034 118.561 73.5594 117.439C75.0843 114.359 79.9818 113.644 80.6277 110.268C82.6653 110.521 85.8215 110.97 87.8558 111.223C87.5195 109.748 87.3297 108.074 87.0434 106.818C84.5564 106.229 81.46 105.979 79.8686 105.08C78.0374 109.595 73.7059 112.998 68.8883 113.71C64.0707 114.423 58.9401 112.418 55.8804 108.63C55.1246 110.301 51.2559 111.856 49.458 112.215C45.2297 113.068 42.7094 112.085 38.541 110.98C38.3013 112.385 38.0582 113.787 37.672 114.789Z" fill="#BCBEC0"/>
<path d="M68.3323 152.551C68.2391 152.551 68.1425 152.534 68.0526 152.501C67.723 152.381 67.5033 152.065 67.5099 151.715C67.5465 148.929 67.5632 146.109 67.5832 143.385C67.6364 135.308 67.693 126.965 68.1891 118.661C64.6067 119.097 60.8378 118.371 57.6982 116.617C57.5451 116.53 57.3919 116.444 57.2388 116.354C56.5296 115.941 55.8571 115.555 55.1579 115.458C54.0859 115.312 52.9972 115.838 51.8419 116.397C51.5455 116.54 51.2359 116.69 50.9296 116.827C46.5248 118.788 41.1346 118.252 37.1992 115.462C36.8929 115.245 36.7697 114.846 36.9062 114.493C37.2625 113.57 37.4989 112.185 37.7286 110.847C37.7686 110.621 37.9017 110.418 38.0948 110.291C38.2879 110.165 38.5277 110.128 38.7507 110.188C39.2701 110.324 39.7662 110.461 40.239 110.594C43.575 111.513 45.7824 112.119 49.2915 111.413C51.2059 111.027 54.5753 109.515 55.1246 108.293C55.2412 108.034 55.4875 107.851 55.7705 107.814C56.0569 107.777 56.3365 107.891 56.5163 108.114C59.4062 111.693 64.2138 113.57 68.7651 112.898C73.3164 112.225 77.3716 109.036 79.1028 104.774C79.1927 104.555 79.3725 104.385 79.5956 104.305C79.8186 104.228 80.065 104.248 80.2714 104.365C81.217 104.901 82.9483 105.207 84.6196 105.507C85.4919 105.66 86.3908 105.82 87.2265 106.019C87.5328 106.093 87.7692 106.332 87.8391 106.639C87.9823 107.268 88.0988 107.974 88.222 108.72C88.3519 109.499 88.4817 110.301 88.6515 111.043C88.7114 111.307 88.6382 111.58 88.4584 111.779C88.2786 111.979 88.0123 112.079 87.7459 112.046C86.7238 111.919 85.402 111.739 84.1235 111.566C83.1247 111.433 82.1026 111.293 81.217 111.18C80.5744 112.891 78.9996 113.92 77.4714 114.919C76.1397 115.788 74.8845 116.607 74.2885 117.812C73.8025 118.794 73.7858 120.033 73.7725 121.125C73.656 129.685 73.6793 138.368 73.8391 146.928C73.8457 147.197 73.7192 147.45 73.4995 147.61C71.6217 148.978 70.4464 150.423 68.9615 152.255C68.8017 152.451 68.5653 152.561 68.3223 152.561L68.3323 152.551ZM69.0747 116.87C69.2745 116.87 69.4676 116.943 69.6208 117.076C69.8105 117.246 69.9137 117.493 69.8971 117.746C69.3411 126.339 69.2845 135.012 69.2279 143.398C69.2146 145.369 69.2012 147.39 69.1813 149.411C70.0769 148.376 70.9958 147.444 72.191 146.528C72.0379 138.088 72.0146 129.535 72.1311 121.095C72.1478 119.89 72.1677 118.388 72.8203 117.073C73.616 115.468 75.1242 114.483 76.5792 113.534C78.0974 112.542 79.5323 111.606 79.8186 110.115C79.8986 109.688 80.2981 109.399 80.7309 109.452C81.753 109.579 83.0748 109.758 84.3566 109.931C85.1923 110.045 86.0479 110.161 86.8237 110.261C86.7471 109.835 86.6738 109.405 86.6073 108.986C86.5207 108.467 86.4375 107.964 86.3509 107.511C85.7017 107.371 85.0125 107.251 84.3433 107.131C82.8451 106.865 81.4134 106.612 80.2914 106.183C78.1839 110.577 73.8491 113.814 69.0148 114.529C64.2471 115.235 59.2331 113.451 55.9403 109.951C55.371 110.537 54.532 111.107 53.4333 111.656C52.1981 112.272 50.7032 112.811 49.6245 113.028C45.7291 113.81 43.2454 113.128 39.8095 112.182C39.6097 112.129 39.4099 112.072 39.2035 112.016C39.0504 112.881 38.8806 113.727 38.6608 114.459C42.0768 116.62 46.5648 116.97 50.2637 115.325C50.5467 115.199 50.8297 115.062 51.126 114.919C52.3879 114.306 53.8195 113.614 55.3876 113.83C56.4064 113.97 57.2521 114.459 58.0678 114.932C58.2143 115.015 58.3608 115.102 58.5073 115.182C61.6202 116.923 65.4191 117.546 68.9282 116.887C68.9782 116.877 69.0314 116.873 69.0814 116.873L69.0747 116.87Z" fill="#BCBEC0"/>
<path d="M30.5771 84.7979C35.8042 90.8807 43.7648 94.1668 51.7453 94.9625C67.0571 96.4874 82.5554 90.5844 85.6783 86.3427C73.8724 91.3335 60.698 93.0448 48.0097 91.2369C41.7272 90.3413 35.2682 88.4303 30.5804 84.7979H30.5771Z" fill="#BCBEC0"/>
<path d="M56.7027 96.0281C55.0247 96.0281 53.3367 95.9515 51.662 95.785C42.8159 94.9027 34.9019 91.0973 29.9511 85.3374C29.6748 85.0178 29.6881 84.5384 29.9778 84.2321C30.2674 83.9258 30.7469 83.8891 31.0798 84.1488C35.0584 87.2318 40.9514 89.4026 48.1229 90.4214C60.7413 92.2193 73.616 90.5446 85.3554 85.5838C85.6983 85.4406 86.0945 85.5405 86.3242 85.8335C86.554 86.1232 86.5606 86.5327 86.3409 86.8323C83.2945 90.9741 70.24 96.0314 56.7027 96.0314V96.0281ZM37.3857 89.4525C41.5041 91.9696 46.4849 93.6109 51.8285 94.1436C58.5805 94.8162 66.1149 94.0637 73.0533 92.0262C75.8134 91.2138 78.3271 90.235 80.368 89.2095C69.9304 92.6255 58.8169 93.6109 47.8932 92.0528C43.9612 91.4935 40.4487 90.6212 37.3857 89.4492V89.4525Z" fill="#BCBEC0"/>
<path d="M59.0633 100.889C56.0668 100.889 52.9838 100.622 49.8276 100.086C36.8629 97.8857 27.3276 91.7863 21.4879 81.9513C16.2507 73.1318 15.1487 63.2036 15.1487 56.4283C15.1487 46.0073 19.8598 35.3566 28.0734 27.2063C36.3635 18.9794 47.2306 14.2783 57.9313 14.2783C58.0245 14.2783 58.1177 14.2783 58.2109 14.2783C68.3123 14.2783 76.9953 16.5623 84.017 21.0636C90.2462 25.0555 95.0106 30.6589 98.1768 37.7172C101.656 45.4713 102.984 54.7403 101.916 63.8195C100.9 72.4393 97.7407 80.28 93.2493 85.3307C84.1169 95.6018 72.4274 100.886 59.0633 100.886V100.889ZM57.9313 16.8686C47.9098 16.8686 37.7053 21.2967 29.8979 29.0441C22.1704 36.7117 17.739 46.6899 17.739 56.425C17.739 62.8773 18.7744 72.3128 23.7119 80.6262C29.1488 89.7787 38.0815 95.4653 50.2604 97.5328C58.3375 98.9045 65.9118 98.4384 72.767 96.1478C79.7421 93.8206 85.9813 89.6022 91.3117 83.6094C95.4601 78.9449 98.3866 71.6236 99.3421 63.5166C100.358 54.8968 99.1057 46.1105 95.813 38.7792C92.8531 32.1904 88.4151 26.9633 82.6186 23.2477C76.0198 19.016 67.8062 16.8719 58.2076 16.8719H58.1976C58.1077 16.8719 58.0212 16.8719 57.9313 16.8719V16.8686Z" fill="#293EB0"/>
<path d="M66.8706 115.118C62.7255 115.118 58.5905 113.177 55.9636 109.968C51.9383 113.377 46.1519 114.639 41.0912 113.101C36.0372 111.569 31.9887 107.308 30.577 102.21C25.3 104.511 18.7011 103.392 14.5794 99.3005C10.5142 95.2653 9.31894 88.7963 11.4597 83.5392C6.16934 82.6869 1.46493 78.4586 0.289658 73.1948C-0.865637 68.0243 1.50821 62.0747 6.12273 58.1827C2.12415 54.79 0.346257 48.9769 1.96434 43.9396C3.47588 39.2318 8.0338 35.4596 12.8647 34.6373C10.5275 29.2903 11.553 22.5849 15.5815 18.2967C19.5468 14.075 26.1956 12.5002 31.9754 14.2415C32.598 8.86787 36.5733 4.02029 41.827 2.53538C46.9243 1.09376 52.6542 2.98152 56.0435 6.98011C58.8302 2.23574 64.5767 -0.63086 70.0735 0.268073C75.5204 1.16035 80.1315 5.78153 81.2203 11.0686C85.0391 9.13089 89.9665 9.38392 93.4624 11.8909C96.9749 14.408 98.7961 19.0158 98.1701 23.2708C103.274 22.7414 108.618 25.4715 110.988 30.086C113.315 34.6173 112.506 40.4104 109.27 44.2425C113.675 45.9172 117.068 50.1356 117.534 54.8666C118.027 59.8573 115.21 64.9247 110.828 67.2885C113.485 71.6767 113.725 77.533 111.311 82.0676C108.907 86.579 104.013 89.6054 98.7528 89.9749C100.021 94.9723 98.3399 100.636 94.4113 104.025C90.4193 107.468 84.4464 108.273 79.6488 106.166C77.9175 110.66 73.7158 114.176 68.9448 114.955C68.2556 115.068 67.5598 115.122 66.8673 115.122L66.8706 115.118ZM56.1467 106.725C56.19 106.725 56.2332 106.725 56.2765 106.732C56.6727 106.772 57.029 106.991 57.2421 107.328C59.5793 111.017 64.2204 113.101 68.532 112.398C72.8402 111.696 76.5791 108.243 77.6212 104.002C77.7178 103.602 78.0007 103.272 78.3803 103.116C78.7598 102.956 79.1927 102.989 79.5456 103.199C83.6008 105.63 89.1442 105.15 92.7233 102.064C96.3024 98.9743 97.5875 93.564 95.7763 89.1959C95.6065 88.7863 95.6598 88.3169 95.9128 87.954C96.1692 87.5911 96.592 87.3813 97.0348 87.408C101.979 87.651 106.803 85.0208 109.024 80.8524C111.228 76.714 110.752 71.2438 107.865 67.5482C107.612 67.2219 107.526 66.7958 107.639 66.3962C107.752 66.0001 108.048 65.6771 108.435 65.5339C112.516 64.0257 115.38 59.4512 114.954 55.1196C114.527 50.7881 110.828 46.8628 106.53 46.1769C106.021 46.097 105.608 45.7208 105.481 45.2214C105.352 44.722 105.531 44.1959 105.938 43.8763C109.563 41.043 110.795 35.3864 108.681 31.2679C106.567 27.1495 101.23 24.8622 96.7884 26.1673C96.3223 26.3038 95.8129 26.1673 95.48 25.8111C95.1471 25.4548 95.0405 24.9421 95.207 24.4827C96.5454 20.7904 95.1437 16.2791 91.9509 13.9918C88.758 11.7045 84.0402 11.8277 80.9706 14.2814C80.5843 14.5911 80.055 14.651 79.6088 14.4413C79.1627 14.2315 78.873 13.782 78.8664 13.2893C78.7931 8.33516 74.6581 3.64074 69.6473 2.81838C64.6499 1.99935 59.1897 5.2122 57.4751 9.97655C57.3053 10.4527 56.8725 10.7856 56.3698 10.8289C55.867 10.8722 55.3843 10.6191 55.1346 10.1796C52.7307 5.9713 47.1907 3.70399 42.5262 5.02243C37.8617 6.34087 34.3259 11.1685 34.4791 16.016C34.4924 16.4589 34.2793 16.8784 33.9131 17.1281C33.5468 17.3778 33.0774 17.421 32.6712 17.2446C27.5873 15.0339 21.0517 16.2458 17.4659 20.0646C13.7503 24.0232 13.1244 30.4756 16.0143 35.0701C16.2674 35.473 16.2807 35.979 16.0476 36.3919C15.8146 36.8047 15.3784 37.0644 14.9023 37.0544C14.869 37.0544 14.8357 37.0544 14.8024 37.0544C10.431 37.0544 5.7898 40.477 4.42475 44.7286C2.99312 49.18 4.98742 54.5969 8.9627 57.0573C9.33559 57.2871 9.56531 57.6899 9.5753 58.1294C9.58529 58.5655 9.37221 58.9817 9.01264 59.2281C4.31821 62.4443 1.7679 67.9544 2.81333 72.6289C3.8754 77.3932 8.51656 81.1055 13.3974 81.1055C13.4207 81.1055 13.4407 81.1055 13.464 81.1055C13.9268 81.1055 14.3563 81.3552 14.5894 81.758C14.8224 82.1642 14.8157 82.6636 14.5794 83.0631C11.9358 87.4979 12.7382 93.8237 16.4005 97.4627C20.0662 101.102 26.3953 101.854 30.8134 99.1774C31.183 98.9543 31.6424 98.9276 32.032 99.1108C32.4248 99.2939 32.6979 99.6601 32.7644 100.086C33.5136 104.967 37.1626 109.199 41.8437 110.62C46.4848 112.029 51.8584 110.62 55.2145 107.118C55.4608 106.862 55.7971 106.718 56.15 106.718L56.1467 106.725Z" fill="#293EB0"/>
<path d="M58.8535 83.3063C58.4374 83.3063 58.0212 83.2996 57.605 83.2896C55.7739 83.2463 53.6963 83.1964 51.7386 82.5671C49.3981 81.8147 47.5969 80.2932 46.7978 78.3921C45.9722 76.4311 46.2651 74.3103 46.4982 72.6056C47.4038 66.0368 48.336 59.2681 48.316 52.6926L40.2989 54.7069C39.7029 54.8567 38.3146 55.2063 37.2492 54.3307C35.9574 53.2686 36.0906 51.4008 37.5888 49.5696L46.6181 38.5194C47.0942 37.9368 47.547 37.3308 48.0297 36.6849C49.6944 34.4576 51.419 32.1503 54.0592 30.9284C60.7213 27.8388 66.4878 29.4269 69.6574 31.9439C70.9592 32.976 71.1789 36.362 71.1123 54.5737C71.0923 60.0705 71.0724 65.7571 71.1689 71.0841C71.2155 73.5678 71.2788 76.9638 69.3644 79.5474C67.0238 82.7103 63.0053 83.3096 58.8469 83.3096L58.8535 83.3063ZM49.5912 49.7461C49.8709 49.7461 50.1472 49.836 50.3736 50.0091C50.6866 50.2455 50.8763 50.6117 50.8863 51.0046C51.0894 58.296 50.064 65.7504 49.0685 72.9585C48.8654 74.4268 48.639 76.0848 49.1883 77.39C49.6944 78.5919 50.913 79.5807 52.5344 80.1034C54.1325 80.6195 55.9303 80.6627 57.6683 80.7027C61.5603 80.7959 65.4191 80.5329 67.2902 78.0059C68.572 76.2746 68.6353 73.8675 68.5853 71.134C68.4854 65.7771 68.5054 60.0805 68.5254 54.567C68.5554 46.1004 68.5953 35.5996 67.9128 33.8683C65.3159 31.8973 60.6481 30.7353 55.1513 33.2823C53.107 34.2312 51.6488 36.1789 50.1072 38.2398C49.6311 38.879 49.1384 39.5382 48.6257 40.1608L39.5964 51.211C39.2168 51.6771 39.0337 52.0933 38.9805 52.3197C39.1003 52.3197 39.3067 52.2897 39.6696 52.1999L49.2716 49.786C49.3748 49.7594 49.4813 49.7461 49.5879 49.7461H49.5912Z" fill="#293EB0"/>
<path d="M68.2823 160.565C67.9793 160.565 67.6797 160.458 67.4433 160.255C61.2906 155.011 55.5608 149.525 50.0207 144.197C42.8925 147.757 35.8874 151.209 28.7759 154.362C28.3098 154.569 27.7637 154.482 27.3842 154.139C27.0046 153.796 26.8615 153.263 27.018 152.777C31.5426 138.824 34.7521 124.524 36.55 110.281C36.6399 109.572 37.2891 109.069 37.9983 109.159C38.7074 109.249 39.2102 109.895 39.1203 110.607C37.419 124.071 34.4758 137.582 30.3607 150.813C36.7964 147.886 43.1788 144.724 49.6777 141.474C50.1672 141.231 50.7598 141.318 51.1526 141.7C56.1734 146.528 61.3372 151.499 66.8074 156.29C66.0749 142.413 66.3912 128.396 67.7529 114.579C67.8229 113.867 68.4554 113.351 69.1679 113.417C69.8804 113.487 70.3998 114.12 70.3299 114.832C68.8849 129.528 68.6286 144.454 69.5708 159.19C69.6041 159.709 69.3244 160.198 68.8583 160.432C68.6752 160.525 68.4754 160.568 68.279 160.568L68.2823 160.565Z" fill="#293EB0"/>
<path d="M68.3323 154.698C68.006 154.698 67.6797 154.575 67.4267 154.329C66.914 153.829 66.9073 153.01 67.4067 152.498C72.0612 147.74 76.436 143.551 81.5932 138.917C81.8662 138.671 82.2325 138.554 82.5987 138.594C87.4563 139.117 94.6744 139.856 98.39 140.165C91.8677 130.018 87.4896 118.438 85.6917 106.515C85.5852 105.81 86.0712 105.147 86.7804 105.041C87.4862 104.934 88.1488 105.42 88.2553 106.129C90.1231 118.501 94.8508 130.49 101.929 140.808C102.172 141.144 102.252 141.59 102.112 141.997C101.779 142.972 100.83 142.919 99.998 142.876C99.502 142.849 98.7828 142.796 97.8606 142.719C96.3224 142.589 94.1849 142.39 91.5115 142.123C87.9091 141.764 84.2767 141.381 82.9017 141.234C77.9742 145.676 73.7525 149.727 69.2645 154.312C69.0115 154.572 68.6752 154.702 68.339 154.702L68.3323 154.698Z" fill="#293EB0"/>
<path d="M109.646 130.427C109.35 130.427 109.054 130.327 108.814 130.121C102.455 124.757 97.7539 117.383 95.5832 109.352C95.3967 108.663 95.8063 107.95 96.4954 107.764C97.1879 107.578 97.8971 107.987 98.0836 108.676C100.118 116.204 104.523 123.116 110.482 128.143C111.028 128.603 111.098 129.422 110.639 129.968C110.382 130.271 110.016 130.427 109.646 130.427Z" fill="#293EB0"/>
<path d="M111.614 118.791C111.394 118.791 111.175 118.734 110.972 118.618C107.922 116.863 105.515 114.103 104.193 110.84C103.923 110.178 104.243 109.422 104.909 109.156C105.571 108.886 106.327 109.205 106.594 109.871C107.699 112.598 109.71 114.909 112.263 116.374C112.883 116.73 113.096 117.522 112.74 118.142C112.5 118.558 112.064 118.791 111.614 118.791Z" fill="#293EB0"/>
</svg>
