<svg width="230" height="151" viewBox="0 0 230 151" fill="none" xmlns="http://www.w3.org/2000/svg">
<path d="M128.348 40.0974C122.433 41.5684 117.19 45.2261 113.497 50.0742C108.689 56.3897 108.563 62.2089 108.491 67.985C108.408 74.4551 108.254 87.6184 122.001 94.0023C129.398 97.437 138.503 96.9371 145.095 92.1321C151.682 87.3271 155.077 79.1522 155.688 71.0168C157.749 43.658 139.122 37.4144 128.348 40.0938V40.0974Z" fill="#E0236B"/>
<path d="M142.793 109.165C135.231 109.165 126.173 109.126 115.716 109.05C88.6881 108.852 61.3335 108.46 61.0602 108.457C60.8229 108.457 60.5928 108.352 60.4309 108.18C60.2655 108.007 60.1756 107.777 60.1864 107.536C60.8013 88.0967 61.1214 58.3389 60.1864 33.1344C60.1792 32.8935 60.2691 32.6561 60.4381 32.4835C60.6071 32.3108 60.8373 32.2137 61.0782 32.2137H61.0818L108.452 32.4475C108.944 32.4475 109.34 32.8503 109.336 33.343C109.336 33.8322 108.937 34.2278 108.444 34.2278H108.441L61.9988 33.9976C62.8798 58.659 62.5813 87.4493 61.9916 106.687C102.73 107.266 162.862 107.78 169.594 106.932C168.961 88.8483 169.13 59.5114 170.914 33.584L154.067 33.5444C153.574 33.5444 153.178 33.1452 153.178 32.6525C153.178 32.1598 153.578 31.7642 154.07 31.7642L171.867 31.8037C172.115 31.8037 172.349 31.908 172.518 32.0878C172.687 32.2677 172.769 32.5122 172.755 32.7568C170.892 59.1877 170.73 89.3734 171.399 107.565C171.399 107.611 171.399 107.655 171.392 107.701C171.291 108.561 170.338 108.647 169.328 108.737C168.522 108.809 167.332 108.874 165.786 108.928C162.931 109.025 158.741 109.093 153.34 109.129C150.237 109.151 146.716 109.162 142.793 109.162V109.165Z" fill="#BCBEC0"/>
<path d="M74.0885 67.5214C73.6354 67.5214 73.247 67.1761 73.2039 66.7157C73.1571 66.2266 73.5167 65.7914 74.0058 65.7447C77.2601 65.4354 80.4354 65.4857 83.7976 65.5397C85.067 65.5613 86.3795 65.5792 87.6992 65.5792C88.1919 65.5792 88.591 65.9784 88.591 66.4712C88.591 66.9639 88.1919 67.3631 87.6992 67.3631C86.3651 67.3631 85.0454 67.3415 83.7688 67.3236C80.4569 67.2696 77.332 67.2229 74.1748 67.5214C74.146 67.5214 74.1172 67.525 74.0885 67.525V67.5214Z" fill="#BCBEC0"/>
<path d="M73.8188 76.9872C73.3477 76.9872 72.9558 76.6203 72.9306 76.1456C72.9054 75.6528 73.2794 75.2356 73.772 75.2069C78.9718 74.9227 84.8513 74.9983 90.5437 75.0666C92.5862 75.0918 94.5136 75.117 96.3692 75.1242C96.8618 75.1242 97.2574 75.527 97.2574 76.0161C97.2574 76.5052 96.8582 76.9044 96.3656 76.9044C94.4993 76.8972 92.5682 76.8721 90.5221 76.8469C84.862 76.775 79.0114 76.703 73.8727 76.9836C73.8547 76.9836 73.8404 76.9836 73.8224 76.9836L73.8188 76.9872Z" fill="#BCBEC0"/>
<path d="M180.235 128.594C177.746 128.594 175.243 128.439 172.776 128.288C172.305 128.26 171.834 128.231 171.363 128.202C161.273 127.605 150.985 127.627 141.035 127.652L38.1826 127.882C37.6936 127.882 37.2944 127.486 37.2908 126.994C37.2908 126.501 37.6864 126.102 38.179 126.102L141.031 125.868C151.006 125.846 161.323 125.821 171.468 126.422C171.939 126.45 172.41 126.479 172.884 126.508C179.195 126.896 185.718 127.296 191.497 125.023C191.954 124.843 192.472 125.069 192.651 125.526C192.831 125.983 192.605 126.501 192.148 126.681C188.336 128.18 184.302 128.59 180.235 128.59V128.594Z" fill="#BCBEC0"/>
<path d="M131.631 86.0255C126.187 86.0255 120.987 83.4827 118.794 79.6812C118.409 79.0122 118.639 78.1563 119.308 77.7714C119.977 77.3866 120.833 77.6168 121.217 78.2857C122.958 81.3032 127.719 83.4216 132.289 83.2166C136.828 83.0116 141.164 80.5156 142.373 77.4082C143.531 74.4338 141.797 70.9164 138.248 69.0462C136.184 67.9601 133.706 67.4026 131.085 66.8128C130.369 66.6509 129.625 66.4855 128.902 66.3057C127.428 65.946 125.878 65.5072 124.522 64.734C122.562 63.6191 121.257 61.8783 120.847 59.8319C120.455 57.8718 120.955 55.8074 122.221 54.171C124.472 51.2578 128.967 49.3768 133.947 49.2653C137.083 49.2042 140.348 50.4737 142.261 52.5274C143.656 54.0235 144.296 55.8613 144.109 57.8358C144.038 58.6055 143.351 59.1737 142.585 59.0982C141.815 59.0263 141.251 58.343 141.323 57.5733C141.434 56.3972 141.06 55.3398 140.211 54.4335C138.859 52.9841 136.313 52.0059 134.008 52.0598C129.913 52.1533 126.151 53.6531 124.429 55.8793C123.648 56.8899 123.35 58.0984 123.584 59.2816C123.832 60.5189 124.655 61.5942 125.899 62.3027C126.953 62.9034 128.284 63.2738 129.56 63.5867C130.261 63.7593 130.988 63.9212 131.693 64.0794C134.379 64.6836 137.155 65.3094 139.546 66.5682C144.376 69.1146 146.659 74.0994 144.973 78.4224C143.333 82.6303 138.165 85.7485 132.408 86.0075C132.146 86.0183 131.887 86.0255 131.624 86.0255H131.631Z" fill="#293EB0"/>
<path d="M133.411 51.6277C132.638 51.6277 132.012 50.9984 132.016 50.2251L132.027 44.2692C132.027 43.496 132.652 42.8738 133.426 42.8738C134.199 42.8738 134.824 43.5032 134.821 44.2764L134.81 50.2323C134.81 51.0055 134.181 51.6277 133.411 51.6277Z" fill="#293EB0"/>
<path d="M132.725 93.3299C131.951 93.3299 131.326 92.7041 131.326 91.9308V85.547C131.326 84.7737 131.951 84.1479 132.725 84.1479C133.498 84.1479 134.123 84.7737 134.123 85.547V91.9308C134.123 92.7041 133.498 93.3299 132.725 93.3299Z" fill="#293EB0"/>
<path d="M177.638 115.686C177.61 115.686 177.577 115.686 177.545 115.686C176.775 115.635 176.189 114.97 176.239 114.2C176.498 110.187 176.678 101.911 176.901 91.4307C177.304 72.574 177.85 46.8984 179.31 23.7115C176.578 23.6792 170.935 23.5929 165.444 23.5101C158.964 23.413 152.844 23.3195 151.647 23.3159C150.873 23.3159 150.248 22.6865 150.251 21.9133C150.251 21.14 150.881 20.5178 151.65 20.5178C152.869 20.5178 158.997 20.6149 165.484 20.712C172.392 20.8163 179.537 20.9242 180.799 20.9242C181.188 20.9242 181.554 21.0861 181.82 21.3666C182.087 21.6471 182.22 22.0284 182.194 22.4132C180.67 45.9201 180.105 72.2575 179.695 91.4882C179.472 102.001 179.292 110.305 179.03 114.38C178.983 115.121 178.368 115.689 177.635 115.689L177.638 115.686Z" fill="#293EB0"/>
<path d="M53.854 116.38H53.8396C53.0664 116.373 52.4479 115.74 52.4551 114.966C52.7572 83.8672 52.2825 55.0266 50.916 21.4566C50.9017 21.0754 51.0419 20.7049 51.3044 20.4316C51.5669 20.1582 51.9337 20 52.3149 20C67.418 20 79.4214 20.1403 94.6216 20.3129C100.127 20.3776 105.996 20.446 112.508 20.5107C113.281 20.5179 113.9 21.1509 113.892 21.9241C113.885 22.6902 113.26 23.3088 112.494 23.3088H112.479C105.967 23.2405 100.098 23.1757 94.5892 23.111C79.8924 22.942 68.1803 22.8053 53.7713 22.7981C55.0946 55.7963 55.5513 84.2952 55.2564 114.992C55.2492 115.758 54.6235 116.376 53.8576 116.376L53.854 116.38Z" fill="#293EB0"/>
<path d="M181.583 131C181.191 131 180.806 131 180.432 130.993L44.339 129.979C44.2563 129.979 44.1736 129.972 44.0945 129.954C36.3452 128.519 30.8721 122.57 30.4657 115.154C30.4442 114.769 30.5844 114.391 30.8541 114.111C31.1238 113.83 31.4978 113.683 31.8789 113.679C85.3475 114.298 146.695 114.848 198.103 113.582C198.513 113.568 198.898 113.737 199.171 114.035C199.444 114.334 199.574 114.737 199.527 115.139C198.689 122.419 194.349 128.324 188.466 130.184C186.193 130.903 183.791 130.997 181.579 130.997L181.583 131ZM44.4829 127.184L180.45 128.195C182.87 128.213 185.373 128.231 187.624 127.519C192.033 126.123 195.399 121.854 196.496 116.42C145.897 117.621 85.966 117.096 33.4324 116.495C34.2667 121.124 37.8267 125.9 44.4793 127.184H44.4829Z" fill="#293EB0"/>
</svg>
