<svg width="159" height="148" viewBox="0 0 159 148" fill="none" xmlns="http://www.w3.org/2000/svg">
<path d="M135.073 25.3237C134.703 25.3237 134.337 25.1672 134.081 24.8609C133.621 24.3116 133.695 23.4959 134.241 23.0364C139.534 18.5983 143.909 12.955 146.889 6.72243L147.701 5.02112C148.011 4.37522 148.783 4.10221 149.429 4.41184C150.075 4.72147 150.348 5.49389 150.039 6.13979L149.226 7.8411C146.087 14.4066 141.482 20.3463 135.905 25.0207C135.662 25.2238 135.366 25.3237 135.073 25.3237Z" fill="#293EB0"/>
<path d="M139.431 33.8203C138.829 33.8203 138.286 33.3975 138.163 32.7816C138.023 32.0791 138.476 31.3965 139.175 31.2567C145.035 30.0748 150.911 28.6165 156.641 26.9185C157.327 26.7154 158.046 27.105 158.249 27.7941C158.452 28.48 158.059 29.1991 157.373 29.4022C151.57 31.1202 145.617 32.5984 139.684 33.7937C139.598 33.8103 139.511 33.8203 139.428 33.8203H139.431Z" fill="#293EB0"/>
<path d="M155.349 52.0355C155.023 52.0355 154.7 51.9123 154.447 51.6692C150.731 48.0635 145.893 45.5099 140.82 44.4778C140.12 44.3346 139.668 43.6521 139.807 42.9496C139.951 42.2504 140.633 41.7976 141.336 41.9375C146.889 43.0661 152.186 45.8628 156.251 49.8081C156.764 50.3075 156.777 51.1265 156.278 51.6393C156.025 51.9023 155.685 52.0321 155.349 52.0321V52.0355Z" fill="#293EB0"/>
<path d="M84.493 43.9515C86.9002 52.9974 89.3539 62.1565 93.9984 70.2869C94.2015 70.6431 94.4346 71.0193 94.8075 71.1891C95.2569 71.3922 95.7796 71.2391 96.2391 71.0626C100.744 69.3214 104.083 65.1563 105.402 60.5118C106.72 55.8673 106.167 50.82 104.459 46.302C103.707 44.3144 102.675 42.3301 100.957 41.0815C97.9937 38.9308 93.9285 39.5101 90.3294 40.1893C88.0521 40.6187 85.5218 41.208 84.493 43.9515Z" fill="#E0236B"/>
<path d="M10.664 86.8602C12.9014 93.7587 19.9863 98.7661 27.2377 98.5697C32.1685 98.4365 36.7531 96.1825 41.2877 94.2381C56.7693 87.596 73.596 84.1035 90.4393 84.0302C74.4483 81.1237 57.9646 84.7794 42.6094 90.1097C37.2924 91.9575 31.9321 94.0284 26.3055 94.2415C20.6821 94.4545 14.6027 92.4136 10.6607 86.8602H10.664Z" fill="#BCBEC0"/>
<path d="M26.8348 99.4023C19.4103 99.4023 12.1756 94.1885 9.88162 87.1169C9.75511 86.7307 9.93156 86.3079 10.2945 86.1248C10.6574 85.9417 11.1002 86.0515 11.3366 86.3845C14.6759 91.0889 20.1228 93.6525 26.2788 93.4194C31.2329 93.233 36.0872 91.5284 40.7849 89.877C41.3043 89.6939 41.8237 89.5108 42.3431 89.331C61.5336 82.6656 76.8654 80.7245 90.5892 83.2182C91.0087 83.2948 91.2983 83.6777 91.2617 84.1005C91.2251 84.5233 90.8688 84.8496 90.4427 84.853C73.7958 84.9229 56.9091 88.4287 41.6106 94.9942C41.1079 95.2107 40.6018 95.4304 40.0958 95.6501C36.0173 97.428 31.7989 99.2692 27.2577 99.3924C27.1145 99.3957 26.9713 99.399 26.8282 99.399L26.8348 99.4023ZM14.1799 91.5617C17.3261 95.4138 22.2469 97.8841 27.2177 97.7476C31.4394 97.6344 35.5079 95.8599 39.4432 94.1419C39.9526 93.9189 40.4587 93.6991 40.9681 93.4827C52.8406 88.3887 65.6621 85.1126 78.5901 83.8242C68.1325 83.8408 56.5096 86.1614 42.8858 90.8924C42.3697 91.0722 41.8503 91.252 41.3343 91.4351C36.5233 93.1265 31.5459 94.8711 26.3454 95.0675C21.7775 95.2406 17.5658 93.9954 14.1832 91.5617H14.1799Z" fill="#BCBEC0"/>
<path d="M34.9785 102.662C38.7574 103.354 42.686 102.545 46.2218 101.047C49.7576 99.5488 52.9605 97.378 56.1401 95.2273C52.6908 95.8732 49.3881 97.125 46.1086 98.3735C42.4064 99.7785 38.7074 101.187 34.9785 102.665V102.662Z" fill="#BCBEC0"/>
<path d="M37.7752 103.73C36.763 103.73 35.7809 103.644 34.8287 103.471C34.4658 103.404 34.1928 103.108 34.1561 102.742C34.1195 102.375 34.3293 102.029 34.6722 101.896C38.4211 100.411 42.1766 98.9828 45.8123 97.6011C49.0751 96.3592 52.4511 95.0774 55.9869 94.4149C56.3698 94.345 56.7527 94.5514 56.8991 94.911C57.049 95.2705 56.9224 95.6867 56.5995 95.9064C53.4333 98.0506 50.1605 100.268 46.5381 101.803C43.5284 103.078 40.5485 103.73 37.7718 103.73H37.7752ZM51.5055 97.2915C49.7776 97.8541 48.073 98.5034 46.4016 99.1393C43.9079 100.088 41.3543 101.057 38.7873 102.052C41.0546 101.916 43.4584 101.32 45.8989 100.288C47.8432 99.4622 49.701 98.4201 51.5055 97.2948V97.2915Z" fill="#BCBEC0"/>
<path d="M46.3117 131.161C47.1707 134.361 48.1995 137.82 50.8996 139.738C52.5277 140.893 54.6485 141.329 56.5995 140.903C58.5505 140.477 60.2984 139.198 61.2939 137.47C58.7336 139.195 55.2011 139.045 52.4877 137.574C49.7743 136.099 47.8232 133.482 46.3084 131.165L46.3117 131.161Z" fill="#BCBEC0"/>
<path d="M55.1079 141.885C53.4466 141.885 51.7752 141.372 50.4235 140.41C47.5869 138.396 46.4848 134.987 45.516 131.374C45.4128 130.985 45.6059 130.575 45.9754 130.409C46.345 130.242 46.7812 130.372 47.0009 130.712C48.4725 132.966 50.3236 135.456 52.8839 136.848C55.4875 138.263 58.6837 138.24 60.8345 136.788C61.1541 136.575 61.5769 136.608 61.8566 136.868C62.1363 137.131 62.1995 137.55 62.0097 137.883C60.9011 139.808 58.9434 141.236 56.776 141.712C56.2299 141.832 55.6673 141.888 55.1079 141.888V141.885ZM48.6756 135.599C49.3348 137.008 50.1805 138.213 51.379 139.065C52.8173 140.087 54.7018 140.474 56.4264 140.097C56.9957 139.974 57.545 139.764 58.0611 139.488C56.0968 139.718 53.9893 139.322 52.0982 138.293C50.7931 137.584 49.6644 136.641 48.6756 135.599Z" fill="#BCBEC0"/>
<path d="M23.1792 104.287C15.5083 104.287 8.74297 101.596 4.62453 96.7822C-1.00546 90.2033 -1.55148 79.5126 3.2961 70.7863C7.09493 63.9445 13.6538 58.2745 23.349 53.4502C27.1511 51.5592 31.1231 49.9211 34.9652 48.3396C39.047 46.6583 43.2653 44.9204 47.2373 42.8894C62.2128 35.2252 74.698 22.7667 82.3889 7.80443C82.7152 7.16851 83.4976 6.91881 84.1335 7.24509C84.7694 7.57137 85.0191 8.35378 84.6928 8.98969C76.7556 24.4314 63.8709 37.2894 48.4159 45.1967C44.3507 47.2776 40.0791 49.0355 35.9507 50.7368C32.1519 52.3016 28.2199 53.9197 24.5009 55.7708C15.2919 60.3554 9.09589 65.6791 5.56008 72.0448C1.22523 79.8456 1.65139 89.3277 6.59219 95.1008C10.8005 100.018 18.2717 102.412 26.5751 101.51C32.558 100.861 38.4144 98.7398 44.0777 96.6923C45.4993 96.1795 46.9676 95.6468 48.4192 95.1441C59.869 91.1888 71.6183 88.522 83.3411 87.2202C95.3468 85.8884 107.386 85.9816 119.125 87.4998C119.834 87.5897 120.334 88.2423 120.244 88.9514C120.151 89.6606 119.502 90.1633 118.792 90.0701C107.256 88.5786 95.4268 88.4853 83.6241 89.7971C72.0911 91.0756 60.5315 93.6991 49.2615 97.5945C47.8266 98.0906 46.3683 98.62 44.9567 99.1294C39.1502 101.23 33.144 103.404 26.8515 104.087C25.6096 104.223 24.3811 104.29 23.1758 104.29L23.1792 104.287Z" fill="#293EB0"/>
<path d="M118.759 90.0934C117.351 90.0934 116.036 89.827 115.004 89.5706C107.592 87.7228 100.581 82.6788 95.267 75.3675C90.1031 68.2626 87.07 59.9092 85.0058 53.4235C80.8541 40.3857 79.1095 29.6151 79.5123 19.5304C79.6288 16.6106 80.1449 12.309 81.9328 8.40366C83.7406 4.45168 86.4008 1.85809 89.8367 0.696139C94.3847 -0.842035 99.8815 0.666175 104.546 4.72802C110.612 10.0117 116.928 22.0541 121.882 37.7755C126.453 52.2882 128.947 67.1206 128.391 76.4895C128.118 81.1107 127.159 87.4898 122.035 89.5074C120.946 89.9369 119.828 90.09 118.759 90.09V90.0934ZM93.5223 2.69044C92.5302 2.69044 91.5713 2.84026 90.6657 3.14656C83.2312 5.66025 82.2291 16.3975 82.1026 19.6303C81.7097 29.4054 83.4177 39.8929 87.4762 52.6345C89.4805 58.9337 92.417 67.0374 97.3645 73.8426C102.322 80.6645 108.811 85.3557 115.633 87.057C117.96 87.6363 119.695 87.6496 121.09 87.1036C123.94 85.9816 125.441 82.559 125.811 76.3397C126.35 67.2638 123.9 52.7876 119.415 38.5545C114.601 23.276 108.564 11.6598 102.848 6.68237C99.8648 4.08545 96.5488 2.69377 93.5257 2.69377L93.5223 2.69044Z" fill="#293EB0"/>
<path d="M95.2703 72.5375C94.7409 72.5375 94.2415 72.2079 94.0517 71.6818C93.8087 71.0093 94.1583 70.2668 94.8308 70.0238C101.133 67.7465 104.369 60.5217 104.782 54.369C104.982 51.3826 104.632 48.799 103.747 46.6948C102.262 43.1723 98.9592 40.3324 94.9107 39.0972C91.2584 37.9818 86.9368 38.1316 82.7385 39.5167C82.0593 39.7397 81.3268 39.3735 81.1038 38.6943C80.8807 38.0151 81.2469 37.2827 81.9261 37.0596C86.6938 35.4848 91.4448 35.335 95.6665 36.6234C100.441 38.0817 104.356 41.471 106.134 45.6927C107.179 48.1731 107.596 51.1529 107.366 54.5455C107.11 58.361 105.948 62.1665 104.09 65.2561C101.992 68.7486 99.0957 71.239 95.7098 72.4609C95.5633 72.5142 95.4168 72.5375 95.2703 72.5375Z" fill="#293EB0"/>
<path d="M54.8516 95.184C54.5752 95.184 54.2956 95.0974 54.0625 94.9143C40.5386 84.4834 32.9376 66.7644 34.7021 49.7779C34.7754 49.0654 35.4113 48.5527 36.1238 48.6226C36.8363 48.6959 37.3523 49.3318 37.2791 50.0443C35.6077 66.1618 42.8158 82.9685 55.644 92.8634C56.2099 93.2996 56.3165 94.112 55.877 94.6813C55.6206 95.0109 55.2378 95.184 54.8516 95.184Z" fill="#293EB0"/>
<path d="M39.8261 100.361C39.6063 100.361 39.3833 100.304 39.1802 100.188C31.9088 95.9796 25.8826 89.4973 22.2103 81.9396C18.5413 74.3819 17.1763 65.6389 18.3649 57.3188C18.4648 56.6097 19.124 56.1202 19.8298 56.2201C20.539 56.32 21.0284 56.9759 20.9285 57.6851C19.8098 65.4958 21.0916 73.7094 24.5376 80.8076C27.9835 87.9058 33.6434 93.992 40.472 97.9439C41.0912 98.3035 41.301 99.0959 40.9447 99.7118C40.705 100.128 40.2689 100.358 39.8227 100.358L39.8261 100.361Z" fill="#293EB0"/>
<path d="M54.4553 147.389C51.389 147.389 48.3459 146.21 46.1086 144.073C42.3198 140.45 41.4508 134.967 40.685 130.132L40.5419 129.234C38.7706 118.237 35.5911 109.56 30.8201 102.712C30.4106 102.126 30.5571 101.317 31.143 100.91C31.729 100.501 32.538 100.647 32.9442 101.233C37.945 108.408 41.2643 117.434 43.0988 128.824L43.242 129.726C43.9778 134.374 44.7402 139.182 47.8998 142.201C50.0972 144.302 53.4399 145.241 56.4097 144.589C59.3795 143.936 62.023 141.689 63.1417 138.862C64.8031 134.66 63.1517 130.129 62.0197 127.802C60.7612 125.212 59.0799 122.901 57.302 120.451C56.6128 119.502 55.9036 118.523 55.2244 117.534C51.106 111.528 48.0263 104.926 46.0686 97.9107C45.8755 97.2215 46.2784 96.509 46.9676 96.3159C47.6568 96.1228 48.3692 96.5257 48.5623 97.2149C50.4435 103.954 53.4066 110.296 57.3619 116.069C58.0178 117.028 58.7203 117.994 59.3995 118.929C61.1641 121.36 62.9886 123.877 64.3503 126.67C66.6276 131.348 67.0537 136.015 65.5489 139.814C64.1006 143.477 60.8111 146.277 56.9624 147.119C56.1367 147.299 55.2944 147.389 54.4553 147.389Z" fill="#293EB0"/>
<path d="M53.9759 112.377C53.4699 112.377 52.9871 112.077 52.7807 111.581C52.5043 110.922 52.8173 110.163 53.4765 109.886C54.6618 109.394 55.7904 108.758 56.8259 108.002C56.9824 107.885 57.0656 107.816 57.1089 107.772C57.0889 107.672 57.0323 107.513 57.009 107.433L56.0368 104.529C55.8703 104.03 55.6406 103.344 55.7338 102.572C55.9336 100.97 57.2853 100.138 58.2708 99.5287C58.444 99.4222 58.6171 99.3157 58.7802 99.2058C60.6946 97.9306 61.5836 95.2372 60.8045 93.0731C60.5614 92.4005 60.911 91.6581 61.5836 91.415C62.2561 91.172 62.9986 91.5216 63.2416 92.1941C64.4269 95.4835 63.1284 99.4222 60.2185 101.36C60.0321 101.486 59.8323 101.606 59.6325 101.733C59.0333 102.102 58.3541 102.522 58.3075 102.891C58.2841 103.078 58.4007 103.427 58.4939 103.707L59.4661 106.61C59.6026 107.017 59.829 107.692 59.6359 108.435C59.4028 109.327 58.6937 109.846 58.3541 110.093C57.1522 110.968 55.847 111.704 54.472 112.277C54.3089 112.344 54.1391 112.377 53.9759 112.377Z" fill="#293EB0"/>
</svg>
