<svg width="152" height="155" viewBox="0 0 152 155" fill="none" xmlns="http://www.w3.org/2000/svg">
<path d="M36.19 38.9287L41.7053 70.6216L57.7609 57.9308L46.9786 49.9345C72.0484 37.2499 97.1183 24.5652 122.188 11.8806C93.5263 20.8966 64.8581 29.9127 36.1962 38.9287H36.19Z" fill="#E0236B"/>
<path d="M13.181 6.09718C13.0384 5.8982 12.8088 5.76141 12.542 5.74897C8.37304 5.57487 4.19783 6.46404 0.45689 8.3232C0.0474338 8.5284 -0.113867 9.01961 0.084657 9.43C0.283181 9.83417 0.779491 10.0021 1.18895 9.80308C4.67553 8.06827 8.57776 7.23506 12.4738 7.39673C12.9267 7.41538 13.3113 7.06096 13.3299 6.60705C13.3361 6.42051 13.2803 6.24019 13.181 6.09718Z" fill="#293EB0"/>
<path d="M11.81 1.88134C11.7355 1.77563 11.6301 1.68236 11.506 1.62018C9.37186 0.563132 6.98337 0.0408247 4.60728 0.109222C4.1544 0.121658 3.79457 0.500953 3.80698 0.954864C3.81939 1.40877 4.19783 1.76942 4.65071 1.75698C6.76003 1.6948 8.88175 2.16115 10.7739 3.10006C11.1834 3.29903 11.6735 3.13736 11.872 2.72698C12.0085 2.44717 11.9775 2.12384 11.8038 1.88756L11.81 1.88134Z" fill="#293EB0"/>
<path d="M147.568 89.6174C147.736 89.7978 147.816 90.0527 147.773 90.3138C147.053 94.4301 145.298 98.335 142.686 101.599C142.4 101.954 141.885 102.01 141.532 101.724C141.178 101.438 141.122 100.922 141.408 100.567C143.846 97.5205 145.49 93.8767 146.16 90.034C146.241 89.5863 146.662 89.2879 147.109 89.3625C147.295 89.3936 147.457 89.4869 147.574 89.6174H147.568Z" fill="#293EB0"/>
<path d="M151.384 91.8558C151.47 91.9553 151.539 92.0735 151.576 92.2103C152.153 94.5233 152.153 96.9732 151.576 99.2863C151.464 99.7278 151.018 99.9951 150.577 99.8894C150.137 99.7775 149.87 99.3298 149.975 98.8883C150.484 96.8364 150.484 94.6601 149.975 92.6082C149.864 92.1667 150.13 91.719 150.577 91.6071C150.881 91.5325 151.185 91.6382 151.384 91.8496V91.8558Z" fill="#293EB0"/>
<path d="M33.1439 48.3426C32.9888 45.9114 33.1749 43.4926 33.3362 41.0738C33.3735 40.5204 33.2928 40.0852 32.8151 39.6748C30.7058 37.8405 28.8322 35.7761 27.0021 33.6558C22.8331 28.8245 18.3477 24.3289 12.9441 20.8406C12.1562 20.3307 11.449 19.6841 10.7293 19.0809C10.2454 18.6768 9.80493 18.2042 10.0531 17.4954C10.2888 16.8425 10.8968 16.7927 11.4738 16.7305C15.8785 16.2518 20.2771 15.8041 24.7004 15.487C34.9678 14.747 45.1794 13.4599 55.3972 12.2474C69.7778 10.5437 84.0405 8.05029 98.3901 6.15381C109.284 4.71125 120.209 3.51118 131.116 2.1308C135.632 1.55875 140.13 0.874771 144.652 0.327591C146.296 0.128616 147.953 -0.0454863 149.646 0.340027C150.434 0.520347 150.391 0.731758 150.18 1.27894C149.969 1.81368 149.771 2.34221 149.287 2.7215C144.522 6.45849 140.39 10.867 136.209 15.2134C130.731 20.8904 124.868 26.1694 119.39 31.8464C110.382 41.192 101.213 50.3759 91.845 59.3546C86.9501 64.0429 82.1545 68.8245 77.4582 73.7119C76.2795 74.9368 75.6218 74.9928 74.3438 73.7616C69.6661 69.2411 64.5603 65.2492 59.3677 61.3506C58.5736 60.7536 58.0215 60.7288 57.2087 61.2822C51.0111 65.5166 44.9127 69.9002 38.9135 74.4145C38.2125 74.9368 37.5859 75.8011 36.5498 75.3596C35.5262 74.9244 35.6441 73.9046 35.5448 73.0154C34.8624 66.8037 34.1427 60.5982 33.4975 54.3865C33.2866 52.3843 33.2556 50.3634 33.1439 48.355V48.3426ZM48.2317 49.8038C49.8075 50.693 51.1227 51.5946 52.3759 52.577C56.0858 55.4933 59.7958 58.4157 63.5119 61.3257C67.2962 64.2917 70.9007 67.4628 74.2322 70.9449C76.0065 72.804 76.0499 72.8102 77.8925 70.9511C83.9909 64.7953 90.0521 58.6022 96.2621 52.5522C107.231 41.8573 118.013 30.9759 129.006 20.3059C134.044 15.4123 139.131 10.5748 144.175 5.68746C144.454 5.42009 144.851 5.22734 144.956 4.66772C144.671 4.77343 144.448 4.84182 144.237 4.94131C140.905 6.43984 137.524 7.82644 134.255 9.45554C110.376 21.3567 86.0195 32.2195 61.6445 43.0325C57.1343 45.0284 52.835 47.3975 48.2379 49.7976L48.2317 49.8038ZM13.9677 18.2415C13.9677 18.6084 14.1911 18.6705 14.3586 18.7576C18.298 20.8157 21.4992 23.8252 24.7625 26.7725C28.1994 29.8691 30.8113 33.6993 34.0435 36.97C34.5956 37.5296 34.9989 37.6726 35.7185 37.3306C40.7809 34.9305 46.0976 33.2516 51.4702 31.7345C63.9027 28.2213 76.3105 24.6398 88.5197 20.3991C95.8465 17.856 103.024 14.9273 110.314 12.2971C119.31 9.05759 128.529 6.51445 137.716 3.87804C138.25 3.72881 138.765 3.52984 139.292 3.35573C138.709 3.19407 138.176 3.21272 137.654 3.2749C133.299 3.80343 128.95 4.3817 124.589 4.86048C110.686 6.38388 96.8143 8.11246 83.0045 10.3074C76.4842 11.3458 69.8522 11.7064 63.3878 13.006C48.697 15.9533 33.8325 17.0725 18.9122 17.7689C17.2558 17.8436 15.5869 17.8622 13.9677 18.2291V18.2415ZM134.311 7.40984C133.727 7.32279 133.243 7.59638 132.741 7.73317C122.709 10.4131 113.025 14.2061 103.074 17.1471C94.6926 19.6219 86.6089 23.0107 78.2585 25.5663C68.6921 28.4949 59.0451 31.1562 49.4539 34.0165C44.9375 35.3657 40.4769 36.9265 36.19 38.9286C35.6317 39.1898 35.1167 39.4136 35.0733 40.2158C34.8252 44.8232 34.8438 49.4183 35.2718 54.0134C35.793 59.5784 36.9159 65.0751 37.1206 70.6775C37.1206 70.8018 37.1888 70.9013 37.4246 70.864C37.6169 70.379 37.8464 69.8567 38.0264 69.322C40.0798 63.3341 42.1209 57.3462 44.1744 51.3583C44.5901 50.152 45.0057 48.9333 46.3396 48.3986C50.8808 46.5829 54.9629 43.8346 59.4794 41.9506C69.7344 37.6664 79.9211 33.2019 90.021 28.5633C104.488 21.9163 118.919 15.2009 133.188 8.14356C133.572 7.9508 134.044 7.8824 134.304 7.42227L134.311 7.40984ZM40.297 70.6215C43.0577 69.123 43.7587 68.4266 44.3357 66.6731C45.7874 62.2459 47.388 57.8623 48.2007 53.2486C48.3806 52.2288 47.63 52.235 47.115 51.949C46.3023 51.4951 46.4636 52.3159 46.3644 52.6206C45.0243 56.8799 43.7401 61.164 42.2078 65.3611C41.5936 67.0462 40.9794 68.7313 40.297 70.6215ZM44.6831 67.4504C46.811 66.6793 48.1759 65.5104 48.362 63.2097C48.4489 62.1278 48.9328 61.077 49.2368 60.0137C49.6896 58.4343 50.1239 56.855 50.6016 55.2818C50.8312 54.5419 50.4155 54.1564 49.8882 53.9201C49.2368 53.6279 49.3298 54.3429 49.1747 54.629C47.7292 57.3151 47.0964 60.3122 45.9425 63.1102C45.3842 64.4595 44.9437 65.871 44.6831 67.4504ZM48.6164 64.814C48.697 64.8948 48.7839 64.9756 48.8645 65.0565C49.8572 64.2233 51.4826 63.9186 51.8796 62.6936C52.4752 60.8469 52.6737 58.8509 53.0956 56.9296C53.2445 56.2518 52.5248 55.9907 52.0595 55.7047C51.7679 55.5243 51.6687 55.885 51.5942 56.1026C50.5954 59.0002 49.6028 61.904 48.6102 64.8077L48.6164 64.814ZM53.1886 62.0035C54.5535 61.3381 55.453 59.566 55.2173 58.4095C55.1615 58.1421 54.9816 57.968 54.7272 57.9369C54.4728 57.9058 54.417 58.1421 54.355 58.3286C53.9889 59.479 53.6229 60.6293 53.1886 62.0035Z" fill="#293EB0"/>
<path d="M31.0656 75.1109C23.0254 76.2612 15.3326 80.6946 10.9899 87.6587C8.29742 91.8931 6.95738 97.1473 7.86935 102.134C9.76153 113.003 21.1829 121.124 31.7295 122.038C39.931 122.579 47.3012 118.058 53.7098 113.339C60.2301 108.439 66.4774 103.042 72.5634 97.6137C81.7203 89.3873 89.7543 80.0915 97.6643 70.665C101.734 66.0016 105.965 60.9837 111.629 58.0737C122.796 52.3967 140.179 57.4581 144.913 69.5334C150.143 84.3694 136.463 104.864 125.383 114.029C103.936 131.781 74.6106 132.067 48.238 132.876C44.6956 133.211 31.9776 133.131 37.7596 139.249C39.0811 140.654 40.7437 141.836 42.4187 142.955C49.274 147.32 56.8738 150.566 64.3867 153.824L64.275 154.116C60.4162 152.705 56.5636 151.262 52.7854 149.627C47.1337 147.071 41.2214 144.702 36.5933 140.362C33.1439 137.029 34.18 133.454 38.7647 132.167C45.8185 130.295 53.2073 130.513 60.4038 129.972C84.1398 128.697 110.351 125.29 127.741 107.506C136.742 98.2354 149.895 77.4986 139.472 65.6534C132.989 58.6457 121.382 55.9285 112.659 60.1443C107.268 62.8739 103.297 67.5623 99.2711 72.0641C91.2494 81.4408 83.0355 90.7552 73.7545 98.9381C67.5382 104.385 61.2785 109.683 54.6218 114.595C47.9526 119.395 40.1915 123.965 31.6364 123.275C20.1406 122.156 7.80111 112.792 6.88293 100.704C6.13226 91.6942 11.8522 83.2564 19.3899 78.7981C22.9572 76.7027 26.9463 75.3472 31.0284 74.8L31.0718 75.1109H31.0656Z" fill="#293EB0"/>
</svg>
