<svg width="172" height="152" viewBox="0 0 172 152" fill="none" xmlns="http://www.w3.org/2000/svg">
<path d="M133.267 68.1798C152.399 68.1798 167.908 54.1715 167.908 36.8914C167.908 19.6113 152.399 5.60303 133.267 5.60303C114.136 5.60303 98.6263 19.6113 98.6263 36.8914C98.6263 54.1715 114.136 68.1798 133.267 68.1798Z" fill="#E0236B"/>
<path fill-rule="evenodd" clip-rule="evenodd" d="M164.584 49.677C164.297 50.0321 163.002 51.8767 161.741 53.7441C158.428 58.7164 156.158 60.8015 151.871 63.0012C147.619 65.1665 142.036 67.1829 137.932 68.0078C132.384 69.1191 123.489 68.2255 116.783 65.8081C115.924 65.5217 115.121 65.3384 115.018 65.4529C114.697 65.7737 117.219 68.1911 118.618 68.9129C119.34 69.268 121.357 70.0242 123.122 70.5741C126 71.4333 126.836 71.5479 132.052 71.5479C137.199 71.5823 138.173 71.4792 141.234 70.6085C150.026 68.1567 157.293 63.9865 160.067 59.7704C161.397 57.7884 165.718 49.7572 165.718 49.3333C165.718 48.8635 165.111 49.0812 164.561 49.6884L164.584 49.677Z" fill="#C5C7C9"/>
<path fill-rule="evenodd" clip-rule="evenodd" d="M30.6631 59.6445C29.2532 63.3909 31.1675 68.4662 40.2804 85.1701C48.7056 100.579 52.3508 106.766 58.5064 116.206C61.4638 120.743 64.7765 125.853 65.8197 127.549C67.6881 130.573 71.4708 134.744 71.9408 134.32C72.4452 133.816 71.1499 131.329 67.0118 124.856C55.4114 106.743 52.1674 101.278 42.6303 83.6349C37.2313 73.6217 34.1707 67.2518 32.692 62.8295C32.0043 60.7787 31.3623 59.0144 31.2477 58.8998C31.1446 58.7967 30.8924 59.1175 30.6746 59.656L30.6631 59.6445Z" fill="#C5C7C9"/>
<path fill-rule="evenodd" clip-rule="evenodd" d="M128.957 116.493C126.114 119.197 96.2535 138.776 90.9921 141.4C88.6193 142.626 85.7306 143.817 84.5843 144.069L82.4981 144.539L80.0794 143.061C78.7497 142.271 77.3742 141.514 77.0532 141.365C76.0445 141.01 76.2623 142.339 77.4544 143.989C80.1941 147.735 83.0025 147.919 89.6968 144.642C93.0363 143.008 99.1116 139.265 107.923 133.414C125.644 121.568 128.854 119.265 130.252 117.318C131.444 115.622 131.834 114.58 131.261 114.58C131.078 114.614 130.069 115.439 128.957 116.493Z" fill="#C5C7C9"/>
<path fill-rule="evenodd" clip-rule="evenodd" d="M128.12 0.287006C113.356 1.86804 100.884 12.351 95.3021 27.8978C93.3534 33.3283 92.7459 41.1418 93.789 47.0535C94.0756 48.5314 94.2246 49.7916 94.1902 49.8604C94.1558 49.9291 92.8605 47.8096 91.313 45.186C83.1056 31.1859 81.5467 28.9862 78.7727 27.577C76.9042 26.6032 74.0156 26.3167 71.7459 26.8896C69.7629 27.3593 63.8595 30.6016 50.597 38.5182C37.0135 46.6525 29.4137 52.4152 27.1096 56.3334C26.2041 57.8801 26.1009 58.3155 26.1697 61.4431C26.2385 67.0226 27.3274 69.44 37.7357 87.1865C44.7968 99.2504 49.4393 106.915 55.8126 117.066C58.9076 121.992 63.7678 129.955 66.6564 134.709C73.6488 146.338 75.265 148.457 78.2912 149.935C82.3262 151.883 85.8911 151.447 92.0123 148.24C94.7863 146.762 107.499 138.627 126.63 126.059C133.943 121.202 135.674 119.002 135.307 114.751C134.986 110.57 133.897 107.98 129.943 102.046C125.587 95.4583 113.803 78.6054 110.777 74.6184L108.61 71.7428L110.02 70.5513L111.43 69.3598L112.37 70.2648C113.562 71.422 119.179 73.4384 123.18 74.1945C126.962 74.9163 133.049 74.9163 137.726 74.1945C158.543 70.9866 169.707 60.2631 171.805 41.3938C172.665 33.3627 170.441 24.1858 166.005 17.6325C160.205 9.02851 150.266 2.69292 139.64 0.825473C135.617 0.103698 131.467 -0.07961 128.12 0.287006ZM137.233 2.40651C146.312 3.51781 153.373 6.97775 159.746 13.3477C166.658 20.3363 169.65 27.6343 169.65 37.7506C169.65 54.8097 160.606 66.5872 144.26 70.7575C136.947 72.5906 128.556 73.129 122.939 72.0521C120.016 71.4793 112.531 69.1306 111.774 68.5578C111.488 68.3401 110.261 68.7755 108.026 69.9211C104.312 71.8344 92.6771 79.4303 87.7825 83.1308C84.9397 85.2961 84.6531 85.4336 85.295 84.391C95.6345 67.2174 99.4173 60.4464 99.4173 59.0143C99.4173 58.6133 99.0963 57.502 98.6607 56.5969C96.4598 51.6247 95.2333 43.1009 95.8179 36.9715C96.4713 30.1318 98.271 25.194 102.558 18.824C110.662 6.62259 123.237 0.676536 137.245 2.37213L137.233 2.40651ZM79.0936 29.7996C80.7901 30.9109 81.9364 32.6752 90.1209 46.3202C97.3196 58.3842 97.4342 58.556 98.4085 58.556C99.0619 58.556 99.0161 58.705 97.9729 60.0683C93.5024 66.0488 85.3294 79.3615 83.5985 83.5089C82.521 86.1783 82.1886 87.7249 82.7732 87.7249C83.4954 87.7249 92.8605 81.9966 104.174 74.6528L107.304 72.602L107.774 73.4269C108.026 73.8623 109.573 76.0963 111.201 78.3533C112.783 80.6218 115.488 84.4712 117.139 86.8886C118.755 89.306 121.965 93.8772 124.234 97.0736C126.47 100.247 128.269 102.94 128.2 103.008C128.017 103.157 117.643 109.699 111.304 113.629C108.817 115.175 101.79 119.46 95.6345 123.172C85.1575 129.508 76.2165 135.236 72.9725 137.676L71.5282 138.753L68.0664 132.922C66.1521 129.748 61.1543 121.648 56.9359 114.958C46.9174 98.9755 33.8498 76.9098 30.6746 70.5742C28.0037 65.2812 27.4306 61.1796 28.9093 58.3384C31.2821 53.7328 41.6216 46.2057 63.9168 32.8127C70.0036 29.1809 71.4479 28.631 74.9441 28.7456C77.1793 28.8487 77.9015 29.032 79.0822 29.7881L79.0936 29.7996ZM130.791 106.846C132.992 110.089 134.104 113.079 133.92 115.164C133.565 118.589 131.215 120.743 119.328 128.408C115.798 130.676 108.45 135.465 103.017 138.994C88.7912 148.32 85.7994 149.683 81.2257 149.11C79.5636 148.927 78.8873 148.606 77.6952 147.564C76.3999 146.372 72.3993 140.689 72.3993 140.036C72.3993 139.853 73.4081 139.212 74.669 138.524C79.3458 135.935 107.842 118.36 120.131 110.444C125.105 107.27 129.175 104.647 129.209 104.647C129.244 104.647 129.966 105.655 130.791 106.846Z" fill="#293EB0"/>
<path fill-rule="evenodd" clip-rule="evenodd" d="M115.408 33.3626C114.296 33.798 112.737 35.8144 112.737 36.8226C112.737 40.6033 117.632 41.7146 119.833 38.438C120.99 36.7424 120.91 35.3446 119.615 34.05C118.503 32.9731 116.99 32.7211 115.396 33.3626H115.408ZM118.067 36.1352C118.136 36.6393 117.884 37.109 117.276 37.4985C115.66 38.5754 114.216 37.2465 115.477 35.8373C116.336 34.8635 117.93 35.0468 118.067 36.1237V36.1352Z" fill="white"/>
<path fill-rule="evenodd" clip-rule="evenodd" d="M132.946 34.2333C130.963 35.3446 130.608 37.5787 132.155 39.1597C133.347 40.3512 134.574 40.4887 136.156 39.6638C138.322 38.5525 138.93 36.3872 137.566 34.6572C136.992 33.9011 136.522 33.7178 135.33 33.7178C134.505 33.7521 133.416 33.9698 132.958 34.2219L132.946 34.2333ZM135.583 35.5279C137.348 36.181 136.442 38.1974 134.471 37.9797C133.359 37.8766 132.889 36.6163 133.645 35.6769C134.184 35.0697 134.367 35.0697 135.594 35.5279H135.583Z" fill="white"/>
<path fill-rule="evenodd" clip-rule="evenodd" d="M148.008 35.4937C145.337 38.1631 148.444 42.0469 152.043 40.5346C153.338 39.9962 154.313 38.1631 153.957 36.7883C153.35 34.3709 149.888 33.6148 148.02 35.4937H148.008ZM151.711 36.7883C152.467 38.4839 150.301 39.5265 149.338 37.9454C149.017 37.407 149.086 37.1549 149.808 36.5821C150.885 35.677 151.218 35.7228 151.722 36.7997L151.711 36.7883Z" fill="white"/>
<path fill-rule="evenodd" clip-rule="evenodd" d="M59.7902 40.1335C57.0162 40.9928 48.2586 46.4691 48.2586 47.294C48.2586 48.8407 55.5375 45.2432 59.3546 41.8177C60.8677 40.4085 61.0855 39.6982 59.7902 40.1221V40.1335Z" fill="#293EB0"/>
<path fill-rule="evenodd" clip-rule="evenodd" d="M68.0434 54.5347C63.6876 57.0896 49.6341 66.6331 49.3132 67.2747C49.061 67.7788 49.0954 67.9964 49.531 68.1339C50.2187 68.4203 53.4169 66.5185 60.3404 61.7296C63.3322 59.6445 66.7138 57.376 67.9059 56.6199C70.2443 55.142 71.6886 53.9161 71.6886 53.4464C71.6886 52.7933 70.3246 53.2287 68.0549 54.5233L68.0434 54.5347Z" fill="#293EB0"/>
<path fill-rule="evenodd" clip-rule="evenodd" d="M64.3639 65.0176C58.8502 67.9391 52.3279 72.8999 53.3022 73.5186C53.9098 73.8737 56.5462 72.4072 61.2231 69.0504C65.6133 65.8769 66.9889 64.7656 66.9889 64.2615C66.9889 63.7574 66.4157 63.9407 64.3639 65.0176Z" fill="#293EB0"/>
<path fill-rule="evenodd" clip-rule="evenodd" d="M63.1832 75.8442C61.3148 76.7836 58.6439 79.0521 58.9305 79.476C59.2858 80.0488 60.1914 79.8311 61.8879 78.6855C66.0718 75.8785 66.8972 74.0111 63.1832 75.8442Z" fill="#293EB0"/>
<path fill-rule="evenodd" clip-rule="evenodd" d="M112.416 98.7463C109.424 100.408 104.919 103.421 103.659 104.578C102.753 105.403 102.329 106.445 102.833 106.445C103.773 106.445 110.181 102.447 113.39 99.8576C116.772 97.1194 116.313 96.5809 112.416 98.7463Z" fill="#293EB0"/>
<path fill-rule="evenodd" clip-rule="evenodd" d="M104.885 125.75C103.842 126.472 103.773 128.591 104.782 129.13C107.372 130.493 110.043 127.869 108.06 125.887C107.201 125.028 106.008 124.948 104.885 125.738V125.75Z" fill="#293EB0"/>
<path fill-rule="evenodd" clip-rule="evenodd" d="M14.8444 44.6361C11.9214 47.7294 10.2363 56.7344 11.5316 62.3482C12.0704 64.8343 14.3056 69.3712 14.959 69.3712C15.6124 69.3712 15.6468 69.7722 14.7412 65.1551C13.5835 59.358 13.7325 55.5773 15.3144 49.2761C16.0021 46.4348 16.5753 44.0518 16.5753 43.9487C16.5753 43.5133 15.5322 43.9143 14.8444 44.6361Z" fill="#293EB0"/>
<path fill-rule="evenodd" clip-rule="evenodd" d="M0.504365 55.5085C0.252183 56.1959 0 57.8457 0 59.2205C0 62.5659 1.36408 65.3728 4.39027 68.1109C7.81766 71.2043 8.13862 70.7345 5.399 66.6674C3.12936 63.2876 2.87717 62.6346 2.47597 59.1747C1.93722 53.9504 1.50163 53.1255 0.492902 55.497L0.504365 55.5085Z" fill="#293EB0"/>
<path fill-rule="evenodd" clip-rule="evenodd" d="M151.493 111.704C151.39 112.643 151.275 114.694 151.275 116.31C151.275 121.568 150.198 124.226 146.518 128.259C143.813 131.215 143.744 132.074 146.3 130.378C151.699 126.815 154.187 122.175 154.118 115.794C154.084 112.334 153.51 110.249 152.502 110.111C151.848 110.008 151.711 110.26 151.493 111.693V111.704Z" fill="#293EB0"/>
<path fill-rule="evenodd" clip-rule="evenodd" d="M158.921 128.775C157.442 131.077 156.651 131.948 154.92 133.025C153.728 133.747 152.467 134.537 152.112 134.755C150.851 135.545 152.009 135.729 154.382 135.076C158.634 133.919 161.374 131.043 161.374 127.583C161.374 126.644 161.225 125.887 161.087 125.887C160.95 125.887 159.975 127.182 158.921 128.763V128.775Z" fill="#293EB0"/>
</svg>
