<svg width="217" height="35" viewBox="0 0 217 35" fill="none" xmlns="http://www.w3.org/2000/svg">
<path d="M69.5133 1.94903L79.8421 24.5865L90.0325 1.94903H99.2535V33.2273H91.6627V12.9111L82.7941 33.221H76.9216L68.053 12.9111V33.221H60.4622V1.94903H69.5133Z" fill="#3040B4"/>
<path d="M152.88 0.628821V22.8283C152.88 29.3668 147.807 34.1032 140.657 34.1032C133.507 34.1032 127.949 29.0164 127.949 21.9961C127.949 14.9759 132.802 9.84524 139.467 9.84524C142.029 9.84524 144.232 10.765 145.869 12.3042V0.628821H152.887H152.88ZM140.569 27.959C143.836 27.959 146.133 25.4562 146.171 21.9899C146.171 18.4798 143.829 15.9833 140.569 15.9833C137.308 15.9833 134.967 18.486 134.967 21.9899C134.967 25.4937 137.308 27.959 140.569 27.959Z" fill="#3040B4"/>
<path d="M159.722 0.103241C162.108 0.103241 163.782 1.72378 163.782 4.00755C163.782 6.29132 162.108 7.86805 159.722 7.86805C157.337 7.86805 155.707 6.24752 155.707 4.00755C155.707 1.76758 157.381 0.103241 159.722 0.103241ZM156.235 10.7212H163.253V33.2273H156.235V10.7212Z" fill="#3040B4"/>
<path d="M204.329 9.84524C196.959 9.84524 191.754 14.9321 191.754 21.9961C191.754 29.0602 196.298 34.1032 202.876 34.1032C206.01 34.1032 208.704 32.8331 210.554 30.5493V33.2273H217V21.9961C217 14.9321 211.706 9.84524 204.336 9.84524H204.329ZM204.374 27.959C201.107 27.959 198.772 25.4562 198.772 21.9899C198.772 18.5236 201.113 15.9833 204.374 15.9833C207.634 15.9833 209.975 18.486 209.975 21.9899C209.975 25.4937 207.634 27.959 204.374 27.959Z" fill="#3040B4"/>
<path d="M183.288 25.0245C182.671 26.9078 180.638 28.2718 178.347 28.2718C175.08 28.2718 172.745 25.6815 172.745 21.9961C172.745 18.3108 175.086 15.6767 178.441 15.6767C180.739 15.6767 182.721 17.0344 183.294 18.924H189.721C189.702 17.9604 189.016 16.4713 188.525 15.5265C188.386 15.2387 188.241 14.9634 188.071 14.6943C188.053 14.663 188.04 14.638 188.04 14.638C186.196 11.7473 182.476 9.84524 178.353 9.84524C170.895 9.84524 165.733 14.8007 165.733 21.9961C165.733 29.1916 170.85 34.1032 178.309 34.1032C182.595 34.1032 186.378 32.32 188.141 29.6421C188.241 29.4982 189.67 27.3958 189.828 24.9181L183.294 25.0245H183.288Z" fill="#3040B4"/>
<path d="M125.79 21.9085C125.79 14.8007 120.849 9.84524 113.743 9.84524C106.196 9.84524 100.991 14.7569 100.991 21.8209C100.991 28.885 106.108 34.1032 113.567 34.1032C117.463 34.1032 121.057 32.7142 123.052 30.4367C123.165 30.3053 123.272 30.1989 123.373 30.0738C123.423 30.0112 123.474 29.9549 123.518 29.8861C124.871 28.0466 125.274 26.2508 125.274 26.2508H118.508C117.891 27.7838 115.902 28.8412 113.699 28.8412C111.093 28.8412 109.198 27.2206 108.399 24.6741H125.563C125.696 24.0609 125.784 22.7407 125.784 21.9085H125.79ZM108.047 20.6321C108.443 17.341 110.388 15.1073 113.34 15.1073C116.475 15.1073 118.678 17.5225 118.722 20.6321H108.04H108.047Z" fill="#3040B4"/>
<path d="M22.0233 1.94903H10.5489L1.50411 28.9663V29.0101L-0.000213623 33.221H8.44665H8.43406L10.0643 28.178H22.508L24.1382 33.221H32.585L31.0681 28.9663L22.0233 1.94903ZM11.6064 22.6093L16.283 8.61263L21.0036 22.6093H11.6064Z" fill="#D5226B"/>
<path d="M49.7368 0.628821V12.2979C48.1066 10.765 45.8973 9.83898 43.3356 9.83898C36.67 9.83898 31.8171 14.9696 31.8171 21.9899C31.8171 29.0101 37.1987 34.097 44.5252 34.097C51.8517 34.097 56.7486 29.3605 56.7486 22.8221V0.628821H49.7305H49.7368ZM44.4434 27.959C41.1767 27.959 38.8415 25.4562 38.8415 21.9899C38.8415 18.5236 41.183 15.9833 44.4434 15.9833C47.7038 15.9833 50.0452 18.486 50.0452 21.9899C50.0012 25.4562 47.7038 27.959 44.4434 27.959Z" fill="#D5226B"/>
</svg>
