<svg width="217" height="34" viewBox="0 0 217 34" fill="none" xmlns="http://www.w3.org/2000/svg">
<path d="M69.5135 1.84579L79.8423 24.4833L90.0327 1.84579H99.2538V33.124H91.6629V12.8079L82.7943 33.1178H76.9218L68.0533 12.8079V33.1178H60.4624V1.84579H69.5135Z" fill="#EEEEEE"/>
<path d="M152.881 0.52558V22.7251C152.881 29.2635 147.807 34 140.657 34C133.507 34 127.949 28.9131 127.949 21.8929C127.949 14.8727 132.802 9.74199 139.468 9.74199C142.029 9.74199 144.232 10.6618 145.869 12.201V0.52558H152.887H152.881ZM140.569 27.8557C143.836 27.8557 146.133 25.353 146.171 21.8866C146.171 18.3765 143.83 15.88 140.569 15.88C137.309 15.88 134.967 18.3828 134.967 21.8866C134.967 25.3905 137.309 27.8557 140.569 27.8557Z" fill="#EEEEEE"/>
<path d="M159.722 0C162.108 0 163.782 1.62054 163.782 3.90431C163.782 6.18808 162.108 7.76481 159.722 7.76481C157.337 7.76481 155.707 6.14428 155.707 3.90431C155.707 1.66434 157.381 0 159.722 0ZM156.235 10.618H163.254V33.124H156.235V10.618Z" fill="#EEEEEE"/>
<path d="M204.33 9.74199C196.959 9.74199 191.754 14.8289 191.754 21.8929C191.754 28.9569 196.298 34 202.876 34C206.01 34 208.704 32.7299 210.555 30.4461V33.124H217V21.8929C217 14.8289 211.707 9.74199 204.336 9.74199H204.33ZM204.374 27.8557C201.107 27.8557 198.772 25.353 198.772 21.8866C198.772 18.4203 201.113 15.88 204.374 15.88C207.634 15.88 209.976 18.3828 209.976 21.8866C209.976 25.3905 207.634 27.8557 204.374 27.8557Z" fill="#EEEEEE"/>
<path d="M183.288 24.9212C182.671 26.8046 180.638 28.1686 178.347 28.1686C175.08 28.1686 172.745 25.5782 172.745 21.8929C172.745 18.2076 175.087 15.5734 178.442 15.5734C180.739 15.5734 182.722 16.9312 183.294 18.8208H189.721C189.702 17.8572 189.016 16.3681 188.525 15.4233C188.386 15.1354 188.242 14.8601 188.072 14.5911C188.053 14.5598 188.04 14.5348 188.04 14.5348C186.196 11.6441 182.476 9.74199 178.353 9.74199C170.895 9.74199 165.733 14.6975 165.733 21.8929C165.733 29.0883 170.851 34 178.309 34C182.596 34 186.379 32.2168 188.141 29.5388C188.242 29.3949 189.67 27.2926 189.828 24.8149L183.294 24.9212H183.288Z" fill="#EEEEEE"/>
<path d="M125.79 21.8053C125.79 14.6975 120.849 9.74199 113.743 9.74199C106.196 9.74199 100.991 14.6537 100.991 21.7177C100.991 28.7817 106.108 34 113.567 34C117.463 34 121.057 32.611 123.052 30.3335C123.166 30.2021 123.273 30.0957 123.373 29.9706C123.424 29.908 123.474 29.8517 123.518 29.7828C124.871 27.9433 125.274 26.1476 125.274 26.1476H118.508C117.891 27.6805 115.902 28.7379 113.699 28.7379C111.093 28.7379 109.199 27.1174 108.399 24.5709H125.564C125.696 23.9577 125.784 22.6375 125.784 21.8053H125.79ZM108.047 20.5289C108.443 17.2378 110.388 15.004 113.34 15.004C116.475 15.004 118.678 17.4192 118.722 20.5289H108.041H108.047Z" fill="#EEEEEE"/>
<path d="M22.0235 1.84579H10.5491L1.50432 28.8631V28.9069L0 33.1178H8.44686H8.43427L10.0645 28.0747H22.5082L24.1384 33.1178H32.5852L31.0683 28.8631L22.0235 1.84579ZM11.6066 22.5061L16.2832 8.50939L21.0039 22.5061H11.6066Z" fill="#EEEEEE"/>
<path d="M49.737 0.52558V12.1947C48.1068 10.6618 45.8975 9.73574 43.3358 9.73574C36.6702 9.73574 31.8173 14.8664 31.8173 21.8866C31.8173 28.9069 37.1989 33.9937 44.5254 33.9937C51.8519 33.9937 56.7488 29.2573 56.7488 22.7188V0.52558H49.7307H49.737ZM44.4436 27.8557C41.1769 27.8557 38.8417 25.353 38.8417 21.8866C38.8417 18.4203 41.1832 15.88 44.4436 15.88C47.704 15.88 50.0454 18.3828 50.0454 21.8866C50.0014 25.353 47.704 27.8557 44.4436 27.8557Z" fill="#EEEEEE"/>
</svg>
