<svg width="323" height="27" viewBox="0 0 323 27" fill="none" xmlns="http://www.w3.org/2000/svg">
<path d="M1.97153 22.0113C43.581 19.6708 85.1905 17.3378 126.792 14.9973C168.394 12.6568 209.581 10.3467 250.979 8.02137C274.332 6.71004 297.685 5.39872 321.031 4.0874L321.028 0.304603C292.512 3.18923 264.003 6.08139 235.486 8.96602C206.969 11.8506 178.46 14.7428 149.944 17.6274C133.892 19.2519 117.841 20.8764 101.789 22.5085C99.4186 22.7514 99.3224 26.3983 101.791 26.2837C125.726 25.1382 149.66 23.9926 173.587 22.8471C197.514 21.7016 221.456 20.5561 245.383 19.4105C258.936 18.7614 272.496 18.1123 286.049 17.4632C288.465 17.3486 288.478 13.5733 286.047 13.6879C262.112 14.8334 238.178 15.979 214.251 17.1245C190.317 18.27 166.382 19.4156 142.455 20.5611C128.902 21.2102 115.342 21.8593 101.789 22.5085L101.791 26.2837C130.308 23.3991 158.817 20.5069 187.334 17.6223C215.85 14.7377 244.359 11.8455 272.876 8.96088C288.928 7.33639 304.979 5.71189 321.031 4.07985C323.401 3.83695 323.49 0.167361 321.028 0.304603C279.419 2.64513 237.81 4.9781 196.208 7.31862C154.606 9.65914 113.419 11.9692 72.0208 14.2945C48.6679 15.6059 25.3149 16.9172 1.96949 18.2285C-0.446598 18.3657 -0.459656 22.141 1.97153 22.0038L1.97153 22.0113Z" fill="#DB1B77"/>
</svg>
