<svg width="319" height="60" viewBox="0 0 319 60" fill="none" xmlns="http://www.w3.org/2000/svg">
<path d="M2.0333 59.3213C43.0966 52.2055 84.1608 45.0971 125.217 37.9822C166.272 30.8673 206.919 23.8304 247.774 16.754C270.821 12.7626 293.867 8.77119 316.907 4.78065L316.469 1.02324C288.474 7.17204 260.488 13.3275 232.493 19.4763C204.498 25.6251 176.512 31.7805 148.517 37.9293C132.759 41.3911 117.001 44.8529 101.244 48.3223C98.9175 48.8365 99.2419 52.4703 101.681 52.0722C125.325 48.1785 148.968 44.2848 172.604 40.392C196.24 36.4992 219.891 32.6046 243.526 28.7118C256.914 26.5066 270.31 24.3004 283.698 22.0952C286.084 21.7032 285.663 17.9515 283.261 18.3453C259.618 22.239 235.974 26.1326 212.338 30.0254C188.695 33.9191 165.052 37.8128 141.416 41.7056C128.028 43.9109 114.632 46.117 101.244 48.3223L101.681 52.0722C129.676 45.9234 157.663 39.7679 185.657 33.6191C213.652 27.4703 241.639 21.3149 269.634 15.1661C285.391 11.7043 301.149 8.24247 316.906 4.77315C319.233 4.2589 318.898 0.603515 316.469 1.02324C275.406 8.13905 234.342 15.2473 193.286 22.3623C152.23 29.4772 111.583 36.5141 70.7282 43.5905C47.6816 47.5819 24.6349 51.5733 1.59572 55.5639C-0.788492 55.9783 -0.366787 59.73 2.03243 59.3138L2.0333 59.3213Z" fill="#DB1B77"/>
</svg>
