<svg width="403" height="459" viewBox="0 0 403 459" fill="none" xmlns="http://www.w3.org/2000/svg">
<rect x="16.2016" y="30.4233" width="367.93" height="428.195" transform="rotate(-2.50255 16.2016 30.4233)" fill="white"/>
<rect x="33.6687" y="48.7085" width="334.626" height="390.133" transform="rotate(-2.50255 33.6687 48.7085)" fill="#D9D9D9"/>
<g clip-path="url(#clip0_246_60)">
<path d="M12.111 99.9592C18.7891 103.288 27.4107 99.6009 31.3296 91.7397L57.1662 39.9133C59.996 34.2369 58.3454 27.6487 53.4863 25.2264C48.6273 22.804 42.3725 25.4512 39.5427 31.1276L20.6973 68.9303L23.6006 70.3777L42.4461 32.575C44.4769 28.5013 48.7794 26.5084 52.0368 28.1323C55.2942 29.7562 56.2931 34.3919 54.2622 38.4656L28.4257 90.292C25.3053 96.5512 18.6363 99.5837 13.5599 97.053C8.48347 94.5223 6.8905 87.371 10.0108 81.1118L40.4068 20.1397C44.5325 11.8637 53.3857 7.87064 60.142 11.2388C66.8983 14.6069 69.0394 24.0809 64.9137 32.3569L41.8127 78.6958L44.7161 80.1432L67.817 33.8043C72.7421 23.925 69.9491 12.4985 61.5918 8.33219C53.2345 4.16589 42.4285 8.813 37.5034 18.6923L7.10749 79.6644C3.18819 87.5263 5.43295 96.6301 12.111 99.9592Z" fill="#E0236B"/>
<path d="M60.6216 11.4961C60.7868 11.569 60.9527 11.6421 61.1154 11.7233C67.8717 15.0914 70.0116 24.5647 65.8858 32.8408L42.7852 79.179L41.8127 78.6942L64.913 32.3566C68.9392 24.2804 66.9958 15.067 60.6206 11.4964L60.6216 11.4961Z" fill="#F490B9"/>
<path d="M40.5152 31.6124L21.6697 69.4151L20.6973 68.9303L39.5427 31.1276C42.3725 25.4512 48.6279 22.8043 53.4863 25.2264C53.6497 25.3078 53.8079 25.3946 53.9643 25.4853C49.1834 23.4713 43.2498 26.1269 40.5152 31.6124Z" fill="#F490B9"/>
<path d="M28.4266 90.2916L54.2628 38.4659C56.1913 34.5977 55.3838 30.2274 52.5081 28.4062C52.6772 28.4698 52.8456 28.5363 53.0096 28.618C56.2676 30.2422 57.2658 34.8776 55.235 38.9513L29.3984 90.7777C26.2781 97.0369 19.6097 100.07 14.5326 97.5387C14.3693 97.4572 14.2107 97.371 14.0544 97.2804C19.0618 99.3859 25.4058 96.351 28.426 90.2929L28.4266 90.2916Z" fill="#F490B9"/>
<path d="M61.5918 8.33231C61.7551 8.41375 61.9118 8.50218 62.0707 8.58934C53.7855 4.84028 43.3048 9.49069 38.4759 19.1772L8.07994 80.1493C4.25643 87.819 6.30181 96.6685 12.6042 100.188C12.439 100.115 12.2734 100.041 12.1107 99.96C5.43264 96.6308 3.1882 87.5264 7.1075 79.6645L37.5034 18.6924C42.4285 8.81313 53.2345 4.16601 61.5918 8.33231Z" fill="#F490B9"/>
<path d="M42.4467 32.5755L23.6012 70.3782L22.4343 69.7965L41.2798 31.9938C43.3106 27.92 47.6132 25.9272 50.8712 27.5514C51.0682 27.6496 51.256 27.76 51.4362 27.8792C48.2682 26.759 44.3554 28.7483 42.4473 32.5759L42.4467 32.5755Z" fill="#911C4C"/>
<path d="M8.84486 80.5298L39.2405 19.5583C43.3662 11.2823 52.2194 7.28922 58.9757 10.6574C59.1715 10.755 59.3625 10.8589 59.5503 10.9661C52.8773 8.10731 44.4139 12.1032 40.4074 20.14L10.0115 81.1121C7.01166 87.1296 8.36899 93.9687 12.9897 96.737C12.7892 96.6553 12.59 96.5695 12.3936 96.4715C7.31653 93.9405 5.7242 86.7896 8.84454 80.5304L8.84486 80.5298Z" fill="#911C4C"/>
<path d="M60.9994 8.05913C61.1977 8.14686 61.396 8.2346 61.5918 8.33219C69.9491 12.4985 72.7421 23.925 67.817 33.8043L44.7164 80.1426L43.5494 79.5608L66.6501 33.2226C71.4597 23.5748 68.9058 12.455 60.9994 8.05913Z" fill="#911C4C"/>
<path d="M30.1637 91.1577L55.9999 39.332C58.7152 33.8853 57.303 27.6002 52.8911 24.9607C53.0916 25.0424 53.2905 25.1289 53.4869 25.2268C58.3454 27.6488 59.9967 34.2374 57.1668 39.9138L31.3303 91.7401C27.411 99.6019 18.7895 103.289 12.1114 99.9603C11.9156 99.8627 11.7246 99.7587 11.5368 99.6516C18.1246 102.487 26.3589 98.7899 30.1633 91.1584L30.1637 91.1577Z" fill="#911C4C"/>
</g>
<defs>
<clipPath id="clip0_246_60">
<rect width="33.8716" height="104.078" fill="white" transform="matrix(-0.894956 -0.446155 -0.446155 0.894956 76.7486 15.8882)"/>
</clipPath>
</defs>
</svg>
