<svg width="454" height="413" viewBox="0 0 454 413" fill="none" xmlns="http://www.w3.org/2000/svg">
<g clip-path="url(#clip0_193_1162)">
<path d="M403.234 114.353C399.187 107.664 397.398 100.083 391.811 96.4601C387.234 93.4906 380.966 92.9124 376.218 95.728C375.848 95.6493 375.557 95.6664 375.287 95.6424C367.617 95.0438 363.412 98.157 358.862 104.332C358.017 105.482 357.285 106.73 356.669 108.034C352.102 108.591 348.353 113.076 347.939 116.871C347.815 117.982 347.75 119.084 347.939 120.141C343.614 121.123 340.47 126.566 339.844 129.481C339.194 132.508 339.386 135.748 340.847 138.526C341.264 139.317 341.781 140.042 342.379 140.675C341.5 141.229 340.693 141.886 340.005 142.522C337.665 144.684 336.009 147.555 336.355 150.822C336.673 153.843 338.784 156.603 341.418 158.027C345.852 160.421 350.296 159.942 354.008 157.753C356.464 159.508 359.519 160.521 362.543 160.846C366.461 161.266 370.754 160.637 374.723 158.283C378.373 159.953 382.838 159.44 386.218 157.339C388.53 155.902 390.309 153.689 390.768 151.195C399.136 150.394 410.641 149.265 416.662 142.84C426.057 132.813 408.503 123.046 403.238 114.349L403.234 114.353Z" fill="black"/>
<path d="M450.086 377.834C427.75 398.949 398.479 412.391 362.458 412.397H336.314C339.485 382.141 352.985 318.32 356.081 312.942C367.607 292.959 386.303 273.948 410.172 280.157C418.486 282.316 436.696 287.465 448.26 317.41C454.531 333.657 453.686 356.38 450.086 377.834Z" fill="#283EB0" stroke="black" stroke-width="1.02634" stroke-miterlimit="10"/>
<path d="M397.364 285.854C398.783 301.057 400.206 316.264 401.626 331.467C403.06 346.811 404.493 362.155 405.927 377.499C406.72 385.983 407.511 394.464 408.304 402.948C408.397 403.93 409.946 403.94 409.851 402.948C408.431 387.745 407.008 372.538 405.588 357.334C404.154 341.991 402.721 326.647 401.288 311.303C400.494 302.819 399.704 294.338 398.91 285.854C398.817 284.872 397.268 284.861 397.364 285.854Z" fill="black"/>
<path d="M404.001 344.358C408.551 341.933 412.417 338.33 415.198 333.989C417.411 330.533 419.053 326.599 419.269 322.47C419.474 318.583 419.053 314.653 418.578 310.797C418.003 306.148 417.233 301.526 416.385 296.921C415.564 292.463 414.654 288.019 413.723 283.585C413.518 282.61 412.026 283.024 412.232 283.996C413.939 292.104 415.578 300.236 416.724 308.447C417.281 312.439 417.753 316.479 417.767 320.513C417.774 321.936 417.74 323.383 417.473 324.783C417.066 326.91 416.187 328.997 415.191 330.913C412.519 336.052 408.332 340.297 403.217 343.021C402.338 343.489 403.118 344.827 403.997 344.358H404.001Z" fill="black"/>
<path d="M433.278 292.99L427.945 271.708C427.945 271.708 372.441 280.958 362.287 281.15C352.133 281.341 357.497 299.333 357.497 299.333C357.497 299.333 382.772 308.83 433.278 292.994V292.99Z" fill="#283EB0" stroke="black" stroke-width="1.02634" stroke-miterlimit="10"/>
<path d="M360.073 302.35C379.334 303.353 398.759 302.258 417.651 298.259C422.83 297.164 427.959 295.843 433.022 294.307C433.973 294.02 433.566 292.525 432.611 292.816C414.497 298.32 395.602 300.876 376.693 301.139C371.151 301.218 365.605 301.095 360.07 300.807C359.074 300.756 359.078 302.302 360.07 302.354L360.073 302.35Z" fill="black"/>
<path d="M375.848 327.085C373.443 348.779 373.269 370.704 375.444 392.425C376.06 398.57 376.864 404.693 377.839 410.79C377.997 411.772 379.488 411.354 379.331 410.379C375.893 388.895 374.743 367.064 375.896 345.337C376.218 339.24 376.724 333.154 377.398 327.085C377.507 326.096 375.958 326.103 375.852 327.085H375.848Z" fill="black"/>
<path d="M413.385 195.417C410.333 188.024 403.261 183.347 396.176 180.282C386.953 176.286 376.922 173.935 367.069 172.105C356.703 170.179 346.211 168.944 335.742 167.73C331.975 167.292 328.205 166.885 324.435 166.484L314.227 152.755C307.015 143.056 299.81 133.358 292.609 123.652C285.462 114.025 278.39 104.336 271.155 94.7741C267.754 90.2787 264.258 85.821 260.399 81.7054C256.978 78.0585 253.149 74.7229 248.634 72.4957C244.142 70.2823 239.044 69.4201 234.121 70.532C229.684 71.5344 225.777 73.9839 223.423 77.8874C221.073 79.858 220.625 83.2073 220.926 86.2692C221.121 88.25 221.624 90.1966 222.058 92.133C222.575 94.4388 223.126 96.7378 223.697 99.03C225.89 107.819 260.105 181.719 287.025 209.101C301.072 223.388 316.361 225.037 336.3 224.989C339.916 224.982 351.072 224.373 354.702 224.24C355.602 224.322 356.505 224.404 357.405 224.486C363.484 225.057 369.567 225.608 375.65 226.159C385.838 227.079 397.295 227.791 405.831 221.068C406.156 220.812 406.47 220.548 406.778 220.278C406.977 221.79 409.19 222.577 409.974 220.853C413.515 213.087 416.84 203.795 413.378 195.417H413.385Z" fill="white" stroke="black" stroke-width="1.02634" stroke-miterlimit="10"/>
<path d="M399.625 218.865C401.438 217.11 403.172 215.273 404.821 213.354C409.245 208.201 412.984 202.416 415.718 196.193C417.083 193.087 418.109 189.714 417.948 186.289C417.784 182.748 416.399 179.498 414.25 176.706C410.066 171.277 403.456 167.976 397.045 165.971C390.507 163.925 372.345 163.2 365.52 163.025C365.52 163.025 347.634 164.739 332.56 166.631C332.54 166.789 330.333 198.396 331.148 236.193C363.19 235.334 377.812 228.844 399.625 218.868V218.865Z" fill="#E0236B" stroke="black" stroke-width="1.02634" stroke-miterlimit="10"/>
<path d="M444.346 184.719C437.551 166.566 423.313 158.964 401.407 159.484C395.725 159.618 365.52 163.022 365.52 163.022C359.988 172.97 347.959 268.947 348.387 274.178C395.649 287.906 451.41 281.006 451.41 281.006C451.41 261.742 448.578 196.019 444.346 184.715V184.719Z" fill="#E0236B" stroke="black" stroke-width="1.02634" stroke-miterlimit="10"/>
<path d="M310.7 232.18C300.518 206.587 228.439 62.872 221.412 51.8389C214.576 41.1103 207.388 30.4022 199.161 20.6862C191.631 11.7913 182.117 3.36844 170.218 1.44235C165.959 0.751285 161.586 1.03524 157.591 2.52001L48.0804 38.8079H48.0736C46.4315 39.3484 44.8475 40.0737 43.349 41.0111C39.1445 43.6488 36.062 47.7746 33.9581 52.2084C31.8027 56.7482 30.6019 61.6918 29.8767 66.6421C29.6509 68.1782 31.0809 68.9685 32.2475 68.7256L79.5206 52.9713C83.773 56.9672 87.461 61.5104 90.9779 66.1529C94.8164 71.2196 98.501 76.4026 102.056 81.6711C109.209 92.2629 115.829 103.207 122.093 114.343C132.107 132.146 141.33 150.607 150.307 168.958C149.725 169.187 41.0843 204.924 41.0843 204.924C38.8639 205.618 36.7771 206.758 34.9365 208.345C30.5369 212.139 27.3861 217.353 24.2694 222.187C17.4511 232.762 11.5702 243.918 6.76012 255.543C4.4406 261.15 2.39819 266.87 0.595258 272.666C0.126564 274.167 1.69344 275.32 2.78478 274.937L85.9215 247.377C86.3833 248.338 86.8486 249.303 87.2899 250.274C96.698 270.839 102.134 292.963 111.724 313.452C120.82 332.891 134.283 352.289 154.854 360.701C165.175 364.923 177.094 366.295 187.744 362.446C188.186 362.289 188.613 362.107 189.044 361.933L296.769 326.302C297.214 326.162 297.662 326.021 298.103 325.864C308.199 322.217 315.715 313.945 319.837 304.191C329.906 280.38 319.622 254.609 310.7 232.18Z" fill="white" stroke="black" stroke-width="1.02634" stroke-miterlimit="10"/>
<path d="M211.788 35.9408C206.4 28.2603 200.724 20.5594 194.012 13.9737C188.124 8.19888 181.111 3.22114 172.999 1.22321C167.847 -0.0460297 162.408 -0.0426086 157.382 1.77401C157.632 2.20507 157.885 2.63613 158.135 3.06719C158.573 2.51981 158.189 1.50716 157.382 1.77401C155.032 2.55402 152.678 3.33404 150.328 4.11064C144.354 6.09147 138.381 8.06888 132.408 10.0497C124.437 12.6908 116.465 15.3319 108.494 17.9764C100.147 20.7441 91.799 23.5084 83.4549 26.2761C76.3766 28.623 69.3017 30.9665 62.2234 33.3133C57.9846 34.7194 53.7425 36.1221 49.5037 37.5282C48.5937 37.8292 47.6289 38.1371 46.8968 38.4142C39.9656 41.028 35.265 46.9636 32.487 53.6417C30.8791 57.511 29.887 61.5992 29.2438 65.7319C29.0283 67.1038 29.0556 68.4346 30.4241 69.1907C31.0467 69.5328 31.8199 69.632 32.5075 69.4609C34.1155 69.0573 35.7029 68.397 37.2732 67.8735C44.8578 65.3453 52.439 62.8205 60.0236 60.2923C66.2501 58.2157 72.4799 56.1425 78.7064 54.0659C79.0485 53.953 79.394 53.8367 79.7362 53.7238C79.4864 53.6588 79.2332 53.5903 78.9835 53.5253C85.9352 60.0939 91.5732 68.0035 97.0676 75.79C97.6389 76.5974 98.98 75.8242 98.4052 75.01C92.8391 67.1209 87.1258 59.0881 80.0817 52.434C79.8867 52.2493 79.5925 52.1466 79.329 52.2356C74.8576 53.7238 70.3896 55.2154 65.9182 56.7036C57.9778 59.3481 50.0374 61.996 42.097 64.6406C39.3772 65.5472 36.6574 66.4538 33.9376 67.3604C33.3662 67.5519 32.7847 67.7983 32.1996 67.9385C31.8302 68.0275 31.4641 68.0275 31.1186 67.8051C30.3659 67.3159 30.708 66.3511 30.8278 65.619C31.0022 64.5585 31.1972 63.4979 31.423 62.4476C32.9797 55.1743 36.0313 47.6547 42.0217 42.9096C43.568 41.6848 45.3162 40.6893 47.1534 39.9743C47.5605 39.8169 47.9847 39.6972 48.385 39.5295C48.9939 39.2764 48.2618 39.4885 48.3029 39.5637C48.3029 39.5637 48.3508 39.5466 48.3542 39.5466C48.556 39.5672 48.9324 39.355 49.1205 39.2935C52.7401 38.0927 56.363 36.8918 59.9826 35.6945C66.6093 33.4981 73.236 31.3017 79.8627 29.1054C87.9605 26.4232 96.0549 23.7376 104.153 21.0555C112.209 18.387 120.266 15.7151 128.32 13.0466C134.734 10.9221 141.149 8.79415 147.563 6.66964C150.831 5.58514 154.098 4.50406 157.368 3.41957C157.512 3.37167 157.659 3.32378 157.803 3.27588C157.553 2.84482 157.3 2.41376 157.05 1.9827C156.622 2.51981 156.995 3.5701 157.803 3.27588C166.198 0.237923 175.339 2.54034 182.76 7.02201C189.831 11.295 195.534 17.4085 200.714 23.765C204.132 27.9593 207.354 32.3041 210.461 36.731C211.029 37.5419 212.37 36.7687 211.798 35.951L211.788 35.9408Z" fill="black"/>
<path d="M39.9143 207.048C44.3891 205.132 49.3531 204.089 54.1906 205.098C58.402 205.977 62.1071 208.28 65.2066 211.208C68.1967 214.034 70.5744 217.4 72.7502 220.876C75.2442 224.855 77.4679 229.001 79.5583 233.206C81.6657 237.448 83.6431 241.762 85.4426 246.145C85.8155 247.055 87.3139 246.654 86.9342 245.734C83.3762 237.082 79.3085 228.536 74.3821 220.575C69.8936 213.319 64.0332 205.957 55.3538 203.781C49.8595 202.402 44.2523 203.521 39.1308 205.714C38.2174 206.104 39.0043 207.438 39.9108 207.051L39.9143 207.048Z" fill="black"/>
<path d="M193.766 359.425C203.447 353.9 209.561 343.934 212.219 333.308C215.332 320.859 213.553 308.006 209.653 295.943C205.209 282.2 198.466 269.238 192.329 256.203C185.921 242.594 179.517 228.981 173.109 215.372C166.728 201.818 160.348 188.263 153.968 174.709C153.191 173.06 152.414 171.411 151.638 169.762C151.214 168.862 149.879 169.645 150.3 170.542C156.551 183.826 162.804 197.107 169.058 210.391C175.346 223.747 181.634 237.106 187.919 250.462C190.994 256.997 194.07 263.528 197.146 270.062C200.184 276.518 203.211 282.987 205.777 289.651C210.423 301.731 213.68 314.828 211.737 327.821C210.136 338.515 205.271 349.258 196.42 355.854C195.322 356.671 194.173 357.414 192.982 358.094C192.117 358.587 192.897 359.925 193.762 359.432L193.766 359.425Z" fill="black"/>
<path d="M44.8269 41.0757C50.9542 38.9922 57.9264 39.0709 63.8621 41.7633C69.6643 44.3942 74.1528 48.8724 78.8021 53.0975C79.5376 53.7646 80.6358 52.6733 79.8969 52.0028C75.0149 47.5656 70.2698 42.8307 64.1084 40.1896C57.9196 37.5417 50.7626 37.4219 44.4164 39.5807C43.479 39.8988 43.8827 41.3939 44.8269 41.0723V41.0757Z" fill="black"/>
<path d="M100.838 41.6339C112.097 37.8433 123.325 33.9637 134.649 30.3715C138.72 29.0818 142.794 27.8091 146.872 26.5399C147.82 26.2457 147.416 24.7506 146.462 25.0483C135.165 28.5618 123.92 32.1916 112.716 35.989C108.621 37.3746 104.526 38.7635 100.427 40.1423C99.4863 40.457 99.89 41.9555 100.838 41.6339Z" fill="black"/>
<path d="M114.567 60.4535C132.206 54.5144 149.849 48.5856 167.573 42.8997C172.551 41.302 177.532 39.7283 182.524 38.1751C183.471 37.8809 183.068 36.3859 182.113 36.6835C164.392 42.1984 146.77 48.0211 129.171 53.9157C124.166 55.5921 119.161 57.2787 114.156 58.9619C113.215 59.2766 113.619 60.7751 114.567 60.4535Z" fill="black"/>
<path d="M128.292 79.2763C140.372 75.2086 152.428 71.0656 164.577 67.2032C168.764 65.8724 172.955 64.5621 177.149 63.2552C178.097 62.961 177.693 61.466 176.739 61.7636C164.614 65.5337 152.544 69.4474 140.519 73.5151C136.308 74.9383 132.093 76.3649 127.878 77.7847C126.937 78.0995 127.341 79.5979 128.289 79.2763H128.292Z" fill="black"/>
<path d="M140.605 101.554C158.244 95.615 175.887 89.6862 193.612 84.0003C198.589 82.4026 203.57 80.8289 208.562 79.2757C209.51 78.9815 209.106 77.4865 208.151 77.7841C190.43 83.299 172.808 89.1217 155.209 95.0163C150.204 96.6926 145.199 98.3793 140.194 100.062C139.253 100.377 139.657 101.876 140.605 101.554Z" fill="black"/>
<path d="M152.917 123.837C170.557 117.898 188.199 111.969 205.924 106.283C210.902 104.685 215.883 103.112 220.875 101.558C221.822 101.264 221.419 99.7692 220.464 100.067C202.743 105.582 185.12 111.404 167.522 117.299C162.517 118.975 157.512 120.662 152.507 122.345C151.566 122.66 151.97 124.158 152.917 123.837Z" fill="black"/>
<path d="M164.498 146.495C182.137 140.556 199.78 134.627 217.505 128.941C222.483 127.344 227.464 125.77 232.455 124.217C233.403 123.922 232.999 122.427 232.045 122.725C214.323 128.24 196.701 134.059 179.103 139.957C174.098 141.634 169.092 143.32 164.087 145.003C163.147 145.318 163.55 146.817 164.498 146.495Z" fill="black"/>
<path d="M175.278 169.334C187.464 165.229 199.629 161.055 211.884 157.155C216.085 155.817 220.293 154.503 224.504 153.193C225.452 152.899 225.048 151.404 224.094 151.702C211.863 155.506 199.688 159.457 187.553 163.559C183.324 164.989 179.096 166.419 174.867 167.842C173.927 168.157 174.33 169.656 175.278 169.334Z" fill="black"/>
<path d="M185.986 192.071C203.625 186.132 221.268 180.203 238.993 174.517C243.97 172.919 248.952 171.345 253.943 169.792C254.891 169.498 254.487 168.003 253.532 168.301C235.811 173.816 218.189 179.638 200.591 185.533C195.585 187.209 190.58 188.896 185.575 190.579C184.634 190.894 185.038 192.392 185.986 192.071Z" fill="black"/>
<path d="M198.23 214.353C215.87 208.414 233.512 202.485 251.237 196.799C256.215 195.201 261.196 193.628 266.187 192.075C267.135 191.78 266.731 190.285 265.777 190.583C248.055 196.098 230.433 201.921 212.835 207.815C207.83 209.491 202.825 211.178 197.82 212.861C196.879 213.176 197.283 214.674 198.23 214.353Z" fill="black"/>
<path d="M207.429 238.194C225.069 232.255 242.711 226.326 260.436 220.64C265.414 219.043 270.395 217.469 275.387 215.916C276.334 215.622 275.931 214.127 274.976 214.424C257.255 219.939 239.632 225.762 222.034 231.656C217.029 233.333 212.024 235.019 207.019 236.703C206.078 237.017 206.482 238.516 207.429 238.194Z" fill="black"/>
<path d="M216.796 260.557C234.436 254.618 252.079 248.69 269.803 243.004C274.781 241.406 279.762 239.832 284.754 238.279C285.701 237.985 285.298 236.49 284.343 236.788C266.622 242.302 249 248.125 231.401 254.02C226.396 255.696 221.391 257.383 216.386 259.066C215.445 259.381 215.849 260.879 216.796 260.557Z" fill="black"/>
<path d="M127.645 239.563C139.589 235.54 151.508 231.444 163.516 227.627C167.683 226.303 171.857 224.999 176.03 223.699C176.978 223.405 176.574 221.91 175.62 222.207C163.636 225.936 151.703 229.802 139.814 233.822C135.62 235.242 131.429 236.658 127.235 238.071C126.294 238.386 126.698 239.884 127.645 239.563Z" fill="black"/>
<path d="M122.302 266.751C138.737 261.215 155.172 255.673 171.686 250.384C176.492 248.844 181.302 247.325 186.119 245.827C187.067 245.533 186.663 244.038 185.709 244.335C169.198 249.47 152.78 254.879 136.39 260.38C131.556 262.002 126.722 263.631 121.891 265.259C120.95 265.574 121.354 267.072 122.302 266.751Z" fill="black"/>
<path d="M131.669 289.074C148.473 283.415 165.281 277.753 182.168 272.341C187.026 270.784 191.891 269.248 196.759 267.733C197.707 267.439 197.303 265.943 196.349 266.241C179.465 271.493 162.678 277.028 145.914 282.652C141.026 284.291 136.144 285.937 131.255 287.582C130.314 287.897 130.718 289.395 131.665 289.074H131.669Z" fill="black"/>
<path d="M162.247 304.714C173.047 301.078 183.817 297.349 194.683 293.904C198.689 292.634 202.698 291.386 206.711 290.137C207.659 289.843 207.255 288.348 206.301 288.645C195.466 292.015 184.676 295.491 173.933 299.135C169.903 300.503 165.873 301.865 161.84 303.223C160.899 303.538 161.303 305.036 162.25 304.714H162.247Z" fill="black"/>
<path d="M101.946 222.064C118.292 216.559 134.638 211.045 151.067 205.783C155.86 204.247 160.659 202.735 165.463 201.24C166.41 200.945 166.007 199.45 165.052 199.748C148.631 204.856 132.298 210.234 115.997 215.707C111.176 217.326 106.356 218.951 101.535 220.572C100.595 220.887 100.998 222.386 101.946 222.064Z" fill="black"/>
<path d="M87.4952 200.897C104.974 195.012 122.456 189.131 140.02 183.5C144.974 181.913 149.934 180.343 154.902 178.796C155.849 178.502 155.446 177.007 154.491 177.305C136.93 182.768 119.469 188.536 102.032 194.379C97.047 196.049 92.0658 197.725 87.0847 199.405C86.1439 199.72 86.5476 201.218 87.4952 200.897Z" fill="black"/>
<path d="M224.504 285.17C242.144 279.231 259.786 273.302 277.511 267.616C282.489 266.018 287.47 264.445 292.461 262.891C293.409 262.597 293.005 261.102 292.051 261.4C274.329 266.915 256.707 272.737 239.109 278.632C234.104 280.308 229.099 281.995 224.094 283.678C223.153 283.993 223.557 285.491 224.504 285.17Z" fill="black"/>
<path d="M412.55 204.736C404.89 197.901 394.544 193.997 384.284 196.101C378.599 197.268 373.494 199.871 369.125 203.433C368.263 206.344 358.387 244.366 355.342 256.624C349.358 254.944 286.635 229.563 286.502 229.515C279.598 226.99 271.514 226.125 264.121 225.653C257.132 225.208 249.927 225.776 243.071 226.029C241.346 226.094 239.619 226.169 237.895 226.258C236.386 226.337 234.846 226.364 233.365 226.713C232.058 227.021 230.755 227.606 229.899 228.674C228.856 229.974 228.702 231.695 229.195 233.258C230.135 236.228 232.831 237.565 235.708 238.499C238.876 239.525 247.463 240.237 248.469 240.275C241.801 242.132 240.707 247.685 241.353 249.98C241.856 251.77 242.954 252.95 244.309 253.87C243.81 254.856 243.423 255.899 243.29 257.004C242.609 262.526 247.689 265.82 249.13 266.416C248.958 281.376 273.009 281.52 273.762 277.175C277.655 278.957 329.389 300.746 337.973 303.555C358.017 310.117 375.807 313.425 389.399 301.431C401.989 290.319 404.407 266.487 408.694 250.767C412.074 238.366 419.803 229.481 421.944 216.802C419.556 212.338 416.487 208.25 412.553 204.739L412.55 204.736Z" fill="white" stroke="black" stroke-width="1.02634" stroke-miterlimit="10"/>
<path d="M257.925 86.3752C255.205 86.1939 252.451 86.3102 249.728 86.341C247.008 86.3718 244.289 86.4026 241.569 86.4368C239.027 86.4676 236.211 86.1836 233.758 86.9739C231.473 87.7095 229.852 89.7074 230.012 92.1569C230.163 94.4183 231.702 96.4744 233.522 97.7197C235.575 99.1223 237.994 99.745 240.44 100.019C245.493 100.587 254.843 100.467 261.832 99.9297" fill="white"/>
<path d="M257.925 86.3752C255.205 86.1939 252.451 86.3102 249.728 86.341C247.008 86.3718 244.289 86.4026 241.569 86.4368C239.027 86.4676 236.211 86.1836 233.758 86.9739C231.473 87.7095 229.852 89.7074 230.012 92.1569C230.163 94.4183 231.702 96.4744 233.522 97.7197C235.575 99.1223 237.994 99.745 240.44 100.019C245.493 100.587 254.843 100.467 261.832 99.9297" stroke="black" stroke-width="1.02634" stroke-miterlimit="10"/>
<path d="M428.407 195.67C427.456 191.944 426.132 188.318 424.319 184.852C419.053 174.791 407.641 163.282 395.174 167.319C388.653 169.43 383.32 174.544 379.276 179.909C375.15 185.375 371.729 191.465 369.635 197.965C364.791 212.987 361.975 228.177 359.273 241.345C376.789 249.33 413.022 264.188 423.918 266.641C425.181 266.925 430.08 226.268 430.288 222.553" fill="#E0236B"/>
<path d="M360.042 241.219C362.15 230.322 364.257 219.429 366.365 208.533C366.85 206.015 367.34 203.497 367.825 200.979C368.014 200.004 366.522 199.59 366.334 200.569C364.226 211.465 362.119 222.358 360.012 233.254C359.526 235.772 359.037 238.29 358.551 240.808C358.363 241.78 359.854 242.197 360.042 241.219Z" fill="black"/>
<path d="M426.115 267.123C429.621 252.207 432.344 237.137 435.232 222.095C436.084 217.664 436.956 213.237 437.87 208.821C438.071 207.849 436.58 207.432 436.378 208.41C433.306 223.278 430.761 238.246 427.647 253.104C426.693 257.654 425.687 262.19 424.623 266.713C424.394 267.681 425.889 268.095 426.115 267.123Z" fill="black"/>
<path d="M362.153 228.044C378.749 236.231 395.79 243.408 413.443 248.988C418.308 250.524 423.207 251.954 428.126 253.312C429.088 253.579 429.498 252.084 428.537 251.821C411.315 247.072 394.476 241.198 378.164 233.894C373.043 231.598 367.969 229.193 362.937 226.71C362.047 226.272 361.26 227.606 362.157 228.047L362.153 228.044Z" fill="black"/>
<path d="M344.254 234.021C344.097 216.279 344.411 198.533 345.202 180.809C345.424 175.8 345.687 170.791 345.985 165.786C346.043 164.791 344.497 164.794 344.439 165.786C343.382 183.498 342.793 201.236 342.684 218.978C342.653 223.993 342.66 229.005 342.704 234.021C342.714 235.016 344.261 235.02 344.251 234.021H344.254Z" fill="black"/>
<path d="M377.175 161.842C375.451 164.496 374.178 167.842 375.273 170.99C375.995 173.07 377.562 174.691 379.635 175.43C383.323 176.741 387.565 175.742 391.134 174.493C394.497 173.319 397.668 171.619 400.504 169.464C403.72 167.021 406.474 164.052 408.653 160.651C409.194 159.809 407.853 159.033 407.315 159.871C403.877 165.235 398.862 169.505 393.039 172.088C389.994 173.439 386.525 174.531 383.169 174.476C380.771 174.435 378.455 173.686 377.206 171.534C375.516 168.619 376.83 165.211 378.51 162.625C379.054 161.787 377.716 161.01 377.172 161.845L377.175 161.842Z" fill="black"/>
<path d="M364.986 145.413C364.432 144.962 363.966 144.445 363.542 143.891C366.792 143.104 370.094 142.215 373.327 141.428C372.964 143.946 371.729 146.44 369.132 146.724C367.654 146.884 366.176 146.392 364.983 145.417L364.986 145.413Z" fill="black"/>
<path d="M391.921 138.428C393.385 136.224 393.628 133.419 392.584 131.007C394.466 129.594 396.491 128.417 397.425 125.639C400.501 116.467 398.742 104.004 390.788 98.0514C385.013 93.7271 377.877 92.0405 370.549 94.4592C365.561 96.1048 361.452 99.9604 359.05 104.582C356.457 109.57 355.722 115.427 356.32 120.973C356.522 122.837 356.885 124.705 357.412 126.525C357.275 127.37 357.138 128.215 357.018 129.064C356.502 132.707 356.136 136.375 355.923 140.049C355.253 151.739 362.348 163.114 375.403 156.823C375.639 156.71 375.872 156.587 376.101 156.457L379.255 166.946C379.255 166.946 391.445 172.936 400.313 160.21L391.914 138.428H391.921Z" fill="white" stroke="black" stroke-width="1.02634" stroke-miterlimit="10"/>
<path d="M353.984 123.994C354.244 123.772 354.709 123.573 355.28 123.44C356.396 123.177 358.503 122.769 359.954 122.817C360.812 122.848 361.589 122.944 362.211 123.132C362.851 123.327 363.234 123.642 362.947 123.912C362.632 124.21 361.821 124.333 360.976 124.459C360.385 124.548 359.793 124.637 359.201 124.726C358.602 124.815 358.003 124.908 357.401 124.997C356.936 125.065 356.478 125.137 355.947 125.137C355.184 125.137 354.511 125.014 354.127 124.812C353.655 124.562 353.665 124.261 353.98 123.991L353.984 123.994Z" fill="black"/>
<path d="M377.685 123.993C377.572 124.226 377.09 124.414 376.378 124.5C375.882 124.558 375.369 124.544 374.856 124.531C374.192 124.514 373.525 124.5 372.861 124.483C372.205 124.466 371.548 124.452 370.891 124.435C369.953 124.411 369.057 124.39 368.407 124.147C367.815 123.928 367.798 123.59 368.157 123.337C368.51 123.09 369.115 122.912 369.878 122.789C371.171 122.581 373.621 122.724 374.969 122.841C375.663 122.902 376.334 123.036 376.84 123.21C377.456 123.426 377.822 123.703 377.682 123.99L377.685 123.993Z" fill="black"/>
<path d="M390.46 135.048C391.25 133.101 390.74 130.744 389.259 129.266C388.961 128.972 388.462 128.968 388.164 129.266C387.867 129.564 387.867 130.063 388.164 130.361C388.243 130.439 388.322 130.521 388.397 130.607C388.431 130.645 388.462 130.682 388.493 130.72C388.571 130.816 388.434 130.638 388.506 130.74C388.629 130.911 388.742 131.089 388.842 131.274C388.869 131.329 388.9 131.384 388.924 131.438C388.93 131.449 388.992 131.582 388.961 131.514C388.93 131.449 388.989 131.582 388.992 131.592C389.009 131.64 389.026 131.685 389.043 131.733C389.115 131.941 389.173 132.157 389.218 132.376C389.228 132.424 389.235 132.471 389.245 132.523C389.269 132.649 389.235 132.41 389.249 132.536C389.262 132.646 389.273 132.759 389.276 132.868C389.286 133.077 389.283 133.289 389.262 133.498C389.262 133.512 389.245 133.662 389.256 133.58C389.266 133.498 389.245 133.648 389.242 133.662C389.225 133.772 389.201 133.881 389.173 133.99C389.119 134.209 389.047 134.422 388.965 134.627C388.811 135.003 389.129 135.492 389.505 135.578C389.953 135.68 390.292 135.441 390.456 135.037L390.46 135.048Z" fill="black"/>
<path d="M360.737 127.463C358.045 127.179 357.928 130.761 358.226 132.242C358.417 133.203 358.931 134.37 360.152 134.483C361.931 134.644 362.335 132.447 362.424 131.257C362.523 129.929 362.502 127.647 360.737 127.463Z" fill="black"/>
<path d="M371.572 127.463C368.879 127.179 368.763 130.761 369.061 132.242C369.252 133.203 369.765 134.37 370.987 134.483C372.766 134.644 373.169 132.447 373.258 131.257C373.357 129.929 373.337 127.647 371.572 127.463Z" fill="black"/>
<path d="M378.236 156.176C380.234 154.965 382.105 153.541 383.805 151.937C384.11 151.649 384.096 151.133 383.805 150.842C383.501 150.538 383.015 150.555 382.711 150.842C381.099 152.361 379.351 153.688 377.452 154.838C377.097 155.054 376.96 155.532 377.175 155.899C377.384 156.254 377.877 156.395 378.236 156.176Z" fill="black"/>
<path d="M406.009 261.893C412.242 263.963 418.557 265.803 424.856 267.664C425.814 267.948 426.221 266.453 425.266 266.173C418.968 264.312 412.652 262.471 406.419 260.401C405.472 260.086 405.064 261.581 406.009 261.893Z" fill="black"/>
<path d="M428.188 134.137C427.134 133.135 425.772 132.382 424.407 131.893C423.716 131.646 423.005 131.445 422.29 131.274C422.078 131.222 421.866 131.185 421.65 131.144C421.677 131.099 421.705 131.058 421.729 131.017C422.03 130.49 422.293 129.943 422.519 129.375C423.005 128.147 423.347 126.833 423.467 125.519C423.696 122.967 423.217 120.391 421.903 118.174C420.08 115.092 416.594 113.152 413.07 113.152C413.857 109.638 413.785 105.814 411.428 102.936C408.52 99.3819 404.613 98.4376 400.309 99.0432C399.707 97.1445 396.32 94.5581 395.064 93.826C381.274 85.7966 362.43 91.6467 356.122 106.371C355.061 108.848 352.714 116.6 352.714 116.6C352.714 116.6 357.531 117.897 368.253 117.257C368.301 115.478 368.684 109.05 370.501 106.231C370.501 106.231 372.913 111.978 373.611 116.919C375.444 116.782 377.559 116.635 379.796 116.44C381.435 121.048 383.563 124.558 386.293 127.363C386.419 130.172 386.95 133.049 387.107 136.265C387.61 146.525 389.823 152.529 398.335 155.002C403.758 156.576 409.645 155.132 413.118 153.316C414.575 152.553 415.796 151.718 416.836 150.818C417.541 150.808 418.263 150.781 419.016 150.73C424.811 150.329 430.453 146.607 430.979 140.962C431.222 138.359 430.042 135.909 428.181 134.137H428.188Z" fill="black"/>
<path d="M364.579 131.4C362.872 132.553 361.035 134.171 361.288 136.457C361.404 137.507 361.972 138.396 362.885 138.93C363.737 139.43 364.743 139.577 365.711 139.649C366.129 139.679 366.484 139.272 366.484 138.875C366.484 138.431 366.129 138.13 365.711 138.102C364.527 138.017 362.909 137.709 362.813 136.255C362.711 134.644 364.165 133.545 365.359 132.741C365.704 132.509 365.858 132.061 365.636 131.681C365.434 131.339 364.924 131.168 364.575 131.404L364.579 131.4Z" fill="black"/>
<path d="M363.084 143.251C363.084 143.251 367.62 146.481 369.653 141.37" stroke="black" stroke-width="1.14608" stroke-miterlimit="10" stroke-linecap="round"/>
<path d="M405.62 106.716C412.634 103.811 415.964 95.7699 413.059 88.7561C410.154 81.7422 402.113 78.4115 395.099 81.3167C388.085 84.222 384.754 92.263 387.66 99.2769C390.565 106.291 398.606 109.621 405.62 106.716Z" fill="black"/>
<path d="M260.861 270.425L273.799 277.291" stroke="black" stroke-width="1.02634" stroke-linecap="round" stroke-linejoin="round"/>
<path d="M249.383 265.895C249.383 265.895 251.798 258.649 259.526 259.617" stroke="black" stroke-width="1.02634" stroke-linecap="round" stroke-linejoin="round"/>
<path d="M243.981 254.411C243.981 254.411 248.5 248.256 255.561 251.547" stroke="black" stroke-width="1.02634" stroke-linecap="round" stroke-linejoin="round"/>
<path d="M246.649 240.764C246.649 240.764 253.457 237.301 258.281 243.415" stroke="black" stroke-width="1.02634" stroke-linecap="round" stroke-linejoin="round"/>
<path d="M258.154 105.26C256.362 104.883 254.241 104.292 251.945 103.33C250.245 102.619 248.767 101.835 247.515 101.083" stroke="black" stroke-width="1.02634" stroke-linecap="round" stroke-linejoin="round"/>
<path d="M72.1132 111.46C76.4181 128.475 53.3983 145.423 53.3983 145.423C53.3983 145.423 24.995 141.084 20.7441 124.282C18.9055 117.007 23.8968 109.492 31.8985 107.495C36.4093 106.37 40.9152 107.237 44.313 109.516C46.2252 105.913 49.7799 103.035 54.2956 101.91C62.2973 99.9128 70.2746 104.194 72.1132 111.464V111.46Z" fill="black"/>
<path d="M55.3154 153.103L52.2804 152.64C51.9519 152.592 44.1855 151.379 35.816 147.882C23.6124 142.793 15.9342 135.245 13.6102 126.055C12.2128 120.528 13.2327 114.781 16.4932 109.877C19.6164 105.177 24.4508 101.812 30.104 100.4C34.1049 99.4015 38.2234 99.4648 42.0429 100.526C44.9014 97.7993 48.5002 95.8074 52.5011 94.8091C58.1641 93.4065 64.0232 94.1029 69.0096 96.7766C74.2117 99.5671 77.8498 104.15 79.2471 109.677C81.5957 118.959 78.4234 129.25 70.0736 139.433C64.3419 146.426 58.0415 151.092 57.7767 151.291L55.3105 153.108L55.3154 153.103ZM35.8749 114.304C35.1541 114.304 34.4236 114.391 33.693 114.576C31.6092 115.097 29.8638 116.286 28.7704 117.932C28.2163 118.765 27.3632 120.469 27.878 122.5C30.0354 131.037 43.7933 135.849 51.4371 137.602C57.3257 132.508 67.1563 121.842 64.9842 113.242C64.4694 111.211 62.9102 110.111 62.0228 109.633C60.2773 108.698 58.1739 108.469 56.0901 108.991C53.7612 109.57 51.8392 111.007 50.8242 112.921L46.9999 120.123L40.2043 115.57C38.9638 114.737 37.4537 114.309 35.8749 114.309V114.304Z" fill="#EEEEEE"/>
<path d="M72.1132 111.46C76.4181 128.475 53.3983 145.423 53.3983 145.423C53.3983 145.423 24.995 141.084 20.7441 124.282C18.9055 117.007 23.8968 109.492 31.8985 107.495C36.4093 106.37 40.9152 107.237 44.313 109.516C46.2252 105.913 49.7799 103.035 54.2956 101.91C62.2973 99.9128 70.2746 104.194 72.1132 111.464V111.46Z" fill="#E0236B"/>
</g>
<defs>
<clipPath id="clip0_193_1162">
<rect width="453.395" height="412.581" fill="white" transform="translate(0 0.330566)"/>
</clipPath>
</defs>
</svg>
