<svg width="149" height="135" viewBox="0 0 149 135" fill="none" xmlns="http://www.w3.org/2000/svg">
<path d="M91.8984 22.4623L104.837 53.6585C104.943 53.9192 105.171 54.1066 105.447 54.1636L138.453 61.1785C142.962 62.1398 144.418 67.8511 140.911 70.8575L115.278 92.8227C115.066 93.002 114.952 93.279 114.985 93.556L118.524 127.148C119.005 131.734 114.024 134.887 110.094 132.484L81.3114 114.861C81.0754 114.715 80.7743 114.698 80.5221 114.812L49.7051 128.565C45.498 130.447 40.9654 126.675 42.0314 122.186L49.876 89.3275C49.9411 89.0587 49.876 88.7654 49.6807 88.5617L27.099 63.4679C24.0149 60.0378 26.1957 54.5547 30.7853 54.188L64.4178 51.5076C64.6945 51.4831 64.9468 51.3283 65.0851 51.0839L81.9461 21.8268C84.2491 17.8264 90.1325 18.2094 91.8984 22.4704V22.4623Z" fill="#DB1B77"/>
<path d="M45.9537 130.113C44.9284 129.885 43.9437 129.404 43.0974 128.704C41.0956 127.033 40.2249 124.426 40.8352 121.892L48.631 89.2298L26.1795 64.2826C24.438 62.3435 23.9498 59.6386 24.9181 57.2188C25.8784 54.7991 28.0918 53.1615 30.6877 52.9578L64.1249 50.2936L80.8883 21.2076C82.1903 18.9508 84.6153 17.6553 87.2111 17.8183C89.807 17.9894 92.0448 19.5863 93.0458 21.9979L105.911 53.0067L138.722 59.9808C138.722 59.9808 138.779 59.9889 138.803 59.9971C141.31 60.5593 143.254 62.4576 143.897 64.9507C144.54 67.4763 143.71 70.0998 141.733 71.7944L116.246 93.6293L119.761 127.025C120.038 129.616 118.834 132.093 116.637 133.486C114.431 134.879 111.689 134.904 109.467 133.535L80.8557 116.018L50.2178 129.689C48.8507 130.301 47.3615 130.431 45.97 130.121L45.9537 130.113ZM87.7482 20.3684C87.5204 20.3195 87.2844 20.2788 87.0403 20.2706C85.3558 20.1647 83.8503 20.9713 83.0122 22.4297L66.1511 51.6868C65.8094 52.2816 65.199 52.6645 64.5155 52.7215L30.883 55.402C29.2066 55.5323 27.8232 56.5508 27.2048 58.1232C26.5782 59.6875 26.8793 61.374 28.0104 62.6287L50.5921 87.7225C51.0478 88.2358 51.2269 88.9365 51.0722 89.6045L43.2276 122.455C42.837 124.092 43.3741 125.722 44.668 126.797C45.9619 127.873 47.6545 128.109 49.2006 127.425L80.0175 113.672C80.6441 113.395 81.3684 113.436 81.9461 113.794L110.729 131.417C112.169 132.297 113.878 132.288 115.302 131.384C116.726 130.48 117.475 128.94 117.296 127.262L113.756 93.6701C113.683 92.9857 113.951 92.3095 114.472 91.8695L140.105 69.9124C141.383 68.8125 141.904 67.1831 141.489 65.5454C141.074 63.9078 139.812 62.759 138.193 62.3761L105.187 55.3613C104.544 55.2553 103.958 54.7583 103.698 54.1229L90.7591 22.9267C90.2058 21.5905 89.1072 20.6699 87.7482 20.3684Z" fill="#2F0B3B"/>
<path d="M38.044 4.17963C41.649 10.7464 44.9691 17.4679 47.9718 24.3362C48.5008 25.5501 49.7051 26.373 51.0641 25.9412C52.2278 25.5664 53.2043 24.0673 52.6672 22.8452C49.4936 15.5941 46.0107 8.48957 42.2104 1.54804C41.5676 0.382965 39.8912 0.105956 38.8171 0.782185C37.6371 1.53174 37.4093 3.01456 38.0522 4.17963H38.044Z" fill="#2F0B3B"/>
<path d="M125.148 30.9274C130.243 26.9352 135.329 22.943 140.423 18.9589C141.432 18.1686 141.993 16.7265 141.188 15.5615C140.488 14.5512 138.876 13.9483 137.794 14.7956C132.7 18.7878 127.614 22.78 122.52 26.7641C121.511 27.5544 120.949 28.9964 121.755 30.1615C122.455 31.1718 124.066 31.7747 125.148 30.9274Z" fill="#2F0B3B"/>
<path d="M131.667 36.8994C136.012 35.3106 140.26 33.4449 144.394 31.3592C145.549 30.7726 145.867 28.9801 145.159 27.9617C144.337 26.7804 142.994 26.5767 141.765 27.1959C140.805 27.6766 139.845 28.1491 138.876 28.6054C138.649 28.7113 138.714 28.6868 138.901 28.5972C138.779 28.6543 138.657 28.7113 138.535 28.7683C138.291 28.8824 138.046 28.9883 137.802 29.1024C137.282 29.3386 136.761 29.5668 136.24 29.7949C134.246 30.6585 132.22 31.4651 130.177 32.2146C128.973 32.6546 128.102 34.0234 128.574 35.3106C129.014 36.5164 130.373 37.3882 131.667 36.9157V36.8994Z" fill="#2F0B3B"/>
<path d="M4.29756 109.631C12.5246 105.476 20.7517 101.329 28.9869 97.1734C30.175 96.5705 30.411 94.8188 29.7518 93.776C28.9788 92.562 27.5466 92.4072 26.3585 93.0101C18.1314 97.1653 9.90434 101.312 1.66913 105.467C0.481048 106.07 0.245059 107.822 0.904201 108.865C1.67727 110.079 3.10948 110.234 4.29756 109.631Z" fill="#2F0B3B"/>
<path d="M129.958 110.03C134.824 113.207 139.617 116.507 144.312 119.945C145.387 120.727 146.811 120.874 147.795 119.823C148.617 118.943 148.747 117.126 147.673 116.336C142.636 112.645 137.509 109.093 132.285 105.679C131.17 104.954 129.543 105.59 128.957 106.698C128.281 107.961 128.851 109.305 129.974 110.03H129.958Z" fill="#2F0B3B"/>
</svg>
