<svg width="510" height="381" viewBox="0 0 510 381" fill="none" xmlns="http://www.w3.org/2000/svg">
<path d="M107.918 354.135L393.184 291.18L390.442 285.075C389.386 282.72 386.817 281.434 384.301 281.986L324.695 295.139L306.112 253.808C305.055 251.453 302.487 250.168 299.97 250.719L204.354 271.818L180.393 218.517C179.336 216.163 176.768 214.877 174.251 215.429L61.8309 240.237C59.4351 240.769 58.1336 243.366 59.138 245.603L107.924 354.128L107.918 354.135Z" fill="#EEEEEE"/>
<path d="M107.369 354.251L108.466 354.007L59.6294 245.378C59.2188 244.462 59.2402 243.424 59.6916 242.524C60.143 241.624 60.9619 240.992 61.939 240.775L174.36 215.966C176.611 215.471 178.939 216.636 179.882 218.739L203.843 272.039C203.949 272.279 204.21 272.41 204.461 272.349L300.078 251.25C302.329 250.755 304.657 251.92 305.601 254.023L324.183 295.353C324.289 295.593 324.55 295.725 324.801 295.663L384.407 282.511C386.659 282.016 388.987 283.181 389.93 285.284L392.627 291.284L393.724 291.04L390.932 284.831C389.772 282.255 386.927 280.82 384.165 281.433L324.995 294.489L306.595 253.564C305.435 250.989 302.59 249.554 299.829 250.167L204.647 271.169L180.87 218.274C179.709 215.692 176.865 214.264 174.103 214.877L61.6828 239.685C60.3775 239.973 59.2867 240.825 58.6886 242.02C58.0905 243.215 58.0574 244.597 58.6066 245.814L107.348 354.234L107.369 354.251Z" fill="#2F0B3B"/>
<path d="M182.162 223.151L60.9389 249.903C60.6427 249.97 60.3487 249.778 60.2818 249.482C60.215 249.185 60.4071 248.891 60.7033 248.824L181.926 222.072C182.222 222.005 182.516 222.197 182.583 222.494C182.65 222.79 182.458 223.084 182.162 223.151Z" fill="#2F0B3B"/>
<path d="M307.437 257.025L209.393 278.658C208.018 278.96 206.603 278.245 206.038 276.953L203.85 272.045C203.727 271.768 203.851 271.443 204.128 271.32C204.404 271.197 204.729 271.321 204.852 271.598L207.041 276.506C207.395 277.325 208.281 277.772 209.151 277.58L307.195 255.947C307.492 255.88 307.786 256.072 307.853 256.368C307.919 256.664 307.727 256.959 307.431 257.025L307.437 257.025Z" fill="#2F0B3B"/>
<path d="M92.1519 155.223L103.309 165.387C103.403 165.473 103.529 165.504 103.649 165.477L118.345 162.051C120.354 161.584 122.027 163.621 121.179 165.499L114.961 179.253C114.91 179.369 114.918 179.497 114.983 179.606L122.781 192.53C123.846 194.295 122.424 196.518 120.379 196.29L105.381 194.621C105.257 194.61 105.132 194.65 105.053 194.75L95.18 206.16C93.829 207.721 91.2807 207.054 90.8642 205.032L87.8103 190.249C87.7834 190.13 87.6998 190.023 87.5847 189.978L73.6819 184.112C71.7841 183.311 71.6261 180.677 73.4156 179.66L86.5282 172.187C86.6371 172.123 86.7081 172.011 86.7195 171.887L88.0011 156.845C88.176 154.793 90.6312 153.828 92.1511 155.216L92.1519 155.223Z" fill="#DB1B77"/>
<path d="M93.9516 207.5C93.491 207.599 93.0057 207.597 92.5254 207.472C91.398 207.176 90.5504 206.285 90.3145 205.148L87.2838 190.453L73.4628 184.623C72.3884 184.172 71.6829 183.167 71.6121 182.005C71.5414 180.842 72.1266 179.758 73.1402 179.187L86.1743 171.763L87.4471 156.812C87.5445 155.649 88.2834 154.664 89.3659 154.24C90.4484 153.817 91.6577 154.038 92.5189 154.824L103.604 164.932L118.212 161.523C118.212 161.523 118.238 161.52 118.25 161.519C119.373 161.272 120.519 161.669 121.25 162.56C121.988 163.458 122.15 164.681 121.672 165.74L115.49 179.411L123.246 192.256C123.848 193.253 123.836 194.484 123.206 195.463C122.576 196.442 121.467 196.972 120.314 196.848L105.408 195.194L95.5924 206.539C95.1538 207.05 94.5781 207.382 93.9538 207.519L93.9516 207.5ZM90.0753 155.167C89.9747 155.191 89.8685 155.223 89.7693 155.261C89.0706 155.536 88.6113 156.146 88.5436 156.898L87.2621 171.94C87.2396 172.247 87.0644 172.519 86.797 172.667L73.6837 180.133C73.0287 180.507 72.6669 181.177 72.7092 181.929C72.7515 182.681 73.1933 183.308 73.8865 183.597L87.7893 189.463C88.0752 189.585 88.2787 189.833 88.3392 190.13L91.3931 204.913C91.5438 205.652 92.0739 206.205 92.8014 206.398C93.5281 206.585 94.2591 206.364 94.7548 205.789L104.628 194.379C104.827 194.149 105.13 194.029 105.432 194.065L120.431 195.734C121.177 195.816 121.87 195.489 122.275 194.853C122.679 194.217 122.694 193.452 122.301 192.806L114.503 179.882C114.344 179.622 114.325 179.295 114.454 179.014L120.672 165.261C120.979 164.572 120.885 163.813 120.403 163.235C119.928 162.65 119.197 162.424 118.465 162.581L103.768 166.007C103.486 166.085 103.159 165.993 102.928 165.787L91.7712 155.623C91.2935 155.187 90.6733 155.026 90.0674 155.155L90.0753 155.167Z" fill="#2F0B3B"/>
<path d="M66.8759 158.049C69.583 160.024 72.1999 162.113 74.7138 164.318C75.1607 164.712 75.7997 164.812 76.2663 164.376C76.6694 164.006 76.7781 163.217 76.3248 162.823C73.6669 160.493 70.9061 158.279 68.0501 156.192C67.5694 155.84 66.8369 156.048 66.5301 156.524C66.191 157.055 66.3817 157.693 66.8624 158.045L66.8759 158.049Z" fill="#2F0B3B"/>
<path d="M107.221 152.335C108.525 149.758 109.828 147.173 111.138 144.595C111.395 144.08 111.354 143.392 110.806 143.074C110.334 142.799 109.565 142.863 109.286 143.406C107.982 145.984 106.679 148.569 105.369 151.147C105.112 151.662 105.153 152.35 105.701 152.668C106.173 152.943 106.942 152.879 107.221 152.335Z" fill="#2F0B3B"/>
<path d="M110.993 153.514C112.452 152.043 113.816 150.487 115.095 148.857C115.449 148.401 115.241 147.617 114.762 147.336C114.207 147.013 113.619 147.185 113.242 147.668C112.95 148.045 112.644 148.417 112.338 148.789C112.264 148.876 112.287 148.854 112.344 148.782C112.304 148.832 112.264 148.876 112.23 148.918C112.151 149.012 112.076 149.098 111.997 149.191C111.832 149.385 111.667 149.579 111.495 149.768C110.849 150.496 110.181 151.208 109.498 151.896C109.093 152.305 109.002 153.021 109.44 153.449C109.849 153.854 110.559 153.946 110.992 153.507L110.993 153.514Z" fill="#2F0B3B"/>
<path d="M73.2051 207.121C75.7511 203.881 78.2971 200.641 80.8423 197.395C81.208 196.925 80.9713 196.17 80.51 195.874C79.9655 195.53 79.3565 195.743 78.9901 196.206C76.4441 199.446 73.8981 202.687 71.3528 205.933C70.9871 206.403 71.2238 207.158 71.6851 207.454C72.2297 207.798 72.8387 207.584 73.2051 207.121Z" fill="#2F0B3B"/>
<path d="M124.159 183.428C126.736 183.788 129.295 184.215 131.849 184.713C132.432 184.826 133.034 184.614 133.235 184.002C133.402 183.491 133.112 182.728 132.524 182.616C129.784 182.081 127.032 181.612 124.271 181.228C123.68 181.149 123.144 181.716 123.112 182.269C123.076 182.907 123.56 183.343 124.152 183.429L124.159 183.428Z" fill="#2F0B3B"/>
<path d="M212.742 117.429C207.74 119.241 202.91 122.301 198.15 124.692C197.588 124.978 196.996 125.279 196.657 125.811C196.099 126.684 196.49 127.823 197.266 128.541C196.487 129.292 195.725 130.079 194.961 130.912C193.653 132.339 193.33 133.56 193.942 135.262L193.93 135.276C194.036 135.626 194.197 135.95 194.376 136.266C194.73 136.975 195.151 137.592 195.659 138.064C196.81 139.456 198.906 141.069 200.741 140.001C201.014 139.847 201.278 139.667 201.535 139.488C202.28 140.333 203.783 140.682 205.018 140.403C205.447 140.307 205.902 140.054 206.337 139.731C207.344 141.05 210.366 140.679 211.387 139.725C211.475 139.644 211.579 139.541 211.684 139.439C211.862 139.806 212.234 140.054 212.907 140.06C214.093 140.077 215.216 139.674 216.146 138.938C217.2 138.104 218.214 136.983 218.661 135.708C218.835 135.203 218.879 134.635 218.743 134.14C220.677 132.918 222.358 131.357 223.496 129.465C223.767 129.013 223.975 128.581 224.14 128.161C226.145 127.668 228.302 126.971 229.904 126.286C232.324 125.247 233.587 122.208 233.022 119.686C231.177 111.394 217.892 115.555 212.747 117.416L212.742 117.429Z" fill="#EEEEEE"/>
<path d="M212.622 116.893C209.687 117.96 206.909 119.377 204.171 120.854C202.814 121.587 201.465 122.333 200.1 123.055C199.418 123.419 198.735 123.777 198.045 124.122C197.458 124.417 196.847 124.721 196.414 125.224C195.434 126.361 195.87 127.94 196.863 128.912C196.871 128.652 196.88 128.392 196.895 128.132C196.233 128.778 195.585 129.436 194.952 130.111C194.463 130.634 193.963 131.171 193.617 131.806C192.993 132.946 192.986 134.163 193.405 135.376C193.463 135.201 193.513 135.027 193.571 134.852C193.571 134.852 193.559 134.86 193.559 134.867C193.425 134.986 193.335 135.216 193.394 135.39C194.01 137.24 195.403 138.928 197 140.03C197.724 140.528 198.572 140.921 199.457 140.966C200.452 141.019 201.27 140.542 202.067 139.996C201.849 139.957 201.624 139.918 201.407 139.885C202.088 140.621 203.04 141.028 204.028 141.12C205.08 141.217 206.067 140.856 206.916 140.259C206.698 140.22 206.473 140.181 206.256 140.149C206.959 141.024 208.18 141.29 209.246 141.224C210.409 141.153 211.365 140.757 212.196 139.949C211.912 139.897 211.622 139.854 211.338 139.803C211.772 140.638 212.662 140.677 213.5 140.599C214.639 140.492 215.684 140.021 216.572 139.316C218.075 138.119 219.788 136.108 219.275 134.039C219.182 134.244 219.089 134.442 218.997 134.647C221.393 133.126 223.589 131.039 224.66 128.353C224.526 128.478 224.391 128.598 224.257 128.723C226.174 128.248 228.079 127.664 229.905 126.907C231.41 126.279 232.516 125.115 233.157 123.624C234.175 121.254 233.732 118.284 231.912 116.426C230.443 114.921 228.314 114.361 226.275 114.229C223.916 114.077 221.525 114.433 219.225 114.947C216.98 115.448 214.783 116.13 212.624 116.912C212.345 117.016 212.14 117.254 212.202 117.57C212.259 117.835 212.58 118.089 212.859 117.991C214.926 117.246 217.035 116.586 219.177 116.091C221.582 115.533 224.091 115.137 226.568 115.36C228.621 115.548 230.769 116.281 231.843 118.168C233.395 120.885 232.413 124.674 229.44 125.913C228.348 126.371 227.222 126.748 226.09 127.086C225.503 127.265 224.914 127.424 224.324 127.577C224.072 127.638 223.818 127.675 223.663 127.9C223.497 128.139 223.408 128.492 223.271 128.754C222.191 130.808 220.415 132.444 218.47 133.68C218.265 133.807 218.13 134.037 218.192 134.288C218.57 135.816 217.212 137.32 216.149 138.24C215.526 138.778 214.839 139.214 214.034 139.411C213.613 139.512 212.553 139.797 212.302 139.309C212.143 138.997 211.7 138.913 211.444 139.163C210.823 139.766 210.167 140.075 209.295 140.144C208.5 140.204 207.58 140.078 207.051 139.422C206.914 139.25 206.576 139.18 206.391 139.311C205.734 139.776 205.035 140.103 204.214 140.056C203.459 140.015 202.72 139.719 202.202 139.159C202.053 138.995 201.739 138.908 201.542 139.048C200.925 139.469 200.287 139.931 199.506 139.893C198.765 139.856 198.074 139.478 197.475 139.056C196.875 138.627 196.418 138.085 195.905 137.569C195.274 136.931 194.737 136.036 194.456 135.183C194.399 135.357 194.348 135.532 194.291 135.706C194.291 135.706 194.303 135.699 194.302 135.692C194.431 135.574 194.527 135.343 194.468 135.168C194.109 134.143 194.067 133.171 194.648 132.223C194.996 131.652 195.471 131.176 195.925 130.69C196.478 130.102 197.045 129.531 197.626 128.965C197.829 128.767 197.877 128.399 197.658 128.185C197.184 127.729 196.753 127.029 196.997 126.347C197.246 125.652 198.097 125.346 198.701 125.036C200.246 124.254 201.766 123.417 203.287 122.593C206.394 120.899 209.52 119.195 212.852 117.979C213.13 117.876 213.336 117.645 213.273 117.322C213.217 117.063 212.896 116.803 212.616 116.9L212.622 116.893Z" fill="#2F0B3B"/>
<path d="M198.045 145.122C197.932 144.145 197.87 143.338 197.888 142.268C197.898 141.743 197.933 141.215 197.988 140.691C198.054 140.14 198.094 139.876 198.212 139.39C198.317 138.957 198.442 138.535 198.588 138.117C198.66 137.908 198.74 137.705 198.826 137.501C198.827 137.507 198.974 137.16 198.929 137.269C198.872 137.392 199.028 137.07 199.045 137.042C199.245 136.65 199.473 136.274 199.721 135.908C199.859 135.705 200.005 135.513 200.157 135.321C200.061 135.442 200.157 135.321 200.204 135.276C200.301 135.168 200.405 135.059 200.503 134.957C201.034 134.41 201.169 133.462 200.585 132.884C200.044 132.351 199.083 132.211 198.512 132.802C195.146 136.273 194.615 141.161 195.183 145.759C195.272 146.525 196.215 147.069 196.93 146.876C197.758 146.656 198.148 145.945 198.046 145.128L198.045 145.122Z" fill="#2F0B3B"/>
<path d="M202.173 139.912C203.173 138.832 204.172 137.745 205.177 136.664C205.971 135.815 206.799 134.929 207.179 133.805C207.515 132.801 207.333 131.678 206.447 131.017C205.54 130.34 204.349 130.608 203.377 130.98C202.177 131.444 201.086 132.185 200.064 132.964C199.5 133.392 200.254 134.203 200.811 133.77C201.547 133.205 202.328 132.687 203.159 132.274C203.832 131.943 204.849 131.456 205.606 131.795C206.37 132.133 206.312 133.026 206.046 133.678C205.688 134.554 204.981 135.257 204.349 135.939C203.372 136.991 202.396 138.049 201.42 139.107C200.943 139.622 201.684 140.435 202.167 139.913L202.173 139.912Z" fill="#2F0B3B"/>
<path d="M207.029 140.175C207.927 139.281 208.795 138.352 209.615 137.39C210.348 136.528 211.049 135.547 211.12 134.381C211.181 133.351 210.739 132.271 209.785 131.8C208.811 131.324 207.697 131.583 206.758 132.023C206.114 132.324 206.629 133.299 207.273 132.998C207.905 132.704 208.791 132.426 209.43 132.863C210.034 133.271 210.135 134.14 209.946 134.796C209.693 135.673 209.064 136.386 208.47 137.057C207.767 137.851 207.036 138.628 206.289 139.381C205.791 139.879 206.533 140.692 207.036 140.187L207.029 140.175Z" fill="#2F0B3B"/>
<path d="M212.214 139.94C212.87 138.971 213.54 138 214.19 137.025C214.79 136.127 215.303 135.148 215.18 134.037C215.068 133.015 214.303 132.224 213.314 132.003C212.225 131.761 211.167 132.175 210.258 132.754C209.662 133.133 210.17 134.109 210.772 133.729C211.441 133.302 212.251 132.877 213.07 133.079C213.843 133.268 214.191 133.926 214.08 134.696C213.965 135.544 213.365 136.273 212.902 136.961C212.361 137.762 211.82 138.556 211.279 139.356C210.882 139.946 211.811 140.537 212.208 139.947L212.214 139.94Z" fill="#2F0B3B"/>
<path d="M197.258 129.202C200.321 130.23 203.546 129.097 206.451 128.054C207.059 127.834 207.646 127.597 208.227 127.31C208.802 127.023 209.386 126.709 210.006 126.533C210.675 126.339 211.297 126.461 211.983 126.517C212.753 126.576 213.526 126.602 214.301 126.596C216.097 126.581 217.892 126.385 219.646 126.006C220.339 125.854 220.104 124.781 219.411 124.933C217.891 125.266 216.347 125.452 214.787 125.491C214.013 125.51 213.242 125.497 212.473 125.45C211.789 125.407 211.08 125.263 210.397 125.336C209.203 125.475 208.134 126.176 207.058 126.657C205.669 127.278 204.158 127.693 202.69 128.078C200.97 128.53 199.318 128.729 197.609 128.158C196.936 127.932 196.599 128.981 197.272 129.207L197.258 129.202Z" fill="#2F0B3B"/>
<path d="M226.803 135.647L179.98 150.487C175.626 151.867 173.481 156.769 175.424 160.903L193.095 198.574C194.643 201.868 198.396 203.495 201.855 202.374L253.26 185.719L226.81 135.646L226.803 135.647Z" fill="#2F0B3B"/>
<path d="M201.298 203.092C197.792 203.863 194.141 202.114 192.591 198.801L174.92 161.13C173.93 159.013 173.897 156.572 174.832 154.431C175.766 152.291 177.581 150.657 179.807 149.951L226.631 135.111C226.88 135.03 227.158 135.14 227.283 135.378L253.733 185.451C253.808 185.597 253.815 185.765 253.754 185.914C253.694 186.063 253.566 186.182 253.416 186.232L202.012 202.886C201.775 202.966 201.53 203.027 201.29 203.08L201.298 203.092ZM226.532 136.313L180.144 151.011C178.217 151.624 176.654 153.029 175.842 154.883C175.035 156.73 175.061 158.843 175.914 160.671L193.586 198.343C195.013 201.379 198.487 202.889 201.678 201.858L252.46 185.405L226.532 136.319L226.532 136.313Z" fill="#2F0B3B"/>
<path d="M180.53 150.992C182.181 151.505 183.278 152.924 184.165 154.328C185.322 156.147 186.377 158.042 187.436 159.918C189.66 163.851 191.781 167.848 193.785 171.898C194.275 172.882 194.691 173.953 195.253 174.897C195.68 175.617 196.513 175.992 197.335 175.832C197.879 175.73 198.416 175.512 198.948 175.353C199.504 175.185 200.053 175.017 200.609 174.849C201.715 174.513 202.827 174.177 203.933 173.841C208.367 172.49 212.795 171.133 217.221 169.764C222.227 168.21 227.231 166.644 232.228 165.066C232.895 164.852 232.667 163.779 231.993 163.993C223.217 166.769 214.428 169.5 205.622 172.188C203.468 172.847 201.306 173.5 199.15 174.152C198.594 174.32 198.045 174.488 197.489 174.656C197.101 174.772 196.718 174.869 196.38 174.572C196.048 174.28 195.897 173.709 195.703 173.318C195.447 172.785 195.184 172.246 194.921 171.714C192.948 167.712 190.866 163.769 188.679 159.877C187.513 157.807 186.357 155.709 185.069 153.705C184.035 152.098 182.76 150.538 180.868 149.95C180.19 149.738 179.853 150.786 180.531 150.999L180.53 150.992Z" fill="#9E9898"/>
<path d="M212.009 179.214C210.233 174.013 208.116 168.89 205.671 163.889L199.551 165.32C202.082 170.278 204.298 175.37 206.17 180.554L210.744 183.237L212.015 179.214L212.009 179.214Z" fill="#2F0B3B"/>
<path d="M212.545 179.1C210.684 173.669 208.486 168.348 205.97 163.188C205.869 162.986 205.587 162.838 205.362 162.909C203.385 163.534 201.408 164.165 199.425 164.791C199.088 164.901 198.882 165.242 199.058 165.584C200.985 169.358 202.734 173.217 204.292 177.157C204.686 178.152 205.068 179.15 205.436 180.148C205.598 180.589 205.687 180.915 206.09 181.152C206.874 181.611 207.652 182.07 208.436 182.529C209.11 182.923 209.776 183.317 210.45 183.711C210.755 183.889 211.161 183.764 211.269 183.415C211.695 182.072 212.114 180.736 212.54 179.392C212.752 178.714 211.704 178.377 211.492 179.055C211.066 180.398 210.646 181.735 210.221 183.078C210.494 182.982 210.767 182.879 211.04 182.782C209.513 181.886 207.993 180.996 206.465 180.1C206.543 180.213 206.628 180.326 206.706 180.447C204.801 175.189 202.58 170.058 200.04 165.075C199.916 165.342 199.798 165.608 199.673 165.868C201.65 165.243 203.627 164.612 205.611 163.986C205.406 163.894 205.208 163.801 205.003 163.708C207.475 168.777 209.649 174.003 211.48 179.341C211.706 180.007 212.785 179.771 212.552 179.106L212.545 179.1Z" fill="#9E9898"/>
<path d="M204.68 177.597C204.339 177.669 203.983 177.497 203.847 177.163L202.067 172.926C201.986 172.735 201.993 172.514 202.08 172.323C202.168 172.131 202.34 171.995 202.539 171.933L208.891 170.106C209.242 170.007 209.639 170.194 209.777 170.547L211.421 174.78C211.569 175.158 211.378 175.581 211.001 175.728C210.623 175.869 210.201 175.686 210.053 175.308L208.656 171.699L203.744 173.112L205.21 176.59C205.37 176.966 205.193 177.395 204.817 177.555C204.774 177.573 204.73 177.584 204.693 177.595L204.68 177.597Z" fill="#EEEEEE"/>
<path d="M202.025 195.115C200.72 195.403 199.385 194.769 198.796 193.544L179.652 154C179.516 153.724 179.633 153.394 179.909 153.264C180.184 153.129 180.514 153.246 180.644 153.522L199.788 193.066C200.172 193.862 201.071 194.256 201.916 194.008L240.29 182.591C240.584 182.505 240.888 182.67 240.974 182.964C241.06 183.259 240.895 183.562 240.601 183.648L202.226 195.066C202.158 195.087 202.088 195.101 202.019 195.122L202.025 195.115Z" fill="#9E9898"/>
<path d="M284.255 151.308L243.417 141.631C240.529 127.883 230.078 116.057 226.417 113.223C244.181 111.038 276.76 107.393 301.182 106.671C336.503 105.63 284.248 151.309 284.248 151.309L284.255 151.308Z" fill="#3040B4"/>
<path d="M239.044 112.413C242.363 115.364 245.227 118.796 247.507 122.606C247.869 123.211 248.845 122.703 248.482 122.092C246.154 118.203 243.247 114.679 239.856 111.665C239.33 111.202 238.518 111.943 239.051 112.412L239.044 112.413Z" fill="#2F0B3B"/>
<path d="M243.417 141.631L228.798 138.164C226.095 129.894 222.284 123.383 216.323 116.844C216.146 116.658 215.866 116.367 215.533 116.063C214.99 115.563 215.277 114.644 216.016 114.545C216.182 114.525 216.361 114.504 216.55 114.469C216.736 114.448 216.927 114.426 217.13 114.395C217.386 114.366 217.66 114.334 217.934 114.295C218.532 114.213 219.189 114.13 219.89 114.042C220.036 114.025 220.182 114.001 220.329 113.984C220.718 113.939 221.114 113.893 221.527 113.832C222.994 113.654 224.633 113.451 226.417 113.223C230.077 116.051 240.529 127.883 243.417 141.631Z" fill="#EEEEEE"/>
<path d="M243.959 141.51C242.832 136.219 240.655 131.187 237.902 126.546C235.664 122.763 233.047 119.173 230.064 115.943C229.021 114.816 227.928 113.707 226.718 112.761C226.157 112.328 225.573 113.257 226.128 113.69C228.532 115.558 230.65 118.139 232.538 120.578C235.523 124.442 238.096 128.652 240.065 133.119C241.287 135.895 242.257 138.783 242.887 141.751C243.033 142.445 244.111 142.21 243.959 141.516L243.959 141.51Z" fill="#2F0B3B"/>
<path d="M229.346 138.048C227.744 133.176 225.608 128.495 222.786 124.204C221.348 122.017 219.754 119.938 218.048 117.95C217.615 117.451 217.182 116.951 216.737 116.466C216.559 116.273 216.376 116.088 216.187 115.909C216.034 115.765 215.778 115.614 215.814 115.37C215.871 114.975 216.709 115.007 217.015 114.965C222.487 114.25 227.964 113.574 233.445 112.929C241.79 111.944 250.137 111.037 258.501 110.218C267.831 109.306 277.167 108.503 286.522 107.919C290.972 107.64 295.421 107.413 299.879 107.262C302.533 107.173 305.276 107.119 307.843 107.784C309.43 108.194 310.856 108.831 311.845 110.048C311.898 110.113 311.944 110.179 311.997 110.244C312.081 110.357 311.927 110.142 312.012 110.262C312.036 110.298 312.059 110.327 312.082 110.363C312.169 110.502 312.25 110.635 312.325 110.781C312.399 110.922 312.462 111.07 312.531 111.217C312.548 111.254 312.559 111.291 312.576 111.328C312.63 111.458 312.536 111.21 312.578 111.341C312.607 111.428 312.637 111.521 312.667 111.609C312.764 111.94 312.829 112.275 312.869 112.62C312.874 112.665 312.879 112.703 312.884 112.748C312.901 112.895 312.87 112.627 312.887 112.773C312.896 112.856 312.9 112.946 312.904 113.03C312.913 113.223 312.909 113.411 312.905 113.599C312.852 115.249 312.348 116.815 311.673 118.401C310.888 120.265 309.821 122.104 308.692 123.846C306.006 127.995 302.816 131.815 299.511 135.48C296.412 138.914 293.168 142.216 289.836 145.425C287.981 147.213 286.097 148.972 284.169 150.684C284.081 150.766 283.986 150.841 283.899 150.923L284.441 150.801C282.598 150.363 280.763 149.929 278.92 149.491C274.504 148.446 270.087 147.394 265.671 146.35C260.33 145.083 254.989 143.815 249.642 142.549C245.026 141.456 240.409 140.357 235.794 139.264C233.559 138.735 231.321 138.174 229.076 137.672C229.043 137.663 229.016 137.66 228.983 137.651C228.298 137.485 227.954 138.534 228.646 138.699C229.87 138.99 231.1 139.28 232.324 139.571C235.43 140.309 238.536 141.041 241.642 141.779C245.752 142.75 249.856 143.727 253.966 144.698C258.23 145.709 262.5 146.719 266.763 147.73C270.335 148.575 273.906 149.421 277.471 150.267C279.5 150.749 281.522 151.226 283.55 151.707C283.936 151.798 284.317 151.961 284.668 151.694C284.964 151.465 285.242 151.187 285.517 150.935C287.063 149.545 288.58 148.133 290.075 146.703C292.421 144.464 294.722 142.171 296.964 139.826C299.553 137.118 302.062 134.335 304.434 131.432C306.681 128.686 308.832 125.829 310.643 122.778C312.092 120.332 313.426 117.679 313.878 114.845C314.223 112.695 313.847 110.41 312.234 108.838C310.133 106.786 306.894 106.297 304.082 106.145C301.395 106.005 298.688 106.198 296.004 106.31C292.677 106.451 289.348 106.638 286.023 106.851C279.076 107.291 272.144 107.853 265.213 108.485C258.558 109.092 251.909 109.763 245.267 110.485C239.679 111.09 234.095 111.734 228.514 112.41C224.726 112.87 220.933 113.344 217.149 113.837C216.295 113.949 215.237 113.917 214.833 114.837C214.481 115.642 214.936 116.217 215.484 116.761C216.142 117.409 216.742 118.122 217.341 118.822C219.81 121.698 222.02 124.792 223.861 128.103C225.661 131.342 227.108 134.764 228.268 138.284C228.488 138.951 229.567 138.721 229.34 138.049L229.346 138.048Z" fill="#2F0B3B"/>
<path d="M267.904 66.2172C264.377 71.2536 260.723 76.6413 259.491 82.7756C258.085 89.7517 260.644 95.7291 263.305 102.031C268.277 113.789 273.946 125.26 280.257 136.357C285.226 145.095 292.15 153.294 302.673 155.012C309.332 156.1 316.402 154.338 321.775 150.264L267.898 66.218L267.904 66.2172Z" fill="#3040B4"/>
<path d="M267.436 65.9221C262.684 72.7184 257.847 80.1653 258.644 88.8387C259.049 93.262 260.77 97.4285 262.477 101.48C264.325 105.858 266.254 110.201 268.281 114.5C270.316 118.811 272.442 123.073 274.667 127.291C276.742 131.228 278.828 135.197 281.182 138.979C284.923 145 289.768 150.614 296.31 153.637C303.706 157.059 312.607 156.462 319.62 152.372C320.498 151.855 321.343 151.285 322.158 150.672C322.336 150.535 322.394 150.198 322.269 150.012C321.786 149.26 321.304 148.507 320.823 147.761C319.511 145.714 318.2 143.674 316.888 141.627C314.959 138.617 313.023 135.601 311.095 132.591C308.74 128.919 306.384 125.24 304.029 121.568C301.452 117.547 298.868 113.519 296.292 109.498C293.683 105.422 291.067 101.347 288.459 97.2769C286.025 93.4781 283.59 89.6794 281.156 85.8806C279.108 82.6838 277.054 79.4812 275.006 76.2844C273.529 73.9851 272.058 71.685 270.581 69.3857C269.885 68.2958 269.188 67.1995 268.486 66.1103C268.454 66.0622 268.423 66.0141 268.398 65.9653C268.019 65.3754 267.043 65.8837 267.423 66.4799C267.905 67.2324 268.387 67.985 268.869 68.7311C270.181 70.778 271.492 72.8184 272.804 74.8653C274.733 77.8754 276.668 80.8912 278.597 83.9014C280.952 87.5735 283.308 91.252 285.663 94.9242C288.239 98.9457 290.823 102.973 293.4 106.994C296.009 111.07 298.624 115.146 301.233 119.215C303.667 123.014 306.101 126.813 308.536 130.612C310.583 133.809 312.638 137.011 314.685 140.208C316.162 142.507 317.633 144.807 319.11 147.107C319.806 148.19 320.45 149.338 321.206 150.382C321.237 150.43 321.269 150.478 321.294 150.527C321.333 150.309 321.372 150.085 321.404 149.867C314.977 154.711 306.197 156.122 298.61 153.395C292.028 151.03 287.002 145.8 283.2 140.09C280.913 136.662 278.972 132.994 277.023 129.365C274.82 125.274 272.709 121.14 270.683 116.964C268.657 112.787 266.723 108.561 264.875 104.3C263.14 100.29 261.265 96.2387 260.27 91.9683C259.787 89.883 259.546 87.7504 259.672 85.6136C259.795 83.5096 260.274 81.4548 260.981 79.4705C262.319 75.6917 264.435 72.2558 266.676 68.9541C267.234 68.1322 267.799 67.3224 268.365 66.5126C268.769 65.9285 267.84 65.338 267.436 65.9221Z" fill="#2F0B3B"/>
<path d="M276.687 110.927C278.493 106.001 278.743 100.705 278.714 95.5137C278.7 92.837 278.602 90.1572 278.6 87.479C278.597 85.5125 278.461 82.7272 277.676 80.9295C275.607 76.2148 269.566 80.7095 266.428 81.3724C265.974 81.4706 265.509 81.5312 265.077 81.7109C263 82.5869 265.304 88.2122 265.768 89.8661C266.596 92.8104 267.605 95.6948 268.719 98.541C270.626 103.417 272.463 109.09 275.774 113.194C276.088 112.446 276.402 111.698 276.682 110.934L276.687 110.927Z" fill="#EEEEEE"/>
<path d="M277.211 111.099C279.483 104.837 279.331 98.088 279.206 91.523C279.173 89.8449 279.184 88.1615 279.137 86.4849C279.096 85.0211 278.993 83.5257 278.64 82.1047C278.372 81.0295 277.951 79.9141 277.101 79.1656C276.437 78.5765 275.589 78.2872 274.705 78.2542C272.789 78.1798 270.911 79.0455 269.185 79.7769C268.39 80.1154 267.597 80.4729 266.766 80.7186C265.815 80.9975 264.622 80.9683 264.053 81.9144C263.618 82.6249 263.646 83.5274 263.725 84.3204C263.828 85.3112 264.076 86.2786 264.361 87.2287C264.605 88.0414 264.886 88.8433 265.142 89.6545C265.605 91.1338 266.024 92.6247 266.519 94.0939C267.573 97.2058 268.784 100.267 269.981 103.33C271.108 106.227 272.337 109.118 274.044 111.727C274.46 112.358 274.901 112.973 275.377 113.564C275.657 113.913 276.157 113.706 276.304 113.359C276.618 112.611 276.931 111.863 277.211 111.099C277.457 110.43 276.409 110.099 276.163 110.762C275.883 111.526 275.569 112.274 275.256 113.022L276.182 112.817C274.35 110.527 273.037 107.859 271.902 105.164C270.733 102.402 269.692 99.5728 268.634 96.7653C268.033 95.1533 267.469 93.5304 266.954 91.8889C266.625 90.8403 266.34 89.7802 265.992 88.7338C265.451 87.0889 264.773 85.3176 264.775 83.564C264.776 83.2404 264.795 82.9018 264.928 82.6017C265.036 82.3627 265.16 82.2577 265.433 82.1548C265.972 81.9561 266.563 81.9196 267.112 81.7521C267.506 81.6351 267.89 81.4869 268.274 81.3387C269.949 80.6777 271.578 79.8346 273.36 79.4719C274.105 79.3204 274.907 79.2594 275.63 79.5246C276.387 79.8052 276.877 80.4597 277.193 81.1798C277.741 82.4358 277.897 83.8926 277.984 85.2476C278.081 86.7501 278.05 88.2611 278.07 89.7662C278.166 96.0305 278.535 102.47 276.853 108.579C276.654 109.314 276.422 110.04 276.156 110.756C275.91 111.425 276.965 111.762 277.204 111.094L277.211 111.099Z" fill="#2F0B3B"/>
<path d="M261.708 96.4914C261.907 94.4757 262.296 92.4831 262.705 90.501C263.115 88.5189 263.563 86.5388 264.085 84.5824C264.271 83.9008 263.222 83.5572 263.037 84.2451C262.501 86.2484 262.045 88.2747 261.628 90.303C261.211 92.3312 260.815 94.3764 260.609 96.4383C260.536 97.1454 261.635 97.1986 261.709 96.4978L261.708 96.4914Z" fill="#2F0B3B"/>
<path d="M259.742 89.1052C260.18 88.7566 260.669 88.4539 261.195 88.1986C261.734 87.9354 262.212 87.7697 262.804 87.6296C263.081 87.565 263.298 87.2616 263.225 86.9725C263.147 86.6906 262.871 86.4834 262.568 86.551C261.259 86.8587 260.049 87.4589 258.995 88.2931C258.764 88.4753 258.77 88.8626 258.963 89.0731C259.177 89.3068 259.505 89.288 259.742 89.1052Z" fill="#2F0B3B"/>
<path d="M295.651 240.787C293.355 242.284 290.761 240.671 288.336 240.727C285.698 240.788 283.032 242.335 280.628 243.404C274.848 245.979 269.357 249.193 264.279 252.968C261.416 255.093 258.543 257.472 255.057 258.189C254.634 258.277 254.098 258.287 253.887 257.917C253.756 257.687 253.813 257.395 253.881 257.142C254.248 255.85 254.953 254.688 255.648 253.546C259.514 247.202 263.699 241.545 268.276 235.694C271.372 231.737 265.323 222.724 263.203 218.733C261.15 214.877 256.751 209.819 255.306 205.685C253.619 200.862 262.532 203.472 268.069 202.931C276.581 202.102 280.281 210.715 283.739 216.749C288.327 224.768 292.921 232.779 297.509 240.797L295.651 240.781L295.651 240.787Z" fill="#EEEEEE"/>
<path d="M295.394 240.299C294.17 241.063 292.813 240.904 291.467 240.627C290.036 240.335 288.671 240.054 287.21 240.276C285.608 240.52 284.088 241.183 282.627 241.857C281.118 242.557 279.6 243.245 278.099 243.963C274.964 245.473 271.921 247.167 268.99 249.048C267.546 249.973 266.126 250.941 264.743 251.949C263.383 252.936 262.069 253.982 260.686 254.938C259.339 255.865 257.907 256.731 256.359 257.267C255.974 257.402 255.579 257.513 255.183 257.604C255.038 257.641 254.476 257.816 254.365 257.641C254.24 257.449 254.629 256.679 254.703 256.483C254.853 256.103 255.036 255.739 255.228 255.38C256.036 253.882 256.981 252.446 257.902 251.019C258.816 249.599 259.759 248.195 260.722 246.802C262.643 244.029 264.649 241.318 266.705 238.646C267.244 237.943 267.784 237.246 268.33 236.548C268.679 236.1 269.018 235.679 269.256 235.166C269.632 234.339 269.744 233.414 269.697 232.514C269.586 230.282 268.739 228.116 267.806 226.109C266.846 224.028 265.703 222.045 264.573 220.055C264.084 219.193 263.626 218.315 263.12 217.468C262.405 216.271 261.618 215.12 260.831 213.97C259.203 211.597 257.465 209.225 256.272 206.588C255.966 205.906 255.448 204.905 255.74 204.192C255.811 204.022 255.985 203.846 256.173 203.74C256.47 203.57 256.777 203.482 257.118 203.417C258.054 203.23 259.026 203.253 259.981 203.284C261.162 203.321 262.337 203.411 263.515 203.48C264.713 203.548 265.923 203.608 267.127 203.558C268.292 203.513 269.415 203.376 270.577 203.531C272.654 203.814 274.541 204.855 276.07 206.262C279.309 209.256 281.196 213.403 283.349 217.176C287.011 223.575 290.672 229.968 294.334 236.366C295.228 237.931 296.128 239.496 297.023 241.067C297.191 240.795 297.367 240.529 297.536 240.257C296.915 240.252 296.3 240.246 295.678 240.24C294.972 240.232 294.913 241.332 295.619 241.341C296.24 241.346 296.855 241.352 297.477 241.357C297.878 241.362 298.209 240.929 297.99 240.547C294.223 233.966 290.449 227.38 286.681 220.799C285.244 218.288 283.819 215.769 282.406 213.243C281.279 211.232 280.103 209.241 278.652 207.443C277.268 205.722 275.597 204.202 273.574 203.273C272.549 202.804 271.455 202.511 270.341 202.388C269.143 202.262 267.966 202.432 266.773 202.461C264.334 202.512 261.91 202.192 259.481 202.158C258.004 202.136 255.603 202.066 254.787 203.611C254.352 204.431 254.595 205.354 254.904 206.172C255.391 207.467 256.063 208.683 256.775 209.855C258.334 212.416 260.165 214.804 261.761 217.348C262.906 219.182 263.933 221.119 264.981 223.009C266.152 225.124 267.292 227.301 268.015 229.617C268.551 231.334 269.057 233.572 267.965 235.187C267.518 235.847 266.981 236.459 266.498 237.085C265.958 237.782 265.425 238.478 264.892 239.181C263.838 240.571 262.798 241.967 261.779 243.38C259.728 246.213 257.762 249.101 255.915 252.065C255.032 253.481 254.067 254.913 253.509 256.505C253.266 257.194 253.048 258.099 253.782 258.57C254.382 258.953 255.172 258.738 255.812 258.566C259.123 257.676 261.828 255.465 264.524 253.456C267.386 251.318 270.385 249.364 273.498 247.604C276.556 245.87 279.743 244.412 282.926 242.922C284.44 242.209 286.008 241.509 287.685 241.301C289.138 241.118 290.536 241.57 291.955 241.813C293.321 242.048 294.707 242.01 295.919 241.254C296.516 240.88 296.008 239.904 295.404 240.279L295.394 240.299Z" fill="#2F0B3B"/>
<path d="M303.445 249.952L293.86 252.065C293.336 252.178 292.79 251.989 292.451 251.576C292.271 251.357 292.078 251.147 291.873 250.944C290.933 250.031 289.692 249.374 288.387 249.383C286.636 249.406 285.135 250.616 283.922 251.864C283.298 252.506 282.71 253.176 282.157 253.868C281.666 254.488 280.977 254.904 280.209 255.078L250.541 261.625C248.388 261.132 246.281 260.42 244.906 258.445C243.136 255.908 243.311 252.964 245.573 250.844C247.047 249.449 248.807 248.397 250.618 247.513C252.198 246.747 253.918 246.359 255.08 245.059C257.91 241.876 260.358 238.512 263.809 235.936C264.803 235.193 265.937 234.491 267.18 234.45C268.45 234.412 269.666 235.079 270.554 235.985C271.127 236.572 271.816 238.322 272.497 238.618C273.191 238.913 275.288 237.983 276.007 237.77C278.564 237.013 281.04 236.006 283.406 234.773C286.205 233.315 288.924 231.504 292.042 231.07C292.939 230.939 293.863 230.935 294.703 231.258C295.327 231.509 295.879 231.917 296.389 232.355C300.958 236.261 303.245 242.465 304.419 248.435C304.558 249.13 304.126 249.802 303.433 249.96L303.445 249.952Z" fill="#2F0B3B"/>
<path d="M303.324 249.417C300.328 250.076 297.333 250.735 294.339 251.401C294.156 251.442 293.974 251.489 293.79 251.523C293.239 251.626 292.973 251.334 292.63 250.947C291.573 249.756 290.048 248.821 288.413 248.837C286.579 248.856 285.023 249.995 283.771 251.234C283.11 251.893 282.487 252.594 281.898 253.316C281.406 253.923 280.861 254.355 280.088 254.542C278.219 254.986 276.336 255.367 274.464 255.786C270.604 256.636 266.752 257.486 262.893 258.337C259.513 259.08 256.133 259.829 252.753 260.572C252.016 260.736 251.254 260.863 250.521 261.065C250.327 261.12 250.536 261.024 250.574 261.072C250.514 261.001 250.147 260.966 250.048 260.945C249.875 260.901 249.701 260.856 249.527 260.805C249.139 260.695 248.763 260.571 248.383 260.421C246.913 259.848 245.693 258.871 244.941 257.471C244.25 256.199 244.038 254.71 244.536 253.326C245.108 251.739 246.53 250.616 247.878 249.702C249.395 248.677 251.027 247.918 252.704 247.212C253.481 246.882 254.24 246.515 254.902 245.979C255.611 245.405 256.181 244.633 256.767 243.944C259.111 241.193 261.421 238.31 264.382 236.193C265.146 235.645 266.016 235.116 266.968 235.018C267.78 234.937 268.582 235.212 269.259 235.644C269.839 236.017 270.274 236.471 270.627 237.057C270.956 237.607 271.259 238.213 271.703 238.691C272.562 239.626 273.878 239.098 274.904 238.739C276.42 238.207 277.957 237.743 279.448 237.168C281.317 236.44 283.117 235.57 284.874 234.609C286.582 233.672 288.296 232.67 290.167 232.071C291.089 231.776 292.071 231.538 293.047 231.535C293.997 231.528 294.793 231.81 295.551 232.375C296.882 233.365 298.024 234.675 298.982 236.019C300.969 238.803 302.253 242.056 303.14 245.343C303.347 246.114 303.534 246.895 303.703 247.677C303.832 248.283 304.151 249.191 303.317 249.417C302.634 249.6 302.869 250.679 303.552 250.49C304.298 250.286 304.865 249.716 304.976 248.94C305.086 248.163 304.739 247.24 304.561 246.491C304.152 244.753 303.642 243.039 303.008 241.373C301.786 238.157 300.042 235.068 297.551 232.666C296.903 232.043 296.214 231.405 295.421 230.987C294.607 230.551 293.703 230.397 292.784 230.446C290.786 230.556 288.885 231.288 287.112 232.168C285.29 233.072 283.551 234.129 281.712 235.003C279.824 235.895 277.876 236.607 275.886 237.234C275.331 237.408 274.788 237.633 274.233 237.814C273.866 237.935 273.076 238.266 272.723 238.12C272.289 237.944 271.954 237.129 271.728 236.741C271.365 236.124 270.994 235.598 270.436 235.138C269.076 234.016 267.345 233.59 265.673 234.225C263.944 234.879 262.43 236.258 261.109 237.519C259.74 238.817 258.502 240.242 257.279 241.678C256.67 242.389 256.074 243.106 255.458 243.812C254.842 244.524 254.262 245.206 253.424 245.672C252.653 246.105 251.814 246.397 251.001 246.75C250.139 247.122 249.298 247.563 248.487 248.046C246.932 248.958 245.295 250.067 244.247 251.561C242.366 254.238 243.154 257.892 245.539 259.989C246.728 261.034 248.206 261.619 249.725 262.005C250.178 262.121 250.519 262.21 250.947 262.115L258.666 260.414C262.758 259.51 266.844 258.608 270.936 257.704C273.836 257.062 276.737 256.427 279.631 255.786C279.851 255.734 280.073 255.689 280.293 255.637C280.659 255.556 281.025 255.429 281.354 255.249C282.182 254.809 282.673 254.079 283.271 253.389C284.452 252.028 285.874 250.414 287.717 250.024C288.569 249.841 289.45 250.017 290.214 250.419C290.566 250.605 290.903 250.831 291.205 251.093C291.564 251.401 291.835 251.783 292.177 252.112C292.832 252.735 293.61 252.702 294.418 252.524C295.162 252.36 295.899 252.196 296.643 252.032C298.579 251.606 300.515 251.18 302.45 250.747L303.554 250.502C304.247 250.351 304.012 249.272 303.319 249.43L303.324 249.417Z" fill="#2F0B3B"/>
<path d="M245.554 259.618C250.36 258.567 255.159 257.51 259.964 256.459C264.656 255.427 269.428 254.477 273.845 252.526C276.674 251.272 279.337 249.648 282.082 248.229C283.369 247.561 284.658 246.906 286.04 246.448C288.269 245.71 290.581 245.233 292.857 244.671C296.087 243.867 299.33 243.166 302.596 242.501C303.292 242.362 303.056 241.283 302.362 241.429C299.531 242.004 296.708 242.585 293.904 243.281C290.132 244.212 286.237 244.918 282.734 246.665C280.039 248.007 277.428 249.528 274.741 250.889C270.619 252.979 266.068 254.001 261.578 254.983C256.154 256.171 250.737 257.359 245.313 258.547C244.619 258.699 244.855 259.778 245.548 259.619L245.554 259.618Z" fill="#9E9898"/>
<path d="M253.41 246.942C256.116 246.847 258.793 246.29 261.362 245.473C264.075 244.607 266.728 243.451 269.137 241.921C270.383 241.129 271.567 240.241 272.616 239.2C273.121 238.701 272.373 237.889 271.869 238.394C270.036 240.199 267.814 241.558 265.504 242.661C263.01 243.851 260.366 244.748 257.657 245.309C256.273 245.593 254.874 245.795 253.463 245.843C252.761 245.866 252.695 246.967 253.404 246.943L253.41 246.942Z" fill="#9E9898"/>
<path d="M323.042 136.997C294.397 129.554 265.332 122.058 235.744 122.456C222.674 122.633 209.052 131.672 208.402 145.638C208.166 150.776 209.732 155.834 211.677 160.602C215.314 169.501 220.412 177.512 225.515 185.625C230.81 194.047 236.224 202.389 241.766 210.652C243.981 213.959 246.208 217.252 248.476 220.513C250.782 223.822 253.483 227.021 255.548 230.474C255.826 230.863 256.324 231.031 256.791 230.931C259.947 230.266 275.031 226.834 298.613 230.065C299.736 230.219 300.554 229.018 299.987 228.036C292.719 215.445 259.259 157.661 249.8 144.744L318.944 147.851L323.042 136.997Z" fill="#3040B4"/>
<path d="M337.396 137.02C328.226 145.36 314.812 154.627 353.261 154.853C361.241 154.9 359.481 170.16 357.096 177.78C356.953 178.224 356.798 178.669 356.628 179.096C353.764 186.326 346.576 191.524 338.921 192.493C330.03 193.619 319.238 188.361 310.809 185.791C289.974 179.432 269.417 172.134 249.234 163.927L243.629 138.514L337.396 137.02Z" fill="#3040B4"/>
<path d="M246.726 217.592C248.036 215.952 250.194 214.879 252.146 214.088C254.925 212.963 257.892 212.281 260.841 211.782C267.634 210.635 274.692 210.486 281.52 211.412C284.878 211.868 288.249 212.601 291.358 213.973C292.006 214.26 292.336 213.206 291.695 212.924C288.859 211.676 285.801 210.965 282.75 210.479C279.265 209.934 275.735 209.717 272.205 209.734C268.625 209.756 265.033 210.013 261.494 210.561C258.387 211.039 255.299 211.735 252.349 212.836C249.938 213.737 247.428 214.955 245.791 217.002C245.351 217.558 246.28 218.142 246.72 217.593L246.726 217.592Z" fill="#2F0B3B"/>
<path d="M267.122 171.082C262.71 163.36 257.984 155.817 252.957 148.477C251.532 146.398 250.082 144.335 248.608 142.288C248.192 141.715 247.388 142.469 247.803 143.035C252.972 150.216 257.843 157.606 262.406 165.187C263.681 167.31 264.932 169.441 266.159 171.588C266.508 172.201 267.484 171.693 267.134 171.074L267.122 171.082Z" fill="#2F0B3B"/>
<path d="M258.896 141.439C260.311 148.753 261.193 156.168 261.53 163.607C261.56 164.309 262.66 164.375 262.629 163.667C262.294 156.124 261.407 148.612 259.975 141.203C259.842 140.507 258.763 140.743 258.903 141.438L258.896 141.439Z" fill="#2F0B3B"/>
<path d="M353.288 154.306C347.715 154.269 342.068 154.144 336.551 153.26C334.093 152.867 330.97 152.37 329.036 150.706C327.907 149.731 327.776 148.608 328.355 147.246C329.057 145.612 330.519 144.115 331.819 142.838C333.728 140.96 335.784 139.232 337.767 137.429C338.1 137.125 337.907 136.469 337.423 136.473C333.208 136.544 328.998 136.607 324.783 136.677C324.183 136.689 323.576 136.695 322.976 136.707C323.139 136.946 323.303 137.186 323.473 137.425C323.508 137.337 323.537 137.256 323.572 137.167C323.671 136.904 323.5 136.548 323.22 136.471C310.408 133.143 297.577 129.818 284.6 127.176C271.761 124.563 258.761 122.615 245.663 122.051C242.368 121.911 239.069 121.849 235.776 121.902C233.504 121.94 231.234 122.218 229.026 122.747C224.545 123.812 220.28 125.842 216.699 128.75C213.19 131.604 210.394 135.365 208.955 139.673C207.082 145.299 207.833 151.248 209.673 156.778C211.81 163.18 214.958 169.225 218.357 175.033C221.828 180.956 225.548 186.74 229.249 192.527C233.045 198.463 236.9 204.361 240.816 210.213C242.781 213.148 244.752 216.075 246.752 218.98C248.62 221.693 250.618 224.3 252.545 226.961C253.023 227.624 253.497 228.3 253.951 228.978C254.375 229.621 254.73 230.446 255.272 230.991C255.843 231.565 256.582 231.525 257.308 231.375C258.179 231.19 259.045 231.018 259.919 230.858C263.149 230.268 266.407 229.863 269.681 229.604C274.758 229.207 279.86 229.15 284.943 229.367C288.141 229.505 291.339 229.754 294.524 230.108C295.329 230.195 296.136 230.289 296.937 230.39C297.678 230.484 298.543 230.746 299.291 230.555C300.353 230.289 300.965 229.105 300.613 228.085C300.407 227.482 299.979 226.917 299.663 226.365C299.298 225.735 298.933 225.098 298.562 224.468C297.672 222.935 296.789 221.401 295.899 219.868C293.535 215.789 291.16 211.719 288.784 207.648C282.903 197.574 276.984 187.517 270.993 177.501C269.556 175.1 268.112 172.7 266.669 170.306C266.454 170.564 266.232 170.83 266.016 171.088C276.157 174.914 286.382 178.524 296.69 181.903C301.686 183.541 306.725 185.044 311.725 186.661C316.06 188.058 320.281 189.76 324.64 191.096C328.825 192.375 333.249 193.438 337.655 193.171C341.759 192.919 345.773 191.462 349.156 189.127C352.526 186.8 355.279 183.62 356.917 179.852C358.227 176.833 358.872 173.426 359.302 170.18C359.723 166.968 359.912 163.588 359.243 160.399C358.747 158.024 357.597 155.486 355.149 154.62C354.555 154.411 353.924 154.322 353.302 154.311C352.595 154.296 352.536 155.396 353.242 155.411C355.809 155.455 357.272 157.355 357.929 159.666C358.767 162.589 358.664 165.758 358.359 168.75C358.05 171.814 357.466 174.903 356.507 177.836C355.248 181.689 352.719 185.018 349.534 187.492C346.36 189.951 342.499 191.559 338.502 191.998C334.255 192.467 329.932 191.502 325.882 190.317C321.65 189.076 317.549 187.464 313.381 186.048C308.741 184.472 304.018 183.127 299.353 181.613C289.467 178.41 279.653 174.999 269.918 171.377C268.735 170.939 267.551 170.495 266.367 170.044C265.928 169.882 265.467 170.421 265.714 170.825C271.674 180.683 277.538 190.603 283.371 200.541C287.994 208.419 292.595 216.32 297.17 224.229C297.867 225.436 298.563 226.642 299.26 227.848C299.447 228.176 299.72 228.519 299.612 228.927C299.377 229.801 298.324 229.471 297.693 229.389C296.051 229.173 294.413 228.989 292.764 228.825C287.092 228.269 281.393 228.04 275.694 228.199C269.461 228.375 263.234 229.003 257.131 230.296C257.011 230.323 256.886 230.357 256.759 230.378C255.937 230.487 255.608 229.497 255.223 228.907C254.341 227.554 253.394 226.254 252.435 224.962C250.464 222.306 248.53 219.64 246.659 216.907C242.786 211.251 238.997 205.534 235.249 199.792C231.501 194.043 227.814 188.256 224.168 182.444C220.68 176.872 217.245 171.255 214.388 165.326C211.58 159.487 208.858 153.05 208.93 146.456C208.982 141.785 210.595 137.314 213.445 133.625C216.192 130.064 219.965 127.36 224.07 125.562C226.131 124.662 228.285 123.997 230.492 123.566C232.946 123.086 235.4 123.001 237.896 123.001C250.695 122.992 263.455 124.437 276.043 126.671C288.736 128.926 301.276 131.975 313.762 135.172C316.802 135.95 319.836 136.736 322.864 137.528C322.747 137.296 322.629 137.064 322.512 136.832L322.412 137.089C322.294 137.407 322.561 137.816 322.91 137.808C327.125 137.737 331.334 137.674 335.549 137.604C336.15 137.592 336.757 137.586 337.357 137.574C337.242 137.258 337.128 136.941 337.013 136.618C335.159 138.302 333.239 139.923 331.437 141.667C329.972 143.079 328.431 144.617 327.513 146.458C326.763 147.956 326.622 149.635 327.756 150.984C329.334 152.871 332.236 153.529 334.516 154.001C340.633 155.262 347.003 155.368 353.222 155.407C353.928 155.409 353.987 154.308 353.282 154.307L353.288 154.306Z" fill="#2F0B3B"/>
<path d="M466.719 274.95C427.014 244.904 394.273 205.675 371.925 161.167L306.907 157.728C330.409 205.369 364.871 250.207 407.623 287.985L466.718 274.944L466.719 274.95Z" fill="#3040B4"/>
<path d="M321.188 184.614C326.618 193.751 332.392 202.679 338.489 211.382C344.686 220.222 351.206 228.837 358.033 237.203C364.943 245.663 372.171 253.865 379.692 261.795C387.308 269.823 395.226 277.563 403.431 284.986C404.458 285.914 405.484 286.836 406.522 287.75C406.666 287.882 406.81 288.008 406.955 288.14L408.286 287.849C400.111 280.63 392.205 273.108 384.595 265.299C376.86 257.363 369.428 249.139 362.308 240.645C355.306 232.28 348.611 223.66 342.25 214.8C335.935 206.006 329.955 196.972 324.33 187.716C318.835 178.677 313.683 169.431 308.91 159.991C308.474 159.13 308.043 158.268 307.612 157.399C309.457 157.521 311.302 157.649 313.147 157.771C318.335 158.117 323.524 158.464 328.707 158.818C334.984 159.239 341.261 159.659 347.539 160.086C352.969 160.45 358.399 160.814 363.835 161.177C365.64 161.297 367.439 161.417 369.246 161.543C369.8 161.582 370.347 161.616 370.901 161.655C371.11 161.669 371.355 161.718 371.582 161.724C375.964 170.413 380.73 178.909 385.877 187.173C391.057 195.498 396.616 203.584 402.527 211.41C408.431 219.23 414.685 226.789 421.261 234.051C427.868 241.349 434.8 248.344 442.032 255.02C449.235 261.666 456.737 267.993 464.508 273.965C465.005 274.347 465.502 274.729 466.006 275.11L467.418 274.797C459.271 268.649 451.416 262.117 443.887 255.231C436.244 248.241 428.933 240.889 421.984 233.204C415.006 225.49 408.391 217.448 402.175 209.109C395.959 200.775 390.149 192.142 384.76 183.247C382.062 178.799 379.48 174.287 377.001 169.71C375.773 167.44 374.569 165.161 373.396 162.865C373.103 162.291 372.822 161.709 372.523 161.142C372.373 160.849 372.277 160.692 371.945 160.621C371.899 160.613 371.848 160.619 371.802 160.612C369.342 160.316 366.822 160.279 364.344 160.109C359.293 159.772 354.24 159.428 349.189 159.092C343.198 158.689 337.208 158.287 331.217 157.885C325.983 157.531 320.749 157.183 315.514 156.829C312.711 156.644 309.914 156.452 307.112 156.267C306.981 156.257 306.851 156.252 306.721 156.242C306.291 156.214 306.022 156.679 306.207 157.052C310.837 166.43 315.841 175.63 321.182 184.621L321.188 184.614Z" fill="#2F0B3B"/>
<path d="M266.457 78.962L266.249 90.5538C266.256 90.954 265.841 91.2223 265.479 91.0574C265.158 90.9073 264.924 90.6175 264.857 90.2694C264.467 88.2511 263.144 81.1658 262.731 76.8406C262.242 71.7542 263.415 72.1093 263.415 72.1093L266.464 78.9677L266.457 78.962Z" fill="#EEEEEE"/>
<path d="M265.935 91.6383C265.708 91.6906 265.466 91.6671 265.247 91.5632C264.762 91.3415 264.413 90.8969 264.314 90.378C263.918 88.315 262.59 81.2368 262.174 76.8924C261.804 73.0473 262.35 72.1234 262.787 71.7684C263.064 71.542 263.373 71.5254 263.567 71.5805C263.735 71.6321 263.873 71.7648 263.931 71.9327L266.6 79.8575C266.62 79.9135 266.627 79.9709 266.626 80.0227L266.791 90.5488C266.796 90.9235 266.611 91.275 266.298 91.4796C266.184 91.5512 266.061 91.6043 265.934 91.632L265.935 91.6383ZM263.241 73.3329C263.147 73.9132 263.093 74.9545 263.274 76.7837C263.683 81.0771 265.001 88.1113 265.395 90.1616C265.428 90.3388 265.542 90.4808 265.705 90.5524L265.531 80.1179L263.24 73.3265L263.241 73.3329Z" fill="#2F0B3B"/>
<path d="M253.01 51.0205C253.64 48.1524 253.414 45.1056 252.448 42.3069C251.803 40.4346 250.652 37.4374 249.262 35.9431C245.322 31.7052 240.58 40.2536 239.795 43.1141C239.028 45.9141 239.783 48.621 241.716 50.8413C242.709 51.9808 243.701 53.1138 244.694 54.2533C246.306 56.097 248.665 56.9675 250.736 55.2641C252.006 54.2298 252.653 52.6212 253.004 51.0213L253.01 51.0205Z" fill="#2F0B3B"/>
<path d="M268.066 51.8424C267.129 53.1871 266.157 54.5036 265.329 55.8875C263.797 58.4468 259.736 61.3975 257.979 63.8082C260.185 69.0828 264.323 76.6295 267.029 82.538L279.869 62.2293C277.572 60.2196 272.129 55.3544 268.065 51.836L268.066 51.8424Z" fill="#EEEEEE"/>
<path d="M267.598 51.5474C266.766 52.7376 265.902 53.9188 265.133 55.1533C264.566 56.0604 263.957 56.8818 263.22 57.6599C261.665 59.3031 259.906 60.7501 258.396 62.4398C258.092 62.7728 257.659 63.1661 257.474 63.5822C257.285 64.0119 257.748 64.7084 257.924 65.1085C258.391 66.1797 258.89 67.2409 259.394 68.2949C260.497 70.599 261.655 72.8773 262.801 75.1634C264.072 77.6938 265.35 80.2297 266.53 82.8031C266.703 83.184 267.265 83.1768 267.478 82.8414C268.925 80.5509 270.373 78.2604 271.826 75.9691C274.131 72.3236 276.436 68.6781 278.746 65.0255C279.27 64.1946 279.794 63.3637 280.318 62.5328C280.439 62.3441 280.44 62.0205 280.259 61.8604C276.314 58.4123 272.419 54.9001 268.455 51.467C267.924 51.0114 267.111 51.753 267.65 52.2142C271.613 55.6473 275.502 59.1603 279.454 62.6076C279.428 62.3842 279.415 62.1593 279.395 61.9351C277.948 64.2257 276.501 66.5162 275.047 68.8075C272.742 72.453 270.438 76.0985 268.127 79.7511C267.603 80.582 267.079 81.4129 266.555 82.2438L267.504 82.2821C265.188 77.2274 262.537 72.3411 260.148 67.3208C259.556 66.0764 258.984 64.8233 258.448 63.553C258.443 63.7347 258.432 63.9235 258.428 64.1052C259.879 62.1312 261.88 60.5914 263.584 58.8466C264.388 58.0285 265.173 57.1607 265.777 56.1782C266.63 54.7914 267.582 53.4643 268.513 52.1331C268.918 51.549 267.989 50.9585 267.584 51.5425L267.598 51.5474Z" fill="#2F0B3B"/>
<path d="M264.727 36.6717C261.452 33.6502 256.489 33.0183 252.379 34.3833C249.87 35.2125 247.497 36.5563 245.691 38.4875C242.971 41.3921 242.045 45.2717 243.029 49.1163C243.768 52.0128 245.684 54.3063 246.256 57.2221C247.292 62.5035 247.776 68.2761 253.548 70.5153C255.729 71.3611 258.178 71.3993 260.444 70.8119C262.711 70.2245 264.791 69.0441 266.59 67.5536C270.466 64.3463 272.235 59.4887 271.564 54.5012C270.994 50.2719 270.221 46.1955 268.451 42.2676C267.526 40.2145 266.381 38.2129 264.729 36.6845L264.727 36.6717Z" fill="#EEEEEE"/>
<path d="M268.938 42.0037C267.726 39.3177 266.105 36.7246 263.581 35.0971C261.407 33.7006 258.779 33.075 256.215 33.1601C250.777 33.3405 244.987 36.6608 242.913 41.8386C241.945 44.248 241.856 46.982 242.554 49.4756C242.973 50.9601 243.682 52.3331 244.36 53.7098C245.038 55.0929 245.552 56.4499 245.839 57.9692C246.704 62.5653 247.485 67.8829 251.987 70.3863C257.45 73.4248 264.296 71.0101 268.32 66.6857C268.837 66.1273 269.311 65.5351 269.737 64.9098C270.141 64.3258 269.212 63.7353 268.808 64.3193C265.672 68.8832 259.329 72.0609 253.862 70.0514C251.7 69.2552 250.031 67.6964 249.009 65.6416C248.005 63.63 247.588 61.3756 247.177 59.1849C246.951 57.9626 246.768 56.7224 246.346 55.5488C245.857 54.1824 245.16 52.9179 244.549 51.6111C243.442 49.2687 242.881 46.7268 243.376 44.1461C244.379 38.9377 249.349 35.3506 254.362 34.4628C256.713 34.0467 259.184 34.2764 261.393 35.1966C263.895 36.2444 265.699 38.2404 266.993 40.574C267.345 41.2123 267.66 41.8614 267.964 42.5247C268.253 43.1704 269.227 42.6558 268.939 42.0101L268.938 42.0037Z" fill="#2F0B3B"/>
<path d="M273.504 41.9508C273.72 45.0246 273.635 47.5706 272.602 49.8064C271.093 53.0681 268.1 47.5811 267.092 46.204C265.992 44.7018 264.87 43.4481 264.048 41.7194C263.68 40.9535 263.378 39.1902 262.742 38.6755C262.114 38.1664 260.012 38.2236 259.194 38.0859C258.231 37.9263 256.293 37.9968 255.483 37.483C253.52 36.2365 253.742 33.9723 254.675 32.1557C256.793 28.0208 262.349 29.0817 265.987 30.2172C266.759 30.4573 267.517 30.7442 268.216 31.1415C271.084 32.7743 273.205 37.664 273.504 41.9508Z" fill="#2F0B3B"/>
<path d="M255.07 26.2744C252.406 26.1706 249.749 26.8423 247.085 26.6803C246.029 26.6156 244.965 26.4225 243.923 26.5763C241.493 26.924 239.551 29.3562 239.753 31.8105C240.093 35.9566 244.712 37.0749 248.034 36.164C250.353 35.5316 252.514 33.9797 254.906 34.1992C256.089 34.3072 257.186 34.8394 258.345 35.0732C261.398 35.688 262.738 32.9701 261.871 30.3022C260.996 27.6221 257.611 26.3796 255.071 26.2808L255.07 26.2744Z" fill="#2F0B3B"/>
<path d="M236.955 40.1129C236.888 40.7547 236.916 41.3855 237.094 41.9665C237.589 43.6102 239.742 45.268 241.519 44.867C242.383 44.6758 243.099 44.1072 243.815 43.5904C248.664 40.082 254.724 37.1896 260.796 38.5721C261.7 38.7774 262.606 39.0601 263.528 38.9786C267.553 38.6133 266.366 35.5297 263.644 34.0353C261.854 33.0469 260.005 32.1624 258.115 31.3733C255.293 30.1944 252.7 29.1379 249.715 30.003C246.287 30.9975 243.401 32.2069 240.47 34.308C238.303 35.8607 237.229 37.4673 236.942 40.1144L236.955 40.1129Z" fill="#2F0B3B"/>
<path d="M271.505 45.1596C273.048 44.5271 274.99 44.8185 276.157 46.1252C279.503 49.8631 275.053 55.2464 271.534 56.1285C269.661 56.5989 268.624 55.5228 268.205 53.6438C267.837 51.9851 267.478 50.1831 268.126 48.5808C268.753 47.0199 270.029 45.7585 271.504 45.1533L271.505 45.1596Z" fill="#EEEEEE"/>
<path d="M268.651 48.7593C269.661 46.3256 272.768 44.2946 275.242 46.038C276.271 46.7657 276.834 48.0521 276.772 49.2951C276.708 50.5252 276.131 51.6729 275.403 52.644C274.564 53.7703 273.438 54.7101 272.169 55.3108C271.532 55.6114 272.046 56.5866 272.684 56.286C275.27 55.0596 277.719 52.316 277.871 49.3482C277.951 47.8121 277.281 46.2792 276.088 45.3055C274.886 44.3197 273.159 44.0356 271.682 44.5181C269.813 45.1304 268.351 46.6269 267.603 48.422C267.33 49.0749 268.378 49.4122 268.651 48.7593Z" fill="#2F0B3B"/>
<path d="M270.372 51.9808C270.819 50.1564 272.014 48.5877 273.721 47.8132C273.991 47.6912 274.084 47.3182 273.951 47.0684C273.803 46.7946 273.477 46.7162 273.207 46.8382C271.26 47.7247 269.833 49.579 269.324 51.6436C269.254 51.9299 269.38 52.2385 269.676 52.3399C269.945 52.425 270.296 52.2742 270.373 51.9871L270.372 51.9808Z" fill="#2F0B3B"/>
<path d="M273.602 51.792C273.349 50.5602 272.468 49.492 271.291 49.0469C271.02 48.9426 270.672 49.119 270.595 49.3997C270.513 49.7002 270.663 49.9868 270.948 50.096C271.002 50.1156 271.056 50.1415 271.117 50.1604C271.027 50.1126 271.178 50.1856 271.117 50.1604C271.137 50.1709 271.165 50.1871 271.186 50.1976C271.29 50.2567 271.394 50.3221 271.493 50.3947C271.522 50.4172 271.549 50.4334 271.572 50.4567C271.585 50.4616 271.656 50.518 271.599 50.4729C271.535 50.4221 271.628 50.4954 271.636 50.5074C271.657 50.5244 271.678 50.5413 271.694 50.5653C271.789 50.6578 271.877 50.751 271.96 50.8513C271.998 50.8986 272.036 50.946 272.074 50.9997C272.113 51.0534 272.089 51.011 272.067 50.9877C272.089 51.011 272.106 51.0478 272.122 51.0718C272.192 51.18 272.25 51.2897 272.309 51.3993C272.334 51.4545 272.361 51.5161 272.387 51.5713C272.396 51.5961 272.405 51.6209 272.416 51.6521C272.394 51.577 272.469 51.7816 272.416 51.6521C272.45 51.7839 272.491 51.9085 272.519 52.041C272.578 52.3253 272.887 52.5351 273.176 52.4626C273.464 52.3838 273.659 52.1089 273.597 51.8055L273.602 51.792Z" fill="#2F0B3B"/>
<path d="M246.301 52.7146C246.61 51.9217 247.396 51.4031 248.204 51.2313C249.214 51.0167 250.251 51.31 251.167 51.7338C251.44 51.8573 251.776 51.637 251.863 51.3811C251.963 51.0718 251.778 50.8152 251.51 50.6846C250.37 50.164 249.042 49.8722 247.812 50.1966C246.67 50.4978 245.692 51.2651 245.259 52.3766C245 53.0407 246.054 53.3709 246.307 52.7138L246.301 52.7146Z" fill="#2F0B3B"/>
<path d="M257.716 49.7737C258.198 48.7471 259.215 48.4218 260.256 48.2552C261.379 48.0726 262.444 48.3821 263.355 49.0458C263.928 49.4643 264.518 48.5352 263.946 48.1166C262.765 47.2578 261.345 46.9445 259.906 47.1961C259.253 47.311 258.575 47.4806 258.002 47.8384C257.381 48.2277 256.966 48.7742 256.661 49.4308C256.537 49.6976 256.758 50.0406 257.014 50.1272C257.329 50.2263 257.579 50.0419 257.71 49.7744L257.716 49.7737Z" fill="#2F0B3B"/>
<path d="M252.278 50.9957C252.511 53.1618 252.667 55.3368 252.752 57.5135C252.761 57.8101 252.96 58.078 253.272 58.0934C253.546 58.1069 253.861 57.8696 253.852 57.573C253.762 55.2998 253.595 53.0291 253.356 50.7602C253.322 50.4665 252.964 50.2818 252.699 50.3385C252.384 50.4076 252.249 50.695 252.278 50.9957Z" fill="#2F0B3B"/>
<path d="M248.339 48.1099C248.934 48.0018 249.495 47.7036 249.463 46.931C249.443 46.3705 249.02 46.0186 248.567 45.8513C247.363 45.3964 245.871 45.7448 244.843 46.4145C244.356 46.73 243.834 47.3018 244.007 48.0127C244.215 48.8554 244.912 49.0653 245.538 48.8243C246.454 48.4718 247.37 48.2875 248.339 48.1099Z" fill="#2F0B3B"/>
<path d="M260.399 44.5967C261.051 44.4755 261.661 44.165 261.649 43.3902C261.642 42.8282 261.188 42.4864 260.697 42.3236C259.398 41.8925 257.767 42.2701 256.632 42.9588C256.094 43.2866 255.515 43.8715 255.695 44.5817C255.91 45.4236 256.657 45.6212 257.339 45.3671C258.343 44.9914 259.341 44.791 260.398 44.5903L260.399 44.5967Z" fill="#2F0B3B"/>
<path d="M248.937 51.6956C249.37 52.4149 249.501 53.6545 248.844 54.2873C248.571 54.5519 248.178 54.6171 247.823 54.5097C247.044 54.2641 246.404 52.935 246.497 52.1739C246.576 51.5242 247.032 50.8826 247.747 50.9221C248.144 50.9406 248.513 51.1629 248.768 51.4695C248.828 51.5401 248.883 51.6179 248.938 51.702L248.937 51.6956Z" fill="#2F0B3B"/>
<path d="M260.287 48.9696C260.72 49.6889 260.851 50.9284 260.194 51.5612C259.921 51.8259 259.528 51.8911 259.173 51.7837C258.394 51.538 257.754 50.2089 257.847 49.4478C257.926 48.7982 258.382 48.1565 259.098 48.196C259.494 48.2145 259.863 48.4368 260.118 48.7434C260.178 48.814 260.233 48.8918 260.288 48.9759L260.287 48.9696Z" fill="#2F0B3B"/>
<path d="M254.304 61.4603C255.738 61.3385 257.104 60.4033 257.742 59.1129C257.867 58.8526 257.853 58.5114 257.576 58.3496C257.34 58.2153 256.949 58.2415 256.813 58.5161C256.746 58.6598 256.665 58.7986 256.577 58.9317C256.538 58.988 256.5 59.0506 256.454 59.1012C256.426 59.1368 256.398 59.1725 256.376 59.2073C256.32 59.2786 256.422 59.1567 256.365 59.2216C256.262 59.3371 256.146 59.454 256.029 59.5582C255.97 59.6103 255.912 59.6624 255.846 59.7089C255.816 59.7318 255.793 59.7539 255.763 59.7704C255.686 59.8311 255.775 59.7689 255.727 59.794C255.6 59.8734 255.474 59.9528 255.339 60.0202C255.266 60.0547 255.198 60.0884 255.125 60.1228C255.094 60.1393 255.063 60.1494 255.026 60.1666C254.99 60.1838 254.915 60.2119 254.99 60.1838C254.692 60.2897 254.376 60.3524 254.062 60.3824C253.774 60.4094 253.571 60.7759 253.641 61.0395C253.723 61.3597 253.99 61.4839 254.298 61.461L254.304 61.4603Z" fill="#2F0B3B"/>
<path d="M271.126 105.448C272.708 108.085 274.368 110.68 276.065 113.258C276.842 110.489 277.586 107.711 278.202 104.896C277.845 103.831 277.47 102.775 277.064 101.729C276.266 99.7131 275.225 97.156 274.844 93.4416C274.592 90.9478 275.103 88.5011 274.62 85.9694C274.144 83.4889 272.822 81.0227 270.752 80.0216C269.594 79.4642 268.281 79.52 267.201 80.131C265.447 81.1181 265.306 82.9008 265.387 84.5993C265.554 87.9181 266.717 90.4093 267.895 93.3645C269.45 97.2722 270.389 101.336 271.133 105.448L271.126 105.448Z" fill="#2F0B3B"/>
<path d="M269.501 94.1542C269.506 93.7589 269.651 93.5545 269.96 93.3761C270.057 93.3196 270.161 93.275 270.273 93.2297C270.155 93.2758 270.353 93.2009 270.379 93.1979C270.448 93.177 270.516 93.1561 270.586 93.1415C270.712 93.1139 270.838 93.0862 270.965 93.065C271.022 93.0583 271.08 93.0516 271.131 93.0457C271.15 93.0434 271.36 93.0189 271.271 93.0293C271.822 92.9846 272.381 93.0036 272.924 93.0569C273.153 93.0819 273.382 93.107 273.613 93.1448C273.639 93.1482 273.831 93.1841 273.685 93.1558C273.725 93.1641 273.765 93.1724 273.798 93.1814C273.884 93.1973 273.977 93.2188 274.064 93.2411C274.75 93.4135 275.087 92.365 274.401 92.1926C273.588 91.9832 272.724 91.8962 271.884 91.9035C270.921 91.9121 269.835 92.0256 269.068 92.6648C268.644 93.0183 268.414 93.5432 268.407 94.0939C268.392 94.8008 269.492 94.8603 269.507 94.1534L269.501 94.1542Z" fill="#9E9898"/>
<path d="M280.628 60.5819L276.636 58.4072C276.326 58.2364 275.934 58.3725 275.797 58.699C274.516 61.7465 268.752 75.3438 265.918 80.3837C265.918 80.3837 271.926 85.1054 277.449 88.8745C282.971 92.6436 280.628 60.5819 280.628 60.5819Z" fill="#EEEEEE"/>
<path d="M278.632 89.7008C278.241 89.7852 277.737 89.7403 277.14 89.3311C271.66 85.5895 265.874 80.8936 265.817 80.8485C265.61 80.6785 265.556 80.3872 265.684 80.1523C268.095 75.8669 272.41 65.4337 274.484 60.4177C274.822 59.5955 275.101 58.9355 275.282 58.4939C275.409 58.1944 275.654 57.9654 275.958 57.8587C276.263 57.7521 276.603 57.7837 276.892 57.9376L280.884 60.1123C281.05 60.203 281.153 60.372 281.169 60.5579C281.176 60.6217 281.648 67.2303 281.663 74.0216C281.69 88.0313 279.721 89.1664 279.072 89.5396C278.945 89.6126 278.791 89.6823 278.614 89.7158L278.632 89.7008ZM266.87 80.2795C268.211 81.3589 273.1 85.2406 277.759 88.4245C278.229 88.7449 278.442 88.6232 278.532 88.5673C281.017 87.1393 280.811 70.9831 280.098 60.9219L276.37 58.8912L276.301 58.9122C276.119 59.3475 275.846 60.0067 275.502 60.8296C273.484 65.7098 269.345 75.7148 266.869 80.2731L266.87 80.2795Z" fill="#2F0B3B"/>
<path d="M337.911 98.8475L279.411 66.8433C289.441 62.117 300.092 57.2795 311.124 58.3691C316.273 58.8822 321.196 60.6702 326.036 62.5197C350.815 71.9778 374.905 83.2371 398.065 96.1703L337.911 98.8475Z" fill="#3040B4"/>
<path d="M395.107 169.626C388.193 155.519 378.436 142.824 366.602 132.505L332.521 87.5517L290.805 67.3277L291.913 61.292C291.96 61.0277 291.825 60.7588 291.579 60.6451C288.009 59.0359 283.796 58.2973 279.875 58.0034C279.523 57.9797 279.208 58.217 279.131 58.5559C278.945 59.3474 278.831 60.2535 278.622 61.1254C277.935 64.0002 277.376 66.9184 276.96 69.8457C276.961 69.8585 276.963 69.8713 276.952 69.8855C276.141 75.589 275.912 82.7839 276.139 88.6188C276.143 88.8189 276.159 89.0175 276.163 89.2176L276.208 89.3224C276.612 93.1247 277.132 96.9264 277.751 100.743C280.03 114.594 285.397 126.073 293.054 137.79C304.042 154.612 316.719 170.28 330.117 185.25C335.105 190.821 340.214 196.314 345.873 201.199C349.691 204.494 358.331 213.651 363.443 209.233C370.52 203.136 377.26 196.645 383.636 189.808C386.828 186.396 389.919 182.891 392.917 179.308C395.834 175.817 397.34 174.199 395.093 169.622L395.107 169.626Z" fill="#3040B4"/>
<path d="M292.403 61.3906C292.475 60.2306 291.496 59.9888 290.582 59.6359C289.424 59.1885 288.231 58.8293 287.02 58.5369C285.801 58.2389 284.559 58.0084 283.315 57.8297C282.184 57.6639 280.839 57.3353 279.704 57.4739C278.645 57.6037 278.552 58.6367 278.394 59.5026C278.141 60.8778 277.8 62.2307 277.513 63.5969C276.984 66.1104 276.548 68.639 276.237 71.1855C275.621 76.2322 275.441 81.3447 275.534 86.4189C275.581 88.8783 275.867 91.2776 276.184 93.7249C276.542 96.5233 276.939 99.3172 277.437 102.093C279.299 112.479 283.232 122.308 288.491 131.426C293.935 140.858 300.419 149.769 307.032 158.405C313.744 167.166 320.841 175.63 328.166 183.879C331.821 187.995 335.518 192.087 339.436 195.959C342.455 198.945 345.641 201.764 348.822 204.583C351.418 206.881 354.242 209.308 357.566 210.467C358.928 210.943 360.448 211.167 361.853 210.738C363.801 210.142 365.314 208.362 366.791 207.045C375.172 199.593 383.068 191.589 390.41 183.106C391.961 181.315 393.551 179.532 394.987 177.65C395.885 176.472 396.663 175.158 396.733 173.643C396.822 171.691 395.855 169.883 395.005 168.19C393.845 165.899 392.619 163.641 391.313 161.425C386.122 152.617 379.799 144.471 372.538 137.275C370.747 135.497 368.905 133.784 367.005 132.129C366.479 131.666 365.659 132.408 366.199 132.876C373.608 139.35 380.224 146.731 385.805 154.834C388.583 158.864 391.116 163.066 393.374 167.409C394.3 169.19 395.585 171.176 395.64 173.252C395.684 174.748 394.885 175.993 394.003 177.137C390.89 181.174 387.394 184.972 383.929 188.707C380.32 192.595 376.603 196.385 372.761 200.048C370.863 201.861 368.937 203.644 366.987 205.398C365.975 206.312 364.948 207.214 363.921 208.11C363.251 208.693 362.618 209.31 361.768 209.616C358.808 210.692 355.464 208.415 353.202 206.758C350.585 204.837 348.263 202.558 345.822 200.423C341.875 196.968 338.186 193.225 334.621 189.377C327.482 181.669 320.614 173.683 314.017 165.51C307.349 157.242 300.989 148.725 295.096 139.882C289.477 131.453 284.451 122.619 281.294 112.946C279.694 108.041 278.638 103.02 277.87 97.9278C277.466 95.2382 277.113 92.5427 276.818 89.8405C276.583 87.7071 276.599 85.5121 276.611 83.3433C276.646 78.5843 276.917 73.8041 277.623 69.0961C278.036 66.3696 278.631 63.6996 279.21 61.0056C279.336 60.428 279.424 59.8485 279.538 59.2723C279.588 59.0336 279.585 58.6781 279.843 58.5575C280.039 58.4635 280.607 58.6174 280.829 58.6368C282.026 58.7498 283.214 58.9025 284.396 59.1078C285.63 59.3199 286.859 59.6037 288.064 59.955C288.546 60.093 291.326 60.7462 291.29 61.3325C291.244 62.0431 292.343 62.0963 292.39 61.3921L292.403 61.3906Z" fill="#2F0B3B"/>
<path d="M304.07 57.9484C298.461 61.0471 295.887 67.881 295.464 73.9663C294.996 80.7168 296.565 87.5858 299.787 93.5314C301.598 96.8721 303.94 99.9248 306.724 102.512C307.239 102.989 308.052 102.247 307.53 101.765C302.758 97.3323 299.341 91.5389 297.665 85.2517C296.055 79.209 295.847 72.4208 298.269 66.5621C299.546 63.4762 301.613 60.5636 304.578 58.9244C305.198 58.5805 304.683 57.6053 304.064 57.9492L304.07 57.9484Z" fill="#2F0B3B"/>
<path d="M279.161 73.4648C281.879 74.261 284.547 75.2312 287.143 76.3651C287.776 76.6407 288.404 76.9234 289.027 77.2196C289.589 77.4842 290.073 77.8095 290.132 78.4883C290.186 79.1161 290.034 79.813 289.985 80.4463C289.929 81.1839 289.878 81.9144 289.835 82.6506C289.498 88.2536 289.499 93.8754 289.847 99.4763C290.537 110.672 292.562 121.784 295.898 132.497C297.768 138.497 300.043 144.371 302.711 150.064C303.012 150.708 303.987 150.194 303.686 149.55C301.267 144.384 299.166 139.065 297.415 133.64C295.675 128.247 294.264 122.744 293.189 117.176C292.11 111.576 291.372 105.904 290.993 100.21C290.619 94.5536 290.585 88.8709 290.909 83.2112C290.99 81.7979 291.103 80.3808 291.217 78.9702C291.268 78.3561 291.18 77.7647 290.835 77.242C290.475 76.7082 289.979 76.4489 289.411 76.1787C286.851 74.9694 284.225 73.9165 281.536 73.0393C280.864 72.82 280.186 72.6078 279.51 72.4084C278.827 72.2098 278.49 73.2583 279.173 73.4569L279.161 73.4648Z" fill="#2F0B3B"/>
<path d="M282.64 74.1338C285.223 72.7719 287.715 71.2331 290.098 69.5387C290.6 69.1827 291.053 68.7935 291.282 68.204C291.52 67.5875 291.565 66.8641 291.664 66.2122C291.906 64.6766 292.147 63.1411 292.395 61.6048C292.508 60.906 291.402 60.8536 291.295 61.5453C291.075 62.9296 290.855 64.3138 290.634 65.6981C290.53 66.3572 290.492 67.0862 290.282 67.7253C290.09 68.2976 289.506 68.6178 289.033 68.9446C286.82 70.4898 284.507 71.8978 282.119 73.1593C281.491 73.4912 282.006 74.4664 282.633 74.1345L282.64 74.1338Z" fill="#2F0B3B"/>
<path d="M344.487 102.495C339.036 102.282 333.594 101.926 328.164 101.445C326.147 99.4549 323.161 97.59 321.973 97.0491C319.624 95.9834 317.15 95.34 314.67 94.7036C313.976 94.5256 313.256 94.3896 312.523 94.3196C310.705 94.1432 308.858 94.3907 307.36 95.529C305.037 97.294 303.125 100.085 301.839 102.706C300.683 103.281 299.639 104.03 298.826 104.991C297.871 106.118 297.689 108.721 299.258 109.425C299.449 109.512 299.65 109.567 299.855 109.607C298.576 111.51 299.462 114.395 301.71 114.709C301.498 114.999 301.323 115.33 301.214 115.724C300.903 116.828 300.992 117.924 301.854 118.775C302.102 119.018 302.39 119.21 302.71 119.348C303.112 119.527 303.562 119.617 304.038 119.646C303.696 120.656 303.82 121.826 304.602 122.602C305.531 123.522 307.111 123.545 308.328 123.494C313.396 123.305 321.137 122.19 326.116 121.183C326.305 121.142 326.474 121.09 326.628 121.026C333.403 122.275 340.172 123.531 346.946 124.78L344.493 102.487L344.487 102.495Z" fill="#EEEEEE"/>
<path d="M344.514 101.948C339.063 101.735 333.62 101.373 328.191 100.899C328.314 100.955 328.444 101.018 328.567 101.075C327.524 100.058 326.37 99.1504 325.168 98.3264C324.24 97.6904 323.282 97.071 322.262 96.5881C320.833 95.92 319.325 95.4162 317.814 94.9842C316.281 94.5416 314.72 94.0764 313.134 93.847C311.549 93.6176 309.895 93.6873 308.396 94.3083C306.995 94.8855 305.828 96.0306 304.84 97.1549C303.824 98.3148 302.936 99.5763 302.167 100.914C301.984 101.227 301.814 101.551 301.645 101.875C301.582 101.998 301.528 102.199 301.442 102.293C301.338 102.402 301.108 102.481 300.968 102.555C300.338 102.92 299.728 103.346 299.19 103.836C298.178 104.756 297.52 105.881 297.548 107.288C297.574 108.676 298.278 109.836 299.691 110.137C299.594 109.864 299.491 109.591 299.395 109.318C297.975 111.514 298.93 114.826 301.684 115.262C301.542 114.981 301.393 114.701 301.249 114.413C300.501 115.484 300.259 116.961 300.783 118.181C301.341 119.481 302.668 120.103 304.012 120.199C303.848 119.959 303.684 119.719 303.514 119.48C302.947 121.274 303.684 123.155 305.521 123.775C307.003 124.276 308.703 124.052 310.237 123.944C313.925 123.683 317.607 123.202 321.259 122.622C322.218 122.471 323.182 122.307 324.138 122.131C325.05 121.967 326.02 121.86 326.886 121.52C326.746 121.536 326.605 121.546 326.457 121.557C333.232 122.806 340.001 124.062 346.776 125.311C347.205 125.39 347.529 125.113 347.483 124.666C347.204 122.162 346.931 119.651 346.653 117.148C346.212 113.136 345.77 109.125 345.33 105.12C345.223 104.207 345.129 103.286 345.029 102.373C344.947 101.671 343.876 101.912 343.957 102.608C344.236 105.111 344.509 107.622 344.787 110.126L346.11 122.154C346.217 123.066 346.311 123.987 346.411 124.901C346.645 124.686 346.885 124.47 347.118 124.255C343.674 123.615 340.224 122.981 336.78 122.341C335.074 122.022 333.363 121.71 331.657 121.391C330.792 121.233 329.919 121.07 329.053 120.912C328.663 120.841 328.274 120.77 327.884 120.699C327.487 120.622 326.994 120.446 326.591 120.481C326.309 120.507 325.996 120.647 325.711 120.699C325.407 120.761 325.104 120.822 324.8 120.877C324.167 120.996 323.54 121.108 322.906 121.22C321.556 121.455 320.203 121.671 318.849 121.867C316.101 122.265 313.335 122.613 310.564 122.813C309.256 122.907 307.89 123.066 306.582 122.882C305.944 122.794 305.284 122.567 304.868 122.053C304.354 121.414 304.338 120.555 304.574 119.803C304.683 119.461 304.435 119.108 304.076 119.085C303.111 119.016 302.152 118.61 301.762 117.653C301.415 116.781 301.668 115.736 302.183 114.99C302.444 114.617 302.131 114.207 301.748 114.142C299.797 113.832 299.402 111.322 300.328 109.888C300.503 109.616 300.383 109.144 300.032 109.069C299.322 108.919 298.88 108.563 298.718 107.837C298.58 107.213 298.662 106.524 298.903 105.933C299.18 105.254 299.785 104.731 300.347 104.277C300.69 104.004 301.05 103.762 301.426 103.543C301.601 103.439 301.784 103.346 301.967 103.247C302.222 103.108 302.316 102.974 302.448 102.713C303.294 101.036 304.308 99.4165 305.546 97.9978C306.808 96.557 308.246 95.2444 310.192 94.9078C312.177 94.5667 314.135 95.1085 316.043 95.6109C317.951 96.1132 319.854 96.6745 321.656 97.4868C322.932 98.0628 324.121 98.8818 325.251 99.7012C325.972 100.225 326.677 100.784 327.336 101.393C327.495 101.536 327.646 101.719 327.823 101.847C328.028 101.998 328.26 101.99 328.501 102.008C329.037 102.055 329.579 102.102 330.114 102.143C334.894 102.538 339.676 102.835 344.472 103.027C345.18 103.054 345.239 101.954 344.531 101.926L344.514 101.948Z" fill="#2F0B3B"/>
<path d="M302.033 103.201C305.775 102.015 309.716 101.259 313.649 101.266C314.354 101.268 314.414 100.168 313.709 100.166C309.679 100.163 305.634 100.912 301.798 102.129C301.131 102.343 301.36 103.422 302.033 103.201Z" fill="#2F0B3B"/>
<path d="M348.559 109.751C348.026 108.338 347.42 106.96 346.739 105.616C346.159 104.467 345.5 102.693 344.573 101.792C343.662 100.908 343.109 100.546 341.892 100.202C340.421 99.7914 340.132 99.812 338.624 99.5737C337.114 99.329 333.025 99.0935 331.504 99.0249C331.348 99.0172 330.782 98.9925 330.106 98.9676C328.801 98.9191 328.01 100.402 328.779 101.451C329.632 102.613 330.511 103.773 331.168 105.081C332.343 107.402 333.231 109.854 333.892 112.371C334.519 114.75 334.95 117.178 335.254 119.62C335.405 120.806 335.524 121.996 335.625 123.194C335.71 124.206 335.52 125.736 335.92 126.672C336.527 128.109 339.73 128.622 341.092 129.04C342.676 129.534 344.283 129.955 345.907 130.297C347.088 130.547 348.812 131.414 349.766 130.326C350.171 129.865 350.366 129.26 350.509 128.661C351.054 126.45 350.803 124.46 350.7 122.24C350.61 120.252 351.051 118.596 350.514 116.647C349.875 114.327 349.412 112.02 348.554 109.758L348.559 109.751Z" fill="#EEEEEE"/>
<path d="M349.04 109.494C348.415 107.846 347.637 106.274 346.895 104.679C346.291 103.377 345.706 102.074 344.621 101.094C342.793 99.4438 340.128 99.1654 337.764 98.9102C335.484 98.6646 333.18 98.5383 330.886 98.4432C330.171 98.4164 329.484 98.3476 328.861 98.7696C328.327 99.1293 327.981 99.7131 327.92 100.354C327.852 101.106 328.233 101.65 328.656 102.229C329.187 102.956 329.718 103.684 330.183 104.458C332.085 107.626 333.178 111.348 333.92 114.943C334.313 116.819 334.599 118.72 334.815 120.629C334.92 121.529 335.025 122.435 335.079 123.341C335.121 124.087 335.071 124.83 335.126 125.574C335.172 126.196 335.285 126.83 335.673 127.335C336.001 127.762 336.477 128.069 336.957 128.305C338.035 128.839 339.217 129.102 340.371 129.408C341.939 129.82 343.477 130.314 345.059 130.673C345.79 130.841 346.493 131.05 347.218 131.224C347.884 131.386 348.597 131.51 349.262 131.284C350.769 130.778 351.097 128.825 351.275 127.465C351.494 125.79 351.324 124.108 351.245 122.429C351.169 120.775 351.455 119.118 351.231 117.475C351.109 116.596 350.821 115.731 350.604 114.87C350.367 113.946 350.143 113.021 349.881 112.107C349.63 111.224 349.347 110.351 349.027 109.489C348.781 108.826 347.807 109.347 348.052 110.004C348.672 111.666 349.087 113.39 349.526 115.105C349.73 115.916 349.999 116.726 350.134 117.551C350.251 118.281 350.228 119.028 350.198 119.769C350.123 121.35 350.193 122.894 350.261 124.472C350.322 125.998 350.298 127.572 349.822 129.038C349.622 129.65 349.292 130.258 348.579 130.302C347.95 130.343 347.314 130.107 346.719 129.937C345.213 129.497 343.66 129.219 342.154 128.78C341.049 128.456 339.931 128.185 338.837 127.846C338.039 127.603 336.758 127.26 336.399 126.403C336.147 125.792 336.196 125.048 336.198 124.401C336.199 123.683 336.155 122.976 336.091 122.259C335.925 120.5 335.714 118.745 335.427 116.999C334.86 113.578 333.995 110.199 332.651 106.991C332.006 105.449 331.252 103.977 330.284 102.608C330.067 102.297 329.843 101.987 329.613 101.677C329.413 101.403 329.134 101.112 329.042 100.773C328.912 100.265 329.223 99.7172 329.716 99.5564C330.221 99.394 330.91 99.5402 331.437 99.5693C331.86 99.5912 332.283 99.6131 332.706 99.6351C333.891 99.7041 335.084 99.7787 336.265 99.874C337.31 99.9593 338.341 100.092 339.374 100.243C340.506 100.409 341.717 100.591 342.753 101.105C343.851 101.643 344.637 102.619 345.188 103.681C345.87 104.986 346.499 106.336 347.096 107.683C347.438 108.452 347.761 109.229 348.06 110.016C348.312 110.679 349.286 110.158 349.035 109.502L349.04 109.494Z" fill="#2F0B3B"/>
<path d="M398.065 96.1707C403.862 99.4096 408.995 103.004 411.493 109.403C412.96 113.165 413.071 117.338 412.626 121.356C412.129 125.806 410.912 130.296 408.211 133.871C404.692 138.525 398.98 141.131 393.217 142.009C387.453 142.887 381.567 142.214 375.797 141.379C366.094 139.973 355.333 137.868 345.802 135.556C345.802 135.556 350.899 111.795 337.918 98.8472L398.071 96.17L398.065 96.1707Z" fill="#3040B4"/>
<path d="M376.35 141.961C382.408 142.996 388.516 143.52 394.598 142.321C400.256 141.202 405.792 138.371 409.128 133.525C410.804 131.091 411.861 128.277 412.503 125.407C413.188 122.345 413.526 119.142 413.367 116.003C413.208 112.8 412.456 109.672 410.911 106.85C409.612 104.472 407.825 102.403 405.765 100.65C403.684 98.8871 401.379 97.4153 399.017 96.073C396.114 94.4184 393.174 92.8265 390.228 91.248C384.254 88.0427 378.221 84.9476 372.131 81.9628C366.088 79.0048 359.993 76.1499 353.848 73.4173C347.688 70.6735 341.47 68.0399 335.214 65.5209C332.072 64.2564 328.921 63.0254 325.754 61.8221C322.668 60.6482 319.555 59.5163 316.346 58.732C313.131 57.9484 309.852 57.5603 306.543 57.6934C303.151 57.8297 299.801 58.4462 296.538 59.3631C294.91 59.818 293.297 60.3552 291.709 60.9348C291.051 61.1731 291.281 62.2527 291.944 62.0073C298.248 59.714 304.946 58.19 311.68 58.9842C318.093 59.7383 324.188 62.3668 330.151 64.7001C342.423 69.5011 354.527 74.7486 366.422 80.428C372.36 83.2624 378.252 86.2056 384.084 89.2464C387.031 90.7858 389.962 92.3529 392.883 93.9407C395.528 95.3859 398.209 96.801 400.769 98.3985C405.352 101.268 409.443 105.022 411.225 110.269C412.305 113.436 412.461 116.827 412.187 120.139C411.949 123.039 411.421 125.947 410.4 128.68C409.379 131.406 407.812 133.885 405.655 135.857C403.54 137.799 400.976 139.223 398.275 140.184C392.803 142.128 386.804 142.264 381.097 141.57C379.529 141.378 377.967 141.132 376.41 140.867C375.711 140.748 375.664 141.847 376.351 141.968L376.35 141.961Z" fill="#2F0B3B"/>
<path d="M341.099 129.33C341.746 131.163 342.393 133.054 343.583 134.61C344.201 135.418 344.976 136.014 345.94 136.354C347.175 136.793 348.542 136.925 349.831 137.163C355.481 138.194 361.136 139.217 366.791 140.234C369.975 140.808 373.166 141.387 376.357 141.96C376.654 142.016 376.916 141.707 376.936 141.44C376.957 141.114 376.707 140.917 376.416 140.86C370.94 139.874 365.47 138.887 359.999 137.894C357.29 137.407 354.588 136.913 351.879 136.42C350.557 136.179 349.23 135.945 347.907 135.698C346.863 135.503 345.771 135.287 344.976 134.519C343.512 133.105 342.835 130.958 342.177 129.088C341.945 128.429 340.866 128.658 341.105 129.322L341.099 129.33Z" fill="#2F0B3B"/>
<path d="M394.454 99.1531C387.887 99.1286 381.324 99.0906 374.759 99.0272C368.925 98.969 363.088 98.8854 357.255 98.7819C354.144 98.7237 351.032 98.6655 347.92 98.5945C346.234 98.5579 344.548 98.5214 342.862 98.4848C341.961 98.4668 341.059 98.4425 340.158 98.4245C339.743 98.4146 339.322 98.4054 338.907 98.3956C338.511 98.3834 338.114 98.3649 337.866 98.7303C337.407 99.4047 338.262 100.023 338.657 100.469C339.163 101.044 339.64 101.642 340.094 102.262C340.964 103.454 341.726 104.724 342.391 106.044C343.679 108.605 344.58 111.347 345.191 114.148C346.25 119.019 346.442 124.062 346.083 129.028C346.047 129.497 346.011 129.967 345.969 130.438C345.903 131.145 347.002 131.198 347.069 130.498C347.503 125.834 347.462 121.097 346.741 116.465C345.867 110.847 343.917 105.317 340.372 100.813C340.144 100.522 339.903 100.233 339.663 99.9507C339.461 99.7154 339.182 99.2627 338.913 99.113C338.898 99.0953 338.876 99.0784 338.861 99.0607C338.568 99.3731 338.533 99.5195 338.764 99.4991C338.825 99.5243 338.964 99.5016 339.036 99.5062C339.276 99.5106 339.516 99.515 339.756 99.5258C340.198 99.5391 340.638 99.546 341.079 99.5593C342.772 99.6016 344.471 99.6366 346.163 99.6725C349.276 99.7434 352.388 99.808 355.505 99.8655C361.274 99.9764 367.047 100.061 372.816 100.12C379.117 100.189 385.414 100.225 391.711 100.255C392.61 100.261 393.504 100.267 394.403 100.265C395.108 100.267 395.167 99.1671 394.462 99.1651L394.454 99.1531Z" fill="#2F0B3B"/>
<path d="M374.429 99.9712C375.852 98.4728 377.318 97.0082 378.933 95.7138C380.541 94.4202 382.28 93.3055 384.052 92.2452C384.656 91.8837 384.148 90.9077 383.537 91.27C381.723 92.3546 379.942 93.5001 378.286 94.8252C376.635 96.1432 375.133 97.6314 373.682 99.1654C373.198 99.6747 373.939 100.488 374.429 99.9712Z" fill="#2F0B3B"/>
<path d="M359.282 138.178C360.15 137.029 360.597 135.644 360.994 134.278C361.415 132.838 361.756 131.375 362.023 129.895C362.564 126.933 362.781 123.913 362.631 120.902C362.365 115.557 360.9 110.313 358.328 105.612C356.974 103.143 355.295 100.783 353.152 98.9296C352.621 98.474 351.808 99.2156 352.347 99.6769C356.058 102.887 358.471 107.562 359.953 112.176C361.635 117.402 361.952 122.955 361.161 128.378C360.925 130.016 360.576 131.635 360.141 133.226C359.728 134.736 359.304 136.319 358.346 137.588C357.921 138.155 358.85 138.746 359.275 138.179L359.282 138.178Z" fill="#2F0B3B"/>
<path d="M40.1933 380.157C69.1783 369.639 98.5348 360.145 128.134 351.516C157.871 342.845 187.849 335.026 217.979 327.836C247.976 320.681 278.122 314.136 308.346 307.976C338.569 301.817 368.895 296.034 399.231 290.405C429.536 284.78 459.865 279.3 490.177 273.739C493.907 273.052 497.63 272.366 501.359 271.68C503.379 271.309 503.027 268.115 500.988 268.488C470.539 274.104 440.065 279.607 409.616 285.223C379.168 290.839 348.95 296.545 318.703 302.617C288.457 308.688 257.994 315.179 227.811 322.24C197.81 329.253 167.948 336.852 138.311 345.265C108.51 353.724 78.9355 363.01 49.7274 373.334C46.1429 374.599 42.5607 375.883 38.9863 377.179C37.0441 377.884 38.2511 380.862 40.1933 380.157Z" fill="#DB1B77"/>
</svg>
