<svg width="475" height="329" viewBox="0 0 475 329" fill="none" xmlns="http://www.w3.org/2000/svg">
<path d="M72.9481 310.05L363.582 280.516L361.565 274.135C360.787 271.674 358.385 270.099 355.821 270.357L295.094 276.526L281.417 233.323C280.64 230.862 278.237 229.287 275.674 229.544L178.259 239.441L160.624 183.727C159.847 181.265 157.445 179.691 154.881 179.948L40.3457 191.586C37.9045 191.836 36.3113 194.265 37.0501 196.604L72.9545 310.044L72.9481 310.05Z" fill="#EEEEEE"/>
<path d="M72.3895 310.102L73.5073 309.986L37.5644 196.437C37.2624 195.48 37.4038 194.452 37.9562 193.61C38.5087 192.768 39.3952 192.235 40.391 192.132L154.927 180.494C157.22 180.263 159.398 181.689 160.092 183.887L177.726 239.601C177.803 239.852 178.047 240.013 178.304 239.98L275.719 230.084C278.013 229.853 280.191 231.28 280.884 233.477L294.561 276.68C294.638 276.93 294.883 277.091 295.14 277.059L355.867 270.89C358.16 270.659 360.338 272.085 361.032 274.283L363.017 280.555L364.135 280.439L362.079 273.949C361.224 271.256 358.565 269.502 355.751 269.791L295.467 275.915L281.925 233.137C281.071 230.444 278.411 228.69 275.597 228.979L178.625 238.83L161.126 183.54C160.272 180.841 157.612 179.093 154.798 179.383L40.2625 191.02C38.9327 191.155 37.7507 191.875 37.0183 192.993C36.286 194.111 36.0932 195.48 36.498 196.752L72.3703 310.082L72.3895 310.102Z" fill="#2F0B3B"/>
<path d="M161.845 188.533L38.3413 201.083C38.0394 201.116 37.7696 200.891 37.7374 200.589C37.7053 200.287 37.9302 200.017 38.2321 199.985L161.736 187.434C162.038 187.402 162.308 187.627 162.34 187.929C162.372 188.231 162.147 188.501 161.845 188.533Z" fill="#2F0B3B"/>
<path d="M282.362 236.671L182.473 246.818C181.073 246.959 179.749 246.085 179.338 244.736L177.732 239.608C177.642 239.319 177.803 239.01 178.092 238.92C178.381 238.83 178.689 238.991 178.779 239.28L180.385 244.408C180.642 245.263 181.471 245.809 182.357 245.719L282.246 235.572C282.548 235.54 282.818 235.765 282.85 236.067C282.882 236.369 282.657 236.639 282.355 236.671H282.362Z" fill="#2F0B3B"/>
<path d="M80.2975 110.649L90.2035 122.036C90.287 122.133 90.4091 122.177 90.5312 122.165L105.525 120.462C107.574 120.23 109.001 122.447 107.941 124.215L100.174 137.157C100.11 137.266 100.103 137.394 100.154 137.51L106.405 151.249C107.26 153.125 105.589 155.169 103.585 154.706L88.8802 151.313C88.7581 151.288 88.6296 151.313 88.5397 151.403L77.4131 161.595C75.8906 162.989 73.4366 162.032 73.2567 159.976L71.9333 144.939C71.9205 144.817 71.8498 144.701 71.7406 144.643L58.6097 137.208C56.8174 136.193 56.9651 133.558 58.8602 132.755L72.7492 126.849C72.8648 126.798 72.9483 126.695 72.974 126.573L75.9869 111.78C76.3981 109.762 78.9485 109.088 80.2975 110.643V110.649Z" fill="#DB1B77"/>
<path d="M76.038 162.784C75.5691 162.829 75.0872 162.771 74.6247 162.591C73.539 162.167 72.8003 161.184 72.6975 160.027L71.3869 145.08L58.3331 137.69C57.3181 137.118 56.7335 136.039 56.7978 134.875C56.862 133.712 57.5687 132.703 58.6415 132.254L72.4469 126.387L75.4406 111.684C75.6718 110.54 76.5198 109.647 77.644 109.351C78.7683 109.055 79.9439 109.415 80.7083 110.296L90.5501 121.618L105.454 119.922C105.454 119.922 105.48 119.922 105.493 119.922C106.636 119.806 107.728 120.333 108.351 121.304C108.981 122.28 109 123.514 108.403 124.51L100.681 137.375L106.899 151.031C107.381 152.091 107.227 153.312 106.488 154.212C105.75 155.111 104.587 155.51 103.456 155.253L88.8413 151.885L77.779 162.019C77.2843 162.475 76.674 162.739 76.038 162.803V162.784ZM78.2415 110.354C78.1387 110.366 78.0295 110.386 77.9267 110.411C77.2008 110.604 76.674 111.157 76.5198 111.896L73.5069 126.689C73.4491 126.991 73.2435 127.241 72.9609 127.357L59.0719 133.256C58.3781 133.552 57.9413 134.175 57.8963 134.927C57.8513 135.679 58.2175 136.353 58.8728 136.72L72.0037 144.155C72.2735 144.309 72.4469 144.579 72.4726 144.881L73.796 159.918C73.8602 160.67 74.3228 161.28 75.023 161.557C75.7232 161.826 76.4749 161.691 77.0338 161.177L88.1603 150.986C88.3852 150.78 88.7 150.696 88.9955 150.767L103.7 154.16C104.433 154.327 105.159 154.083 105.634 153.498C106.109 152.913 106.212 152.155 105.897 151.468L99.6467 137.729C99.5182 137.452 99.5375 137.125 99.6981 136.861L107.465 123.919C107.85 123.27 107.844 122.505 107.433 121.876C107.028 121.239 106.328 120.931 105.583 121.002L90.5886 122.704C90.2996 122.749 89.9848 122.621 89.7792 122.39L79.8732 111.003C79.4492 110.514 78.8518 110.283 78.2351 110.341L78.2415 110.354Z" fill="#2F0B3B"/>
<path d="M54.8643 110.533C57.3248 112.808 59.6824 115.186 61.9244 117.666C62.3227 118.11 62.9459 118.283 63.4598 117.904C63.9031 117.583 64.1022 116.812 63.6975 116.368C61.327 113.746 58.8408 111.227 56.2455 108.824C55.8087 108.419 55.057 108.541 54.6973 108.978C54.299 109.467 54.4146 110.122 54.8515 110.527L54.8643 110.533Z" fill="#2F0B3B"/>
<path d="M95.5997 109.525C97.1929 107.115 98.7861 104.699 100.386 102.289C100.7 101.807 100.739 101.119 100.232 100.74C99.7947 100.412 99.0238 100.387 98.6833 100.894C97.0901 103.304 95.497 105.72 93.8974 108.13C93.5826 108.612 93.544 109.3 94.0515 109.679C94.4884 110.007 95.2593 110.032 95.5997 109.525Z" fill="#2F0B3B"/>
<path d="M99.2101 111.131C100.829 109.839 102.364 108.451 103.823 106.98C104.227 106.569 104.112 105.765 103.668 105.431C103.154 105.046 102.551 105.148 102.12 105.585C101.786 105.926 101.439 106.26 101.092 106.594C101.009 106.671 101.035 106.652 101.099 106.588C101.054 106.633 101.009 106.671 100.97 106.71C100.88 106.794 100.797 106.871 100.707 106.954C100.521 107.128 100.334 107.301 100.142 107.468C99.4157 108.117 98.6705 108.747 97.9124 109.351C97.4627 109.711 97.2893 110.411 97.6747 110.887C98.0345 111.337 98.7283 111.51 99.2101 111.125V111.131Z" fill="#2F0B3B"/>
<path d="M55.4743 160.008C58.378 157.084 61.2817 154.16 64.1854 151.23C64.603 150.806 64.4552 150.028 64.0312 149.681C63.5301 149.276 62.9006 149.418 62.483 149.836C59.5793 152.759 56.6756 155.683 53.7719 158.614C53.3543 159.038 53.5021 159.815 53.9261 160.162C54.4272 160.567 55.0567 160.426 55.4743 160.008Z" fill="#2F0B3B"/>
<path d="M108.827 142.368C111.345 143.024 113.837 143.743 116.317 144.534C116.882 144.714 117.506 144.572 117.775 143.988C118 143.499 117.801 142.709 117.229 142.529C114.57 141.681 111.891 140.897 109.193 140.196C108.615 140.048 108.017 140.55 107.921 141.096C107.812 141.726 108.242 142.214 108.82 142.368H108.827Z" fill="#2F0B3B"/>
<path d="M204.45 87.0588C199.272 88.2798 194.12 90.7602 189.116 92.5852C188.524 92.8037 187.901 93.0351 187.503 93.5234C186.848 94.3267 187.105 95.5027 187.792 96.3059C186.931 96.9614 186.083 97.6554 185.229 98.3944C183.764 99.6604 183.302 100.836 183.713 102.597L183.7 102.61C183.764 102.97 183.886 103.31 184.028 103.645C184.297 104.39 184.644 105.052 185.094 105.579C186.077 107.095 187.972 108.94 189.919 108.091C190.208 107.969 190.49 107.821 190.767 107.674C191.409 108.599 192.861 109.12 194.12 108.985C194.557 108.94 195.039 108.74 195.507 108.47C196.355 109.897 199.401 109.878 200.525 109.049C200.621 108.978 200.737 108.888 200.852 108.798C200.987 109.184 201.328 109.473 201.996 109.557C203.171 109.711 204.334 109.441 205.343 108.817C206.486 108.111 207.623 107.115 208.214 105.9C208.446 105.418 208.555 104.859 208.478 104.351C210.54 103.362 212.39 102.006 213.739 100.258C214.06 99.8403 214.317 99.4354 214.529 99.037C216.579 98.78 218.801 98.3366 220.472 97.8418C222.996 97.0899 224.602 94.2175 224.333 91.647C223.459 83.1967 209.782 85.7929 204.456 87.046L204.45 87.0588Z" fill="#EEEEEE"/>
<path d="M204.392 86.5129C201.354 87.2326 198.431 88.3186 195.54 89.4689C194.107 90.0408 192.681 90.6256 191.242 91.1847C190.523 91.4674 189.803 91.7437 189.077 92.0072C188.46 92.2321 187.818 92.4634 187.33 92.9133C186.225 93.9286 186.475 95.548 187.349 96.6275C187.388 96.3705 187.426 96.1134 187.471 95.8564C186.739 96.4219 186.019 97.0002 185.313 97.5979C184.767 98.0606 184.208 98.5361 183.79 99.1273C183.038 100.188 182.891 101.396 183.167 102.649C183.244 102.482 183.315 102.315 183.392 102.148C183.392 102.148 183.379 102.154 183.379 102.16C183.231 102.263 183.116 102.482 183.154 102.662C183.552 104.57 184.741 106.408 186.199 107.687C186.861 108.265 187.657 108.754 188.531 108.901C189.514 109.068 190.381 108.689 191.236 108.239C191.024 108.175 190.805 108.111 190.593 108.053C191.184 108.863 192.084 109.377 193.054 109.583C194.088 109.801 195.109 109.557 196.022 109.062C195.81 108.998 195.591 108.933 195.379 108.876C195.977 109.827 197.159 110.232 198.225 110.289C199.388 110.354 200.384 110.071 201.302 109.364C201.026 109.28 200.743 109.203 200.467 109.12C200.801 110 201.681 110.142 202.523 110.161C203.666 110.187 204.758 109.84 205.722 109.242C207.354 108.227 209.287 106.427 209.018 104.313C208.902 104.506 208.786 104.692 208.671 104.885C211.227 103.651 213.649 101.833 215.024 99.2879C214.876 99.3972 214.729 99.5 214.581 99.6092C216.54 99.3586 218.5 98.9988 220.401 98.459C221.969 98.0091 223.202 96.981 224.012 95.5737C225.296 93.3374 225.2 90.3364 223.607 88.2801C222.322 86.6157 220.273 85.8124 218.262 85.4462C215.936 85.022 213.521 85.0992 211.176 85.3433C208.889 85.5811 206.628 86.0052 204.392 86.5322C204.103 86.6029 203.872 86.8149 203.898 87.1362C203.923 87.4061 204.212 87.6953 204.501 87.631C206.641 87.1298 208.812 86.7185 210.996 86.4743C213.45 86.198 215.988 86.0952 218.423 86.6029C220.44 87.027 222.489 88.0037 223.337 90.0022C224.564 92.8811 223.151 96.5311 220.054 97.4179C218.917 97.7457 217.754 97.9899 216.592 98.1955C215.988 98.3047 215.384 98.3947 214.78 98.4782C214.523 98.5104 214.266 98.5168 214.086 98.7224C213.894 98.9409 213.765 99.2815 213.598 99.5257C212.287 101.441 210.335 102.861 208.26 103.863C208.041 103.966 207.881 104.178 207.913 104.435C208.112 105.997 206.589 107.333 205.427 108.124C204.746 108.586 204.013 108.94 203.191 109.043C202.761 109.094 201.675 109.255 201.482 108.741C201.36 108.413 200.93 108.278 200.647 108.496C199.96 109.023 199.272 109.255 198.399 109.223C197.602 109.191 196.703 108.959 196.253 108.246C196.137 108.06 195.81 107.95 195.61 108.06C194.904 108.445 194.171 108.689 193.362 108.548C192.617 108.419 191.917 108.04 191.467 107.423C191.338 107.243 191.036 107.121 190.824 107.237C190.163 107.584 189.475 107.97 188.705 107.841C187.972 107.719 187.33 107.263 186.784 106.774C186.238 106.28 185.846 105.688 185.396 105.116C184.844 104.41 184.413 103.458 184.233 102.578C184.156 102.745 184.086 102.912 184.008 103.079C184.008 103.079 184.021 103.073 184.021 103.066C184.163 102.964 184.285 102.745 184.246 102.565C184.008 101.505 184.079 100.535 184.767 99.6606C185.178 99.1337 185.704 98.716 186.212 98.2855C186.829 97.7649 187.458 97.2637 188.101 96.7689C188.325 96.5954 188.415 96.2355 188.223 95.9978C187.805 95.4901 187.458 94.7447 187.779 94.0957C188.107 93.4338 188.987 93.2281 189.623 92.9904C191.248 92.3928 192.855 91.7373 194.461 91.0947C197.743 89.7709 201.045 88.4407 204.495 87.6182C204.784 87.5475 205.015 87.3419 204.99 87.0141C204.964 86.7507 204.675 86.4551 204.386 86.5193L204.392 86.5129Z" fill="#2F0B3B"/>
<path d="M186.649 112.866C186.649 111.883 186.681 111.073 186.822 110.013C186.893 109.493 186.989 108.972 187.105 108.458C187.233 107.918 187.304 107.661 187.477 107.192C187.632 106.774 187.805 106.369 187.998 105.971C188.094 105.772 188.197 105.579 188.306 105.386C188.306 105.393 188.492 105.065 188.435 105.168C188.364 105.283 188.557 104.981 188.576 104.956C188.82 104.589 189.09 104.242 189.379 103.908C189.54 103.722 189.707 103.548 189.88 103.375C189.771 103.484 189.88 103.375 189.931 103.336C190.041 103.24 190.156 103.144 190.265 103.054C190.856 102.572 191.101 101.646 190.587 101.004C190.111 100.412 189.173 100.162 188.537 100.682C184.792 103.741 183.7 108.535 183.732 113.168C183.732 113.939 184.606 114.588 185.338 114.479C186.186 114.357 186.655 113.695 186.649 112.873V112.866Z" fill="#2F0B3B"/>
<path d="M191.351 108.169C192.469 107.211 193.587 106.247 194.711 105.29C195.597 104.538 196.523 103.754 197.03 102.681C197.48 101.723 197.428 100.586 196.625 99.8278C195.803 99.0502 194.589 99.1787 193.58 99.4358C192.334 99.7571 191.165 100.368 190.06 101.023C189.45 101.383 190.105 102.276 190.709 101.91C191.505 101.434 192.34 101.01 193.214 100.695C193.921 100.445 194.987 100.078 195.7 100.503C196.42 100.927 196.259 101.807 195.919 102.424C195.463 103.253 194.679 103.87 193.972 104.474C192.88 105.406 191.788 106.344 190.696 107.282C190.163 107.738 190.805 108.632 191.345 108.169H191.351Z" fill="#2F0B3B"/>
<path d="M196.143 108.991C197.139 108.207 198.109 107.385 199.034 106.524C199.863 105.753 200.672 104.859 200.878 103.709C201.058 102.694 200.743 101.569 199.85 100.991C198.938 100.406 197.801 100.535 196.818 100.862C196.143 101.087 196.542 102.115 197.216 101.891C197.878 101.672 198.79 101.499 199.375 102.006C199.927 102.482 199.927 103.356 199.664 103.985C199.31 104.827 198.604 105.463 197.936 106.061C197.145 106.768 196.33 107.456 195.501 108.117C194.948 108.554 195.591 109.448 196.15 109.004L196.143 108.991Z" fill="#2F0B3B"/>
<path d="M201.321 109.357C202.086 108.471 202.863 107.584 203.621 106.691C204.321 105.868 204.944 104.956 204.951 103.837C204.957 102.809 204.289 101.935 203.332 101.601C202.278 101.235 201.18 101.524 200.21 101.993C199.574 102.302 199.966 103.33 200.608 103.021C201.321 102.674 202.176 102.347 202.966 102.642C203.711 102.919 203.981 103.613 203.782 104.364C203.57 105.193 202.889 105.849 202.349 106.479C201.719 107.211 201.09 107.937 200.46 108.67C199.998 109.21 200.852 109.904 201.315 109.364L201.321 109.357Z" fill="#2F0B3B"/>
<path d="M187.708 96.9617C190.631 98.3368 193.966 97.585 196.972 96.8845C197.602 96.7367 198.212 96.5697 198.822 96.3512C199.426 96.1327 200.043 95.8885 200.679 95.7857C201.366 95.67 201.97 95.8628 202.645 95.9977C203.403 96.1455 204.167 96.2612 204.938 96.3448C206.724 96.5375 208.529 96.5504 210.315 96.3769C211.022 96.3062 210.912 95.2138 210.206 95.2845C208.657 95.4387 207.103 95.4451 205.548 95.3037C204.777 95.233 204.013 95.1302 203.255 94.9953C202.58 94.8732 201.893 94.6483 201.206 94.6418C200.004 94.6418 198.861 95.2138 197.736 95.5672C196.285 96.0235 194.736 96.2612 193.233 96.4733C191.473 96.7239 189.809 96.7303 188.177 95.9656C187.535 95.6636 187.079 96.6661 187.721 96.9681L187.708 96.9617Z" fill="#2F0B3B"/>
<path d="M216.309 106.781L168.083 116.105C163.599 116.973 160.901 121.593 162.353 125.924L175.548 165.387C176.705 168.837 180.244 170.887 183.81 170.174L236.796 159.577L216.316 106.781H216.309Z" fill="#2F0B3B"/>
<path d="M183.174 170.823C179.602 171.183 176.178 169.024 175.021 165.554L161.826 126.091C161.088 123.874 161.338 121.445 162.514 119.427C163.689 117.41 165.681 115.996 167.974 115.553L216.2 106.228C216.457 106.177 216.72 106.318 216.817 106.569L237.297 159.365C237.355 159.52 237.342 159.687 237.265 159.828C237.188 159.97 237.046 160.072 236.892 160.104L183.906 170.701C183.662 170.752 183.411 170.785 183.167 170.81L183.174 170.823ZM215.962 107.411L168.186 116.645C166.201 117.031 164.486 118.245 163.464 119.993C162.449 121.734 162.231 123.836 162.867 125.751L176.062 165.213C177.129 168.394 180.405 170.296 183.694 169.641L236.038 159.173L215.962 107.417V107.411Z" fill="#2F0B3B"/>
<path d="M168.572 116.671C170.152 117.371 171.077 118.907 171.797 120.404C172.735 122.345 173.563 124.35 174.398 126.335C176.152 130.5 177.797 134.715 179.319 138.969C179.692 140.004 179.981 141.115 180.431 142.118C180.771 142.883 181.555 143.352 182.39 143.287C182.943 143.249 183.501 143.095 184.048 142.998C184.619 142.895 185.185 142.793 185.756 142.69C186.893 142.484 188.037 142.279 189.174 142.073C193.735 141.244 198.29 140.409 202.844 139.56C207.997 138.596 213.149 137.62 218.295 136.63C218.982 136.495 218.879 135.403 218.185 135.538C209.147 137.279 200.101 138.976 191.043 140.627C188.827 141.032 186.604 141.43 184.388 141.829C183.816 141.932 183.251 142.034 182.679 142.137C182.281 142.208 181.889 142.259 181.587 141.925C181.292 141.597 181.208 141.013 181.06 140.601C180.868 140.042 180.668 139.477 180.469 138.918C178.972 134.715 177.36 130.557 175.638 126.438C174.72 124.247 173.814 122.03 172.767 119.89C171.925 118.174 170.84 116.478 169.028 115.675C168.379 115.385 167.923 116.388 168.572 116.677V116.671Z" fill="#9E9898"/>
<path d="M196.575 148.345C195.412 142.972 193.903 137.639 192.052 132.389L185.808 133.102C187.748 138.32 189.361 143.634 190.62 149L194.853 152.194L196.581 148.345H196.575Z" fill="#2F0B3B"/>
<path d="M197.12 148.293C195.9 142.683 194.332 137.144 192.431 131.727C192.354 131.515 192.09 131.335 191.859 131.38C189.823 131.772 187.786 132.17 185.743 132.562C185.396 132.633 185.152 132.948 185.287 133.308C186.765 137.279 188.056 141.314 189.148 145.408C189.424 146.442 189.688 147.477 189.938 148.512C190.048 148.968 190.099 149.302 190.472 149.585C191.197 150.131 191.917 150.677 192.643 151.223C193.266 151.693 193.883 152.162 194.506 152.631C194.789 152.843 195.206 152.766 195.354 152.432C195.932 151.146 196.504 149.868 197.082 148.582C197.371 147.933 196.369 147.477 196.08 148.126C195.502 149.411 194.93 150.69 194.352 151.975C194.634 151.911 194.917 151.84 195.2 151.776C193.786 150.709 192.379 149.649 190.966 148.582C191.03 148.704 191.101 148.827 191.165 148.955C189.881 143.512 188.268 138.159 186.322 132.916C186.167 133.166 186.02 133.417 185.865 133.661C187.902 133.269 189.938 132.871 191.981 132.479C191.788 132.363 191.602 132.247 191.409 132.132C193.279 137.452 194.833 142.895 196.035 148.409C196.183 149.096 197.281 148.987 197.127 148.3L197.12 148.293Z" fill="#9E9898"/>
<path d="M189.482 145.89C189.135 145.922 188.801 145.71 188.705 145.363L187.426 140.948C187.368 140.749 187.401 140.531 187.51 140.351C187.619 140.171 187.805 140.055 188.011 140.017L194.531 138.937C194.891 138.879 195.264 139.111 195.36 139.477L196.504 143.872C196.606 144.264 196.369 144.663 195.977 144.766C195.585 144.862 195.187 144.631 195.084 144.239L194.114 140.492L189.071 141.328L190.124 144.952C190.24 145.344 190.015 145.749 189.623 145.864C189.578 145.877 189.533 145.884 189.495 145.89H189.482Z" fill="#EEEEEE"/>
<path d="M184.818 162.983C183.489 163.118 182.236 162.334 181.793 161.049L167.351 119.556C167.248 119.267 167.403 118.952 167.692 118.856C167.981 118.753 168.296 118.907 168.392 119.196L182.833 160.689C183.122 161.525 183.97 162.02 184.838 161.872L224.275 154.97C224.577 154.919 224.86 155.118 224.911 155.42C224.963 155.722 224.764 156.005 224.462 156.056L185.024 162.958C184.953 162.971 184.883 162.977 184.812 162.99L184.818 162.983Z" fill="#9E9898"/>
<path d="M271.563 128.982L232.119 114.646C230.841 100.656 221.827 87.7014 218.519 84.4626C236.417 84.347 269.199 84.4948 293.54 86.6025C328.744 89.6549 271.557 128.982 271.557 128.982H271.563Z" fill="#3040B4"/>
<path d="M231.156 85.1185C234.111 88.4343 236.558 92.1743 238.383 96.2228C238.672 96.8654 239.7 96.4734 239.411 95.8243C237.548 91.6924 235.068 87.856 232.049 84.4695C231.58 83.9489 230.687 84.5916 231.162 85.1185H231.156Z" fill="#2F0B3B"/>
<path d="M232.12 114.646L217.999 109.512C216.271 100.985 213.239 94.0765 208.074 86.8922C207.92 86.6866 207.676 86.3653 207.38 86.0247C206.898 85.4656 207.29 84.5852 208.036 84.5724C208.203 84.5724 208.382 84.5724 208.575 84.5595C208.761 84.5595 208.954 84.5595 209.16 84.5531C209.417 84.5531 209.693 84.5531 209.969 84.5467C210.573 84.5338 211.235 84.5274 211.941 84.521C212.089 84.521 212.237 84.5145 212.385 84.5145C212.777 84.5145 213.175 84.5145 213.592 84.5017C215.07 84.4953 216.721 84.4824 218.52 84.4631C221.828 87.6955 230.841 100.657 232.12 114.646Z" fill="#EEEEEE"/>
<path d="M232.672 114.588C232.164 109.203 230.584 103.953 228.387 99.0243C226.601 95.008 224.417 91.1395 221.828 87.5859C220.922 86.3456 219.965 85.1183 218.873 84.0387C218.365 83.5439 217.678 84.3985 218.179 84.8933C220.35 87.0268 222.155 89.835 223.749 92.4761C226.267 96.6595 228.335 101.138 229.774 105.804C230.667 108.702 231.297 111.684 231.58 114.704C231.644 115.411 232.742 115.302 232.672 114.595V114.588Z" fill="#2F0B3B"/>
<path d="M218.557 109.46C217.53 104.435 215.949 99.5384 213.643 94.9502C212.467 92.6111 211.125 90.362 209.66 88.19C209.287 87.6438 208.915 87.0975 208.529 86.5642C208.375 86.3521 208.215 86.1465 208.048 85.9473C207.913 85.7866 207.675 85.6067 207.739 85.3689C207.842 84.9834 208.671 85.1119 208.979 85.1055C214.497 85.0283 220.016 84.9898 225.534 84.9834C233.937 84.9705 242.333 85.0348 250.736 85.189C260.109 85.3625 269.475 85.6452 278.835 86.1465C283.287 86.3842 287.732 86.6734 292.178 87.0397C294.825 87.2582 297.555 87.5217 300.028 88.4792C301.557 89.0704 302.9 89.8672 303.741 91.191C303.786 91.2616 303.825 91.3323 303.87 91.403C303.94 91.5251 303.812 91.2938 303.883 91.4223C303.902 91.4609 303.921 91.493 303.94 91.5315C304.011 91.6793 304.075 91.8207 304.133 91.9749C304.191 92.1227 304.236 92.277 304.287 92.4312C304.3 92.4697 304.307 92.5083 304.319 92.5469C304.358 92.6818 304.294 92.4248 304.319 92.5597C304.339 92.6497 304.358 92.7461 304.377 92.836C304.435 93.1766 304.461 93.5172 304.461 93.8642C304.461 93.9092 304.461 93.9477 304.461 93.9927C304.461 94.1405 304.461 93.8706 304.461 94.0184C304.461 94.102 304.454 94.1919 304.448 94.2755C304.435 94.4683 304.409 94.6546 304.384 94.841C304.14 96.4732 303.459 97.9705 302.604 99.4677C301.608 101.228 300.336 102.931 299.013 104.531C295.865 108.342 292.255 111.767 288.548 115.025C285.073 118.078 281.469 120.982 277.788 123.784C275.739 125.346 273.664 126.875 271.55 128.353C271.454 128.424 271.351 128.488 271.254 128.559L271.807 128.501C270.027 127.852 268.254 127.209 266.475 126.56C262.209 125.011 257.944 123.456 253.678 121.908C248.52 120.031 243.361 118.155 238.196 116.278C233.738 114.659 229.279 113.033 224.821 111.414C222.662 110.63 220.504 109.814 218.333 109.055C218.3 109.043 218.275 109.036 218.243 109.023C217.581 108.779 217.118 109.782 217.787 110.026C218.969 110.456 220.157 110.887 221.339 111.317C224.339 112.41 227.339 113.496 230.339 114.588C234.309 116.028 238.273 117.474 242.243 118.913C246.361 120.41 250.485 121.908 254.603 123.405C258.053 124.658 261.503 125.911 264.946 127.164C266.905 127.877 268.858 128.584 270.818 129.298C271.19 129.433 271.55 129.638 271.929 129.413C272.25 129.22 272.559 128.976 272.861 128.758C274.556 127.556 276.227 126.329 277.878 125.082C280.467 123.129 283.017 121.117 285.516 119.048C288.4 116.657 291.214 114.183 293.906 111.574C296.456 109.107 298.923 106.517 301.075 103.696C302.797 101.434 304.429 98.9537 305.206 96.1904C305.797 94.0955 305.688 91.7822 304.268 90.0343C302.418 87.753 299.257 86.8919 296.482 86.4164C293.829 85.9666 291.118 85.8445 288.439 85.6452C285.118 85.4011 281.79 85.2019 278.462 85.0284C271.511 84.6621 264.561 84.4179 257.603 84.2444C250.922 84.0773 244.241 83.9745 237.56 83.9231C231.939 83.8781 226.318 83.8717 220.697 83.8974C216.881 83.9166 213.058 83.9488 209.242 84.0002C208.382 84.013 207.334 83.8588 206.827 84.7263C206.384 85.4846 206.769 86.1079 207.251 86.712C207.829 87.4317 208.343 88.2093 208.857 88.974C210.977 92.1163 212.814 95.445 214.26 98.9472C215.673 102.372 216.714 105.939 217.459 109.57C217.6 110.257 218.699 110.154 218.551 109.46H218.557Z" fill="#2F0B3B"/>
<path d="M265.165 42.5715C261.079 47.1662 256.827 52.095 254.893 58.0455C252.689 64.8122 254.54 71.0455 256.454 77.6129C260.032 89.8675 264.336 101.916 269.322 113.67C273.247 122.923 279.176 131.868 289.429 134.792C295.917 136.643 303.145 135.711 308.952 132.286L265.159 42.5715H265.165Z" fill="#3040B4"/>
<path d="M264.735 42.2243C259.229 48.4255 253.563 55.2628 253.351 63.9702C253.242 68.4106 254.469 72.7482 255.696 76.9701C257.026 81.5326 258.439 86.0694 259.955 90.5741C261.478 95.0916 263.096 99.5706 264.818 104.017C266.424 108.169 268.037 112.352 269.938 116.381C272.957 122.794 277.12 128.931 283.268 132.691C290.219 136.945 299.129 137.382 306.568 134.13C307.5 133.719 308.406 133.25 309.286 132.736C309.479 132.62 309.575 132.292 309.472 132.093C309.08 131.29 308.688 130.486 308.297 129.69C307.23 127.505 306.164 125.326 305.097 123.141C303.53 119.928 301.956 116.709 300.388 113.496C298.474 109.576 296.56 105.65 294.645 101.73C292.551 97.4372 290.45 93.1381 288.356 88.8455C286.236 84.4951 284.11 80.1446 281.99 75.8006C280.011 71.7457 278.032 67.6909 276.054 63.636C274.39 60.2238 272.72 56.8051 271.056 53.3928C269.855 50.9381 268.66 48.4833 267.458 46.0286C266.893 44.8654 266.328 43.6959 265.756 42.5328C265.73 42.4814 265.705 42.43 265.685 42.3786C265.377 41.7488 264.349 42.1408 264.657 42.777C265.049 43.5802 265.441 44.3835 265.833 45.1803C266.899 47.3652 267.966 49.5436 269.032 51.7285C270.6 54.9415 272.174 58.161 273.741 61.374C275.656 65.2939 277.57 69.2203 279.484 73.1402C281.579 77.4328 283.679 81.7318 285.774 86.0245C287.894 90.3749 290.02 94.7254 292.14 99.0694C294.119 103.124 296.097 107.179 298.076 111.234C299.74 114.646 301.41 118.065 303.074 121.477C304.275 123.932 305.47 126.387 306.671 128.841C307.237 129.998 307.744 131.213 308.374 132.337C308.399 132.389 308.425 132.44 308.444 132.491C308.509 132.279 308.573 132.061 308.631 131.849C301.686 135.917 292.802 136.302 285.581 132.716C279.317 129.606 274.93 123.829 271.814 117.718C269.938 114.049 268.435 110.18 266.919 106.35C265.204 102.032 263.585 97.6814 262.056 93.2988C260.527 88.9162 259.094 84.4951 257.752 80.0482C256.492 75.8648 255.098 71.6236 254.604 67.2667C254.366 65.1397 254.372 62.9934 254.745 60.8856C255.111 58.81 255.824 56.8244 256.756 54.9351C258.522 51.3365 261.021 48.1684 263.63 45.1482C264.278 44.3963 264.934 43.6573 265.589 42.9183C266.058 42.385 265.204 41.691 264.735 42.2243Z" fill="#2F0B3B"/>
<path d="M268.718 87.9976C271.082 83.313 271.943 78.0822 272.514 72.9221C272.81 70.2617 273.022 67.5884 273.33 64.928C273.555 62.9745 273.741 60.192 273.17 58.3156C271.66 53.3932 265.139 57.1589 261.947 57.4545C261.484 57.4995 261.015 57.5059 260.565 57.6344C258.4 58.2642 260.039 64.1183 260.308 65.8148C260.79 68.8351 261.458 71.8168 262.236 74.7728C263.565 79.8365 264.735 85.6842 267.548 90.1439C267.947 89.4371 268.345 88.7302 268.711 88.0041L268.718 87.9976Z" fill="#EEEEEE"/>
<path d="M269.219 88.229C272.199 82.272 272.829 75.5503 273.465 69.015C273.626 67.3442 273.831 65.6735 273.979 64.0027C274.107 62.544 274.178 61.0467 273.992 59.5944C273.85 58.4955 273.561 57.3388 272.803 56.497C272.212 55.8351 271.403 55.4496 270.529 55.3146C268.634 55.019 266.668 55.6616 264.869 56.1886C264.041 56.4328 263.212 56.6962 262.358 56.844C261.381 57.0111 260.199 56.844 259.525 57.718C259.011 58.3734 258.934 59.2731 258.921 60.0699C258.908 61.066 259.043 62.0556 259.216 63.0323C259.364 63.8677 259.55 64.6967 259.711 65.5321C260 67.0551 260.244 68.5845 260.565 70.101C261.253 73.3141 262.101 76.495 262.936 79.6759C263.72 82.6833 264.606 85.6971 266 88.486C266.341 89.1608 266.707 89.8227 267.112 90.4653C267.349 90.8444 267.87 90.6966 268.056 90.3689C268.454 89.662 268.852 88.9551 269.219 88.229C269.54 87.5928 268.538 87.143 268.216 87.7727C267.85 88.4989 267.452 89.2058 267.054 89.9126L267.998 89.8162C266.443 87.3293 265.448 84.5276 264.632 81.7194C263.79 78.8405 263.084 75.9102 262.358 72.9992C261.947 71.3284 261.574 69.6512 261.253 67.9611C261.047 66.8816 260.887 65.7956 260.662 64.716C260.315 63.0195 259.846 61.1816 260.051 59.4402C260.09 59.1189 260.148 58.7847 260.315 58.502C260.45 58.2771 260.585 58.1871 260.867 58.1164C261.426 57.9815 262.017 58.0136 262.583 57.9108C262.987 57.8401 263.386 57.7373 263.784 57.6344C265.525 57.1718 267.24 56.5227 269.052 56.3685C269.81 56.3042 270.613 56.3364 271.3 56.6834C272.02 57.0497 272.431 57.7565 272.662 58.5084C273.06 59.8193 273.047 61.2845 272.977 62.6404C272.9 64.1441 272.694 65.6413 272.54 67.1386C271.91 73.3719 271.531 79.8108 269.154 85.6843C268.872 86.3911 268.557 87.0851 268.21 87.7663C267.889 88.4025 268.897 88.8587 269.212 88.2226L269.219 88.229Z" fill="#2F0B3B"/>
<path d="M255.51 71.9261C255.94 69.9469 256.557 68.0126 257.193 66.0912C257.829 64.1698 258.503 62.2549 259.249 60.372C259.512 59.7166 258.51 59.2539 258.246 59.9158C257.482 61.8436 256.795 63.8035 256.146 65.7699C255.497 67.7363 254.867 69.722 254.424 71.7462C254.27 72.4402 255.356 72.6201 255.51 71.9325V71.9261Z" fill="#2F0B3B"/>
<path d="M254.411 64.3618C254.886 64.0662 255.407 63.8221 255.959 63.6293C256.524 63.4302 257.019 63.3209 257.623 63.2503C257.905 63.2181 258.156 62.9419 258.117 62.6463C258.072 62.3572 257.822 62.1195 257.513 62.1516C256.177 62.3058 254.906 62.762 253.762 63.4687C253.512 63.6229 253.473 64.0084 253.64 64.2397C253.827 64.4967 254.154 64.516 254.411 64.3618Z" fill="#2F0B3B"/>
<path d="M272.533 219.18C270.079 220.4 267.689 218.498 265.273 218.273C262.646 218.029 259.819 219.257 257.308 220.041C251.269 221.93 245.442 224.487 239.962 227.649C236.872 229.429 233.744 231.46 230.198 231.768C229.767 231.807 229.234 231.755 229.067 231.363C228.964 231.119 229.054 230.836 229.151 230.592C229.665 229.352 230.5 228.279 231.322 227.225C235.896 221.371 240.708 216.236 245.93 210.954C249.464 207.381 244.498 197.729 242.853 193.52C241.26 189.452 237.476 183.92 236.519 179.646C235.401 174.66 243.952 178.284 249.515 178.387C258.066 178.547 260.744 187.531 263.481 193.925C267.111 202.42 270.747 210.909 274.376 219.404L272.533 219.173V219.18Z" fill="#EEEEEE"/>
<path d="M272.334 218.665C271.029 219.282 269.7 218.967 268.396 218.536C267.008 218.08 265.685 217.643 264.207 217.695C262.588 217.752 261.001 218.234 259.472 218.736C257.892 219.256 256.305 219.764 254.731 220.304C251.442 221.441 248.224 222.771 245.095 224.301C243.553 225.052 242.031 225.849 240.541 226.691C239.076 227.514 237.65 228.4 236.166 229.191C234.72 229.956 233.198 230.65 231.598 231.003C231.2 231.093 230.795 231.157 230.39 231.202C230.243 231.221 229.665 231.331 229.575 231.144C229.472 230.939 229.947 230.219 230.044 230.033C230.236 229.673 230.461 229.332 230.692 228.998C231.669 227.604 232.774 226.286 233.853 224.975C234.926 223.671 236.024 222.386 237.142 221.113C239.371 218.581 241.678 216.12 244.029 213.704C244.646 213.068 245.262 212.438 245.885 211.808C246.284 211.403 246.669 211.024 246.965 210.542C247.434 209.765 247.652 208.859 247.71 207.959C247.858 205.729 247.267 203.48 246.573 201.379C245.86 199.2 244.954 197.099 244.061 194.991C243.676 194.079 243.322 193.153 242.918 192.254C242.346 190.981 241.697 189.748 241.048 188.514C239.705 185.969 238.254 183.411 237.373 180.655C237.149 179.941 236.75 178.888 237.123 178.213C237.213 178.052 237.406 177.898 237.605 177.814C237.92 177.679 238.234 177.628 238.581 177.602C239.532 177.525 240.496 177.66 241.44 177.802C242.609 177.975 243.765 178.2 244.928 178.406C246.11 178.611 247.305 178.81 248.506 178.9C249.669 178.99 250.8 178.984 251.937 179.273C253.967 179.794 255.721 181.047 257.076 182.621C259.948 185.969 261.342 190.307 263.044 194.304C265.942 201.083 268.839 207.856 271.736 214.636C272.443 216.294 273.156 217.952 273.862 219.616C274.062 219.365 274.267 219.121 274.466 218.871C273.85 218.793 273.239 218.716 272.623 218.639C271.922 218.549 271.736 219.635 272.436 219.725C273.053 219.802 273.663 219.879 274.28 219.957C274.678 220.008 275.057 219.616 274.884 219.211C271.903 212.239 268.916 205.26 265.935 198.288C264.798 195.627 263.674 192.961 262.562 190.287C261.676 188.16 260.738 186.046 259.505 184.093C258.329 182.223 256.845 180.52 254.943 179.363C253.98 178.778 252.926 178.361 251.834 178.11C250.659 177.846 249.47 177.879 248.282 177.769C245.853 177.538 243.483 176.94 241.074 176.626C239.609 176.433 237.232 176.086 236.243 177.525C235.716 178.29 235.851 179.235 236.063 180.083C236.397 181.426 236.924 182.711 237.496 183.958C238.748 186.682 240.29 189.266 241.581 191.977C242.506 193.931 243.303 195.974 244.125 197.973C245.044 200.209 245.924 202.503 246.374 204.887C246.708 206.655 246.952 208.936 245.68 210.414C245.16 211.018 244.556 211.564 244.003 212.13C243.386 212.759 242.776 213.389 242.166 214.025C240.958 215.285 239.763 216.551 238.588 217.836C236.224 220.413 233.937 223.054 231.759 225.785C230.718 227.09 229.594 228.4 228.855 229.917C228.534 230.572 228.213 231.446 228.887 231.999C229.44 232.449 230.249 232.327 230.904 232.23C234.296 231.729 237.239 229.846 240.149 228.163C243.239 226.37 246.444 224.776 249.74 223.388C252.978 222.019 256.312 220.94 259.646 219.828C261.233 219.295 262.871 218.781 264.56 218.768C266.025 218.755 267.361 219.365 268.742 219.77C270.072 220.162 271.453 220.284 272.745 219.674C273.381 219.372 272.989 218.344 272.346 218.646L272.334 218.665Z" fill="#2F0B3B"/>
<path d="M279.214 229.185L269.449 230.174C268.916 230.226 268.396 229.975 268.106 229.525C267.952 229.288 267.785 229.056 267.605 228.831C266.777 227.816 265.62 227.019 264.323 226.878C262.582 226.698 260.95 227.726 259.601 228.825C258.907 229.39 258.245 229.988 257.616 230.611C257.057 231.17 256.325 231.505 255.541 231.588L225.315 234.66C223.234 233.921 221.223 232.97 220.086 230.849C218.621 228.124 219.135 225.22 221.628 223.376C223.253 222.161 225.123 221.319 227.024 220.651C228.682 220.073 230.435 219.886 231.74 218.729C234.919 215.896 237.74 212.837 241.466 210.678C242.538 210.054 243.746 209.489 244.986 209.592C246.252 209.701 247.382 210.504 248.16 211.507C248.661 212.156 249.142 213.974 249.785 214.347C250.44 214.72 252.631 214.038 253.37 213.91C255.997 213.454 258.573 212.74 261.066 211.789C264.014 210.665 266.924 209.18 270.072 209.11C270.978 209.084 271.897 209.187 272.693 209.604C273.284 209.926 273.785 210.395 274.241 210.89C278.327 215.298 279.882 221.724 280.357 227.79C280.415 228.497 279.908 229.114 279.201 229.191L279.214 229.185Z" fill="#2F0B3B"/>
<path d="M279.156 228.639C276.104 228.947 273.053 229.255 270.001 229.57C269.815 229.59 269.629 229.615 269.443 229.628C268.884 229.667 268.652 229.345 268.357 228.921C267.445 227.617 266.038 226.511 264.412 226.338C262.588 226.145 260.911 227.096 259.524 228.182C258.791 228.761 258.091 229.384 257.423 230.033C256.864 230.579 256.273 230.945 255.483 231.042C253.575 231.267 251.661 231.427 249.753 231.627C245.821 232.025 241.896 232.423 237.964 232.822C234.521 233.169 231.078 233.522 227.634 233.869C226.883 233.946 226.112 233.985 225.36 234.101C225.161 234.133 225.38 234.062 225.412 234.114C225.36 234.036 225 233.959 224.904 233.927C224.737 233.863 224.57 233.799 224.403 233.728C224.03 233.574 223.671 233.407 223.311 233.214C221.917 232.475 220.818 231.363 220.234 229.885C219.694 228.542 219.656 227.038 220.311 225.721C221.063 224.211 222.604 223.26 224.05 222.508C225.675 221.666 227.384 221.101 229.131 220.593C229.941 220.355 230.737 220.079 231.457 219.623C232.228 219.134 232.883 218.434 233.545 217.817C236.191 215.356 238.819 212.76 242.005 210.999C242.827 210.543 243.753 210.119 244.71 210.131C245.526 210.144 246.29 210.511 246.913 211.018C247.446 211.455 247.825 211.956 248.108 212.58C248.371 213.165 248.603 213.801 248.988 214.328C249.733 215.356 251.102 214.983 252.162 214.745C253.729 214.392 255.309 214.109 256.858 213.711C258.798 213.203 260.686 212.548 262.543 211.796C264.348 211.063 266.166 210.266 268.094 209.887C269.044 209.701 270.046 209.579 271.016 209.688C271.961 209.791 272.719 210.164 273.406 210.813C274.614 211.95 275.597 213.383 276.393 214.829C278.044 217.823 278.944 221.204 279.445 224.571C279.561 225.361 279.657 226.158 279.734 226.955C279.792 227.572 280.004 228.51 279.149 228.639C278.449 228.741 278.558 229.84 279.259 229.731C280.023 229.615 280.653 229.114 280.852 228.356C281.051 227.597 280.813 226.64 280.723 225.875C280.518 224.102 280.209 222.341 279.773 220.612C278.931 217.277 277.556 214.006 275.359 211.333C274.787 210.639 274.177 209.926 273.438 209.418C272.68 208.891 271.8 208.634 270.882 208.576C268.884 208.454 266.911 208.962 265.048 209.63C263.134 210.318 261.284 211.166 259.357 211.821C257.378 212.49 255.361 212.972 253.312 213.364C252.74 213.473 252.175 213.634 251.603 213.749C251.224 213.826 250.401 214.064 250.067 213.878C249.656 213.653 249.419 212.805 249.239 212.393C248.95 211.738 248.641 211.172 248.14 210.652C246.92 209.38 245.249 208.756 243.515 209.193C241.722 209.643 240.059 210.838 238.6 211.937C237.091 213.068 235.697 214.341 234.315 215.626C233.628 216.262 232.954 216.904 232.26 217.534C231.566 218.17 230.911 218.781 230.024 219.147C229.208 219.488 228.341 219.681 227.493 219.938C226.594 220.208 225.707 220.548 224.846 220.934C223.195 221.66 221.442 222.572 220.227 223.935C218.05 226.377 218.409 230.097 220.536 232.456C221.596 233.632 222.996 234.383 224.461 234.942C224.898 235.11 225.225 235.238 225.662 235.193L233.525 234.396C237.695 233.972 241.857 233.548 246.027 233.124C248.982 232.822 251.937 232.526 254.886 232.224C255.11 232.199 255.335 232.179 255.56 232.154C255.933 232.115 256.312 232.031 256.659 231.89C257.532 231.55 258.104 230.881 258.779 230.264C260.108 229.05 261.708 227.61 263.584 227.437C264.451 227.353 265.305 227.63 266.019 228.118C266.346 228.343 266.654 228.606 266.924 228.902C267.246 229.249 267.47 229.66 267.772 230.027C268.35 230.721 269.128 230.778 269.95 230.695C270.708 230.618 271.46 230.541 272.218 230.464C274.19 230.264 276.162 230.065 278.134 229.859L279.259 229.744C279.965 229.673 279.856 228.574 279.149 228.651L279.156 228.639Z" fill="#2F0B3B"/>
<path d="M220.594 232.09C225.489 231.601 230.378 231.106 235.273 230.618C240.052 230.136 244.903 229.744 249.515 228.317C252.47 227.399 255.303 226.094 258.194 225.002C259.55 224.487 260.905 223.986 262.331 223.691C264.631 223.215 266.982 223.01 269.308 222.714C272.61 222.29 275.912 221.968 279.233 221.686C279.94 221.628 279.83 220.529 279.124 220.593C276.246 220.837 273.374 221.088 270.509 221.454C266.655 221.943 262.704 222.193 259.023 223.524C256.19 224.545 253.421 225.753 250.594 226.794C246.258 228.395 241.62 228.883 237.046 229.339C231.521 229.892 226.003 230.444 220.478 230.997C219.771 231.068 219.881 232.167 220.587 232.09H220.594Z" fill="#9E9898"/>
<path d="M229.864 220.407C232.562 220.626 235.286 220.382 237.933 219.868C240.727 219.321 243.496 218.479 246.066 217.239C247.395 216.597 248.674 215.851 249.836 214.939C250.395 214.502 249.747 213.609 249.188 214.052C247.158 215.633 244.794 216.725 242.372 217.554C239.757 218.447 237.027 219.032 234.271 219.276C232.864 219.398 231.451 219.437 230.044 219.321C229.344 219.263 229.151 220.349 229.857 220.407H229.864Z" fill="#9E9898"/>
<path d="M311.746 119.254C284.154 108.548 256.151 97.7394 226.716 94.7127C213.714 93.3761 199.137 100.779 196.876 114.576C196.047 119.652 197.017 124.857 198.398 129.818C200.981 139.078 205.118 147.625 209.249 156.275C213.534 165.252 217.947 174.165 222.495 183.013C224.313 186.554 226.144 190.082 228.02 193.584C229.928 197.138 232.241 200.627 233.892 204.297C234.123 204.714 234.598 204.939 235.074 204.894C238.286 204.599 253.665 202.934 276.715 208.872C277.813 209.155 278.764 208.056 278.315 207.015C272.552 193.668 246.001 132.402 238.099 118.476L306.42 129.561L311.746 119.254Z" fill="#3040B4"/>
<path d="M326.001 120.937C315.928 128.16 301.531 135.814 339.697 140.486C347.618 141.456 344.104 156.409 340.853 163.703C340.661 164.127 340.455 164.551 340.237 164.956C336.556 171.806 328.815 176.137 321.099 176.215C312.138 176.305 302.026 169.834 293.951 166.306C273.991 157.579 254.417 147.953 235.318 137.465L232.69 111.575L326.001 120.937Z" fill="#3040B4"/>
<path d="M226.619 190.48C228.11 189.002 230.378 188.186 232.408 187.627C235.298 186.83 238.324 186.496 241.311 186.342C248.192 185.988 255.22 186.657 261.894 188.366C265.177 189.208 268.441 190.326 271.37 192.048C271.98 192.408 272.43 191.399 271.826 191.046C269.154 189.478 266.198 188.418 263.224 187.582C259.826 186.637 256.344 186.014 252.836 185.622C249.277 185.23 245.68 185.07 242.102 185.204C238.96 185.32 235.812 185.654 232.755 186.406C230.256 187.023 227.622 187.942 225.759 189.786C225.258 190.287 226.112 190.975 226.613 190.48H226.619Z" fill="#2F0B3B"/>
<path d="M252.258 146.642C248.77 138.461 244.947 130.422 240.804 122.55C239.628 120.32 238.427 118.103 237.2 115.899C236.853 115.282 235.967 115.938 236.313 116.548C240.618 124.279 244.601 132.183 248.256 140.241C249.277 142.497 250.273 144.759 251.243 147.034C251.519 147.683 252.547 147.291 252.271 146.635L252.258 146.642Z" fill="#2F0B3B"/>
<path d="M247.517 116.246C248.076 123.675 248.095 131.142 247.568 138.571C247.517 139.271 248.603 139.464 248.654 138.757C249.194 131.226 249.181 123.662 248.616 116.137C248.564 115.43 247.466 115.54 247.524 116.246H247.517Z" fill="#2F0B3B"/>
<path d="M339.787 139.946C334.256 139.265 328.66 138.487 323.283 136.97C320.887 136.296 317.842 135.441 316.114 133.565C315.105 132.466 315.105 131.335 315.838 130.05C316.724 128.507 318.35 127.19 319.789 126.072C321.902 124.427 324.144 122.949 326.322 121.387C326.688 121.124 326.573 120.449 326.091 120.398C321.896 119.98 317.707 119.556 313.512 119.138C312.915 119.08 312.311 119.016 311.714 118.958C311.848 119.215 311.983 119.472 312.125 119.729C312.17 119.646 312.208 119.569 312.253 119.485C312.382 119.234 312.253 118.862 311.983 118.753C299.643 113.965 287.283 109.178 274.698 105.052C262.248 100.972 249.56 97.5336 236.616 95.458C233.359 94.9375 230.089 94.4941 226.812 94.1664C224.551 93.9415 222.264 93.9543 220.009 94.2242C215.435 94.764 210.964 96.287 207.071 98.761C203.255 101.19 200.043 104.602 198.116 108.715C195.604 114.087 195.662 120.083 196.85 125.789C198.231 132.395 200.66 138.763 203.364 144.926C206.127 151.211 209.152 157.386 212.159 163.562C215.242 169.898 218.39 176.202 221.602 182.467C223.215 185.609 224.834 188.745 226.485 191.862C228.026 194.773 229.71 197.594 231.316 200.46C231.714 201.173 232.106 201.9 232.478 202.626C232.825 203.313 233.082 204.174 233.558 204.778C234.059 205.415 234.798 205.46 235.536 205.395C236.423 205.312 237.303 205.241 238.189 205.183C241.466 204.971 244.748 204.945 248.031 205.068C253.119 205.26 258.194 205.794 263.218 206.597C266.379 207.105 269.526 207.722 272.648 208.441C273.439 208.621 274.229 208.808 275.013 209C275.738 209.18 276.567 209.54 277.332 209.437C278.417 209.296 279.162 208.191 278.931 207.137C278.796 206.513 278.437 205.903 278.186 205.318C277.897 204.65 277.608 203.975 277.312 203.307C276.606 201.681 275.905 200.055 275.199 198.429C273.323 194.105 271.434 189.786 269.546 185.468C264.869 174.781 260.154 164.108 255.361 153.466C254.211 150.915 253.055 148.364 251.899 145.819C251.654 146.05 251.404 146.288 251.16 146.52C260.79 151.493 270.528 156.262 280.377 160.811C285.15 163.015 289.981 165.091 294.76 167.276C298.904 169.165 302.9 171.344 307.075 173.175C311.084 174.929 315.356 176.497 319.763 176.741C323.868 176.966 328.024 175.983 331.654 174.055C335.271 172.134 338.374 169.294 340.436 165.74C342.087 162.893 343.121 159.584 343.924 156.409C344.714 153.267 345.292 149.932 344.997 146.687C344.778 144.27 343.931 141.617 341.599 140.473C341.033 140.196 340.416 140.036 339.8 139.952C339.1 139.856 338.913 140.942 339.613 141.038C342.157 141.379 343.391 143.435 343.776 145.806C344.271 148.807 343.802 151.943 343.153 154.88C342.491 157.887 341.554 160.888 340.262 163.69C338.566 167.372 335.669 170.386 332.219 172.475C328.782 174.55 324.761 175.7 320.739 175.675C316.467 175.649 312.285 174.19 308.399 172.545C304.339 170.823 300.452 168.747 296.476 166.858C292.049 164.757 287.514 162.874 283.056 160.83C273.606 156.506 264.252 151.982 255.001 147.259C253.877 146.687 252.753 146.108 251.629 145.524C251.211 145.312 250.691 145.793 250.89 146.224C255.669 156.705 260.346 167.237 264.991 177.782C268.672 186.143 272.327 194.522 275.957 202.908C276.509 204.187 277.062 205.466 277.614 206.745C277.762 207.092 277.993 207.464 277.839 207.856C277.505 208.698 276.496 208.248 275.88 208.094C274.274 207.689 272.668 207.317 271.049 206.963C265.479 205.755 259.845 204.868 254.166 204.367C247.954 203.821 241.697 203.725 235.485 204.303C235.363 204.316 235.234 204.335 235.106 204.341C234.277 204.354 234.065 203.333 233.75 202.703C233.031 201.257 232.241 199.856 231.438 198.462C229.787 195.596 228.174 192.723 226.632 189.793C223.44 183.727 220.337 177.609 217.279 171.472C214.221 165.329 211.227 159.153 208.279 152.959C205.459 147.021 202.696 141.045 200.544 134.824C198.431 128.7 196.471 121.991 197.306 115.45C197.897 110.816 200.017 106.562 203.274 103.227C206.416 100.008 210.476 97.7585 214.761 96.4476C216.913 95.7922 219.129 95.3809 221.371 95.2074C223.864 95.0146 226.311 95.2138 228.791 95.503C241.504 96.9746 254.012 99.8856 266.256 103.561C278.604 107.269 290.707 111.748 302.739 116.368C305.668 117.493 308.591 118.624 311.508 119.761C311.418 119.517 311.328 119.273 311.238 119.029L311.11 119.273C310.955 119.575 311.174 120.012 311.521 120.044C315.716 120.462 319.904 120.886 324.099 121.304C324.697 121.362 325.301 121.426 325.898 121.484C325.821 121.156 325.744 120.828 325.667 120.494C323.63 121.953 321.536 123.341 319.545 124.864C317.926 126.098 316.217 127.447 315.093 129.169C314.174 130.57 313.84 132.222 314.81 133.693C316.159 135.75 318.966 136.739 321.176 137.472C327.106 139.432 333.421 140.273 339.594 141.032C340.294 141.115 340.481 140.029 339.781 139.946H339.787Z" fill="#2F0B3B"/>
<path d="M438.5 272.901C402.538 238.464 374.554 195.711 357.505 148.917L293.321 137.979C311.155 188.019 340.198 236.543 378.293 279.013L438.5 272.895V272.901Z" fill="#3040B4"/>
<path d="M304.397 166.337C308.733 176.041 313.435 185.577 318.485 194.927C323.618 204.425 329.097 213.736 334.911 222.836C340.796 232.038 347.027 241.021 353.58 249.767C360.216 258.622 367.186 267.227 374.477 275.549C375.39 276.59 376.302 277.624 377.227 278.652C377.355 278.8 377.484 278.942 377.612 279.089L378.968 278.954C371.683 270.838 364.7 262.452 358.044 253.816C351.28 245.038 344.849 236.009 338.759 226.749C332.772 217.63 327.119 208.293 321.825 198.757C316.57 189.291 311.675 179.627 307.159 169.782C302.746 160.168 298.698 150.388 295.049 140.46C294.715 139.554 294.388 138.648 294.06 137.735C295.878 138.069 297.696 138.41 299.514 138.744C304.628 139.689 309.741 140.633 314.849 141.584C321.035 142.728 327.222 143.872 333.408 145.022C338.759 146.012 344.111 147.001 349.468 147.991C351.248 148.319 353.021 148.647 354.8 148.981C355.346 149.083 355.886 149.18 356.432 149.283C356.638 149.321 356.875 149.398 357.1 149.43C360.447 158.568 364.199 167.558 368.355 176.362C372.537 185.23 377.124 193.905 382.09 202.362C387.049 210.812 392.388 219.044 398.08 227.019C403.797 235.032 409.874 242.782 416.285 250.249C422.671 257.684 429.391 264.836 436.419 271.667C436.868 272.104 437.318 272.541 437.774 272.978L439.213 272.83C431.832 265.781 424.785 258.385 418.104 250.673C411.32 242.846 404.908 234.698 398.895 226.261C392.857 217.791 387.216 209.039 382.006 200.036C376.796 191.039 372.023 181.792 367.7 172.333C365.535 167.603 363.492 162.822 361.558 157.99C360.601 155.593 359.67 153.19 358.77 150.774C358.546 150.169 358.334 149.559 358.102 148.961C357.987 148.653 357.91 148.486 357.588 148.377C357.543 148.364 357.492 148.364 357.447 148.351C355.038 147.773 352.539 147.445 350.098 146.989C345.119 146.07 340.14 145.144 335.162 144.225C329.258 143.133 323.354 142.04 317.45 140.948C312.292 139.991 307.133 139.04 301.975 138.082C299.212 137.574 296.456 137.06 293.694 136.553C293.566 136.527 293.437 136.508 293.309 136.482C292.885 136.405 292.563 136.835 292.705 137.227C296.219 147.079 300.125 156.795 304.39 166.344L304.397 166.337Z" fill="#2F0B3B"/>
<path d="M262.255 55.0636L260.706 66.5534C260.668 66.9518 260.225 67.1703 259.884 66.9647C259.582 66.7783 259.383 66.4634 259.357 66.11C259.203 64.0601 258.709 56.8693 258.798 52.5253C258.901 47.4165 260.025 47.9049 260.025 47.9049L262.261 55.07L262.255 55.0636Z" fill="#EEEEEE"/>
<path d="M260.27 67.5946C260.038 67.6203 259.801 67.5689 259.595 67.4404C259.139 67.164 258.844 66.6821 258.805 66.1551C258.651 64.0602 258.15 56.8759 258.24 52.5126C258.317 48.6505 258.966 47.7958 259.441 47.4938C259.743 47.301 260.051 47.3203 260.238 47.3974C260.398 47.4681 260.52 47.6159 260.559 47.7894L262.293 55.9698C262.306 56.0276 262.306 56.0855 262.3 56.1369L261.246 66.6114C261.208 66.9841 260.983 67.3118 260.649 67.4789C260.527 67.5367 260.398 67.5753 260.27 67.5882V67.5946ZM259.711 49.1003C259.55 49.6658 259.377 50.694 259.345 52.5319C259.255 56.8438 259.749 63.9831 259.904 66.0652C259.916 66.2451 260.013 66.3993 260.167 66.4893L261.201 56.1048L259.711 49.0939V49.1003Z" fill="#2F0B3B"/>
<path d="M252.13 25.7542C253.087 22.9782 253.215 19.9258 252.579 17.0341C252.155 15.0998 251.359 11.9896 250.151 10.3445C246.727 5.67918 241.029 13.6218 239.918 16.3722C238.832 19.0647 239.269 21.8408 240.933 24.2698C241.787 25.5165 242.641 26.7567 243.496 28.0034C244.883 30.0212 247.125 31.1586 249.38 29.7063C250.761 28.8259 251.59 27.3029 252.123 25.7542H252.13Z" fill="#2F0B3B"/>
<path d="M266.989 28.3121C265.904 29.5395 264.786 30.7347 263.803 32.0135C261.985 34.3783 257.61 36.8395 255.586 39.0308C257.167 44.5251 260.405 52.4998 262.409 58.6817L277.512 39.9947C275.463 37.7327 270.619 32.2706 266.989 28.3057V28.3121Z" fill="#EEEEEE"/>
<path d="M266.559 27.9649C265.595 29.0509 264.599 30.124 263.694 31.2615C263.025 32.0969 262.325 32.8423 261.503 33.5299C259.768 34.9822 257.854 36.216 256.158 37.7197C255.818 38.0153 255.342 38.3558 255.111 38.7478C254.873 39.1527 255.252 39.8981 255.381 40.3158C255.721 41.4339 256.094 42.5456 256.473 43.6509C257.302 46.0671 258.188 48.4641 259.062 50.8674C260.032 53.5278 261.008 56.1946 261.882 58.8872C262.01 59.2856 262.569 59.3434 262.82 59.035C264.522 56.9272 266.225 54.8195 267.933 52.7117C270.644 49.3573 273.355 46.0029 276.073 42.642C276.689 41.8773 277.306 41.1126 277.923 40.3479C278.064 40.1744 278.103 39.8531 277.942 39.6732C274.422 35.7918 270.959 31.8527 267.419 27.9842C266.944 27.4701 266.051 28.1127 266.533 28.6332C270.073 32.5017 273.529 36.4409 277.056 40.3222C277.056 40.0973 277.069 39.8724 277.075 39.6475C275.373 41.7552 273.67 43.863 271.961 45.9707C269.25 49.3252 266.539 52.6796 263.822 56.0404C263.205 56.8051 262.589 57.5698 261.972 58.3345L262.91 58.4823C261.195 53.1937 259.126 48.0335 257.334 42.7706C256.89 41.4661 256.466 40.1552 256.081 38.8314C256.055 39.0113 256.023 39.1977 255.997 39.3776C257.668 37.5847 259.833 36.2867 261.728 34.7508C262.621 34.0311 263.501 33.26 264.214 32.3539C265.222 31.0751 266.321 29.867 267.4 28.6525C267.869 28.1191 267.015 27.4251 266.546 27.9585L266.559 27.9649Z" fill="#2F0B3B"/>
<path d="M265.428 12.8571C262.524 9.47703 257.668 8.27536 253.428 9.15573C250.839 9.68909 248.327 10.7494 246.31 12.4587C243.271 15.0292 241.903 18.7756 242.436 22.7083C242.834 25.6707 244.472 28.1705 244.704 31.1329C245.121 36.4987 244.935 42.2886 250.408 45.1803C252.477 46.2727 254.905 46.594 257.224 46.2727C259.543 45.9514 261.747 45.0197 263.706 43.7473C267.927 41.0098 270.246 36.3894 270.156 31.3578C270.079 27.0909 269.784 22.9525 268.479 18.8463C267.798 16.6999 266.893 14.5793 265.428 12.87V12.8571Z" fill="#EEEEEE"/>
<path d="M268.994 18.6404C268.101 15.8322 266.79 13.0689 264.471 11.1604C262.473 9.52175 259.936 8.5964 257.379 8.38434C251.957 7.93451 245.822 10.5628 243.162 15.4659C241.922 17.7471 241.518 20.4525 241.922 23.0101C242.166 24.5331 242.713 25.9789 243.226 27.4248C243.74 28.8771 244.094 30.2844 244.203 31.8267C244.531 36.492 244.691 41.8642 248.873 44.8716C253.948 48.5216 261.028 46.9151 265.525 43.0851C266.103 42.5903 266.642 42.057 267.137 41.4851C267.606 40.9517 266.752 40.2577 266.283 40.791C262.64 44.9616 255.972 47.3842 250.775 44.7559C248.719 43.7149 247.242 41.9734 246.464 39.8143C245.7 37.7001 245.546 35.4124 245.391 33.189C245.308 31.9488 245.269 30.6957 244.987 29.4811C244.659 28.0674 244.113 26.7308 243.657 25.362C242.828 22.9073 242.565 20.3176 243.355 17.8114C244.955 12.7541 250.306 9.76594 255.387 9.46392C257.771 9.32254 260.199 9.83663 262.287 11.0062C264.651 12.3364 266.212 14.5277 267.227 16.9953C267.503 17.67 267.741 18.3512 267.966 19.0452C268.178 19.7199 269.206 19.3215 268.994 18.6468V18.6404Z" fill="#2F0B3B"/>
<path d="M273.535 19.1159C273.394 22.1939 273.015 24.713 271.73 26.8143C269.854 29.8795 267.516 24.0832 266.674 22.5988C265.755 20.9794 264.785 19.6042 264.169 17.7921C263.892 16.9888 263.796 15.2024 263.224 14.6176C262.659 14.0393 260.565 13.8529 259.768 13.6216C258.83 13.3517 256.897 13.1974 256.151 12.5934C254.346 11.1282 254.828 8.90482 255.965 7.20834C258.548 3.34627 263.944 5.04275 267.426 6.59144C268.165 6.91917 268.884 7.29188 269.533 7.76741C272.192 9.72093 273.734 14.8232 273.535 19.1159Z" fill="#2F0B3B"/>
<path d="M257.038 1.41231C254.404 1.00104 251.687 1.3609 249.059 0.891795C248.019 0.705438 246.984 0.390561 245.931 0.422691C243.477 0.486952 241.267 2.67824 241.183 5.13943C241.042 9.2971 245.5 10.9422 248.905 10.4217C251.282 10.0618 253.608 8.77016 255.959 9.26497C257.122 9.50916 258.15 10.1646 259.274 10.5309C262.235 11.4948 263.88 8.95009 263.327 6.19973C262.769 3.43652 259.55 1.81072 257.038 1.41873V1.41231Z" fill="#2F0B3B"/>
<path d="M237.444 13.0626C237.303 13.6923 237.258 14.3221 237.367 14.9197C237.669 16.6098 239.615 18.5055 241.427 18.3127C242.307 18.2227 243.085 17.7408 243.855 17.3102C249.078 14.3863 255.432 12.2143 261.303 14.29C262.177 14.5984 263.044 14.984 263.969 15.0097C268.01 15.1125 267.188 11.9123 264.657 10.113C262.993 8.92418 261.258 7.83175 259.472 6.82928C256.806 5.332 254.352 3.98253 251.288 4.49661C247.768 5.08781 244.761 5.95533 241.607 7.70322C239.275 8.99486 238.022 10.4664 237.431 13.0626H237.444Z" fill="#2F0B3B"/>
<path d="M271.178 22.0721C272.784 21.6223 274.679 22.1363 275.688 23.5694C278.578 27.6692 273.536 32.5016 269.938 32.9707C268.024 33.2213 267.118 32.0325 266.919 30.1175C266.745 28.4275 266.597 26.596 267.426 25.0795C268.229 23.6015 269.642 22.4962 271.178 22.0657V22.0721Z" fill="#EEEEEE"/>
<path d="M267.927 25.3173C269.212 23.0168 272.533 21.3588 274.788 23.3766C275.726 24.2184 276.137 25.5615 275.932 26.7889C275.726 28.0034 275.019 29.0766 274.184 29.9569C273.221 30.9787 271.994 31.7819 270.664 32.2318C269.996 32.4567 270.394 33.4848 271.062 33.2599C273.773 32.341 276.523 29.8991 277.017 26.9688C277.274 25.4522 276.786 23.8522 275.713 22.7469C274.634 21.6287 272.951 21.1468 271.428 21.4552C269.501 21.8472 267.876 23.1646 266.925 24.861C266.578 25.478 267.58 25.9342 267.927 25.3173Z" fill="#2F0B3B"/>
<path d="M269.263 28.7162C269.918 26.9558 271.287 25.5359 273.072 24.9641C273.355 24.8741 273.49 24.5143 273.387 24.2509C273.271 23.9618 272.956 23.8462 272.674 23.9361C270.638 24.5914 269.006 26.2683 268.261 28.2601C268.159 28.5363 268.248 28.8576 268.531 28.9925C268.788 29.1081 269.154 28.9989 269.263 28.7226V28.7162Z" fill="#2F0B3B"/>
<path d="M272.494 28.9024C272.385 27.6495 271.634 26.4866 270.516 25.9084C270.259 25.7735 269.893 25.9084 269.784 26.1782C269.668 26.4674 269.784 26.7693 270.054 26.9107C270.105 26.9364 270.156 26.9685 270.214 26.9942C270.131 26.9364 270.272 27.0263 270.214 26.9942C270.233 27.0071 270.259 27.0263 270.278 27.0392C270.375 27.1099 270.471 27.187 270.561 27.2705C270.587 27.2962 270.612 27.3154 270.632 27.3411C270.645 27.3476 270.709 27.4118 270.657 27.3604C270.6 27.3026 270.683 27.3861 270.69 27.399C270.709 27.4182 270.728 27.4375 270.741 27.4632C270.824 27.566 270.901 27.6688 270.972 27.778C271.004 27.8294 271.036 27.8808 271.068 27.9387C271.101 27.9965 271.081 27.9515 271.062 27.9258C271.081 27.9515 271.094 27.9901 271.107 28.0158C271.165 28.1314 271.21 28.2471 271.255 28.3627C271.274 28.4205 271.293 28.4848 271.313 28.5426C271.319 28.5683 271.325 28.594 271.332 28.6261C271.319 28.549 271.37 28.761 271.332 28.6261C271.351 28.761 271.377 28.8895 271.39 29.0245C271.415 29.3136 271.698 29.5577 271.993 29.5192C272.289 29.4742 272.514 29.2236 272.488 28.9152L272.494 28.9024Z" fill="#2F0B3B"/>
<path d="M245.269 26.6607C245.667 25.9089 246.509 25.4848 247.331 25.4077C248.359 25.3113 249.354 25.7225 250.215 26.2495C250.472 26.4037 250.832 26.2238 250.948 25.9796C251.083 25.684 250.928 25.4077 250.678 25.247C249.605 24.598 248.32 24.1546 247.061 24.3345C245.892 24.5016 244.832 25.1506 244.273 26.2045C243.939 26.8342 244.947 27.2841 245.275 26.6607H245.269Z" fill="#2F0B3B"/>
<path d="M256.948 25.0602C257.546 24.0963 258.593 23.8907 259.646 23.8457C260.783 23.7943 261.805 24.2248 262.634 24.9896C263.154 25.4715 263.848 24.6168 263.327 24.1349C262.254 23.1453 260.88 22.6697 259.421 22.7533C258.76 22.7918 258.066 22.8818 257.456 23.171C256.794 23.4859 256.319 23.9807 255.94 24.5976C255.785 24.8482 255.965 25.2145 256.209 25.3301C256.511 25.4651 256.781 25.3109 256.942 25.0602H256.948Z" fill="#2F0B3B"/>
<path d="M251.404 25.6449C251.385 27.8233 251.289 30.0017 251.122 32.1738C251.096 32.4694 251.263 32.7585 251.571 32.8099C251.841 32.8549 252.182 32.6557 252.207 32.3601C252.381 30.0917 252.477 27.8169 252.503 25.5356C252.503 25.24 252.169 25.0151 251.899 25.0408C251.578 25.073 251.411 25.3428 251.404 25.6449Z" fill="#2F0B3B"/>
<path d="M247.826 22.3228C248.43 22.2842 249.021 22.0529 249.079 21.2817C249.124 20.7227 248.745 20.3242 248.314 20.1058C247.171 19.5146 245.648 19.6881 244.55 20.2343C244.029 20.4913 243.445 20.999 243.535 21.7251C243.644 22.5862 244.312 22.8754 244.961 22.7083C245.912 22.4641 246.843 22.387 247.826 22.3228Z" fill="#2F0B3B"/>
<path d="M260.211 20.2281C260.873 20.1832 261.515 19.9454 261.592 19.1743C261.65 18.6152 261.239 18.2232 260.77 18.0047C259.53 17.4264 257.866 17.6127 256.659 18.1654C256.087 18.4288 255.445 18.9429 255.541 19.6691C255.657 20.5302 256.376 20.8129 257.083 20.6394C258.123 20.3824 259.138 20.2988 260.211 20.2217V20.2281Z" fill="#2F0B3B"/>
<path d="M248.005 25.9537C248.352 26.7182 248.339 27.9647 247.613 28.5172C247.311 28.7485 246.913 28.7678 246.572 28.62C245.827 28.2859 245.346 26.8917 245.526 26.1464C245.68 25.5103 246.206 24.9257 246.913 25.0478C247.305 25.112 247.645 25.3754 247.863 25.7095C247.915 25.7866 247.96 25.8701 248.005 25.9601V25.9537Z" fill="#2F0B3B"/>
<path d="M259.594 24.5586C259.941 25.3232 259.928 26.5696 259.202 27.1222C258.9 27.3535 258.502 27.3727 258.162 27.225C257.417 26.8909 256.935 25.4967 257.115 24.7514C257.269 24.1153 257.796 23.5307 258.502 23.6527C258.894 23.717 259.234 23.9804 259.453 24.3145C259.504 24.3916 259.549 24.4751 259.594 24.5651V24.5586Z" fill="#2F0B3B"/>
<path d="M252.207 36.2735C253.646 36.3184 255.11 35.5475 255.894 34.3396C256.048 34.0954 256.074 33.7549 255.817 33.5622C255.598 33.4016 255.206 33.3823 255.039 33.6393C254.956 33.7742 254.86 33.9027 254.757 34.0248C254.712 34.0762 254.667 34.134 254.616 34.179C254.583 34.2111 254.551 34.2432 254.526 34.2753C254.461 34.3396 254.577 34.2304 254.513 34.2882C254.397 34.391 254.269 34.4938 254.14 34.5837C254.076 34.6287 254.012 34.6737 253.941 34.7122C253.909 34.7315 253.883 34.7508 253.851 34.7636C253.768 34.815 253.864 34.7636 253.813 34.7829C253.678 34.8472 253.543 34.9114 253.402 34.9628C253.325 34.9885 253.254 35.0142 253.177 35.0399C253.145 35.0527 253.113 35.0592 253.074 35.072C253.036 35.0849 252.958 35.1041 253.036 35.0849C252.727 35.1555 252.406 35.1812 252.091 35.1748C251.802 35.1684 251.558 35.5089 251.597 35.7788C251.642 36.1064 251.892 36.2606 252.201 36.2735H252.207Z" fill="#2F0B3B"/>
<path d="M263.828 81.9123C265.094 84.714 266.443 87.4837 267.83 90.2405C268.923 87.5801 269.983 84.9068 270.92 82.1822C270.689 81.0833 270.439 79.9909 270.156 78.9049C269.597 76.81 268.858 74.1496 268.91 70.416C268.948 67.9099 269.738 65.5386 269.552 62.9682C269.366 60.4492 268.338 57.8466 266.398 56.6128C265.312 55.9252 264.002 55.8288 262.858 56.3108C261.002 57.0884 260.655 58.8427 260.539 60.5392C260.321 63.855 261.188 66.464 262.017 69.5357C263.109 73.5969 263.571 77.7418 263.835 81.9123H263.828Z" fill="#2F0B3B"/>
<path d="M263.52 70.5057C263.571 70.1137 263.738 69.9273 264.066 69.7859C264.169 69.741 264.278 69.7088 264.394 69.6767C264.271 69.7088 264.477 69.6574 264.503 69.6574C264.573 69.6446 264.644 69.6317 264.715 69.6253C264.843 69.6124 264.972 69.5996 265.1 69.5932C265.158 69.5932 265.216 69.5932 265.267 69.5932C265.287 69.5932 265.498 69.5932 265.409 69.5932C265.961 69.6124 266.514 69.696 267.047 69.8116C267.272 69.8631 267.496 69.9145 267.721 69.9787C267.747 69.9851 267.933 70.043 267.792 69.998C267.83 70.0109 267.869 70.0237 267.901 70.0366C267.985 70.0623 268.075 70.0944 268.158 70.1265C268.82 70.3771 269.276 69.3747 268.614 69.1241C267.83 68.822 266.982 68.6357 266.147 68.5457C265.19 68.4429 264.098 68.43 263.263 68.9763C262.8 69.2783 262.511 69.7731 262.441 70.3193C262.344 71.0197 263.43 71.2061 263.526 70.5057H263.52Z" fill="#9E9898"/>
<path d="M278.456 38.446L274.743 35.8242C274.454 35.6185 274.049 35.7085 273.876 36.0169C272.25 38.8958 264.953 51.7351 261.554 56.4133C261.554 56.4133 266.976 61.7984 272.026 66.1809C277.075 70.5635 278.456 38.446 278.456 38.446Z" fill="#EEEEEE"/>
<path d="M273.105 67.1386C272.707 67.1771 272.212 67.0743 271.666 66.5988C266.655 62.2484 261.452 56.9147 261.4 56.8633C261.214 56.6705 261.195 56.3749 261.349 56.1564C264.24 52.1787 269.732 42.3147 272.373 37.5722C272.803 36.7947 273.156 36.1713 273.388 35.7536C273.548 35.4709 273.818 35.2717 274.133 35.201C274.448 35.1303 274.782 35.201 275.052 35.3874L278.765 38.0092C278.919 38.1184 279.002 38.2984 278.996 38.4847C278.996 38.549 278.701 45.1678 277.93 51.9152C276.336 65.8341 274.249 66.7338 273.561 67.0294C273.426 67.0872 273.266 67.1386 273.086 67.1514L273.105 67.1386ZM262.512 56.4199C263.719 57.6473 268.126 62.0684 272.386 65.7698C272.816 66.1426 273.041 66.0462 273.137 66.0012C275.771 64.8702 277.435 48.7986 277.891 38.7225L274.422 36.2742L274.351 36.287C274.12 36.6983 273.773 37.3216 273.336 38.0992C270.767 42.7131 265.499 52.1723 262.512 56.4135V56.4199Z" fill="#2F0B3B"/>
<path d="M330.928 83.081L276.522 44.5246C287.032 40.9902 298.171 37.4173 309.002 39.7757C314.058 40.881 318.741 43.2265 323.335 45.6234C346.853 57.8844 369.479 71.8547 390.987 87.3801L330.928 83.081Z" fill="#3040B4"/>
<path d="M379.552 160.001C374.317 145.189 366.094 131.45 355.533 119.832L326.881 71.2377L287.784 46.3238L289.583 40.4568C289.66 40.1998 289.557 39.917 289.326 39.7756C285.966 37.7643 281.867 36.5433 278.006 35.7979C277.659 35.7336 277.319 35.9328 277.203 36.2606C276.927 37.0253 276.709 37.9121 276.4 38.7539C275.385 41.53 274.492 44.3639 273.741 47.2235C273.741 47.2363 273.741 47.2492 273.728 47.262C272.263 52.8334 271.203 59.9535 270.753 65.7755C270.734 65.9748 270.728 66.174 270.708 66.3732L270.741 66.4824C270.702 70.3059 270.779 74.1423 270.953 78.0044C271.614 92.0261 275.617 104.049 281.867 116.574C290.835 134.554 301.615 151.583 313.191 168.002C317.502 174.113 321.941 180.16 326.997 185.667C330.408 189.381 337.931 199.476 343.52 195.679C351.254 190.441 358.7 184.774 365.824 178.72C369.389 175.7 372.865 172.577 376.257 169.364C379.559 166.234 381.242 164.801 379.54 159.995L379.552 160.001Z" fill="#3040B4"/>
<path d="M290.058 40.6114C290.264 39.4675 289.319 39.1141 288.452 38.6578C287.354 38.0795 286.21 37.5847 285.041 37.1541C283.865 36.7172 282.658 36.3445 281.443 36.0231C280.338 35.7275 279.041 35.2456 277.897 35.252C276.831 35.2584 276.619 36.2738 276.362 37.1156C275.951 38.4522 275.456 39.7567 275.013 41.0805C274.197 43.516 273.471 45.9771 272.867 48.4705C271.672 53.4121 270.901 58.4694 270.407 63.5203C270.169 65.9687 270.175 68.3849 270.208 70.8525C270.24 73.6735 270.31 76.4946 270.484 79.3092C271.133 89.8415 273.901 100.059 278.071 109.724C282.388 119.723 287.797 129.323 293.367 138.667C299.02 148.145 305.091 157.373 311.412 166.415C314.566 170.926 317.765 175.418 321.209 179.717C323.862 183.032 326.701 186.201 329.534 189.369C331.847 191.952 334.372 194.689 337.539 196.225C338.836 196.855 340.32 197.253 341.766 196.99C343.77 196.624 345.479 195.03 347.098 193.893C356.284 187.46 365.053 180.423 373.328 172.847C375.075 171.247 376.861 169.66 378.505 167.957C379.533 166.89 380.458 165.676 380.702 164.178C381.017 162.251 380.266 160.342 379.617 158.562C378.73 156.152 377.773 153.768 376.732 151.416C372.595 142.066 367.257 133.243 360.878 125.256C359.304 123.283 357.672 121.368 355.976 119.504C355.507 118.984 354.608 119.626 355.089 120.153C361.7 127.44 367.417 135.537 372.023 144.232C374.317 148.557 376.347 153.023 378.088 157.598C378.801 159.474 379.848 161.595 379.662 163.664C379.533 165.155 378.595 166.299 377.587 167.334C374.028 170.984 370.116 174.351 366.242 177.66C362.207 181.105 358.077 184.44 353.837 187.634C351.743 189.214 349.623 190.763 347.483 192.28C346.372 193.07 345.248 193.848 344.124 194.619C343.391 195.12 342.691 195.66 341.811 195.865C338.746 196.592 335.689 193.944 333.633 192.035C331.256 189.825 329.213 187.293 327.035 184.89C323.515 181.002 320.284 176.857 317.187 172.622C310.988 164.14 305.091 155.413 299.482 146.532C293.816 137.549 288.484 128.353 283.653 118.887C279.047 109.865 275.077 100.509 273.06 90.5355C272.038 85.4782 271.569 80.3695 271.396 75.2222C271.306 72.504 271.268 69.7857 271.287 67.0675C271.3 64.9212 271.569 62.7428 271.833 60.59C272.417 55.8669 273.24 51.1501 274.486 46.5555C275.212 43.8951 276.111 41.3118 276.998 38.7028C277.191 38.1438 277.345 37.5783 277.525 37.0192C277.602 36.7878 277.64 36.4344 277.91 36.3445C278.116 36.2738 278.662 36.4922 278.88 36.5372C280.056 36.7878 281.219 37.077 282.368 37.4176C283.57 37.771 284.758 38.1952 285.915 38.6835C286.377 38.8763 289.062 39.8467 288.96 40.425C288.831 41.1254 289.917 41.3054 290.045 40.6114H290.058Z" fill="#2F0B3B"/>
<path d="M302.045 38.5418C296.116 40.9709 292.769 47.4612 291.645 53.4567C290.398 60.1077 291.163 67.1121 293.675 73.3904C295.088 76.9183 297.06 80.2213 299.527 83.1131C299.983 83.6464 300.876 83.0038 300.413 82.464C296.186 77.5095 293.463 71.3598 292.525 64.9209C291.625 58.7325 292.203 51.9659 295.287 46.4266C296.912 43.5092 299.302 40.8552 302.437 39.57C303.092 39.3001 302.694 38.2719 302.039 38.5418H302.045Z" fill="#2F0B3B"/>
<path d="M275.508 51.0727C278.116 52.178 280.653 53.4504 283.101 54.8769C283.698 55.2239 284.289 55.5774 284.874 55.9437C285.401 56.2714 285.844 56.6505 285.825 57.3317C285.806 57.9615 285.574 58.6362 285.452 59.2595C285.311 59.9857 285.176 60.7054 285.047 61.4315C284.065 66.958 283.416 72.5422 283.114 78.1458C282.504 89.3464 283.229 100.618 285.304 111.645C286.467 117.82 288.048 123.919 290.039 129.882C290.264 130.557 291.292 130.158 291.067 129.484C289.262 124.073 287.791 118.546 286.679 112.956C285.574 107.397 284.81 101.768 284.386 96.1131C283.962 90.426 283.885 84.7068 284.167 79.0069C284.45 73.3455 285.073 67.697 286.05 62.1127C286.294 60.7182 286.57 59.3238 286.846 57.9358C286.968 57.3317 286.949 56.7341 286.666 56.175C286.371 55.6031 285.908 55.2882 285.375 54.9541C282.972 53.4568 280.486 52.1073 277.917 50.9249C277.274 50.6293 276.625 50.3401 275.977 50.0638C275.321 49.7875 274.865 50.79 275.52 51.0663L275.508 51.0727Z" fill="#2F0B3B"/>
<path d="M278.886 52.1395C281.61 51.0857 284.263 49.8454 286.827 48.4381C287.366 48.1425 287.861 47.8084 288.156 47.2493C288.465 46.6645 288.593 45.9512 288.767 45.315C289.184 43.8178 289.602 42.3205 290.026 40.8232C290.219 40.142 289.127 39.9621 288.94 40.6369C288.561 41.9863 288.182 43.3358 287.803 44.6853C287.623 45.3279 287.501 46.0476 287.219 46.6581C286.962 47.2043 286.345 47.4549 285.837 47.7248C283.46 49.0036 281 50.1346 278.482 51.1114C277.82 51.3684 278.218 52.3966 278.88 52.1395H278.886Z" fill="#2F0B3B"/>
<path d="M337.038 87.4641C331.648 86.6223 326.284 85.6391 320.945 84.5338C319.172 82.3232 316.423 80.1255 315.305 79.4508C313.095 78.1206 310.712 77.1952 308.322 76.2763C307.654 76.0193 306.954 75.8008 306.234 75.6465C304.448 75.261 302.585 75.2931 300.966 76.2506C298.454 77.735 296.232 80.2862 294.651 82.7409C293.437 83.1779 292.313 83.8012 291.394 84.6623C290.315 85.6712 289.833 88.2352 291.311 89.1156C291.491 89.2248 291.683 89.302 291.883 89.3662C290.392 91.1077 290.938 94.0765 293.135 94.6485C292.891 94.9119 292.679 95.2204 292.525 95.5995C292.088 96.6598 292.05 97.7587 292.808 98.7033C293.026 98.9732 293.29 99.1981 293.591 99.3716C293.97 99.5965 294.407 99.7379 294.876 99.8214C294.42 100.785 294.407 101.961 295.095 102.822C295.911 103.844 297.478 104.05 298.692 104.14C303.748 104.538 311.566 104.326 316.628 103.902C316.821 103.883 316.995 103.851 317.155 103.806C323.74 105.83 330.318 107.86 336.903 109.885L337.044 87.4577L337.038 87.4641Z" fill="#EEEEEE"/>
<path d="M337.128 86.924C331.738 86.0822 326.374 85.0925 321.036 83.9937C321.151 84.0644 321.273 84.1415 321.389 84.2122C320.47 83.0812 319.429 82.0466 318.331 81.0891C317.483 80.3501 316.603 79.6239 315.646 79.0263C314.303 78.1974 312.864 77.5226 311.412 76.9186C309.941 76.3017 308.444 75.6591 306.896 75.2478C305.348 74.8365 303.697 74.7144 302.136 75.1578C300.677 75.5691 299.386 76.5716 298.275 77.574C297.131 78.6086 296.103 79.7589 295.185 80.9991C294.966 81.2883 294.761 81.5903 294.555 81.8924C294.478 82.008 294.401 82.2008 294.305 82.2843C294.189 82.3807 293.951 82.4321 293.804 82.49C293.136 82.7792 292.48 83.1326 291.889 83.5567C290.778 84.3535 289.994 85.3946 289.859 86.7955C289.724 88.1771 290.29 89.4109 291.658 89.8735C291.594 89.5908 291.523 89.308 291.459 89.0253C289.795 91.0431 290.36 94.4425 293.046 95.1943C292.936 94.8987 292.821 94.6031 292.712 94.3011C291.844 95.2779 291.433 96.7173 291.812 97.9897C292.217 99.3456 293.463 100.117 294.787 100.367C294.652 100.11 294.517 99.8532 294.375 99.5962C293.605 101.312 294.118 103.265 295.872 104.094C297.286 104.763 299.001 104.737 300.536 104.808C304.23 104.975 307.943 104.923 311.637 104.769C312.607 104.731 313.584 104.679 314.554 104.615C315.479 104.557 316.455 104.564 317.354 104.326C317.213 104.326 317.072 104.319 316.924 104.313C323.509 106.337 330.087 108.368 336.672 110.392C337.089 110.521 337.443 110.283 337.449 109.833C337.462 107.314 337.481 104.788 337.494 102.269C337.52 98.2339 337.545 94.1983 337.571 90.1691C337.571 89.2502 337.584 88.3249 337.59 87.4059C337.59 86.6991 336.498 86.8147 336.498 87.5152C336.486 90.0342 336.466 92.5596 336.453 95.0787L336.376 107.179C336.376 108.098 336.363 109.023 336.357 109.942C336.614 109.756 336.877 109.569 337.134 109.383C333.787 108.349 330.434 107.32 327.087 106.286C325.43 105.772 323.766 105.264 322.108 104.75C321.267 104.493 320.419 104.229 319.577 103.972C319.198 103.857 318.819 103.741 318.44 103.625C318.055 103.503 317.586 103.272 317.181 103.259C316.898 103.253 316.571 103.355 316.282 103.375C315.973 103.4 315.665 103.426 315.357 103.445C314.714 103.49 314.078 103.529 313.436 103.568C312.067 103.645 310.699 103.702 309.331 103.741C306.556 103.818 303.767 103.844 300.992 103.722C299.682 103.664 298.307 103.664 297.029 103.33C296.405 103.169 295.776 102.867 295.423 102.308C294.986 101.614 295.069 100.759 295.39 100.04C295.538 99.7119 295.333 99.3327 294.979 99.2685C294.029 99.0885 293.123 98.5744 292.846 97.5784C292.602 96.6723 292.975 95.6634 293.572 94.9823C293.874 94.6417 293.611 94.1983 293.238 94.089C291.337 93.5557 291.234 91.0174 292.32 89.7C292.525 89.4494 292.461 88.9675 292.121 88.8518C291.433 88.6205 291.035 88.2156 290.958 87.4766C290.894 86.8404 291.054 86.1657 291.362 85.6066C291.716 84.964 292.377 84.5142 292.988 84.1286C293.36 83.8973 293.746 83.6981 294.144 83.5246C294.33 83.441 294.523 83.3704 294.716 83.2932C294.986 83.184 295.095 83.0619 295.256 82.8177C296.29 81.2497 297.485 79.7589 298.879 78.493C300.298 77.2077 301.879 76.0703 303.851 75.9611C305.862 75.8518 307.744 76.6165 309.581 77.3363C311.419 78.056 313.243 78.8335 314.939 79.8489C316.14 80.5686 317.226 81.5196 318.254 82.4643C318.909 83.0683 319.545 83.7045 320.13 84.3857C320.271 84.5463 320.4 84.7455 320.56 84.8933C320.746 85.0668 320.978 85.0861 321.215 85.1311C321.742 85.2403 322.275 85.3496 322.802 85.4524C327.505 86.397 332.22 87.2453 336.961 87.9907C337.661 88.0999 337.847 87.0139 337.147 86.9047L337.128 86.924Z" fill="#2F0B3B"/>
<path d="M294.787 83.2551C298.641 82.5097 302.643 82.2141 306.549 82.6768C307.249 82.7603 307.436 81.6743 306.735 81.5907C302.733 81.1216 298.628 81.398 294.677 82.1627C293.99 82.2976 294.093 83.3965 294.787 83.2551Z" fill="#2F0B3B"/>
<path d="M340.244 95.1434C339.877 93.6782 339.434 92.2388 338.914 90.825C338.471 89.6169 338.021 87.7791 337.205 86.7766C336.402 85.7934 335.894 85.3693 334.725 84.8873C333.312 84.309 333.023 84.2961 331.552 83.8849C330.081 83.4672 326.046 82.7603 324.543 82.5161C324.389 82.4904 323.83 82.4005 323.162 82.2976C321.871 82.0984 320.913 83.48 321.556 84.611C322.269 85.8641 323.008 87.1172 323.509 88.4924C324.408 90.9343 325.006 93.4726 325.372 96.0494C325.719 98.4849 325.866 100.946 325.886 103.407C325.898 104.603 325.879 105.798 325.841 106.999C325.809 108.015 325.442 109.512 325.731 110.489C326.168 111.986 329.29 112.866 330.595 113.438C332.111 114.113 333.659 114.717 335.233 115.244C336.376 115.63 337.989 116.69 339.062 115.72C339.518 115.308 339.781 114.73 339.993 114.152C340.79 112.018 340.77 110.013 340.924 107.796C341.066 105.811 341.695 104.217 341.387 102.218C341.021 99.8408 340.828 97.4953 340.237 95.1498L340.244 95.1434Z" fill="#EEEEEE"/>
<path d="M340.751 94.9438C340.321 93.2345 339.729 91.583 339.177 89.9122C338.727 88.5499 338.297 87.1876 337.333 86.0887C335.708 84.238 333.093 83.6532 330.774 83.1263C328.539 82.6186 326.265 82.2266 323.997 81.8668C323.29 81.7575 322.616 81.6097 321.948 81.9567C321.376 82.2523 320.965 82.7921 320.83 83.4219C320.676 84.1609 320.99 84.7457 321.344 85.369C321.787 86.153 322.23 86.937 322.603 87.7595C324.125 91.1268 324.781 94.9503 325.102 98.6067C325.275 100.515 325.339 102.437 325.333 104.358C325.333 105.264 325.333 106.177 325.282 107.083C325.237 107.828 325.102 108.561 325.07 109.306C325.044 109.929 325.083 110.572 325.41 111.118C325.686 111.581 326.123 111.941 326.573 112.23C327.581 112.885 328.725 113.284 329.836 113.721C331.346 114.312 332.817 114.98 334.346 115.52C335.053 115.771 335.727 116.06 336.427 116.317C337.07 116.555 337.764 116.76 338.451 116.613C340.006 116.285 340.558 114.383 340.892 113.053C341.303 111.414 341.329 109.724 341.445 108.047C341.56 106.395 342.036 104.782 342.004 103.124C341.984 102.237 341.798 101.344 341.682 100.464C341.554 99.5192 341.438 98.5746 341.284 97.6364C341.136 96.7303 340.957 95.8306 340.738 94.9374C340.571 94.2498 339.543 94.6547 339.71 95.3358C340.134 97.058 340.346 98.8188 340.584 100.573C340.693 101.402 340.867 102.237 340.905 103.073C340.937 103.812 340.828 104.551 340.712 105.283C340.455 106.845 340.346 108.387 340.231 109.962C340.115 111.485 339.909 113.046 339.267 114.447C338.997 115.032 338.599 115.597 337.886 115.559C337.256 115.527 336.652 115.218 336.081 114.98C334.635 114.37 333.126 113.914 331.68 113.303C330.62 112.853 329.541 112.455 328.494 111.992C327.729 111.658 326.496 111.17 326.239 110.276C326.059 109.64 326.194 108.908 326.271 108.265C326.354 107.552 326.393 106.845 326.412 106.125C326.451 104.358 326.444 102.591 326.361 100.824C326.194 97.36 325.725 93.9028 324.761 90.5613C324.299 88.9547 323.721 87.4061 322.918 85.9345C322.738 85.6003 322.551 85.2662 322.359 84.932C322.192 84.6364 321.948 84.3151 321.896 83.9681C321.825 83.4476 322.198 82.9399 322.706 82.8371C323.226 82.7343 323.894 82.9592 324.414 83.0492C324.832 83.1199 325.25 83.1905 325.667 83.2612C326.836 83.4669 328.012 83.6789 329.175 83.9103C330.203 84.1159 331.211 84.3665 332.22 84.6364C333.325 84.932 334.507 85.2533 335.477 85.8831C336.505 86.545 337.173 87.6053 337.597 88.7234C338.123 90.0986 338.592 91.5123 339.029 92.9196C339.28 93.7229 339.511 94.5326 339.717 95.3487C339.89 96.0363 340.918 95.6314 340.745 94.9503L340.751 94.9438Z" fill="#2F0B3B"/>
<path d="M390.988 87.3803C396.371 91.2681 401.054 95.4322 402.795 102.077C403.817 105.984 403.444 110.141 402.538 114.081C401.53 118.444 399.802 122.762 396.705 126.001C392.671 130.217 386.696 132.144 380.87 132.35C375.043 132.556 369.274 131.206 363.64 129.709C354.165 127.19 343.719 123.855 334.52 120.455C334.52 120.455 342.331 97.4436 330.935 83.0813L390.994 87.3803H390.988Z" fill="#3040B4"/>
<path d="M364.122 130.352C370.019 132.08 376.026 133.308 382.206 132.819C387.955 132.363 393.782 130.191 397.656 125.764C399.602 123.54 400.977 120.867 401.947 118.091C402.981 115.128 403.688 111.986 403.893 108.85C404.105 105.65 403.72 102.456 402.512 99.4746C401.497 96.962 399.962 94.7 398.118 92.7208C396.255 90.7287 394.135 89 391.945 87.3935C389.253 85.4143 386.516 83.4929 383.773 81.5844C378.21 77.7094 372.576 73.9373 366.871 70.268C361.212 66.6309 355.488 63.0901 349.7 59.665C343.899 56.2271 338.027 52.8919 332.104 49.666C329.13 48.0467 326.142 46.4594 323.136 44.8979C320.206 43.3749 317.245 41.8905 314.148 40.7402C311.046 39.59 307.834 38.8252 304.532 38.5746C301.146 38.3176 297.748 38.5425 294.401 39.0759C292.73 39.3393 291.067 39.6863 289.422 40.0783C288.741 40.239 288.844 41.3378 289.531 41.1708C296.058 39.6221 302.887 38.8831 309.485 40.451C315.767 41.9419 321.517 45.2577 327.17 48.2652C338.804 54.4535 350.22 61.0659 361.379 68.0832C366.948 71.5854 372.46 75.1904 377.901 78.8854C380.651 80.7554 383.381 82.6511 386.099 84.5661C388.559 86.3075 391.058 88.0233 393.416 89.9061C397.636 93.2862 401.266 97.4889 402.429 102.906C403.135 106.177 402.898 109.563 402.242 112.822C401.671 115.675 400.81 118.502 399.48 121.098C398.15 123.688 396.307 125.969 393.936 127.679C391.611 129.362 388.9 130.48 386.105 131.123C380.445 132.421 374.471 131.862 368.882 130.512C367.347 130.14 365.824 129.716 364.308 129.272C363.627 129.073 363.454 130.159 364.122 130.358V130.352Z" fill="#2F0B3B"/>
<path d="M330.569 113.727C331 115.623 331.424 117.576 332.426 119.26C332.946 120.134 333.646 120.815 334.565 121.265C335.741 121.843 337.083 122.132 338.336 122.518C343.829 124.195 349.328 125.866 354.827 127.53C357.923 128.468 361.026 129.413 364.129 130.351C364.418 130.441 364.713 130.165 364.765 129.901C364.823 129.58 364.598 129.355 364.315 129.265C358.989 127.652 353.67 126.039 348.351 124.42C345.717 123.623 343.09 122.82 340.456 122.017C339.171 121.625 337.88 121.239 336.595 120.841C335.58 120.526 334.52 120.185 333.82 119.331C332.528 117.756 332.105 115.546 331.668 113.611C331.513 112.93 330.415 113.033 330.576 113.721L330.569 113.727Z" fill="#2F0B3B"/>
<path d="M387.056 89.9252C380.536 89.1412 374.022 88.3444 367.508 87.5218C361.719 86.7893 355.931 86.031 350.15 85.2534C347.066 84.8357 343.982 84.4181 340.899 83.9875C339.229 83.7562 337.558 83.5248 335.888 83.2935C334.995 83.1714 334.102 83.0429 333.209 82.9208C332.798 82.8629 332.38 82.8051 331.969 82.7473C331.577 82.6894 331.186 82.6252 330.896 82.9593C330.363 83.5762 331.141 84.2895 331.481 84.7779C331.918 85.4077 332.323 86.0567 332.702 86.725C333.428 88.0102 334.038 89.3597 334.545 90.7477C335.528 93.4403 336.106 96.2677 336.389 99.1209C336.877 104.082 336.485 109.113 335.554 114.004C335.464 114.466 335.374 114.929 335.278 115.392C335.13 116.086 336.216 116.266 336.363 115.578C337.333 110.996 337.841 106.286 337.661 101.601C337.443 95.9207 336.145 90.2015 333.145 85.3177C332.952 85.0028 332.747 84.6879 332.541 84.3795C332.368 84.1225 332.143 83.6405 331.892 83.4606C331.879 83.4413 331.86 83.422 331.847 83.4027C331.52 83.6791 331.468 83.8204 331.699 83.8269C331.757 83.859 331.899 83.8526 331.969 83.8654C332.207 83.8975 332.445 83.9297 332.682 83.9682C333.119 84.0325 333.556 84.0903 333.993 84.1546C335.67 84.3924 337.353 84.6237 339.029 84.855C342.113 85.2856 345.197 85.7097 348.287 86.1274C354.004 86.9049 359.728 87.6568 365.452 88.3829C371.703 89.1798 377.953 89.9445 384.204 90.7028C385.097 90.812 385.983 90.9212 386.876 91.0241C387.576 91.1076 387.763 90.0216 387.063 89.9381L387.056 89.9252Z" fill="#2F0B3B"/>
<path d="M367.071 88.4214C368.658 87.0977 370.283 85.8125 372.037 84.7136C373.784 83.6147 375.641 82.7087 377.523 81.8604C378.165 81.5712 377.773 80.5431 377.125 80.8322C375.197 81.6998 373.296 82.6315 371.497 83.7561C369.705 84.8742 368.041 86.1787 366.422 87.5346C365.882 87.9845 366.525 88.8777 367.071 88.4214Z" fill="#2F0B3B"/>
<path d="M347.606 124.619C348.602 123.578 349.205 122.255 349.758 120.944C350.343 119.562 350.85 118.148 351.287 116.709C352.167 113.83 352.732 110.855 352.931 107.847C353.285 102.507 352.437 97.1286 350.426 92.1612C349.366 89.5522 347.972 87.0139 346.058 84.9255C345.582 84.4114 344.689 85.054 345.171 85.5745C348.486 89.1924 350.343 94.1147 351.281 98.87C352.347 104.255 352.019 109.807 350.606 115.102C350.182 116.702 349.649 118.27 349.032 119.8C348.447 121.252 347.844 122.775 346.745 123.925C346.257 124.439 347.111 125.133 347.599 124.619H347.606Z" fill="#2F0B3B"/>
<path d="M2.66841 328.063C32.6755 320.969 62.9331 314.935 93.332 309.787C123.872 304.614 154.554 300.315 185.313 296.659C215.936 293.022 246.637 290.008 277.37 287.386C308.103 284.764 338.894 282.528 369.678 280.446C400.431 278.364 431.189 276.43 461.942 274.412C465.725 274.161 469.503 273.911 473.287 273.66C475.336 273.525 475.355 270.312 473.287 270.447C442.393 272.503 411.487 274.444 380.593 276.5C349.699 278.557 319.024 280.729 288.278 283.261C257.533 285.792 226.523 288.716 195.726 292.238C165.115 295.734 134.575 299.827 104.163 304.756C73.5843 309.71 43.1339 315.513 12.9277 322.389C9.22101 323.231 5.5143 324.092 1.814 324.966C-0.196748 325.441 0.65766 328.539 2.66841 328.063Z" fill="#DB1B77"/>
</svg>
