<svg width="805" height="713" viewBox="0 0 805 713" fill="none" xmlns="http://www.w3.org/2000/svg">
<g clip-path="url(#clip0_200_1316)">
<path d="M231.762 460.662L260.672 430.892C260.672 430.892 233.126 418.673 232.144 420.083C231.161 421.493 231.762 460.662 231.762 460.662Z" fill="white" stroke="black" stroke-width="3" stroke-miterlimit="10"/>
<path d="M638.451 194.742C638.451 194.742 651.029 245.284 659.408 299.602C660.462 306.436 660.887 314.416 656.457 317.618C645.035 325.862 609.047 295.638 579.626 267.937C578.339 255.126 577.057 242.314 575.77 229.503C567.828 218.589 568.88 204.646 576.68 197.279C584.447 189.938 595.783 192.078 597.019 192.329C610.828 193.134 624.643 193.941 638.452 194.746L638.451 194.742Z" fill="white" stroke="black" stroke-width="3" stroke-miterlimit="10"/>
<path d="M510.704 569.897C516.997 582.559 510.608 597.866 497.171 602.316C491.254 604.275 485.983 606.021 481.427 607.53C405.608 632.638 336.816 621.955 281.451 598.952C279.636 579.336 281.562 555.934 284.084 539.56C289.198 506.358 296.284 486.041 319.137 463.502C338.338 444.566 418.661 432.596 430.708 445.773C431.243 446.353 470.915 489.852 510.704 569.897Z" fill="black"/>
<path d="M410.377 620.452C409.728 606.151 408.964 591.857 407.839 577.586C406.628 562.268 404.995 546.988 402.934 531.763C401.587 521.817 400.063 511.894 398.408 501.993C398.186 500.675 396.087 500.771 396.307 502.101C399.112 518.845 401.518 535.655 403.374 552.534C404.972 567.074 406.145 581.657 407.026 596.26C407.515 604.356 407.913 612.457 408.281 620.558C408.344 621.908 410.44 621.803 410.381 620.451L410.377 620.452Z" fill="#505154"/>
<path d="M418.648 222.063C431.922 167.135 397.018 158.139 383.122 156.78C381.011 155.632 378.918 154.463 376.946 153.1C374.975 151.742 373.092 150.201 371.619 148.304C369.837 146.003 368.744 143.336 367.848 140.583C366.028 134.995 364.754 129.415 361.655 124.342C358.904 119.84 355.072 115.879 350.671 112.967C340.109 105.975 326.415 104.821 314.857 110.101C314.452 110.286 314.153 110.544 313.928 110.839C304.964 109.166 295.162 112.991 288.526 119.092C278.679 128.15 275.046 141.833 272.556 154.497C270.022 167.371 268.304 181.254 260.443 192.207C252.628 203.1 240.567 209.847 231.616 219.677C218.133 234.488 208.315 252.2 215.597 281.645C218.577 293.69 240.853 283.515 249.607 282.002C263.547 279.596 276.501 272.963 288.97 266.582C295.444 263.272 301.609 259.291 308.412 256.649C315.165 254.024 322.267 253.432 329.452 253.351C336.698 253.269 343.939 253.542 351.147 252.634C358.384 251.721 365.548 249.906 372.35 247.26C379.242 244.578 386.27 241.1 392.008 236.37C396.193 232.922 399.685 228.604 400.833 223.393C400.924 223.389 401.012 223.39 401.099 223.377C401.029 223.814 400.956 224.258 400.886 224.696C400.382 227.907 405.009 228.565 405.8 225.509C407.339 219.56 408.454 213.415 409.084 207.306C409.71 201.23 409.836 195.007 408.74 188.974C406.974 179.249 402.061 170.413 394.609 164.074C419.227 174.178 416.626 198.065 416.626 198.065L418.641 222.06L418.648 222.063Z" fill="black"/>
<path d="M418.13 234.095C407.969 222.56 400.75 211.791 388.202 202.929C385.727 201.18 364.438 209.694 354.264 214.577C347.97 217.598 348.076 218.428 341.8 221.483C328.795 227.811 314.962 232.254 300.846 235.301C295.359 236.489 289.83 237.471 284.282 238.289C280.034 245.754 276.164 253.401 272.634 261.099C265.75 276.119 260.309 291.752 256.095 307.719C255.236 310.972 254.42 314.291 253.682 317.647C253.747 318.045 253.794 318.449 253.864 318.845C255.219 335.512 257.389 352.149 261.459 368.383C265.507 384.521 271.407 400.25 279.98 414.552C288.108 428.116 298.457 440.387 311.19 449.853C317.414 454.479 324.311 458.571 331.864 460.562C339.367 462.539 347.248 462.487 354.79 460.701C370.479 456.989 411.672 436.686 418.587 423.278C425.235 410.392 430.257 370.124 434.693 356.329C439.174 342.406 442.561 328.119 444.911 313.684C446.817 301.976 448.013 290.154 448.551 278.305C439.903 262.584 430.007 247.58 418.131 234.1L418.13 234.095Z" fill="white"/>
<path d="M336.912 254.734C340.995 266.229 344.643 277.88 347.978 289.618C351.707 302.736 355.044 315.968 358.018 329.279C361.091 343.028 363.773 356.866 365.992 370.775C368.135 384.223 369.853 397.746 370.933 411.326C371.917 423.7 372.396 436.144 371.922 448.555C371.867 449.965 371.8 451.374 371.719 452.782C371.643 454.133 373.744 454.01 373.819 452.675C374.514 440.482 374.217 428.249 373.392 416.074C372.475 402.526 370.884 389.028 368.858 375.608C366.758 361.705 364.185 347.872 361.221 334.128C358.309 320.617 355.024 307.184 351.346 293.865C348.021 281.832 344.386 269.88 340.308 258.076C339.845 256.74 339.379 255.41 338.907 254.078C338.455 252.805 336.46 253.461 336.913 254.738L336.912 254.734Z" fill="black"/>
<path d="M300.243 459.438L305.164 489.179C305.164 489.179 365.953 478.479 431.098 448.11L421.45 418.977C421.45 418.977 373.441 449.924 300.237 459.435L300.243 459.438Z" fill="black"/>
<path d="M224.706 368.207C223.503 366.784 222.304 365.359 221.095 363.938C215.772 369.098 136.017 447.981 111.682 483.584C99.4569 501.468 106.551 531.614 125.923 543.292C127.022 543.24 128.119 543.148 129.197 543.032C143.292 541.47 156.97 535.027 169.232 528.203C186.316 518.698 201.681 506.523 216.583 493.939C227.856 484.424 238.868 474.463 249.478 464.093C247.658 456.539 226.875 376.827 224.705 368.202L224.706 368.207Z" fill="white" stroke="black" stroke-width="3" stroke-miterlimit="10"/>
<path d="M668.506 395.965C668.854 393.66 669.164 391.331 669.461 388.997C668.725 369.25 667.686 349.516 666.511 329.76C665.568 313.842 664.568 297.907 663.193 282.015C653.334 278.909 583.928 260.325 579.922 258.776C580.38 283.467 579.713 300.818 581.931 323.37C584.538 349.896 589.915 376.217 598.149 401.576C601.973 413.357 607.538 425.288 619.031 431.27C623.802 433.753 629.428 434.904 634.754 433.851C641.221 432.574 650.072 429.699 654.314 424.846C661.971 416.089 666.781 407.383 668.506 395.965Z" fill="white" stroke="black" stroke-width="3" stroke-miterlimit="10"/>
<path d="M223.74 376.069C229.654 370.293 235.606 364.541 241.432 358.672C245.529 377.429 249.643 396.18 253.792 414.925C257.825 433.136 261.894 451.334 265.955 469.535C277.629 469.522 289.296 468.298 300.839 466.589C311.448 465.015 322.032 463.229 332.376 460.469C331.574 448.255 330.687 436.049 329.689 423.848C327.206 393.551 324.152 363.294 320.529 333.113C319.517 324.673 318.466 316.241 317.355 307.813C316.313 299.92 316.437 267.966 316.437 267.966C310.074 267.034 295.499 266.452 295.499 266.452C295.499 266.452 276.778 281.488 270.985 286.42C272.169 276.803 274.597 264.338 277.179 253.157C248.517 257.583 225.367 269.092 207.243 283.532C182.222 303.468 156.272 356.654 147.928 372.771C139.634 388.791 131.907 405.114 125.035 421.793C118.209 438.365 112.232 455.3 107.419 472.567C102.77 489.246 98.2515 507.587 104.429 524.478C106.999 531.512 111.435 538.04 117.436 542.582C124.004 547.55 132.03 549.282 140.145 548.545C148.901 547.748 157.356 544.451 165.497 541.316C174.459 537.862 183.252 533.977 191.844 529.684C208.398 521.409 224.212 511.608 238.996 500.48C238.946 500.343 238.891 500.207 238.84 500.071C234.421 488.318 216.1 449.869 211.405 388.038C215.521 384.056 219.643 380.076 223.741 376.073L223.74 376.069Z" fill="#E0236B" stroke="black" stroke-width="3" stroke-miterlimit="10"/>
<path d="M580.132 283.477C578.781 282.523 543.46 256.817 516.591 237.593C515.501 236.977 514.413 236.354 513.325 235.743C501.039 228.836 488.35 222.472 475.634 216.383C463.049 210.353 450.117 204.893 436.515 201.605C418.731 197.307 401.39 197.344 384.31 202.499C376.845 204.751 370.734 207.532 370.734 207.532C382.43 215.258 392.49 227.415 403.943 236.915C397.027 236.893 382.975 238.031 377.397 238.154C377.456 238.273 366.364 253.776 366.364 253.776C366.364 253.776 400.05 392.356 404.018 423.968C404.29 426.15 404.542 428.333 404.803 430.513C423.152 421.239 440.867 410.747 458.305 399.82C457.952 396.698 457.584 393.576 457.209 390.461C456.284 382.765 455.294 375.075 454.241 367.395C452.183 352.363 449.894 337.362 447.377 322.4C461.442 338.716 476.808 353.92 493.102 367.998C512.286 384.569 532.84 399.554 554.505 412.729C574.86 425.104 597.505 437.356 621.971 437.599C633.4 437.713 645.071 435.245 655.095 429.633C665.134 424.017 672.922 415.487 677.262 404.804C681.614 394.081 682.537 382.252 682.302 370.792C682.018 357.02 678.257 330.737 677.922 329.323C652.617 317.006 580.129 283.484 580.129 283.484L580.132 283.477Z" fill="#E0236B" stroke="black" stroke-width="3" stroke-miterlimit="10"/>
<path d="M287.275 382.633C286.554 380.595 285.352 379.223 283.847 378.329C282.828 377.726 281.666 377.343 280.417 377.127C280.431 377.03 280.454 376.931 280.467 376.829C280.742 374.364 279.598 372.241 277.861 370.523C275.866 368.549 273.086 367.116 270.789 366.321C266.96 364.995 262.92 364.752 258.949 364.762C247.227 364.801 207.682 367.561 222.039 388.595C222.587 389.401 223.159 390.138 223.746 390.813C222.511 391.8 221.386 392.951 220.71 394.372C217.801 400.452 223.795 409.304 229.855 413.821C229.452 414.369 229.099 414.941 228.802 415.531C226.842 419.403 228.644 424.148 231.968 426.854C240.679 435.682 253.003 441.962 264.637 433.832C270.273 429.893 272.241 424.268 271.969 418.372C275.757 416.293 279.22 413.975 282.107 411.463C287.317 406.934 289.599 396.61 281.434 395.17C285.886 391.71 289.02 387.561 287.275 382.633Z" fill="white" stroke="black" stroke-width="3" stroke-miterlimit="10"/>
<path d="M353.545 186.453C349.672 187.47 346.536 184.574 344.639 181.165C349.792 181.121 355.015 180.589 360.016 179.342C359.715 180.368 359.327 181.361 358.78 182.31C357.6 184.359 355.75 185.872 353.545 186.453Z" fill="#FAE4D4"/>
<path d="M367.095 168.238C364.652 163.152 361.992 158.165 359.132 153.304C358.465 152.169 356.946 148.558 356.254 147.442C355.942 144.552 356.2 144.185 355.399 141.426C353.013 133.216 348.551 125.341 341.961 119.781C335.856 114.629 327.777 111.564 319.738 112.143C307.927 112.995 298.784 119.553 293.111 129.056C285.299 142.137 290.072 160.834 299.79 172.04C302.664 175.35 306.122 175.894 309.538 176.758C309.476 177.034 309.418 177.309 309.375 177.595C308.774 181.411 310.052 185.086 312.519 187.693L309.278 232.304C302.828 234.327 296.76 235.892 291.927 236.52C298.204 241.042 336.334 261.402 339.334 258.321C342.064 255.519 354.322 217.628 354.607 214.469C354.002 214.792 348.478 217.322 340.713 220.569L341.885 201.541C344.287 202.577 346.748 203.251 349.245 203.396C371.444 204.697 374.873 184.425 367.102 168.246L367.095 168.238Z" fill="white" stroke="black" stroke-width="3" stroke-miterlimit="10"/>
<path d="M315.113 182.796C308.068 167.492 299.014 165.859 297.327 168.746C284.236 191.159 266.711 215.019 246.773 231.635C241.964 235.643 237.282 239.787 232.748 244.098C231.01 243.691 228.978 245.428 229.79 247.354C229.451 248.572 230.39 249.786 231.618 250.106C236.799 257.119 244.095 262.495 252.237 265.612C262.049 269.367 272.431 269.271 282.768 267.434C320.604 260.706 336.361 212.825 315.11 182.802L315.113 182.796Z" fill="black"/>
<path d="M361.136 138.907C360.144 138.279 358.967 137.926 357.859 137.935C355.706 137.947 351.896 138.319 350.287 139.88C349.338 140.803 348.693 141.917 348.519 143.249C348.342 144.617 348.837 146.219 350.02 147.024C351.316 147.905 352.671 147.62 354.08 147.327C355.072 147.122 356.058 146.913 357.05 146.707C358.052 146.498 359.053 146.289 360.059 146.079C360.836 145.919 361.609 145.765 362.259 145.269C363.19 144.551 363.63 143.438 363.471 142.278C363.273 140.845 362.347 139.672 361.138 138.912L361.136 138.907Z" fill="black"/>
<path d="M325.634 153.304C326.199 154.329 327.223 154.962 328.392 154.98C329.205 154.992 329.922 154.652 330.641 154.317C331.569 153.887 332.497 153.456 333.43 153.025C334.349 152.598 335.264 152.177 336.183 151.75C337.488 151.144 338.746 150.563 339.26 149.083C339.73 147.735 339.169 146.151 338.211 145.158C337.277 144.194 336.094 143.685 334.781 143.51C332.559 143.218 329.286 145.197 327.546 146.469C326.651 147.124 325.917 148.109 325.496 149.205C324.984 150.536 324.938 152.035 325.633 153.299L325.634 153.304Z" fill="black"/>
<path d="M236.322 409.392C243.181 405.171 250.424 401.677 258.163 399.401C265.869 397.136 273.837 396.048 281.806 395.24C283.148 395.103 283.048 393.007 281.7 393.142C273.548 393.969 265.38 395.087 257.501 397.405C249.591 399.733 242.166 403.327 235.154 407.645C234.001 408.354 235.169 410.101 236.322 409.392Z" fill="black"/>
<path d="M272.416 418.331C273.04 417.352 273.738 416.476 274.524 415.786C274.69 415.639 274.857 415.491 275.023 415.344C274.686 415.44 274.348 415.532 274.017 415.631C266.106 417.959 258.681 421.554 251.67 425.871C250.517 426.581 251.684 428.328 252.837 427.618C259.019 423.811 265.52 420.599 272.413 418.337L272.416 418.331Z" fill="black"/>
<path d="M233.193 386.641C247.659 380.167 263.856 376.968 279.698 378.173C281.043 378.276 280.922 376.177 279.592 376.075C263.598 374.858 247.143 378.112 232.533 384.649C231.311 385.197 231.957 387.193 233.193 386.641Z" fill="black"/>
<path d="M440.849 263.785C443.133 282.39 445.417 300.996 447.705 319.6C447.871 320.936 449.969 320.835 449.806 319.492C447.522 300.887 445.238 282.282 442.949 263.678C442.783 262.341 440.686 262.442 440.849 263.785Z" fill="black"/>
<path d="M585.898 375.501C584.824 351.828 583.119 328.196 581.583 304.548C581.13 297.55 580.697 290.551 580.295 283.551C580.217 282.201 578.116 282.308 578.195 283.659C579.542 307.261 581.345 330.835 582.706 354.433C583.111 361.488 583.477 368.546 583.796 375.603C583.859 376.954 585.955 376.848 585.896 375.496L585.898 375.501Z" fill="black"/>
<path d="M132.741 473.043C149.667 448.398 169.579 425.825 191.945 405.974C198.283 400.35 204.825 394.955 211.538 389.784C212.604 388.966 211.449 387.21 210.371 388.037C186.613 406.343 165.079 427.515 146.425 450.996C141.101 457.702 136.013 464.596 131.165 471.656C130.408 472.756 131.974 474.161 132.741 473.043Z" fill="black"/>
<path d="M332.177 197.142C335.244 200.48 339.153 202.926 343.448 204.344C343.989 204.523 344.584 204.044 344.695 203.531C344.823 202.926 344.424 202.465 343.883 202.286C339.927 200.981 336.375 198.622 333.564 195.562C333.18 195.146 332.425 195.263 332.079 195.655C331.673 196.116 331.786 196.719 332.17 197.139L332.177 197.142Z" fill="black"/>
<path d="M318.962 183.19C317.932 182.462 317.161 181.495 316.736 180.412C316.279 179.249 316.166 178.089 316.435 176.874C316.73 175.554 314.671 175.12 314.38 176.439C313.692 179.527 314.979 182.933 317.568 184.767C318.03 185.095 318.647 185.132 319.054 184.675C319.4 184.283 319.425 183.523 318.962 183.19Z" fill="black"/>
<path d="M338.53 159.764C342.031 157.53 344.646 162.364 345.251 164.594C345.645 166.044 345.743 167.997 344.145 168.987C341.816 170.428 339.752 167.694 338.812 166.122C337.766 164.371 336.228 161.227 338.524 159.76L338.53 159.764Z" fill="black"/>
<path d="M355.405 154.175C358.906 151.941 361.521 156.775 362.127 159.005C362.52 160.456 362.619 162.408 361.02 163.398C358.691 164.84 356.628 162.105 355.687 160.533C354.641 158.782 353.103 155.638 355.399 154.172L355.405 154.175Z" fill="black"/>
<path d="M303.775 481.458C320.759 480.265 337.608 477.428 354.108 473.258C370.675 469.072 386.892 463.553 402.667 457.009C411.553 453.324 420.296 449.303 428.905 445.015C430.11 444.416 428.938 442.671 427.737 443.268C412.538 450.839 396.887 457.526 380.831 463.068C364.881 468.575 348.523 472.974 331.9 475.89C322.552 477.527 313.131 478.698 303.66 479.363C302.308 479.457 302.414 481.556 303.766 481.461L303.775 481.458Z" fill="#505154"/>
<path d="M346.737 164.255C348.393 169.443 347.684 175.746 343.42 179.527C339.331 183.158 333.362 182.735 329.194 179.49C324.668 175.969 322.285 169.886 323.191 164.224C324.008 159.098 327.697 154.443 333.133 153.983C339.55 153.439 344.781 158.548 346.737 164.255C347.175 165.533 349.171 164.877 348.731 163.595C346.689 157.645 341.646 152.454 335.127 151.901C328.866 151.369 323.598 155.601 321.714 161.403C319.635 167.807 321.693 175.245 326.475 179.909C330.841 184.169 337.571 185.7 342.978 182.447C349.355 178.611 350.859 170.253 348.736 163.593C348.325 162.307 346.331 162.967 346.742 164.254L346.737 164.255Z" fill="#283EB0"/>
<path d="M375.614 154.692C377.194 159.634 376.995 165.886 373.04 169.718C369.336 173.303 363.88 172.419 360.184 169.334C355.854 165.723 353.535 159.665 354.154 154.078C354.686 149.281 357.735 144.398 362.989 144.116C369.138 143.784 373.799 149.399 375.614 154.692C376.052 155.97 378.048 155.314 377.608 154.032C375.66 148.353 371.031 142.773 364.708 142.084C358.752 141.437 354.093 145.712 352.571 151.215C350.813 157.569 352.916 164.818 357.375 169.574C361.269 173.723 367.557 175.806 372.703 172.629C378.869 168.821 379.623 160.334 377.609 154.037C377.199 152.75 375.205 153.411 375.615 154.697L375.614 154.692Z" fill="#283EB0"/>
<path d="M355.256 176.554C357.012 176.243 358.78 175.566 359.88 174.091C360.927 172.691 361.245 170.789 360.406 169.215C359.532 167.565 357.594 166.524 356.137 165.45C354.403 164.172 352.669 162.895 350.936 161.621C349.858 160.827 348.456 162.391 349.547 163.197C350.91 164.204 352.277 165.209 353.639 166.211C354.98 167.2 356.391 168.135 357.669 169.21C358.685 170.066 359.116 171.151 358.479 172.396C357.849 173.618 356.437 174.229 355.15 174.455C354.589 174.554 354.128 174.942 354.153 175.558C354.175 176.073 354.699 176.651 355.256 176.554Z" fill="black"/>
<path d="M347.301 162.912L352.716 161.119C353.237 160.946 353.585 160.324 353.383 159.792C353.181 159.261 352.615 158.942 352.056 159.127L346.642 160.92C346.12 161.092 345.773 161.714 345.975 162.246C346.176 162.778 346.743 163.097 347.301 162.912Z" fill="#283EB0"/>
<path d="M329.473 205.466C328.983 202.083 327.663 198.81 326.038 195.818C324.793 193.529 322.983 188.975 319.818 189.363C317.919 189.598 316.376 194.469 315.829 195.924C314.732 198.815 314.058 201.898 314.092 205.003C314.135 209.215 316.295 214.855 320.939 215.778C327.233 217.03 330.233 210.684 329.476 205.46L329.473 205.466Z" fill="#283EB0" stroke="black" stroke-width="3" stroke-miterlimit="10"/>
<path d="M603.427 209.067C602.509 212.651 601.417 216.205 600.244 219.715C600.081 220.199 600.511 220.737 600.973 220.835C601.519 220.951 601.933 220.593 602.094 220.105C603.267 216.595 604.359 213.041 605.278 209.457C605.579 208.278 603.73 207.892 603.427 209.067Z" fill="black"/>
<path d="M601.539 220.857C606.627 220.738 611.725 221.843 616.146 224.411C620.79 227.115 624.234 231.373 626.123 236.381C626.601 237.64 628.598 236.988 628.117 235.72C626.057 230.273 622.369 225.697 617.355 222.696C612.577 219.837 606.963 218.631 601.428 218.76C600.072 218.795 600.183 220.892 601.534 220.858L601.539 220.857Z" fill="black"/>
<path d="M362.476 127.503C355.161 118.792 345.209 112.791 334.179 110.124C334.09 110.026 333.989 109.936 333.88 109.855C333.139 109.317 332.33 109.35 331.63 109.71C324.216 109.085 317.489 109.792 310.888 112.332C301.406 115.978 293.94 125.65 286.265 132.264C285.17 133.21 284.101 134.189 283.056 135.195C281.876 141.807 281.465 148.534 281.968 155.249C282.641 164.257 285.118 173.439 289.825 181.203C292.166 185.069 295.285 188.718 299.623 190.372C300.83 190.832 299.137 186.214 300.421 186.332C320.473 171.003 336.574 145.445 334.723 119.113C336.925 121.029 348.291 131.981 360.36 131.459C362.515 131.364 363.752 129.02 362.478 127.508L362.476 127.503Z" fill="black"/>
<path d="M529.874 101.613C536.029 98.8532 543.478 97.3739 549.841 94.9803C552.684 94.8729 555.144 96.6727 556.795 98.843C563.255 107.321 568.064 118.827 574.35 127.618C579.358 137.606 567.564 145.175 567.823 154.959C568.074 164.27 574.882 168.263 581.835 172.863C590.138 178.357 599.398 183.119 608.715 186.644C619.217 190.626 630.657 195.025 637.991 183.053C642.795 175.21 642.32 167.897 653.298 166.247C662.095 164.925 673.188 164.04 682.124 163.522C686.069 163.295 690.22 163.005 692.663 166.826C695.895 178.103 702.079 187.665 698.263 199.576C693.335 214.947 677.356 217.629 663.297 219.132C609.99 224.848 549.164 193.752 523.314 146.689C520.22 141.057 516.344 133.56 515.561 127.203C514.29 116.946 520.378 105.868 529.877 101.607L529.874 101.613Z" fill="#283EB0" stroke="black" stroke-width="3" stroke-miterlimit="10"/>
<path d="M579.642 282.662C580.026 274.169 579.869 262.683 577.648 249.327C577.321 247.363 575.849 238.835 572.434 227.578C570.247 220.372 568.426 215.863 559.594 193.726C553.729 179.014 550.83 171.623 552.758 169.803C555.719 167.006 566.179 170.04 571.455 176.971C578.197 185.821 574.736 198.725 581.011 201.078" fill="white"/>
<path d="M579.642 282.662C580.026 274.169 579.869 262.683 577.648 249.327C577.321 247.363 575.849 238.835 572.434 227.578C570.247 220.372 568.426 215.863 559.594 193.726C553.729 179.014 550.83 171.623 552.758 169.803C555.719 167.006 566.179 170.04 571.455 176.971C578.197 185.821 574.736 198.725 581.011 201.078" stroke="black" stroke-width="2.98" stroke-miterlimit="10"/>
<path d="M589.376 208.859C587.364 208.011 586.041 206.74 585.225 205.204C584.671 204.165 584.346 202.998 584.188 201.761C584.088 201.769 583.991 201.786 583.885 201.79C581.392 201.889 579.318 200.621 577.682 198.804C575.801 196.715 574.498 193.892 573.811 191.587C572.669 187.749 572.625 183.768 572.834 179.881C573.452 168.399 578.184 129.869 598.589 145.38C599.37 145.976 600.084 146.584 600.735 147.202C601.786 146.061 602.999 145.04 604.461 144.474C610.71 142.046 619.301 148.529 623.541 154.775C624.11 154.422 624.7 154.115 625.308 153.862C629.293 152.21 633.972 154.304 636.525 157.746C644.956 166.886 650.658 179.386 641.917 190.222C637.683 195.471 631.933 197.007 626.025 196.334C623.749 199.902 621.249 203.134 618.588 205.786C613.782 210.576 603.304 212.096 602.257 204C598.561 208.12 594.243 210.906 589.38 208.858L589.376 208.859Z" fill="white" stroke="black" stroke-width="2.98" stroke-miterlimit="10"/>
<path d="M618.762 160.808C614.185 167.231 610.318 174.084 607.649 181.507C604.994 188.895 603.508 196.627 602.299 204.375C602.096 205.68 599.992 205.436 600.198 204.124C601.429 196.195 602.96 188.274 605.677 180.717C608.404 173.131 612.384 166.108 617.062 159.54C617.831 158.461 619.529 159.72 618.756 160.805L618.762 160.808Z" fill="black"/>
<path d="M630.19 171.249C629.992 171.765 629.783 172.279 629.593 172.803C626.876 180.359 625.345 188.28 624.114 196.21C623.913 197.52 626.012 197.766 626.215 196.46C627.418 188.709 628.905 180.982 631.565 173.592C631.768 173.029 631.989 172.475 632.208 171.916C631.531 171.726 630.858 171.504 630.196 171.252L630.19 171.249Z" fill="black"/>
<path d="M596.073 156.171C588.857 169.894 584.842 185.535 585.268 201.128C585.302 202.452 583.203 202.19 583.167 200.877C582.737 185.132 586.817 169.239 594.106 155.384C594.716 154.225 596.693 154.998 596.077 156.169L596.073 156.171Z" fill="black"/>
<path d="M356.435 181.444C354.354 182.506 352.38 183.058 350.728 183.344C350.059 183.458 349.748 184.251 350.184 184.778C350.795 185.511 351.464 186.139 352.167 186.638C354.161 188.065 356.429 188.512 358.378 187.728C360.304 186.957 361.678 185.075 362.25 182.685C362.532 181.497 362.62 180.183 362.484 178.816C362.412 178.103 361.543 177.782 361.016 178.264C359.828 179.348 358.306 180.491 356.439 181.442L356.435 181.444Z" fill="white" stroke="black" stroke-width="2.59" stroke-miterlimit="10"/>
<path d="M362.345 181.241C362.634 184.078 360.984 186.752 358.378 187.728C355.94 188.643 353.136 187.893 351.43 185.849C352.849 185.773 355.063 185.484 357.532 184.401C359.759 183.423 361.35 182.164 362.345 181.241Z" fill="black"/>
</g>
<defs>
<clipPath id="clip0_200_1316">
<rect width="672.494" height="527.284" fill="white" transform="translate(0 211.513) rotate(-18.3226)"/>
</clipPath>
</defs>
</svg>
