<svg width="280" height="127" viewBox="0 0 280 127" fill="none" xmlns="http://www.w3.org/2000/svg">
<path d="M255.894 108.289C224.621 110.414 193.321 112.127 161.996 112.938C146.681 113.337 131.353 113.479 116.024 113.505C101.018 113.53 86.011 113.337 71.0429 112.204C56.0747 111.071 41.2995 109.036 26.7943 105.417C21.0205 103.975 14.5652 102.752 9.53719 99.3646C4.50924 95.9777 2.37461 90.7621 3.39048 84.9928C4.56067 78.3735 9.34431 72.6814 13.5493 67.6976C17.7542 62.7139 22.5893 57.8975 27.7073 53.6349C37.3131 45.6376 48.0763 39.1986 59.2509 33.674C85.5481 20.6543 113.954 12.4381 142.836 7.60888C157.161 5.21357 171.653 3.46216 186.146 2.62509C201.345 1.74939 216.738 2.10997 231.693 5.20069C244.861 7.93083 258.157 12.6442 267.57 22.7019C271.968 27.4024 275.08 33.1588 275.8 39.6107C276.52 46.0626 274.887 53.0554 271.814 58.8891C266.31 69.3074 256.229 77.3433 246.366 83.3959C236.503 89.4486 226.202 93.737 215.619 97.6905C188.319 107.877 159.694 113.685 131.005 118.347C100.516 123.305 69.5383 125.275 38.6762 124.116C31.115 123.833 23.5666 123.369 16.0182 122.725C15.3367 122.661 14.2565 122.957 13.9608 123.653C13.665 124.348 14.218 124.786 14.8866 124.85C46.6361 127.555 78.6555 127.065 110.315 123.331C125.977 121.476 141.486 118.707 156.968 115.707C172.451 112.706 187.277 109.371 202.001 104.632C213.304 101 224.582 96.8277 235.307 91.728C246.147 86.5897 256.601 80.2151 265.127 71.6769C269.435 67.3499 273.434 62.4563 275.929 56.8286C278.604 50.7888 279.838 43.9892 278.784 37.4343C276.623 24.1571 264.883 14.5888 253.284 9.33453C240.026 3.34626 225.006 1.06685 210.591 0.332807C195.25 -0.452751 179.87 0.719148 164.645 2.48343C135.03 5.92186 105.647 12.2063 77.8583 23.1784C52.8728 33.0429 28.0802 46.3845 10.6174 67.3371C6.4767 72.308 1.98883 77.8197 0.458582 84.2459C-0.891637 89.938 0.754344 95.7717 5.20364 99.6222C9.65293 103.473 15.3496 104.838 20.789 106.319C28.2088 108.341 35.7443 109.925 43.3184 111.2C73.6404 116.248 104.541 115.771 135.172 115.514C167.461 115.243 199.738 113.865 231.976 111.921C239.859 111.444 247.729 110.929 255.598 110.401C257.296 110.285 258.093 108.135 255.933 108.276L255.894 108.289Z" fill="#D5226B"/>
</svg>
