<?xml version="1.0" encoding="UTF-8"?>
<svg id="Layer_1" xmlns="http://www.w3.org/2000/svg" version="1.1" viewBox="0 0 2000 2000">
  <!-- Generator: Adobe Illustrator 29.0.1, SVG Export Plug-In . SVG Version: 2.1.0 Build 192)  -->
  <defs>
    <style>
      .st0 {
        fill: #d5226b;
      }

      .st1 {
        fill: #3040b4;
      }
    </style>
  </defs>
  <path class="st1" d="M1105.14,948.25c12.35-7.74,22.91-16.89,31.67-27.52,8.77-10.62,15.55-22.52,20.35-35.77,4.74-13.25,7.17-27.64,7.17-43.26,0-81.27-54.39-121.84-163.11-121.84h-159.98v447.99h100.91v-171.49h27.2c6.27,0,12.03,1.28,17.34,3.9,5.31,2.62,10.43,6.34,15.29,11.26,4.93,4.86,9.73,10.75,14.53,17.66,4.8,6.85,9.79,14.65,15.04,23.42l124.08,192.29,60.43-81.62-83.6-127.88c-4.41-6.85-9.21-13.89-14.53-21.05-5.31-7.23-10.88-13.95-16.77-20.16-5.82-6.27-11.84-11.71-18.11-16.45-6.21-4.67-12.67-8.06-19.33-10.11v-1.28c15.16-4.35,28.99-10.43,41.4-18.11ZM1038.08,901.35c-13.12,12.54-30.52,18.75-52.15,18.75h-43.77v-124.65h45.62c46.84,0,70.32,19.58,70.32,58.74,0,18.75-6.72,34.49-20.03,47.16Z"/>
  <polygon class="st0" points="1292.98 1267.07 1422.24 1066.78 1310 1066.78 1236.03 1179.98 1179.02 1267.13 1029.98 1495 1145.87 1495 1235.97 1355.37 1327.89 1494.59 1443.84 1494.59 1292.98 1267.07"/>
  <path class="st1" d="M1068.14,1376.47l70.76-108.65,5.54-8.46c-.9.38-9.81,3.74-10.77,4.18-68.32,28.14-140.61,34.42-208.25,20.95-104.99-22.27-193-89.21-240.85-182.3-1.16-2.27-2.34-4.53-3.45-6.82-1.48-3.05-2.93-6.13-4.33-9.23-.76-1.71-1.5-3.42-2.24-5.14-1.25-2.89-2.49-5.79-3.67-8.73-1.36-3.43-2.63-6.87-3.88-10.32-.92-2.52-1.8-5.06-2.66-7.62-1.3-3.86-2.56-7.73-3.71-11.61-.48-1.62-.92-3.25-1.37-4.88-.95-3.36-1.84-6.73-2.67-10.11-1.18-4.76-2.24-9.54-3.21-14.34-.34-1.69-.75-3.37-1.07-5.06-1.2-6.4-2.22-12.83-3.06-19.29-.27-2.08-.45-4.17-.68-6.26-.5-4.41-.93-8.82-1.25-13.25-.21-2.85-.37-5.7-.51-8.54-.18-3.55-.27-7.1-.34-10.66-.06-3.47-.15-6.93-.11-10.39,0-.54.03-1.08.04-1.62,1.06-61.58,18.43-121.78,49.86-174.22.02-.03.03-.06.05-.09,1.36-2.27,2.84-4.48,4.25-6.72,34.09-53.62,82.36-97.33,139.53-125.8,1.73-.86,3.43-1.74,5.18-2.57,2.74-1.31,5.52-2.52,8.3-3.76,2.76-1.22,5.51-2.46,8.29-3.61,2.29-.95,4.61-1.84,6.93-2.74,3.2-1.24,6.4-2.47,9.61-3.62,2.17-.77,4.37-1.49,6.56-2.22,3.32-1.11,6.66-2.19,10-3.19,2.24-.67,4.49-1.29,6.75-1.92,3.28-.91,6.57-1.8,9.87-2.61,2.4-.59,4.83-1.14,7.25-1.68,3.15-.71,6.31-1.39,9.47-2.01,2.61-.51,5.24-.96,7.87-1.41,3.01-.51,6.01-1.01,9.03-1.45,2.79-.4,5.59-.74,8.4-1.07,2.92-.35,5.84-.69,8.76-.96,2.84-.26,5.69-.46,8.54-.65,2.98-.2,5.96-.41,8.94-.54,2.61-.11,5.24-.15,7.86-.2,3.35-.06,6.7-.14,10.05-.11,1.8.01,3.58.09,5.38.14,4.27.11,8.54.22,12.8.48.13,0,.26.02.39.03,54.07,3.41,106.59,19.45,153.29,46.39,1.94,1.13,3.92,2.19,5.84,3.36.36.22.7.45,1.06.67,66.51,40.73,118.38,103.11,145.73,177.26.12.34.25.67.37,1.01,3.78,10.36,7.09,20.94,9.89,31.73.09.34.18.68.26,1.02,7.09,27.68,10.88,56.67,10.88,86.53s-5.54,64.01-13.75,93.88h0l91.35.05c8.37-34.04,12.44-58.58,12.44-93.92,0-54.6-10.11-106.87-28.42-155.14-1.79-4.8-3.68-9.59-5.68-14.38-.21-.5-.41-1.02-.62-1.52-2-4.75-4.08-9.51-6.3-14.28-.6-1.28-1.27-2.5-1.87-3.77-.6-1.26-1.25-2.5-1.87-3.75-36.98-75.58-93.06-135.91-159.76-177.9-2.66-1.69-5.28-3.42-7.98-5.05-.21-.12-.42-.24-.63-.36-63.46-38.21-137.33-60.73-216.25-62.4-1.83-.04-3.66-.12-5.49-.14-1.31-.01-2.6-.1-3.91-.1-3.27,0-6.51.18-9.77.25-2.95.06-5.91.1-8.86.22-4.07.17-8.12.45-12.16.73-3.28.23-6.55.45-9.83.75-4,.37-7.96.83-11.92,1.31-3.21.39-6.42.77-9.63,1.23-4.13.59-8.23,1.27-12.33,1.97-2.97.51-5.93,1.02-8.89,1.59-4.36.84-8.69,1.78-13.01,2.76-2.66.6-5.32,1.19-7.97,1.85-4.61,1.13-9.17,2.36-13.71,3.63-2.37.66-4.74,1.32-7.1,2.02-4.76,1.42-9.48,2.95-14.17,4.53-2.2.74-4.39,1.46-6.58,2.23-4.73,1.67-9.4,3.46-14.05,5.29-2.23.87-4.46,1.72-6.68,2.64-4.34,1.79-8.62,3.69-12.89,5.61-1.89.85-3.79,1.6-5.68,2.47-.76.35-1.48.75-2.24,1.11-3.2,1.52-6.34,3.13-9.5,4.72-3.75,1.88-7.5,3.76-11.18,5.73-1.16.63-2.29,1.3-3.44,1.94-61.95,34.08-112.75,81.39-150.45,136.79-.59.86-1.22,1.7-1.8,2.56-1.35,2.01-2.61,4.08-3.92,6.11-43.7,67.1-69.54,146.8-70.77,232.39,0,.46-.03.92-.03,1.38-.02,1.64-.12,3.26-.13,4.9,0,19.42,1.33,38.7,3.85,57.78.14,1.08.31,2.15.46,3.23.8,5.71,1.71,11.4,2.73,17.07.25,1.39.51,2.79.78,4.18,1.09,5.72,2.29,11.41,3.61,17.08.24,1.05.47,2.1.72,3.14,3.08,12.83,6.69,25.54,10.94,38.07.35,1.06.76,2.12,1.12,3.18,0,.02.01.04.02.06.79,2.3,1.57,4.59,2.44,6.89,4.06,11.11,8.65,22.08,13.63,32.86.27.59.5,1.2.78,1.79.68,1.46,1.42,2.87,2.12,4.32,1.29,2.68,2.58,5.34,3.92,7.99,1.54,3.06,3.13,6.09,4.74,9.11.4.75.78,1.53,1.18,2.28.32.59.67,1.16,1,1.74,2.51,4.59,5.1,9.12,7.76,13.61.24.4.47.8.72,1.2,16.7,27.91,36.35,53.83,58.87,77.36,2.43,2.62,4.93,5.18,7.49,7.68,12.67,12.61,26.23,24.49,40.38,35.45,1.77,1.38,3.55,2.73,5.34,4.09.96.72,1.89,1.48,2.85,2.18,1.14.85,2.32,1.63,3.47,2.46,44.59,32.62,94.44,56.26,147.53,69.95,60.73,16.48,121.2,19.49,183.54,8.01Z"/>
</svg>