<svg width="144" height="161" viewBox="0 0 144 161" fill="none" xmlns="http://www.w3.org/2000/svg">
<g clip-path="url(#clip0_57_1008)">
<path d="M89.0422 71.7107C91.0569 70.4605 92.7743 68.9799 94.1945 67.269C95.6147 65.5581 96.7046 63.6169 97.4972 61.4783C98.2569 59.3397 98.6532 57.0037 98.6532 54.5032C98.6532 41.3755 89.8349 34.8281 72.1982 34.8281H46.2385V107.211H62.6202V79.5084H67.0459C68.0697 79.5084 68.9945 79.7058 69.8532 80.1335C70.7119 80.5612 71.5376 81.1534 72.3303 81.9431C73.1229 82.7327 73.9156 83.6869 74.6752 84.8055C75.4679 85.9242 76.2605 87.1744 77.1193 88.5892L97.233 119.648L107.042 106.455L93.4679 85.7925C92.7413 84.6739 91.9816 83.5552 91.1229 82.4037C90.2642 81.2192 89.3725 80.1335 88.4147 79.1465C87.4569 78.1265 86.4991 77.2382 85.4752 76.4814C84.4844 75.7247 83.4275 75.1654 82.3376 74.8363V74.6389C84.7816 73.948 87.0275 72.961 89.0422 71.7107ZM78.1761 64.1434C76.0624 66.1833 73.222 67.1703 69.7211 67.1703H62.6202V47.0346H70.0183C77.6147 47.0346 81.4128 50.1931 81.4128 56.5431C81.4128 59.5701 80.3229 62.1035 78.1761 64.1763V64.1434Z" fill="#3040B4"/>
<path d="M119.527 123.234L140.499 90.8594H122.301L110.279 109.153L101.031 123.234L76.855 160.084H95.6807L110.279 137.514L125.207 160.018H144L119.527 123.234Z" fill="#D5226B"/>
<path d="M83.0642 140.936L94.5578 123.366L95.4496 121.984C95.4496 121.984 93.8642 122.577 93.6991 122.675C82.6019 127.216 70.8771 128.236 59.9119 126.064C42.8697 122.478 28.6018 111.653 20.8404 96.6173C20.6422 96.2554 20.4771 95.8935 20.2789 95.4986C20.0477 95.0051 19.8165 94.5116 19.5853 94.0181C19.4532 93.7549 19.3541 93.4587 19.222 93.1955C19.0239 92.7349 18.8257 92.2743 18.6275 91.7808C18.3963 91.2215 18.1982 90.6621 18 90.1028C17.8679 89.708 17.7028 89.2803 17.5706 88.8854C17.3725 88.2603 17.1413 87.6352 16.9761 87.0101C16.9101 86.7468 16.844 86.4836 16.745 86.2204C16.5798 85.6611 16.4477 85.1347 16.3156 84.5753C16.1174 83.8186 15.9523 83.029 15.7872 82.2722C15.7211 82.009 15.655 81.7129 15.622 81.4497C15.4239 80.4297 15.2587 79.3769 15.1266 78.3241C15.0936 77.995 15.0606 77.666 15.0275 77.3041C14.9615 76.5803 14.8624 75.8893 14.8294 75.1655C14.7963 74.7049 14.7633 74.2443 14.7303 73.7836C14.7303 73.2243 14.6972 72.6321 14.6642 72.0728C14.6642 71.5134 14.6642 70.9541 14.6642 70.3948C14.6642 70.2961 14.6642 70.2303 14.6642 70.1316C14.8294 60.1953 17.6697 50.4565 22.756 41.9679C22.9872 41.606 23.2184 41.2441 23.4495 40.8821C28.9651 32.229 36.8257 25.1552 46.0734 20.549C46.3376 20.4174 46.6349 20.2529 46.8991 20.1213C47.3284 19.9239 47.7908 19.7265 48.2532 19.5291C48.7156 19.3317 49.145 19.1343 49.6073 18.9368C49.9706 18.7723 50.367 18.6407 50.7303 18.5091C51.2587 18.3117 51.7541 18.1143 52.2826 17.9169C52.6459 17.7853 52.9762 17.6866 53.3395 17.555C53.8679 17.3905 54.4294 17.1931 54.9578 17.0286C55.3211 16.9299 55.6844 16.8312 56.0477 16.7324C56.5762 16.6008 57.1046 16.4363 57.633 16.3047C58.0294 16.206 58.4257 16.1073 58.822 16.0415C59.3174 15.9428 59.8459 15.8112 60.3743 15.7125C60.8037 15.6467 61.233 15.548 61.6624 15.4822C62.1578 15.3835 62.6532 15.3177 63.1156 15.2519C63.578 15.1861 64.0073 15.1203 64.4697 15.0874C64.9321 15.0216 65.4275 14.9887 65.8899 14.9229C66.3523 14.89 66.8147 14.8571 67.2771 14.8242C67.7725 14.8242 68.2349 14.7584 68.7303 14.7255C69.1596 14.7255 69.589 14.7255 70.0184 14.7255C70.5468 14.7255 71.1083 14.7255 71.6367 14.7255C71.934 14.7255 72.2312 14.7255 72.4954 14.7255C73.189 14.7255 73.8826 14.7584 74.5762 14.7913C74.5762 14.7913 74.6092 14.7913 74.6422 14.7913C83.4275 15.3506 91.9486 17.9498 99.5119 22.2928C99.8422 22.4902 100.139 22.6547 100.47 22.8521C100.536 22.885 100.569 22.9179 100.635 22.9508C111.435 29.5311 119.824 39.599 124.283 51.608C124.283 51.6738 124.316 51.7067 124.349 51.7725C124.976 53.4505 125.505 55.1614 125.967 56.9052C125.967 56.971 125.967 57.0039 126 57.0697C127.156 61.5443 127.75 66.2163 127.75 71.0528C127.75 75.8893 126.859 81.3839 125.505 86.2204H140.334C141.688 80.7259 142.349 76.7448 142.349 71.0528C142.349 62.2352 140.697 53.7795 137.725 45.9819C137.428 45.1922 137.13 44.4355 136.8 43.6459C136.767 43.5801 136.734 43.4814 136.701 43.4156C136.371 42.6588 136.04 41.8692 135.677 41.1125C135.578 40.9151 135.479 40.7176 135.38 40.4873C135.281 40.2899 135.182 40.0925 135.083 39.8951C129.072 27.6886 119.989 17.9169 109.156 11.1392C108.727 10.876 108.297 10.5799 107.868 10.3167C107.835 10.3167 107.802 10.2838 107.769 10.2508C97.4973 4.03247 85.5083 0.380399 72.6936 0.117188C72.3963 0.117188 72.0991 0.117188 71.8018 0.117188C71.6037 0.117188 71.3725 0.117188 71.1743 0.117188C70.6459 0.117188 70.1174 0.117188 69.589 0.150089C69.0936 0.150089 68.6312 0.150089 68.1358 0.18299C67.4752 0.18299 66.8147 0.248794 66.1541 0.314597C65.6257 0.347498 65.0973 0.3804 64.5688 0.446203C63.9083 0.512006 63.2807 0.577808 62.6202 0.643611C62.0917 0.709415 61.5633 0.775218 61.0679 0.841021C60.4073 0.939725 59.7468 1.03843 59.0532 1.17004C58.5578 1.26874 58.0954 1.33454 57.6 1.43325C56.9064 1.56485 56.1798 1.72936 55.4862 1.89387C55.0569 1.99257 54.6275 2.09128 54.1982 2.18998C53.4385 2.38739 52.7119 2.5848 51.9853 2.78221C51.589 2.88091 51.2257 2.97962 50.8294 3.11122C50.0697 3.34153 49.2771 3.57185 48.5174 3.83506C48.1541 3.96666 47.7908 4.06537 47.4606 4.19697C46.7009 4.46019 45.9413 4.7563 45.1817 5.05241C44.8184 5.18402 44.4551 5.31562 44.0918 5.48013C43.3982 5.77625 42.7046 6.07236 42.011 6.40137C41.7138 6.53298 41.3835 6.66459 41.0862 6.79619C40.9541 6.862 40.8551 6.9278 40.7229 6.9607C40.1945 7.19101 39.6991 7.45422 39.1706 7.71743C38.5761 8.01355 37.9486 8.30966 37.3541 8.63868C37.156 8.73738 36.9908 8.83609 36.7927 8.96769C26.7523 14.4622 18.4954 22.1283 12.3853 31.0775C12.2862 31.2091 12.1872 31.3407 12.0881 31.5052C11.8569 31.8342 11.6587 32.1632 11.4606 32.4923C4.42569 43.2511 0.231193 56.1484 0 69.9671C0 70.0329 0 70.1316 0 70.1974C0 70.4606 0 70.7238 0 70.987C0 74.1127 0.231193 77.2383 0.627523 80.331C0.627523 80.4956 0.693578 80.693 0.693578 80.8575C0.825688 81.7787 0.957798 82.7 1.12294 83.6212C1.15596 83.8515 1.22202 84.0818 1.25505 84.3121C1.42018 85.2334 1.61835 86.1546 1.84954 87.0759C1.88257 87.2404 1.9156 87.4049 1.98165 87.5694C2.47706 89.6422 3.07156 91.6821 3.76514 93.722C3.83119 93.8865 3.89725 94.051 3.9633 94.2484C4.09541 94.6103 4.22752 95.0051 4.35963 95.367C5.02018 97.1766 5.74679 98.9204 6.57248 100.664C6.60551 100.763 6.63853 100.862 6.70459 100.96C6.80367 101.191 6.93578 101.421 7.03486 101.651C7.23303 102.079 7.46422 102.507 7.66239 102.934C7.92661 103.428 8.1578 103.921 8.42202 104.415C8.48807 104.547 8.55413 104.645 8.62018 104.777C8.68624 104.876 8.71927 104.974 8.78532 105.073C9.18165 105.83 9.61101 106.554 10.0404 107.277C10.0734 107.343 10.1064 107.409 10.1725 107.475C12.8807 111.982 16.0844 116.161 19.7174 119.977C20.1138 120.405 20.5101 120.8 20.9395 121.228C22.9872 123.268 25.2 125.176 27.4789 126.952C27.7761 127.183 28.0404 127.38 28.3376 127.611C28.5028 127.742 28.6349 127.841 28.8 127.972C28.9982 128.104 29.1633 128.236 29.3615 128.367C36.5945 133.631 44.6862 137.448 53.3064 139.685C63.1486 142.35 72.9578 142.844 83.0973 140.969L83.0642 140.936Z" fill="#3040B4"/>
</g>
<defs>
<clipPath id="clip0_57_1008">
<rect width="144" height="160" fill="white" transform="translate(0 0.0839844)"/>
</clipPath>
</defs>
</svg>
