<svg width="26" height="18" viewBox="0 0 26 18" fill="none" xmlns="http://www.w3.org/2000/svg">
<path d="M7.18764 6.37627C6.496 8.39542 5.80313 10.4134 5.11149 12.4325C5.02845 12.6742 5.16479 12.9929 5.39657 13.112C5.65811 13.2455 5.92584 13.195 6.14771 13.0182C6.41792 12.8029 6.69184 12.5913 6.96825 12.3832C6.8567 12.4674 6.99428 12.364 7.00915 12.3531C7.03642 12.3327 7.06493 12.3123 7.0922 12.2918C7.16161 12.2401 7.23102 12.1896 7.30167 12.1379C7.44174 12.0357 7.5818 11.9346 7.7231 11.8348C8.28831 11.4344 8.86591 11.0495 9.45219 10.6803C10.6272 9.94195 11.8432 9.26609 13.0938 8.65638C13.7198 8.35092 14.3531 8.0635 14.9952 7.79172C15.0758 7.75804 15.1551 7.72437 15.2357 7.6907C15.2679 7.67747 15.3001 7.66424 15.3323 7.65101C15.4935 7.58367 15.2158 7.69791 15.3782 7.63297C15.5406 7.56803 15.7017 7.50309 15.8641 7.43936C16.1888 7.31309 16.5148 7.19042 16.8433 7.07136C18.1559 6.59875 19.4946 6.19468 20.8518 5.86396C21.6153 5.67756 22.385 5.51401 23.1585 5.37451C23.5365 5.30596 23.9158 5.24343 24.2963 5.1857C24.486 5.15684 24.6769 5.13038 24.8678 5.10393C24.8901 5.10032 25.0661 5.07747 24.9111 5.09791C24.9632 5.0907 25.0153 5.08469 25.0673 5.07747C25.1714 5.06424 25.2755 5.05222 25.3797 5.04019C25.7007 5.00291 26.0155 4.79125 25.9994 4.4389C25.9858 4.14546 25.7242 3.79671 25.3797 3.8376C22.5164 4.17433 19.6991 4.80569 16.9821 5.74611C14.2651 6.68654 11.6597 7.90476 9.22413 9.39477C7.84705 10.2366 6.52823 11.1662 5.27015 12.1679L6.30636 12.7524C6.998 10.7333 7.69087 8.71531 8.38251 6.69616C8.48539 6.39791 8.26476 6.02631 7.94993 5.95656C7.60783 5.8808 7.29672 6.05638 7.18764 6.37627Z" fill="#DB1B77"/>
<path d="M15.3782 12.1667C15.3088 12.4662 15.2171 12.7584 15.0993 13.0434C15.0857 13.0783 15.051 13.1757 15.103 13.0374C15.0906 13.0711 15.0733 13.1024 15.0584 13.1348C15.0249 13.2058 14.9915 13.2767 14.9555 13.3465C14.8836 13.486 14.8068 13.6231 14.725 13.7578C14.6506 13.8804 14.5713 13.9995 14.4882 14.1161C14.4461 14.1751 14.404 14.2328 14.3606 14.2905C14.3445 14.311 14.3271 14.3398 14.3073 14.3591C14.425 14.2424 14.2912 14.3783 14.2676 14.406C14.073 14.6393 13.8611 14.8593 13.6367 15.0662C13.5289 15.1648 13.4186 15.2598 13.3045 15.3524C13.2599 15.3885 13.162 15.439 13.1322 15.4883L13.1868 15.4474C13.1632 15.4654 13.1397 15.4823 13.1161 15.4991C13.0802 15.5244 13.0442 15.5508 13.0083 15.5761C12.7554 15.7529 12.4902 15.9128 12.215 16.0571C12.0836 16.1257 11.951 16.1906 11.8159 16.2507C11.775 16.2688 11.7341 16.2856 11.6944 16.3036C11.5606 16.3638 11.7862 16.2676 11.6994 16.3036C11.6238 16.3337 11.5482 16.3626 11.4713 16.3914C11.1726 16.4997 10.8652 16.5899 10.5541 16.6572C10.4016 16.6909 10.2479 16.7185 10.0942 16.7414C10.0682 16.745 10.0236 16.7582 9.99881 16.7546L10.0682 16.745C10.036 16.7486 10.005 16.7522 9.97278 16.7558C9.87734 16.7654 9.7819 16.7739 9.68646 16.7811C9.35303 16.8039 9.01837 16.8051 8.68371 16.7835C8.52753 16.7739 8.36144 16.7703 8.20898 16.739C8.35524 16.7691 8.24741 16.7438 8.20898 16.739C8.17056 16.7342 8.12965 16.727 8.09123 16.7209C7.99703 16.7065 7.90283 16.6897 7.80863 16.6716C7.48016 16.6079 7.15541 16.5237 6.83686 16.4215C6.68565 16.3722 6.53443 16.3193 6.38569 16.2628C6.34107 16.2459 6.29521 16.2303 6.25182 16.2098C6.37329 16.2652 6.29397 16.2279 6.2667 16.2159C6.17869 16.1774 6.09069 16.1401 6.00393 16.1004C5.70025 15.9609 5.40525 15.8034 5.12017 15.629C4.97763 15.5424 4.83756 15.451 4.70122 15.3572C4.62933 15.3079 4.55868 15.2562 4.48803 15.2057C4.46448 15.1888 4.39259 15.1432 4.49918 15.2141C4.45332 15.184 4.41118 15.1468 4.3678 15.1119C4.10131 14.9014 3.84845 14.6741 3.61171 14.4336C3.50015 14.3206 3.39232 14.2039 3.2882 14.0849C3.23366 14.0235 3.1816 13.961 3.1283 13.8973C3.1283 13.8973 3.02667 13.771 3.08368 13.8432C3.13326 13.9057 3.02171 13.7626 3.01179 13.7493C2.8048 13.4764 2.61392 13.1913 2.44163 12.8967C2.26934 12.6021 2.1144 12.299 1.97434 11.9876C1.90741 11.8384 2.02144 12.1042 1.95946 11.9527C1.94707 11.9226 1.93467 11.8925 1.92228 11.8625C1.89129 11.7879 1.86154 11.7122 1.83304 11.6364C1.76982 11.4692 1.71157 11.3009 1.65827 11.1313C1.55663 10.8066 1.47234 10.4759 1.40541 10.1428C1.37194 9.97562 1.34468 9.80846 1.31865 9.6401C1.30253 9.54149 1.336 9.78922 1.31865 9.63168C1.31245 9.58358 1.30625 9.53547 1.30129 9.48737C1.29138 9.39838 1.2827 9.31059 1.27402 9.2216C1.21453 8.53853 1.22568 7.84824 1.31121 7.16757C1.31493 7.13871 1.31741 7.10865 1.32236 7.07978C1.29138 7.24454 1.32113 7.09542 1.32608 7.06295C1.33724 6.98959 1.34963 6.91623 1.36327 6.84287C1.39178 6.68173 1.42648 6.52058 1.46367 6.36063C1.5368 6.05518 1.6248 5.75212 1.72892 5.45508C1.7785 5.31318 1.8318 5.17368 1.88881 5.03418C1.90617 4.99329 1.92228 4.95 1.94087 4.90911C1.88138 5.03297 1.9198 4.95601 1.93219 4.92955C1.96938 4.84778 2.00656 4.766 2.04623 4.68543C2.18753 4.3968 2.34495 4.1154 2.51971 3.84482C2.604 3.71373 2.69324 3.58385 2.7862 3.45758C2.82959 3.39865 2.87173 3.33371 2.92131 3.2796C2.90891 3.29283 2.83826 3.38062 2.90767 3.29643C2.9461 3.25074 2.98328 3.20504 3.02171 3.15934C3.22375 2.92243 3.44314 2.69875 3.6774 2.4919C3.78895 2.39329 3.90423 2.29949 4.02198 2.20809C4.13973 2.11669 3.94513 2.26221 4.02198 2.20809C4.05297 2.18644 4.08271 2.1648 4.11246 2.14315C4.18559 2.09144 4.25996 2.04093 4.33557 1.99283C4.5971 1.82567 4.87227 1.67655 5.15859 1.55268C5.17842 1.54426 5.2751 1.48293 5.1933 1.53704C5.11149 1.59116 5.20693 1.53223 5.22924 1.52382C5.29122 1.50097 5.35319 1.47812 5.41517 1.45767C5.55275 1.41198 5.69281 1.37109 5.83412 1.33621C5.96302 1.30495 6.09317 1.27849 6.22332 1.25564C6.26298 1.24842 6.30264 1.24361 6.34107 1.2364C6.4489 1.21836 6.3076 1.24241 6.29521 1.24121C6.37082 1.24602 6.45758 1.22317 6.53319 1.21595C6.81827 1.1919 7.10583 1.1895 7.39216 1.20754C7.45909 1.21114 7.52478 1.21716 7.59171 1.22317C7.62518 1.22678 7.65741 1.23038 7.69087 1.23399C7.83342 1.24842 7.54337 1.21114 7.68468 1.23279C7.82598 1.25444 7.97224 1.27849 8.11478 1.30976C8.38499 1.36868 8.65024 1.44685 8.90682 1.54426C8.91177 1.54546 8.96879 1.57433 8.97995 1.57312L8.90434 1.54186C8.92789 1.55148 8.95268 1.5623 8.97623 1.57192C9.03572 1.59717 9.09398 1.62483 9.15347 1.65249C9.28114 1.71383 9.40633 1.77997 9.5278 1.85092C9.63812 1.91586 9.74471 1.98441 9.84883 2.05777C9.87734 2.07701 9.90956 2.11068 9.94179 2.12511C9.93064 2.1203 9.82652 2.03492 9.90709 2.09986C9.96534 2.14796 10.0248 2.19486 10.0819 2.24417C10.1761 2.32715 10.2678 2.41373 10.3533 2.50393C10.3967 2.54963 10.4388 2.59532 10.4797 2.64343C10.4983 2.66507 10.5281 2.71679 10.5516 2.73001C10.4983 2.66147 10.4847 2.64583 10.5132 2.68191C10.5244 2.69634 10.5367 2.71198 10.5479 2.72641C10.7078 2.93927 10.8429 3.16896 10.9545 3.40948C11.0871 3.6981 11.542 3.78829 11.8023 3.62474C12.1097 3.43233 12.1667 3.11003 12.0241 2.80217C10.9594 0.485981 7.95241 -0.402733 5.54903 0.167295C2.76513 0.826314 0.908375 3.41068 0.282431 5.99505C-0.407966 8.84158 0.169637 12.0561 1.99045 14.412C3.81126 16.7678 6.76249 18.2194 9.78314 17.9728C12.6278 17.7407 15.2171 15.9657 16.2855 13.3826C16.4057 13.0915 16.5012 12.7921 16.5718 12.4866C16.6425 12.1812 16.4764 11.8216 16.1393 11.747C15.8244 11.6773 15.4526 11.8384 15.377 12.1667H15.3782Z" fill="#DB1B77"/>
</svg>
