<svg width="135" height="109" viewBox="0 0 135 109" fill="none" xmlns="http://www.w3.org/2000/svg">
<path d="M43 20.3741H27.1644L41.797 14.3135L40.9342 12.2336L26.3015 18.2943L37.5005 7.09535L35.9082 5.49951L24.7092 16.702L30.7699 2.06933L28.6865 1.20653L22.6259 15.8392V0H20.3741V15.8392L14.3135 1.20653L12.2336 2.06933L18.2943 16.702L7.09535 5.49951L5.49951 7.09535L16.702 18.2943L2.06933 12.2336L1.20653 14.3135L15.8392 20.3741H0V22.6259H15.8392L1.20653 28.6865L2.06933 30.7699L16.702 24.7092L5.49951 35.9082L7.09535 37.5005L18.2943 26.3015L12.2336 40.9342L14.3135 41.797L20.3741 27.1644V43H22.6259V27.1608L28.6865 41.797L30.7699 40.9342L24.7092 26.3015L35.9082 37.5005L37.5005 35.9082L26.3015 24.7092L40.9342 30.7699L41.797 28.6865L27.1608 22.6259H43V20.3741Z" fill="white"/>
<path d="M135 68.4839H106.643L132.846 57.6311L131.301 53.9067L105.098 64.7595L125.152 44.7056L122.301 41.848L102.247 61.9082L113.1 35.7055L109.369 34.1605L98.5161 60.3631V32H94.4839V60.3631L83.6311 34.1605L79.9067 35.7055L90.7595 61.9082L70.7056 41.848L67.848 44.7056L87.9082 64.7595L61.7055 53.9067L60.1605 57.6311L86.3631 68.4839H58V72.5161H86.3631L60.1605 83.3689L61.7055 87.0996L87.9082 76.2467L67.848 96.3007L70.7056 99.152L90.7595 79.0981L79.9067 105.301L83.6311 106.846L94.4839 80.6431V109H98.5161V80.6369L109.369 106.846L113.1 105.301L102.247 79.0981L122.301 99.152L125.152 96.3007L105.098 76.2467L131.301 87.0996L132.846 83.3689L106.637 72.5161H135V68.4839Z" fill="#EB246C"/>
</svg>
