<svg width="43" height="168" viewBox="0 0 43 168" fill="none" xmlns="http://www.w3.org/2000/svg">
<path fill-rule="evenodd" clip-rule="evenodd" d="M20.5805 48.3137C20.5805 48.3137 11.2754 40.4771 11.2754 32.766C11.2754 30.0473 12.3554 27.44 14.2778 25.5176C16.2001 23.5952 18.8074 22.5153 21.5261 22.5153C24.2448 22.5153 26.8521 23.5952 28.7745 25.5176C30.6968 27.44 31.7768 30.0473 31.7768 32.766C31.7768 40.4771 22.4717 48.3137 22.4717 48.3137C21.9541 48.7904 21.102 48.7853 20.5805 48.3137ZM21.5261 37.2507C22.115 37.2507 22.6982 37.1347 23.2423 36.9093C23.7864 36.6839 24.2808 36.3536 24.6973 35.9371C25.1137 35.5207 25.444 35.0263 25.6694 34.4822C25.8948 33.9381 26.0108 33.3549 26.0108 32.766C26.0108 32.177 25.8948 31.5939 25.6694 31.0498C25.444 30.5056 25.1137 30.0113 24.6973 29.5948C24.2808 29.1784 23.7864 28.848 23.2423 28.6227C22.6982 28.3973 22.115 28.2813 21.5261 28.2813C20.3367 28.2813 19.196 28.7538 18.355 29.5948C17.5139 30.4359 17.0414 31.5766 17.0414 32.766C17.0414 33.9554 17.5139 35.0961 18.355 35.9371C19.196 36.7782 20.3367 37.2507 21.5261 37.2507Z" fill="#283EB0"/>
<path d="M14.8142 133.914L23.8609 142.899C24.8304 141.777 30.9687 135.196 34.0371 144.185C34.0371 144.185 33.7144 148.839 27.0907 148.839C22.4074 148.839 17.5613 143.222 14.1688 140.012C11.2617 137.283 9 133.753 9 130.542C9 123.963 13.5234 123.802 13.5234 123.802C23.8609 127.332 14.8156 133.914 14.8156 133.914" fill="#283EB0"/>
<circle cx="22.0877" cy="85.677" r="3.98317" fill="#283EB0"/>
<line x1="22.0876" y1="53.2427" x2="22.0876" y2="80.5559" stroke="#3040B4" stroke-width="1.13805" stroke-dasharray="2.28 2.28"/>
<rect x="1" y="1" width="41" height="166" rx="20.5" stroke="#EB246C" stroke-width="2"/>
</svg>
