<svg width="361" height="273" viewBox="0 0 361 273" fill="none" xmlns="http://www.w3.org/2000/svg">
<g clip-path="url(#clip0_172_620)">
<path d="M299.872 199.323L291.55 195.239C292.176 193.964 289.649 185.562 265.899 167.679C245.701 152.475 217.159 135.549 185.541 120.033C153.923 104.516 123.073 92.2938 98.6896 85.6187C70.0134 77.7723 61.8212 80.9145 61.1955 82.1892L52.8737 78.1052C63.3548 56.7484 146.912 90.7485 189.625 111.711C232.339 132.673 310.353 177.966 299.872 199.323Z" fill="#EB246C"/>
<path d="M163.125 165.709C120.412 144.746 42.3973 99.4529 52.8784 78.0962L61.2003 82.1803C60.5747 83.455 63.1012 91.8576 86.8518 109.74C107.049 124.944 135.583 141.865 167.209 157.387C198.836 172.908 229.678 185.125 254.061 191.801C282.737 199.647 290.929 196.505 291.555 195.23L299.877 199.314C289.396 220.671 205.839 186.671 163.125 165.709Z" fill="#EB246C"/>
<path d="M315.461 124.319C308.812 131.149 299.284 134.404 289.971 133.019C296.777 139.534 300.018 149.067 298.684 158.505C305.333 151.675 314.861 148.42 324.174 149.805C317.368 143.29 314.127 133.757 315.461 124.319Z" fill="white"/>
<path d="M33.8745 100.84C27.2257 107.669 17.6971 110.924 8.38454 109.54C15.1904 116.054 18.432 125.588 17.0977 135.025C23.7465 128.196 33.2751 124.941 42.5876 126.325C35.7817 119.811 32.5402 110.277 33.8745 100.84Z" fill="white"/>
<path d="M101.705 36.2807C104.769 37.7844 108.472 36.5196 109.976 33.4555C111.479 30.3915 110.214 26.6886 107.15 25.1849C104.086 23.6812 100.384 24.9461 98.8798 28.0101C97.3761 31.0741 98.641 34.777 101.705 36.2807Z" fill="white"/>
<path d="M322.782 208.16C325.846 209.664 329.549 208.399 331.053 205.335C332.556 202.271 331.292 198.568 328.228 197.064C325.164 195.561 321.461 196.826 319.957 199.89C318.453 202.954 319.718 206.657 322.782 208.16Z" fill="white"/>
</g>
<defs>
<clipPath id="clip0_172_620">
<rect width="331.87" height="141.05" fill="white" transform="translate(62.1426) rotate(26.1401)"/>
</clipPath>
</defs>
</svg>
