<svg width="134" height="121" viewBox="0 0 134 121" fill="none" xmlns="http://www.w3.org/2000/svg">
<path d="M132.9 76.1456L105.937 63.1827C105.677 63.0591 105.393 62.9967 105.106 63.0001C104.819 63.0035 104.536 63.0727 104.279 63.2024C104.021 63.3321 103.796 63.5191 103.619 63.7495C103.443 63.9799 103.319 64.2479 103.258 64.5334C103.252 64.5546 101.095 74.7589 97.8917 84.9314C96.7997 88.4182 95.5766 91.8648 94.2995 94.8923L97.7627 96.5563C101.923 86.7288 105.217 73.1626 106.457 67.7366L129.893 78.9888C129.173 82.1919 127.328 90.0463 124.859 97.8879C123.264 102.969 121.396 108.044 119.482 111.717C117.631 115.506 115.41 117.369 114.912 117.119C111.959 117.183 109.883 114.448 108.485 110.942C107.897 109.399 107.44 107.809 107.119 106.187C106.852 104.878 106.771 104.057 106.765 104.057C106.733 103.726 106.616 103.409 106.427 103.138C106.237 102.866 105.981 102.651 105.683 102.512L78.7265 89.5551C78.4196 89.4068 78.0794 89.3443 77.7409 89.374C77.4024 89.4038 77.0778 89.5247 76.8004 89.7245C76.5243 89.9252 76.3056 90.197 76.1667 90.5121C76.0278 90.8272 75.9737 91.1743 76.01 91.5176C76.0266 91.615 76.4156 95.4342 77.9798 99.4291C79.0655 102.224 80.9063 105.395 83.8995 106.998L110.848 119.975L110.861 119.95C112.03 120.574 113.357 120.981 114.91 121C118.648 120.752 120.687 117.469 122.852 113.537C129.092 101.491 133.917 78.3939 133.955 78.3092C134.047 77.8816 133.994 77.4347 133.803 77.0422C133.613 76.6497 133.296 76.3349 132.907 76.1498L132.9 76.1456Z" fill="white"/>
<path d="M1.67997 41.8864L14.6033 33.3749C14.7281 33.2935 14.8695 33.2418 15.0169 33.2237C15.1643 33.2056 15.314 33.2214 15.4549 33.2701C15.5957 33.3188 15.7242 33.399 15.8307 33.5049C15.9372 33.6108 16.019 33.7396 16.0701 33.8817C16.0747 33.8921 17.887 38.9733 20.2333 43.9658C21.0344 45.6775 21.9 47.3595 22.7643 48.8229L21.1043 49.9156C18.2915 45.1663 15.6633 38.4406 14.6521 35.7451L3.41855 43.1356C4.00924 44.7276 5.4988 48.6259 7.30734 52.4744C8.47693 54.9684 9.78574 57.4403 11.021 59.1905C12.2323 61.0048 13.5 61.806 13.7375 61.6435C15.2559 61.4715 16.1305 59.9257 16.6042 58.0319C16.7988 57.2006 16.923 56.3535 16.9755 55.5C17.0213 54.8109 17.006 54.3842 17.0092 54.3838C17.0027 54.2117 17.0405 54.0412 17.119 53.889C17.1975 53.7369 17.3139 53.6085 17.4566 53.5167L30.3772 45.0088C30.5243 44.9115 30.6943 44.8559 30.8699 44.8477C31.0455 44.8396 31.2202 44.8791 31.3762 44.9623C31.5317 45.046 31.6626 45.1702 31.7556 45.3221C31.8486 45.474 31.9004 45.6482 31.9055 45.8267C31.9038 45.8778 31.9688 47.8624 31.4437 50.0184C31.0806 51.526 30.3567 53.2791 28.9334 54.3078L16.0185 62.826L16.0104 62.8138C15.4544 63.2149 14.8024 63.5151 14.0072 63.6325C12.0742 63.7643 10.8019 62.2224 9.41982 60.3571C5.38716 54.6145 1.31429 43.1093 1.28924 43.0685C1.21229 42.8557 1.20878 42.623 1.27928 42.4086C1.34977 42.1942 1.49007 42.0109 1.67707 41.889L1.67997 41.8864Z" fill="white"/>
<path d="M105.189 0.319196C105.827 0.783482 106.088 1.40253 105.972 2.17634L98.5438 46.7478C98.4471 47.3088 98.1376 47.744 97.6153 48.0536C97.3444 48.2083 97.0446 48.2857 96.7157 48.2857C96.5029 48.2857 96.2708 48.2374 96.0193 48.1406L82.8745 42.7723L75.8523 51.3326C75.5041 51.7775 75.0301 52 74.4304 52C74.1789 52 73.9662 51.9613 73.792 51.8839C73.4245 51.7485 73.1295 51.5212 72.907 51.202C72.6846 50.8828 72.5733 50.5298 72.5733 50.1429V40.0156L97.6443 9.28571L66.6248 36.1272L55.1629 31.4263C54.4472 31.1555 54.0603 30.6235 54.0022 29.8304C53.9636 29.0565 54.2731 28.4859 54.9308 28.1183L103.216 0.261161C103.506 0.0870536 103.815 0 104.144 0C104.531 0 104.879 0.106399 105.189 0.319196Z" fill="#E0236B"/>
</svg>
