<svg width="393" height="105" viewBox="0 0 393 105" fill="none" xmlns="http://www.w3.org/2000/svg">
<path d="M321.496 83.388C288.394 87.435 255.202 90.712 221.957 93.2187C188.705 95.7179 155.4 97.4394 122.064 98.3908C105.521 98.8589 88.9782 99.1383 72.4351 99.2213C64.0993 99.2666 55.7636 99.2591 47.4278 99.2062C39.6886 99.1534 31.7681 99.3422 24.2025 97.4243C18.1168 95.884 12.016 92.7279 8.3465 87.4652C4.67697 82.2025 4.33719 75.8073 6.59479 69.8575C11.6461 56.546 26.0222 51.2078 38.624 47.6968C69.7924 39.0137 101.504 32.0069 133.3 26.042C165.351 20.0318 197.645 15.2901 230.074 11.8471C262.345 8.41914 294.759 6.26725 327.204 5.3914C335.343 5.17243 343.49 5.03652 351.637 4.97612C358.848 4.92327 366.315 4.42493 373.481 5.3763C379.166 6.13135 385.154 8.58526 386.868 14.5803C388.423 20.0091 386.332 26.261 382.692 30.4137C378.381 35.3366 372.069 37.9944 365.938 39.8367C358.682 42.0188 351.207 43.5289 343.815 45.1749C327.838 48.7312 311.771 51.9251 295.643 54.7339C263.349 60.3665 230.807 64.4967 198.128 67.1016C190.215 67.7358 182.295 68.2719 174.374 68.7249C171.324 68.8986 171.301 73.6705 174.374 73.4968C208.148 71.5564 241.815 68.0076 275.249 62.8884C292.041 60.3137 308.781 57.3388 325.429 53.9562C333.697 52.2799 341.942 50.5056 350.165 48.6331C357.428 46.9795 364.888 45.5374 371.865 42.8645C378.087 40.4785 384.066 36.9827 387.925 31.4104C391.353 26.4648 393.029 19.9789 391.662 14.0443C388.242 -0.800006 370.075 0.158908 358.297 0.174009C324.606 0.226862 290.916 1.66901 257.347 4.48534C223.807 7.29412 190.381 11.4771 157.182 16.989C123.945 22.5159 90.9413 29.3944 58.2703 37.6169C50.4556 39.5876 42.6106 41.528 34.8789 43.7932C27.9778 45.8167 21.0238 48.3235 15.0513 52.4159C4.19373 59.8531 -3.62857 74.0933 2.54773 86.9896C8.72403 99.8858 25.3427 103.518 38.775 103.865C55.9146 104.318 73.1071 104.046 90.2467 103.82C124.601 103.359 158.941 102.068 193.228 99.9462C227.771 97.817 262.262 94.8496 296.662 91.0442C304.945 90.1306 313.228 89.1641 321.503 88.1523C324.516 87.7824 324.554 83.0105 321.503 83.3804L321.496 83.388Z" fill="#DB1B77"/>
</svg>
