<svg width="189" height="51" viewBox="0 0 189 51" fill="none" xmlns="http://www.w3.org/2000/svg">
<path d="M154.813 40.2171C138.955 42.1559 123.054 43.7258 107.127 44.9268C91.1962 46.1241 75.2404 46.9488 59.2701 47.4046C51.3446 47.6289 43.4192 47.7627 35.4937 47.8025C31.5002 47.8242 27.5068 47.8206 23.5133 47.7953C19.8056 47.7699 16.0111 47.8604 12.3865 46.9416C9.47102 46.2037 6.54826 44.6917 4.79026 42.1704C3.03226 39.6492 2.86948 36.5853 3.95105 33.7349C6.37101 27.3577 13.2583 24.8002 19.2955 23.1182C34.2277 18.9583 49.4203 15.6015 64.6526 12.7438C80.008 9.86449 95.4791 7.59284 111.015 5.94336C126.476 4.30112 142.005 3.27019 157.548 2.85059C161.447 2.74569 165.35 2.68057 169.253 2.65164C172.708 2.62632 176.285 2.38758 179.718 2.84335C182.442 3.20508 185.311 4.3807 186.132 7.25281C186.877 9.85364 185.875 12.8487 184.131 14.8382C182.066 17.1967 179.042 18.47 176.105 19.3526C172.628 20.398 169.047 21.1215 165.506 21.91C157.852 23.6138 150.154 25.1439 142.428 26.4895C126.957 29.188 111.366 31.1666 95.7106 32.4146C91.9197 32.7185 88.1251 32.9753 84.3306 33.1923C82.8692 33.2755 82.8584 35.5616 84.3306 35.4784C100.511 34.5488 116.64 32.8487 132.657 30.3962C140.702 29.1627 148.722 27.7375 156.698 26.1169C160.659 25.3139 164.609 24.4638 168.548 23.5667C172.028 22.7746 175.602 22.0837 178.944 20.8031C181.925 19.6601 184.79 17.9853 186.638 15.3157C188.28 12.9464 189.083 9.83917 188.429 6.99599C186.79 -0.115582 178.087 0.343813 172.444 0.351047C156.304 0.376368 140.163 1.06727 124.081 2.41651C108.013 3.76214 91.9992 5.76611 76.0941 8.40673C60.1708 11.0546 44.3597 14.3499 28.7077 18.2891C24.9638 19.2332 21.2055 20.1629 17.5014 21.2481C14.1952 22.2175 10.8637 23.4184 8.0024 25.379C2.80076 28.942 -0.946745 35.7642 2.01219 41.9425C4.97112 48.1208 12.9328 49.8607 19.3679 50.0271C27.5791 50.2442 35.8157 50.1139 44.0269 50.0054C60.4855 49.7848 76.9369 49.1662 93.363 48.1498C109.912 47.1297 126.436 45.7081 142.916 43.885C146.884 43.4473 150.852 42.9843 154.817 42.4996C156.26 42.3223 156.278 40.0362 154.817 40.2135L154.813 40.2171Z" fill="#DB1B77"/>
</svg>
