<svg width="10" height="11" viewBox="0 0 10 11" fill="none" xmlns="http://www.w3.org/2000/svg">
<path d="M7.07877 6.51979C6.9539 6.55714 6.82902 6.59448 6.70414 6.63183L7.19127 6.50669C6.71077 6.62346 6.22416 6.68773 5.72881 6.677L6.23166 6.68685C5.80468 6.67577 5.39409 6.60956 4.98576 6.49748L5.45758 6.63257C5.2446 6.56615 5.03076 6.49224 4.82929 6.39407C4.77242 6.36269 4.71643 6.3388 4.65956 6.30742C4.48897 6.21326 4.54583 6.24465 4.82353 6.40995C4.74643 6.33531 4.64194 6.28666 4.55821 6.2204C4.47448 6.15413 4.39825 6.08701 4.32201 6.01987C4.0682 5.79858 4.65417 6.39167 4.38237 6.08125C4.24141 5.91523 4.11371 5.73246 4.00013 5.54045L4.24003 5.9686C4.0776 5.68346 3.95929 5.38557 3.8701 5.07669L3.99525 5.56382C3.92456 5.28319 3.88387 4.99908 3.87981 4.70309L3.86996 5.20594C3.87776 4.94658 3.90893 4.6921 3.97761 4.43325L3.84252 4.90507C3.89167 4.73971 3.9567 4.58012 4.03011 4.42714C4.16366 4.13793 3.75529 4.80881 3.95321 4.55011C4.00622 4.48313 4.05173 4.41701 4.10474 4.35002C4.13875 4.31566 4.23465 4.16006 4.27302 4.16319C4.22802 4.16843 3.87384 4.52135 4.17188 4.2738C4.3039 4.1672 4.44516 4.07474 4.58729 3.98977L4.15914 4.22967C4.40941 4.0941 4.66317 3.98854 4.93629 3.91873L4.44916 4.04387C4.69316 3.98505 4.94066 3.95622 5.19165 3.9574L4.6888 3.94755C4.94066 3.95623 5.18764 3.98827 5.43149 4.05869L4.95966 3.9236C5.12502 3.97276 5.278 4.04616 5.43098 4.11957C5.72943 4.26725 5.0418 3.84562 5.30887 4.05017C5.37586 4.10318 5.44197 4.14868 5.50983 4.2092C5.6363 4.31609 5.7525 4.53061 5.42086 4.09794C5.47459 4.1677 5.53407 4.22158 5.58781 4.29134C5.6944 4.42336 5.78774 4.57211 5.8727 4.71425L5.63281 4.2861C5.75825 4.51474 5.8537 4.74687 5.92089 4.9975L5.79575 4.51037C5.85545 4.76187 5.89177 5.00849 5.88397 5.26785L5.89382 4.765C5.89002 4.99349 5.85535 5.21797 5.79731 5.43757L5.9324 4.96575C5.88324 5.13111 5.81734 5.28321 5.74394 5.43619C5.61213 5.7404 6.00463 5.06375 5.82083 5.3132C5.76207 5.39606 5.70331 5.47893 5.64367 5.55429C5.58978 5.61377 5.35925 5.85346 5.61141 5.60365C5.86357 5.35384 5.62466 5.5869 5.5624 5.63976C5.41626 5.7556 5.26837 5.85645 5.10461 5.95153L5.53277 5.71163C5.30413 5.83708 5.07199 5.93252 4.82137 5.99971L5.30849 5.87457C5.05699 5.93427 4.8095 5.96309 4.55101 5.96279L5.05386 5.97264L4.96962 5.96725C4.45002 5.94415 3.97754 5.99917 3.54399 6.32332C3.1802 6.59373 2.86512 7.08651 2.81165 7.54122C2.70734 8.47316 3.33719 9.63885 4.39313 9.69832C5.59331 9.75619 6.71755 9.48843 7.69015 8.76704C8.66275 8.04566 9.26293 7.06358 9.54127 5.92894C10.0603 3.79328 8.71287 1.4265 6.74302 0.568889C4.77317 -0.288725 2.17377 0.432073 0.96346 2.24536C0.302415 3.22692 -0.00330847 4.38755 0.14969 5.57077C0.283473 6.589 0.718483 7.64816 1.41629 8.41827C2.31629 9.42328 3.46197 10.0576 4.78585 10.3291C6.02374 10.5802 7.30446 10.4159 8.4906 10.0269C9.42787 9.7201 9.93398 8.45253 9.53406 7.56412C9.08528 6.58257 8.08266 6.19764 7.07127 6.52066L7.07877 6.51979Z" fill="#DB1B77"/>
</svg>
