<svg width="13" height="18" viewBox="0 0 13 18" fill="none" xmlns="http://www.w3.org/2000/svg">
<path d="M9.18433 11.8818C8.88105 12.0844 9.09295 11.9457 9.16445 11.9069C9.06382 11.9567 8.95569 12.0073 8.85419 12.0495C8.75268 12.0917 8.15306 12.23 8.5263 12.1713C8.26468 12.2094 8.01806 12.2457 7.75382 12.2612C7.45121 12.2737 8.0383 12.2889 7.73882 12.263C7.59283 12.2496 7.44684 12.2362 7.30748 12.2144C7.22986 12.2006 6.59443 12.0314 6.92689 12.1447C6.70554 12.0717 6.48245 11.9836 6.2726 11.8788C6.16812 11.8302 6.06276 11.774 5.9574 11.7179C6.22586 11.8691 5.9724 11.7162 5.92304 11.6839C5.83093 11.611 5.7322 11.5465 5.64009 11.4736C5.58148 11.4272 5.23381 11.118 5.45763 11.3428C5.27655 11.1587 5.11535 10.9494 4.96253 10.7467C4.88943 10.6412 4.81633 10.5357 4.75073 10.4293C4.89117 10.6562 4.73049 10.3861 4.71112 10.3503C4.60067 10.12 4.49685 9.88119 4.40803 9.64069C4.36318 9.51668 4.32671 9.39931 4.28186 9.2753C4.11049 8.71755 4.31767 9.58279 4.22042 9.0088C4.13016 8.49481 4.06152 7.9707 4.07712 7.45198C4.07282 7.74134 4.08776 7.41273 4.09002 7.36686C4.10517 7.23587 4.11282 7.10575 4.12797 6.97476C4.16716 6.65854 4.22885 6.33969 4.29891 6.02747C4.30779 5.97322 4.40385 5.68838 4.31442 5.96485C4.35382 5.84624 4.39409 5.73513 4.44099 5.61564C4.52903 5.39255 4.63119 5.16021 4.75936 4.95524C4.60644 5.2087 4.77436 4.9535 4.80749 4.91163C4.88788 4.81865 4.95327 4.72742 5.03366 4.63444C4.83137 4.85564 5.02041 4.65119 5.07604 4.6067C5.14667 4.56047 5.54919 4.36156 5.2513 4.47987C5.36031 4.43677 5.47594 4.38529 5.59419 4.35632C5.35769 4.41427 5.5232 4.33418 5.62768 4.38283C5.62768 4.38283 6.07577 4.44467 5.65018 4.38021C5.76617 4.3971 5.88216 4.414 5.99902 4.4384C5.68018 4.37671 6.29573 4.57108 6.37597 4.60734C6.69693 4.7524 6.52232 4.68912 6.44784 4.63698C6.60431 4.74038 6.76252 4.85879 6.90574 4.97893C7.00622 5.05845 7.10007 5.14634 7.19393 5.23423C7.13357 5.17285 7.00848 5.01258 7.25516 5.30312C7.41461 5.49739 7.57406 5.69166 7.72026 5.90268C7.97655 6.27572 8.16883 6.68661 8.3702 7.24087C8.54872 7.72939 8.63127 8.04664 8.69976 8.69999C8.71636 8.84249 8.71708 8.97923 8.73367 9.12173C8.73629 9.14423 8.73897 9.49359 8.74765 9.24173C8.74596 9.55358 8.69927 9.87068 8.64334 10.1737C8.55186 10.6936 8.42216 11.0812 8.09243 11.6441C8.23873 11.399 8.07168 11.6617 8.04518 11.6952C7.9334 11.8451 7.82913 11.994 7.7081 12.1297C7.62771 12.2227 7.54732 12.3157 7.46606 12.4012C7.64184 12.2135 7.42455 12.4364 7.34154 12.5069C7.13402 12.6831 6.90975 12.846 6.68373 12.994C6.37382 13.2049 6.56234 13.0613 6.63385 13.0226C6.46834 13.1027 6.31033 13.1819 6.13558 13.2479C6.02657 13.291 5.9092 13.3274 5.79269 13.3714C5.29493 13.5358 6.10193 13.3506 5.58445 13.4109C5.27695 13.4467 4.98446 13.4807 4.67923 13.4707C3.68941 13.4567 2.8702 14.6467 3.02263 15.564C3.20614 16.6828 4.05024 17.2079 5.11593 17.2206C8.23627 17.2525 11.1486 14.8457 12.0638 11.9341C13.1242 8.57241 12.1098 4.69215 9.53304 2.27849C8.33983 1.1708 6.65832 0.439236 5.01185 0.661386C3.22377 0.90763 1.88307 2.18879 1.13178 3.76618C-0.24474 6.63263 0.107208 10.438 1.95021 13.0131C4.08474 16.0028 8.36808 16.9483 11.4582 14.8933C12.3049 14.331 12.4198 13.0329 11.8345 12.2497C11.1955 11.3967 10.0452 11.3103 9.19096 11.8734L9.18433 11.8818Z" fill="#DB1B77"/>
</svg>
