<svg width="18" height="18" viewBox="0 0 18 18" fill="none" xmlns="http://www.w3.org/2000/svg">
<path d="M12.9541 12.0753C11.8215 12.6038 10.7644 13.072 9.49593 13.374C8.86169 13.525 8.61253 13.5778 7.94053 13.5703C7.3818 13.5703 7.07223 13.525 6.57389 13.3287C5.67538 12.9813 5.28276 12.4528 4.79198 11.5694C4.76933 11.5316 4.64097 11.2447 4.75422 11.5014C4.70892 11.3882 4.66362 11.2674 4.62587 11.1466C4.55036 10.905 4.48996 10.6633 4.44465 10.4142C4.50506 10.7162 4.44465 10.4142 4.4371 10.3538C4.42955 10.2254 4.422 10.1046 4.422 9.97625C4.422 9.84789 4.422 9.71953 4.422 9.59117C4.422 9.53077 4.50506 9.00979 4.44465 9.32691C4.48996 9.07774 4.55036 8.82102 4.62587 8.57941C4.66362 8.4586 4.70892 8.33779 4.74667 8.21698C4.65607 8.46615 4.76178 8.17168 4.78443 8.13393C4.91279 7.86966 5.04869 7.6205 5.20725 7.37133C5.27521 7.25807 5.35071 7.15237 5.42622 7.04666C5.52438 6.91075 5.35826 7.10706 5.54703 6.8881C5.73579 6.66914 5.93965 6.45772 6.15107 6.26141C6.24922 6.1708 6.33983 6.08775 6.44554 6.00469C6.6947 5.80083 6.24922 6.1406 6.53614 5.93674C6.80041 5.75552 7.06467 5.58186 7.35159 5.43085C7.4724 5.3629 7.60076 5.30249 7.72912 5.23454C7.94053 5.12883 7.82727 5.18169 7.96318 5.13639C8.52947 4.92497 9.11086 4.77396 9.70735 4.6607C9.96406 4.6154 9.87346 4.6305 10.2661 4.6003C10.621 4.57765 10.9758 4.5701 11.3307 4.5852C11.4591 4.5852 12.0933 4.6758 11.7158 4.6003C11.9423 4.6456 12.1688 4.69091 12.3878 4.75131C12.4784 4.77396 13.0673 5.03068 12.7426 4.86457C12.8408 4.91742 12.9465 4.96272 13.0371 5.02313C13.0975 5.06088 13.4826 5.3629 13.1881 5.09863C13.2712 5.16659 13.3391 5.24209 13.4146 5.3176C13.762 5.63472 13.1126 5.17414 13.4826 5.43085C13.3693 5.3478 13.4977 5.09108 13.4675 5.4082C13.4448 5.74797 13.4448 5.24209 13.4826 5.46861C13.5279 5.74042 13.5581 5.22699 13.4901 5.49126C13.475 5.57431 13.4448 5.65737 13.4146 5.74042C13.475 5.58186 13.475 5.56676 13.4146 5.68757C13.2863 5.94429 13.5883 5.52146 13.392 5.74042C13.2938 5.85368 13.1881 5.96694 13.0673 6.05754C13.3316 5.84613 12.4331 6.32181 12.7879 6.201C12.4708 6.30671 12.2217 6.35956 11.9574 6.35956C11.1872 6.35956 10.6134 6.28406 9.86591 6.1557C8.86169 5.97449 7.83483 6.42752 7.54036 7.47704C7.29119 8.39065 7.84993 9.62138 8.86169 9.80259C10.8399 10.1575 12.8937 10.4293 14.7435 9.44016C16.2536 8.63226 17.3786 6.97115 17.2276 5.22699C16.9105 1.54235 12.6369 0.530586 9.59409 0.90056C6.16617 1.30829 2.88925 3.16571 1.41691 6.40487C-0.055438 9.64403 0.510849 13.3287 3.18372 15.6014C6.6796 18.5838 11.157 17.0435 14.8341 15.322C15.7553 14.8916 15.9894 13.5627 15.5137 12.7397C14.9625 11.7959 13.8601 11.6298 12.9314 12.0602L12.9541 12.0753Z" fill="#EEEEEE"/>
</svg>
