<svg width="16" height="19" viewBox="0 0 16 19" fill="none" xmlns="http://www.w3.org/2000/svg">
<path d="M7.20285 14.2589C7.11225 14.3269 7.02164 14.3797 6.92348 14.4401C6.88573 14.4628 6.65922 14.5383 6.84798 14.4779C7.03674 14.4175 6.29679 14.4779 6.78003 14.493C6.61392 14.493 6.4478 14.493 6.28169 14.4854C6.66677 14.5232 6.08538 14.4099 5.95702 14.3646C6.28169 14.4703 5.82111 14.2816 5.71541 14.2212C5.6399 14.1759 5.57195 14.1306 5.50399 14.0777C5.5946 14.1457 5.70031 14.2816 5.50399 14.0475C5.45869 13.9947 5.15667 13.6473 5.30768 13.8512C5.15667 13.6473 5.04341 13.4284 4.92261 13.2019C4.89995 13.1641 4.7867 12.8772 4.88485 13.1339C4.85465 13.0433 4.8169 12.9527 4.79425 12.8621C4.72629 12.6507 4.66589 12.4317 4.61303 12.2127C4.56773 12.024 4.53753 11.8352 4.50733 11.6465C4.55263 11.9409 4.50733 11.6238 4.50733 11.5785C4.49978 11.4502 4.48468 11.3293 4.47713 11.201C4.45448 10.7631 4.45447 10.3251 4.48468 9.89475C4.49978 9.70599 4.51488 9.51723 4.53753 9.33601C4.49223 9.65313 4.53753 9.33601 4.55263 9.28316C4.57528 9.16235 4.59793 9.04154 4.62814 8.91318C4.71874 8.49036 4.8471 8.07508 4.99811 7.66736C5.11137 7.35779 4.94526 7.73531 5.10382 7.44084C5.21707 7.22187 5.33033 7.00291 5.45869 6.79905C5.51909 6.69334 5.5946 6.59518 5.655 6.48948C5.655 6.48948 5.83621 6.24031 5.72296 6.38377C5.6097 6.52723 5.79846 6.29317 5.80601 6.28562C5.88907 6.19501 5.96457 6.1044 6.05518 6.0138C6.18354 5.88544 6.3119 5.76463 6.4478 5.63627C6.70452 5.39466 6.53086 5.56077 6.46291 5.61362C6.55351 5.54567 6.65167 5.48526 6.74227 5.42486C6.90838 5.31915 7.08205 5.221 7.26326 5.13039C7.33876 5.09264 7.41427 5.05488 7.48977 5.01713C7.41427 5.05488 7.17265 5.13039 7.51242 5.01713C7.88995 4.88877 8.26747 4.78307 8.66765 4.72266C8.29767 4.77552 8.79601 4.72266 8.92437 4.72266C9.12068 4.72266 9.31699 4.73776 9.5133 4.74531C9.18863 4.74531 9.5133 4.74532 9.67186 4.77552C9.89083 4.82082 10.0947 4.88877 10.3061 4.96428C9.95878 4.84347 10.4949 5.06999 10.6006 5.13039C10.6987 5.19079 10.7893 5.2512 10.8799 5.3116C10.7138 5.19079 10.8346 5.27385 10.9177 5.36445C10.9932 5.43996 11.3707 5.90054 11.2348 5.69668C11.2877 5.77218 11.333 5.85524 11.3858 5.93829C11.416 5.99115 11.567 6.35357 11.4689 6.08175C11.4991 6.17235 11.5293 6.26296 11.5519 6.35357C11.5746 6.44417 11.5897 6.8066 11.5897 6.48948C11.5897 6.58008 11.5897 6.66314 11.5897 6.75374C11.5897 7.04066 11.6576 6.50458 11.5897 6.7764C11.5595 6.88966 11.5293 7.00291 11.4915 7.11617C11.4009 7.38043 11.6199 6.91231 11.4613 7.14637C11.416 7.22188 11.3707 7.29738 11.3179 7.37288C11.567 7.04066 11.0461 7.56165 11.3783 7.31248C10.5628 7.92407 10.1475 8.94339 10.6987 9.89475C11.1669 10.6951 12.458 11.1859 13.281 10.5743C14.5495 9.62293 15.3423 8.2865 15.3574 6.66314C15.3725 5.2059 14.6854 3.7713 13.651 2.75954C11.7936 0.95497 8.91681 0.501938 6.50821 1.37024C1.31347 3.24277 -0.619455 9.94005 1.50223 14.7724C2.11382 16.1617 3.16334 17.264 4.56773 17.853C5.97212 18.4419 7.79179 18.4419 9.10558 17.5132C9.93613 16.9243 10.3288 15.8672 9.78512 14.9309C9.30189 14.1079 8.04096 13.6624 7.20285 14.2514V14.2589Z" fill="#EEEEEE"/>
</svg>
