<svg width="11" height="13" viewBox="0 0 11 13" fill="none" xmlns="http://www.w3.org/2000/svg">
<path d="M8.43556 8.72572C8.19942 8.85204 7.96066 8.95586 7.70428 9.03893C7.64516 9.05341 7.57853 9.06878 7.52778 9.08989C7.52778 9.08989 7.92178 9.0136 7.71928 9.03718C7.57679 9.05378 7.43604 9.08537 7.29354 9.10196C7.22604 9.10982 6.73994 9.11322 7.06105 9.12904C7.38215 9.14485 6.96093 9.1179 6.88418 9.11163C6.74569 9.09735 6.59883 9.07645 6.45859 9.04717C6.39685 9.03916 6.34085 9.01527 6.27911 9.00726C6.03876 8.96684 6.62082 9.1347 6.39772 9.04666C6.31836 9.01789 5.66094 8.79039 5.66895 8.72865C5.6672 8.71365 5.98276 8.94295 5.82367 8.81705C5.77343 8.77729 5.72407 8.74503 5.6747 8.71277C5.55835 8.6275 5.4495 8.54136 5.3464 8.43935C5.00623 8.12929 5.5001 8.64949 5.29529 8.39209C5.21556 8.29495 5.13671 8.20531 5.06448 8.1073C5.00063 8.01592 4.93904 7.87866 4.86193 7.80402C5.06638 7.99306 5.00849 8.08342 4.92753 7.91041C4.8963 7.83803 4.85756 7.76653 4.82546 7.68665C4.77486 7.57852 4.73088 7.46202 4.69441 7.34464C4.67242 7.28639 4.65793 7.22727 4.63595 7.16901C4.54713 6.92851 4.71136 7.55551 4.66667 7.30226C4.62197 7.04902 4.64703 6.74203 4.57496 6.51478C4.57933 6.55228 4.54574 6.98187 4.57743 6.66652C4.58631 6.61228 4.58683 6.55141 4.59484 6.48966C4.60424 6.37455 4.62863 6.25768 4.64641 6.14919C4.66104 6.07907 4.75324 5.69586 4.67394 5.99395C4.59463 6.29205 4.74472 5.81848 4.78098 5.73824C4.82963 5.63375 4.87827 5.52927 4.92692 5.42479C5.12673 5.05185 4.75463 5.64249 4.94592 5.39216C5.09658 5.18458 5.25736 4.99862 5.41727 4.80516C5.54404 4.65357 5.28125 4.94263 5.28125 4.94263C5.33863 4.91314 5.40489 4.82941 5.4539 4.7933C5.54441 4.72195 5.63492 4.65059 5.7338 4.58587C5.7828 4.54975 5.83268 4.52114 5.88256 4.49253C6.0437 4.37494 5.71967 4.59511 5.7113 4.58849C5.7113 4.58849 6.10894 4.41295 6.16719 4.39096C6.22544 4.36898 6.43857 4.30615 6.15969 4.39184C5.88081 4.47752 6.14644 4.40859 6.21394 4.40073C6.26644 4.39461 6.35155 4.4075 6.39393 4.37976C6.27743 4.42374 5.96033 4.37705 6.29818 4.40612C6.49755 4.42091 6.11783 4.35871 6.10945 4.35208C6.3383 4.42425 6.10021 4.33795 6.00985 4.28006C6.06759 4.31895 6.18255 4.45759 6.0231 4.26332C5.83853 4.04917 6.0231 4.26332 6.05171 4.3132C6.0962 4.36883 6.25165 4.59397 6.08695 4.3547C5.92226 4.11543 6.07108 4.34895 6.09394 4.4147C6.10494 4.44383 6.13478 4.56957 6.15153 4.58283C6.08629 4.54481 6.08536 4.21046 6.12692 4.50208C6.18559 4.87532 6.21426 5.25206 6.22881 5.63804C6.26823 6.62925 7.36738 7.45143 8.32211 7.29464C9.39684 7.12387 10.026 6.26004 9.97871 5.20133C9.93143 4.14263 9.76051 3.19714 9.2221 2.29445C8.68369 1.39176 7.72061 0.758966 6.68856 0.643509C4.8472 0.432265 2.99456 1.5602 1.9743 3.04729C1.01369 4.45903 0.535222 6.22509 0.937727 7.91896C1.38282 9.78271 2.49395 11.2952 4.18893 12.2077C5.88391 13.1201 8.14104 13.1157 9.82315 12.2205C10.2747 11.9854 10.6301 11.7084 10.8402 11.2278C11.0255 10.7958 11.0615 10.1911 10.8591 9.75854C10.471 8.90675 9.33512 8.22568 8.39631 8.71509L8.43556 8.72572Z" fill="#DB1B77"/>
</svg>
