<svg width="17" height="16" viewBox="0 0 17 16" fill="none" xmlns="http://www.w3.org/2000/svg">
<path d="M14.5146 11.0743C12.408 11.7085 10.5581 12.2295 8.42136 12.0407C8.04383 12.0105 8.33075 12.0256 8.40625 12.0407C8.293 12.0181 8.17974 12.003 8.06648 11.9728C7.89282 11.935 7.72671 11.8973 7.5606 11.8444C7.33408 11.7765 7.11512 11.701 6.89616 11.6179C7.21328 11.7387 6.63944 11.4895 6.55638 11.4442C6.38272 11.3461 6.20906 11.2479 6.0354 11.1347C5.96745 11.0894 5.89194 11.0365 5.82399 10.9912C5.89194 11.0365 6.07315 11.2102 5.80133 10.9686C5.65033 10.8327 5.50687 10.7043 5.37096 10.5608C5.31055 10.5004 5.2577 10.4325 5.20485 10.3721C5.37851 10.5684 5.2275 10.4023 5.14444 10.2815C5.03119 10.1154 4.94058 9.9417 4.84997 9.76804C4.84997 9.75293 4.74427 9.50377 4.80467 9.66988C4.88018 9.87374 4.75182 9.48867 4.74427 9.44336C4.72162 9.36031 4.60836 8.77892 4.64611 9.08849C4.61591 8.83177 4.60836 8.56751 4.62346 8.31079C4.62346 8.18243 4.63856 8.05407 4.65366 7.91816C4.65366 7.96347 4.61591 8.15978 4.65366 7.93327C4.69141 7.70675 4.74427 7.48024 4.80467 7.26127C4.86507 7.04231 4.94058 6.81579 5.02363 6.60438C5.14444 6.30236 4.92548 6.80069 5.06894 6.50622C5.12934 6.38542 5.1822 6.27216 5.25015 6.15135C5.35586 5.95504 5.46156 5.76627 5.58237 5.58506C5.65033 5.48691 5.71828 5.3812 5.78623 5.28304C5.76358 5.31325 5.62767 5.47181 5.77113 5.3057C5.91459 5.13958 6.04295 4.98102 6.19396 4.83756C6.27702 4.75451 6.36762 4.67145 6.45823 4.5884C6.54883 4.50534 6.66209 4.44494 6.49598 4.55065C6.69229 4.41474 6.89616 4.29393 7.10757 4.18822C6.83575 4.31658 7.22838 4.16557 7.32653 4.12782C7.6361 4.02211 7.37184 4.09762 7.28123 4.11272C7.37939 4.09762 7.48509 4.09762 7.5908 4.09762C7.65876 4.09762 7.75691 4.12027 7.82487 4.09762C8.00608 4.05231 7.49264 3.99946 7.86262 4.09762C7.93812 4.12027 8.01363 4.13537 8.08913 4.15802C8.28545 4.21087 8.3534 4.28638 8.13444 4.15802C8.20239 4.19577 8.27035 4.22597 8.33075 4.27128C8.51196 4.38454 8.53461 4.46004 8.3685 4.28638C8.43646 4.35433 8.50441 4.42984 8.57237 4.49779C8.45156 4.37698 8.46666 4.30148 8.53461 4.48269C8.56481 4.56575 8.65542 4.81491 8.51951 4.44494C8.60257 4.67145 8.51196 4.51289 8.51951 4.36943C8.48931 4.72431 8.54971 4.36188 8.55726 4.30148C8.54216 4.39964 8.51196 4.49024 8.48931 4.5884C8.40625 4.92062 8.46666 4.61105 8.51196 4.5431C8.47421 4.59595 8.23259 4.89797 8.41381 4.71676C8.57237 4.55065 8.3987 4.70921 8.3685 4.73941C8.51951 4.53554 8.57992 4.70921 8.3534 4.73941C8.17219 4.76206 8.45156 4.69411 8.48931 4.68655C8.20994 4.77716 8.66297 4.70921 8.79888 4.72431C7.82487 4.59595 6.7225 4.95837 6.47333 6.04564C6.26947 6.92905 6.74515 8.22774 7.79466 8.37119C9.41047 8.59016 10.83 8.00877 11.6983 6.58173C12.4609 5.34345 12.476 3.76539 11.7511 2.51201C10.2637 -0.0400522 6.66964 -0.236365 4.4498 1.37944C2.22995 2.99525 0.667001 6.0834 0.855763 8.89973C1.06718 11.9275 3.06051 14.1398 5.80889 15.2346C8.94989 16.4729 12.408 15.6499 15.5113 14.7212C16.4551 14.4342 17.1497 13.3847 16.8326 12.3956C16.5155 11.4065 15.5264 10.7723 14.5071 11.0743H14.5146Z" fill="#EEEEEE"/>
</svg>
