<svg width="283" height="187" viewBox="0 0 283 187" fill="none" xmlns="http://www.w3.org/2000/svg">
<g clip-path="url(#clip0_171_591)">
<path d="M141.156 0.153091L167.348 42.722L228.243 17.983L209.728 62.1174L282.072 64.6613L225.918 93.5173L282.072 122.366L209.728 124.91L228.243 169.044L167.348 144.312L141.156 186.874L114.964 144.312L54.0689 169.044L72.5836 124.91L0.248047 122.366L56.402 93.5173L0.248047 64.6613L72.5836 62.1174L54.0689 17.983L114.964 42.722L141.156 0.153091Z" fill="#EB246C"/>
<path d="M83.5432 84.9072V103.866H87.1859V105.665H78.0264V103.866H81.2552V80.4365H78.049V78.6377H88.2321L108.305 95.4139V80.4215H104.662V78.6227H113.822V80.4365H110.615V105.665H108.305L83.5356 84.9072H83.5432Z" fill="#E8E6DF"/>
<path d="M131.192 106.064C126.473 106.064 122.928 105.085 120.55 103.128C118.172 101.172 116.983 98.718 116.983 95.7752C116.968 92.8324 118.157 90.3863 120.543 88.422C122.928 86.4651 126.18 85.4867 130.282 85.4867C134.383 85.4867 137.605 86.4651 139.991 88.422C142.294 90.3337 143.332 92.7045 143.106 95.5419H124.795V95.7601C124.78 98.2664 125.457 100.306 126.835 101.872C127.903 102.978 129.25 103.67 130.884 103.941C131.418 104.017 131.907 104.054 132.351 104.054C136.288 103.971 139.087 102.571 140.751 99.8695H143.039C141.165 103.896 137.213 105.958 131.207 106.071L131.192 106.064ZM135.633 93.7356C135.422 92.14 134.963 90.7777 134.263 89.6412C133.27 88.0758 131.937 87.3005 130.259 87.3005C128.581 87.3005 127.271 88.0833 126.278 89.6412C125.563 90.7702 125.103 92.1324 124.908 93.7356H135.64H135.633Z" fill="#E8E6DF"/>
<path d="M168.267 91.7712L161.47 105.665H157.165L148.329 87.6392H145.123V85.8404H159.084V87.6392H155.878L161.643 100.291L168.65 85.8404H172.933L179.503 100.291L185.637 87.6392H182.431V85.8404H191.357V87.6392H188.151L179.315 105.665H175.01L168.259 91.7712H168.267Z" fill="#E8E6DF"/>
<path d="M197.672 100.539C198.154 101.352 198.252 102.158 197.966 102.948C197.665 103.723 197.062 104.25 196.159 104.528C195.249 104.807 194.3 104.762 193.322 104.385C192.336 104.009 191.606 103.407 191.117 102.594C190.627 101.781 190.537 100.983 190.831 100.208C191.132 99.4254 191.734 98.8911 192.644 98.6126C193.555 98.3341 194.496 98.3793 195.482 98.7556C196.468 99.1319 197.198 99.734 197.68 100.547L197.672 100.539ZM196.882 97.6492L195.173 96.9944C196.566 87.9628 197.619 82.5062 198.349 80.6096C198.65 79.8269 199.253 79.2925 200.163 79.014C201.074 78.7356 202.015 78.7807 203.001 79.157C203.987 79.5333 204.717 80.1354 205.198 80.9483C205.68 81.7611 205.778 82.5665 205.484 83.3567C204.739 85.2458 201.872 90.01 196.882 97.6568V97.6492Z" fill="#E8E6DF"/>
</g>
<defs>
<clipPath id="clip0_171_591">
<rect width="281.824" height="186.721" fill="white" transform="translate(0.248047 0.153122)"/>
</clipPath>
</defs>
</svg>
