<svg width="83" height="84" viewBox="0 0 83 84" fill="none" xmlns="http://www.w3.org/2000/svg">
<path d="M32.0679 28.082C32.0685 27.7436 32.1601 27.4116 32.333 27.1208C32.506 26.83 32.754 26.5911 33.051 26.4291C33.348 26.267 33.6832 26.1879 34.0213 26.1999C34.3595 26.212 34.6882 26.3147 34.9729 26.4974L56.0097 40.0151C56.276 40.1858 56.4952 40.4207 56.647 40.6982C56.7988 40.9758 56.8784 41.2871 56.8784 41.6034C56.8784 41.9198 56.7988 42.231 56.647 42.5086C56.4952 42.7861 56.276 43.0211 56.0097 43.1917L34.9729 56.7132C34.6882 56.8959 34.3595 56.9987 34.0213 57.0107C33.6832 57.0227 33.348 56.9436 33.051 56.7815C32.754 56.6195 32.506 56.3806 32.333 56.0898C32.1601 55.799 32.0685 55.467 32.0679 55.1286V28.082Z" fill="#D5226B"/>
<path d="M-0.000244141 41.6033C-0.000244141 18.684 18.5804 0.103271 41.4998 0.103271C64.4191 0.103271 82.9998 18.684 82.9998 41.6033C82.9998 64.5226 64.4191 83.1033 41.4998 83.1033C18.5804 83.1033 -0.000244141 64.5226 -0.000244141 41.6033ZM41.4998 5.76236C31.9942 5.76236 22.8779 9.53845 16.1564 16.2599C9.43493 22.9814 5.65885 32.0977 5.65885 41.6033C5.65885 51.1089 9.43493 60.2251 16.1564 66.9466C22.8779 73.6681 31.9942 77.4442 41.4998 77.4442C51.0054 77.4442 60.1216 73.6681 66.8431 66.9466C73.5646 60.2251 77.3407 51.1089 77.3407 41.6033C77.3407 32.0977 73.5646 22.9814 66.8431 16.2599C60.1216 9.53845 51.0054 5.76236 41.4998 5.76236Z" fill="#D5226B"/>
</svg>
