<svg width="764" height="659" viewBox="0 0 764 659" fill="none" xmlns="http://www.w3.org/2000/svg">
<g clip-path="url(#clip0_193_1092)">
<path d="M546.326 342.007C545.395 330.722 543.768 319.282 540.668 308.367C540.354 307.273 539.115 307.102 538.253 307.547C537.647 307.085 536.951 306.732 536.186 306.515C533.845 305.86 531.293 306.27 528.906 306.435C523.961 306.772 519.017 307.108 514.078 307.444C509.168 307.78 504.252 308.071 499.347 308.47C494.934 308.829 490.52 309.399 486.266 310.676C483.954 311.371 481.533 312.26 479.512 313.594C478.381 314.335 477.279 315.555 476.885 316.871C476.343 315.6 474.093 315.521 473.842 317.231C472.483 326.561 471.81 335.977 471.804 345.404C471.804 354.188 472.135 363.188 474.036 371.794C474.95 375.938 476.217 380.007 478.096 383.821C479.775 387.223 481.876 390.729 485.142 392.843C487.911 394.639 491.017 394.992 493.986 394.097C494.077 404.152 496.007 414.194 499.758 423.531C502.191 429.589 506.027 438.27 514.01 437.489C517.647 437.13 520.113 434.24 521.712 431.214C523.499 427.84 524.538 424.083 525.275 420.35C525.589 418.754 525.846 417.147 526.08 415.534C527.753 416.805 529.819 417.597 531.949 417.341C534.033 417.09 535.797 415.921 537.219 414.44C540.417 411.111 541.97 406.209 543.037 401.837C544.191 397.135 544.836 392.285 545.43 387.48C546.041 382.51 546.48 377.522 546.749 372.524C547.297 362.361 547.171 352.159 546.332 342.013L546.326 342.007Z" fill="#E0236B" stroke="black" stroke-width="3" stroke-miterlimit="10"/>
<path d="M537.613 339.032C535.489 327.57 533.005 316.957 525.023 307.934C522.842 305.466 520.267 303.449 517.47 301.927C516.562 302.531 515.448 302.924 514.112 302.987C500.66 303.631 488.293 312.118 483.72 324.959C479.609 336.501 483.326 359.79 500.369 349.873C501.956 348.95 509.179 343.974 509.042 341.985C509.573 349.787 512.165 357.75 516.636 364.202C520.69 370.056 531.087 379.768 536.625 370.227C541.484 361.859 537.63 339.112 537.619 339.032H537.613Z" fill="white" stroke="black" stroke-width="3" stroke-miterlimit="10"/>
<path d="M473.368 258.039C468.11 254.232 460.996 253.924 455.366 256.87C454.886 256.523 454.31 256.329 453.716 256.454C444.889 258.301 438.597 266.258 433.721 273.297C423.261 288.39 418.076 305.865 413.354 323.386C411.156 331.543 407.536 341.95 414.542 348.847C421.525 355.721 432.179 352.734 439.322 347.935C450.935 340.126 459.728 328.647 466.625 316.632C472.9 305.7 480.962 291.331 481.419 278.49C481.687 271.034 479.763 262.673 473.374 258.045L473.368 258.039Z" fill="#283EB0"/>
<path d="M537.008 277.76C537.47 290.601 545.532 304.97 551.807 315.903C558.699 327.918 567.492 339.397 579.111 347.205C586.253 352.005 596.908 354.991 603.891 348.117C610.896 341.221 607.276 330.819 605.078 322.657C600.356 305.136 595.172 287.66 584.712 272.567C579.836 265.528 573.538 257.571 564.717 255.725C564.123 255.599 563.541 255.793 563.067 256.141C557.437 253.194 550.317 253.508 545.064 257.309C538.675 261.932 536.751 270.299 537.019 277.754L537.008 277.76Z" fill="#283EB0"/>
<path d="M556.272 106.631C550.403 83.5016 543.614 56.4222 528.101 37.8183C523.122 31.8392 515.825 24.4353 507.455 24.612C499.085 24.4353 491.771 31.8392 486.797 37.8183C471.284 56.4222 464.496 83.5016 458.626 106.631C447.275 151.363 445.671 198.271 445.979 244.223C446.122 265.192 446.67 286.184 447.692 307.142C447.715 307.723 447.749 308.293 447.789 308.875H447.949C447.949 317.738 474.624 324.92 507.535 324.92C540.445 324.92 567.121 317.738 567.121 308.875C567.155 308.293 567.195 307.723 567.218 307.142C568.24 286.184 568.788 265.192 568.93 244.223C569.239 198.266 567.646 151.363 556.284 106.631H556.272Z" fill="white" stroke="black" stroke-width="3" stroke-miterlimit="10"/>
<path d="M544.636 67.4284C520.439 72.8716 494.597 72.8944 470.211 67.5367C474.39 56.6502 479.666 46.3394 486.786 37.8183C491.765 31.8393 499.073 24.4353 507.443 24.612C515.814 24.4353 523.116 31.8393 528.089 37.8183C535.175 46.3052 540.439 56.5761 544.63 67.4284H544.636Z" fill="#283EB0"/>
<path d="M447.635 296.119C477.85 305.102 509.921 307.136 541.033 302.052C549.9 300.604 558.665 298.564 567.269 295.993C568.856 295.52 568.183 293.03 566.584 293.508C536.734 302.428 504.977 304.6 474.208 299.584C465.461 298.159 456.816 296.159 448.32 293.634C446.722 293.161 446.042 295.646 447.635 296.119Z" fill="#283EB0"/>
<path d="M519.017 290.117C518.297 285.5 517.304 280.849 515.3 277.099C512.571 271.981 508.585 271.861 505.793 277.099C503.789 280.855 502.796 285.506 502.076 290.123C500.244 301.91 499.798 314.056 499.952 326.099C500.101 337.436 500.021 349.776 502.55 360.628C504.103 367.291 507.82 375.63 513.69 371.675C516.505 369.782 517.624 364.527 518.532 360.628C521.067 349.776 520.987 337.431 521.129 326.094C521.284 314.05 520.838 301.904 519.005 290.117H519.017Z" fill="#283EB0"/>
<path d="M534.51 197.164C538.041 182.228 528.775 167.263 513.814 163.738C498.852 160.212 483.861 169.462 480.33 184.398C476.798 199.334 486.064 214.299 501.026 217.824C515.987 221.349 530.979 212.099 534.51 197.164Z" fill="black"/>
<path d="M543.431 190.793C543.34 205.693 533.925 219.429 519.816 224.542C505.599 229.694 489.407 225.294 479.723 213.712C470.034 202.125 468.824 185.128 476.623 172.235C484.399 159.382 499.855 152.56 514.615 155.575C529.186 158.55 540.622 170.491 542.997 185.139C543.3 187.009 543.42 188.895 543.431 190.788C543.443 192.446 546.023 192.452 546.012 190.788C545.915 174.754 535.797 160.192 520.701 154.623C505.594 149.049 488.002 153.814 477.759 166.205C467.447 178.682 465.997 196.755 474.385 210.646C482.738 224.467 499.233 231.672 515.077 228.531C530.602 225.454 543.077 212.532 545.515 196.904C545.829 194.874 545.995 192.834 546.006 190.782C546.018 189.123 543.431 189.118 543.426 190.782L543.431 190.793Z" fill="#283EB0"/>
<path d="M386.593 1.39136H231.588C223.345 1.39136 216.663 8.06191 216.663 16.2905V156.703C216.663 164.932 223.345 171.603 231.588 171.603H386.593C394.836 171.603 401.518 164.932 401.518 156.703V16.2905C401.518 8.06191 394.836 1.39136 386.593 1.39136Z" fill="white"/>
<path d="M276.871 170.314C261.895 170.314 246.919 170.366 231.948 170.314C226.033 170.292 220.58 166.786 218.673 161.069C218.028 159.126 217.959 157.194 217.959 155.193V27.9806C217.959 24.1675 217.942 20.3543 217.959 16.5412C217.982 11.4172 220.632 6.71488 225.199 4.26969C227.54 3.01575 230.058 2.68517 232.656 2.68517H380.353C384.252 2.68517 388.615 2.24059 392.234 3.89351C397.265 6.1905 400.205 11.1892 400.228 16.6381C400.239 18.8952 400.228 21.1523 400.228 23.4094V83.0685C400.228 84.7271 402.809 84.7328 402.809 83.0685V34.8545C402.809 28.6987 402.872 22.5373 402.809 16.3759C402.746 10.1632 399.235 4.31529 393.536 1.65921C391.007 0.485069 388.341 0.103187 385.589 0.103187H236.527C231.354 0.103187 226.415 -0.0393064 221.956 3.27794C217.748 6.40709 215.413 11.269 215.373 16.4842C215.362 17.7154 215.373 18.9465 215.373 20.1776V150.702C215.373 155.535 214.996 160.357 217.52 164.751C220.472 169.893 225.981 172.862 231.862 172.891C234.786 172.902 237.709 172.891 240.627 172.891H276.877C278.539 172.891 278.544 170.314 276.877 170.314H276.871Z" fill="black"/>
<path d="M260.508 34.6321H271.773C276.049 34.6321 279.521 38.0975 279.521 42.3666V156.128H252.754V42.3723C252.754 38.1032 256.225 34.6378 260.502 34.6378L260.508 34.6321Z" fill="#283EB0"/>
<path d="M314.761 34.6321H326.026C330.302 34.6321 333.774 38.0975 333.774 42.3666V156.128H307.007V42.3723C307.007 38.1032 310.478 34.6378 314.755 34.6378L314.761 34.6321Z" fill="#283EB0"/>
<path d="M287.274 73.0312H308.514C312.791 73.0312 316.262 76.4967 316.262 80.7658V156.128H279.521V80.7658C279.521 76.4967 282.992 73.0312 287.269 73.0312H287.274Z" fill="white" stroke="black" stroke-width="3" stroke-miterlimit="10"/>
<path d="M341.527 88.0728H362.767C367.044 88.0728 370.515 91.5382 370.515 95.8073V156.128H333.774V95.8073C333.774 91.5382 337.245 88.0728 341.522 88.0728H341.527Z" fill="white" stroke="black" stroke-width="3" stroke-miterlimit="10"/>
<path d="M218.096 87.7879H237.041C238.703 87.7879 238.708 85.2117 237.041 85.2117H218.096C216.435 85.2117 216.429 87.7879 218.096 87.7879Z" fill="black"/>
<path d="M218.096 142.454H237.041C238.703 142.454 238.708 139.878 237.041 139.878H218.096C216.435 139.878 216.429 142.454 218.096 142.454Z" fill="black"/>
<path d="M218.096 33.1217H237.041C238.703 33.1217 238.708 30.5454 237.041 30.5454H218.096C216.435 30.5454 216.429 33.1217 218.096 33.1217Z" fill="black"/>
<path d="M747.779 412.924H592.774C584.531 412.924 577.849 419.594 577.849 427.823V568.236C577.849 576.464 584.531 583.135 592.774 583.135H747.779C756.022 583.135 762.704 576.464 762.704 568.236V427.823C762.704 419.594 756.022 412.924 747.779 412.924Z" fill="white"/>
<path d="M761.414 487.111V562.832C761.414 564.605 761.431 566.383 761.414 568.156C761.339 575.138 755.989 581.271 748.892 581.795C745.421 582.052 741.869 581.835 738.398 581.835H620.517C615.812 581.835 611.096 581.767 606.391 581.835C606.174 581.835 605.963 581.835 605.746 581.835C604.085 581.835 604.079 584.411 605.746 584.411H734.721C738.986 584.411 743.251 584.428 747.516 584.411C752.912 584.389 757.925 581.921 761.06 577.503C763.343 574.294 763.994 570.607 763.994 566.771V487.105C763.994 485.447 761.414 485.441 761.414 487.105V487.111Z" fill="black"/>
<path d="M624.599 554.511C628.83 533.234 634.477 507.79 656.259 497.702C661.369 495.336 666.839 494.55 672.435 494.846C678.658 495.182 684.79 496.533 691.037 496.556C701.794 496.596 710.986 491.289 717.501 482.916C725.688 472.383 728.326 458.966 730.77 446.17C731.078 444.546 728.589 443.856 728.281 445.486C726.054 457.165 723.764 469.38 716.918 479.377C714.035 483.583 710.341 487.339 705.962 490.001C701.04 492.988 695.593 494.128 689.872 493.962C683.637 493.78 677.499 492.418 671.264 492.218C665.926 492.053 660.741 492.959 655.837 495.085C646.627 499.069 639.21 506.718 634.254 515.319C627.46 527.106 624.736 540.638 622.116 553.827C621.796 555.445 624.285 556.141 624.605 554.511H624.599Z" fill="black"/>
<path d="M623.206 563.607C629.245 563.607 634.14 558.721 634.14 552.692C634.14 546.664 629.245 541.777 623.206 541.777C617.168 541.777 612.272 546.664 612.272 552.692C612.272 558.721 617.168 563.607 623.206 563.607Z" fill="#E0236B" stroke="black" stroke-width="3" stroke-miterlimit="10"/>
<path d="M649.83 508.941C655.869 508.941 660.764 504.055 660.764 498.026C660.764 491.998 655.869 487.111 649.83 487.111C643.792 487.111 638.896 491.998 638.896 498.026C638.896 504.055 643.792 508.941 649.83 508.941Z" fill="#E0236B" stroke="black" stroke-width="3" stroke-miterlimit="10"/>
<path d="M701.993 508.941C708.032 508.941 712.927 504.055 712.927 498.026C712.927 491.998 708.032 487.111 701.993 487.111C695.955 487.111 691.059 491.998 691.059 498.026C691.059 504.055 695.955 508.941 701.993 508.941Z" fill="#E0236B" stroke="black" stroke-width="3" stroke-miterlimit="10"/>
<path d="M730.079 454.275C736.118 454.275 741.013 449.388 741.013 443.36C741.013 437.332 736.118 432.445 730.079 432.445C724.04 432.445 719.145 437.332 719.145 443.36C719.145 449.388 724.04 454.275 730.079 454.275Z" fill="#E0236B" stroke="black" stroke-width="3" stroke-miterlimit="10"/>
<path d="M577.849 499.315H596.793C598.455 499.315 598.461 496.738 596.793 496.738H577.849C576.187 496.738 576.182 499.315 577.849 499.315Z" fill="black"/>
<path d="M577.849 553.981H596.793C598.455 553.981 598.461 551.404 596.793 551.404H577.849C576.187 551.404 576.182 553.981 577.849 553.981Z" fill="black"/>
<path d="M577.849 444.648H596.793C598.455 444.648 598.461 442.072 596.793 442.072H577.849C576.187 442.072 576.182 444.648 577.849 444.648Z" fill="black"/>
<path d="M447.527 590.978C445.46 586.771 442.137 583.158 439.053 579.669C435.942 576.153 432.676 572.761 429.256 569.541C415.867 556.933 400.051 546.771 383.002 539.84C380.227 538.711 377.412 537.685 374.569 536.733C362.27 515.827 349.938 494.937 337.519 474.099C319.288 443.508 300.955 412.981 282.455 382.555C277.848 374.975 273.514 366.762 266.674 360.902C262.974 357.733 258.361 355.448 253.559 354.707C253.445 354.667 253.331 354.621 253.211 354.587C243.933 352.136 233.935 354.917 226.296 360.446C218.605 366.009 213.141 374.131 209.241 382.664C200.865 400.994 199.295 421.821 202.018 441.61C204.873 462.357 212.45 482.13 221.322 500.99C229.927 519.286 239.348 537.303 249.459 554.813C259.366 571.969 270.265 588.612 282.929 603.876C295.291 618.775 309.262 633.264 326.237 642.902C334.316 647.491 343.32 650.87 352.627 651.714C362.573 652.615 372.285 650.449 381.392 646.522C390.898 642.423 399.834 636.935 408.724 631.674C417.825 626.282 426.806 620.65 435.291 614.324C442.542 608.915 452.574 601.249 447.527 590.983V590.978Z" fill="#E0236B" stroke="black" stroke-width="3" stroke-miterlimit="10"/>
<path d="M266.771 315.897C263.682 314.09 260.216 312.899 256.648 312.135C258.19 310.271 259.394 308.145 260.034 305.74C261.53 300.074 259.566 294.09 256.648 289.228C251.207 280.148 240.501 272.454 229.733 271.639C222.893 271.12 217.08 274.722 213.963 280.741C210.971 286.532 211.45 293.85 214.02 299.727C214.482 302.702 215.504 305.609 217 308.236C215.904 310.687 215.099 313.281 214.517 315.857C213.038 322.417 213.101 329.348 216.104 335.493C218.907 341.232 223.486 345.969 229.362 348.585C229.516 348.653 229.67 348.71 229.824 348.779C229.59 352.472 231.794 355.539 234.94 357.323C236.362 358.126 238.103 358.548 239.725 358.656C241.363 358.77 242.956 358.691 244.566 358.423C250.196 360.697 257.767 363.068 263.614 361.956C286.578 357.596 286.601 327.519 266.765 315.903L266.771 315.897Z" fill="black"/>
<path d="M261.41 356.434C253.388 347.246 242.853 341.563 230.869 339.351C218.296 337.032 205.073 337.909 192.449 339.374C167.03 342.315 138.253 347.536 115.477 359.192C109.853 362.071 104.378 365.223 99.045 368.608C96.6869 370.102 81.8247 451.955 83.2578 477.348C84.0343 491.147 87.0662 546.03 89.9038 559.566C91.2856 566.155 92.9128 572.716 94.9569 579.134C96.8582 585.101 99.3875 591.114 103.584 595.868C110.83 604.07 121.638 608.259 132.463 608.601C144.888 608.994 156.598 604.6 167.167 598.353C177.415 592.294 186.825 584.662 195.658 576.723C204.171 569.062 212.176 560.849 219.558 552.094C234.358 534.545 246.747 514.92 256.271 494.042C265.789 473.181 272.464 450.935 275.804 428.25C279.412 403.73 278.579 376.086 261.415 356.428L261.41 356.434Z" fill="#E0236B" stroke="black" stroke-width="3" stroke-miterlimit="10"/>
<path d="M265.898 423.764C265.818 447.173 262.215 470.462 255.238 492.811C254.741 494.401 257.236 495.079 257.727 493.495C264.773 470.941 268.398 447.39 268.484 423.764C268.484 422.106 265.909 422.1 265.903 423.764H265.898Z" fill="black"/>
<path d="M402.946 508.303L390.596 522.096L288.993 431.425C285.179 428.022 284.848 422.174 288.262 418.367C291.671 414.559 297.529 414.229 301.343 417.637L402.946 508.309V508.303Z" fill="black"/>
<path d="M384.389 463.64C380.861 459.108 375.448 457.262 370.155 455.575C364.623 453.813 343.783 447.538 336.252 445.771C331.929 444.757 325.455 442.944 319.351 442.733C318.203 442.636 317.079 442.619 315.982 442.71C299.767 444.021 285.653 451.779 271.219 458.556C263.334 462.26 243.904 471.426 243.904 471.426C242.402 472.776 186.054 526.724 198.815 545.243C215.561 569.546 231.754 571.541 233.101 570.926C263.18 557.15 293.161 539.099 305.128 523.498C303.872 544.28 319.345 540.763 324.484 539.121C330.188 537.297 335.195 532.561 339.101 528.189C341.567 525.431 343.965 522.296 345.912 518.939C348.687 515.296 350.914 511.255 352.393 506.832C354.06 509.517 355.893 512.082 358.182 514.202C361.928 517.662 367.255 519.885 372.388 518.545C377.852 517.12 381.221 512.122 381.455 506.604C381.7 500.865 378.857 495.906 375.825 491.266C374.329 488.981 372.805 486.712 371.292 484.432C371.383 484.432 371.474 484.449 371.56 484.455C376.653 484.677 382.163 482.933 385.212 478.596C388.46 473.979 387.787 467.994 384.389 463.634V463.64Z" fill="white" stroke="black" stroke-width="3" stroke-miterlimit="10"/>
<path d="M353.911 506.177C355.122 499.679 353.392 492.321 349.464 486.992C345.484 481.588 338.581 478.699 331.941 479.098C330.291 479.194 330.279 481.776 331.941 481.674C337.753 481.326 343.982 483.726 347.431 488.559C350.8 493.284 352.495 499.753 351.422 505.487C351.119 507.112 353.609 507.807 353.911 506.171V506.177Z" fill="black"/>
<path d="M306.339 524.422C310.781 518.773 315.229 513.125 319.671 507.476C320.105 506.924 320.202 506.194 319.671 505.653C319.225 505.202 318.272 505.105 317.844 505.653C313.402 511.301 308.954 516.949 304.512 522.598C304.078 523.151 303.981 523.88 304.512 524.422C304.957 524.872 305.911 524.969 306.339 524.422Z" fill="black"/>
<path d="M340.517 457.364C351.022 465.561 361.157 474.447 369.853 484.564C370.938 485.823 372.759 483.994 371.68 482.74C362.984 472.623 352.85 463.737 342.344 455.541C341.048 454.532 339.209 456.344 340.517 457.364Z" fill="black"/>
<path d="M433.567 642.651L333.505 638.827C326.454 638.559 322.606 630.562 326.225 623.711L411.938 461.673C414.411 457.005 419.104 454.11 423.912 454.292L523.973 458.117C531.024 458.385 534.873 466.381 531.253 473.233L445.54 635.27C443.067 639.938 438.374 642.834 433.567 642.651Z" fill="black"/>
<path d="M497.669 552.51C492.981 547.979 487.397 544.086 481.453 540.791C475.972 537.753 470.302 535.097 464.216 533.524C458.392 532.019 451.695 531.78 447.27 536.539C442.565 541.595 445.306 547.944 448.783 552.755C448.943 552.977 449.12 553.194 449.285 553.416C444.118 551.735 438.368 550.629 434.36 554.362C429.347 559.036 431.18 566.691 434.001 572.009C436.987 577.652 441.269 582.422 446.231 586.389C443.313 586.446 440.492 587.147 438.254 589.085C432.979 593.656 435.685 601.191 438.637 606.287C441.914 611.941 446.704 616.564 452.3 619.932C469.406 630.237 483.948 630.978 497.218 615.407C513.005 596.877 516.739 570.914 497.674 552.504L497.669 552.51Z" fill="white" stroke="black" stroke-width="3" stroke-miterlimit="10"/>
<path d="M446.602 586.851C457.935 589.906 468.755 594.523 478.804 600.587C480.231 601.448 481.533 599.219 480.106 598.359C469.88 592.186 458.826 587.472 447.287 584.36C445.682 583.927 444.991 586.412 446.602 586.845V586.851Z" fill="black"/>
<path d="M450.176 555.138C462.811 559.589 475.087 564.992 486.906 571.296C488.373 572.077 489.681 569.854 488.208 569.068C476.195 562.661 463.708 557.178 450.861 552.653C449.291 552.1 448.617 554.59 450.176 555.138Z" fill="black"/>
<path d="M268.484 556.488C267.354 550.834 266.189 545.197 264.961 539.577C260.548 519.372 248.997 470.075 247.861 465.549C219.906 480.004 155.49 514.208 124.978 530.578C127.964 524.684 130.888 518.762 133.685 512.794C141.279 496.579 148.182 480.158 154.348 463.571C165.853 432.611 188.892 359.945 141.41 353.777C59.4373 343.159 10.8883 518.443 2.24388 573.485C-3.76265 611.725 9.32954 646.909 48.8516 655.328C76.3435 661.181 102.111 652.672 127.57 643.204C149.107 635.196 170.878 627.826 192.186 619.203C208.053 612.779 229.95 600.49 239.182 585.534C241.192 582.274 241.923 578.398 241.769 574.198C251.041 568.583 258.983 563.539 264.15 559.715C265.601 558.643 267.039 557.56 268.484 556.488Z" fill="#E0236B" stroke="black" stroke-width="3" stroke-miterlimit="10"/>
<path d="M86.9234 553.462C106.644 541.43 126.68 529.922 147.052 519.019C167.332 508.161 187.932 497.907 208.807 488.24C220.854 482.66 232.999 477.279 245.217 472.081C246.742 471.431 245.428 469.209 243.915 469.853C222.487 478.978 201.299 488.656 180.419 498.967C159.835 509.124 139.555 519.885 119.594 531.222C108.163 537.714 96.8411 544.394 85.6216 551.239C84.2056 552.106 85.5017 554.334 86.9234 553.468V553.462Z" fill="black"/>
<path d="M126.634 529.768C135.347 505.881 144.06 481.993 152.773 458.1C153.344 456.538 150.848 455.865 150.283 457.416C141.57 481.303 132.857 505.191 124.145 529.084C123.574 530.646 126.069 531.318 126.634 529.768Z" fill="black"/>
<path d="M224.451 337.185C224.411 335.139 224.491 332.358 223.275 330.636C221.779 328.51 219.49 329.103 217.354 329.582C215.299 330.044 213.232 330.477 211.154 330.836C202.092 332.409 192.637 332.745 183.833 329.707C182.84 329.365 181.972 329.707 181.349 330.357C180.721 330.289 180.07 330.437 179.454 330.916C177.884 332.147 176.325 333.475 175.074 335.042C173.641 336.832 174.247 339.363 175.006 341.346C176.273 344.646 178.534 347.325 181.406 349.36C188.007 354.028 196.845 354.074 204.599 353.447C211.462 352.894 221.768 350.888 223.932 343.142C224.463 341.244 224.48 339.152 224.446 337.191L224.451 337.185Z" fill="#E0236B" stroke="black" stroke-width="3" stroke-miterlimit="10"/>
<path d="M225.336 303.928C220.654 304.195 217.731 300.149 216.344 295.805C222.27 296.945 228.38 297.544 234.409 297.276C233.827 298.382 233.147 299.436 232.302 300.394C230.475 302.468 228.003 303.779 225.336 303.928Z" fill="#FAE4D4"/>
<path d="M242.14 283.067C239.274 277.122 233.906 268.076 231.246 264.115C228.705 247.278 220.637 233.849 212.621 229.426C205.558 225.528 197.074 224.279 189.16 225.779C166.898 229.985 148.199 256.306 156.741 278.666C158.094 282.206 160.486 285.181 163.41 287.529C164.7 288.567 166.093 289.484 167.538 290.271C170.421 291.844 173.59 292.665 176.622 293.799C176.987 296.906 178.386 299.818 180.596 302.047L180.71 344.361C207.842 358.292 219.787 338.08 219.787 338.08L218.685 323.894C219.547 324.042 220.42 324.145 221.305 324.196C247.29 325.689 251.269 301.984 242.145 283.067H242.14Z" fill="white" stroke="black" stroke-width="3" stroke-miterlimit="10"/>
<path d="M222.088 262.183C223.578 262.291 225.148 261.983 226.781 261.67L230.172 261.009C234.963 259.948 232.319 257.634 227.437 258.415C225.536 258.757 223.618 259.19 222.527 259.646C221.408 260.114 220.637 260.604 220.42 261.1C220.186 261.607 220.723 262.097 222.088 262.188V262.183Z" fill="black"/>
<path d="M195.618 268.196C196.314 268.447 197.525 268.492 198.884 268.299C199.826 268.162 200.642 267.922 201.459 267.689C202.515 267.381 203.571 267.073 204.633 266.771C205.678 266.469 206.723 266.167 207.768 265.865C209.258 265.432 210.685 265.021 211.216 264.423C211.707 263.881 210.988 263.437 209.84 263.26C208.721 263.089 207.328 263.117 205.804 263.283C203.217 263.562 199.512 264.805 197.553 265.534C196.548 265.91 195.738 266.372 195.298 266.822C194.761 267.364 194.773 267.888 195.629 268.196H195.618Z" fill="black"/>
<path d="M187.082 295.817C186.568 295.281 186.265 294.865 185.888 294.13C185.683 293.725 185.666 293.679 185.529 293.269C185.409 292.91 185.312 292.545 185.243 292.175C185.226 292.089 185.209 291.998 185.198 291.912C185.186 291.844 185.175 291.719 185.192 291.861C185.175 291.684 185.158 291.508 185.146 291.331C185.129 290.955 185.135 290.579 185.163 290.202C185.163 290.168 185.198 289.878 185.169 290.083C185.18 289.997 185.198 289.906 185.209 289.821C185.238 289.644 185.278 289.473 185.317 289.302C185.363 289.108 185.42 288.914 185.483 288.726C185.512 288.641 185.54 288.555 185.574 288.475C185.586 288.447 185.694 288.185 185.62 288.35C185.9 287.712 185.809 286.965 185.158 286.583C184.609 286.264 183.667 286.401 183.388 287.045C181.835 290.619 182.531 294.819 185.249 297.646C185.729 298.148 186.591 298.131 187.076 297.646C187.561 297.162 187.561 296.33 187.076 295.822L187.082 295.817Z" fill="black"/>
<path d="M226.01 267.478C230.178 264.981 233.084 270.721 233.718 273.354C234.135 275.064 234.181 277.344 232.279 278.45C229.504 280.057 227.181 276.791 226.136 274.922C224.971 272.835 223.275 269.114 226.01 267.478Z" fill="black"/>
<path d="M207.031 272.197C211.199 269.701 214.105 275.44 214.739 278.074C215.156 279.784 215.202 282.063 213.3 283.169C210.526 284.777 208.202 281.511 207.157 279.641C205.992 277.555 204.296 273.833 207.031 272.197Z" fill="black"/>
<path d="M228.579 292.819C230.641 292.454 232.639 291.508 233.889 289.775C235.083 288.111 235.362 285.74 234.255 283.961C233.101 282.103 230.897 280.906 229.173 279.641C227.135 278.148 225.097 276.649 223.058 275.155C222.493 274.745 221.619 275.064 221.288 275.617C220.906 276.273 221.185 276.968 221.751 277.384C223.424 278.609 225.091 279.835 226.764 281.066C228.277 282.177 229.944 283.209 231.326 284.486C232.411 285.489 232.679 286.794 231.902 288.099C231.069 289.502 229.407 290.077 227.883 290.345C227.198 290.465 226.809 291.303 226.981 291.93C227.181 292.654 227.883 292.95 228.568 292.83L228.579 292.819Z" fill="black"/>
<path d="M218.205 323.592C214.197 322.537 210.4 320.839 206.871 318.673C205.45 317.801 204.154 320.029 205.57 320.901C209.275 323.176 213.306 324.977 217.52 326.082C219.13 326.504 219.815 324.019 218.205 323.597V323.592Z" fill="black"/>
<path d="M213.026 485.766C217.28 510.731 223.127 535.422 230.555 559.635C232.667 566.526 234.911 573.377 237.275 580.182C237.818 581.738 240.313 581.071 239.765 579.498C231.463 555.571 224.685 531.119 219.53 506.319C218.062 499.263 216.726 492.184 215.516 485.077C215.236 483.446 212.747 484.136 213.026 485.761V485.766Z" fill="black"/>
<path d="M499.461 452.326C506.376 452.588 510.144 460.425 506.593 467.139C502.99 473.951 496.138 478.174 489.121 477.912L450.284 476.419C443.421 476.156 439.676 468.371 443.204 461.708C446.841 454.839 453.75 450.582 460.819 450.85L499.461 452.326Z" fill="white"/>
<path d="M234.609 233.61C229.71 222.969 211.833 210.674 199.968 216.237C185.455 223.037 190.702 237.697 200.962 244.941C202.863 246.28 204.993 247.141 207.22 247.717C211.725 251.798 217.977 254.043 224.029 253.36C228.505 252.852 233.393 250.926 235.402 246.577C237.366 242.313 236.504 237.725 234.609 233.61Z" fill="black"/>
<path d="M213.198 237.674C213.215 232.533 210.834 227.511 206.443 224.707C202.275 222.04 196.674 221.19 192.426 224.171C192.415 224.183 192.403 224.194 192.392 224.2C186.574 221.943 180.099 221.225 173.972 222.25C160.075 224.57 148.89 235.651 144.728 248.863C143.42 253.012 142.238 258.307 142.564 263.22C137.693 269.849 133.034 276.096 134.976 285.62C116.248 292.118 106.947 306.019 103.71 312.118C89.4585 338.975 109.117 378.754 141.753 363.661C154.645 373.413 177.581 370.381 181.937 352.581C182.126 351.817 182.063 350.608 182.383 349.856C182.754 349.617 183.308 349.514 183.713 349.349C185.632 348.557 187.476 347.468 189.052 346.123C192.403 343.256 194.927 339.505 196.269 335.305C199.175 326.202 196.531 316.535 190.913 309.097C191.649 305.073 191.472 300.89 190.211 296.86C188.943 292.807 186.379 288.835 183.022 285.888C187.693 282.713 191.564 278.057 194.47 273.554C197.011 269.615 198.964 265.084 198.484 260.296C198.393 259.401 198.204 258.524 197.953 257.663C206.363 254.374 213.163 247.079 213.192 237.68L213.198 237.674Z" fill="black"/>
<path d="M702.473 392.456C701.811 392.456 701.245 391.949 701.188 391.276C699.538 372.273 701.896 351.794 704.175 331.993C708.166 297.282 712.294 261.39 695.102 232.037C662.38 176.162 588.806 195.9 588.063 196.106C587.373 196.294 586.665 195.895 586.471 195.211C586.276 194.527 586.682 193.814 587.367 193.621C587.555 193.569 606.58 188.365 629.47 190.32C650.687 192.133 679.686 200.614 697.323 230.732C714.949 260.826 710.769 297.156 706.732 332.284C704.471 351.959 702.13 372.302 703.758 391.048C703.821 391.755 703.295 392.382 702.582 392.444C702.542 392.444 702.507 392.444 702.467 392.444L702.473 392.456Z" fill="black"/>
<path d="M339.181 273.565C333.043 273.565 326.819 272.995 320.59 271.713C259.32 259.111 259.828 202.797 259.84 202.227C259.857 201.526 260.428 200.968 261.13 200.968H261.159C261.872 200.985 262.437 201.572 262.42 202.284C262.42 202.421 262.221 216.163 269.358 231.205C278.893 251.308 296.307 264.086 321.11 269.193C327.173 270.442 333.243 270.994 339.221 270.994C385.845 270.994 427.589 237.4 428.057 237.013C428.611 236.562 429.421 236.642 429.872 237.195C430.323 237.748 430.244 238.557 429.69 239.008C429.21 239.401 386.776 273.565 339.175 273.565H339.181Z" fill="black"/>
<path d="M222.39 298.798C223.178 299.197 225.279 300.137 228.031 299.801C231.109 299.431 233.061 297.709 233.672 297.116" stroke="black" stroke-width="3" stroke-linecap="round" stroke-linejoin="round"/>
</g>
<defs>
<clipPath id="clip0_193_1092">
<rect width="764" height="658" fill="white" transform="translate(0 0.103271)"/>
</clipPath>
</defs>
</svg>
