<svg width="359" height="227" viewBox="0 0 359 227" fill="none" xmlns="http://www.w3.org/2000/svg">
<path d="M70.5769 182.302C70.43 182.934 68.6851 184.411 68.1341 184.323C68.1769 184.323 68.232 184.298 68.2749 184.298C68.428 184.298 68.5871 184.247 68.7402 184.222C69.2729 184.134 69.8116 184.07 70.3443 183.995C72.3157 183.729 74.2933 183.489 76.2709 183.249C83.3301 182.403 90.3954 181.595 97.4608 180.787C107.759 179.612 118.051 178.45 128.349 177.301C140.851 175.899 153.359 174.522 165.861 173.145C179.576 171.63 193.296 170.126 207.016 168.636C220.804 167.133 234.598 165.63 248.386 164.14C261.249 162.75 274.119 161.361 286.982 159.997C297.911 158.835 308.846 157.673 319.774 156.524C327.672 155.703 335.564 154.869 343.462 154.086C345.96 153.833 347.901 153.644 350.601 153.391C351.905 153.265 353.215 153.189 354.519 153.063C355.37 152.987 354.672 153.379 354.464 152.621L357.017 150.259C339.372 153.139 321.727 156.082 304.088 159.062C290.08 161.437 276.066 163.824 262.058 166.161C249.353 168.27 236.643 170.329 223.927 172.248C210.188 174.32 196.449 176.252 182.704 178.046C165.604 180.269 148.498 182.315 131.385 184.247C128.857 184.538 126.334 184.816 123.806 185.093L122.245 187.859C142.798 184.816 163.357 181.544 183.941 179.523C196.865 178.248 209.808 177.806 222.745 177.061C236.87 176.252 250.988 175.28 265.107 174.219L267.047 171.415C253.762 173.827 240.47 176.252 227.184 178.665C226.572 178.778 225.164 179.182 224.802 180.382C224.441 181.582 225.121 181.506 225.623 181.443C225.904 181.405 225.678 181.443 225.727 181.431C225.88 181.431 226.033 181.405 226.186 181.393C226.621 181.368 227.049 181.342 227.484 181.33C228.568 181.292 229.651 181.266 230.735 181.254C233.643 181.216 236.557 181.229 239.466 181.229C245.723 181.254 251.98 181.33 258.237 181.254C260.362 181.229 262.492 181.254 264.611 180.989C265.217 180.913 266.637 180.445 266.992 179.271C267.347 178.096 266.674 178.147 266.172 178.21C265.89 178.248 266.117 178.21 266.068 178.223C265.915 178.223 265.762 178.248 265.609 178.26C265.174 178.286 264.745 178.311 264.311 178.324C263.227 178.361 262.143 178.387 261.06 178.399C258.151 178.437 255.237 178.425 252.329 178.425C246.072 178.399 239.815 178.324 233.557 178.399C231.433 178.425 229.302 178.399 227.184 178.665L225.623 181.431C238.908 179.018 252.2 176.593 265.486 174.181C266.141 174.067 267.256 173.676 267.739 172.653C268.094 171.895 268.1 171.326 267.427 171.377C246.77 172.93 226.106 174.143 205.443 175.28C192.371 176 179.318 177.301 166.271 179.031C152.116 180.9 137.961 182.997 123.812 185.093C123.206 185.182 121.785 185.624 121.43 186.811C121.075 187.998 121.749 187.923 122.251 187.872C139.951 185.902 157.651 183.83 175.345 181.57C189.39 179.776 203.429 177.856 217.461 175.76C230.178 173.865 242.888 171.844 255.598 169.748C269.319 167.487 283.033 165.138 296.748 162.814C313.799 159.921 330.856 157.067 347.913 154.263C350.43 153.846 352.952 153.442 355.468 153.025C355.725 152.987 358.34 151.825 358.021 150.663C357.752 149.678 355.952 150.284 355.542 150.322C353.656 150.474 351.776 150.663 349.897 150.84C342.825 151.522 335.76 152.255 328.695 152.987C318.354 154.061 308.007 155.16 297.666 156.258C285.023 157.597 272.386 158.961 259.743 160.325C245.845 161.828 231.941 163.331 218.043 164.847C204.023 166.375 189.996 167.904 175.975 169.444C162.928 170.884 149.881 172.324 136.834 173.777C125.894 174.989 114.953 176.214 104.012 177.465C96.2179 178.349 88.4179 179.233 80.6239 180.168C77.0668 180.584 73.4729 180.799 69.9218 181.532C69.1014 181.696 67.4545 182.024 67.081 183.666C66.8239 184.803 68.3055 184.31 68.4831 184.247C69.028 184.045 70.2953 183.553 70.5708 182.315L70.5769 182.302Z" fill="#D6226B"/>
<path d="M353.025 40.635C352.23 39.888 351.118 39.8526 350.19 40.3684C347.298 41.9772 344.52 44.0142 341.648 45.6594C341.923 36.0667 343.204 26.804 343.766 17.1188C343.882 15.1049 340.961 14.1162 339.729 15.6329C332.805 24.1625 324.547 31.4345 316.188 38.5097C316.009 37.2419 315.865 35.9436 315.743 34.5961C315.485 31.7585 315.362 28.9106 315.273 26.0622C315.102 20.5865 315.111 15.0983 314.666 9.63785C314.58 8.58112 313.893 7.68202 312.838 7.45438C311.867 7.24462 310.697 7.72248 310.265 8.66864C304.81 20.6171 300.207 32.9324 294.752 44.8809C294.178 46.1346 294.607 47.3269 295.721 48.0532C307.308 55.6126 320.426 60.3384 332.635 66.7379C335.3 68.1356 337.492 63.964 334.827 62.5663C323.269 56.5067 310.899 51.9489 299.781 45.0641C303.514 36.7217 306.884 28.2217 310.459 19.8117C310.656 27.7836 310.69 35.7694 312.365 43.5958C312.535 44.3937 313.332 45.024 314.092 45.188C314.963 45.3766 315.649 45.0365 316.299 44.4894C324.002 38.0025 331.759 31.4659 338.604 24.0524C337.889 32.5228 336.913 40.9839 336.92 49.5724C336.922 50.9922 338.567 52.2827 339.942 51.6986C342.448 50.632 344.749 49.2327 347.028 47.7906C346.874 48.1723 346.716 48.5549 346.558 48.9344C345.411 51.6999 344.16 54.4193 342.87 57.1206C340.632 61.8036 338.246 66.4141 335.837 71.0098C335.62 70.9402 335.402 70.8726 335.186 70.801C334.789 70.6707 334.393 70.5363 333.999 70.3967C333.797 70.3274 333.598 70.2571 333.398 70.1857C333.35 70.1684 333.315 70.1555 333.285 70.1446C333.183 70.1069 333.079 70.068 332.976 70.0292C331.22 69.3782 329.486 68.6688 327.764 67.9286C324.046 66.3332 320.4 64.5821 316.778 62.7859C309.35 59.1027 302.04 55.1809 294.554 51.6135C292.291 50.5341 290.006 49.4906 287.692 48.5229C290.826 41.8799 292.925 34.772 296.52 28.343C297.148 27.2224 296.656 25.7512 295.551 25.1706C294.446 24.5901 293.016 25.0514 292.389 26.172C288.512 33.1067 286.373 40.8314 282.801 47.9103C282.591 48.0928 282.405 48.3191 282.257 48.6017C281.709 49.6441 282.04 51.3078 283.226 51.774C290.516 54.6268 297.485 58.2571 304.444 61.817C311.757 65.5572 319.058 69.3622 326.633 72.5531C329.852 73.907 333.132 75.1473 336.488 76.1162C337.476 76.4027 338.6 75.7805 339.062 74.902C341.777 69.733 344.48 64.5545 347.001 59.2885C349.552 53.9619 352.008 48.5131 353.702 42.8485C353.933 42.0788 353.583 41.1583 353.025 40.635Z" fill="#3040B4"/>
<path d="M295.568 19.5077C294.951 19.6779 294.437 20.0864 294.149 20.6346L294.003 20.9118C293.715 21.4599 293.67 22.1152 293.88 22.7194C294.09 23.3236 294.541 23.8418 295.126 24.1491C295.711 24.4564 296.394 24.5344 297.011 24.3642C297.627 24.1941 298.141 23.7856 298.429 23.2374L298.575 22.9602C298.863 22.4121 298.908 21.7568 298.698 21.1526C298.488 20.5484 298.037 20.0301 297.452 19.7229C296.867 19.4156 296.184 19.3376 295.568 19.5077Z" fill="#3040B4"/>
<path d="M299.823 13.0613C296.872 11.5108 295.011 15.0518 297.962 16.6022C300.913 18.1527 302.773 14.6117 299.823 13.0613Z" fill="#3040B4"/>
<path d="M344.137 11.4932C346.498 12.7335 348.824 8.30732 346.463 7.06698C344.102 5.82664 341.777 10.2529 344.137 11.4932Z" fill="#3040B4"/>
<path d="M357.123 33.0012C355.918 32.3679 354.334 32.9353 353.642 34.2525L353.388 34.7358C352.697 36.0506 353.125 37.6782 354.333 38.3127C355.54 38.9471 357.122 38.3786 357.814 37.0614L358.068 36.5781C358.759 35.2633 358.331 33.6357 357.123 33.0012Z" fill="#3040B4"/>
<path d="M314.302 4.85369C317.252 6.40412 319.578 1.97789 316.627 0.427473C313.676 -1.12295 311.351 3.30327 314.302 4.85369Z" fill="#3040B4"/>
<path d="M27.2941 51.1733C104.564 50.5933 181.834 50.0133 259.104 49.4433L256.134 27.5033C182.394 46.9433 107.194 60.5434 31.2841 67.8933C25.2841 68.4734 20.1141 72.6133 20.1141 79.0633C20.1141 85.1133 25.2241 90.2433 31.2841 90.2333C104.614 90.1233 177.944 90.0033 251.264 89.8933L248.294 67.9533C171.984 80.5433 95.5241 92.1833 19.2141 104.773C6.81413 106.813 9.68413 127.413 22.1841 126.713C92.0241 122.813 161.994 121.753 231.834 117.853L228.864 95.9133C165.824 111.023 102.784 126.143 39.7341 141.253C27.6541 144.153 30.0041 163.893 42.7041 163.193C117.274 159.053 191.784 153.303 266.484 152.003L263.514 130.063C197.504 140.823 131.154 149.313 64.9941 159.063C45.9741 161.863 26.9741 164.783 7.99413 167.873C-4.49587 169.913 -1.46587 190.203 10.9641 189.813C90.4441 187.303 169.924 184.793 249.414 182.283L246.444 160.343C183.614 179.763 119.454 194.693 54.4941 204.993C48.5341 205.943 45.2241 213.383 46.6941 218.733C48.4441 225.083 54.4541 227.483 60.4341 226.533C125.384 216.233 189.554 201.303 252.384 181.883C264.074 178.273 262.414 159.533 249.414 159.943C169.934 162.453 90.4541 164.963 10.9641 167.473L13.9341 189.413C79.9441 178.653 146.294 170.163 212.454 160.413C231.474 157.613 250.474 154.693 269.454 151.603C282.004 149.553 278.854 129.453 266.484 129.663C191.784 130.973 117.274 136.713 42.7041 140.853L45.6741 162.793C108.714 147.683 171.754 132.563 234.804 117.453C246.884 114.553 244.534 94.8034 231.834 95.5134C161.994 99.4134 92.0241 100.473 22.1841 104.373L25.1541 126.313C101.464 113.723 177.924 102.083 254.234 89.4933C259.644 88.6033 262.984 82.2033 262.234 77.2433C261.424 71.8233 256.934 67.5533 251.264 67.5633C177.934 67.6733 104.604 67.7933 31.2841 67.9033V90.2433C109.174 82.7033 186.394 69.0134 262.064 49.0534C274.224 45.8334 271.764 27.0133 259.104 27.1033C181.834 27.6833 104.564 28.2633 27.2941 28.8433C12.9241 28.9533 12.8941 51.2833 27.2941 51.1833V51.1733Z" fill="#CED224" fill-opacity="0.28"/>
</svg>
