<svg width="222" height="147" viewBox="0 0 222 147" fill="none" xmlns="http://www.w3.org/2000/svg">
<path d="M63.484 1.43626L3.39717 24.5408C0.905506 25.4997 -0.272371 28.4746 0.769597 31.1852L43.5431 142.404C44.5851 145.115 47.4543 146.534 49.9459 145.575L110.033 122.463C112.524 121.504 113.702 118.529 112.66 115.819L69.8943 4.60747C68.8524 1.89684 65.9832 0.477349 63.4915 1.43626H63.484Z" fill="#DADCED"/>
<path d="M110.153 122.78L50.0665 145.892C47.4012 146.919 44.3357 145.409 43.2333 142.532L0.452234 31.3062C-0.657688 28.4294 0.610794 25.2507 3.27612 24.2314L63.3629 1.12687C66.0282 0.0999996 69.0937 1.6101 70.1961 4.48684L112.97 115.706C114.08 118.582 112.811 121.761 110.146 122.78H110.153ZM3.51773 24.8581C1.19973 25.749 0.104911 28.5352 1.07892 31.0721L43.8525 142.291C44.8265 144.828 47.5069 146.164 49.8249 145.273L109.912 122.161C112.23 121.27 113.325 118.484 112.35 115.947L69.577 4.72845C68.603 2.19149 65.9225 0.855049 63.6045 1.74601L3.51773 24.8581Z" fill="black"/>
<path d="M89.4349 98.6874L80.8953 101.972C80.6613 102.063 80.548 102.319 80.6386 102.553C80.7292 102.787 80.9859 102.901 81.22 102.81L89.7596 99.5255C89.9937 99.4349 90.1069 99.1782 90.0163 98.9441C89.9257 98.7101 89.669 98.5968 89.4349 98.6874Z" fill="black"/>
<path d="M89.8496 99.7667L81.31 103.051C80.9401 103.195 80.5248 103.006 80.3889 102.643C80.253 102.281 80.4342 101.858 80.7966 101.722L89.3362 98.4378C89.7062 98.2944 90.1215 98.4832 90.2574 98.8456C90.3933 99.208 90.2121 99.6308 89.8496 99.7667ZM80.9854 102.221C80.8948 102.258 80.8419 102.364 80.8797 102.455C80.9174 102.545 81.0231 102.598 81.1137 102.56L89.6533 99.2759C89.7439 99.2382 89.7968 99.1325 89.759 99.0419C89.7213 98.9513 89.6156 98.8984 89.525 98.9362L80.9854 102.221Z" fill="black"/>
<path d="M84.4137 93.8922L85.7952 93.3637C86.0292 93.2732 86.1425 93.0165 86.0519 92.7825C85.9613 92.5484 85.7046 92.4352 85.4706 92.5258L84.0891 93.0542C83.8551 93.1448 83.7419 93.4015 83.8324 93.6355C83.923 93.8695 84.1797 93.9828 84.4137 93.8922Z" fill="black"/>
<path d="M85.893 93.6053L84.5115 94.1338C84.1416 94.2772 83.7264 94.0885 83.5905 93.7261C83.4546 93.3638 83.6358 92.941 83.9982 92.8051L85.3797 92.2767C85.7496 92.1333 86.1648 92.322 86.3007 92.6844C86.4365 93.0467 86.2554 93.4695 85.893 93.6053ZM84.1869 93.3034C84.0963 93.3411 84.0435 93.4468 84.0812 93.5374C84.119 93.628 84.2246 93.6808 84.3152 93.6431L85.6967 93.1147C85.7873 93.0769 85.8402 92.9712 85.8024 92.8806C85.7647 92.79 85.659 92.7372 85.5684 92.7749L84.1869 93.3034Z" fill="black"/>
<path d="M82.1183 87.9122L83.4998 87.3838C83.7338 87.2932 83.8471 87.0365 83.7565 86.8025C83.6659 86.5685 83.4092 86.4552 83.1752 86.5458L81.7937 87.0743C81.5597 87.1649 81.4464 87.4215 81.537 87.6555C81.6276 87.8896 81.8843 88.0028 82.1183 87.9122Z" fill="black"/>
<path d="M83.5981 87.6327L82.2166 88.1611C81.8467 88.3046 81.4315 88.1158 81.2956 87.7535C81.1597 87.3911 81.3409 86.9684 81.7033 86.8325L83.0847 86.304C83.4546 86.1606 83.8698 86.3493 84.0057 86.7117C84.1416 87.0741 83.9604 87.4968 83.5981 87.6327ZM81.892 87.3232C81.8014 87.3609 81.7486 87.4666 81.7863 87.5572C81.824 87.6478 81.9297 87.7006 82.0203 87.6629L83.4018 87.1344C83.4924 87.0967 83.5452 86.991 83.5075 86.9004C83.4697 86.8098 83.3641 86.757 83.2735 86.7947L81.892 87.3232Z" fill="black"/>
<path d="M81.763 78.7387L78.9924 79.8031C78.7584 79.8937 78.6452 80.1504 78.7358 80.3844C78.8264 80.6184 79.083 80.7317 79.317 80.6411L82.0876 79.5766C82.3216 79.4861 82.4348 79.2294 82.3442 78.9954C82.2536 78.7613 81.997 78.6481 81.763 78.7387Z" fill="black"/>
<path d="M82.178 79.8256L79.4075 80.89C79.0376 81.0334 78.6224 80.8447 78.4865 80.4823C78.3506 80.12 78.5318 79.6972 78.8942 79.5613L81.6647 78.4969C82.0346 78.3535 82.4498 78.5422 82.5857 78.9046C82.7216 79.2669 82.5404 79.6897 82.178 79.8256ZM79.0905 80.052C78.9999 80.0898 78.947 80.1955 78.9848 80.286C79.0225 80.3766 79.1282 80.4295 79.2188 80.3917L81.9893 79.3273C82.0799 79.2896 82.1327 79.1839 82.095 79.0933C82.0572 79.0027 81.9516 78.9499 81.861 78.9876L79.0905 80.052Z" fill="black"/>
<path d="M76.7423 73.9444L78.1238 73.416C78.3578 73.3254 78.4711 73.0687 78.3805 72.8347C78.2899 72.6007 78.0332 72.4875 77.7992 72.5781L76.4177 73.1065C76.1837 73.1971 76.0705 73.4537 76.1611 73.6878C76.2516 73.9218 76.5083 74.035 76.7423 73.9444Z" fill="black"/>
<path d="M78.2216 73.6644L76.8401 74.1929C76.4702 74.3363 76.055 74.1476 75.9191 73.7852C75.7833 73.4229 75.9644 73.0001 76.3268 72.8642L77.7083 72.3358C78.0782 72.1924 78.4934 72.3811 78.6293 72.7434C78.7651 73.1058 78.584 73.5285 78.2216 73.6644ZM76.5155 73.3625C76.4249 73.4002 76.3721 73.5059 76.4098 73.5965C76.4476 73.6871 76.5533 73.7399 76.6439 73.7022L78.0253 73.1737C78.1159 73.136 78.1688 73.0303 78.131 72.9397C78.0933 72.8491 77.9876 72.7963 77.897 72.834L76.5155 73.3625Z" fill="black"/>
<path d="M74.4464 67.9713L75.8279 67.4429C76.0619 67.3523 76.1752 67.0956 76.0846 66.8616C75.994 66.6276 75.7373 66.5143 75.5033 66.6049L74.1218 67.1333C73.8878 67.2239 73.7746 67.4806 73.8652 67.7146C73.9557 67.9486 74.2124 68.0619 74.4464 67.9713Z" fill="black"/>
<path d="M75.9267 67.6923L74.5452 68.2207C74.1753 68.3641 73.7601 68.1754 73.6242 67.813C73.4883 67.4507 73.6695 67.0279 74.0319 66.892L75.4133 66.3636C75.7833 66.2202 76.1985 66.4089 76.3343 66.7713C76.4702 67.1336 76.289 67.5564 75.9267 67.6923ZM74.2206 67.3827C74.13 67.4205 74.0772 67.5262 74.1149 67.6168C74.1526 67.7074 74.2583 67.7602 74.3489 67.7224L75.7304 67.194C75.821 67.1563 75.8738 67.0506 75.8361 66.96C75.7984 66.8694 75.6927 66.8166 75.6021 66.8543L74.2206 67.3827Z" fill="black"/>
<path d="M74.1375 58.9032L71.3669 59.9677C71.1329 60.0583 71.0197 60.3149 71.1103 60.5489C71.2009 60.783 71.4575 60.8962 71.6916 60.8056L74.4621 59.7412C74.6961 59.6506 74.8093 59.3939 74.7187 59.1599C74.6282 58.9259 74.3715 58.8127 74.1375 58.9032Z" fill="black"/>
<path d="M74.552 59.9906L71.7815 61.055C71.4116 61.1985 70.9964 61.0097 70.8605 60.6474C70.7247 60.285 70.9058 59.8623 71.2682 59.7264L74.0387 58.662C74.4086 58.5185 74.8238 58.7073 74.9597 59.0696C75.0956 59.432 74.9144 59.8547 74.552 59.9906ZM71.4645 60.2171C71.3739 60.2548 71.321 60.3605 71.3588 60.4511C71.3965 60.5417 71.5022 60.5945 71.5928 60.5568L74.3633 59.4924C74.4539 59.4546 74.5068 59.3489 74.469 59.2583C74.4313 59.1677 74.3256 59.1149 74.235 59.1526L71.4645 60.2171Z" fill="black"/>
<path d="M69.1159 54.108L70.4974 53.5796C70.7314 53.489 70.8446 53.2323 70.754 52.9983C70.6634 52.7643 70.4068 52.651 70.1727 52.7416L68.7913 53.2701C68.5572 53.3606 68.444 53.6173 68.5346 53.8513C68.6252 54.0854 68.8819 54.1986 69.1159 54.108Z" fill="black"/>
<path d="M70.5956 53.8295L69.2142 54.3579C68.8442 54.5013 68.429 54.3126 68.2932 53.9502C68.1573 53.5879 68.3385 53.1651 68.7008 53.0293L70.0823 52.5008C70.4522 52.3574 70.8674 52.5461 71.0033 52.9085C71.1392 53.2708 70.958 53.6936 70.5956 53.8295ZM68.8895 53.5275C68.799 53.5652 68.7461 53.6709 68.7839 53.7615C68.8216 53.8521 68.9273 53.905 69.0179 53.8672L70.3994 53.3388C70.4899 53.301 70.5428 53.1953 70.505 53.1047C70.4673 53.0142 70.3616 52.9613 70.271 52.9991L68.8895 53.5275Z" fill="black"/>
<path d="M66.8209 48.1363L68.2024 47.6079C68.4365 47.5173 68.5497 47.2606 68.4591 47.0266C68.3685 46.7926 68.1118 46.6794 67.8778 46.7699L66.4963 47.2984C66.2623 47.389 66.1491 47.6456 66.2397 47.8797C66.3303 48.1137 66.5869 48.2269 66.8209 48.1363Z" fill="black"/>
<path d="M68.2929 47.8495L66.9114 48.3779C66.5415 48.5213 66.1263 48.3326 65.9904 47.9703C65.8545 47.6079 66.0357 47.1852 66.3981 47.0493L67.7796 46.5208C68.1495 46.3774 68.5647 46.5661 68.7005 46.9285C68.8364 47.2908 68.6553 47.7136 68.2929 47.8495ZM66.5944 47.5475C66.5038 47.5853 66.4509 47.691 66.4887 47.7815C66.5264 47.8721 66.6321 47.925 66.7227 47.8872L68.1042 47.3588C68.1948 47.321 68.2476 47.2154 68.2099 47.1248C68.1721 47.0342 68.0664 46.9813 67.9758 47.0191L66.5944 47.5475Z" fill="black"/>
<path d="M66.7752 39.7631L64.0046 40.8275C63.7706 40.9181 63.6574 41.1748 63.748 41.4088C63.8386 41.6428 64.0952 41.7561 64.3293 41.6655L67.0998 40.6011C67.3338 40.5105 67.447 40.2538 67.3564 40.0198C67.2658 39.7858 67.0092 39.6725 66.7752 39.7631Z" fill="black"/>
<path d="M67.1907 40.85L64.4202 41.9144C64.0503 42.0578 63.6351 41.8691 63.4992 41.5067C63.3633 41.1444 63.5445 40.7216 63.9069 40.5858L66.6774 39.5213C67.0473 39.3779 67.4625 39.5666 67.5984 39.929C67.7343 40.2913 67.5531 40.7141 67.1907 40.85ZM64.1031 41.0764C64.0126 41.1142 63.9597 41.2199 63.9975 41.3105C64.0352 41.4011 64.1409 41.4539 64.2315 41.4162L67.002 40.3517C67.0926 40.314 67.1454 40.2083 67.1077 40.1177C67.0699 40.0271 66.9643 39.9743 66.8737 40.012L64.1031 41.0764Z" fill="black"/>
<path d="M61.7545 34.9689L63.136 34.4404C63.3701 34.3498 63.4833 34.0932 63.3927 33.8591C63.3021 33.6251 63.0454 33.5119 62.8114 33.6025L61.4299 34.1309C61.1959 34.2215 61.0827 34.4782 61.1733 34.7122C61.2639 34.9462 61.5205 35.0594 61.7545 34.9689Z" fill="black"/>
<path d="M63.2338 34.6893L61.8523 35.2178C61.4824 35.3612 61.0672 35.1725 60.9313 34.8101C60.7955 34.4478 60.9766 34.025 61.339 33.8891L62.7205 33.3607C63.0904 33.2173 63.5056 33.406 63.6415 33.7683C63.7774 34.1307 63.5962 34.5534 63.2338 34.6893ZM61.5277 34.3798C61.4371 34.4176 61.3843 34.5232 61.422 34.6138C61.4598 34.7044 61.5655 34.7573 61.6561 34.7195L63.0375 34.1911C63.1281 34.1533 63.181 34.0477 63.1432 33.9571C63.1055 33.8665 62.9998 33.8136 62.9092 33.8514L61.5277 34.3798Z" fill="black"/>
<path d="M59.4591 28.9957L60.8406 28.4673C61.0746 28.3767 61.1879 28.12 61.0973 27.886C61.0067 27.652 60.75 27.5387 60.516 27.6293L59.1345 28.1578C58.9005 28.2483 58.7873 28.505 58.8779 28.739C58.9684 28.9731 59.2251 29.0863 59.4591 28.9957Z" fill="black"/>
<path d="M60.9389 28.7089L59.5574 29.2373C59.1875 29.3807 58.7723 29.192 58.6364 28.8296C58.5005 28.4673 58.6817 28.0445 59.0441 27.9087L60.4256 27.3802C60.7955 27.2368 61.2107 27.4255 61.3465 27.7879C61.4824 28.1502 61.3013 28.573 60.9389 28.7089ZM59.2328 28.4069C59.1422 28.4446 59.0894 28.5503 59.1271 28.6409C59.1649 28.7315 59.2706 28.7843 59.3611 28.7466L60.7426 28.2182C60.8332 28.1804 60.8861 28.0747 60.8483 27.9841C60.8106 27.8936 60.7049 27.8407 60.6143 27.8785L59.2328 28.4069Z" fill="black"/>
<path d="M57.0353 22.6914L59.8058 21.6269C60.0398 21.5363 60.1531 21.2797 60.0625 21.0457C59.9719 20.8116 59.7152 20.6984 59.4812 20.789L56.7107 21.8534C56.4767 21.944 56.3634 22.2007 56.454 22.4347C56.5446 22.6687 56.8013 22.7819 57.0353 22.6914Z" fill="black"/>
<path d="M59.8968 21.8754L57.1263 22.9398C56.7564 23.0832 56.3412 22.8945 56.2053 22.5321C56.0694 22.1698 56.2506 21.747 56.6129 21.6111L59.3834 20.5467C59.7533 20.4033 60.1685 20.592 60.3044 20.9544C60.4403 21.3167 60.2591 21.7395 59.8968 21.8754ZM56.8092 22.1094C56.7186 22.1471 56.6658 22.2528 56.7035 22.3434C56.7413 22.434 56.8469 22.4868 56.9375 22.4491L59.708 21.3847C59.7986 21.3469 59.8515 21.2412 59.8137 21.1506C59.776 21.0601 59.6703 21.0072 59.5797 21.045L56.8092 22.1094Z" fill="black"/>
<path d="M83.846 110.073L77.4754 112.523C76.156 113.031 75.4979 114.512 76.0054 115.831L78.4559 122.202C78.9634 123.521 80.4444 124.179 81.7638 123.672L88.1344 121.221C89.4538 120.714 90.112 119.233 89.6044 117.913L87.1539 111.543C86.6464 110.224 85.1654 109.565 83.846 110.073Z" fill="white"/>
<path d="M88.2193 121.482L81.8543 123.928C80.397 124.487 78.7586 123.762 78.1998 122.305L75.7535 115.94C75.1947 114.482 75.9196 112.844 77.3768 112.285L83.7419 109.839C85.1991 109.28 86.8376 110.005 87.3963 111.462L89.8427 117.827C90.4014 119.285 89.6766 120.923 88.2193 121.482ZM77.5656 112.784C76.3877 113.237 75.7912 114.566 76.2443 115.751L78.6906 122.116C79.1436 123.294 80.4725 123.89 81.658 123.437L88.023 120.991C89.2009 120.538 89.7974 119.209 89.3444 118.024L86.898 111.659C86.445 110.481 85.1161 109.884 83.9307 110.337L77.5656 112.784Z" fill="black"/>
<path d="M83.9461 119.775C82.2548 120.424 81.1146 120.1 80.5181 118.801L81.6205 118.378C81.915 119.133 82.5794 119.307 83.5987 118.922C84.0518 118.748 84.3689 118.522 84.535 118.235C84.7011 117.955 84.7313 117.669 84.6181 117.389C84.5048 117.11 84.316 116.959 84.0367 116.929C83.7573 116.906 83.2212 116.944 82.4209 117.034C81.6205 117.132 81.0089 117.132 80.5861 117.034C80.1633 116.936 79.8386 116.604 79.6196 116.038C79.4233 115.524 79.4686 115.018 79.7555 114.52C80.0425 114.022 80.5408 113.637 81.243 113.372C82.8663 112.746 83.9159 113.01 84.3991 114.15L83.3043 114.573C83.04 114.007 82.4888 113.878 81.6507 114.203C81.2807 114.346 81.0014 114.535 80.8126 114.769C80.6238 115.003 80.5785 115.252 80.6842 115.524C80.7749 115.766 80.941 115.902 81.1675 115.939C81.394 115.977 81.9225 115.939 82.738 115.834C83.5534 115.728 84.1952 115.72 84.6483 115.826C85.1088 115.924 85.4486 116.272 85.6751 116.868C85.9016 117.465 85.8488 117.986 85.5392 118.529C85.2296 119.073 84.7011 119.496 83.9385 119.783L83.9461 119.775Z" fill="black"/>
<path d="M63.7332 117.806L57.3626 120.256C56.0432 120.764 55.3851 122.245 55.8926 123.564L58.3431 129.935C58.8506 131.254 60.3317 131.912 61.651 131.405L68.0216 128.954C69.341 128.447 69.9992 126.966 69.4916 125.646L67.0411 119.276C66.5336 117.956 65.0526 117.298 63.7332 117.806Z" fill="white"/>
<path d="M68.1046 129.221L61.7395 131.667C60.2823 132.226 58.6438 131.501 58.0851 130.044L55.6387 123.679C55.08 122.222 55.8048 120.583 57.2621 120.025L63.6271 117.578C65.0844 117.019 66.7228 117.744 67.2816 119.202L69.7279 125.567C70.2867 127.024 69.5618 128.662 68.1046 129.221ZM57.4508 120.515C56.273 120.968 55.6765 122.297 56.1295 123.483L58.5759 129.848C59.0289 131.026 60.3578 131.622 61.5432 131.169L67.9083 128.723C69.0862 128.27 69.6826 126.941 69.2296 125.755L66.7833 119.39C66.3302 118.212 65.0013 117.616 63.8159 118.069L57.4508 120.515Z" fill="black"/>
<path d="M63.8313 127.508C62.14 128.157 60.9999 127.832 60.4034 126.534L61.5058 126.111C61.8002 126.866 62.4647 127.039 63.484 126.654C63.937 126.481 64.2541 126.254 64.4203 125.967C64.5864 125.688 64.6166 125.401 64.5033 125.122C64.3901 124.842 64.2013 124.691 63.9219 124.661C63.6425 124.638 63.1065 124.676 62.3061 124.767C61.5058 124.865 60.8942 124.865 60.4713 124.767C60.0485 124.669 59.7238 124.336 59.5049 123.77C59.3086 123.257 59.3539 122.751 59.6408 122.252C59.9277 121.754 60.426 121.369 61.1282 121.105C62.7516 120.478 63.8011 120.742 64.2843 121.882L63.1895 122.305C62.9253 121.739 62.3741 121.611 61.536 121.935C61.166 122.079 60.8866 122.267 60.6979 122.502C60.5091 122.736 60.4638 122.985 60.5695 123.257C60.6601 123.498 60.8262 123.634 61.0527 123.672C61.2792 123.71 61.8078 123.672 62.6232 123.566C63.4387 123.46 64.0805 123.453 64.5335 123.559C64.9941 123.657 65.3339 124.004 65.5604 124.601C65.7869 125.197 65.734 125.718 65.4245 126.262C65.1149 126.805 64.5864 127.228 63.8238 127.515L63.8313 127.508Z" fill="black"/>
<path d="M56.2377 20.1105L17.3447 35.0713L48.3099 115.57L87.2028 100.61L56.2377 20.1105Z" fill="white"/>
<path d="M87.5398 100.77L48.1489 115.917L16.9956 34.9227L56.3865 19.7764L87.5398 100.778V100.77ZM48.451 115.23L86.8452 100.461L56.0769 20.4635L17.6827 35.2322L48.451 115.237V115.23Z" fill="black"/>
<path d="M45.6754 55.2747L27.7617 62.1655L48.3067 115.575L66.2204 108.685L45.6754 55.2747Z" fill="#56F586"/>
<path d="M62.8531 38.4194L45.1226 45.2397L69.0994 107.571L86.8299 100.751L62.8531 38.4194Z" fill="#56F586"/>
<path d="M39.2859 38.6607L21.2876 45.584L21.9002 47.1766L39.8985 40.2533L39.2859 38.6607Z" fill="#56F586"/>
<path d="M59.6246 30.8298L42.1689 37.5444L42.7816 39.1371L60.2372 32.4225L59.6246 30.8298Z" fill="#56F586"/>
<path d="M87.5398 100.77L48.1489 115.917L16.9956 34.9227L56.3865 19.7764L87.5398 100.778V100.77ZM48.451 115.23L86.8452 100.461L56.0769 20.4635L17.6827 35.2322L48.451 115.237V115.23Z" fill="black"/>
<path d="M89.0956 110.556C89.0956 110.556 83.7499 97.5088 102.8 90.1772L109.172 106.743C109.172 106.743 89.896 116.423 89.1032 110.556H89.0956Z" fill="black"/>
<path d="M101.787 110.277C97.3776 111.976 92.2432 113.456 90.0007 112.278C89.3363 111.93 88.9437 111.372 88.838 110.624C88.6643 110.179 87.1089 105.928 89.2608 100.937C91.2617 96.2933 95.7844 92.586 102.708 89.9282L102.957 89.8301L109.511 106.872L109.292 106.977C109.005 107.121 105.676 108.782 101.787 110.277ZM102.648 90.5247C96.0185 93.1221 91.6769 96.6935 89.7591 101.141C87.6148 106.094 89.3287 110.413 89.3514 110.458L89.3665 110.488V110.518C89.4496 111.115 89.744 111.53 90.2575 111.81C93.9647 113.765 106.997 107.513 108.839 106.607L102.655 90.5247H102.648Z" fill="black"/>
<path d="M172.966 117.019L149.431 111.938C141.865 110.307 134.028 110.503 126.553 112.519L101.795 119.194C89.918 122.395 83.719 105.618 94.8183 100.325L105.185 95.3798L101.327 85.4509L103.479 80.5355C106.144 74.4498 110.569 69.3004 116.179 65.7516L137.72 52.123C141.269 49.8805 145.641 49.3595 149.612 50.7111L221.463 75.1067" fill="#EEEEEE"/>
<path d="M172.966 117.019L149.431 111.938C141.865 110.307 134.028 110.503 126.553 112.519L101.795 119.194C89.918 122.395 83.719 105.618 94.8183 100.325L105.185 95.3798L101.327 85.4509L103.479 80.5355C106.144 74.4498 110.569 69.3004 116.179 65.7516L137.72 52.123C141.269 49.8805 145.641 49.3595 149.612 50.7111L221.463 75.1067" stroke="#394075" stroke-width="0.755049" stroke-miterlimit="10"/>
<path d="M106.937 94.5346C109.074 93.6663 111.249 92.8886 113.438 92.1487C113.861 91.9826 114.291 91.8165 114.714 91.6579C117.614 90.548 120.536 89.506 123.518 88.6377C125.081 88.1847 126.659 87.7694 128.237 87.3692C129.136 87.0596 130.034 86.735 130.933 86.4028C135.153 84.8322 139.412 83.443 143.738 82.2575C143.814 79.109 143.965 74.6013 144.282 68.4175C140.114 77.025 132.05 73.6424 132.05 73.6424C132.05 73.6424 131.189 80.7927 115.492 81.9404C115.25 88.4414 103.117 90.0572 103.117 90.0572C103.117 90.0572 103.693 91.7661 104.846 95.184C105.548 94.9801 106.243 94.7611 106.937 94.5346Z" fill="#EEEEEE"/>
<path d="M123.11 89.1205C122.944 89.1809 122.755 89.1054 122.687 88.9392C122.612 88.7731 122.687 88.5768 122.861 88.5013C122.891 88.4862 126.123 87.0743 128.69 84.0994C132.11 80.1429 132.798 75.4239 130.744 70.0781C130.676 69.9045 130.766 69.7157 130.933 69.6477C131.099 69.5798 131.295 69.6704 131.363 69.8365C134.043 76.8132 131.657 81.6908 129.181 84.5524C126.508 87.633 123.261 89.0525 123.125 89.1129C123.125 89.1129 123.118 89.1129 123.11 89.1129V89.1205Z" fill="#394075"/>
<path d="M98.0674 102.338L96.8991 102.674C93.4405 103.668 91.4428 107.278 92.4372 110.737L92.7731 111.905C93.7674 115.363 97.3773 117.361 100.836 116.367L102.004 116.031C105.463 115.037 107.461 111.427 106.466 107.968L106.13 106.8C105.136 103.341 101.526 101.343 98.0674 102.338Z" fill="#EEEEEE" stroke="#394075" stroke-width="0.755049" stroke-miterlimit="10"/>
<path d="M149.545 112.255C149.484 112.278 149.424 112.285 149.356 112.27C141.881 110.654 134.021 110.858 126.636 112.844L101.878 119.519C99.0242 120.289 96.2909 119.979 93.9653 118.635C91.8889 117.427 90.258 115.449 89.3746 113.063C88.4912 110.677 88.4459 108.117 89.2387 105.845C90.1297 103.308 92.0022 101.292 94.6751 100.023L104.196 95.4777C110.199 92.6161 116.496 90.2604 122.906 88.486L143.202 82.8609C143.187 80.9657 143.172 69.0963 145.18 61.7573C145.226 61.576 145.414 61.4779 145.588 61.5232C145.769 61.5685 145.867 61.7573 145.822 61.9309C143.67 69.791 143.867 82.9666 143.867 83.1025C143.867 83.2535 143.768 83.3894 143.625 83.4272L123.088 89.1202C116.715 90.887 110.456 93.2277 104.491 96.0742L94.962 100.62C89.4048 103.27 88.4686 108.661 90.0089 112.821C91.5492 116.982 95.7624 120.47 101.712 118.862L126.47 112.187C133.96 110.171 141.926 109.967 149.499 111.606C149.68 111.643 149.794 111.825 149.756 112.006C149.733 112.119 149.65 112.21 149.552 112.247L149.545 112.255Z" fill="#394075"/>
<path d="M114.208 91.9599C114.065 92.0127 113.906 91.9599 113.815 91.8391C113.71 91.688 113.747 91.4766 113.898 91.3709C115.212 90.4649 116.005 89.2719 116.247 87.8297C116.851 84.2433 113.936 80.2264 113.906 80.1811C113.8 80.0301 113.83 79.8262 113.974 79.713C114.125 79.6073 114.329 79.6375 114.442 79.7809C114.57 79.9546 117.553 84.0696 116.904 87.9355C116.632 89.5588 115.748 90.9028 114.276 91.9146C114.253 91.9297 114.231 91.9448 114.208 91.9523V91.9599Z" fill="#394075"/>
<path d="M101.44 85.768C101.365 85.7982 101.267 85.7982 101.184 85.768C101.018 85.6925 100.935 85.4962 101.01 85.3301L103.162 80.4147C105.865 74.246 110.297 69.0814 115.99 65.4799L137.532 51.8512C141.179 49.5408 145.618 49.0122 149.711 50.4015L169.319 57.0611C169.493 57.1215 169.591 57.3102 169.531 57.4839C169.47 57.6576 169.282 57.7482 169.108 57.6953L149.499 51.0358C145.603 49.7144 141.375 50.2128 137.894 52.4175L116.353 66.0462C110.773 69.5722 106.424 74.6386 103.781 80.6866L101.629 85.6019C101.591 85.685 101.523 85.7454 101.44 85.7831V85.768Z" fill="black"/>
</svg>
