<svg width="147" height="149" viewBox="0 0 147 149" fill="none" xmlns="http://www.w3.org/2000/svg">
<path d="M113.331 2.6417L61.6069 9.534C52.1288 10.797 45.4691 19.5043 46.7321 28.9824L58.0564 113.967C59.3193 123.445 68.0267 130.105 77.5048 128.842L129.229 121.95C138.707 120.687 145.367 111.979 144.104 102.501L132.78 17.5165C131.517 8.03841 122.809 1.37874 113.331 2.6417Z" fill="#DADCED" stroke="#3040B4" stroke-width="0.755049" stroke-miterlimit="10"/>
<path d="M57.8252 27.178L122.744 18.5327" stroke="#3040B4" stroke-width="0.755049" stroke-miterlimit="10"/>
<path d="M58.6333 33.264L123.552 24.6187" stroke="#3040B4" stroke-width="0.755049" stroke-miterlimit="10"/>
<path d="M59.4482 39.3494L124.367 30.7041" stroke="#3040B4" stroke-width="0.755049" stroke-miterlimit="10"/>
<path d="M60.2563 45.4424L125.175 36.7896" stroke="#3040B4" stroke-width="0.755049" stroke-miterlimit="10"/>
<path d="M61.0645 51.5288L125.984 42.876" stroke="#3040B4" stroke-width="0.755049" stroke-miterlimit="10"/>
<path d="M61.8799 57.6141L126.799 48.9688" stroke="#3040B4" stroke-width="0.755049" stroke-miterlimit="10"/>
<path d="M62.688 63.7L127.607 55.0547" stroke="#3040B4" stroke-width="0.755049" stroke-miterlimit="10"/>
<path d="M63.5034 69.7855L128.415 61.1401" stroke="#3040B4" stroke-width="0.755049" stroke-miterlimit="10"/>
<path d="M64.311 75.8714L129.23 67.2261" stroke="#3040B4" stroke-width="0.755049" stroke-miterlimit="10"/>
<path d="M65.1191 81.9644L130.038 73.3115" stroke="#3040B4" stroke-width="0.755049" stroke-miterlimit="10"/>
<path d="M65.9346 88.0503L130.854 79.3975" stroke="#3040B4" stroke-width="0.755049" stroke-miterlimit="10"/>
<path d="M66.7422 94.1363L131.661 85.4834" stroke="#3040B4" stroke-width="0.755049" stroke-miterlimit="10"/>
<path d="M67.5503 100.221L132.469 91.5762" stroke="#3040B4" stroke-width="0.755049" stroke-miterlimit="10"/>
<path d="M68.3657 106.307L133.285 97.6621" stroke="#3040B4" stroke-width="0.755049" stroke-miterlimit="10"/>
<path d="M69.1738 112.393L134.093 103.748" stroke="#3040B4" stroke-width="0.755049" stroke-miterlimit="10"/>
<path d="M63.6615 43.7742L69.5811 45.7297C69.5811 45.7297 65.7153 53.4237 58.1648 60.4003C50.6143 67.3845 63.0651 62.0161 63.0651 62.0161L66.2514 63.0732C66.2514 63.0732 60.6866 73.0474 56.4357 77.0114C52.1848 80.9754 62.461 77.993 62.461 77.993C62.461 77.993 56.5792 91.2063 48.7342 93.1619C40.8893 95.1175 22.685 57.6142 37.9068 51.1283C53.1286 44.6425 63.6615 43.7666 63.6615 43.7666V43.7742Z" fill="#EEEEEE"/>
<path d="M1.17383 148.658C1.56645 134.607 2.45741 109.849 4.11097 100.939C6.46672 88.2167 9.83424 71.9077 12.492 59.4569C15.1498 47.0061 17.3092 37.2358 29.9261 31.9278C34.177 30.1384 51.7244 23.7355 73.1376 16.0189C79.5781 13.7009 83.4666 23.0182 77.2903 25.9629L36.5252 45.413L62.9217 38.459C69.9664 36.6016 73.5604 46.5833 66.9537 49.6413L41.2367 61.5559L61.1096 54.9493C66.4176 53.1824 69.7776 60.5517 64.9604 63.3983L44.3777 75.5697L59.7203 69.9219C65.7381 67.7096 69.8757 75.9925 64.4998 79.4733L46.6957 91.0029L46.8694 95.2387C44.9667 109.358 39.923 123.696 33.5126 135.007" fill="#EEEEEE"/>
<path d="M1.17383 148.658C1.56645 134.607 2.45741 109.849 4.11097 100.939C6.46672 88.2167 9.83424 71.9077 12.492 59.4569C15.1498 47.0061 17.3092 37.2358 29.9261 31.9278C34.177 30.1384 51.7244 23.7355 73.1376 16.0189C79.5781 13.7009 83.4666 23.0182 77.2903 25.9629L36.5252 45.413L62.9217 38.459C69.9664 36.6016 73.5604 46.5833 66.9537 49.6413L41.2367 61.5559L61.1096 54.9493C66.4176 53.1825 69.7776 60.5517 64.9604 63.3983L44.3777 75.5697L59.7203 69.9219C65.7381 67.7096 69.8757 75.9925 64.4998 79.4733L46.6957 91.0029L46.8694 95.2387C44.9667 109.358 39.9229 123.696 33.5126 135.007" stroke="#3040B4" stroke-width="0.755049" stroke-miterlimit="10"/>
<path d="M2.01942 131.232C1.97412 131.322 1.87596 131.383 1.77026 131.375C1.61925 131.375 1.50599 131.239 1.51354 131.096C2.15533 115.957 2.94058 105.794 3.84664 100.894C4.73005 96.1445 5.80222 90.6024 7.0405 84.4185C7.0707 84.2751 7.21416 84.1769 7.35762 84.2071C7.50108 84.2373 7.59924 84.3808 7.56903 84.5243C6.33075 90.7006 5.25103 96.2426 4.37518 100.992C3.46912 105.869 2.69142 116.002 2.04962 131.118C2.04962 131.156 2.03452 131.194 2.01942 131.232Z" fill="#3040B4"/>
<path d="M66.6826 77.5174C66.2597 78.3329 65.5953 79.0879 64.6288 79.7146L46.8248 91.2442C46.6964 91.3273 46.5303 91.2895 46.4548 91.1612C46.3717 91.0328 46.4095 90.8667 46.5378 90.7912L64.3419 79.2616C66.9921 77.5476 67.1507 74.7313 66.1314 72.6927C65.112 70.6616 62.7638 69.0986 59.8041 70.1859L44.4615 75.8337C44.3331 75.879 44.1821 75.8186 44.1217 75.6978C44.0613 75.5694 44.1066 75.4184 44.2274 75.3505L64.81 63.1791C67.1582 61.7898 67.3923 59.3585 66.5768 57.569C65.7614 55.7796 63.7756 54.3525 61.1858 55.2208L41.3129 61.8275C41.177 61.8728 41.026 61.8049 40.9731 61.669C40.9203 61.5331 40.9731 61.382 41.109 61.3216L66.826 49.407C70.0954 47.8893 70.6692 44.7483 69.7934 42.3095C68.9099 39.8631 66.4636 37.8094 62.9828 38.7306L36.5863 45.6846C36.4504 45.7223 36.3145 45.6468 36.2616 45.5185C36.2163 45.3901 36.2767 45.2391 36.3975 45.1787L77.1626 25.7286C80.1904 24.2865 80.5906 21.2965 79.6845 19.1295C78.7784 16.9625 76.3698 15.1428 73.2137 16.283C73.0703 16.3358 72.9193 16.2603 72.8664 16.1169C72.8135 15.9734 72.8891 15.8224 73.0325 15.7695C76.5208 14.5161 79.1786 16.5246 80.1828 18.9181C81.1795 21.3116 80.734 24.6187 77.3967 26.2119L39.2214 44.4236L62.8393 38.202C66.6297 37.2054 69.363 39.5309 70.2992 42.1207C71.2279 44.7106 70.6164 48.2442 67.0525 49.8977L45.6695 59.804L61.0046 54.6999C63.8964 53.7334 66.1691 55.3945 67.0601 57.3425C67.9435 59.2906 67.7019 62.0918 65.0818 63.6472L47.0513 74.3085L59.6077 69.6876C62.8771 68.4795 65.482 70.2086 66.607 72.4586C67.3621 73.9687 67.5282 75.8639 66.675 77.525L66.6826 77.5174Z" fill="#3040B4"/>
</svg>
