<svg width="124" height="132" viewBox="0 0 124 132" fill="none" xmlns="http://www.w3.org/2000/svg">
<path d="M120.233 9.54433C122.289 17.6188 111.295 25.6608 111.295 25.6608C111.295 25.6608 97.729 23.6018 95.6987 15.629C94.8205 12.1765 97.2044 8.61071 101.026 7.66323C103.181 7.1294 105.333 7.54075 106.956 8.62227C107.869 6.91217 109.567 5.54641 111.723 5.01258C115.545 4.06509 119.355 6.09641 120.233 9.54665V9.54433Z" fill="black"/>
<path d="M112.21 29.3052L110.761 29.0856C110.604 29.0625 106.895 28.4871 102.897 26.8279C97.0686 24.4129 93.4014 20.831 92.2914 16.4702C91.624 13.8473 92.1111 11.1204 93.6684 8.79328C95.1601 6.56322 97.4691 4.96636 100.169 4.29619C102.08 3.82245 104.047 3.85249 105.871 4.35627C107.237 3.06215 108.955 2.11697 110.866 1.64323C113.571 0.977678 116.369 1.30814 118.751 2.57685C121.236 3.90102 122.973 6.07561 123.641 8.69853C124.762 13.1032 123.247 17.9862 119.259 22.8184C116.522 26.1369 113.512 28.3508 113.386 28.4455L112.208 29.3075L112.21 29.3052ZM102.925 10.8939C102.581 10.8939 102.232 10.9355 101.883 11.0233C100.888 11.2706 100.054 11.8345 99.5321 12.6156C99.2675 13.0107 98.8601 13.8196 99.1059 14.7832C100.136 18.8343 106.707 21.1175 110.358 21.9495C113.171 19.5322 117.866 14.4713 116.828 10.3901C116.582 9.42648 115.838 8.9042 115.414 8.67773C114.58 8.23403 113.576 8.12542 112.58 8.37269C111.468 8.64769 110.55 9.32942 110.065 10.2376L108.239 13.6555L104.993 11.4948C104.401 11.0996 103.679 10.8962 102.925 10.8962V10.8939Z" fill="#EEEEEE"/>
<path d="M120.233 9.54433C122.289 17.6188 111.295 25.6608 111.295 25.6608C111.295 25.6608 97.729 23.6018 95.6987 15.629C94.8205 12.1765 97.2044 8.61071 101.026 7.66323C103.181 7.1294 105.333 7.54075 106.956 8.62227C107.869 6.91217 109.567 5.54641 111.723 5.01258C115.545 4.06509 119.355 6.09641 120.233 9.54665V9.54433Z" fill="#E0236B"/>
<path d="M111.316 83.3844C107.662 74.1798 81.7956 22.4928 79.2738 18.5248C76.8208 14.6662 74.2414 10.8151 71.2887 7.3207C68.5865 4.12165 65.1722 1.09239 60.9022 0.399669C59.3737 0.151127 57.8047 0.25325 56.3707 0.787247L17.0714 13.8382H17.0689C16.4796 14.0326 15.9112 14.2934 15.3734 14.6306C13.8645 15.5792 12.7584 17.0631 12.0033 18.6577C11.2299 20.2904 10.7989 22.0684 10.5387 23.8488C10.4576 24.4012 10.9708 24.6854 11.3895 24.5981L28.3541 18.932C29.8802 20.3692 31.2036 22.0031 32.4657 23.6728C33.8432 25.495 35.1655 27.3591 36.4411 29.2539C39.0083 33.0633 41.3839 36.9993 43.6319 41.0043C47.2254 47.4073 50.5353 54.0466 53.7569 60.6465C53.5482 60.729 14.5607 73.5818 14.5607 73.5818C13.7639 73.8316 13.015 74.2413 12.3545 74.8122C10.7756 76.1767 9.64487 78.0518 8.52642 79.7904C6.07957 83.5936 3.96912 87.6059 2.24294 91.7869C1.41055 93.8035 0.677601 95.8607 0.0305924 97.9451C-0.137605 98.4852 0.424691 98.8998 0.816334 98.762L30.6512 88.8499C30.8169 89.1956 30.9839 89.5426 31.1423 89.8921C34.5185 97.288 36.4693 105.245 39.9106 112.614C43.1752 119.605 48.0062 126.582 55.3885 129.607C59.0926 131.125 63.3699 131.619 67.1918 130.235C67.3502 130.178 67.5037 130.113 67.6584 130.05L106.317 117.235C106.476 117.185 106.637 117.134 106.796 117.078C110.419 115.766 113.116 112.791 114.595 109.283C118.209 100.72 114.518 91.451 111.316 83.3844Z" fill="white"/>
<path d="M75.8195 12.8067C73.8859 10.0444 71.8491 7.27477 69.4403 4.90624C67.3274 2.82931 64.8106 1.03907 61.8996 0.320511C60.0507 -0.13597 58.0986 -0.134739 56.2951 0.518607C56.3847 0.673638 56.4756 0.828669 56.5652 0.9837C56.7223 0.786835 56.5848 0.422635 56.2951 0.518607C55.4517 0.799139 54.607 1.07967 53.7635 1.35897C51.6199 2.07138 49.4763 2.78255 47.3327 3.49496C44.4721 4.44483 41.6116 5.39471 38.751 6.34581C35.7553 7.34121 32.7597 8.33538 29.7653 9.33078C27.2251 10.1748 24.6862 11.0177 22.1461 11.8617C20.6249 12.3674 19.1025 12.8719 17.5814 13.3776C17.2548 13.4859 16.9086 13.5966 16.6459 13.6963C14.1585 14.6363 12.4716 16.771 11.4747 19.1728C10.8977 20.5644 10.5416 22.0347 10.3108 23.5211C10.2335 24.0144 10.2433 24.4931 10.7344 24.765C10.9578 24.888 11.2353 24.9237 11.4821 24.8622C12.0591 24.717 12.6288 24.4795 13.1923 24.2913C15.9141 23.382 18.6348 22.474 21.3566 21.5647C23.5911 20.8179 25.8268 20.0722 28.0612 19.3254C28.184 19.2848 28.308 19.2429 28.4308 19.2023C28.3411 19.179 28.2503 19.1543 28.1607 19.131C30.6554 21.4933 32.6787 24.338 34.6504 27.1385C34.8554 27.4288 35.3367 27.1508 35.1304 26.8579C33.1329 24.0206 31.0826 21.1316 28.5548 18.7385C28.4848 18.672 28.3792 18.6351 28.2847 18.6671C26.68 19.2023 25.0766 19.7388 23.472 20.274C20.6224 21.2251 17.7729 22.1775 14.9234 23.1286C13.9473 23.4546 12.9713 23.7807 11.9953 24.1067C11.7902 24.1756 11.5815 24.2642 11.3716 24.3147C11.239 24.3467 11.1076 24.3467 10.9836 24.2667C10.7135 24.0907 10.8363 23.7438 10.8793 23.4805C10.9419 23.099 11.0119 22.7176 11.0929 22.3399C11.6515 19.724 12.7466 17.0196 14.8964 15.313C15.4513 14.8725 16.0787 14.5145 16.7379 14.2573C16.884 14.2007 17.0363 14.1577 17.1799 14.0974C17.3985 14.0063 17.1357 14.0826 17.1505 14.1097C17.1505 14.1097 17.1676 14.1035 17.1689 14.1035C17.2413 14.1109 17.3764 14.0346 17.4439 14.0125C18.7428 13.5806 20.043 13.1487 21.3419 12.7181C23.72 11.9282 26.0981 11.1382 28.4762 10.3483C31.3822 9.38369 34.287 8.41782 37.193 7.45318C40.0843 6.49346 42.9756 5.53251 45.8656 4.5728C48.1676 3.80871 50.4696 3.0434 52.7715 2.27932C53.944 1.88928 55.1165 1.50047 56.2902 1.11043C56.3418 1.09321 56.3945 1.07598 56.4461 1.05876C56.3565 0.903724 56.2656 0.748693 56.176 0.593661C56.0225 0.786835 56.1564 1.16457 56.4461 1.05876C59.4589 -0.0338459 62.7394 0.794218 65.4023 2.40605C67.94 3.94283 69.9866 6.14156 71.8454 8.42766C73.0719 9.93614 74.2284 11.4988 75.3432 13.0909C75.547 13.3825 76.0283 13.1044 75.8232 12.8104L75.8195 12.8067Z" fill="black"/>
<path d="M14.1406 74.3456C15.7464 73.6565 17.5279 73.2812 19.2639 73.6442C20.7752 73.9604 22.1048 74.7885 23.2171 75.8417C24.2901 76.8581 25.1434 78.0688 25.9242 79.3189C26.8193 80.7498 27.6173 82.2411 28.3674 83.7532C29.1237 85.2789 29.8333 86.8305 30.4791 88.4066C30.6129 88.7339 31.1507 88.59 31.0144 88.259C29.7375 85.1473 28.2778 82.0737 26.5099 79.2106C24.8991 76.6009 22.796 73.9531 19.6813 73.1705C17.7096 72.6747 15.6973 73.077 13.8594 73.8657C13.5316 74.006 13.814 74.4858 14.1394 74.3468L14.1406 74.3456Z" fill="black"/>
<path d="M69.3521 129.148C72.8266 127.161 75.0205 123.577 75.9745 119.755C77.0917 115.277 76.4533 110.655 75.0537 106.316C73.4589 101.374 71.039 96.7118 68.8365 92.024C66.537 87.1294 64.2387 82.2337 61.9392 77.3391C59.6495 72.4642 57.3598 67.5893 55.0701 62.7145C54.7914 62.1214 54.5127 61.5284 54.234 60.9353C54.0817 60.6117 53.6029 60.8935 53.7539 61.2159C55.997 65.9935 58.2413 70.77 60.4855 75.5476C62.7421 80.3511 64.9986 85.1559 67.254 89.9594C68.3577 92.3094 69.4614 94.6583 70.5651 97.0084C71.6553 99.3301 72.7419 101.657 73.6627 104.054C75.3299 108.398 76.4987 113.108 75.8014 117.781C75.2268 121.628 73.481 125.491 70.3048 127.863C69.9108 128.157 69.4982 128.424 69.071 128.669C68.7604 128.846 69.0403 129.327 69.3509 129.15L69.3521 129.148Z" fill="black"/>
<path d="M15.9043 14.6536C18.1032 13.9042 20.6053 13.9325 22.7354 14.9009C24.8176 15.847 26.4284 17.4576 28.0968 18.9772C28.3608 19.2171 28.7549 18.8246 28.4897 18.5835C26.7377 16.9876 25.0349 15.2847 22.8238 14.3349C20.6028 13.3825 18.0344 13.3395 15.757 14.1159C15.4206 14.2303 15.5655 14.768 15.9043 14.6523V14.6536Z" fill="black"/>
<path d="M36.0044 14.8541C40.0448 13.4908 44.0742 12.0955 48.138 10.8036C49.5989 10.3397 51.0612 9.88203 52.5246 9.42555C52.8647 9.31974 52.7198 8.78205 52.3773 8.88909C48.3233 10.1527 44.2878 11.4582 40.267 12.8239C38.7975 13.3222 37.3279 13.8218 35.8571 14.3176C35.5194 14.4308 35.6643 14.9698 36.0044 14.8541Z" fill="black"/>
<path d="M40.9309 21.6226C47.261 19.4866 53.5923 17.3543 59.9532 15.3094C61.7395 14.7348 63.5271 14.1688 65.3183 13.6102C65.6584 13.5044 65.5135 12.9667 65.171 13.0738C58.8114 15.0572 52.4874 17.1513 46.172 19.2713C44.3758 19.8742 42.5797 20.4808 40.7835 21.0862C40.4459 21.1994 40.5908 21.7383 40.9309 21.6226Z" fill="black"/>
<path d="M45.8562 28.3924C50.1912 26.9294 54.5177 25.4394 58.8774 24.0503C60.3801 23.5716 61.8841 23.1004 63.3892 22.6304C63.7293 22.5246 63.5844 21.9869 63.2419 22.0939C58.8909 23.4498 54.5595 24.8574 50.244 26.3204C48.7327 26.8322 47.2202 27.3453 45.7076 27.8559C45.37 27.9691 45.5149 28.508 45.8549 28.3924H45.8562Z" fill="black"/>
<path d="M50.2755 36.4045C56.6056 34.2685 62.9369 32.1362 69.2978 30.0913C71.0841 29.5167 72.8717 28.9507 74.6629 28.3921C75.003 28.2863 74.8581 27.7486 74.5156 27.8557C68.156 29.8391 61.832 31.9332 55.5166 34.0532C53.7204 34.6561 51.9243 35.2627 50.1281 35.8681C49.7905 35.9813 49.9354 36.5202 50.2755 36.4045Z" fill="black"/>
<path d="M54.6936 44.4185C61.0237 42.2825 67.3551 40.1502 73.7159 38.1053C75.5022 37.5307 77.2898 36.9647 79.081 36.4061C79.4211 36.3003 79.2762 35.7626 78.9337 35.8696C72.5741 37.8531 66.2501 39.9472 59.9347 42.0672C58.1386 42.6701 56.3424 43.2767 54.5463 43.8821C54.2086 43.9953 54.3535 44.5342 54.6936 44.4185Z" fill="black"/>
<path d="M58.8491 52.5674C65.1793 50.4314 71.5106 48.2991 77.8714 46.2542C79.6578 45.6796 81.4453 45.1136 83.2366 44.555C83.5767 44.4492 83.4318 43.9115 83.0893 44.0185C76.7297 46.002 70.4057 48.0949 64.0903 50.2161C62.2941 50.819 60.498 51.4256 58.7018 52.0309C58.3642 52.1441 58.5091 52.6831 58.8491 52.5674Z" fill="black"/>
<path d="M62.7181 60.7818C67.0913 59.3054 71.4571 57.8043 75.8548 56.4016C77.3624 55.9205 78.8725 55.448 80.3838 54.9768C80.7239 54.871 80.579 54.3333 80.2365 54.4403C75.8474 55.8085 71.4779 57.2297 67.1232 58.7049C65.6057 59.2192 64.0883 59.7335 62.5708 60.2454C62.2332 60.3586 62.3781 60.8975 62.7181 60.7818Z" fill="black"/>
<path d="M66.5608 68.9586C72.8909 66.8226 79.2223 64.6903 85.5831 62.6454C87.3694 62.0708 89.157 61.5048 90.9482 60.9462C91.2883 60.8404 91.1434 60.3027 90.8009 60.4097C84.4413 62.3931 78.1173 64.4873 71.8019 66.6073C70.0058 67.2102 68.2096 67.8168 66.4134 68.4221C66.0758 68.5353 66.2207 69.0742 66.5608 68.9586Z" fill="black"/>
<path d="M70.9549 76.9726C77.285 74.8366 83.6164 72.7043 89.9772 70.6594C91.7635 70.0848 93.5511 69.5188 95.3424 68.9602C95.6824 68.8544 95.5376 68.3167 95.195 68.4237C88.8354 70.4071 82.5114 72.5013 76.1961 74.6213C74.3999 75.2242 72.6037 75.8308 70.8076 76.4361C70.47 76.5493 70.6148 77.0882 70.9549 76.9726Z" fill="black"/>
<path d="M74.2568 85.547C80.587 83.411 86.9183 81.2787 93.2791 79.2338C95.0655 78.6592 96.853 78.0932 98.6443 77.5346C98.9843 77.4288 98.8395 76.8911 98.4969 76.9982C92.1373 78.9816 85.8134 81.0757 79.498 83.1957C77.7018 83.7986 75.9056 84.4052 74.1095 85.0106C73.7719 85.1238 73.9167 85.6627 74.2568 85.547Z" fill="black"/>
<path d="M77.6175 93.59C83.9476 91.454 90.279 89.3217 96.6398 87.2768C98.4261 86.7022 100.214 86.1362 102.005 85.5776C102.345 85.4718 102.2 84.9341 101.858 85.0411C95.498 87.0245 89.174 89.1187 82.8586 91.2387C81.0625 91.8416 79.2663 92.4482 77.4701 93.0535C77.1325 93.1667 77.2774 93.7057 77.6175 93.59Z" fill="black"/>
<path d="M45.6247 86.0393C49.9107 84.5923 54.1881 83.1195 58.4974 81.7464C59.9928 81.2702 61.4906 80.8015 62.9884 80.3339C63.3285 80.2281 63.1836 79.6904 62.8411 79.7974C58.5404 81.1386 54.2581 82.529 49.9917 83.9747C48.4866 84.4853 46.9826 84.9947 45.4774 85.5028C45.1398 85.616 45.2847 86.155 45.6247 86.0393Z" fill="black"/>
<path d="M43.7064 95.8174C49.6044 93.8266 55.5024 91.8334 61.4286 89.9312C63.1535 89.3775 64.8797 88.8312 66.6083 88.2923C66.9484 88.1865 66.8035 87.6488 66.461 87.7558C60.536 89.6027 54.6442 91.5479 48.7622 93.5264C47.0274 94.1096 45.2926 94.6953 43.5591 95.281C43.2215 95.3942 43.3663 95.9331 43.7064 95.8174Z" fill="black"/>
<path d="M47.0683 103.846C53.0989 101.811 59.1307 99.7745 65.1907 97.828C66.9341 97.2682 68.6799 96.7157 70.4269 96.1707C70.767 96.0648 70.6221 95.5272 70.2796 95.6342C64.2208 97.5229 58.1964 99.5137 52.1805 101.536C50.4261 102.126 48.6742 102.718 46.9197 103.309C46.5821 103.423 46.727 103.962 47.0671 103.846H47.0683Z" fill="black"/>
<path d="M58.0422 109.471C61.9181 108.163 65.783 106.822 69.6822 105.583C71.1199 105.126 72.5588 104.677 73.9989 104.228C74.339 104.122 74.1941 103.585 73.8516 103.692C69.9634 104.904 66.0912 106.154 62.2361 107.464C60.7899 107.956 59.3436 108.446 57.8961 108.935C57.5585 109.048 57.7034 109.587 58.0434 109.471H58.0422Z" fill="black"/>
<path d="M36.4024 79.7459C42.2685 77.7662 48.1345 75.7827 54.03 73.8904C55.7501 73.3379 57.4726 72.7941 59.1963 72.2564C59.5364 72.1506 59.3915 71.6129 59.049 71.7199C53.1559 73.5569 47.2948 75.4911 41.4447 77.4598C39.7148 78.0418 37.985 78.6262 36.2551 79.2094C35.9175 79.3226 36.0624 79.8615 36.4024 79.7459Z" fill="black"/>
<path d="M31.2158 72.1329C37.4882 70.0166 43.7619 67.9015 50.065 65.8763C51.8427 65.3054 53.6229 64.7406 55.4056 64.1845C55.7456 64.0786 55.6008 63.541 55.2582 63.648C48.9563 65.613 42.6901 67.6874 36.4324 69.789C34.6436 70.3894 32.856 70.9923 31.0685 71.5964C30.7308 71.7096 30.8757 72.2485 31.2158 72.1329Z" fill="black"/>
<path d="M80.3834 102.442C86.7136 100.306 93.0449 98.1736 99.4057 96.1287C101.192 95.5541 102.98 94.9881 104.771 94.4295C105.111 94.3237 104.966 93.786 104.624 93.893C98.264 95.8765 91.94 97.9706 85.6246 100.091C83.8284 100.693 82.0323 101.3 80.2361 101.905C79.8985 102.019 80.0434 102.558 80.3834 102.442Z" fill="black"/>
</svg>
