<svg width="1440" height="1297" viewBox="0 0 1440 1297" fill="none" xmlns="http://www.w3.org/2000/svg">
<path d="M-3.02272 0.677979H1440.49M-3.02272 17.7204H1440.49M-3.02272 34.7937H1440.49M-3.02272 51.8361H1440.49M-3.02272 68.877H1440.49M-3.02272 85.9194H1440.49M-3.02272 102.962H1440.49M-3.02272 120.035H1440.49M-3.02272 137.078H1440.49M-3.02272 154.118H1440.49M-3.02272 171.161H1440.49M-3.02272 188.203H1440.49M-3.02272 205.277H1440.49M-3.02272 222.319H1440.49M-3.02272 239.361H1440.49M-3.02272 256.402H1440.49M-3.02272 273.476H1440.49M-3.02272 290.518H1440.49M-3.02272 307.561H1440.49M-3.02272 324.603H1440.49M-3.02272 341.644H1440.49M-3.02272 358.719H1440.49M-3.02272 375.76H1440.49M-3.02272 392.802H1440.49M-3.02272 409.844H1440.49M-3.02272 426.885H1440.49M-3.02272 443.96H1440.49M-3.02272 461.001H1440.49M-3.02272 478.043H1440.49M-3.02272 495.086H1440.49M-3.02272 512.128H1440.49M-3.02272 529.202H1440.49M-3.02272 546.243H1440.49M-3.02272 563.285H1440.49M-3.02272 580.327H1440.49M-3.02272 597.37H1440.49M-3.02272 614.443H1440.49M-3.02272 631.486H1440.49M-3.02272 648.526H1440.49M-3.02272 665.569H1440.49M-3.02272 682.611H1440.49M-3.02272 699.685H1440.49M-3.02272 716.727H1440.49M-3.02272 733.768H1440.49M-3.02272 750.81H1440.49M-3.02272 767.853H1440.49M-3.02272 784.926H1440.49M-3.02272 801.969H1440.49M-3.02272 819.009H1440.49M-3.02272 836.052H1440.49M-3.02272 853.094H1440.49M-3.02272 870.167H1440.49M-3.02272 887.21H1440.49M-3.02272 904.251H1440.49M-3.02272 921.293H1440.49M-3.02272 938.336H1440.49M-3.02272 955.409H1440.49M-3.02272 972.451H1440.49M-3.02272 989.492H1440.49M-3.02272 1006.53H1440.49M-3.02272 1023.61H1440.49M-3.02272 1040.65H1440.49M-3.02272 1057.69H1440.49M-3.02272 1074.74H1440.49M-3.02272 1091.78H1440.49M-3.02272 1108.85H1440.49M-3.02272 1125.89H1440.49M-3.02272 1142.93H1440.49M-3.02272 1159.98H1440.49M-3.02272 1177.02H1440.49M-3.02272 1194.09H1440.49M-3.02272 1211.13H1440.49M-3.02272 1228.18H1440.49M-3.02272 1245.22H1440.49M-3.02272 1262.26H1440.49M-3.02272 1279.33H1440.49M-3.02272 1296.37H1440.49" stroke="#2131D7" stroke-width="0.301302" stroke-miterlimit="10"/>
</svg>
