<svg width="235" height="166" viewBox="0 0 235 166" fill="none" xmlns="http://www.w3.org/2000/svg">
<path d="M230.762 86.8635C203.978 97.0894 177.061 106.962 149.881 116.053C136.592 120.499 123.224 124.725 109.824 128.848C96.7059 132.886 83.529 136.732 70.1342 139.746C56.7395 142.759 43.2723 144.933 29.6175 145.649C24.1817 145.932 18.2083 146.589 12.9046 144.972C7.60081 143.355 4.33835 139.365 3.68324 134.047C2.93569 127.944 5.59663 121.686 7.94095 116.202C10.2853 110.718 13.2255 105.212 16.5613 100.114C22.8231 90.5496 30.5141 82.0381 38.8096 74.2163C58.3262 55.793 80.9726 41.0067 104.941 29.0555C116.83 23.1277 129.036 17.7183 141.488 13.1087C154.547 8.27605 168.106 4.47308 182.014 3.17493C194.261 2.03965 207.152 2.60452 218.075 8.88277C223.18 11.8172 227.441 16.0194 229.798 21.4697C232.154 26.92 232.596 33.473 231.469 39.3976C229.443 49.9823 222.775 59.7081 215.768 67.6408C208.761 75.5735 200.9 82.0801 192.701 88.3696C171.549 104.583 148.067 117.322 124.223 129.075C98.8825 141.569 72.3156 151.581 45.0127 158.824C38.3237 160.599 31.5976 162.214 24.8234 163.67C24.21 163.796 23.3445 164.344 23.2719 165.031C23.1993 165.719 23.8001 165.954 24.4021 165.831C52.8946 159.702 80.7687 150.707 107.46 138.97C120.662 133.157 133.485 126.586 146.224 119.819C158.962 113.053 171.038 106.168 182.648 98.0841C191.562 91.8836 200.309 85.2168 208.325 77.8871C216.431 70.4926 223.87 62.12 229.042 52.3713C231.652 47.4342 233.841 42.0841 234.517 36.4945C235.24 30.4963 234.501 24.2189 231.825 18.768C226.383 7.73338 213.554 2.50589 202.003 1.01379C188.806 -0.676487 175.059 1.34846 162.255 4.56332C148.627 7.98083 135.489 13.1207 122.645 18.7374C97.6629 29.6684 73.645 43.0266 52.2758 60.0581C33.0622 75.3709 14.9476 93.6732 5.28016 116.671C2.98862 122.127 0.538124 128.148 0.919078 134.178C1.26109 139.518 4.26156 144.18 9.18325 146.357C14.1049 148.534 19.4526 148.204 24.6063 148.044C31.6368 147.827 38.6513 147.196 45.6169 146.285C73.488 142.587 100.387 133.903 127.109 125.482C155.277 116.607 183.139 106.766 210.815 96.4392C217.582 93.9134 224.327 91.3573 231.069 88.7899C232.522 88.2343 232.644 86.14 230.793 86.8419L230.762 86.8635Z" fill="#D5226B"/>
</svg>
