<svg width="1440" height="1297" viewBox="0 0 1440 1297" fill="none" xmlns="http://www.w3.org/2000/svg">
<path d="M493 945.495C494.182 944.915 494.498 943.268 493.867 942.195C493.166 941.002 491.742 940.749 490.557 941.331C473.831 949.537 457.819 959.885 444.405 972.863C443.41 973.827 442.434 974.807 441.475 975.806C442.481 974.002 443.733 972.3 445.008 970.771C447.69 967.551 450.732 964.646 453.702 961.694C456.843 958.569 459.877 955.351 463.113 952.321C466.492 949.16 469.999 946.137 473.598 943.232C481.749 936.655 490.733 930.578 499.771 924.917C500.885 924.219 501.322 922.78 500.638 921.617C499.987 920.512 498.446 920.052 497.328 920.753C481.388 930.734 466.138 941.876 453.059 955.444C449.644 958.985 446.026 962.333 442.752 966.007C441.389 967.537 440.048 969.154 438.854 970.87C439.554 969.132 440.238 967.57 441.119 965.709C442.042 963.756 443.032 961.836 444.072 959.942C446.133 956.192 448.434 952.572 450.912 949.082C453.362 945.633 455.772 942.633 458.657 939.352C461.489 936.132 464.483 933.057 467.586 930.097C469.963 927.832 472.413 925.647 474.916 923.521C476.174 922.453 477.446 921.404 478.731 920.37C479.341 919.877 479.956 919.392 480.571 918.906C481.248 918.374 481.851 917.907 482.356 917.521C483.399 916.724 483.954 915.464 483.223 914.221C482.62 913.194 480.963 912.555 479.913 913.357C466.055 923.966 453.381 936.191 443.854 950.886C440.691 955.763 437.949 960.891 435.61 966.206C434.184 962.854 432.6 959.565 430.985 956.341C430.14 954.653 427.716 954.899 426.809 956.341C424.442 960.108 422.733 964.303 421.284 968.491C420.005 972.196 419.003 975.986 418.367 979.85C414.905 979.845 411.436 980.214 408.02 980.712C403.953 981.306 399.748 982.179 396.075 984.09C394.895 984.703 394.582 986.289 395.208 987.39C397.367 991.183 401.258 993.865 404.905 996.093C407.839 997.885 410.926 999.419 414.055 1000.85C412.616 1003.43 411.854 1006.45 411.196 1009.25C410.337 1012.9 409.781 1016.62 408.832 1020.26C408.452 1021.71 409.563 1023.39 411.163 1023.31C415.843 1023.05 419.793 1020.4 423.276 1017.49C426.016 1015.2 428.443 1012.58 431.042 1010.14C436.755 1014.95 441.66 1020.87 448.635 1023.94C449.452 1024.3 450.266 1024.42 451.076 1023.94C451.81 1023.52 452.275 1022.71 452.273 1021.86C452.266 1018.12 451.955 1014.4 451.399 1010.7C450.851 1007.04 449.96 1003.43 448.396 1000.07C448.305 999.869 448.18 999.701 448.035 999.552C453.08 993.645 459.253 988.787 464.139 982.731C465.537 980.998 464.592 978.889 462.43 978.614C456.791 977.901 451.133 978.389 445.48 978.597C457.24 966.504 471.342 956.947 486.219 948.961C488.456 947.761 490.714 946.606 492.993 945.488L493 945.495ZM457.42 983.089C452.885 987.892 447.797 992.18 443.64 997.331C442.814 998.354 442.633 999.737 443.64 1000.74C443.733 1000.83 443.839 1000.92 443.951 1000.99C443.906 1001.49 444.001 1002.01 444.229 1002.5C444.291 1002.63 444.35 1002.76 444.409 1002.89C444.424 1002.93 444.435 1002.95 444.447 1002.98C444.462 1003.01 444.481 1003.06 444.509 1003.13C444.651 1003.48 444.782 1003.84 444.908 1004.2C445.174 1004.95 445.402 1005.72 445.613 1006.48C446.085 1008.21 446.427 1009.96 446.708 1011.73C446.734 1011.9 446.76 1012.07 446.786 1012.24C446.786 1012.22 446.85 1012.71 446.859 1012.76C446.912 1013.15 446.957 1013.54 447.002 1013.94C447.109 1014.88 447.192 1015.82 447.261 1016.77C447.284 1017.1 447.306 1017.43 447.325 1017.77C445.392 1016.53 443.669 1015.11 441.902 1013.53C438.996 1010.92 436.263 1008.12 433.196 1005.69C432.937 1005.49 432.659 1005.32 432.367 1005.2C431.399 1004.41 430.06 1004.55 429.131 1005.37C426.125 1008.01 423.44 1010.99 420.418 1013.61C418.891 1014.94 417.688 1015.88 415.772 1016.96C415.385 1017.18 414.988 1017.39 414.587 1017.58C414.57 1017.59 414.482 1017.63 414.395 1017.66C414.872 1015.36 415.29 1013.05 415.814 1010.76C416.225 1008.98 416.697 1007.2 417.31 1005.47C417.429 1005.14 417.557 1004.81 417.688 1004.48C417.688 1004.5 417.83 1004.16 417.854 1004.11C417.937 1003.93 418.025 1003.75 418.115 1003.57C418.473 1002.85 418.896 1002.17 419.385 1001.54C419.748 1001.06 419.815 1000.47 419.687 999.902C419.767 998.984 419.387 997.98 418.519 997.594C414.843 995.963 411.213 994.223 407.756 992.168C406.826 991.614 405.914 991.031 405.021 990.423C404.587 990.127 404.157 989.817 403.734 989.504C403.682 989.464 403.644 989.438 403.613 989.417C403.587 989.398 403.559 989.374 403.521 989.343C403.293 989.166 403.07 988.981 402.846 988.797C402.241 988.295 401.664 987.76 401.116 987.196C401.747 986.99 402.386 986.803 403.027 986.63C405.092 986.072 407.201 985.681 409.314 985.364C409.487 985.338 409.663 985.314 409.836 985.288C409.836 985.288 410.275 985.229 410.304 985.226C410.845 985.158 411.386 985.099 411.928 985.042C412.977 984.933 414.026 984.85 415.078 984.786C416.887 984.677 418.708 984.635 420.52 984.727C421.838 984.793 422.939 983.581 422.939 982.314C422.939 982.172 422.925 982.035 422.901 981.9C422.916 981.824 422.93 981.749 422.939 981.67C422.861 982.25 422.963 981.535 422.973 981.462C423.006 981.244 423.041 981.026 423.077 980.809C423.162 980.281 423.262 979.758 423.364 979.232C423.566 978.202 423.804 977.182 424.055 976.164C424.592 974.007 425.235 971.876 425.955 969.774C426.8 967.3 427.671 965.022 428.77 962.769C431.273 968.017 433.507 973.372 434.974 979.024C434.967 979.05 434.96 979.076 434.955 979.102C434.753 979.942 434.988 980.806 435.542 981.401C435.561 981.49 435.582 981.58 435.601 981.67C435.853 982.857 437.142 983.569 438.291 983.411C438.386 983.425 438.481 983.437 438.578 983.441C444.853 983.735 451.145 982.942 457.42 983.086V983.089Z" fill="#3040B4"/>
<path d="M467.021 962.873C465.053 964.056 463.173 965.363 461.373 966.786C460.338 967.603 460.521 969.348 461.373 970.195C462.384 971.204 463.761 971.012 464.792 970.195C466.133 969.135 467.871 967.994 469.462 967.035C470.587 966.358 471.003 964.88 470.329 963.734C469.671 962.612 468.149 962.189 467.019 962.87L467.021 962.873Z" fill="#3040B4"/>
<path d="M486.943 909.171C483.824 909.171 483.824 913.994 486.943 913.994C490.063 913.994 490.063 909.171 486.943 909.171Z" fill="#3040B4"/>
<path d="M-3.02272 0.677979H1440.49M-3.02272 17.7204H1440.49M-3.02272 34.7937H1440.49M-3.02272 51.8361H1440.49M-3.02272 68.877H1440.49M-3.02272 85.9194H1440.49M-3.02272 102.962H1440.49M-3.02272 120.035H1440.49M-3.02272 137.078H1440.49M-3.02272 154.118H1440.49M-3.02272 171.161H1440.49M-3.02272 188.203H1440.49M-3.02272 205.277H1440.49M-3.02272 222.319H1440.49M-3.02272 239.361H1440.49M-3.02272 256.402H1440.49M-3.02272 273.476H1440.49M-3.02272 290.518H1440.49M-3.02272 307.561H1440.49M-3.02272 324.603H1440.49M-3.02272 341.644H1440.49M-3.02272 358.719H1440.49M-3.02272 375.76H1440.49M-3.02272 392.802H1440.49M-3.02272 409.844H1440.49M-3.02272 426.885H1440.49M-3.02272 443.96H1440.49M-3.02272 461.001H1440.49M-3.02272 478.043H1440.49M-3.02272 495.086H1440.49M-3.02272 512.128H1440.49M-3.02272 529.202H1440.49M-3.02272 546.243H1440.49M-3.02272 563.285H1440.49M-3.02272 580.327H1440.49M-3.02272 597.37H1440.49M-3.02272 614.443H1440.49M-3.02272 631.486H1440.49M-3.02272 648.526H1440.49M-3.02272 665.569H1440.49M-3.02272 682.611H1440.49M-3.02272 699.685H1440.49M-3.02272 716.727H1440.49M-3.02272 733.768H1440.49M-3.02272 750.81H1440.49M-3.02272 767.853H1440.49M-3.02272 784.926H1440.49M-3.02272 801.969H1440.49M-3.02272 819.009H1440.49M-3.02272 836.052H1440.49M-3.02272 853.094H1440.49M-3.02272 870.167H1440.49M-3.02272 887.21H1440.49M-3.02272 904.251H1440.49M-3.02272 921.293H1440.49M-3.02272 938.336H1440.49M-3.02272 955.409H1440.49M-3.02272 972.451H1440.49M-3.02272 989.492H1440.49M-3.02272 1006.53H1440.49M-3.02272 1023.61H1440.49M-3.02272 1040.65H1440.49M-3.02272 1057.69H1440.49M-3.02272 1074.74H1440.49M-3.02272 1091.78H1440.49M-3.02272 1108.85H1440.49M-3.02272 1125.89H1440.49M-3.02272 1142.93H1440.49M-3.02272 1159.98H1440.49M-3.02272 1177.02H1440.49M-3.02272 1194.09H1440.49M-3.02272 1211.13H1440.49M-3.02272 1228.18H1440.49M-3.02272 1245.22H1440.49M-3.02272 1262.26H1440.49M-3.02272 1279.33H1440.49M-3.02272 1296.37H1440.49" stroke="#2131D7" stroke-width="0.301302" stroke-miterlimit="10"/>
<path d="M1052.26 717.099C1051.12 716.721 1049.77 717.362 1049.41 718.542C1048.52 721.439 1047.31 723.675 1045.67 726.2C1045.71 725.319 1045.66 724.425 1045.5 723.518C1045.04 720.804 1043.61 718.321 1041.9 716.218C1038.4 711.926 1033.31 708.856 1028.2 706.869C1022.19 704.533 1015.82 705.067 1009.49 705.262C1006.01 705.371 1002.48 705.4 999.032 704.805C998.996 704.796 998.679 704.734 998.642 704.726C998.449 704.685 998.255 704.638 998.063 704.593C997.683 704.502 997.308 704.393 996.933 704.279C996.565 704.166 996.203 704.037 995.843 703.9C995.666 703.833 995.489 703.76 995.315 703.687C995.253 703.661 994.936 703.511 994.842 703.469C994.231 703.152 993.647 702.784 993.094 702.374C992.943 702.262 992.797 702.143 992.652 702.025C992.63 702.008 992.613 701.994 992.596 701.979C992.58 701.964 992.56 701.945 992.539 701.926C992.233 701.644 991.949 701.339 991.676 701.026C991.508 700.836 991.355 700.632 991.208 700.427C991.144 700.321 991.084 700.211 991.028 700.101C990.929 699.915 990.846 699.718 990.768 699.522C990.731 699.39 990.701 699.256 990.674 699.122C990.654 699.024 990.626 698.765 990.612 698.646C990.612 698.523 990.616 698.403 990.621 698.28C990.631 698.079 990.655 697.876 990.686 697.675C990.713 697.559 990.741 697.445 990.775 697.331C990.897 696.886 991.062 696.452 991.246 696.027C991.283 695.939 991.391 695.713 991.451 695.587C991.544 695.409 991.641 695.233 991.738 695.055C992.253 694.133 992.84 693.251 993.429 692.373C995.724 688.948 998.862 684.577 996.543 680.384C995.17 677.896 992.486 676.184 989.802 675.44C986.588 674.549 983.201 674.704 979.909 674.986C976.391 675.288 972.902 675.877 969.402 676.328C968.566 676.435 967.727 676.531 966.888 676.62C966.477 676.663 966.065 676.7 965.652 676.735C965.627 676.737 965.403 676.755 965.297 676.762C965.067 676.777 964.839 676.792 964.608 676.804C963.026 676.89 961.433 676.884 959.857 676.721C959.506 676.683 959.155 676.633 958.805 676.576C958.781 676.573 958.759 676.57 958.741 676.565C958.729 676.563 958.716 676.559 958.701 676.557C958.535 676.524 958.371 676.484 958.204 676.444C957.479 676.27 956.759 676.077 956.048 675.859C955.376 675.653 954.716 675.415 954.062 675.16C953.733 675.031 953.407 674.893 953.084 674.752C952.922 674.681 952.761 674.609 952.601 674.534C952.533 674.502 952.462 674.468 952.394 674.436C952.381 674.427 952.366 674.422 952.35 674.414C951.048 673.761 949.809 672.984 948.656 672.096C948.433 671.926 948.219 671.746 948.004 671.564C948.117 671.653 947.546 671.138 947.443 671.038C946.928 670.53 946.452 669.983 946.012 669.411C945.938 669.316 945.619 668.847 945.574 668.793C945.434 668.569 945.303 668.34 945.179 668.109C945.023 667.821 944.884 667.525 944.751 667.228C944.684 667.079 944.626 666.928 944.565 666.776C944.533 666.693 944.502 666.608 944.473 666.524C944.277 665.897 944.151 665.248 944.066 664.596C944.053 664.489 944.043 664.381 944.033 664.272C944.053 664.478 944.025 664.054 944.022 663.971C944.013 663.556 944.034 663.14 944.068 662.728C944.091 662.423 944.135 662.118 944.183 661.816C944.196 661.745 944.243 661.496 944.252 661.451C944.296 661.258 944.346 661.068 944.397 660.877C944.501 660.482 944.631 660.093 944.768 659.709C944.836 659.517 944.919 659.329 945 659.14C945.037 659.053 945.078 658.968 945.117 658.882C945.131 658.852 945.154 658.811 945.181 658.757C945.573 658.009 946.05 657.31 946.56 656.638C946.691 656.466 946.827 656.298 946.963 656.133C946.98 656.112 947.19 655.873 947.238 655.817C947.554 655.472 947.883 655.142 948.22 654.816C949.321 653.752 950.532 652.804 951.782 651.921C952.737 651.247 954.161 650.385 955.474 649.659C958.031 648.245 960.701 647.045 963.412 645.96C964.557 645.501 964.963 643.98 964.463 642.938C963.901 641.77 962.594 641.45 961.455 641.904C958.095 643.25 954.803 644.782 951.697 646.652C948.229 648.73 944.972 651.215 942.554 654.483C940.356 657.451 939.324 661.148 939.574 664.809C939.783 667.863 941.156 670.708 943.105 673.02C945.154 675.449 947.85 677.223 950.685 678.599C953.406 679.917 956.38 680.843 959.387 681.209C962.77 681.621 966.256 681.243 969.625 680.834C973.14 680.406 976.633 679.815 980.155 679.47C980.513 679.434 980.872 679.406 981.229 679.375C981.324 679.369 981.561 679.351 981.591 679.35C981.788 679.337 981.985 679.327 982.181 679.316C983.007 679.275 983.831 679.265 984.657 679.282C985.373 679.299 986.09 679.35 986.8 679.434C987.053 679.465 987.306 679.503 987.559 679.546C987.6 679.555 987.826 679.599 987.889 679.614C988.101 679.663 988.31 679.719 988.519 679.776C988.824 679.859 989.123 679.963 989.422 680.072C989.546 680.117 990.075 680.361 990.089 680.357C990.623 680.65 991.128 681.017 991.601 681.394C991.623 681.408 991.648 681.433 991.679 681.459C991.74 681.519 991.803 681.579 991.864 681.639C992.04 681.816 992.201 682.003 992.357 682.198C992.391 682.24 992.422 682.284 992.454 682.327C992.465 682.343 992.473 682.359 992.481 682.371C992.583 682.547 992.667 682.731 992.746 682.92C992.767 683.003 992.788 683.087 992.805 683.173C992.822 683.251 992.839 683.412 992.849 683.528C992.846 683.644 992.843 683.759 992.835 683.874C992.827 683.973 992.815 684.075 992.802 684.173C992.801 684.183 992.801 684.188 992.799 684.198C992.711 684.577 992.584 684.949 992.443 685.311C992.37 685.5 992.285 685.686 992.201 685.871C992.143 685.982 992.085 686.093 992.027 686.203C991.031 688.044 989.75 689.715 988.64 691.484C987.426 693.421 986.376 695.509 986.14 697.809C985.874 700.414 987.071 702.819 988.847 704.628C994.026 709.901 1002.09 709.976 1008.99 709.779C1012.53 709.678 1016.07 709.447 1019.6 709.625C1020.36 709.663 1021.13 709.73 1021.89 709.825C1022.19 709.862 1022.48 709.908 1022.78 709.956C1022.86 709.972 1023.06 710.007 1023.1 710.018C1023.28 710.057 1023.46 710.1 1023.64 710.147C1024.75 710.428 1025.84 710.8 1026.91 711.214C1027.47 711.431 1028.02 711.669 1028.57 711.916C1028.78 712.009 1028.99 712.107 1029.19 712.205C1029.27 712.241 1029.39 712.3 1029.43 712.324C1029.62 712.418 1029.81 712.516 1030 712.614C1031.19 713.239 1032.34 713.938 1033.46 714.694C1034 715.059 1034.52 715.446 1035.04 715.845C1035.29 716.044 1035.55 716.248 1035.79 716.455C1035.92 716.556 1036.04 716.66 1036.16 716.765C1036.21 716.812 1036.26 716.857 1036.31 716.904C1037.28 717.785 1038.17 718.748 1038.96 719.785C1039.11 719.987 1039.26 720.194 1039.41 720.401C1039.41 720.401 1039.41 720.401 1039.41 720.402C1039.43 720.438 1039.54 720.605 1039.58 720.668C1039.86 721.128 1040.12 721.606 1040.35 722.095C1040.45 722.313 1040.54 722.537 1040.63 722.76C1040.67 722.843 1040.77 723.144 1040.81 723.248C1040.94 723.677 1041.04 724.112 1041.11 724.552C1041.15 724.782 1041.18 725.014 1041.2 725.246C1041.21 725.348 1041.21 725.446 1041.21 725.546C1041.22 726 1041.18 726.455 1041.13 726.907C1039.97 724.436 1038.32 722.194 1036.5 720.176C1035.68 719.266 1034.27 719.134 1033.33 719.954C1032.41 720.75 1032.27 722.229 1033.09 723.14C1033.94 724.09 1034.75 725.08 1035.49 726.127C1035.57 726.246 1035.65 726.365 1035.73 726.484C1035.61 726.296 1035.62 726.312 1035.77 726.536C1035.92 726.775 1036.07 727.02 1036.21 727.265C1036.53 727.812 1036.82 728.375 1037.1 728.951C1038.14 731.137 1038.66 733.41 1038.9 736.119C1039.04 737.721 1041.47 738.583 1042.57 737.375C1047.17 732.324 1051.64 726.566 1053.67 719.945C1054.04 718.768 1053.44 717.487 1052.25 717.096L1052.26 717.099ZM992.429 682.294C992.26 682.05 992.349 682.171 992.429 682.294V682.294Z" fill="#3040B4"/>
<path d="M1186.18 589.608C1183.12 589.615 1180.07 589.839 1177.02 590.054C1176.83 589.432 1176.64 588.809 1176.47 588.183C1176.13 586.952 1175.83 585.71 1175.58 584.458C1175.31 583.163 1175.18 582.263 1175.07 581.233C1174.83 578.927 1172.12 578.066 1170.76 580.06C1168.59 583.255 1166.84 586.756 1165.35 590.348C1165.05 590.33 1164.75 590.309 1164.45 590.287C1164.14 590.261 1163.82 590.229 1163.5 590.198C1163.34 590.182 1163.18 590.163 1163.02 590.145C1162.95 590.136 1162.89 590.129 1162.85 590.127C1162.81 590.12 1162.76 590.113 1162.7 590.104C1161.47 589.928 1160.26 589.668 1159.07 589.33C1158.49 589.165 1157.92 588.967 1157.36 588.754C1156.94 588.597 1156.56 588.423 1155.87 588.067C1154.94 587.583 1153.83 587.662 1153.07 588.43C1152.25 589.252 1152.08 590.928 1153.07 591.719C1156.08 594.135 1159.2 596.398 1162.36 598.602C1161.21 602.311 1160.33 606.134 1159.95 609.991C1158.99 610.761 1158.51 611.951 1159.19 613.118C1159.66 613.933 1160.81 614.491 1161.76 614.239C1161.88 614.258 1162 614.271 1162.11 614.271C1163.24 614.271 1164.09 613.486 1164.35 612.46C1167.3 610.282 1170.33 608.208 1173.32 606.077C1176.18 608.03 1179.01 610.012 1181.78 612.093C1182.6 612.709 1183.91 612.405 1184.58 611.729C1185.35 610.953 1185.41 609.854 1184.94 608.911C1183.53 606.07 1182.16 603.215 1180.91 600.354C1183.41 598.298 1185.78 596.088 1187.82 593.584C1188.36 592.924 1188.65 592.184 1188.41 591.321C1188.14 590.325 1187.21 589.611 1186.18 589.613L1186.18 589.608ZM1174.35 596.499C1174.66 597.3 1174.97 598.097 1175.3 598.894C1174.63 599.401 1173.95 599.908 1173.23 600.436C1171.43 599.221 1169.63 598.01 1167.83 596.789C1167.86 596.695 1167.9 596.601 1167.93 596.508C1168.09 596.056 1168.25 595.603 1168.42 595.151C1170.2 595.151 1172 595.069 1173.79 594.959C1173.97 595.473 1174.16 595.987 1174.36 596.499H1174.35ZM1170.34 590.417C1170.34 590.417 1170.34 590.417 1170.33 590.417C1170.73 589.531 1171.15 588.651 1171.6 587.779C1171.8 588.64 1172.03 589.494 1172.28 590.346C1171.64 590.376 1170.99 590.401 1170.35 590.417H1170.34ZM1165.22 606.13C1165.3 605.714 1165.39 605.298 1165.49 604.885C1165.75 603.704 1166.06 602.532 1166.39 601.368C1167.34 602.014 1168.29 602.658 1169.24 603.302C1167.9 604.245 1166.56 605.184 1165.22 606.132V606.13ZM1178.91 595.514C1178.8 595.217 1178.69 594.918 1178.58 594.621C1179.24 594.573 1179.91 594.525 1180.57 594.482C1180.15 594.868 1179.73 595.249 1179.3 595.626C1179.21 595.702 1179.13 595.775 1179.04 595.848C1179 595.736 1178.96 595.626 1178.91 595.514H1178.91Z" fill="#3040B4"/>
<path d="M360.088 1143.07C357.34 1144.42 354.696 1145.96 352.047 1147.49C351.603 1147.01 351.165 1146.53 350.735 1146.05C349.887 1145.09 349.076 1144.1 348.297 1143.09C347.492 1142.04 346.977 1141.29 346.429 1140.41C345.203 1138.45 342.383 1138.86 342.039 1141.25C341.487 1145.07 341.45 1148.99 341.686 1152.87C341.411 1152.98 341.134 1153.1 340.857 1153.21C340.56 1153.32 340.258 1153.44 339.958 1153.55C339.808 1153.6 339.659 1153.65 339.508 1153.71C339.436 1153.73 339.382 1153.75 339.345 1153.77C339.307 1153.78 339.259 1153.79 339.198 1153.81C338.02 1154.19 336.817 1154.49 335.599 1154.71C335.004 1154.81 334.404 1154.89 333.805 1154.94C333.36 1154.98 332.943 1154.99 332.17 1154.98C331.122 1154.95 330.159 1155.51 329.809 1156.53C329.435 1157.63 330.017 1159.21 331.251 1159.49C335.019 1160.34 338.815 1161 342.622 1161.6C343.215 1165.44 344.098 1169.26 345.448 1172.89C344.928 1174 345.013 1175.28 346.135 1176.04C346.919 1176.56 348.197 1176.56 348.943 1175.91C349.055 1175.88 349.165 1175.84 349.269 1175.79C350.284 1175.29 350.701 1174.22 350.484 1173.18C352.186 1169.93 354 1166.73 355.753 1163.51C359.175 1164.01 362.588 1164.55 365.986 1165.21C366.994 1165.4 368.039 1164.56 368.347 1163.65C368.701 1162.62 368.272 1161.6 367.436 1160.96C364.92 1159.03 362.442 1157.06 360.06 1155.04C361.405 1152.09 362.566 1149.07 363.3 1145.93C363.494 1145.1 363.433 1144.3 362.842 1143.63C362.161 1142.85 361.012 1142.62 360.088 1143.07L360.088 1143.07ZM352.478 1154.45C353.103 1155.04 353.737 1155.61 354.376 1156.19C354.002 1156.93 353.612 1157.69 353.198 1158.48C351.046 1158.18 348.894 1157.88 346.744 1157.57C346.732 1157.47 346.72 1157.37 346.709 1157.27C346.654 1156.8 346.602 1156.32 346.553 1155.84C348.154 1155.06 349.732 1154.2 351.295 1153.31C351.685 1153.69 352.08 1154.07 352.48 1154.45L352.478 1154.45ZM346.207 1150.74C346.207 1150.74 346.201 1150.74 346.199 1150.75C346.167 1149.77 346.158 1148.8 346.175 1147.82C346.741 1148.5 347.322 1149.17 347.918 1149.83C347.351 1150.14 346.782 1150.44 346.209 1150.74L346.207 1150.74ZM348.49 1167.11C348.386 1166.7 348.283 1166.29 348.185 1165.87C347.906 1164.7 347.666 1163.51 347.452 1162.32C348.589 1162.48 349.727 1162.64 350.865 1162.81C350.074 1164.24 349.278 1165.67 348.491 1167.11L348.49 1167.11ZM356.145 1151.56C355.913 1151.35 355.679 1151.13 355.449 1150.91C356.027 1150.57 356.602 1150.24 357.177 1149.91C356.971 1150.44 356.76 1150.97 356.539 1151.5C356.495 1151.6 356.451 1151.7 356.408 1151.81C356.32 1151.72 356.231 1151.65 356.143 1151.56L356.145 1151.56Z" fill="#3040B4"/>
</svg>
