<svg width="231" height="127" viewBox="0 0 231 127" fill="none" xmlns="http://www.w3.org/2000/svg">
<path d="M213.306 5.43972L105.65 19.2499C101.857 19.7364 99.1771 23.2056 99.6637 26.9984L107.908 91.27C108.395 95.0629 111.864 97.7431 115.657 97.2566L223.313 83.4464C227.106 82.9599 229.786 79.4908 229.3 75.6979L221.055 11.4263C220.568 7.63345 217.099 4.95318 213.306 5.43972Z" fill="white"/>
<path d="M223.356 83.7794L115.694 97.5893C111.722 98.0952 108.083 95.2864 107.57 91.3148L99.3245 27.0375C98.8186 23.066 101.627 19.4266 105.599 18.9132L213.269 5.10333C217.241 4.59745 220.88 7.40623 221.393 11.3778L229.638 75.6551C230.144 79.6267 227.336 83.266 223.364 83.7794H223.356ZM105.69 19.5776C102.088 20.0382 99.5359 23.3453 99.9965 26.9469L108.242 91.2242C108.702 94.8258 112.009 97.3779 115.611 96.9173L223.273 83.1075C226.875 82.6469 229.427 79.3398 228.966 75.7382L220.721 11.4608C220.261 7.85926 216.954 5.3072 213.352 5.76778L105.69 19.5776Z" fill="black"/>
<path d="M216.183 5.07351L102.782 19.6158C100.578 19.8951 99.0146 21.9187 99.3015 24.1234L100.23 31.3568L221.627 15.7877L220.698 8.55429C220.419 6.34955 218.395 4.78659 216.191 5.07351H216.183Z" fill="white"/>
<path d="M221.99 16.0743L99.9287 31.7265L98.9622 24.1609C98.6526 21.7749 100.351 19.5853 102.737 19.2757L216.138 4.74101C218.524 4.43144 220.714 6.1303 221.023 8.51625L221.99 16.0818V16.0743ZM100.51 30.979L221.235 15.4929L220.351 8.59176C220.095 6.57578 218.237 5.14118 216.221 5.3979L102.82 19.9401C100.805 20.1969 99.3699 22.0543 99.6266 24.0703L100.51 30.9714V30.979Z" fill="black"/>
<path d="M110.432 24.7643C110.459 23.9559 109.825 23.2787 109.017 23.2518C108.209 23.2248 107.531 23.8583 107.504 24.6667C107.477 25.475 108.111 26.1522 108.919 26.1792C109.728 26.2061 110.405 25.5727 110.432 24.7643Z" fill="white"/>
<path d="M109.193 26.5006C108.204 26.6289 107.298 25.9269 107.177 24.9379C107.049 23.949 107.751 23.0431 108.74 22.9223C109.729 22.8015 110.635 23.4961 110.756 24.485C110.884 25.4739 110.182 26.3798 109.193 26.5006ZM108.815 23.5867C108.196 23.6697 107.759 24.2359 107.834 24.8549C107.917 25.4739 108.483 25.9118 109.102 25.8363C109.721 25.7608 110.159 25.1871 110.084 24.568C110.008 23.949 109.434 23.5112 108.815 23.5867Z" fill="black"/>
<path d="M115.943 23.813C116.048 24.6132 115.475 25.353 114.674 25.4587C113.874 25.5644 113.134 24.9907 113.029 24.1905C112.923 23.3903 113.497 22.6505 114.297 22.5448C115.097 22.4391 115.837 23.0128 115.943 23.813Z" fill="white"/>
<path d="M114.72 25.7912C113.731 25.9195 112.825 25.2174 112.704 24.2285C112.576 23.2396 113.278 22.3337 114.267 22.2129C115.256 22.0846 116.162 22.7866 116.282 23.7756C116.411 24.7645 115.709 25.6704 114.72 25.7912ZM114.35 22.8772C113.731 22.9603 113.293 23.5264 113.368 24.1455C113.444 24.7645 114.018 25.2023 114.637 25.1268C115.256 25.0513 115.694 24.4776 115.618 23.8586C115.543 23.2396 114.969 22.8017 114.35 22.8772Z" fill="black"/>
<path d="M121.485 23.3414C121.512 22.533 120.879 21.8559 120.07 21.8289C119.262 21.802 118.585 22.4354 118.558 23.2438C118.531 24.0522 119.164 24.7294 119.972 24.7563C120.781 24.7833 121.458 24.1498 121.485 23.3414Z" fill="white"/>
<path d="M120.247 25.0817C119.258 25.21 118.352 24.508 118.231 23.519C118.103 22.5301 118.805 21.6242 119.794 21.5034C120.783 21.3751 121.688 22.0771 121.809 23.0661C121.93 24.055 121.235 24.9609 120.247 25.0817ZM119.877 22.1677C119.258 22.2508 118.82 22.817 118.895 23.436C118.971 24.055 119.544 24.4929 120.164 24.4174C120.783 24.3419 121.22 23.7681 121.145 23.1491C121.069 22.5301 120.496 22.0922 119.877 22.1677Z" fill="black"/>
<path d="M164.78 69.8414C173.712 69.8414 180.953 62.6005 180.953 53.6683C180.953 44.7361 173.712 37.4951 164.78 37.4951C155.847 37.4951 148.606 44.7361 148.606 53.6683C148.606 62.6005 155.847 69.8414 164.78 69.8414Z" fill="white"/>
<path d="M166.879 70.045C157.848 71.2002 149.558 64.7974 148.403 55.767C147.248 46.7366 153.65 38.4462 162.681 37.291C171.711 36.1357 180.002 42.5386 181.157 51.5689C182.312 60.5993 175.909 68.8898 166.879 70.045ZM162.764 37.963C154.103 39.0729 147.957 47.0236 149.067 55.684C150.177 64.3444 158.128 70.4905 166.788 69.3806C175.449 68.2706 181.595 60.32 180.485 51.6596C179.375 42.9991 171.424 36.853 162.764 37.963Z" fill="black"/>
<path d="M158.777 47.5526L160.514 61.1057C160.702 62.5554 162.454 63.1821 163.519 62.1703L171.9 54.2121C172.776 53.3815 172.587 51.9394 171.53 51.3505L161.412 45.7631C160.129 45.0534 158.588 46.1029 158.777 47.5526Z" fill="#DB1B77"/>
<path d="M162.56 62.9855C162.236 63.0308 161.896 62.993 161.579 62.8798C160.824 62.6079 160.288 61.9435 160.182 61.1507L158.445 47.5976C158.339 46.7972 158.694 46.0271 159.359 45.574C160.023 45.121 160.876 45.0833 161.579 45.4683L171.696 51.0557C172.293 51.3879 172.685 51.9617 172.776 52.6413C172.867 53.3208 172.625 53.9777 172.134 54.4534L163.753 62.4116C163.421 62.7287 162.998 62.9251 162.56 62.9779V62.9855ZM160.371 45.8836C160.152 45.9138 159.933 45.9969 159.736 46.1252C159.276 46.4423 159.042 46.9558 159.11 47.507L160.846 61.0601C160.914 61.6113 161.277 62.0568 161.798 62.2455C162.326 62.4343 162.877 62.3135 163.285 61.9284L171.666 53.9702C172.006 53.6455 172.164 53.2 172.104 52.7319C172.044 52.2638 171.779 51.8711 171.364 51.6446L161.246 46.0573C160.967 45.9063 160.657 45.8459 160.363 45.8836H160.371Z" fill="black"/>
<path d="M40.3024 125.979C49.4762 123.609 58.4387 120.513 67.1217 116.715L78.8476 111.581L89.4636 107.896C94.7943 106.046 100.457 105.344 106.075 105.835C114.735 106.597 116.23 93.7691 107.63 92.5081L86.2471 89.3445C79.2327 88.3176 72.5807 85.5843 66.8726 81.3863C59.7298 76.1311 58.2424 66.0588 63.5579 58.9613L86.2547 28.6612L119.718 16.301C127.813 13.311 123.909 1.16231 115.588 3.4501L110.967 4.71859L96.7348 1.48698C90.8303 0.14299 84.6917 0.188293 78.8023 1.60023L64.4187 5.05836C57.963 6.61376 52.2473 10.3664 48.2606 15.6819L28.3349 42.237L1.42492 92.3194L0.443359 93.082" fill="#EEEEEE"/>
<path d="M40.3024 125.979C49.4762 123.609 58.4387 120.513 67.1217 116.715L78.8476 111.581L89.4636 107.896C94.7943 106.046 100.457 105.344 106.075 105.835C114.735 106.597 116.23 93.7691 107.63 92.5081L86.2471 89.3445C79.2327 88.3176 72.5807 85.5843 66.8726 81.3863C59.7298 76.1311 58.2424 66.0588 63.5579 58.9613L86.2547 28.6612L119.718 16.301C127.813 13.311 123.909 1.16231 115.588 3.4501L110.967 4.71859L96.7348 1.48698C90.8303 0.14299 84.6917 0.188293 78.8023 1.60023L64.4187 5.05836C57.963 6.61376 52.2473 10.3664 48.2606 15.6819L28.3349 42.237L1.42492 92.3194L0.443359 93.082" stroke="#394075" stroke-width="0.755049" stroke-miterlimit="10"/>
<path d="M40.1741 34.6033L39.6606 34.1729L56.7776 13.6884C61.5797 7.94251 68.2317 3.81239 75.5104 2.06068L78.7118 1.29053L78.8703 1.94742L75.6689 2.71757C68.5262 4.43153 62.0025 8.48615 57.291 14.1188L40.1741 34.6033Z" fill="#394075"/>
<path d="M107.811 106.069C107.268 106.137 106.679 106.152 106.06 106.099L106.105 105.593C110.401 105.97 112.734 102.913 113.082 99.9074C113.437 96.9099 111.866 93.3914 107.6 92.7647L86.217 89.601C79.1875 88.5742 72.4525 85.8031 66.7292 81.59C63.2182 79.0077 60.938 75.2173 60.2962 70.906C59.6619 66.5947 60.7492 62.306 63.3541 58.8177L86.0962 28.4572L86.1642 28.4345L119.628 16.0743C123.645 14.5945 124.483 10.8419 123.569 7.98022C122.656 5.11859 119.786 2.56652 115.656 3.69909L111.035 4.96758L110.9 4.48434L115.52 3.21586C119.968 1.99268 123.056 4.74861 124.045 7.82921C125.034 10.9098 124.128 14.9493 119.802 16.55L86.4058 28.88L63.7543 59.1197C61.2249 62.4948 60.1678 66.6551 60.787 70.8305C61.4061 75.0059 63.6184 78.683 67.0161 81.1822C72.6714 85.3426 79.331 88.0758 86.2774 89.0952L107.66 92.2588C112.259 92.9308 113.942 96.7211 113.565 99.9527C113.24 102.754 111.307 105.601 107.789 106.054L107.811 106.069Z" fill="#394075"/>
<path d="M48.3514 40.6968L47.8833 40.2136L64.7888 23.6856C69.5457 19.0345 75.4199 15.5235 81.7699 13.5302L110.869 4.40918L111.073 5.05097L81.9738 14.172C75.722 16.1275 69.9458 19.5857 65.2645 24.1613L48.359 40.6893L48.3514 40.6968Z" fill="#394075"/>
</svg>
