<svg width="236" height="110" viewBox="0 0 236 110" fill="none" xmlns="http://www.w3.org/2000/svg">
<path d="M231.603 43.3512L110.678 57.3213L111.804 67.0646L232.729 53.0945L231.603 43.3512Z" fill="white"/>
<path d="M111.829 69.235L113.513 69.0387L114.419 76.8912L116.48 76.6496L116.692 78.4693L118.896 78.2126L119.183 80.6816L121.456 80.4173L121.516 80.9685L123.623 80.7269L123.57 80.2738L125.896 80.002L126.16 79.9718L128.025 79.7529L128.478 79.7L129.935 79.5339L129.626 76.8308L127.451 77.08C125.511 77.3065 123.751 75.9097 123.532 73.9692L122.656 66.3809C122.43 64.4405 123.827 62.6812 125.767 62.4622L133.356 61.5864C135.296 61.3599 137.055 62.7567 137.274 64.6972L138.15 72.2854C138.377 74.2259 136.98 75.9852 135.039 76.2041L132.208 76.5288L132.744 81.1422L134.926 80.893L135.636 87.0466L136.927 86.8956L136.036 79.1866L138.241 78.9299L138.203 78.5674L140.189 78.3409L139.94 76.2117L141.737 76.0078L141.049 70.0429L143.639 69.7409L144.576 77.835L146.418 77.6236L146.81 80.9987L148.872 80.7571L149.136 80.7269L150.79 80.5381L150.11 74.6714L152.7 74.3694L153.236 79.0431L154.58 78.8846L155.441 78.7864L156.687 78.6429L156.437 76.4608L159.027 76.1588L159.223 77.835L161.066 77.6236L161.202 78.8242L162.901 78.6278L162.146 72.0665L163.92 71.8626L163.165 65.3239L165.755 65.0219L166.668 72.9046L168.994 72.6327L169.084 73.4482L171.674 73.1462L171.818 74.4147L174 74.1655L174.974 82.5692L177.08 82.3276L174.506 60.031L177.095 59.729L177.345 61.8582L179.791 61.5788L180.221 65.3163L182.57 65.0445L183.053 69.235L184.661 69.0463L183.959 62.9606L186.549 62.6586L186.783 64.667L188.965 64.4178L189.086 64.4027L190.399 64.2517L189.705 58.2642L192.295 57.9621L192.544 60.0914L194.726 59.8422L195.594 67.3399L197.437 67.1284L197.708 69.4993L200.125 69.2199L200.351 71.1831L202.722 70.9112L203.001 73.3047L205.206 73.048L204.995 71.2284L207.584 70.9263L208.468 78.5448L210.408 78.3183L210.816 78.273L212.515 78.0767L212.152 74.9356L214.304 74.6865L212.492 59.0343L215.082 58.7323L216.207 68.48L218.185 68.2535L219.673 81.0893L221.221 80.9081L220.866 77.8199L222.987 77.5783L220.79 58.5737L222.768 58.3472L222.293 54.2549L224.883 53.9528L225.124 56.0368L227.495 55.765L227.85 58.8531L230.259 58.5737L230.855 63.7081L232.901 63.474L231.731 53.3412L232.818 53.2129L232.033 46.4023L110.885 60.401L111.905 69.1973L111.829 69.235Z" fill="#1C6B4F"/>
<path d="M232.833 63.5117L230.787 63.7458L230.19 58.6114L227.782 58.8908L227.427 55.8027L225.056 56.0745L224.814 53.9905L222.225 54.2926L222.7 58.3849L220.722 58.6114L222.919 77.616L220.798 77.8576L221.152 80.9458L219.605 81.127L218.117 68.2912L216.139 68.5177L215.014 58.77L212.424 59.072L214.236 74.7242L212.084 74.9734L212.447 78.1144L210.748 78.3107L210.34 78.356L208.4 78.5825L207.516 70.964L204.926 71.2661L205.138 73.0857L202.933 73.3425L202.654 70.9489L200.283 71.2208L200.056 69.2576L197.64 69.537L197.368 67.1662L195.526 67.3776L194.658 59.8799L192.476 60.1291L192.227 57.9999L189.637 58.3019L190.331 64.2894L189.018 64.4404L188.897 64.4555L186.715 64.7047L186.481 62.6963L183.891 62.9983L184.593 69.084L182.985 69.2727L182.502 65.0822L180.153 65.354L179.723 61.6165L177.277 61.8959L177.027 59.7667L174.438 60.0687L177.012 82.3653L174.906 82.6069L173.932 74.2032L171.75 74.4524L171.606 73.1839L169.016 73.4859L168.926 72.6705L166.6 72.9423L165.687 65.0596L163.097 65.3616L163.852 71.9003L162.077 72.1042L162.832 78.6656L161.134 78.8619L160.998 77.6613L159.155 77.8727L158.959 76.1965L156.369 76.4986L156.618 78.6806L155.373 78.8241L154.512 78.9223L153.168 79.0808L152.632 74.4071L150.042 74.7091L150.722 80.5758L149.068 80.7646L148.804 80.7948L146.742 81.0364L146.35 77.6613L144.507 77.8727L143.571 69.7786L140.981 70.0806L141.668 76.0455L139.871 76.2494L140.121 78.3786L138.135 78.6051L138.173 78.9676L135.968 79.2243L136.859 86.9333L135.568 87.0843L134.858 80.9307L132.676 81.1799L132.14 76.5665L129.55 76.8685L129.859 79.5716L128.402 79.7377L127.949 79.7906L126.084 80.0095L125.82 80.0397L123.494 80.3116L123.547 80.7646L121.441 81.0062L121.38 80.455L119.108 80.7193L118.821 78.2503L116.616 78.507L116.405 76.6873L114.343 76.9289L113.437 69.0764L111.753 69.2727L114.555 93.4947C114.804 95.6693 116.774 97.2322 118.949 96.9755L232.221 83.8829C234.396 83.6338 235.959 81.6631 235.702 79.4886L232.675 53.2959L231.587 53.4243L232.758 63.557L232.833 63.5117Z" fill="#56F586"/>
<path d="M180.395 37.228L180.085 34.5405L178.538 37.4394L180.395 37.228Z" fill="#3040B4"/>
<path d="M175.283 36.0504C174.974 36.0882 174.717 36.2618 174.506 36.5789C174.302 36.8959 174.226 37.3338 174.294 37.8848C174.355 38.4359 174.521 38.836 174.77 39.0776C175.027 39.3192 175.313 39.4173 175.631 39.3796C175.948 39.3418 176.219 39.1757 176.416 38.8738C176.612 38.5718 176.68 38.134 176.612 37.5602C176.544 36.9865 176.385 36.6166 176.129 36.3675C175.872 36.1184 175.585 36.0127 175.268 36.0504H175.283Z" fill="#3040B4"/>
<path d="M228.824 19.2887C228.574 17.1141 226.604 15.5512 224.429 15.8079L111.157 28.9004C108.982 29.1496 107.419 31.1203 107.676 33.2948L110.628 58.8381L231.776 44.832L228.824 19.2887ZM134.926 44.3789C135.152 46.3194 133.755 48.0787 131.815 48.2976L124.227 49.1735C122.286 49.4 120.527 48.0032 120.308 46.0627L119.432 38.4744C119.206 36.534 120.602 34.7747 122.543 34.5557L130.131 33.6799C132.072 33.4534 133.831 34.8502 134.05 36.7907L134.926 44.3789ZM152.375 42.5895L151.612 42.6801L151.039 37.6968L149.883 42.8764L149.174 42.9594L146.871 38.0969L147.46 43.1633L146.697 43.2539L146.01 37.3041L147.195 37.1682L149.09 41.2153C149.264 41.5928 149.392 41.8722 149.476 42.0609C149.521 41.8344 149.589 41.5097 149.679 41.0718L150.623 36.768L151.68 36.6472L152.367 42.597L152.375 42.5895ZM156.513 42.1062C156.422 41.9628 156.347 41.7891 156.309 41.5928C156.067 41.8571 155.826 42.0458 155.584 42.1666C155.342 42.2874 155.078 42.3705 154.791 42.4007C154.315 42.4536 153.938 42.3856 153.659 42.1817C153.379 41.9779 153.213 41.6985 153.175 41.3361C153.153 41.1247 153.175 40.9284 153.251 40.7396C153.326 40.5508 153.44 40.3998 153.583 40.279C153.726 40.1582 153.893 40.0525 154.081 39.977C154.217 39.9241 154.436 39.8637 154.716 39.7958C155.297 39.6599 155.72 39.524 155.992 39.3956C155.984 39.2975 155.977 39.2295 155.977 39.2068C155.939 38.9124 155.848 38.7085 155.697 38.6028C155.493 38.4593 155.206 38.4065 154.836 38.4518C154.489 38.4896 154.247 38.5802 154.096 38.7236C153.945 38.8595 153.847 39.0936 153.81 39.4032L153.085 39.3881C153.115 39.0785 153.19 38.8142 153.319 38.6104C153.447 38.4065 153.643 38.2328 153.915 38.1045C154.187 37.9686 154.504 37.8855 154.874 37.8402C155.244 37.7949 155.546 37.81 155.788 37.8629C156.029 37.9233 156.211 38.0139 156.331 38.1347C156.452 38.2555 156.55 38.414 156.618 38.6028C156.656 38.7236 156.694 38.9501 156.732 39.2748L156.845 40.2488C156.92 40.9284 156.988 41.3587 157.041 41.5324C157.094 41.7061 157.177 41.8722 157.283 42.0307L156.52 42.1213L156.513 42.1062ZM158.914 41.8344L158.181 41.9175L157.683 37.6061L158.415 37.5231L158.914 41.8344ZM158.317 36.7227L157.585 36.8058L157.487 35.9677L158.219 35.8846L158.317 36.7227ZM163.527 41.2983L162.795 41.3814L162.493 38.7614C162.455 38.4669 162.402 38.2479 162.326 38.1045C162.251 37.961 162.138 37.8553 161.987 37.7874C161.828 37.7194 161.654 37.6892 161.466 37.7119C161.156 37.7496 160.899 37.878 160.696 38.1045C160.492 38.331 160.424 38.7161 160.484 39.2673L160.756 41.623L160.024 41.7061L159.525 37.3947L160.182 37.3192L160.25 37.9308C160.514 37.4174 160.945 37.1305 161.541 37.0625C161.798 37.0323 162.047 37.055 162.274 37.1229C162.5 37.1909 162.681 37.2966 162.802 37.4325C162.931 37.5684 163.021 37.7421 163.089 37.9459C163.134 38.0818 163.172 38.3159 163.21 38.6481L163.519 41.2983H163.527ZM165.686 41.0492L164.856 41.1473L164.758 40.3168L165.588 40.2186L165.686 41.0492ZM172.791 40.2262L172.067 40.3092L171.749 37.591C171.719 37.2966 171.666 37.0927 171.606 36.9719C171.546 36.8511 171.447 36.7529 171.312 36.6925C171.176 36.6321 171.025 36.6095 170.859 36.6246C170.557 36.6623 170.315 36.7907 170.141 37.0172C169.968 37.2437 169.9 37.5759 169.952 38.0214L170.239 40.5282L169.507 40.6112L169.182 37.81C169.145 37.4853 169.054 37.2513 168.918 37.1003C168.782 36.9493 168.578 36.8964 168.306 36.9266C168.103 36.9493 167.914 37.0248 167.755 37.1531C167.597 37.2815 167.483 37.4551 167.431 37.6741C167.378 37.8931 167.37 38.1951 167.416 38.5877L167.672 40.8227L166.94 40.9057L166.442 36.5944L167.098 36.5189L167.166 37.1229C167.28 36.8964 167.438 36.7076 167.65 36.5491C167.861 36.3981 168.11 36.2999 168.397 36.2697C168.714 36.232 168.986 36.2697 169.205 36.3754C169.424 36.4811 169.59 36.6548 169.703 36.8813C169.983 36.3377 170.398 36.0356 170.949 35.9752C171.38 35.9224 171.719 36.0054 171.976 36.2169C172.233 36.4283 172.391 36.7756 172.444 37.2739L172.784 40.2337L172.791 40.2262ZM177.269 38.701C177.148 39.0709 176.952 39.373 176.672 39.5919C176.393 39.8184 176.083 39.9468 175.751 39.9845C175.51 40.0147 175.283 39.9845 175.079 39.909C174.875 39.826 174.702 39.7203 174.558 39.5768L174.8 41.6759L174.068 41.7589L173.38 35.794L174.045 35.7185L174.113 36.2773C174.241 36.0432 174.4 35.8544 174.588 35.7261C174.77 35.5902 175.004 35.5147 175.291 35.4769C175.661 35.4316 175.993 35.492 176.295 35.6506C176.597 35.8091 176.839 36.0507 177.027 36.3754C177.209 36.7001 177.329 37.0701 177.375 37.4853C177.427 37.9233 177.39 38.331 177.276 38.701H177.269ZM182.011 37.7194L181.21 37.81L181.376 39.237L180.644 39.3201L180.478 37.8931L177.896 38.1951L177.82 37.5231L180.093 33.3552L180.689 33.2873L181.135 37.1456L181.935 37.055L182.011 37.7269V37.7194Z" fill="#3040B4"/>
<path d="M154.27 40.6031C154.149 40.6711 154.066 40.7617 154.006 40.8749C153.953 40.9881 153.93 41.1089 153.946 41.2373C153.968 41.4335 154.059 41.5845 154.225 41.6978C154.391 41.811 154.61 41.8487 154.897 41.8185C155.184 41.7883 155.418 41.6978 155.629 41.5468C155.833 41.3958 155.976 41.2146 156.052 40.9881C156.112 40.8145 156.12 40.5654 156.082 40.2408L156.052 39.9766C155.803 40.1124 155.41 40.2559 154.889 40.3918C154.595 40.4673 154.383 40.5427 154.27 40.6107V40.6031Z" fill="#3040B4"/>
<path d="M149.687 41.064C149.589 41.5019 149.521 41.8266 149.483 42.0531C149.4 41.8643 149.272 41.585 149.098 41.2074L147.203 37.1604L146.018 37.2963L146.705 43.2461L147.467 43.1555L146.878 38.0891L149.181 42.9516L149.891 42.8685L151.046 37.6889L151.62 42.6722L152.383 42.5816L151.696 36.6318L150.638 36.7526L149.695 41.0564L149.687 41.064Z" fill="#1C1E21"/>
<path d="M156.837 40.2405L156.723 39.2667C156.686 38.9421 156.648 38.7156 156.61 38.5948C156.542 38.3985 156.452 38.24 156.323 38.1268C156.202 38.006 156.021 37.9154 155.78 37.855C155.538 37.7946 155.236 37.787 154.866 37.8323C154.496 37.8776 154.172 37.9607 153.908 38.0966C153.636 38.2324 153.44 38.3985 153.311 38.6023C153.183 38.8062 153.107 39.0704 153.077 39.3799L153.802 39.395C153.847 39.0779 153.938 38.8515 154.089 38.7156C154.24 38.5797 154.489 38.4891 154.829 38.4438C155.198 38.3985 155.485 38.4514 155.689 38.5948C155.84 38.7005 155.931 38.9043 155.968 39.1987C155.968 39.2289 155.976 39.2893 155.984 39.3875C155.719 39.5158 155.289 39.6517 154.708 39.7876C154.421 39.8555 154.21 39.9159 154.074 39.9687C153.885 40.0442 153.719 40.1424 153.575 40.2707C153.432 40.3915 153.319 40.55 153.243 40.7312C153.168 40.9199 153.145 41.1162 153.168 41.3276C153.213 41.6899 153.372 41.9692 153.651 42.1731C153.93 42.3769 154.308 42.4448 154.783 42.392C155.07 42.3618 155.334 42.2788 155.576 42.158C155.817 42.0372 156.059 41.8409 156.301 41.5842C156.346 41.7881 156.414 41.9541 156.504 42.0976L157.267 42.007C157.154 41.856 157.071 41.6899 157.025 41.5087C156.972 41.3351 156.905 40.9048 156.829 40.2254L156.837 40.2405ZM156.089 40.233C156.127 40.5576 156.112 40.7991 156.059 40.9803C155.984 41.2068 155.84 41.3955 155.636 41.5389C155.432 41.6899 155.191 41.7805 154.904 41.8107C154.617 41.8409 154.398 41.8107 154.232 41.6899C154.066 41.5767 153.975 41.4257 153.953 41.2294C153.938 41.1011 153.953 40.9803 154.013 40.8671C154.066 40.7538 154.157 40.6632 154.277 40.5953C154.398 40.5274 154.602 40.4519 154.896 40.3764C155.417 40.2405 155.802 40.1046 156.059 39.9612L156.089 40.2254V40.233Z" fill="#1C1E21"/>
<path d="M158.217 35.8911L157.49 35.9751L157.587 36.8142L158.313 36.7303L158.217 35.8911Z" fill="#1C1E21"/>
<path d="M158.409 37.5263L157.681 37.6104L158.179 41.9224L158.907 41.8384L158.409 37.5263Z" fill="#1C1E21"/>
<path d="M162.81 37.4245C162.681 37.2886 162.508 37.183 162.281 37.115C162.055 37.0471 161.805 37.0244 161.549 37.0546C160.952 37.1226 160.522 37.417 160.258 37.9228L160.19 37.3113L159.533 37.3868L160.031 41.6973L160.764 41.6143L160.492 39.259C160.432 38.7079 160.492 38.3229 160.703 38.0964C160.907 37.8699 161.164 37.7416 161.473 37.7038C161.67 37.6812 161.843 37.7039 161.994 37.7793C162.153 37.8473 162.266 37.953 162.334 38.0964C162.409 38.2398 162.462 38.4588 162.5 38.7532L162.802 41.3727L163.534 41.2897L163.225 38.6399C163.187 38.3002 163.142 38.0662 163.104 37.9379C163.036 37.734 162.938 37.5604 162.817 37.4245H162.81Z" fill="#1C1E21"/>
<path d="M165.589 40.2262L164.758 40.3223L164.854 41.1539L165.686 41.0578L165.589 40.2262Z" fill="#1C1E21"/>
<path d="M170.957 35.9748C170.413 36.0352 169.998 36.3372 169.711 36.8808C169.598 36.6543 169.432 36.4807 169.213 36.375C168.994 36.2693 168.722 36.2315 168.405 36.2693C168.118 36.2995 167.869 36.3976 167.657 36.5486C167.446 36.6996 167.287 36.8959 167.174 37.1225L167.106 36.5184L166.449 36.5939L166.948 40.9053L167.68 40.8222L167.423 38.5873C167.378 38.1946 167.385 37.8926 167.438 37.6736C167.491 37.4547 167.604 37.281 167.763 37.1527C167.922 37.0243 168.11 36.9488 168.314 36.9261C168.586 36.8959 168.79 36.9563 168.926 37.0998C169.062 37.2508 169.152 37.4849 169.19 37.8096L169.515 40.6108L170.247 40.5277L169.96 38.021C169.907 37.5755 169.975 37.2433 170.149 37.0168C170.323 36.7902 170.564 36.6619 170.866 36.6241C171.032 36.6015 171.183 36.6241 171.319 36.6921C171.455 36.7525 171.553 36.8506 171.614 36.9714C171.674 37.0923 171.727 37.3037 171.757 37.5906L172.074 40.3088L172.799 40.2257L172.459 37.2659C172.399 36.7751 172.248 36.4203 171.991 36.2088C171.735 35.9974 171.395 35.9219 170.964 35.9672L170.957 35.9748Z" fill="#1C1E21"/>
<path d="M176.295 35.6424C175.993 35.4838 175.653 35.4309 175.291 35.4687C175.011 35.4989 174.777 35.582 174.588 35.7179C174.407 35.8538 174.249 36.035 174.113 36.269L174.045 35.7103L173.38 35.7858L174.067 41.7507L174.8 41.6676L174.558 39.5686C174.702 39.7121 174.875 39.8253 175.079 39.9008C175.283 39.9839 175.51 40.0065 175.751 39.9763C176.083 39.9386 176.393 39.8102 176.672 39.5837C176.952 39.3572 177.148 39.0627 177.269 38.6928C177.39 38.3228 177.42 37.9151 177.367 37.4771C177.322 37.0694 177.201 36.6994 177.02 36.3672C176.839 36.0425 176.597 35.7934 176.287 35.6424H176.295ZM176.423 38.8815C176.227 39.1835 175.963 39.3496 175.638 39.3874C175.313 39.4252 175.034 39.3194 174.777 39.0854C174.52 38.8438 174.362 38.4511 174.302 37.8924C174.241 37.3412 174.302 36.9033 174.513 36.5862C174.717 36.269 174.974 36.0878 175.291 36.0576C175.608 36.0274 175.887 36.1256 176.151 36.3748C176.408 36.6239 176.567 37.0165 176.635 37.5677C176.703 38.1416 176.635 38.5795 176.438 38.8815H176.423Z" fill="#1C1E21"/>
<path d="M180.682 33.2868L180.086 33.3548L177.813 37.5227L177.888 38.1947L180.471 37.8926L180.637 39.3197L181.369 39.2366L181.203 37.8096L182.004 37.719L181.928 37.047L181.128 37.1376L180.682 33.2793V33.2868ZM180.395 37.2282L178.53 37.4472L180.086 34.5478L180.395 37.2282Z" fill="#1C1E21"/>
<path d="M135.047 76.219C136.987 75.9925 138.384 74.2408 138.157 72.3003L137.281 64.712C137.055 62.7716 135.303 61.3747 133.363 61.6012L125.775 62.4771C123.834 62.7036 122.437 64.4553 122.664 66.3958L123.54 73.984C123.766 75.9245 125.518 77.3214 127.458 77.0948L129.633 76.8457L132.223 76.5437L135.054 76.219H135.047ZM127.602 73.5084C127.337 73.6292 127.058 73.7047 126.764 73.682C126.53 73.6594 126.341 73.5537 126.235 73.3347C126.22 73.3045 126.212 73.2818 126.205 73.2516L126.19 73.1233C126.19 73.1233 126.19 73.1082 126.19 73.1006C126.205 72.8666 126.341 72.7156 126.552 72.6401C126.703 72.5872 126.854 72.5948 127.005 72.5948C127.194 72.5948 127.39 72.5947 127.579 72.5494C127.73 72.5192 127.836 72.4437 127.874 72.2852C127.911 72.104 127.957 71.9228 127.987 71.7415C128.1 70.911 128.206 70.0804 128.311 69.2574C128.327 69.114 128.349 68.9705 128.364 68.8195L127.458 68.9252C127.496 68.6534 127.534 68.3891 127.564 68.1173C127.866 68.0796 128.16 68.0494 128.463 68.0116C128.463 67.9663 128.478 67.9134 128.485 67.8681C128.546 67.4831 128.621 67.1055 128.772 66.7507C129.044 66.124 129.504 65.6936 130.139 65.4369C130.222 65.4067 130.312 65.384 130.403 65.3538L130.607 65.3312C130.667 65.3312 130.735 65.3312 130.796 65.3463C131.022 65.384 131.196 65.4973 131.271 65.7163C131.369 66.0032 131.203 66.3127 130.909 66.3882C130.758 66.426 130.599 66.4109 130.441 66.4033C130.312 66.4033 130.184 66.3882 130.056 66.3807C129.995 66.3807 129.95 66.4033 129.905 66.4487C129.822 66.5393 129.776 66.6601 129.731 66.7733C129.648 67.0074 129.618 67.249 129.588 67.4982C129.572 67.6265 129.557 67.7473 129.542 67.8832C129.557 67.8832 129.572 67.8832 129.588 67.8832C130.26 67.7926 130.932 67.6945 131.604 67.6039C131.656 67.6039 131.709 67.5888 131.762 67.5963C131.898 67.5963 132.004 67.6643 132.079 67.77C132.14 67.8681 132.192 67.9814 132.245 68.0871C132.253 68.1022 132.26 68.1249 132.268 68.1475C132.313 68.0871 132.343 68.0267 132.389 67.9738C132.57 67.7096 132.789 67.4755 133.061 67.3094C133.166 67.2415 133.28 67.1886 133.408 67.1659C133.665 67.1055 133.929 67.2264 134.027 67.4604C134.14 67.7322 134.005 68.0267 133.718 68.1249C133.589 68.1702 133.461 68.1928 133.333 68.223C133.212 68.2532 133.114 68.3061 133.031 68.3967C132.849 68.593 132.713 68.8271 132.6 69.0687C132.6 69.0838 132.6 69.1064 132.6 69.1215C132.721 69.4688 132.834 69.8162 132.955 70.1635C133.031 70.3674 133.144 70.541 133.31 70.6845C133.34 70.7147 133.378 70.7373 133.416 70.76C133.453 70.7826 133.476 70.7675 133.491 70.7298C133.506 70.692 133.506 70.6543 133.521 70.6241C133.574 70.4429 133.672 70.307 133.854 70.2465C134.103 70.1635 134.359 70.3145 134.427 70.5637C134.465 70.7147 134.45 70.8657 134.375 70.994C134.239 71.2281 134.042 71.4244 133.778 71.4999C133.363 71.6207 132.978 71.5528 132.653 71.2583C132.366 71.0016 132.155 70.6845 131.973 70.3372C131.966 70.3221 131.958 70.3069 131.943 70.2843C131.928 70.3069 131.921 70.3221 131.906 70.3447C131.77 70.5788 131.626 70.8128 131.46 71.0318C131.309 71.2206 131.128 71.3716 130.894 71.4546C130.652 71.5377 130.411 71.5377 130.199 71.3716C129.897 71.1451 129.912 70.6996 130.229 70.4957C130.38 70.3976 130.546 70.3976 130.697 70.4957C130.75 70.5259 130.788 70.5637 130.841 70.6014C130.871 70.5637 130.909 70.5184 130.939 70.4806C131.128 70.239 131.271 69.9672 131.415 69.6954C131.468 69.5972 131.52 69.4915 131.573 69.3933C131.573 69.3782 131.588 69.3556 131.581 69.348C131.483 69.0838 131.392 68.812 131.294 68.5477C131.294 68.5477 131.294 68.5477 131.294 68.5401C130.682 68.6005 130.063 68.6609 129.444 68.7213C129.429 68.8271 129.414 68.9403 129.406 69.046C129.316 69.7407 129.233 70.4353 129.142 71.13C129.074 71.6132 128.938 72.0738 128.697 72.4966C128.432 72.9496 128.077 73.312 127.602 73.5386V73.5084Z" fill="#56F586"/>
<path d="M129.414 69.0234C129.429 68.9177 129.444 68.812 129.452 68.6988C130.071 68.6384 130.69 68.578 131.301 68.5176V68.5251C131.4 68.7894 131.49 69.0612 131.588 69.3255C131.588 69.3406 131.588 69.3557 131.581 69.3708C131.528 69.4689 131.475 69.5746 131.422 69.6728C131.286 69.9446 131.135 70.2164 130.947 70.458C130.916 70.5033 130.879 70.5411 130.848 70.5788C130.796 70.5411 130.75 70.5033 130.705 70.4731C130.546 70.3825 130.388 70.3825 130.237 70.4731C129.92 70.6694 129.912 71.1225 130.207 71.349C130.418 71.5151 130.66 71.5151 130.901 71.432C131.135 71.349 131.316 71.198 131.468 71.0092C131.641 70.7978 131.777 70.5637 131.913 70.3221C131.921 70.307 131.936 70.2844 131.951 70.2617C131.958 70.2844 131.973 70.2995 131.981 70.3146C132.155 70.6619 132.366 70.979 132.66 71.2357C132.985 71.5302 133.378 71.5982 133.785 71.4773C134.05 71.4018 134.246 71.2055 134.382 70.9715C134.457 70.8356 134.473 70.6921 134.435 70.5411C134.367 70.2919 134.103 70.1409 133.861 70.224C133.68 70.2844 133.582 70.4203 133.529 70.6015C133.521 70.6392 133.514 70.677 133.499 70.7072C133.483 70.7449 133.461 70.7601 133.423 70.7374C133.385 70.7147 133.355 70.6921 133.317 70.6619C133.159 70.5184 133.038 70.3448 132.962 70.1409C132.842 69.7936 132.721 69.4463 132.608 69.0989C132.608 69.0838 132.608 69.0612 132.608 69.0461C132.721 68.8045 132.857 68.5704 133.038 68.3741C133.121 68.2835 133.219 68.2306 133.34 68.2004C133.468 68.1702 133.604 68.1476 133.725 68.1023C134.012 68.0041 134.148 67.7096 134.035 67.4378C133.937 67.2038 133.68 67.083 133.416 67.1434C133.295 67.1736 133.181 67.2264 133.068 67.2868C132.796 67.4605 132.577 67.687 132.396 67.9513C132.358 68.0041 132.321 68.0645 132.275 68.1249C132.268 68.1023 132.26 68.0796 132.253 68.0645C132.2 67.9588 132.147 67.8531 132.087 67.7474C132.019 67.6341 131.905 67.5737 131.77 67.5737C131.717 67.5737 131.664 67.5737 131.611 67.5813C130.939 67.6719 130.267 67.7701 129.595 67.8607C129.58 67.8607 129.565 67.8607 129.55 67.8607C129.565 67.7323 129.58 67.6039 129.595 67.4756C129.625 67.234 129.655 66.9848 129.738 66.7507C129.776 66.6299 129.829 66.5167 129.912 66.4261C129.95 66.3808 130.003 66.3581 130.063 66.3581C130.191 66.3657 130.32 66.3732 130.448 66.3808C130.607 66.3883 130.758 66.4034 130.916 66.3657C131.211 66.2902 131.384 65.9806 131.279 65.6937C131.196 65.4747 131.022 65.3614 130.803 65.3237C130.743 65.3161 130.675 65.3161 130.614 65.3086L130.41 65.3312C130.32 65.3539 130.229 65.3765 130.146 65.4143C129.512 65.6635 129.059 66.1014 128.78 66.7281C128.621 67.083 128.545 67.468 128.493 67.8456C128.493 67.8909 128.478 67.9362 128.47 67.989C128.168 68.0268 127.873 68.057 127.571 68.0947C127.534 68.3665 127.503 68.6308 127.466 68.9026L128.372 68.7969C128.349 68.9479 128.334 69.0914 128.319 69.2348C128.213 70.0654 128.108 70.896 127.994 71.719C127.972 71.9002 127.919 72.0814 127.881 72.2626C127.843 72.4212 127.738 72.4967 127.587 72.5269C127.398 72.5646 127.201 72.5646 127.013 72.5722C126.862 72.5722 126.703 72.5722 126.56 72.6175C126.341 72.693 126.212 72.844 126.197 73.078C126.197 73.078 126.197 73.0931 126.197 73.1007L126.212 73.2291C126.212 73.2291 126.235 73.2895 126.243 73.3121C126.348 73.5311 126.529 73.6368 126.771 73.6594C127.066 73.6821 127.345 73.6141 127.609 73.4858C128.092 73.2593 128.447 72.8968 128.704 72.4438C128.953 72.021 129.089 71.5604 129.149 71.0772C129.248 70.3825 129.331 69.6879 129.414 68.9932V69.0234Z" fill="#37143A"/>
<path d="M130.124 33.6798L122.536 34.5557C120.595 34.7822 119.198 36.5339 119.425 38.4744L120.301 46.0627C120.527 48.0031 122.279 49.4 124.22 49.1735L131.808 48.2976C133.748 48.0711 135.145 46.3194 134.919 44.3789L134.043 36.7906C133.816 34.8502 132.064 33.4533 130.124 33.6798ZM131.158 43.0651C131.023 43.2992 130.826 43.4955 130.562 43.571C130.147 43.6918 129.762 43.6238 129.437 43.3294C129.15 43.0727 128.939 42.7555 128.757 42.4082C128.75 42.3931 128.742 42.378 128.727 42.3554C128.712 42.378 128.705 42.3931 128.689 42.4158C128.553 42.6498 128.41 42.8839 128.244 43.1029C128.093 43.2916 127.912 43.4426 127.678 43.5257C127.436 43.6087 127.194 43.6087 126.983 43.4426C126.689 43.2161 126.696 42.7706 127.013 42.5668C127.164 42.4686 127.33 42.4686 127.481 42.5668C127.534 42.597 127.572 42.6347 127.625 42.6725C127.655 42.6347 127.693 42.5894 127.723 42.5517C127.912 42.3101 128.055 42.0382 128.199 41.7664C128.251 41.6683 128.304 41.5626 128.357 41.4644C128.357 41.4493 128.372 41.4267 128.365 41.4191C128.267 41.1548 128.176 40.883 128.078 40.6187C128.078 40.6187 128.078 40.6187 128.078 40.6112C127.466 40.6716 126.847 40.732 126.228 40.7924C126.213 40.8981 126.198 41.0114 126.19 41.1171C126.1 41.8117 126.017 42.5064 125.926 43.201C125.858 43.6842 125.722 44.1448 125.48 44.5677C125.216 45.0207 124.861 45.3831 124.386 45.6096C124.121 45.7304 123.842 45.8059 123.548 45.7833C123.313 45.7606 123.125 45.6549 123.019 45.436C123.004 45.4058 122.996 45.3831 122.989 45.3529L122.974 45.2245C122.974 45.2245 122.974 45.2094 122.974 45.2019C122.989 44.9678 123.125 44.8168 123.336 44.7413C123.487 44.6885 123.638 44.696 123.789 44.696C123.978 44.696 124.174 44.696 124.363 44.6507C124.514 44.6205 124.62 44.545 124.657 44.3864C124.695 44.2052 124.741 44.024 124.771 43.8428C124.884 43.0123 124.99 42.1817 125.095 41.3587C125.11 41.2152 125.133 41.0718 125.148 40.9208L124.242 41.0265C124.28 40.7547 124.318 40.4904 124.348 40.2186L125.246 40.1129C125.246 40.0676 125.261 40.0147 125.269 39.9694C125.329 39.5843 125.405 39.2068 125.556 38.8519C125.828 38.2252 126.288 37.7949 126.923 37.5381C127.006 37.5079 127.096 37.4853 127.187 37.4551L127.391 37.4324C127.451 37.4324 127.519 37.4324 127.579 37.4475C127.806 37.4853 127.98 37.5986 128.055 37.8175C128.153 38.1044 127.987 38.414 127.693 38.4895C127.542 38.5273 127.383 38.5122 127.225 38.5046C127.096 38.5046 126.968 38.4895 126.84 38.482C126.779 38.482 126.734 38.5046 126.689 38.5499C126.605 38.6405 126.56 38.7613 126.515 38.8746C126.432 39.1086 126.402 39.3503 126.371 39.5994C126.356 39.7278 126.341 39.8486 126.326 39.9845C126.341 39.9845 126.356 39.9845 126.371 39.9845C127.043 39.8939 127.715 39.7957 128.387 39.7051C128.44 39.7051 128.493 39.69 128.546 39.6976C128.682 39.6976 128.788 39.7655 128.863 39.8712C128.923 39.9694 128.976 40.0827 129.029 40.1884C129.037 40.2035 129.044 40.2261 129.052 40.2488C129.097 40.1884 129.127 40.128 129.173 40.0751C129.354 39.8108 129.573 39.5768 129.845 39.4107C129.95 39.3427 130.064 39.2899 130.192 39.2672C130.449 39.2068 130.713 39.3276 130.811 39.5617C130.924 39.8335 130.788 40.128 130.502 40.2261C130.373 40.2714 130.245 40.2941 130.116 40.3243C129.996 40.3545 129.897 40.4073 129.814 40.4979C129.633 40.6943 129.497 40.9283 129.384 41.1699C129.384 41.185 129.384 41.2077 129.384 41.2228C129.505 41.5701 129.618 41.9174 129.739 42.2648C129.814 42.4686 129.928 42.6423 130.094 42.7857C130.124 42.8159 130.162 42.8386 130.2 42.8612C130.237 42.8839 130.26 42.8688 130.275 42.831C130.29 42.7933 130.29 42.7555 130.305 42.7253C130.358 42.5441 130.456 42.4082 130.637 42.3478C130.887 42.2648 131.143 42.4158 131.211 42.6649C131.249 42.8159 131.234 42.9669 131.158 43.0953V43.0651Z" fill="#FFCD50"/>
<path d="M130.63 42.3172C130.449 42.3776 130.351 42.5135 130.298 42.6947C130.29 42.7325 130.283 42.7703 130.268 42.8005C130.253 42.8382 130.23 42.8533 130.192 42.8307C130.154 42.808 130.124 42.7854 130.086 42.7552C129.928 42.6117 129.807 42.438 129.732 42.2342C129.611 41.8868 129.49 41.5395 129.377 41.1922C129.377 41.1771 129.377 41.1544 129.377 41.1393C129.49 40.8977 129.626 40.6637 129.807 40.4674C129.89 40.3767 129.988 40.3239 130.109 40.2937C130.237 40.2635 130.373 40.2408 130.494 40.1955C130.781 40.0974 130.917 39.8029 130.804 39.5311C130.706 39.297 130.449 39.1762 130.185 39.2366C130.064 39.2668 129.951 39.3197 129.837 39.3801C129.565 39.5537 129.346 39.7803 129.165 40.0445C129.128 40.0974 129.09 40.1578 129.044 40.2182C129.037 40.1955 129.029 40.1729 129.022 40.1578C128.969 40.0521 128.916 39.9464 128.856 39.8407C128.788 39.7274 128.674 39.667 128.539 39.667C128.486 39.667 128.433 39.667 128.38 39.6746C127.708 39.7652 127.036 39.8633 126.364 39.9539C126.349 39.9539 126.334 39.9539 126.319 39.9539C126.334 39.8256 126.349 39.6972 126.364 39.5688C126.394 39.3272 126.424 39.0781 126.507 38.844C126.545 38.7232 126.598 38.6099 126.681 38.5193C126.719 38.474 126.772 38.4514 126.832 38.4514C126.961 38.4589 127.089 38.4665 127.217 38.474C127.376 38.4816 127.527 38.4967 127.685 38.4589C127.98 38.3834 128.153 38.0738 128.048 37.7869C127.965 37.568 127.791 37.4547 127.572 37.417C127.512 37.4094 127.444 37.4094 127.383 37.4019L127.179 37.4245C127.089 37.4472 126.998 37.4698 126.915 37.5076C126.281 37.7567 125.828 38.1947 125.549 38.8213C125.39 39.1762 125.315 39.5613 125.262 39.9388C125.262 39.9841 125.247 40.0294 125.239 40.0823L124.34 40.188C124.303 40.4598 124.273 40.7241 124.235 40.9959L125.141 40.8902C125.118 41.0412 125.103 41.1846 125.088 41.3281C124.982 42.1587 124.877 42.9892 124.763 43.8122C124.741 43.9934 124.688 44.1746 124.65 44.3559C124.612 44.5144 124.507 44.5899 124.356 44.6201C124.167 44.6579 123.971 44.6579 123.782 44.6654C123.631 44.6654 123.472 44.6654 123.329 44.7107C123.11 44.7862 122.981 44.9372 122.966 45.1713C122.966 45.1713 122.966 45.1864 122.966 45.194L122.981 45.3223C122.981 45.3223 123.004 45.3827 123.012 45.4054C123.117 45.6243 123.299 45.73 123.54 45.7527C123.835 45.7753 124.114 45.7074 124.378 45.579C124.861 45.3525 125.216 44.9901 125.473 44.5371C125.722 44.1142 125.858 43.6537 125.919 43.1704C126.017 42.4758 126.1 41.7811 126.183 41.0865C126.198 40.9808 126.213 40.8751 126.221 40.7618C126.84 40.7014 127.459 40.641 128.07 40.5806V40.5882C128.169 40.8524 128.259 41.1242 128.357 41.3885C128.357 41.4036 128.357 41.4187 128.35 41.4338C128.297 41.532 128.244 41.6377 128.191 41.7358C128.055 42.0077 127.904 42.2795 127.716 42.5211C127.685 42.5664 127.648 42.6041 127.617 42.6419C127.565 42.6041 127.519 42.5664 127.474 42.5362C127.315 42.4456 127.157 42.4456 127.006 42.5362C126.689 42.7325 126.681 43.1855 126.976 43.412C127.187 43.5782 127.429 43.5782 127.67 43.4951C127.904 43.412 128.086 43.261 128.237 43.0723C128.41 42.8609 128.546 42.6268 128.682 42.3852C128.69 42.3701 128.705 42.3474 128.72 42.3248C128.727 42.3474 128.742 42.3625 128.75 42.3776C128.924 42.7249 129.135 43.0421 129.43 43.2988C129.754 43.5933 130.147 43.6612 130.555 43.5404C130.819 43.4649 131.015 43.2686 131.151 43.0345C131.227 42.8986 131.242 42.7552 131.204 42.6041C131.136 42.355 130.872 42.204 130.63 42.287V42.3172Z" fill="#2B2C3A"/>
<path d="M97.0528 62.0011L96.8641 60.4004L3.72119 71.1674L3.9024 72.7756L97.0528 62.0011Z" fill="white"/>
<path d="M97.0987 60.3671L96.8662 60.394L97.051 61.9913L97.2835 61.9644L97.0987 60.3671Z" fill="black"/>
<path d="M3.71148 71.1655L3.479 71.1924L3.66441 72.7972L3.89688 72.7704L3.71148 71.1655Z" fill="black"/>
<path d="M3.90252 72.7761L3.66846 72.8063L6.16012 94.3479L7.07373 94.2422L6.34133 87.93L8.33466 87.6959L8.52342 89.357L10.1845 89.1683L10.4261 91.2748L12.1628 91.071L11.7248 87.3033L13.7182 87.0692L14.4204 93.1247L16.006 92.9435L16.1645 94.3479L17.8634 94.1516L18.0823 96.0543L19.8341 95.8504L19.8794 96.2733L21.5027 96.0845L21.465 95.7372L23.2544 95.5333L23.4583 95.5107L24.9004 95.3446L25.2478 95.3068L26.3728 95.1784L25.9802 91.8034L27.9735 91.5693L28.5322 96.4243L30.2084 96.228L30.7596 100.97L31.7563 100.856L31.0692 94.9142L32.768 94.7179L32.7378 94.4385L34.2706 94.2648L34.0818 92.6188L35.4636 92.4603L34.935 87.862L36.9284 87.628L37.6457 93.8647L39.0652 93.6985L39.3672 96.3035L40.9528 96.1223L41.1566 96.0996L42.4327 95.9561L41.9117 91.4334L43.905 91.1993L44.3203 94.8009L45.3547 94.6801L46.0192 94.6046L46.9781 94.4914L46.7818 92.8151L48.7751 92.5811L48.9261 93.8722L50.3456 93.7061L50.4513 94.6273L51.7651 94.4762L51.1837 89.4174L52.5503 89.2589L51.9689 84.2227L53.9623 83.9886L54.6645 90.0592L56.4539 89.8554L56.5294 90.482L58.5228 90.248L58.636 91.2295L60.3122 91.0332L61.0597 97.5115L62.6831 97.3228L60.6973 80.1454L62.6906 79.9114L62.8794 81.5574L64.7595 81.3384L65.0917 84.2151L66.9038 84.0037L67.2738 87.2353L68.5121 87.0919L67.9684 82.403L69.9618 82.169L70.143 83.7168L71.8192 83.5205H71.9098L72.9216 83.3921L72.3855 78.7788L74.3788 78.5447L74.5676 80.1907L76.2438 79.9944L76.9082 85.7705L78.3277 85.6044L78.5391 87.4316L80.4041 87.2127L80.5778 88.7228L82.405 88.5114L82.6164 90.3537L84.3152 90.1574L84.1567 88.753L86.15 88.5189L86.8296 94.3856L88.3246 94.212L88.6417 94.1742L89.9555 94.0232L89.6761 91.6071L91.3372 91.4183L88.4001 66.026L90.3934 65.7919L91.2617 73.3047L92.7869 73.131L95.4749 96.3563L96.6678 96.2204L96.396 93.842L98.0269 93.6532L96.3356 79.0128L97.8608 78.8392L97.4984 75.6831L98.8499 75.5245L97.2794 61.9487L97.0454 61.9789L3.90252 72.7761ZM34.112 85.4685C34.3385 87.409 32.9417 89.1683 31.0012 89.3872L23.413 90.2631C21.4725 90.4896 19.7132 89.0927 19.4943 87.1523L18.6184 79.564C18.3919 77.6236 19.7888 75.8643 21.7292 75.6453L29.3175 74.7695C31.2579 74.543 33.0172 75.9398 33.2362 77.8803L34.112 85.4685Z" fill="#1C6B4F"/>
<path d="M97.5063 75.7134L97.8687 78.8695L96.3435 79.0432L98.0348 93.6836L96.4039 93.8723L96.6757 96.2507L95.4827 96.3867L92.7948 73.1613L91.2696 73.335L90.4013 65.8223L88.4079 66.0563L91.3451 91.4486L89.684 91.6374L89.9633 94.0536L88.6495 94.2046L88.3324 94.2423L86.8374 94.416L86.1579 88.5492L84.1645 88.7833L84.3231 90.1877L82.6242 90.384L82.4128 88.5417L80.5856 88.7531L80.4119 87.243L78.547 87.462L78.3356 85.6348L76.9161 85.8009L76.2516 80.0247L74.5754 80.2211L74.3867 78.575L72.3933 78.8091L72.9294 83.4225L71.9176 83.5433H71.827L70.1508 83.7471L69.9696 82.1993L67.9763 82.4333L68.5199 87.1222L67.2816 87.2657L66.9117 84.034L65.0996 84.2455L64.7673 81.3687L62.8873 81.5877L62.6985 79.9417L60.7052 80.1758L62.6909 97.3531L61.0676 97.5419L60.3201 91.0636L58.6439 91.2599L58.5306 90.2783L56.5373 90.5124L56.4618 89.8857L54.6723 90.0895L53.9701 84.0189L51.9768 84.253L52.5582 89.2892L51.1915 89.4478L51.7729 94.5066L50.4591 94.6576L50.3534 93.7364L48.9339 93.9025L48.7829 92.6114L46.7896 92.8455L46.9859 94.5217L46.027 94.6349L45.3626 94.7104L44.3281 94.8313L43.9129 91.2297L41.9195 91.4637L42.4405 95.9865L41.1645 96.1299L40.9606 96.1526L39.375 96.3338L39.073 93.7289L37.6535 93.895L36.9362 87.6583L34.9429 87.8923L35.4714 92.4906L34.0897 92.6492L34.2784 94.2952L32.7457 94.4688L32.7759 94.7482L31.077 94.9445L31.7641 100.887L30.7675 101L30.2163 96.2583L28.5401 96.4546L27.9813 91.5996L25.988 91.8337L26.3806 95.2088L25.2556 95.3371L24.9083 95.3749L23.4661 95.541L23.2623 95.5637L21.4728 95.7675L21.5106 96.1148L19.8872 96.3036L19.8419 95.8808L18.0902 96.0846L17.8712 94.1819L16.1724 94.3782L16.0138 92.9738L14.4282 93.155L13.726 87.0996L11.7327 87.3336L12.1706 91.1013L10.434 91.3052L10.1924 89.1986L8.53127 89.3873L8.34251 87.7262L6.34918 87.9603L7.08158 94.2725L6.16797 94.3782L7.50441 105.968C7.76112 108.173 9.75445 109.751 11.9516 109.494L97.5818 99.5956C99.7865 99.3389 101.365 97.3456 101.108 95.1484L98.8503 75.5851L97.4987 75.7436L97.5063 75.7134Z" fill="#56F586"/>
<path d="M44.8565 53.2276C44.7358 53.2956 44.6527 53.3862 44.5923 53.4994C44.5395 53.6127 44.5168 53.7334 44.5319 53.8618C44.5546 54.058 44.6452 54.209 44.8113 54.3223C44.9773 54.4355 45.1963 54.4732 45.4831 54.4431C45.77 54.4129 46.004 54.3223 46.2154 54.1713C46.4192 54.0203 46.5626 53.8391 46.6381 53.6127C46.6985 53.439 46.7061 53.1899 46.6683 52.8653L46.6381 52.6011C46.389 52.737 45.9965 52.8804 45.4756 53.0163C45.1812 53.0918 44.9698 53.1673 44.8565 53.2352V53.2276Z" fill="#3040B4"/>
<path d="M70.9813 49.845L70.6718 47.165L69.1167 50.0639L70.9813 49.845Z" fill="#3040B4"/>
<path d="M65.8619 48.6749C65.5524 48.7127 65.2957 48.8863 65.0844 49.2034C64.8805 49.5204 64.805 49.9583 64.873 50.5094C64.9409 51.0604 65.0995 51.4605 65.3486 51.7021C65.6052 51.9437 65.8921 52.0418 66.2092 52.0041C66.5262 51.9663 66.798 51.8003 66.9943 51.4983C67.1905 51.1963 67.2585 50.7585 67.1905 50.1848C67.1226 49.611 66.9641 49.2411 66.7074 48.992C66.4507 48.7429 66.1639 48.6372 65.8468 48.6749H65.8619Z" fill="#3040B4"/>
<path d="M0.542993 45.7002L3.48768 71.1906L3.72175 71.1604L96.8646 60.3934L97.0987 60.3632L94.154 34.8728C93.8973 32.668 91.9115 31.09 89.7067 31.3467L4.06907 41.2529C1.86433 41.5097 0.286276 43.4954 0.542993 45.7002ZM30.7525 56.3992C30.979 58.3397 29.5822 60.099 27.6417 60.3179L20.0535 61.1938C18.113 61.4203 16.3537 60.0235 16.1348 58.083L15.2589 50.4947C15.0324 48.5543 16.4292 46.795 18.3697 46.576L25.9579 45.7002C27.8984 45.4737 29.6577 46.8705 29.8766 48.811L30.7525 56.3992ZM42.9617 55.2063L42.1991 55.2969L41.6252 50.3135L40.47 55.4932L39.7602 55.5762L37.4573 50.7137L38.0463 55.7801L37.2837 55.8707L36.5966 49.9209L37.782 49.785L39.6772 53.8321C39.8508 54.2096 39.9792 54.489 40.0623 54.6777C40.1076 54.4512 40.1755 54.1265 40.2661 53.6886L41.2099 49.3848L42.267 49.264L42.9541 55.2138L42.9617 55.2063ZM47.0993 54.7306C47.0087 54.5871 46.9332 54.4135 46.8955 54.2171C46.6538 54.4814 46.4122 54.6702 46.1706 54.791C45.929 54.9118 45.6647 54.9948 45.3778 55.025C44.9021 55.0779 44.5246 55.0099 44.2452 54.8061C43.9659 54.6022 43.7998 54.3228 43.762 53.9604C43.7394 53.749 43.762 53.5527 43.8375 53.3639C43.913 53.1752 44.0263 53.0242 44.1697 52.9034C44.3132 52.7825 44.4793 52.6768 44.6681 52.6013C44.804 52.5485 45.0229 52.4881 45.3023 52.4201C45.8837 52.2842 46.3065 52.1483 46.5783 52.0199C46.5708 51.9218 46.5632 51.8538 46.5632 51.8312C46.5255 51.5367 46.4349 51.3329 46.2839 51.2271C46.08 51.0837 45.7931 51.0308 45.4231 51.0761C45.0758 51.1139 44.8342 51.2045 44.6832 51.348C44.5322 51.4839 44.434 51.7179 44.3962 52.0275L43.6714 52.0124C43.7016 51.7028 43.7771 51.4386 43.9055 51.2347C44.0338 51.0308 44.2301 50.8572 44.502 50.7288C44.7738 50.5929 45.0909 50.5098 45.4609 50.4645C45.8308 50.4192 46.1329 50.4343 46.3745 50.4872C46.6161 50.5476 46.7973 50.6382 46.9181 50.759C47.0389 50.8798 47.1371 51.0384 47.205 51.2271C47.2428 51.348 47.2805 51.5745 47.3183 51.8991L47.4315 52.8732C47.507 53.5527 47.575 53.9831 47.6279 54.1567C47.6807 54.3304 47.7638 54.4965 47.8695 54.6551L47.1069 54.7457L47.0993 54.7306ZM49.4928 54.4512L48.7604 54.5343L48.2621 50.2229L48.9945 50.1399L49.4928 54.4512ZM48.9039 49.3471L48.1715 49.4301L48.0733 48.592L48.8057 48.509L48.9039 49.3471ZM54.1062 53.9227L53.3738 54.0057L53.0718 51.3857C53.034 51.0912 52.9812 50.8723 52.9056 50.7288C52.8301 50.5854 52.7169 50.4796 52.5659 50.4117C52.4073 50.3437 52.2337 50.3135 52.0449 50.3362C51.7353 50.3739 51.4786 50.5023 51.2747 50.7288C51.0709 50.9553 51.0029 51.3404 51.0633 51.8916L51.3351 54.2473L50.6028 54.3304L50.1044 50.0191L50.7613 49.9436L50.8293 50.5552C51.0935 50.0417 51.5239 49.7548 52.1204 49.6868C52.3771 49.6566 52.6263 49.6793 52.8528 49.7472C53.0793 49.8152 53.2605 49.9209 53.3813 50.0568C53.5097 50.1927 53.6003 50.3664 53.6683 50.5703C53.7136 50.7062 53.7513 50.9402 53.7891 51.2724L54.0986 53.9227H54.1062ZM56.2656 53.6735L55.4351 53.7717L55.3369 52.9411L56.1675 52.843L56.2656 53.6735ZM63.3782 52.8505L62.6533 52.9336L62.3362 50.2154C62.306 49.9209 62.2532 49.7171 62.1928 49.5962C62.1324 49.4754 62.0342 49.3773 61.8983 49.3169C61.7624 49.2565 61.6114 49.2338 61.4453 49.2489C61.1432 49.2867 60.9016 49.415 60.728 49.6415C60.5543 49.8681 60.4863 50.2003 60.5392 50.6458L60.8261 53.1525L60.0937 53.2356L59.769 50.4343C59.7313 50.1097 59.6407 49.8756 59.5048 49.7246C59.3689 49.5736 59.165 49.5207 58.8932 49.5509C58.6893 49.5736 58.5006 49.6491 58.342 49.7775C58.1834 49.9058 58.0702 50.0795 58.0173 50.2984C57.9645 50.5174 57.9569 50.8194 58.0022 51.212L58.2589 53.447L57.5266 53.53L57.0282 49.2187L57.6851 49.1432L57.7531 49.7472C57.8663 49.5207 58.0249 49.332 58.2363 49.1734C58.4477 49.0224 58.6969 48.9242 58.9838 48.894C59.3009 48.8563 59.5727 48.894 59.7917 48.9998C60.0107 49.1055 60.1768 49.2791 60.29 49.5056C60.5694 48.962 60.9847 48.66 61.5359 48.5996C61.9662 48.5467 62.306 48.6298 62.5627 48.8412C62.8194 49.0526 62.978 49.3999 63.0309 49.8983L63.3706 52.8581L63.3782 52.8505ZM67.8481 51.3253C67.7273 51.6953 67.531 51.9973 67.2516 52.2163C66.9722 52.4428 66.6626 52.5711 66.3304 52.6089C66.0888 52.6391 65.8623 52.6089 65.6584 52.5334C65.4546 52.4503 65.2809 52.3446 65.1374 52.2012L65.3791 54.3002L64.6467 54.3833L63.9596 48.4184L64.624 48.3429L64.692 48.9016C64.8203 48.6675 64.9789 48.4788 65.1676 48.3504C65.3489 48.2145 65.5829 48.139 65.8698 48.1012C66.2398 48.0559 66.572 48.1163 66.8741 48.2749C67.1761 48.4335 67.4177 48.6751 67.6065 48.9998C67.7877 49.3244 67.9085 49.6944 67.9538 50.1097C68.0066 50.5476 67.9689 50.9553 67.8556 51.3253H67.8481ZM72.5898 50.3437L71.7894 50.4343L71.9555 51.8614L71.2231 51.9444L71.057 50.5174L68.4748 50.8194L68.3993 50.1474L70.672 45.9796L71.2684 45.9116L71.7139 49.7699L72.5143 49.6793L72.5898 50.3513V50.3437Z" fill="#3040B4"/>
<path d="M29.31 74.777L21.7218 75.6529C19.7813 75.8794 18.3845 77.6311 18.611 79.5716L19.4869 87.1598C19.7134 89.1003 21.4651 90.4971 23.4056 90.2706L30.9938 89.3948C32.9343 89.1683 34.3311 87.4165 34.1046 85.4761L33.2288 77.8878C33.0022 75.9473 31.2505 74.5505 29.31 74.777ZM30.3445 84.1623C30.2086 84.3963 30.0122 84.5927 29.748 84.6682C29.3327 84.789 28.9476 84.721 28.6229 84.4265C28.336 84.1698 28.1246 83.8527 27.9434 83.5054C27.9359 83.4903 27.9283 83.4752 27.9132 83.4525C27.8981 83.4752 27.8906 83.4903 27.8755 83.5129C27.7395 83.747 27.5961 83.9811 27.43 84.2C27.279 84.3888 27.0978 84.5398 26.8637 84.6229C26.6221 84.7059 26.3805 84.7059 26.169 84.5398C25.8746 84.3133 25.8821 83.8678 26.1992 83.6639C26.3503 83.5658 26.5164 83.5658 26.6674 83.6639C26.7202 83.6941 26.758 83.7319 26.8108 83.7696C26.841 83.7319 26.8788 83.6866 26.909 83.6488C27.0977 83.4072 27.2412 83.1354 27.3847 82.8636C27.4375 82.7654 27.4904 82.6597 27.5432 82.5616C27.5432 82.5465 27.5583 82.5238 27.5508 82.5163C27.4526 82.252 27.362 81.9802 27.2639 81.7159C27.2639 81.7159 27.2639 81.7159 27.2639 81.7084C26.6523 81.7688 26.0331 81.8292 25.414 81.8896C25.3989 81.9953 25.3838 82.1085 25.3762 82.2142C25.2856 82.9089 25.2026 83.6035 25.112 84.2982C25.044 84.7814 24.9081 85.242 24.6665 85.6648C24.4022 86.1179 24.0474 86.4803 23.5717 86.7068C23.3074 86.8276 23.028 86.9031 22.7336 86.8805C22.4995 86.8578 22.3107 86.7521 22.205 86.5331C22.1899 86.5029 22.1824 86.4803 22.1748 86.4501L22.1597 86.3217C22.1597 86.3217 22.1597 86.3066 22.1597 86.2991C22.1748 86.065 22.3107 85.914 22.5222 85.8385C22.6732 85.7856 22.8242 85.7932 22.9752 85.7932C23.1639 85.7932 23.3603 85.7932 23.549 85.7479C23.7 85.7177 23.8057 85.6422 23.8435 85.4836C23.8812 85.3024 23.9265 85.1212 23.9567 84.94C24.07 84.1094 24.1757 83.2789 24.2814 82.4559C24.2965 82.3124 24.3192 82.1689 24.3343 82.0179L23.4282 82.1236C23.466 81.8518 23.5037 81.5876 23.5339 81.3157L24.4324 81.21C24.4324 81.1647 24.4475 81.1119 24.4551 81.0666C24.5155 80.6815 24.591 80.304 24.742 79.9491C25.0138 79.3224 25.4744 78.892 26.1086 78.6353C26.1917 78.6051 26.2823 78.5825 26.3729 78.5523L26.5768 78.5296C26.6372 78.5296 26.7051 78.5296 26.7655 78.5447C26.992 78.5825 27.1657 78.6957 27.2412 78.9147C27.3394 79.2016 27.1733 79.5112 26.8788 79.5867C26.7278 79.6244 26.5692 79.6093 26.4107 79.6018C26.2823 79.6018 26.1539 79.5867 26.0256 79.5791C25.9652 79.5791 25.9199 79.6018 25.8746 79.6471C25.7915 79.7377 25.7462 79.8585 25.7009 79.9718C25.6179 80.2058 25.5877 80.4474 25.5575 80.6966C25.5424 80.825 25.5272 80.9458 25.5121 81.0817C25.5272 81.0817 25.5424 81.0817 25.5575 81.0817C26.2294 80.9911 26.9014 80.8929 27.5734 80.8023C27.6263 80.8023 27.6791 80.7872 27.732 80.7948C27.8679 80.7948 27.9736 80.8627 28.0491 80.9684C28.1095 81.0666 28.1624 81.1798 28.2152 81.2855C28.2228 81.3006 28.2303 81.3233 28.2379 81.3459C28.2832 81.2855 28.3134 81.2251 28.3587 81.1723C28.5399 80.908 28.7589 80.6739 29.0307 80.5078C29.1364 80.4399 29.2496 80.387 29.378 80.3644C29.6347 80.304 29.899 80.4248 29.9971 80.6588C30.1104 80.9307 29.9745 81.2251 29.6876 81.3233C29.5592 81.3686 29.4309 81.3912 29.3025 81.4214C29.1817 81.4516 29.0835 81.5045 29.0005 81.5951C28.8193 81.7914 28.6834 82.0255 28.5701 82.2671C28.5701 82.2822 28.5701 82.3049 28.5701 82.32C28.6909 82.6673 28.8042 83.0146 28.925 83.3619C29.0005 83.5658 29.1137 83.7394 29.2798 83.8829C29.31 83.9131 29.3478 83.9358 29.3856 83.9584C29.4233 83.9811 29.446 83.966 29.4611 83.9282C29.4762 83.8905 29.4762 83.8527 29.4913 83.8225C29.5441 83.6413 29.6423 83.5054 29.8235 83.445C30.0726 83.3619 30.3294 83.5129 30.3973 83.7621C30.4351 83.9131 30.42 84.0641 30.3445 84.1925V84.1623Z" fill="#56F586"/>
<path d="M29.8161 83.4071C29.6349 83.4675 29.5367 83.6034 29.4839 83.7846C29.4763 83.8223 29.4688 83.8601 29.4537 83.8903C29.4386 83.9281 29.4159 83.9432 29.3782 83.9205C29.3404 83.8979 29.3102 83.8752 29.2725 83.845C29.1139 83.7015 28.9931 83.5279 28.9176 83.324C28.7968 82.9767 28.676 82.6294 28.5627 82.282C28.5627 82.2669 28.5627 82.2443 28.5627 82.2292C28.676 81.9876 28.8119 81.7535 28.9931 81.5572C29.0761 81.4666 29.1743 81.4137 29.2951 81.3835C29.4235 81.3533 29.5594 81.3307 29.6802 81.2854C29.9671 81.1872 30.103 80.8928 29.9898 80.6209C29.8916 80.3869 29.6349 80.2661 29.3706 80.3265C29.2498 80.3567 29.1365 80.4095 29.0233 80.4699C28.7515 80.6436 28.5325 80.8701 28.3513 81.1344C28.3135 81.1872 28.2758 81.2476 28.2305 81.308C28.2229 81.2854 28.2154 81.2627 28.2078 81.2476C28.155 81.1419 28.1021 81.0362 28.0417 80.9305C27.9738 80.8173 27.8605 80.7568 27.7246 80.7568C27.6718 80.7568 27.6189 80.7568 27.566 80.7644C26.8941 80.855 26.2221 80.9532 25.5501 81.0438C25.535 81.0438 25.5199 81.0438 25.5048 81.0438C25.5199 80.9154 25.535 80.7871 25.5501 80.6587C25.5803 80.4171 25.6105 80.1679 25.6935 79.9338C25.7313 79.813 25.7841 79.6998 25.8672 79.6092C25.9049 79.5639 25.9578 79.5412 26.0182 79.5412C26.1466 79.5488 26.2749 79.5563 26.4033 79.5639C26.5618 79.5714 26.7128 79.5865 26.8714 79.5488C27.1659 79.4733 27.3395 79.1637 27.2338 78.8768C27.1508 78.6578 26.9771 78.5446 26.7581 78.5068C26.6977 78.4992 26.6298 78.4992 26.5694 78.4917L26.3655 78.5143C26.2749 78.537 26.1843 78.5597 26.1012 78.5974C25.467 78.8466 25.014 79.2845 24.7346 79.9112C24.5761 80.2661 24.5005 80.6511 24.4477 81.0287C24.4477 81.074 24.4326 81.1193 24.425 81.1721L23.5265 81.2778C23.4888 81.5496 23.4586 81.8139 23.4208 82.0857L24.3269 81.98C24.3042 82.131 24.2891 82.2745 24.274 82.418C24.1683 83.2485 24.0626 84.0791 23.9494 84.9021C23.9267 85.0833 23.8739 85.2645 23.8361 85.4457C23.7984 85.6043 23.6926 85.6798 23.5416 85.71C23.3529 85.7477 23.1566 85.7477 22.9678 85.7553C22.8168 85.7553 22.6582 85.7553 22.5148 85.8006C22.2958 85.8761 22.1674 86.0271 22.1523 86.2612C22.1523 86.2612 22.1523 86.2763 22.1523 86.2838L22.1674 86.4122C22.1674 86.4122 22.1901 86.4726 22.1976 86.4952C22.3034 86.7142 22.4846 86.8199 22.7262 86.8425C23.0207 86.8652 23.3 86.7972 23.5643 86.6689C24.0475 86.4424 24.4024 86.0799 24.6591 85.6269C24.9083 85.2041 25.0442 84.7435 25.1046 84.2603C25.2027 83.5656 25.2858 82.871 25.3689 82.1763C25.384 82.0706 25.3991 81.9649 25.4066 81.8517C26.0257 81.7913 26.6449 81.7309 27.2565 81.6705V81.678C27.3546 81.9423 27.4452 82.2141 27.5434 82.4784C27.5434 82.4935 27.5434 82.5086 27.5358 82.5237C27.483 82.6218 27.4301 82.7275 27.3773 82.8257C27.2414 83.0975 27.0904 83.3693 26.9016 83.6109C26.8714 83.6562 26.8336 83.694 26.8034 83.7317C26.7506 83.694 26.7053 83.6562 26.66 83.626C26.5014 83.5354 26.3429 83.5354 26.1919 83.626C25.8747 83.8223 25.8672 84.2754 26.1617 84.5019C26.3731 84.668 26.6147 84.668 26.8563 84.5849C27.0904 84.5019 27.2716 84.3509 27.4226 84.1621C27.5962 83.9507 27.7322 83.7166 27.8681 83.475C27.8756 83.4599 27.8907 83.4373 27.9058 83.4146C27.9134 83.4373 27.9285 83.4524 27.936 83.4675C28.1097 83.8148 28.3211 84.1319 28.6156 84.3886C28.9402 84.6831 29.3329 84.7511 29.7406 84.6302C30.0049 84.5547 30.2012 84.3584 30.3371 84.1244C30.4126 83.9885 30.4277 83.845 30.3899 83.694C30.322 83.4448 30.0577 83.2938 29.8161 83.3769V83.4071Z" fill="#37143A"/>
<path d="M25.9502 45.6999L18.3619 46.5757C16.4215 46.8022 15.0246 48.554 15.2511 50.4944L16.127 58.0827C16.3535 60.0231 18.1052 61.42 20.0457 61.1935L27.6339 60.3176C29.5744 60.0911 30.9713 58.3394 30.7447 56.3989L29.8689 48.8107C29.6424 46.8702 27.8907 45.4734 25.9502 45.6999ZM26.9846 55.0851C26.8487 55.3192 26.6524 55.5155 26.3881 55.591C25.9728 55.7118 25.5878 55.6439 25.2631 55.3494C24.9762 55.0927 24.7648 54.7756 24.5835 54.4282C24.576 54.4131 24.5684 54.398 24.5533 54.3754C24.5382 54.398 24.5307 54.4131 24.5156 54.4358C24.3797 54.6698 24.2362 54.9039 24.0701 55.1229C23.9191 55.3116 23.7379 55.4627 23.5038 55.5457C23.2622 55.6288 23.0206 55.6288 22.8092 55.4627C22.5147 55.2361 22.5223 54.7907 22.8394 54.5868C22.9904 54.4886 23.1565 54.4886 23.3075 54.5868C23.3604 54.617 23.3981 54.6548 23.451 54.6925C23.4812 54.6548 23.5189 54.6094 23.5491 54.5717C23.7379 54.3301 23.8813 54.0583 24.0248 53.7864C24.0777 53.6883 24.1305 53.5826 24.1834 53.4844C24.1834 53.4693 24.1985 53.4467 24.1909 53.4391C24.0928 53.1749 24.0022 52.903 23.904 52.6388C23.904 52.6388 23.904 52.6388 23.904 52.6312C23.2924 52.6916 22.6733 52.752 22.0541 52.8124C22.039 52.9181 22.0239 53.0314 22.0164 53.1371C21.9258 53.8317 21.8427 54.5264 21.7521 55.221C21.6842 55.7043 21.5482 56.1648 21.3066 56.5877C21.0424 57.0407 20.6875 57.4031 20.2118 57.6296C19.9475 57.7505 19.6682 57.826 19.3737 57.8033C19.1396 57.7807 18.9509 57.6749 18.8452 57.456C18.8301 57.4258 18.8225 57.4031 18.815 57.3729L18.7999 57.2446C18.7999 57.2446 18.7999 57.2295 18.7999 57.2219C18.815 56.9879 18.9509 56.8368 19.1623 56.7613C19.3133 56.7085 19.4643 56.716 19.6153 56.716C19.8041 56.716 20.0004 56.716 20.1892 56.6707C20.3402 56.6405 20.4459 56.565 20.4836 56.4065C20.5214 56.2253 20.5667 56.044 20.5969 55.8628C20.7101 55.0323 20.8158 54.2017 20.9216 53.3787C20.9367 53.2353 20.9593 53.0918 20.9744 52.9408L20.0683 53.0465C20.1061 52.7747 20.1439 52.5104 20.1741 52.2386L21.0726 52.1329C21.0726 52.0876 21.0877 52.0347 21.0952 51.9894C21.1556 51.6044 21.2311 51.2268 21.3821 50.872C21.654 50.2453 22.1145 49.8149 22.7488 49.5582C22.8318 49.528 22.9224 49.5053 23.013 49.4751L23.2169 49.4525C23.2773 49.4525 23.3453 49.4525 23.4057 49.4676C23.6322 49.5053 23.8058 49.6186 23.8813 49.8375C23.9795 50.1245 23.8134 50.434 23.5189 50.5095C23.3679 50.5473 23.2094 50.5322 23.0508 50.5246C22.9224 50.5246 22.7941 50.5095 22.6657 50.502C22.6053 50.502 22.56 50.5246 22.5147 50.5699C22.4317 50.6605 22.3863 50.7813 22.341 50.8946C22.258 51.1287 22.2278 51.3703 22.1976 51.6195C22.1825 51.7478 22.1674 51.8686 22.1523 52.0045C22.1674 52.0045 22.1825 52.0045 22.1976 52.0045C22.8696 51.9139 23.5416 51.8158 24.2136 51.7252C24.2664 51.7252 24.3193 51.7101 24.3721 51.7176C24.508 51.7176 24.6137 51.7856 24.6892 51.8913C24.7497 51.9894 24.8025 52.1027 24.8554 52.2084C24.8629 52.2235 24.8705 52.2461 24.878 52.2688C24.9233 52.2084 24.9535 52.148 24.9988 52.0951C25.18 51.8309 25.399 51.5968 25.6708 51.4307C25.7765 51.3627 25.8898 51.3099 26.0181 51.2872C26.2749 51.2268 26.5391 51.3476 26.6373 51.5817C26.7505 51.8535 26.6146 52.148 26.3277 52.2461C26.1993 52.2914 26.071 52.3141 25.9426 52.3443C25.8218 52.3745 25.7237 52.4274 25.6406 52.518C25.4594 52.7143 25.3235 52.9483 25.2102 53.19C25.2102 53.2051 25.2102 53.2277 25.2102 53.2428C25.331 53.5901 25.4443 53.9375 25.5651 54.2848C25.6406 54.4886 25.7539 54.6623 25.92 54.8058C25.9502 54.836 25.9879 54.8586 26.0257 54.8813C26.0634 54.9039 26.0861 54.8888 26.1012 54.8511C26.1163 54.8133 26.1163 54.7756 26.1314 54.7454C26.1842 54.5641 26.2824 54.4282 26.4636 54.3678C26.7128 54.2848 26.9695 54.4358 27.0375 54.685C27.0752 54.836 27.0601 54.987 26.9846 55.1153V55.0851Z" fill="#FFCD50"/>
<path d="M26.4562 54.3377C26.275 54.3981 26.1769 54.534 26.124 54.7153C26.1165 54.753 26.1089 54.7908 26.0938 54.821C26.0787 54.8587 26.0561 54.8738 26.0183 54.8512C25.9805 54.8285 25.9503 54.8059 25.9126 54.7757C25.754 54.6322 25.6332 54.4585 25.5577 54.2547C25.4369 53.9074 25.3161 53.56 25.2028 53.2127C25.2028 53.1976 25.2028 53.175 25.2028 53.1599C25.3161 52.9182 25.452 52.6842 25.6332 52.4879C25.7163 52.3973 25.8144 52.3444 25.9352 52.3142C26.0636 52.284 26.1995 52.2613 26.3203 52.216C26.6072 52.1179 26.7431 51.8234 26.6299 51.5516C26.5317 51.3175 26.275 51.1967 26.0107 51.2571C25.8899 51.2873 25.7767 51.3402 25.6634 51.4006C25.3916 51.5743 25.1726 51.8008 24.9914 52.065C24.9537 52.1179 24.9159 52.1783 24.8706 52.2387C24.8631 52.216 24.8555 52.1934 24.848 52.1783C24.7951 52.0726 24.7423 51.9669 24.6819 51.8612C24.6139 51.7479 24.5007 51.6875 24.3647 51.6875C24.3119 51.6875 24.259 51.6875 24.2062 51.6951C23.5342 51.7857 22.8622 51.8838 22.1902 51.9744C22.1751 51.9744 22.16 51.9744 22.1449 51.9744C22.16 51.8461 22.1751 51.7177 22.1902 51.5894C22.2204 51.3477 22.2506 51.0986 22.3337 50.8645C22.3714 50.7437 22.4243 50.6304 22.5073 50.5398C22.5451 50.4945 22.5979 50.4719 22.6583 50.4719C22.7867 50.4794 22.915 50.487 23.0434 50.4945C23.202 50.5021 23.353 50.5172 23.5115 50.4794C23.806 50.4039 23.9797 50.0944 23.874 49.8074C23.7909 49.5885 23.6172 49.4752 23.3983 49.4375C23.3379 49.4299 23.2699 49.4299 23.2095 49.4224L23.0057 49.445C22.915 49.4677 22.8244 49.4903 22.7414 49.5281C22.1071 49.7772 21.6541 50.2152 21.3747 50.8419C21.2162 51.1967 21.1407 51.5818 21.0878 51.9593C21.0878 52.0046 21.0727 52.0499 21.0652 52.1028L20.1667 52.2085C20.1289 52.4803 20.0987 52.7446 20.061 53.0164L20.967 52.9107C20.9444 53.0617 20.9293 53.2052 20.9142 53.3486C20.8085 54.1792 20.7028 55.0097 20.5895 55.8327C20.5668 56.0139 20.514 56.1952 20.4762 56.3764C20.4385 56.5349 20.3328 56.6104 20.1818 56.6406C19.993 56.6784 19.7967 56.6784 19.6079 56.6859C19.4569 56.6859 19.2984 56.6859 19.1549 56.7312C18.9359 56.8067 18.8076 56.9578 18.7925 57.1918C18.7925 57.1918 18.7925 57.2069 18.7925 57.2145L18.8076 57.3428C18.8076 57.3428 18.8302 57.4032 18.8378 57.4259C18.9435 57.6448 19.1247 57.7506 19.3663 57.7732C19.6608 57.7959 19.9402 57.7279 20.2044 57.5995C20.6877 57.373 21.0425 57.0106 21.2992 56.5576C21.5484 56.1347 21.6843 55.6742 21.7447 55.1909C21.8429 54.4963 21.9259 53.8016 22.009 53.107C22.0241 53.0013 22.0392 52.8956 22.0467 52.7823C22.6659 52.7219 23.285 52.6615 23.8966 52.6011V52.6087C23.9948 52.8729 24.0854 53.1448 24.1835 53.409C24.1835 53.4241 24.1835 53.4392 24.176 53.4543C24.1231 53.5525 24.0703 53.6582 24.0174 53.7563C23.8815 54.0282 23.7305 54.3 23.5417 54.5416C23.5115 54.5869 23.4738 54.6247 23.4436 54.6624C23.3907 54.6247 23.3454 54.5869 23.3001 54.5567C23.1416 54.4661 22.983 54.4661 22.832 54.5567C22.5149 54.753 22.5073 55.206 22.8018 55.4326C23.0132 55.5987 23.2548 55.5987 23.4964 55.5156C23.7305 55.4326 23.9117 55.2815 24.0627 55.0928C24.2364 54.8814 24.3723 54.6473 24.5082 54.4057C24.5158 54.3906 24.5309 54.3679 24.546 54.3453C24.5535 54.3679 24.5686 54.383 24.5762 54.3981C24.7498 54.7455 24.9612 55.0626 25.2557 55.3193C25.5804 55.6138 25.973 55.6817 26.3807 55.5609C26.645 55.4854 26.8413 55.2891 26.9772 55.055C27.0527 54.9191 27.0678 54.7757 27.0301 54.6247C26.9621 54.3755 26.6978 54.2245 26.4562 54.3075V54.3377Z" fill="#37143A"/>
<path d="M40.2662 53.6885C40.1681 54.1264 40.1001 54.4511 40.0624 54.6776C39.9793 54.4888 39.8509 54.2095 39.6773 53.8319L37.7821 49.7849L36.5967 49.9208L37.2838 55.8706L38.0464 55.78L37.4574 50.7136L39.7603 55.5761L40.4701 55.4931L41.6253 50.3134L42.1991 55.2967L42.9617 55.2061L42.2746 49.2563L41.2176 49.3772L40.2738 53.6809L40.2662 53.6885Z" fill="#1C1E21"/>
<path d="M47.4157 52.865L47.3025 51.8912C47.2647 51.5666 47.227 51.3401 47.1892 51.2193C47.1213 51.023 47.0307 50.8645 46.9024 50.7513C46.7816 50.6305 46.6004 50.5399 46.3588 50.4795C46.1173 50.4191 45.8153 50.4116 45.4454 50.4569C45.0755 50.5021 44.7509 50.5852 44.4867 50.7211C44.2149 50.857 44.0186 51.023 43.8903 51.2269C43.7619 51.4307 43.6864 51.6949 43.6562 52.0044L44.381 52.0195C44.4263 51.7025 44.5168 51.476 44.6678 51.3401C44.8188 51.2042 45.0679 51.1136 45.4076 51.0683C45.7775 51.023 46.0644 51.0759 46.2682 51.2193C46.4192 51.325 46.5098 51.5288 46.5476 51.8232C46.5476 51.8534 46.5551 51.9138 46.5627 52.012C46.2984 52.1403 45.8681 52.2762 45.2869 52.4121C45 52.48 44.7886 52.5404 44.6527 52.5932C44.464 52.6687 44.2979 52.7669 44.1545 52.8952C44.0111 53.016 43.9054 53.1745 43.8223 53.3557C43.7468 53.5444 43.7242 53.7407 43.7468 53.9521C43.7921 54.3144 43.9507 54.5938 44.23 54.7976C44.5093 55.0014 44.8868 55.0693 45.3623 55.0165C45.6492 54.9863 45.9134 54.9033 46.155 54.7825C46.3966 54.6617 46.6381 54.4654 46.8797 54.2087C46.925 54.4126 46.9929 54.5787 47.0835 54.7221L47.846 54.6315C47.7328 54.4805 47.6497 54.3144 47.6044 54.1333C47.5516 53.9596 47.4836 53.5293 47.4081 52.8499L47.4157 52.865ZM46.6683 52.8575C46.7061 53.1821 46.691 53.4236 46.6381 53.6048C46.5626 53.8313 46.4192 54.02 46.2154 54.1635C46.0116 54.3144 45.77 54.405 45.4831 54.4352C45.1963 54.4654 44.9773 54.4352 44.8113 54.3144C44.6452 54.2012 44.5546 54.0502 44.5319 53.8539C44.5168 53.7256 44.5319 53.6048 44.5923 53.4916C44.6452 53.3783 44.7358 53.2878 44.8566 53.2198C44.9773 53.1519 45.1812 53.0764 45.4756 53.0009C45.9965 52.865 46.3815 52.7291 46.6381 52.5857L46.6683 52.8499V52.8575Z" fill="#1C1E21"/>
<path d="M48.9921 50.144L48.2646 50.228L48.7628 54.5401L49.4902 54.456L48.9921 50.144Z" fill="#1C1E21"/>
<path d="M48.8073 48.5078L48.0806 48.5918L48.1775 49.4309L48.9043 49.347L48.8073 48.5078Z" fill="#1C1E21"/>
<path d="M53.3881 50.049C53.2598 49.9132 53.0862 49.8075 52.8597 49.7395C52.6332 49.6716 52.3841 49.6489 52.1274 49.6791C51.531 49.7471 51.1007 50.0415 50.8365 50.5473L50.7686 49.9358L50.1118 50.0113L50.6101 54.3218L51.3423 54.2388L51.0705 51.8835C51.0102 51.3324 51.0705 50.9474 51.2819 50.7209C51.4857 50.4944 51.7424 50.3661 52.0519 50.3284C52.2482 50.3057 52.4218 50.3284 52.5728 50.4039C52.7313 50.4718 52.8446 50.5775 52.9125 50.7209C52.988 50.8643 53.0409 51.0833 53.0786 51.3777L53.3806 53.9972L54.1128 53.9142L53.8033 51.2645C53.7656 50.9247 53.7203 50.6907 53.6825 50.5624C53.6146 50.3586 53.5165 50.1849 53.3957 50.049H53.3881Z" fill="#1C1E21"/>
<path d="M56.1647 52.8365L55.333 52.9326L55.4291 53.7643L56.2607 53.6682L56.1647 52.8365Z" fill="#1C1E21"/>
<path d="M61.5355 48.592C60.9918 48.6524 60.5766 48.9544 60.2896 49.498C60.1764 49.2715 60.0103 49.0979 59.7913 48.9921C59.5724 48.8864 59.3005 48.8487 58.9834 48.8864C58.6965 48.9166 58.4473 49.0148 58.2359 49.1658C58.0245 49.3168 57.8659 49.5131 57.7527 49.7396L57.6847 49.1356L57.0278 49.2111L57.5262 53.5224L58.2586 53.4394L58.0018 51.2044C57.9565 50.8118 57.9641 50.5098 58.017 50.2908C58.0698 50.0719 58.1831 49.8982 58.3416 49.7698C58.5002 49.6415 58.6889 49.566 58.8928 49.5433C59.1646 49.5131 59.3685 49.5735 59.5044 49.717C59.6403 49.868 59.7309 50.1021 59.7687 50.4267L60.0933 53.228L60.8257 53.1449L60.5388 50.6382C60.486 50.1927 60.5539 49.8605 60.7276 49.6339C60.9012 49.4074 61.1428 49.2791 61.4449 49.2413C61.611 49.2187 61.762 49.2413 61.8979 49.3093C62.0338 49.3697 62.132 49.4678 62.1924 49.5886C62.2528 49.7094 62.3056 49.9209 62.3358 50.2078L62.653 52.926L63.3778 52.8429L63.038 49.8831C62.9776 49.3923 62.8266 49.0375 62.5699 48.826C62.3132 48.6146 61.9734 48.5391 61.543 48.5844L61.5355 48.592Z" fill="#1C1E21"/>
<path d="M66.874 48.2669C66.5719 48.1083 66.2322 48.0555 65.8697 48.0932C65.5904 48.1234 65.3563 48.2065 65.1676 48.3424C64.9863 48.4783 64.8278 48.6595 64.6919 48.8936L64.6239 48.3348L63.9595 48.4103L64.6466 54.3752L65.379 54.2922L65.1374 52.1931C65.2808 52.3366 65.4545 52.4498 65.6583 52.5253C65.8622 52.6084 66.0887 52.6311 66.3303 52.6008C66.6625 52.5631 66.9721 52.4347 67.2515 52.2082C67.5309 51.9817 67.7272 51.6872 67.848 51.3173C67.9688 50.9473 67.999 50.5396 67.9461 50.1016C67.9008 49.6939 67.78 49.3239 67.5988 48.9917C67.4176 48.667 67.1684 48.4179 66.8664 48.2669H66.874ZM67.0023 51.4985C66.806 51.8005 66.5417 51.9666 66.2171 52.0044C65.8924 52.0421 65.613 51.9364 65.3563 51.7023C65.0996 51.4607 64.941 51.0681 64.8806 50.5094C64.8202 49.9506 64.8806 49.5202 65.092 49.2031C65.2959 48.886 65.5526 48.7048 65.8697 48.6746C66.1869 48.6444 66.4662 48.7425 66.7305 48.9917C66.9872 49.2409 67.1458 49.6335 67.2137 50.1847C67.2817 50.7585 67.2137 51.1965 67.0174 51.4985H67.0023Z" fill="#1C1E21"/>
<path d="M71.2681 45.9118L70.6716 45.9798L68.3989 50.1477L68.4744 50.8197L71.0567 50.5176L71.2228 51.9447L71.9552 51.8616L71.7891 50.4346L72.5894 50.344L72.5139 49.672L71.7136 49.7626L71.2681 45.9043V45.9118ZM70.9812 49.8457L69.1162 50.0646L70.6716 47.1652L70.9812 49.8457Z" fill="#1C1E21"/>
<path d="M97.6645 99.8445L11.9362 109.751C9.60309 110.023 7.48895 108.339 7.21713 106.013L0.248032 45.6849C-0.023786 43.3518 1.65997 41.2376 3.98552 40.9658L89.7138 31.0596C92.0469 30.7877 94.161 32.4715 94.4328 34.797L101.41 95.1255C101.681 97.4586 99.9976 99.5727 97.672 99.8445H97.6645ZM4.05348 41.5472C2.0375 41.7813 0.595354 43.6085 0.829419 45.6169L7.80607 105.945C8.04014 107.961 9.86736 109.403 11.8758 109.169L97.6041 99.2631C99.62 99.0291 101.062 97.2019 100.828 95.1934L93.8515 34.865C93.6174 32.849 91.7902 31.4069 89.7817 31.6409L4.05348 41.5472Z" fill="black"/>
<path d="M103.47 1.04587L91.6238 2.41251C88.6715 2.75228 86.5574 5.42515 86.8972 8.37739L88.0448 18.2761C88.2487 20.0203 89.2831 21.553 90.831 22.3911C90.831 22.3911 92.0466 23.0404 93.4812 23.8106C96.3504 25.3358 98.2833 28.1748 98.6533 31.4064L105.804 98.6133L110.394 98.0848L103.244 30.8779C102.874 27.6538 104.105 24.4448 106.551 22.3081C107.774 21.2359 108.809 20.3223 108.809 20.3223C110.122 19.1595 110.787 17.4229 110.583 15.6787L109.435 5.78002C109.096 2.82778 106.423 0.713645 103.47 1.05342V1.04587Z" fill="white"/>
<path d="M110.712 98.3347L105.54 98.9312L105.509 98.6367L98.3591 31.4298C97.9967 28.3039 96.1242 25.548 93.338 24.0605C91.9034 23.2979 90.6878 22.641 90.6878 22.641C89.0569 21.7576 87.9621 20.1418 87.7507 18.2995L86.603 8.40082C86.2406 5.29757 88.4755 2.47369 91.5863 2.11881L103.433 0.759725C106.536 0.397302 109.36 2.63225 109.715 5.74305L110.863 15.6417C111.074 17.4765 110.379 19.3113 108.99 20.5345C108.99 20.5345 107.956 21.4481 106.733 22.5202C104.362 24.5966 103.161 27.7074 103.524 30.8409L110.704 98.3347H110.712ZM106.061 98.2894L110.07 97.8288L102.95 30.9088C102.565 27.5942 103.841 24.2946 106.348 22.0899C107.571 21.0177 108.605 20.1041 108.605 20.1041C109.843 19.0017 110.47 17.3633 110.281 15.7172L109.134 5.81855C108.809 3.03242 106.28 1.02399 103.493 1.34866L91.6467 2.7153C88.8606 3.03997 86.8521 5.56939 87.1768 8.35552L88.3245 18.2542C88.5133 19.9002 89.5024 21.3575 90.9596 22.1427C90.9596 22.1427 92.1752 22.7921 93.6098 23.5622C96.5621 25.1327 98.5479 28.0547 98.9329 31.377L106.053 98.2894H106.061Z" fill="black"/>
</svg>
