<svg width="83" height="268" viewBox="0 0 83 268" fill="none" xmlns="http://www.w3.org/2000/svg">
<g filter="url(#filter0_d_588_36)">
<rect x="11.6743" y="242.621" width="229.427" height="45.8855" rx="15.0444" transform="rotate(-90 11.6743 242.621)" fill="#3040B4"/>
</g>
<path fill-rule="evenodd" clip-rule="evenodd" d="M24.1564 194.478C24.156 196.388 24.6595 198.263 25.6159 199.915C26.5723 201.567 27.9477 202.936 29.6026 203.884C31.2575 204.832 33.133 205.325 35.0393 205.312C36.9455 205.3 38.8146 204.783 40.4571 203.814L41.4276 203.043L44.6161 203.987L43.7402 200.846L44.0686 200.333C44.9763 198.917 45.542 197.308 45.721 195.635C45.8999 193.961 45.6872 192.269 45.0997 190.692C44.5121 189.116 43.5659 187.698 42.3361 186.551C41.1063 185.405 39.6267 184.561 38.0147 184.087C36.4027 183.613 34.7027 183.522 33.0494 183.821C31.396 184.12 29.835 184.8 28.49 185.809C27.145 186.817 26.0531 188.126 25.3009 189.631C24.5487 191.135 24.1568 192.795 24.1564 194.478ZM34.9695 208.018C27.5044 208.018 21.4531 201.956 21.4531 194.478C21.4531 187 27.5044 180.938 34.9694 180.938C42.4345 180.938 48.4858 187 48.4858 194.478C48.4892 196.863 47.8609 199.207 46.6651 201.27L48.5331 207.969L42.0061 206.039L41.9966 206.047L41.9222 206.091C39.8228 207.355 37.4189 208.021 34.9695 208.018Z" fill="#EEEEEE"/>
<path d="M36.9861 188.067C36.9618 188.118 35.9913 190.094 35.8642 190.445C35.8038 190.591 35.7695 190.747 35.7629 190.905C35.7629 191.17 35.8953 191.395 36.1562 191.568C36.4495 191.766 37.1456 192.363 37.3537 192.547C37.3808 192.572 37.4146 192.604 37.4146 192.624C37.4146 192.642 37.2889 192.948 37.2483 193.04C36.3292 195.158 34.122 196.765 33.7489 196.986C33.6949 197.017 33.6719 197.018 33.6719 197.018C33.6435 197.011 33.5719 196.94 33.5354 196.903C33.4286 196.795 33.2894 196.678 33.1529 196.566L32.9636 196.408C32.7744 196.244 32.6257 196.171 32.4568 196.087L32.3676 196.042C32.2322 195.975 32.0825 195.942 31.9317 195.947C31.7808 195.952 31.6334 195.994 31.5025 196.069C31.4093 196.115 29.4007 196.949 29.1899 197.037C28.6803 197.251 28.4438 197.533 28.4438 197.924C28.4438 197.961 28.4438 197.924 28.4505 198.076C28.4573 198.261 28.5911 199.271 28.8709 199.718C29.1682 200.192 30.1198 200.991 31.7904 200.991C33.2934 200.991 34.7126 200.036 35.2519 199.626L35.333 199.57C37.6241 197.998 39.3217 196.039 40.1138 194.054C40.8761 192.142 40.9653 191.237 40.9653 190.722C40.9653 190.505 40.9477 190.332 40.9329 190.18L40.9234 190.083C40.8653 189.422 40.1138 187.971 39.1987 187.64C38.4769 187.38 37.6889 187.311 37.4024 187.485C37.2078 187.604 37.1104 187.808 36.9861 188.067Z" fill="#EEEEEE"/>
<path d="M24.38 143.453L43.8776 151.902L34.4809 155.802L43.8776 159.701L24.38 168.15L24.38 164.251L35.212 159.701L30.1481 157.535L24.38 159.81L24.38 156.019L35.212 151.902L24.38 147.353L24.38 143.453ZM30.6626 135.213C30.6626 132.478 32.4499 130.23 36.5119 130.23L43.4443 130.23L43.4443 133.697L36.5119 133.697C34.3455 133.697 33.9122 135.024 33.9122 136.08C33.9122 137.082 34.7246 138.463 36.9451 138.463L43.4443 138.463L43.4443 141.929L23.5135 141.929L23.5135 138.463L32.1791 138.463C31.4479 137.867 30.6626 136.946 30.6626 135.213ZM43.4443 116.367L43.4443 119.833L42.1445 119.833C43.0381 120.7 43.661 121.837 43.661 123.354C43.661 126.387 41.7654 128.065 39.4636 128.065C36.1327 128.065 34.6433 123.922 35.8078 119.887C34.4809 119.996 33.8039 120.781 33.8039 122.433C33.8039 123.516 34.2101 124.491 34.6433 125.249L31.9624 126.549C31.3125 125.547 30.6626 124.058 30.6626 122C30.6626 118.94 32.4499 116.367 37.3243 116.367L43.4443 116.367ZM38.3804 119.833C37.4867 122.541 38.1096 124.599 39.4636 124.599C40.4114 124.599 40.953 123.733 40.953 122.704C40.953 121.512 39.9781 120.131 38.3804 119.833ZM43.4443 112.253L34.1288 112.253L34.1288 114.42L30.8792 114.42L30.8792 112.253L26.7631 112.253L25.6799 108.787L30.8792 108.787L30.8792 105.321L34.1288 105.321L34.1288 108.787L43.4443 108.787L43.4443 112.253ZM35.4557 97.8904C36.1327 95.047 37.1347 93.1785 39.5719 93.1785C41.7654 93.1785 43.661 94.8303 43.661 98.5403C43.661 101.194 42.307 102.927 41.6571 103.577L39.0845 101.817C40.0323 100.68 40.3572 99.6235 40.4655 98.7299C40.628 97.4029 40.2489 96.6447 39.7885 96.6447C39.274 96.6447 39.1386 97.3759 38.7595 98.8382C37.8388 102.467 36.0515 103.144 34.5621 103.144C32.4769 103.144 30.6626 101.384 30.6626 98.0799C30.6626 98.0799 30.6626 96.0219 32.0166 94.0179L34.6975 95.6157C34.2913 96.2385 33.9393 96.9697 33.858 97.9987C33.7768 99.1361 34.1017 99.6777 34.5079 99.6777C34.9412 99.6777 35.1579 99.1361 35.4557 97.8904ZM43.4443 79.9518L43.4443 83.418L42.1445 83.418C43.0381 84.2846 43.661 85.422 43.661 86.9384C43.661 89.9714 41.7654 91.6504 39.4636 91.6504C36.1327 91.6504 34.6433 87.5071 35.8078 83.4722C34.4809 83.5805 33.8039 84.3658 33.8039 86.0177C33.8039 87.1009 34.2101 88.0758 34.6433 88.834L31.9624 90.1339C31.3125 89.1319 30.6626 87.6425 30.6626 85.5844C30.6626 82.5244 32.4499 79.9518 37.3243 79.9518L43.4443 79.9518ZM38.3804 83.418C37.4867 86.126 38.1096 88.1841 39.4636 88.1841C40.4114 88.1841 40.953 87.3176 40.953 86.2885C40.953 85.097 39.9781 83.7159 38.3804 83.418ZM30.8792 73.6718L32.1791 73.6718C31.2584 72.7782 30.6626 71.4242 30.6626 69.9348C30.6626 66.3873 33.4518 63.7064 37.1618 63.7064C40.8717 63.7064 43.661 66.3873 43.661 69.9348C43.661 71.4242 43.0381 72.7782 42.0903 73.6718L50.3768 73.6718L50.3768 77.138L30.8792 77.138L30.8792 73.6718ZM40.4114 70.4222C40.4114 68.6349 38.9491 67.1726 37.1618 67.1726C35.3745 67.1726 33.9122 68.6349 33.9122 70.4222C33.9122 72.2095 35.3745 73.6718 37.1618 73.6718C38.9491 73.6718 40.4114 72.2095 40.4114 70.4222ZM30.8792 57.8575L32.1791 57.8575C31.2583 56.9639 30.6626 55.6099 30.6626 54.1205C30.6626 50.573 33.4518 47.8921 37.1618 47.8921C40.8717 47.8921 43.661 50.573 43.661 54.1205C43.661 55.6099 43.0381 56.9639 42.0903 57.8575L50.3768 57.8575L50.3768 61.3238L30.8792 61.3238L30.8792 57.8575ZM40.4114 54.6079C40.4114 52.8207 38.9491 51.3583 37.1618 51.3583C35.3745 51.3583 33.9122 52.8207 33.9122 54.6079C33.9122 56.3952 35.3745 57.8575 37.1618 57.8575C38.9491 57.8575 40.4114 56.3952 40.4114 54.6079Z" fill="#EEEEEE"/>
<defs>
<filter id="filter0_d_588_36" x="0.0148873" y="0.781709" width="82.7441" height="266.286" filterUnits="userSpaceOnUse" color-interpolation-filters="sRGB">
<feFlood flood-opacity="0" result="BackgroundImageFix"/>
<feColorMatrix in="SourceAlpha" type="matrix" values="0 0 0 0 0 0 0 0 0 0 0 0 0 0 0 0 0 0 127 0" result="hardAlpha"/>
<feOffset dx="6.76999" dy="6.01777"/>
<feGaussianBlur stdDeviation="9.21471"/>
<feComposite in2="hardAlpha" operator="out"/>
<feColorMatrix type="matrix" values="0 0 0 0 0 0 0 0 0 0 0 0 0 0 0 0 0 0 0.15 0"/>
<feBlend mode="normal" in2="BackgroundImageFix" result="effect1_dropShadow_588_36"/>
<feBlend mode="normal" in="SourceGraphic" in2="effect1_dropShadow_588_36" result="shape"/>
</filter>
</defs>
</svg>
